G04 #@! TF.GenerationSoftware,KiCad,Pcbnew,6.0.7+dfsg-1+b1*
G04 #@! TF.CreationDate,2022-09-04T00:21:26+08:00*
G04 #@! TF.ProjectId,mcustm32f446,6d637573-746d-4333-9266-3434362e6b69,a*
G04 #@! TF.SameCoordinates,Original*
G04 #@! TF.FileFunction,Paste,Top*
G04 #@! TF.FilePolarity,Positive*
%FSLAX46Y46*%
G04 Gerber Fmt 4.6, Leading zero omitted, Abs format (unit mm)*
G04 Created by KiCad (PCBNEW 6.0.7+dfsg-1+b1) date 2022-09-04 00:21:26*
%MOMM*%
%LPD*%
G01*
G04 APERTURE LIST*
G04 Aperture macros list*
%AMRoundRect*
0 Rectangle with rounded corners*
0 $1 Rounding radius*
0 $2 $3 $4 $5 $6 $7 $8 $9 X,Y pos of 4 corners*
0 Add a 4 corners polygon primitive as box body*
4,1,4,$2,$3,$4,$5,$6,$7,$8,$9,$2,$3,0*
0 Add four circle primitives for the rounded corners*
1,1,$1+$1,$2,$3*
1,1,$1+$1,$4,$5*
1,1,$1+$1,$6,$7*
1,1,$1+$1,$8,$9*
0 Add four rect primitives between the rounded corners*
20,1,$1+$1,$2,$3,$4,$5,0*
20,1,$1+$1,$4,$5,$6,$7,0*
20,1,$1+$1,$6,$7,$8,$9,0*
20,1,$1+$1,$8,$9,$2,$3,0*%
G04 Aperture macros list end*
%ADD10R,0.900000X1.200000*%
%ADD11R,1.450000X0.600000*%
%ADD12R,1.450000X0.300000*%
%ADD13R,1.200000X2.000000*%
%ADD14RoundRect,0.225000X0.225000X0.250000X-0.225000X0.250000X-0.225000X-0.250000X0.225000X-0.250000X0*%
%ADD15RoundRect,0.225000X-0.225000X-0.250000X0.225000X-0.250000X0.225000X0.250000X-0.225000X0.250000X0*%
%ADD16R,2.000000X1.500000*%
%ADD17R,2.000000X3.800000*%
%ADD18RoundRect,0.250000X-0.475000X0.250000X-0.475000X-0.250000X0.475000X-0.250000X0.475000X0.250000X0*%
%ADD19RoundRect,0.218750X0.218750X0.256250X-0.218750X0.256250X-0.218750X-0.256250X0.218750X-0.256250X0*%
%ADD20RoundRect,0.200000X-0.200000X-0.275000X0.200000X-0.275000X0.200000X0.275000X-0.200000X0.275000X0*%
%ADD21RoundRect,0.150000X-0.512500X-0.150000X0.512500X-0.150000X0.512500X0.150000X-0.512500X0.150000X0*%
%ADD22RoundRect,0.200000X0.200000X0.275000X-0.200000X0.275000X-0.200000X-0.275000X0.200000X-0.275000X0*%
%ADD23R,1.200000X1.400000*%
%ADD24RoundRect,0.075000X-0.700000X-0.075000X0.700000X-0.075000X0.700000X0.075000X-0.700000X0.075000X0*%
%ADD25RoundRect,0.075000X-0.075000X-0.700000X0.075000X-0.700000X0.075000X0.700000X-0.075000X0.700000X0*%
G04 APERTURE END LIST*
D10*
G04 #@! TO.C,D2*
X182500000Y-109220000D03*
X185800000Y-109220000D03*
G04 #@! TD*
D11*
G04 #@! TO.C,J1*
X182645000Y-104850000D03*
X182645000Y-104050000D03*
D12*
X182645000Y-102850000D03*
X182645000Y-101850000D03*
X182645000Y-101350000D03*
X182645000Y-100350000D03*
D11*
X182645000Y-99150000D03*
X182645000Y-98350000D03*
X182645000Y-98350000D03*
X182645000Y-99150000D03*
D12*
X182645000Y-99850000D03*
X182645000Y-100850000D03*
X182645000Y-102350000D03*
X182645000Y-103350000D03*
D11*
X182645000Y-104050000D03*
X182645000Y-104850000D03*
G04 #@! TD*
D13*
G04 #@! TO.C,SW1*
X115910000Y-116155000D03*
X120310000Y-116205000D03*
G04 #@! TD*
G04 #@! TO.C,SW2*
X120310000Y-110540000D03*
X115910000Y-110490000D03*
G04 #@! TD*
D14*
G04 #@! TO.C,C5*
X146825000Y-95250000D03*
X145275000Y-95250000D03*
G04 #@! TD*
D15*
G04 #@! TO.C,C6*
X157975000Y-95250000D03*
X159525000Y-95250000D03*
G04 #@! TD*
D14*
G04 #@! TO.C,C7*
X141745000Y-106680000D03*
X140195000Y-106680000D03*
G04 #@! TD*
G04 #@! TO.C,C8*
X149365000Y-109855000D03*
X147815000Y-109855000D03*
G04 #@! TD*
D16*
G04 #@! TO.C,U1*
X180315000Y-114060000D03*
X180315000Y-111760000D03*
D17*
X174015000Y-111760000D03*
D16*
X180315000Y-109460000D03*
G04 #@! TD*
D18*
G04 #@! TO.C,C1*
X182880000Y-112080000D03*
X182880000Y-113980000D03*
G04 #@! TD*
D15*
G04 #@! TO.C,C2*
X122375000Y-114935000D03*
X123925000Y-114935000D03*
G04 #@! TD*
D19*
G04 #@! TO.C,D1*
X117627500Y-89535000D03*
X116052500Y-89535000D03*
G04 #@! TD*
G04 #@! TO.C,D3*
X117627500Y-91440000D03*
X116052500Y-91440000D03*
G04 #@! TD*
D20*
G04 #@! TO.C,R4*
X173800000Y-99060000D03*
X175450000Y-99060000D03*
G04 #@! TD*
G04 #@! TO.C,R7*
X119190000Y-89535000D03*
X120840000Y-89535000D03*
G04 #@! TD*
G04 #@! TO.C,R8*
X119190000Y-91440000D03*
X120840000Y-91440000D03*
G04 #@! TD*
D15*
G04 #@! TO.C,C9*
X140125000Y-97100000D03*
X141675000Y-97100000D03*
G04 #@! TD*
D14*
G04 #@! TO.C,C11*
X141675000Y-103350000D03*
X140125000Y-103350000D03*
G04 #@! TD*
D21*
G04 #@! TO.C,U2*
X177297500Y-100650000D03*
X177297500Y-101600000D03*
X177297500Y-102550000D03*
X179572500Y-102550000D03*
X179572500Y-101600000D03*
X179572500Y-100650000D03*
G04 #@! TD*
D15*
G04 #@! TO.C,C4*
X157975000Y-107950000D03*
X159525000Y-107950000D03*
G04 #@! TD*
G04 #@! TO.C,C10*
X157975000Y-109855000D03*
X159525000Y-109855000D03*
G04 #@! TD*
D22*
G04 #@! TO.C,R1*
X124015000Y-117475000D03*
X122365000Y-117475000D03*
G04 #@! TD*
D20*
G04 #@! TO.C,R2*
X122365000Y-110490000D03*
X124015000Y-110490000D03*
G04 #@! TD*
D23*
G04 #@! TO.C,Y1*
X140120000Y-99230000D03*
X140120000Y-101430000D03*
X141820000Y-101430000D03*
X141820000Y-99230000D03*
G04 #@! TD*
D18*
G04 #@! TO.C,C3*
X171450000Y-112080000D03*
X171450000Y-113980000D03*
G04 #@! TD*
D24*
G04 #@! TO.C,U3*
X146725000Y-97850000D03*
X146725000Y-98350000D03*
X146725000Y-98850000D03*
X146725000Y-99350000D03*
X146725000Y-99850000D03*
X146725000Y-100350000D03*
X146725000Y-100850000D03*
X146725000Y-101350000D03*
X146725000Y-101850000D03*
X146725000Y-102350000D03*
X146725000Y-102850000D03*
X146725000Y-103350000D03*
X146725000Y-103850000D03*
X146725000Y-104350000D03*
X146725000Y-104850000D03*
X146725000Y-105350000D03*
D25*
X148650000Y-107275000D03*
X149150000Y-107275000D03*
X149650000Y-107275000D03*
X150150000Y-107275000D03*
X150650000Y-107275000D03*
X151150000Y-107275000D03*
X151650000Y-107275000D03*
X152150000Y-107275000D03*
X152650000Y-107275000D03*
X153150000Y-107275000D03*
X153650000Y-107275000D03*
X154150000Y-107275000D03*
X154650000Y-107275000D03*
X155150000Y-107275000D03*
X155650000Y-107275000D03*
X156150000Y-107275000D03*
D24*
X158075000Y-105350000D03*
X158075000Y-104850000D03*
X158075000Y-104350000D03*
X158075000Y-103850000D03*
X158075000Y-103350000D03*
X158075000Y-102850000D03*
X158075000Y-102350000D03*
X158075000Y-101850000D03*
X158075000Y-101350000D03*
X158075000Y-100850000D03*
X158075000Y-100350000D03*
X158075000Y-99850000D03*
X158075000Y-99350000D03*
X158075000Y-98850000D03*
X158075000Y-98350000D03*
X158075000Y-97850000D03*
D25*
X156150000Y-95925000D03*
X155650000Y-95925000D03*
X155150000Y-95925000D03*
X154650000Y-95925000D03*
X154150000Y-95925000D03*
X153650000Y-95925000D03*
X153150000Y-95925000D03*
X152650000Y-95925000D03*
X152150000Y-95925000D03*
X151650000Y-95925000D03*
X151150000Y-95925000D03*
X150650000Y-95925000D03*
X150150000Y-95925000D03*
X149650000Y-95925000D03*
X149150000Y-95925000D03*
X148650000Y-95925000D03*
G04 #@! TD*
D22*
G04 #@! TO.C,R6*
X175450000Y-100965000D03*
X173800000Y-100965000D03*
G04 #@! TD*
D20*
G04 #@! TO.C,R3*
X173800000Y-104775000D03*
X175450000Y-104775000D03*
G04 #@! TD*
D22*
G04 #@! TO.C,R5*
X175450000Y-102870000D03*
X173800000Y-102870000D03*
G04 #@! TD*
M02*
