G04 #@! TF.GenerationSoftware,KiCad,Pcbnew,6.0.7+dfsg-3*
G04 #@! TF.CreationDate,2022-10-14T13:09:43+08:00*
G04 #@! TF.ProjectId,mcustm32f446,6d637573-746d-4333-9266-3434362e6b69,a*
G04 #@! TF.SameCoordinates,PX6b302f8PY7aeef28*
G04 #@! TF.FileFunction,Legend,Top*
G04 #@! TF.FilePolarity,Positive*
%FSLAX46Y46*%
G04 Gerber Fmt 4.6, Leading zero omitted, Abs format (unit mm)*
G04 Created by KiCad (PCBNEW 6.0.7+dfsg-3) date 2022-10-14 13:09:43*
%MOMM*%
%LPD*%
G01*
G04 APERTURE LIST*
%ADD10C,0.150000*%
%ADD11C,0.120000*%
G04 APERTURE END LIST*
D10*
G04 #@! TO.C,D1*
X72921904Y19867620D02*
X72921904Y20867620D01*
X73160000Y20867620D01*
X73302857Y20820000D01*
X73398095Y20724762D01*
X73445714Y20629524D01*
X73493333Y20439048D01*
X73493333Y20296191D01*
X73445714Y20105715D01*
X73398095Y20010477D01*
X73302857Y19915239D01*
X73160000Y19867620D01*
X72921904Y19867620D01*
X74445714Y19867620D02*
X73874285Y19867620D01*
X74160000Y19867620D02*
X74160000Y20867620D01*
X74064761Y20724762D01*
X73969523Y20629524D01*
X73874285Y20581905D01*
G04 #@! TO.C,J1*
X74382380Y26971667D02*
X75096666Y26971667D01*
X75239523Y26924048D01*
X75334761Y26828810D01*
X75382380Y26685953D01*
X75382380Y26590715D01*
X75382380Y27971667D02*
X75382380Y27400239D01*
X75382380Y27685953D02*
X74382380Y27685953D01*
X74525238Y27590715D01*
X74620476Y27495477D01*
X74668095Y27400239D01*
G04 #@! TO.C,SW1*
X4381666Y12295239D02*
X4524523Y12247620D01*
X4762619Y12247620D01*
X4857857Y12295239D01*
X4905476Y12342858D01*
X4953095Y12438096D01*
X4953095Y12533334D01*
X4905476Y12628572D01*
X4857857Y12676191D01*
X4762619Y12723810D01*
X4572142Y12771429D01*
X4476904Y12819048D01*
X4429285Y12866667D01*
X4381666Y12961905D01*
X4381666Y13057143D01*
X4429285Y13152381D01*
X4476904Y13200000D01*
X4572142Y13247620D01*
X4810238Y13247620D01*
X4953095Y13200000D01*
X5286428Y13247620D02*
X5524523Y12247620D01*
X5715000Y12961905D01*
X5905476Y12247620D01*
X6143571Y13247620D01*
X7048333Y12247620D02*
X6476904Y12247620D01*
X6762619Y12247620D02*
X6762619Y13247620D01*
X6667380Y13104762D01*
X6572142Y13009524D01*
X6476904Y12961905D01*
G04 #@! TO.C,SW2*
X4381666Y18010239D02*
X4524523Y17962620D01*
X4762619Y17962620D01*
X4857857Y18010239D01*
X4905476Y18057858D01*
X4953095Y18153096D01*
X4953095Y18248334D01*
X4905476Y18343572D01*
X4857857Y18391191D01*
X4762619Y18438810D01*
X4572142Y18486429D01*
X4476904Y18534048D01*
X4429285Y18581667D01*
X4381666Y18676905D01*
X4381666Y18772143D01*
X4429285Y18867381D01*
X4476904Y18915000D01*
X4572142Y18962620D01*
X4810238Y18962620D01*
X4953095Y18915000D01*
X5286428Y18962620D02*
X5524523Y17962620D01*
X5715000Y18676905D01*
X5905476Y17962620D01*
X6143571Y18962620D01*
X6476904Y18867381D02*
X6524523Y18915000D01*
X6619761Y18962620D01*
X6857857Y18962620D01*
X6953095Y18915000D01*
X7000714Y18867381D01*
X7048333Y18772143D01*
X7048333Y18676905D01*
X7000714Y18534048D01*
X6429285Y17962620D01*
X7048333Y17962620D01*
G04 #@! TO.C,C6*
X48483333Y33262858D02*
X48435714Y33215239D01*
X48292857Y33167620D01*
X48197619Y33167620D01*
X48054761Y33215239D01*
X47959523Y33310477D01*
X47911904Y33405715D01*
X47864285Y33596191D01*
X47864285Y33739048D01*
X47911904Y33929524D01*
X47959523Y34024762D01*
X48054761Y34120000D01*
X48197619Y34167620D01*
X48292857Y34167620D01*
X48435714Y34120000D01*
X48483333Y34072381D01*
X49340476Y34167620D02*
X49150000Y34167620D01*
X49054761Y34120000D01*
X49007142Y34072381D01*
X48911904Y33929524D01*
X48864285Y33739048D01*
X48864285Y33358096D01*
X48911904Y33262858D01*
X48959523Y33215239D01*
X49054761Y33167620D01*
X49245238Y33167620D01*
X49340476Y33215239D01*
X49388095Y33262858D01*
X49435714Y33358096D01*
X49435714Y33596191D01*
X49388095Y33691429D01*
X49340476Y33739048D01*
X49245238Y33786667D01*
X49054761Y33786667D01*
X48959523Y33739048D01*
X48911904Y33691429D01*
X48864285Y33596191D01*
G04 #@! TO.C,C7*
X33488333Y18692858D02*
X33440714Y18645239D01*
X33297857Y18597620D01*
X33202619Y18597620D01*
X33059761Y18645239D01*
X32964523Y18740477D01*
X32916904Y18835715D01*
X32869285Y19026191D01*
X32869285Y19169048D01*
X32916904Y19359524D01*
X32964523Y19454762D01*
X33059761Y19550000D01*
X33202619Y19597620D01*
X33297857Y19597620D01*
X33440714Y19550000D01*
X33488333Y19502381D01*
X33821666Y19597620D02*
X34488333Y19597620D01*
X34059761Y18597620D01*
G04 #@! TO.C,U1*
X62738095Y22772620D02*
X62738095Y21963096D01*
X62785714Y21867858D01*
X62833333Y21820239D01*
X62928571Y21772620D01*
X63119047Y21772620D01*
X63214285Y21820239D01*
X63261904Y21867858D01*
X63309523Y21963096D01*
X63309523Y22772620D01*
X64309523Y21772620D02*
X63738095Y21772620D01*
X64023809Y21772620D02*
X64023809Y22772620D01*
X63928571Y22629762D01*
X63833333Y22534524D01*
X63738095Y22486905D01*
G04 #@! TO.C,C1*
X69572142Y14438334D02*
X69619761Y14390715D01*
X69667380Y14247858D01*
X69667380Y14152620D01*
X69619761Y14009762D01*
X69524523Y13914524D01*
X69429285Y13866905D01*
X69238809Y13819286D01*
X69095952Y13819286D01*
X68905476Y13866905D01*
X68810238Y13914524D01*
X68715000Y14009762D01*
X68667380Y14152620D01*
X68667380Y14247858D01*
X68715000Y14390715D01*
X68762619Y14438334D01*
X69667380Y15390715D02*
X69667380Y14819286D01*
X69667380Y15105000D02*
X68667380Y15105000D01*
X68810238Y15009762D01*
X68905476Y14914524D01*
X68953095Y14819286D01*
G04 #@! TO.C,C10*
X12692142Y13682858D02*
X12644523Y13635239D01*
X12501666Y13587620D01*
X12406428Y13587620D01*
X12263571Y13635239D01*
X12168333Y13730477D01*
X12120714Y13825715D01*
X12073095Y14016191D01*
X12073095Y14159048D01*
X12120714Y14349524D01*
X12168333Y14444762D01*
X12263571Y14540000D01*
X12406428Y14587620D01*
X12501666Y14587620D01*
X12644523Y14540000D01*
X12692142Y14492381D01*
X13644523Y13587620D02*
X13073095Y13587620D01*
X13358809Y13587620D02*
X13358809Y14587620D01*
X13263571Y14444762D01*
X13168333Y14349524D01*
X13073095Y14301905D01*
X14263571Y14587620D02*
X14358809Y14587620D01*
X14454047Y14540000D01*
X14501666Y14492381D01*
X14549285Y14397143D01*
X14596904Y14206667D01*
X14596904Y13968572D01*
X14549285Y13778096D01*
X14501666Y13682858D01*
X14454047Y13635239D01*
X14358809Y13587620D01*
X14263571Y13587620D01*
X14168333Y13635239D01*
X14120714Y13682858D01*
X14073095Y13778096D01*
X14025476Y13968572D01*
X14025476Y14206667D01*
X14073095Y14397143D01*
X14120714Y14492381D01*
X14168333Y14540000D01*
X14263571Y14587620D01*
G04 #@! TO.C,D2*
X3706904Y40187620D02*
X3706904Y41187620D01*
X3945000Y41187620D01*
X4087857Y41140000D01*
X4183095Y41044762D01*
X4230714Y40949524D01*
X4278333Y40759048D01*
X4278333Y40616191D01*
X4230714Y40425715D01*
X4183095Y40330477D01*
X4087857Y40235239D01*
X3945000Y40187620D01*
X3706904Y40187620D01*
X4659285Y41092381D02*
X4706904Y41140000D01*
X4802142Y41187620D01*
X5040238Y41187620D01*
X5135476Y41140000D01*
X5183095Y41092381D01*
X5230714Y40997143D01*
X5230714Y40901905D01*
X5183095Y40759048D01*
X4611666Y40187620D01*
X5230714Y40187620D01*
G04 #@! TO.C,D3*
X3706904Y35582620D02*
X3706904Y36582620D01*
X3945000Y36582620D01*
X4087857Y36535000D01*
X4183095Y36439762D01*
X4230714Y36344524D01*
X4278333Y36154048D01*
X4278333Y36011191D01*
X4230714Y35820715D01*
X4183095Y35725477D01*
X4087857Y35630239D01*
X3945000Y35582620D01*
X3706904Y35582620D01*
X4611666Y36582620D02*
X5230714Y36582620D01*
X4897380Y36201667D01*
X5040238Y36201667D01*
X5135476Y36154048D01*
X5183095Y36106429D01*
X5230714Y36011191D01*
X5230714Y35773096D01*
X5183095Y35677858D01*
X5135476Y35630239D01*
X5040238Y35582620D01*
X4754523Y35582620D01*
X4659285Y35630239D01*
X4611666Y35677858D01*
G04 #@! TO.C,R2*
X63213333Y29452620D02*
X62880000Y29928810D01*
X62641904Y29452620D02*
X62641904Y30452620D01*
X63022857Y30452620D01*
X63118095Y30405000D01*
X63165714Y30357381D01*
X63213333Y30262143D01*
X63213333Y30119286D01*
X63165714Y30024048D01*
X63118095Y29976429D01*
X63022857Y29928810D01*
X62641904Y29928810D01*
X63594285Y30357381D02*
X63641904Y30405000D01*
X63737142Y30452620D01*
X63975238Y30452620D01*
X64070476Y30405000D01*
X64118095Y30357381D01*
X64165714Y30262143D01*
X64165714Y30166905D01*
X64118095Y30024048D01*
X63546666Y29452620D01*
X64165714Y29452620D01*
G04 #@! TO.C,R5*
X7453333Y40187620D02*
X7120000Y40663810D01*
X6881904Y40187620D02*
X6881904Y41187620D01*
X7262857Y41187620D01*
X7358095Y41140000D01*
X7405714Y41092381D01*
X7453333Y40997143D01*
X7453333Y40854286D01*
X7405714Y40759048D01*
X7358095Y40711429D01*
X7262857Y40663810D01*
X6881904Y40663810D01*
X8358095Y41187620D02*
X7881904Y41187620D01*
X7834285Y40711429D01*
X7881904Y40759048D01*
X7977142Y40806667D01*
X8215238Y40806667D01*
X8310476Y40759048D01*
X8358095Y40711429D01*
X8405714Y40616191D01*
X8405714Y40378096D01*
X8358095Y40282858D01*
X8310476Y40235239D01*
X8215238Y40187620D01*
X7977142Y40187620D01*
X7881904Y40235239D01*
X7834285Y40282858D01*
G04 #@! TO.C,R6*
X7453333Y35742620D02*
X7120000Y36218810D01*
X6881904Y35742620D02*
X6881904Y36742620D01*
X7262857Y36742620D01*
X7358095Y36695000D01*
X7405714Y36647381D01*
X7453333Y36552143D01*
X7453333Y36409286D01*
X7405714Y36314048D01*
X7358095Y36266429D01*
X7262857Y36218810D01*
X6881904Y36218810D01*
X8310476Y36742620D02*
X8120000Y36742620D01*
X8024761Y36695000D01*
X7977142Y36647381D01*
X7881904Y36504524D01*
X7834285Y36314048D01*
X7834285Y35933096D01*
X7881904Y35837858D01*
X7929523Y35790239D01*
X8024761Y35742620D01*
X8215238Y35742620D01*
X8310476Y35790239D01*
X8358095Y35837858D01*
X8405714Y35933096D01*
X8405714Y36171191D01*
X8358095Y36266429D01*
X8310476Y36314048D01*
X8215238Y36361667D01*
X8024761Y36361667D01*
X7929523Y36314048D01*
X7881904Y36266429D01*
X7834285Y36171191D01*
G04 #@! TO.C,C11*
X24827142Y33242858D02*
X24779523Y33195239D01*
X24636666Y33147620D01*
X24541428Y33147620D01*
X24398571Y33195239D01*
X24303333Y33290477D01*
X24255714Y33385715D01*
X24208095Y33576191D01*
X24208095Y33719048D01*
X24255714Y33909524D01*
X24303333Y34004762D01*
X24398571Y34100000D01*
X24541428Y34147620D01*
X24636666Y34147620D01*
X24779523Y34100000D01*
X24827142Y34052381D01*
X25779523Y33147620D02*
X25208095Y33147620D01*
X25493809Y33147620D02*
X25493809Y34147620D01*
X25398571Y34004762D01*
X25303333Y33909524D01*
X25208095Y33861905D01*
X26731904Y33147620D02*
X26160476Y33147620D01*
X26446190Y33147620D02*
X26446190Y34147620D01*
X26350952Y34004762D01*
X26255714Y33909524D01*
X26160476Y33861905D01*
G04 #@! TO.C,C13*
X24827142Y26792858D02*
X24779523Y26745239D01*
X24636666Y26697620D01*
X24541428Y26697620D01*
X24398571Y26745239D01*
X24303333Y26840477D01*
X24255714Y26935715D01*
X24208095Y27126191D01*
X24208095Y27269048D01*
X24255714Y27459524D01*
X24303333Y27554762D01*
X24398571Y27650000D01*
X24541428Y27697620D01*
X24636666Y27697620D01*
X24779523Y27650000D01*
X24827142Y27602381D01*
X25779523Y26697620D02*
X25208095Y26697620D01*
X25493809Y26697620D02*
X25493809Y27697620D01*
X25398571Y27554762D01*
X25303333Y27459524D01*
X25208095Y27411905D01*
X26112857Y27697620D02*
X26731904Y27697620D01*
X26398571Y27316667D01*
X26541428Y27316667D01*
X26636666Y27269048D01*
X26684285Y27221429D01*
X26731904Y27126191D01*
X26731904Y26888096D01*
X26684285Y26792858D01*
X26636666Y26745239D01*
X26541428Y26697620D01*
X26255714Y26697620D01*
X26160476Y26745239D01*
X26112857Y26792858D01*
G04 #@! TO.C,U2*
X62103095Y27852620D02*
X62103095Y27043096D01*
X62150714Y26947858D01*
X62198333Y26900239D01*
X62293571Y26852620D01*
X62484047Y26852620D01*
X62579285Y26900239D01*
X62626904Y26947858D01*
X62674523Y27043096D01*
X62674523Y27852620D01*
X63103095Y27757381D02*
X63150714Y27805000D01*
X63245952Y27852620D01*
X63484047Y27852620D01*
X63579285Y27805000D01*
X63626904Y27757381D01*
X63674523Y27662143D01*
X63674523Y27566905D01*
X63626904Y27424048D01*
X63055476Y26852620D01*
X63674523Y26852620D01*
G04 #@! TO.C,C4*
X48728333Y20597858D02*
X48680714Y20550239D01*
X48537857Y20502620D01*
X48442619Y20502620D01*
X48299761Y20550239D01*
X48204523Y20645477D01*
X48156904Y20740715D01*
X48109285Y20931191D01*
X48109285Y21074048D01*
X48156904Y21264524D01*
X48204523Y21359762D01*
X48299761Y21455000D01*
X48442619Y21502620D01*
X48537857Y21502620D01*
X48680714Y21455000D01*
X48728333Y21407381D01*
X49585476Y21169286D02*
X49585476Y20502620D01*
X49347380Y21550239D02*
X49109285Y20835953D01*
X49728333Y20835953D01*
G04 #@! TO.C,C12*
X48887142Y16787858D02*
X48839523Y16740239D01*
X48696666Y16692620D01*
X48601428Y16692620D01*
X48458571Y16740239D01*
X48363333Y16835477D01*
X48315714Y16930715D01*
X48268095Y17121191D01*
X48268095Y17264048D01*
X48315714Y17454524D01*
X48363333Y17549762D01*
X48458571Y17645000D01*
X48601428Y17692620D01*
X48696666Y17692620D01*
X48839523Y17645000D01*
X48887142Y17597381D01*
X49839523Y16692620D02*
X49268095Y16692620D01*
X49553809Y16692620D02*
X49553809Y17692620D01*
X49458571Y17549762D01*
X49363333Y17454524D01*
X49268095Y17406905D01*
X50220476Y17597381D02*
X50268095Y17645000D01*
X50363333Y17692620D01*
X50601428Y17692620D01*
X50696666Y17645000D01*
X50744285Y17597381D01*
X50791904Y17502143D01*
X50791904Y17406905D01*
X50744285Y17264048D01*
X50172857Y16692620D01*
X50791904Y16692620D01*
G04 #@! TO.C,R3*
X13168333Y10977620D02*
X12835000Y11453810D01*
X12596904Y10977620D02*
X12596904Y11977620D01*
X12977857Y11977620D01*
X13073095Y11930000D01*
X13120714Y11882381D01*
X13168333Y11787143D01*
X13168333Y11644286D01*
X13120714Y11549048D01*
X13073095Y11501429D01*
X12977857Y11453810D01*
X12596904Y11453810D01*
X13501666Y11977620D02*
X14120714Y11977620D01*
X13787380Y11596667D01*
X13930238Y11596667D01*
X14025476Y11549048D01*
X14073095Y11501429D01*
X14120714Y11406191D01*
X14120714Y11168096D01*
X14073095Y11072858D01*
X14025476Y11025239D01*
X13930238Y10977620D01*
X13644523Y10977620D01*
X13549285Y11025239D01*
X13501666Y11072858D01*
G04 #@! TO.C,R4*
X13168333Y17962620D02*
X12835000Y18438810D01*
X12596904Y17962620D02*
X12596904Y18962620D01*
X12977857Y18962620D01*
X13073095Y18915000D01*
X13120714Y18867381D01*
X13168333Y18772143D01*
X13168333Y18629286D01*
X13120714Y18534048D01*
X13073095Y18486429D01*
X12977857Y18438810D01*
X12596904Y18438810D01*
X14025476Y18629286D02*
X14025476Y17962620D01*
X13787380Y19010239D02*
X13549285Y18295953D01*
X14168333Y18295953D01*
G04 #@! TO.C,Y1*
X26011190Y30003810D02*
X26487380Y30003810D01*
X25487380Y29670477D02*
X26011190Y30003810D01*
X25487380Y30337143D01*
X26487380Y31194286D02*
X26487380Y30622858D01*
X26487380Y30908572D02*
X25487380Y30908572D01*
X25630238Y30813334D01*
X25725476Y30718096D01*
X25773095Y30622858D01*
G04 #@! TO.C,C3*
X58142142Y14438334D02*
X58189761Y14390715D01*
X58237380Y14247858D01*
X58237380Y14152620D01*
X58189761Y14009762D01*
X58094523Y13914524D01*
X57999285Y13866905D01*
X57808809Y13819286D01*
X57665952Y13819286D01*
X57475476Y13866905D01*
X57380238Y13914524D01*
X57285000Y14009762D01*
X57237380Y14152620D01*
X57237380Y14247858D01*
X57285000Y14390715D01*
X57332619Y14438334D01*
X57237380Y14771667D02*
X57237380Y15390715D01*
X57618333Y15057381D01*
X57618333Y15200239D01*
X57665952Y15295477D01*
X57713571Y15343096D01*
X57808809Y15390715D01*
X58046904Y15390715D01*
X58142142Y15343096D01*
X58189761Y15295477D01*
X58237380Y15200239D01*
X58237380Y14914524D01*
X58189761Y14819286D01*
X58142142Y14771667D01*
G04 #@! TO.C,U3*
X39243095Y35252620D02*
X39243095Y34443096D01*
X39290714Y34347858D01*
X39338333Y34300239D01*
X39433571Y34252620D01*
X39624047Y34252620D01*
X39719285Y34300239D01*
X39766904Y34347858D01*
X39814523Y34443096D01*
X39814523Y35252620D01*
X40195476Y35252620D02*
X40814523Y35252620D01*
X40481190Y34871667D01*
X40624047Y34871667D01*
X40719285Y34824048D01*
X40766904Y34776429D01*
X40814523Y34681191D01*
X40814523Y34443096D01*
X40766904Y34347858D01*
X40719285Y34300239D01*
X40624047Y34252620D01*
X40338333Y34252620D01*
X40243095Y34300239D01*
X40195476Y34347858D01*
G04 #@! TO.C,C9*
X48728333Y18692858D02*
X48680714Y18645239D01*
X48537857Y18597620D01*
X48442619Y18597620D01*
X48299761Y18645239D01*
X48204523Y18740477D01*
X48156904Y18835715D01*
X48109285Y19026191D01*
X48109285Y19169048D01*
X48156904Y19359524D01*
X48204523Y19454762D01*
X48299761Y19550000D01*
X48442619Y19597620D01*
X48537857Y19597620D01*
X48680714Y19550000D01*
X48728333Y19502381D01*
X49204523Y18597620D02*
X49395000Y18597620D01*
X49490238Y18645239D01*
X49537857Y18692858D01*
X49633095Y18835715D01*
X49680714Y19026191D01*
X49680714Y19407143D01*
X49633095Y19502381D01*
X49585476Y19550000D01*
X49490238Y19597620D01*
X49299761Y19597620D01*
X49204523Y19550000D01*
X49156904Y19502381D01*
X49109285Y19407143D01*
X49109285Y19169048D01*
X49156904Y19073810D01*
X49204523Y19026191D01*
X49299761Y18978572D01*
X49490238Y18978572D01*
X49585476Y19026191D01*
X49633095Y19073810D01*
X49680714Y19169048D01*
G04 #@! TO.C,FB1*
X24566666Y21661429D02*
X24233333Y21661429D01*
X24233333Y21137620D02*
X24233333Y22137620D01*
X24709523Y22137620D01*
X25423809Y21661429D02*
X25566666Y21613810D01*
X25614285Y21566191D01*
X25661904Y21470953D01*
X25661904Y21328096D01*
X25614285Y21232858D01*
X25566666Y21185239D01*
X25471428Y21137620D01*
X25090476Y21137620D01*
X25090476Y22137620D01*
X25423809Y22137620D01*
X25519047Y22090000D01*
X25566666Y22042381D01*
X25614285Y21947143D01*
X25614285Y21851905D01*
X25566666Y21756667D01*
X25519047Y21709048D01*
X25423809Y21661429D01*
X25090476Y21661429D01*
X26614285Y21137620D02*
X26042857Y21137620D01*
X26328571Y21137620D02*
X26328571Y22137620D01*
X26233333Y21994762D01*
X26138095Y21899524D01*
X26042857Y21851905D01*
G04 #@! TO.C,R1*
X63333333Y24312620D02*
X63000000Y24788810D01*
X62761904Y24312620D02*
X62761904Y25312620D01*
X63142857Y25312620D01*
X63238095Y25265000D01*
X63285714Y25217381D01*
X63333333Y25122143D01*
X63333333Y24979286D01*
X63285714Y24884048D01*
X63238095Y24836429D01*
X63142857Y24788810D01*
X62761904Y24788810D01*
X64285714Y24312620D02*
X63714285Y24312620D01*
X64000000Y24312620D02*
X64000000Y25312620D01*
X63904761Y25169762D01*
X63809523Y25074524D01*
X63714285Y25026905D01*
G04 #@! TO.C,C2*
X30833333Y33642858D02*
X30785714Y33595239D01*
X30642857Y33547620D01*
X30547619Y33547620D01*
X30404761Y33595239D01*
X30309523Y33690477D01*
X30261904Y33785715D01*
X30214285Y33976191D01*
X30214285Y34119048D01*
X30261904Y34309524D01*
X30309523Y34404762D01*
X30404761Y34500000D01*
X30547619Y34547620D01*
X30642857Y34547620D01*
X30785714Y34500000D01*
X30833333Y34452381D01*
X31214285Y34452381D02*
X31261904Y34500000D01*
X31357142Y34547620D01*
X31595238Y34547620D01*
X31690476Y34500000D01*
X31738095Y34452381D01*
X31785714Y34357143D01*
X31785714Y34261905D01*
X31738095Y34119048D01*
X31166666Y33547620D01*
X31785714Y33547620D01*
G04 #@! TO.C,J4*
X26396904Y2925358D02*
X25596904Y2925358D01*
X25596904Y3230120D01*
X25635000Y3306310D01*
X25673095Y3344405D01*
X25749285Y3382500D01*
X25863571Y3382500D01*
X25939761Y3344405D01*
X25977857Y3306310D01*
X26015952Y3230120D01*
X26015952Y2925358D01*
X26168333Y3687262D02*
X26168333Y4068215D01*
X26396904Y3611072D02*
X25596904Y3877739D01*
X26396904Y4144405D01*
X25596904Y4563453D02*
X25596904Y4639643D01*
X25635000Y4715834D01*
X25673095Y4753929D01*
X25749285Y4792024D01*
X25901666Y4830120D01*
X26092142Y4830120D01*
X26244523Y4792024D01*
X26320714Y4753929D01*
X26358809Y4715834D01*
X26396904Y4639643D01*
X26396904Y4563453D01*
X26358809Y4487262D01*
X26320714Y4449167D01*
X26244523Y4411072D01*
X26092142Y4372977D01*
X25901666Y4372977D01*
X25749285Y4411072D01*
X25673095Y4449167D01*
X25635000Y4487262D01*
X25596904Y4563453D01*
X46716904Y49817977D02*
X45916904Y49817977D01*
X45916904Y50122739D01*
X45955000Y50198929D01*
X45993095Y50237024D01*
X46069285Y50275120D01*
X46183571Y50275120D01*
X46259761Y50237024D01*
X46297857Y50198929D01*
X46335952Y50122739D01*
X46335952Y49817977D01*
X46488333Y50579881D02*
X46488333Y50960834D01*
X46716904Y50503691D02*
X45916904Y50770358D01*
X46716904Y51037024D01*
X46716904Y51722739D02*
X46716904Y51265596D01*
X46716904Y51494167D02*
X45916904Y51494167D01*
X46031190Y51417977D01*
X46107380Y51341786D01*
X46145476Y51265596D01*
X46183571Y52408453D02*
X46716904Y52408453D01*
X45878809Y52217977D02*
X46450238Y52027500D01*
X46450238Y52522739D01*
X46716904Y40263453D02*
X45916904Y40263453D01*
X45916904Y40568215D01*
X45955000Y40644405D01*
X45993095Y40682500D01*
X46069285Y40720596D01*
X46183571Y40720596D01*
X46259761Y40682500D01*
X46297857Y40644405D01*
X46335952Y40568215D01*
X46335952Y40263453D01*
X46488333Y41025358D02*
X46488333Y41406310D01*
X46716904Y40949167D02*
X45916904Y41215834D01*
X46716904Y41482500D01*
X46716904Y42168215D02*
X46716904Y41711072D01*
X46716904Y41939643D02*
X45916904Y41939643D01*
X46031190Y41863453D01*
X46107380Y41787262D01*
X46145476Y41711072D01*
X45916904Y42892024D02*
X45916904Y42511072D01*
X46297857Y42472977D01*
X46259761Y42511072D01*
X46221666Y42587262D01*
X46221666Y42777739D01*
X46259761Y42853929D01*
X46297857Y42892024D01*
X46374047Y42930120D01*
X46564523Y42930120D01*
X46640714Y42892024D01*
X46678809Y42853929D01*
X46716904Y42777739D01*
X46716904Y42587262D01*
X46678809Y42511072D01*
X46640714Y42472977D01*
X43376904Y49817977D02*
X44024523Y49817977D01*
X44100714Y49856072D01*
X44138809Y49894167D01*
X44176904Y49970358D01*
X44176904Y50122739D01*
X44138809Y50198929D01*
X44100714Y50237024D01*
X44024523Y50275120D01*
X43376904Y50275120D01*
X44176904Y51075120D02*
X44176904Y50617977D01*
X44176904Y50846548D02*
X43376904Y50846548D01*
X43491190Y50770358D01*
X43567380Y50694167D01*
X43605476Y50617977D01*
X44176904Y51837024D02*
X44176904Y51379881D01*
X44176904Y51608453D02*
X43376904Y51608453D01*
X43491190Y51532262D01*
X43567380Y51456072D01*
X43605476Y51379881D01*
X51796904Y11717977D02*
X50996904Y11717977D01*
X50996904Y12022739D01*
X51035000Y12098929D01*
X51073095Y12137024D01*
X51149285Y12175120D01*
X51263571Y12175120D01*
X51339761Y12137024D01*
X51377857Y12098929D01*
X51415952Y12022739D01*
X51415952Y11717977D01*
X51720714Y12975120D02*
X51758809Y12937024D01*
X51796904Y12822739D01*
X51796904Y12746548D01*
X51758809Y12632262D01*
X51682619Y12556072D01*
X51606428Y12517977D01*
X51454047Y12479881D01*
X51339761Y12479881D01*
X51187380Y12517977D01*
X51111190Y12556072D01*
X51035000Y12632262D01*
X50996904Y12746548D01*
X50996904Y12822739D01*
X51035000Y12937024D01*
X51073095Y12975120D01*
X50996904Y13241786D02*
X50996904Y13775120D01*
X51796904Y13432262D01*
X23856904Y11717977D02*
X23056904Y11717977D01*
X23056904Y12022739D01*
X23095000Y12098929D01*
X23133095Y12137024D01*
X23209285Y12175120D01*
X23323571Y12175120D01*
X23399761Y12137024D01*
X23437857Y12098929D01*
X23475952Y12022739D01*
X23475952Y11717977D01*
X23780714Y12975120D02*
X23818809Y12937024D01*
X23856904Y12822739D01*
X23856904Y12746548D01*
X23818809Y12632262D01*
X23742619Y12556072D01*
X23666428Y12517977D01*
X23514047Y12479881D01*
X23399761Y12479881D01*
X23247380Y12517977D01*
X23171190Y12556072D01*
X23095000Y12632262D01*
X23056904Y12746548D01*
X23056904Y12822739D01*
X23095000Y12937024D01*
X23133095Y12975120D01*
X23056904Y13241786D02*
X23056904Y13737024D01*
X23361666Y13470358D01*
X23361666Y13584643D01*
X23399761Y13660834D01*
X23437857Y13698929D01*
X23514047Y13737024D01*
X23704523Y13737024D01*
X23780714Y13698929D01*
X23818809Y13660834D01*
X23856904Y13584643D01*
X23856904Y13356072D01*
X23818809Y13279881D01*
X23780714Y13241786D01*
X58616904Y11717977D02*
X59264523Y11717977D01*
X59340714Y11756072D01*
X59378809Y11794167D01*
X59416904Y11870358D01*
X59416904Y12022739D01*
X59378809Y12098929D01*
X59340714Y12137024D01*
X59264523Y12175120D01*
X58616904Y12175120D01*
X58883571Y12898929D02*
X59416904Y12898929D01*
X58578809Y12708453D02*
X59150238Y12517977D01*
X59150238Y13013215D01*
X54336904Y49817977D02*
X53536904Y49817977D01*
X53536904Y50122739D01*
X53575000Y50198929D01*
X53613095Y50237024D01*
X53689285Y50275120D01*
X53803571Y50275120D01*
X53879761Y50237024D01*
X53917857Y50198929D01*
X53955952Y50122739D01*
X53955952Y49817977D01*
X54108333Y50579881D02*
X54108333Y50960834D01*
X54336904Y50503691D02*
X53536904Y50770358D01*
X54336904Y51037024D01*
X53879761Y51417977D02*
X53841666Y51341786D01*
X53803571Y51303691D01*
X53727380Y51265596D01*
X53689285Y51265596D01*
X53613095Y51303691D01*
X53575000Y51341786D01*
X53536904Y51417977D01*
X53536904Y51570358D01*
X53575000Y51646548D01*
X53613095Y51684643D01*
X53689285Y51722739D01*
X53727380Y51722739D01*
X53803571Y51684643D01*
X53841666Y51646548D01*
X53879761Y51570358D01*
X53879761Y51417977D01*
X53917857Y51341786D01*
X53955952Y51303691D01*
X54032142Y51265596D01*
X54184523Y51265596D01*
X54260714Y51303691D01*
X54298809Y51341786D01*
X54336904Y51417977D01*
X54336904Y51570358D01*
X54298809Y51646548D01*
X54260714Y51684643D01*
X54184523Y51722739D01*
X54032142Y51722739D01*
X53955952Y51684643D01*
X53917857Y51646548D01*
X53879761Y51570358D01*
X17976904Y49817977D02*
X18624523Y49817977D01*
X18700714Y49856072D01*
X18738809Y49894167D01*
X18776904Y49970358D01*
X18776904Y50122739D01*
X18738809Y50198929D01*
X18700714Y50237024D01*
X18624523Y50275120D01*
X17976904Y50275120D01*
X17976904Y51037024D02*
X17976904Y50656072D01*
X18357857Y50617977D01*
X18319761Y50656072D01*
X18281666Y50732262D01*
X18281666Y50922739D01*
X18319761Y50998929D01*
X18357857Y51037024D01*
X18434047Y51075120D01*
X18624523Y51075120D01*
X18700714Y51037024D01*
X18738809Y50998929D01*
X18776904Y50922739D01*
X18776904Y50732262D01*
X18738809Y50656072D01*
X18700714Y50617977D01*
X63696904Y4106310D02*
X63696904Y3725358D01*
X64077857Y3687262D01*
X64039761Y3725358D01*
X64001666Y3801548D01*
X64001666Y3992024D01*
X64039761Y4068215D01*
X64077857Y4106310D01*
X64154047Y4144405D01*
X64344523Y4144405D01*
X64420714Y4106310D01*
X64458809Y4068215D01*
X64496904Y3992024D01*
X64496904Y3801548D01*
X64458809Y3725358D01*
X64420714Y3687262D01*
X63696904Y4372977D02*
X64496904Y4639643D01*
X63696904Y4906310D01*
X31476904Y40911072D02*
X30676904Y40911072D01*
X30676904Y41215834D01*
X30715000Y41292024D01*
X30753095Y41330120D01*
X30829285Y41368215D01*
X30943571Y41368215D01*
X31019761Y41330120D01*
X31057857Y41292024D01*
X31095952Y41215834D01*
X31095952Y40911072D01*
X31057857Y41977739D02*
X31095952Y42092024D01*
X31134047Y42130120D01*
X31210238Y42168215D01*
X31324523Y42168215D01*
X31400714Y42130120D01*
X31438809Y42092024D01*
X31476904Y42015834D01*
X31476904Y41711072D01*
X30676904Y41711072D01*
X30676904Y41977739D01*
X30715000Y42053929D01*
X30753095Y42092024D01*
X30829285Y42130120D01*
X30905476Y42130120D01*
X30981666Y42092024D01*
X31019761Y42053929D01*
X31057857Y41977739D01*
X31057857Y41711072D01*
X30676904Y42434881D02*
X30676904Y42968215D01*
X31476904Y42625358D01*
X51796904Y40263453D02*
X50996904Y40263453D01*
X50996904Y40568215D01*
X51035000Y40644405D01*
X51073095Y40682500D01*
X51149285Y40720596D01*
X51263571Y40720596D01*
X51339761Y40682500D01*
X51377857Y40644405D01*
X51415952Y40568215D01*
X51415952Y40263453D01*
X51568333Y41025358D02*
X51568333Y41406310D01*
X51796904Y40949167D02*
X50996904Y41215834D01*
X51796904Y41482500D01*
X51796904Y42168215D02*
X51796904Y41711072D01*
X51796904Y41939643D02*
X50996904Y41939643D01*
X51111190Y41863453D01*
X51187380Y41787262D01*
X51225476Y41711072D01*
X51796904Y42930120D02*
X51796904Y42472977D01*
X51796904Y42701548D02*
X50996904Y42701548D01*
X51111190Y42625358D01*
X51187380Y42549167D01*
X51225476Y42472977D01*
X56076904Y3572977D02*
X56724523Y3572977D01*
X56800714Y3611072D01*
X56838809Y3649167D01*
X56876904Y3725358D01*
X56876904Y3877739D01*
X56838809Y3953929D01*
X56800714Y3992024D01*
X56724523Y4030120D01*
X56076904Y4030120D01*
X56876904Y4830120D02*
X56876904Y4372977D01*
X56876904Y4601548D02*
X56076904Y4601548D01*
X56191190Y4525358D01*
X56267380Y4449167D01*
X56305476Y4372977D01*
X51796904Y2811072D02*
X50996904Y2811072D01*
X50996904Y3115834D01*
X51035000Y3192024D01*
X51073095Y3230120D01*
X51149285Y3268215D01*
X51263571Y3268215D01*
X51339761Y3230120D01*
X51377857Y3192024D01*
X51415952Y3115834D01*
X51415952Y2811072D01*
X51720714Y4068215D02*
X51758809Y4030120D01*
X51796904Y3915834D01*
X51796904Y3839643D01*
X51758809Y3725358D01*
X51682619Y3649167D01*
X51606428Y3611072D01*
X51454047Y3572977D01*
X51339761Y3572977D01*
X51187380Y3611072D01*
X51111190Y3649167D01*
X51035000Y3725358D01*
X50996904Y3839643D01*
X50996904Y3915834D01*
X51035000Y4030120D01*
X51073095Y4068215D01*
X50996904Y4753929D02*
X50996904Y4601548D01*
X51035000Y4525358D01*
X51073095Y4487262D01*
X51187380Y4411072D01*
X51339761Y4372977D01*
X51644523Y4372977D01*
X51720714Y4411072D01*
X51758809Y4449167D01*
X51796904Y4525358D01*
X51796904Y4677739D01*
X51758809Y4753929D01*
X51720714Y4792024D01*
X51644523Y4830120D01*
X51454047Y4830120D01*
X51377857Y4792024D01*
X51339761Y4753929D01*
X51301666Y4677739D01*
X51301666Y4525358D01*
X51339761Y4449167D01*
X51377857Y4411072D01*
X51454047Y4372977D01*
X58616904Y49817977D02*
X59264523Y49817977D01*
X59340714Y49856072D01*
X59378809Y49894167D01*
X59416904Y49970358D01*
X59416904Y50122739D01*
X59378809Y50198929D01*
X59340714Y50237024D01*
X59264523Y50275120D01*
X58616904Y50275120D01*
X59416904Y51075120D02*
X59416904Y50617977D01*
X59416904Y50846548D02*
X58616904Y50846548D01*
X58731190Y50770358D01*
X58807380Y50694167D01*
X58845476Y50617977D01*
X58616904Y51798929D02*
X58616904Y51417977D01*
X58997857Y51379881D01*
X58959761Y51417977D01*
X58921666Y51494167D01*
X58921666Y51684643D01*
X58959761Y51760834D01*
X58997857Y51798929D01*
X59074047Y51837024D01*
X59264523Y51837024D01*
X59340714Y51798929D01*
X59378809Y51760834D01*
X59416904Y51684643D01*
X59416904Y51494167D01*
X59378809Y51417977D01*
X59340714Y51379881D01*
X58616904Y3572977D02*
X59264523Y3572977D01*
X59340714Y3611072D01*
X59378809Y3649167D01*
X59416904Y3725358D01*
X59416904Y3877739D01*
X59378809Y3953929D01*
X59340714Y3992024D01*
X59264523Y4030120D01*
X58616904Y4030120D01*
X58616904Y4334881D02*
X58616904Y4830120D01*
X58921666Y4563453D01*
X58921666Y4677739D01*
X58959761Y4753929D01*
X58997857Y4792024D01*
X59074047Y4830120D01*
X59264523Y4830120D01*
X59340714Y4792024D01*
X59378809Y4753929D01*
X59416904Y4677739D01*
X59416904Y4449167D01*
X59378809Y4372977D01*
X59340714Y4334881D01*
X49256904Y49817977D02*
X48456904Y49817977D01*
X48456904Y50122739D01*
X48495000Y50198929D01*
X48533095Y50237024D01*
X48609285Y50275120D01*
X48723571Y50275120D01*
X48799761Y50237024D01*
X48837857Y50198929D01*
X48875952Y50122739D01*
X48875952Y49817977D01*
X49028333Y50579881D02*
X49028333Y50960834D01*
X49256904Y50503691D02*
X48456904Y50770358D01*
X49256904Y51037024D01*
X49256904Y51722739D02*
X49256904Y51265596D01*
X49256904Y51494167D02*
X48456904Y51494167D01*
X48571190Y51417977D01*
X48647380Y51341786D01*
X48685476Y51265596D01*
X48533095Y52027500D02*
X48495000Y52065596D01*
X48456904Y52141786D01*
X48456904Y52332262D01*
X48495000Y52408453D01*
X48533095Y52446548D01*
X48609285Y52484643D01*
X48685476Y52484643D01*
X48799761Y52446548D01*
X49256904Y51989405D01*
X49256904Y52484643D01*
X15436904Y49703691D02*
X16236904Y49970358D01*
X15436904Y50237024D01*
X15817857Y50770358D02*
X15855952Y50884643D01*
X15894047Y50922739D01*
X15970238Y50960834D01*
X16084523Y50960834D01*
X16160714Y50922739D01*
X16198809Y50884643D01*
X16236904Y50808453D01*
X16236904Y50503691D01*
X15436904Y50503691D01*
X15436904Y50770358D01*
X15475000Y50846548D01*
X15513095Y50884643D01*
X15589285Y50922739D01*
X15665476Y50922739D01*
X15741666Y50884643D01*
X15779761Y50846548D01*
X15817857Y50770358D01*
X15817857Y50503691D01*
X28936904Y2925358D02*
X28136904Y2925358D01*
X28136904Y3230120D01*
X28175000Y3306310D01*
X28213095Y3344405D01*
X28289285Y3382500D01*
X28403571Y3382500D01*
X28479761Y3344405D01*
X28517857Y3306310D01*
X28555952Y3230120D01*
X28555952Y2925358D01*
X28708333Y3687262D02*
X28708333Y4068215D01*
X28936904Y3611072D02*
X28136904Y3877739D01*
X28936904Y4144405D01*
X28213095Y4372977D02*
X28175000Y4411072D01*
X28136904Y4487262D01*
X28136904Y4677739D01*
X28175000Y4753929D01*
X28213095Y4792024D01*
X28289285Y4830120D01*
X28365476Y4830120D01*
X28479761Y4792024D01*
X28936904Y4334881D01*
X28936904Y4830120D01*
X41636904Y49817977D02*
X40836904Y49817977D01*
X40836904Y50122739D01*
X40875000Y50198929D01*
X40913095Y50237024D01*
X40989285Y50275120D01*
X41103571Y50275120D01*
X41179761Y50237024D01*
X41217857Y50198929D01*
X41255952Y50122739D01*
X41255952Y49817977D01*
X41560714Y51075120D02*
X41598809Y51037024D01*
X41636904Y50922739D01*
X41636904Y50846548D01*
X41598809Y50732262D01*
X41522619Y50656072D01*
X41446428Y50617977D01*
X41294047Y50579881D01*
X41179761Y50579881D01*
X41027380Y50617977D01*
X40951190Y50656072D01*
X40875000Y50732262D01*
X40836904Y50846548D01*
X40836904Y50922739D01*
X40875000Y51037024D01*
X40913095Y51075120D01*
X41636904Y51837024D02*
X41636904Y51379881D01*
X41636904Y51608453D02*
X40836904Y51608453D01*
X40951190Y51532262D01*
X41027380Y51456072D01*
X41065476Y51379881D01*
X40836904Y52332262D02*
X40836904Y52408453D01*
X40875000Y52484643D01*
X40913095Y52522739D01*
X40989285Y52560834D01*
X41141666Y52598929D01*
X41332142Y52598929D01*
X41484523Y52560834D01*
X41560714Y52522739D01*
X41598809Y52484643D01*
X41636904Y52408453D01*
X41636904Y52332262D01*
X41598809Y52256072D01*
X41560714Y52217977D01*
X41484523Y52179881D01*
X41332142Y52141786D01*
X41141666Y52141786D01*
X40989285Y52179881D01*
X40913095Y52217977D01*
X40875000Y52256072D01*
X40836904Y52332262D01*
X20516904Y49817977D02*
X21164523Y49817977D01*
X21240714Y49856072D01*
X21278809Y49894167D01*
X21316904Y49970358D01*
X21316904Y50122739D01*
X21278809Y50198929D01*
X21240714Y50237024D01*
X21164523Y50275120D01*
X20516904Y50275120D01*
X20516904Y50579881D02*
X20516904Y51113215D01*
X21316904Y50770358D01*
X25596904Y40911072D02*
X26244523Y40911072D01*
X26320714Y40949167D01*
X26358809Y40987262D01*
X26396904Y41063453D01*
X26396904Y41215834D01*
X26358809Y41292024D01*
X26320714Y41330120D01*
X26244523Y41368215D01*
X25596904Y41368215D01*
X26396904Y42168215D02*
X26396904Y41711072D01*
X26396904Y41939643D02*
X25596904Y41939643D01*
X25711190Y41863453D01*
X25787380Y41787262D01*
X25825476Y41711072D01*
X25596904Y42663453D02*
X25596904Y42739643D01*
X25635000Y42815834D01*
X25673095Y42853929D01*
X25749285Y42892024D01*
X25901666Y42930120D01*
X26092142Y42930120D01*
X26244523Y42892024D01*
X26320714Y42853929D01*
X26358809Y42815834D01*
X26396904Y42739643D01*
X26396904Y42663453D01*
X26358809Y42587262D01*
X26320714Y42549167D01*
X26244523Y42511072D01*
X26092142Y42472977D01*
X25901666Y42472977D01*
X25749285Y42511072D01*
X25673095Y42549167D01*
X25635000Y42587262D01*
X25596904Y42663453D01*
X23856904Y2811072D02*
X23056904Y2811072D01*
X23056904Y3115834D01*
X23095000Y3192024D01*
X23133095Y3230120D01*
X23209285Y3268215D01*
X23323571Y3268215D01*
X23399761Y3230120D01*
X23437857Y3192024D01*
X23475952Y3115834D01*
X23475952Y2811072D01*
X23780714Y4068215D02*
X23818809Y4030120D01*
X23856904Y3915834D01*
X23856904Y3839643D01*
X23818809Y3725358D01*
X23742619Y3649167D01*
X23666428Y3611072D01*
X23514047Y3572977D01*
X23399761Y3572977D01*
X23247380Y3611072D01*
X23171190Y3649167D01*
X23095000Y3725358D01*
X23056904Y3839643D01*
X23056904Y3915834D01*
X23095000Y4030120D01*
X23133095Y4068215D01*
X23133095Y4372977D02*
X23095000Y4411072D01*
X23056904Y4487262D01*
X23056904Y4677739D01*
X23095000Y4753929D01*
X23133095Y4792024D01*
X23209285Y4830120D01*
X23285476Y4830120D01*
X23399761Y4792024D01*
X23856904Y4334881D01*
X23856904Y4830120D01*
X54336904Y41025358D02*
X53536904Y41025358D01*
X53536904Y41330120D01*
X53575000Y41406310D01*
X53613095Y41444405D01*
X53689285Y41482500D01*
X53803571Y41482500D01*
X53879761Y41444405D01*
X53917857Y41406310D01*
X53955952Y41330120D01*
X53955952Y41025358D01*
X54108333Y41787262D02*
X54108333Y42168215D01*
X54336904Y41711072D02*
X53536904Y41977739D01*
X54336904Y42244405D01*
X54336904Y42549167D02*
X54336904Y42701548D01*
X54298809Y42777739D01*
X54260714Y42815834D01*
X54146428Y42892024D01*
X53994047Y42930120D01*
X53689285Y42930120D01*
X53613095Y42892024D01*
X53575000Y42853929D01*
X53536904Y42777739D01*
X53536904Y42625358D01*
X53575000Y42549167D01*
X53613095Y42511072D01*
X53689285Y42472977D01*
X53879761Y42472977D01*
X53955952Y42511072D01*
X53994047Y42549167D01*
X54032142Y42625358D01*
X54032142Y42777739D01*
X53994047Y42853929D01*
X53955952Y42892024D01*
X53879761Y42930120D01*
X44176904Y2049167D02*
X43376904Y2049167D01*
X43376904Y2353929D01*
X43415000Y2430120D01*
X43453095Y2468215D01*
X43529285Y2506310D01*
X43643571Y2506310D01*
X43719761Y2468215D01*
X43757857Y2430120D01*
X43795952Y2353929D01*
X43795952Y2049167D01*
X43757857Y3115834D02*
X43795952Y3230120D01*
X43834047Y3268215D01*
X43910238Y3306310D01*
X44024523Y3306310D01*
X44100714Y3268215D01*
X44138809Y3230120D01*
X44176904Y3153929D01*
X44176904Y2849167D01*
X43376904Y2849167D01*
X43376904Y3115834D01*
X43415000Y3192024D01*
X43453095Y3230120D01*
X43529285Y3268215D01*
X43605476Y3268215D01*
X43681666Y3230120D01*
X43719761Y3192024D01*
X43757857Y3115834D01*
X43757857Y2849167D01*
X44176904Y4068215D02*
X44176904Y3611072D01*
X44176904Y3839643D02*
X43376904Y3839643D01*
X43491190Y3763453D01*
X43567380Y3687262D01*
X43605476Y3611072D01*
X43376904Y4563453D02*
X43376904Y4639643D01*
X43415000Y4715834D01*
X43453095Y4753929D01*
X43529285Y4792024D01*
X43681666Y4830120D01*
X43872142Y4830120D01*
X44024523Y4792024D01*
X44100714Y4753929D01*
X44138809Y4715834D01*
X44176904Y4639643D01*
X44176904Y4563453D01*
X44138809Y4487262D01*
X44100714Y4449167D01*
X44024523Y4411072D01*
X43872142Y4372977D01*
X43681666Y4372977D01*
X43529285Y4411072D01*
X43453095Y4449167D01*
X43415000Y4487262D01*
X43376904Y4563453D01*
X49256904Y2049167D02*
X48456904Y2049167D01*
X48456904Y2353929D01*
X48495000Y2430120D01*
X48533095Y2468215D01*
X48609285Y2506310D01*
X48723571Y2506310D01*
X48799761Y2468215D01*
X48837857Y2430120D01*
X48875952Y2353929D01*
X48875952Y2049167D01*
X48837857Y3115834D02*
X48875952Y3230120D01*
X48914047Y3268215D01*
X48990238Y3306310D01*
X49104523Y3306310D01*
X49180714Y3268215D01*
X49218809Y3230120D01*
X49256904Y3153929D01*
X49256904Y2849167D01*
X48456904Y2849167D01*
X48456904Y3115834D01*
X48495000Y3192024D01*
X48533095Y3230120D01*
X48609285Y3268215D01*
X48685476Y3268215D01*
X48761666Y3230120D01*
X48799761Y3192024D01*
X48837857Y3115834D01*
X48837857Y2849167D01*
X49256904Y4068215D02*
X49256904Y3611072D01*
X49256904Y3839643D02*
X48456904Y3839643D01*
X48571190Y3763453D01*
X48647380Y3687262D01*
X48685476Y3611072D01*
X48723571Y4753929D02*
X49256904Y4753929D01*
X48418809Y4563453D02*
X48990238Y4372977D01*
X48990238Y4868215D01*
X56076904Y11717977D02*
X56724523Y11717977D01*
X56800714Y11756072D01*
X56838809Y11794167D01*
X56876904Y11870358D01*
X56876904Y12022739D01*
X56838809Y12098929D01*
X56800714Y12137024D01*
X56724523Y12175120D01*
X56076904Y12175120D01*
X56153095Y12517977D02*
X56115000Y12556072D01*
X56076904Y12632262D01*
X56076904Y12822739D01*
X56115000Y12898929D01*
X56153095Y12937024D01*
X56229285Y12975120D01*
X56305476Y12975120D01*
X56419761Y12937024D01*
X56876904Y12479881D01*
X56876904Y12975120D01*
X39096904Y49817977D02*
X38296904Y49817977D01*
X38296904Y50122739D01*
X38335000Y50198929D01*
X38373095Y50237024D01*
X38449285Y50275120D01*
X38563571Y50275120D01*
X38639761Y50237024D01*
X38677857Y50198929D01*
X38715952Y50122739D01*
X38715952Y49817977D01*
X39020714Y51075120D02*
X39058809Y51037024D01*
X39096904Y50922739D01*
X39096904Y50846548D01*
X39058809Y50732262D01*
X38982619Y50656072D01*
X38906428Y50617977D01*
X38754047Y50579881D01*
X38639761Y50579881D01*
X38487380Y50617977D01*
X38411190Y50656072D01*
X38335000Y50732262D01*
X38296904Y50846548D01*
X38296904Y50922739D01*
X38335000Y51037024D01*
X38373095Y51075120D01*
X39096904Y51837024D02*
X39096904Y51379881D01*
X39096904Y51608453D02*
X38296904Y51608453D01*
X38411190Y51532262D01*
X38487380Y51456072D01*
X38525476Y51379881D01*
X38373095Y52141786D02*
X38335000Y52179881D01*
X38296904Y52256072D01*
X38296904Y52446548D01*
X38335000Y52522739D01*
X38373095Y52560834D01*
X38449285Y52598929D01*
X38525476Y52598929D01*
X38639761Y52560834D01*
X39096904Y52103691D01*
X39096904Y52598929D01*
X36556904Y49817977D02*
X35756904Y49817977D01*
X35756904Y50122739D01*
X35795000Y50198929D01*
X35833095Y50237024D01*
X35909285Y50275120D01*
X36023571Y50275120D01*
X36099761Y50237024D01*
X36137857Y50198929D01*
X36175952Y50122739D01*
X36175952Y49817977D01*
X36556904Y50617977D02*
X35756904Y50617977D01*
X35756904Y50808453D01*
X35795000Y50922739D01*
X35871190Y50998929D01*
X35947380Y51037024D01*
X36099761Y51075120D01*
X36214047Y51075120D01*
X36366428Y51037024D01*
X36442619Y50998929D01*
X36518809Y50922739D01*
X36556904Y50808453D01*
X36556904Y50617977D01*
X35833095Y51379881D02*
X35795000Y51417977D01*
X35756904Y51494167D01*
X35756904Y51684643D01*
X35795000Y51760834D01*
X35833095Y51798929D01*
X35909285Y51837024D01*
X35985476Y51837024D01*
X36099761Y51798929D01*
X36556904Y51341786D01*
X36556904Y51837024D01*
X51796904Y49817977D02*
X50996904Y49817977D01*
X50996904Y50122739D01*
X51035000Y50198929D01*
X51073095Y50237024D01*
X51149285Y50275120D01*
X51263571Y50275120D01*
X51339761Y50237024D01*
X51377857Y50198929D01*
X51415952Y50122739D01*
X51415952Y49817977D01*
X51568333Y50579881D02*
X51568333Y50960834D01*
X51796904Y50503691D02*
X50996904Y50770358D01*
X51796904Y51037024D01*
X51796904Y51722739D02*
X51796904Y51265596D01*
X51796904Y51494167D02*
X50996904Y51494167D01*
X51111190Y51417977D01*
X51187380Y51341786D01*
X51225476Y51265596D01*
X50996904Y52217977D02*
X50996904Y52294167D01*
X51035000Y52370358D01*
X51073095Y52408453D01*
X51149285Y52446548D01*
X51301666Y52484643D01*
X51492142Y52484643D01*
X51644523Y52446548D01*
X51720714Y52408453D01*
X51758809Y52370358D01*
X51796904Y52294167D01*
X51796904Y52217977D01*
X51758809Y52141786D01*
X51720714Y52103691D01*
X51644523Y52065596D01*
X51492142Y52027500D01*
X51301666Y52027500D01*
X51149285Y52065596D01*
X51073095Y52103691D01*
X51035000Y52141786D01*
X50996904Y52217977D01*
X46716904Y2049167D02*
X45916904Y2049167D01*
X45916904Y2353929D01*
X45955000Y2430120D01*
X45993095Y2468215D01*
X46069285Y2506310D01*
X46183571Y2506310D01*
X46259761Y2468215D01*
X46297857Y2430120D01*
X46335952Y2353929D01*
X46335952Y2049167D01*
X46297857Y3115834D02*
X46335952Y3230120D01*
X46374047Y3268215D01*
X46450238Y3306310D01*
X46564523Y3306310D01*
X46640714Y3268215D01*
X46678809Y3230120D01*
X46716904Y3153929D01*
X46716904Y2849167D01*
X45916904Y2849167D01*
X45916904Y3115834D01*
X45955000Y3192024D01*
X45993095Y3230120D01*
X46069285Y3268215D01*
X46145476Y3268215D01*
X46221666Y3230120D01*
X46259761Y3192024D01*
X46297857Y3115834D01*
X46297857Y2849167D01*
X46716904Y4068215D02*
X46716904Y3611072D01*
X46716904Y3839643D02*
X45916904Y3839643D01*
X46031190Y3763453D01*
X46107380Y3687262D01*
X46145476Y3611072D01*
X45993095Y4372977D02*
X45955000Y4411072D01*
X45916904Y4487262D01*
X45916904Y4677739D01*
X45955000Y4753929D01*
X45993095Y4792024D01*
X46069285Y4830120D01*
X46145476Y4830120D01*
X46259761Y4792024D01*
X46716904Y4334881D01*
X46716904Y4830120D01*
X40836904Y11717977D02*
X41484523Y11717977D01*
X41560714Y11756072D01*
X41598809Y11794167D01*
X41636904Y11870358D01*
X41636904Y12022739D01*
X41598809Y12098929D01*
X41560714Y12137024D01*
X41484523Y12175120D01*
X40836904Y12175120D01*
X40836904Y12708453D02*
X40836904Y12784643D01*
X40875000Y12860834D01*
X40913095Y12898929D01*
X40989285Y12937024D01*
X41141666Y12975120D01*
X41332142Y12975120D01*
X41484523Y12937024D01*
X41560714Y12898929D01*
X41598809Y12860834D01*
X41636904Y12784643D01*
X41636904Y12708453D01*
X41598809Y12632262D01*
X41560714Y12594167D01*
X41484523Y12556072D01*
X41332142Y12517977D01*
X41141666Y12517977D01*
X40989285Y12556072D01*
X40913095Y12594167D01*
X40875000Y12632262D01*
X40836904Y12708453D01*
X36556904Y40911072D02*
X35756904Y40911072D01*
X35756904Y41215834D01*
X35795000Y41292024D01*
X35833095Y41330120D01*
X35909285Y41368215D01*
X36023571Y41368215D01*
X36099761Y41330120D01*
X36137857Y41292024D01*
X36175952Y41215834D01*
X36175952Y40911072D01*
X36137857Y41977739D02*
X36175952Y42092024D01*
X36214047Y42130120D01*
X36290238Y42168215D01*
X36404523Y42168215D01*
X36480714Y42130120D01*
X36518809Y42092024D01*
X36556904Y42015834D01*
X36556904Y41711072D01*
X35756904Y41711072D01*
X35756904Y41977739D01*
X35795000Y42053929D01*
X35833095Y42092024D01*
X35909285Y42130120D01*
X35985476Y42130120D01*
X36061666Y42092024D01*
X36099761Y42053929D01*
X36137857Y41977739D01*
X36137857Y41711072D01*
X35756904Y42434881D02*
X35756904Y42930120D01*
X36061666Y42663453D01*
X36061666Y42777739D01*
X36099761Y42853929D01*
X36137857Y42892024D01*
X36214047Y42930120D01*
X36404523Y42930120D01*
X36480714Y42892024D01*
X36518809Y42853929D01*
X36556904Y42777739D01*
X36556904Y42549167D01*
X36518809Y42472977D01*
X36480714Y42434881D01*
X21316904Y40149167D02*
X20516904Y40149167D01*
X20516904Y40453929D01*
X20555000Y40530120D01*
X20593095Y40568215D01*
X20669285Y40606310D01*
X20783571Y40606310D01*
X20859761Y40568215D01*
X20897857Y40530120D01*
X20935952Y40453929D01*
X20935952Y40149167D01*
X21240714Y41406310D02*
X21278809Y41368215D01*
X21316904Y41253929D01*
X21316904Y41177739D01*
X21278809Y41063453D01*
X21202619Y40987262D01*
X21126428Y40949167D01*
X20974047Y40911072D01*
X20859761Y40911072D01*
X20707380Y40949167D01*
X20631190Y40987262D01*
X20555000Y41063453D01*
X20516904Y41177739D01*
X20516904Y41253929D01*
X20555000Y41368215D01*
X20593095Y41406310D01*
X21316904Y42168215D02*
X21316904Y41711072D01*
X21316904Y41939643D02*
X20516904Y41939643D01*
X20631190Y41863453D01*
X20707380Y41787262D01*
X20745476Y41711072D01*
X20516904Y42892024D02*
X20516904Y42511072D01*
X20897857Y42472977D01*
X20859761Y42511072D01*
X20821666Y42587262D01*
X20821666Y42777739D01*
X20859761Y42853929D01*
X20897857Y42892024D01*
X20974047Y42930120D01*
X21164523Y42930120D01*
X21240714Y42892024D01*
X21278809Y42853929D01*
X21316904Y42777739D01*
X21316904Y42587262D01*
X21278809Y42511072D01*
X21240714Y42472977D01*
X23856904Y40149167D02*
X23056904Y40149167D01*
X23056904Y40453929D01*
X23095000Y40530120D01*
X23133095Y40568215D01*
X23209285Y40606310D01*
X23323571Y40606310D01*
X23399761Y40568215D01*
X23437857Y40530120D01*
X23475952Y40453929D01*
X23475952Y40149167D01*
X23780714Y41406310D02*
X23818809Y41368215D01*
X23856904Y41253929D01*
X23856904Y41177739D01*
X23818809Y41063453D01*
X23742619Y40987262D01*
X23666428Y40949167D01*
X23514047Y40911072D01*
X23399761Y40911072D01*
X23247380Y40949167D01*
X23171190Y40987262D01*
X23095000Y41063453D01*
X23056904Y41177739D01*
X23056904Y41253929D01*
X23095000Y41368215D01*
X23133095Y41406310D01*
X23856904Y42168215D02*
X23856904Y41711072D01*
X23856904Y41939643D02*
X23056904Y41939643D01*
X23171190Y41863453D01*
X23247380Y41787262D01*
X23285476Y41711072D01*
X23056904Y42434881D02*
X23056904Y42930120D01*
X23361666Y42663453D01*
X23361666Y42777739D01*
X23399761Y42853929D01*
X23437857Y42892024D01*
X23514047Y42930120D01*
X23704523Y42930120D01*
X23780714Y42892024D01*
X23818809Y42853929D01*
X23856904Y42777739D01*
X23856904Y42549167D01*
X23818809Y42472977D01*
X23780714Y42434881D01*
X18776904Y11717977D02*
X17976904Y11717977D01*
X18776904Y12175120D01*
X17976904Y12175120D01*
X18776904Y13013215D02*
X18395952Y12746548D01*
X18776904Y12556072D02*
X17976904Y12556072D01*
X17976904Y12860834D01*
X18015000Y12937024D01*
X18053095Y12975120D01*
X18129285Y13013215D01*
X18243571Y13013215D01*
X18319761Y12975120D01*
X18357857Y12937024D01*
X18395952Y12860834D01*
X18395952Y12556072D01*
X18738809Y13317977D02*
X18776904Y13432262D01*
X18776904Y13622739D01*
X18738809Y13698929D01*
X18700714Y13737024D01*
X18624523Y13775120D01*
X18548333Y13775120D01*
X18472142Y13737024D01*
X18434047Y13698929D01*
X18395952Y13622739D01*
X18357857Y13470358D01*
X18319761Y13394167D01*
X18281666Y13356072D01*
X18205476Y13317977D01*
X18129285Y13317977D01*
X18053095Y13356072D01*
X18015000Y13394167D01*
X17976904Y13470358D01*
X17976904Y13660834D01*
X18015000Y13775120D01*
X17976904Y14003691D02*
X17976904Y14460834D01*
X18776904Y14232262D02*
X17976904Y14232262D01*
X23856904Y49817977D02*
X23056904Y49817977D01*
X23056904Y50122739D01*
X23095000Y50198929D01*
X23133095Y50237024D01*
X23209285Y50275120D01*
X23323571Y50275120D01*
X23399761Y50237024D01*
X23437857Y50198929D01*
X23475952Y50122739D01*
X23475952Y49817977D01*
X23780714Y51075120D02*
X23818809Y51037024D01*
X23856904Y50922739D01*
X23856904Y50846548D01*
X23818809Y50732262D01*
X23742619Y50656072D01*
X23666428Y50617977D01*
X23514047Y50579881D01*
X23399761Y50579881D01*
X23247380Y50617977D01*
X23171190Y50656072D01*
X23095000Y50732262D01*
X23056904Y50846548D01*
X23056904Y50922739D01*
X23095000Y51037024D01*
X23133095Y51075120D01*
X23856904Y51837024D02*
X23856904Y51379881D01*
X23856904Y51608453D02*
X23056904Y51608453D01*
X23171190Y51532262D01*
X23247380Y51456072D01*
X23285476Y51379881D01*
X23323571Y52522739D02*
X23856904Y52522739D01*
X23018809Y52332262D02*
X23590238Y52141786D01*
X23590238Y52637024D01*
X26396904Y11717977D02*
X25596904Y11717977D01*
X25596904Y12022739D01*
X25635000Y12098929D01*
X25673095Y12137024D01*
X25749285Y12175120D01*
X25863571Y12175120D01*
X25939761Y12137024D01*
X25977857Y12098929D01*
X26015952Y12022739D01*
X26015952Y11717977D01*
X26168333Y12479881D02*
X26168333Y12860834D01*
X26396904Y12403691D02*
X25596904Y12670358D01*
X26396904Y12937024D01*
X26396904Y13622739D02*
X26396904Y13165596D01*
X26396904Y13394167D02*
X25596904Y13394167D01*
X25711190Y13317977D01*
X25787380Y13241786D01*
X25825476Y13165596D01*
X28936904Y11717977D02*
X28136904Y11717977D01*
X28136904Y12022739D01*
X28175000Y12098929D01*
X28213095Y12137024D01*
X28289285Y12175120D01*
X28403571Y12175120D01*
X28479761Y12137024D01*
X28517857Y12098929D01*
X28555952Y12022739D01*
X28555952Y11717977D01*
X28708333Y12479881D02*
X28708333Y12860834D01*
X28936904Y12403691D02*
X28136904Y12670358D01*
X28936904Y12937024D01*
X28136904Y13127500D02*
X28136904Y13622739D01*
X28441666Y13356072D01*
X28441666Y13470358D01*
X28479761Y13546548D01*
X28517857Y13584643D01*
X28594047Y13622739D01*
X28784523Y13622739D01*
X28860714Y13584643D01*
X28898809Y13546548D01*
X28936904Y13470358D01*
X28936904Y13241786D01*
X28898809Y13165596D01*
X28860714Y13127500D01*
X36556904Y2811072D02*
X35756904Y2811072D01*
X35756904Y3115834D01*
X35795000Y3192024D01*
X35833095Y3230120D01*
X35909285Y3268215D01*
X36023571Y3268215D01*
X36099761Y3230120D01*
X36137857Y3192024D01*
X36175952Y3115834D01*
X36175952Y2811072D01*
X36480714Y4068215D02*
X36518809Y4030120D01*
X36556904Y3915834D01*
X36556904Y3839643D01*
X36518809Y3725358D01*
X36442619Y3649167D01*
X36366428Y3611072D01*
X36214047Y3572977D01*
X36099761Y3572977D01*
X35947380Y3611072D01*
X35871190Y3649167D01*
X35795000Y3725358D01*
X35756904Y3839643D01*
X35756904Y3915834D01*
X35795000Y4030120D01*
X35833095Y4068215D01*
X36023571Y4753929D02*
X36556904Y4753929D01*
X35718809Y4563453D02*
X36290238Y4372977D01*
X36290238Y4868215D01*
X56076904Y40911072D02*
X56724523Y40911072D01*
X56800714Y40949167D01*
X56838809Y40987262D01*
X56876904Y41063453D01*
X56876904Y41215834D01*
X56838809Y41292024D01*
X56800714Y41330120D01*
X56724523Y41368215D01*
X56076904Y41368215D01*
X56876904Y42168215D02*
X56876904Y41711072D01*
X56876904Y41939643D02*
X56076904Y41939643D01*
X56191190Y41863453D01*
X56267380Y41787262D01*
X56305476Y41711072D01*
X56343571Y42853929D02*
X56876904Y42853929D01*
X56038809Y42663453D02*
X56610238Y42472977D01*
X56610238Y42968215D01*
X34016904Y2925358D02*
X33216904Y2925358D01*
X33216904Y3230120D01*
X33255000Y3306310D01*
X33293095Y3344405D01*
X33369285Y3382500D01*
X33483571Y3382500D01*
X33559761Y3344405D01*
X33597857Y3306310D01*
X33635952Y3230120D01*
X33635952Y2925358D01*
X33788333Y3687262D02*
X33788333Y4068215D01*
X34016904Y3611072D02*
X33216904Y3877739D01*
X34016904Y4144405D01*
X33216904Y4753929D02*
X33216904Y4601548D01*
X33255000Y4525358D01*
X33293095Y4487262D01*
X33407380Y4411072D01*
X33559761Y4372977D01*
X33864523Y4372977D01*
X33940714Y4411072D01*
X33978809Y4449167D01*
X34016904Y4525358D01*
X34016904Y4677739D01*
X33978809Y4753929D01*
X33940714Y4792024D01*
X33864523Y4830120D01*
X33674047Y4830120D01*
X33597857Y4792024D01*
X33559761Y4753929D01*
X33521666Y4677739D01*
X33521666Y4525358D01*
X33559761Y4449167D01*
X33597857Y4411072D01*
X33674047Y4372977D01*
X34016904Y11717977D02*
X33216904Y11717977D01*
X33216904Y12022739D01*
X33255000Y12098929D01*
X33293095Y12137024D01*
X33369285Y12175120D01*
X33483571Y12175120D01*
X33559761Y12137024D01*
X33597857Y12098929D01*
X33635952Y12022739D01*
X33635952Y11717977D01*
X33788333Y12479881D02*
X33788333Y12860834D01*
X34016904Y12403691D02*
X33216904Y12670358D01*
X34016904Y12937024D01*
X33216904Y13127500D02*
X33216904Y13660834D01*
X34016904Y13317977D01*
X28936904Y40911072D02*
X28136904Y40911072D01*
X28136904Y41215834D01*
X28175000Y41292024D01*
X28213095Y41330120D01*
X28289285Y41368215D01*
X28403571Y41368215D01*
X28479761Y41330120D01*
X28517857Y41292024D01*
X28555952Y41215834D01*
X28555952Y40911072D01*
X28517857Y41977739D02*
X28555952Y42092024D01*
X28594047Y42130120D01*
X28670238Y42168215D01*
X28784523Y42168215D01*
X28860714Y42130120D01*
X28898809Y42092024D01*
X28936904Y42015834D01*
X28936904Y41711072D01*
X28136904Y41711072D01*
X28136904Y41977739D01*
X28175000Y42053929D01*
X28213095Y42092024D01*
X28289285Y42130120D01*
X28365476Y42130120D01*
X28441666Y42092024D01*
X28479761Y42053929D01*
X28517857Y41977739D01*
X28517857Y41711072D01*
X28936904Y42549167D02*
X28936904Y42701548D01*
X28898809Y42777739D01*
X28860714Y42815834D01*
X28746428Y42892024D01*
X28594047Y42930120D01*
X28289285Y42930120D01*
X28213095Y42892024D01*
X28175000Y42853929D01*
X28136904Y42777739D01*
X28136904Y42625358D01*
X28175000Y42549167D01*
X28213095Y42511072D01*
X28289285Y42472977D01*
X28479761Y42472977D01*
X28555952Y42511072D01*
X28594047Y42549167D01*
X28632142Y42625358D01*
X28632142Y42777739D01*
X28594047Y42853929D01*
X28555952Y42892024D01*
X28479761Y42930120D01*
X46716904Y11717977D02*
X45916904Y11717977D01*
X45916904Y12022739D01*
X45955000Y12098929D01*
X45993095Y12137024D01*
X46069285Y12175120D01*
X46183571Y12175120D01*
X46259761Y12137024D01*
X46297857Y12098929D01*
X46335952Y12022739D01*
X46335952Y11717977D01*
X46297857Y12784643D02*
X46335952Y12898929D01*
X46374047Y12937024D01*
X46450238Y12975120D01*
X46564523Y12975120D01*
X46640714Y12937024D01*
X46678809Y12898929D01*
X46716904Y12822739D01*
X46716904Y12517977D01*
X45916904Y12517977D01*
X45916904Y12784643D01*
X45955000Y12860834D01*
X45993095Y12898929D01*
X46069285Y12937024D01*
X46145476Y12937024D01*
X46221666Y12898929D01*
X46259761Y12860834D01*
X46297857Y12784643D01*
X46297857Y12517977D01*
X46716904Y13737024D02*
X46716904Y13279881D01*
X46716904Y13508453D02*
X45916904Y13508453D01*
X46031190Y13432262D01*
X46107380Y13356072D01*
X46145476Y13279881D01*
X45916904Y14003691D02*
X45916904Y14498929D01*
X46221666Y14232262D01*
X46221666Y14346548D01*
X46259761Y14422739D01*
X46297857Y14460834D01*
X46374047Y14498929D01*
X46564523Y14498929D01*
X46640714Y14460834D01*
X46678809Y14422739D01*
X46716904Y14346548D01*
X46716904Y14117977D01*
X46678809Y14041786D01*
X46640714Y14003691D01*
X17976904Y41672977D02*
X18624523Y41672977D01*
X18700714Y41711072D01*
X18738809Y41749167D01*
X18776904Y41825358D01*
X18776904Y41977739D01*
X18738809Y42053929D01*
X18700714Y42092024D01*
X18624523Y42130120D01*
X17976904Y42130120D01*
X17976904Y42853929D02*
X17976904Y42701548D01*
X18015000Y42625358D01*
X18053095Y42587262D01*
X18167380Y42511072D01*
X18319761Y42472977D01*
X18624523Y42472977D01*
X18700714Y42511072D01*
X18738809Y42549167D01*
X18776904Y42625358D01*
X18776904Y42777739D01*
X18738809Y42853929D01*
X18700714Y42892024D01*
X18624523Y42930120D01*
X18434047Y42930120D01*
X18357857Y42892024D01*
X18319761Y42853929D01*
X18281666Y42777739D01*
X18281666Y42625358D01*
X18319761Y42549167D01*
X18357857Y42511072D01*
X18434047Y42472977D01*
X44176904Y11717977D02*
X43376904Y11717977D01*
X43376904Y12022739D01*
X43415000Y12098929D01*
X43453095Y12137024D01*
X43529285Y12175120D01*
X43643571Y12175120D01*
X43719761Y12137024D01*
X43757857Y12098929D01*
X43795952Y12022739D01*
X43795952Y11717977D01*
X43757857Y12784643D02*
X43795952Y12898929D01*
X43834047Y12937024D01*
X43910238Y12975120D01*
X44024523Y12975120D01*
X44100714Y12937024D01*
X44138809Y12898929D01*
X44176904Y12822739D01*
X44176904Y12517977D01*
X43376904Y12517977D01*
X43376904Y12784643D01*
X43415000Y12860834D01*
X43453095Y12898929D01*
X43529285Y12937024D01*
X43605476Y12937024D01*
X43681666Y12898929D01*
X43719761Y12860834D01*
X43757857Y12784643D01*
X43757857Y12517977D01*
X44176904Y13737024D02*
X44176904Y13279881D01*
X44176904Y13508453D02*
X43376904Y13508453D01*
X43491190Y13432262D01*
X43567380Y13356072D01*
X43605476Y13279881D01*
X44176904Y14498929D02*
X44176904Y14041786D01*
X44176904Y14270358D02*
X43376904Y14270358D01*
X43491190Y14194167D01*
X43567380Y14117977D01*
X43605476Y14041786D01*
X56076904Y49817977D02*
X56724523Y49817977D01*
X56800714Y49856072D01*
X56838809Y49894167D01*
X56876904Y49970358D01*
X56876904Y50122739D01*
X56838809Y50198929D01*
X56800714Y50237024D01*
X56724523Y50275120D01*
X56076904Y50275120D01*
X56876904Y51075120D02*
X56876904Y50617977D01*
X56876904Y50846548D02*
X56076904Y50846548D01*
X56191190Y50770358D01*
X56267380Y50694167D01*
X56305476Y50617977D01*
X56076904Y51341786D02*
X56076904Y51837024D01*
X56381666Y51570358D01*
X56381666Y51684643D01*
X56419761Y51760834D01*
X56457857Y51798929D01*
X56534047Y51837024D01*
X56724523Y51837024D01*
X56800714Y51798929D01*
X56838809Y51760834D01*
X56876904Y51684643D01*
X56876904Y51456072D01*
X56838809Y51379881D01*
X56800714Y51341786D01*
X54336904Y11717977D02*
X53536904Y11717977D01*
X53536904Y12022739D01*
X53575000Y12098929D01*
X53613095Y12137024D01*
X53689285Y12175120D01*
X53803571Y12175120D01*
X53879761Y12137024D01*
X53917857Y12098929D01*
X53955952Y12022739D01*
X53955952Y11717977D01*
X54260714Y12975120D02*
X54298809Y12937024D01*
X54336904Y12822739D01*
X54336904Y12746548D01*
X54298809Y12632262D01*
X54222619Y12556072D01*
X54146428Y12517977D01*
X53994047Y12479881D01*
X53879761Y12479881D01*
X53727380Y12517977D01*
X53651190Y12556072D01*
X53575000Y12632262D01*
X53536904Y12746548D01*
X53536904Y12822739D01*
X53575000Y12937024D01*
X53613095Y12975120D01*
X54336904Y13356072D02*
X54336904Y13508453D01*
X54298809Y13584643D01*
X54260714Y13622739D01*
X54146428Y13698929D01*
X53994047Y13737024D01*
X53689285Y13737024D01*
X53613095Y13698929D01*
X53575000Y13660834D01*
X53536904Y13584643D01*
X53536904Y13432262D01*
X53575000Y13356072D01*
X53613095Y13317977D01*
X53689285Y13279881D01*
X53879761Y13279881D01*
X53955952Y13317977D01*
X53994047Y13356072D01*
X54032142Y13432262D01*
X54032142Y13584643D01*
X53994047Y13660834D01*
X53955952Y13698929D01*
X53879761Y13737024D01*
X58616904Y40911072D02*
X59264523Y40911072D01*
X59340714Y40949167D01*
X59378809Y40987262D01*
X59416904Y41063453D01*
X59416904Y41215834D01*
X59378809Y41292024D01*
X59340714Y41330120D01*
X59264523Y41368215D01*
X58616904Y41368215D01*
X59416904Y42168215D02*
X59416904Y41711072D01*
X59416904Y41939643D02*
X58616904Y41939643D01*
X58731190Y41863453D01*
X58807380Y41787262D01*
X58845476Y41711072D01*
X58616904Y42853929D02*
X58616904Y42701548D01*
X58655000Y42625358D01*
X58693095Y42587262D01*
X58807380Y42511072D01*
X58959761Y42472977D01*
X59264523Y42472977D01*
X59340714Y42511072D01*
X59378809Y42549167D01*
X59416904Y42625358D01*
X59416904Y42777739D01*
X59378809Y42853929D01*
X59340714Y42892024D01*
X59264523Y42930120D01*
X59074047Y42930120D01*
X58997857Y42892024D01*
X58959761Y42853929D01*
X58921666Y42777739D01*
X58921666Y42625358D01*
X58959761Y42549167D01*
X58997857Y42511072D01*
X59074047Y42472977D01*
X49256904Y40263453D02*
X48456904Y40263453D01*
X48456904Y40568215D01*
X48495000Y40644405D01*
X48533095Y40682500D01*
X48609285Y40720596D01*
X48723571Y40720596D01*
X48799761Y40682500D01*
X48837857Y40644405D01*
X48875952Y40568215D01*
X48875952Y40263453D01*
X49028333Y41025358D02*
X49028333Y41406310D01*
X49256904Y40949167D02*
X48456904Y41215834D01*
X49256904Y41482500D01*
X49256904Y42168215D02*
X49256904Y41711072D01*
X49256904Y41939643D02*
X48456904Y41939643D01*
X48571190Y41863453D01*
X48647380Y41787262D01*
X48685476Y41711072D01*
X48456904Y42434881D02*
X48456904Y42930120D01*
X48761666Y42663453D01*
X48761666Y42777739D01*
X48799761Y42853929D01*
X48837857Y42892024D01*
X48914047Y42930120D01*
X49104523Y42930120D01*
X49180714Y42892024D01*
X49218809Y42853929D01*
X49256904Y42777739D01*
X49256904Y42549167D01*
X49218809Y42472977D01*
X49180714Y42434881D01*
X39096904Y2811072D02*
X38296904Y2811072D01*
X38296904Y3115834D01*
X38335000Y3192024D01*
X38373095Y3230120D01*
X38449285Y3268215D01*
X38563571Y3268215D01*
X38639761Y3230120D01*
X38677857Y3192024D01*
X38715952Y3115834D01*
X38715952Y2811072D01*
X38677857Y3877739D02*
X38715952Y3992024D01*
X38754047Y4030120D01*
X38830238Y4068215D01*
X38944523Y4068215D01*
X39020714Y4030120D01*
X39058809Y3992024D01*
X39096904Y3915834D01*
X39096904Y3611072D01*
X38296904Y3611072D01*
X38296904Y3877739D01*
X38335000Y3953929D01*
X38373095Y3992024D01*
X38449285Y4030120D01*
X38525476Y4030120D01*
X38601666Y3992024D01*
X38639761Y3953929D01*
X38677857Y3877739D01*
X38677857Y3611072D01*
X38296904Y4563453D02*
X38296904Y4639643D01*
X38335000Y4715834D01*
X38373095Y4753929D01*
X38449285Y4792024D01*
X38601666Y4830120D01*
X38792142Y4830120D01*
X38944523Y4792024D01*
X39020714Y4753929D01*
X39058809Y4715834D01*
X39096904Y4639643D01*
X39096904Y4563453D01*
X39058809Y4487262D01*
X39020714Y4449167D01*
X38944523Y4411072D01*
X38792142Y4372977D01*
X38601666Y4372977D01*
X38449285Y4411072D01*
X38373095Y4449167D01*
X38335000Y4487262D01*
X38296904Y4563453D01*
X31476904Y11717977D02*
X30676904Y11717977D01*
X30676904Y12022739D01*
X30715000Y12098929D01*
X30753095Y12137024D01*
X30829285Y12175120D01*
X30943571Y12175120D01*
X31019761Y12137024D01*
X31057857Y12098929D01*
X31095952Y12022739D01*
X31095952Y11717977D01*
X31248333Y12479881D02*
X31248333Y12860834D01*
X31476904Y12403691D02*
X30676904Y12670358D01*
X31476904Y12937024D01*
X30676904Y13584643D02*
X30676904Y13203691D01*
X31057857Y13165596D01*
X31019761Y13203691D01*
X30981666Y13279881D01*
X30981666Y13470358D01*
X31019761Y13546548D01*
X31057857Y13584643D01*
X31134047Y13622739D01*
X31324523Y13622739D01*
X31400714Y13584643D01*
X31438809Y13546548D01*
X31476904Y13470358D01*
X31476904Y13279881D01*
X31438809Y13203691D01*
X31400714Y13165596D01*
X49256904Y11717977D02*
X48456904Y11717977D01*
X48456904Y12022739D01*
X48495000Y12098929D01*
X48533095Y12137024D01*
X48609285Y12175120D01*
X48723571Y12175120D01*
X48799761Y12137024D01*
X48837857Y12098929D01*
X48875952Y12022739D01*
X48875952Y11717977D01*
X48837857Y12784643D02*
X48875952Y12898929D01*
X48914047Y12937024D01*
X48990238Y12975120D01*
X49104523Y12975120D01*
X49180714Y12937024D01*
X49218809Y12898929D01*
X49256904Y12822739D01*
X49256904Y12517977D01*
X48456904Y12517977D01*
X48456904Y12784643D01*
X48495000Y12860834D01*
X48533095Y12898929D01*
X48609285Y12937024D01*
X48685476Y12937024D01*
X48761666Y12898929D01*
X48799761Y12860834D01*
X48837857Y12784643D01*
X48837857Y12517977D01*
X49256904Y13737024D02*
X49256904Y13279881D01*
X49256904Y13508453D02*
X48456904Y13508453D01*
X48571190Y13432262D01*
X48647380Y13356072D01*
X48685476Y13279881D01*
X48456904Y14460834D02*
X48456904Y14079881D01*
X48837857Y14041786D01*
X48799761Y14079881D01*
X48761666Y14156072D01*
X48761666Y14346548D01*
X48799761Y14422739D01*
X48837857Y14460834D01*
X48914047Y14498929D01*
X49104523Y14498929D01*
X49180714Y14460834D01*
X49218809Y14422739D01*
X49256904Y14346548D01*
X49256904Y14156072D01*
X49218809Y14079881D01*
X49180714Y14041786D01*
X63735000Y41253929D02*
X63696904Y41177739D01*
X63696904Y41063453D01*
X63735000Y40949167D01*
X63811190Y40872977D01*
X63887380Y40834881D01*
X64039761Y40796786D01*
X64154047Y40796786D01*
X64306428Y40834881D01*
X64382619Y40872977D01*
X64458809Y40949167D01*
X64496904Y41063453D01*
X64496904Y41139643D01*
X64458809Y41253929D01*
X64420714Y41292024D01*
X64154047Y41292024D01*
X64154047Y41139643D01*
X64496904Y41634881D02*
X63696904Y41634881D01*
X64496904Y42092024D01*
X63696904Y42092024D01*
X64496904Y42472977D02*
X63696904Y42472977D01*
X63696904Y42663453D01*
X63735000Y42777739D01*
X63811190Y42853929D01*
X63887380Y42892024D01*
X64039761Y42930120D01*
X64154047Y42930120D01*
X64306428Y42892024D01*
X64382619Y42853929D01*
X64458809Y42777739D01*
X64496904Y42663453D01*
X64496904Y42472977D01*
X39096904Y11717977D02*
X38296904Y11717977D01*
X38296904Y12022739D01*
X38335000Y12098929D01*
X38373095Y12137024D01*
X38449285Y12175120D01*
X38563571Y12175120D01*
X38639761Y12137024D01*
X38677857Y12098929D01*
X38715952Y12022739D01*
X38715952Y11717977D01*
X38677857Y12784643D02*
X38715952Y12898929D01*
X38754047Y12937024D01*
X38830238Y12975120D01*
X38944523Y12975120D01*
X39020714Y12937024D01*
X39058809Y12898929D01*
X39096904Y12822739D01*
X39096904Y12517977D01*
X38296904Y12517977D01*
X38296904Y12784643D01*
X38335000Y12860834D01*
X38373095Y12898929D01*
X38449285Y12937024D01*
X38525476Y12937024D01*
X38601666Y12898929D01*
X38639761Y12860834D01*
X38677857Y12784643D01*
X38677857Y12517977D01*
X39096904Y13737024D02*
X39096904Y13279881D01*
X39096904Y13508453D02*
X38296904Y13508453D01*
X38411190Y13432262D01*
X38487380Y13356072D01*
X38525476Y13279881D01*
X61195000Y12137024D02*
X61156904Y12060834D01*
X61156904Y11946548D01*
X61195000Y11832262D01*
X61271190Y11756072D01*
X61347380Y11717977D01*
X61499761Y11679881D01*
X61614047Y11679881D01*
X61766428Y11717977D01*
X61842619Y11756072D01*
X61918809Y11832262D01*
X61956904Y11946548D01*
X61956904Y12022739D01*
X61918809Y12137024D01*
X61880714Y12175120D01*
X61614047Y12175120D01*
X61614047Y12022739D01*
X61956904Y12517977D02*
X61156904Y12517977D01*
X61956904Y12975120D01*
X61156904Y12975120D01*
X61956904Y13356072D02*
X61156904Y13356072D01*
X61156904Y13546548D01*
X61195000Y13660834D01*
X61271190Y13737024D01*
X61347380Y13775120D01*
X61499761Y13813215D01*
X61614047Y13813215D01*
X61766428Y13775120D01*
X61842619Y13737024D01*
X61918809Y13660834D01*
X61956904Y13546548D01*
X61956904Y13356072D01*
X41636904Y40149167D02*
X40836904Y40149167D01*
X40836904Y40453929D01*
X40875000Y40530120D01*
X40913095Y40568215D01*
X40989285Y40606310D01*
X41103571Y40606310D01*
X41179761Y40568215D01*
X41217857Y40530120D01*
X41255952Y40453929D01*
X41255952Y40149167D01*
X41560714Y41406310D02*
X41598809Y41368215D01*
X41636904Y41253929D01*
X41636904Y41177739D01*
X41598809Y41063453D01*
X41522619Y40987262D01*
X41446428Y40949167D01*
X41294047Y40911072D01*
X41179761Y40911072D01*
X41027380Y40949167D01*
X40951190Y40987262D01*
X40875000Y41063453D01*
X40836904Y41177739D01*
X40836904Y41253929D01*
X40875000Y41368215D01*
X40913095Y41406310D01*
X41636904Y42168215D02*
X41636904Y41711072D01*
X41636904Y41939643D02*
X40836904Y41939643D01*
X40951190Y41863453D01*
X41027380Y41787262D01*
X41065476Y41711072D01*
X41636904Y42930120D02*
X41636904Y42472977D01*
X41636904Y42701548D02*
X40836904Y42701548D01*
X40951190Y42625358D01*
X41027380Y42549167D01*
X41065476Y42472977D01*
X15475000Y12137024D02*
X15436904Y12060834D01*
X15436904Y11946548D01*
X15475000Y11832262D01*
X15551190Y11756072D01*
X15627380Y11717977D01*
X15779761Y11679881D01*
X15894047Y11679881D01*
X16046428Y11717977D01*
X16122619Y11756072D01*
X16198809Y11832262D01*
X16236904Y11946548D01*
X16236904Y12022739D01*
X16198809Y12137024D01*
X16160714Y12175120D01*
X15894047Y12175120D01*
X15894047Y12022739D01*
X16236904Y12517977D02*
X15436904Y12517977D01*
X16236904Y12975120D01*
X15436904Y12975120D01*
X16236904Y13356072D02*
X15436904Y13356072D01*
X15436904Y13546548D01*
X15475000Y13660834D01*
X15551190Y13737024D01*
X15627380Y13775120D01*
X15779761Y13813215D01*
X15894047Y13813215D01*
X16046428Y13775120D01*
X16122619Y13737024D01*
X16198809Y13660834D01*
X16236904Y13546548D01*
X16236904Y13356072D01*
X31476904Y49817977D02*
X30676904Y49817977D01*
X30676904Y50122739D01*
X30715000Y50198929D01*
X30753095Y50237024D01*
X30829285Y50275120D01*
X30943571Y50275120D01*
X31019761Y50237024D01*
X31057857Y50198929D01*
X31095952Y50122739D01*
X31095952Y49817977D01*
X31057857Y50884643D02*
X31095952Y50998929D01*
X31134047Y51037024D01*
X31210238Y51075120D01*
X31324523Y51075120D01*
X31400714Y51037024D01*
X31438809Y50998929D01*
X31476904Y50922739D01*
X31476904Y50617977D01*
X30676904Y50617977D01*
X30676904Y50884643D01*
X30715000Y50960834D01*
X30753095Y50998929D01*
X30829285Y51037024D01*
X30905476Y51037024D01*
X30981666Y50998929D01*
X31019761Y50960834D01*
X31057857Y50884643D01*
X31057857Y50617977D01*
X30676904Y51760834D02*
X30676904Y51608453D01*
X30715000Y51532262D01*
X30753095Y51494167D01*
X30867380Y51417977D01*
X31019761Y51379881D01*
X31324523Y51379881D01*
X31400714Y51417977D01*
X31438809Y51456072D01*
X31476904Y51532262D01*
X31476904Y51684643D01*
X31438809Y51760834D01*
X31400714Y51798929D01*
X31324523Y51837024D01*
X31134047Y51837024D01*
X31057857Y51798929D01*
X31019761Y51760834D01*
X30981666Y51684643D01*
X30981666Y51532262D01*
X31019761Y51456072D01*
X31057857Y51417977D01*
X31134047Y51379881D01*
X36556904Y11717977D02*
X35756904Y11717977D01*
X35756904Y12022739D01*
X35795000Y12098929D01*
X35833095Y12137024D01*
X35909285Y12175120D01*
X36023571Y12175120D01*
X36099761Y12137024D01*
X36137857Y12098929D01*
X36175952Y12022739D01*
X36175952Y11717977D01*
X36480714Y12975120D02*
X36518809Y12937024D01*
X36556904Y12822739D01*
X36556904Y12746548D01*
X36518809Y12632262D01*
X36442619Y12556072D01*
X36366428Y12517977D01*
X36214047Y12479881D01*
X36099761Y12479881D01*
X35947380Y12517977D01*
X35871190Y12556072D01*
X35795000Y12632262D01*
X35756904Y12746548D01*
X35756904Y12822739D01*
X35795000Y12937024D01*
X35833095Y12975120D01*
X35756904Y13698929D02*
X35756904Y13317977D01*
X36137857Y13279881D01*
X36099761Y13317977D01*
X36061666Y13394167D01*
X36061666Y13584643D01*
X36099761Y13660834D01*
X36137857Y13698929D01*
X36214047Y13737024D01*
X36404523Y13737024D01*
X36480714Y13698929D01*
X36518809Y13660834D01*
X36556904Y13584643D01*
X36556904Y13394167D01*
X36518809Y13317977D01*
X36480714Y13279881D01*
X34016904Y49817977D02*
X33216904Y49817977D01*
X33216904Y50122739D01*
X33255000Y50198929D01*
X33293095Y50237024D01*
X33369285Y50275120D01*
X33483571Y50275120D01*
X33559761Y50237024D01*
X33597857Y50198929D01*
X33635952Y50122739D01*
X33635952Y49817977D01*
X33597857Y50884643D02*
X33635952Y50998929D01*
X33674047Y51037024D01*
X33750238Y51075120D01*
X33864523Y51075120D01*
X33940714Y51037024D01*
X33978809Y50998929D01*
X34016904Y50922739D01*
X34016904Y50617977D01*
X33216904Y50617977D01*
X33216904Y50884643D01*
X33255000Y50960834D01*
X33293095Y50998929D01*
X33369285Y51037024D01*
X33445476Y51037024D01*
X33521666Y50998929D01*
X33559761Y50960834D01*
X33597857Y50884643D01*
X33597857Y50617977D01*
X33483571Y51760834D02*
X34016904Y51760834D01*
X33178809Y51570358D02*
X33750238Y51379881D01*
X33750238Y51875120D01*
X21316904Y2811072D02*
X20516904Y2811072D01*
X20516904Y3115834D01*
X20555000Y3192024D01*
X20593095Y3230120D01*
X20669285Y3268215D01*
X20783571Y3268215D01*
X20859761Y3230120D01*
X20897857Y3192024D01*
X20935952Y3115834D01*
X20935952Y2811072D01*
X21240714Y4068215D02*
X21278809Y4030120D01*
X21316904Y3915834D01*
X21316904Y3839643D01*
X21278809Y3725358D01*
X21202619Y3649167D01*
X21126428Y3611072D01*
X20974047Y3572977D01*
X20859761Y3572977D01*
X20707380Y3611072D01*
X20631190Y3649167D01*
X20555000Y3725358D01*
X20516904Y3839643D01*
X20516904Y3915834D01*
X20555000Y4030120D01*
X20593095Y4068215D01*
X20516904Y4563453D02*
X20516904Y4639643D01*
X20555000Y4715834D01*
X20593095Y4753929D01*
X20669285Y4792024D01*
X20821666Y4830120D01*
X21012142Y4830120D01*
X21164523Y4792024D01*
X21240714Y4753929D01*
X21278809Y4715834D01*
X21316904Y4639643D01*
X21316904Y4563453D01*
X21278809Y4487262D01*
X21240714Y4449167D01*
X21164523Y4411072D01*
X21012142Y4372977D01*
X20821666Y4372977D01*
X20669285Y4411072D01*
X20593095Y4449167D01*
X20555000Y4487262D01*
X20516904Y4563453D01*
X21316904Y11717977D02*
X20516904Y11717977D01*
X20516904Y12022739D01*
X20555000Y12098929D01*
X20593095Y12137024D01*
X20669285Y12175120D01*
X20783571Y12175120D01*
X20859761Y12137024D01*
X20897857Y12098929D01*
X20935952Y12022739D01*
X20935952Y11717977D01*
X21240714Y12975120D02*
X21278809Y12937024D01*
X21316904Y12822739D01*
X21316904Y12746548D01*
X21278809Y12632262D01*
X21202619Y12556072D01*
X21126428Y12517977D01*
X20974047Y12479881D01*
X20859761Y12479881D01*
X20707380Y12517977D01*
X20631190Y12556072D01*
X20555000Y12632262D01*
X20516904Y12746548D01*
X20516904Y12822739D01*
X20555000Y12937024D01*
X20593095Y12975120D01*
X21316904Y13737024D02*
X21316904Y13279881D01*
X21316904Y13508453D02*
X20516904Y13508453D01*
X20631190Y13432262D01*
X20707380Y13356072D01*
X20745476Y13279881D01*
X54336904Y2811072D02*
X53536904Y2811072D01*
X53536904Y3115834D01*
X53575000Y3192024D01*
X53613095Y3230120D01*
X53689285Y3268215D01*
X53803571Y3268215D01*
X53879761Y3230120D01*
X53917857Y3192024D01*
X53955952Y3115834D01*
X53955952Y2811072D01*
X54260714Y4068215D02*
X54298809Y4030120D01*
X54336904Y3915834D01*
X54336904Y3839643D01*
X54298809Y3725358D01*
X54222619Y3649167D01*
X54146428Y3611072D01*
X53994047Y3572977D01*
X53879761Y3572977D01*
X53727380Y3611072D01*
X53651190Y3649167D01*
X53575000Y3725358D01*
X53536904Y3839643D01*
X53536904Y3915834D01*
X53575000Y4030120D01*
X53613095Y4068215D01*
X53879761Y4525358D02*
X53841666Y4449167D01*
X53803571Y4411072D01*
X53727380Y4372977D01*
X53689285Y4372977D01*
X53613095Y4411072D01*
X53575000Y4449167D01*
X53536904Y4525358D01*
X53536904Y4677739D01*
X53575000Y4753929D01*
X53613095Y4792024D01*
X53689285Y4830120D01*
X53727380Y4830120D01*
X53803571Y4792024D01*
X53841666Y4753929D01*
X53879761Y4677739D01*
X53879761Y4525358D01*
X53917857Y4449167D01*
X53955952Y4411072D01*
X54032142Y4372977D01*
X54184523Y4372977D01*
X54260714Y4411072D01*
X54298809Y4449167D01*
X54336904Y4525358D01*
X54336904Y4677739D01*
X54298809Y4753929D01*
X54260714Y4792024D01*
X54184523Y4830120D01*
X54032142Y4830120D01*
X53955952Y4792024D01*
X53917857Y4753929D01*
X53879761Y4677739D01*
X31476904Y2925358D02*
X30676904Y2925358D01*
X30676904Y3230120D01*
X30715000Y3306310D01*
X30753095Y3344405D01*
X30829285Y3382500D01*
X30943571Y3382500D01*
X31019761Y3344405D01*
X31057857Y3306310D01*
X31095952Y3230120D01*
X31095952Y2925358D01*
X31248333Y3687262D02*
X31248333Y4068215D01*
X31476904Y3611072D02*
X30676904Y3877739D01*
X31476904Y4144405D01*
X30943571Y4753929D02*
X31476904Y4753929D01*
X30638809Y4563453D02*
X31210238Y4372977D01*
X31210238Y4868215D01*
X61156904Y2506310D02*
X61156904Y3001548D01*
X61461666Y2734881D01*
X61461666Y2849167D01*
X61499761Y2925358D01*
X61537857Y2963453D01*
X61614047Y3001548D01*
X61804523Y3001548D01*
X61880714Y2963453D01*
X61918809Y2925358D01*
X61956904Y2849167D01*
X61956904Y2620596D01*
X61918809Y2544405D01*
X61880714Y2506310D01*
X61880714Y3344405D02*
X61918809Y3382500D01*
X61956904Y3344405D01*
X61918809Y3306310D01*
X61880714Y3344405D01*
X61956904Y3344405D01*
X61156904Y3649167D02*
X61156904Y4144405D01*
X61461666Y3877739D01*
X61461666Y3992024D01*
X61499761Y4068215D01*
X61537857Y4106310D01*
X61614047Y4144405D01*
X61804523Y4144405D01*
X61880714Y4106310D01*
X61918809Y4068215D01*
X61956904Y3992024D01*
X61956904Y3763453D01*
X61918809Y3687262D01*
X61880714Y3649167D01*
X61156904Y4372977D02*
X61956904Y4639643D01*
X61156904Y4906310D01*
X41636904Y2811072D02*
X40836904Y2811072D01*
X40836904Y3115834D01*
X40875000Y3192024D01*
X40913095Y3230120D01*
X40989285Y3268215D01*
X41103571Y3268215D01*
X41179761Y3230120D01*
X41217857Y3192024D01*
X41255952Y3115834D01*
X41255952Y2811072D01*
X41217857Y3877739D02*
X41255952Y3992024D01*
X41294047Y4030120D01*
X41370238Y4068215D01*
X41484523Y4068215D01*
X41560714Y4030120D01*
X41598809Y3992024D01*
X41636904Y3915834D01*
X41636904Y3611072D01*
X40836904Y3611072D01*
X40836904Y3877739D01*
X40875000Y3953929D01*
X40913095Y3992024D01*
X40989285Y4030120D01*
X41065476Y4030120D01*
X41141666Y3992024D01*
X41179761Y3953929D01*
X41217857Y3877739D01*
X41217857Y3611072D01*
X40913095Y4372977D02*
X40875000Y4411072D01*
X40836904Y4487262D01*
X40836904Y4677739D01*
X40875000Y4753929D01*
X40913095Y4792024D01*
X40989285Y4830120D01*
X41065476Y4830120D01*
X41179761Y4792024D01*
X41636904Y4334881D01*
X41636904Y4830120D01*
X38296904Y41672977D02*
X38944523Y41672977D01*
X39020714Y41711072D01*
X39058809Y41749167D01*
X39096904Y41825358D01*
X39096904Y41977739D01*
X39058809Y42053929D01*
X39020714Y42092024D01*
X38944523Y42130120D01*
X38296904Y42130120D01*
X38639761Y42625358D02*
X38601666Y42549167D01*
X38563571Y42511072D01*
X38487380Y42472977D01*
X38449285Y42472977D01*
X38373095Y42511072D01*
X38335000Y42549167D01*
X38296904Y42625358D01*
X38296904Y42777739D01*
X38335000Y42853929D01*
X38373095Y42892024D01*
X38449285Y42930120D01*
X38487380Y42930120D01*
X38563571Y42892024D01*
X38601666Y42853929D01*
X38639761Y42777739D01*
X38639761Y42625358D01*
X38677857Y42549167D01*
X38715952Y42511072D01*
X38792142Y42472977D01*
X38944523Y42472977D01*
X39020714Y42511072D01*
X39058809Y42549167D01*
X39096904Y42625358D01*
X39096904Y42777739D01*
X39058809Y42853929D01*
X39020714Y42892024D01*
X38944523Y42930120D01*
X38792142Y42930120D01*
X38715952Y42892024D01*
X38677857Y42853929D01*
X38639761Y42777739D01*
X63735000Y12137024D02*
X63696904Y12060834D01*
X63696904Y11946548D01*
X63735000Y11832262D01*
X63811190Y11756072D01*
X63887380Y11717977D01*
X64039761Y11679881D01*
X64154047Y11679881D01*
X64306428Y11717977D01*
X64382619Y11756072D01*
X64458809Y11832262D01*
X64496904Y11946548D01*
X64496904Y12022739D01*
X64458809Y12137024D01*
X64420714Y12175120D01*
X64154047Y12175120D01*
X64154047Y12022739D01*
X64496904Y12517977D02*
X63696904Y12517977D01*
X64496904Y12975120D01*
X63696904Y12975120D01*
X64496904Y13356072D02*
X63696904Y13356072D01*
X63696904Y13546548D01*
X63735000Y13660834D01*
X63811190Y13737024D01*
X63887380Y13775120D01*
X64039761Y13813215D01*
X64154047Y13813215D01*
X64306428Y13775120D01*
X64382619Y13737024D01*
X64458809Y13660834D01*
X64496904Y13546548D01*
X64496904Y13356072D01*
X28936904Y49817977D02*
X28136904Y49817977D01*
X28136904Y50122739D01*
X28175000Y50198929D01*
X28213095Y50237024D01*
X28289285Y50275120D01*
X28403571Y50275120D01*
X28479761Y50237024D01*
X28517857Y50198929D01*
X28555952Y50122739D01*
X28555952Y49817977D01*
X28517857Y50884643D02*
X28555952Y50998929D01*
X28594047Y51037024D01*
X28670238Y51075120D01*
X28784523Y51075120D01*
X28860714Y51037024D01*
X28898809Y50998929D01*
X28936904Y50922739D01*
X28936904Y50617977D01*
X28136904Y50617977D01*
X28136904Y50884643D01*
X28175000Y50960834D01*
X28213095Y50998929D01*
X28289285Y51037024D01*
X28365476Y51037024D01*
X28441666Y50998929D01*
X28479761Y50960834D01*
X28517857Y50884643D01*
X28517857Y50617977D01*
X28479761Y51532262D02*
X28441666Y51456072D01*
X28403571Y51417977D01*
X28327380Y51379881D01*
X28289285Y51379881D01*
X28213095Y51417977D01*
X28175000Y51456072D01*
X28136904Y51532262D01*
X28136904Y51684643D01*
X28175000Y51760834D01*
X28213095Y51798929D01*
X28289285Y51837024D01*
X28327380Y51837024D01*
X28403571Y51798929D01*
X28441666Y51760834D01*
X28479761Y51684643D01*
X28479761Y51532262D01*
X28517857Y51456072D01*
X28555952Y51417977D01*
X28632142Y51379881D01*
X28784523Y51379881D01*
X28860714Y51417977D01*
X28898809Y51456072D01*
X28936904Y51532262D01*
X28936904Y51684643D01*
X28898809Y51760834D01*
X28860714Y51798929D01*
X28784523Y51837024D01*
X28632142Y51837024D01*
X28555952Y51798929D01*
X28517857Y51760834D01*
X28479761Y51684643D01*
X43376904Y40911072D02*
X44024523Y40911072D01*
X44100714Y40949167D01*
X44138809Y40987262D01*
X44176904Y41063453D01*
X44176904Y41215834D01*
X44138809Y41292024D01*
X44100714Y41330120D01*
X44024523Y41368215D01*
X43376904Y41368215D01*
X44176904Y42168215D02*
X44176904Y41711072D01*
X44176904Y41939643D02*
X43376904Y41939643D01*
X43491190Y41863453D01*
X43567380Y41787262D01*
X43605476Y41711072D01*
X43453095Y42472977D02*
X43415000Y42511072D01*
X43376904Y42587262D01*
X43376904Y42777739D01*
X43415000Y42853929D01*
X43453095Y42892024D01*
X43529285Y42930120D01*
X43605476Y42930120D01*
X43719761Y42892024D01*
X44176904Y42434881D01*
X44176904Y42930120D01*
X15475000Y41253929D02*
X15436904Y41177739D01*
X15436904Y41063453D01*
X15475000Y40949167D01*
X15551190Y40872977D01*
X15627380Y40834881D01*
X15779761Y40796786D01*
X15894047Y40796786D01*
X16046428Y40834881D01*
X16122619Y40872977D01*
X16198809Y40949167D01*
X16236904Y41063453D01*
X16236904Y41139643D01*
X16198809Y41253929D01*
X16160714Y41292024D01*
X15894047Y41292024D01*
X15894047Y41139643D01*
X16236904Y41634881D02*
X15436904Y41634881D01*
X16236904Y42092024D01*
X15436904Y42092024D01*
X16236904Y42472977D02*
X15436904Y42472977D01*
X15436904Y42663453D01*
X15475000Y42777739D01*
X15551190Y42853929D01*
X15627380Y42892024D01*
X15779761Y42930120D01*
X15894047Y42930120D01*
X16046428Y42892024D01*
X16122619Y42853929D01*
X16198809Y42777739D01*
X16236904Y42663453D01*
X16236904Y42472977D01*
X18357857Y3039643D02*
X18395952Y3153929D01*
X18434047Y3192024D01*
X18510238Y3230120D01*
X18624523Y3230120D01*
X18700714Y3192024D01*
X18738809Y3153929D01*
X18776904Y3077739D01*
X18776904Y2772977D01*
X17976904Y2772977D01*
X17976904Y3039643D01*
X18015000Y3115834D01*
X18053095Y3153929D01*
X18129285Y3192024D01*
X18205476Y3192024D01*
X18281666Y3153929D01*
X18319761Y3115834D01*
X18357857Y3039643D01*
X18357857Y2772977D01*
X17976904Y3725358D02*
X17976904Y3877739D01*
X18015000Y3953929D01*
X18091190Y4030120D01*
X18243571Y4068215D01*
X18510238Y4068215D01*
X18662619Y4030120D01*
X18738809Y3953929D01*
X18776904Y3877739D01*
X18776904Y3725358D01*
X18738809Y3649167D01*
X18662619Y3572977D01*
X18510238Y3534881D01*
X18243571Y3534881D01*
X18091190Y3572977D01*
X18015000Y3649167D01*
X17976904Y3725358D01*
X17976904Y4563453D02*
X17976904Y4639643D01*
X18015000Y4715834D01*
X18053095Y4753929D01*
X18129285Y4792024D01*
X18281666Y4830120D01*
X18472142Y4830120D01*
X18624523Y4792024D01*
X18700714Y4753929D01*
X18738809Y4715834D01*
X18776904Y4639643D01*
X18776904Y4563453D01*
X18738809Y4487262D01*
X18700714Y4449167D01*
X18624523Y4411072D01*
X18472142Y4372977D01*
X18281666Y4372977D01*
X18129285Y4411072D01*
X18053095Y4449167D01*
X18015000Y4487262D01*
X17976904Y4563453D01*
X34016904Y40911072D02*
X33216904Y40911072D01*
X33216904Y41215834D01*
X33255000Y41292024D01*
X33293095Y41330120D01*
X33369285Y41368215D01*
X33483571Y41368215D01*
X33559761Y41330120D01*
X33597857Y41292024D01*
X33635952Y41215834D01*
X33635952Y40911072D01*
X33597857Y41977739D02*
X33635952Y42092024D01*
X33674047Y42130120D01*
X33750238Y42168215D01*
X33864523Y42168215D01*
X33940714Y42130120D01*
X33978809Y42092024D01*
X34016904Y42015834D01*
X34016904Y41711072D01*
X33216904Y41711072D01*
X33216904Y41977739D01*
X33255000Y42053929D01*
X33293095Y42092024D01*
X33369285Y42130120D01*
X33445476Y42130120D01*
X33521666Y42092024D01*
X33559761Y42053929D01*
X33597857Y41977739D01*
X33597857Y41711072D01*
X33216904Y42892024D02*
X33216904Y42511072D01*
X33597857Y42472977D01*
X33559761Y42511072D01*
X33521666Y42587262D01*
X33521666Y42777739D01*
X33559761Y42853929D01*
X33597857Y42892024D01*
X33674047Y42930120D01*
X33864523Y42930120D01*
X33940714Y42892024D01*
X33978809Y42853929D01*
X34016904Y42777739D01*
X34016904Y42587262D01*
X33978809Y42511072D01*
X33940714Y42472977D01*
X25596904Y49817977D02*
X26244523Y49817977D01*
X26320714Y49856072D01*
X26358809Y49894167D01*
X26396904Y49970358D01*
X26396904Y50122739D01*
X26358809Y50198929D01*
X26320714Y50237024D01*
X26244523Y50275120D01*
X25596904Y50275120D01*
X26396904Y50694167D02*
X26396904Y50846548D01*
X26358809Y50922739D01*
X26320714Y50960834D01*
X26206428Y51037024D01*
X26054047Y51075120D01*
X25749285Y51075120D01*
X25673095Y51037024D01*
X25635000Y50998929D01*
X25596904Y50922739D01*
X25596904Y50770358D01*
X25635000Y50694167D01*
X25673095Y50656072D01*
X25749285Y50617977D01*
X25939761Y50617977D01*
X26015952Y50656072D01*
X26054047Y50694167D01*
X26092142Y50770358D01*
X26092142Y50922739D01*
X26054047Y50998929D01*
X26015952Y51037024D01*
X25939761Y51075120D01*
X15436904Y3687262D02*
X16236904Y3953929D01*
X15436904Y4220596D01*
X16008333Y4449167D02*
X16008333Y4830120D01*
X16236904Y4372977D02*
X15436904Y4639643D01*
X16236904Y4906310D01*
X61195000Y41253929D02*
X61156904Y41177739D01*
X61156904Y41063453D01*
X61195000Y40949167D01*
X61271190Y40872977D01*
X61347380Y40834881D01*
X61499761Y40796786D01*
X61614047Y40796786D01*
X61766428Y40834881D01*
X61842619Y40872977D01*
X61918809Y40949167D01*
X61956904Y41063453D01*
X61956904Y41139643D01*
X61918809Y41253929D01*
X61880714Y41292024D01*
X61614047Y41292024D01*
X61614047Y41139643D01*
X61956904Y41634881D02*
X61156904Y41634881D01*
X61956904Y42092024D01*
X61156904Y42092024D01*
X61956904Y42472977D02*
X61156904Y42472977D01*
X61156904Y42663453D01*
X61195000Y42777739D01*
X61271190Y42853929D01*
X61347380Y42892024D01*
X61499761Y42930120D01*
X61614047Y42930120D01*
X61766428Y42892024D01*
X61842619Y42853929D01*
X61918809Y42777739D01*
X61956904Y42663453D01*
X61956904Y42472977D01*
X61156904Y49741786D02*
X61156904Y50237024D01*
X61461666Y49970358D01*
X61461666Y50084643D01*
X61499761Y50160834D01*
X61537857Y50198929D01*
X61614047Y50237024D01*
X61804523Y50237024D01*
X61880714Y50198929D01*
X61918809Y50160834D01*
X61956904Y50084643D01*
X61956904Y49856072D01*
X61918809Y49779881D01*
X61880714Y49741786D01*
X61880714Y50579881D02*
X61918809Y50617977D01*
X61956904Y50579881D01*
X61918809Y50541786D01*
X61880714Y50579881D01*
X61956904Y50579881D01*
X61156904Y50884643D02*
X61156904Y51379881D01*
X61461666Y51113215D01*
X61461666Y51227500D01*
X61499761Y51303691D01*
X61537857Y51341786D01*
X61614047Y51379881D01*
X61804523Y51379881D01*
X61880714Y51341786D01*
X61918809Y51303691D01*
X61956904Y51227500D01*
X61956904Y50998929D01*
X61918809Y50922739D01*
X61880714Y50884643D01*
X61156904Y51608453D02*
X61956904Y51875120D01*
X61156904Y52141786D01*
X63696904Y50198929D02*
X63696904Y49817977D01*
X64077857Y49779881D01*
X64039761Y49817977D01*
X64001666Y49894167D01*
X64001666Y50084643D01*
X64039761Y50160834D01*
X64077857Y50198929D01*
X64154047Y50237024D01*
X64344523Y50237024D01*
X64420714Y50198929D01*
X64458809Y50160834D01*
X64496904Y50084643D01*
X64496904Y49894167D01*
X64458809Y49817977D01*
X64420714Y49779881D01*
X63696904Y50465596D02*
X64496904Y50732262D01*
X63696904Y50998929D01*
G04 #@! TO.C,C5*
X30948333Y35202858D02*
X30900714Y35155239D01*
X30757857Y35107620D01*
X30662619Y35107620D01*
X30519761Y35155239D01*
X30424523Y35250477D01*
X30376904Y35345715D01*
X30329285Y35536191D01*
X30329285Y35679048D01*
X30376904Y35869524D01*
X30424523Y35964762D01*
X30519761Y36060000D01*
X30662619Y36107620D01*
X30757857Y36107620D01*
X30900714Y36060000D01*
X30948333Y36012381D01*
X31853095Y36107620D02*
X31376904Y36107620D01*
X31329285Y35631429D01*
X31376904Y35679048D01*
X31472142Y35726667D01*
X31710238Y35726667D01*
X31805476Y35679048D01*
X31853095Y35631429D01*
X31900714Y35536191D01*
X31900714Y35298096D01*
X31853095Y35202858D01*
X31805476Y35155239D01*
X31710238Y35107620D01*
X31472142Y35107620D01*
X31376904Y35155239D01*
X31329285Y35202858D01*
G04 #@! TO.C,C8*
X25868333Y23137858D02*
X25820714Y23090239D01*
X25677857Y23042620D01*
X25582619Y23042620D01*
X25439761Y23090239D01*
X25344523Y23185477D01*
X25296904Y23280715D01*
X25249285Y23471191D01*
X25249285Y23614048D01*
X25296904Y23804524D01*
X25344523Y23899762D01*
X25439761Y23995000D01*
X25582619Y24042620D01*
X25677857Y24042620D01*
X25820714Y23995000D01*
X25868333Y23947381D01*
X26439761Y23614048D02*
X26344523Y23661667D01*
X26296904Y23709286D01*
X26249285Y23804524D01*
X26249285Y23852143D01*
X26296904Y23947381D01*
X26344523Y23995000D01*
X26439761Y24042620D01*
X26630238Y24042620D01*
X26725476Y23995000D01*
X26773095Y23947381D01*
X26820714Y23852143D01*
X26820714Y23804524D01*
X26773095Y23709286D01*
X26725476Y23661667D01*
X26630238Y23614048D01*
X26439761Y23614048D01*
X26344523Y23566429D01*
X26296904Y23518810D01*
X26249285Y23423572D01*
X26249285Y23233096D01*
X26296904Y23137858D01*
X26344523Y23090239D01*
X26439761Y23042620D01*
X26630238Y23042620D01*
X26725476Y23090239D01*
X26773095Y23137858D01*
X26820714Y23233096D01*
X26820714Y23423572D01*
X26773095Y23518810D01*
X26725476Y23566429D01*
X26630238Y23614048D01*
D11*
G04 #@! TO.C,D1*
X68235000Y19320000D02*
X72135000Y19320000D01*
X68235000Y21320000D02*
X68235000Y19320000D01*
X68235000Y21320000D02*
X72135000Y21320000D01*
G04 #@! TO.C,J1*
X78195000Y22605000D02*
X78195000Y32005000D01*
X76295000Y32005000D02*
X78195000Y32005000D01*
X76295000Y22605000D02*
X78195000Y22605000D01*
X72395000Y32005000D02*
X74395000Y32005000D01*
X72395000Y22605000D02*
X74395000Y22605000D01*
D10*
G04 #@! TO.C,SW1*
X8415000Y10900000D02*
X3015000Y10900000D01*
X3015000Y14500000D02*
X8415000Y14500000D01*
G04 #@! TO.C,SW2*
X8415000Y16615000D02*
X3015000Y16615000D01*
X3015000Y20215000D02*
X8415000Y20215000D01*
D11*
G04 #@! TO.C,C6*
X46214420Y33145000D02*
X46495580Y33145000D01*
X46214420Y34165000D02*
X46495580Y34165000D01*
G04 #@! TO.C,C7*
X36335580Y18540000D02*
X36054420Y18540000D01*
X36335580Y19560000D02*
X36054420Y19560000D01*
G04 #@! TO.C,U1*
X65350000Y21190000D02*
X61590000Y21190000D01*
X61590000Y21190000D02*
X61590000Y19930000D01*
X67600000Y14370000D02*
X61590000Y14370000D01*
X61590000Y14370000D02*
X61590000Y15630000D01*
G04 #@! TO.C,C1*
X68480000Y17406252D02*
X68480000Y16883748D01*
X69950000Y17406252D02*
X69950000Y16883748D01*
G04 #@! TO.C,C10*
X10614420Y13460000D02*
X10895580Y13460000D01*
X10614420Y14480000D02*
X10895580Y14480000D01*
G04 #@! TO.C,D2*
X5930000Y38635000D02*
X5930000Y40105000D01*
X5930000Y40105000D02*
X3645000Y40105000D01*
X3645000Y38635000D02*
X5930000Y38635000D01*
G04 #@! TO.C,D3*
X5930000Y38200000D02*
X3645000Y38200000D01*
X3645000Y36730000D02*
X5930000Y36730000D01*
X5930000Y36730000D02*
X5930000Y38200000D01*
G04 #@! TO.C,R2*
X65802742Y30367500D02*
X66277258Y30367500D01*
X65802742Y29322500D02*
X66277258Y29322500D01*
G04 #@! TO.C,R5*
X7382742Y39892500D02*
X7857258Y39892500D01*
X7382742Y38847500D02*
X7857258Y38847500D01*
G04 #@! TO.C,R6*
X7382742Y37987500D02*
X7857258Y37987500D01*
X7382742Y36942500D02*
X7857258Y36942500D01*
G04 #@! TO.C,C11*
X28434420Y33145000D02*
X28715580Y33145000D01*
X28434420Y34165000D02*
X28715580Y34165000D01*
G04 #@! TO.C,C13*
X28715580Y26795000D02*
X28434420Y26795000D01*
X28715580Y27815000D02*
X28434420Y27815000D01*
G04 #@! TO.C,U2*
X66040000Y28865000D02*
X66840000Y28865000D01*
X66040000Y28865000D02*
X64240000Y28865000D01*
X66040000Y25745000D02*
X65240000Y25745000D01*
X66040000Y25745000D02*
X66840000Y25745000D01*
G04 #@! TO.C,C4*
X46214420Y20445000D02*
X46495580Y20445000D01*
X46214420Y21465000D02*
X46495580Y21465000D01*
G04 #@! TO.C,C12*
X46214420Y16635000D02*
X46495580Y16635000D01*
X46214420Y17655000D02*
X46495580Y17655000D01*
G04 #@! TO.C,R3*
X11032258Y11952500D02*
X10557742Y11952500D01*
X11032258Y10907500D02*
X10557742Y10907500D01*
G04 #@! TO.C,R4*
X10557742Y17892500D02*
X11032258Y17892500D01*
X10557742Y18937500D02*
X11032258Y18937500D01*
G04 #@! TO.C,Y1*
X26925000Y32480000D02*
X26925000Y28480000D01*
X30225000Y32480000D02*
X26925000Y32480000D01*
G04 #@! TO.C,C3*
X57050000Y17406252D02*
X57050000Y16883748D01*
X58520000Y17406252D02*
X58520000Y16883748D01*
G04 #@! TO.C,U3*
X45115000Y32415000D02*
X45115000Y31465000D01*
X44165000Y32415000D02*
X45115000Y32415000D01*
X34895000Y22195000D02*
X34895000Y23145000D01*
X35845000Y32415000D02*
X34895000Y32415000D01*
X34895000Y32415000D02*
X34895000Y31465000D01*
X45115000Y22195000D02*
X45115000Y23145000D01*
X35845000Y22195000D02*
X34895000Y22195000D01*
X44165000Y22195000D02*
X45115000Y22195000D01*
X34895000Y31465000D02*
X33555000Y31465000D01*
G04 #@! TO.C,C9*
X46214420Y18540000D02*
X46495580Y18540000D01*
X46214420Y19560000D02*
X46495580Y19560000D01*
G04 #@! TO.C,FB1*
X28412221Y21080000D02*
X28737779Y21080000D01*
X28412221Y22100000D02*
X28737779Y22100000D01*
G04 #@! TO.C,R1*
X65802742Y24242500D02*
X66277258Y24242500D01*
X65802742Y25287500D02*
X66277258Y25287500D01*
G04 #@! TO.C,J3*
X65465000Y43755000D02*
X64135000Y43755000D01*
X65465000Y48955000D02*
X14545000Y48955000D01*
X14545000Y48955000D02*
X14545000Y43755000D01*
X65465000Y45085000D02*
X65465000Y43755000D01*
X62865000Y46355000D02*
X62865000Y43755000D01*
X62865000Y43755000D02*
X14545000Y43755000D01*
X65465000Y46355000D02*
X62865000Y46355000D01*
X65465000Y48955000D02*
X65465000Y46355000D01*
G04 #@! TO.C,C2*
X33795580Y33145000D02*
X33514420Y33145000D01*
X33795580Y34165000D02*
X33514420Y34165000D01*
G04 #@! TO.C,J2*
X17145000Y8255000D02*
X17145000Y10855000D01*
X14545000Y5655000D02*
X65465000Y5655000D01*
X14545000Y9525000D02*
X14545000Y10855000D01*
X17145000Y10855000D02*
X65465000Y10855000D01*
X14545000Y8255000D02*
X17145000Y8255000D01*
X14545000Y5655000D02*
X14545000Y8255000D01*
X14545000Y10855000D02*
X15875000Y10855000D01*
X65465000Y5655000D02*
X65465000Y10855000D01*
G04 #@! TO.C,C5*
X33795580Y35050000D02*
X33514420Y35050000D01*
X33795580Y36070000D02*
X33514420Y36070000D01*
G04 #@! TO.C,C8*
X28715580Y24005000D02*
X28434420Y24005000D01*
X28715580Y22985000D02*
X28434420Y22985000D01*
G04 #@! TD*
M02*
