M48
; DRILL file {KiCad 6.0.7+dfsg-1+b1} date Mon 12 Sep 2022 16:58:54 +08
; FORMAT={-:-/ absolute / metric / decimal}
; #@! TF.CreationDate,2022-09-12T16:58:54+08:00
; #@! TF.GenerationSoftware,Kicad,Pcbnew,6.0.7+dfsg-1+b1
; #@! TF.FileFunction,Plated,1,2,PTH
FMAT,2
METRIC
; #@! TA.AperFunction,Plated,PTH,ViaDrill
T1C0.350
; #@! TA.AperFunction,Plated,PTH,ComponentDrill
T2C0.600
; #@! TA.AperFunction,Plated,PTH,ComponentDrill
T3C1.000
%
G90
G05
T1
X9.525Y37.465
X10.795Y12.7
X24.765Y36.195
X27.94Y20.955
X31.75Y33.02
X34.925Y22.225
X36.449Y29.337
X37.465Y37.465
X37.465Y36.195
X38.1Y27.305
X39.37Y27.94
X39.37Y26.67
X40.005Y29.21
X40.005Y25.4
X40.64Y27.94
X40.64Y26.67
X41.91Y27.305
X43.815Y14.605
X44.45Y19.685
X45.005Y37.805
X45.064Y32.386
X45.085Y41.275
X46.99Y22.225
X46.99Y22.225
X48.895Y14.605
X49.53Y29.21
X50.165Y28.575
X50.8Y27.94
X51.435Y27.305
X52.07Y26.67
X57.15Y27.305
X60.325Y24.257
X63.5Y19.05
X63.5Y17.145
X63.5Y15.24
X64.77Y19.05
X64.77Y17.145
X64.77Y15.24
X66.04Y26.67
X66.04Y19.05
X66.04Y17.145
X66.04Y15.24
X68.58Y27.305
T3
X15.875Y47.625
X15.875Y45.085
X15.875Y9.525
X15.875Y6.985
X18.415Y47.625
X18.415Y45.085
X18.415Y9.525
X18.415Y6.985
X20.955Y47.625
X20.955Y45.085
X20.955Y9.525
X20.955Y6.985
X23.495Y47.625
X23.495Y45.085
X23.495Y9.525
X23.495Y6.985
X26.035Y47.625
X26.035Y45.085
X26.035Y9.525
X26.035Y6.985
X28.575Y47.625
X28.575Y45.085
X28.575Y9.525
X28.575Y6.985
X31.115Y47.625
X31.115Y45.085
X31.115Y9.525
X31.115Y6.985
X33.655Y47.625
X33.655Y45.085
X33.655Y9.525
X33.655Y6.985
X36.195Y47.625
X36.195Y45.085
X36.195Y9.525
X36.195Y6.985
X38.735Y47.625
X38.735Y45.085
X38.735Y9.525
X38.735Y6.985
X41.275Y47.625
X41.275Y45.085
X41.275Y9.525
X41.275Y6.985
X43.815Y47.625
X43.815Y45.085
X43.815Y9.525
X43.815Y6.985
X46.355Y47.625
X46.355Y45.085
X46.355Y9.525
X46.355Y6.985
X48.895Y47.625
X48.895Y45.085
X48.895Y9.525
X48.895Y6.985
X51.435Y47.625
X51.435Y45.085
X51.435Y9.525
X51.435Y6.985
X53.975Y47.625
X53.975Y45.085
X53.975Y9.525
X53.975Y6.985
X56.515Y47.625
X56.515Y45.085
X56.515Y9.525
X56.515Y6.985
X59.055Y47.625
X59.055Y45.085
X59.055Y9.525
X59.055Y6.985
X61.595Y47.625
X61.595Y45.085
X61.595Y9.525
X61.595Y6.985
X64.135Y47.625
X64.135Y45.085
X64.135Y9.525
X64.135Y6.985
T2
G00X70.615Y31.625
M15
G01X71.715Y31.625
M16
G05
G00X70.615Y22.985
M15
G01X71.715Y22.985
M16
G05
G00X75.045Y31.625
M15
G01X75.645Y31.625
M16
G05
G00X75.045Y22.985
M15
G01X75.645Y22.985
M16
G05
T0
M30
