M48
; DRILL file {KiCad 6.0.4+dfsg-1+b1} date Fri 06 May 2022 01:05:33 +08
; FORMAT={-:-/ absolute / inch / decimal}
; #@! TF.CreationDate,2022-05-06T01:05:33+08:00
; #@! TF.GenerationSoftware,Kicad,Pcbnew,6.0.4+dfsg-1+b1
; #@! TF.FileFunction,Plated,1,2,PTH
FMAT,2
INCH
; #@! TA.AperFunction,Plated,PTH,ViaDrill
T1C0.0138
; #@! TA.AperFunction,Plated,PTH,ComponentDrill
T2C0.0394
%
G90
G05
T1
X4.125Y-4.0
X4.925Y-3.675
X4.925Y-3.825
X4.975Y-3.725
X4.975Y-3.775
X5.025Y-3.725
X5.025Y-3.775
X5.075Y-3.675
X5.075Y-3.825
X5.25Y-3.8
X5.2528Y-3.5528
X5.3Y-3.8
X5.4Y-3.925
X6.05Y-3.85
X6.05Y-3.9
X6.05Y-3.95
X6.075Y-4.5
X6.125Y-4.45
X6.15Y-3.85
X6.15Y-3.9
X6.15Y-3.95
X6.175Y-4.4
X6.25Y-3.85
X6.25Y-3.9
X6.25Y-3.95
X6.275Y-3.35
X6.275Y-3.425
X6.275Y-3.5
X6.275Y-3.575
T2
X4.05Y-2.95
X4.05Y-3.05
X4.05Y-4.45
X4.05Y-4.55
X4.15Y-2.95
X4.15Y-3.05
X4.15Y-4.45
X4.15Y-4.55
X4.25Y-2.95
X4.25Y-3.05
X4.25Y-4.45
X4.25Y-4.55
X4.35Y-2.95
X4.35Y-3.05
X4.35Y-4.45
X4.35Y-4.55
X4.45Y-2.95
X4.45Y-3.05
X4.45Y-4.45
X4.45Y-4.55
X4.55Y-2.95
X4.55Y-3.05
X4.55Y-4.45
X4.55Y-4.55
X4.65Y-2.95
X4.65Y-3.05
X4.65Y-4.45
X4.65Y-4.55
X4.75Y-2.95
X4.75Y-3.05
X4.75Y-4.45
X4.75Y-4.55
X4.85Y-2.95
X4.85Y-3.05
X4.85Y-4.45
X4.85Y-4.55
X4.95Y-2.95
X4.95Y-3.05
X4.95Y-4.45
X4.95Y-4.55
X5.05Y-2.95
X5.05Y-3.05
X5.05Y-4.45
X5.05Y-4.55
X5.15Y-2.95
X5.15Y-3.05
X5.15Y-4.45
X5.15Y-4.55
X5.25Y-2.95
X5.25Y-3.05
X5.25Y-4.45
X5.25Y-4.55
X5.35Y-2.95
X5.35Y-3.05
X5.35Y-4.45
X5.35Y-4.55
X5.45Y-2.95
X5.45Y-3.05
X5.45Y-4.45
X5.45Y-4.55
X5.55Y-2.95
X5.55Y-3.05
X5.55Y-4.45
X5.55Y-4.55
X5.65Y-2.95
X5.65Y-3.05
X5.65Y-4.45
X5.65Y-4.55
X5.75Y-2.95
X5.75Y-3.05
X5.75Y-4.45
X5.75Y-4.55
X5.85Y-2.95
X5.85Y-3.05
X5.85Y-4.45
X5.85Y-4.55
X5.95Y-2.95
X5.95Y-3.05
X5.95Y-4.45
X5.95Y-4.55
T0
M30
