%TF.GenerationSoftware,KiCad,Pcbnew,9.0.4+dfsg-1*%
%TF.CreationDate,2025-10-04T09:30:26+08:00*%
%TF.ProjectId,stmw-mcu-stm32f407,73746d77-2d6d-4637-952d-73746d333266,a*%
%TF.SameCoordinates,Original*%
%TF.FileFunction,Soldermask,Bot*%
%TF.FilePolarity,Negative*%
%FSLAX45Y45*%
G04 Gerber Fmt 4.5, Leading zero omitted, Abs format (unit mm)*
G04 Created by KiCad (PCBNEW 9.0.4+dfsg-1) date 2025-10-04 09:30:26*
%MOMM*%
%LPD*%
G01*
G04 APERTURE LIST*
G04 Aperture macros list*
%AMFreePoly0*
4,1,23,0.500000,-0.750000,0.000000,-0.750000,0.000000,-0.745722,-0.065263,-0.745722,-0.191342,-0.711940,-0.304381,-0.646677,-0.396677,-0.554381,-0.461940,-0.441342,-0.495722,-0.315263,-0.495722,-0.250000,-0.500000,-0.250000,-0.500000,0.250000,-0.495722,0.250000,-0.495722,0.315263,-0.461940,0.441342,-0.396677,0.554381,-0.304381,0.646677,-0.191342,0.711940,-0.065263,0.745722,0.000000,0.745722,
0.000000,0.750000,0.500000,0.750000,0.500000,-0.750000,0.500000,-0.750000,$1*%
%AMFreePoly1*
4,1,23,0.000000,0.745722,0.065263,0.745722,0.191342,0.711940,0.304381,0.646677,0.396677,0.554381,0.461940,0.441342,0.495722,0.315263,0.495722,0.250000,0.500000,0.250000,0.500000,-0.250000,0.495722,-0.250000,0.495722,-0.315263,0.461940,-0.441342,0.396677,-0.554381,0.304381,-0.646677,0.191342,-0.711940,0.065263,-0.745722,0.000000,-0.745722,0.000000,-0.750000,-0.500000,-0.750000,
-0.500000,0.750000,0.000000,0.750000,0.000000,0.745722,0.000000,0.745722,$1*%
G04 Aperture macros list end*
%ADD10C,3.000000*%
%ADD11R,0.700000X4.300000*%
%ADD12C,0.650000*%
%ADD13O,2.100000X1.000000*%
%ADD14O,1.600000X1.000000*%
%ADD15FreePoly0,270.000000*%
%ADD16FreePoly1,270.000000*%
%ADD17FreePoly0,0.000000*%
%ADD18FreePoly1,0.000000*%
%ADD19FreePoly0,180.000000*%
%ADD20FreePoly1,180.000000*%
G04 APERTURE END LIST*
%TO.C,JP3*%
G36*
X12325000Y-10885000D02*
G01*
X12475000Y-10885000D01*
X12475000Y-10915000D01*
X12325000Y-10915000D01*
X12325000Y-10885000D01*
G37*
%TO.C,JP2*%
G36*
X12850000Y-9825000D02*
G01*
X12880000Y-9825000D01*
X12880000Y-9675000D01*
X12850000Y-9675000D01*
X12850000Y-9825000D01*
G37*
%TO.C,JP4*%
G36*
X12575000Y-10885000D02*
G01*
X12725000Y-10885000D01*
X12725000Y-10915000D01*
X12575000Y-10915000D01*
X12575000Y-10885000D01*
G37*
%TO.C,JP1*%
G36*
X14830000Y-8275000D02*
G01*
X14800000Y-8275000D01*
X14800000Y-8425000D01*
X14830000Y-8425000D01*
X14830000Y-8275000D01*
G37*
%TD*%
D10*
%TO.C,J1*%
X11800000Y-7250000D03*
X18200000Y-7250000D03*
D11*
X12550000Y-11750000D03*
X12650000Y-11750000D03*
X12750000Y-11750000D03*
X12850000Y-11750000D03*
X12950000Y-11750000D03*
X13050000Y-11750000D03*
X13150000Y-11750000D03*
X13250000Y-11750000D03*
X13350000Y-11750000D03*
X13450000Y-11750000D03*
X13550000Y-11750000D03*
X13850000Y-11750000D03*
X13950000Y-11750000D03*
X14050000Y-11750000D03*
X14150000Y-11750000D03*
X14250000Y-11750000D03*
X14350000Y-11750000D03*
X14450000Y-11750000D03*
X14550000Y-11750000D03*
X14650000Y-11750000D03*
X14750000Y-11750000D03*
X14850000Y-11750000D03*
X14950000Y-11750000D03*
X15050000Y-11750000D03*
X15150000Y-11750000D03*
X15250000Y-11750000D03*
X15350000Y-11750000D03*
X15450000Y-11750000D03*
X15550000Y-11750000D03*
X15650000Y-11750000D03*
X15750000Y-11750000D03*
X15850000Y-11750000D03*
X15950000Y-11750000D03*
X16050000Y-11750000D03*
X16150000Y-11750000D03*
X16250000Y-11750000D03*
X16350000Y-11750000D03*
X16450000Y-11750000D03*
X16550000Y-11750000D03*
X16650000Y-11750000D03*
X16750000Y-11750000D03*
X16850000Y-11750000D03*
X16950000Y-11750000D03*
X17050000Y-11750000D03*
X17150000Y-11750000D03*
X17250000Y-11750000D03*
X17350000Y-11750000D03*
X17450000Y-11750000D03*
X17550000Y-11750000D03*
%TD*%
D12*
%TO.C,J2*%
X17840000Y-10639000D03*
X17840000Y-10061000D03*
D13*
X17787000Y-10782000D03*
D14*
X18205000Y-10782000D03*
D13*
X17787000Y-9918000D03*
D14*
X18205000Y-9918000D03*
%TD*%
D15*
%TO.C,JP3*%
X12400000Y-10835000D03*
D16*
X12400000Y-10965000D03*
%TD*%
D17*
%TO.C,JP2*%
X12800000Y-9750000D03*
D18*
X12930000Y-9750000D03*
%TD*%
D15*
%TO.C,JP4*%
X12650000Y-10835000D03*
D16*
X12650000Y-10965000D03*
%TD*%
D19*
%TO.C,JP1*%
X14880000Y-8350000D03*
D20*
X14750000Y-8350000D03*
%TD*%
M02*
