%TF.GenerationSoftware,KiCad,Pcbnew,9.0.4+dfsg-1*%
%TF.CreationDate,2025-10-04T09:30:26+08:00*%
%TF.ProjectId,stmw-mcu-stm32f407,73746d77-2d6d-4637-952d-73746d333266,a*%
%TF.SameCoordinates,Original*%
%TF.FileFunction,Legend,Bot*%
%TF.FilePolarity,Positive*%
%FSLAX45Y45*%
G04 Gerber Fmt 4.5, Leading zero omitted, Abs format (unit mm)*
G04 Created by KiCad (PCBNEW 9.0.4+dfsg-1) date 2025-10-04 09:30:26*
%MOMM*%
%LPD*%
G01*
G04 APERTURE LIST*
%ADD10C,0.150000*%
%ADD11C,0.120000*%
G04 APERTURE END LIST*
D10*
X11706720Y-8887679D02*
X11711482Y-8897203D01*
X11711482Y-8897203D02*
X11711482Y-8916251D01*
X11711482Y-8916251D02*
X11706720Y-8925774D01*
X11706720Y-8925774D02*
X11697196Y-8930536D01*
X11697196Y-8930536D02*
X11692434Y-8930536D01*
X11692434Y-8930536D02*
X11682910Y-8925774D01*
X11682910Y-8925774D02*
X11678148Y-8916251D01*
X11678148Y-8916251D02*
X11678148Y-8901965D01*
X11678148Y-8901965D02*
X11673387Y-8892441D01*
X11673387Y-8892441D02*
X11663863Y-8887679D01*
X11663863Y-8887679D02*
X11659101Y-8887679D01*
X11659101Y-8887679D02*
X11649577Y-8892441D01*
X11649577Y-8892441D02*
X11644815Y-8901965D01*
X11644815Y-8901965D02*
X11644815Y-8916251D01*
X11644815Y-8916251D02*
X11649577Y-8925774D01*
X11644815Y-8959108D02*
X11644815Y-8997203D01*
X11611482Y-8973393D02*
X11697196Y-8973393D01*
X11697196Y-8973393D02*
X11706720Y-8978155D01*
X11706720Y-8978155D02*
X11711482Y-8987679D01*
X11711482Y-8987679D02*
X11711482Y-8997203D01*
X11711482Y-9030536D02*
X11644815Y-9030536D01*
X11654339Y-9030536D02*
X11649577Y-9035298D01*
X11649577Y-9035298D02*
X11644815Y-9044822D01*
X11644815Y-9044822D02*
X11644815Y-9059108D01*
X11644815Y-9059108D02*
X11649577Y-9068632D01*
X11649577Y-9068632D02*
X11659101Y-9073393D01*
X11659101Y-9073393D02*
X11711482Y-9073393D01*
X11659101Y-9073393D02*
X11649577Y-9078155D01*
X11649577Y-9078155D02*
X11644815Y-9087679D01*
X11644815Y-9087679D02*
X11644815Y-9101965D01*
X11644815Y-9101965D02*
X11649577Y-9111489D01*
X11649577Y-9111489D02*
X11659101Y-9116251D01*
X11659101Y-9116251D02*
X11711482Y-9116251D01*
X11644815Y-9154346D02*
X11711482Y-9173393D01*
X11711482Y-9173393D02*
X11663863Y-9192441D01*
X11663863Y-9192441D02*
X11711482Y-9211489D01*
X11711482Y-9211489D02*
X11644815Y-9230536D01*
X11673387Y-9268632D02*
X11673387Y-9344822D01*
X11711482Y-9392441D02*
X11644815Y-9392441D01*
X11654339Y-9392441D02*
X11649577Y-9397203D01*
X11649577Y-9397203D02*
X11644815Y-9406727D01*
X11644815Y-9406727D02*
X11644815Y-9421012D01*
X11644815Y-9421012D02*
X11649577Y-9430536D01*
X11649577Y-9430536D02*
X11659101Y-9435298D01*
X11659101Y-9435298D02*
X11711482Y-9435298D01*
X11659101Y-9435298D02*
X11649577Y-9440060D01*
X11649577Y-9440060D02*
X11644815Y-9449584D01*
X11644815Y-9449584D02*
X11644815Y-9463870D01*
X11644815Y-9463870D02*
X11649577Y-9473393D01*
X11649577Y-9473393D02*
X11659101Y-9478155D01*
X11659101Y-9478155D02*
X11711482Y-9478155D01*
X11706720Y-9568631D02*
X11711482Y-9559108D01*
X11711482Y-9559108D02*
X11711482Y-9540060D01*
X11711482Y-9540060D02*
X11706720Y-9530536D01*
X11706720Y-9530536D02*
X11701958Y-9525774D01*
X11701958Y-9525774D02*
X11692434Y-9521012D01*
X11692434Y-9521012D02*
X11663863Y-9521012D01*
X11663863Y-9521012D02*
X11654339Y-9525774D01*
X11654339Y-9525774D02*
X11649577Y-9530536D01*
X11649577Y-9530536D02*
X11644815Y-9540060D01*
X11644815Y-9540060D02*
X11644815Y-9559108D01*
X11644815Y-9559108D02*
X11649577Y-9568631D01*
X11644815Y-9654346D02*
X11711482Y-9654346D01*
X11644815Y-9611489D02*
X11697196Y-9611489D01*
X11697196Y-9611489D02*
X11706720Y-9616251D01*
X11706720Y-9616251D02*
X11711482Y-9625774D01*
X11711482Y-9625774D02*
X11711482Y-9640060D01*
X11711482Y-9640060D02*
X11706720Y-9649584D01*
X11706720Y-9649584D02*
X11701958Y-9654346D01*
X11673387Y-9701965D02*
X11673387Y-9778155D01*
X11706720Y-9821012D02*
X11711482Y-9830536D01*
X11711482Y-9830536D02*
X11711482Y-9849584D01*
X11711482Y-9849584D02*
X11706720Y-9859108D01*
X11706720Y-9859108D02*
X11697196Y-9863870D01*
X11697196Y-9863870D02*
X11692434Y-9863870D01*
X11692434Y-9863870D02*
X11682910Y-9859108D01*
X11682910Y-9859108D02*
X11678148Y-9849584D01*
X11678148Y-9849584D02*
X11678148Y-9835298D01*
X11678148Y-9835298D02*
X11673387Y-9825774D01*
X11673387Y-9825774D02*
X11663863Y-9821012D01*
X11663863Y-9821012D02*
X11659101Y-9821012D01*
X11659101Y-9821012D02*
X11649577Y-9825774D01*
X11649577Y-9825774D02*
X11644815Y-9835298D01*
X11644815Y-9835298D02*
X11644815Y-9849584D01*
X11644815Y-9849584D02*
X11649577Y-9859108D01*
X11644815Y-9892441D02*
X11644815Y-9930536D01*
X11611482Y-9906727D02*
X11697196Y-9906727D01*
X11697196Y-9906727D02*
X11706720Y-9911489D01*
X11706720Y-9911489D02*
X11711482Y-9921012D01*
X11711482Y-9921012D02*
X11711482Y-9930536D01*
X11711482Y-9963870D02*
X11644815Y-9963870D01*
X11654339Y-9963870D02*
X11649577Y-9968632D01*
X11649577Y-9968632D02*
X11644815Y-9978155D01*
X11644815Y-9978155D02*
X11644815Y-9992441D01*
X11644815Y-9992441D02*
X11649577Y-10001965D01*
X11649577Y-10001965D02*
X11659101Y-10006727D01*
X11659101Y-10006727D02*
X11711482Y-10006727D01*
X11659101Y-10006727D02*
X11649577Y-10011489D01*
X11649577Y-10011489D02*
X11644815Y-10021012D01*
X11644815Y-10021012D02*
X11644815Y-10035298D01*
X11644815Y-10035298D02*
X11649577Y-10044822D01*
X11649577Y-10044822D02*
X11659101Y-10049584D01*
X11659101Y-10049584D02*
X11711482Y-10049584D01*
X11611482Y-10087679D02*
X11611482Y-10149584D01*
X11611482Y-10149584D02*
X11649577Y-10116251D01*
X11649577Y-10116251D02*
X11649577Y-10130536D01*
X11649577Y-10130536D02*
X11654339Y-10140060D01*
X11654339Y-10140060D02*
X11659101Y-10144822D01*
X11659101Y-10144822D02*
X11668625Y-10149584D01*
X11668625Y-10149584D02*
X11692434Y-10149584D01*
X11692434Y-10149584D02*
X11701958Y-10144822D01*
X11701958Y-10144822D02*
X11706720Y-10140060D01*
X11706720Y-10140060D02*
X11711482Y-10130536D01*
X11711482Y-10130536D02*
X11711482Y-10101965D01*
X11711482Y-10101965D02*
X11706720Y-10092441D01*
X11706720Y-10092441D02*
X11701958Y-10087679D01*
X11621006Y-10187679D02*
X11616244Y-10192441D01*
X11616244Y-10192441D02*
X11611482Y-10201965D01*
X11611482Y-10201965D02*
X11611482Y-10225774D01*
X11611482Y-10225774D02*
X11616244Y-10235298D01*
X11616244Y-10235298D02*
X11621006Y-10240060D01*
X11621006Y-10240060D02*
X11630529Y-10244822D01*
X11630529Y-10244822D02*
X11640053Y-10244822D01*
X11640053Y-10244822D02*
X11654339Y-10240060D01*
X11654339Y-10240060D02*
X11711482Y-10182917D01*
X11711482Y-10182917D02*
X11711482Y-10244822D01*
X11644815Y-10273393D02*
X11644815Y-10311489D01*
X11711482Y-10287679D02*
X11625768Y-10287679D01*
X11625768Y-10287679D02*
X11616244Y-10292441D01*
X11616244Y-10292441D02*
X11611482Y-10301965D01*
X11611482Y-10301965D02*
X11611482Y-10311489D01*
X11644815Y-10387679D02*
X11711482Y-10387679D01*
X11606720Y-10363870D02*
X11678148Y-10340060D01*
X11678148Y-10340060D02*
X11678148Y-10401965D01*
X11611482Y-10459108D02*
X11611482Y-10468632D01*
X11611482Y-10468632D02*
X11616244Y-10478155D01*
X11616244Y-10478155D02*
X11621006Y-10482917D01*
X11621006Y-10482917D02*
X11630529Y-10487679D01*
X11630529Y-10487679D02*
X11649577Y-10492441D01*
X11649577Y-10492441D02*
X11673387Y-10492441D01*
X11673387Y-10492441D02*
X11692434Y-10487679D01*
X11692434Y-10487679D02*
X11701958Y-10482917D01*
X11701958Y-10482917D02*
X11706720Y-10478155D01*
X11706720Y-10478155D02*
X11711482Y-10468632D01*
X11711482Y-10468632D02*
X11711482Y-10459108D01*
X11711482Y-10459108D02*
X11706720Y-10449584D01*
X11706720Y-10449584D02*
X11701958Y-10444822D01*
X11701958Y-10444822D02*
X11692434Y-10440060D01*
X11692434Y-10440060D02*
X11673387Y-10435298D01*
X11673387Y-10435298D02*
X11649577Y-10435298D01*
X11649577Y-10435298D02*
X11630529Y-10440060D01*
X11630529Y-10440060D02*
X11621006Y-10444822D01*
X11621006Y-10444822D02*
X11616244Y-10449584D01*
X11616244Y-10449584D02*
X11611482Y-10459108D01*
X11611482Y-10525774D02*
X11611482Y-10592441D01*
X11611482Y-10592441D02*
X11711482Y-10549584D01*
X11706720Y-10635298D02*
X11711482Y-10635298D01*
X11711482Y-10635298D02*
X11721006Y-10630536D01*
X11721006Y-10630536D02*
X11725768Y-10625774D01*
X11711482Y-10754346D02*
X11644815Y-10754346D01*
X11663863Y-10754346D02*
X11654339Y-10759108D01*
X11654339Y-10759108D02*
X11649577Y-10763870D01*
X11649577Y-10763870D02*
X11644815Y-10773393D01*
X11644815Y-10773393D02*
X11644815Y-10782917D01*
X11706720Y-10854346D02*
X11711482Y-10844822D01*
X11711482Y-10844822D02*
X11711482Y-10825774D01*
X11711482Y-10825774D02*
X11706720Y-10816251D01*
X11706720Y-10816251D02*
X11697196Y-10811489D01*
X11697196Y-10811489D02*
X11659101Y-10811489D01*
X11659101Y-10811489D02*
X11649577Y-10816251D01*
X11649577Y-10816251D02*
X11644815Y-10825774D01*
X11644815Y-10825774D02*
X11644815Y-10844822D01*
X11644815Y-10844822D02*
X11649577Y-10854346D01*
X11649577Y-10854346D02*
X11659101Y-10859108D01*
X11659101Y-10859108D02*
X11668625Y-10859108D01*
X11668625Y-10859108D02*
X11678148Y-10811489D01*
X11644815Y-10892441D02*
X11711482Y-10916251D01*
X11711482Y-10916251D02*
X11644815Y-10940060D01*
X11701958Y-10978155D02*
X11706720Y-10982917D01*
X11706720Y-10982917D02*
X11711482Y-10978155D01*
X11711482Y-10978155D02*
X11706720Y-10973394D01*
X11706720Y-10973394D02*
X11701958Y-10978155D01*
X11701958Y-10978155D02*
X11711482Y-10978155D01*
X11711482Y-11144822D02*
X11659101Y-11144822D01*
X11659101Y-11144822D02*
X11649577Y-11140060D01*
X11649577Y-11140060D02*
X11644815Y-11130536D01*
X11644815Y-11130536D02*
X11644815Y-11111489D01*
X11644815Y-11111489D02*
X11649577Y-11101965D01*
X11706720Y-11144822D02*
X11711482Y-11135298D01*
X11711482Y-11135298D02*
X11711482Y-11111489D01*
X11711482Y-11111489D02*
X11706720Y-11101965D01*
X11706720Y-11101965D02*
X11697196Y-11097203D01*
X11697196Y-11097203D02*
X11687672Y-11097203D01*
X11687672Y-11097203D02*
X11678148Y-11101965D01*
X11678148Y-11101965D02*
X11673387Y-11111489D01*
X11673387Y-11111489D02*
X11673387Y-11135298D01*
X11673387Y-11135298D02*
X11668625Y-11144822D01*
X18309430Y-10359179D02*
X18366572Y-10359179D01*
X18366572Y-10359179D02*
X18378001Y-10355370D01*
X18378001Y-10355370D02*
X18385620Y-10347751D01*
X18385620Y-10347751D02*
X18389430Y-10336322D01*
X18389430Y-10336322D02*
X18389430Y-10328703D01*
X18389430Y-10435370D02*
X18389430Y-10397274D01*
X18389430Y-10397274D02*
X18309430Y-10397274D01*
X18381810Y-10507751D02*
X18385620Y-10503941D01*
X18385620Y-10503941D02*
X18389430Y-10492513D01*
X18389430Y-10492513D02*
X18389430Y-10484893D01*
X18389430Y-10484893D02*
X18385620Y-10473465D01*
X18385620Y-10473465D02*
X18378001Y-10465846D01*
X18378001Y-10465846D02*
X18370382Y-10462036D01*
X18370382Y-10462036D02*
X18355144Y-10458227D01*
X18355144Y-10458227D02*
X18343715Y-10458227D01*
X18343715Y-10458227D02*
X18328477Y-10462036D01*
X18328477Y-10462036D02*
X18320858Y-10465846D01*
X18320858Y-10465846D02*
X18313239Y-10473465D01*
X18313239Y-10473465D02*
X18309430Y-10484893D01*
X18309430Y-10484893D02*
X18309430Y-10492513D01*
X18309430Y-10492513D02*
X18313239Y-10503941D01*
X18313239Y-10503941D02*
X18317049Y-10507751D01*
X18309430Y-10564893D02*
X18366572Y-10564893D01*
X18366572Y-10564893D02*
X18378001Y-10561084D01*
X18378001Y-10561084D02*
X18385620Y-10553465D01*
X18385620Y-10553465D02*
X18389430Y-10542036D01*
X18389430Y-10542036D02*
X18389430Y-10534417D01*
X18389430Y-10641084D02*
X18389430Y-10602989D01*
X18389430Y-10602989D02*
X18309430Y-10602989D01*
X18381810Y-10713465D02*
X18385620Y-10709655D01*
X18385620Y-10709655D02*
X18389430Y-10698227D01*
X18389430Y-10698227D02*
X18389430Y-10690608D01*
X18389430Y-10690608D02*
X18385620Y-10679179D01*
X18385620Y-10679179D02*
X18378001Y-10671560D01*
X18378001Y-10671560D02*
X18370382Y-10667751D01*
X18370382Y-10667751D02*
X18355144Y-10663941D01*
X18355144Y-10663941D02*
X18343715Y-10663941D01*
X18343715Y-10663941D02*
X18328477Y-10667751D01*
X18328477Y-10667751D02*
X18320858Y-10671560D01*
X18320858Y-10671560D02*
X18313239Y-10679179D01*
X18313239Y-10679179D02*
X18309430Y-10690608D01*
X18309430Y-10690608D02*
X18309430Y-10698227D01*
X18309430Y-10698227D02*
X18313239Y-10709655D01*
X18313239Y-10709655D02*
X18317049Y-10713465D01*
X18309430Y-10770608D02*
X18366572Y-10770608D01*
X18366572Y-10770608D02*
X18378001Y-10766798D01*
X18378001Y-10766798D02*
X18385620Y-10759179D01*
X18385620Y-10759179D02*
X18389430Y-10747751D01*
X18389430Y-10747751D02*
X18389430Y-10740132D01*
X18389430Y-10846798D02*
X18389430Y-10808703D01*
X18389430Y-10808703D02*
X18309430Y-10808703D01*
X18381810Y-10919179D02*
X18385620Y-10915370D01*
X18385620Y-10915370D02*
X18389430Y-10903941D01*
X18389430Y-10903941D02*
X18389430Y-10896322D01*
X18389430Y-10896322D02*
X18385620Y-10884893D01*
X18385620Y-10884893D02*
X18378001Y-10877274D01*
X18378001Y-10877274D02*
X18370382Y-10873465D01*
X18370382Y-10873465D02*
X18355144Y-10869655D01*
X18355144Y-10869655D02*
X18343715Y-10869655D01*
X18343715Y-10869655D02*
X18328477Y-10873465D01*
X18328477Y-10873465D02*
X18320858Y-10877274D01*
X18320858Y-10877274D02*
X18313239Y-10884893D01*
X18313239Y-10884893D02*
X18309430Y-10896322D01*
X18309430Y-10896322D02*
X18309430Y-10903941D01*
X18309430Y-10903941D02*
X18313239Y-10915370D01*
X18313239Y-10915370D02*
X18317049Y-10919179D01*
X18309430Y-10976322D02*
X18366572Y-10976322D01*
X18366572Y-10976322D02*
X18378001Y-10972513D01*
X18378001Y-10972513D02*
X18385620Y-10964893D01*
X18385620Y-10964893D02*
X18389430Y-10953465D01*
X18389430Y-10953465D02*
X18389430Y-10945846D01*
X18389430Y-11052513D02*
X18389430Y-11014417D01*
X18389430Y-11014417D02*
X18309430Y-11014417D01*
X18381810Y-11124894D02*
X18385620Y-11121084D01*
X18385620Y-11121084D02*
X18389430Y-11109655D01*
X18389430Y-11109655D02*
X18389430Y-11102036D01*
X18389430Y-11102036D02*
X18385620Y-11090608D01*
X18385620Y-11090608D02*
X18378001Y-11082989D01*
X18378001Y-11082989D02*
X18370382Y-11079179D01*
X18370382Y-11079179D02*
X18355144Y-11075370D01*
X18355144Y-11075370D02*
X18343715Y-11075370D01*
X18343715Y-11075370D02*
X18328477Y-11079179D01*
X18328477Y-11079179D02*
X18320858Y-11082989D01*
X18320858Y-11082989D02*
X18313239Y-11090608D01*
X18313239Y-11090608D02*
X18309430Y-11102036D01*
X18309430Y-11102036D02*
X18309430Y-11109655D01*
X18309430Y-11109655D02*
X18313239Y-11121084D01*
X18313239Y-11121084D02*
X18317049Y-11124894D01*
X12345482Y-10516667D02*
X12416910Y-10516667D01*
X12416910Y-10516667D02*
X12431196Y-10511905D01*
X12431196Y-10511905D02*
X12440720Y-10502381D01*
X12440720Y-10502381D02*
X12445482Y-10488095D01*
X12445482Y-10488095D02*
X12445482Y-10478571D01*
X12445482Y-10564286D02*
X12345482Y-10564286D01*
X12345482Y-10564286D02*
X12345482Y-10602381D01*
X12345482Y-10602381D02*
X12350244Y-10611905D01*
X12350244Y-10611905D02*
X12355006Y-10616667D01*
X12355006Y-10616667D02*
X12364529Y-10621429D01*
X12364529Y-10621429D02*
X12378815Y-10621429D01*
X12378815Y-10621429D02*
X12388339Y-10616667D01*
X12388339Y-10616667D02*
X12393101Y-10611905D01*
X12393101Y-10611905D02*
X12397863Y-10602381D01*
X12397863Y-10602381D02*
X12397863Y-10564286D01*
X12345482Y-10654762D02*
X12345482Y-10716667D01*
X12345482Y-10716667D02*
X12383577Y-10683333D01*
X12383577Y-10683333D02*
X12383577Y-10697619D01*
X12383577Y-10697619D02*
X12388339Y-10707143D01*
X12388339Y-10707143D02*
X12393101Y-10711905D01*
X12393101Y-10711905D02*
X12402625Y-10716667D01*
X12402625Y-10716667D02*
X12426434Y-10716667D01*
X12426434Y-10716667D02*
X12435958Y-10711905D01*
X12435958Y-10711905D02*
X12440720Y-10707143D01*
X12440720Y-10707143D02*
X12445482Y-10697619D01*
X12445482Y-10697619D02*
X12445482Y-10669048D01*
X12445482Y-10669048D02*
X12440720Y-10659524D01*
X12440720Y-10659524D02*
X12435958Y-10654762D01*
X12948333Y-9875482D02*
X12948333Y-9946910D01*
X12948333Y-9946910D02*
X12953095Y-9961196D01*
X12953095Y-9961196D02*
X12962619Y-9970720D01*
X12962619Y-9970720D02*
X12976905Y-9975482D01*
X12976905Y-9975482D02*
X12986428Y-9975482D01*
X12900714Y-9975482D02*
X12900714Y-9875482D01*
X12900714Y-9875482D02*
X12862619Y-9875482D01*
X12862619Y-9875482D02*
X12853095Y-9880244D01*
X12853095Y-9880244D02*
X12848333Y-9885006D01*
X12848333Y-9885006D02*
X12843571Y-9894530D01*
X12843571Y-9894530D02*
X12843571Y-9908815D01*
X12843571Y-9908815D02*
X12848333Y-9918339D01*
X12848333Y-9918339D02*
X12853095Y-9923101D01*
X12853095Y-9923101D02*
X12862619Y-9927863D01*
X12862619Y-9927863D02*
X12900714Y-9927863D01*
X12805476Y-9885006D02*
X12800714Y-9880244D01*
X12800714Y-9880244D02*
X12791190Y-9875482D01*
X12791190Y-9875482D02*
X12767381Y-9875482D01*
X12767381Y-9875482D02*
X12757857Y-9880244D01*
X12757857Y-9880244D02*
X12753095Y-9885006D01*
X12753095Y-9885006D02*
X12748333Y-9894530D01*
X12748333Y-9894530D02*
X12748333Y-9904053D01*
X12748333Y-9904053D02*
X12753095Y-9918339D01*
X12753095Y-9918339D02*
X12810238Y-9975482D01*
X12810238Y-9975482D02*
X12748333Y-9975482D01*
X12595482Y-10516667D02*
X12666910Y-10516667D01*
X12666910Y-10516667D02*
X12681196Y-10511905D01*
X12681196Y-10511905D02*
X12690720Y-10502381D01*
X12690720Y-10502381D02*
X12695482Y-10488095D01*
X12695482Y-10488095D02*
X12695482Y-10478571D01*
X12695482Y-10564286D02*
X12595482Y-10564286D01*
X12595482Y-10564286D02*
X12595482Y-10602381D01*
X12595482Y-10602381D02*
X12600244Y-10611905D01*
X12600244Y-10611905D02*
X12605006Y-10616667D01*
X12605006Y-10616667D02*
X12614529Y-10621429D01*
X12614529Y-10621429D02*
X12628815Y-10621429D01*
X12628815Y-10621429D02*
X12638339Y-10616667D01*
X12638339Y-10616667D02*
X12643101Y-10611905D01*
X12643101Y-10611905D02*
X12647863Y-10602381D01*
X12647863Y-10602381D02*
X12647863Y-10564286D01*
X12628815Y-10707143D02*
X12695482Y-10707143D01*
X12590720Y-10683333D02*
X12662148Y-10659524D01*
X12662148Y-10659524D02*
X12662148Y-10721429D01*
X14898333Y-8115482D02*
X14898333Y-8186910D01*
X14898333Y-8186910D02*
X14903095Y-8201196D01*
X14903095Y-8201196D02*
X14912619Y-8210720D01*
X14912619Y-8210720D02*
X14926905Y-8215482D01*
X14926905Y-8215482D02*
X14936428Y-8215482D01*
X14850714Y-8215482D02*
X14850714Y-8115482D01*
X14850714Y-8115482D02*
X14812619Y-8115482D01*
X14812619Y-8115482D02*
X14803095Y-8120244D01*
X14803095Y-8120244D02*
X14798333Y-8125006D01*
X14798333Y-8125006D02*
X14793571Y-8134529D01*
X14793571Y-8134529D02*
X14793571Y-8148815D01*
X14793571Y-8148815D02*
X14798333Y-8158339D01*
X14798333Y-8158339D02*
X14803095Y-8163101D01*
X14803095Y-8163101D02*
X14812619Y-8167863D01*
X14812619Y-8167863D02*
X14850714Y-8167863D01*
X14698333Y-8215482D02*
X14755476Y-8215482D01*
X14726905Y-8215482D02*
X14726905Y-8115482D01*
X14726905Y-8115482D02*
X14736428Y-8129768D01*
X14736428Y-8129768D02*
X14745952Y-8139291D01*
X14745952Y-8139291D02*
X14755476Y-8144053D01*
D11*
%TO.C,JP3*%
X12300000Y-10830000D02*
X12300000Y-10970000D01*
X12370000Y-11040000D02*
X12430000Y-11040000D01*
X12430000Y-10760000D02*
X12370000Y-10760000D01*
X12500000Y-10970000D02*
X12500000Y-10830000D01*
X12300000Y-10830000D02*
G75*
G02*
X12370000Y-10760000I70000J0D01*
G01*
X12370000Y-11040000D02*
G75*
G02*
X12300000Y-10970000I0J70000D01*
G01*
X12430000Y-10760000D02*
G75*
G02*
X12500000Y-10830000I0J-70000D01*
G01*
X12500000Y-10970000D02*
G75*
G02*
X12430000Y-11040000I-70000J0D01*
G01*
%TO.C,JP2*%
X12725000Y-9720000D02*
X12725000Y-9780000D01*
X12795000Y-9850000D02*
X12935000Y-9850000D01*
X12935000Y-9650000D02*
X12795000Y-9650000D01*
X13005000Y-9780000D02*
X13005000Y-9720000D01*
X12725000Y-9720000D02*
G75*
G02*
X12795000Y-9650000I70000J0D01*
G01*
X12795000Y-9850000D02*
G75*
G02*
X12725000Y-9780000I0J70000D01*
G01*
X12935000Y-9650000D02*
G75*
G02*
X13005000Y-9720000I0J-70000D01*
G01*
X13005000Y-9780000D02*
G75*
G02*
X12935000Y-9850000I-70000J0D01*
G01*
%TO.C,JP4*%
X12550000Y-10830000D02*
X12550000Y-10970000D01*
X12620000Y-11040000D02*
X12680000Y-11040000D01*
X12680000Y-10760000D02*
X12620000Y-10760000D01*
X12750000Y-10970000D02*
X12750000Y-10830000D01*
X12550000Y-10830000D02*
G75*
G02*
X12620000Y-10760000I70000J0D01*
G01*
X12620000Y-11040000D02*
G75*
G02*
X12550000Y-10970000I0J70000D01*
G01*
X12680000Y-10760000D02*
G75*
G02*
X12750000Y-10830000I0J-70000D01*
G01*
X12750000Y-10970000D02*
G75*
G02*
X12680000Y-11040000I-70000J0D01*
G01*
%TO.C,JP1*%
X14675000Y-8320000D02*
X14675000Y-8380000D01*
X14745000Y-8450000D02*
X14885000Y-8450000D01*
X14885000Y-8250000D02*
X14745000Y-8250000D01*
X14955000Y-8380000D02*
X14955000Y-8320000D01*
X14675000Y-8320000D02*
G75*
G02*
X14745000Y-8250000I70000J0D01*
G01*
X14745000Y-8450000D02*
G75*
G02*
X14675000Y-8380000I0J70000D01*
G01*
X14885000Y-8250000D02*
G75*
G02*
X14955000Y-8320000I0J-70000D01*
G01*
X14955000Y-8380000D02*
G75*
G02*
X14885000Y-8450000I-70000J0D01*
G01*
%TD*%
M02*
