%TF.GenerationSoftware,KiCad,Pcbnew,9.0.4+dfsg-1*%
%TF.CreationDate,2025-10-04T09:30:26+08:00*%
%TF.ProjectId,stmw-mcu-stm32f407,73746d77-2d6d-4637-952d-73746d333266,a*%
%TF.SameCoordinates,Original*%
%TF.FileFunction,Copper,L2,Inr*%
%TF.FilePolarity,Positive*%
%FSLAX45Y45*%
G04 Gerber Fmt 4.5, Leading zero omitted, Abs format (unit mm)*
G04 Created by KiCad (PCBNEW 9.0.4+dfsg-1) date 2025-10-04 09:30:26*
%MOMM*%
%LPD*%
G01*
G04 APERTURE LIST*
%TA.AperFunction,ComponentPad*%
%ADD10O,2.100000X1.000000*%
%TD*%
%TA.AperFunction,ComponentPad*%
%ADD11O,1.600000X1.000000*%
%TD*%
%TA.AperFunction,ViaPad*%
%ADD12C,0.600000*%
%TD*%
G04 APERTURE END LIST*
D10*
%TO.N,GND*%
%TO.C,J2*%
X17787000Y-10782000D03*
D11*
X18205000Y-10782000D03*
D10*
X17787000Y-9918000D03*
D11*
X18205000Y-9918000D03*
%TD*%
D12*
%TO.N,PA14*%
X16200000Y-9600000D03*
%TO.N,PA2*%
X13800000Y-9800000D03*
%TO.N,PA1*%
X13800000Y-9700000D03*
%TO.N,PA0*%
X13800000Y-9600000D03*
%TO.N,PC0*%
X14500000Y-9550000D03*
%TO.N,PA13*%
X16510000Y-10287000D03*
%TO.N,+5V*%
X17450000Y-11200000D03*
%TO.N,GND*%
X11650000Y-8450000D03*
X18250000Y-9450000D03*
X12700000Y-8050000D03*
X11650000Y-8600000D03*
X15350000Y-11400000D03*
X17145000Y-11049000D03*
X14250000Y-10050000D03*
X11900000Y-8550000D03*
X12100000Y-7900000D03*
X18400000Y-11100000D03*
X17900000Y-10250000D03*
X14950000Y-10950000D03*
X13500000Y-10350000D03*
X16300000Y-10500000D03*
X17200000Y-10350000D03*
X16510000Y-10541000D03*
X17900000Y-10400000D03*
X14100000Y-9150000D03*
X17550000Y-11450000D03*
X17550000Y-11300000D03*
X18250000Y-9300000D03*
X11650000Y-8300000D03*
%TO.N,VBAT*%
X14750000Y-8500000D03*
%TO.N,+3V3*%
X12400000Y-8850000D03*
X14900000Y-8500000D03*
X17250000Y-7871250D03*
X12675000Y-9750000D03*
X17750000Y-9050000D03*
X17500000Y-8550000D03*
X17750000Y-8900000D03*
X12850000Y-9200000D03*
X16050000Y-9950000D03*
X17350000Y-11200000D03*
X17750000Y-9200000D03*
X12850000Y-7875000D03*
%TO.N,NRST*%
X12300000Y-8450000D03*
%TO.N,PA11*%
X16383000Y-10414000D03*
%TO.N,PA12*%
X16446500Y-10350500D03*
%TO.N,VDDA*%
X13100000Y-9750000D03*
%TO.N,PC15*%
X14414500Y-9080500D03*
%TO.N,BO0*%
X13784533Y-8282500D03*
X12700000Y-8200000D03*
X15494000Y-8763000D03*
%TO.N,HBO0*%
X12650000Y-11100000D03*
%TO.N,PC13*%
X14300000Y-8800000D03*
%TO.N,PA15*%
X16200000Y-9500000D03*
%TO.N,PC2*%
X14400000Y-9750000D03*
%TO.N,PE6*%
X14541500Y-8890000D03*
%TO.N,PC1*%
X14450000Y-9650000D03*
%TO.N,PC11*%
X16200000Y-9300000D03*
%TO.N,PD0*%
X15950000Y-9400000D03*
%TO.N,PE2*%
X14850000Y-8700000D03*
%TO.N,PB4*%
X15684500Y-9144000D03*
%TO.N,PB7*%
X15557500Y-8890000D03*
%TO.N,PC3*%
X14200000Y-9350000D03*
%TO.N,PB3*%
X15748000Y-9207500D03*
%TO.N,PC10*%
X16200000Y-9400000D03*
%TO.N,PE3*%
X14750000Y-8700000D03*
%TO.N,PD4*%
X15525750Y-9842500D03*
%TO.N,PE1*%
X15240000Y-8699500D03*
%TO.N,PB9*%
X15367000Y-8826500D03*
%TO.N,PB6*%
X15557500Y-9017000D03*
%TO.N,PD5*%
X15450000Y-9750000D03*
%TO.N,PD7*%
X15811500Y-9271000D03*
%TO.N,PB8*%
X15430500Y-8890000D03*
%TO.N,PC14*%
X14350000Y-8950000D03*
%TO.N,PD6*%
X15398750Y-9842500D03*
%TO.N,PB5*%
X15621000Y-9080500D03*
%TO.N,PE5*%
X14605000Y-8826500D03*
%TO.N,PC12*%
X15950000Y-9500000D03*
%TO.N,PD2*%
X15950000Y-9200000D03*
%TO.N,PD1*%
X15950000Y-9300000D03*
%TO.N,PE4*%
X14668500Y-8763000D03*
%TO.N,PD3*%
X15600000Y-9750000D03*
%TO.N,PE0*%
X15303500Y-8763000D03*
%TD*%
%TA.AperFunction,Conductor*%
%TO.N,+3V3*%
G36*
X18450406Y-6957723D02*
G01*
X18460140Y-6959005D01*
X18461715Y-6959427D01*
X18470405Y-6963026D01*
X18471818Y-6963842D01*
X18479279Y-6969567D01*
X18480433Y-6970721D01*
X18486158Y-6978182D01*
X18486974Y-6979595D01*
X18490573Y-6988284D01*
X18490995Y-6989860D01*
X18492277Y-6999593D01*
X18492330Y-7000409D01*
X18492330Y-11199590D01*
X18492277Y-11200406D01*
X18490995Y-11210140D01*
X18490573Y-11211716D01*
X18486974Y-11220405D01*
X18486158Y-11221818D01*
X18480433Y-11229279D01*
X18479279Y-11230433D01*
X18471818Y-11236158D01*
X18470405Y-11236974D01*
X18461716Y-11240573D01*
X18460140Y-11240995D01*
X18450406Y-11242276D01*
X18449591Y-11242330D01*
X17613474Y-11242330D01*
X17610655Y-11243497D01*
X17610655Y-11243498D01*
X17608498Y-11245655D01*
X17608498Y-11245655D01*
X17607330Y-11248474D01*
X17607330Y-12039234D01*
X17605499Y-12043653D01*
X17563654Y-12085499D01*
X17559234Y-12087330D01*
X13850766Y-12087330D01*
X13846346Y-12085499D01*
X13804501Y-12043653D01*
X13802670Y-12039234D01*
X13802670Y-11444372D01*
X17507250Y-11444372D01*
X17507250Y-11455628D01*
X17507250Y-11455629D01*
X17510163Y-11466501D01*
X17510163Y-11466501D01*
X17515791Y-11476249D01*
X17515792Y-11476250D01*
X17523750Y-11484208D01*
X17523751Y-11484208D01*
X17533499Y-11489837D01*
X17533499Y-11489837D01*
X17544372Y-11492750D01*
X17544372Y-11492750D01*
X17555628Y-11492750D01*
X17555628Y-11492750D01*
X17566501Y-11489837D01*
X17576249Y-11484208D01*
X17584209Y-11476249D01*
X17589837Y-11466501D01*
X17592750Y-11455628D01*
X17592750Y-11444372D01*
X17589837Y-11433499D01*
X17589837Y-11433499D01*
X17584209Y-11423751D01*
X17584208Y-11423750D01*
X17576250Y-11415792D01*
X17576249Y-11415791D01*
X17566501Y-11410163D01*
X17566501Y-11410163D01*
X17555629Y-11407250D01*
X17555628Y-11407250D01*
X17555628Y-11407250D01*
X17544372Y-11407250D01*
X17544372Y-11407250D01*
X17544371Y-11407250D01*
X17533499Y-11410163D01*
X17533499Y-11410163D01*
X17523751Y-11415791D01*
X17523750Y-11415792D01*
X17515792Y-11423750D01*
X17515791Y-11423751D01*
X17510163Y-11433499D01*
X17510163Y-11433499D01*
X17507250Y-11444371D01*
X17507250Y-11444372D01*
X13802670Y-11444372D01*
X13802670Y-11394372D01*
X15307250Y-11394372D01*
X15307250Y-11405628D01*
X15307250Y-11405629D01*
X15310163Y-11416501D01*
X15310163Y-11416501D01*
X15315791Y-11426249D01*
X15315792Y-11426250D01*
X15323750Y-11434208D01*
X15323751Y-11434208D01*
X15333499Y-11439837D01*
X15333499Y-11439837D01*
X15344372Y-11442750D01*
X15344372Y-11442750D01*
X15355628Y-11442750D01*
X15355628Y-11442750D01*
X15366501Y-11439837D01*
X15368730Y-11438550D01*
X15368730Y-11438550D01*
X15372071Y-11436621D01*
X15376249Y-11434208D01*
X15384208Y-11426249D01*
X15389837Y-11416501D01*
X15392750Y-11405628D01*
X15392750Y-11394372D01*
X15389837Y-11383499D01*
X15389837Y-11383499D01*
X15384208Y-11373751D01*
X15384208Y-11373750D01*
X15376250Y-11365792D01*
X15376249Y-11365791D01*
X15366501Y-11360163D01*
X15366501Y-11360163D01*
X15355629Y-11357250D01*
X15355628Y-11357250D01*
X15355628Y-11357250D01*
X15344372Y-11357250D01*
X15344372Y-11357250D01*
X15344371Y-11357250D01*
X15333499Y-11360163D01*
X15333499Y-11360163D01*
X15323751Y-11365791D01*
X15323750Y-11365792D01*
X15315792Y-11373750D01*
X15315791Y-11373751D01*
X15310163Y-11383499D01*
X15310163Y-11383499D01*
X15307250Y-11394371D01*
X15307250Y-11394372D01*
X13802670Y-11394372D01*
X13802670Y-11340486D01*
X13802670Y-11340486D01*
X13802548Y-11339837D01*
X13799174Y-11321783D01*
X13792300Y-11304040D01*
X13792300Y-11304040D01*
X13792300Y-11304040D01*
X13788098Y-11297253D01*
X13788098Y-11297253D01*
X13786314Y-11294372D01*
X17507250Y-11294372D01*
X17507250Y-11305628D01*
X17507250Y-11305629D01*
X17510163Y-11316501D01*
X17510163Y-11316501D01*
X17515791Y-11326249D01*
X17515792Y-11326250D01*
X17523750Y-11334208D01*
X17523751Y-11334208D01*
X17533499Y-11339837D01*
X17533499Y-11339837D01*
X17544372Y-11342750D01*
X17544372Y-11342750D01*
X17555628Y-11342750D01*
X17555628Y-11342750D01*
X17566501Y-11339837D01*
X17576249Y-11334208D01*
X17584209Y-11326249D01*
X17589837Y-11316501D01*
X17592750Y-11305628D01*
X17592750Y-11294372D01*
X17589837Y-11283499D01*
X17589837Y-11283499D01*
X17584209Y-11273751D01*
X17584208Y-11273750D01*
X17576250Y-11265792D01*
X17576249Y-11265791D01*
X17566501Y-11260163D01*
X17566501Y-11260163D01*
X17555629Y-11257250D01*
X17555628Y-11257250D01*
X17555628Y-11257250D01*
X17544372Y-11257250D01*
X17544372Y-11257250D01*
X17544371Y-11257250D01*
X17533499Y-11260163D01*
X17533499Y-11260163D01*
X17523751Y-11265791D01*
X17523750Y-11265792D01*
X17515792Y-11273750D01*
X17515791Y-11273751D01*
X17510163Y-11283499D01*
X17510163Y-11283499D01*
X17507250Y-11294371D01*
X17507250Y-11294372D01*
X13786314Y-11294372D01*
X13782283Y-11287862D01*
X13782283Y-11287862D01*
X13782283Y-11287862D01*
X13778159Y-11283338D01*
X13769465Y-11273801D01*
X13769464Y-11273800D01*
X13769464Y-11273800D01*
X13754281Y-11262335D01*
X13754280Y-11262334D01*
X13754280Y-11262334D01*
X13737248Y-11253853D01*
X13718947Y-11248646D01*
X13718946Y-11248646D01*
X13700000Y-11246890D01*
X13700000Y-11246890D01*
X13681054Y-11248646D01*
X13681053Y-11248646D01*
X13662752Y-11253853D01*
X13645720Y-11262334D01*
X13645719Y-11262335D01*
X13630536Y-11273800D01*
X13630536Y-11273801D01*
X13617717Y-11287862D01*
X13607700Y-11304040D01*
X13607700Y-11304040D01*
X13600826Y-11321783D01*
X13597330Y-11340486D01*
X13597330Y-12039234D01*
X13595499Y-12043653D01*
X13553654Y-12085499D01*
X13549234Y-12087330D01*
X12540766Y-12087330D01*
X12536346Y-12085499D01*
X12494501Y-12043653D01*
X12492670Y-12039234D01*
X12492670Y-11248474D01*
X12492670Y-11248474D01*
X12491502Y-11245655D01*
X12491502Y-11245655D01*
X12489345Y-11243498D01*
X12489344Y-11243497D01*
X12486526Y-11242330D01*
X12486526Y-11242330D01*
X11550408Y-11242330D01*
X11549593Y-11242276D01*
X11540177Y-11241037D01*
X11539860Y-11240995D01*
X11538284Y-11240573D01*
X11535810Y-11239548D01*
X11529595Y-11236974D01*
X11528182Y-11236158D01*
X11520721Y-11230433D01*
X11519567Y-11229279D01*
X11513842Y-11221817D01*
X11513026Y-11220405D01*
X11511409Y-11216501D01*
X11509427Y-11211715D01*
X11509005Y-11210141D01*
X11507723Y-11200407D01*
X11507670Y-11199591D01*
X11507670Y-11194372D01*
X17407250Y-11194372D01*
X17407250Y-11205628D01*
X17407250Y-11205629D01*
X17410163Y-11216501D01*
X17410163Y-11216501D01*
X17415791Y-11226249D01*
X17415792Y-11226250D01*
X17423750Y-11234208D01*
X17423751Y-11234208D01*
X17433499Y-11239837D01*
X17433499Y-11239837D01*
X17444372Y-11242750D01*
X17444372Y-11242750D01*
X17455628Y-11242750D01*
X17455628Y-11242750D01*
X17466501Y-11239837D01*
X17476249Y-11234208D01*
X17484209Y-11226249D01*
X17489837Y-11216501D01*
X17492750Y-11205628D01*
X17492750Y-11194372D01*
X17489837Y-11183499D01*
X17489837Y-11183499D01*
X17484209Y-11173751D01*
X17484208Y-11173750D01*
X17476250Y-11165792D01*
X17476249Y-11165791D01*
X17466501Y-11160163D01*
X17466501Y-11160163D01*
X17455629Y-11157250D01*
X17455628Y-11157250D01*
X17455628Y-11157250D01*
X17444372Y-11157250D01*
X17444372Y-11157250D01*
X17444371Y-11157250D01*
X17433499Y-11160163D01*
X17433499Y-11160163D01*
X17423751Y-11165791D01*
X17423750Y-11165792D01*
X17415792Y-11173750D01*
X17415791Y-11173751D01*
X17410163Y-11183499D01*
X17410163Y-11183499D01*
X17407250Y-11194371D01*
X17407250Y-11194372D01*
X11507670Y-11194372D01*
X11507670Y-11094372D01*
X12607250Y-11094372D01*
X12607250Y-11105628D01*
X12607250Y-11105629D01*
X12610163Y-11116501D01*
X12610163Y-11116501D01*
X12615791Y-11126249D01*
X12615792Y-11126250D01*
X12623750Y-11134208D01*
X12623751Y-11134209D01*
X12633499Y-11139837D01*
X12633499Y-11139837D01*
X12644372Y-11142750D01*
X12644372Y-11142750D01*
X12655628Y-11142750D01*
X12655628Y-11142750D01*
X12666501Y-11139837D01*
X12676249Y-11134209D01*
X12684208Y-11126249D01*
X12689837Y-11116501D01*
X12692750Y-11105628D01*
X12692750Y-11094372D01*
X18357250Y-11094372D01*
X18357250Y-11105628D01*
X18357250Y-11105629D01*
X18360163Y-11116501D01*
X18360163Y-11116501D01*
X18365791Y-11126249D01*
X18365792Y-11126250D01*
X18373750Y-11134208D01*
X18373751Y-11134209D01*
X18383499Y-11139837D01*
X18383499Y-11139837D01*
X18394372Y-11142750D01*
X18394372Y-11142750D01*
X18405628Y-11142750D01*
X18405628Y-11142750D01*
X18416501Y-11139837D01*
X18426249Y-11134209D01*
X18434209Y-11126249D01*
X18439837Y-11116501D01*
X18442750Y-11105628D01*
X18442750Y-11094372D01*
X18439837Y-11083499D01*
X18439837Y-11083499D01*
X18434209Y-11073751D01*
X18434208Y-11073750D01*
X18426250Y-11065792D01*
X18426249Y-11065791D01*
X18416501Y-11060163D01*
X18416501Y-11060163D01*
X18405629Y-11057250D01*
X18405628Y-11057250D01*
X18405628Y-11057250D01*
X18394372Y-11057250D01*
X18394372Y-11057250D01*
X18394371Y-11057250D01*
X18383499Y-11060163D01*
X18383499Y-11060163D01*
X18373751Y-11065791D01*
X18373750Y-11065792D01*
X18365792Y-11073750D01*
X18365791Y-11073751D01*
X18360163Y-11083499D01*
X18360163Y-11083499D01*
X18357250Y-11094371D01*
X18357250Y-11094372D01*
X12692750Y-11094372D01*
X12692750Y-11094372D01*
X12689837Y-11083499D01*
X12689837Y-11083499D01*
X12684208Y-11073751D01*
X12684208Y-11073750D01*
X12676250Y-11065792D01*
X12676249Y-11065791D01*
X12666501Y-11060163D01*
X12666501Y-11060163D01*
X12655629Y-11057250D01*
X12655628Y-11057250D01*
X12655628Y-11057250D01*
X12644372Y-11057250D01*
X12644372Y-11057250D01*
X12644371Y-11057250D01*
X12633499Y-11060163D01*
X12633499Y-11060163D01*
X12623751Y-11065791D01*
X12623750Y-11065792D01*
X12615792Y-11073750D01*
X12615791Y-11073751D01*
X12610163Y-11083499D01*
X12610163Y-11083499D01*
X12607250Y-11094371D01*
X12607250Y-11094372D01*
X11507670Y-11094372D01*
X11507670Y-11043372D01*
X17102250Y-11043372D01*
X17102250Y-11054628D01*
X17102250Y-11054629D01*
X17105163Y-11065501D01*
X17105163Y-11065501D01*
X17110791Y-11075249D01*
X17110792Y-11075250D01*
X17118750Y-11083208D01*
X17118751Y-11083209D01*
X17128499Y-11088837D01*
X17128499Y-11088837D01*
X17139372Y-11091750D01*
X17139372Y-11091750D01*
X17150628Y-11091750D01*
X17150628Y-11091750D01*
X17161501Y-11088837D01*
X17171249Y-11083209D01*
X17179209Y-11075249D01*
X17184837Y-11065501D01*
X17187750Y-11054628D01*
X17187750Y-11043372D01*
X17184837Y-11032499D01*
X17184837Y-11032499D01*
X17179209Y-11022751D01*
X17179208Y-11022750D01*
X17171250Y-11014792D01*
X17171249Y-11014791D01*
X17161501Y-11009163D01*
X17161501Y-11009163D01*
X17150629Y-11006250D01*
X17150628Y-11006250D01*
X17150628Y-11006250D01*
X17139372Y-11006250D01*
X17139372Y-11006250D01*
X17139371Y-11006250D01*
X17128499Y-11009163D01*
X17128499Y-11009163D01*
X17118751Y-11014791D01*
X17118750Y-11014792D01*
X17110792Y-11022750D01*
X17110791Y-11022751D01*
X17105163Y-11032499D01*
X17105163Y-11032499D01*
X17102250Y-11043371D01*
X17102250Y-11043372D01*
X11507670Y-11043372D01*
X11507670Y-10944372D01*
X14907250Y-10944372D01*
X14907250Y-10955628D01*
X14907250Y-10955629D01*
X14910163Y-10966501D01*
X14910163Y-10966501D01*
X14915791Y-10976249D01*
X14915792Y-10976250D01*
X14923750Y-10984208D01*
X14923751Y-10984209D01*
X14933499Y-10989837D01*
X14933499Y-10989837D01*
X14944372Y-10992750D01*
X14944372Y-10992750D01*
X14955628Y-10992750D01*
X14955628Y-10992750D01*
X14966501Y-10989837D01*
X14976249Y-10984209D01*
X14984208Y-10976249D01*
X14989837Y-10966501D01*
X14992750Y-10955628D01*
X14992750Y-10944372D01*
X14989837Y-10933499D01*
X14989837Y-10933499D01*
X14984208Y-10923751D01*
X14984208Y-10923750D01*
X14976250Y-10915792D01*
X14976249Y-10915791D01*
X14966501Y-10910163D01*
X14966501Y-10910163D01*
X14955629Y-10907250D01*
X14955628Y-10907250D01*
X14955628Y-10907250D01*
X14944372Y-10907250D01*
X14944372Y-10907250D01*
X14944371Y-10907250D01*
X14933499Y-10910163D01*
X14933499Y-10910163D01*
X14923751Y-10915791D01*
X14923750Y-10915792D01*
X14915792Y-10923750D01*
X14915791Y-10923751D01*
X14910163Y-10933499D01*
X14910163Y-10933499D01*
X14907250Y-10944371D01*
X14907250Y-10944372D01*
X11507670Y-10944372D01*
X11507670Y-10775820D01*
X17669250Y-10775820D01*
X17669250Y-10788180D01*
X17671662Y-10800304D01*
X17675412Y-10809358D01*
X17676392Y-10811723D01*
X17676392Y-10811723D01*
X17683259Y-10822001D01*
X17691999Y-10830741D01*
X17702277Y-10837608D01*
X17702277Y-10837608D01*
X17702277Y-10837608D01*
X17713697Y-10842339D01*
X17725820Y-10844750D01*
X17848180Y-10844750D01*
X17860304Y-10842339D01*
X17871723Y-10837608D01*
X17882001Y-10830741D01*
X17890741Y-10822001D01*
X17897608Y-10811723D01*
X17902339Y-10800304D01*
X17904750Y-10788180D01*
X17904750Y-10775820D01*
X18112250Y-10775820D01*
X18112250Y-10788180D01*
X18114662Y-10800304D01*
X18118412Y-10809358D01*
X18119392Y-10811723D01*
X18119392Y-10811723D01*
X18126259Y-10822001D01*
X18134999Y-10830741D01*
X18145277Y-10837608D01*
X18145277Y-10837608D01*
X18145277Y-10837608D01*
X18156697Y-10842339D01*
X18168820Y-10844750D01*
X18241180Y-10844750D01*
X18253304Y-10842339D01*
X18264723Y-10837608D01*
X18275001Y-10830741D01*
X18283741Y-10822001D01*
X18290608Y-10811723D01*
X18295339Y-10800304D01*
X18297750Y-10788180D01*
X18297750Y-10775820D01*
X18295339Y-10763697D01*
X18290608Y-10752277D01*
X18283741Y-10741999D01*
X18275001Y-10733259D01*
X18275001Y-10733259D01*
X18264723Y-10726392D01*
X18264723Y-10726392D01*
X18262358Y-10725412D01*
X18253304Y-10721662D01*
X18253303Y-10721661D01*
X18241180Y-10719250D01*
X18168820Y-10719250D01*
X18156697Y-10721661D01*
X18156697Y-10721661D01*
X18156697Y-10721662D01*
X18153352Y-10723047D01*
X18145277Y-10726392D01*
X18145277Y-10726392D01*
X18134999Y-10733259D01*
X18126259Y-10741999D01*
X18119392Y-10752277D01*
X18119392Y-10752277D01*
X18116047Y-10760352D01*
X18114662Y-10763697D01*
X18112250Y-10775820D01*
X17904750Y-10775820D01*
X17902339Y-10763697D01*
X17897608Y-10752277D01*
X17890741Y-10741999D01*
X17882001Y-10733259D01*
X17882001Y-10733259D01*
X17871723Y-10726392D01*
X17871723Y-10726392D01*
X17869358Y-10725412D01*
X17860304Y-10721662D01*
X17860303Y-10721661D01*
X17848180Y-10719250D01*
X17725820Y-10719250D01*
X17713697Y-10721661D01*
X17713697Y-10721661D01*
X17713697Y-10721662D01*
X17710352Y-10723047D01*
X17702277Y-10726392D01*
X17702277Y-10726392D01*
X17691999Y-10733259D01*
X17683259Y-10741999D01*
X17676392Y-10752277D01*
X17676392Y-10752277D01*
X17673047Y-10760352D01*
X17671662Y-10763697D01*
X17669250Y-10775820D01*
X11507670Y-10775820D01*
X11507670Y-10632708D01*
X17792210Y-10632708D01*
X17792210Y-10645292D01*
X17792210Y-10645292D01*
X17795467Y-10657446D01*
X17795467Y-10657446D01*
X17801759Y-10668344D01*
X17801759Y-10668344D01*
X17810656Y-10677241D01*
X17810656Y-10677241D01*
X17810656Y-10677242D01*
X17821554Y-10683533D01*
X17821554Y-10683533D01*
X17828992Y-10685526D01*
X17833708Y-10686790D01*
X17833708Y-10686790D01*
X17846292Y-10686790D01*
X17846292Y-10686790D01*
X17858446Y-10683533D01*
X17869344Y-10677242D01*
X17878242Y-10668344D01*
X17884533Y-10657446D01*
X17887790Y-10645292D01*
X17887790Y-10632708D01*
X17884533Y-10620554D01*
X17878242Y-10609656D01*
X17878241Y-10609656D01*
X17878241Y-10609656D01*
X17869344Y-10600759D01*
X17869344Y-10600759D01*
X17869344Y-10600759D01*
X17863895Y-10597613D01*
X17858446Y-10594467D01*
X17858446Y-10594467D01*
X17846292Y-10591210D01*
X17846292Y-10591210D01*
X17846292Y-10591210D01*
X17833708Y-10591210D01*
X17833708Y-10591210D01*
X17833708Y-10591210D01*
X17821554Y-10594467D01*
X17821554Y-10594467D01*
X17810656Y-10600759D01*
X17810656Y-10600759D01*
X17801759Y-10609656D01*
X17801759Y-10609656D01*
X17795467Y-10620554D01*
X17795467Y-10620554D01*
X17792210Y-10632708D01*
X17792210Y-10632708D01*
X11507670Y-10632708D01*
X11507670Y-10494372D01*
X16257250Y-10494372D01*
X16257250Y-10505628D01*
X16257250Y-10505629D01*
X16260163Y-10516501D01*
X16260163Y-10516501D01*
X16265791Y-10526249D01*
X16265792Y-10526250D01*
X16273750Y-10534208D01*
X16273751Y-10534209D01*
X16283499Y-10539837D01*
X16283499Y-10539837D01*
X16294372Y-10542750D01*
X16294372Y-10542750D01*
X16305628Y-10542750D01*
X16305628Y-10542750D01*
X16316501Y-10539837D01*
X16324234Y-10535372D01*
X16467250Y-10535372D01*
X16467250Y-10546628D01*
X16467250Y-10546629D01*
X16470163Y-10557501D01*
X16470163Y-10557501D01*
X16475791Y-10567249D01*
X16475792Y-10567250D01*
X16483750Y-10575208D01*
X16483751Y-10575209D01*
X16493499Y-10580837D01*
X16493499Y-10580837D01*
X16504372Y-10583750D01*
X16504372Y-10583750D01*
X16515628Y-10583750D01*
X16515628Y-10583750D01*
X16526501Y-10580837D01*
X16536249Y-10575209D01*
X16544208Y-10567249D01*
X16549837Y-10557501D01*
X16552750Y-10546628D01*
X16552750Y-10535372D01*
X16549837Y-10524499D01*
X16549837Y-10524499D01*
X16544208Y-10514751D01*
X16544208Y-10514750D01*
X16536250Y-10506792D01*
X16536249Y-10506791D01*
X16526501Y-10501163D01*
X16526501Y-10501163D01*
X16515629Y-10498250D01*
X16515628Y-10498250D01*
X16515628Y-10498250D01*
X16504372Y-10498250D01*
X16504372Y-10498250D01*
X16504371Y-10498250D01*
X16493499Y-10501163D01*
X16493499Y-10501163D01*
X16483751Y-10506791D01*
X16483750Y-10506792D01*
X16475792Y-10514750D01*
X16475791Y-10514751D01*
X16470163Y-10524499D01*
X16470163Y-10524499D01*
X16467250Y-10535371D01*
X16467250Y-10535372D01*
X16324234Y-10535372D01*
X16326249Y-10534209D01*
X16326250Y-10534208D01*
X16329915Y-10530543D01*
X16334208Y-10526250D01*
X16334208Y-10526249D01*
X16339837Y-10516501D01*
X16342750Y-10505628D01*
X16342750Y-10494372D01*
X16339837Y-10483499D01*
X16339837Y-10483499D01*
X16334208Y-10473751D01*
X16334208Y-10473750D01*
X16326250Y-10465792D01*
X16326249Y-10465791D01*
X16316501Y-10460163D01*
X16316501Y-10460163D01*
X16305629Y-10457250D01*
X16305628Y-10457250D01*
X16305628Y-10457250D01*
X16294372Y-10457250D01*
X16294372Y-10457250D01*
X16294371Y-10457250D01*
X16283499Y-10460163D01*
X16283499Y-10460163D01*
X16273751Y-10465791D01*
X16273750Y-10465792D01*
X16265792Y-10473750D01*
X16265791Y-10473751D01*
X16260163Y-10483499D01*
X16260163Y-10483499D01*
X16257250Y-10494371D01*
X16257250Y-10494372D01*
X11507670Y-10494372D01*
X11507670Y-10408372D01*
X16340250Y-10408372D01*
X16340250Y-10419628D01*
X16340250Y-10419629D01*
X16343163Y-10430501D01*
X16343163Y-10430501D01*
X16348791Y-10440249D01*
X16348792Y-10440250D01*
X16356750Y-10448208D01*
X16356751Y-10448209D01*
X16366499Y-10453837D01*
X16366499Y-10453837D01*
X16377372Y-10456750D01*
X16377372Y-10456750D01*
X16388628Y-10456750D01*
X16388628Y-10456750D01*
X16399501Y-10453837D01*
X16409249Y-10448209D01*
X16417208Y-10440249D01*
X16422837Y-10430501D01*
X16425750Y-10419628D01*
X16425750Y-10408372D01*
X16423017Y-10398171D01*
X16423517Y-10394372D01*
X17857250Y-10394372D01*
X17857250Y-10405628D01*
X17857250Y-10405629D01*
X17860163Y-10416501D01*
X17860163Y-10416501D01*
X17865791Y-10426249D01*
X17865792Y-10426250D01*
X17873750Y-10434208D01*
X17873751Y-10434209D01*
X17883499Y-10439837D01*
X17883499Y-10439837D01*
X17894372Y-10442750D01*
X17894372Y-10442750D01*
X17905628Y-10442750D01*
X17905628Y-10442750D01*
X17916501Y-10439837D01*
X17926249Y-10434209D01*
X17934209Y-10426249D01*
X17939837Y-10416501D01*
X17942750Y-10405628D01*
X17942750Y-10394372D01*
X17939837Y-10383499D01*
X17939837Y-10383499D01*
X17934209Y-10373751D01*
X17934208Y-10373750D01*
X17926250Y-10365792D01*
X17926249Y-10365791D01*
X17916501Y-10360163D01*
X17916501Y-10360163D01*
X17905629Y-10357250D01*
X17905628Y-10357250D01*
X17905628Y-10357250D01*
X17894372Y-10357250D01*
X17894372Y-10357250D01*
X17894371Y-10357250D01*
X17883499Y-10360163D01*
X17883499Y-10360163D01*
X17873751Y-10365791D01*
X17873750Y-10365792D01*
X17865792Y-10373750D01*
X17865791Y-10373751D01*
X17860163Y-10383499D01*
X17860163Y-10383499D01*
X17857250Y-10394371D01*
X17857250Y-10394372D01*
X16423517Y-10394372D01*
X16423641Y-10393429D01*
X16427436Y-10390517D01*
X16430671Y-10390517D01*
X16440872Y-10393250D01*
X16440872Y-10393250D01*
X16452128Y-10393250D01*
X16452128Y-10393250D01*
X16463001Y-10390337D01*
X16472749Y-10384709D01*
X16480708Y-10376749D01*
X16486337Y-10367001D01*
X16489250Y-10356128D01*
X16489250Y-10344872D01*
X16489116Y-10344372D01*
X17157250Y-10344372D01*
X17157250Y-10355628D01*
X17157250Y-10355629D01*
X17160163Y-10366501D01*
X17160163Y-10366501D01*
X17165791Y-10376249D01*
X17165792Y-10376250D01*
X17173750Y-10384208D01*
X17173751Y-10384209D01*
X17183499Y-10389837D01*
X17183499Y-10389837D01*
X17194372Y-10392750D01*
X17194372Y-10392750D01*
X17205628Y-10392750D01*
X17205628Y-10392750D01*
X17216501Y-10389837D01*
X17218730Y-10388550D01*
X17218730Y-10388550D01*
X17222071Y-10386621D01*
X17226249Y-10384209D01*
X17234209Y-10376249D01*
X17239837Y-10366501D01*
X17242750Y-10355628D01*
X17242750Y-10344372D01*
X17239837Y-10333499D01*
X17239837Y-10333499D01*
X17234209Y-10323751D01*
X17234208Y-10323750D01*
X17226250Y-10315792D01*
X17226249Y-10315791D01*
X17216501Y-10310163D01*
X17216501Y-10310163D01*
X17205629Y-10307250D01*
X17205628Y-10307250D01*
X17205628Y-10307250D01*
X17194372Y-10307250D01*
X17194372Y-10307250D01*
X17194371Y-10307250D01*
X17183499Y-10310163D01*
X17183499Y-10310163D01*
X17173751Y-10315791D01*
X17173750Y-10315792D01*
X17165792Y-10323750D01*
X17165791Y-10323751D01*
X17160163Y-10333499D01*
X17160163Y-10333499D01*
X17157250Y-10344371D01*
X17157250Y-10344372D01*
X16489116Y-10344372D01*
X16486511Y-10334649D01*
X16486830Y-10332294D01*
X16487141Y-10329929D01*
X16487151Y-10329921D01*
X16487153Y-10329909D01*
X16489046Y-10328467D01*
X16490936Y-10327017D01*
X16490950Y-10327017D01*
X16490958Y-10327011D01*
X16491002Y-10327017D01*
X16494171Y-10327017D01*
X16504372Y-10329750D01*
X16504372Y-10329750D01*
X16515628Y-10329750D01*
X16515628Y-10329750D01*
X16526501Y-10326837D01*
X16536249Y-10321209D01*
X16544208Y-10313249D01*
X16549837Y-10303501D01*
X16552750Y-10292628D01*
X16552750Y-10281372D01*
X16549837Y-10270499D01*
X16549837Y-10270499D01*
X16544208Y-10260751D01*
X16544208Y-10260750D01*
X16536250Y-10252792D01*
X16536249Y-10252791D01*
X16530331Y-10249375D01*
X16526501Y-10247163D01*
X16526501Y-10247163D01*
X16516084Y-10244372D01*
X17857250Y-10244372D01*
X17857250Y-10255628D01*
X17857250Y-10255629D01*
X17860163Y-10266501D01*
X17860163Y-10266501D01*
X17865791Y-10276249D01*
X17865792Y-10276250D01*
X17873750Y-10284208D01*
X17873751Y-10284209D01*
X17883499Y-10289837D01*
X17883499Y-10289837D01*
X17894372Y-10292750D01*
X17894372Y-10292750D01*
X17905628Y-10292750D01*
X17905628Y-10292750D01*
X17916501Y-10289837D01*
X17926249Y-10284209D01*
X17934209Y-10276249D01*
X17939837Y-10266501D01*
X17942750Y-10255628D01*
X17942750Y-10244372D01*
X17939837Y-10233499D01*
X17939837Y-10233499D01*
X17934209Y-10223751D01*
X17934208Y-10223750D01*
X17926250Y-10215792D01*
X17926249Y-10215791D01*
X17916501Y-10210163D01*
X17916501Y-10210163D01*
X17905629Y-10207250D01*
X17905628Y-10207250D01*
X17905628Y-10207250D01*
X17894372Y-10207250D01*
X17894372Y-10207250D01*
X17894371Y-10207250D01*
X17883499Y-10210163D01*
X17883499Y-10210163D01*
X17873751Y-10215791D01*
X17873750Y-10215792D01*
X17865792Y-10223750D01*
X17865791Y-10223751D01*
X17860163Y-10233499D01*
X17860163Y-10233499D01*
X17857250Y-10244371D01*
X17857250Y-10244372D01*
X16516084Y-10244372D01*
X16515629Y-10244250D01*
X16515628Y-10244250D01*
X16515628Y-10244250D01*
X16504372Y-10244250D01*
X16504372Y-10244250D01*
X16504371Y-10244250D01*
X16493499Y-10247163D01*
X16493499Y-10247163D01*
X16483751Y-10252791D01*
X16483750Y-10252792D01*
X16475792Y-10260750D01*
X16475791Y-10260751D01*
X16470163Y-10270499D01*
X16470163Y-10270499D01*
X16467250Y-10281371D01*
X16467250Y-10281372D01*
X16467250Y-10292628D01*
X16467250Y-10292629D01*
X16469983Y-10302829D01*
X16469359Y-10307571D01*
X16465564Y-10310483D01*
X16462328Y-10310483D01*
X16452129Y-10307750D01*
X16452128Y-10307750D01*
X16452128Y-10307750D01*
X16440872Y-10307750D01*
X16440872Y-10307750D01*
X16440871Y-10307750D01*
X16429999Y-10310663D01*
X16429999Y-10310663D01*
X16420251Y-10316291D01*
X16420250Y-10316292D01*
X16412292Y-10324250D01*
X16412291Y-10324251D01*
X16406663Y-10333999D01*
X16406663Y-10333999D01*
X16403750Y-10344871D01*
X16403750Y-10344872D01*
X16403750Y-10356128D01*
X16403750Y-10356129D01*
X16406483Y-10366329D01*
X16405859Y-10371071D01*
X16402064Y-10373983D01*
X16398828Y-10373983D01*
X16388629Y-10371250D01*
X16388628Y-10371250D01*
X16388628Y-10371250D01*
X16377372Y-10371250D01*
X16377372Y-10371250D01*
X16377371Y-10371250D01*
X16366499Y-10374163D01*
X16366499Y-10374163D01*
X16356751Y-10379791D01*
X16356750Y-10379792D01*
X16348792Y-10387750D01*
X16348791Y-10387751D01*
X16343163Y-10397499D01*
X16343163Y-10397499D01*
X16340250Y-10408371D01*
X16340250Y-10408372D01*
X11507670Y-10408372D01*
X11507670Y-10344372D01*
X13457250Y-10344372D01*
X13457250Y-10355628D01*
X13457250Y-10355629D01*
X13460163Y-10366501D01*
X13460163Y-10366501D01*
X13465791Y-10376249D01*
X13465792Y-10376250D01*
X13473750Y-10384208D01*
X13473751Y-10384209D01*
X13483499Y-10389837D01*
X13483499Y-10389837D01*
X13494372Y-10392750D01*
X13494372Y-10392750D01*
X13505628Y-10392750D01*
X13505628Y-10392750D01*
X13516501Y-10389837D01*
X13526249Y-10384209D01*
X13534208Y-10376249D01*
X13539837Y-10366501D01*
X13542750Y-10355628D01*
X13542750Y-10344372D01*
X13539837Y-10333499D01*
X13539837Y-10333499D01*
X13534208Y-10323751D01*
X13534208Y-10323750D01*
X13526250Y-10315792D01*
X13526249Y-10315791D01*
X13516501Y-10310163D01*
X13516501Y-10310163D01*
X13505629Y-10307250D01*
X13505628Y-10307250D01*
X13505628Y-10307250D01*
X13494372Y-10307250D01*
X13494372Y-10307250D01*
X13494371Y-10307250D01*
X13483499Y-10310163D01*
X13483499Y-10310163D01*
X13473751Y-10315791D01*
X13473750Y-10315792D01*
X13465792Y-10323750D01*
X13465791Y-10323751D01*
X13460163Y-10333499D01*
X13460163Y-10333499D01*
X13457250Y-10344371D01*
X13457250Y-10344372D01*
X11507670Y-10344372D01*
X11507670Y-10044372D01*
X14207250Y-10044372D01*
X14207250Y-10055628D01*
X14207250Y-10055629D01*
X14210163Y-10066501D01*
X14210163Y-10066501D01*
X14215791Y-10076249D01*
X14215792Y-10076250D01*
X14223750Y-10084208D01*
X14223751Y-10084209D01*
X14233499Y-10089837D01*
X14233499Y-10089837D01*
X14244372Y-10092750D01*
X14244372Y-10092750D01*
X14255628Y-10092750D01*
X14255628Y-10092750D01*
X14266501Y-10089837D01*
X14276249Y-10084209D01*
X14284208Y-10076249D01*
X14289380Y-10067292D01*
X14289837Y-10066501D01*
X14289837Y-10066501D01*
X14292750Y-10055629D01*
X14292750Y-10055628D01*
X14292750Y-10054708D01*
X17792210Y-10054708D01*
X17792210Y-10067292D01*
X17792210Y-10067292D01*
X17795467Y-10079446D01*
X17795467Y-10079446D01*
X17795467Y-10079446D01*
X17801466Y-10089837D01*
X17801759Y-10090344D01*
X17801759Y-10090344D01*
X17810656Y-10099241D01*
X17810656Y-10099241D01*
X17810656Y-10099242D01*
X17821554Y-10105533D01*
X17821554Y-10105533D01*
X17828992Y-10107526D01*
X17833708Y-10108790D01*
X17833708Y-10108790D01*
X17846292Y-10108790D01*
X17846292Y-10108790D01*
X17858446Y-10105533D01*
X17869344Y-10099242D01*
X17878242Y-10090344D01*
X17884533Y-10079446D01*
X17887790Y-10067292D01*
X17887790Y-10054708D01*
X17884533Y-10042554D01*
X17878242Y-10031656D01*
X17878241Y-10031656D01*
X17878241Y-10031656D01*
X17869344Y-10022759D01*
X17869344Y-10022759D01*
X17869344Y-10022759D01*
X17863895Y-10019613D01*
X17858446Y-10016467D01*
X17858446Y-10016467D01*
X17846292Y-10013210D01*
X17846292Y-10013210D01*
X17846292Y-10013210D01*
X17833708Y-10013210D01*
X17833708Y-10013210D01*
X17833708Y-10013210D01*
X17821554Y-10016467D01*
X17821554Y-10016467D01*
X17810656Y-10022759D01*
X17810656Y-10022759D01*
X17801759Y-10031656D01*
X17801759Y-10031656D01*
X17795467Y-10042554D01*
X17795467Y-10042554D01*
X17792210Y-10054708D01*
X17792210Y-10054708D01*
X14292750Y-10054708D01*
X14292750Y-10044372D01*
X14292750Y-10044371D01*
X14289837Y-10033499D01*
X14289837Y-10033499D01*
X14284208Y-10023751D01*
X14284208Y-10023750D01*
X14276250Y-10015792D01*
X14276249Y-10015791D01*
X14266501Y-10010163D01*
X14266501Y-10010163D01*
X14255629Y-10007250D01*
X14255628Y-10007250D01*
X14255628Y-10007250D01*
X14244372Y-10007250D01*
X14244372Y-10007250D01*
X14244371Y-10007250D01*
X14233499Y-10010163D01*
X14233499Y-10010163D01*
X14223751Y-10015791D01*
X14223750Y-10015792D01*
X14215792Y-10023750D01*
X14215791Y-10023751D01*
X14210163Y-10033499D01*
X14210163Y-10033499D01*
X14207250Y-10044371D01*
X14207250Y-10044372D01*
X11507670Y-10044372D01*
X11507670Y-9911820D01*
X17669250Y-9911820D01*
X17669250Y-9924180D01*
X17671662Y-9936304D01*
X17675412Y-9945358D01*
X17676392Y-9947723D01*
X17676392Y-9947723D01*
X17683259Y-9958001D01*
X17691999Y-9966741D01*
X17702277Y-9973608D01*
X17702277Y-9973608D01*
X17702277Y-9973608D01*
X17713697Y-9978339D01*
X17725820Y-9980750D01*
X17848180Y-9980750D01*
X17860304Y-9978339D01*
X17871723Y-9973608D01*
X17882001Y-9966741D01*
X17890741Y-9958001D01*
X17897608Y-9947723D01*
X17902339Y-9936304D01*
X17904750Y-9924180D01*
X17904750Y-9911820D01*
X18112250Y-9911820D01*
X18112250Y-9924180D01*
X18114662Y-9936304D01*
X18118412Y-9945358D01*
X18119392Y-9947723D01*
X18119392Y-9947723D01*
X18126259Y-9958001D01*
X18134999Y-9966741D01*
X18145277Y-9973608D01*
X18145277Y-9973608D01*
X18145277Y-9973608D01*
X18156697Y-9978339D01*
X18168820Y-9980750D01*
X18241180Y-9980750D01*
X18253304Y-9978339D01*
X18264723Y-9973608D01*
X18275001Y-9966741D01*
X18283741Y-9958001D01*
X18290608Y-9947723D01*
X18295339Y-9936304D01*
X18297750Y-9924180D01*
X18297750Y-9911820D01*
X18295339Y-9899697D01*
X18290608Y-9888277D01*
X18283741Y-9877999D01*
X18275001Y-9869259D01*
X18274239Y-9868750D01*
X18264723Y-9862392D01*
X18264723Y-9862392D01*
X18262358Y-9861412D01*
X18253304Y-9857662D01*
X18253303Y-9857661D01*
X18241180Y-9855250D01*
X18168820Y-9855250D01*
X18156697Y-9857661D01*
X18156697Y-9857661D01*
X18156697Y-9857662D01*
X18153463Y-9859001D01*
X18145277Y-9862392D01*
X18145277Y-9862392D01*
X18134999Y-9869259D01*
X18126259Y-9877999D01*
X18119392Y-9888277D01*
X18119392Y-9888277D01*
X18116047Y-9896352D01*
X18114662Y-9899697D01*
X18112250Y-9911820D01*
X17904750Y-9911820D01*
X17902339Y-9899697D01*
X17897608Y-9888277D01*
X17890741Y-9877999D01*
X17882001Y-9869259D01*
X17881239Y-9868750D01*
X17871723Y-9862392D01*
X17871723Y-9862392D01*
X17869358Y-9861412D01*
X17860304Y-9857662D01*
X17860303Y-9857661D01*
X17848180Y-9855250D01*
X17725820Y-9855250D01*
X17713697Y-9857661D01*
X17713697Y-9857661D01*
X17713697Y-9857662D01*
X17710463Y-9859001D01*
X17702277Y-9862392D01*
X17702277Y-9862392D01*
X17691999Y-9869259D01*
X17683259Y-9877999D01*
X17676392Y-9888277D01*
X17676392Y-9888277D01*
X17673047Y-9896352D01*
X17671662Y-9899697D01*
X17669250Y-9911820D01*
X11507670Y-9911820D01*
X11507670Y-9794372D01*
X13757250Y-9794372D01*
X13757250Y-9805628D01*
X13757250Y-9805629D01*
X13760163Y-9816501D01*
X13760163Y-9816501D01*
X13765791Y-9826249D01*
X13765792Y-9826250D01*
X13773750Y-9834208D01*
X13773751Y-9834209D01*
X13783499Y-9839837D01*
X13783499Y-9839837D01*
X13794372Y-9842750D01*
X13794372Y-9842750D01*
X13805628Y-9842750D01*
X13805628Y-9842750D01*
X13816501Y-9839837D01*
X13821636Y-9836872D01*
X15356000Y-9836872D01*
X15356000Y-9848128D01*
X15356000Y-9848129D01*
X15358913Y-9859001D01*
X15358913Y-9859001D01*
X15364541Y-9868749D01*
X15364542Y-9868750D01*
X15372500Y-9876708D01*
X15372501Y-9876709D01*
X15382249Y-9882337D01*
X15382249Y-9882337D01*
X15393122Y-9885250D01*
X15393122Y-9885250D01*
X15404378Y-9885250D01*
X15404378Y-9885250D01*
X15415251Y-9882337D01*
X15424999Y-9876709D01*
X15432958Y-9868749D01*
X15438587Y-9859001D01*
X15441500Y-9848128D01*
X15441500Y-9836872D01*
X15483000Y-9836872D01*
X15483000Y-9848128D01*
X15483000Y-9848129D01*
X15485913Y-9859001D01*
X15485913Y-9859001D01*
X15491541Y-9868749D01*
X15491542Y-9868750D01*
X15499500Y-9876708D01*
X15499501Y-9876709D01*
X15509249Y-9882337D01*
X15509249Y-9882337D01*
X15520122Y-9885250D01*
X15520122Y-9885250D01*
X15531378Y-9885250D01*
X15531378Y-9885250D01*
X15542251Y-9882337D01*
X15551999Y-9876709D01*
X15559958Y-9868749D01*
X15565587Y-9859001D01*
X15568500Y-9848128D01*
X15568500Y-9836872D01*
X15565587Y-9825999D01*
X15565587Y-9825999D01*
X15559958Y-9816251D01*
X15559958Y-9816250D01*
X15552000Y-9808292D01*
X15551999Y-9808291D01*
X15542251Y-9802663D01*
X15542251Y-9802663D01*
X15531379Y-9799750D01*
X15531378Y-9799750D01*
X15531378Y-9799750D01*
X15520122Y-9799750D01*
X15520122Y-9799750D01*
X15520121Y-9799750D01*
X15509249Y-9802663D01*
X15509249Y-9802663D01*
X15499501Y-9808291D01*
X15499500Y-9808292D01*
X15491542Y-9816250D01*
X15491541Y-9816251D01*
X15485913Y-9825999D01*
X15485913Y-9825999D01*
X15483000Y-9836871D01*
X15483000Y-9836872D01*
X15441500Y-9836872D01*
X15441500Y-9836872D01*
X15438587Y-9825999D01*
X15438587Y-9825999D01*
X15432958Y-9816251D01*
X15432958Y-9816250D01*
X15425000Y-9808292D01*
X15424999Y-9808291D01*
X15415251Y-9802663D01*
X15415251Y-9802663D01*
X15404379Y-9799750D01*
X15404378Y-9799750D01*
X15404378Y-9799750D01*
X15393122Y-9799750D01*
X15393122Y-9799750D01*
X15393121Y-9799750D01*
X15382249Y-9802663D01*
X15382249Y-9802663D01*
X15372501Y-9808291D01*
X15372500Y-9808292D01*
X15364542Y-9816250D01*
X15364541Y-9816251D01*
X15358913Y-9825999D01*
X15358913Y-9825999D01*
X15356000Y-9836871D01*
X15356000Y-9836872D01*
X13821636Y-9836872D01*
X13826249Y-9834209D01*
X13826250Y-9834208D01*
X13828415Y-9832043D01*
X13834208Y-9826250D01*
X13834208Y-9826249D01*
X13839837Y-9816501D01*
X13842750Y-9805628D01*
X13842750Y-9794372D01*
X13839837Y-9783499D01*
X13839837Y-9783499D01*
X13834208Y-9773751D01*
X13834208Y-9773750D01*
X13826250Y-9765792D01*
X13826249Y-9765791D01*
X13816501Y-9760163D01*
X13816501Y-9760163D01*
X13805629Y-9757250D01*
X13805628Y-9757250D01*
X13805628Y-9757250D01*
X13794372Y-9757250D01*
X13794372Y-9757250D01*
X13794371Y-9757250D01*
X13783499Y-9760163D01*
X13783499Y-9760163D01*
X13773751Y-9765791D01*
X13773750Y-9765792D01*
X13765792Y-9773750D01*
X13765791Y-9773751D01*
X13760163Y-9783499D01*
X13760163Y-9783499D01*
X13757250Y-9794371D01*
X13757250Y-9794372D01*
X11507670Y-9794372D01*
X11507670Y-9744372D01*
X13057250Y-9744372D01*
X13057250Y-9755628D01*
X13057250Y-9755629D01*
X13060163Y-9766501D01*
X13060163Y-9766501D01*
X13065791Y-9776249D01*
X13065792Y-9776250D01*
X13073750Y-9784208D01*
X13073751Y-9784209D01*
X13083499Y-9789837D01*
X13083499Y-9789837D01*
X13094372Y-9792750D01*
X13094372Y-9792750D01*
X13105628Y-9792750D01*
X13105628Y-9792750D01*
X13116501Y-9789837D01*
X13118730Y-9788550D01*
X13118730Y-9788550D01*
X13122071Y-9786621D01*
X13126249Y-9784209D01*
X13134208Y-9776249D01*
X13139837Y-9766501D01*
X13142750Y-9755628D01*
X13142750Y-9744372D01*
X14357250Y-9744372D01*
X14357250Y-9755628D01*
X14357250Y-9755629D01*
X14360163Y-9766501D01*
X14360163Y-9766501D01*
X14365791Y-9776249D01*
X14365792Y-9776250D01*
X14373750Y-9784208D01*
X14373751Y-9784209D01*
X14383499Y-9789837D01*
X14383499Y-9789837D01*
X14394372Y-9792750D01*
X14394372Y-9792750D01*
X14405628Y-9792750D01*
X14405628Y-9792750D01*
X14416501Y-9789837D01*
X14426249Y-9784209D01*
X14434208Y-9776249D01*
X14439837Y-9766501D01*
X14442750Y-9755628D01*
X14442750Y-9744372D01*
X15407250Y-9744372D01*
X15407250Y-9755628D01*
X15407250Y-9755629D01*
X15410163Y-9766501D01*
X15410163Y-9766501D01*
X15415791Y-9776249D01*
X15415792Y-9776250D01*
X15423750Y-9784208D01*
X15423751Y-9784209D01*
X15433499Y-9789837D01*
X15433499Y-9789837D01*
X15444372Y-9792750D01*
X15444372Y-9792750D01*
X15455628Y-9792750D01*
X15455628Y-9792750D01*
X15466501Y-9789837D01*
X15476249Y-9784209D01*
X15484208Y-9776249D01*
X15489837Y-9766501D01*
X15492750Y-9755628D01*
X15492750Y-9744372D01*
X15557250Y-9744372D01*
X15557250Y-9755628D01*
X15557250Y-9755629D01*
X15560163Y-9766501D01*
X15560163Y-9766501D01*
X15565791Y-9776249D01*
X15565792Y-9776250D01*
X15573750Y-9784208D01*
X15573751Y-9784209D01*
X15583499Y-9789837D01*
X15583499Y-9789837D01*
X15594372Y-9792750D01*
X15594372Y-9792750D01*
X15605628Y-9792750D01*
X15605628Y-9792750D01*
X15616501Y-9789837D01*
X15626249Y-9784209D01*
X15634208Y-9776249D01*
X15639837Y-9766501D01*
X15642750Y-9755628D01*
X15642750Y-9744372D01*
X15639837Y-9733499D01*
X15639837Y-9733499D01*
X15634208Y-9723751D01*
X15634208Y-9723750D01*
X15626250Y-9715792D01*
X15626249Y-9715791D01*
X15616501Y-9710163D01*
X15616501Y-9710163D01*
X15605629Y-9707250D01*
X15605628Y-9707250D01*
X15605628Y-9707250D01*
X15594372Y-9707250D01*
X15594372Y-9707250D01*
X15594371Y-9707250D01*
X15583499Y-9710163D01*
X15583499Y-9710163D01*
X15573751Y-9715791D01*
X15573750Y-9715792D01*
X15565792Y-9723750D01*
X15565791Y-9723751D01*
X15560163Y-9733499D01*
X15560163Y-9733499D01*
X15557250Y-9744371D01*
X15557250Y-9744372D01*
X15492750Y-9744372D01*
X15492750Y-9744372D01*
X15489837Y-9733499D01*
X15489837Y-9733499D01*
X15484208Y-9723751D01*
X15484208Y-9723750D01*
X15476250Y-9715792D01*
X15476249Y-9715791D01*
X15466501Y-9710163D01*
X15466501Y-9710163D01*
X15455629Y-9707250D01*
X15455628Y-9707250D01*
X15455628Y-9707250D01*
X15444372Y-9707250D01*
X15444372Y-9707250D01*
X15444371Y-9707250D01*
X15433499Y-9710163D01*
X15433499Y-9710163D01*
X15423751Y-9715791D01*
X15423750Y-9715792D01*
X15415792Y-9723750D01*
X15415791Y-9723751D01*
X15410163Y-9733499D01*
X15410163Y-9733499D01*
X15407250Y-9744371D01*
X15407250Y-9744372D01*
X14442750Y-9744372D01*
X14442750Y-9744372D01*
X14439837Y-9733499D01*
X14439837Y-9733499D01*
X14434208Y-9723751D01*
X14434208Y-9723750D01*
X14426250Y-9715792D01*
X14426249Y-9715791D01*
X14416501Y-9710163D01*
X14416501Y-9710163D01*
X14405629Y-9707250D01*
X14405628Y-9707250D01*
X14405628Y-9707250D01*
X14394372Y-9707250D01*
X14394372Y-9707250D01*
X14394371Y-9707250D01*
X14383499Y-9710163D01*
X14383499Y-9710163D01*
X14373751Y-9715791D01*
X14373750Y-9715792D01*
X14365792Y-9723750D01*
X14365791Y-9723751D01*
X14360163Y-9733499D01*
X14360163Y-9733499D01*
X14357250Y-9744371D01*
X14357250Y-9744372D01*
X13142750Y-9744372D01*
X13142750Y-9744372D01*
X13139837Y-9733499D01*
X13139837Y-9733499D01*
X13134208Y-9723751D01*
X13134208Y-9723750D01*
X13126250Y-9715792D01*
X13126249Y-9715791D01*
X13116501Y-9710163D01*
X13116501Y-9710163D01*
X13105629Y-9707250D01*
X13105628Y-9707250D01*
X13105628Y-9707250D01*
X13094372Y-9707250D01*
X13094372Y-9707250D01*
X13094371Y-9707250D01*
X13083499Y-9710163D01*
X13083499Y-9710163D01*
X13073751Y-9715791D01*
X13073750Y-9715792D01*
X13065792Y-9723750D01*
X13065791Y-9723751D01*
X13060163Y-9733499D01*
X13060163Y-9733499D01*
X13057250Y-9744371D01*
X13057250Y-9744372D01*
X11507670Y-9744372D01*
X11507670Y-9694372D01*
X13757250Y-9694372D01*
X13757250Y-9705628D01*
X13757250Y-9705629D01*
X13760163Y-9716501D01*
X13760163Y-9716501D01*
X13765791Y-9726249D01*
X13765792Y-9726250D01*
X13773750Y-9734208D01*
X13773751Y-9734209D01*
X13783499Y-9739837D01*
X13783499Y-9739837D01*
X13794372Y-9742750D01*
X13794372Y-9742750D01*
X13805628Y-9742750D01*
X13805628Y-9742750D01*
X13816501Y-9739837D01*
X13818730Y-9738550D01*
X13818730Y-9738550D01*
X13822071Y-9736621D01*
X13826249Y-9734209D01*
X13834208Y-9726249D01*
X13839837Y-9716501D01*
X13842750Y-9705628D01*
X13842750Y-9694372D01*
X13839837Y-9683499D01*
X13839837Y-9683499D01*
X13834208Y-9673751D01*
X13834208Y-9673750D01*
X13826250Y-9665792D01*
X13826249Y-9665791D01*
X13816501Y-9660163D01*
X13816501Y-9660163D01*
X13805629Y-9657250D01*
X13805628Y-9657250D01*
X13805628Y-9657250D01*
X13794372Y-9657250D01*
X13794372Y-9657250D01*
X13794371Y-9657250D01*
X13783499Y-9660163D01*
X13783499Y-9660163D01*
X13773751Y-9665791D01*
X13773750Y-9665792D01*
X13765792Y-9673750D01*
X13765791Y-9673751D01*
X13760163Y-9683499D01*
X13760163Y-9683499D01*
X13757250Y-9694371D01*
X13757250Y-9694372D01*
X11507670Y-9694372D01*
X11507670Y-9644372D01*
X14407250Y-9644372D01*
X14407250Y-9655628D01*
X14407250Y-9655629D01*
X14410163Y-9666501D01*
X14410163Y-9666501D01*
X14415791Y-9676249D01*
X14415792Y-9676250D01*
X14423750Y-9684208D01*
X14423751Y-9684209D01*
X14433499Y-9689837D01*
X14433499Y-9689837D01*
X14444372Y-9692750D01*
X14444372Y-9692750D01*
X14455628Y-9692750D01*
X14455628Y-9692750D01*
X14466501Y-9689837D01*
X14476249Y-9684209D01*
X14484208Y-9676249D01*
X14489837Y-9666501D01*
X14492750Y-9655628D01*
X14492750Y-9644372D01*
X14489837Y-9633499D01*
X14489837Y-9633499D01*
X14484208Y-9623751D01*
X14484208Y-9623750D01*
X14476250Y-9615792D01*
X14476249Y-9615791D01*
X14466501Y-9610163D01*
X14466501Y-9610163D01*
X14455629Y-9607250D01*
X14455628Y-9607250D01*
X14455628Y-9607250D01*
X14444372Y-9607250D01*
X14444372Y-9607250D01*
X14444371Y-9607250D01*
X14433499Y-9610163D01*
X14433499Y-9610163D01*
X14423751Y-9615791D01*
X14423750Y-9615792D01*
X14415792Y-9623750D01*
X14415791Y-9623751D01*
X14410163Y-9633499D01*
X14410163Y-9633499D01*
X14407250Y-9644371D01*
X14407250Y-9644372D01*
X11507670Y-9644372D01*
X11507670Y-9594372D01*
X13757250Y-9594372D01*
X13757250Y-9605628D01*
X13757250Y-9605629D01*
X13760163Y-9616501D01*
X13760163Y-9616501D01*
X13765791Y-9626249D01*
X13765792Y-9626250D01*
X13773750Y-9634208D01*
X13773751Y-9634209D01*
X13783499Y-9639837D01*
X13783499Y-9639837D01*
X13794372Y-9642750D01*
X13794372Y-9642750D01*
X13805628Y-9642750D01*
X13805628Y-9642750D01*
X13816501Y-9639837D01*
X13818730Y-9638550D01*
X13818730Y-9638550D01*
X13822071Y-9636621D01*
X13826249Y-9634209D01*
X13834208Y-9626249D01*
X13839837Y-9616501D01*
X13842750Y-9605628D01*
X13842750Y-9594372D01*
X16157250Y-9594372D01*
X16157250Y-9605628D01*
X16157250Y-9605629D01*
X16160163Y-9616501D01*
X16160163Y-9616501D01*
X16165791Y-9626249D01*
X16165792Y-9626250D01*
X16173750Y-9634208D01*
X16173751Y-9634209D01*
X16183499Y-9639837D01*
X16183499Y-9639837D01*
X16194372Y-9642750D01*
X16194372Y-9642750D01*
X16205628Y-9642750D01*
X16205628Y-9642750D01*
X16216501Y-9639837D01*
X16226249Y-9634209D01*
X16234208Y-9626249D01*
X16239837Y-9616501D01*
X16242750Y-9605628D01*
X16242750Y-9594372D01*
X16239837Y-9583499D01*
X16239837Y-9583499D01*
X16234208Y-9573751D01*
X16234208Y-9573750D01*
X16226250Y-9565792D01*
X16226249Y-9565791D01*
X16216501Y-9560163D01*
X16216501Y-9560163D01*
X16205629Y-9557250D01*
X16205628Y-9557250D01*
X16205628Y-9557250D01*
X16194372Y-9557250D01*
X16194372Y-9557250D01*
X16194371Y-9557250D01*
X16183499Y-9560163D01*
X16183499Y-9560163D01*
X16173751Y-9565791D01*
X16173750Y-9565792D01*
X16165792Y-9573750D01*
X16165791Y-9573751D01*
X16160163Y-9583499D01*
X16160163Y-9583499D01*
X16157250Y-9594371D01*
X16157250Y-9594372D01*
X13842750Y-9594372D01*
X13842750Y-9594372D01*
X13839837Y-9583499D01*
X13839837Y-9583499D01*
X13834208Y-9573751D01*
X13834208Y-9573750D01*
X13826250Y-9565792D01*
X13826249Y-9565791D01*
X13816501Y-9560163D01*
X13816501Y-9560163D01*
X13805629Y-9557250D01*
X13805628Y-9557250D01*
X13805628Y-9557250D01*
X13794372Y-9557250D01*
X13794372Y-9557250D01*
X13794371Y-9557250D01*
X13783499Y-9560163D01*
X13783499Y-9560163D01*
X13773751Y-9565791D01*
X13773750Y-9565792D01*
X13765792Y-9573750D01*
X13765791Y-9573751D01*
X13760163Y-9583499D01*
X13760163Y-9583499D01*
X13757250Y-9594371D01*
X13757250Y-9594372D01*
X11507670Y-9594372D01*
X11507670Y-9544372D01*
X14457250Y-9544372D01*
X14457250Y-9555628D01*
X14457250Y-9555629D01*
X14460163Y-9566501D01*
X14460163Y-9566501D01*
X14465791Y-9576249D01*
X14465792Y-9576250D01*
X14473750Y-9584208D01*
X14473751Y-9584209D01*
X14483499Y-9589837D01*
X14483499Y-9589837D01*
X14494372Y-9592750D01*
X14494372Y-9592750D01*
X14505628Y-9592750D01*
X14505628Y-9592750D01*
X14516501Y-9589837D01*
X14518730Y-9588550D01*
X14518730Y-9588550D01*
X14522071Y-9586621D01*
X14526249Y-9584209D01*
X14534208Y-9576249D01*
X14539837Y-9566501D01*
X14542750Y-9555628D01*
X14542750Y-9544372D01*
X14539837Y-9533499D01*
X14539837Y-9533499D01*
X14534208Y-9523751D01*
X14534208Y-9523750D01*
X14526250Y-9515792D01*
X14526249Y-9515791D01*
X14516501Y-9510163D01*
X14516501Y-9510163D01*
X14505629Y-9507250D01*
X14505628Y-9507250D01*
X14505628Y-9507250D01*
X14494372Y-9507250D01*
X14494372Y-9507250D01*
X14494371Y-9507250D01*
X14483499Y-9510163D01*
X14483499Y-9510163D01*
X14473751Y-9515791D01*
X14473750Y-9515792D01*
X14465792Y-9523750D01*
X14465791Y-9523751D01*
X14460163Y-9533499D01*
X14460163Y-9533499D01*
X14457250Y-9544371D01*
X14457250Y-9544372D01*
X11507670Y-9544372D01*
X11507670Y-9494372D01*
X15907250Y-9494372D01*
X15907250Y-9505628D01*
X15907250Y-9505629D01*
X15910163Y-9516501D01*
X15910163Y-9516501D01*
X15915791Y-9526249D01*
X15915792Y-9526250D01*
X15923750Y-9534208D01*
X15923751Y-9534209D01*
X15933499Y-9539837D01*
X15933499Y-9539837D01*
X15944372Y-9542750D01*
X15944372Y-9542750D01*
X15955628Y-9542750D01*
X15955628Y-9542750D01*
X15966501Y-9539837D01*
X15976249Y-9534209D01*
X15984208Y-9526249D01*
X15989837Y-9516501D01*
X15992750Y-9505628D01*
X15992750Y-9494372D01*
X16157250Y-9494372D01*
X16157250Y-9505628D01*
X16157250Y-9505629D01*
X16160163Y-9516501D01*
X16160163Y-9516501D01*
X16165791Y-9526249D01*
X16165792Y-9526250D01*
X16173750Y-9534208D01*
X16173751Y-9534209D01*
X16183499Y-9539837D01*
X16183499Y-9539837D01*
X16194372Y-9542750D01*
X16194372Y-9542750D01*
X16205628Y-9542750D01*
X16205628Y-9542750D01*
X16216501Y-9539837D01*
X16226249Y-9534209D01*
X16234208Y-9526249D01*
X16239837Y-9516501D01*
X16242750Y-9505628D01*
X16242750Y-9494372D01*
X16239837Y-9483499D01*
X16239837Y-9483499D01*
X16234208Y-9473751D01*
X16234208Y-9473750D01*
X16226250Y-9465792D01*
X16226249Y-9465791D01*
X16216501Y-9460163D01*
X16216501Y-9460163D01*
X16205629Y-9457250D01*
X16205628Y-9457250D01*
X16205628Y-9457250D01*
X16194372Y-9457250D01*
X16194372Y-9457250D01*
X16194371Y-9457250D01*
X16183499Y-9460163D01*
X16183499Y-9460163D01*
X16173751Y-9465791D01*
X16173750Y-9465792D01*
X16165792Y-9473750D01*
X16165791Y-9473751D01*
X16160163Y-9483499D01*
X16160163Y-9483499D01*
X16157250Y-9494371D01*
X16157250Y-9494372D01*
X15992750Y-9494372D01*
X15992750Y-9494372D01*
X15989837Y-9483499D01*
X15989837Y-9483499D01*
X15984208Y-9473751D01*
X15984208Y-9473750D01*
X15976250Y-9465792D01*
X15976249Y-9465791D01*
X15966501Y-9460163D01*
X15966501Y-9460163D01*
X15955629Y-9457250D01*
X15955628Y-9457250D01*
X15955628Y-9457250D01*
X15944372Y-9457250D01*
X15944372Y-9457250D01*
X15944371Y-9457250D01*
X15933499Y-9460163D01*
X15933499Y-9460163D01*
X15923751Y-9465791D01*
X15923750Y-9465792D01*
X15915792Y-9473750D01*
X15915791Y-9473751D01*
X15910163Y-9483499D01*
X15910163Y-9483499D01*
X15907250Y-9494371D01*
X15907250Y-9494372D01*
X11507670Y-9494372D01*
X11507670Y-9444372D01*
X18207250Y-9444372D01*
X18207250Y-9455628D01*
X18207250Y-9455629D01*
X18210163Y-9466501D01*
X18210163Y-9466501D01*
X18215791Y-9476249D01*
X18215792Y-9476250D01*
X18223750Y-9484208D01*
X18223751Y-9484209D01*
X18233499Y-9489837D01*
X18233499Y-9489837D01*
X18244372Y-9492750D01*
X18244372Y-9492750D01*
X18255628Y-9492750D01*
X18255628Y-9492750D01*
X18266501Y-9489837D01*
X18276249Y-9484209D01*
X18284209Y-9476249D01*
X18289837Y-9466501D01*
X18292750Y-9455628D01*
X18292750Y-9444372D01*
X18289837Y-9433499D01*
X18289837Y-9433499D01*
X18284209Y-9423751D01*
X18284208Y-9423750D01*
X18276250Y-9415792D01*
X18276249Y-9415791D01*
X18266501Y-9410163D01*
X18266501Y-9410163D01*
X18255629Y-9407250D01*
X18255628Y-9407250D01*
X18255628Y-9407250D01*
X18244372Y-9407250D01*
X18244372Y-9407250D01*
X18244371Y-9407250D01*
X18233499Y-9410163D01*
X18233499Y-9410163D01*
X18223751Y-9415791D01*
X18223750Y-9415792D01*
X18215792Y-9423750D01*
X18215791Y-9423751D01*
X18210163Y-9433499D01*
X18210163Y-9433499D01*
X18207250Y-9444371D01*
X18207250Y-9444372D01*
X11507670Y-9444372D01*
X11507670Y-9394372D01*
X15907250Y-9394372D01*
X15907250Y-9405628D01*
X15907250Y-9405629D01*
X15910163Y-9416501D01*
X15910163Y-9416501D01*
X15915791Y-9426249D01*
X15915792Y-9426250D01*
X15923750Y-9434208D01*
X15923751Y-9434209D01*
X15933499Y-9439837D01*
X15933499Y-9439837D01*
X15944372Y-9442750D01*
X15944372Y-9442750D01*
X15955628Y-9442750D01*
X15955628Y-9442750D01*
X15966501Y-9439837D01*
X15976249Y-9434209D01*
X15984208Y-9426249D01*
X15989837Y-9416501D01*
X15992750Y-9405628D01*
X15992750Y-9394372D01*
X16157250Y-9394372D01*
X16157250Y-9405628D01*
X16157250Y-9405629D01*
X16160163Y-9416501D01*
X16160163Y-9416501D01*
X16165791Y-9426249D01*
X16165792Y-9426250D01*
X16173750Y-9434208D01*
X16173751Y-9434209D01*
X16183499Y-9439837D01*
X16183499Y-9439837D01*
X16194372Y-9442750D01*
X16194372Y-9442750D01*
X16205628Y-9442750D01*
X16205628Y-9442750D01*
X16216501Y-9439837D01*
X16218730Y-9438550D01*
X16218730Y-9438550D01*
X16222071Y-9436621D01*
X16226249Y-9434209D01*
X16234208Y-9426249D01*
X16239837Y-9416501D01*
X16242750Y-9405628D01*
X16242750Y-9394372D01*
X16239837Y-9383499D01*
X16239837Y-9383499D01*
X16234208Y-9373751D01*
X16234208Y-9373750D01*
X16226250Y-9365792D01*
X16226249Y-9365791D01*
X16216501Y-9360163D01*
X16216501Y-9360163D01*
X16205629Y-9357250D01*
X16205628Y-9357250D01*
X16205628Y-9357250D01*
X16194372Y-9357250D01*
X16194372Y-9357250D01*
X16194371Y-9357250D01*
X16183499Y-9360163D01*
X16183499Y-9360163D01*
X16173751Y-9365791D01*
X16173750Y-9365792D01*
X16165792Y-9373750D01*
X16165791Y-9373751D01*
X16160163Y-9383499D01*
X16160163Y-9383499D01*
X16157250Y-9394371D01*
X16157250Y-9394372D01*
X15992750Y-9394372D01*
X15992750Y-9394372D01*
X15989837Y-9383499D01*
X15989837Y-9383499D01*
X15984208Y-9373751D01*
X15984208Y-9373750D01*
X15976250Y-9365792D01*
X15976249Y-9365791D01*
X15966501Y-9360163D01*
X15966501Y-9360163D01*
X15955629Y-9357250D01*
X15955628Y-9357250D01*
X15955628Y-9357250D01*
X15944372Y-9357250D01*
X15944372Y-9357250D01*
X15944371Y-9357250D01*
X15933499Y-9360163D01*
X15933499Y-9360163D01*
X15923751Y-9365791D01*
X15923750Y-9365792D01*
X15915792Y-9373750D01*
X15915791Y-9373751D01*
X15910163Y-9383499D01*
X15910163Y-9383499D01*
X15907250Y-9394371D01*
X15907250Y-9394372D01*
X11507670Y-9394372D01*
X11507670Y-9344372D01*
X14157250Y-9344372D01*
X14157250Y-9355628D01*
X14157250Y-9355629D01*
X14160163Y-9366501D01*
X14160163Y-9366501D01*
X14165791Y-9376249D01*
X14165792Y-9376250D01*
X14173750Y-9384208D01*
X14173751Y-9384209D01*
X14183499Y-9389837D01*
X14183499Y-9389837D01*
X14194372Y-9392750D01*
X14194372Y-9392750D01*
X14205628Y-9392750D01*
X14205628Y-9392750D01*
X14216501Y-9389837D01*
X14218730Y-9388550D01*
X14218730Y-9388550D01*
X14222071Y-9386621D01*
X14226249Y-9384209D01*
X14234208Y-9376249D01*
X14239837Y-9366501D01*
X14242750Y-9355628D01*
X14242750Y-9344372D01*
X14239837Y-9333499D01*
X14239837Y-9333499D01*
X14234208Y-9323751D01*
X14234208Y-9323750D01*
X14226250Y-9315792D01*
X14226249Y-9315791D01*
X14216501Y-9310163D01*
X14216501Y-9310163D01*
X14205629Y-9307250D01*
X14205628Y-9307250D01*
X14205628Y-9307250D01*
X14194372Y-9307250D01*
X14194372Y-9307250D01*
X14194371Y-9307250D01*
X14183499Y-9310163D01*
X14183499Y-9310163D01*
X14173751Y-9315791D01*
X14173750Y-9315792D01*
X14165792Y-9323750D01*
X14165791Y-9323751D01*
X14160163Y-9333499D01*
X14160163Y-9333499D01*
X14157250Y-9344371D01*
X14157250Y-9344372D01*
X11507670Y-9344372D01*
X11507670Y-9144372D01*
X14057250Y-9144372D01*
X14057250Y-9155628D01*
X14057250Y-9155629D01*
X14060163Y-9166501D01*
X14060163Y-9166501D01*
X14065791Y-9176249D01*
X14065792Y-9176250D01*
X14073750Y-9184208D01*
X14073751Y-9184209D01*
X14083499Y-9189837D01*
X14083499Y-9189837D01*
X14094372Y-9192750D01*
X14094372Y-9192750D01*
X14105628Y-9192750D01*
X14105628Y-9192750D01*
X14116501Y-9189837D01*
X14126249Y-9184209D01*
X14134208Y-9176249D01*
X14139837Y-9166501D01*
X14142750Y-9155628D01*
X14142750Y-9144372D01*
X14139837Y-9133499D01*
X14139837Y-9133499D01*
X14134208Y-9123751D01*
X14134208Y-9123750D01*
X14126250Y-9115792D01*
X14126249Y-9115791D01*
X14116501Y-9110163D01*
X14116501Y-9110163D01*
X14105629Y-9107250D01*
X14105628Y-9107250D01*
X14105628Y-9107250D01*
X14094372Y-9107250D01*
X14094372Y-9107250D01*
X14094371Y-9107250D01*
X14083499Y-9110163D01*
X14083499Y-9110163D01*
X14073751Y-9115791D01*
X14073750Y-9115792D01*
X14065792Y-9123750D01*
X14065791Y-9123751D01*
X14060163Y-9133499D01*
X14060163Y-9133499D01*
X14057250Y-9144371D01*
X14057250Y-9144372D01*
X11507670Y-9144372D01*
X11507670Y-9074872D01*
X14371750Y-9074872D01*
X14371750Y-9086128D01*
X14371750Y-9086129D01*
X14374663Y-9097001D01*
X14374663Y-9097001D01*
X14380291Y-9106749D01*
X14380292Y-9106750D01*
X14388250Y-9114708D01*
X14388251Y-9114709D01*
X14397999Y-9120337D01*
X14397999Y-9120337D01*
X14408872Y-9123250D01*
X14408872Y-9123250D01*
X14420128Y-9123250D01*
X14420128Y-9123250D01*
X14431001Y-9120337D01*
X14440749Y-9114709D01*
X14448708Y-9106749D01*
X14454337Y-9097001D01*
X14457250Y-9086128D01*
X14457250Y-9074872D01*
X14454337Y-9063999D01*
X14454337Y-9063999D01*
X14448708Y-9054251D01*
X14448708Y-9054250D01*
X14440750Y-9046292D01*
X14440749Y-9046291D01*
X14431001Y-9040663D01*
X14431001Y-9040663D01*
X14420129Y-9037750D01*
X14420128Y-9037750D01*
X14420128Y-9037750D01*
X14408872Y-9037750D01*
X14408872Y-9037750D01*
X14408871Y-9037750D01*
X14397999Y-9040663D01*
X14397999Y-9040663D01*
X14388251Y-9046291D01*
X14388250Y-9046292D01*
X14380292Y-9054250D01*
X14380291Y-9054251D01*
X14374663Y-9063999D01*
X14374663Y-9063999D01*
X14371750Y-9074871D01*
X14371750Y-9074872D01*
X11507670Y-9074872D01*
X11507670Y-9011372D01*
X15514750Y-9011372D01*
X15514750Y-9022628D01*
X15514750Y-9022629D01*
X15517663Y-9033501D01*
X15517663Y-9033501D01*
X15523291Y-9043249D01*
X15523292Y-9043250D01*
X15531250Y-9051208D01*
X15531251Y-9051209D01*
X15540999Y-9056837D01*
X15540999Y-9056837D01*
X15551872Y-9059750D01*
X15551872Y-9059750D01*
X15563128Y-9059750D01*
X15563128Y-9059750D01*
X15563129Y-9059750D01*
X15563865Y-9059553D01*
X15573329Y-9057017D01*
X15578071Y-9057641D01*
X15580983Y-9061436D01*
X15580983Y-9064671D01*
X15578250Y-9074871D01*
X15578250Y-9074872D01*
X15578250Y-9086128D01*
X15578250Y-9086129D01*
X15581163Y-9097001D01*
X15581163Y-9097001D01*
X15586791Y-9106749D01*
X15586792Y-9106750D01*
X15594750Y-9114708D01*
X15594751Y-9114709D01*
X15604499Y-9120337D01*
X15604499Y-9120337D01*
X15615372Y-9123250D01*
X15615372Y-9123250D01*
X15626628Y-9123250D01*
X15626628Y-9123250D01*
X15626629Y-9123250D01*
X15627365Y-9123053D01*
X15636829Y-9120517D01*
X15641571Y-9121141D01*
X15644483Y-9124936D01*
X15644483Y-9128171D01*
X15641750Y-9138371D01*
X15641750Y-9138372D01*
X15641750Y-9149628D01*
X15641750Y-9149629D01*
X15644663Y-9160501D01*
X15644663Y-9160501D01*
X15650291Y-9170249D01*
X15650292Y-9170250D01*
X15658250Y-9178208D01*
X15658251Y-9178209D01*
X15667999Y-9183837D01*
X15667999Y-9183837D01*
X15678872Y-9186750D01*
X15678872Y-9186750D01*
X15690128Y-9186750D01*
X15690128Y-9186750D01*
X15690129Y-9186750D01*
X15690865Y-9186553D01*
X15700329Y-9184017D01*
X15705071Y-9184641D01*
X15707983Y-9188436D01*
X15707983Y-9191671D01*
X15705250Y-9201871D01*
X15705250Y-9201872D01*
X15705250Y-9213128D01*
X15705250Y-9213129D01*
X15708163Y-9224001D01*
X15708163Y-9224001D01*
X15713791Y-9233749D01*
X15713792Y-9233750D01*
X15721750Y-9241708D01*
X15721751Y-9241709D01*
X15731499Y-9247337D01*
X15731499Y-9247337D01*
X15742372Y-9250250D01*
X15742372Y-9250250D01*
X15753628Y-9250250D01*
X15753628Y-9250250D01*
X15753629Y-9250250D01*
X15754365Y-9250053D01*
X15763829Y-9247517D01*
X15768571Y-9248141D01*
X15771483Y-9251936D01*
X15771483Y-9255171D01*
X15768750Y-9265371D01*
X15768750Y-9265372D01*
X15768750Y-9276628D01*
X15768750Y-9276629D01*
X15771663Y-9287501D01*
X15771663Y-9287501D01*
X15777291Y-9297249D01*
X15777292Y-9297250D01*
X15785250Y-9305208D01*
X15785251Y-9305209D01*
X15794999Y-9310837D01*
X15794999Y-9310837D01*
X15805872Y-9313750D01*
X15805872Y-9313750D01*
X15817128Y-9313750D01*
X15817128Y-9313750D01*
X15828001Y-9310837D01*
X15829167Y-9310163D01*
X15830061Y-9309647D01*
X15837749Y-9305209D01*
X15845708Y-9297249D01*
X15847370Y-9294372D01*
X15907250Y-9294372D01*
X15907250Y-9305628D01*
X15907250Y-9305629D01*
X15910163Y-9316501D01*
X15910163Y-9316501D01*
X15915791Y-9326249D01*
X15915792Y-9326250D01*
X15923750Y-9334208D01*
X15923751Y-9334209D01*
X15933499Y-9339837D01*
X15933499Y-9339837D01*
X15944372Y-9342750D01*
X15944372Y-9342750D01*
X15955628Y-9342750D01*
X15955628Y-9342750D01*
X15966501Y-9339837D01*
X15976249Y-9334209D01*
X15984208Y-9326249D01*
X15989837Y-9316501D01*
X15992750Y-9305628D01*
X15992750Y-9294372D01*
X16157250Y-9294372D01*
X16157250Y-9305628D01*
X16157250Y-9305629D01*
X16160163Y-9316501D01*
X16160163Y-9316501D01*
X16165791Y-9326249D01*
X16165792Y-9326250D01*
X16173750Y-9334208D01*
X16173751Y-9334209D01*
X16183499Y-9339837D01*
X16183499Y-9339837D01*
X16194372Y-9342750D01*
X16194372Y-9342750D01*
X16205628Y-9342750D01*
X16205628Y-9342750D01*
X16216501Y-9339837D01*
X16226249Y-9334209D01*
X16234208Y-9326249D01*
X16239837Y-9316501D01*
X16242750Y-9305628D01*
X16242750Y-9294372D01*
X18207250Y-9294372D01*
X18207250Y-9305628D01*
X18207250Y-9305629D01*
X18210163Y-9316501D01*
X18210163Y-9316501D01*
X18215791Y-9326249D01*
X18215792Y-9326250D01*
X18223750Y-9334208D01*
X18223751Y-9334209D01*
X18233499Y-9339837D01*
X18233499Y-9339837D01*
X18244372Y-9342750D01*
X18244372Y-9342750D01*
X18255628Y-9342750D01*
X18255628Y-9342750D01*
X18266501Y-9339837D01*
X18276249Y-9334209D01*
X18284209Y-9326249D01*
X18289837Y-9316501D01*
X18292750Y-9305628D01*
X18292750Y-9294372D01*
X18289837Y-9283499D01*
X18289837Y-9283499D01*
X18284209Y-9273751D01*
X18284208Y-9273750D01*
X18276250Y-9265792D01*
X18276249Y-9265791D01*
X18266501Y-9260163D01*
X18266501Y-9260163D01*
X18255629Y-9257250D01*
X18255628Y-9257250D01*
X18255628Y-9257250D01*
X18244372Y-9257250D01*
X18244372Y-9257250D01*
X18244371Y-9257250D01*
X18233499Y-9260163D01*
X18233499Y-9260163D01*
X18223751Y-9265791D01*
X18223750Y-9265792D01*
X18215792Y-9273750D01*
X18215791Y-9273751D01*
X18210163Y-9283499D01*
X18210163Y-9283499D01*
X18207250Y-9294371D01*
X18207250Y-9294372D01*
X16242750Y-9294372D01*
X16242750Y-9294372D01*
X16239837Y-9283499D01*
X16239837Y-9283499D01*
X16234208Y-9273751D01*
X16234208Y-9273750D01*
X16226250Y-9265792D01*
X16226249Y-9265791D01*
X16216501Y-9260163D01*
X16216501Y-9260163D01*
X16205629Y-9257250D01*
X16205628Y-9257250D01*
X16205628Y-9257250D01*
X16194372Y-9257250D01*
X16194372Y-9257250D01*
X16194371Y-9257250D01*
X16183499Y-9260163D01*
X16183499Y-9260163D01*
X16173751Y-9265791D01*
X16173750Y-9265792D01*
X16165792Y-9273750D01*
X16165791Y-9273751D01*
X16160163Y-9283499D01*
X16160163Y-9283499D01*
X16157250Y-9294371D01*
X16157250Y-9294372D01*
X15992750Y-9294372D01*
X15992750Y-9294372D01*
X15989837Y-9283499D01*
X15989837Y-9283499D01*
X15984208Y-9273751D01*
X15984208Y-9273750D01*
X15976250Y-9265792D01*
X15976249Y-9265791D01*
X15966501Y-9260163D01*
X15966501Y-9260163D01*
X15955629Y-9257250D01*
X15955628Y-9257250D01*
X15955628Y-9257250D01*
X15944372Y-9257250D01*
X15944372Y-9257250D01*
X15944371Y-9257250D01*
X15933499Y-9260163D01*
X15933499Y-9260163D01*
X15923751Y-9265791D01*
X15923750Y-9265792D01*
X15915792Y-9273750D01*
X15915791Y-9273751D01*
X15910163Y-9283499D01*
X15910163Y-9283499D01*
X15907250Y-9294371D01*
X15907250Y-9294372D01*
X15847370Y-9294372D01*
X15849410Y-9290837D01*
X15849411Y-9290837D01*
X15851336Y-9287501D01*
X15851337Y-9287501D01*
X15851337Y-9287501D01*
X15854250Y-9276628D01*
X15854250Y-9265372D01*
X15851337Y-9254499D01*
X15851337Y-9254499D01*
X15845708Y-9244751D01*
X15845708Y-9244750D01*
X15837750Y-9236792D01*
X15837749Y-9236791D01*
X15828001Y-9231163D01*
X15828001Y-9231163D01*
X15817129Y-9228250D01*
X15817128Y-9228250D01*
X15817128Y-9228250D01*
X15805872Y-9228250D01*
X15805872Y-9228250D01*
X15805871Y-9228250D01*
X15795671Y-9230983D01*
X15790929Y-9230359D01*
X15788017Y-9226564D01*
X15788017Y-9223329D01*
X15790750Y-9213128D01*
X15790750Y-9201872D01*
X15788740Y-9194372D01*
X15907250Y-9194372D01*
X15907250Y-9205628D01*
X15907250Y-9205629D01*
X15910163Y-9216501D01*
X15910163Y-9216501D01*
X15915791Y-9226249D01*
X15915792Y-9226250D01*
X15923750Y-9234208D01*
X15923751Y-9234209D01*
X15933499Y-9239837D01*
X15933499Y-9239837D01*
X15944372Y-9242750D01*
X15944372Y-9242750D01*
X15955628Y-9242750D01*
X15955628Y-9242750D01*
X15966501Y-9239837D01*
X15976249Y-9234209D01*
X15984208Y-9226249D01*
X15989837Y-9216501D01*
X15992750Y-9205628D01*
X15992750Y-9194372D01*
X15989837Y-9183499D01*
X15989837Y-9183499D01*
X15984208Y-9173751D01*
X15984208Y-9173750D01*
X15976250Y-9165792D01*
X15976249Y-9165791D01*
X15966501Y-9160163D01*
X15966501Y-9160163D01*
X15955629Y-9157250D01*
X15955628Y-9157250D01*
X15955628Y-9157250D01*
X15944372Y-9157250D01*
X15944372Y-9157250D01*
X15944371Y-9157250D01*
X15933499Y-9160163D01*
X15933499Y-9160163D01*
X15923751Y-9165791D01*
X15923750Y-9165792D01*
X15915792Y-9173750D01*
X15915791Y-9173751D01*
X15910163Y-9183499D01*
X15910163Y-9183499D01*
X15907250Y-9194371D01*
X15907250Y-9194372D01*
X15788740Y-9194372D01*
X15787837Y-9190999D01*
X15787836Y-9190999D01*
X15787836Y-9190999D01*
X15782208Y-9181251D01*
X15782208Y-9181250D01*
X15774250Y-9173292D01*
X15774249Y-9173291D01*
X15764501Y-9167663D01*
X15764501Y-9167663D01*
X15753629Y-9164750D01*
X15753628Y-9164750D01*
X15753628Y-9164750D01*
X15742372Y-9164750D01*
X15742372Y-9164750D01*
X15742371Y-9164750D01*
X15732171Y-9167483D01*
X15727429Y-9166859D01*
X15724517Y-9163064D01*
X15724517Y-9159829D01*
X15727250Y-9149628D01*
X15727250Y-9138372D01*
X15724337Y-9127499D01*
X15724337Y-9127499D01*
X15718708Y-9117751D01*
X15718708Y-9117750D01*
X15710750Y-9109792D01*
X15710749Y-9109791D01*
X15701001Y-9104163D01*
X15701001Y-9104163D01*
X15690129Y-9101250D01*
X15690128Y-9101250D01*
X15690128Y-9101250D01*
X15678872Y-9101250D01*
X15678872Y-9101250D01*
X15678871Y-9101250D01*
X15668671Y-9103983D01*
X15663929Y-9103359D01*
X15661017Y-9099564D01*
X15661017Y-9096329D01*
X15663750Y-9086128D01*
X15663750Y-9074872D01*
X15660837Y-9063999D01*
X15660837Y-9063999D01*
X15655208Y-9054251D01*
X15655208Y-9054250D01*
X15647250Y-9046292D01*
X15647249Y-9046291D01*
X15637501Y-9040663D01*
X15637501Y-9040663D01*
X15626629Y-9037750D01*
X15626628Y-9037750D01*
X15626628Y-9037750D01*
X15615372Y-9037750D01*
X15615372Y-9037750D01*
X15615371Y-9037750D01*
X15605171Y-9040483D01*
X15600429Y-9039859D01*
X15597517Y-9036064D01*
X15597517Y-9032829D01*
X15600250Y-9022628D01*
X15600250Y-9011372D01*
X15597337Y-9000499D01*
X15597337Y-9000499D01*
X15591708Y-8990751D01*
X15591708Y-8990750D01*
X15583750Y-8982792D01*
X15583749Y-8982791D01*
X15574001Y-8977163D01*
X15574001Y-8977163D01*
X15563129Y-8974250D01*
X15563128Y-8974250D01*
X15563128Y-8974250D01*
X15551872Y-8974250D01*
X15551872Y-8974250D01*
X15551871Y-8974250D01*
X15540999Y-8977163D01*
X15540999Y-8977163D01*
X15531251Y-8982791D01*
X15531250Y-8982792D01*
X15523292Y-8990750D01*
X15523291Y-8990751D01*
X15517663Y-9000499D01*
X15517663Y-9000499D01*
X15514750Y-9011371D01*
X15514750Y-9011372D01*
X11507670Y-9011372D01*
X11507670Y-8944372D01*
X14307250Y-8944372D01*
X14307250Y-8955628D01*
X14307250Y-8955629D01*
X14310163Y-8966501D01*
X14310163Y-8966501D01*
X14315791Y-8976249D01*
X14315792Y-8976250D01*
X14323750Y-8984208D01*
X14323751Y-8984209D01*
X14333499Y-8989837D01*
X14333499Y-8989837D01*
X14344372Y-8992750D01*
X14344372Y-8992750D01*
X14355628Y-8992750D01*
X14355628Y-8992750D01*
X14366501Y-8989837D01*
X14376249Y-8984209D01*
X14384208Y-8976249D01*
X14389837Y-8966501D01*
X14392750Y-8955628D01*
X14392750Y-8944372D01*
X14389837Y-8933499D01*
X14389837Y-8933499D01*
X14384208Y-8923751D01*
X14384208Y-8923750D01*
X14376250Y-8915792D01*
X14376249Y-8915791D01*
X14366501Y-8910163D01*
X14366501Y-8910163D01*
X14355629Y-8907250D01*
X14355628Y-8907250D01*
X14355628Y-8907250D01*
X14344372Y-8907250D01*
X14344372Y-8907250D01*
X14344371Y-8907250D01*
X14333499Y-8910163D01*
X14333499Y-8910163D01*
X14323751Y-8915791D01*
X14323750Y-8915792D01*
X14315792Y-8923750D01*
X14315791Y-8923751D01*
X14310163Y-8933499D01*
X14310163Y-8933499D01*
X14307250Y-8944371D01*
X14307250Y-8944372D01*
X11507670Y-8944372D01*
X11507670Y-8884372D01*
X14498750Y-8884372D01*
X14498750Y-8895628D01*
X14498750Y-8895629D01*
X14501663Y-8906501D01*
X14501663Y-8906501D01*
X14507291Y-8916249D01*
X14507292Y-8916250D01*
X14515250Y-8924208D01*
X14515251Y-8924209D01*
X14524999Y-8929837D01*
X14524999Y-8929837D01*
X14535872Y-8932750D01*
X14535872Y-8932750D01*
X14547128Y-8932750D01*
X14547128Y-8932750D01*
X14558001Y-8929837D01*
X14567749Y-8924209D01*
X14575708Y-8916249D01*
X14580147Y-8908561D01*
X14581337Y-8906501D01*
X14581337Y-8906501D01*
X14584250Y-8895629D01*
X14584250Y-8895628D01*
X14584250Y-8884372D01*
X14584250Y-8884371D01*
X14581517Y-8874171D01*
X14582141Y-8869429D01*
X14585936Y-8866517D01*
X14589171Y-8866517D01*
X14599372Y-8869250D01*
X14599372Y-8869250D01*
X14610628Y-8869250D01*
X14610628Y-8869250D01*
X14621501Y-8866337D01*
X14631249Y-8860709D01*
X14639208Y-8852749D01*
X14644837Y-8843001D01*
X14647750Y-8832128D01*
X14647750Y-8820872D01*
X14645017Y-8810671D01*
X14645641Y-8805929D01*
X14649436Y-8803017D01*
X14652671Y-8803017D01*
X14662872Y-8805750D01*
X14662872Y-8805750D01*
X14674128Y-8805750D01*
X14674128Y-8805750D01*
X14685001Y-8802837D01*
X14694749Y-8797209D01*
X14702708Y-8789249D01*
X14708337Y-8779501D01*
X14711250Y-8768628D01*
X14711250Y-8757372D01*
X14708337Y-8746499D01*
X14708337Y-8746499D01*
X14702708Y-8736751D01*
X14702708Y-8736750D01*
X14694750Y-8728792D01*
X14694749Y-8728791D01*
X14685001Y-8723163D01*
X14685001Y-8723163D01*
X14674129Y-8720250D01*
X14674128Y-8720250D01*
X14674128Y-8720250D01*
X14662872Y-8720250D01*
X14662872Y-8720250D01*
X14662871Y-8720250D01*
X14651999Y-8723163D01*
X14651999Y-8723163D01*
X14642251Y-8728791D01*
X14642250Y-8728792D01*
X14634292Y-8736750D01*
X14634291Y-8736751D01*
X14628663Y-8746499D01*
X14628663Y-8746499D01*
X14625750Y-8757371D01*
X14625750Y-8757372D01*
X14625750Y-8768628D01*
X14625750Y-8768629D01*
X14628483Y-8778829D01*
X14627859Y-8783571D01*
X14624064Y-8786483D01*
X14620828Y-8786483D01*
X14610629Y-8783750D01*
X14610628Y-8783750D01*
X14610628Y-8783750D01*
X14599372Y-8783750D01*
X14599372Y-8783750D01*
X14599371Y-8783750D01*
X14588499Y-8786663D01*
X14588499Y-8786663D01*
X14578751Y-8792291D01*
X14578750Y-8792292D01*
X14570792Y-8800250D01*
X14570791Y-8800251D01*
X14565163Y-8809999D01*
X14565163Y-8809999D01*
X14562250Y-8820871D01*
X14562250Y-8820872D01*
X14562250Y-8832128D01*
X14562250Y-8832129D01*
X14564983Y-8842329D01*
X14564359Y-8847071D01*
X14560564Y-8849983D01*
X14557328Y-8849983D01*
X14547129Y-8847250D01*
X14547128Y-8847250D01*
X14547128Y-8847250D01*
X14535872Y-8847250D01*
X14535872Y-8847250D01*
X14535871Y-8847250D01*
X14524999Y-8850163D01*
X14524999Y-8850163D01*
X14515251Y-8855791D01*
X14515250Y-8855792D01*
X14507292Y-8863750D01*
X14507291Y-8863751D01*
X14501663Y-8873499D01*
X14501663Y-8873499D01*
X14498750Y-8884371D01*
X14498750Y-8884372D01*
X11507670Y-8884372D01*
X11507670Y-8794372D01*
X14257250Y-8794372D01*
X14257250Y-8805628D01*
X14257250Y-8805629D01*
X14260163Y-8816501D01*
X14260163Y-8816501D01*
X14265791Y-8826249D01*
X14265792Y-8826250D01*
X14273750Y-8834208D01*
X14273751Y-8834209D01*
X14283499Y-8839837D01*
X14283499Y-8839837D01*
X14294372Y-8842750D01*
X14294372Y-8842750D01*
X14305628Y-8842750D01*
X14305628Y-8842750D01*
X14316501Y-8839837D01*
X14326249Y-8834209D01*
X14334208Y-8826249D01*
X14339837Y-8816501D01*
X14342750Y-8805628D01*
X14342750Y-8794372D01*
X14339837Y-8783499D01*
X14339837Y-8783499D01*
X14334208Y-8773751D01*
X14334208Y-8773750D01*
X14326250Y-8765792D01*
X14326249Y-8765791D01*
X14316501Y-8760163D01*
X14316501Y-8760163D01*
X14305629Y-8757250D01*
X14305628Y-8757250D01*
X14305628Y-8757250D01*
X14294372Y-8757250D01*
X14294372Y-8757250D01*
X14294371Y-8757250D01*
X14283499Y-8760163D01*
X14283499Y-8760163D01*
X14273751Y-8765791D01*
X14273750Y-8765792D01*
X14265792Y-8773750D01*
X14265791Y-8773751D01*
X14260163Y-8783499D01*
X14260163Y-8783499D01*
X14257250Y-8794371D01*
X14257250Y-8794372D01*
X11507670Y-8794372D01*
X11507670Y-8694372D01*
X14707250Y-8694372D01*
X14707250Y-8705628D01*
X14707250Y-8705629D01*
X14710163Y-8716501D01*
X14710163Y-8716501D01*
X14715791Y-8726249D01*
X14715792Y-8726250D01*
X14723750Y-8734208D01*
X14723751Y-8734209D01*
X14733499Y-8739837D01*
X14733499Y-8739837D01*
X14744372Y-8742750D01*
X14744372Y-8742750D01*
X14755628Y-8742750D01*
X14755628Y-8742750D01*
X14766501Y-8739837D01*
X14776249Y-8734209D01*
X14784208Y-8726249D01*
X14789837Y-8716501D01*
X14792750Y-8705628D01*
X14792750Y-8694372D01*
X14807250Y-8694372D01*
X14807250Y-8705628D01*
X14807250Y-8705629D01*
X14810163Y-8716501D01*
X14810163Y-8716501D01*
X14815791Y-8726249D01*
X14815792Y-8726250D01*
X14823750Y-8734208D01*
X14823751Y-8734209D01*
X14833499Y-8739837D01*
X14833499Y-8739837D01*
X14844372Y-8742750D01*
X14844372Y-8742750D01*
X14855628Y-8742750D01*
X14855628Y-8742750D01*
X14866501Y-8739837D01*
X14876249Y-8734209D01*
X14884208Y-8726249D01*
X14889837Y-8716501D01*
X14892750Y-8705628D01*
X14892750Y-8694372D01*
X14892616Y-8693872D01*
X15197250Y-8693872D01*
X15197250Y-8705128D01*
X15197250Y-8705129D01*
X15200163Y-8716001D01*
X15200163Y-8716001D01*
X15205791Y-8725749D01*
X15205792Y-8725750D01*
X15213750Y-8733708D01*
X15213751Y-8733709D01*
X15223499Y-8739337D01*
X15223499Y-8739337D01*
X15234372Y-8742250D01*
X15234372Y-8742250D01*
X15245628Y-8742250D01*
X15245628Y-8742250D01*
X15245629Y-8742250D01*
X15246365Y-8742053D01*
X15255829Y-8739517D01*
X15260571Y-8740141D01*
X15263483Y-8743936D01*
X15263483Y-8747171D01*
X15260750Y-8757371D01*
X15260750Y-8757372D01*
X15260750Y-8768628D01*
X15260750Y-8768629D01*
X15263663Y-8779501D01*
X15263663Y-8779501D01*
X15269291Y-8789249D01*
X15269292Y-8789250D01*
X15277250Y-8797208D01*
X15277251Y-8797209D01*
X15286999Y-8802837D01*
X15286999Y-8802837D01*
X15297872Y-8805750D01*
X15297872Y-8805750D01*
X15309128Y-8805750D01*
X15309128Y-8805750D01*
X15309129Y-8805750D01*
X15309865Y-8805553D01*
X15319329Y-8803017D01*
X15324071Y-8803641D01*
X15326983Y-8807436D01*
X15326983Y-8810671D01*
X15324250Y-8820871D01*
X15324250Y-8820872D01*
X15324250Y-8832128D01*
X15324250Y-8832129D01*
X15327163Y-8843001D01*
X15327163Y-8843001D01*
X15332791Y-8852749D01*
X15332792Y-8852750D01*
X15340750Y-8860708D01*
X15340751Y-8860709D01*
X15350499Y-8866337D01*
X15350499Y-8866337D01*
X15361372Y-8869250D01*
X15361372Y-8869250D01*
X15372628Y-8869250D01*
X15372628Y-8869250D01*
X15372629Y-8869250D01*
X15373365Y-8869053D01*
X15382829Y-8866517D01*
X15387571Y-8867141D01*
X15390483Y-8870936D01*
X15390483Y-8874171D01*
X15387750Y-8884371D01*
X15387750Y-8884372D01*
X15387750Y-8895628D01*
X15387750Y-8895629D01*
X15390663Y-8906501D01*
X15390663Y-8906501D01*
X15396291Y-8916249D01*
X15396292Y-8916250D01*
X15404250Y-8924208D01*
X15404251Y-8924209D01*
X15413999Y-8929837D01*
X15413999Y-8929837D01*
X15424872Y-8932750D01*
X15424872Y-8932750D01*
X15436128Y-8932750D01*
X15436128Y-8932750D01*
X15447001Y-8929837D01*
X15456749Y-8924209D01*
X15464708Y-8916249D01*
X15469147Y-8908561D01*
X15470337Y-8906501D01*
X15470337Y-8906501D01*
X15473250Y-8895629D01*
X15473250Y-8895628D01*
X15473250Y-8884372D01*
X15514750Y-8884372D01*
X15514750Y-8895628D01*
X15514750Y-8895629D01*
X15517663Y-8906501D01*
X15517663Y-8906501D01*
X15523291Y-8916249D01*
X15523292Y-8916250D01*
X15531250Y-8924208D01*
X15531251Y-8924209D01*
X15540999Y-8929837D01*
X15540999Y-8929837D01*
X15551872Y-8932750D01*
X15551872Y-8932750D01*
X15563128Y-8932750D01*
X15563128Y-8932750D01*
X15574001Y-8929837D01*
X15583749Y-8924209D01*
X15591708Y-8916249D01*
X15596147Y-8908561D01*
X15597337Y-8906501D01*
X15597337Y-8906501D01*
X15600250Y-8895629D01*
X15600250Y-8895628D01*
X15600250Y-8884372D01*
X15600250Y-8884371D01*
X15597337Y-8873499D01*
X15597337Y-8873499D01*
X15591708Y-8863751D01*
X15591708Y-8863750D01*
X15583750Y-8855792D01*
X15583749Y-8855791D01*
X15574001Y-8850163D01*
X15574001Y-8850163D01*
X15563129Y-8847250D01*
X15563128Y-8847250D01*
X15563128Y-8847250D01*
X15551872Y-8847250D01*
X15551872Y-8847250D01*
X15551871Y-8847250D01*
X15540999Y-8850163D01*
X15540999Y-8850163D01*
X15531251Y-8855791D01*
X15531250Y-8855792D01*
X15523292Y-8863750D01*
X15523291Y-8863751D01*
X15517663Y-8873499D01*
X15517663Y-8873499D01*
X15514750Y-8884371D01*
X15514750Y-8884372D01*
X15473250Y-8884372D01*
X15473250Y-8884371D01*
X15470337Y-8873499D01*
X15470337Y-8873499D01*
X15464708Y-8863751D01*
X15464708Y-8863750D01*
X15456750Y-8855792D01*
X15456749Y-8855791D01*
X15447001Y-8850163D01*
X15447001Y-8850163D01*
X15436129Y-8847250D01*
X15436128Y-8847250D01*
X15436128Y-8847250D01*
X15424872Y-8847250D01*
X15424872Y-8847250D01*
X15424871Y-8847250D01*
X15414671Y-8849983D01*
X15409929Y-8849359D01*
X15407017Y-8845564D01*
X15407017Y-8842329D01*
X15409750Y-8832128D01*
X15409750Y-8820872D01*
X15406837Y-8809999D01*
X15406837Y-8809999D01*
X15401208Y-8800251D01*
X15401208Y-8800250D01*
X15393250Y-8792292D01*
X15393249Y-8792291D01*
X15383501Y-8786663D01*
X15383501Y-8786663D01*
X15372629Y-8783750D01*
X15372628Y-8783750D01*
X15372628Y-8783750D01*
X15361372Y-8783750D01*
X15361372Y-8783750D01*
X15361371Y-8783750D01*
X15351171Y-8786483D01*
X15346429Y-8785859D01*
X15343517Y-8782064D01*
X15343517Y-8778829D01*
X15346250Y-8768628D01*
X15346250Y-8757372D01*
X15451250Y-8757372D01*
X15451250Y-8768628D01*
X15451250Y-8768629D01*
X15454163Y-8779501D01*
X15454163Y-8779501D01*
X15459791Y-8789249D01*
X15459792Y-8789250D01*
X15467750Y-8797208D01*
X15467751Y-8797209D01*
X15477499Y-8802837D01*
X15477499Y-8802837D01*
X15488372Y-8805750D01*
X15488372Y-8805750D01*
X15499628Y-8805750D01*
X15499628Y-8805750D01*
X15510501Y-8802837D01*
X15520249Y-8797209D01*
X15528208Y-8789249D01*
X15533837Y-8779501D01*
X15536750Y-8768628D01*
X15536750Y-8757372D01*
X15533837Y-8746499D01*
X15533837Y-8746499D01*
X15528208Y-8736751D01*
X15528208Y-8736750D01*
X15520250Y-8728792D01*
X15520249Y-8728791D01*
X15510501Y-8723163D01*
X15510501Y-8723163D01*
X15499629Y-8720250D01*
X15499628Y-8720250D01*
X15499628Y-8720250D01*
X15488372Y-8720250D01*
X15488372Y-8720250D01*
X15488371Y-8720250D01*
X15477499Y-8723163D01*
X15477499Y-8723163D01*
X15467751Y-8728791D01*
X15467750Y-8728792D01*
X15459792Y-8736750D01*
X15459791Y-8736751D01*
X15454163Y-8746499D01*
X15454163Y-8746499D01*
X15451250Y-8757371D01*
X15451250Y-8757372D01*
X15346250Y-8757372D01*
X15346250Y-8757372D01*
X15343337Y-8746499D01*
X15343337Y-8746499D01*
X15337708Y-8736751D01*
X15337708Y-8736750D01*
X15329750Y-8728792D01*
X15329749Y-8728791D01*
X15320001Y-8723163D01*
X15320001Y-8723163D01*
X15309129Y-8720250D01*
X15309128Y-8720250D01*
X15309128Y-8720250D01*
X15297872Y-8720250D01*
X15297872Y-8720250D01*
X15297871Y-8720250D01*
X15287671Y-8722983D01*
X15282929Y-8722359D01*
X15280017Y-8718564D01*
X15280017Y-8715329D01*
X15282750Y-8705128D01*
X15282750Y-8693872D01*
X15279837Y-8682999D01*
X15279837Y-8682999D01*
X15274208Y-8673251D01*
X15274208Y-8673250D01*
X15266250Y-8665292D01*
X15266249Y-8665291D01*
X15256501Y-8659663D01*
X15256501Y-8659663D01*
X15245629Y-8656750D01*
X15245628Y-8656750D01*
X15245628Y-8656750D01*
X15234372Y-8656750D01*
X15234372Y-8656750D01*
X15234371Y-8656750D01*
X15223499Y-8659663D01*
X15223499Y-8659663D01*
X15213751Y-8665291D01*
X15213750Y-8665292D01*
X15205792Y-8673250D01*
X15205791Y-8673251D01*
X15200163Y-8682999D01*
X15200163Y-8682999D01*
X15197250Y-8693871D01*
X15197250Y-8693872D01*
X14892616Y-8693872D01*
X14889837Y-8683499D01*
X14889837Y-8683499D01*
X14884208Y-8673751D01*
X14884208Y-8673750D01*
X14876250Y-8665792D01*
X14876249Y-8665791D01*
X14866501Y-8660163D01*
X14866501Y-8660163D01*
X14855629Y-8657250D01*
X14855628Y-8657250D01*
X14855628Y-8657250D01*
X14844372Y-8657250D01*
X14844372Y-8657250D01*
X14844371Y-8657250D01*
X14833499Y-8660163D01*
X14833499Y-8660163D01*
X14823751Y-8665791D01*
X14823750Y-8665792D01*
X14815792Y-8673750D01*
X14815791Y-8673751D01*
X14810163Y-8683499D01*
X14810163Y-8683499D01*
X14807250Y-8694371D01*
X14807250Y-8694372D01*
X14792750Y-8694372D01*
X14792750Y-8694372D01*
X14789837Y-8683499D01*
X14789837Y-8683499D01*
X14784208Y-8673751D01*
X14784208Y-8673750D01*
X14776250Y-8665792D01*
X14776249Y-8665791D01*
X14766501Y-8660163D01*
X14766501Y-8660163D01*
X14755629Y-8657250D01*
X14755628Y-8657250D01*
X14755628Y-8657250D01*
X14744372Y-8657250D01*
X14744372Y-8657250D01*
X14744371Y-8657250D01*
X14733499Y-8660163D01*
X14733499Y-8660163D01*
X14723751Y-8665791D01*
X14723750Y-8665792D01*
X14715792Y-8673750D01*
X14715791Y-8673751D01*
X14710163Y-8683499D01*
X14710163Y-8683499D01*
X14707250Y-8694371D01*
X14707250Y-8694372D01*
X11507670Y-8694372D01*
X11507670Y-8594372D01*
X11607250Y-8594372D01*
X11607250Y-8605628D01*
X11607250Y-8605629D01*
X11610163Y-8616501D01*
X11610163Y-8616501D01*
X11615791Y-8626249D01*
X11615792Y-8626250D01*
X11623750Y-8634208D01*
X11623751Y-8634209D01*
X11633499Y-8639837D01*
X11633499Y-8639837D01*
X11644372Y-8642750D01*
X11644372Y-8642750D01*
X11655628Y-8642750D01*
X11655628Y-8642750D01*
X11666501Y-8639837D01*
X11676249Y-8634209D01*
X11684208Y-8626249D01*
X11689837Y-8616501D01*
X11692750Y-8605628D01*
X11692750Y-8594372D01*
X11689837Y-8583499D01*
X11689837Y-8583499D01*
X11684208Y-8573751D01*
X11684208Y-8573750D01*
X11676250Y-8565792D01*
X11676249Y-8565791D01*
X11666501Y-8560163D01*
X11666501Y-8560163D01*
X11655629Y-8557250D01*
X11655628Y-8557250D01*
X11655628Y-8557250D01*
X11644372Y-8557250D01*
X11644372Y-8557250D01*
X11644371Y-8557250D01*
X11633499Y-8560163D01*
X11633499Y-8560163D01*
X11623751Y-8565791D01*
X11623750Y-8565792D01*
X11615792Y-8573750D01*
X11615791Y-8573751D01*
X11610163Y-8583499D01*
X11610163Y-8583499D01*
X11607250Y-8594371D01*
X11607250Y-8594372D01*
X11507670Y-8594372D01*
X11507670Y-8544372D01*
X11857250Y-8544372D01*
X11857250Y-8555628D01*
X11857250Y-8555629D01*
X11860163Y-8566501D01*
X11860163Y-8566501D01*
X11865791Y-8576249D01*
X11865792Y-8576250D01*
X11873750Y-8584208D01*
X11873751Y-8584209D01*
X11883499Y-8589837D01*
X11883499Y-8589837D01*
X11894372Y-8592750D01*
X11894372Y-8592750D01*
X11905628Y-8592750D01*
X11905628Y-8592750D01*
X11916501Y-8589837D01*
X11926249Y-8584209D01*
X11934208Y-8576249D01*
X11939837Y-8566501D01*
X11942750Y-8555628D01*
X11942750Y-8544372D01*
X11939837Y-8533499D01*
X11939837Y-8533499D01*
X11934208Y-8523751D01*
X11934208Y-8523750D01*
X11926250Y-8515792D01*
X11926249Y-8515791D01*
X11916501Y-8510163D01*
X11916501Y-8510163D01*
X11905629Y-8507250D01*
X11905628Y-8507250D01*
X11905628Y-8507250D01*
X11894372Y-8507250D01*
X11894372Y-8507250D01*
X11894371Y-8507250D01*
X11883499Y-8510163D01*
X11883499Y-8510163D01*
X11873751Y-8515791D01*
X11873750Y-8515792D01*
X11865792Y-8523750D01*
X11865791Y-8523751D01*
X11860163Y-8533499D01*
X11860163Y-8533499D01*
X11857250Y-8544371D01*
X11857250Y-8544372D01*
X11507670Y-8544372D01*
X11507670Y-8494372D01*
X14707250Y-8494372D01*
X14707250Y-8505628D01*
X14707250Y-8505629D01*
X14710163Y-8516501D01*
X14710163Y-8516501D01*
X14715791Y-8526249D01*
X14715792Y-8526250D01*
X14723750Y-8534208D01*
X14723751Y-8534209D01*
X14733499Y-8539837D01*
X14733499Y-8539837D01*
X14744372Y-8542750D01*
X14744372Y-8542750D01*
X14755628Y-8542750D01*
X14755628Y-8542750D01*
X14766501Y-8539837D01*
X14776249Y-8534209D01*
X14784208Y-8526249D01*
X14789837Y-8516501D01*
X14792750Y-8505628D01*
X14792750Y-8494372D01*
X14789837Y-8483499D01*
X14789837Y-8483499D01*
X14784208Y-8473751D01*
X14784208Y-8473750D01*
X14776250Y-8465792D01*
X14776249Y-8465791D01*
X14766501Y-8460163D01*
X14766501Y-8460163D01*
X14755629Y-8457250D01*
X14755628Y-8457250D01*
X14755628Y-8457250D01*
X14744372Y-8457250D01*
X14744372Y-8457250D01*
X14744371Y-8457250D01*
X14733499Y-8460163D01*
X14733499Y-8460163D01*
X14723751Y-8465791D01*
X14723750Y-8465792D01*
X14715792Y-8473750D01*
X14715791Y-8473751D01*
X14710163Y-8483499D01*
X14710163Y-8483499D01*
X14707250Y-8494371D01*
X14707250Y-8494372D01*
X11507670Y-8494372D01*
X11507670Y-8444372D01*
X11607250Y-8444372D01*
X11607250Y-8455628D01*
X11607250Y-8455629D01*
X11610163Y-8466501D01*
X11610163Y-8466501D01*
X11615791Y-8476249D01*
X11615792Y-8476250D01*
X11623750Y-8484208D01*
X11623751Y-8484209D01*
X11633499Y-8489837D01*
X11633499Y-8489837D01*
X11644372Y-8492750D01*
X11644372Y-8492750D01*
X11655628Y-8492750D01*
X11655628Y-8492750D01*
X11666501Y-8489837D01*
X11676249Y-8484209D01*
X11684208Y-8476249D01*
X11689837Y-8466501D01*
X11692750Y-8455628D01*
X11692750Y-8444372D01*
X12257250Y-8444372D01*
X12257250Y-8455628D01*
X12257250Y-8455629D01*
X12260163Y-8466501D01*
X12260163Y-8466501D01*
X12265791Y-8476249D01*
X12265792Y-8476250D01*
X12273750Y-8484208D01*
X12273751Y-8484209D01*
X12283499Y-8489837D01*
X12283499Y-8489837D01*
X12294372Y-8492750D01*
X12294372Y-8492750D01*
X12305628Y-8492750D01*
X12305628Y-8492750D01*
X12316501Y-8489837D01*
X12318730Y-8488550D01*
X12318730Y-8488550D01*
X12322071Y-8486621D01*
X12326249Y-8484209D01*
X12334208Y-8476249D01*
X12339837Y-8466501D01*
X12342750Y-8455628D01*
X12342750Y-8444372D01*
X12339837Y-8433499D01*
X12339837Y-8433499D01*
X12334208Y-8423751D01*
X12334208Y-8423750D01*
X12326250Y-8415792D01*
X12326249Y-8415791D01*
X12316501Y-8410163D01*
X12316501Y-8410163D01*
X12305629Y-8407250D01*
X12305628Y-8407250D01*
X12305628Y-8407250D01*
X12294372Y-8407250D01*
X12294372Y-8407250D01*
X12294371Y-8407250D01*
X12283499Y-8410163D01*
X12283499Y-8410163D01*
X12273751Y-8415791D01*
X12273750Y-8415792D01*
X12265792Y-8423750D01*
X12265791Y-8423751D01*
X12260163Y-8433499D01*
X12260163Y-8433499D01*
X12257250Y-8444371D01*
X12257250Y-8444372D01*
X11692750Y-8444372D01*
X11692750Y-8444372D01*
X11689837Y-8433499D01*
X11689837Y-8433499D01*
X11684208Y-8423751D01*
X11684208Y-8423750D01*
X11676250Y-8415792D01*
X11676249Y-8415791D01*
X11666501Y-8410163D01*
X11666501Y-8410163D01*
X11655629Y-8407250D01*
X11655628Y-8407250D01*
X11655628Y-8407250D01*
X11644372Y-8407250D01*
X11644372Y-8407250D01*
X11644371Y-8407250D01*
X11633499Y-8410163D01*
X11633499Y-8410163D01*
X11623751Y-8415791D01*
X11623750Y-8415792D01*
X11615792Y-8423750D01*
X11615791Y-8423751D01*
X11610163Y-8433499D01*
X11610163Y-8433499D01*
X11607250Y-8444371D01*
X11607250Y-8444372D01*
X11507670Y-8444372D01*
X11507670Y-8294372D01*
X11607250Y-8294372D01*
X11607250Y-8305628D01*
X11607250Y-8305629D01*
X11610163Y-8316501D01*
X11610163Y-8316501D01*
X11615791Y-8326249D01*
X11615792Y-8326250D01*
X11623750Y-8334208D01*
X11623751Y-8334208D01*
X11633499Y-8339837D01*
X11633499Y-8339837D01*
X11644372Y-8342750D01*
X11644372Y-8342750D01*
X11655628Y-8342750D01*
X11655628Y-8342750D01*
X11666501Y-8339837D01*
X11676249Y-8334208D01*
X11684208Y-8326249D01*
X11688647Y-8318561D01*
X11689837Y-8316501D01*
X11689837Y-8316501D01*
X11691914Y-8308749D01*
X11692750Y-8305628D01*
X11692750Y-8294372D01*
X11689837Y-8283499D01*
X11689836Y-8283498D01*
X11687578Y-8279588D01*
X11687578Y-8279587D01*
X11686010Y-8276872D01*
X13741783Y-8276872D01*
X13741783Y-8288128D01*
X13741783Y-8288129D01*
X13744697Y-8299001D01*
X13744697Y-8299001D01*
X13750325Y-8308749D01*
X13750325Y-8308750D01*
X13758284Y-8316708D01*
X13758284Y-8316708D01*
X13768032Y-8322337D01*
X13768032Y-8322337D01*
X13778905Y-8325250D01*
X13778905Y-8325250D01*
X13790161Y-8325250D01*
X13790161Y-8325250D01*
X13801034Y-8322337D01*
X13810782Y-8316708D01*
X13818742Y-8308749D01*
X13824370Y-8299001D01*
X13827283Y-8288128D01*
X13827283Y-8276872D01*
X13824370Y-8265999D01*
X13824370Y-8265999D01*
X13818742Y-8256251D01*
X13818741Y-8256250D01*
X13810783Y-8248292D01*
X13810782Y-8248291D01*
X13801034Y-8242663D01*
X13801034Y-8242663D01*
X13790162Y-8239750D01*
X13790162Y-8239750D01*
X13790161Y-8239750D01*
X13778905Y-8239750D01*
X13778905Y-8239750D01*
X13778905Y-8239750D01*
X13768032Y-8242663D01*
X13768032Y-8242663D01*
X13758284Y-8248291D01*
X13758284Y-8248292D01*
X13750325Y-8256250D01*
X13750325Y-8256251D01*
X13744697Y-8265999D01*
X13744697Y-8265999D01*
X13741783Y-8276871D01*
X13741783Y-8276872D01*
X11686010Y-8276872D01*
X11684208Y-8273751D01*
X11684208Y-8273750D01*
X11676250Y-8265792D01*
X11676249Y-8265791D01*
X11666501Y-8260163D01*
X11666501Y-8260163D01*
X11655629Y-8257250D01*
X11655628Y-8257250D01*
X11655628Y-8257250D01*
X11644372Y-8257250D01*
X11644372Y-8257250D01*
X11644371Y-8257250D01*
X11633499Y-8260163D01*
X11633499Y-8260163D01*
X11623751Y-8265791D01*
X11623750Y-8265792D01*
X11615792Y-8273750D01*
X11615791Y-8273751D01*
X11610163Y-8283499D01*
X11610163Y-8283499D01*
X11607250Y-8294371D01*
X11607250Y-8294372D01*
X11507670Y-8294372D01*
X11507670Y-8194372D01*
X12657250Y-8194372D01*
X12657250Y-8205628D01*
X12657250Y-8205629D01*
X12660163Y-8216501D01*
X12660163Y-8216501D01*
X12665791Y-8226249D01*
X12665792Y-8226250D01*
X12673750Y-8234208D01*
X12673751Y-8234208D01*
X12683499Y-8239837D01*
X12683499Y-8239837D01*
X12694372Y-8242750D01*
X12694372Y-8242750D01*
X12705628Y-8242750D01*
X12705628Y-8242750D01*
X12716501Y-8239837D01*
X12726249Y-8234208D01*
X12734208Y-8226249D01*
X12739837Y-8216501D01*
X12742750Y-8205628D01*
X12742750Y-8194372D01*
X12739837Y-8183499D01*
X12739837Y-8183499D01*
X12734208Y-8173751D01*
X12734208Y-8173750D01*
X12726250Y-8165792D01*
X12726249Y-8165791D01*
X12716501Y-8160163D01*
X12716501Y-8160163D01*
X12705629Y-8157250D01*
X12705628Y-8157250D01*
X12705628Y-8157250D01*
X12694372Y-8157250D01*
X12694372Y-8157250D01*
X12694371Y-8157250D01*
X12683499Y-8160163D01*
X12683499Y-8160163D01*
X12673751Y-8165791D01*
X12673750Y-8165792D01*
X12665792Y-8173750D01*
X12665791Y-8173751D01*
X12660163Y-8183499D01*
X12660163Y-8183499D01*
X12657250Y-8194371D01*
X12657250Y-8194372D01*
X11507670Y-8194372D01*
X11507670Y-8044372D01*
X12657250Y-8044372D01*
X12657250Y-8055628D01*
X12657250Y-8055629D01*
X12660163Y-8066501D01*
X12660163Y-8066501D01*
X12665791Y-8076249D01*
X12665792Y-8076250D01*
X12673750Y-8084208D01*
X12673751Y-8084208D01*
X12683499Y-8089837D01*
X12683499Y-8089837D01*
X12694372Y-8092750D01*
X12694372Y-8092750D01*
X12705628Y-8092750D01*
X12705628Y-8092750D01*
X12716501Y-8089837D01*
X12726249Y-8084208D01*
X12734208Y-8076249D01*
X12739837Y-8066501D01*
X12742750Y-8055628D01*
X12742750Y-8044372D01*
X12739837Y-8033499D01*
X12739837Y-8033499D01*
X12734208Y-8023751D01*
X12734208Y-8023750D01*
X12726250Y-8015792D01*
X12726249Y-8015791D01*
X12716501Y-8010163D01*
X12716501Y-8010163D01*
X12705629Y-8007250D01*
X12705628Y-8007250D01*
X12705628Y-8007250D01*
X12694372Y-8007250D01*
X12694372Y-8007250D01*
X12694371Y-8007250D01*
X12683499Y-8010163D01*
X12683499Y-8010163D01*
X12673751Y-8015791D01*
X12673750Y-8015792D01*
X12665792Y-8023750D01*
X12665791Y-8023751D01*
X12660163Y-8033499D01*
X12660163Y-8033499D01*
X12657250Y-8044371D01*
X12657250Y-8044372D01*
X11507670Y-8044372D01*
X11507670Y-7894372D01*
X12057250Y-7894372D01*
X12057250Y-7905628D01*
X12057250Y-7905629D01*
X12060163Y-7916501D01*
X12060163Y-7916501D01*
X12065791Y-7926249D01*
X12065792Y-7926250D01*
X12073750Y-7934208D01*
X12073751Y-7934208D01*
X12083499Y-7939837D01*
X12083499Y-7939837D01*
X12094372Y-7942750D01*
X12094372Y-7942750D01*
X12105628Y-7942750D01*
X12105628Y-7942750D01*
X12116501Y-7939837D01*
X12126249Y-7934208D01*
X12134208Y-7926249D01*
X12139837Y-7916501D01*
X12142750Y-7905628D01*
X12142750Y-7894372D01*
X12139837Y-7883499D01*
X12139837Y-7883499D01*
X12134208Y-7873751D01*
X12134208Y-7873750D01*
X12126250Y-7865792D01*
X12126249Y-7865791D01*
X12116501Y-7860163D01*
X12116501Y-7860163D01*
X12105629Y-7857250D01*
X12105628Y-7857250D01*
X12105628Y-7857250D01*
X12094372Y-7857250D01*
X12094372Y-7857250D01*
X12094371Y-7857250D01*
X12083499Y-7860163D01*
X12083499Y-7860163D01*
X12073751Y-7865791D01*
X12073750Y-7865792D01*
X12065792Y-7873750D01*
X12065791Y-7873751D01*
X12060163Y-7883499D01*
X12060163Y-7883499D01*
X12057250Y-7894371D01*
X12057250Y-7894372D01*
X11507670Y-7894372D01*
X11507670Y-7236992D01*
X11634710Y-7236992D01*
X11634710Y-7263008D01*
X11634710Y-7263010D01*
X11638780Y-7288705D01*
X11638780Y-7288705D01*
X11646820Y-7313449D01*
X11646820Y-7313450D01*
X11658631Y-7336631D01*
X11673924Y-7357679D01*
X11673924Y-7357680D01*
X11692320Y-7376075D01*
X11692321Y-7376076D01*
X11713369Y-7391369D01*
X11736551Y-7403180D01*
X11761294Y-7411220D01*
X11772125Y-7412935D01*
X11786990Y-7415290D01*
X11786991Y-7415290D01*
X11786991Y-7415290D01*
X11786992Y-7415290D01*
X11813008Y-7415290D01*
X11813009Y-7415290D01*
X11838705Y-7411220D01*
X11863449Y-7403180D01*
X11886631Y-7391369D01*
X11907679Y-7376076D01*
X11926076Y-7357679D01*
X11941369Y-7336631D01*
X11953180Y-7313449D01*
X11961220Y-7288705D01*
X11965290Y-7263009D01*
X11965290Y-7236992D01*
X18034710Y-7236992D01*
X18034710Y-7263008D01*
X18034710Y-7263010D01*
X18038780Y-7288705D01*
X18038780Y-7288705D01*
X18046820Y-7313449D01*
X18046820Y-7313450D01*
X18058631Y-7336631D01*
X18073924Y-7357679D01*
X18073925Y-7357680D01*
X18092320Y-7376075D01*
X18092321Y-7376076D01*
X18113369Y-7391369D01*
X18136551Y-7403180D01*
X18161295Y-7411220D01*
X18172125Y-7412935D01*
X18186990Y-7415290D01*
X18186991Y-7415290D01*
X18186991Y-7415290D01*
X18186992Y-7415290D01*
X18213008Y-7415290D01*
X18213009Y-7415290D01*
X18238706Y-7411220D01*
X18263449Y-7403180D01*
X18286631Y-7391369D01*
X18307679Y-7376076D01*
X18326076Y-7357679D01*
X18341369Y-7336631D01*
X18353180Y-7313449D01*
X18361220Y-7288705D01*
X18365290Y-7263009D01*
X18365290Y-7236991D01*
X18361220Y-7211294D01*
X18353180Y-7186551D01*
X18341369Y-7163369D01*
X18326076Y-7142321D01*
X18326075Y-7142320D01*
X18307680Y-7123924D01*
X18307679Y-7123924D01*
X18286631Y-7108631D01*
X18263450Y-7096820D01*
X18263449Y-7096820D01*
X18238705Y-7088780D01*
X18213010Y-7084710D01*
X18213009Y-7084710D01*
X18213009Y-7084710D01*
X18186991Y-7084710D01*
X18186991Y-7084710D01*
X18186990Y-7084710D01*
X18161295Y-7088780D01*
X18161295Y-7088780D01*
X18136551Y-7096820D01*
X18136550Y-7096820D01*
X18113369Y-7108631D01*
X18092321Y-7123924D01*
X18092320Y-7123924D01*
X18073925Y-7142320D01*
X18073924Y-7142321D01*
X18058631Y-7163369D01*
X18046820Y-7186550D01*
X18046820Y-7186551D01*
X18038780Y-7211295D01*
X18038780Y-7211295D01*
X18034710Y-7236990D01*
X18034710Y-7236992D01*
X11965290Y-7236992D01*
X11965290Y-7236991D01*
X11961220Y-7211294D01*
X11953180Y-7186551D01*
X11941369Y-7163369D01*
X11926076Y-7142321D01*
X11926075Y-7142320D01*
X11907680Y-7123924D01*
X11907679Y-7123924D01*
X11886631Y-7108631D01*
X11863450Y-7096820D01*
X11863449Y-7096820D01*
X11838705Y-7088780D01*
X11813010Y-7084710D01*
X11813009Y-7084710D01*
X11813009Y-7084710D01*
X11786991Y-7084710D01*
X11786991Y-7084710D01*
X11786990Y-7084710D01*
X11761295Y-7088780D01*
X11761295Y-7088780D01*
X11736551Y-7096820D01*
X11736550Y-7096820D01*
X11713369Y-7108631D01*
X11692321Y-7123924D01*
X11692320Y-7123924D01*
X11673924Y-7142320D01*
X11673924Y-7142321D01*
X11658631Y-7163369D01*
X11646820Y-7186550D01*
X11646820Y-7186551D01*
X11638780Y-7211295D01*
X11638780Y-7211295D01*
X11634710Y-7236990D01*
X11634710Y-7236992D01*
X11507670Y-7236992D01*
X11507670Y-7000408D01*
X11507723Y-6999592D01*
X11508525Y-6993502D01*
X11509005Y-6989859D01*
X11509427Y-6988284D01*
X11513026Y-6979594D01*
X11513841Y-6978183D01*
X11519567Y-6970720D01*
X11520720Y-6969567D01*
X11528183Y-6963841D01*
X11529594Y-6963026D01*
X11538284Y-6959427D01*
X11539859Y-6959005D01*
X11548824Y-6957825D01*
X11549592Y-6957723D01*
X11550408Y-6957670D01*
X18447508Y-6957670D01*
X18449591Y-6957670D01*
X18450406Y-6957723D01*
G37*
%TD.AperFunction*%
%TD*%
M02*
