%TF.GenerationSoftware,KiCad,Pcbnew,9.0.4+dfsg-1*%
%TF.CreationDate,2025-10-04T09:30:26+08:00*%
%TF.ProjectId,stmw-mcu-stm32f407,73746d77-2d6d-4637-952d-73746d333266,a*%
%TF.SameCoordinates,Original*%
%TF.FileFunction,Soldermask,Top*%
%TF.FilePolarity,Negative*%
%FSLAX45Y45*%
G04 Gerber Fmt 4.5, Leading zero omitted, Abs format (unit mm)*
G04 Created by KiCad (PCBNEW 9.0.4+dfsg-1) date 2025-10-04 09:30:26*
%MOMM*%
%LPD*%
G01*
G04 APERTURE LIST*
G04 Aperture macros list*
%AMRoundRect*
0 Rectangle with rounded corners*
0 $1 Rounding radius*
0 $2 $3 $4 $5 $6 $7 $8 $9 X,Y pos of 4 corners*
0 Add a 4 corners polygon primitive as box body*
4,1,4,$2,$3,$4,$5,$6,$7,$8,$9,$2,$3,0*
0 Add four circle primitives for the rounded corners*
1,1,$1+$1,$2,$3*
1,1,$1+$1,$4,$5*
1,1,$1+$1,$6,$7*
1,1,$1+$1,$8,$9*
0 Add four rect primitives between the rounded corners*
20,1,$1+$1,$2,$3,$4,$5,0*
20,1,$1+$1,$4,$5,$6,$7,0*
20,1,$1+$1,$6,$7,$8,$9,0*
20,1,$1+$1,$8,$9,$2,$3,0*%
G04 Aperture macros list end*
%ADD10C,3.000000*%
%ADD11R,0.700000X4.300000*%
%ADD12C,0.650000*%
%ADD13R,1.450000X0.600000*%
%ADD14R,1.450000X0.300000*%
%ADD15O,2.100000X1.000000*%
%ADD16O,1.600000X1.000000*%
%ADD17RoundRect,0.225000X-0.225000X-0.250000X0.225000X-0.250000X0.225000X0.250000X-0.225000X0.250000X0*%
%ADD18RoundRect,0.218750X0.256250X-0.218750X0.256250X0.218750X-0.256250X0.218750X-0.256250X-0.218750X0*%
%ADD19RoundRect,0.250000X0.475000X-0.250000X0.475000X0.250000X-0.475000X0.250000X-0.475000X-0.250000X0*%
%ADD20RoundRect,0.150000X0.587500X0.150000X-0.587500X0.150000X-0.587500X-0.150000X0.587500X-0.150000X0*%
%ADD21RoundRect,0.200000X0.275000X-0.200000X0.275000X0.200000X-0.275000X0.200000X-0.275000X-0.200000X0*%
%ADD22RoundRect,0.075000X-0.565685X0.459619X0.459619X-0.565685X0.565685X-0.459619X-0.459619X0.565685X0*%
%ADD23RoundRect,0.075000X-0.565685X-0.459619X-0.459619X-0.565685X0.565685X0.459619X0.459619X0.565685X0*%
%ADD24RoundRect,0.200000X-0.275000X0.200000X-0.275000X-0.200000X0.275000X-0.200000X0.275000X0.200000X0*%
%ADD25RoundRect,0.250000X-0.350000X0.450000X-0.350000X-0.450000X0.350000X-0.450000X0.350000X0.450000X0*%
%ADD26RoundRect,0.225000X0.250000X-0.225000X0.250000X0.225000X-0.250000X0.225000X-0.250000X-0.225000X0*%
%ADD27RoundRect,0.225000X0.225000X0.250000X-0.225000X0.250000X-0.225000X-0.250000X0.225000X-0.250000X0*%
%ADD28RoundRect,0.225000X-0.250000X0.225000X-0.250000X-0.225000X0.250000X-0.225000X0.250000X0.225000X0*%
%ADD29RoundRect,0.375000X0.625000X0.375000X-0.625000X0.375000X-0.625000X-0.375000X0.625000X-0.375000X0*%
%ADD30RoundRect,0.500000X0.500000X1.400000X-0.500000X1.400000X-0.500000X-1.400000X0.500000X-1.400000X0*%
%ADD31R,2.000000X1.200000*%
%ADD32RoundRect,0.225000X0.225000X0.375000X-0.225000X0.375000X-0.225000X-0.375000X0.225000X-0.375000X0*%
%ADD33RoundRect,0.218750X-0.218750X-0.256250X0.218750X-0.256250X0.218750X0.256250X-0.218750X0.256250X0*%
G04 APERTURE END LIST*
D10*
%TO.C,J1*%
X11800000Y-7250000D03*
X18200000Y-7250000D03*
D11*
X12550000Y-11750000D03*
X12650000Y-11750000D03*
X12750000Y-11750000D03*
X12850000Y-11750000D03*
X12950000Y-11750000D03*
X13050000Y-11750000D03*
X13150000Y-11750000D03*
X13250000Y-11750000D03*
X13350000Y-11750000D03*
X13450000Y-11750000D03*
X13550000Y-11750000D03*
X13850000Y-11750000D03*
X13950000Y-11750000D03*
X14050000Y-11750000D03*
X14150000Y-11750000D03*
X14250000Y-11750000D03*
X14350000Y-11750000D03*
X14450000Y-11750000D03*
X14550000Y-11750000D03*
X14650000Y-11750000D03*
X14750000Y-11750000D03*
X14850000Y-11750000D03*
X14950000Y-11750000D03*
X15050000Y-11750000D03*
X15150000Y-11750000D03*
X15250000Y-11750000D03*
X15350000Y-11750000D03*
X15450000Y-11750000D03*
X15550000Y-11750000D03*
X15650000Y-11750000D03*
X15750000Y-11750000D03*
X15850000Y-11750000D03*
X15950000Y-11750000D03*
X16050000Y-11750000D03*
X16150000Y-11750000D03*
X16250000Y-11750000D03*
X16350000Y-11750000D03*
X16450000Y-11750000D03*
X16550000Y-11750000D03*
X16650000Y-11750000D03*
X16750000Y-11750000D03*
X16850000Y-11750000D03*
X16950000Y-11750000D03*
X17050000Y-11750000D03*
X17150000Y-11750000D03*
X17250000Y-11750000D03*
X17350000Y-11750000D03*
X17450000Y-11750000D03*
X17550000Y-11750000D03*
%TD*%
D12*
%TO.C,J2*%
X17840000Y-10639000D03*
X17840000Y-10061000D03*
D13*
X17695500Y-10675000D03*
X17695500Y-10595000D03*
D14*
X17695500Y-10475000D03*
X17695500Y-10375000D03*
X17695500Y-10325000D03*
X17695500Y-10225000D03*
D13*
X17695500Y-10105000D03*
X17695500Y-10025000D03*
X17695500Y-10025000D03*
X17695500Y-10105000D03*
D14*
X17695500Y-10175000D03*
X17695500Y-10275000D03*
X17695500Y-10425000D03*
X17695500Y-10525000D03*
D13*
X17695500Y-10595000D03*
X17695500Y-10675000D03*
D15*
X17787000Y-10782000D03*
D16*
X18205000Y-10782000D03*
D15*
X17787000Y-9918000D03*
D16*
X18205000Y-9918000D03*
%TD*%
D17*
%TO.C,C14*%
X16222500Y-10150000D03*
X16377500Y-10150000D03*
%TD*%
%TO.C,C11*%
X13822500Y-8600000D03*
X13977500Y-8600000D03*
%TD*%
D18*
%TO.C,D3*%
X17400000Y-8028750D03*
X17400000Y-7871250D03*
%TD*%
D19*
%TO.C,C1*%
X18050000Y-8595000D03*
X18050000Y-8405000D03*
%TD*%
D20*
%TO.C,D1*%
X17230250Y-10445000D03*
X17230250Y-10255000D03*
X17042750Y-10350000D03*
%TD*%
D21*
%TO.C,R1*%
X17454000Y-10623000D03*
X17454000Y-10458000D03*
%TD*%
D22*
%TO.C,U3*%
X14881560Y-8933032D03*
X14846204Y-8968387D03*
X14810849Y-9003742D03*
X14775494Y-9039098D03*
X14740138Y-9074453D03*
X14704783Y-9109808D03*
X14669428Y-9145164D03*
X14634072Y-9180519D03*
X14598717Y-9215874D03*
X14563362Y-9251230D03*
X14528006Y-9286585D03*
X14492651Y-9321940D03*
X14457295Y-9357296D03*
X14421940Y-9392651D03*
X14386585Y-9428006D03*
X14351229Y-9463362D03*
X14315874Y-9498717D03*
X14280519Y-9534072D03*
X14245163Y-9569428D03*
X14209808Y-9604783D03*
X14174453Y-9640138D03*
X14139097Y-9675494D03*
X14103742Y-9710849D03*
X14068387Y-9746204D03*
X14033031Y-9781560D03*
D23*
X14033031Y-10018440D03*
X14068387Y-10053796D03*
X14103742Y-10089151D03*
X14139097Y-10124506D03*
X14174453Y-10159862D03*
X14209808Y-10195217D03*
X14245163Y-10230572D03*
X14280519Y-10265928D03*
X14315874Y-10301283D03*
X14351229Y-10336638D03*
X14386585Y-10371994D03*
X14421940Y-10407349D03*
X14457295Y-10442705D03*
X14492651Y-10478060D03*
X14528006Y-10513415D03*
X14563362Y-10548771D03*
X14598717Y-10584126D03*
X14634072Y-10619481D03*
X14669428Y-10654837D03*
X14704783Y-10690192D03*
X14740138Y-10725547D03*
X14775494Y-10760903D03*
X14810849Y-10796258D03*
X14846204Y-10831613D03*
X14881560Y-10866969D03*
D22*
X15118440Y-10866969D03*
X15153796Y-10831613D03*
X15189151Y-10796258D03*
X15224506Y-10760903D03*
X15259862Y-10725547D03*
X15295217Y-10690192D03*
X15330572Y-10654837D03*
X15365928Y-10619481D03*
X15401283Y-10584126D03*
X15436638Y-10548771D03*
X15471994Y-10513415D03*
X15507349Y-10478060D03*
X15542704Y-10442705D03*
X15578060Y-10407349D03*
X15613415Y-10371994D03*
X15648770Y-10336638D03*
X15684126Y-10301283D03*
X15719481Y-10265928D03*
X15754836Y-10230572D03*
X15790192Y-10195217D03*
X15825547Y-10159862D03*
X15860902Y-10124506D03*
X15896258Y-10089151D03*
X15931613Y-10053796D03*
X15966968Y-10018440D03*
D23*
X15966968Y-9781560D03*
X15931613Y-9746204D03*
X15896258Y-9710849D03*
X15860902Y-9675494D03*
X15825547Y-9640138D03*
X15790192Y-9604783D03*
X15754836Y-9569428D03*
X15719481Y-9534072D03*
X15684126Y-9498717D03*
X15648770Y-9463362D03*
X15613415Y-9428006D03*
X15578060Y-9392651D03*
X15542704Y-9357296D03*
X15507349Y-9321940D03*
X15471994Y-9286585D03*
X15436638Y-9251230D03*
X15401283Y-9215874D03*
X15365928Y-9180519D03*
X15330572Y-9145164D03*
X15295217Y-9109808D03*
X15259862Y-9074453D03*
X15224506Y-9039098D03*
X15189151Y-9003742D03*
X15153796Y-8968387D03*
X15118440Y-8933032D03*
%TD*%
D21*
%TO.C,R3*%
X12400000Y-8732500D03*
X12400000Y-8567500D03*
%TD*%
D24*
%TO.C,R2*%
X17454000Y-10013500D03*
X17454000Y-10178500D03*
%TD*%
D25*
%TO.C,Y1*%
X13815000Y-8790000D03*
X13815000Y-9010000D03*
X13985000Y-9010000D03*
X13985000Y-8790000D03*
%TD*%
D24*
%TO.C,R5*%
X17400000Y-8167500D03*
X17400000Y-8332500D03*
%TD*%
D26*
%TO.C,C2*%
X14450000Y-8727500D03*
X14450000Y-8572500D03*
%TD*%
D27*
%TO.C,C9*%
X13677500Y-9600000D03*
X13522500Y-9600000D03*
%TD*%
D28*
%TO.C,C6*%
X12200000Y-8572500D03*
X12200000Y-8727500D03*
%TD*%
D24*
%TO.C,R6*%
X17100000Y-8167500D03*
X17100000Y-8332500D03*
%TD*%
D27*
%TO.C,C10*%
X13727500Y-10350000D03*
X13572500Y-10350000D03*
%TD*%
%TO.C,C13*%
X13977500Y-9200000D03*
X13822500Y-9200000D03*
%TD*%
D19*
%TO.C,C3*%
X17800000Y-8595000D03*
X17800000Y-8405000D03*
%TD*%
D29*
%TO.C,U1*%
X18065000Y-9280000D03*
X18065000Y-9050000D03*
D30*
X17435000Y-9050000D03*
D29*
X18065000Y-8820000D03*
%TD*%
D17*
%TO.C,C12*%
X14722500Y-11100000D03*
X14877500Y-11100000D03*
%TD*%
D26*
%TO.C,C7*%
X12850000Y-9067000D03*
X12850000Y-8912000D03*
%TD*%
D31*
%TO.C,SW1*%
X12305000Y-7880000D03*
X12300000Y-8320000D03*
%TD*%
D17*
%TO.C,C15*%
X16222500Y-9950000D03*
X16377500Y-9950000D03*
%TD*%
D26*
%TO.C,C16*%
X15200000Y-8427500D03*
X15200000Y-8272500D03*
%TD*%
D27*
%TO.C,C8*%
X13677500Y-9400000D03*
X13522500Y-9400000D03*
%TD*%
D26*
%TO.C,C4*%
X17600000Y-8577500D03*
X17600000Y-8422500D03*
%TD*%
D32*
%TO.C,D2*%
X18115000Y-9650000D03*
X17785000Y-9650000D03*
%TD*%
D33*
%TO.C,FB1*%
X13521250Y-9750000D03*
X13678750Y-9750000D03*
%TD*%
D21*
%TO.C,R4*%
X13000000Y-8282500D03*
X13000000Y-8117500D03*
%TD*%
D31*
%TO.C,SW2*%
X12695000Y-8320000D03*
X12700000Y-7880000D03*
%TD*%
D26*
%TO.C,C5*%
X15350000Y-8427500D03*
X15350000Y-8272500D03*
%TD*%
D18*
%TO.C,D4*%
X17100000Y-8028750D03*
X17100000Y-7871250D03*
%TD*%
M02*
