G04 #@! TF.GenerationSoftware,KiCad,Pcbnew,7.0.5+dfsg-2*
G04 #@! TF.CreationDate,2023-07-13T12:04:41+08:00*
G04 #@! TF.ProjectId,prgstl,70726773-746c-42e6-9b69-6361645f7063,a*
G04 #@! TF.SameCoordinates,PX6b302f8PY7aeef28*
G04 #@! TF.FileFunction,Copper,L2,Bot*
G04 #@! TF.FilePolarity,Positive*
%FSLAX46Y46*%
G04 Gerber Fmt 4.6, Leading zero omitted, Abs format (unit mm)*
G04 Created by KiCad (PCBNEW 7.0.5+dfsg-2) date 2023-07-13 12:04:41*
%MOMM*%
%LPD*%
G01*
G04 APERTURE LIST*
G04 #@! TA.AperFunction,ComponentPad*
%ADD10O,2.100000X1.000000*%
G04 #@! TD*
G04 #@! TA.AperFunction,ComponentPad*
%ADD11O,1.600000X1.000000*%
G04 #@! TD*
G04 #@! TA.AperFunction,ComponentPad*
%ADD12R,1.700000X1.700000*%
G04 #@! TD*
G04 #@! TA.AperFunction,ComponentPad*
%ADD13O,1.700000X1.700000*%
G04 #@! TD*
G04 #@! TA.AperFunction,ViaPad*
%ADD14C,0.700000*%
G04 #@! TD*
G04 #@! TA.AperFunction,Conductor*
%ADD15C,0.457200*%
G04 #@! TD*
G04 #@! TA.AperFunction,Conductor*
%ADD16C,0.381000*%
G04 #@! TD*
G04 #@! TA.AperFunction,Conductor*
%ADD17C,0.228600*%
G04 #@! TD*
G04 APERTURE END LIST*
D10*
G04 #@! TO.P,J1,S1,SHIELD*
G04 #@! TO.N,GND*
X71165000Y22985000D03*
D11*
X75345000Y22985000D03*
D10*
X71165000Y31625000D03*
D11*
X75345000Y31625000D03*
G04 #@! TD*
D12*
G04 #@! TO.P,J2,1,GND*
G04 #@! TO.N,GND*
X15905000Y9545000D03*
D13*
G04 #@! TO.P,J2,2,VA*
G04 #@! TO.N,unconnected-(J2-VA-Pad2)*
X15905000Y7005000D03*
G04 #@! TO.P,J2,3,NRST*
G04 #@! TO.N,T_RST*
X18445000Y9545000D03*
G04 #@! TO.P,J2,4,BO0*
G04 #@! TO.N,unconnected-(J2-BO0-Pad4)*
X18445000Y7005000D03*
G04 #@! TO.P,J2,5,PC1*
G04 #@! TO.N,unconnected-(J2-PC1-Pad5)*
X20985000Y9545000D03*
G04 #@! TO.P,J2,6,PC0*
G04 #@! TO.N,unconnected-(J2-PC0-Pad6)*
X20985000Y7005000D03*
G04 #@! TO.P,J2,7,PC3*
G04 #@! TO.N,unconnected-(J2-PC3-Pad7)*
X23525000Y9545000D03*
G04 #@! TO.P,J2,8,PC2*
G04 #@! TO.N,unconnected-(J2-PC2-Pad8)*
X23525000Y7005000D03*
G04 #@! TO.P,J2,9,PA1*
G04 #@! TO.N,unconnected-(J2-PA1-Pad9)*
X26065000Y9545000D03*
G04 #@! TO.P,J2,10,PA0*
G04 #@! TO.N,unconnected-(J2-PA0-Pad10)*
X26065000Y7005000D03*
G04 #@! TO.P,J2,11,PA3*
G04 #@! TO.N,USART2_RX*
X28605000Y9545000D03*
G04 #@! TO.P,J2,12,PA2*
G04 #@! TO.N,USART2_TX*
X28605000Y7005000D03*
G04 #@! TO.P,J2,13,PA5*
G04 #@! TO.N,unconnected-(J2-PA5-Pad13)*
X31145000Y9545000D03*
G04 #@! TO.P,J2,14,PA4*
G04 #@! TO.N,unconnected-(J2-PA4-Pad14)*
X31145000Y7005000D03*
G04 #@! TO.P,J2,15,PA7*
G04 #@! TO.N,unconnected-(J2-PA7-Pad15)*
X33685000Y9545000D03*
G04 #@! TO.P,J2,16,PA6*
G04 #@! TO.N,unconnected-(J2-PA6-Pad16)*
X33685000Y7005000D03*
G04 #@! TO.P,J2,17,PC5*
G04 #@! TO.N,unconnected-(J2-PC5-Pad17)*
X36225000Y9545000D03*
G04 #@! TO.P,J2,18,PC4*
G04 #@! TO.N,unconnected-(J2-PC4-Pad18)*
X36225000Y7005000D03*
G04 #@! TO.P,J2,19,PB1*
G04 #@! TO.N,unconnected-(J2-PB1-Pad19)*
X38765000Y9545000D03*
G04 #@! TO.P,J2,20,PB0*
G04 #@! TO.N,unconnected-(J2-PB0-Pad20)*
X38765000Y7005000D03*
G04 #@! TO.P,J2,21,U0*
G04 #@! TO.N,unconnected-(J2-U0-Pad21)*
X41305000Y9545000D03*
G04 #@! TO.P,J2,22,PB2*
G04 #@! TO.N,unconnected-(J2-PB2-Pad22)*
X41305000Y7005000D03*
G04 #@! TO.P,J2,23,PB11*
G04 #@! TO.N,USART3_RX*
X43845000Y9545000D03*
G04 #@! TO.P,J2,24,PB10*
G04 #@! TO.N,USART3_TX*
X43845000Y7005000D03*
G04 #@! TO.P,J2,25,PB13*
G04 #@! TO.N,unconnected-(J2-PB13-Pad25)*
X46385000Y9545000D03*
G04 #@! TO.P,J2,26,PB12*
G04 #@! TO.N,unconnected-(J2-PB12-Pad26)*
X46385000Y7005000D03*
G04 #@! TO.P,J2,27,PB15*
G04 #@! TO.N,unconnected-(J2-PB15-Pad27)*
X48925000Y9545000D03*
G04 #@! TO.P,J2,28,PB14*
G04 #@! TO.N,unconnected-(J2-PB14-Pad28)*
X48925000Y7005000D03*
G04 #@! TO.P,J2,29,PC7*
G04 #@! TO.N,unconnected-(J2-PC7-Pad29)*
X51465000Y9545000D03*
G04 #@! TO.P,J2,30,PC6*
G04 #@! TO.N,unconnected-(J2-PC6-Pad30)*
X51465000Y7005000D03*
G04 #@! TO.P,J2,31,PC9*
G04 #@! TO.N,unconnected-(J2-PC9-Pad31)*
X54005000Y9545000D03*
G04 #@! TO.P,J2,32,PC8*
G04 #@! TO.N,unconnected-(J2-PC8-Pad32)*
X54005000Y7005000D03*
G04 #@! TO.P,J2,33,U2*
G04 #@! TO.N,unconnected-(J2-U2-Pad33)*
X56545000Y9545000D03*
G04 #@! TO.P,J2,34,U1*
G04 #@! TO.N,unconnected-(J2-U1-Pad34)*
X56545000Y7005000D03*
G04 #@! TO.P,J2,35,U4*
G04 #@! TO.N,unconnected-(J2-U4-Pad35)*
X59085000Y9545000D03*
G04 #@! TO.P,J2,36,U3*
G04 #@! TO.N,unconnected-(J2-U3-Pad36)*
X59085000Y7005000D03*
G04 #@! TO.P,J2,37,GND*
G04 #@! TO.N,GND*
X61625000Y9545000D03*
G04 #@! TO.P,J2,38,3.3V*
G04 #@! TO.N,+3V3*
X61625000Y7005000D03*
G04 #@! TO.P,J2,39,GND*
G04 #@! TO.N,GND*
X64165000Y9545000D03*
G04 #@! TO.P,J2,40,5V*
G04 #@! TO.N,+5V*
X64165000Y7005000D03*
G04 #@! TD*
D12*
G04 #@! TO.P,J3,1,GND*
G04 #@! TO.N,GND*
X64105000Y45065000D03*
D13*
G04 #@! TO.P,J3,2,5V*
G04 #@! TO.N,+5V*
X64105000Y47605000D03*
G04 #@! TO.P,J3,3,GND*
G04 #@! TO.N,GND*
X61565000Y45065000D03*
G04 #@! TO.P,J3,4,3.3V*
G04 #@! TO.N,+3V3*
X61565000Y47605000D03*
G04 #@! TO.P,J3,5,U16*
G04 #@! TO.N,P_DIO*
X59025000Y45065000D03*
G04 #@! TO.P,J3,6,U15*
G04 #@! TO.N,P_CLK*
X59025000Y47605000D03*
G04 #@! TO.P,J3,7,U14*
G04 #@! TO.N,unconnected-(J3-U14-Pad7)*
X56485000Y45065000D03*
G04 #@! TO.P,J3,8,U13*
G04 #@! TO.N,unconnected-(J3-U13-Pad8)*
X56485000Y47605000D03*
G04 #@! TO.P,J3,9,PA9*
G04 #@! TO.N,USART1_TX*
X53945000Y45065000D03*
G04 #@! TO.P,J3,10,PA8*
G04 #@! TO.N,unconnected-(J3-PA8-Pad10)*
X53945000Y47605000D03*
G04 #@! TO.P,J3,11,PA11*
G04 #@! TO.N,unconnected-(J3-PA11-Pad11)*
X51405000Y45065000D03*
G04 #@! TO.P,J3,12,PA10*
G04 #@! TO.N,USART1_RX*
X51405000Y47605000D03*
G04 #@! TO.P,J3,13,PA13*
G04 #@! TO.N,T_DIO*
X48865000Y45065000D03*
G04 #@! TO.P,J3,14,PA12*
G04 #@! TO.N,unconnected-(J3-PA12-Pad14)*
X48865000Y47605000D03*
G04 #@! TO.P,J3,15,PA15*
G04 #@! TO.N,unconnected-(J3-PA15-Pad15)*
X46325000Y45065000D03*
G04 #@! TO.P,J3,16,PA14*
G04 #@! TO.N,T_CLK*
X46325000Y47605000D03*
G04 #@! TO.P,J3,17,U12*
G04 #@! TO.N,unconnected-(J3-U12-Pad17)*
X43785000Y45065000D03*
G04 #@! TO.P,J3,18,U11*
G04 #@! TO.N,unconnected-(J3-U11-Pad18)*
X43785000Y47605000D03*
G04 #@! TO.P,J3,19,PC11*
G04 #@! TO.N,unconnected-(J3-PC11-Pad19)*
X41245000Y45065000D03*
G04 #@! TO.P,J3,20,PC10*
G04 #@! TO.N,unconnected-(J3-PC10-Pad20)*
X41245000Y47605000D03*
G04 #@! TO.P,J3,21,U8*
G04 #@! TO.N,unconnected-(J3-U8-Pad21)*
X38705000Y45065000D03*
G04 #@! TO.P,J3,22,PC12*
G04 #@! TO.N,unconnected-(J3-PC12-Pad22)*
X38705000Y47605000D03*
G04 #@! TO.P,J3,23,23*
G04 #@! TO.N,T_SWO*
X36165000Y45065000D03*
G04 #@! TO.P,J3,24,PD2*
G04 #@! TO.N,unconnected-(J3-PD2-Pad24)*
X36165000Y47605000D03*
G04 #@! TO.P,J3,25,PB5*
G04 #@! TO.N,unconnected-(J3-PB5-Pad25)*
X33625000Y45065000D03*
G04 #@! TO.P,J3,26,PB4*
G04 #@! TO.N,unconnected-(J3-PB4-Pad26)*
X33625000Y47605000D03*
G04 #@! TO.P,J3,27,PB7*
G04 #@! TO.N,USART1_RX_ALT*
X31085000Y45065000D03*
G04 #@! TO.P,J3,28,PB6*
G04 #@! TO.N,USART1_TX_ALT*
X31085000Y47605000D03*
G04 #@! TO.P,J3,29,PB9*
G04 #@! TO.N,unconnected-(J3-PB9-Pad29)*
X28545000Y45065000D03*
G04 #@! TO.P,J3,30,PB8*
G04 #@! TO.N,unconnected-(J3-PB8-Pad30)*
X28545000Y47605000D03*
G04 #@! TO.P,J3,31,U10*
G04 #@! TO.N,unconnected-(J3-U10-Pad31)*
X26005000Y45065000D03*
G04 #@! TO.P,J3,32,U9*
G04 #@! TO.N,unconnected-(J3-U9-Pad32)*
X26005000Y47605000D03*
G04 #@! TO.P,J3,33,PC13*
G04 #@! TO.N,unconnected-(J3-PC13-Pad33)*
X23465000Y45065000D03*
G04 #@! TO.P,J3,34,PC14*
G04 #@! TO.N,unconnected-(J3-PC14-Pad34)*
X23465000Y47605000D03*
G04 #@! TO.P,J3,35,PC15*
G04 #@! TO.N,unconnected-(J3-PC15-Pad35)*
X20925000Y45065000D03*
G04 #@! TO.P,J3,36,U7*
G04 #@! TO.N,unconnected-(J3-U7-Pad36)*
X20925000Y47605000D03*
G04 #@! TO.P,J3,37,U6*
G04 #@! TO.N,unconnected-(J3-U6-Pad37)*
X18385000Y45065000D03*
G04 #@! TO.P,J3,38,U5*
G04 #@! TO.N,unconnected-(J3-U5-Pad38)*
X18385000Y47605000D03*
G04 #@! TO.P,J3,39,GND*
G04 #@! TO.N,GND*
X15845000Y45065000D03*
G04 #@! TO.P,J3,40,VB*
G04 #@! TO.N,unconnected-(J3-VB-Pad40)*
X15845000Y47605000D03*
G04 #@! TD*
D14*
G04 #@! TO.N,+3V3*
X66040000Y19050000D03*
X64770000Y19050000D03*
X63500000Y19050000D03*
X63500000Y15240000D03*
X64770000Y15240000D03*
X66040000Y15240000D03*
X46355000Y27940000D03*
X66040000Y17145000D03*
X63500000Y17145000D03*
X64770000Y17145000D03*
X46355000Y26670000D03*
X47625000Y27940000D03*
X69850000Y36830000D03*
X49530000Y21590000D03*
X47625000Y26670000D03*
X65811400Y26797000D03*
G04 #@! TO.N,GND*
X43815000Y14605000D03*
X48895000Y14605000D03*
X74295000Y16510000D03*
X14605000Y17145000D03*
X19050000Y17145000D03*
X32385000Y17145000D03*
X47625000Y35560000D03*
X37465000Y27940000D03*
X69215000Y47625000D03*
X39370000Y26670000D03*
X46990000Y29210000D03*
X48895000Y27305000D03*
X73025000Y26035000D03*
X21590000Y27305000D03*
X39370000Y29210000D03*
X68580000Y26797000D03*
X10160000Y17145000D03*
X73025000Y28575000D03*
X45085000Y27305000D03*
X74295000Y13970000D03*
X34290000Y24130000D03*
X31115000Y31115000D03*
X46990000Y25400000D03*
X73025000Y36830000D03*
X36830000Y35560000D03*
X52070000Y31115000D03*
X69215000Y45085000D03*
X74295000Y11430000D03*
X74295000Y42545000D03*
X53340000Y22860000D03*
X74295000Y45085000D03*
X74295000Y8890000D03*
X5715000Y10160000D03*
X34290000Y31750000D03*
X27305000Y27305000D03*
X29845000Y17145000D03*
X5715000Y13970000D03*
G04 #@! TO.N,LED*
X6985000Y33655000D03*
X49530000Y28575000D03*
G04 #@! TO.N,T_DIO*
X54610000Y24130000D03*
G04 #@! TO.N,T_SWO*
X53340000Y27305000D03*
G04 #@! TO.N,T_CLK*
X53340000Y24130000D03*
G04 #@! TO.N,T_RX*
X17780000Y23495000D03*
X42545000Y22225000D03*
G04 #@! TO.N,T_TX*
X42545000Y23495000D03*
X11430000Y23495000D03*
G04 #@! TO.N,USART3_TX*
X21590000Y20955000D03*
G04 #@! TO.N,USART3_RX*
X7620000Y20955000D03*
G04 #@! TO.N,USART1_TX_ALT*
X22860000Y26035000D03*
X22860000Y33020000D03*
G04 #@! TO.N,P_CLK*
X57150000Y36195000D03*
G04 #@! TO.N,P_DIO*
X57150000Y33655000D03*
G04 #@! TD*
D15*
G04 #@! TO.N,+3V3*
X47625000Y27940000D02*
X46355000Y27940000D01*
X64770000Y31750000D02*
X69850000Y36830000D01*
X64770000Y12370000D02*
X62903999Y10503999D01*
X65804400Y26790000D02*
X65811400Y26797000D01*
X46355000Y27940000D02*
X46355000Y26670000D01*
X64770000Y26790000D02*
X65804400Y26790000D01*
X64770000Y17145000D02*
X52720000Y17145000D01*
X64770000Y19050000D02*
X64770000Y26790000D01*
X47625000Y26670000D02*
X47625000Y27940000D01*
X62903999Y10503999D02*
X62903999Y8293999D01*
X47625000Y26670000D02*
X49530000Y24765000D01*
D16*
X62865000Y46305000D02*
X61565000Y47605000D01*
X69850000Y36830000D02*
X62865000Y43815000D01*
D15*
X49530000Y20335000D02*
X49530000Y21590000D01*
X46355000Y26670000D02*
X47625000Y26670000D01*
D16*
X62865000Y43815000D02*
X62865000Y46305000D01*
D15*
X64770000Y26790000D02*
X64770000Y31750000D01*
X62903999Y8293999D02*
X61595000Y6985000D01*
X64770000Y15240000D02*
X64770000Y12370000D01*
X52720000Y17145000D02*
X49530000Y20335000D01*
X49530000Y24765000D02*
X49530000Y21590000D01*
D17*
G04 #@! TO.N,LED*
X49530000Y29845000D02*
X49530000Y28575000D01*
X27940000Y33655000D02*
X45720000Y33655000D01*
X45720000Y33655000D02*
X49530000Y29845000D01*
X26670000Y34925000D02*
X27940000Y33655000D01*
X18695000Y33655000D02*
X19965000Y34925000D01*
X6985000Y33655000D02*
X18695000Y33655000D01*
X19965000Y34925000D02*
X26670000Y34925000D01*
G04 #@! TO.N,T_DIO*
X48895000Y45085000D02*
X55880000Y38100000D01*
X55880000Y25400000D02*
X54610000Y24130000D01*
X55880000Y38100000D02*
X55880000Y25400000D01*
G04 #@! TO.N,T_SWO*
X53340000Y27305000D02*
X53340000Y35850000D01*
X45983722Y43206278D02*
X38126278Y43206278D01*
X53340000Y35850000D02*
X45983722Y43206278D01*
X38126278Y43206278D02*
X38100000Y43180000D01*
X38100000Y43180000D02*
X36195000Y45085000D01*
G04 #@! TO.N,T_CLK*
X54600000Y36850000D02*
X54610000Y36850000D01*
X47471701Y46508299D02*
X47471701Y43978299D01*
X47471701Y43978299D02*
X54600000Y36850000D01*
X46355000Y47625000D02*
X47471701Y46508299D01*
X54610000Y36850000D02*
X54610000Y26035000D01*
X53340000Y24765000D02*
X53340000Y24130000D01*
X54610000Y26035000D02*
X53340000Y24765000D01*
G04 #@! TO.N,T_RX*
X29845000Y22225000D02*
X29210000Y22860000D01*
X29210000Y22860000D02*
X18415000Y22860000D01*
X18415000Y22860000D02*
X17780000Y23495000D01*
X42545000Y22225000D02*
X29845000Y22225000D01*
G04 #@! TO.N,T_TX*
X11430000Y23495000D02*
X12700000Y24765000D01*
X31115000Y24765000D02*
X32385000Y23495000D01*
X32385000Y23495000D02*
X42545000Y23495000D01*
X12700000Y24765000D02*
X31115000Y24765000D01*
G04 #@! TO.N,USART3_TX*
X34037718Y20955000D02*
X45085000Y9907718D01*
X21590000Y20955000D02*
X34037718Y20955000D01*
X45085000Y8255000D02*
X43815000Y6985000D01*
X45085000Y9907718D02*
X45085000Y8255000D01*
G04 #@! TO.N,USART3_RX*
X33655000Y19685000D02*
X8890000Y19685000D01*
X43815000Y9525000D02*
X33655000Y19685000D01*
X8890000Y19685000D02*
X7620000Y20955000D01*
G04 #@! TO.N,USART1_TX_ALT*
X22860000Y33020000D02*
X22860000Y26035000D01*
G04 #@! TO.N,P_CLK*
X57631701Y46201701D02*
X59055000Y47625000D01*
X57150000Y36195000D02*
X57631701Y36676701D01*
X57631701Y36676701D02*
X57631701Y46201701D01*
G04 #@! TO.N,P_DIO*
X59055000Y35560000D02*
X59055000Y45085000D01*
X57150000Y33655000D02*
X59055000Y35560000D01*
G04 #@! TD*
G04 #@! TA.AperFunction,Conductor*
G04 #@! TO.N,+3V3*
G36*
X69188138Y20937407D02*
G01*
X69213858Y20892858D01*
X69215000Y20879800D01*
X69215000Y13410200D01*
X69197407Y13361862D01*
X69152858Y13336142D01*
X69139800Y13335000D01*
X60400200Y13335000D01*
X60351862Y13352593D01*
X60326142Y13397142D01*
X60325000Y13410200D01*
X60325000Y20879800D01*
X60342593Y20928138D01*
X60387142Y20953858D01*
X60400200Y20955000D01*
X69139800Y20955000D01*
X69188138Y20937407D01*
G37*
G04 #@! TD.AperFunction*
G04 #@! TD*
G04 #@! TA.AperFunction,Conductor*
G04 #@! TO.N,+3V3*
G36*
X48233138Y28557407D02*
G01*
X48258858Y28512858D01*
X48260000Y28499800D01*
X48260000Y26110200D01*
X48242407Y26061862D01*
X48197858Y26036142D01*
X48184800Y26035000D01*
X45795200Y26035000D01*
X45746862Y26052593D01*
X45721142Y26097142D01*
X45720000Y26110200D01*
X45720000Y28499800D01*
X45737593Y28548138D01*
X45782142Y28573858D01*
X45795200Y28575000D01*
X48184800Y28575000D01*
X48233138Y28557407D01*
G37*
G04 #@! TD.AperFunction*
G04 #@! TD*
G04 #@! TA.AperFunction,Conductor*
G04 #@! TO.N,GND*
G36*
X75566131Y52679431D02*
G01*
X75697775Y52671469D01*
X75865832Y52661303D01*
X75870317Y52660758D01*
X76164538Y52606840D01*
X76168918Y52605761D01*
X76454482Y52516775D01*
X76458728Y52515164D01*
X76731468Y52392414D01*
X76735492Y52390302D01*
X76991454Y52235568D01*
X76995183Y52232995D01*
X77230638Y52048528D01*
X77234025Y52045527D01*
X77445525Y51834027D01*
X77448528Y51830637D01*
X77632992Y51595187D01*
X77635567Y51591455D01*
X77790301Y51335493D01*
X77792413Y51331469D01*
X77915163Y51058729D01*
X77916775Y51054480D01*
X78005756Y50768932D01*
X78006842Y50764528D01*
X78041572Y50575013D01*
X78060755Y50470332D01*
X78061303Y50465821D01*
X78079431Y50166131D01*
X78079500Y50163860D01*
X78079500Y4446141D01*
X78079431Y4443870D01*
X78061303Y4144180D01*
X78060755Y4139669D01*
X78013046Y3879323D01*
X78006844Y3845482D01*
X78005756Y3841069D01*
X77916775Y3555521D01*
X77915163Y3551272D01*
X77792413Y3278532D01*
X77790301Y3274508D01*
X77635567Y3018546D01*
X77632986Y3014805D01*
X77448532Y2779368D01*
X77445518Y2775966D01*
X77234034Y2564482D01*
X77230632Y2561468D01*
X76995195Y2377014D01*
X76991454Y2374433D01*
X76735492Y2219699D01*
X76731468Y2217587D01*
X76458728Y2094837D01*
X76454479Y2093225D01*
X76168931Y2004244D01*
X76164523Y2003158D01*
X75959379Y1965564D01*
X75870331Y1949245D01*
X75865820Y1948697D01*
X75566131Y1930569D01*
X75563860Y1930500D01*
X4446140Y1930500D01*
X4443869Y1930569D01*
X4144179Y1948697D01*
X4139668Y1949245D01*
X3845472Y2003158D01*
X3841068Y2004244D01*
X3555520Y2093225D01*
X3551271Y2094837D01*
X3278531Y2217587D01*
X3274507Y2219699D01*
X3018545Y2374433D01*
X3014813Y2377008D01*
X2779363Y2561472D01*
X2775973Y2564475D01*
X2564473Y2775975D01*
X2561472Y2779362D01*
X2377005Y3014817D01*
X2374432Y3018546D01*
X2219698Y3274508D01*
X2217586Y3278532D01*
X2094836Y3551272D01*
X2093224Y3555521D01*
X2004239Y3841082D01*
X2003160Y3845462D01*
X1949242Y4139683D01*
X1948697Y4144168D01*
X1937268Y4333120D01*
X1930569Y4443870D01*
X1930500Y4446141D01*
X1930500Y4453285D01*
X1930500Y5647235D01*
X3860788Y5647235D01*
X3890414Y5377978D01*
X3958926Y5115916D01*
X3958928Y5115911D01*
X4064869Y4866612D01*
X4064871Y4866608D01*
X4205983Y4635388D01*
X4205984Y4635387D01*
X4379251Y4427184D01*
X4379255Y4427180D01*
X4580998Y4246418D01*
X4806910Y4096956D01*
X5052176Y3981980D01*
X5311569Y3903940D01*
X5579561Y3864500D01*
X5579565Y3864500D01*
X5782639Y3864500D01*
X5782641Y3864501D01*
X5856251Y3869889D01*
X5985147Y3879322D01*
X5985149Y3879323D01*
X5985156Y3879323D01*
X6249553Y3938220D01*
X6502558Y4034986D01*
X6738777Y4167559D01*
X6953177Y4333112D01*
X7141186Y4528119D01*
X7298799Y4748421D01*
X7422656Y4989325D01*
X7432093Y5016989D01*
X7510116Y5245688D01*
X7510116Y5245691D01*
X7510118Y5245695D01*
X7559319Y5512067D01*
X7564259Y5647235D01*
X72440788Y5647235D01*
X72470414Y5377978D01*
X72538926Y5115916D01*
X72538928Y5115911D01*
X72644869Y4866612D01*
X72644871Y4866608D01*
X72785983Y4635388D01*
X72785984Y4635387D01*
X72959251Y4427184D01*
X72959255Y4427180D01*
X73160998Y4246418D01*
X73386910Y4096956D01*
X73632176Y3981980D01*
X73891569Y3903940D01*
X74159561Y3864500D01*
X74159565Y3864500D01*
X74362639Y3864500D01*
X74362641Y3864501D01*
X74436251Y3869889D01*
X74565147Y3879322D01*
X74565149Y3879323D01*
X74565156Y3879323D01*
X74829553Y3938220D01*
X75082558Y4034986D01*
X75318777Y4167559D01*
X75533177Y4333112D01*
X75721186Y4528119D01*
X75878799Y4748421D01*
X76002656Y4989325D01*
X76012093Y5016989D01*
X76090116Y5245688D01*
X76090116Y5245691D01*
X76090118Y5245695D01*
X76139319Y5512067D01*
X76149212Y5782765D01*
X76119586Y6052018D01*
X76113850Y6073957D01*
X76051073Y6314085D01*
X76051071Y6314090D01*
X75995391Y6445115D01*
X75945130Y6563390D01*
X75804018Y6794610D01*
X75804015Y6794614D01*
X75630748Y7002817D01*
X75630744Y7002821D01*
X75525766Y7096881D01*
X75429002Y7183582D01*
X75278394Y7283224D01*
X75203089Y7333045D01*
X74957822Y7448021D01*
X74810051Y7492479D01*
X74698431Y7526060D01*
X74531147Y7550679D01*
X74430440Y7565500D01*
X74430439Y7565500D01*
X74227369Y7565500D01*
X74227357Y7565500D01*
X74024852Y7550679D01*
X73760442Y7491779D01*
X73507439Y7395013D01*
X73271226Y7262444D01*
X73056827Y7096892D01*
X73056815Y7096881D01*
X72868818Y6901886D01*
X72868810Y6901876D01*
X72711201Y6681580D01*
X72711200Y6681578D01*
X72587341Y6440670D01*
X72499883Y6184313D01*
X72499881Y6184303D01*
X72450681Y5917936D01*
X72440788Y5647239D01*
X72440788Y5647235D01*
X7564259Y5647235D01*
X7569212Y5782765D01*
X7539586Y6052018D01*
X7533850Y6073957D01*
X7471073Y6314085D01*
X7471071Y6314090D01*
X7415391Y6445115D01*
X7365130Y6563390D01*
X7224018Y6794610D01*
X7224015Y6794614D01*
X7050748Y7002817D01*
X7050744Y7002821D01*
X7048312Y7005000D01*
X14897247Y7005000D01*
X14916610Y6808401D01*
X14916610Y6808399D01*
X14973955Y6619357D01*
X14973956Y6619353D01*
X15067086Y6445119D01*
X15067089Y6445115D01*
X15192410Y6292411D01*
X15345114Y6167090D01*
X15345118Y6167087D01*
X15345122Y6167084D01*
X15519350Y6073958D01*
X15519352Y6073957D01*
X15519356Y6073956D01*
X15562593Y6060841D01*
X15708397Y6016611D01*
X15905000Y5997247D01*
X16101603Y6016611D01*
X16290650Y6073958D01*
X16464878Y6167084D01*
X16617589Y6292411D01*
X16742916Y6445122D01*
X16836042Y6619350D01*
X16893389Y6808397D01*
X16912753Y7005000D01*
X17437247Y7005000D01*
X17456610Y6808401D01*
X17456610Y6808399D01*
X17513955Y6619357D01*
X17513956Y6619353D01*
X17607086Y6445119D01*
X17607089Y6445115D01*
X17732410Y6292411D01*
X17885114Y6167090D01*
X17885118Y6167087D01*
X17885122Y6167084D01*
X18059350Y6073958D01*
X18059352Y6073957D01*
X18059356Y6073956D01*
X18102593Y6060841D01*
X18248397Y6016611D01*
X18445000Y5997247D01*
X18641603Y6016611D01*
X18830650Y6073958D01*
X19004878Y6167084D01*
X19157589Y6292411D01*
X19282916Y6445122D01*
X19376042Y6619350D01*
X19433389Y6808397D01*
X19452753Y7005000D01*
X19452753Y7005001D01*
X19977247Y7005001D01*
X19996610Y6808401D01*
X19996610Y6808399D01*
X20053955Y6619357D01*
X20053956Y6619353D01*
X20147086Y6445119D01*
X20147089Y6445115D01*
X20272410Y6292411D01*
X20425114Y6167090D01*
X20425118Y6167087D01*
X20425122Y6167084D01*
X20599350Y6073958D01*
X20599352Y6073957D01*
X20599356Y6073956D01*
X20642593Y6060841D01*
X20788397Y6016611D01*
X20985000Y5997247D01*
X21181603Y6016611D01*
X21370650Y6073958D01*
X21544878Y6167084D01*
X21697589Y6292411D01*
X21822916Y6445122D01*
X21916042Y6619350D01*
X21973389Y6808397D01*
X21992753Y7005000D01*
X21992753Y7005001D01*
X22517247Y7005001D01*
X22536610Y6808401D01*
X22536610Y6808399D01*
X22593955Y6619357D01*
X22593956Y6619353D01*
X22687086Y6445119D01*
X22687089Y6445115D01*
X22812410Y6292411D01*
X22965114Y6167090D01*
X22965118Y6167087D01*
X22965122Y6167084D01*
X23139350Y6073958D01*
X23139352Y6073957D01*
X23139356Y6073956D01*
X23182593Y6060841D01*
X23328397Y6016611D01*
X23525000Y5997247D01*
X23721603Y6016611D01*
X23910650Y6073958D01*
X24084878Y6167084D01*
X24237589Y6292411D01*
X24362916Y6445122D01*
X24456042Y6619350D01*
X24513389Y6808397D01*
X24532753Y7005000D01*
X25057247Y7005000D01*
X25076610Y6808401D01*
X25076610Y6808399D01*
X25133955Y6619357D01*
X25133956Y6619353D01*
X25227086Y6445119D01*
X25227089Y6445115D01*
X25352410Y6292411D01*
X25505114Y6167090D01*
X25505118Y6167087D01*
X25505122Y6167084D01*
X25679350Y6073958D01*
X25679352Y6073957D01*
X25679356Y6073956D01*
X25722593Y6060841D01*
X25868397Y6016611D01*
X26065000Y5997247D01*
X26261603Y6016611D01*
X26450650Y6073958D01*
X26624878Y6167084D01*
X26777589Y6292411D01*
X26902916Y6445122D01*
X26996042Y6619350D01*
X27053389Y6808397D01*
X27072753Y7005000D01*
X27597247Y7005000D01*
X27616610Y6808401D01*
X27616610Y6808399D01*
X27673955Y6619357D01*
X27673956Y6619353D01*
X27767086Y6445119D01*
X27767089Y6445115D01*
X27892410Y6292411D01*
X28045114Y6167090D01*
X28045118Y6167087D01*
X28045122Y6167084D01*
X28219350Y6073958D01*
X28219352Y6073957D01*
X28219356Y6073956D01*
X28262593Y6060841D01*
X28408397Y6016611D01*
X28605000Y5997247D01*
X28801603Y6016611D01*
X28990650Y6073958D01*
X29164878Y6167084D01*
X29317589Y6292411D01*
X29442916Y6445122D01*
X29536042Y6619350D01*
X29593389Y6808397D01*
X29612753Y7005000D01*
X29612753Y7005001D01*
X30137247Y7005001D01*
X30156610Y6808401D01*
X30156610Y6808399D01*
X30213955Y6619357D01*
X30213956Y6619353D01*
X30307086Y6445119D01*
X30307089Y6445115D01*
X30432410Y6292411D01*
X30585114Y6167090D01*
X30585118Y6167087D01*
X30585122Y6167084D01*
X30759350Y6073958D01*
X30759352Y6073957D01*
X30759356Y6073956D01*
X30802593Y6060841D01*
X30948397Y6016611D01*
X31145000Y5997247D01*
X31341603Y6016611D01*
X31530650Y6073958D01*
X31704878Y6167084D01*
X31857589Y6292411D01*
X31982916Y6445122D01*
X32076042Y6619350D01*
X32133389Y6808397D01*
X32152753Y7005000D01*
X32152753Y7005001D01*
X32677247Y7005001D01*
X32696610Y6808401D01*
X32696610Y6808399D01*
X32753955Y6619357D01*
X32753956Y6619353D01*
X32847086Y6445119D01*
X32847089Y6445115D01*
X32972410Y6292411D01*
X33125114Y6167090D01*
X33125118Y6167087D01*
X33125122Y6167084D01*
X33299350Y6073958D01*
X33299352Y6073957D01*
X33299356Y6073956D01*
X33342593Y6060841D01*
X33488397Y6016611D01*
X33685000Y5997247D01*
X33881603Y6016611D01*
X34070650Y6073958D01*
X34244878Y6167084D01*
X34397589Y6292411D01*
X34522916Y6445122D01*
X34616042Y6619350D01*
X34673389Y6808397D01*
X34692753Y7005000D01*
X35217247Y7005000D01*
X35236610Y6808401D01*
X35236610Y6808399D01*
X35293955Y6619357D01*
X35293956Y6619353D01*
X35387086Y6445119D01*
X35387089Y6445115D01*
X35512410Y6292411D01*
X35665114Y6167090D01*
X35665118Y6167087D01*
X35665122Y6167084D01*
X35839350Y6073958D01*
X35839352Y6073957D01*
X35839356Y6073956D01*
X35882593Y6060841D01*
X36028397Y6016611D01*
X36225000Y5997247D01*
X36421603Y6016611D01*
X36610650Y6073958D01*
X36784878Y6167084D01*
X36937589Y6292411D01*
X37062916Y6445122D01*
X37156042Y6619350D01*
X37213389Y6808397D01*
X37232753Y7005000D01*
X37232753Y7005001D01*
X37757247Y7005001D01*
X37776610Y6808401D01*
X37776610Y6808399D01*
X37833955Y6619357D01*
X37833956Y6619353D01*
X37927086Y6445119D01*
X37927089Y6445115D01*
X38052410Y6292411D01*
X38205114Y6167090D01*
X38205118Y6167087D01*
X38205122Y6167084D01*
X38379350Y6073958D01*
X38379352Y6073957D01*
X38379356Y6073956D01*
X38422593Y6060841D01*
X38568397Y6016611D01*
X38765000Y5997247D01*
X38961603Y6016611D01*
X39150650Y6073958D01*
X39324878Y6167084D01*
X39477589Y6292411D01*
X39602916Y6445122D01*
X39696042Y6619350D01*
X39753389Y6808397D01*
X39772753Y7005000D01*
X39772753Y7005001D01*
X40297247Y7005001D01*
X40316610Y6808401D01*
X40316610Y6808399D01*
X40373955Y6619357D01*
X40373956Y6619353D01*
X40467086Y6445119D01*
X40467089Y6445115D01*
X40592410Y6292411D01*
X40745114Y6167090D01*
X40745118Y6167087D01*
X40745122Y6167084D01*
X40919350Y6073958D01*
X40919352Y6073957D01*
X40919356Y6073956D01*
X40962593Y6060841D01*
X41108397Y6016611D01*
X41305000Y5997247D01*
X41501603Y6016611D01*
X41690650Y6073958D01*
X41864878Y6167084D01*
X42017589Y6292411D01*
X42142916Y6445122D01*
X42236042Y6619350D01*
X42293389Y6808397D01*
X42312753Y7005000D01*
X42293389Y7201603D01*
X42236042Y7390650D01*
X42142916Y7564878D01*
X42142913Y7564882D01*
X42142910Y7564886D01*
X42017589Y7717590D01*
X41864885Y7842911D01*
X41864881Y7842914D01*
X41864879Y7842915D01*
X41864878Y7842916D01*
X41744111Y7907467D01*
X41690647Y7936044D01*
X41690643Y7936045D01*
X41501600Y7993390D01*
X41329112Y8010379D01*
X41305000Y8012753D01*
X41304999Y8012753D01*
X41108400Y7993390D01*
X41108398Y7993390D01*
X40919356Y7936045D01*
X40919352Y7936044D01*
X40745118Y7842914D01*
X40745114Y7842911D01*
X40592410Y7717590D01*
X40467089Y7564886D01*
X40467086Y7564882D01*
X40373956Y7390648D01*
X40373955Y7390644D01*
X40316610Y7201602D01*
X40316610Y7201600D01*
X40297247Y7005001D01*
X39772753Y7005001D01*
X39753389Y7201603D01*
X39696042Y7390650D01*
X39602916Y7564878D01*
X39602913Y7564882D01*
X39602910Y7564886D01*
X39477589Y7717590D01*
X39324885Y7842911D01*
X39324881Y7842914D01*
X39324879Y7842915D01*
X39324878Y7842916D01*
X39204111Y7907467D01*
X39150647Y7936044D01*
X39150643Y7936045D01*
X38961600Y7993390D01*
X38765000Y8012753D01*
X38568400Y7993390D01*
X38568398Y7993390D01*
X38379356Y7936045D01*
X38379352Y7936044D01*
X38205118Y7842914D01*
X38205114Y7842911D01*
X38052410Y7717590D01*
X37927089Y7564886D01*
X37927086Y7564882D01*
X37833956Y7390648D01*
X37833955Y7390644D01*
X37776610Y7201602D01*
X37776610Y7201600D01*
X37757247Y7005001D01*
X37232753Y7005001D01*
X37213389Y7201603D01*
X37156042Y7390650D01*
X37062916Y7564878D01*
X37062913Y7564882D01*
X37062910Y7564886D01*
X36937589Y7717590D01*
X36784885Y7842911D01*
X36784881Y7842914D01*
X36784879Y7842915D01*
X36784878Y7842916D01*
X36664111Y7907467D01*
X36610647Y7936044D01*
X36610643Y7936045D01*
X36421600Y7993390D01*
X36225000Y8012753D01*
X36028400Y7993390D01*
X36028398Y7993390D01*
X35839356Y7936045D01*
X35839352Y7936044D01*
X35665118Y7842914D01*
X35665114Y7842911D01*
X35512410Y7717590D01*
X35387089Y7564886D01*
X35387086Y7564882D01*
X35293956Y7390648D01*
X35293955Y7390644D01*
X35236610Y7201602D01*
X35236610Y7201600D01*
X35217247Y7005000D01*
X34692753Y7005000D01*
X34673389Y7201603D01*
X34616042Y7390650D01*
X34522916Y7564878D01*
X34522913Y7564882D01*
X34522910Y7564886D01*
X34397589Y7717590D01*
X34244885Y7842911D01*
X34244881Y7842914D01*
X34244879Y7842915D01*
X34244878Y7842916D01*
X34124111Y7907467D01*
X34070647Y7936044D01*
X34070643Y7936045D01*
X33881600Y7993390D01*
X33685000Y8012753D01*
X33488400Y7993390D01*
X33488398Y7993390D01*
X33299356Y7936045D01*
X33299352Y7936044D01*
X33125118Y7842914D01*
X33125114Y7842911D01*
X32972410Y7717590D01*
X32847089Y7564886D01*
X32847086Y7564882D01*
X32753956Y7390648D01*
X32753955Y7390644D01*
X32696610Y7201602D01*
X32696610Y7201600D01*
X32677247Y7005001D01*
X32152753Y7005001D01*
X32133389Y7201603D01*
X32076042Y7390650D01*
X31982916Y7564878D01*
X31982913Y7564882D01*
X31982910Y7564886D01*
X31857589Y7717590D01*
X31704885Y7842911D01*
X31704881Y7842914D01*
X31704879Y7842915D01*
X31704878Y7842916D01*
X31584111Y7907467D01*
X31530647Y7936044D01*
X31530643Y7936045D01*
X31341600Y7993390D01*
X31169112Y8010379D01*
X31145000Y8012753D01*
X31144999Y8012753D01*
X30948400Y7993390D01*
X30948398Y7993390D01*
X30759356Y7936045D01*
X30759352Y7936044D01*
X30585118Y7842914D01*
X30585114Y7842911D01*
X30432410Y7717590D01*
X30307089Y7564886D01*
X30307086Y7564882D01*
X30213956Y7390648D01*
X30213955Y7390644D01*
X30156610Y7201602D01*
X30156610Y7201600D01*
X30137247Y7005001D01*
X29612753Y7005001D01*
X29593389Y7201603D01*
X29536042Y7390650D01*
X29442916Y7564878D01*
X29442913Y7564882D01*
X29442910Y7564886D01*
X29317589Y7717590D01*
X29164885Y7842911D01*
X29164881Y7842914D01*
X29164879Y7842915D01*
X29164878Y7842916D01*
X29044111Y7907467D01*
X28990647Y7936044D01*
X28990643Y7936045D01*
X28801600Y7993390D01*
X28605000Y8012753D01*
X28408400Y7993390D01*
X28408398Y7993390D01*
X28219356Y7936045D01*
X28219352Y7936044D01*
X28045118Y7842914D01*
X28045114Y7842911D01*
X27892410Y7717590D01*
X27767089Y7564886D01*
X27767086Y7564882D01*
X27673956Y7390648D01*
X27673955Y7390644D01*
X27616610Y7201602D01*
X27616610Y7201600D01*
X27597247Y7005000D01*
X27072753Y7005000D01*
X27053389Y7201603D01*
X26996042Y7390650D01*
X26902916Y7564878D01*
X26902913Y7564882D01*
X26902910Y7564886D01*
X26777589Y7717590D01*
X26624885Y7842911D01*
X26624881Y7842914D01*
X26624879Y7842915D01*
X26624878Y7842916D01*
X26504111Y7907467D01*
X26450647Y7936044D01*
X26450643Y7936045D01*
X26261600Y7993390D01*
X26065000Y8012753D01*
X25868400Y7993390D01*
X25868398Y7993390D01*
X25679356Y7936045D01*
X25679352Y7936044D01*
X25505118Y7842914D01*
X25505114Y7842911D01*
X25352410Y7717590D01*
X25227089Y7564886D01*
X25227086Y7564882D01*
X25133956Y7390648D01*
X25133955Y7390644D01*
X25076610Y7201602D01*
X25076610Y7201600D01*
X25057247Y7005000D01*
X24532753Y7005000D01*
X24513389Y7201603D01*
X24456042Y7390650D01*
X24362916Y7564878D01*
X24362913Y7564882D01*
X24362910Y7564886D01*
X24237589Y7717590D01*
X24084885Y7842911D01*
X24084881Y7842914D01*
X24084879Y7842915D01*
X24084878Y7842916D01*
X23964111Y7907467D01*
X23910647Y7936044D01*
X23910643Y7936045D01*
X23721600Y7993390D01*
X23525000Y8012753D01*
X23328400Y7993390D01*
X23328398Y7993390D01*
X23139356Y7936045D01*
X23139352Y7936044D01*
X22965118Y7842914D01*
X22965114Y7842911D01*
X22812410Y7717590D01*
X22687089Y7564886D01*
X22687086Y7564882D01*
X22593956Y7390648D01*
X22593955Y7390644D01*
X22536610Y7201602D01*
X22536610Y7201600D01*
X22517247Y7005001D01*
X21992753Y7005001D01*
X21973389Y7201603D01*
X21916042Y7390650D01*
X21822916Y7564878D01*
X21822913Y7564882D01*
X21822910Y7564886D01*
X21697589Y7717590D01*
X21544885Y7842911D01*
X21544881Y7842914D01*
X21544879Y7842915D01*
X21544878Y7842916D01*
X21424111Y7907467D01*
X21370647Y7936044D01*
X21370643Y7936045D01*
X21181600Y7993390D01*
X21009112Y8010379D01*
X20985000Y8012753D01*
X20984999Y8012753D01*
X20788400Y7993390D01*
X20788398Y7993390D01*
X20599356Y7936045D01*
X20599352Y7936044D01*
X20425118Y7842914D01*
X20425114Y7842911D01*
X20272410Y7717590D01*
X20147089Y7564886D01*
X20147086Y7564882D01*
X20053956Y7390648D01*
X20053955Y7390644D01*
X19996610Y7201602D01*
X19996610Y7201600D01*
X19977247Y7005001D01*
X19452753Y7005001D01*
X19433389Y7201603D01*
X19376042Y7390650D01*
X19282916Y7564878D01*
X19282913Y7564882D01*
X19282910Y7564886D01*
X19157589Y7717590D01*
X19004885Y7842911D01*
X19004881Y7842914D01*
X19004879Y7842915D01*
X19004878Y7842916D01*
X18884111Y7907467D01*
X18830647Y7936044D01*
X18830643Y7936045D01*
X18641600Y7993390D01*
X18445000Y8012753D01*
X18248400Y7993390D01*
X18248398Y7993390D01*
X18059356Y7936045D01*
X18059352Y7936044D01*
X17885118Y7842914D01*
X17885114Y7842911D01*
X17732410Y7717590D01*
X17607089Y7564886D01*
X17607086Y7564882D01*
X17513956Y7390648D01*
X17513955Y7390644D01*
X17456610Y7201602D01*
X17456610Y7201600D01*
X17437247Y7005000D01*
X16912753Y7005000D01*
X16893389Y7201603D01*
X16836042Y7390650D01*
X16742916Y7564878D01*
X16742913Y7564882D01*
X16742910Y7564886D01*
X16617589Y7717590D01*
X16464885Y7842911D01*
X16464881Y7842914D01*
X16464879Y7842915D01*
X16464878Y7842916D01*
X16344111Y7907467D01*
X16290647Y7936044D01*
X16290643Y7936045D01*
X16101600Y7993390D01*
X15905000Y8012753D01*
X15708400Y7993390D01*
X15708398Y7993390D01*
X15519356Y7936045D01*
X15519352Y7936044D01*
X15345118Y7842914D01*
X15345114Y7842911D01*
X15192410Y7717590D01*
X15067089Y7564886D01*
X15067086Y7564882D01*
X14973956Y7390648D01*
X14973955Y7390644D01*
X14916610Y7201602D01*
X14916610Y7201600D01*
X14897247Y7005000D01*
X7048312Y7005000D01*
X6945766Y7096881D01*
X6849002Y7183582D01*
X6698393Y7283224D01*
X6623089Y7333045D01*
X6377822Y7448021D01*
X6230051Y7492479D01*
X6118431Y7526060D01*
X5951147Y7550679D01*
X5850440Y7565500D01*
X5850439Y7565500D01*
X5647369Y7565500D01*
X5647357Y7565500D01*
X5444852Y7550679D01*
X5180442Y7491779D01*
X4927439Y7395013D01*
X4691226Y7262444D01*
X4476827Y7096892D01*
X4476815Y7096881D01*
X4288818Y6901886D01*
X4288810Y6901876D01*
X4131201Y6681580D01*
X4131200Y6681578D01*
X4007341Y6440670D01*
X3919883Y6184313D01*
X3919881Y6184303D01*
X3870681Y5917936D01*
X3860788Y5647239D01*
X3860788Y5647235D01*
X1930500Y5647235D01*
X1930500Y8679988D01*
X14902600Y8679988D01*
X14911441Y8635538D01*
X14911442Y8635536D01*
X14945126Y8585127D01*
X14995535Y8551443D01*
X14995537Y8551442D01*
X15039987Y8542600D01*
X15752600Y8542600D01*
X15752600Y9064926D01*
X15762685Y9060320D01*
X15869237Y9045000D01*
X15940763Y9045000D01*
X16047315Y9060320D01*
X16057400Y9064926D01*
X16057400Y8542600D01*
X16770013Y8542600D01*
X16814462Y8551442D01*
X16814464Y8551443D01*
X16864873Y8585127D01*
X16898557Y8635536D01*
X16898558Y8635538D01*
X16907400Y8679988D01*
X16907400Y9392600D01*
X16381360Y9392600D01*
X16405000Y9473111D01*
X16405000Y9545000D01*
X17437247Y9545000D01*
X17456610Y9348401D01*
X17456610Y9348399D01*
X17513955Y9159357D01*
X17513956Y9159353D01*
X17534965Y9120048D01*
X17606072Y8987015D01*
X17607086Y8985119D01*
X17607089Y8985115D01*
X17732410Y8832411D01*
X17885114Y8707090D01*
X17885118Y8707087D01*
X17885122Y8707084D01*
X18058476Y8614425D01*
X18059352Y8613957D01*
X18059356Y8613956D01*
X18102593Y8600841D01*
X18248397Y8556611D01*
X18445000Y8537247D01*
X18641603Y8556611D01*
X18830650Y8613958D01*
X19004878Y8707084D01*
X19157589Y8832411D01*
X19282916Y8985122D01*
X19376042Y9159350D01*
X19433389Y9348397D01*
X19452753Y9545000D01*
X19977247Y9545000D01*
X19996610Y9348401D01*
X19996610Y9348399D01*
X20053955Y9159357D01*
X20053956Y9159353D01*
X20074965Y9120048D01*
X20146072Y8987015D01*
X20147086Y8985119D01*
X20147089Y8985115D01*
X20272410Y8832411D01*
X20425114Y8707090D01*
X20425118Y8707087D01*
X20425122Y8707084D01*
X20598476Y8614425D01*
X20599352Y8613957D01*
X20599356Y8613956D01*
X20642593Y8600841D01*
X20788397Y8556611D01*
X20985000Y8537247D01*
X21181603Y8556611D01*
X21370650Y8613958D01*
X21544878Y8707084D01*
X21697589Y8832411D01*
X21822916Y8985122D01*
X21916042Y9159350D01*
X21973389Y9348397D01*
X21992753Y9545000D01*
X22517247Y9545000D01*
X22536610Y9348401D01*
X22536610Y9348399D01*
X22593955Y9159357D01*
X22593956Y9159353D01*
X22614965Y9120048D01*
X22686072Y8987015D01*
X22687086Y8985119D01*
X22687089Y8985115D01*
X22812410Y8832411D01*
X22965114Y8707090D01*
X22965118Y8707087D01*
X22965122Y8707084D01*
X23138476Y8614425D01*
X23139352Y8613957D01*
X23139356Y8613956D01*
X23182593Y8600841D01*
X23328397Y8556611D01*
X23525000Y8537247D01*
X23721603Y8556611D01*
X23910650Y8613958D01*
X24084878Y8707084D01*
X24237589Y8832411D01*
X24362916Y8985122D01*
X24456042Y9159350D01*
X24513389Y9348397D01*
X24532753Y9545000D01*
X25057247Y9545000D01*
X25076610Y9348401D01*
X25076610Y9348399D01*
X25133955Y9159357D01*
X25133956Y9159353D01*
X25154965Y9120048D01*
X25226072Y8987015D01*
X25227086Y8985119D01*
X25227089Y8985115D01*
X25352410Y8832411D01*
X25505114Y8707090D01*
X25505118Y8707087D01*
X25505122Y8707084D01*
X25678476Y8614425D01*
X25679352Y8613957D01*
X25679356Y8613956D01*
X25722593Y8600841D01*
X25868397Y8556611D01*
X26065000Y8537247D01*
X26261603Y8556611D01*
X26450650Y8613958D01*
X26624878Y8707084D01*
X26777589Y8832411D01*
X26902916Y8985122D01*
X26996042Y9159350D01*
X27053389Y9348397D01*
X27072753Y9545000D01*
X27597247Y9545000D01*
X27616610Y9348401D01*
X27616610Y9348399D01*
X27673955Y9159357D01*
X27673956Y9159353D01*
X27694965Y9120048D01*
X27766072Y8987015D01*
X27767086Y8985119D01*
X27767089Y8985115D01*
X27892410Y8832411D01*
X28045114Y8707090D01*
X28045118Y8707087D01*
X28045122Y8707084D01*
X28218476Y8614425D01*
X28219352Y8613957D01*
X28219356Y8613956D01*
X28262593Y8600841D01*
X28408397Y8556611D01*
X28605000Y8537247D01*
X28801603Y8556611D01*
X28990650Y8613958D01*
X29164878Y8707084D01*
X29317589Y8832411D01*
X29442916Y8985122D01*
X29536042Y9159350D01*
X29593389Y9348397D01*
X29612753Y9545000D01*
X30137247Y9545000D01*
X30156610Y9348401D01*
X30156610Y9348399D01*
X30213955Y9159357D01*
X30213956Y9159353D01*
X30234965Y9120048D01*
X30306072Y8987015D01*
X30307086Y8985119D01*
X30307089Y8985115D01*
X30432410Y8832411D01*
X30585114Y8707090D01*
X30585118Y8707087D01*
X30585122Y8707084D01*
X30758476Y8614425D01*
X30759352Y8613957D01*
X30759356Y8613956D01*
X30802593Y8600841D01*
X30948397Y8556611D01*
X31145000Y8537247D01*
X31341603Y8556611D01*
X31530650Y8613958D01*
X31704878Y8707084D01*
X31857589Y8832411D01*
X31982916Y8985122D01*
X32076042Y9159350D01*
X32133389Y9348397D01*
X32152753Y9545000D01*
X32677247Y9545000D01*
X32696610Y9348401D01*
X32696610Y9348399D01*
X32753955Y9159357D01*
X32753956Y9159353D01*
X32774965Y9120048D01*
X32846072Y8987015D01*
X32847086Y8985119D01*
X32847089Y8985115D01*
X32972410Y8832411D01*
X33125114Y8707090D01*
X33125118Y8707087D01*
X33125122Y8707084D01*
X33298476Y8614425D01*
X33299352Y8613957D01*
X33299356Y8613956D01*
X33342593Y8600841D01*
X33488397Y8556611D01*
X33685000Y8537247D01*
X33881603Y8556611D01*
X34070650Y8613958D01*
X34244878Y8707084D01*
X34397589Y8832411D01*
X34522916Y8985122D01*
X34616042Y9159350D01*
X34673389Y9348397D01*
X34692753Y9545000D01*
X35217247Y9545000D01*
X35236610Y9348401D01*
X35236610Y9348399D01*
X35293955Y9159357D01*
X35293956Y9159353D01*
X35314965Y9120048D01*
X35386072Y8987015D01*
X35387086Y8985119D01*
X35387089Y8985115D01*
X35512410Y8832411D01*
X35665114Y8707090D01*
X35665118Y8707087D01*
X35665122Y8707084D01*
X35838476Y8614425D01*
X35839352Y8613957D01*
X35839356Y8613956D01*
X35882593Y8600841D01*
X36028397Y8556611D01*
X36225000Y8537247D01*
X36421603Y8556611D01*
X36610650Y8613958D01*
X36784878Y8707084D01*
X36937589Y8832411D01*
X37062916Y8985122D01*
X37156042Y9159350D01*
X37213389Y9348397D01*
X37232753Y9545000D01*
X37757247Y9545000D01*
X37776610Y9348401D01*
X37776610Y9348399D01*
X37833955Y9159357D01*
X37833956Y9159353D01*
X37854965Y9120048D01*
X37926072Y8987015D01*
X37927086Y8985119D01*
X37927089Y8985115D01*
X38052410Y8832411D01*
X38205114Y8707090D01*
X38205118Y8707087D01*
X38205122Y8707084D01*
X38378476Y8614425D01*
X38379352Y8613957D01*
X38379356Y8613956D01*
X38422593Y8600841D01*
X38568397Y8556611D01*
X38765000Y8537247D01*
X38961603Y8556611D01*
X39150650Y8613958D01*
X39324878Y8707084D01*
X39477589Y8832411D01*
X39602916Y8985122D01*
X39696042Y9159350D01*
X39753389Y9348397D01*
X39772753Y9545000D01*
X40297247Y9545000D01*
X40316610Y9348401D01*
X40316610Y9348399D01*
X40373955Y9159357D01*
X40373956Y9159353D01*
X40394965Y9120048D01*
X40466072Y8987015D01*
X40467086Y8985119D01*
X40467089Y8985115D01*
X40592410Y8832411D01*
X40745114Y8707090D01*
X40745118Y8707087D01*
X40745122Y8707084D01*
X40918476Y8614425D01*
X40919352Y8613957D01*
X40919356Y8613956D01*
X40962593Y8600841D01*
X41108397Y8556611D01*
X41305000Y8537247D01*
X41501603Y8556611D01*
X41690650Y8613958D01*
X41864878Y8707084D01*
X42017589Y8832411D01*
X42142916Y8985122D01*
X42236042Y9159350D01*
X42293389Y9348397D01*
X42312753Y9545000D01*
X42293389Y9741603D01*
X42236102Y9930452D01*
X42236044Y9930644D01*
X42236043Y9930648D01*
X42228991Y9943842D01*
X42142916Y10104878D01*
X42142913Y10104882D01*
X42142910Y10104886D01*
X42017589Y10257590D01*
X41864885Y10382911D01*
X41864881Y10382914D01*
X41864879Y10382915D01*
X41864878Y10382916D01*
X41777764Y10429480D01*
X41690647Y10476044D01*
X41690643Y10476045D01*
X41501600Y10533390D01*
X41305000Y10552753D01*
X41108400Y10533390D01*
X41108398Y10533390D01*
X40919356Y10476045D01*
X40919352Y10476044D01*
X40745118Y10382914D01*
X40745114Y10382911D01*
X40592410Y10257590D01*
X40467089Y10104886D01*
X40467086Y10104882D01*
X40373956Y9930648D01*
X40373955Y9930644D01*
X40316610Y9741602D01*
X40316610Y9741600D01*
X40297247Y9545000D01*
X39772753Y9545000D01*
X39753389Y9741603D01*
X39696102Y9930452D01*
X39696044Y9930644D01*
X39696043Y9930648D01*
X39688991Y9943842D01*
X39602916Y10104878D01*
X39602913Y10104882D01*
X39602910Y10104886D01*
X39477589Y10257590D01*
X39324885Y10382911D01*
X39324881Y10382914D01*
X39324879Y10382915D01*
X39324878Y10382916D01*
X39237764Y10429480D01*
X39150647Y10476044D01*
X39150643Y10476045D01*
X38961600Y10533390D01*
X38765000Y10552753D01*
X38568400Y10533390D01*
X38568398Y10533390D01*
X38379356Y10476045D01*
X38379352Y10476044D01*
X38205118Y10382914D01*
X38205114Y10382911D01*
X38052410Y10257590D01*
X37927089Y10104886D01*
X37927086Y10104882D01*
X37833956Y9930648D01*
X37833955Y9930644D01*
X37776610Y9741602D01*
X37776610Y9741600D01*
X37757247Y9545000D01*
X37232753Y9545000D01*
X37213389Y9741603D01*
X37156102Y9930452D01*
X37156044Y9930644D01*
X37156043Y9930648D01*
X37148991Y9943842D01*
X37062916Y10104878D01*
X37062913Y10104882D01*
X37062910Y10104886D01*
X36937589Y10257590D01*
X36784885Y10382911D01*
X36784881Y10382914D01*
X36784879Y10382915D01*
X36784878Y10382916D01*
X36697764Y10429480D01*
X36610647Y10476044D01*
X36610643Y10476045D01*
X36421600Y10533390D01*
X36234310Y10551836D01*
X36225000Y10552753D01*
X36224999Y10552753D01*
X36028400Y10533390D01*
X36028398Y10533390D01*
X35839356Y10476045D01*
X35839352Y10476044D01*
X35665118Y10382914D01*
X35665114Y10382911D01*
X35512410Y10257590D01*
X35387089Y10104886D01*
X35387086Y10104882D01*
X35293956Y9930648D01*
X35293955Y9930644D01*
X35236610Y9741602D01*
X35236610Y9741600D01*
X35217247Y9545000D01*
X34692753Y9545000D01*
X34673389Y9741603D01*
X34616102Y9930452D01*
X34616044Y9930644D01*
X34616043Y9930648D01*
X34608991Y9943842D01*
X34522916Y10104878D01*
X34522913Y10104882D01*
X34522910Y10104886D01*
X34397589Y10257590D01*
X34244885Y10382911D01*
X34244881Y10382914D01*
X34244879Y10382915D01*
X34244878Y10382916D01*
X34157763Y10429480D01*
X34070647Y10476044D01*
X34070643Y10476045D01*
X33881600Y10533390D01*
X33685000Y10552753D01*
X33488400Y10533390D01*
X33488398Y10533390D01*
X33299356Y10476045D01*
X33299352Y10476044D01*
X33125118Y10382914D01*
X33125114Y10382911D01*
X32972410Y10257590D01*
X32847089Y10104886D01*
X32847086Y10104882D01*
X32753956Y9930648D01*
X32753955Y9930644D01*
X32696610Y9741602D01*
X32696610Y9741600D01*
X32677247Y9545000D01*
X32152753Y9545000D01*
X32133389Y9741603D01*
X32076102Y9930452D01*
X32076044Y9930644D01*
X32076043Y9930648D01*
X32068991Y9943842D01*
X31982916Y10104878D01*
X31982913Y10104882D01*
X31982910Y10104886D01*
X31857589Y10257590D01*
X31704885Y10382911D01*
X31704881Y10382914D01*
X31704879Y10382915D01*
X31704878Y10382916D01*
X31617764Y10429480D01*
X31530647Y10476044D01*
X31530643Y10476045D01*
X31341600Y10533390D01*
X31145000Y10552753D01*
X30948400Y10533390D01*
X30948398Y10533390D01*
X30759356Y10476045D01*
X30759352Y10476044D01*
X30585118Y10382914D01*
X30585114Y10382911D01*
X30432410Y10257590D01*
X30307089Y10104886D01*
X30307086Y10104882D01*
X30213956Y9930648D01*
X30213955Y9930644D01*
X30156610Y9741602D01*
X30156610Y9741600D01*
X30137247Y9545000D01*
X29612753Y9545000D01*
X29593389Y9741603D01*
X29536102Y9930452D01*
X29536044Y9930644D01*
X29536043Y9930648D01*
X29528991Y9943842D01*
X29442916Y10104878D01*
X29442913Y10104882D01*
X29442910Y10104886D01*
X29317589Y10257590D01*
X29164885Y10382911D01*
X29164881Y10382914D01*
X29164879Y10382915D01*
X29164878Y10382916D01*
X29077763Y10429480D01*
X28990647Y10476044D01*
X28990643Y10476045D01*
X28801600Y10533390D01*
X28605000Y10552753D01*
X28408400Y10533390D01*
X28408398Y10533390D01*
X28219356Y10476045D01*
X28219352Y10476044D01*
X28045118Y10382914D01*
X28045114Y10382911D01*
X27892410Y10257590D01*
X27767089Y10104886D01*
X27767086Y10104882D01*
X27673956Y9930648D01*
X27673955Y9930644D01*
X27616610Y9741602D01*
X27616610Y9741600D01*
X27597247Y9545000D01*
X27072753Y9545000D01*
X27053389Y9741603D01*
X26996102Y9930452D01*
X26996044Y9930644D01*
X26996043Y9930648D01*
X26988991Y9943842D01*
X26902916Y10104878D01*
X26902913Y10104882D01*
X26902910Y10104886D01*
X26777589Y10257590D01*
X26624885Y10382911D01*
X26624881Y10382914D01*
X26624879Y10382915D01*
X26624878Y10382916D01*
X26537764Y10429480D01*
X26450647Y10476044D01*
X26450643Y10476045D01*
X26261600Y10533390D01*
X26074310Y10551836D01*
X26065000Y10552753D01*
X26064999Y10552753D01*
X25868400Y10533390D01*
X25868398Y10533390D01*
X25679356Y10476045D01*
X25679352Y10476044D01*
X25505118Y10382914D01*
X25505114Y10382911D01*
X25352410Y10257590D01*
X25227089Y10104886D01*
X25227086Y10104882D01*
X25133956Y9930648D01*
X25133955Y9930644D01*
X25076610Y9741602D01*
X25076610Y9741600D01*
X25057247Y9545000D01*
X24532753Y9545000D01*
X24513389Y9741603D01*
X24456102Y9930452D01*
X24456044Y9930644D01*
X24456043Y9930648D01*
X24448991Y9943842D01*
X24362916Y10104878D01*
X24362913Y10104882D01*
X24362910Y10104886D01*
X24237589Y10257590D01*
X24084885Y10382911D01*
X24084881Y10382914D01*
X24084879Y10382915D01*
X24084878Y10382916D01*
X23997763Y10429480D01*
X23910647Y10476044D01*
X23910643Y10476045D01*
X23721600Y10533390D01*
X23525000Y10552753D01*
X23328400Y10533390D01*
X23328398Y10533390D01*
X23139356Y10476045D01*
X23139352Y10476044D01*
X22965118Y10382914D01*
X22965114Y10382911D01*
X22812410Y10257590D01*
X22687089Y10104886D01*
X22687086Y10104882D01*
X22593956Y9930648D01*
X22593955Y9930644D01*
X22536610Y9741602D01*
X22536610Y9741600D01*
X22517247Y9545000D01*
X21992753Y9545000D01*
X21973389Y9741603D01*
X21916102Y9930452D01*
X21916044Y9930644D01*
X21916043Y9930648D01*
X21908991Y9943842D01*
X21822916Y10104878D01*
X21822913Y10104882D01*
X21822910Y10104886D01*
X21697589Y10257590D01*
X21544885Y10382911D01*
X21544881Y10382914D01*
X21544879Y10382915D01*
X21544878Y10382916D01*
X21457764Y10429480D01*
X21370647Y10476044D01*
X21370643Y10476045D01*
X21181600Y10533390D01*
X20985000Y10552753D01*
X20788400Y10533390D01*
X20788398Y10533390D01*
X20599356Y10476045D01*
X20599352Y10476044D01*
X20425118Y10382914D01*
X20425114Y10382911D01*
X20272410Y10257590D01*
X20147089Y10104886D01*
X20147086Y10104882D01*
X20053956Y9930648D01*
X20053955Y9930644D01*
X19996610Y9741602D01*
X19996610Y9741600D01*
X19977247Y9545000D01*
X19452753Y9545000D01*
X19433389Y9741603D01*
X19376102Y9930452D01*
X19376044Y9930644D01*
X19376043Y9930648D01*
X19368991Y9943842D01*
X19282916Y10104878D01*
X19282913Y10104882D01*
X19282910Y10104886D01*
X19157589Y10257590D01*
X19004885Y10382911D01*
X19004881Y10382914D01*
X19004879Y10382915D01*
X19004878Y10382916D01*
X18917763Y10429480D01*
X18830647Y10476044D01*
X18830643Y10476045D01*
X18641600Y10533390D01*
X18445000Y10552753D01*
X18248400Y10533390D01*
X18248398Y10533390D01*
X18059356Y10476045D01*
X18059352Y10476044D01*
X17885118Y10382914D01*
X17885114Y10382911D01*
X17732410Y10257590D01*
X17607089Y10104886D01*
X17607086Y10104882D01*
X17513956Y9930648D01*
X17513955Y9930644D01*
X17456610Y9741602D01*
X17456610Y9741600D01*
X17437247Y9545000D01*
X16405000Y9545000D01*
X16405000Y9616889D01*
X16381360Y9697400D01*
X16907400Y9697400D01*
X16907400Y10410013D01*
X16898558Y10454463D01*
X16898557Y10454465D01*
X16864873Y10504874D01*
X16814464Y10538558D01*
X16814462Y10538559D01*
X16770013Y10547400D01*
X16057400Y10547400D01*
X16057400Y10025075D01*
X16047315Y10029680D01*
X15940763Y10045000D01*
X15869237Y10045000D01*
X15762685Y10029680D01*
X15752600Y10025075D01*
X15752600Y10547400D01*
X15039987Y10547400D01*
X14995537Y10538559D01*
X14995535Y10538558D01*
X14945126Y10504874D01*
X14911442Y10454465D01*
X14911441Y10454463D01*
X14902600Y10410013D01*
X14902600Y9697400D01*
X15428640Y9697400D01*
X15405000Y9616889D01*
X15405000Y9473111D01*
X15428640Y9392600D01*
X14902600Y9392600D01*
X14902600Y8679988D01*
X1930500Y8679988D01*
X1930499Y20955000D01*
X7111929Y20955000D01*
X7132509Y20811860D01*
X7132509Y20811859D01*
X7132510Y20811857D01*
X7132510Y20811855D01*
X7192581Y20680319D01*
X7192582Y20680318D01*
X7192583Y20680316D01*
X7287284Y20571026D01*
X7408940Y20492842D01*
X7547694Y20452100D01*
X7547697Y20452100D01*
X7692304Y20452100D01*
X7692306Y20452100D01*
X7692307Y20452101D01*
X7697631Y20452866D01*
X7697898Y20451004D01*
X7741560Y20448243D01*
X7764606Y20432516D01*
X8677207Y19519916D01*
X8686559Y19508521D01*
X8697357Y19492360D01*
X8718949Y19477934D01*
X8761555Y19449466D01*
X8761556Y19449464D01*
X8785739Y19433305D01*
X8785741Y19433304D01*
X8785743Y19433303D01*
X8890000Y19412565D01*
X8909054Y19416355D01*
X8923725Y19417800D01*
X33513174Y19417800D01*
X33561512Y19400207D01*
X33566348Y19395774D01*
X42915454Y10046668D01*
X42937194Y10000048D01*
X42928601Y9958046D01*
X42913958Y9930652D01*
X42913955Y9930644D01*
X42856610Y9741602D01*
X42856610Y9741600D01*
X42837247Y9545000D01*
X42856610Y9348401D01*
X42856610Y9348399D01*
X42913955Y9159357D01*
X42913956Y9159353D01*
X42934965Y9120048D01*
X43006072Y8987015D01*
X43007086Y8985119D01*
X43007089Y8985115D01*
X43132410Y8832411D01*
X43285114Y8707090D01*
X43285118Y8707087D01*
X43285122Y8707084D01*
X43458476Y8614425D01*
X43459352Y8613957D01*
X43459356Y8613956D01*
X43502593Y8600841D01*
X43648397Y8556611D01*
X43845000Y8537247D01*
X44041603Y8556611D01*
X44230650Y8613958D01*
X44404878Y8707084D01*
X44557589Y8832411D01*
X44591819Y8874120D01*
X44684470Y8987015D01*
X44728735Y9013220D01*
X44779487Y9004840D01*
X44812980Y8965798D01*
X44817800Y8939309D01*
X44817800Y8396826D01*
X44800207Y8348488D01*
X44795774Y8343652D01*
X44372735Y7920614D01*
X44326115Y7898874D01*
X44284113Y7907467D01*
X44230652Y7936042D01*
X44230643Y7936045D01*
X44041600Y7993390D01*
X43845000Y8012753D01*
X43648400Y7993390D01*
X43648398Y7993390D01*
X43459356Y7936045D01*
X43459352Y7936044D01*
X43285118Y7842914D01*
X43285114Y7842911D01*
X43132410Y7717590D01*
X43007089Y7564886D01*
X43007086Y7564882D01*
X42913956Y7390648D01*
X42913955Y7390644D01*
X42856610Y7201602D01*
X42856610Y7201600D01*
X42837247Y7005000D01*
X42856610Y6808401D01*
X42856610Y6808399D01*
X42913955Y6619357D01*
X42913956Y6619353D01*
X43007086Y6445119D01*
X43007089Y6445115D01*
X43132410Y6292411D01*
X43285114Y6167090D01*
X43285118Y6167087D01*
X43285122Y6167084D01*
X43459350Y6073958D01*
X43459352Y6073957D01*
X43459356Y6073956D01*
X43502593Y6060841D01*
X43648397Y6016611D01*
X43845000Y5997247D01*
X44041603Y6016611D01*
X44230650Y6073958D01*
X44404878Y6167084D01*
X44557589Y6292411D01*
X44682916Y6445122D01*
X44776042Y6619350D01*
X44833389Y6808397D01*
X44852753Y7005000D01*
X45377247Y7005000D01*
X45396610Y6808401D01*
X45396610Y6808399D01*
X45453955Y6619357D01*
X45453956Y6619353D01*
X45547086Y6445119D01*
X45547089Y6445115D01*
X45672410Y6292411D01*
X45825114Y6167090D01*
X45825118Y6167087D01*
X45825122Y6167084D01*
X45999350Y6073958D01*
X45999352Y6073957D01*
X45999356Y6073956D01*
X46042593Y6060841D01*
X46188397Y6016611D01*
X46385000Y5997247D01*
X46581603Y6016611D01*
X46770650Y6073958D01*
X46944878Y6167084D01*
X47097589Y6292411D01*
X47222916Y6445122D01*
X47316042Y6619350D01*
X47373389Y6808397D01*
X47392753Y7005000D01*
X47392753Y7005001D01*
X47917247Y7005001D01*
X47936610Y6808401D01*
X47936610Y6808399D01*
X47993955Y6619357D01*
X47993956Y6619353D01*
X48087086Y6445119D01*
X48087089Y6445115D01*
X48212410Y6292411D01*
X48365114Y6167090D01*
X48365118Y6167087D01*
X48365122Y6167084D01*
X48539350Y6073958D01*
X48539352Y6073957D01*
X48539356Y6073956D01*
X48582593Y6060841D01*
X48728397Y6016611D01*
X48925000Y5997247D01*
X49121603Y6016611D01*
X49310650Y6073958D01*
X49484878Y6167084D01*
X49637589Y6292411D01*
X49762916Y6445122D01*
X49856042Y6619350D01*
X49913389Y6808397D01*
X49932753Y7005000D01*
X49932753Y7005001D01*
X50457247Y7005001D01*
X50476610Y6808401D01*
X50476610Y6808399D01*
X50533955Y6619357D01*
X50533956Y6619353D01*
X50627086Y6445119D01*
X50627089Y6445115D01*
X50752410Y6292411D01*
X50905114Y6167090D01*
X50905118Y6167087D01*
X50905122Y6167084D01*
X51079350Y6073958D01*
X51079352Y6073957D01*
X51079356Y6073956D01*
X51122593Y6060841D01*
X51268397Y6016611D01*
X51465000Y5997247D01*
X51661603Y6016611D01*
X51850650Y6073958D01*
X52024878Y6167084D01*
X52177589Y6292411D01*
X52302916Y6445122D01*
X52396042Y6619350D01*
X52453389Y6808397D01*
X52472753Y7005000D01*
X52997247Y7005000D01*
X53016610Y6808401D01*
X53016610Y6808399D01*
X53073955Y6619357D01*
X53073956Y6619353D01*
X53167086Y6445119D01*
X53167089Y6445115D01*
X53292410Y6292411D01*
X53445114Y6167090D01*
X53445118Y6167087D01*
X53445122Y6167084D01*
X53619350Y6073958D01*
X53619352Y6073957D01*
X53619356Y6073956D01*
X53662593Y6060841D01*
X53808397Y6016611D01*
X54005000Y5997247D01*
X54201603Y6016611D01*
X54390650Y6073958D01*
X54564878Y6167084D01*
X54717589Y6292411D01*
X54842916Y6445122D01*
X54936042Y6619350D01*
X54993389Y6808397D01*
X55012753Y7005000D01*
X55012753Y7005001D01*
X55537247Y7005001D01*
X55556610Y6808401D01*
X55556610Y6808399D01*
X55613955Y6619357D01*
X55613956Y6619353D01*
X55707086Y6445119D01*
X55707089Y6445115D01*
X55832410Y6292411D01*
X55985114Y6167090D01*
X55985118Y6167087D01*
X55985122Y6167084D01*
X56159350Y6073958D01*
X56159352Y6073957D01*
X56159356Y6073956D01*
X56202593Y6060841D01*
X56348397Y6016611D01*
X56545000Y5997247D01*
X56741603Y6016611D01*
X56930650Y6073958D01*
X57104878Y6167084D01*
X57257589Y6292411D01*
X57382916Y6445122D01*
X57476042Y6619350D01*
X57533389Y6808397D01*
X57552753Y7005000D01*
X57552753Y7005001D01*
X58077247Y7005001D01*
X58096610Y6808401D01*
X58096610Y6808399D01*
X58153955Y6619357D01*
X58153956Y6619353D01*
X58247086Y6445119D01*
X58247089Y6445115D01*
X58372410Y6292411D01*
X58525114Y6167090D01*
X58525118Y6167087D01*
X58525122Y6167084D01*
X58699350Y6073958D01*
X58699352Y6073957D01*
X58699356Y6073956D01*
X58742593Y6060841D01*
X58888397Y6016611D01*
X59085000Y5997247D01*
X59281603Y6016611D01*
X59470650Y6073958D01*
X59644878Y6167084D01*
X59797589Y6292411D01*
X59922916Y6445122D01*
X60016042Y6619350D01*
X60073389Y6808397D01*
X60092753Y7005000D01*
X60073389Y7201603D01*
X60016042Y7390650D01*
X59922916Y7564878D01*
X59922913Y7564882D01*
X59922910Y7564886D01*
X59797589Y7717590D01*
X59644885Y7842911D01*
X59644881Y7842914D01*
X59644879Y7842915D01*
X59644878Y7842916D01*
X59524111Y7907467D01*
X59470647Y7936044D01*
X59470643Y7936045D01*
X59281600Y7993390D01*
X59085000Y8012753D01*
X58888400Y7993390D01*
X58888398Y7993390D01*
X58699356Y7936045D01*
X58699352Y7936044D01*
X58525118Y7842914D01*
X58525114Y7842911D01*
X58372410Y7717590D01*
X58247089Y7564886D01*
X58247086Y7564882D01*
X58153956Y7390648D01*
X58153955Y7390644D01*
X58096610Y7201602D01*
X58096610Y7201600D01*
X58077247Y7005001D01*
X57552753Y7005001D01*
X57533389Y7201603D01*
X57476042Y7390650D01*
X57382916Y7564878D01*
X57382913Y7564882D01*
X57382910Y7564886D01*
X57257589Y7717590D01*
X57104885Y7842911D01*
X57104881Y7842914D01*
X57104879Y7842915D01*
X57104878Y7842916D01*
X56984111Y7907467D01*
X56930647Y7936044D01*
X56930643Y7936045D01*
X56741600Y7993390D01*
X56545000Y8012753D01*
X56348400Y7993390D01*
X56348398Y7993390D01*
X56159356Y7936045D01*
X56159352Y7936044D01*
X55985118Y7842914D01*
X55985114Y7842911D01*
X55832410Y7717590D01*
X55707089Y7564886D01*
X55707086Y7564882D01*
X55613956Y7390648D01*
X55613955Y7390644D01*
X55556610Y7201602D01*
X55556610Y7201600D01*
X55537247Y7005001D01*
X55012753Y7005001D01*
X54993389Y7201603D01*
X54936042Y7390650D01*
X54842916Y7564878D01*
X54842913Y7564882D01*
X54842910Y7564886D01*
X54717589Y7717590D01*
X54564885Y7842911D01*
X54564881Y7842914D01*
X54564879Y7842915D01*
X54564878Y7842916D01*
X54444111Y7907467D01*
X54390647Y7936044D01*
X54390643Y7936045D01*
X54201600Y7993390D01*
X54005000Y8012753D01*
X53808400Y7993390D01*
X53808398Y7993390D01*
X53619356Y7936045D01*
X53619352Y7936044D01*
X53445118Y7842914D01*
X53445114Y7842911D01*
X53292410Y7717590D01*
X53167089Y7564886D01*
X53167086Y7564882D01*
X53073956Y7390648D01*
X53073955Y7390644D01*
X53016610Y7201602D01*
X53016610Y7201600D01*
X52997247Y7005000D01*
X52472753Y7005000D01*
X52453389Y7201603D01*
X52396042Y7390650D01*
X52302916Y7564878D01*
X52302913Y7564882D01*
X52302910Y7564886D01*
X52177589Y7717590D01*
X52024885Y7842911D01*
X52024881Y7842914D01*
X52024879Y7842915D01*
X52024878Y7842916D01*
X51904111Y7907467D01*
X51850647Y7936044D01*
X51850643Y7936045D01*
X51661600Y7993390D01*
X51489112Y8010379D01*
X51465000Y8012753D01*
X51464999Y8012753D01*
X51268400Y7993390D01*
X51268398Y7993390D01*
X51079356Y7936045D01*
X51079352Y7936044D01*
X50905118Y7842914D01*
X50905114Y7842911D01*
X50752410Y7717590D01*
X50627089Y7564886D01*
X50627086Y7564882D01*
X50533956Y7390648D01*
X50533955Y7390644D01*
X50476610Y7201602D01*
X50476610Y7201600D01*
X50457247Y7005001D01*
X49932753Y7005001D01*
X49913389Y7201603D01*
X49856042Y7390650D01*
X49762916Y7564878D01*
X49762913Y7564882D01*
X49762910Y7564886D01*
X49637589Y7717590D01*
X49484885Y7842911D01*
X49484881Y7842914D01*
X49484879Y7842915D01*
X49484878Y7842916D01*
X49364111Y7907467D01*
X49310647Y7936044D01*
X49310643Y7936045D01*
X49121600Y7993390D01*
X48925000Y8012753D01*
X48728400Y7993390D01*
X48728398Y7993390D01*
X48539356Y7936045D01*
X48539352Y7936044D01*
X48365118Y7842914D01*
X48365114Y7842911D01*
X48212410Y7717590D01*
X48087089Y7564886D01*
X48087086Y7564882D01*
X47993956Y7390648D01*
X47993955Y7390644D01*
X47936610Y7201602D01*
X47936610Y7201600D01*
X47917247Y7005001D01*
X47392753Y7005001D01*
X47373389Y7201603D01*
X47316042Y7390650D01*
X47222916Y7564878D01*
X47222913Y7564882D01*
X47222910Y7564886D01*
X47097589Y7717590D01*
X46944885Y7842911D01*
X46944881Y7842914D01*
X46944879Y7842915D01*
X46944878Y7842916D01*
X46824111Y7907467D01*
X46770647Y7936044D01*
X46770643Y7936045D01*
X46581600Y7993390D01*
X46385000Y8012753D01*
X46188400Y7993390D01*
X46188398Y7993390D01*
X45999356Y7936045D01*
X45999352Y7936044D01*
X45825118Y7842914D01*
X45825114Y7842911D01*
X45672410Y7717590D01*
X45547089Y7564886D01*
X45547086Y7564882D01*
X45453956Y7390648D01*
X45453955Y7390644D01*
X45396610Y7201602D01*
X45396610Y7201600D01*
X45377247Y7005000D01*
X44852753Y7005000D01*
X44833389Y7201603D01*
X44776042Y7390650D01*
X44752497Y7434700D01*
X44740499Y7457148D01*
X44733230Y7508071D01*
X44753644Y7545768D01*
X45250089Y8042214D01*
X45261478Y8051561D01*
X45277641Y8062359D01*
X45320536Y8126558D01*
X45336697Y8150743D01*
X45357435Y8255000D01*
X45353645Y8274054D01*
X45352200Y8288725D01*
X45352200Y9049510D01*
X45369793Y9097848D01*
X45414342Y9123568D01*
X45465000Y9114635D01*
X45493719Y9084961D01*
X45546932Y8985407D01*
X45547086Y8985119D01*
X45547089Y8985115D01*
X45672410Y8832411D01*
X45825114Y8707090D01*
X45825118Y8707087D01*
X45825122Y8707084D01*
X45998476Y8614425D01*
X45999352Y8613957D01*
X45999356Y8613956D01*
X46042593Y8600841D01*
X46188397Y8556611D01*
X46385000Y8537247D01*
X46581603Y8556611D01*
X46770650Y8613958D01*
X46944878Y8707084D01*
X47097589Y8832411D01*
X47222916Y8985122D01*
X47316042Y9159350D01*
X47373389Y9348397D01*
X47392753Y9545000D01*
X47917247Y9545000D01*
X47936610Y9348401D01*
X47936610Y9348399D01*
X47993955Y9159357D01*
X47993956Y9159353D01*
X48014965Y9120048D01*
X48086072Y8987015D01*
X48087086Y8985119D01*
X48087089Y8985115D01*
X48212410Y8832411D01*
X48365114Y8707090D01*
X48365118Y8707087D01*
X48365122Y8707084D01*
X48538476Y8614425D01*
X48539352Y8613957D01*
X48539356Y8613956D01*
X48582593Y8600841D01*
X48728397Y8556611D01*
X48925000Y8537247D01*
X49121603Y8556611D01*
X49310650Y8613958D01*
X49484878Y8707084D01*
X49637589Y8832411D01*
X49762916Y8985122D01*
X49856042Y9159350D01*
X49913389Y9348397D01*
X49932753Y9545000D01*
X50457247Y9545000D01*
X50476610Y9348401D01*
X50476610Y9348399D01*
X50533955Y9159357D01*
X50533956Y9159353D01*
X50554965Y9120048D01*
X50626072Y8987015D01*
X50627086Y8985119D01*
X50627089Y8985115D01*
X50752410Y8832411D01*
X50905114Y8707090D01*
X50905118Y8707087D01*
X50905122Y8707084D01*
X51078476Y8614425D01*
X51079352Y8613957D01*
X51079356Y8613956D01*
X51122593Y8600841D01*
X51268397Y8556611D01*
X51465000Y8537247D01*
X51661603Y8556611D01*
X51850650Y8613958D01*
X52024878Y8707084D01*
X52177589Y8832411D01*
X52302916Y8985122D01*
X52396042Y9159350D01*
X52453389Y9348397D01*
X52472753Y9545000D01*
X52997247Y9545000D01*
X53016610Y9348401D01*
X53016610Y9348399D01*
X53073955Y9159357D01*
X53073956Y9159353D01*
X53094965Y9120048D01*
X53166072Y8987015D01*
X53167086Y8985119D01*
X53167089Y8985115D01*
X53292410Y8832411D01*
X53445114Y8707090D01*
X53445118Y8707087D01*
X53445122Y8707084D01*
X53618476Y8614425D01*
X53619352Y8613957D01*
X53619356Y8613956D01*
X53662593Y8600841D01*
X53808397Y8556611D01*
X54005000Y8537247D01*
X54201603Y8556611D01*
X54390650Y8613958D01*
X54564878Y8707084D01*
X54717589Y8832411D01*
X54842916Y8985122D01*
X54936042Y9159350D01*
X54993389Y9348397D01*
X55012753Y9545000D01*
X55537247Y9545000D01*
X55556610Y9348401D01*
X55556610Y9348399D01*
X55613955Y9159357D01*
X55613956Y9159353D01*
X55634965Y9120048D01*
X55706072Y8987015D01*
X55707086Y8985119D01*
X55707089Y8985115D01*
X55832410Y8832411D01*
X55985114Y8707090D01*
X55985118Y8707087D01*
X55985122Y8707084D01*
X56158476Y8614425D01*
X56159352Y8613957D01*
X56159356Y8613956D01*
X56202593Y8600841D01*
X56348397Y8556611D01*
X56545000Y8537247D01*
X56741603Y8556611D01*
X56930650Y8613958D01*
X57104878Y8707084D01*
X57257589Y8832411D01*
X57382916Y8985122D01*
X57476042Y9159350D01*
X57533389Y9348397D01*
X57552753Y9545000D01*
X58077247Y9545000D01*
X58096610Y9348401D01*
X58096610Y9348399D01*
X58153955Y9159357D01*
X58153956Y9159353D01*
X58174965Y9120048D01*
X58246072Y8987015D01*
X58247086Y8985119D01*
X58247089Y8985115D01*
X58372410Y8832411D01*
X58525114Y8707090D01*
X58525118Y8707087D01*
X58525122Y8707084D01*
X58698476Y8614425D01*
X58699352Y8613957D01*
X58699356Y8613956D01*
X58742593Y8600841D01*
X58888397Y8556611D01*
X59085000Y8537247D01*
X59281603Y8556611D01*
X59470650Y8613958D01*
X59644878Y8707084D01*
X59797589Y8832411D01*
X59922916Y8985122D01*
X60016042Y9159350D01*
X60073389Y9348397D01*
X60092753Y9545000D01*
X60073389Y9741603D01*
X60016102Y9930452D01*
X60016044Y9930644D01*
X60016043Y9930648D01*
X60008991Y9943842D01*
X59922916Y10104878D01*
X59922913Y10104882D01*
X59922910Y10104886D01*
X59797589Y10257590D01*
X59644885Y10382911D01*
X59644881Y10382914D01*
X59644879Y10382915D01*
X59644878Y10382916D01*
X59557764Y10429479D01*
X59470647Y10476044D01*
X59470643Y10476045D01*
X59281600Y10533390D01*
X59085000Y10552753D01*
X58888400Y10533390D01*
X58888398Y10533390D01*
X58699356Y10476045D01*
X58699352Y10476044D01*
X58525118Y10382914D01*
X58525114Y10382911D01*
X58372410Y10257590D01*
X58247089Y10104886D01*
X58247086Y10104882D01*
X58153956Y9930648D01*
X58153955Y9930644D01*
X58096610Y9741602D01*
X58096610Y9741600D01*
X58077247Y9545000D01*
X57552753Y9545000D01*
X57533389Y9741603D01*
X57476102Y9930452D01*
X57476044Y9930644D01*
X57476043Y9930648D01*
X57468991Y9943842D01*
X57382916Y10104878D01*
X57382913Y10104882D01*
X57382910Y10104886D01*
X57257589Y10257590D01*
X57104885Y10382911D01*
X57104881Y10382914D01*
X57104879Y10382915D01*
X57104878Y10382916D01*
X57017764Y10429479D01*
X56930647Y10476044D01*
X56930643Y10476045D01*
X56741600Y10533390D01*
X56554310Y10551836D01*
X56545000Y10552753D01*
X56544999Y10552753D01*
X56348400Y10533390D01*
X56348398Y10533390D01*
X56159356Y10476045D01*
X56159352Y10476044D01*
X55985118Y10382914D01*
X55985114Y10382911D01*
X55832410Y10257590D01*
X55707089Y10104886D01*
X55707086Y10104882D01*
X55613956Y9930648D01*
X55613955Y9930644D01*
X55556610Y9741602D01*
X55556610Y9741600D01*
X55537247Y9545000D01*
X55012753Y9545000D01*
X54993389Y9741603D01*
X54936102Y9930452D01*
X54936044Y9930644D01*
X54936043Y9930648D01*
X54928991Y9943842D01*
X54842916Y10104878D01*
X54842913Y10104882D01*
X54842910Y10104886D01*
X54717589Y10257590D01*
X54564885Y10382911D01*
X54564881Y10382914D01*
X54564879Y10382915D01*
X54564878Y10382916D01*
X54477764Y10429479D01*
X54390647Y10476044D01*
X54390643Y10476045D01*
X54201600Y10533390D01*
X54005000Y10552753D01*
X53808400Y10533390D01*
X53808398Y10533390D01*
X53619356Y10476045D01*
X53619352Y10476044D01*
X53445118Y10382914D01*
X53445114Y10382911D01*
X53292410Y10257590D01*
X53167089Y10104886D01*
X53167086Y10104882D01*
X53073956Y9930648D01*
X53073955Y9930644D01*
X53016610Y9741602D01*
X53016610Y9741600D01*
X52997247Y9545000D01*
X52472753Y9545000D01*
X52453389Y9741603D01*
X52396102Y9930452D01*
X52396044Y9930644D01*
X52396043Y9930648D01*
X52388991Y9943842D01*
X52302916Y10104878D01*
X52302913Y10104882D01*
X52302910Y10104886D01*
X52177589Y10257590D01*
X52024885Y10382911D01*
X52024881Y10382914D01*
X52024879Y10382915D01*
X52024878Y10382916D01*
X51937764Y10429479D01*
X51850647Y10476044D01*
X51850643Y10476045D01*
X51661600Y10533390D01*
X51465000Y10552753D01*
X51268400Y10533390D01*
X51268398Y10533390D01*
X51079356Y10476045D01*
X51079352Y10476044D01*
X50905118Y10382914D01*
X50905114Y10382911D01*
X50752410Y10257590D01*
X50627089Y10104886D01*
X50627086Y10104882D01*
X50533956Y9930648D01*
X50533955Y9930644D01*
X50476610Y9741602D01*
X50476610Y9741600D01*
X50457247Y9545000D01*
X49932753Y9545000D01*
X49913389Y9741603D01*
X49856102Y9930452D01*
X49856044Y9930644D01*
X49856043Y9930648D01*
X49848991Y9943842D01*
X49762916Y10104878D01*
X49762913Y10104882D01*
X49762910Y10104886D01*
X49637589Y10257590D01*
X49484885Y10382911D01*
X49484881Y10382914D01*
X49484879Y10382915D01*
X49484878Y10382916D01*
X49397764Y10429479D01*
X49310647Y10476044D01*
X49310643Y10476045D01*
X49121600Y10533390D01*
X48925000Y10552753D01*
X48728400Y10533390D01*
X48728398Y10533390D01*
X48539356Y10476045D01*
X48539352Y10476044D01*
X48365118Y10382914D01*
X48365114Y10382911D01*
X48212410Y10257590D01*
X48087089Y10104886D01*
X48087086Y10104882D01*
X47993956Y9930648D01*
X47993955Y9930644D01*
X47936610Y9741602D01*
X47936610Y9741600D01*
X47917247Y9545000D01*
X47392753Y9545000D01*
X47373389Y9741603D01*
X47316102Y9930452D01*
X47316044Y9930644D01*
X47316043Y9930648D01*
X47308991Y9943842D01*
X47222916Y10104878D01*
X47222913Y10104882D01*
X47222910Y10104886D01*
X47097589Y10257590D01*
X46944885Y10382911D01*
X46944881Y10382914D01*
X46944879Y10382915D01*
X46944878Y10382916D01*
X46857764Y10429479D01*
X46770647Y10476044D01*
X46770643Y10476045D01*
X46581600Y10533390D01*
X46394310Y10551836D01*
X46385000Y10552753D01*
X46384999Y10552753D01*
X46188400Y10533390D01*
X46188398Y10533390D01*
X45999356Y10476045D01*
X45999352Y10476044D01*
X45825118Y10382914D01*
X45825114Y10382911D01*
X45672410Y10257590D01*
X45547089Y10104886D01*
X45547081Y10104874D01*
X45479361Y9978179D01*
X45441059Y9943842D01*
X45389647Y9942159D01*
X45349181Y9973918D01*
X45339286Y9998958D01*
X45339069Y10000048D01*
X45336697Y10011975D01*
X45336695Y10011977D01*
X45336695Y10011979D01*
X45292548Y10078048D01*
X45277641Y10100359D01*
X45277639Y10100360D01*
X45277639Y10100361D01*
X45261482Y10111157D01*
X45250087Y10120509D01*
X34250506Y21120090D01*
X34241153Y21131487D01*
X34230360Y21147641D01*
X34205934Y21163961D01*
X34181509Y21180281D01*
X34161742Y21193489D01*
X34141976Y21206697D01*
X34141973Y21206698D01*
X34037718Y21227436D01*
X34018660Y21223645D01*
X34003989Y21222200D01*
X22058244Y21222200D01*
X22009906Y21239793D01*
X22001415Y21248151D01*
X21922716Y21338974D01*
X21801060Y21417158D01*
X21801059Y21417159D01*
X21801058Y21417159D01*
X21662308Y21457900D01*
X21662306Y21457900D01*
X21517694Y21457900D01*
X21517691Y21457900D01*
X21378941Y21417159D01*
X21257284Y21338974D01*
X21162581Y21229682D01*
X21102510Y21098146D01*
X21102510Y21098144D01*
X21102509Y21098142D01*
X21102509Y21098140D01*
X21081929Y20955000D01*
X21102509Y20811860D01*
X21102509Y20811859D01*
X21102510Y20811857D01*
X21102510Y20811855D01*
X21162581Y20680319D01*
X21162582Y20680318D01*
X21162583Y20680316D01*
X21257284Y20571026D01*
X21378940Y20492842D01*
X21517694Y20452100D01*
X21517697Y20452100D01*
X21662303Y20452100D01*
X21662306Y20452100D01*
X21801060Y20492842D01*
X21922716Y20571026D01*
X22001413Y20661847D01*
X22046363Y20686855D01*
X22058244Y20687800D01*
X33895892Y20687800D01*
X33944230Y20670207D01*
X33949066Y20665774D01*
X43937192Y10677648D01*
X43958932Y10631028D01*
X43945618Y10581341D01*
X43903481Y10551836D01*
X43876647Y10549636D01*
X43845000Y10552753D01*
X43648400Y10533390D01*
X43648398Y10533390D01*
X43459356Y10476045D01*
X43459348Y10476042D01*
X43366786Y10426567D01*
X43315863Y10419298D01*
X43278164Y10439714D01*
X33867788Y19850090D01*
X33858435Y19861487D01*
X33847641Y19877642D01*
X33812747Y19900957D01*
X33759259Y19936696D01*
X33759255Y19936698D01*
X33680887Y19952287D01*
X33655000Y19957436D01*
X33654999Y19957436D01*
X33635942Y19953645D01*
X33621271Y19952200D01*
X9031825Y19952200D01*
X8983487Y19969793D01*
X8978651Y19974226D01*
X8138322Y20814556D01*
X8116582Y20861176D01*
X8117062Y20878433D01*
X8118743Y20890126D01*
X8128071Y20955000D01*
X8107491Y21098140D01*
X8107489Y21098145D01*
X8107489Y21098146D01*
X8047418Y21229682D01*
X8047417Y21229683D01*
X8047417Y21229684D01*
X7952716Y21338974D01*
X7831060Y21417158D01*
X7831059Y21417159D01*
X7831058Y21417159D01*
X7692308Y21457900D01*
X7692306Y21457900D01*
X7547694Y21457900D01*
X7547691Y21457900D01*
X7408941Y21417159D01*
X7287284Y21338974D01*
X7192581Y21229682D01*
X7132510Y21098146D01*
X7132510Y21098144D01*
X7132509Y21098142D01*
X7132509Y21098140D01*
X7111929Y20955000D01*
X1930499Y20955000D01*
X1930499Y23495000D01*
X10921929Y23495000D01*
X10942509Y23351860D01*
X10942509Y23351859D01*
X10942510Y23351857D01*
X10942510Y23351855D01*
X11002581Y23220319D01*
X11002582Y23220318D01*
X11002583Y23220316D01*
X11097284Y23111026D01*
X11218940Y23032842D01*
X11357694Y22992100D01*
X11357697Y22992100D01*
X11502303Y22992100D01*
X11502306Y22992100D01*
X11641060Y23032842D01*
X11762716Y23111026D01*
X11857417Y23220316D01*
X11917491Y23351860D01*
X11938071Y23495000D01*
X17271929Y23495000D01*
X17292509Y23351860D01*
X17292509Y23351859D01*
X17292510Y23351857D01*
X17292510Y23351855D01*
X17352581Y23220319D01*
X17352582Y23220318D01*
X17352583Y23220316D01*
X17447284Y23111026D01*
X17568940Y23032842D01*
X17707694Y22992100D01*
X17707697Y22992100D01*
X17852304Y22992100D01*
X17852306Y22992100D01*
X17852307Y22992101D01*
X17857631Y22992866D01*
X17857898Y22991004D01*
X17901560Y22988243D01*
X17924606Y22972516D01*
X18202209Y22694913D01*
X18211561Y22683518D01*
X18222357Y22667361D01*
X18222358Y22667361D01*
X18222359Y22667359D01*
X18244669Y22652453D01*
X18244670Y22652451D01*
X18274304Y22632651D01*
X18310744Y22608303D01*
X18415000Y22587564D01*
X18434057Y22591355D01*
X18448729Y22592800D01*
X29068174Y22592800D01*
X29116512Y22575207D01*
X29121348Y22570774D01*
X29632209Y22059913D01*
X29641561Y22048518D01*
X29652357Y22032361D01*
X29652358Y22032361D01*
X29652359Y22032359D01*
X29674669Y22017453D01*
X29674670Y22017451D01*
X29707707Y21995377D01*
X29740744Y21973303D01*
X29845000Y21952564D01*
X29864057Y21956355D01*
X29878729Y21957800D01*
X42076756Y21957800D01*
X42125094Y21940207D01*
X42133584Y21931850D01*
X42212284Y21841026D01*
X42333940Y21762842D01*
X42472694Y21722100D01*
X42472697Y21722100D01*
X42617303Y21722100D01*
X42617306Y21722100D01*
X42756060Y21762842D01*
X42877716Y21841026D01*
X42972417Y21950316D01*
X43032491Y22081860D01*
X43053071Y22225000D01*
X43032491Y22368140D01*
X43032489Y22368145D01*
X43032489Y22368146D01*
X42972418Y22499682D01*
X42972417Y22499683D01*
X42972417Y22499684D01*
X42877716Y22608974D01*
X42756060Y22687158D01*
X42756059Y22687159D01*
X42756058Y22687159D01*
X42617308Y22727900D01*
X42617306Y22727900D01*
X42472694Y22727900D01*
X42472691Y22727900D01*
X42333941Y22687159D01*
X42330582Y22685000D01*
X42212284Y22608974D01*
X42133586Y22518154D01*
X42088637Y22493145D01*
X42076756Y22492200D01*
X29986826Y22492200D01*
X29938488Y22509793D01*
X29933652Y22514226D01*
X29422788Y23025090D01*
X29413435Y23036487D01*
X29402642Y23052641D01*
X29378216Y23068961D01*
X29353791Y23085281D01*
X29334024Y23098489D01*
X29314258Y23111697D01*
X29314255Y23111698D01*
X29210000Y23132436D01*
X29190942Y23128645D01*
X29176271Y23127200D01*
X18556826Y23127200D01*
X18508488Y23144793D01*
X18503652Y23149226D01*
X18298322Y23354556D01*
X18276582Y23401176D01*
X18277062Y23418433D01*
X18288071Y23495000D01*
X18267491Y23638140D01*
X18267489Y23638145D01*
X18267489Y23638146D01*
X18207418Y23769682D01*
X18207417Y23769683D01*
X18207417Y23769684D01*
X18112716Y23878974D01*
X17991060Y23957158D01*
X17991059Y23957159D01*
X17991058Y23957159D01*
X17852308Y23997900D01*
X17852306Y23997900D01*
X17707694Y23997900D01*
X17707691Y23997900D01*
X17568941Y23957159D01*
X17447284Y23878974D01*
X17352581Y23769682D01*
X17292510Y23638146D01*
X17292510Y23638144D01*
X17292509Y23638142D01*
X17292509Y23638140D01*
X17271929Y23495000D01*
X11938071Y23495000D01*
X11927061Y23571573D01*
X11937596Y23621919D01*
X11948318Y23635442D01*
X12788650Y24475774D01*
X12835271Y24497514D01*
X12841825Y24497800D01*
X30973174Y24497800D01*
X31021512Y24480207D01*
X31026348Y24475774D01*
X32172207Y23329916D01*
X32181559Y23318521D01*
X32192357Y23302360D01*
X32213949Y23287934D01*
X32256555Y23259466D01*
X32256556Y23259464D01*
X32280739Y23243305D01*
X32280741Y23243304D01*
X32280743Y23243303D01*
X32385000Y23222565D01*
X32404054Y23226355D01*
X32418725Y23227800D01*
X42076756Y23227800D01*
X42125094Y23210207D01*
X42133584Y23201850D01*
X42212284Y23111026D01*
X42333940Y23032842D01*
X42472694Y22992100D01*
X42472697Y22992100D01*
X42617303Y22992100D01*
X42617306Y22992100D01*
X42756060Y23032842D01*
X42877716Y23111026D01*
X42972417Y23220316D01*
X43032491Y23351860D01*
X43053071Y23495000D01*
X43032491Y23638140D01*
X43032489Y23638145D01*
X43032489Y23638146D01*
X42972418Y23769682D01*
X42972417Y23769683D01*
X42972417Y23769684D01*
X42877716Y23878974D01*
X42756060Y23957158D01*
X42756059Y23957159D01*
X42756058Y23957159D01*
X42617308Y23997900D01*
X42617306Y23997900D01*
X42472694Y23997900D01*
X42472691Y23997900D01*
X42333941Y23957159D01*
X42264148Y23912305D01*
X42212284Y23878974D01*
X42133586Y23788154D01*
X42088637Y23763145D01*
X42076756Y23762200D01*
X32526825Y23762200D01*
X32478487Y23779793D01*
X32473651Y23784226D01*
X31327788Y24930090D01*
X31318435Y24941487D01*
X31307642Y24957641D01*
X31251746Y24994988D01*
X31240411Y25002562D01*
X31240410Y25002563D01*
X31219258Y25016697D01*
X31219255Y25016698D01*
X31115000Y25037436D01*
X31095942Y25033645D01*
X31081271Y25032200D01*
X12733725Y25032200D01*
X12719054Y25033645D01*
X12700000Y25037435D01*
X12595744Y25016698D01*
X12595740Y25016696D01*
X12579839Y25006071D01*
X12574589Y25002562D01*
X12563254Y24994988D01*
X12507357Y24957640D01*
X12496558Y24941479D01*
X12487208Y24930087D01*
X11574605Y24017485D01*
X11527985Y23995745D01*
X11507718Y23997762D01*
X11507628Y23997135D01*
X11502308Y23997900D01*
X11502306Y23997900D01*
X11357694Y23997900D01*
X11357691Y23997900D01*
X11218941Y23957159D01*
X11097284Y23878974D01*
X11002581Y23769682D01*
X10942510Y23638146D01*
X10942510Y23638144D01*
X10942509Y23638142D01*
X10942509Y23638140D01*
X10921929Y23495000D01*
X1930499Y23495000D01*
X1930499Y26035000D01*
X22351929Y26035000D01*
X22372509Y25891860D01*
X22372509Y25891859D01*
X22372510Y25891857D01*
X22372510Y25891855D01*
X22432581Y25760319D01*
X22432582Y25760318D01*
X22432583Y25760316D01*
X22527284Y25651026D01*
X22648940Y25572842D01*
X22787694Y25532100D01*
X22787697Y25532100D01*
X22932303Y25532100D01*
X22932306Y25532100D01*
X23071060Y25572842D01*
X23192716Y25651026D01*
X23287417Y25760316D01*
X23324885Y25842360D01*
X23347489Y25891855D01*
X23347489Y25891856D01*
X23347491Y25891860D01*
X23368071Y26035000D01*
X23357753Y26106763D01*
X45562100Y26106763D01*
X45562400Y26099866D01*
X45563553Y26086683D01*
X45563842Y26083385D01*
X45584396Y26018193D01*
X45610115Y25973645D01*
X45610118Y25973641D01*
X45625905Y25951096D01*
X45692856Y25904217D01*
X45692857Y25904217D01*
X45692859Y25904215D01*
X45741197Y25886622D01*
X45795195Y25877101D01*
X45795196Y25877100D01*
X45795200Y25877100D01*
X47847230Y25877100D01*
X47895568Y25859507D01*
X47900404Y25855074D01*
X49126474Y24629004D01*
X49148214Y24582384D01*
X49148500Y24575830D01*
X49148500Y21945724D01*
X49130907Y21897386D01*
X49130133Y21896479D01*
X49102581Y21864682D01*
X49042510Y21733146D01*
X49042510Y21733144D01*
X49042509Y21733142D01*
X49042509Y21733140D01*
X49021929Y21590000D01*
X49042509Y21446860D01*
X49042509Y21446859D01*
X49042510Y21446857D01*
X49042510Y21446855D01*
X49102581Y21315319D01*
X49102582Y21315318D01*
X49102583Y21315316D01*
X49130132Y21283523D01*
X49148491Y21235472D01*
X49148500Y21234278D01*
X49148500Y20382368D01*
X49146900Y20366938D01*
X49143555Y20350986D01*
X49143555Y20350983D01*
X49148211Y20313627D01*
X49148500Y20308980D01*
X49148500Y20303388D01*
X49152278Y20280745D01*
X49152501Y20279209D01*
X49159302Y20224645D01*
X49161081Y20218672D01*
X49160807Y20218591D01*
X49161890Y20215213D01*
X49162160Y20215305D01*
X49164183Y20209412D01*
X49190360Y20161038D01*
X49191071Y20159657D01*
X49215224Y20110253D01*
X49218845Y20105182D01*
X49218612Y20105016D01*
X49220726Y20102180D01*
X49220952Y20102355D01*
X49224777Y20097441D01*
X49265257Y20060176D01*
X49266354Y20059124D01*
X51723778Y17601700D01*
X52416741Y16908737D01*
X52426522Y16896694D01*
X52435440Y16883044D01*
X52465149Y16859921D01*
X52468640Y16856838D01*
X52472591Y16852887D01*
X52472594Y16852884D01*
X52480928Y16846935D01*
X52491289Y16839538D01*
X52492483Y16838647D01*
X52535915Y16804842D01*
X52535916Y16804842D01*
X52541398Y16801875D01*
X52541261Y16801623D01*
X52544404Y16800005D01*
X52544530Y16800262D01*
X52550128Y16797526D01*
X52550129Y16797526D01*
X52550130Y16797525D01*
X52602877Y16781822D01*
X52604300Y16781366D01*
X52656339Y16763500D01*
X52656345Y16763500D01*
X52662483Y16762475D01*
X52662435Y16762192D01*
X52665934Y16761682D01*
X52665970Y16761966D01*
X52672155Y16761196D01*
X52672158Y16761195D01*
X52722252Y16763268D01*
X52727113Y16763468D01*
X52728667Y16763500D01*
X60091900Y16763500D01*
X60140238Y16745907D01*
X60165958Y16701358D01*
X60167100Y16688300D01*
X60167100Y13406763D01*
X60167400Y13399866D01*
X60168553Y13386683D01*
X60168842Y13383385D01*
X60189396Y13318193D01*
X60215115Y13273645D01*
X60215118Y13273641D01*
X60230905Y13251096D01*
X60297856Y13204217D01*
X60297857Y13204217D01*
X60297859Y13204215D01*
X60346197Y13186622D01*
X60400195Y13177101D01*
X60400196Y13177100D01*
X60400200Y13177100D01*
X64313300Y13177100D01*
X64361638Y13159507D01*
X64387358Y13114958D01*
X64388500Y13101900D01*
X64388500Y12559172D01*
X64370907Y12510834D01*
X64366474Y12505998D01*
X62667730Y10807255D01*
X62655690Y10797476D01*
X62642043Y10788560D01*
X62618926Y10758859D01*
X62615842Y10755366D01*
X62611888Y10751413D01*
X62598557Y10732742D01*
X62597629Y10731498D01*
X62563841Y10688087D01*
X62560877Y10682609D01*
X62560628Y10682744D01*
X62559006Y10679591D01*
X62559260Y10679467D01*
X62556524Y10673870D01*
X62540830Y10621157D01*
X62540356Y10619678D01*
X62522499Y10567662D01*
X62521474Y10561515D01*
X62521191Y10561563D01*
X62520681Y10558061D01*
X62520965Y10558025D01*
X62520194Y10551842D01*
X62522467Y10496886D01*
X62522499Y10495332D01*
X62522499Y10241657D01*
X62504906Y10193319D01*
X62460357Y10167599D01*
X62409699Y10176532D01*
X62389169Y10193950D01*
X62337233Y10257233D01*
X62184599Y10382497D01*
X62184593Y10382501D01*
X62010463Y10475576D01*
X62010451Y10475581D01*
X61821502Y10532897D01*
X61821503Y10532897D01*
X61777400Y10537240D01*
X61777400Y10025075D01*
X61767315Y10029680D01*
X61660763Y10045000D01*
X61589237Y10045000D01*
X61482685Y10029680D01*
X61472600Y10025075D01*
X61472600Y10537240D01*
X61472599Y10537240D01*
X61428496Y10532897D01*
X61239548Y10475581D01*
X61239536Y10475576D01*
X61065406Y10382501D01*
X61065400Y10382497D01*
X60912766Y10257234D01*
X60787503Y10104600D01*
X60787499Y10104594D01*
X60694424Y9930464D01*
X60694419Y9930452D01*
X60637103Y9741504D01*
X60632760Y9697401D01*
X60632760Y9697400D01*
X61148640Y9697400D01*
X61125000Y9616889D01*
X61125000Y9473111D01*
X61148640Y9392600D01*
X60632760Y9392600D01*
X60637103Y9348497D01*
X60694419Y9159549D01*
X60694424Y9159537D01*
X60787499Y8985407D01*
X60787503Y8985401D01*
X60912766Y8832767D01*
X61065400Y8707504D01*
X61065406Y8707500D01*
X61239536Y8614425D01*
X61239548Y8614420D01*
X61428490Y8557106D01*
X61428502Y8557104D01*
X61472600Y8552761D01*
X61472600Y9064926D01*
X61482685Y9060320D01*
X61589237Y9045000D01*
X61660763Y9045000D01*
X61767315Y9060320D01*
X61777400Y9064926D01*
X61777400Y8552761D01*
X61821497Y8557104D01*
X61821509Y8557106D01*
X62010451Y8614420D01*
X62010463Y8614425D01*
X62184593Y8707500D01*
X62184599Y8707504D01*
X62337235Y8832770D01*
X62389169Y8896050D01*
X62433434Y8922255D01*
X62484186Y8913875D01*
X62517679Y8874833D01*
X62522499Y8848344D01*
X62522499Y8483171D01*
X62504906Y8434833D01*
X62500473Y8429997D01*
X62039351Y7968876D01*
X61992731Y7947136D01*
X61964348Y7950088D01*
X61821600Y7993390D01*
X61649112Y8010379D01*
X61625000Y8012753D01*
X61624999Y8012753D01*
X61428400Y7993390D01*
X61428398Y7993390D01*
X61239356Y7936045D01*
X61239352Y7936044D01*
X61065118Y7842914D01*
X61065114Y7842911D01*
X60912410Y7717590D01*
X60787089Y7564886D01*
X60787086Y7564882D01*
X60693956Y7390648D01*
X60693955Y7390644D01*
X60636610Y7201602D01*
X60636610Y7201600D01*
X60617247Y7005000D01*
X60636610Y6808401D01*
X60636610Y6808399D01*
X60693955Y6619357D01*
X60693956Y6619353D01*
X60787086Y6445119D01*
X60787089Y6445115D01*
X60912410Y6292411D01*
X61065114Y6167090D01*
X61065118Y6167087D01*
X61065122Y6167084D01*
X61239350Y6073958D01*
X61239352Y6073957D01*
X61239356Y6073956D01*
X61282593Y6060841D01*
X61428397Y6016611D01*
X61625000Y5997247D01*
X61821603Y6016611D01*
X62010650Y6073958D01*
X62184878Y6167084D01*
X62337589Y6292411D01*
X62462916Y6445122D01*
X62556042Y6619350D01*
X62613389Y6808397D01*
X62632753Y7005000D01*
X63157247Y7005000D01*
X63176610Y6808401D01*
X63176610Y6808399D01*
X63233955Y6619357D01*
X63233956Y6619353D01*
X63327086Y6445119D01*
X63327089Y6445115D01*
X63452410Y6292411D01*
X63605114Y6167090D01*
X63605118Y6167087D01*
X63605122Y6167084D01*
X63779350Y6073958D01*
X63779352Y6073957D01*
X63779356Y6073956D01*
X63822593Y6060841D01*
X63968397Y6016611D01*
X64165000Y5997247D01*
X64361603Y6016611D01*
X64550650Y6073958D01*
X64724878Y6167084D01*
X64877589Y6292411D01*
X65002916Y6445122D01*
X65096042Y6619350D01*
X65153389Y6808397D01*
X65172753Y7005000D01*
X65153389Y7201603D01*
X65096042Y7390650D01*
X65002916Y7564878D01*
X65002913Y7564882D01*
X65002910Y7564886D01*
X64877589Y7717590D01*
X64724885Y7842911D01*
X64724881Y7842914D01*
X64724879Y7842915D01*
X64724878Y7842916D01*
X64604111Y7907467D01*
X64550647Y7936044D01*
X64550643Y7936045D01*
X64361600Y7993390D01*
X64165000Y8012753D01*
X63968400Y7993390D01*
X63968398Y7993390D01*
X63779356Y7936045D01*
X63779352Y7936044D01*
X63605118Y7842914D01*
X63605114Y7842911D01*
X63452410Y7717590D01*
X63327089Y7564886D01*
X63327086Y7564882D01*
X63233956Y7390648D01*
X63233955Y7390644D01*
X63176610Y7201602D01*
X63176610Y7201600D01*
X63157247Y7005000D01*
X62632753Y7005000D01*
X62613389Y7201603D01*
X62573517Y7333044D01*
X62565432Y7359697D01*
X62568236Y7411060D01*
X62584217Y7434697D01*
X63140268Y7990748D01*
X63152300Y8000520D01*
X63165955Y8009439D01*
X63189085Y8039159D01*
X63192148Y8042628D01*
X63196112Y8046590D01*
X63209458Y8065286D01*
X63210355Y8066487D01*
X63244157Y8109914D01*
X63244159Y8109920D01*
X63247125Y8115398D01*
X63247378Y8115261D01*
X63248994Y8118402D01*
X63248736Y8118528D01*
X63251470Y8124125D01*
X63251474Y8124129D01*
X63267175Y8176871D01*
X63267640Y8178321D01*
X63285499Y8230338D01*
X63285499Y8230345D01*
X63286525Y8236487D01*
X63286808Y8236440D01*
X63287317Y8239934D01*
X63287033Y8239969D01*
X63287803Y8246154D01*
X63287804Y8246157D01*
X63285529Y8301155D01*
X63285499Y8302619D01*
X63285499Y8826414D01*
X63303093Y8874752D01*
X63347641Y8900472D01*
X63398299Y8891539D01*
X63418830Y8874120D01*
X63452767Y8832767D01*
X63605400Y8707504D01*
X63605406Y8707500D01*
X63779536Y8614425D01*
X63779548Y8614420D01*
X63968490Y8557106D01*
X63968502Y8557104D01*
X64012599Y8552761D01*
X64012600Y8552761D01*
X64012600Y9064926D01*
X64022685Y9060320D01*
X64129237Y9045000D01*
X64200763Y9045000D01*
X64307315Y9060320D01*
X64317400Y9064926D01*
X64317400Y8552761D01*
X64361497Y8557104D01*
X64361509Y8557106D01*
X64550451Y8614420D01*
X64550463Y8614425D01*
X64724593Y8707500D01*
X64724599Y8707504D01*
X64877233Y8832767D01*
X65002496Y8985401D01*
X65002500Y8985407D01*
X65095575Y9159537D01*
X65095580Y9159549D01*
X65152896Y9348497D01*
X65157239Y9392600D01*
X64641360Y9392600D01*
X64665000Y9473111D01*
X64665000Y9616889D01*
X64641360Y9697400D01*
X65157240Y9697400D01*
X65157239Y9697401D01*
X65152896Y9741504D01*
X65095580Y9930452D01*
X65095575Y9930464D01*
X65002500Y10104594D01*
X65002496Y10104600D01*
X64877233Y10257234D01*
X64724599Y10382497D01*
X64724593Y10382501D01*
X64550463Y10475576D01*
X64550451Y10475581D01*
X64361502Y10532897D01*
X64361503Y10532897D01*
X64317400Y10537240D01*
X64317400Y10025075D01*
X64307315Y10029680D01*
X64200763Y10045000D01*
X64129237Y10045000D01*
X64022685Y10029680D01*
X64012600Y10025075D01*
X64012600Y10537240D01*
X63968496Y10532897D01*
X63779548Y10475581D01*
X63779536Y10475576D01*
X63605406Y10382501D01*
X63605400Y10382497D01*
X63452766Y10257233D01*
X63418829Y10215880D01*
X63374564Y10189676D01*
X63323811Y10198056D01*
X63290319Y10237098D01*
X63285499Y10263587D01*
X63285499Y10314829D01*
X63303092Y10363167D01*
X63307525Y10368003D01*
X63746777Y10807255D01*
X65006272Y12066751D01*
X65018304Y12076522D01*
X65031956Y12085440D01*
X65055082Y12115155D01*
X65058145Y12118624D01*
X65062114Y12122591D01*
X65075466Y12141294D01*
X65076368Y12142504D01*
X65110158Y12185915D01*
X65110158Y12185918D01*
X65113124Y12191395D01*
X65113377Y12191259D01*
X65114995Y12194403D01*
X65114737Y12194529D01*
X65117471Y12200126D01*
X65117475Y12200130D01*
X65133175Y12252870D01*
X65133621Y12254264D01*
X65151500Y12306339D01*
X65151500Y12306347D01*
X65152526Y12312488D01*
X65152809Y12312441D01*
X65153318Y12315936D01*
X65153034Y12315971D01*
X65153804Y12322157D01*
X65153805Y12322159D01*
X65151532Y12377115D01*
X65151500Y12378669D01*
X65151500Y13101900D01*
X65169093Y13150238D01*
X65213642Y13175958D01*
X65226700Y13177100D01*
X69143230Y13177100D01*
X69143244Y13177100D01*
X69150126Y13177400D01*
X69166615Y13178842D01*
X69231807Y13199396D01*
X69276356Y13225116D01*
X69298904Y13240905D01*
X69345785Y13307859D01*
X69363378Y13356197D01*
X69372899Y13410196D01*
X69372900Y13410196D01*
X69372900Y20883230D01*
X69372900Y20883244D01*
X69372600Y20890126D01*
X69371158Y20906615D01*
X69350604Y20971807D01*
X69324884Y21016356D01*
X69309095Y21038904D01*
X69294541Y21049095D01*
X69242143Y21085784D01*
X69242144Y21085784D01*
X69193802Y21103379D01*
X69139804Y21112900D01*
X69139800Y21112900D01*
X65226700Y21112900D01*
X65178362Y21130493D01*
X65152642Y21175042D01*
X65151500Y21188100D01*
X65151500Y22832600D01*
X69978543Y22832600D01*
X70019999Y22705013D01*
X70019999Y22705012D01*
X70108322Y22565840D01*
X70228483Y22453002D01*
X70372929Y22373592D01*
X70532580Y22332601D01*
X70532583Y22332600D01*
X71012600Y22332600D01*
X71012600Y22685000D01*
X71317400Y22685000D01*
X71317400Y22332600D01*
X71756042Y22332600D01*
X71878534Y22348074D01*
X71878537Y22348075D01*
X72031796Y22408756D01*
X72165148Y22505641D01*
X72270218Y22632651D01*
X72340399Y22781794D01*
X72350092Y22832600D01*
X74408543Y22832600D01*
X74449999Y22705013D01*
X74449999Y22705012D01*
X74538322Y22565840D01*
X74658483Y22453002D01*
X74802929Y22373592D01*
X74962580Y22332601D01*
X74962583Y22332600D01*
X75192600Y22332600D01*
X75192600Y22685000D01*
X75497400Y22685000D01*
X75497400Y22332600D01*
X75686042Y22332600D01*
X75808534Y22348074D01*
X75808537Y22348075D01*
X75961796Y22408756D01*
X76095148Y22505641D01*
X76200218Y22632651D01*
X76270399Y22781794D01*
X76280092Y22832600D01*
X75905845Y22832600D01*
X75918201Y22848962D01*
X75948895Y22956840D01*
X75938546Y23068521D01*
X75904248Y23137400D01*
X76281456Y23137400D01*
X76281456Y23137401D01*
X76240000Y23264988D01*
X76240000Y23264989D01*
X76151677Y23404161D01*
X76031516Y23516999D01*
X75887070Y23596409D01*
X75727419Y23637400D01*
X75497400Y23637400D01*
X75497400Y23285000D01*
X75192600Y23285000D01*
X75192600Y23637400D01*
X75003958Y23637400D01*
X74881465Y23621927D01*
X74881462Y23621926D01*
X74728203Y23561245D01*
X74594851Y23464360D01*
X74489781Y23337350D01*
X74419600Y23188207D01*
X74409908Y23137400D01*
X74784155Y23137400D01*
X74771799Y23121038D01*
X74741105Y23013160D01*
X74751454Y22901479D01*
X74785752Y22832600D01*
X74408543Y22832600D01*
X72350092Y22832600D01*
X71975845Y22832600D01*
X71988201Y22848962D01*
X72018895Y22956840D01*
X72008546Y23068521D01*
X71974248Y23137400D01*
X72351456Y23137400D01*
X72351456Y23137401D01*
X72310000Y23264988D01*
X72310000Y23264989D01*
X72221677Y23404161D01*
X72101516Y23516999D01*
X71957070Y23596409D01*
X71797419Y23637400D01*
X71317400Y23637400D01*
X71317400Y23285000D01*
X71012600Y23285000D01*
X71012600Y23637400D01*
X70573958Y23637400D01*
X70451465Y23621927D01*
X70451462Y23621926D01*
X70298203Y23561245D01*
X70164851Y23464360D01*
X70059781Y23337350D01*
X69989600Y23188207D01*
X69979908Y23137400D01*
X70354155Y23137400D01*
X70341799Y23121038D01*
X70311105Y23013160D01*
X70321454Y22901479D01*
X70355752Y22832600D01*
X69978543Y22832600D01*
X65151500Y22832600D01*
X65151500Y24415000D01*
X71114534Y24415000D01*
X71124423Y24339882D01*
X71134313Y24264763D01*
X71142985Y24243828D01*
X71192302Y24124767D01*
X71192303Y24124765D01*
X71192304Y24124764D01*
X71284548Y24004549D01*
X71404763Y23912305D01*
X71404767Y23912302D01*
X71544764Y23854313D01*
X71657280Y23839500D01*
X71657283Y23839500D01*
X71732717Y23839500D01*
X71732720Y23839500D01*
X71845236Y23854313D01*
X71985233Y23912302D01*
X72105451Y24004549D01*
X72197698Y24124767D01*
X72255687Y24264764D01*
X72275466Y24415000D01*
X72255687Y24565236D01*
X72197698Y24705233D01*
X72182198Y24725433D01*
X72105451Y24825452D01*
X71985236Y24917696D01*
X71985235Y24917697D01*
X71985233Y24917698D01*
X71862732Y24968440D01*
X71845237Y24975687D01*
X71817107Y24979391D01*
X71732720Y24990500D01*
X71657280Y24990500D01*
X71589770Y24981613D01*
X71544762Y24975687D01*
X71445766Y24934681D01*
X71404767Y24917698D01*
X71404766Y24917698D01*
X71404763Y24917696D01*
X71284548Y24825452D01*
X71192304Y24705237D01*
X71134313Y24565238D01*
X71122535Y24475774D01*
X71114534Y24415000D01*
X65151500Y24415000D01*
X65151500Y26333300D01*
X65169093Y26381638D01*
X65213642Y26407358D01*
X65226700Y26408500D01*
X65463647Y26408500D01*
X65504301Y26396563D01*
X65600340Y26334842D01*
X65739094Y26294100D01*
X65739097Y26294100D01*
X65883703Y26294100D01*
X65883706Y26294100D01*
X66022460Y26334842D01*
X66144116Y26413026D01*
X66238817Y26522316D01*
X66298891Y26653860D01*
X66319471Y26797000D01*
X66298891Y26940140D01*
X66298889Y26940145D01*
X66298889Y26940146D01*
X66238818Y27071682D01*
X66238817Y27071683D01*
X66238817Y27071684D01*
X66144116Y27180974D01*
X66022460Y27259158D01*
X66022459Y27259159D01*
X66022458Y27259159D01*
X65883708Y27299900D01*
X65883706Y27299900D01*
X65739094Y27299900D01*
X65739091Y27299900D01*
X65600341Y27259159D01*
X65580955Y27246700D01*
X65482517Y27183438D01*
X65441862Y27171500D01*
X65226700Y27171500D01*
X65178362Y27189093D01*
X65152642Y27233642D01*
X65151500Y27246700D01*
X65151500Y30195000D01*
X71114534Y30195000D01*
X71134313Y30044763D01*
X71146505Y30015329D01*
X71192302Y29904767D01*
X71192303Y29904765D01*
X71192304Y29904764D01*
X71284548Y29784549D01*
X71350004Y29734323D01*
X71404767Y29692302D01*
X71544764Y29634313D01*
X71657280Y29619500D01*
X71657283Y29619500D01*
X71732717Y29619500D01*
X71732720Y29619500D01*
X71845236Y29634313D01*
X71985233Y29692302D01*
X72105451Y29784549D01*
X72197698Y29904767D01*
X72255687Y30044764D01*
X72275466Y30195000D01*
X72255687Y30345236D01*
X72197698Y30485233D01*
X72197695Y30485237D01*
X72105451Y30605452D01*
X71985236Y30697696D01*
X71985235Y30697697D01*
X71985233Y30697698D01*
X71894734Y30735184D01*
X71845237Y30755687D01*
X71817107Y30759391D01*
X71732720Y30770500D01*
X71657280Y30770500D01*
X71589770Y30761613D01*
X71544762Y30755687D01*
X71445766Y30714681D01*
X71404767Y30697698D01*
X71404766Y30697698D01*
X71404763Y30697696D01*
X71284548Y30605452D01*
X71192304Y30485237D01*
X71134313Y30345238D01*
X71114534Y30195000D01*
X65151500Y30195000D01*
X65151500Y31472600D01*
X69978543Y31472600D01*
X70019999Y31345013D01*
X70019999Y31345012D01*
X70108322Y31205840D01*
X70228483Y31093002D01*
X70372929Y31013592D01*
X70532580Y30972601D01*
X70532583Y30972600D01*
X71012600Y30972600D01*
X71012600Y31325000D01*
X71317400Y31325000D01*
X71317400Y30972600D01*
X71756042Y30972600D01*
X71878534Y30988074D01*
X71878537Y30988075D01*
X72031796Y31048756D01*
X72165148Y31145641D01*
X72270218Y31272651D01*
X72340399Y31421794D01*
X72350092Y31472600D01*
X74408543Y31472600D01*
X74449999Y31345013D01*
X74449999Y31345012D01*
X74538322Y31205840D01*
X74658483Y31093002D01*
X74802929Y31013592D01*
X74962580Y30972601D01*
X74962583Y30972600D01*
X75192600Y30972600D01*
X75192600Y31325000D01*
X75497400Y31325000D01*
X75497400Y30972600D01*
X75686042Y30972600D01*
X75808534Y30988074D01*
X75808537Y30988075D01*
X75961796Y31048756D01*
X76095148Y31145641D01*
X76200218Y31272651D01*
X76270399Y31421794D01*
X76280092Y31472600D01*
X75905845Y31472600D01*
X75918201Y31488962D01*
X75948895Y31596840D01*
X75938546Y31708521D01*
X75904248Y31777400D01*
X76281456Y31777400D01*
X76281456Y31777401D01*
X76240000Y31904988D01*
X76240000Y31904989D01*
X76151677Y32044161D01*
X76031516Y32156999D01*
X75887070Y32236409D01*
X75727419Y32277400D01*
X75497400Y32277400D01*
X75497400Y31925000D01*
X75192600Y31925000D01*
X75192600Y32277400D01*
X75003958Y32277400D01*
X74881465Y32261927D01*
X74881462Y32261926D01*
X74728203Y32201245D01*
X74594851Y32104360D01*
X74489781Y31977350D01*
X74419600Y31828207D01*
X74409908Y31777400D01*
X74784155Y31777400D01*
X74771799Y31761038D01*
X74741105Y31653160D01*
X74751454Y31541479D01*
X74785752Y31472600D01*
X74408543Y31472600D01*
X72350092Y31472600D01*
X71975845Y31472600D01*
X71988201Y31488962D01*
X72018895Y31596840D01*
X72008546Y31708521D01*
X71974248Y31777400D01*
X72351456Y31777400D01*
X72351456Y31777401D01*
X72310000Y31904988D01*
X72310000Y31904989D01*
X72221677Y32044161D01*
X72101516Y32156999D01*
X71957070Y32236409D01*
X71797419Y32277400D01*
X71317400Y32277400D01*
X71317400Y31925000D01*
X71012600Y31925000D01*
X71012600Y32277400D01*
X70573958Y32277400D01*
X70451465Y32261927D01*
X70451462Y32261926D01*
X70298203Y32201245D01*
X70164851Y32104360D01*
X70059781Y31977350D01*
X69989600Y31828207D01*
X69979908Y31777400D01*
X70354155Y31777400D01*
X70341799Y31761038D01*
X70311105Y31653160D01*
X70321454Y31541479D01*
X70355752Y31472600D01*
X69978543Y31472600D01*
X65151500Y31472600D01*
X65151500Y31560830D01*
X65169093Y31609168D01*
X65173526Y31614004D01*
X69864597Y36305074D01*
X69911217Y36326814D01*
X69917771Y36327100D01*
X69922303Y36327100D01*
X69922306Y36327100D01*
X70061060Y36367842D01*
X70182716Y36446026D01*
X70277417Y36555316D01*
X70337491Y36686860D01*
X70358071Y36830000D01*
X70337491Y36973140D01*
X70337489Y36973145D01*
X70337489Y36973146D01*
X70277418Y37104682D01*
X70277417Y37104683D01*
X70277417Y37104684D01*
X70182716Y37213974D01*
X70061060Y37292158D01*
X70061059Y37292159D01*
X70061058Y37292159D01*
X69922308Y37332900D01*
X69922306Y37332900D01*
X69863889Y37332900D01*
X69815551Y37350493D01*
X69810715Y37354926D01*
X63231415Y43934226D01*
X63209675Y43980846D01*
X63222989Y44030533D01*
X63265126Y44060038D01*
X63284589Y44062600D01*
X63952600Y44062600D01*
X63952600Y44584926D01*
X63962685Y44580320D01*
X64069237Y44565000D01*
X64140763Y44565000D01*
X64247315Y44580320D01*
X64257400Y44584926D01*
X64257400Y44062600D01*
X64970013Y44062600D01*
X65014462Y44071442D01*
X65014464Y44071443D01*
X65064873Y44105127D01*
X65098557Y44155536D01*
X65098558Y44155538D01*
X65107400Y44199988D01*
X65107400Y44912600D01*
X64581360Y44912600D01*
X64605000Y44993111D01*
X64605000Y45136889D01*
X64581360Y45217400D01*
X65107400Y45217400D01*
X65107400Y45930013D01*
X65098558Y45974463D01*
X65098557Y45974465D01*
X65064873Y46024874D01*
X65014464Y46058558D01*
X65014462Y46058559D01*
X64970013Y46067400D01*
X64257400Y46067400D01*
X64257400Y45545075D01*
X64247315Y45549680D01*
X64140763Y45565000D01*
X64069237Y45565000D01*
X63962685Y45549680D01*
X63952600Y45545075D01*
X63952600Y46067400D01*
X63283600Y46067400D01*
X63235262Y46084993D01*
X63209542Y46129542D01*
X63208400Y46142600D01*
X63208400Y46288372D01*
X63208543Y46291650D01*
X63212370Y46335390D01*
X63201002Y46377814D01*
X63200297Y46380993D01*
X63192668Y46424261D01*
X63192667Y46424263D01*
X63192667Y46424264D01*
X63189951Y46428967D01*
X63182434Y46447112D01*
X63181027Y46452366D01*
X63155829Y46488352D01*
X63154070Y46491113D01*
X63144147Y46508300D01*
X63132117Y46529138D01*
X63098469Y46557373D01*
X63096069Y46559572D01*
X62514006Y47141635D01*
X62492266Y47188255D01*
X62495218Y47216639D01*
X62496039Y47219345D01*
X62496042Y47219350D01*
X62553389Y47408397D01*
X62572753Y47605000D01*
X62572753Y47605001D01*
X63097247Y47605001D01*
X63116610Y47408401D01*
X63116610Y47408399D01*
X63173955Y47219357D01*
X63173956Y47219353D01*
X63215497Y47141635D01*
X63259493Y47059323D01*
X63267086Y47045119D01*
X63267089Y47045115D01*
X63392410Y46892411D01*
X63545114Y46767090D01*
X63545118Y46767087D01*
X63545122Y46767084D01*
X63719348Y46673959D01*
X63719352Y46673957D01*
X63719356Y46673956D01*
X63725877Y46671978D01*
X63908397Y46616611D01*
X64105000Y46597247D01*
X64301603Y46616611D01*
X64490650Y46673958D01*
X64664878Y46767084D01*
X64817589Y46892411D01*
X64942916Y47045122D01*
X65036042Y47219350D01*
X65093389Y47408397D01*
X65112753Y47605000D01*
X65093389Y47801603D01*
X65036042Y47990650D01*
X64942916Y48164878D01*
X64942913Y48164882D01*
X64942910Y48164886D01*
X64817589Y48317590D01*
X64664885Y48442911D01*
X64664881Y48442914D01*
X64664879Y48442915D01*
X64664878Y48442916D01*
X64577763Y48489479D01*
X64490647Y48536044D01*
X64490643Y48536045D01*
X64301600Y48593390D01*
X64105000Y48612753D01*
X63908400Y48593390D01*
X63908398Y48593390D01*
X63719356Y48536045D01*
X63719352Y48536044D01*
X63545118Y48442914D01*
X63545114Y48442911D01*
X63392410Y48317590D01*
X63267089Y48164886D01*
X63267086Y48164882D01*
X63173956Y47990648D01*
X63173955Y47990644D01*
X63116610Y47801602D01*
X63116610Y47801600D01*
X63097247Y47605001D01*
X62572753Y47605001D01*
X62553389Y47801603D01*
X62496042Y47990650D01*
X62402916Y48164878D01*
X62402913Y48164882D01*
X62402910Y48164886D01*
X62277589Y48317590D01*
X62124885Y48442911D01*
X62124881Y48442914D01*
X62124879Y48442915D01*
X62124878Y48442916D01*
X62037763Y48489479D01*
X61950647Y48536044D01*
X61950643Y48536045D01*
X61761600Y48593390D01*
X61565000Y48612753D01*
X61368400Y48593390D01*
X61368398Y48593390D01*
X61179356Y48536045D01*
X61179352Y48536044D01*
X61005118Y48442914D01*
X61005114Y48442911D01*
X60852410Y48317590D01*
X60727089Y48164886D01*
X60727086Y48164882D01*
X60633956Y47990648D01*
X60633955Y47990644D01*
X60576610Y47801602D01*
X60576610Y47801600D01*
X60557247Y47605000D01*
X60576610Y47408401D01*
X60576610Y47408399D01*
X60633955Y47219357D01*
X60633956Y47219353D01*
X60675497Y47141635D01*
X60719493Y47059323D01*
X60727086Y47045119D01*
X60727089Y47045115D01*
X60852410Y46892411D01*
X61005114Y46767090D01*
X61005118Y46767087D01*
X61005122Y46767084D01*
X61179348Y46673959D01*
X61179352Y46673957D01*
X61179356Y46673956D01*
X61185877Y46671978D01*
X61368397Y46616611D01*
X61565000Y46597247D01*
X61761603Y46616611D01*
X61950650Y46673958D01*
X61950657Y46673962D01*
X61953361Y46674782D01*
X62004725Y46671978D01*
X62028365Y46655994D01*
X62499573Y46184786D01*
X62521313Y46138166D01*
X62521599Y46131612D01*
X62521599Y45689644D01*
X62504006Y45641306D01*
X62459457Y45615586D01*
X62408799Y45624519D01*
X62388269Y45641937D01*
X62277233Y45777233D01*
X62124599Y45902497D01*
X62124593Y45902501D01*
X61950463Y45995576D01*
X61950451Y45995581D01*
X61761502Y46052897D01*
X61761503Y46052897D01*
X61717400Y46057240D01*
X61717400Y45545075D01*
X61707315Y45549680D01*
X61600763Y45565000D01*
X61529237Y45565000D01*
X61422685Y45549680D01*
X61412600Y45545075D01*
X61412600Y46057240D01*
X61412599Y46057240D01*
X61368496Y46052897D01*
X61179548Y45995581D01*
X61179536Y45995576D01*
X61005406Y45902501D01*
X61005400Y45902497D01*
X60852766Y45777234D01*
X60727503Y45624600D01*
X60727499Y45624594D01*
X60634424Y45450464D01*
X60634419Y45450452D01*
X60577103Y45261504D01*
X60572760Y45217401D01*
X60572760Y45217400D01*
X61088640Y45217400D01*
X61065000Y45136889D01*
X61065000Y44993111D01*
X61088640Y44912600D01*
X60572760Y44912600D01*
X60577103Y44868497D01*
X60634419Y44679549D01*
X60634424Y44679537D01*
X60727499Y44505407D01*
X60727503Y44505401D01*
X60852766Y44352767D01*
X61005400Y44227504D01*
X61005406Y44227500D01*
X61179536Y44134425D01*
X61179548Y44134420D01*
X61368490Y44077106D01*
X61368502Y44077104D01*
X61412599Y44072761D01*
X61412600Y44072761D01*
X61412600Y44584926D01*
X61422685Y44580320D01*
X61529237Y44565000D01*
X61600763Y44565000D01*
X61707315Y44580320D01*
X61717400Y44584926D01*
X61717400Y44072761D01*
X61761497Y44077104D01*
X61761509Y44077106D01*
X61950451Y44134420D01*
X61950463Y44134425D01*
X62124593Y44227500D01*
X62124599Y44227504D01*
X62277235Y44352769D01*
X62388269Y44488064D01*
X62432534Y44514269D01*
X62483286Y44505889D01*
X62516779Y44466847D01*
X62521599Y44440358D01*
X62521599Y43831630D01*
X62521456Y43828352D01*
X62517630Y43784612D01*
X62517630Y43784608D01*
X62528995Y43742192D01*
X62529706Y43738989D01*
X62537331Y43695741D01*
X62537332Y43695739D01*
X62540051Y43691029D01*
X62547561Y43672900D01*
X62548970Y43667640D01*
X62548973Y43667634D01*
X62574164Y43631658D01*
X62575921Y43628900D01*
X62597883Y43590862D01*
X62631530Y43562628D01*
X62633928Y43560431D01*
X67881568Y38312791D01*
X69284243Y36910116D01*
X69305983Y36863496D01*
X69292669Y36813809D01*
X69284243Y36803768D01*
X64533731Y32053256D01*
X64521691Y32043477D01*
X64508044Y32034561D01*
X64484927Y32004860D01*
X64481843Y32001367D01*
X64477889Y31997414D01*
X64464558Y31978743D01*
X64463630Y31977499D01*
X64429842Y31934088D01*
X64426878Y31928610D01*
X64426629Y31928745D01*
X64425007Y31925592D01*
X64425261Y31925468D01*
X64422525Y31919871D01*
X64406831Y31867158D01*
X64406357Y31865679D01*
X64388500Y31813663D01*
X64387475Y31807516D01*
X64387192Y31807564D01*
X64386682Y31804062D01*
X64386966Y31804026D01*
X64386195Y31797843D01*
X64388468Y31742887D01*
X64388500Y31741333D01*
X64388500Y26807333D01*
X64388372Y26804242D01*
X64387773Y26797000D01*
X64384546Y26758065D01*
X64384546Y26758060D01*
X64386199Y26751533D01*
X64388500Y26733073D01*
X64388500Y21188100D01*
X64370907Y21139762D01*
X64326358Y21114042D01*
X64313300Y21112900D01*
X60396756Y21112900D01*
X60394003Y21112780D01*
X60389865Y21112600D01*
X60375033Y21111303D01*
X60373385Y21111158D01*
X60308193Y21090604D01*
X60308192Y21090604D01*
X60263644Y21064885D01*
X60263640Y21064882D01*
X60241095Y21049095D01*
X60194216Y20982145D01*
X60176621Y20933803D01*
X60167100Y20879805D01*
X60167100Y17601700D01*
X60149507Y17553362D01*
X60104958Y17527642D01*
X60091900Y17526500D01*
X52909170Y17526500D01*
X52860832Y17544093D01*
X52855996Y17548526D01*
X49933526Y20470997D01*
X49911786Y20517617D01*
X49911500Y20524171D01*
X49911500Y21234278D01*
X49929093Y21282616D01*
X49929832Y21283483D01*
X49957417Y21315316D01*
X50017491Y21446860D01*
X50038071Y21590000D01*
X50017491Y21733140D01*
X50017489Y21733145D01*
X50017489Y21733146D01*
X49957418Y21864682D01*
X49957417Y21864683D01*
X49957417Y21864684D01*
X49941635Y21882897D01*
X49929867Y21896479D01*
X49911509Y21944532D01*
X49911500Y21945724D01*
X49911500Y24717636D01*
X49913101Y24733070D01*
X49914277Y24738679D01*
X49916445Y24749016D01*
X49913830Y24769988D01*
X49911789Y24786374D01*
X49911500Y24791028D01*
X49911500Y24796609D01*
X49911500Y24796611D01*
X49907719Y24819262D01*
X49907500Y24820771D01*
X49906262Y24830697D01*
X49900696Y24875360D01*
X49900693Y24875366D01*
X49898918Y24881331D01*
X49899193Y24881413D01*
X49898113Y24884785D01*
X49897842Y24884691D01*
X49895818Y24890586D01*
X49891884Y24897856D01*
X49869635Y24938967D01*
X49868944Y24940309D01*
X49844776Y24989746D01*
X49844773Y24989749D01*
X49844773Y24989750D01*
X49841153Y24994821D01*
X49841385Y24994988D01*
X49839273Y24997820D01*
X49839048Y24997644D01*
X49835220Y25002562D01*
X49794742Y25039825D01*
X49793644Y25040878D01*
X48439926Y26394597D01*
X48418186Y26441217D01*
X48417900Y26447771D01*
X48417900Y28503230D01*
X48417900Y28503244D01*
X48417600Y28510126D01*
X48416158Y28526615D01*
X48395604Y28591807D01*
X48369884Y28636356D01*
X48354095Y28658904D01*
X48339541Y28669095D01*
X48287143Y28705784D01*
X48287144Y28705784D01*
X48238802Y28723379D01*
X48184804Y28732900D01*
X48184800Y28732900D01*
X45791756Y28732900D01*
X45789003Y28732780D01*
X45784865Y28732600D01*
X45770033Y28731303D01*
X45768385Y28731158D01*
X45703193Y28710604D01*
X45703192Y28710604D01*
X45658644Y28684885D01*
X45658640Y28684882D01*
X45636095Y28669095D01*
X45589216Y28602145D01*
X45571621Y28553803D01*
X45562100Y28499805D01*
X45562100Y26106763D01*
X23357753Y26106763D01*
X23347491Y26178140D01*
X23347489Y26178145D01*
X23347489Y26178146D01*
X23287418Y26309682D01*
X23287417Y26309683D01*
X23287417Y26309684D01*
X23192716Y26418974D01*
X23161742Y26438880D01*
X23130591Y26479813D01*
X23127200Y26502141D01*
X23127200Y32552860D01*
X23144793Y32601198D01*
X23161742Y32616121D01*
X23192716Y32636026D01*
X23287417Y32745316D01*
X23347491Y32876860D01*
X23368071Y33020000D01*
X23347491Y33163140D01*
X23347489Y33163145D01*
X23347489Y33163146D01*
X23287418Y33294682D01*
X23287417Y33294683D01*
X23287417Y33294684D01*
X23192716Y33403974D01*
X23071060Y33482158D01*
X23071059Y33482159D01*
X23071058Y33482159D01*
X22932308Y33522900D01*
X22932306Y33522900D01*
X22787694Y33522900D01*
X22787691Y33522900D01*
X22648941Y33482159D01*
X22527284Y33403974D01*
X22432581Y33294682D01*
X22372510Y33163146D01*
X22372510Y33163144D01*
X22372509Y33163142D01*
X22372509Y33163140D01*
X22351929Y33020000D01*
X22372509Y32876860D01*
X22372509Y32876859D01*
X22372510Y32876857D01*
X22372510Y32876855D01*
X22432581Y32745319D01*
X22432582Y32745318D01*
X22432583Y32745316D01*
X22527284Y32636026D01*
X22558255Y32616122D01*
X22589408Y32575190D01*
X22592800Y32552860D01*
X22592800Y26502141D01*
X22575207Y26453803D01*
X22558258Y26438881D01*
X22527283Y26418974D01*
X22527284Y26418974D01*
X22432581Y26309682D01*
X22372510Y26178146D01*
X22372510Y26178144D01*
X22372509Y26178142D01*
X22372509Y26178140D01*
X22351929Y26035000D01*
X1930499Y26035000D01*
X1930499Y33655000D01*
X6476929Y33655000D01*
X6497509Y33511860D01*
X6497509Y33511859D01*
X6497510Y33511857D01*
X6497510Y33511855D01*
X6557581Y33380319D01*
X6557582Y33380318D01*
X6557583Y33380316D01*
X6652284Y33271026D01*
X6773940Y33192842D01*
X6912694Y33152100D01*
X6912697Y33152100D01*
X7057303Y33152100D01*
X7057306Y33152100D01*
X7196060Y33192842D01*
X7317716Y33271026D01*
X7396413Y33361847D01*
X7441363Y33386855D01*
X7453244Y33387800D01*
X18661271Y33387800D01*
X18675942Y33386355D01*
X18695000Y33382564D01*
X18799257Y33403303D01*
X18865329Y33447451D01*
X18865328Y33447451D01*
X18887641Y33462359D01*
X18887642Y33462361D01*
X18888027Y33462618D01*
X18888943Y33464308D01*
X18898437Y33478519D01*
X18907784Y33489908D01*
X20053651Y34635774D01*
X20100271Y34657514D01*
X20106825Y34657800D01*
X26528174Y34657800D01*
X26576512Y34640207D01*
X26581348Y34635774D01*
X27727207Y33489916D01*
X27736559Y33478521D01*
X27747357Y33462360D01*
X27760291Y33453718D01*
X27811555Y33419466D01*
X27811556Y33419464D01*
X27835739Y33403305D01*
X27835741Y33403304D01*
X27835743Y33403303D01*
X27940000Y33382565D01*
X27959054Y33386355D01*
X27973725Y33387800D01*
X45578174Y33387800D01*
X45626512Y33370207D01*
X45631348Y33365774D01*
X49240774Y29756349D01*
X49262514Y29709729D01*
X49262800Y29703175D01*
X49262800Y29042141D01*
X49245207Y28993803D01*
X49228258Y28978881D01*
X49197284Y28958975D01*
X49197284Y28958974D01*
X49102581Y28849682D01*
X49042510Y28718146D01*
X49042510Y28718144D01*
X49042509Y28718142D01*
X49042509Y28718140D01*
X49027132Y28611192D01*
X49024346Y28591808D01*
X49021929Y28575000D01*
X49042509Y28431860D01*
X49042509Y28431859D01*
X49042510Y28431857D01*
X49042510Y28431855D01*
X49102581Y28300319D01*
X49102582Y28300318D01*
X49102583Y28300316D01*
X49197284Y28191026D01*
X49318940Y28112842D01*
X49457694Y28072100D01*
X49457697Y28072100D01*
X49602303Y28072100D01*
X49602306Y28072100D01*
X49741060Y28112842D01*
X49862716Y28191026D01*
X49957417Y28300316D01*
X50017491Y28431860D01*
X50038071Y28575000D01*
X50017491Y28718140D01*
X50017489Y28718145D01*
X50017489Y28718146D01*
X49957418Y28849682D01*
X49957417Y28849683D01*
X49957417Y28849684D01*
X49862716Y28958974D01*
X49831742Y28978880D01*
X49800591Y29019813D01*
X49797200Y29042141D01*
X49797200Y29811272D01*
X49798645Y29825944D01*
X49802436Y29845000D01*
X49781697Y29949256D01*
X49781697Y29949257D01*
X49737552Y30015326D01*
X49737549Y30015329D01*
X49722641Y30037641D01*
X49722639Y30037642D01*
X49722639Y30037643D01*
X49706482Y30048439D01*
X49695087Y30057791D01*
X45932788Y33820090D01*
X45923435Y33831487D01*
X45912641Y33847642D01*
X45877747Y33870957D01*
X45824259Y33906696D01*
X45824255Y33906698D01*
X45744884Y33922486D01*
X45720000Y33927436D01*
X45719999Y33927436D01*
X45700942Y33923645D01*
X45686271Y33922200D01*
X28081825Y33922200D01*
X28033487Y33939793D01*
X28028651Y33944226D01*
X26882788Y35090090D01*
X26873435Y35101487D01*
X26862641Y35117642D01*
X26827747Y35140957D01*
X26774259Y35176696D01*
X26774255Y35176698D01*
X26695887Y35192287D01*
X26670000Y35197436D01*
X26669999Y35197436D01*
X26650942Y35193645D01*
X26636271Y35192200D01*
X19998725Y35192200D01*
X19984054Y35193645D01*
X19965000Y35197435D01*
X19860744Y35176698D01*
X19860742Y35176697D01*
X19848650Y35168617D01*
X19836557Y35160537D01*
X19807254Y35140957D01*
X19772357Y35117640D01*
X19761558Y35101479D01*
X19752208Y35090087D01*
X18606348Y33944226D01*
X18559728Y33922486D01*
X18553174Y33922200D01*
X7453244Y33922200D01*
X7404906Y33939793D01*
X7396415Y33948151D01*
X7317716Y34038974D01*
X7196060Y34117158D01*
X7196059Y34117159D01*
X7196058Y34117159D01*
X7057308Y34157900D01*
X7057306Y34157900D01*
X6912694Y34157900D01*
X6912691Y34157900D01*
X6773941Y34117159D01*
X6652284Y34038974D01*
X6557581Y33929682D01*
X6497510Y33798146D01*
X6497510Y33798144D01*
X6497509Y33798142D01*
X6497509Y33798140D01*
X6476929Y33655000D01*
X1930499Y33655000D01*
X1930499Y44912600D01*
X14852760Y44912600D01*
X14857103Y44868497D01*
X14914419Y44679549D01*
X14914424Y44679537D01*
X15007499Y44505407D01*
X15007503Y44505401D01*
X15132766Y44352767D01*
X15285400Y44227504D01*
X15285406Y44227500D01*
X15459536Y44134425D01*
X15459548Y44134420D01*
X15648490Y44077106D01*
X15648502Y44077104D01*
X15692600Y44072761D01*
X15692600Y44584926D01*
X15702685Y44580320D01*
X15809237Y44565000D01*
X15880763Y44565000D01*
X15987315Y44580320D01*
X15997400Y44584926D01*
X15997400Y44072761D01*
X16041497Y44077104D01*
X16041509Y44077106D01*
X16230451Y44134420D01*
X16230463Y44134425D01*
X16404593Y44227500D01*
X16404599Y44227504D01*
X16557233Y44352767D01*
X16682496Y44505401D01*
X16682500Y44505407D01*
X16775575Y44679537D01*
X16775580Y44679549D01*
X16832896Y44868497D01*
X16837239Y44912600D01*
X16321360Y44912600D01*
X16345000Y44993111D01*
X16345000Y45065000D01*
X17377247Y45065000D01*
X17396610Y44868401D01*
X17396610Y44868399D01*
X17453955Y44679357D01*
X17453956Y44679353D01*
X17547086Y44505119D01*
X17547089Y44505115D01*
X17672410Y44352411D01*
X17825114Y44227090D01*
X17825118Y44227087D01*
X17825122Y44227084D01*
X17998476Y44134425D01*
X17999352Y44133957D01*
X17999356Y44133956D01*
X18042593Y44120841D01*
X18188397Y44076611D01*
X18385000Y44057247D01*
X18581603Y44076611D01*
X18770650Y44133958D01*
X18944878Y44227084D01*
X19097589Y44352411D01*
X19222916Y44505122D01*
X19316042Y44679350D01*
X19373389Y44868397D01*
X19392753Y45065000D01*
X19917247Y45065000D01*
X19936610Y44868401D01*
X19936610Y44868399D01*
X19993955Y44679357D01*
X19993956Y44679353D01*
X20087086Y44505119D01*
X20087089Y44505115D01*
X20212410Y44352411D01*
X20365114Y44227090D01*
X20365118Y44227087D01*
X20365122Y44227084D01*
X20538476Y44134425D01*
X20539352Y44133957D01*
X20539356Y44133956D01*
X20582593Y44120841D01*
X20728397Y44076611D01*
X20925000Y44057247D01*
X21121603Y44076611D01*
X21310650Y44133958D01*
X21484878Y44227084D01*
X21637589Y44352411D01*
X21762916Y44505122D01*
X21856042Y44679350D01*
X21913389Y44868397D01*
X21932753Y45065000D01*
X22457247Y45065000D01*
X22476610Y44868401D01*
X22476610Y44868399D01*
X22533955Y44679357D01*
X22533956Y44679353D01*
X22627086Y44505119D01*
X22627089Y44505115D01*
X22752410Y44352411D01*
X22905114Y44227090D01*
X22905118Y44227087D01*
X22905122Y44227084D01*
X23078476Y44134425D01*
X23079352Y44133957D01*
X23079356Y44133956D01*
X23122593Y44120841D01*
X23268397Y44076611D01*
X23465000Y44057247D01*
X23661603Y44076611D01*
X23850650Y44133958D01*
X24024878Y44227084D01*
X24177589Y44352411D01*
X24302916Y44505122D01*
X24396042Y44679350D01*
X24453389Y44868397D01*
X24472753Y45065000D01*
X24997247Y45065000D01*
X25016610Y44868401D01*
X25016610Y44868399D01*
X25073955Y44679357D01*
X25073956Y44679353D01*
X25167086Y44505119D01*
X25167089Y44505115D01*
X25292410Y44352411D01*
X25445114Y44227090D01*
X25445118Y44227087D01*
X25445122Y44227084D01*
X25618476Y44134425D01*
X25619352Y44133957D01*
X25619356Y44133956D01*
X25662593Y44120841D01*
X25808397Y44076611D01*
X26005000Y44057247D01*
X26201603Y44076611D01*
X26390650Y44133958D01*
X26564878Y44227084D01*
X26717589Y44352411D01*
X26842916Y44505122D01*
X26936042Y44679350D01*
X26993389Y44868397D01*
X27012753Y45065000D01*
X27537247Y45065000D01*
X27556610Y44868401D01*
X27556610Y44868399D01*
X27613955Y44679357D01*
X27613956Y44679353D01*
X27707086Y44505119D01*
X27707089Y44505115D01*
X27832410Y44352411D01*
X27985114Y44227090D01*
X27985118Y44227087D01*
X27985122Y44227084D01*
X28158476Y44134425D01*
X28159352Y44133957D01*
X28159356Y44133956D01*
X28202593Y44120841D01*
X28348397Y44076611D01*
X28545000Y44057247D01*
X28741603Y44076611D01*
X28930650Y44133958D01*
X29104878Y44227084D01*
X29257589Y44352411D01*
X29382916Y44505122D01*
X29476042Y44679350D01*
X29533389Y44868397D01*
X29552753Y45065000D01*
X30077247Y45065000D01*
X30096610Y44868401D01*
X30096610Y44868399D01*
X30153955Y44679357D01*
X30153956Y44679353D01*
X30247086Y44505119D01*
X30247089Y44505115D01*
X30372410Y44352411D01*
X30525114Y44227090D01*
X30525118Y44227087D01*
X30525122Y44227084D01*
X30698476Y44134425D01*
X30699352Y44133957D01*
X30699356Y44133956D01*
X30742593Y44120841D01*
X30888397Y44076611D01*
X31085000Y44057247D01*
X31281603Y44076611D01*
X31470650Y44133958D01*
X31644878Y44227084D01*
X31797589Y44352411D01*
X31922916Y44505122D01*
X32016042Y44679350D01*
X32073389Y44868397D01*
X32092753Y45065000D01*
X32617247Y45065000D01*
X32636610Y44868401D01*
X32636610Y44868399D01*
X32693955Y44679357D01*
X32693956Y44679353D01*
X32787086Y44505119D01*
X32787089Y44505115D01*
X32912410Y44352411D01*
X33065114Y44227090D01*
X33065118Y44227087D01*
X33065122Y44227084D01*
X33238476Y44134425D01*
X33239352Y44133957D01*
X33239356Y44133956D01*
X33282593Y44120841D01*
X33428397Y44076611D01*
X33625000Y44057247D01*
X33821603Y44076611D01*
X34010650Y44133958D01*
X34184878Y44227084D01*
X34337589Y44352411D01*
X34462916Y44505122D01*
X34556042Y44679350D01*
X34613389Y44868397D01*
X34632753Y45065000D01*
X35157247Y45065000D01*
X35176610Y44868401D01*
X35176610Y44868399D01*
X35233955Y44679357D01*
X35233956Y44679353D01*
X35327086Y44505119D01*
X35327089Y44505115D01*
X35452410Y44352411D01*
X35605114Y44227090D01*
X35605118Y44227087D01*
X35605122Y44227084D01*
X35778476Y44134425D01*
X35779352Y44133957D01*
X35779356Y44133956D01*
X35822593Y44120841D01*
X35968397Y44076611D01*
X36165000Y44057247D01*
X36361603Y44076611D01*
X36550650Y44133958D01*
X36643214Y44183435D01*
X36694133Y44190705D01*
X36731834Y44170288D01*
X37887209Y43014913D01*
X37896561Y43003518D01*
X37907357Y42987361D01*
X37907358Y42987361D01*
X37907359Y42987359D01*
X37995743Y42928303D01*
X38100000Y42907564D01*
X38204257Y42928303D01*
X38204260Y42928306D01*
X38211100Y42931138D01*
X38211760Y42929544D01*
X38243195Y42939078D01*
X45841896Y42939078D01*
X45890234Y42921485D01*
X45895070Y42917052D01*
X53050773Y35761349D01*
X53072513Y35714729D01*
X53072799Y35708175D01*
X53072800Y27772141D01*
X53055207Y27723803D01*
X53038258Y27708881D01*
X53007283Y27688975D01*
X53007284Y27688974D01*
X52912581Y27579682D01*
X52852510Y27448146D01*
X52852510Y27448144D01*
X52852509Y27448142D01*
X52852509Y27448140D01*
X52831929Y27305000D01*
X52852509Y27161860D01*
X52852509Y27161859D01*
X52852510Y27161857D01*
X52852510Y27161855D01*
X52912581Y27030319D01*
X52912582Y27030318D01*
X52912583Y27030316D01*
X53007284Y26921026D01*
X53128940Y26842842D01*
X53267694Y26802100D01*
X53267697Y26802100D01*
X53412303Y26802100D01*
X53412306Y26802100D01*
X53551060Y26842842D01*
X53672716Y26921026D01*
X53767417Y27030316D01*
X53827491Y27161860D01*
X53848071Y27305000D01*
X53827491Y27448140D01*
X53827489Y27448145D01*
X53827489Y27448146D01*
X53767418Y27579682D01*
X53767417Y27579683D01*
X53767417Y27579684D01*
X53672716Y27688974D01*
X53641742Y27708880D01*
X53610591Y27749813D01*
X53607200Y27772141D01*
X53607200Y35816277D01*
X53608645Y35830949D01*
X53612435Y35850000D01*
X53591697Y35954257D01*
X53569517Y35987451D01*
X53532641Y36042641D01*
X53532640Y36042643D01*
X53516479Y36053441D01*
X53505084Y36062793D01*
X46196510Y43371368D01*
X46187157Y43382765D01*
X46176363Y43398920D01*
X46141469Y43422235D01*
X46087981Y43457974D01*
X46087977Y43457976D01*
X46009609Y43473565D01*
X45983722Y43478714D01*
X45983721Y43478714D01*
X45964664Y43474923D01*
X45949993Y43473478D01*
X38215548Y43473478D01*
X38167210Y43491071D01*
X38162374Y43495504D01*
X37094545Y44563333D01*
X37072805Y44609953D01*
X37081399Y44651957D01*
X37096042Y44679350D01*
X37153389Y44868397D01*
X37172753Y45065000D01*
X37697247Y45065000D01*
X37716610Y44868401D01*
X37716610Y44868399D01*
X37773955Y44679357D01*
X37773956Y44679353D01*
X37867086Y44505119D01*
X37867089Y44505115D01*
X37992410Y44352411D01*
X38145114Y44227090D01*
X38145118Y44227087D01*
X38145122Y44227084D01*
X38318476Y44134425D01*
X38319352Y44133957D01*
X38319356Y44133956D01*
X38362593Y44120841D01*
X38508397Y44076611D01*
X38705000Y44057247D01*
X38901603Y44076611D01*
X39090650Y44133958D01*
X39264878Y44227084D01*
X39417589Y44352411D01*
X39542916Y44505122D01*
X39636042Y44679350D01*
X39693389Y44868397D01*
X39712753Y45065000D01*
X40237247Y45065000D01*
X40256610Y44868401D01*
X40256610Y44868399D01*
X40313955Y44679357D01*
X40313956Y44679353D01*
X40407086Y44505119D01*
X40407089Y44505115D01*
X40532410Y44352411D01*
X40685114Y44227090D01*
X40685118Y44227087D01*
X40685122Y44227084D01*
X40858476Y44134425D01*
X40859352Y44133957D01*
X40859356Y44133956D01*
X40902593Y44120841D01*
X41048397Y44076611D01*
X41245000Y44057247D01*
X41441603Y44076611D01*
X41630650Y44133958D01*
X41804878Y44227084D01*
X41957589Y44352411D01*
X42082916Y44505122D01*
X42176042Y44679350D01*
X42233389Y44868397D01*
X42252753Y45065000D01*
X42777247Y45065000D01*
X42796610Y44868401D01*
X42796610Y44868399D01*
X42853955Y44679357D01*
X42853956Y44679353D01*
X42947086Y44505119D01*
X42947089Y44505115D01*
X43072410Y44352411D01*
X43225114Y44227090D01*
X43225118Y44227087D01*
X43225122Y44227084D01*
X43398476Y44134425D01*
X43399352Y44133957D01*
X43399356Y44133956D01*
X43442593Y44120841D01*
X43588397Y44076611D01*
X43785000Y44057247D01*
X43981603Y44076611D01*
X44170650Y44133958D01*
X44344878Y44227084D01*
X44497589Y44352411D01*
X44622916Y44505122D01*
X44716042Y44679350D01*
X44773389Y44868397D01*
X44792753Y45065000D01*
X45317247Y45065000D01*
X45336610Y44868401D01*
X45336610Y44868399D01*
X45393955Y44679357D01*
X45393956Y44679353D01*
X45487086Y44505119D01*
X45487089Y44505115D01*
X45612410Y44352411D01*
X45765114Y44227090D01*
X45765118Y44227087D01*
X45765122Y44227084D01*
X45938476Y44134425D01*
X45939352Y44133957D01*
X45939356Y44133956D01*
X45982593Y44120841D01*
X46128397Y44076611D01*
X46325000Y44057247D01*
X46521603Y44076611D01*
X46710650Y44133958D01*
X46884878Y44227084D01*
X46934021Y44267415D01*
X47037586Y44352408D01*
X47037587Y44352410D01*
X47037589Y44352411D01*
X47071170Y44393331D01*
X47115435Y44419535D01*
X47166188Y44411155D01*
X47199681Y44372113D01*
X47204501Y44345624D01*
X47204501Y44012028D01*
X47203056Y43997357D01*
X47199265Y43978300D01*
X47220003Y43874044D01*
X47220005Y43874040D01*
X47255743Y43820553D01*
X47279059Y43785658D01*
X47295214Y43774864D01*
X47306611Y43765511D01*
X54320774Y36751349D01*
X54342514Y36704729D01*
X54342800Y36698175D01*
X54342800Y26176827D01*
X54325207Y26128489D01*
X54320774Y26123653D01*
X53174910Y24977790D01*
X53163518Y24968440D01*
X53147360Y24957643D01*
X53107410Y24897856D01*
X53107410Y24897854D01*
X53088303Y24869258D01*
X53088302Y24869256D01*
X53067564Y24765001D01*
X53067564Y24765000D01*
X53070743Y24749017D01*
X53071355Y24745944D01*
X53072800Y24731272D01*
X53072800Y24597141D01*
X53055207Y24548803D01*
X53038258Y24533881D01*
X53007283Y24513975D01*
X53007284Y24513974D01*
X52912581Y24404682D01*
X52852510Y24273146D01*
X52852510Y24273144D01*
X52852509Y24273142D01*
X52852509Y24273140D01*
X52831929Y24130000D01*
X52852509Y23986860D01*
X52852509Y23986859D01*
X52852510Y23986857D01*
X52852510Y23986855D01*
X52912581Y23855319D01*
X52912582Y23855318D01*
X52912583Y23855316D01*
X53007284Y23746026D01*
X53128940Y23667842D01*
X53267694Y23627100D01*
X53267697Y23627100D01*
X53412303Y23627100D01*
X53412306Y23627100D01*
X53551060Y23667842D01*
X53672716Y23746026D01*
X53767417Y23855316D01*
X53827491Y23986860D01*
X53848071Y24130000D01*
X53827491Y24273140D01*
X53827489Y24273145D01*
X53827489Y24273146D01*
X53767418Y24404682D01*
X53767417Y24404683D01*
X53767417Y24404684D01*
X53672716Y24513974D01*
X53641742Y24533880D01*
X53610591Y24574813D01*
X53607200Y24597141D01*
X53607200Y24623176D01*
X53624793Y24671514D01*
X53629215Y24676339D01*
X54775089Y25822214D01*
X54786478Y25831561D01*
X54802641Y25842359D01*
X54825855Y25877101D01*
X54857938Y25925116D01*
X54857939Y25925120D01*
X54861697Y25930743D01*
X54882435Y26035000D01*
X54878645Y26054054D01*
X54877200Y26068725D01*
X54877200Y36816277D01*
X54878645Y36830949D01*
X54882435Y36850000D01*
X54861697Y36954256D01*
X54861696Y36954258D01*
X54861695Y36954260D01*
X54802640Y37042642D01*
X54756342Y37073578D01*
X54744947Y37082930D01*
X47760927Y44066951D01*
X47739187Y44113571D01*
X47738901Y44120125D01*
X47738901Y44815410D01*
X47756494Y44863748D01*
X47801043Y44889468D01*
X47851701Y44880535D01*
X47884766Y44841130D01*
X47886059Y44837249D01*
X47897902Y44798210D01*
X47933955Y44679357D01*
X47933956Y44679353D01*
X48027086Y44505119D01*
X48027089Y44505115D01*
X48152410Y44352411D01*
X48305114Y44227090D01*
X48305118Y44227087D01*
X48305122Y44227084D01*
X48478476Y44134425D01*
X48479352Y44133957D01*
X48479356Y44133956D01*
X48522593Y44120841D01*
X48668397Y44076611D01*
X48865000Y44057247D01*
X49061603Y44076611D01*
X49250650Y44133958D01*
X49343214Y44183435D01*
X49394133Y44190705D01*
X49431834Y44170288D01*
X55590774Y38011348D01*
X55612514Y37964728D01*
X55612800Y37958174D01*
X55612800Y25541827D01*
X55595207Y25493489D01*
X55590774Y25488653D01*
X54754605Y24652485D01*
X54707985Y24630745D01*
X54687718Y24632762D01*
X54687628Y24632135D01*
X54682308Y24632900D01*
X54682306Y24632900D01*
X54537694Y24632900D01*
X54537691Y24632900D01*
X54398941Y24592159D01*
X54277284Y24513974D01*
X54182581Y24404682D01*
X54122510Y24273146D01*
X54122510Y24273144D01*
X54122509Y24273142D01*
X54122509Y24273140D01*
X54101929Y24130000D01*
X54122509Y23986860D01*
X54122509Y23986859D01*
X54122510Y23986857D01*
X54122510Y23986855D01*
X54182581Y23855319D01*
X54182582Y23855318D01*
X54182583Y23855316D01*
X54277284Y23746026D01*
X54398940Y23667842D01*
X54537694Y23627100D01*
X54537697Y23627100D01*
X54682303Y23627100D01*
X54682306Y23627100D01*
X54821060Y23667842D01*
X54942716Y23746026D01*
X55037417Y23855316D01*
X55097491Y23986860D01*
X55118071Y24130000D01*
X55107061Y24206573D01*
X55117596Y24256919D01*
X55128318Y24270442D01*
X56045089Y25187214D01*
X56056478Y25196561D01*
X56072641Y25207359D01*
X56115536Y25271558D01*
X56131697Y25295743D01*
X56152435Y25400000D01*
X56148645Y25419054D01*
X56147200Y25433725D01*
X56147200Y38066272D01*
X56148645Y38080944D01*
X56152436Y38100000D01*
X56131697Y38204256D01*
X56131696Y38204256D01*
X56087552Y38270326D01*
X56087549Y38270329D01*
X56072641Y38292641D01*
X56072639Y38292642D01*
X56072639Y38292643D01*
X56056482Y38303439D01*
X56045087Y38312791D01*
X49794545Y44563333D01*
X49772805Y44609953D01*
X49781399Y44651957D01*
X49796042Y44679350D01*
X49853389Y44868397D01*
X49872753Y45065000D01*
X50397247Y45065000D01*
X50416610Y44868401D01*
X50416610Y44868399D01*
X50473955Y44679357D01*
X50473956Y44679353D01*
X50567086Y44505119D01*
X50567089Y44505115D01*
X50692410Y44352411D01*
X50845114Y44227090D01*
X50845118Y44227087D01*
X50845122Y44227084D01*
X51018476Y44134425D01*
X51019352Y44133957D01*
X51019356Y44133956D01*
X51062593Y44120841D01*
X51208397Y44076611D01*
X51405000Y44057247D01*
X51601603Y44076611D01*
X51790650Y44133958D01*
X51964878Y44227084D01*
X52117589Y44352411D01*
X52242916Y44505122D01*
X52336042Y44679350D01*
X52393389Y44868397D01*
X52412753Y45065000D01*
X52937247Y45065000D01*
X52956610Y44868401D01*
X52956610Y44868399D01*
X53013955Y44679357D01*
X53013956Y44679353D01*
X53107086Y44505119D01*
X53107089Y44505115D01*
X53232410Y44352411D01*
X53385114Y44227090D01*
X53385118Y44227087D01*
X53385122Y44227084D01*
X53558476Y44134425D01*
X53559352Y44133957D01*
X53559356Y44133956D01*
X53602593Y44120841D01*
X53748397Y44076611D01*
X53945000Y44057247D01*
X54141603Y44076611D01*
X54330650Y44133958D01*
X54504878Y44227084D01*
X54657589Y44352411D01*
X54782916Y44505122D01*
X54876042Y44679350D01*
X54933389Y44868397D01*
X54952753Y45065000D01*
X55477247Y45065000D01*
X55496610Y44868401D01*
X55496610Y44868399D01*
X55553955Y44679357D01*
X55553956Y44679353D01*
X55647086Y44505119D01*
X55647089Y44505115D01*
X55772410Y44352411D01*
X55925114Y44227090D01*
X55925118Y44227087D01*
X55925122Y44227084D01*
X56098476Y44134425D01*
X56099352Y44133957D01*
X56099356Y44133956D01*
X56142593Y44120841D01*
X56288397Y44076611D01*
X56485000Y44057247D01*
X56681603Y44076611D01*
X56870650Y44133958D01*
X57044878Y44227084D01*
X57094021Y44267415D01*
X57197586Y44352408D01*
X57197587Y44352410D01*
X57197589Y44352411D01*
X57231170Y44393331D01*
X57275435Y44419535D01*
X57326188Y44411155D01*
X57359681Y44372113D01*
X57364501Y44345624D01*
X57364501Y36818528D01*
X57346908Y36770190D01*
X57342485Y36765365D01*
X57306444Y36729323D01*
X57294605Y36717484D01*
X57247984Y36695745D01*
X57227718Y36697762D01*
X57227628Y36697135D01*
X57222308Y36697900D01*
X57222306Y36697900D01*
X57077694Y36697900D01*
X57077691Y36697900D01*
X56938941Y36657159D01*
X56817284Y36578974D01*
X56722581Y36469682D01*
X56662510Y36338146D01*
X56662510Y36338144D01*
X56662509Y36338142D01*
X56662509Y36338140D01*
X56641929Y36195000D01*
X56662509Y36051860D01*
X56662509Y36051859D01*
X56662510Y36051857D01*
X56662510Y36051855D01*
X56722581Y35920319D01*
X56722582Y35920318D01*
X56722583Y35920316D01*
X56817284Y35811026D01*
X56938940Y35732842D01*
X57077694Y35692100D01*
X57077697Y35692100D01*
X57222303Y35692100D01*
X57222306Y35692100D01*
X57361060Y35732842D01*
X57482716Y35811026D01*
X57577417Y35920316D01*
X57637491Y36051860D01*
X57658071Y36195000D01*
X57647061Y36271573D01*
X57657596Y36321919D01*
X57668318Y36335442D01*
X57796793Y36463917D01*
X57808182Y36473264D01*
X57824342Y36484060D01*
X57846255Y36516856D01*
X57879051Y36565937D01*
X57879051Y36565940D01*
X57883398Y36572444D01*
X57904136Y36676701D01*
X57900346Y36695755D01*
X57898901Y36710426D01*
X57898901Y44815410D01*
X57916494Y44863748D01*
X57961043Y44889468D01*
X58011701Y44880535D01*
X58044766Y44841130D01*
X58046059Y44837249D01*
X58057902Y44798210D01*
X58093955Y44679357D01*
X58093956Y44679353D01*
X58187086Y44505119D01*
X58187089Y44505115D01*
X58312410Y44352411D01*
X58465114Y44227090D01*
X58465118Y44227087D01*
X58465122Y44227084D01*
X58639350Y44133958D01*
X58639352Y44133958D01*
X58639353Y44133957D01*
X58639360Y44133955D01*
X58734429Y44105117D01*
X58775578Y44074250D01*
X58787800Y44033155D01*
X58787800Y35701827D01*
X58770207Y35653489D01*
X58765774Y35648653D01*
X57294605Y34177485D01*
X57247985Y34155745D01*
X57227718Y34157762D01*
X57227628Y34157135D01*
X57222308Y34157900D01*
X57222306Y34157900D01*
X57077694Y34157900D01*
X57077691Y34157900D01*
X56938941Y34117159D01*
X56817284Y34038974D01*
X56722581Y33929682D01*
X56662510Y33798146D01*
X56662510Y33798144D01*
X56662509Y33798142D01*
X56662509Y33798140D01*
X56641929Y33655000D01*
X56662509Y33511860D01*
X56662509Y33511859D01*
X56662510Y33511857D01*
X56662510Y33511855D01*
X56722581Y33380319D01*
X56722582Y33380318D01*
X56722583Y33380316D01*
X56817284Y33271026D01*
X56938940Y33192842D01*
X57077694Y33152100D01*
X57077697Y33152100D01*
X57222303Y33152100D01*
X57222306Y33152100D01*
X57361060Y33192842D01*
X57482716Y33271026D01*
X57577417Y33380316D01*
X57615775Y33464308D01*
X57637489Y33511855D01*
X57637489Y33511856D01*
X57637491Y33511860D01*
X57658071Y33655000D01*
X57647061Y33731573D01*
X57657596Y33781919D01*
X57668318Y33795442D01*
X59220092Y35347216D01*
X59231481Y35356563D01*
X59247641Y35367359D01*
X59306697Y35455744D01*
X59306696Y35455744D01*
X59314196Y35466968D01*
X59311946Y35482137D01*
X59327436Y35560000D01*
X59323645Y35579058D01*
X59322200Y35593729D01*
X59322200Y44051355D01*
X59339793Y44099693D01*
X59375572Y44123317D01*
X59410641Y44133955D01*
X59410647Y44133957D01*
X59410647Y44133958D01*
X59410650Y44133958D01*
X59584878Y44227084D01*
X59737589Y44352411D01*
X59862916Y44505122D01*
X59956042Y44679350D01*
X60013389Y44868397D01*
X60032753Y45065000D01*
X60013389Y45261603D01*
X59956102Y45450452D01*
X59956044Y45450644D01*
X59956043Y45450648D01*
X59935035Y45489952D01*
X59862916Y45624878D01*
X59862913Y45624882D01*
X59862910Y45624886D01*
X59737589Y45777590D01*
X59584885Y45902911D01*
X59584881Y45902914D01*
X59584879Y45902915D01*
X59584878Y45902916D01*
X59451018Y45974465D01*
X59410647Y45996044D01*
X59410643Y45996045D01*
X59221600Y46053390D01*
X59025000Y46072753D01*
X58828400Y46053390D01*
X58828398Y46053390D01*
X58639356Y45996045D01*
X58639352Y45996044D01*
X58465118Y45902914D01*
X58465114Y45902911D01*
X58312410Y45777590D01*
X58187089Y45624886D01*
X58187086Y45624882D01*
X58093956Y45450648D01*
X58093955Y45450644D01*
X58046063Y45292762D01*
X58015196Y45251613D01*
X57965099Y45239932D01*
X57919215Y45263185D01*
X57899013Y45310491D01*
X57898901Y45314591D01*
X57898901Y46059876D01*
X57916494Y46108214D01*
X57920927Y46113050D01*
X58205498Y46397621D01*
X58497266Y46689390D01*
X58543885Y46711129D01*
X58585885Y46702536D01*
X58639350Y46673958D01*
X58828397Y46616611D01*
X59025000Y46597247D01*
X59221603Y46616611D01*
X59410650Y46673958D01*
X59584878Y46767084D01*
X59737589Y46892411D01*
X59862916Y47045122D01*
X59956042Y47219350D01*
X60013389Y47408397D01*
X60032753Y47605000D01*
X60013389Y47801603D01*
X59956042Y47990650D01*
X59862916Y48164878D01*
X59862913Y48164882D01*
X59862910Y48164886D01*
X59737589Y48317590D01*
X59584885Y48442911D01*
X59584881Y48442914D01*
X59584879Y48442915D01*
X59584878Y48442916D01*
X59497763Y48489479D01*
X59410647Y48536044D01*
X59410643Y48536045D01*
X59221600Y48593390D01*
X59025000Y48612753D01*
X58828400Y48593390D01*
X58828398Y48593390D01*
X58639356Y48536045D01*
X58639352Y48536044D01*
X58465118Y48442914D01*
X58465114Y48442911D01*
X58312410Y48317590D01*
X58187089Y48164886D01*
X58187086Y48164882D01*
X58093956Y47990648D01*
X58093955Y47990644D01*
X58036610Y47801602D01*
X58036610Y47801600D01*
X58017247Y47605000D01*
X58036610Y47408401D01*
X58036610Y47408399D01*
X58093955Y47219357D01*
X58093956Y47219353D01*
X58107214Y47194549D01*
X58129500Y47152855D01*
X58136770Y47101932D01*
X58116353Y47064233D01*
X57466611Y46414491D01*
X57455219Y46405141D01*
X57439061Y46394344D01*
X57399111Y46334557D01*
X57399111Y46334555D01*
X57380004Y46305959D01*
X57380003Y46305957D01*
X57359265Y46201702D01*
X57363056Y46182645D01*
X57364501Y46167973D01*
X57364501Y45784377D01*
X57346908Y45736039D01*
X57302359Y45710319D01*
X57251701Y45719252D01*
X57231171Y45736670D01*
X57197587Y45777592D01*
X57044885Y45902911D01*
X57044881Y45902914D01*
X57044879Y45902915D01*
X57044878Y45902916D01*
X56911018Y45974465D01*
X56870647Y45996044D01*
X56870643Y45996045D01*
X56681600Y46053390D01*
X56485000Y46072753D01*
X56288400Y46053390D01*
X56288398Y46053390D01*
X56099356Y45996045D01*
X56099352Y45996044D01*
X55925118Y45902914D01*
X55925114Y45902911D01*
X55772410Y45777590D01*
X55647089Y45624886D01*
X55647086Y45624882D01*
X55553956Y45450648D01*
X55553955Y45450644D01*
X55496610Y45261602D01*
X55496610Y45261600D01*
X55477247Y45065000D01*
X54952753Y45065000D01*
X54933389Y45261603D01*
X54876102Y45450452D01*
X54876044Y45450644D01*
X54876043Y45450648D01*
X54855035Y45489952D01*
X54782916Y45624878D01*
X54782913Y45624882D01*
X54782910Y45624886D01*
X54657589Y45777590D01*
X54504885Y45902911D01*
X54504881Y45902914D01*
X54504879Y45902915D01*
X54504878Y45902916D01*
X54371018Y45974465D01*
X54330647Y45996044D01*
X54330643Y45996045D01*
X54141600Y46053390D01*
X53945000Y46072753D01*
X53748400Y46053390D01*
X53748398Y46053390D01*
X53559356Y45996045D01*
X53559352Y45996044D01*
X53385118Y45902914D01*
X53385114Y45902911D01*
X53232410Y45777590D01*
X53107089Y45624886D01*
X53107086Y45624882D01*
X53013956Y45450648D01*
X53013955Y45450644D01*
X52956610Y45261602D01*
X52956610Y45261600D01*
X52937247Y45065000D01*
X52412753Y45065000D01*
X52393389Y45261603D01*
X52336102Y45450452D01*
X52336044Y45450644D01*
X52336043Y45450648D01*
X52315035Y45489952D01*
X52242916Y45624878D01*
X52242913Y45624882D01*
X52242910Y45624886D01*
X52117589Y45777590D01*
X51964885Y45902911D01*
X51964881Y45902914D01*
X51964879Y45902915D01*
X51964878Y45902916D01*
X51831018Y45974465D01*
X51790647Y45996044D01*
X51790643Y45996045D01*
X51601600Y46053390D01*
X51405000Y46072753D01*
X51208400Y46053390D01*
X51208398Y46053390D01*
X51019356Y45996045D01*
X51019352Y45996044D01*
X50845118Y45902914D01*
X50845114Y45902911D01*
X50692410Y45777590D01*
X50567089Y45624886D01*
X50567086Y45624882D01*
X50473956Y45450648D01*
X50473955Y45450644D01*
X50416610Y45261602D01*
X50416610Y45261600D01*
X50397247Y45065000D01*
X49872753Y45065000D01*
X49853389Y45261603D01*
X49796102Y45450452D01*
X49796044Y45450644D01*
X49796043Y45450648D01*
X49775035Y45489952D01*
X49702916Y45624878D01*
X49702913Y45624882D01*
X49702910Y45624886D01*
X49577589Y45777590D01*
X49424885Y45902911D01*
X49424881Y45902914D01*
X49424879Y45902915D01*
X49424878Y45902916D01*
X49291018Y45974465D01*
X49250647Y45996044D01*
X49250643Y45996045D01*
X49061600Y46053390D01*
X48865000Y46072753D01*
X48668400Y46053390D01*
X48668398Y46053390D01*
X48479356Y45996045D01*
X48479352Y45996044D01*
X48305118Y45902914D01*
X48305114Y45902911D01*
X48152410Y45777590D01*
X48027089Y45624886D01*
X48027086Y45624882D01*
X47933956Y45450648D01*
X47933955Y45450644D01*
X47886063Y45292762D01*
X47855196Y45251613D01*
X47805099Y45239932D01*
X47759215Y45263185D01*
X47739013Y45310491D01*
X47738901Y45314591D01*
X47738901Y46474571D01*
X47740346Y46489243D01*
X47740718Y46491113D01*
X47744137Y46508299D01*
X47723398Y46612555D01*
X47720688Y46616611D01*
X47664342Y46700940D01*
X47664341Y46700941D01*
X47648183Y46711738D01*
X47636788Y46721090D01*
X47254545Y47103333D01*
X47232805Y47149953D01*
X47241399Y47191957D01*
X47256042Y47219350D01*
X47313389Y47408397D01*
X47332753Y47605000D01*
X47857247Y47605000D01*
X47876610Y47408401D01*
X47876610Y47408399D01*
X47933955Y47219357D01*
X47933956Y47219353D01*
X47975497Y47141635D01*
X48019493Y47059323D01*
X48027086Y47045119D01*
X48027089Y47045115D01*
X48152410Y46892411D01*
X48305114Y46767090D01*
X48305118Y46767087D01*
X48305122Y46767084D01*
X48479348Y46673959D01*
X48479352Y46673957D01*
X48479356Y46673956D01*
X48485877Y46671978D01*
X48668397Y46616611D01*
X48865000Y46597247D01*
X49061603Y46616611D01*
X49250650Y46673958D01*
X49424878Y46767084D01*
X49577589Y46892411D01*
X49702916Y47045122D01*
X49796042Y47219350D01*
X49853389Y47408397D01*
X49872753Y47605000D01*
X50397247Y47605000D01*
X50416610Y47408401D01*
X50416610Y47408399D01*
X50473955Y47219357D01*
X50473956Y47219353D01*
X50515497Y47141635D01*
X50559493Y47059323D01*
X50567086Y47045119D01*
X50567089Y47045115D01*
X50692410Y46892411D01*
X50845114Y46767090D01*
X50845118Y46767087D01*
X50845122Y46767084D01*
X51019348Y46673959D01*
X51019352Y46673957D01*
X51019356Y46673956D01*
X51025877Y46671978D01*
X51208397Y46616611D01*
X51405000Y46597247D01*
X51601603Y46616611D01*
X51790650Y46673958D01*
X51964878Y46767084D01*
X52117589Y46892411D01*
X52242916Y47045122D01*
X52336042Y47219350D01*
X52393389Y47408397D01*
X52412753Y47605000D01*
X52412753Y47605001D01*
X52937247Y47605001D01*
X52956610Y47408401D01*
X52956610Y47408399D01*
X53013955Y47219357D01*
X53013956Y47219353D01*
X53055497Y47141635D01*
X53099493Y47059323D01*
X53107086Y47045119D01*
X53107089Y47045115D01*
X53232410Y46892411D01*
X53385114Y46767090D01*
X53385118Y46767087D01*
X53385122Y46767084D01*
X53559348Y46673959D01*
X53559352Y46673957D01*
X53559356Y46673956D01*
X53565877Y46671978D01*
X53748397Y46616611D01*
X53945000Y46597247D01*
X54141603Y46616611D01*
X54330650Y46673958D01*
X54504878Y46767084D01*
X54657589Y46892411D01*
X54782916Y47045122D01*
X54876042Y47219350D01*
X54933389Y47408397D01*
X54952753Y47605000D01*
X54952753Y47605001D01*
X55477247Y47605001D01*
X55496610Y47408401D01*
X55496610Y47408399D01*
X55553955Y47219357D01*
X55553956Y47219353D01*
X55595497Y47141635D01*
X55639493Y47059323D01*
X55647086Y47045119D01*
X55647089Y47045115D01*
X55772410Y46892411D01*
X55925114Y46767090D01*
X55925118Y46767087D01*
X55925122Y46767084D01*
X56099348Y46673959D01*
X56099352Y46673957D01*
X56099356Y46673956D01*
X56105877Y46671978D01*
X56288397Y46616611D01*
X56485000Y46597247D01*
X56681603Y46616611D01*
X56870650Y46673958D01*
X57044878Y46767084D01*
X57197589Y46892411D01*
X57322916Y47045122D01*
X57416042Y47219350D01*
X57473389Y47408397D01*
X57492753Y47605000D01*
X57473389Y47801603D01*
X57416042Y47990650D01*
X57322916Y48164878D01*
X57322913Y48164882D01*
X57322910Y48164886D01*
X57197589Y48317590D01*
X57044885Y48442911D01*
X57044881Y48442914D01*
X57044879Y48442915D01*
X57044878Y48442916D01*
X56957763Y48489479D01*
X56870647Y48536044D01*
X56870643Y48536045D01*
X56681600Y48593390D01*
X56485000Y48612753D01*
X56288400Y48593390D01*
X56288398Y48593390D01*
X56099356Y48536045D01*
X56099352Y48536044D01*
X55925118Y48442914D01*
X55925114Y48442911D01*
X55772410Y48317590D01*
X55647089Y48164886D01*
X55647086Y48164882D01*
X55553956Y47990648D01*
X55553955Y47990644D01*
X55496610Y47801602D01*
X55496610Y47801600D01*
X55477247Y47605001D01*
X54952753Y47605001D01*
X54933389Y47801603D01*
X54876042Y47990650D01*
X54782916Y48164878D01*
X54782913Y48164882D01*
X54782910Y48164886D01*
X54657589Y48317590D01*
X54504885Y48442911D01*
X54504881Y48442914D01*
X54504879Y48442915D01*
X54504878Y48442916D01*
X54417764Y48489479D01*
X54330647Y48536044D01*
X54330643Y48536045D01*
X54141600Y48593390D01*
X53945000Y48612753D01*
X53748400Y48593390D01*
X53748398Y48593390D01*
X53559356Y48536045D01*
X53559352Y48536044D01*
X53385118Y48442914D01*
X53385114Y48442911D01*
X53232410Y48317590D01*
X53107089Y48164886D01*
X53107086Y48164882D01*
X53013956Y47990648D01*
X53013955Y47990644D01*
X52956610Y47801602D01*
X52956610Y47801600D01*
X52937247Y47605001D01*
X52412753Y47605001D01*
X52393389Y47801603D01*
X52336042Y47990650D01*
X52242916Y48164878D01*
X52242913Y48164882D01*
X52242910Y48164886D01*
X52117589Y48317590D01*
X51964885Y48442911D01*
X51964881Y48442914D01*
X51964879Y48442915D01*
X51964878Y48442916D01*
X51877764Y48489479D01*
X51790647Y48536044D01*
X51790643Y48536045D01*
X51601600Y48593390D01*
X51405000Y48612753D01*
X51208400Y48593390D01*
X51208398Y48593390D01*
X51019356Y48536045D01*
X51019352Y48536044D01*
X50845118Y48442914D01*
X50845114Y48442911D01*
X50692410Y48317590D01*
X50567089Y48164886D01*
X50567086Y48164882D01*
X50473956Y47990648D01*
X50473955Y47990644D01*
X50416610Y47801602D01*
X50416610Y47801600D01*
X50397247Y47605000D01*
X49872753Y47605000D01*
X49853389Y47801603D01*
X49796042Y47990650D01*
X49702916Y48164878D01*
X49702913Y48164882D01*
X49702910Y48164886D01*
X49577589Y48317590D01*
X49424885Y48442911D01*
X49424881Y48442914D01*
X49424879Y48442915D01*
X49424878Y48442916D01*
X49337764Y48489479D01*
X49250647Y48536044D01*
X49250643Y48536045D01*
X49061600Y48593390D01*
X48865000Y48612753D01*
X48668400Y48593390D01*
X48668398Y48593390D01*
X48479356Y48536045D01*
X48479352Y48536044D01*
X48305118Y48442914D01*
X48305114Y48442911D01*
X48152410Y48317590D01*
X48027089Y48164886D01*
X48027086Y48164882D01*
X47933956Y47990648D01*
X47933955Y47990644D01*
X47876610Y47801602D01*
X47876610Y47801600D01*
X47857247Y47605000D01*
X47332753Y47605000D01*
X47313389Y47801603D01*
X47256042Y47990650D01*
X47162916Y48164878D01*
X47162913Y48164882D01*
X47162910Y48164886D01*
X47037589Y48317590D01*
X46884885Y48442911D01*
X46884881Y48442914D01*
X46884879Y48442915D01*
X46884878Y48442916D01*
X46797764Y48489479D01*
X46710647Y48536044D01*
X46710643Y48536045D01*
X46521600Y48593390D01*
X46325000Y48612753D01*
X46128400Y48593390D01*
X46128398Y48593390D01*
X45939356Y48536045D01*
X45939352Y48536044D01*
X45765118Y48442914D01*
X45765114Y48442911D01*
X45612410Y48317590D01*
X45487089Y48164886D01*
X45487086Y48164882D01*
X45393956Y47990648D01*
X45393955Y47990644D01*
X45336610Y47801602D01*
X45336610Y47801600D01*
X45317247Y47605001D01*
X45336610Y47408401D01*
X45336610Y47408399D01*
X45393955Y47219357D01*
X45393956Y47219353D01*
X45435497Y47141635D01*
X45479493Y47059323D01*
X45487086Y47045119D01*
X45487089Y47045115D01*
X45612410Y46892411D01*
X45765114Y46767090D01*
X45765118Y46767087D01*
X45765122Y46767084D01*
X45939348Y46673959D01*
X45939352Y46673957D01*
X45939356Y46673956D01*
X45945877Y46671978D01*
X46128397Y46616611D01*
X46325000Y46597247D01*
X46521603Y46616611D01*
X46710650Y46673958D01*
X46803214Y46723435D01*
X46854133Y46730705D01*
X46891831Y46710291D01*
X47182476Y46419646D01*
X47204215Y46373028D01*
X47204501Y46366474D01*
X47204501Y45784377D01*
X47186908Y45736039D01*
X47142359Y45710319D01*
X47091701Y45719252D01*
X47071171Y45736670D01*
X47037587Y45777592D01*
X46884885Y45902911D01*
X46884881Y45902914D01*
X46884879Y45902915D01*
X46884878Y45902916D01*
X46751018Y45974465D01*
X46710647Y45996044D01*
X46710643Y45996045D01*
X46521600Y46053390D01*
X46325000Y46072753D01*
X46128400Y46053390D01*
X46128398Y46053390D01*
X45939356Y45996045D01*
X45939352Y45996044D01*
X45765118Y45902914D01*
X45765114Y45902911D01*
X45612410Y45777590D01*
X45487089Y45624886D01*
X45487086Y45624882D01*
X45393956Y45450648D01*
X45393955Y45450644D01*
X45336610Y45261602D01*
X45336610Y45261600D01*
X45317247Y45065000D01*
X44792753Y45065000D01*
X44773389Y45261603D01*
X44716102Y45450452D01*
X44716044Y45450644D01*
X44716043Y45450648D01*
X44695035Y45489952D01*
X44622916Y45624878D01*
X44622913Y45624882D01*
X44622910Y45624886D01*
X44497589Y45777590D01*
X44344885Y45902911D01*
X44344881Y45902914D01*
X44344879Y45902915D01*
X44344878Y45902916D01*
X44211018Y45974465D01*
X44170647Y45996044D01*
X44170643Y45996045D01*
X43981600Y46053390D01*
X43785000Y46072753D01*
X43588400Y46053390D01*
X43588398Y46053390D01*
X43399356Y45996045D01*
X43399352Y45996044D01*
X43225118Y45902914D01*
X43225114Y45902911D01*
X43072410Y45777590D01*
X42947089Y45624886D01*
X42947086Y45624882D01*
X42853956Y45450648D01*
X42853955Y45450644D01*
X42796610Y45261602D01*
X42796610Y45261600D01*
X42777247Y45065000D01*
X42252753Y45065000D01*
X42233389Y45261603D01*
X42176102Y45450452D01*
X42176044Y45450644D01*
X42176043Y45450648D01*
X42155035Y45489952D01*
X42082916Y45624878D01*
X42082913Y45624882D01*
X42082910Y45624886D01*
X41957589Y45777590D01*
X41804885Y45902911D01*
X41804881Y45902914D01*
X41804879Y45902915D01*
X41804878Y45902916D01*
X41671018Y45974465D01*
X41630647Y45996044D01*
X41630643Y45996045D01*
X41441600Y46053390D01*
X41245000Y46072753D01*
X41048400Y46053390D01*
X41048398Y46053390D01*
X40859356Y45996045D01*
X40859352Y45996044D01*
X40685118Y45902914D01*
X40685114Y45902911D01*
X40532410Y45777590D01*
X40407089Y45624886D01*
X40407086Y45624882D01*
X40313956Y45450648D01*
X40313955Y45450644D01*
X40256610Y45261602D01*
X40256610Y45261600D01*
X40237247Y45065000D01*
X39712753Y45065000D01*
X39693389Y45261603D01*
X39636102Y45450452D01*
X39636044Y45450644D01*
X39636043Y45450648D01*
X39615035Y45489952D01*
X39542916Y45624878D01*
X39542913Y45624882D01*
X39542910Y45624886D01*
X39417589Y45777590D01*
X39264885Y45902911D01*
X39264881Y45902914D01*
X39264879Y45902915D01*
X39264878Y45902916D01*
X39131018Y45974465D01*
X39090647Y45996044D01*
X39090643Y45996045D01*
X38901600Y46053390D01*
X38705000Y46072753D01*
X38508400Y46053390D01*
X38508398Y46053390D01*
X38319356Y45996045D01*
X38319352Y45996044D01*
X38145118Y45902914D01*
X38145114Y45902911D01*
X37992410Y45777590D01*
X37867089Y45624886D01*
X37867086Y45624882D01*
X37773956Y45450648D01*
X37773955Y45450644D01*
X37716610Y45261602D01*
X37716610Y45261600D01*
X37697247Y45065000D01*
X37172753Y45065000D01*
X37153389Y45261603D01*
X37096102Y45450452D01*
X37096044Y45450644D01*
X37096043Y45450648D01*
X37075035Y45489952D01*
X37002916Y45624878D01*
X37002913Y45624882D01*
X37002910Y45624886D01*
X36877589Y45777590D01*
X36724885Y45902911D01*
X36724881Y45902914D01*
X36724879Y45902915D01*
X36724878Y45902916D01*
X36591018Y45974465D01*
X36550647Y45996044D01*
X36550643Y45996045D01*
X36361600Y46053390D01*
X36165000Y46072753D01*
X35968400Y46053390D01*
X35968398Y46053390D01*
X35779356Y45996045D01*
X35779352Y45996044D01*
X35605118Y45902914D01*
X35605114Y45902911D01*
X35452410Y45777590D01*
X35327089Y45624886D01*
X35327086Y45624882D01*
X35233956Y45450648D01*
X35233955Y45450644D01*
X35176610Y45261602D01*
X35176610Y45261600D01*
X35157247Y45065000D01*
X34632753Y45065000D01*
X34613389Y45261603D01*
X34556102Y45450452D01*
X34556044Y45450644D01*
X34556043Y45450648D01*
X34535035Y45489952D01*
X34462916Y45624878D01*
X34462913Y45624882D01*
X34462910Y45624886D01*
X34337589Y45777590D01*
X34184885Y45902911D01*
X34184881Y45902914D01*
X34184879Y45902915D01*
X34184878Y45902916D01*
X34051018Y45974465D01*
X34010647Y45996044D01*
X34010643Y45996045D01*
X33821600Y46053390D01*
X33625000Y46072753D01*
X33428400Y46053390D01*
X33428398Y46053390D01*
X33239356Y45996045D01*
X33239352Y45996044D01*
X33065118Y45902914D01*
X33065114Y45902911D01*
X32912410Y45777590D01*
X32787089Y45624886D01*
X32787086Y45624882D01*
X32693956Y45450648D01*
X32693955Y45450644D01*
X32636610Y45261602D01*
X32636610Y45261600D01*
X32617247Y45065000D01*
X32092753Y45065000D01*
X32073389Y45261603D01*
X32016102Y45450452D01*
X32016044Y45450644D01*
X32016043Y45450648D01*
X31995035Y45489952D01*
X31922916Y45624878D01*
X31922913Y45624882D01*
X31922910Y45624886D01*
X31797589Y45777590D01*
X31644885Y45902911D01*
X31644881Y45902914D01*
X31644879Y45902915D01*
X31644878Y45902916D01*
X31511018Y45974465D01*
X31470647Y45996044D01*
X31470643Y45996045D01*
X31281600Y46053390D01*
X31085000Y46072753D01*
X30888400Y46053390D01*
X30888398Y46053390D01*
X30699356Y45996045D01*
X30699352Y45996044D01*
X30525118Y45902914D01*
X30525114Y45902911D01*
X30372410Y45777590D01*
X30247089Y45624886D01*
X30247086Y45624882D01*
X30153956Y45450648D01*
X30153955Y45450644D01*
X30096610Y45261602D01*
X30096610Y45261600D01*
X30077247Y45065000D01*
X29552753Y45065000D01*
X29533389Y45261603D01*
X29476102Y45450452D01*
X29476044Y45450644D01*
X29476043Y45450648D01*
X29455035Y45489952D01*
X29382916Y45624878D01*
X29382913Y45624882D01*
X29382910Y45624886D01*
X29257589Y45777590D01*
X29104885Y45902911D01*
X29104881Y45902914D01*
X29104879Y45902915D01*
X29104878Y45902916D01*
X28971018Y45974465D01*
X28930647Y45996044D01*
X28930643Y45996045D01*
X28741600Y46053390D01*
X28545000Y46072753D01*
X28348400Y46053390D01*
X28348398Y46053390D01*
X28159356Y45996045D01*
X28159352Y45996044D01*
X27985118Y45902914D01*
X27985114Y45902911D01*
X27832410Y45777590D01*
X27707089Y45624886D01*
X27707086Y45624882D01*
X27613956Y45450648D01*
X27613955Y45450644D01*
X27556610Y45261602D01*
X27556610Y45261600D01*
X27537247Y45065000D01*
X27012753Y45065000D01*
X26993389Y45261603D01*
X26936102Y45450452D01*
X26936044Y45450644D01*
X26936043Y45450648D01*
X26915035Y45489952D01*
X26842916Y45624878D01*
X26842913Y45624882D01*
X26842910Y45624886D01*
X26717589Y45777590D01*
X26564885Y45902911D01*
X26564881Y45902914D01*
X26564879Y45902915D01*
X26564878Y45902916D01*
X26431018Y45974465D01*
X26390647Y45996044D01*
X26390643Y45996045D01*
X26201600Y46053390D01*
X26005000Y46072753D01*
X25808400Y46053390D01*
X25808398Y46053390D01*
X25619356Y45996045D01*
X25619352Y45996044D01*
X25445118Y45902914D01*
X25445114Y45902911D01*
X25292410Y45777590D01*
X25167089Y45624886D01*
X25167086Y45624882D01*
X25073956Y45450648D01*
X25073955Y45450644D01*
X25016610Y45261602D01*
X25016610Y45261600D01*
X24997247Y45065000D01*
X24472753Y45065000D01*
X24453389Y45261603D01*
X24396102Y45450452D01*
X24396044Y45450644D01*
X24396043Y45450648D01*
X24375035Y45489952D01*
X24302916Y45624878D01*
X24302913Y45624882D01*
X24302910Y45624886D01*
X24177589Y45777590D01*
X24024885Y45902911D01*
X24024881Y45902914D01*
X24024879Y45902915D01*
X24024878Y45902916D01*
X23891018Y45974465D01*
X23850647Y45996044D01*
X23850643Y45996045D01*
X23661600Y46053390D01*
X23465000Y46072753D01*
X23268400Y46053390D01*
X23268398Y46053390D01*
X23079356Y45996045D01*
X23079352Y45996044D01*
X22905118Y45902914D01*
X22905114Y45902911D01*
X22752410Y45777590D01*
X22627089Y45624886D01*
X22627086Y45624882D01*
X22533956Y45450648D01*
X22533955Y45450644D01*
X22476610Y45261602D01*
X22476610Y45261600D01*
X22457247Y45065000D01*
X21932753Y45065000D01*
X21913389Y45261603D01*
X21856102Y45450452D01*
X21856044Y45450644D01*
X21856043Y45450648D01*
X21835035Y45489952D01*
X21762916Y45624878D01*
X21762913Y45624882D01*
X21762910Y45624886D01*
X21637589Y45777590D01*
X21484885Y45902911D01*
X21484881Y45902914D01*
X21484879Y45902915D01*
X21484878Y45902916D01*
X21351018Y45974465D01*
X21310647Y45996044D01*
X21310643Y45996045D01*
X21121600Y46053390D01*
X20925000Y46072753D01*
X20728400Y46053390D01*
X20728398Y46053390D01*
X20539356Y45996045D01*
X20539352Y45996044D01*
X20365118Y45902914D01*
X20365114Y45902911D01*
X20212410Y45777590D01*
X20087089Y45624886D01*
X20087086Y45624882D01*
X19993956Y45450648D01*
X19993955Y45450644D01*
X19936610Y45261602D01*
X19936610Y45261600D01*
X19917247Y45065000D01*
X19392753Y45065000D01*
X19373389Y45261603D01*
X19316102Y45450452D01*
X19316044Y45450644D01*
X19316043Y45450648D01*
X19295035Y45489952D01*
X19222916Y45624878D01*
X19222913Y45624882D01*
X19222910Y45624886D01*
X19097589Y45777590D01*
X18944885Y45902911D01*
X18944881Y45902914D01*
X18944879Y45902915D01*
X18944878Y45902916D01*
X18811018Y45974465D01*
X18770647Y45996044D01*
X18770643Y45996045D01*
X18581600Y46053390D01*
X18385000Y46072753D01*
X18188400Y46053390D01*
X18188398Y46053390D01*
X17999356Y45996045D01*
X17999352Y45996044D01*
X17825118Y45902914D01*
X17825114Y45902911D01*
X17672410Y45777590D01*
X17547089Y45624886D01*
X17547086Y45624882D01*
X17453956Y45450648D01*
X17453955Y45450644D01*
X17396610Y45261602D01*
X17396610Y45261600D01*
X17377247Y45065000D01*
X16345000Y45065000D01*
X16345000Y45136889D01*
X16321360Y45217400D01*
X16837240Y45217400D01*
X16837239Y45217401D01*
X16832896Y45261504D01*
X16775580Y45450452D01*
X16775575Y45450464D01*
X16682500Y45624594D01*
X16682496Y45624600D01*
X16557233Y45777234D01*
X16404599Y45902497D01*
X16404593Y45902501D01*
X16230463Y45995576D01*
X16230451Y45995581D01*
X16041502Y46052897D01*
X16041503Y46052897D01*
X15997400Y46057240D01*
X15997400Y45545075D01*
X15987315Y45549680D01*
X15880763Y45565000D01*
X15809237Y45565000D01*
X15702685Y45549680D01*
X15692600Y45545075D01*
X15692600Y46057240D01*
X15692599Y46057240D01*
X15648496Y46052897D01*
X15459548Y45995581D01*
X15459536Y45995576D01*
X15285406Y45902501D01*
X15285400Y45902497D01*
X15132766Y45777234D01*
X15007503Y45624600D01*
X15007499Y45624594D01*
X14914424Y45450464D01*
X14914419Y45450452D01*
X14857103Y45261504D01*
X14852760Y45217401D01*
X14852760Y45217400D01*
X15368640Y45217400D01*
X15345000Y45136889D01*
X15345000Y44993111D01*
X15368640Y44912600D01*
X14852760Y44912600D01*
X1930499Y44912600D01*
X1930499Y48827235D01*
X3860788Y48827235D01*
X3890414Y48557978D01*
X3958926Y48295916D01*
X3958928Y48295911D01*
X4064869Y48046612D01*
X4064871Y48046608D01*
X4205983Y47815388D01*
X4205984Y47815387D01*
X4379251Y47607184D01*
X4379255Y47607180D01*
X4580998Y47426418D01*
X4806910Y47276956D01*
X5052176Y47161980D01*
X5311569Y47083940D01*
X5579561Y47044500D01*
X5579565Y47044500D01*
X5782639Y47044500D01*
X5782641Y47044501D01*
X5856251Y47049889D01*
X5985147Y47059322D01*
X5985149Y47059323D01*
X5985156Y47059323D01*
X6249553Y47118220D01*
X6502558Y47214986D01*
X6738777Y47347559D01*
X6953177Y47513112D01*
X7041768Y47605000D01*
X14837247Y47605000D01*
X14856610Y47408401D01*
X14856610Y47408399D01*
X14913955Y47219357D01*
X14913956Y47219353D01*
X14955497Y47141635D01*
X14999493Y47059323D01*
X15007086Y47045119D01*
X15007089Y47045115D01*
X15132410Y46892411D01*
X15285114Y46767090D01*
X15285118Y46767087D01*
X15285122Y46767084D01*
X15459348Y46673959D01*
X15459352Y46673957D01*
X15459356Y46673956D01*
X15465877Y46671978D01*
X15648397Y46616611D01*
X15845000Y46597247D01*
X16041603Y46616611D01*
X16230650Y46673958D01*
X16404878Y46767084D01*
X16557589Y46892411D01*
X16682916Y47045122D01*
X16776042Y47219350D01*
X16833389Y47408397D01*
X16852753Y47605000D01*
X16852753Y47605001D01*
X17377247Y47605001D01*
X17396610Y47408401D01*
X17396610Y47408399D01*
X17453955Y47219357D01*
X17453956Y47219353D01*
X17495497Y47141635D01*
X17539493Y47059323D01*
X17547086Y47045119D01*
X17547089Y47045115D01*
X17672410Y46892411D01*
X17825114Y46767090D01*
X17825118Y46767087D01*
X17825122Y46767084D01*
X17999348Y46673959D01*
X17999352Y46673957D01*
X17999356Y46673956D01*
X18005877Y46671978D01*
X18188397Y46616611D01*
X18385000Y46597247D01*
X18581603Y46616611D01*
X18770650Y46673958D01*
X18944878Y46767084D01*
X19097589Y46892411D01*
X19222916Y47045122D01*
X19316042Y47219350D01*
X19373389Y47408397D01*
X19392753Y47605000D01*
X19392753Y47605001D01*
X19917247Y47605001D01*
X19936610Y47408401D01*
X19936610Y47408399D01*
X19993955Y47219357D01*
X19993956Y47219353D01*
X20035497Y47141635D01*
X20079493Y47059323D01*
X20087086Y47045119D01*
X20087089Y47045115D01*
X20212410Y46892411D01*
X20365114Y46767090D01*
X20365118Y46767087D01*
X20365122Y46767084D01*
X20539348Y46673959D01*
X20539352Y46673957D01*
X20539356Y46673956D01*
X20545877Y46671978D01*
X20728397Y46616611D01*
X20925000Y46597247D01*
X21121603Y46616611D01*
X21310650Y46673958D01*
X21484878Y46767084D01*
X21637589Y46892411D01*
X21762916Y47045122D01*
X21856042Y47219350D01*
X21913389Y47408397D01*
X21932753Y47605000D01*
X22457247Y47605000D01*
X22476610Y47408401D01*
X22476610Y47408399D01*
X22533955Y47219357D01*
X22533956Y47219353D01*
X22575497Y47141635D01*
X22619493Y47059323D01*
X22627086Y47045119D01*
X22627089Y47045115D01*
X22752410Y46892411D01*
X22905114Y46767090D01*
X22905118Y46767087D01*
X22905122Y46767084D01*
X23079348Y46673959D01*
X23079352Y46673957D01*
X23079356Y46673956D01*
X23085877Y46671978D01*
X23268397Y46616611D01*
X23465000Y46597247D01*
X23661603Y46616611D01*
X23850650Y46673958D01*
X24024878Y46767084D01*
X24177589Y46892411D01*
X24302916Y47045122D01*
X24396042Y47219350D01*
X24453389Y47408397D01*
X24472753Y47605000D01*
X24997247Y47605000D01*
X25016610Y47408401D01*
X25016610Y47408399D01*
X25073955Y47219357D01*
X25073956Y47219353D01*
X25115497Y47141635D01*
X25159493Y47059323D01*
X25167086Y47045119D01*
X25167089Y47045115D01*
X25292410Y46892411D01*
X25445114Y46767090D01*
X25445118Y46767087D01*
X25445122Y46767084D01*
X25619348Y46673959D01*
X25619352Y46673957D01*
X25619356Y46673956D01*
X25625877Y46671978D01*
X25808397Y46616611D01*
X26005000Y46597247D01*
X26201603Y46616611D01*
X26390650Y46673958D01*
X26564878Y46767084D01*
X26717589Y46892411D01*
X26842916Y47045122D01*
X26936042Y47219350D01*
X26993389Y47408397D01*
X27012753Y47605000D01*
X27012753Y47605001D01*
X27537247Y47605001D01*
X27556610Y47408401D01*
X27556610Y47408399D01*
X27613955Y47219357D01*
X27613956Y47219353D01*
X27655497Y47141635D01*
X27699493Y47059323D01*
X27707086Y47045119D01*
X27707089Y47045115D01*
X27832410Y46892411D01*
X27985114Y46767090D01*
X27985118Y46767087D01*
X27985122Y46767084D01*
X28159348Y46673959D01*
X28159352Y46673957D01*
X28159356Y46673956D01*
X28165877Y46671978D01*
X28348397Y46616611D01*
X28545000Y46597247D01*
X28741603Y46616611D01*
X28930650Y46673958D01*
X29104878Y46767084D01*
X29257589Y46892411D01*
X29382916Y47045122D01*
X29476042Y47219350D01*
X29533389Y47408397D01*
X29552753Y47605000D01*
X30077247Y47605000D01*
X30096610Y47408401D01*
X30096610Y47408399D01*
X30153955Y47219357D01*
X30153956Y47219353D01*
X30195497Y47141635D01*
X30239493Y47059323D01*
X30247086Y47045119D01*
X30247089Y47045115D01*
X30372410Y46892411D01*
X30525114Y46767090D01*
X30525118Y46767087D01*
X30525122Y46767084D01*
X30699348Y46673959D01*
X30699352Y46673957D01*
X30699356Y46673956D01*
X30705877Y46671978D01*
X30888397Y46616611D01*
X31085000Y46597247D01*
X31281603Y46616611D01*
X31470650Y46673958D01*
X31644878Y46767084D01*
X31797589Y46892411D01*
X31922916Y47045122D01*
X32016042Y47219350D01*
X32073389Y47408397D01*
X32092753Y47605000D01*
X32617247Y47605000D01*
X32636610Y47408401D01*
X32636610Y47408399D01*
X32693955Y47219357D01*
X32693956Y47219353D01*
X32735497Y47141635D01*
X32779493Y47059323D01*
X32787086Y47045119D01*
X32787089Y47045115D01*
X32912410Y46892411D01*
X33065114Y46767090D01*
X33065118Y46767087D01*
X33065122Y46767084D01*
X33239348Y46673959D01*
X33239352Y46673957D01*
X33239356Y46673956D01*
X33245877Y46671978D01*
X33428397Y46616611D01*
X33625000Y46597247D01*
X33821603Y46616611D01*
X34010650Y46673958D01*
X34184878Y46767084D01*
X34337589Y46892411D01*
X34462916Y47045122D01*
X34556042Y47219350D01*
X34613389Y47408397D01*
X34632753Y47605000D01*
X34632753Y47605001D01*
X35157247Y47605001D01*
X35176610Y47408401D01*
X35176610Y47408399D01*
X35233955Y47219357D01*
X35233956Y47219353D01*
X35275497Y47141635D01*
X35319493Y47059323D01*
X35327086Y47045119D01*
X35327089Y47045115D01*
X35452410Y46892411D01*
X35605114Y46767090D01*
X35605118Y46767087D01*
X35605122Y46767084D01*
X35779348Y46673959D01*
X35779352Y46673957D01*
X35779356Y46673956D01*
X35785877Y46671978D01*
X35968397Y46616611D01*
X36165000Y46597247D01*
X36361603Y46616611D01*
X36550650Y46673958D01*
X36724878Y46767084D01*
X36877589Y46892411D01*
X37002916Y47045122D01*
X37096042Y47219350D01*
X37153389Y47408397D01*
X37172753Y47605000D01*
X37172753Y47605001D01*
X37697247Y47605001D01*
X37716610Y47408401D01*
X37716610Y47408399D01*
X37773955Y47219357D01*
X37773956Y47219353D01*
X37815497Y47141635D01*
X37859493Y47059323D01*
X37867086Y47045119D01*
X37867089Y47045115D01*
X37992410Y46892411D01*
X38145114Y46767090D01*
X38145118Y46767087D01*
X38145122Y46767084D01*
X38319348Y46673959D01*
X38319352Y46673957D01*
X38319356Y46673956D01*
X38325877Y46671978D01*
X38508397Y46616611D01*
X38705000Y46597247D01*
X38901603Y46616611D01*
X39090650Y46673958D01*
X39264878Y46767084D01*
X39417589Y46892411D01*
X39542916Y47045122D01*
X39636042Y47219350D01*
X39693389Y47408397D01*
X39712753Y47605000D01*
X40237247Y47605000D01*
X40256610Y47408401D01*
X40256610Y47408399D01*
X40313955Y47219357D01*
X40313956Y47219353D01*
X40355497Y47141635D01*
X40399493Y47059323D01*
X40407086Y47045119D01*
X40407089Y47045115D01*
X40532410Y46892411D01*
X40685114Y46767090D01*
X40685118Y46767087D01*
X40685122Y46767084D01*
X40859348Y46673959D01*
X40859352Y46673957D01*
X40859356Y46673956D01*
X40865877Y46671978D01*
X41048397Y46616611D01*
X41245000Y46597247D01*
X41441603Y46616611D01*
X41630650Y46673958D01*
X41804878Y46767084D01*
X41957589Y46892411D01*
X42082916Y47045122D01*
X42176042Y47219350D01*
X42233389Y47408397D01*
X42252753Y47605000D01*
X42777247Y47605000D01*
X42796610Y47408401D01*
X42796610Y47408399D01*
X42853955Y47219357D01*
X42853956Y47219353D01*
X42895497Y47141635D01*
X42939493Y47059323D01*
X42947086Y47045119D01*
X42947089Y47045115D01*
X43072410Y46892411D01*
X43225114Y46767090D01*
X43225118Y46767087D01*
X43225122Y46767084D01*
X43399348Y46673959D01*
X43399352Y46673957D01*
X43399356Y46673956D01*
X43405877Y46671978D01*
X43588397Y46616611D01*
X43785000Y46597247D01*
X43981603Y46616611D01*
X44170650Y46673958D01*
X44344878Y46767084D01*
X44497589Y46892411D01*
X44622916Y47045122D01*
X44716042Y47219350D01*
X44773389Y47408397D01*
X44792753Y47605000D01*
X44773389Y47801603D01*
X44716042Y47990650D01*
X44622916Y48164878D01*
X44622913Y48164882D01*
X44622910Y48164886D01*
X44497589Y48317590D01*
X44344885Y48442911D01*
X44344881Y48442914D01*
X44344879Y48442915D01*
X44344878Y48442916D01*
X44257764Y48489480D01*
X44170647Y48536044D01*
X44170643Y48536045D01*
X43981600Y48593390D01*
X43785000Y48612753D01*
X43588400Y48593390D01*
X43588398Y48593390D01*
X43399356Y48536045D01*
X43399352Y48536044D01*
X43225118Y48442914D01*
X43225114Y48442911D01*
X43072410Y48317590D01*
X42947089Y48164886D01*
X42947086Y48164882D01*
X42853956Y47990648D01*
X42853955Y47990644D01*
X42796610Y47801602D01*
X42796610Y47801600D01*
X42777247Y47605000D01*
X42252753Y47605000D01*
X42233389Y47801603D01*
X42176042Y47990650D01*
X42082916Y48164878D01*
X42082913Y48164882D01*
X42082910Y48164886D01*
X41957589Y48317590D01*
X41804885Y48442911D01*
X41804881Y48442914D01*
X41804879Y48442915D01*
X41804878Y48442916D01*
X41717764Y48489479D01*
X41630647Y48536044D01*
X41630643Y48536045D01*
X41441600Y48593390D01*
X41245000Y48612753D01*
X41048400Y48593390D01*
X41048398Y48593390D01*
X40859356Y48536045D01*
X40859352Y48536044D01*
X40685118Y48442914D01*
X40685114Y48442911D01*
X40532410Y48317590D01*
X40407089Y48164886D01*
X40407086Y48164882D01*
X40313956Y47990648D01*
X40313955Y47990644D01*
X40256610Y47801602D01*
X40256610Y47801600D01*
X40237247Y47605000D01*
X39712753Y47605000D01*
X39693389Y47801603D01*
X39636042Y47990650D01*
X39542916Y48164878D01*
X39542913Y48164882D01*
X39542910Y48164886D01*
X39417589Y48317590D01*
X39264885Y48442911D01*
X39264881Y48442914D01*
X39264879Y48442915D01*
X39264878Y48442916D01*
X39177764Y48489479D01*
X39090647Y48536044D01*
X39090643Y48536045D01*
X38901600Y48593390D01*
X38705000Y48612753D01*
X38508400Y48593390D01*
X38508398Y48593390D01*
X38319356Y48536045D01*
X38319352Y48536044D01*
X38145118Y48442914D01*
X38145114Y48442911D01*
X37992410Y48317590D01*
X37867089Y48164886D01*
X37867086Y48164882D01*
X37773956Y47990648D01*
X37773955Y47990644D01*
X37716610Y47801602D01*
X37716610Y47801600D01*
X37697247Y47605001D01*
X37172753Y47605001D01*
X37153389Y47801603D01*
X37096042Y47990650D01*
X37002916Y48164878D01*
X37002913Y48164882D01*
X37002910Y48164886D01*
X36877589Y48317590D01*
X36724885Y48442911D01*
X36724881Y48442914D01*
X36724879Y48442915D01*
X36724878Y48442916D01*
X36637764Y48489479D01*
X36550647Y48536044D01*
X36550643Y48536045D01*
X36361600Y48593390D01*
X36165000Y48612753D01*
X35968400Y48593390D01*
X35968398Y48593390D01*
X35779356Y48536045D01*
X35779352Y48536044D01*
X35605118Y48442914D01*
X35605114Y48442911D01*
X35452410Y48317590D01*
X35327089Y48164886D01*
X35327086Y48164882D01*
X35233956Y47990648D01*
X35233955Y47990644D01*
X35176610Y47801602D01*
X35176610Y47801600D01*
X35157247Y47605001D01*
X34632753Y47605001D01*
X34613389Y47801603D01*
X34556042Y47990650D01*
X34462916Y48164878D01*
X34462913Y48164882D01*
X34462910Y48164886D01*
X34337589Y48317590D01*
X34184885Y48442911D01*
X34184881Y48442914D01*
X34184879Y48442915D01*
X34184878Y48442916D01*
X34097764Y48489479D01*
X34010647Y48536044D01*
X34010643Y48536045D01*
X33821600Y48593390D01*
X33625000Y48612753D01*
X33428400Y48593390D01*
X33428398Y48593390D01*
X33239356Y48536045D01*
X33239352Y48536044D01*
X33065118Y48442914D01*
X33065114Y48442911D01*
X32912410Y48317590D01*
X32787089Y48164886D01*
X32787086Y48164882D01*
X32693956Y47990648D01*
X32693955Y47990644D01*
X32636610Y47801602D01*
X32636610Y47801600D01*
X32617247Y47605000D01*
X32092753Y47605000D01*
X32073389Y47801603D01*
X32016042Y47990650D01*
X31922916Y48164878D01*
X31922913Y48164882D01*
X31922910Y48164886D01*
X31797589Y48317590D01*
X31644885Y48442911D01*
X31644881Y48442914D01*
X31644879Y48442915D01*
X31644878Y48442916D01*
X31557764Y48489480D01*
X31470647Y48536044D01*
X31470643Y48536045D01*
X31281600Y48593390D01*
X31085000Y48612753D01*
X30888400Y48593390D01*
X30888398Y48593390D01*
X30699356Y48536045D01*
X30699352Y48536044D01*
X30525118Y48442914D01*
X30525114Y48442911D01*
X30372410Y48317590D01*
X30247089Y48164886D01*
X30247086Y48164882D01*
X30153956Y47990648D01*
X30153955Y47990644D01*
X30096610Y47801602D01*
X30096610Y47801600D01*
X30077247Y47605000D01*
X29552753Y47605000D01*
X29533389Y47801603D01*
X29476042Y47990650D01*
X29382916Y48164878D01*
X29382913Y48164882D01*
X29382910Y48164886D01*
X29257589Y48317590D01*
X29104885Y48442911D01*
X29104881Y48442914D01*
X29104879Y48442915D01*
X29104878Y48442916D01*
X29017764Y48489479D01*
X28930647Y48536044D01*
X28930643Y48536045D01*
X28741600Y48593390D01*
X28545000Y48612753D01*
X28348400Y48593390D01*
X28348398Y48593390D01*
X28159356Y48536045D01*
X28159352Y48536044D01*
X27985118Y48442914D01*
X27985114Y48442911D01*
X27832410Y48317590D01*
X27707089Y48164886D01*
X27707086Y48164882D01*
X27613956Y47990648D01*
X27613955Y47990644D01*
X27556610Y47801602D01*
X27556610Y47801600D01*
X27537247Y47605001D01*
X27012753Y47605001D01*
X26993389Y47801603D01*
X26936042Y47990650D01*
X26842916Y48164878D01*
X26842913Y48164882D01*
X26842910Y48164886D01*
X26717589Y48317590D01*
X26564885Y48442911D01*
X26564881Y48442914D01*
X26564879Y48442915D01*
X26564878Y48442916D01*
X26477764Y48489479D01*
X26390647Y48536044D01*
X26390643Y48536045D01*
X26201600Y48593390D01*
X26005000Y48612753D01*
X25808400Y48593390D01*
X25808398Y48593390D01*
X25619356Y48536045D01*
X25619352Y48536044D01*
X25445118Y48442914D01*
X25445114Y48442911D01*
X25292410Y48317590D01*
X25167089Y48164886D01*
X25167086Y48164882D01*
X25073956Y47990648D01*
X25073955Y47990644D01*
X25016610Y47801602D01*
X25016610Y47801600D01*
X24997247Y47605000D01*
X24472753Y47605000D01*
X24453389Y47801603D01*
X24396042Y47990650D01*
X24302916Y48164878D01*
X24302913Y48164882D01*
X24302910Y48164886D01*
X24177589Y48317590D01*
X24024885Y48442911D01*
X24024881Y48442914D01*
X24024879Y48442915D01*
X24024878Y48442916D01*
X23937764Y48489479D01*
X23850647Y48536044D01*
X23850643Y48536045D01*
X23661600Y48593390D01*
X23465000Y48612753D01*
X23268400Y48593390D01*
X23268398Y48593390D01*
X23079356Y48536045D01*
X23079352Y48536044D01*
X22905118Y48442914D01*
X22905114Y48442911D01*
X22752410Y48317590D01*
X22627089Y48164886D01*
X22627086Y48164882D01*
X22533956Y47990648D01*
X22533955Y47990644D01*
X22476610Y47801602D01*
X22476610Y47801600D01*
X22457247Y47605000D01*
X21932753Y47605000D01*
X21913389Y47801603D01*
X21856042Y47990650D01*
X21762916Y48164878D01*
X21762913Y48164882D01*
X21762910Y48164886D01*
X21637589Y48317590D01*
X21484885Y48442911D01*
X21484881Y48442914D01*
X21484879Y48442915D01*
X21484878Y48442916D01*
X21397764Y48489479D01*
X21310647Y48536044D01*
X21310643Y48536045D01*
X21121600Y48593390D01*
X20925000Y48612753D01*
X20728400Y48593390D01*
X20728398Y48593390D01*
X20539356Y48536045D01*
X20539352Y48536044D01*
X20365118Y48442914D01*
X20365114Y48442911D01*
X20212410Y48317590D01*
X20087089Y48164886D01*
X20087086Y48164882D01*
X19993956Y47990648D01*
X19993955Y47990644D01*
X19936610Y47801602D01*
X19936610Y47801600D01*
X19917247Y47605001D01*
X19392753Y47605001D01*
X19373389Y47801603D01*
X19316042Y47990650D01*
X19222916Y48164878D01*
X19222913Y48164882D01*
X19222910Y48164886D01*
X19097589Y48317590D01*
X18944885Y48442911D01*
X18944881Y48442914D01*
X18944879Y48442915D01*
X18944878Y48442916D01*
X18857763Y48489479D01*
X18770647Y48536044D01*
X18770643Y48536045D01*
X18581600Y48593390D01*
X18385000Y48612753D01*
X18188400Y48593390D01*
X18188398Y48593390D01*
X17999356Y48536045D01*
X17999352Y48536044D01*
X17825118Y48442914D01*
X17825114Y48442911D01*
X17672410Y48317590D01*
X17547089Y48164886D01*
X17547086Y48164882D01*
X17453956Y47990648D01*
X17453955Y47990644D01*
X17396610Y47801602D01*
X17396610Y47801600D01*
X17377247Y47605001D01*
X16852753Y47605001D01*
X16833389Y47801603D01*
X16776042Y47990650D01*
X16682916Y48164878D01*
X16682913Y48164882D01*
X16682910Y48164886D01*
X16557589Y48317590D01*
X16404885Y48442911D01*
X16404881Y48442914D01*
X16404879Y48442915D01*
X16404878Y48442916D01*
X16317763Y48489479D01*
X16230647Y48536044D01*
X16230643Y48536045D01*
X16041600Y48593390D01*
X15845000Y48612753D01*
X15648400Y48593390D01*
X15648398Y48593390D01*
X15459356Y48536045D01*
X15459352Y48536044D01*
X15285118Y48442914D01*
X15285114Y48442911D01*
X15132410Y48317590D01*
X15007089Y48164886D01*
X15007086Y48164882D01*
X14913956Y47990648D01*
X14913955Y47990644D01*
X14856610Y47801602D01*
X14856610Y47801600D01*
X14837247Y47605000D01*
X7041768Y47605000D01*
X7141186Y47708119D01*
X7298799Y47928421D01*
X7422656Y48169325D01*
X7432093Y48196989D01*
X7510116Y48425688D01*
X7510116Y48425691D01*
X7510118Y48425695D01*
X7559319Y48692067D01*
X7564259Y48827235D01*
X72440788Y48827235D01*
X72470414Y48557978D01*
X72538926Y48295916D01*
X72538928Y48295911D01*
X72644869Y48046612D01*
X72644871Y48046608D01*
X72785983Y47815388D01*
X72785984Y47815387D01*
X72959251Y47607184D01*
X72959255Y47607180D01*
X73160998Y47426418D01*
X73386910Y47276956D01*
X73632176Y47161980D01*
X73891569Y47083940D01*
X74159561Y47044500D01*
X74159565Y47044500D01*
X74362639Y47044500D01*
X74362641Y47044501D01*
X74436251Y47049889D01*
X74565147Y47059322D01*
X74565149Y47059323D01*
X74565156Y47059323D01*
X74829553Y47118220D01*
X75082558Y47214986D01*
X75318777Y47347559D01*
X75533177Y47513112D01*
X75721186Y47708119D01*
X75878799Y47928421D01*
X76002656Y48169325D01*
X76012093Y48196989D01*
X76090116Y48425688D01*
X76090116Y48425691D01*
X76090118Y48425695D01*
X76139319Y48692067D01*
X76149212Y48962765D01*
X76119586Y49232018D01*
X76051072Y49494088D01*
X75945130Y49743390D01*
X75804018Y49974610D01*
X75645575Y50165000D01*
X75630748Y50182817D01*
X75630744Y50182821D01*
X75525766Y50276881D01*
X75429002Y50363582D01*
X75267649Y50470332D01*
X75203089Y50513045D01*
X74957822Y50628021D01*
X74810051Y50672479D01*
X74698431Y50706060D01*
X74531147Y50730679D01*
X74430440Y50745500D01*
X74430439Y50745500D01*
X74227369Y50745500D01*
X74227357Y50745500D01*
X74024852Y50730679D01*
X73760442Y50671779D01*
X73507439Y50575013D01*
X73271226Y50442444D01*
X73056827Y50276892D01*
X73056815Y50276881D01*
X72868818Y50081886D01*
X72868810Y50081876D01*
X72711201Y49861580D01*
X72711200Y49861578D01*
X72587341Y49620670D01*
X72499883Y49364313D01*
X72499881Y49364303D01*
X72450681Y49097936D01*
X72440788Y48827239D01*
X72440788Y48827235D01*
X7564259Y48827235D01*
X7569212Y48962765D01*
X7539586Y49232018D01*
X7471072Y49494088D01*
X7365130Y49743390D01*
X7224018Y49974610D01*
X7065575Y50165000D01*
X7050748Y50182817D01*
X7050744Y50182821D01*
X6945766Y50276881D01*
X6849002Y50363582D01*
X6687649Y50470332D01*
X6623089Y50513045D01*
X6377822Y50628021D01*
X6230051Y50672479D01*
X6118431Y50706060D01*
X5951147Y50730679D01*
X5850440Y50745500D01*
X5850439Y50745500D01*
X5647369Y50745500D01*
X5647357Y50745500D01*
X5444852Y50730679D01*
X5180442Y50671779D01*
X4927439Y50575013D01*
X4691226Y50442444D01*
X4476827Y50276892D01*
X4476815Y50276881D01*
X4288818Y50081886D01*
X4288810Y50081876D01*
X4131201Y49861580D01*
X4131200Y49861578D01*
X4007341Y49620670D01*
X3919883Y49364313D01*
X3919881Y49364303D01*
X3870681Y49097936D01*
X3860788Y48827239D01*
X3860788Y48827235D01*
X1930499Y48827235D01*
X1930499Y50163861D01*
X1930568Y50166132D01*
X1947282Y50442441D01*
X1948697Y50465835D01*
X1949241Y50470316D01*
X2003160Y50764543D01*
X2004238Y50768915D01*
X2093227Y51054489D01*
X2094836Y51058729D01*
X2217586Y51331469D01*
X2219698Y51335493D01*
X2374432Y51591455D01*
X2376999Y51595177D01*
X2561479Y51830647D01*
X2564465Y51834018D01*
X2775982Y52045535D01*
X2779353Y52048521D01*
X3014823Y52233001D01*
X3018545Y52235568D01*
X3274507Y52390302D01*
X3278531Y52392414D01*
X3326323Y52413923D01*
X3551269Y52515164D01*
X3555511Y52516773D01*
X3841085Y52605762D01*
X3845457Y52606840D01*
X4139684Y52660759D01*
X4144165Y52661303D01*
X4317941Y52671815D01*
X4443869Y52679431D01*
X4446140Y52679500D01*
X4453285Y52679500D01*
X75556715Y52679500D01*
X75563860Y52679500D01*
X75566131Y52679431D01*
G37*
G04 #@! TD.AperFunction*
G04 #@! TD*
M02*
