M48
; DRILL file {KiCad 6.0.7+dfsg-1+b1} date Sun 11 Sep 2022 09:28:02 +08
; FORMAT={-:-/ absolute / metric / decimal}
; #@! TF.CreationDate,2022-09-11T09:28:02+08:00
; #@! TF.GenerationSoftware,Kicad,Pcbnew,6.0.7+dfsg-1+b1
; #@! TF.FileFunction,Plated,1,2,PTH
FMAT,2
METRIC
; #@! TA.AperFunction,Plated,PTH,ViaDrill
T1C0.350
; #@! TA.AperFunction,Plated,PTH,ComponentDrill
T2C0.600
; #@! TA.AperFunction,Plated,PTH,ComponentDrill
T3C1.000
%
G90
G05
T1
X5.715Y13.97
X5.715Y10.16
X6.985Y33.655
X7.62Y20.955
X10.16Y17.145
X11.43Y23.495
X14.605Y17.145
X17.78Y23.495
X19.05Y17.145
X21.59Y27.305
X21.59Y20.955
X22.86Y33.02
X22.86Y26.035
X27.305Y27.305
X29.845Y17.145
X31.115Y31.115
X32.385Y17.145
X34.29Y31.115
X34.29Y24.13
X36.83Y35.56
X37.465Y27.94
X39.37Y29.21
X39.37Y26.67
X42.545Y23.495
X42.545Y22.225
X43.815Y14.605
X45.085Y27.305
X46.355Y27.94
X46.355Y26.67
X46.99Y29.21
X46.99Y25.4
X47.625Y35.56
X47.625Y27.94
X47.625Y26.67
X48.895Y27.305
X48.895Y14.605
X49.53Y28.575
X52.07Y31.115
X53.34Y27.305
X53.34Y25.4
X55.88Y24.13
X57.15Y36.195
X57.15Y33.655
X63.5Y19.05
X63.5Y17.145
X63.5Y15.24
X64.77Y19.05
X64.77Y17.145
X64.77Y15.24
X65.811Y26.797
X66.04Y19.05
X66.04Y17.145
X66.04Y15.24
X68.58Y26.797
X69.215Y47.625
X69.215Y45.085
X69.85Y36.83
X73.025Y36.83
X73.025Y28.575
X73.025Y26.035
X74.295Y45.085
X74.295Y42.545
X74.295Y16.51
X74.295Y13.97
X74.295Y11.43
X74.295Y8.89
T3
X15.875Y47.625
X15.875Y45.085
X15.875Y9.525
X15.875Y6.985
X18.415Y47.625
X18.415Y45.085
X18.415Y9.525
X18.415Y6.985
X20.955Y47.625
X20.955Y45.085
X20.955Y9.525
X20.955Y6.985
X23.495Y47.625
X23.495Y45.085
X23.495Y9.525
X23.495Y6.985
X26.035Y47.625
X26.035Y45.085
X26.035Y9.525
X26.035Y6.985
X28.575Y47.625
X28.575Y45.085
X28.575Y9.525
X28.575Y6.985
X31.115Y47.625
X31.115Y45.085
X31.115Y9.525
X31.115Y6.985
X33.655Y47.625
X33.655Y45.085
X33.655Y9.525
X33.655Y6.985
X36.195Y47.625
X36.195Y45.085
X36.195Y9.525
X36.195Y6.985
X38.735Y47.625
X38.735Y45.085
X38.735Y9.525
X38.735Y6.985
X41.275Y47.625
X41.275Y45.085
X41.275Y9.525
X41.275Y6.985
X43.815Y47.625
X43.815Y45.085
X43.815Y9.525
X43.815Y6.985
X46.355Y47.625
X46.355Y45.085
X46.355Y9.525
X46.355Y6.985
X48.895Y47.625
X48.895Y45.085
X48.895Y9.525
X48.895Y6.985
X51.435Y47.625
X51.435Y45.085
X51.435Y9.525
X51.435Y6.985
X53.975Y47.625
X53.975Y45.085
X53.975Y9.525
X53.975Y6.985
X56.515Y47.625
X56.515Y45.085
X56.515Y9.525
X56.515Y6.985
X59.055Y47.625
X59.055Y45.085
X59.055Y9.525
X59.055Y6.985
X61.595Y47.625
X61.595Y45.085
X61.595Y9.525
X61.595Y6.985
X64.135Y47.625
X64.135Y45.085
X64.135Y9.525
X64.135Y6.985
T2
G00X70.615Y31.625
M15
G01X71.715Y31.625
M16
G05
G00X70.615Y22.985
M15
G01X71.715Y22.985
M16
G05
G00X75.045Y31.625
M15
G01X75.645Y31.625
M16
G05
G00X75.045Y22.985
M15
G01X75.645Y22.985
M16
G05
T0
M30
