%TF.GenerationSoftware,KiCad,Pcbnew,6.0.7+dfsg-1+b1*%
%TF.CreationDate,2022-09-10T20:58:05+08:00*%
%TF.ProjectId,prgstl,70726773-746c-42e6-9b69-6361645f7063,a*%
%TF.SameCoordinates,PX6c663e8PY79b8e38*%
%TF.FileFunction,Legend,Bot*%
%TF.FilePolarity,Positive*%
%FSLAX46Y46*%
G04 Gerber Fmt 4.6, Leading zero omitted, Abs format (unit mm)*
G04 Created by KiCad (PCBNEW 6.0.7+dfsg-1+b1) date 2022-09-10 20:58:05*
%MOMM*%
%LPD*%
G01*
G04 APERTURE LIST*
%ADD10C,0.150000*%
G04 APERTURE END LIST*
D10*
X74491904Y43933453D02*
X75063333Y43933453D01*
X75177619Y43971548D01*
X75253809Y44047739D01*
X75291904Y44162024D01*
X75291904Y44238215D01*
X75291904Y43171548D02*
X75291904Y43552500D01*
X74491904Y43552500D01*
X75215714Y42447739D02*
X75253809Y42485834D01*
X75291904Y42600120D01*
X75291904Y42676310D01*
X75253809Y42790596D01*
X75177619Y42866786D01*
X75101428Y42904881D01*
X74949047Y42942977D01*
X74834761Y42942977D01*
X74682380Y42904881D01*
X74606190Y42866786D01*
X74530000Y42790596D01*
X74491904Y42676310D01*
X74491904Y42600120D01*
X74530000Y42485834D01*
X74568095Y42447739D01*
X74491904Y41876310D02*
X75063333Y41876310D01*
X75177619Y41914405D01*
X75253809Y41990596D01*
X75291904Y42104881D01*
X75291904Y42181072D01*
X75291904Y41114405D02*
X75291904Y41495358D01*
X74491904Y41495358D01*
X75215714Y40390596D02*
X75253809Y40428691D01*
X75291904Y40542977D01*
X75291904Y40619167D01*
X75253809Y40733453D01*
X75177619Y40809643D01*
X75101428Y40847739D01*
X74949047Y40885834D01*
X74834761Y40885834D01*
X74682380Y40847739D01*
X74606190Y40809643D01*
X74530000Y40733453D01*
X74491904Y40619167D01*
X74491904Y40542977D01*
X74530000Y40428691D01*
X74568095Y40390596D01*
X74491904Y39819167D02*
X75063333Y39819167D01*
X75177619Y39857262D01*
X75253809Y39933453D01*
X75291904Y40047739D01*
X75291904Y40123929D01*
X75291904Y39057262D02*
X75291904Y39438215D01*
X74491904Y39438215D01*
X75215714Y38333453D02*
X75253809Y38371548D01*
X75291904Y38485834D01*
X75291904Y38562024D01*
X75253809Y38676310D01*
X75177619Y38752500D01*
X75101428Y38790596D01*
X74949047Y38828691D01*
X74834761Y38828691D01*
X74682380Y38790596D01*
X74606190Y38752500D01*
X74530000Y38676310D01*
X74491904Y38562024D01*
X74491904Y38485834D01*
X74530000Y38371548D01*
X74568095Y38333453D01*
X74491904Y37762024D02*
X75063333Y37762024D01*
X75177619Y37800120D01*
X75253809Y37876310D01*
X75291904Y37990596D01*
X75291904Y38066786D01*
X75291904Y37000120D02*
X75291904Y37381072D01*
X74491904Y37381072D01*
X75215714Y36276310D02*
X75253809Y36314405D01*
X75291904Y36428691D01*
X75291904Y36504881D01*
X75253809Y36619167D01*
X75177619Y36695358D01*
X75101428Y36733453D01*
X74949047Y36771548D01*
X74834761Y36771548D01*
X74682380Y36733453D01*
X74606190Y36695358D01*
X74530000Y36619167D01*
X74491904Y36504881D01*
X74491904Y36428691D01*
X74530000Y36314405D01*
X74568095Y36276310D01*
%TO.C,J2*%
X62426904Y3141072D02*
X62426904Y3522024D01*
X62807857Y3560120D01*
X62769761Y3522024D01*
X62731666Y3445834D01*
X62731666Y3255358D01*
X62769761Y3179167D01*
X62807857Y3141072D01*
X62884047Y3102977D01*
X63074523Y3102977D01*
X63150714Y3141072D01*
X63188809Y3179167D01*
X63226904Y3255358D01*
X63226904Y3445834D01*
X63188809Y3522024D01*
X63150714Y3560120D01*
X62426904Y2874405D02*
X63226904Y2607739D01*
X62426904Y2341072D01*
X42106904Y41622024D02*
X42754523Y41622024D01*
X42830714Y41583929D01*
X42868809Y41545834D01*
X42906904Y41469643D01*
X42906904Y41317262D01*
X42868809Y41241072D01*
X42830714Y41202977D01*
X42754523Y41164881D01*
X42106904Y41164881D01*
X42906904Y40364881D02*
X42906904Y40822024D01*
X42906904Y40593453D02*
X42106904Y40593453D01*
X42221190Y40669643D01*
X42297380Y40745834D01*
X42335476Y40822024D01*
X42183095Y40060120D02*
X42145000Y40022024D01*
X42106904Y39945834D01*
X42106904Y39755358D01*
X42145000Y39679167D01*
X42183095Y39641072D01*
X42259285Y39602977D01*
X42335476Y39602977D01*
X42449761Y39641072D01*
X42906904Y40098215D01*
X42906904Y39602977D01*
X35286904Y11793929D02*
X34486904Y11793929D01*
X34486904Y11489167D01*
X34525000Y11412977D01*
X34563095Y11374881D01*
X34639285Y11336786D01*
X34753571Y11336786D01*
X34829761Y11374881D01*
X34867857Y11412977D01*
X34905952Y11489167D01*
X34905952Y11793929D01*
X35210714Y10536786D02*
X35248809Y10574881D01*
X35286904Y10689167D01*
X35286904Y10765358D01*
X35248809Y10879643D01*
X35172619Y10955834D01*
X35096428Y10993929D01*
X34944047Y11032024D01*
X34829761Y11032024D01*
X34677380Y10993929D01*
X34601190Y10955834D01*
X34525000Y10879643D01*
X34486904Y10765358D01*
X34486904Y10689167D01*
X34525000Y10574881D01*
X34563095Y10536786D01*
X34486904Y9812977D02*
X34486904Y10193929D01*
X34867857Y10232024D01*
X34829761Y10193929D01*
X34791666Y10117739D01*
X34791666Y9927262D01*
X34829761Y9851072D01*
X34867857Y9812977D01*
X34944047Y9774881D01*
X35134523Y9774881D01*
X35210714Y9812977D01*
X35248809Y9851072D01*
X35286904Y9927262D01*
X35286904Y10117739D01*
X35248809Y10193929D01*
X35210714Y10232024D01*
X27666904Y50528929D02*
X26866904Y50528929D01*
X26866904Y50224167D01*
X26905000Y50147977D01*
X26943095Y50109881D01*
X27019285Y50071786D01*
X27133571Y50071786D01*
X27209761Y50109881D01*
X27247857Y50147977D01*
X27285952Y50224167D01*
X27285952Y50528929D01*
X27247857Y49462262D02*
X27285952Y49347977D01*
X27324047Y49309881D01*
X27400238Y49271786D01*
X27514523Y49271786D01*
X27590714Y49309881D01*
X27628809Y49347977D01*
X27666904Y49424167D01*
X27666904Y49728929D01*
X26866904Y49728929D01*
X26866904Y49462262D01*
X26905000Y49386072D01*
X26943095Y49347977D01*
X27019285Y49309881D01*
X27095476Y49309881D01*
X27171666Y49347977D01*
X27209761Y49386072D01*
X27247857Y49462262D01*
X27247857Y49728929D01*
X27209761Y48814643D02*
X27171666Y48890834D01*
X27133571Y48928929D01*
X27057380Y48967024D01*
X27019285Y48967024D01*
X26943095Y48928929D01*
X26905000Y48890834D01*
X26866904Y48814643D01*
X26866904Y48662262D01*
X26905000Y48586072D01*
X26943095Y48547977D01*
X27019285Y48509881D01*
X27057380Y48509881D01*
X27133571Y48547977D01*
X27171666Y48586072D01*
X27209761Y48662262D01*
X27209761Y48814643D01*
X27247857Y48890834D01*
X27285952Y48928929D01*
X27362142Y48967024D01*
X27514523Y48967024D01*
X27590714Y48928929D01*
X27628809Y48890834D01*
X27666904Y48814643D01*
X27666904Y48662262D01*
X27628809Y48586072D01*
X27590714Y48547977D01*
X27514523Y48509881D01*
X27362142Y48509881D01*
X27285952Y48547977D01*
X27247857Y48586072D01*
X27209761Y48662262D01*
X54806904Y41622024D02*
X55454523Y41622024D01*
X55530714Y41583929D01*
X55568809Y41545834D01*
X55606904Y41469643D01*
X55606904Y41317262D01*
X55568809Y41241072D01*
X55530714Y41202977D01*
X55454523Y41164881D01*
X54806904Y41164881D01*
X55606904Y40364881D02*
X55606904Y40822024D01*
X55606904Y40593453D02*
X54806904Y40593453D01*
X54921190Y40669643D01*
X54997380Y40745834D01*
X55035476Y40822024D01*
X55073571Y39679167D02*
X55606904Y39679167D01*
X54768809Y39869643D02*
X55340238Y40060120D01*
X55340238Y39564881D01*
X47986904Y51176548D02*
X47186904Y51176548D01*
X47186904Y50871786D01*
X47225000Y50795596D01*
X47263095Y50757500D01*
X47339285Y50719405D01*
X47453571Y50719405D01*
X47529761Y50757500D01*
X47567857Y50795596D01*
X47605952Y50871786D01*
X47605952Y51176548D01*
X47758333Y50414643D02*
X47758333Y50033691D01*
X47986904Y50490834D02*
X47186904Y50224167D01*
X47986904Y49957500D01*
X47986904Y49271786D02*
X47986904Y49728929D01*
X47986904Y49500358D02*
X47186904Y49500358D01*
X47301190Y49576548D01*
X47377380Y49652739D01*
X47415476Y49728929D01*
X47263095Y48967024D02*
X47225000Y48928929D01*
X47186904Y48852739D01*
X47186904Y48662262D01*
X47225000Y48586072D01*
X47263095Y48547977D01*
X47339285Y48509881D01*
X47415476Y48509881D01*
X47529761Y48547977D01*
X47986904Y49005120D01*
X47986904Y48509881D01*
X24326904Y41622024D02*
X24974523Y41622024D01*
X25050714Y41583929D01*
X25088809Y41545834D01*
X25126904Y41469643D01*
X25126904Y41317262D01*
X25088809Y41241072D01*
X25050714Y41202977D01*
X24974523Y41164881D01*
X24326904Y41164881D01*
X25126904Y40364881D02*
X25126904Y40822024D01*
X25126904Y40593453D02*
X24326904Y40593453D01*
X24441190Y40669643D01*
X24517380Y40745834D01*
X24555476Y40822024D01*
X24326904Y39869643D02*
X24326904Y39793453D01*
X24365000Y39717262D01*
X24403095Y39679167D01*
X24479285Y39641072D01*
X24631666Y39602977D01*
X24822142Y39602977D01*
X24974523Y39641072D01*
X25050714Y39679167D01*
X25088809Y39717262D01*
X25126904Y39793453D01*
X25126904Y39869643D01*
X25088809Y39945834D01*
X25050714Y39983929D01*
X24974523Y40022024D01*
X24822142Y40060120D01*
X24631666Y40060120D01*
X24479285Y40022024D01*
X24403095Y39983929D01*
X24365000Y39945834D01*
X24326904Y39869643D01*
X27666904Y3522024D02*
X26866904Y3522024D01*
X26866904Y3217262D01*
X26905000Y3141072D01*
X26943095Y3102977D01*
X27019285Y3064881D01*
X27133571Y3064881D01*
X27209761Y3102977D01*
X27247857Y3141072D01*
X27285952Y3217262D01*
X27285952Y3522024D01*
X27438333Y2760120D02*
X27438333Y2379167D01*
X27666904Y2836310D02*
X26866904Y2569643D01*
X27666904Y2302977D01*
X26943095Y2074405D02*
X26905000Y2036310D01*
X26866904Y1960120D01*
X26866904Y1769643D01*
X26905000Y1693453D01*
X26943095Y1655358D01*
X27019285Y1617262D01*
X27095476Y1617262D01*
X27209761Y1655358D01*
X27666904Y2112500D01*
X27666904Y1617262D01*
X19246904Y49767024D02*
X19894523Y49767024D01*
X19970714Y49728929D01*
X20008809Y49690834D01*
X20046904Y49614643D01*
X20046904Y49462262D01*
X20008809Y49386072D01*
X19970714Y49347977D01*
X19894523Y49309881D01*
X19246904Y49309881D01*
X19246904Y49005120D02*
X19246904Y48471786D01*
X20046904Y48814643D01*
X37826904Y3522024D02*
X37026904Y3522024D01*
X37026904Y3217262D01*
X37065000Y3141072D01*
X37103095Y3102977D01*
X37179285Y3064881D01*
X37293571Y3064881D01*
X37369761Y3102977D01*
X37407857Y3141072D01*
X37445952Y3217262D01*
X37445952Y3522024D01*
X37407857Y2455358D02*
X37445952Y2341072D01*
X37484047Y2302977D01*
X37560238Y2264881D01*
X37674523Y2264881D01*
X37750714Y2302977D01*
X37788809Y2341072D01*
X37826904Y2417262D01*
X37826904Y2722024D01*
X37026904Y2722024D01*
X37026904Y2455358D01*
X37065000Y2379167D01*
X37103095Y2341072D01*
X37179285Y2302977D01*
X37255476Y2302977D01*
X37331666Y2341072D01*
X37369761Y2379167D01*
X37407857Y2455358D01*
X37407857Y2722024D01*
X37026904Y1769643D02*
X37026904Y1693453D01*
X37065000Y1617262D01*
X37103095Y1579167D01*
X37179285Y1541072D01*
X37331666Y1502977D01*
X37522142Y1502977D01*
X37674523Y1541072D01*
X37750714Y1579167D01*
X37788809Y1617262D01*
X37826904Y1693453D01*
X37826904Y1769643D01*
X37788809Y1845834D01*
X37750714Y1883929D01*
X37674523Y1922024D01*
X37522142Y1960120D01*
X37331666Y1960120D01*
X37179285Y1922024D01*
X37103095Y1883929D01*
X37065000Y1845834D01*
X37026904Y1769643D01*
X25126904Y3522024D02*
X24326904Y3522024D01*
X24326904Y3217262D01*
X24365000Y3141072D01*
X24403095Y3102977D01*
X24479285Y3064881D01*
X24593571Y3064881D01*
X24669761Y3102977D01*
X24707857Y3141072D01*
X24745952Y3217262D01*
X24745952Y3522024D01*
X24898333Y2760120D02*
X24898333Y2379167D01*
X25126904Y2836310D02*
X24326904Y2569643D01*
X25126904Y2302977D01*
X24326904Y1883929D02*
X24326904Y1807739D01*
X24365000Y1731548D01*
X24403095Y1693453D01*
X24479285Y1655358D01*
X24631666Y1617262D01*
X24822142Y1617262D01*
X24974523Y1655358D01*
X25050714Y1693453D01*
X25088809Y1731548D01*
X25126904Y1807739D01*
X25126904Y1883929D01*
X25088809Y1960120D01*
X25050714Y1998215D01*
X24974523Y2036310D01*
X24822142Y2074405D01*
X24631666Y2074405D01*
X24479285Y2036310D01*
X24403095Y1998215D01*
X24365000Y1960120D01*
X24326904Y1883929D01*
X50526904Y51176548D02*
X49726904Y51176548D01*
X49726904Y50871786D01*
X49765000Y50795596D01*
X49803095Y50757500D01*
X49879285Y50719405D01*
X49993571Y50719405D01*
X50069761Y50757500D01*
X50107857Y50795596D01*
X50145952Y50871786D01*
X50145952Y51176548D01*
X50298333Y50414643D02*
X50298333Y50033691D01*
X50526904Y50490834D02*
X49726904Y50224167D01*
X50526904Y49957500D01*
X50526904Y49271786D02*
X50526904Y49728929D01*
X50526904Y49500358D02*
X49726904Y49500358D01*
X49841190Y49576548D01*
X49917380Y49652739D01*
X49955476Y49728929D01*
X49726904Y48776548D02*
X49726904Y48700358D01*
X49765000Y48624167D01*
X49803095Y48586072D01*
X49879285Y48547977D01*
X50031666Y48509881D01*
X50222142Y48509881D01*
X50374523Y48547977D01*
X50450714Y48586072D01*
X50488809Y48624167D01*
X50526904Y48700358D01*
X50526904Y48776548D01*
X50488809Y48852739D01*
X50450714Y48890834D01*
X50374523Y48928929D01*
X50222142Y48967024D01*
X50031666Y48967024D01*
X49879285Y48928929D01*
X49803095Y48890834D01*
X49765000Y48852739D01*
X49726904Y48776548D01*
X16706904Y41622024D02*
X17354523Y41622024D01*
X17430714Y41583929D01*
X17468809Y41545834D01*
X17506904Y41469643D01*
X17506904Y41317262D01*
X17468809Y41241072D01*
X17430714Y41202977D01*
X17354523Y41164881D01*
X16706904Y41164881D01*
X16706904Y40441072D02*
X16706904Y40593453D01*
X16745000Y40669643D01*
X16783095Y40707739D01*
X16897380Y40783929D01*
X17049761Y40822024D01*
X17354523Y40822024D01*
X17430714Y40783929D01*
X17468809Y40745834D01*
X17506904Y40669643D01*
X17506904Y40517262D01*
X17468809Y40441072D01*
X17430714Y40402977D01*
X17354523Y40364881D01*
X17164047Y40364881D01*
X17087857Y40402977D01*
X17049761Y40441072D01*
X17011666Y40517262D01*
X17011666Y40669643D01*
X17049761Y40745834D01*
X17087857Y40783929D01*
X17164047Y40822024D01*
X22586904Y11793929D02*
X21786904Y11793929D01*
X21786904Y11489167D01*
X21825000Y11412977D01*
X21863095Y11374881D01*
X21939285Y11336786D01*
X22053571Y11336786D01*
X22129761Y11374881D01*
X22167857Y11412977D01*
X22205952Y11489167D01*
X22205952Y11793929D01*
X22510714Y10536786D02*
X22548809Y10574881D01*
X22586904Y10689167D01*
X22586904Y10765358D01*
X22548809Y10879643D01*
X22472619Y10955834D01*
X22396428Y10993929D01*
X22244047Y11032024D01*
X22129761Y11032024D01*
X21977380Y10993929D01*
X21901190Y10955834D01*
X21825000Y10879643D01*
X21786904Y10765358D01*
X21786904Y10689167D01*
X21825000Y10574881D01*
X21863095Y10536786D01*
X21786904Y10270120D02*
X21786904Y9774881D01*
X22091666Y10041548D01*
X22091666Y9927262D01*
X22129761Y9851072D01*
X22167857Y9812977D01*
X22244047Y9774881D01*
X22434523Y9774881D01*
X22510714Y9812977D01*
X22548809Y9851072D01*
X22586904Y9927262D01*
X22586904Y10155834D01*
X22548809Y10232024D01*
X22510714Y10270120D01*
X32746904Y3522024D02*
X31946904Y3522024D01*
X31946904Y3217262D01*
X31985000Y3141072D01*
X32023095Y3102977D01*
X32099285Y3064881D01*
X32213571Y3064881D01*
X32289761Y3102977D01*
X32327857Y3141072D01*
X32365952Y3217262D01*
X32365952Y3522024D01*
X32518333Y2760120D02*
X32518333Y2379167D01*
X32746904Y2836310D02*
X31946904Y2569643D01*
X32746904Y2302977D01*
X31946904Y1693453D02*
X31946904Y1845834D01*
X31985000Y1922024D01*
X32023095Y1960120D01*
X32137380Y2036310D01*
X32289761Y2074405D01*
X32594523Y2074405D01*
X32670714Y2036310D01*
X32708809Y1998215D01*
X32746904Y1922024D01*
X32746904Y1769643D01*
X32708809Y1693453D01*
X32670714Y1655358D01*
X32594523Y1617262D01*
X32404047Y1617262D01*
X32327857Y1655358D01*
X32289761Y1693453D01*
X32251666Y1769643D01*
X32251666Y1922024D01*
X32289761Y1998215D01*
X32327857Y2036310D01*
X32404047Y2074405D01*
X57346904Y3522024D02*
X57994523Y3522024D01*
X58070714Y3483929D01*
X58108809Y3445834D01*
X58146904Y3369643D01*
X58146904Y3217262D01*
X58108809Y3141072D01*
X58070714Y3102977D01*
X57994523Y3064881D01*
X57346904Y3064881D01*
X57346904Y2760120D02*
X57346904Y2264881D01*
X57651666Y2531548D01*
X57651666Y2417262D01*
X57689761Y2341072D01*
X57727857Y2302977D01*
X57804047Y2264881D01*
X57994523Y2264881D01*
X58070714Y2302977D01*
X58108809Y2341072D01*
X58146904Y2417262D01*
X58146904Y2645834D01*
X58108809Y2722024D01*
X58070714Y2760120D01*
X54806904Y50528929D02*
X55454523Y50528929D01*
X55530714Y50490834D01*
X55568809Y50452739D01*
X55606904Y50376548D01*
X55606904Y50224167D01*
X55568809Y50147977D01*
X55530714Y50109881D01*
X55454523Y50071786D01*
X54806904Y50071786D01*
X55606904Y49271786D02*
X55606904Y49728929D01*
X55606904Y49500358D02*
X54806904Y49500358D01*
X54921190Y49576548D01*
X54997380Y49652739D01*
X55035476Y49728929D01*
X54806904Y49005120D02*
X54806904Y48509881D01*
X55111666Y48776548D01*
X55111666Y48662262D01*
X55149761Y48586072D01*
X55187857Y48547977D01*
X55264047Y48509881D01*
X55454523Y48509881D01*
X55530714Y48547977D01*
X55568809Y48586072D01*
X55606904Y48662262D01*
X55606904Y48890834D01*
X55568809Y48967024D01*
X55530714Y49005120D01*
X50526904Y11793929D02*
X49726904Y11793929D01*
X49726904Y11489167D01*
X49765000Y11412977D01*
X49803095Y11374881D01*
X49879285Y11336786D01*
X49993571Y11336786D01*
X50069761Y11374881D01*
X50107857Y11412977D01*
X50145952Y11489167D01*
X50145952Y11793929D01*
X50450714Y10536786D02*
X50488809Y10574881D01*
X50526904Y10689167D01*
X50526904Y10765358D01*
X50488809Y10879643D01*
X50412619Y10955834D01*
X50336428Y10993929D01*
X50184047Y11032024D01*
X50069761Y11032024D01*
X49917380Y10993929D01*
X49841190Y10955834D01*
X49765000Y10879643D01*
X49726904Y10765358D01*
X49726904Y10689167D01*
X49765000Y10574881D01*
X49803095Y10536786D01*
X49726904Y10270120D02*
X49726904Y9736786D01*
X50526904Y10079643D01*
X62426904Y49233691D02*
X62426904Y49614643D01*
X62807857Y49652739D01*
X62769761Y49614643D01*
X62731666Y49538453D01*
X62731666Y49347977D01*
X62769761Y49271786D01*
X62807857Y49233691D01*
X62884047Y49195596D01*
X63074523Y49195596D01*
X63150714Y49233691D01*
X63188809Y49271786D01*
X63226904Y49347977D01*
X63226904Y49538453D01*
X63188809Y49614643D01*
X63150714Y49652739D01*
X62426904Y48967024D02*
X63226904Y48700358D01*
X62426904Y48433691D01*
X14205000Y41202977D02*
X14166904Y41279167D01*
X14166904Y41393453D01*
X14205000Y41507739D01*
X14281190Y41583929D01*
X14357380Y41622024D01*
X14509761Y41660120D01*
X14624047Y41660120D01*
X14776428Y41622024D01*
X14852619Y41583929D01*
X14928809Y41507739D01*
X14966904Y41393453D01*
X14966904Y41317262D01*
X14928809Y41202977D01*
X14890714Y41164881D01*
X14624047Y41164881D01*
X14624047Y41317262D01*
X14966904Y40822024D02*
X14166904Y40822024D01*
X14966904Y40364881D01*
X14166904Y40364881D01*
X14966904Y39983929D02*
X14166904Y39983929D01*
X14166904Y39793453D01*
X14205000Y39679167D01*
X14281190Y39602977D01*
X14357380Y39564881D01*
X14509761Y39526786D01*
X14624047Y39526786D01*
X14776428Y39564881D01*
X14852619Y39602977D01*
X14928809Y39679167D01*
X14966904Y39793453D01*
X14966904Y39983929D01*
X20046904Y11793929D02*
X19246904Y11793929D01*
X19246904Y11489167D01*
X19285000Y11412977D01*
X19323095Y11374881D01*
X19399285Y11336786D01*
X19513571Y11336786D01*
X19589761Y11374881D01*
X19627857Y11412977D01*
X19665952Y11489167D01*
X19665952Y11793929D01*
X19970714Y10536786D02*
X20008809Y10574881D01*
X20046904Y10689167D01*
X20046904Y10765358D01*
X20008809Y10879643D01*
X19932619Y10955834D01*
X19856428Y10993929D01*
X19704047Y11032024D01*
X19589761Y11032024D01*
X19437380Y10993929D01*
X19361190Y10955834D01*
X19285000Y10879643D01*
X19246904Y10765358D01*
X19246904Y10689167D01*
X19285000Y10574881D01*
X19323095Y10536786D01*
X20046904Y9774881D02*
X20046904Y10232024D01*
X20046904Y10003453D02*
X19246904Y10003453D01*
X19361190Y10079643D01*
X19437380Y10155834D01*
X19475476Y10232024D01*
X30206904Y11679643D02*
X29406904Y11679643D01*
X29406904Y11374881D01*
X29445000Y11298691D01*
X29483095Y11260596D01*
X29559285Y11222500D01*
X29673571Y11222500D01*
X29749761Y11260596D01*
X29787857Y11298691D01*
X29825952Y11374881D01*
X29825952Y11679643D01*
X29978333Y10917739D02*
X29978333Y10536786D01*
X30206904Y10993929D02*
X29406904Y10727262D01*
X30206904Y10460596D01*
X29406904Y9812977D02*
X29406904Y10193929D01*
X29787857Y10232024D01*
X29749761Y10193929D01*
X29711666Y10117739D01*
X29711666Y9927262D01*
X29749761Y9851072D01*
X29787857Y9812977D01*
X29864047Y9774881D01*
X30054523Y9774881D01*
X30130714Y9812977D01*
X30168809Y9851072D01*
X30206904Y9927262D01*
X30206904Y10117739D01*
X30168809Y10193929D01*
X30130714Y10232024D01*
X14205000Y11451072D02*
X14166904Y11527262D01*
X14166904Y11641548D01*
X14205000Y11755834D01*
X14281190Y11832024D01*
X14357380Y11870120D01*
X14509761Y11908215D01*
X14624047Y11908215D01*
X14776428Y11870120D01*
X14852619Y11832024D01*
X14928809Y11755834D01*
X14966904Y11641548D01*
X14966904Y11565358D01*
X14928809Y11451072D01*
X14890714Y11412977D01*
X14624047Y11412977D01*
X14624047Y11565358D01*
X14966904Y11070120D02*
X14166904Y11070120D01*
X14966904Y10612977D01*
X14166904Y10612977D01*
X14966904Y10232024D02*
X14166904Y10232024D01*
X14166904Y10041548D01*
X14205000Y9927262D01*
X14281190Y9851072D01*
X14357380Y9812977D01*
X14509761Y9774881D01*
X14624047Y9774881D01*
X14776428Y9812977D01*
X14852619Y9851072D01*
X14928809Y9927262D01*
X14966904Y10041548D01*
X14966904Y10232024D01*
X32746904Y50528929D02*
X31946904Y50528929D01*
X31946904Y50224167D01*
X31985000Y50147977D01*
X32023095Y50109881D01*
X32099285Y50071786D01*
X32213571Y50071786D01*
X32289761Y50109881D01*
X32327857Y50147977D01*
X32365952Y50224167D01*
X32365952Y50528929D01*
X32327857Y49462262D02*
X32365952Y49347977D01*
X32404047Y49309881D01*
X32480238Y49271786D01*
X32594523Y49271786D01*
X32670714Y49309881D01*
X32708809Y49347977D01*
X32746904Y49424167D01*
X32746904Y49728929D01*
X31946904Y49728929D01*
X31946904Y49462262D01*
X31985000Y49386072D01*
X32023095Y49347977D01*
X32099285Y49309881D01*
X32175476Y49309881D01*
X32251666Y49347977D01*
X32289761Y49386072D01*
X32327857Y49462262D01*
X32327857Y49728929D01*
X32213571Y48586072D02*
X32746904Y48586072D01*
X31908809Y48776548D02*
X32480238Y48967024D01*
X32480238Y48471786D01*
X62465000Y11451072D02*
X62426904Y11527262D01*
X62426904Y11641548D01*
X62465000Y11755834D01*
X62541190Y11832024D01*
X62617380Y11870120D01*
X62769761Y11908215D01*
X62884047Y11908215D01*
X63036428Y11870120D01*
X63112619Y11832024D01*
X63188809Y11755834D01*
X63226904Y11641548D01*
X63226904Y11565358D01*
X63188809Y11451072D01*
X63150714Y11412977D01*
X62884047Y11412977D01*
X62884047Y11565358D01*
X63226904Y11070120D02*
X62426904Y11070120D01*
X63226904Y10612977D01*
X62426904Y10612977D01*
X63226904Y10232024D02*
X62426904Y10232024D01*
X62426904Y10041548D01*
X62465000Y9927262D01*
X62541190Y9851072D01*
X62617380Y9812977D01*
X62769761Y9774881D01*
X62884047Y9774881D01*
X63036428Y9812977D01*
X63112619Y9851072D01*
X63188809Y9927262D01*
X63226904Y10041548D01*
X63226904Y10232024D01*
X47986904Y12555834D02*
X47186904Y12555834D01*
X47186904Y12251072D01*
X47225000Y12174881D01*
X47263095Y12136786D01*
X47339285Y12098691D01*
X47453571Y12098691D01*
X47529761Y12136786D01*
X47567857Y12174881D01*
X47605952Y12251072D01*
X47605952Y12555834D01*
X47567857Y11489167D02*
X47605952Y11374881D01*
X47644047Y11336786D01*
X47720238Y11298691D01*
X47834523Y11298691D01*
X47910714Y11336786D01*
X47948809Y11374881D01*
X47986904Y11451072D01*
X47986904Y11755834D01*
X47186904Y11755834D01*
X47186904Y11489167D01*
X47225000Y11412977D01*
X47263095Y11374881D01*
X47339285Y11336786D01*
X47415476Y11336786D01*
X47491666Y11374881D01*
X47529761Y11412977D01*
X47567857Y11489167D01*
X47567857Y11755834D01*
X47986904Y10536786D02*
X47986904Y10993929D01*
X47986904Y10765358D02*
X47186904Y10765358D01*
X47301190Y10841548D01*
X47377380Y10917739D01*
X47415476Y10993929D01*
X47186904Y9812977D02*
X47186904Y10193929D01*
X47567857Y10232024D01*
X47529761Y10193929D01*
X47491666Y10117739D01*
X47491666Y9927262D01*
X47529761Y9851072D01*
X47567857Y9812977D01*
X47644047Y9774881D01*
X47834523Y9774881D01*
X47910714Y9812977D01*
X47948809Y9851072D01*
X47986904Y9927262D01*
X47986904Y10117739D01*
X47948809Y10193929D01*
X47910714Y10232024D01*
X20046904Y3522024D02*
X19246904Y3522024D01*
X19246904Y3217262D01*
X19285000Y3141072D01*
X19323095Y3102977D01*
X19399285Y3064881D01*
X19513571Y3064881D01*
X19589761Y3102977D01*
X19627857Y3141072D01*
X19665952Y3217262D01*
X19665952Y3522024D01*
X19970714Y2264881D02*
X20008809Y2302977D01*
X20046904Y2417262D01*
X20046904Y2493453D01*
X20008809Y2607739D01*
X19932619Y2683929D01*
X19856428Y2722024D01*
X19704047Y2760120D01*
X19589761Y2760120D01*
X19437380Y2722024D01*
X19361190Y2683929D01*
X19285000Y2607739D01*
X19246904Y2493453D01*
X19246904Y2417262D01*
X19285000Y2302977D01*
X19323095Y2264881D01*
X19246904Y1769643D02*
X19246904Y1693453D01*
X19285000Y1617262D01*
X19323095Y1579167D01*
X19399285Y1541072D01*
X19551666Y1502977D01*
X19742142Y1502977D01*
X19894523Y1541072D01*
X19970714Y1579167D01*
X20008809Y1617262D01*
X20046904Y1693453D01*
X20046904Y1769643D01*
X20008809Y1845834D01*
X19970714Y1883929D01*
X19894523Y1922024D01*
X19742142Y1960120D01*
X19551666Y1960120D01*
X19399285Y1922024D01*
X19323095Y1883929D01*
X19285000Y1845834D01*
X19246904Y1769643D01*
X53066904Y3522024D02*
X52266904Y3522024D01*
X52266904Y3217262D01*
X52305000Y3141072D01*
X52343095Y3102977D01*
X52419285Y3064881D01*
X52533571Y3064881D01*
X52609761Y3102977D01*
X52647857Y3141072D01*
X52685952Y3217262D01*
X52685952Y3522024D01*
X52990714Y2264881D02*
X53028809Y2302977D01*
X53066904Y2417262D01*
X53066904Y2493453D01*
X53028809Y2607739D01*
X52952619Y2683929D01*
X52876428Y2722024D01*
X52724047Y2760120D01*
X52609761Y2760120D01*
X52457380Y2722024D01*
X52381190Y2683929D01*
X52305000Y2607739D01*
X52266904Y2493453D01*
X52266904Y2417262D01*
X52305000Y2302977D01*
X52343095Y2264881D01*
X52609761Y1807739D02*
X52571666Y1883929D01*
X52533571Y1922024D01*
X52457380Y1960120D01*
X52419285Y1960120D01*
X52343095Y1922024D01*
X52305000Y1883929D01*
X52266904Y1807739D01*
X52266904Y1655358D01*
X52305000Y1579167D01*
X52343095Y1541072D01*
X52419285Y1502977D01*
X52457380Y1502977D01*
X52533571Y1541072D01*
X52571666Y1579167D01*
X52609761Y1655358D01*
X52609761Y1807739D01*
X52647857Y1883929D01*
X52685952Y1922024D01*
X52762142Y1960120D01*
X52914523Y1960120D01*
X52990714Y1922024D01*
X53028809Y1883929D01*
X53066904Y1807739D01*
X53066904Y1655358D01*
X53028809Y1579167D01*
X52990714Y1541072D01*
X52914523Y1502977D01*
X52762142Y1502977D01*
X52685952Y1541072D01*
X52647857Y1579167D01*
X52609761Y1655358D01*
X57346904Y50528929D02*
X57994523Y50528929D01*
X58070714Y50490834D01*
X58108809Y50452739D01*
X58146904Y50376548D01*
X58146904Y50224167D01*
X58108809Y50147977D01*
X58070714Y50109881D01*
X57994523Y50071786D01*
X57346904Y50071786D01*
X58146904Y49271786D02*
X58146904Y49728929D01*
X58146904Y49500358D02*
X57346904Y49500358D01*
X57461190Y49576548D01*
X57537380Y49652739D01*
X57575476Y49728929D01*
X57346904Y48547977D02*
X57346904Y48928929D01*
X57727857Y48967024D01*
X57689761Y48928929D01*
X57651666Y48852739D01*
X57651666Y48662262D01*
X57689761Y48586072D01*
X57727857Y48547977D01*
X57804047Y48509881D01*
X57994523Y48509881D01*
X58070714Y48547977D01*
X58108809Y48586072D01*
X58146904Y48662262D01*
X58146904Y48852739D01*
X58108809Y48928929D01*
X58070714Y48967024D01*
X30206904Y3522024D02*
X29406904Y3522024D01*
X29406904Y3217262D01*
X29445000Y3141072D01*
X29483095Y3102977D01*
X29559285Y3064881D01*
X29673571Y3064881D01*
X29749761Y3102977D01*
X29787857Y3141072D01*
X29825952Y3217262D01*
X29825952Y3522024D01*
X29978333Y2760120D02*
X29978333Y2379167D01*
X30206904Y2836310D02*
X29406904Y2569643D01*
X30206904Y2302977D01*
X29673571Y1693453D02*
X30206904Y1693453D01*
X29368809Y1883929D02*
X29940238Y2074405D01*
X29940238Y1579167D01*
X17087857Y3255358D02*
X17125952Y3141072D01*
X17164047Y3102977D01*
X17240238Y3064881D01*
X17354523Y3064881D01*
X17430714Y3102977D01*
X17468809Y3141072D01*
X17506904Y3217262D01*
X17506904Y3522024D01*
X16706904Y3522024D01*
X16706904Y3255358D01*
X16745000Y3179167D01*
X16783095Y3141072D01*
X16859285Y3102977D01*
X16935476Y3102977D01*
X17011666Y3141072D01*
X17049761Y3179167D01*
X17087857Y3255358D01*
X17087857Y3522024D01*
X16706904Y2569643D02*
X16706904Y2417262D01*
X16745000Y2341072D01*
X16821190Y2264881D01*
X16973571Y2226786D01*
X17240238Y2226786D01*
X17392619Y2264881D01*
X17468809Y2341072D01*
X17506904Y2417262D01*
X17506904Y2569643D01*
X17468809Y2645834D01*
X17392619Y2722024D01*
X17240238Y2760120D01*
X16973571Y2760120D01*
X16821190Y2722024D01*
X16745000Y2645834D01*
X16706904Y2569643D01*
X16706904Y1731548D02*
X16706904Y1655358D01*
X16745000Y1579167D01*
X16783095Y1541072D01*
X16859285Y1502977D01*
X17011666Y1464881D01*
X17202142Y1464881D01*
X17354523Y1502977D01*
X17430714Y1541072D01*
X17468809Y1579167D01*
X17506904Y1655358D01*
X17506904Y1731548D01*
X17468809Y1807739D01*
X17430714Y1845834D01*
X17354523Y1883929D01*
X17202142Y1922024D01*
X17011666Y1922024D01*
X16859285Y1883929D01*
X16783095Y1845834D01*
X16745000Y1807739D01*
X16706904Y1731548D01*
X35286904Y41622024D02*
X34486904Y41622024D01*
X34486904Y41317262D01*
X34525000Y41241072D01*
X34563095Y41202977D01*
X34639285Y41164881D01*
X34753571Y41164881D01*
X34829761Y41202977D01*
X34867857Y41241072D01*
X34905952Y41317262D01*
X34905952Y41622024D01*
X34867857Y40555358D02*
X34905952Y40441072D01*
X34944047Y40402977D01*
X35020238Y40364881D01*
X35134523Y40364881D01*
X35210714Y40402977D01*
X35248809Y40441072D01*
X35286904Y40517262D01*
X35286904Y40822024D01*
X34486904Y40822024D01*
X34486904Y40555358D01*
X34525000Y40479167D01*
X34563095Y40441072D01*
X34639285Y40402977D01*
X34715476Y40402977D01*
X34791666Y40441072D01*
X34829761Y40479167D01*
X34867857Y40555358D01*
X34867857Y40822024D01*
X34486904Y40098215D02*
X34486904Y39602977D01*
X34791666Y39869643D01*
X34791666Y39755358D01*
X34829761Y39679167D01*
X34867857Y39641072D01*
X34944047Y39602977D01*
X35134523Y39602977D01*
X35210714Y39641072D01*
X35248809Y39679167D01*
X35286904Y39755358D01*
X35286904Y39983929D01*
X35248809Y40060120D01*
X35210714Y40098215D01*
X59886904Y3598215D02*
X59886904Y3102977D01*
X60191666Y3369643D01*
X60191666Y3255358D01*
X60229761Y3179167D01*
X60267857Y3141072D01*
X60344047Y3102977D01*
X60534523Y3102977D01*
X60610714Y3141072D01*
X60648809Y3179167D01*
X60686904Y3255358D01*
X60686904Y3483929D01*
X60648809Y3560120D01*
X60610714Y3598215D01*
X60610714Y2760120D02*
X60648809Y2722024D01*
X60686904Y2760120D01*
X60648809Y2798215D01*
X60610714Y2760120D01*
X60686904Y2760120D01*
X59886904Y2455358D02*
X59886904Y1960120D01*
X60191666Y2226786D01*
X60191666Y2112500D01*
X60229761Y2036310D01*
X60267857Y1998215D01*
X60344047Y1960120D01*
X60534523Y1960120D01*
X60610714Y1998215D01*
X60648809Y2036310D01*
X60686904Y2112500D01*
X60686904Y2341072D01*
X60648809Y2417262D01*
X60610714Y2455358D01*
X59886904Y1731548D02*
X60686904Y1464881D01*
X59886904Y1198215D01*
X59886904Y50833691D02*
X59886904Y50338453D01*
X60191666Y50605120D01*
X60191666Y50490834D01*
X60229761Y50414643D01*
X60267857Y50376548D01*
X60344047Y50338453D01*
X60534523Y50338453D01*
X60610714Y50376548D01*
X60648809Y50414643D01*
X60686904Y50490834D01*
X60686904Y50719405D01*
X60648809Y50795596D01*
X60610714Y50833691D01*
X60610714Y49995596D02*
X60648809Y49957500D01*
X60686904Y49995596D01*
X60648809Y50033691D01*
X60610714Y49995596D01*
X60686904Y49995596D01*
X59886904Y49690834D02*
X59886904Y49195596D01*
X60191666Y49462262D01*
X60191666Y49347977D01*
X60229761Y49271786D01*
X60267857Y49233691D01*
X60344047Y49195596D01*
X60534523Y49195596D01*
X60610714Y49233691D01*
X60648809Y49271786D01*
X60686904Y49347977D01*
X60686904Y49576548D01*
X60648809Y49652739D01*
X60610714Y49690834D01*
X59886904Y48967024D02*
X60686904Y48700358D01*
X59886904Y48433691D01*
X53066904Y41622024D02*
X52266904Y41622024D01*
X52266904Y41317262D01*
X52305000Y41241072D01*
X52343095Y41202977D01*
X52419285Y41164881D01*
X52533571Y41164881D01*
X52609761Y41202977D01*
X52647857Y41241072D01*
X52685952Y41317262D01*
X52685952Y41622024D01*
X52838333Y40860120D02*
X52838333Y40479167D01*
X53066904Y40936310D02*
X52266904Y40669643D01*
X53066904Y40402977D01*
X53066904Y40098215D02*
X53066904Y39945834D01*
X53028809Y39869643D01*
X52990714Y39831548D01*
X52876428Y39755358D01*
X52724047Y39717262D01*
X52419285Y39717262D01*
X52343095Y39755358D01*
X52305000Y39793453D01*
X52266904Y39869643D01*
X52266904Y40022024D01*
X52305000Y40098215D01*
X52343095Y40136310D01*
X52419285Y40174405D01*
X52609761Y40174405D01*
X52685952Y40136310D01*
X52724047Y40098215D01*
X52762142Y40022024D01*
X52762142Y39869643D01*
X52724047Y39793453D01*
X52685952Y39755358D01*
X52609761Y39717262D01*
X57346904Y41622024D02*
X57994523Y41622024D01*
X58070714Y41583929D01*
X58108809Y41545834D01*
X58146904Y41469643D01*
X58146904Y41317262D01*
X58108809Y41241072D01*
X58070714Y41202977D01*
X57994523Y41164881D01*
X57346904Y41164881D01*
X58146904Y40364881D02*
X58146904Y40822024D01*
X58146904Y40593453D02*
X57346904Y40593453D01*
X57461190Y40669643D01*
X57537380Y40745834D01*
X57575476Y40822024D01*
X57346904Y39679167D02*
X57346904Y39831548D01*
X57385000Y39907739D01*
X57423095Y39945834D01*
X57537380Y40022024D01*
X57689761Y40060120D01*
X57994523Y40060120D01*
X58070714Y40022024D01*
X58108809Y39983929D01*
X58146904Y39907739D01*
X58146904Y39755358D01*
X58108809Y39679167D01*
X58070714Y39641072D01*
X57994523Y39602977D01*
X57804047Y39602977D01*
X57727857Y39641072D01*
X57689761Y39679167D01*
X57651666Y39755358D01*
X57651666Y39907739D01*
X57689761Y39983929D01*
X57727857Y40022024D01*
X57804047Y40060120D01*
X50526904Y3522024D02*
X49726904Y3522024D01*
X49726904Y3217262D01*
X49765000Y3141072D01*
X49803095Y3102977D01*
X49879285Y3064881D01*
X49993571Y3064881D01*
X50069761Y3102977D01*
X50107857Y3141072D01*
X50145952Y3217262D01*
X50145952Y3522024D01*
X50450714Y2264881D02*
X50488809Y2302977D01*
X50526904Y2417262D01*
X50526904Y2493453D01*
X50488809Y2607739D01*
X50412619Y2683929D01*
X50336428Y2722024D01*
X50184047Y2760120D01*
X50069761Y2760120D01*
X49917380Y2722024D01*
X49841190Y2683929D01*
X49765000Y2607739D01*
X49726904Y2493453D01*
X49726904Y2417262D01*
X49765000Y2302977D01*
X49803095Y2264881D01*
X49726904Y1579167D02*
X49726904Y1731548D01*
X49765000Y1807739D01*
X49803095Y1845834D01*
X49917380Y1922024D01*
X50069761Y1960120D01*
X50374523Y1960120D01*
X50450714Y1922024D01*
X50488809Y1883929D01*
X50526904Y1807739D01*
X50526904Y1655358D01*
X50488809Y1579167D01*
X50450714Y1541072D01*
X50374523Y1502977D01*
X50184047Y1502977D01*
X50107857Y1541072D01*
X50069761Y1579167D01*
X50031666Y1655358D01*
X50031666Y1807739D01*
X50069761Y1883929D01*
X50107857Y1922024D01*
X50184047Y1960120D01*
X59925000Y11451072D02*
X59886904Y11527262D01*
X59886904Y11641548D01*
X59925000Y11755834D01*
X60001190Y11832024D01*
X60077380Y11870120D01*
X60229761Y11908215D01*
X60344047Y11908215D01*
X60496428Y11870120D01*
X60572619Y11832024D01*
X60648809Y11755834D01*
X60686904Y11641548D01*
X60686904Y11565358D01*
X60648809Y11451072D01*
X60610714Y11412977D01*
X60344047Y11412977D01*
X60344047Y11565358D01*
X60686904Y11070120D02*
X59886904Y11070120D01*
X60686904Y10612977D01*
X59886904Y10612977D01*
X60686904Y10232024D02*
X59886904Y10232024D01*
X59886904Y10041548D01*
X59925000Y9927262D01*
X60001190Y9851072D01*
X60077380Y9812977D01*
X60229761Y9774881D01*
X60344047Y9774881D01*
X60496428Y9812977D01*
X60572619Y9851072D01*
X60648809Y9927262D01*
X60686904Y10041548D01*
X60686904Y10232024D01*
X14166904Y50833691D02*
X14166904Y50338453D01*
X14471666Y50605120D01*
X14471666Y50490834D01*
X14509761Y50414643D01*
X14547857Y50376548D01*
X14624047Y50338453D01*
X14814523Y50338453D01*
X14890714Y50376548D01*
X14928809Y50414643D01*
X14966904Y50490834D01*
X14966904Y50719405D01*
X14928809Y50795596D01*
X14890714Y50833691D01*
X14890714Y49995596D02*
X14928809Y49957500D01*
X14966904Y49995596D01*
X14928809Y50033691D01*
X14890714Y49995596D01*
X14966904Y49995596D01*
X14166904Y49690834D02*
X14166904Y49195596D01*
X14471666Y49462262D01*
X14471666Y49347977D01*
X14509761Y49271786D01*
X14547857Y49233691D01*
X14624047Y49195596D01*
X14814523Y49195596D01*
X14890714Y49233691D01*
X14928809Y49271786D01*
X14966904Y49347977D01*
X14966904Y49576548D01*
X14928809Y49652739D01*
X14890714Y49690834D01*
X14166904Y48967024D02*
X14966904Y48700358D01*
X14166904Y48433691D01*
X42106904Y50528929D02*
X42754523Y50528929D01*
X42830714Y50490834D01*
X42868809Y50452739D01*
X42906904Y50376548D01*
X42906904Y50224167D01*
X42868809Y50147977D01*
X42830714Y50109881D01*
X42754523Y50071786D01*
X42106904Y50071786D01*
X42906904Y49271786D02*
X42906904Y49728929D01*
X42906904Y49500358D02*
X42106904Y49500358D01*
X42221190Y49576548D01*
X42297380Y49652739D01*
X42335476Y49728929D01*
X42906904Y48509881D02*
X42906904Y48967024D01*
X42906904Y48738453D02*
X42106904Y48738453D01*
X42221190Y48814643D01*
X42297380Y48890834D01*
X42335476Y48967024D01*
X40366904Y51290834D02*
X39566904Y51290834D01*
X39566904Y50986072D01*
X39605000Y50909881D01*
X39643095Y50871786D01*
X39719285Y50833691D01*
X39833571Y50833691D01*
X39909761Y50871786D01*
X39947857Y50909881D01*
X39985952Y50986072D01*
X39985952Y51290834D01*
X40290714Y50033691D02*
X40328809Y50071786D01*
X40366904Y50186072D01*
X40366904Y50262262D01*
X40328809Y50376548D01*
X40252619Y50452739D01*
X40176428Y50490834D01*
X40024047Y50528929D01*
X39909761Y50528929D01*
X39757380Y50490834D01*
X39681190Y50452739D01*
X39605000Y50376548D01*
X39566904Y50262262D01*
X39566904Y50186072D01*
X39605000Y50071786D01*
X39643095Y50033691D01*
X40366904Y49271786D02*
X40366904Y49728929D01*
X40366904Y49500358D02*
X39566904Y49500358D01*
X39681190Y49576548D01*
X39757380Y49652739D01*
X39795476Y49728929D01*
X39566904Y48776548D02*
X39566904Y48700358D01*
X39605000Y48624167D01*
X39643095Y48586072D01*
X39719285Y48547977D01*
X39871666Y48509881D01*
X40062142Y48509881D01*
X40214523Y48547977D01*
X40290714Y48586072D01*
X40328809Y48624167D01*
X40366904Y48700358D01*
X40366904Y48776548D01*
X40328809Y48852739D01*
X40290714Y48890834D01*
X40214523Y48928929D01*
X40062142Y48967024D01*
X39871666Y48967024D01*
X39719285Y48928929D01*
X39643095Y48890834D01*
X39605000Y48852739D01*
X39566904Y48776548D01*
X32746904Y11679643D02*
X31946904Y11679643D01*
X31946904Y11374881D01*
X31985000Y11298691D01*
X32023095Y11260596D01*
X32099285Y11222500D01*
X32213571Y11222500D01*
X32289761Y11260596D01*
X32327857Y11298691D01*
X32365952Y11374881D01*
X32365952Y11679643D01*
X32518333Y10917739D02*
X32518333Y10536786D01*
X32746904Y10993929D02*
X31946904Y10727262D01*
X32746904Y10460596D01*
X31946904Y10270120D02*
X31946904Y9736786D01*
X32746904Y10079643D01*
X50526904Y41622024D02*
X49726904Y41622024D01*
X49726904Y41317262D01*
X49765000Y41241072D01*
X49803095Y41202977D01*
X49879285Y41164881D01*
X49993571Y41164881D01*
X50069761Y41202977D01*
X50107857Y41241072D01*
X50145952Y41317262D01*
X50145952Y41622024D01*
X50298333Y40860120D02*
X50298333Y40479167D01*
X50526904Y40936310D02*
X49726904Y40669643D01*
X50526904Y40402977D01*
X50526904Y39717262D02*
X50526904Y40174405D01*
X50526904Y39945834D02*
X49726904Y39945834D01*
X49841190Y40022024D01*
X49917380Y40098215D01*
X49955476Y40174405D01*
X50526904Y38955358D02*
X50526904Y39412500D01*
X50526904Y39183929D02*
X49726904Y39183929D01*
X49841190Y39260120D01*
X49917380Y39336310D01*
X49955476Y39412500D01*
X45446904Y51176548D02*
X44646904Y51176548D01*
X44646904Y50871786D01*
X44685000Y50795596D01*
X44723095Y50757500D01*
X44799285Y50719405D01*
X44913571Y50719405D01*
X44989761Y50757500D01*
X45027857Y50795596D01*
X45065952Y50871786D01*
X45065952Y51176548D01*
X45218333Y50414643D02*
X45218333Y50033691D01*
X45446904Y50490834D02*
X44646904Y50224167D01*
X45446904Y49957500D01*
X45446904Y49271786D02*
X45446904Y49728929D01*
X45446904Y49500358D02*
X44646904Y49500358D01*
X44761190Y49576548D01*
X44837380Y49652739D01*
X44875476Y49728929D01*
X44913571Y48586072D02*
X45446904Y48586072D01*
X44608809Y48776548D02*
X45180238Y48967024D01*
X45180238Y48471786D01*
X45446904Y3522024D02*
X44646904Y3522024D01*
X44646904Y3217262D01*
X44685000Y3141072D01*
X44723095Y3102977D01*
X44799285Y3064881D01*
X44913571Y3064881D01*
X44989761Y3102977D01*
X45027857Y3141072D01*
X45065952Y3217262D01*
X45065952Y3522024D01*
X45027857Y2455358D02*
X45065952Y2341072D01*
X45104047Y2302977D01*
X45180238Y2264881D01*
X45294523Y2264881D01*
X45370714Y2302977D01*
X45408809Y2341072D01*
X45446904Y2417262D01*
X45446904Y2722024D01*
X44646904Y2722024D01*
X44646904Y2455358D01*
X44685000Y2379167D01*
X44723095Y2341072D01*
X44799285Y2302977D01*
X44875476Y2302977D01*
X44951666Y2341072D01*
X44989761Y2379167D01*
X45027857Y2455358D01*
X45027857Y2722024D01*
X45446904Y1502977D02*
X45446904Y1960120D01*
X45446904Y1731548D02*
X44646904Y1731548D01*
X44761190Y1807739D01*
X44837380Y1883929D01*
X44875476Y1960120D01*
X44723095Y1198215D02*
X44685000Y1160120D01*
X44646904Y1083929D01*
X44646904Y893453D01*
X44685000Y817262D01*
X44723095Y779167D01*
X44799285Y741072D01*
X44875476Y741072D01*
X44989761Y779167D01*
X45446904Y1236310D01*
X45446904Y741072D01*
X35286904Y3522024D02*
X34486904Y3522024D01*
X34486904Y3217262D01*
X34525000Y3141072D01*
X34563095Y3102977D01*
X34639285Y3064881D01*
X34753571Y3064881D01*
X34829761Y3102977D01*
X34867857Y3141072D01*
X34905952Y3217262D01*
X34905952Y3522024D01*
X35210714Y2264881D02*
X35248809Y2302977D01*
X35286904Y2417262D01*
X35286904Y2493453D01*
X35248809Y2607739D01*
X35172619Y2683929D01*
X35096428Y2722024D01*
X34944047Y2760120D01*
X34829761Y2760120D01*
X34677380Y2722024D01*
X34601190Y2683929D01*
X34525000Y2607739D01*
X34486904Y2493453D01*
X34486904Y2417262D01*
X34525000Y2302977D01*
X34563095Y2264881D01*
X34753571Y1579167D02*
X35286904Y1579167D01*
X34448809Y1769643D02*
X35020238Y1960120D01*
X35020238Y1464881D01*
X54806904Y3522024D02*
X55454523Y3522024D01*
X55530714Y3483929D01*
X55568809Y3445834D01*
X55606904Y3369643D01*
X55606904Y3217262D01*
X55568809Y3141072D01*
X55530714Y3102977D01*
X55454523Y3064881D01*
X54806904Y3064881D01*
X55606904Y2264881D02*
X55606904Y2722024D01*
X55606904Y2493453D02*
X54806904Y2493453D01*
X54921190Y2569643D01*
X54997380Y2645834D01*
X55035476Y2722024D01*
X47986904Y41622024D02*
X47186904Y41622024D01*
X47186904Y41317262D01*
X47225000Y41241072D01*
X47263095Y41202977D01*
X47339285Y41164881D01*
X47453571Y41164881D01*
X47529761Y41202977D01*
X47567857Y41241072D01*
X47605952Y41317262D01*
X47605952Y41622024D01*
X47758333Y40860120D02*
X47758333Y40479167D01*
X47986904Y40936310D02*
X47186904Y40669643D01*
X47986904Y40402977D01*
X47986904Y39717262D02*
X47986904Y40174405D01*
X47986904Y39945834D02*
X47186904Y39945834D01*
X47301190Y40022024D01*
X47377380Y40098215D01*
X47415476Y40174405D01*
X47186904Y39450596D02*
X47186904Y38955358D01*
X47491666Y39222024D01*
X47491666Y39107739D01*
X47529761Y39031548D01*
X47567857Y38993453D01*
X47644047Y38955358D01*
X47834523Y38955358D01*
X47910714Y38993453D01*
X47948809Y39031548D01*
X47986904Y39107739D01*
X47986904Y39336310D01*
X47948809Y39412500D01*
X47910714Y39450596D01*
X14166904Y3598215D02*
X14166904Y3102977D01*
X14471666Y3369643D01*
X14471666Y3255358D01*
X14509761Y3179167D01*
X14547857Y3141072D01*
X14624047Y3102977D01*
X14814523Y3102977D01*
X14890714Y3141072D01*
X14928809Y3179167D01*
X14966904Y3255358D01*
X14966904Y3483929D01*
X14928809Y3560120D01*
X14890714Y3598215D01*
X14890714Y2760120D02*
X14928809Y2722024D01*
X14966904Y2760120D01*
X14928809Y2798215D01*
X14890714Y2760120D01*
X14966904Y2760120D01*
X14166904Y2455358D02*
X14166904Y1960120D01*
X14471666Y2226786D01*
X14471666Y2112500D01*
X14509761Y2036310D01*
X14547857Y1998215D01*
X14624047Y1960120D01*
X14814523Y1960120D01*
X14890714Y1998215D01*
X14928809Y2036310D01*
X14966904Y2112500D01*
X14966904Y2341072D01*
X14928809Y2417262D01*
X14890714Y2455358D01*
X14166904Y1731548D02*
X14966904Y1464881D01*
X14166904Y1198215D01*
X37826904Y51290834D02*
X37026904Y51290834D01*
X37026904Y50986072D01*
X37065000Y50909881D01*
X37103095Y50871786D01*
X37179285Y50833691D01*
X37293571Y50833691D01*
X37369761Y50871786D01*
X37407857Y50909881D01*
X37445952Y50986072D01*
X37445952Y51290834D01*
X37750714Y50033691D02*
X37788809Y50071786D01*
X37826904Y50186072D01*
X37826904Y50262262D01*
X37788809Y50376548D01*
X37712619Y50452739D01*
X37636428Y50490834D01*
X37484047Y50528929D01*
X37369761Y50528929D01*
X37217380Y50490834D01*
X37141190Y50452739D01*
X37065000Y50376548D01*
X37026904Y50262262D01*
X37026904Y50186072D01*
X37065000Y50071786D01*
X37103095Y50033691D01*
X37826904Y49271786D02*
X37826904Y49728929D01*
X37826904Y49500358D02*
X37026904Y49500358D01*
X37141190Y49576548D01*
X37217380Y49652739D01*
X37255476Y49728929D01*
X37103095Y48967024D02*
X37065000Y48928929D01*
X37026904Y48852739D01*
X37026904Y48662262D01*
X37065000Y48586072D01*
X37103095Y48547977D01*
X37179285Y48509881D01*
X37255476Y48509881D01*
X37369761Y48547977D01*
X37826904Y49005120D01*
X37826904Y48509881D01*
X17506904Y12441548D02*
X16706904Y12441548D01*
X17506904Y11984405D01*
X16706904Y11984405D01*
X17506904Y11146310D02*
X17125952Y11412977D01*
X17506904Y11603453D02*
X16706904Y11603453D01*
X16706904Y11298691D01*
X16745000Y11222500D01*
X16783095Y11184405D01*
X16859285Y11146310D01*
X16973571Y11146310D01*
X17049761Y11184405D01*
X17087857Y11222500D01*
X17125952Y11298691D01*
X17125952Y11603453D01*
X17468809Y10841548D02*
X17506904Y10727262D01*
X17506904Y10536786D01*
X17468809Y10460596D01*
X17430714Y10422500D01*
X17354523Y10384405D01*
X17278333Y10384405D01*
X17202142Y10422500D01*
X17164047Y10460596D01*
X17125952Y10536786D01*
X17087857Y10689167D01*
X17049761Y10765358D01*
X17011666Y10803453D01*
X16935476Y10841548D01*
X16859285Y10841548D01*
X16783095Y10803453D01*
X16745000Y10765358D01*
X16706904Y10689167D01*
X16706904Y10498691D01*
X16745000Y10384405D01*
X16706904Y10155834D02*
X16706904Y9698691D01*
X17506904Y9927262D02*
X16706904Y9927262D01*
X3627380Y43479405D02*
X2627380Y43479405D01*
X2627380Y43098453D01*
X2675000Y43003215D01*
X2722619Y42955596D01*
X2817857Y42907977D01*
X2960714Y42907977D01*
X3055952Y42955596D01*
X3103571Y43003215D01*
X3151190Y43098453D01*
X3151190Y43479405D01*
X3627380Y41907977D02*
X3151190Y42241310D01*
X3627380Y42479405D02*
X2627380Y42479405D01*
X2627380Y42098453D01*
X2675000Y42003215D01*
X2722619Y41955596D01*
X2817857Y41907977D01*
X2960714Y41907977D01*
X3055952Y41955596D01*
X3103571Y42003215D01*
X3151190Y42098453D01*
X3151190Y42479405D01*
X2675000Y40955596D02*
X2627380Y41050834D01*
X2627380Y41193691D01*
X2675000Y41336548D01*
X2770238Y41431786D01*
X2865476Y41479405D01*
X3055952Y41527024D01*
X3198809Y41527024D01*
X3389285Y41479405D01*
X3484523Y41431786D01*
X3579761Y41336548D01*
X3627380Y41193691D01*
X3627380Y41098453D01*
X3579761Y40955596D01*
X3532142Y40907977D01*
X3198809Y40907977D01*
X3198809Y41098453D01*
X3579761Y40527024D02*
X3627380Y40384167D01*
X3627380Y40146072D01*
X3579761Y40050834D01*
X3532142Y40003215D01*
X3436904Y39955596D01*
X3341666Y39955596D01*
X3246428Y40003215D01*
X3198809Y40050834D01*
X3151190Y40146072D01*
X3103571Y40336548D01*
X3055952Y40431786D01*
X3008333Y40479405D01*
X2913095Y40527024D01*
X2817857Y40527024D01*
X2722619Y40479405D01*
X2675000Y40431786D01*
X2627380Y40336548D01*
X2627380Y40098453D01*
X2675000Y39955596D01*
X2627380Y39669881D02*
X2627380Y39098453D01*
X3627380Y39384167D02*
X2627380Y39384167D01*
X3627380Y38288929D02*
X3627380Y38765120D01*
X2627380Y38765120D01*
X3627380Y37193691D02*
X2960714Y37193691D01*
X3151190Y37193691D02*
X3055952Y37146072D01*
X3008333Y37098453D01*
X2960714Y37003215D01*
X2960714Y36907977D01*
X3579761Y36193691D02*
X3627380Y36288929D01*
X3627380Y36479405D01*
X3579761Y36574643D01*
X3484523Y36622262D01*
X3103571Y36622262D01*
X3008333Y36574643D01*
X2960714Y36479405D01*
X2960714Y36288929D01*
X3008333Y36193691D01*
X3103571Y36146072D01*
X3198809Y36146072D01*
X3294047Y36622262D01*
X2960714Y35812739D02*
X3627380Y35574643D01*
X2960714Y35336548D01*
X3532142Y34955596D02*
X3579761Y34907977D01*
X3627380Y34955596D01*
X3579761Y35003215D01*
X3532142Y34955596D01*
X3627380Y34955596D01*
X3627380Y33288929D02*
X3103571Y33288929D01*
X3008333Y33336548D01*
X2960714Y33431786D01*
X2960714Y33622262D01*
X3008333Y33717500D01*
X3579761Y33288929D02*
X3627380Y33384167D01*
X3627380Y33622262D01*
X3579761Y33717500D01*
X3484523Y33765120D01*
X3389285Y33765120D01*
X3294047Y33717500D01*
X3246428Y33622262D01*
X3246428Y33384167D01*
X3198809Y33288929D01*
X53066904Y11793929D02*
X52266904Y11793929D01*
X52266904Y11489167D01*
X52305000Y11412977D01*
X52343095Y11374881D01*
X52419285Y11336786D01*
X52533571Y11336786D01*
X52609761Y11374881D01*
X52647857Y11412977D01*
X52685952Y11489167D01*
X52685952Y11793929D01*
X52990714Y10536786D02*
X53028809Y10574881D01*
X53066904Y10689167D01*
X53066904Y10765358D01*
X53028809Y10879643D01*
X52952619Y10955834D01*
X52876428Y10993929D01*
X52724047Y11032024D01*
X52609761Y11032024D01*
X52457380Y10993929D01*
X52381190Y10955834D01*
X52305000Y10879643D01*
X52266904Y10765358D01*
X52266904Y10689167D01*
X52305000Y10574881D01*
X52343095Y10536786D01*
X53066904Y10155834D02*
X53066904Y10003453D01*
X53028809Y9927262D01*
X52990714Y9889167D01*
X52876428Y9812977D01*
X52724047Y9774881D01*
X52419285Y9774881D01*
X52343095Y9812977D01*
X52305000Y9851072D01*
X52266904Y9927262D01*
X52266904Y10079643D01*
X52305000Y10155834D01*
X52343095Y10193929D01*
X52419285Y10232024D01*
X52609761Y10232024D01*
X52685952Y10193929D01*
X52724047Y10155834D01*
X52762142Y10079643D01*
X52762142Y9927262D01*
X52724047Y9851072D01*
X52685952Y9812977D01*
X52609761Y9774881D01*
X42906904Y12555834D02*
X42106904Y12555834D01*
X42106904Y12251072D01*
X42145000Y12174881D01*
X42183095Y12136786D01*
X42259285Y12098691D01*
X42373571Y12098691D01*
X42449761Y12136786D01*
X42487857Y12174881D01*
X42525952Y12251072D01*
X42525952Y12555834D01*
X42487857Y11489167D02*
X42525952Y11374881D01*
X42564047Y11336786D01*
X42640238Y11298691D01*
X42754523Y11298691D01*
X42830714Y11336786D01*
X42868809Y11374881D01*
X42906904Y11451072D01*
X42906904Y11755834D01*
X42106904Y11755834D01*
X42106904Y11489167D01*
X42145000Y11412977D01*
X42183095Y11374881D01*
X42259285Y11336786D01*
X42335476Y11336786D01*
X42411666Y11374881D01*
X42449761Y11412977D01*
X42487857Y11489167D01*
X42487857Y11755834D01*
X42906904Y10536786D02*
X42906904Y10993929D01*
X42906904Y10765358D02*
X42106904Y10765358D01*
X42221190Y10841548D01*
X42297380Y10917739D01*
X42335476Y10993929D01*
X42906904Y9774881D02*
X42906904Y10232024D01*
X42906904Y10003453D02*
X42106904Y10003453D01*
X42221190Y10079643D01*
X42297380Y10155834D01*
X42335476Y10232024D01*
X22586904Y3522024D02*
X21786904Y3522024D01*
X21786904Y3217262D01*
X21825000Y3141072D01*
X21863095Y3102977D01*
X21939285Y3064881D01*
X22053571Y3064881D01*
X22129761Y3102977D01*
X22167857Y3141072D01*
X22205952Y3217262D01*
X22205952Y3522024D01*
X22510714Y2264881D02*
X22548809Y2302977D01*
X22586904Y2417262D01*
X22586904Y2493453D01*
X22548809Y2607739D01*
X22472619Y2683929D01*
X22396428Y2722024D01*
X22244047Y2760120D01*
X22129761Y2760120D01*
X21977380Y2722024D01*
X21901190Y2683929D01*
X21825000Y2607739D01*
X21786904Y2493453D01*
X21786904Y2417262D01*
X21825000Y2302977D01*
X21863095Y2264881D01*
X21863095Y1960120D02*
X21825000Y1922024D01*
X21786904Y1845834D01*
X21786904Y1655358D01*
X21825000Y1579167D01*
X21863095Y1541072D01*
X21939285Y1502977D01*
X22015476Y1502977D01*
X22129761Y1541072D01*
X22586904Y1998215D01*
X22586904Y1502977D01*
X45446904Y12555834D02*
X44646904Y12555834D01*
X44646904Y12251072D01*
X44685000Y12174881D01*
X44723095Y12136786D01*
X44799285Y12098691D01*
X44913571Y12098691D01*
X44989761Y12136786D01*
X45027857Y12174881D01*
X45065952Y12251072D01*
X45065952Y12555834D01*
X45027857Y11489167D02*
X45065952Y11374881D01*
X45104047Y11336786D01*
X45180238Y11298691D01*
X45294523Y11298691D01*
X45370714Y11336786D01*
X45408809Y11374881D01*
X45446904Y11451072D01*
X45446904Y11755834D01*
X44646904Y11755834D01*
X44646904Y11489167D01*
X44685000Y11412977D01*
X44723095Y11374881D01*
X44799285Y11336786D01*
X44875476Y11336786D01*
X44951666Y11374881D01*
X44989761Y11412977D01*
X45027857Y11489167D01*
X45027857Y11755834D01*
X45446904Y10536786D02*
X45446904Y10993929D01*
X45446904Y10765358D02*
X44646904Y10765358D01*
X44761190Y10841548D01*
X44837380Y10917739D01*
X44875476Y10993929D01*
X44646904Y10270120D02*
X44646904Y9774881D01*
X44951666Y10041548D01*
X44951666Y9927262D01*
X44989761Y9851072D01*
X45027857Y9812977D01*
X45104047Y9774881D01*
X45294523Y9774881D01*
X45370714Y9812977D01*
X45408809Y9851072D01*
X45446904Y9927262D01*
X45446904Y10155834D01*
X45408809Y10232024D01*
X45370714Y10270120D01*
X39566904Y11032024D02*
X40214523Y11032024D01*
X40290714Y10993929D01*
X40328809Y10955834D01*
X40366904Y10879643D01*
X40366904Y10727262D01*
X40328809Y10651072D01*
X40290714Y10612977D01*
X40214523Y10574881D01*
X39566904Y10574881D01*
X39566904Y10041548D02*
X39566904Y9965358D01*
X39605000Y9889167D01*
X39643095Y9851072D01*
X39719285Y9812977D01*
X39871666Y9774881D01*
X40062142Y9774881D01*
X40214523Y9812977D01*
X40290714Y9851072D01*
X40328809Y9889167D01*
X40366904Y9965358D01*
X40366904Y10041548D01*
X40328809Y10117739D01*
X40290714Y10155834D01*
X40214523Y10193929D01*
X40062142Y10232024D01*
X39871666Y10232024D01*
X39719285Y10193929D01*
X39643095Y10155834D01*
X39605000Y10117739D01*
X39566904Y10041548D01*
X42906904Y3522024D02*
X42106904Y3522024D01*
X42106904Y3217262D01*
X42145000Y3141072D01*
X42183095Y3102977D01*
X42259285Y3064881D01*
X42373571Y3064881D01*
X42449761Y3102977D01*
X42487857Y3141072D01*
X42525952Y3217262D01*
X42525952Y3522024D01*
X42487857Y2455358D02*
X42525952Y2341072D01*
X42564047Y2302977D01*
X42640238Y2264881D01*
X42754523Y2264881D01*
X42830714Y2302977D01*
X42868809Y2341072D01*
X42906904Y2417262D01*
X42906904Y2722024D01*
X42106904Y2722024D01*
X42106904Y2455358D01*
X42145000Y2379167D01*
X42183095Y2341072D01*
X42259285Y2302977D01*
X42335476Y2302977D01*
X42411666Y2341072D01*
X42449761Y2379167D01*
X42487857Y2455358D01*
X42487857Y2722024D01*
X42906904Y1502977D02*
X42906904Y1960120D01*
X42906904Y1731548D02*
X42106904Y1731548D01*
X42221190Y1807739D01*
X42297380Y1883929D01*
X42335476Y1960120D01*
X42106904Y1007739D02*
X42106904Y931548D01*
X42145000Y855358D01*
X42183095Y817262D01*
X42259285Y779167D01*
X42411666Y741072D01*
X42602142Y741072D01*
X42754523Y779167D01*
X42830714Y817262D01*
X42868809Y855358D01*
X42906904Y931548D01*
X42906904Y1007739D01*
X42868809Y1083929D01*
X42830714Y1122024D01*
X42754523Y1160120D01*
X42602142Y1198215D01*
X42411666Y1198215D01*
X42259285Y1160120D01*
X42183095Y1122024D01*
X42145000Y1083929D01*
X42106904Y1007739D01*
X59925000Y41202977D02*
X59886904Y41279167D01*
X59886904Y41393453D01*
X59925000Y41507739D01*
X60001190Y41583929D01*
X60077380Y41622024D01*
X60229761Y41660120D01*
X60344047Y41660120D01*
X60496428Y41622024D01*
X60572619Y41583929D01*
X60648809Y41507739D01*
X60686904Y41393453D01*
X60686904Y41317262D01*
X60648809Y41202977D01*
X60610714Y41164881D01*
X60344047Y41164881D01*
X60344047Y41317262D01*
X60686904Y40822024D02*
X59886904Y40822024D01*
X60686904Y40364881D01*
X59886904Y40364881D01*
X60686904Y39983929D02*
X59886904Y39983929D01*
X59886904Y39793453D01*
X59925000Y39679167D01*
X60001190Y39602977D01*
X60077380Y39564881D01*
X60229761Y39526786D01*
X60344047Y39526786D01*
X60496428Y39564881D01*
X60572619Y39602977D01*
X60648809Y39679167D01*
X60686904Y39793453D01*
X60686904Y39983929D01*
X40366904Y41622024D02*
X39566904Y41622024D01*
X39566904Y41317262D01*
X39605000Y41241072D01*
X39643095Y41202977D01*
X39719285Y41164881D01*
X39833571Y41164881D01*
X39909761Y41202977D01*
X39947857Y41241072D01*
X39985952Y41317262D01*
X39985952Y41622024D01*
X40290714Y40364881D02*
X40328809Y40402977D01*
X40366904Y40517262D01*
X40366904Y40593453D01*
X40328809Y40707739D01*
X40252619Y40783929D01*
X40176428Y40822024D01*
X40024047Y40860120D01*
X39909761Y40860120D01*
X39757380Y40822024D01*
X39681190Y40783929D01*
X39605000Y40707739D01*
X39566904Y40593453D01*
X39566904Y40517262D01*
X39605000Y40402977D01*
X39643095Y40364881D01*
X40366904Y39602977D02*
X40366904Y40060120D01*
X40366904Y39831548D02*
X39566904Y39831548D01*
X39681190Y39907739D01*
X39757380Y39983929D01*
X39795476Y40060120D01*
X40366904Y38841072D02*
X40366904Y39298215D01*
X40366904Y39069643D02*
X39566904Y39069643D01*
X39681190Y39145834D01*
X39757380Y39222024D01*
X39795476Y39298215D01*
X45446904Y41622024D02*
X44646904Y41622024D01*
X44646904Y41317262D01*
X44685000Y41241072D01*
X44723095Y41202977D01*
X44799285Y41164881D01*
X44913571Y41164881D01*
X44989761Y41202977D01*
X45027857Y41241072D01*
X45065952Y41317262D01*
X45065952Y41622024D01*
X45218333Y40860120D02*
X45218333Y40479167D01*
X45446904Y40936310D02*
X44646904Y40669643D01*
X45446904Y40402977D01*
X45446904Y39717262D02*
X45446904Y40174405D01*
X45446904Y39945834D02*
X44646904Y39945834D01*
X44761190Y40022024D01*
X44837380Y40098215D01*
X44875476Y40174405D01*
X44646904Y38993453D02*
X44646904Y39374405D01*
X45027857Y39412500D01*
X44989761Y39374405D01*
X44951666Y39298215D01*
X44951666Y39107739D01*
X44989761Y39031548D01*
X45027857Y38993453D01*
X45104047Y38955358D01*
X45294523Y38955358D01*
X45370714Y38993453D01*
X45408809Y39031548D01*
X45446904Y39107739D01*
X45446904Y39298215D01*
X45408809Y39374405D01*
X45370714Y39412500D01*
X30206904Y41622024D02*
X29406904Y41622024D01*
X29406904Y41317262D01*
X29445000Y41241072D01*
X29483095Y41202977D01*
X29559285Y41164881D01*
X29673571Y41164881D01*
X29749761Y41202977D01*
X29787857Y41241072D01*
X29825952Y41317262D01*
X29825952Y41622024D01*
X29787857Y40555358D02*
X29825952Y40441072D01*
X29864047Y40402977D01*
X29940238Y40364881D01*
X30054523Y40364881D01*
X30130714Y40402977D01*
X30168809Y40441072D01*
X30206904Y40517262D01*
X30206904Y40822024D01*
X29406904Y40822024D01*
X29406904Y40555358D01*
X29445000Y40479167D01*
X29483095Y40441072D01*
X29559285Y40402977D01*
X29635476Y40402977D01*
X29711666Y40441072D01*
X29749761Y40479167D01*
X29787857Y40555358D01*
X29787857Y40822024D01*
X29406904Y40098215D02*
X29406904Y39564881D01*
X30206904Y39907739D01*
X20046904Y41622024D02*
X19246904Y41622024D01*
X19246904Y41317262D01*
X19285000Y41241072D01*
X19323095Y41202977D01*
X19399285Y41164881D01*
X19513571Y41164881D01*
X19589761Y41202977D01*
X19627857Y41241072D01*
X19665952Y41317262D01*
X19665952Y41622024D01*
X19970714Y40364881D02*
X20008809Y40402977D01*
X20046904Y40517262D01*
X20046904Y40593453D01*
X20008809Y40707739D01*
X19932619Y40783929D01*
X19856428Y40822024D01*
X19704047Y40860120D01*
X19589761Y40860120D01*
X19437380Y40822024D01*
X19361190Y40783929D01*
X19285000Y40707739D01*
X19246904Y40593453D01*
X19246904Y40517262D01*
X19285000Y40402977D01*
X19323095Y40364881D01*
X20046904Y39602977D02*
X20046904Y40060120D01*
X20046904Y39831548D02*
X19246904Y39831548D01*
X19361190Y39907739D01*
X19437380Y39983929D01*
X19475476Y40060120D01*
X19246904Y38879167D02*
X19246904Y39260120D01*
X19627857Y39298215D01*
X19589761Y39260120D01*
X19551666Y39183929D01*
X19551666Y38993453D01*
X19589761Y38917262D01*
X19627857Y38879167D01*
X19704047Y38841072D01*
X19894523Y38841072D01*
X19970714Y38879167D01*
X20008809Y38917262D01*
X20046904Y38993453D01*
X20046904Y39183929D01*
X20008809Y39260120D01*
X19970714Y39298215D01*
X53066904Y50414643D02*
X52266904Y50414643D01*
X52266904Y50109881D01*
X52305000Y50033691D01*
X52343095Y49995596D01*
X52419285Y49957500D01*
X52533571Y49957500D01*
X52609761Y49995596D01*
X52647857Y50033691D01*
X52685952Y50109881D01*
X52685952Y50414643D01*
X52838333Y49652739D02*
X52838333Y49271786D01*
X53066904Y49728929D02*
X52266904Y49462262D01*
X53066904Y49195596D01*
X52609761Y48814643D02*
X52571666Y48890834D01*
X52533571Y48928929D01*
X52457380Y48967024D01*
X52419285Y48967024D01*
X52343095Y48928929D01*
X52305000Y48890834D01*
X52266904Y48814643D01*
X52266904Y48662262D01*
X52305000Y48586072D01*
X52343095Y48547977D01*
X52419285Y48509881D01*
X52457380Y48509881D01*
X52533571Y48547977D01*
X52571666Y48586072D01*
X52609761Y48662262D01*
X52609761Y48814643D01*
X52647857Y48890834D01*
X52685952Y48928929D01*
X52762142Y48967024D01*
X52914523Y48967024D01*
X52990714Y48928929D01*
X53028809Y48890834D01*
X53066904Y48814643D01*
X53066904Y48662262D01*
X53028809Y48586072D01*
X52990714Y48547977D01*
X52914523Y48509881D01*
X52762142Y48509881D01*
X52685952Y48547977D01*
X52647857Y48586072D01*
X52609761Y48662262D01*
X22586904Y51290834D02*
X21786904Y51290834D01*
X21786904Y50986072D01*
X21825000Y50909881D01*
X21863095Y50871786D01*
X21939285Y50833691D01*
X22053571Y50833691D01*
X22129761Y50871786D01*
X22167857Y50909881D01*
X22205952Y50986072D01*
X22205952Y51290834D01*
X22510714Y50033691D02*
X22548809Y50071786D01*
X22586904Y50186072D01*
X22586904Y50262262D01*
X22548809Y50376548D01*
X22472619Y50452739D01*
X22396428Y50490834D01*
X22244047Y50528929D01*
X22129761Y50528929D01*
X21977380Y50490834D01*
X21901190Y50452739D01*
X21825000Y50376548D01*
X21786904Y50262262D01*
X21786904Y50186072D01*
X21825000Y50071786D01*
X21863095Y50033691D01*
X22586904Y49271786D02*
X22586904Y49728929D01*
X22586904Y49500358D02*
X21786904Y49500358D01*
X21901190Y49576548D01*
X21977380Y49652739D01*
X22015476Y49728929D01*
X22053571Y48586072D02*
X22586904Y48586072D01*
X21748809Y48776548D02*
X22320238Y48967024D01*
X22320238Y48471786D01*
X37826904Y11793929D02*
X37026904Y11793929D01*
X37026904Y11489167D01*
X37065000Y11412977D01*
X37103095Y11374881D01*
X37179285Y11336786D01*
X37293571Y11336786D01*
X37369761Y11374881D01*
X37407857Y11412977D01*
X37445952Y11489167D01*
X37445952Y11793929D01*
X37407857Y10727262D02*
X37445952Y10612977D01*
X37484047Y10574881D01*
X37560238Y10536786D01*
X37674523Y10536786D01*
X37750714Y10574881D01*
X37788809Y10612977D01*
X37826904Y10689167D01*
X37826904Y10993929D01*
X37026904Y10993929D01*
X37026904Y10727262D01*
X37065000Y10651072D01*
X37103095Y10612977D01*
X37179285Y10574881D01*
X37255476Y10574881D01*
X37331666Y10612977D01*
X37369761Y10651072D01*
X37407857Y10727262D01*
X37407857Y10993929D01*
X37826904Y9774881D02*
X37826904Y10232024D01*
X37826904Y10003453D02*
X37026904Y10003453D01*
X37141190Y10079643D01*
X37217380Y10155834D01*
X37255476Y10232024D01*
X57346904Y11032024D02*
X57994523Y11032024D01*
X58070714Y10993929D01*
X58108809Y10955834D01*
X58146904Y10879643D01*
X58146904Y10727262D01*
X58108809Y10651072D01*
X58070714Y10612977D01*
X57994523Y10574881D01*
X57346904Y10574881D01*
X57613571Y9851072D02*
X58146904Y9851072D01*
X57308809Y10041548D02*
X57880238Y10232024D01*
X57880238Y9736786D01*
X27666904Y11679643D02*
X26866904Y11679643D01*
X26866904Y11374881D01*
X26905000Y11298691D01*
X26943095Y11260596D01*
X27019285Y11222500D01*
X27133571Y11222500D01*
X27209761Y11260596D01*
X27247857Y11298691D01*
X27285952Y11374881D01*
X27285952Y11679643D01*
X27438333Y10917739D02*
X27438333Y10536786D01*
X27666904Y10993929D02*
X26866904Y10727262D01*
X27666904Y10460596D01*
X26866904Y10270120D02*
X26866904Y9774881D01*
X27171666Y10041548D01*
X27171666Y9927262D01*
X27209761Y9851072D01*
X27247857Y9812977D01*
X27324047Y9774881D01*
X27514523Y9774881D01*
X27590714Y9812977D01*
X27628809Y9851072D01*
X27666904Y9927262D01*
X27666904Y10155834D01*
X27628809Y10232024D01*
X27590714Y10270120D01*
X54806904Y11032024D02*
X55454523Y11032024D01*
X55530714Y10993929D01*
X55568809Y10955834D01*
X55606904Y10879643D01*
X55606904Y10727262D01*
X55568809Y10651072D01*
X55530714Y10612977D01*
X55454523Y10574881D01*
X54806904Y10574881D01*
X54883095Y10232024D02*
X54845000Y10193929D01*
X54806904Y10117739D01*
X54806904Y9927262D01*
X54845000Y9851072D01*
X54883095Y9812977D01*
X54959285Y9774881D01*
X55035476Y9774881D01*
X55149761Y9812977D01*
X55606904Y10270120D01*
X55606904Y9774881D01*
X62465000Y41202977D02*
X62426904Y41279167D01*
X62426904Y41393453D01*
X62465000Y41507739D01*
X62541190Y41583929D01*
X62617380Y41622024D01*
X62769761Y41660120D01*
X62884047Y41660120D01*
X63036428Y41622024D01*
X63112619Y41583929D01*
X63188809Y41507739D01*
X63226904Y41393453D01*
X63226904Y41317262D01*
X63188809Y41202977D01*
X63150714Y41164881D01*
X62884047Y41164881D01*
X62884047Y41317262D01*
X63226904Y40822024D02*
X62426904Y40822024D01*
X63226904Y40364881D01*
X62426904Y40364881D01*
X63226904Y39983929D02*
X62426904Y39983929D01*
X62426904Y39793453D01*
X62465000Y39679167D01*
X62541190Y39602977D01*
X62617380Y39564881D01*
X62769761Y39526786D01*
X62884047Y39526786D01*
X63036428Y39564881D01*
X63112619Y39602977D01*
X63188809Y39679167D01*
X63226904Y39793453D01*
X63226904Y39983929D01*
X40366904Y3522024D02*
X39566904Y3522024D01*
X39566904Y3217262D01*
X39605000Y3141072D01*
X39643095Y3102977D01*
X39719285Y3064881D01*
X39833571Y3064881D01*
X39909761Y3102977D01*
X39947857Y3141072D01*
X39985952Y3217262D01*
X39985952Y3522024D01*
X39947857Y2455358D02*
X39985952Y2341072D01*
X40024047Y2302977D01*
X40100238Y2264881D01*
X40214523Y2264881D01*
X40290714Y2302977D01*
X40328809Y2341072D01*
X40366904Y2417262D01*
X40366904Y2722024D01*
X39566904Y2722024D01*
X39566904Y2455358D01*
X39605000Y2379167D01*
X39643095Y2341072D01*
X39719285Y2302977D01*
X39795476Y2302977D01*
X39871666Y2341072D01*
X39909761Y2379167D01*
X39947857Y2455358D01*
X39947857Y2722024D01*
X39643095Y1960120D02*
X39605000Y1922024D01*
X39566904Y1845834D01*
X39566904Y1655358D01*
X39605000Y1579167D01*
X39643095Y1541072D01*
X39719285Y1502977D01*
X39795476Y1502977D01*
X39909761Y1541072D01*
X40366904Y1998215D01*
X40366904Y1502977D01*
X16706904Y49767024D02*
X17354523Y49767024D01*
X17430714Y49728929D01*
X17468809Y49690834D01*
X17506904Y49614643D01*
X17506904Y49462262D01*
X17468809Y49386072D01*
X17430714Y49347977D01*
X17354523Y49309881D01*
X16706904Y49309881D01*
X16706904Y48547977D02*
X16706904Y48928929D01*
X17087857Y48967024D01*
X17049761Y48928929D01*
X17011666Y48852739D01*
X17011666Y48662262D01*
X17049761Y48586072D01*
X17087857Y48547977D01*
X17164047Y48509881D01*
X17354523Y48509881D01*
X17430714Y48547977D01*
X17468809Y48586072D01*
X17506904Y48662262D01*
X17506904Y48852739D01*
X17468809Y48928929D01*
X17430714Y48967024D01*
X22586904Y41622024D02*
X21786904Y41622024D01*
X21786904Y41317262D01*
X21825000Y41241072D01*
X21863095Y41202977D01*
X21939285Y41164881D01*
X22053571Y41164881D01*
X22129761Y41202977D01*
X22167857Y41241072D01*
X22205952Y41317262D01*
X22205952Y41622024D01*
X22510714Y40364881D02*
X22548809Y40402977D01*
X22586904Y40517262D01*
X22586904Y40593453D01*
X22548809Y40707739D01*
X22472619Y40783929D01*
X22396428Y40822024D01*
X22244047Y40860120D01*
X22129761Y40860120D01*
X21977380Y40822024D01*
X21901190Y40783929D01*
X21825000Y40707739D01*
X21786904Y40593453D01*
X21786904Y40517262D01*
X21825000Y40402977D01*
X21863095Y40364881D01*
X22586904Y39602977D02*
X22586904Y40060120D01*
X22586904Y39831548D02*
X21786904Y39831548D01*
X21901190Y39907739D01*
X21977380Y39983929D01*
X22015476Y40060120D01*
X21786904Y39336310D02*
X21786904Y38841072D01*
X22091666Y39107739D01*
X22091666Y38993453D01*
X22129761Y38917262D01*
X22167857Y38879167D01*
X22244047Y38841072D01*
X22434523Y38841072D01*
X22510714Y38879167D01*
X22548809Y38917262D01*
X22586904Y38993453D01*
X22586904Y39222024D01*
X22548809Y39298215D01*
X22510714Y39336310D01*
X24326904Y49767024D02*
X24974523Y49767024D01*
X25050714Y49728929D01*
X25088809Y49690834D01*
X25126904Y49614643D01*
X25126904Y49462262D01*
X25088809Y49386072D01*
X25050714Y49347977D01*
X24974523Y49309881D01*
X24326904Y49309881D01*
X25126904Y48890834D02*
X25126904Y48738453D01*
X25088809Y48662262D01*
X25050714Y48624167D01*
X24936428Y48547977D01*
X24784047Y48509881D01*
X24479285Y48509881D01*
X24403095Y48547977D01*
X24365000Y48586072D01*
X24326904Y48662262D01*
X24326904Y48814643D01*
X24365000Y48890834D01*
X24403095Y48928929D01*
X24479285Y48967024D01*
X24669761Y48967024D01*
X24745952Y48928929D01*
X24784047Y48890834D01*
X24822142Y48814643D01*
X24822142Y48662262D01*
X24784047Y48586072D01*
X24745952Y48547977D01*
X24669761Y48509881D01*
X47986904Y3522024D02*
X47186904Y3522024D01*
X47186904Y3217262D01*
X47225000Y3141072D01*
X47263095Y3102977D01*
X47339285Y3064881D01*
X47453571Y3064881D01*
X47529761Y3102977D01*
X47567857Y3141072D01*
X47605952Y3217262D01*
X47605952Y3522024D01*
X47567857Y2455358D02*
X47605952Y2341072D01*
X47644047Y2302977D01*
X47720238Y2264881D01*
X47834523Y2264881D01*
X47910714Y2302977D01*
X47948809Y2341072D01*
X47986904Y2417262D01*
X47986904Y2722024D01*
X47186904Y2722024D01*
X47186904Y2455358D01*
X47225000Y2379167D01*
X47263095Y2341072D01*
X47339285Y2302977D01*
X47415476Y2302977D01*
X47491666Y2341072D01*
X47529761Y2379167D01*
X47567857Y2455358D01*
X47567857Y2722024D01*
X47986904Y1502977D02*
X47986904Y1960120D01*
X47986904Y1731548D02*
X47186904Y1731548D01*
X47301190Y1807739D01*
X47377380Y1883929D01*
X47415476Y1960120D01*
X47453571Y817262D02*
X47986904Y817262D01*
X47148809Y1007739D02*
X47720238Y1198215D01*
X47720238Y702977D01*
X27666904Y41622024D02*
X26866904Y41622024D01*
X26866904Y41317262D01*
X26905000Y41241072D01*
X26943095Y41202977D01*
X27019285Y41164881D01*
X27133571Y41164881D01*
X27209761Y41202977D01*
X27247857Y41241072D01*
X27285952Y41317262D01*
X27285952Y41622024D01*
X27247857Y40555358D02*
X27285952Y40441072D01*
X27324047Y40402977D01*
X27400238Y40364881D01*
X27514523Y40364881D01*
X27590714Y40402977D01*
X27628809Y40441072D01*
X27666904Y40517262D01*
X27666904Y40822024D01*
X26866904Y40822024D01*
X26866904Y40555358D01*
X26905000Y40479167D01*
X26943095Y40441072D01*
X27019285Y40402977D01*
X27095476Y40402977D01*
X27171666Y40441072D01*
X27209761Y40479167D01*
X27247857Y40555358D01*
X27247857Y40822024D01*
X27666904Y39983929D02*
X27666904Y39831548D01*
X27628809Y39755358D01*
X27590714Y39717262D01*
X27476428Y39641072D01*
X27324047Y39602977D01*
X27019285Y39602977D01*
X26943095Y39641072D01*
X26905000Y39679167D01*
X26866904Y39755358D01*
X26866904Y39907739D01*
X26905000Y39983929D01*
X26943095Y40022024D01*
X27019285Y40060120D01*
X27209761Y40060120D01*
X27285952Y40022024D01*
X27324047Y39983929D01*
X27362142Y39907739D01*
X27362142Y39755358D01*
X27324047Y39679167D01*
X27285952Y39641072D01*
X27209761Y39602977D01*
X35286904Y50528929D02*
X34486904Y50528929D01*
X34486904Y50224167D01*
X34525000Y50147977D01*
X34563095Y50109881D01*
X34639285Y50071786D01*
X34753571Y50071786D01*
X34829761Y50109881D01*
X34867857Y50147977D01*
X34905952Y50224167D01*
X34905952Y50528929D01*
X35286904Y49728929D02*
X34486904Y49728929D01*
X34486904Y49538453D01*
X34525000Y49424167D01*
X34601190Y49347977D01*
X34677380Y49309881D01*
X34829761Y49271786D01*
X34944047Y49271786D01*
X35096428Y49309881D01*
X35172619Y49347977D01*
X35248809Y49424167D01*
X35286904Y49538453D01*
X35286904Y49728929D01*
X34563095Y48967024D02*
X34525000Y48928929D01*
X34486904Y48852739D01*
X34486904Y48662262D01*
X34525000Y48586072D01*
X34563095Y48547977D01*
X34639285Y48509881D01*
X34715476Y48509881D01*
X34829761Y48547977D01*
X35286904Y49005120D01*
X35286904Y48509881D01*
X6167380Y43479405D02*
X5167380Y43479405D01*
X6167380Y43050834D02*
X5643571Y43050834D01*
X5548333Y43098453D01*
X5500714Y43193691D01*
X5500714Y43336548D01*
X5548333Y43431786D01*
X5595952Y43479405D01*
X5500714Y42717500D02*
X5500714Y42336548D01*
X5167380Y42574643D02*
X6024523Y42574643D01*
X6119761Y42527024D01*
X6167380Y42431786D01*
X6167380Y42336548D01*
X5500714Y42146072D02*
X5500714Y41765120D01*
X5167380Y42003215D02*
X6024523Y42003215D01*
X6119761Y41955596D01*
X6167380Y41860358D01*
X6167380Y41765120D01*
X5500714Y41431786D02*
X6500714Y41431786D01*
X5548333Y41431786D02*
X5500714Y41336548D01*
X5500714Y41146072D01*
X5548333Y41050834D01*
X5595952Y41003215D01*
X5691190Y40955596D01*
X5976904Y40955596D01*
X6072142Y41003215D01*
X6119761Y41050834D01*
X6167380Y41146072D01*
X6167380Y41336548D01*
X6119761Y41431786D01*
X6119761Y40574643D02*
X6167380Y40479405D01*
X6167380Y40288929D01*
X6119761Y40193691D01*
X6024523Y40146072D01*
X5976904Y40146072D01*
X5881666Y40193691D01*
X5834047Y40288929D01*
X5834047Y40431786D01*
X5786428Y40527024D01*
X5691190Y40574643D01*
X5643571Y40574643D01*
X5548333Y40527024D01*
X5500714Y40431786D01*
X5500714Y40288929D01*
X5548333Y40193691D01*
X6072142Y39717500D02*
X6119761Y39669881D01*
X6167380Y39717500D01*
X6119761Y39765120D01*
X6072142Y39717500D01*
X6167380Y39717500D01*
X5548333Y39717500D02*
X5595952Y39669881D01*
X5643571Y39717500D01*
X5595952Y39765120D01*
X5548333Y39717500D01*
X5643571Y39717500D01*
X5119761Y38527024D02*
X6405476Y39384167D01*
X5119761Y37479405D02*
X6405476Y38336548D01*
X6119761Y37193691D02*
X6167380Y37098453D01*
X6167380Y36907977D01*
X6119761Y36812739D01*
X6024523Y36765120D01*
X5976904Y36765120D01*
X5881666Y36812739D01*
X5834047Y36907977D01*
X5834047Y37050834D01*
X5786428Y37146072D01*
X5691190Y37193691D01*
X5643571Y37193691D01*
X5548333Y37146072D01*
X5500714Y37050834D01*
X5500714Y36907977D01*
X5548333Y36812739D01*
X5500714Y36479405D02*
X5500714Y36098453D01*
X5167380Y36336548D02*
X6024523Y36336548D01*
X6119761Y36288929D01*
X6167380Y36193691D01*
X6167380Y36098453D01*
X6167380Y35765120D02*
X5500714Y35765120D01*
X5595952Y35765120D02*
X5548333Y35717500D01*
X5500714Y35622262D01*
X5500714Y35479405D01*
X5548333Y35384167D01*
X5643571Y35336548D01*
X6167380Y35336548D01*
X5643571Y35336548D02*
X5548333Y35288929D01*
X5500714Y35193691D01*
X5500714Y35050834D01*
X5548333Y34955596D01*
X5643571Y34907977D01*
X6167380Y34907977D01*
X5167380Y34527024D02*
X5167380Y33907977D01*
X5548333Y34241310D01*
X5548333Y34098453D01*
X5595952Y34003215D01*
X5643571Y33955596D01*
X5738809Y33907977D01*
X5976904Y33907977D01*
X6072142Y33955596D01*
X6119761Y34003215D01*
X6167380Y34098453D01*
X6167380Y34384167D01*
X6119761Y34479405D01*
X6072142Y34527024D01*
X5262619Y33527024D02*
X5215000Y33479405D01*
X5167380Y33384167D01*
X5167380Y33146072D01*
X5215000Y33050834D01*
X5262619Y33003215D01*
X5357857Y32955596D01*
X5453095Y32955596D01*
X5595952Y33003215D01*
X6167380Y33574643D01*
X6167380Y32955596D01*
X5500714Y32622262D02*
X6167380Y32431786D01*
X5691190Y32241310D01*
X6167380Y32050834D01*
X5500714Y31860358D01*
X6167380Y31336548D02*
X6119761Y31431786D01*
X6072142Y31479405D01*
X5976904Y31527024D01*
X5691190Y31527024D01*
X5595952Y31479405D01*
X5548333Y31431786D01*
X5500714Y31336548D01*
X5500714Y31193691D01*
X5548333Y31098453D01*
X5595952Y31050834D01*
X5691190Y31003215D01*
X5976904Y31003215D01*
X6072142Y31050834D01*
X6119761Y31098453D01*
X6167380Y31193691D01*
X6167380Y31336548D01*
X6167380Y30574643D02*
X5500714Y30574643D01*
X5691190Y30574643D02*
X5595952Y30527024D01*
X5548333Y30479405D01*
X5500714Y30384167D01*
X5500714Y30288929D01*
X6167380Y29812739D02*
X6119761Y29907977D01*
X6024523Y29955596D01*
X5167380Y29955596D01*
X6167380Y29003215D02*
X5167380Y29003215D01*
X6119761Y29003215D02*
X6167380Y29098453D01*
X6167380Y29288929D01*
X6119761Y29384167D01*
X6072142Y29431786D01*
X5976904Y29479405D01*
X5691190Y29479405D01*
X5595952Y29431786D01*
X5548333Y29384167D01*
X5500714Y29288929D01*
X5500714Y29098453D01*
X5548333Y29003215D01*
X6072142Y28527024D02*
X6119761Y28479405D01*
X6167380Y28527024D01*
X6119761Y28574643D01*
X6072142Y28527024D01*
X6167380Y28527024D01*
X6119761Y27622262D02*
X6167380Y27717500D01*
X6167380Y27907977D01*
X6119761Y28003215D01*
X6072142Y28050834D01*
X5976904Y28098453D01*
X5691190Y28098453D01*
X5595952Y28050834D01*
X5548333Y28003215D01*
X5500714Y27907977D01*
X5500714Y27717500D01*
X5548333Y27622262D01*
X6167380Y27050834D02*
X6119761Y27146072D01*
X6072142Y27193691D01*
X5976904Y27241310D01*
X5691190Y27241310D01*
X5595952Y27193691D01*
X5548333Y27146072D01*
X5500714Y27050834D01*
X5500714Y26907977D01*
X5548333Y26812739D01*
X5595952Y26765120D01*
X5691190Y26717500D01*
X5976904Y26717500D01*
X6072142Y26765120D01*
X6119761Y26812739D01*
X6167380Y26907977D01*
X6167380Y27050834D01*
X6167380Y26288929D02*
X5500714Y26288929D01*
X5595952Y26288929D02*
X5548333Y26241310D01*
X5500714Y26146072D01*
X5500714Y26003215D01*
X5548333Y25907977D01*
X5643571Y25860358D01*
X6167380Y25860358D01*
X5643571Y25860358D02*
X5548333Y25812739D01*
X5500714Y25717500D01*
X5500714Y25574643D01*
X5548333Y25479405D01*
X5643571Y25431786D01*
X6167380Y25431786D01*
X5119761Y24241310D02*
X6405476Y25098453D01*
X5500714Y24003215D02*
X6167380Y23812739D01*
X5691190Y23622262D01*
X6167380Y23431786D01*
X5500714Y23241310D01*
X6167380Y22860358D02*
X5500714Y22860358D01*
X5167380Y22860358D02*
X5215000Y22907977D01*
X5262619Y22860358D01*
X5215000Y22812739D01*
X5167380Y22860358D01*
X5262619Y22860358D01*
X6167380Y22384167D02*
X5167380Y22384167D01*
X5786428Y22288929D02*
X6167380Y22003215D01*
X5500714Y22003215D02*
X5881666Y22384167D01*
X6167380Y21574643D02*
X5500714Y21574643D01*
X5167380Y21574643D02*
X5215000Y21622262D01*
X5262619Y21574643D01*
X5215000Y21527024D01*
X5167380Y21574643D01*
X5262619Y21574643D01*
X5119761Y20384167D02*
X6405476Y21241310D01*
X6167380Y20050834D02*
X5167380Y20050834D01*
X5167380Y19669881D01*
X5215000Y19574643D01*
X5262619Y19527024D01*
X5357857Y19479405D01*
X5500714Y19479405D01*
X5595952Y19527024D01*
X5643571Y19574643D01*
X5691190Y19669881D01*
X5691190Y20050834D01*
X6167380Y18479405D02*
X5691190Y18812739D01*
X6167380Y19050834D02*
X5167380Y19050834D01*
X5167380Y18669881D01*
X5215000Y18574643D01*
X5262619Y18527024D01*
X5357857Y18479405D01*
X5500714Y18479405D01*
X5595952Y18527024D01*
X5643571Y18574643D01*
X5691190Y18669881D01*
X5691190Y19050834D01*
X5215000Y17527024D02*
X5167380Y17622262D01*
X5167380Y17765120D01*
X5215000Y17907977D01*
X5310238Y18003215D01*
X5405476Y18050834D01*
X5595952Y18098453D01*
X5738809Y18098453D01*
X5929285Y18050834D01*
X6024523Y18003215D01*
X6119761Y17907977D01*
X6167380Y17765120D01*
X6167380Y17669881D01*
X6119761Y17527024D01*
X6072142Y17479405D01*
X5738809Y17479405D01*
X5738809Y17669881D01*
X6119761Y17098453D02*
X6167380Y16955596D01*
X6167380Y16717500D01*
X6119761Y16622262D01*
X6072142Y16574643D01*
X5976904Y16527024D01*
X5881666Y16527024D01*
X5786428Y16574643D01*
X5738809Y16622262D01*
X5691190Y16717500D01*
X5643571Y16907977D01*
X5595952Y17003215D01*
X5548333Y17050834D01*
X5453095Y17098453D01*
X5357857Y17098453D01*
X5262619Y17050834D01*
X5215000Y17003215D01*
X5167380Y16907977D01*
X5167380Y16669881D01*
X5215000Y16527024D01*
X5167380Y16241310D02*
X5167380Y15669881D01*
X6167380Y15955596D02*
X5167380Y15955596D01*
X6167380Y14860358D02*
X6167380Y15336548D01*
X5167380Y15336548D01*
X25126904Y11679643D02*
X24326904Y11679643D01*
X24326904Y11374881D01*
X24365000Y11298691D01*
X24403095Y11260596D01*
X24479285Y11222500D01*
X24593571Y11222500D01*
X24669761Y11260596D01*
X24707857Y11298691D01*
X24745952Y11374881D01*
X24745952Y11679643D01*
X24898333Y10917739D02*
X24898333Y10536786D01*
X25126904Y10993929D02*
X24326904Y10727262D01*
X25126904Y10460596D01*
X25126904Y9774881D02*
X25126904Y10232024D01*
X25126904Y10003453D02*
X24326904Y10003453D01*
X24441190Y10079643D01*
X24517380Y10155834D01*
X24555476Y10232024D01*
X32746904Y41622024D02*
X31946904Y41622024D01*
X31946904Y41317262D01*
X31985000Y41241072D01*
X32023095Y41202977D01*
X32099285Y41164881D01*
X32213571Y41164881D01*
X32289761Y41202977D01*
X32327857Y41241072D01*
X32365952Y41317262D01*
X32365952Y41622024D01*
X32327857Y40555358D02*
X32365952Y40441072D01*
X32404047Y40402977D01*
X32480238Y40364881D01*
X32594523Y40364881D01*
X32670714Y40402977D01*
X32708809Y40441072D01*
X32746904Y40517262D01*
X32746904Y40822024D01*
X31946904Y40822024D01*
X31946904Y40555358D01*
X31985000Y40479167D01*
X32023095Y40441072D01*
X32099285Y40402977D01*
X32175476Y40402977D01*
X32251666Y40441072D01*
X32289761Y40479167D01*
X32327857Y40555358D01*
X32327857Y40822024D01*
X31946904Y39641072D02*
X31946904Y40022024D01*
X32327857Y40060120D01*
X32289761Y40022024D01*
X32251666Y39945834D01*
X32251666Y39755358D01*
X32289761Y39679167D01*
X32327857Y39641072D01*
X32404047Y39602977D01*
X32594523Y39602977D01*
X32670714Y39641072D01*
X32708809Y39679167D01*
X32746904Y39755358D01*
X32746904Y39945834D01*
X32708809Y40022024D01*
X32670714Y40060120D01*
X30206904Y50528929D02*
X29406904Y50528929D01*
X29406904Y50224167D01*
X29445000Y50147977D01*
X29483095Y50109881D01*
X29559285Y50071786D01*
X29673571Y50071786D01*
X29749761Y50109881D01*
X29787857Y50147977D01*
X29825952Y50224167D01*
X29825952Y50528929D01*
X29787857Y49462262D02*
X29825952Y49347977D01*
X29864047Y49309881D01*
X29940238Y49271786D01*
X30054523Y49271786D01*
X30130714Y49309881D01*
X30168809Y49347977D01*
X30206904Y49424167D01*
X30206904Y49728929D01*
X29406904Y49728929D01*
X29406904Y49462262D01*
X29445000Y49386072D01*
X29483095Y49347977D01*
X29559285Y49309881D01*
X29635476Y49309881D01*
X29711666Y49347977D01*
X29749761Y49386072D01*
X29787857Y49462262D01*
X29787857Y49728929D01*
X29406904Y48586072D02*
X29406904Y48738453D01*
X29445000Y48814643D01*
X29483095Y48852739D01*
X29597380Y48928929D01*
X29749761Y48967024D01*
X30054523Y48967024D01*
X30130714Y48928929D01*
X30168809Y48890834D01*
X30206904Y48814643D01*
X30206904Y48662262D01*
X30168809Y48586072D01*
X30130714Y48547977D01*
X30054523Y48509881D01*
X29864047Y48509881D01*
X29787857Y48547977D01*
X29749761Y48586072D01*
X29711666Y48662262D01*
X29711666Y48814643D01*
X29749761Y48890834D01*
X29787857Y48928929D01*
X29864047Y48967024D01*
X37026904Y41622024D02*
X37674523Y41622024D01*
X37750714Y41583929D01*
X37788809Y41545834D01*
X37826904Y41469643D01*
X37826904Y41317262D01*
X37788809Y41241072D01*
X37750714Y41202977D01*
X37674523Y41164881D01*
X37026904Y41164881D01*
X37369761Y40669643D02*
X37331666Y40745834D01*
X37293571Y40783929D01*
X37217380Y40822024D01*
X37179285Y40822024D01*
X37103095Y40783929D01*
X37065000Y40745834D01*
X37026904Y40669643D01*
X37026904Y40517262D01*
X37065000Y40441072D01*
X37103095Y40402977D01*
X37179285Y40364881D01*
X37217380Y40364881D01*
X37293571Y40402977D01*
X37331666Y40441072D01*
X37369761Y40517262D01*
X37369761Y40669643D01*
X37407857Y40745834D01*
X37445952Y40783929D01*
X37522142Y40822024D01*
X37674523Y40822024D01*
X37750714Y40783929D01*
X37788809Y40745834D01*
X37826904Y40669643D01*
X37826904Y40517262D01*
X37788809Y40441072D01*
X37750714Y40402977D01*
X37674523Y40364881D01*
X37522142Y40364881D01*
X37445952Y40402977D01*
X37407857Y40441072D01*
X37369761Y40517262D01*
%TD*%
M02*
