%TF.GenerationSoftware,KiCad,Pcbnew,6.0.7+dfsg-1+b1*%
%TF.CreationDate,2022-09-10T19:10:33+08:00*%
%TF.ProjectId,prgstl,70726773-746c-42e6-9b69-6361645f7063,a*%
%TF.SameCoordinates,PX6d01460PY791ddc0*%
%TF.FileFunction,Legend,Bot*%
%TF.FilePolarity,Positive*%
%FSLAX46Y46*%
G04 Gerber Fmt 4.6, Leading zero omitted, Abs format (unit mm)*
G04 Created by KiCad (PCBNEW 6.0.7+dfsg-1+b1) date 2022-09-10 19:10:33*
%MOMM*%
%LPD*%
G01*
G04 APERTURE LIST*
%ADD10C,0.150000*%
G04 APERTURE END LIST*
D10*
X73856904Y43298453D02*
X74428333Y43298453D01*
X74542619Y43336548D01*
X74618809Y43412739D01*
X74656904Y43527024D01*
X74656904Y43603215D01*
X74656904Y42536548D02*
X74656904Y42917500D01*
X73856904Y42917500D01*
X74580714Y41812739D02*
X74618809Y41850834D01*
X74656904Y41965120D01*
X74656904Y42041310D01*
X74618809Y42155596D01*
X74542619Y42231786D01*
X74466428Y42269881D01*
X74314047Y42307977D01*
X74199761Y42307977D01*
X74047380Y42269881D01*
X73971190Y42231786D01*
X73895000Y42155596D01*
X73856904Y42041310D01*
X73856904Y41965120D01*
X73895000Y41850834D01*
X73933095Y41812739D01*
X73856904Y41241310D02*
X74428333Y41241310D01*
X74542619Y41279405D01*
X74618809Y41355596D01*
X74656904Y41469881D01*
X74656904Y41546072D01*
X74656904Y40479405D02*
X74656904Y40860358D01*
X73856904Y40860358D01*
X74580714Y39755596D02*
X74618809Y39793691D01*
X74656904Y39907977D01*
X74656904Y39984167D01*
X74618809Y40098453D01*
X74542619Y40174643D01*
X74466428Y40212739D01*
X74314047Y40250834D01*
X74199761Y40250834D01*
X74047380Y40212739D01*
X73971190Y40174643D01*
X73895000Y40098453D01*
X73856904Y39984167D01*
X73856904Y39907977D01*
X73895000Y39793691D01*
X73933095Y39755596D01*
X73856904Y39184167D02*
X74428333Y39184167D01*
X74542619Y39222262D01*
X74618809Y39298453D01*
X74656904Y39412739D01*
X74656904Y39488929D01*
X74656904Y38422262D02*
X74656904Y38803215D01*
X73856904Y38803215D01*
X74580714Y37698453D02*
X74618809Y37736548D01*
X74656904Y37850834D01*
X74656904Y37927024D01*
X74618809Y38041310D01*
X74542619Y38117500D01*
X74466428Y38155596D01*
X74314047Y38193691D01*
X74199761Y38193691D01*
X74047380Y38155596D01*
X73971190Y38117500D01*
X73895000Y38041310D01*
X73856904Y37927024D01*
X73856904Y37850834D01*
X73895000Y37736548D01*
X73933095Y37698453D01*
X73856904Y37127024D02*
X74428333Y37127024D01*
X74542619Y37165120D01*
X74618809Y37241310D01*
X74656904Y37355596D01*
X74656904Y37431786D01*
X74656904Y36365120D02*
X74656904Y36746072D01*
X73856904Y36746072D01*
X74580714Y35641310D02*
X74618809Y35679405D01*
X74656904Y35793691D01*
X74656904Y35869881D01*
X74618809Y35984167D01*
X74542619Y36060358D01*
X74466428Y36098453D01*
X74314047Y36136548D01*
X74199761Y36136548D01*
X74047380Y36098453D01*
X73971190Y36060358D01*
X73895000Y35984167D01*
X73856904Y35869881D01*
X73856904Y35793691D01*
X73895000Y35679405D01*
X73933095Y35641310D01*
%TO.C,J2*%
X61791904Y2506072D02*
X61791904Y2887024D01*
X62172857Y2925120D01*
X62134761Y2887024D01*
X62096666Y2810834D01*
X62096666Y2620358D01*
X62134761Y2544167D01*
X62172857Y2506072D01*
X62249047Y2467977D01*
X62439523Y2467977D01*
X62515714Y2506072D01*
X62553809Y2544167D01*
X62591904Y2620358D01*
X62591904Y2810834D01*
X62553809Y2887024D01*
X62515714Y2925120D01*
X61791904Y2239405D02*
X62591904Y1972739D01*
X61791904Y1706072D01*
X41471904Y40987024D02*
X42119523Y40987024D01*
X42195714Y40948929D01*
X42233809Y40910834D01*
X42271904Y40834643D01*
X42271904Y40682262D01*
X42233809Y40606072D01*
X42195714Y40567977D01*
X42119523Y40529881D01*
X41471904Y40529881D01*
X42271904Y39729881D02*
X42271904Y40187024D01*
X42271904Y39958453D02*
X41471904Y39958453D01*
X41586190Y40034643D01*
X41662380Y40110834D01*
X41700476Y40187024D01*
X41548095Y39425120D02*
X41510000Y39387024D01*
X41471904Y39310834D01*
X41471904Y39120358D01*
X41510000Y39044167D01*
X41548095Y39006072D01*
X41624285Y38967977D01*
X41700476Y38967977D01*
X41814761Y39006072D01*
X42271904Y39463215D01*
X42271904Y38967977D01*
X34651904Y11158929D02*
X33851904Y11158929D01*
X33851904Y10854167D01*
X33890000Y10777977D01*
X33928095Y10739881D01*
X34004285Y10701786D01*
X34118571Y10701786D01*
X34194761Y10739881D01*
X34232857Y10777977D01*
X34270952Y10854167D01*
X34270952Y11158929D01*
X34575714Y9901786D02*
X34613809Y9939881D01*
X34651904Y10054167D01*
X34651904Y10130358D01*
X34613809Y10244643D01*
X34537619Y10320834D01*
X34461428Y10358929D01*
X34309047Y10397024D01*
X34194761Y10397024D01*
X34042380Y10358929D01*
X33966190Y10320834D01*
X33890000Y10244643D01*
X33851904Y10130358D01*
X33851904Y10054167D01*
X33890000Y9939881D01*
X33928095Y9901786D01*
X33851904Y9177977D02*
X33851904Y9558929D01*
X34232857Y9597024D01*
X34194761Y9558929D01*
X34156666Y9482739D01*
X34156666Y9292262D01*
X34194761Y9216072D01*
X34232857Y9177977D01*
X34309047Y9139881D01*
X34499523Y9139881D01*
X34575714Y9177977D01*
X34613809Y9216072D01*
X34651904Y9292262D01*
X34651904Y9482739D01*
X34613809Y9558929D01*
X34575714Y9597024D01*
X27031904Y49893929D02*
X26231904Y49893929D01*
X26231904Y49589167D01*
X26270000Y49512977D01*
X26308095Y49474881D01*
X26384285Y49436786D01*
X26498571Y49436786D01*
X26574761Y49474881D01*
X26612857Y49512977D01*
X26650952Y49589167D01*
X26650952Y49893929D01*
X26612857Y48827262D02*
X26650952Y48712977D01*
X26689047Y48674881D01*
X26765238Y48636786D01*
X26879523Y48636786D01*
X26955714Y48674881D01*
X26993809Y48712977D01*
X27031904Y48789167D01*
X27031904Y49093929D01*
X26231904Y49093929D01*
X26231904Y48827262D01*
X26270000Y48751072D01*
X26308095Y48712977D01*
X26384285Y48674881D01*
X26460476Y48674881D01*
X26536666Y48712977D01*
X26574761Y48751072D01*
X26612857Y48827262D01*
X26612857Y49093929D01*
X26574761Y48179643D02*
X26536666Y48255834D01*
X26498571Y48293929D01*
X26422380Y48332024D01*
X26384285Y48332024D01*
X26308095Y48293929D01*
X26270000Y48255834D01*
X26231904Y48179643D01*
X26231904Y48027262D01*
X26270000Y47951072D01*
X26308095Y47912977D01*
X26384285Y47874881D01*
X26422380Y47874881D01*
X26498571Y47912977D01*
X26536666Y47951072D01*
X26574761Y48027262D01*
X26574761Y48179643D01*
X26612857Y48255834D01*
X26650952Y48293929D01*
X26727142Y48332024D01*
X26879523Y48332024D01*
X26955714Y48293929D01*
X26993809Y48255834D01*
X27031904Y48179643D01*
X27031904Y48027262D01*
X26993809Y47951072D01*
X26955714Y47912977D01*
X26879523Y47874881D01*
X26727142Y47874881D01*
X26650952Y47912977D01*
X26612857Y47951072D01*
X26574761Y48027262D01*
X54171904Y40987024D02*
X54819523Y40987024D01*
X54895714Y40948929D01*
X54933809Y40910834D01*
X54971904Y40834643D01*
X54971904Y40682262D01*
X54933809Y40606072D01*
X54895714Y40567977D01*
X54819523Y40529881D01*
X54171904Y40529881D01*
X54971904Y39729881D02*
X54971904Y40187024D01*
X54971904Y39958453D02*
X54171904Y39958453D01*
X54286190Y40034643D01*
X54362380Y40110834D01*
X54400476Y40187024D01*
X54438571Y39044167D02*
X54971904Y39044167D01*
X54133809Y39234643D02*
X54705238Y39425120D01*
X54705238Y38929881D01*
X47351904Y50541548D02*
X46551904Y50541548D01*
X46551904Y50236786D01*
X46590000Y50160596D01*
X46628095Y50122500D01*
X46704285Y50084405D01*
X46818571Y50084405D01*
X46894761Y50122500D01*
X46932857Y50160596D01*
X46970952Y50236786D01*
X46970952Y50541548D01*
X47123333Y49779643D02*
X47123333Y49398691D01*
X47351904Y49855834D02*
X46551904Y49589167D01*
X47351904Y49322500D01*
X47351904Y48636786D02*
X47351904Y49093929D01*
X47351904Y48865358D02*
X46551904Y48865358D01*
X46666190Y48941548D01*
X46742380Y49017739D01*
X46780476Y49093929D01*
X46628095Y48332024D02*
X46590000Y48293929D01*
X46551904Y48217739D01*
X46551904Y48027262D01*
X46590000Y47951072D01*
X46628095Y47912977D01*
X46704285Y47874881D01*
X46780476Y47874881D01*
X46894761Y47912977D01*
X47351904Y48370120D01*
X47351904Y47874881D01*
X23691904Y40987024D02*
X24339523Y40987024D01*
X24415714Y40948929D01*
X24453809Y40910834D01*
X24491904Y40834643D01*
X24491904Y40682262D01*
X24453809Y40606072D01*
X24415714Y40567977D01*
X24339523Y40529881D01*
X23691904Y40529881D01*
X24491904Y39729881D02*
X24491904Y40187024D01*
X24491904Y39958453D02*
X23691904Y39958453D01*
X23806190Y40034643D01*
X23882380Y40110834D01*
X23920476Y40187024D01*
X23691904Y39234643D02*
X23691904Y39158453D01*
X23730000Y39082262D01*
X23768095Y39044167D01*
X23844285Y39006072D01*
X23996666Y38967977D01*
X24187142Y38967977D01*
X24339523Y39006072D01*
X24415714Y39044167D01*
X24453809Y39082262D01*
X24491904Y39158453D01*
X24491904Y39234643D01*
X24453809Y39310834D01*
X24415714Y39348929D01*
X24339523Y39387024D01*
X24187142Y39425120D01*
X23996666Y39425120D01*
X23844285Y39387024D01*
X23768095Y39348929D01*
X23730000Y39310834D01*
X23691904Y39234643D01*
X27031904Y2887024D02*
X26231904Y2887024D01*
X26231904Y2582262D01*
X26270000Y2506072D01*
X26308095Y2467977D01*
X26384285Y2429881D01*
X26498571Y2429881D01*
X26574761Y2467977D01*
X26612857Y2506072D01*
X26650952Y2582262D01*
X26650952Y2887024D01*
X26803333Y2125120D02*
X26803333Y1744167D01*
X27031904Y2201310D02*
X26231904Y1934643D01*
X27031904Y1667977D01*
X26308095Y1439405D02*
X26270000Y1401310D01*
X26231904Y1325120D01*
X26231904Y1134643D01*
X26270000Y1058453D01*
X26308095Y1020358D01*
X26384285Y982262D01*
X26460476Y982262D01*
X26574761Y1020358D01*
X27031904Y1477500D01*
X27031904Y982262D01*
X18611904Y49132024D02*
X19259523Y49132024D01*
X19335714Y49093929D01*
X19373809Y49055834D01*
X19411904Y48979643D01*
X19411904Y48827262D01*
X19373809Y48751072D01*
X19335714Y48712977D01*
X19259523Y48674881D01*
X18611904Y48674881D01*
X18611904Y48370120D02*
X18611904Y47836786D01*
X19411904Y48179643D01*
X37191904Y2887024D02*
X36391904Y2887024D01*
X36391904Y2582262D01*
X36430000Y2506072D01*
X36468095Y2467977D01*
X36544285Y2429881D01*
X36658571Y2429881D01*
X36734761Y2467977D01*
X36772857Y2506072D01*
X36810952Y2582262D01*
X36810952Y2887024D01*
X36772857Y1820358D02*
X36810952Y1706072D01*
X36849047Y1667977D01*
X36925238Y1629881D01*
X37039523Y1629881D01*
X37115714Y1667977D01*
X37153809Y1706072D01*
X37191904Y1782262D01*
X37191904Y2087024D01*
X36391904Y2087024D01*
X36391904Y1820358D01*
X36430000Y1744167D01*
X36468095Y1706072D01*
X36544285Y1667977D01*
X36620476Y1667977D01*
X36696666Y1706072D01*
X36734761Y1744167D01*
X36772857Y1820358D01*
X36772857Y2087024D01*
X36391904Y1134643D02*
X36391904Y1058453D01*
X36430000Y982262D01*
X36468095Y944167D01*
X36544285Y906072D01*
X36696666Y867977D01*
X36887142Y867977D01*
X37039523Y906072D01*
X37115714Y944167D01*
X37153809Y982262D01*
X37191904Y1058453D01*
X37191904Y1134643D01*
X37153809Y1210834D01*
X37115714Y1248929D01*
X37039523Y1287024D01*
X36887142Y1325120D01*
X36696666Y1325120D01*
X36544285Y1287024D01*
X36468095Y1248929D01*
X36430000Y1210834D01*
X36391904Y1134643D01*
X24491904Y2887024D02*
X23691904Y2887024D01*
X23691904Y2582262D01*
X23730000Y2506072D01*
X23768095Y2467977D01*
X23844285Y2429881D01*
X23958571Y2429881D01*
X24034761Y2467977D01*
X24072857Y2506072D01*
X24110952Y2582262D01*
X24110952Y2887024D01*
X24263333Y2125120D02*
X24263333Y1744167D01*
X24491904Y2201310D02*
X23691904Y1934643D01*
X24491904Y1667977D01*
X23691904Y1248929D02*
X23691904Y1172739D01*
X23730000Y1096548D01*
X23768095Y1058453D01*
X23844285Y1020358D01*
X23996666Y982262D01*
X24187142Y982262D01*
X24339523Y1020358D01*
X24415714Y1058453D01*
X24453809Y1096548D01*
X24491904Y1172739D01*
X24491904Y1248929D01*
X24453809Y1325120D01*
X24415714Y1363215D01*
X24339523Y1401310D01*
X24187142Y1439405D01*
X23996666Y1439405D01*
X23844285Y1401310D01*
X23768095Y1363215D01*
X23730000Y1325120D01*
X23691904Y1248929D01*
X49891904Y50541548D02*
X49091904Y50541548D01*
X49091904Y50236786D01*
X49130000Y50160596D01*
X49168095Y50122500D01*
X49244285Y50084405D01*
X49358571Y50084405D01*
X49434761Y50122500D01*
X49472857Y50160596D01*
X49510952Y50236786D01*
X49510952Y50541548D01*
X49663333Y49779643D02*
X49663333Y49398691D01*
X49891904Y49855834D02*
X49091904Y49589167D01*
X49891904Y49322500D01*
X49891904Y48636786D02*
X49891904Y49093929D01*
X49891904Y48865358D02*
X49091904Y48865358D01*
X49206190Y48941548D01*
X49282380Y49017739D01*
X49320476Y49093929D01*
X49091904Y48141548D02*
X49091904Y48065358D01*
X49130000Y47989167D01*
X49168095Y47951072D01*
X49244285Y47912977D01*
X49396666Y47874881D01*
X49587142Y47874881D01*
X49739523Y47912977D01*
X49815714Y47951072D01*
X49853809Y47989167D01*
X49891904Y48065358D01*
X49891904Y48141548D01*
X49853809Y48217739D01*
X49815714Y48255834D01*
X49739523Y48293929D01*
X49587142Y48332024D01*
X49396666Y48332024D01*
X49244285Y48293929D01*
X49168095Y48255834D01*
X49130000Y48217739D01*
X49091904Y48141548D01*
X16071904Y40987024D02*
X16719523Y40987024D01*
X16795714Y40948929D01*
X16833809Y40910834D01*
X16871904Y40834643D01*
X16871904Y40682262D01*
X16833809Y40606072D01*
X16795714Y40567977D01*
X16719523Y40529881D01*
X16071904Y40529881D01*
X16071904Y39806072D02*
X16071904Y39958453D01*
X16110000Y40034643D01*
X16148095Y40072739D01*
X16262380Y40148929D01*
X16414761Y40187024D01*
X16719523Y40187024D01*
X16795714Y40148929D01*
X16833809Y40110834D01*
X16871904Y40034643D01*
X16871904Y39882262D01*
X16833809Y39806072D01*
X16795714Y39767977D01*
X16719523Y39729881D01*
X16529047Y39729881D01*
X16452857Y39767977D01*
X16414761Y39806072D01*
X16376666Y39882262D01*
X16376666Y40034643D01*
X16414761Y40110834D01*
X16452857Y40148929D01*
X16529047Y40187024D01*
X21951904Y11158929D02*
X21151904Y11158929D01*
X21151904Y10854167D01*
X21190000Y10777977D01*
X21228095Y10739881D01*
X21304285Y10701786D01*
X21418571Y10701786D01*
X21494761Y10739881D01*
X21532857Y10777977D01*
X21570952Y10854167D01*
X21570952Y11158929D01*
X21875714Y9901786D02*
X21913809Y9939881D01*
X21951904Y10054167D01*
X21951904Y10130358D01*
X21913809Y10244643D01*
X21837619Y10320834D01*
X21761428Y10358929D01*
X21609047Y10397024D01*
X21494761Y10397024D01*
X21342380Y10358929D01*
X21266190Y10320834D01*
X21190000Y10244643D01*
X21151904Y10130358D01*
X21151904Y10054167D01*
X21190000Y9939881D01*
X21228095Y9901786D01*
X21151904Y9635120D02*
X21151904Y9139881D01*
X21456666Y9406548D01*
X21456666Y9292262D01*
X21494761Y9216072D01*
X21532857Y9177977D01*
X21609047Y9139881D01*
X21799523Y9139881D01*
X21875714Y9177977D01*
X21913809Y9216072D01*
X21951904Y9292262D01*
X21951904Y9520834D01*
X21913809Y9597024D01*
X21875714Y9635120D01*
X32111904Y2887024D02*
X31311904Y2887024D01*
X31311904Y2582262D01*
X31350000Y2506072D01*
X31388095Y2467977D01*
X31464285Y2429881D01*
X31578571Y2429881D01*
X31654761Y2467977D01*
X31692857Y2506072D01*
X31730952Y2582262D01*
X31730952Y2887024D01*
X31883333Y2125120D02*
X31883333Y1744167D01*
X32111904Y2201310D02*
X31311904Y1934643D01*
X32111904Y1667977D01*
X31311904Y1058453D02*
X31311904Y1210834D01*
X31350000Y1287024D01*
X31388095Y1325120D01*
X31502380Y1401310D01*
X31654761Y1439405D01*
X31959523Y1439405D01*
X32035714Y1401310D01*
X32073809Y1363215D01*
X32111904Y1287024D01*
X32111904Y1134643D01*
X32073809Y1058453D01*
X32035714Y1020358D01*
X31959523Y982262D01*
X31769047Y982262D01*
X31692857Y1020358D01*
X31654761Y1058453D01*
X31616666Y1134643D01*
X31616666Y1287024D01*
X31654761Y1363215D01*
X31692857Y1401310D01*
X31769047Y1439405D01*
X56711904Y2887024D02*
X57359523Y2887024D01*
X57435714Y2848929D01*
X57473809Y2810834D01*
X57511904Y2734643D01*
X57511904Y2582262D01*
X57473809Y2506072D01*
X57435714Y2467977D01*
X57359523Y2429881D01*
X56711904Y2429881D01*
X56711904Y2125120D02*
X56711904Y1629881D01*
X57016666Y1896548D01*
X57016666Y1782262D01*
X57054761Y1706072D01*
X57092857Y1667977D01*
X57169047Y1629881D01*
X57359523Y1629881D01*
X57435714Y1667977D01*
X57473809Y1706072D01*
X57511904Y1782262D01*
X57511904Y2010834D01*
X57473809Y2087024D01*
X57435714Y2125120D01*
X54171904Y49893929D02*
X54819523Y49893929D01*
X54895714Y49855834D01*
X54933809Y49817739D01*
X54971904Y49741548D01*
X54971904Y49589167D01*
X54933809Y49512977D01*
X54895714Y49474881D01*
X54819523Y49436786D01*
X54171904Y49436786D01*
X54971904Y48636786D02*
X54971904Y49093929D01*
X54971904Y48865358D02*
X54171904Y48865358D01*
X54286190Y48941548D01*
X54362380Y49017739D01*
X54400476Y49093929D01*
X54171904Y48370120D02*
X54171904Y47874881D01*
X54476666Y48141548D01*
X54476666Y48027262D01*
X54514761Y47951072D01*
X54552857Y47912977D01*
X54629047Y47874881D01*
X54819523Y47874881D01*
X54895714Y47912977D01*
X54933809Y47951072D01*
X54971904Y48027262D01*
X54971904Y48255834D01*
X54933809Y48332024D01*
X54895714Y48370120D01*
X49891904Y11158929D02*
X49091904Y11158929D01*
X49091904Y10854167D01*
X49130000Y10777977D01*
X49168095Y10739881D01*
X49244285Y10701786D01*
X49358571Y10701786D01*
X49434761Y10739881D01*
X49472857Y10777977D01*
X49510952Y10854167D01*
X49510952Y11158929D01*
X49815714Y9901786D02*
X49853809Y9939881D01*
X49891904Y10054167D01*
X49891904Y10130358D01*
X49853809Y10244643D01*
X49777619Y10320834D01*
X49701428Y10358929D01*
X49549047Y10397024D01*
X49434761Y10397024D01*
X49282380Y10358929D01*
X49206190Y10320834D01*
X49130000Y10244643D01*
X49091904Y10130358D01*
X49091904Y10054167D01*
X49130000Y9939881D01*
X49168095Y9901786D01*
X49091904Y9635120D02*
X49091904Y9101786D01*
X49891904Y9444643D01*
X61791904Y48598691D02*
X61791904Y48979643D01*
X62172857Y49017739D01*
X62134761Y48979643D01*
X62096666Y48903453D01*
X62096666Y48712977D01*
X62134761Y48636786D01*
X62172857Y48598691D01*
X62249047Y48560596D01*
X62439523Y48560596D01*
X62515714Y48598691D01*
X62553809Y48636786D01*
X62591904Y48712977D01*
X62591904Y48903453D01*
X62553809Y48979643D01*
X62515714Y49017739D01*
X61791904Y48332024D02*
X62591904Y48065358D01*
X61791904Y47798691D01*
X13570000Y40567977D02*
X13531904Y40644167D01*
X13531904Y40758453D01*
X13570000Y40872739D01*
X13646190Y40948929D01*
X13722380Y40987024D01*
X13874761Y41025120D01*
X13989047Y41025120D01*
X14141428Y40987024D01*
X14217619Y40948929D01*
X14293809Y40872739D01*
X14331904Y40758453D01*
X14331904Y40682262D01*
X14293809Y40567977D01*
X14255714Y40529881D01*
X13989047Y40529881D01*
X13989047Y40682262D01*
X14331904Y40187024D02*
X13531904Y40187024D01*
X14331904Y39729881D01*
X13531904Y39729881D01*
X14331904Y39348929D02*
X13531904Y39348929D01*
X13531904Y39158453D01*
X13570000Y39044167D01*
X13646190Y38967977D01*
X13722380Y38929881D01*
X13874761Y38891786D01*
X13989047Y38891786D01*
X14141428Y38929881D01*
X14217619Y38967977D01*
X14293809Y39044167D01*
X14331904Y39158453D01*
X14331904Y39348929D01*
X19411904Y11158929D02*
X18611904Y11158929D01*
X18611904Y10854167D01*
X18650000Y10777977D01*
X18688095Y10739881D01*
X18764285Y10701786D01*
X18878571Y10701786D01*
X18954761Y10739881D01*
X18992857Y10777977D01*
X19030952Y10854167D01*
X19030952Y11158929D01*
X19335714Y9901786D02*
X19373809Y9939881D01*
X19411904Y10054167D01*
X19411904Y10130358D01*
X19373809Y10244643D01*
X19297619Y10320834D01*
X19221428Y10358929D01*
X19069047Y10397024D01*
X18954761Y10397024D01*
X18802380Y10358929D01*
X18726190Y10320834D01*
X18650000Y10244643D01*
X18611904Y10130358D01*
X18611904Y10054167D01*
X18650000Y9939881D01*
X18688095Y9901786D01*
X19411904Y9139881D02*
X19411904Y9597024D01*
X19411904Y9368453D02*
X18611904Y9368453D01*
X18726190Y9444643D01*
X18802380Y9520834D01*
X18840476Y9597024D01*
X29571904Y11044643D02*
X28771904Y11044643D01*
X28771904Y10739881D01*
X28810000Y10663691D01*
X28848095Y10625596D01*
X28924285Y10587500D01*
X29038571Y10587500D01*
X29114761Y10625596D01*
X29152857Y10663691D01*
X29190952Y10739881D01*
X29190952Y11044643D01*
X29343333Y10282739D02*
X29343333Y9901786D01*
X29571904Y10358929D02*
X28771904Y10092262D01*
X29571904Y9825596D01*
X28771904Y9177977D02*
X28771904Y9558929D01*
X29152857Y9597024D01*
X29114761Y9558929D01*
X29076666Y9482739D01*
X29076666Y9292262D01*
X29114761Y9216072D01*
X29152857Y9177977D01*
X29229047Y9139881D01*
X29419523Y9139881D01*
X29495714Y9177977D01*
X29533809Y9216072D01*
X29571904Y9292262D01*
X29571904Y9482739D01*
X29533809Y9558929D01*
X29495714Y9597024D01*
X13570000Y10816072D02*
X13531904Y10892262D01*
X13531904Y11006548D01*
X13570000Y11120834D01*
X13646190Y11197024D01*
X13722380Y11235120D01*
X13874761Y11273215D01*
X13989047Y11273215D01*
X14141428Y11235120D01*
X14217619Y11197024D01*
X14293809Y11120834D01*
X14331904Y11006548D01*
X14331904Y10930358D01*
X14293809Y10816072D01*
X14255714Y10777977D01*
X13989047Y10777977D01*
X13989047Y10930358D01*
X14331904Y10435120D02*
X13531904Y10435120D01*
X14331904Y9977977D01*
X13531904Y9977977D01*
X14331904Y9597024D02*
X13531904Y9597024D01*
X13531904Y9406548D01*
X13570000Y9292262D01*
X13646190Y9216072D01*
X13722380Y9177977D01*
X13874761Y9139881D01*
X13989047Y9139881D01*
X14141428Y9177977D01*
X14217619Y9216072D01*
X14293809Y9292262D01*
X14331904Y9406548D01*
X14331904Y9597024D01*
X32111904Y49893929D02*
X31311904Y49893929D01*
X31311904Y49589167D01*
X31350000Y49512977D01*
X31388095Y49474881D01*
X31464285Y49436786D01*
X31578571Y49436786D01*
X31654761Y49474881D01*
X31692857Y49512977D01*
X31730952Y49589167D01*
X31730952Y49893929D01*
X31692857Y48827262D02*
X31730952Y48712977D01*
X31769047Y48674881D01*
X31845238Y48636786D01*
X31959523Y48636786D01*
X32035714Y48674881D01*
X32073809Y48712977D01*
X32111904Y48789167D01*
X32111904Y49093929D01*
X31311904Y49093929D01*
X31311904Y48827262D01*
X31350000Y48751072D01*
X31388095Y48712977D01*
X31464285Y48674881D01*
X31540476Y48674881D01*
X31616666Y48712977D01*
X31654761Y48751072D01*
X31692857Y48827262D01*
X31692857Y49093929D01*
X31578571Y47951072D02*
X32111904Y47951072D01*
X31273809Y48141548D02*
X31845238Y48332024D01*
X31845238Y47836786D01*
X61830000Y10816072D02*
X61791904Y10892262D01*
X61791904Y11006548D01*
X61830000Y11120834D01*
X61906190Y11197024D01*
X61982380Y11235120D01*
X62134761Y11273215D01*
X62249047Y11273215D01*
X62401428Y11235120D01*
X62477619Y11197024D01*
X62553809Y11120834D01*
X62591904Y11006548D01*
X62591904Y10930358D01*
X62553809Y10816072D01*
X62515714Y10777977D01*
X62249047Y10777977D01*
X62249047Y10930358D01*
X62591904Y10435120D02*
X61791904Y10435120D01*
X62591904Y9977977D01*
X61791904Y9977977D01*
X62591904Y9597024D02*
X61791904Y9597024D01*
X61791904Y9406548D01*
X61830000Y9292262D01*
X61906190Y9216072D01*
X61982380Y9177977D01*
X62134761Y9139881D01*
X62249047Y9139881D01*
X62401428Y9177977D01*
X62477619Y9216072D01*
X62553809Y9292262D01*
X62591904Y9406548D01*
X62591904Y9597024D01*
X47351904Y11920834D02*
X46551904Y11920834D01*
X46551904Y11616072D01*
X46590000Y11539881D01*
X46628095Y11501786D01*
X46704285Y11463691D01*
X46818571Y11463691D01*
X46894761Y11501786D01*
X46932857Y11539881D01*
X46970952Y11616072D01*
X46970952Y11920834D01*
X46932857Y10854167D02*
X46970952Y10739881D01*
X47009047Y10701786D01*
X47085238Y10663691D01*
X47199523Y10663691D01*
X47275714Y10701786D01*
X47313809Y10739881D01*
X47351904Y10816072D01*
X47351904Y11120834D01*
X46551904Y11120834D01*
X46551904Y10854167D01*
X46590000Y10777977D01*
X46628095Y10739881D01*
X46704285Y10701786D01*
X46780476Y10701786D01*
X46856666Y10739881D01*
X46894761Y10777977D01*
X46932857Y10854167D01*
X46932857Y11120834D01*
X47351904Y9901786D02*
X47351904Y10358929D01*
X47351904Y10130358D02*
X46551904Y10130358D01*
X46666190Y10206548D01*
X46742380Y10282739D01*
X46780476Y10358929D01*
X46551904Y9177977D02*
X46551904Y9558929D01*
X46932857Y9597024D01*
X46894761Y9558929D01*
X46856666Y9482739D01*
X46856666Y9292262D01*
X46894761Y9216072D01*
X46932857Y9177977D01*
X47009047Y9139881D01*
X47199523Y9139881D01*
X47275714Y9177977D01*
X47313809Y9216072D01*
X47351904Y9292262D01*
X47351904Y9482739D01*
X47313809Y9558929D01*
X47275714Y9597024D01*
X19411904Y2887024D02*
X18611904Y2887024D01*
X18611904Y2582262D01*
X18650000Y2506072D01*
X18688095Y2467977D01*
X18764285Y2429881D01*
X18878571Y2429881D01*
X18954761Y2467977D01*
X18992857Y2506072D01*
X19030952Y2582262D01*
X19030952Y2887024D01*
X19335714Y1629881D02*
X19373809Y1667977D01*
X19411904Y1782262D01*
X19411904Y1858453D01*
X19373809Y1972739D01*
X19297619Y2048929D01*
X19221428Y2087024D01*
X19069047Y2125120D01*
X18954761Y2125120D01*
X18802380Y2087024D01*
X18726190Y2048929D01*
X18650000Y1972739D01*
X18611904Y1858453D01*
X18611904Y1782262D01*
X18650000Y1667977D01*
X18688095Y1629881D01*
X18611904Y1134643D02*
X18611904Y1058453D01*
X18650000Y982262D01*
X18688095Y944167D01*
X18764285Y906072D01*
X18916666Y867977D01*
X19107142Y867977D01*
X19259523Y906072D01*
X19335714Y944167D01*
X19373809Y982262D01*
X19411904Y1058453D01*
X19411904Y1134643D01*
X19373809Y1210834D01*
X19335714Y1248929D01*
X19259523Y1287024D01*
X19107142Y1325120D01*
X18916666Y1325120D01*
X18764285Y1287024D01*
X18688095Y1248929D01*
X18650000Y1210834D01*
X18611904Y1134643D01*
X52431904Y2887024D02*
X51631904Y2887024D01*
X51631904Y2582262D01*
X51670000Y2506072D01*
X51708095Y2467977D01*
X51784285Y2429881D01*
X51898571Y2429881D01*
X51974761Y2467977D01*
X52012857Y2506072D01*
X52050952Y2582262D01*
X52050952Y2887024D01*
X52355714Y1629881D02*
X52393809Y1667977D01*
X52431904Y1782262D01*
X52431904Y1858453D01*
X52393809Y1972739D01*
X52317619Y2048929D01*
X52241428Y2087024D01*
X52089047Y2125120D01*
X51974761Y2125120D01*
X51822380Y2087024D01*
X51746190Y2048929D01*
X51670000Y1972739D01*
X51631904Y1858453D01*
X51631904Y1782262D01*
X51670000Y1667977D01*
X51708095Y1629881D01*
X51974761Y1172739D02*
X51936666Y1248929D01*
X51898571Y1287024D01*
X51822380Y1325120D01*
X51784285Y1325120D01*
X51708095Y1287024D01*
X51670000Y1248929D01*
X51631904Y1172739D01*
X51631904Y1020358D01*
X51670000Y944167D01*
X51708095Y906072D01*
X51784285Y867977D01*
X51822380Y867977D01*
X51898571Y906072D01*
X51936666Y944167D01*
X51974761Y1020358D01*
X51974761Y1172739D01*
X52012857Y1248929D01*
X52050952Y1287024D01*
X52127142Y1325120D01*
X52279523Y1325120D01*
X52355714Y1287024D01*
X52393809Y1248929D01*
X52431904Y1172739D01*
X52431904Y1020358D01*
X52393809Y944167D01*
X52355714Y906072D01*
X52279523Y867977D01*
X52127142Y867977D01*
X52050952Y906072D01*
X52012857Y944167D01*
X51974761Y1020358D01*
X56711904Y49893929D02*
X57359523Y49893929D01*
X57435714Y49855834D01*
X57473809Y49817739D01*
X57511904Y49741548D01*
X57511904Y49589167D01*
X57473809Y49512977D01*
X57435714Y49474881D01*
X57359523Y49436786D01*
X56711904Y49436786D01*
X57511904Y48636786D02*
X57511904Y49093929D01*
X57511904Y48865358D02*
X56711904Y48865358D01*
X56826190Y48941548D01*
X56902380Y49017739D01*
X56940476Y49093929D01*
X56711904Y47912977D02*
X56711904Y48293929D01*
X57092857Y48332024D01*
X57054761Y48293929D01*
X57016666Y48217739D01*
X57016666Y48027262D01*
X57054761Y47951072D01*
X57092857Y47912977D01*
X57169047Y47874881D01*
X57359523Y47874881D01*
X57435714Y47912977D01*
X57473809Y47951072D01*
X57511904Y48027262D01*
X57511904Y48217739D01*
X57473809Y48293929D01*
X57435714Y48332024D01*
X29571904Y2887024D02*
X28771904Y2887024D01*
X28771904Y2582262D01*
X28810000Y2506072D01*
X28848095Y2467977D01*
X28924285Y2429881D01*
X29038571Y2429881D01*
X29114761Y2467977D01*
X29152857Y2506072D01*
X29190952Y2582262D01*
X29190952Y2887024D01*
X29343333Y2125120D02*
X29343333Y1744167D01*
X29571904Y2201310D02*
X28771904Y1934643D01*
X29571904Y1667977D01*
X29038571Y1058453D02*
X29571904Y1058453D01*
X28733809Y1248929D02*
X29305238Y1439405D01*
X29305238Y944167D01*
X16452857Y2620358D02*
X16490952Y2506072D01*
X16529047Y2467977D01*
X16605238Y2429881D01*
X16719523Y2429881D01*
X16795714Y2467977D01*
X16833809Y2506072D01*
X16871904Y2582262D01*
X16871904Y2887024D01*
X16071904Y2887024D01*
X16071904Y2620358D01*
X16110000Y2544167D01*
X16148095Y2506072D01*
X16224285Y2467977D01*
X16300476Y2467977D01*
X16376666Y2506072D01*
X16414761Y2544167D01*
X16452857Y2620358D01*
X16452857Y2887024D01*
X16071904Y1934643D02*
X16071904Y1782262D01*
X16110000Y1706072D01*
X16186190Y1629881D01*
X16338571Y1591786D01*
X16605238Y1591786D01*
X16757619Y1629881D01*
X16833809Y1706072D01*
X16871904Y1782262D01*
X16871904Y1934643D01*
X16833809Y2010834D01*
X16757619Y2087024D01*
X16605238Y2125120D01*
X16338571Y2125120D01*
X16186190Y2087024D01*
X16110000Y2010834D01*
X16071904Y1934643D01*
X16071904Y1096548D02*
X16071904Y1020358D01*
X16110000Y944167D01*
X16148095Y906072D01*
X16224285Y867977D01*
X16376666Y829881D01*
X16567142Y829881D01*
X16719523Y867977D01*
X16795714Y906072D01*
X16833809Y944167D01*
X16871904Y1020358D01*
X16871904Y1096548D01*
X16833809Y1172739D01*
X16795714Y1210834D01*
X16719523Y1248929D01*
X16567142Y1287024D01*
X16376666Y1287024D01*
X16224285Y1248929D01*
X16148095Y1210834D01*
X16110000Y1172739D01*
X16071904Y1096548D01*
X34651904Y40987024D02*
X33851904Y40987024D01*
X33851904Y40682262D01*
X33890000Y40606072D01*
X33928095Y40567977D01*
X34004285Y40529881D01*
X34118571Y40529881D01*
X34194761Y40567977D01*
X34232857Y40606072D01*
X34270952Y40682262D01*
X34270952Y40987024D01*
X34232857Y39920358D02*
X34270952Y39806072D01*
X34309047Y39767977D01*
X34385238Y39729881D01*
X34499523Y39729881D01*
X34575714Y39767977D01*
X34613809Y39806072D01*
X34651904Y39882262D01*
X34651904Y40187024D01*
X33851904Y40187024D01*
X33851904Y39920358D01*
X33890000Y39844167D01*
X33928095Y39806072D01*
X34004285Y39767977D01*
X34080476Y39767977D01*
X34156666Y39806072D01*
X34194761Y39844167D01*
X34232857Y39920358D01*
X34232857Y40187024D01*
X33851904Y39463215D02*
X33851904Y38967977D01*
X34156666Y39234643D01*
X34156666Y39120358D01*
X34194761Y39044167D01*
X34232857Y39006072D01*
X34309047Y38967977D01*
X34499523Y38967977D01*
X34575714Y39006072D01*
X34613809Y39044167D01*
X34651904Y39120358D01*
X34651904Y39348929D01*
X34613809Y39425120D01*
X34575714Y39463215D01*
X59251904Y2963215D02*
X59251904Y2467977D01*
X59556666Y2734643D01*
X59556666Y2620358D01*
X59594761Y2544167D01*
X59632857Y2506072D01*
X59709047Y2467977D01*
X59899523Y2467977D01*
X59975714Y2506072D01*
X60013809Y2544167D01*
X60051904Y2620358D01*
X60051904Y2848929D01*
X60013809Y2925120D01*
X59975714Y2963215D01*
X59975714Y2125120D02*
X60013809Y2087024D01*
X60051904Y2125120D01*
X60013809Y2163215D01*
X59975714Y2125120D01*
X60051904Y2125120D01*
X59251904Y1820358D02*
X59251904Y1325120D01*
X59556666Y1591786D01*
X59556666Y1477500D01*
X59594761Y1401310D01*
X59632857Y1363215D01*
X59709047Y1325120D01*
X59899523Y1325120D01*
X59975714Y1363215D01*
X60013809Y1401310D01*
X60051904Y1477500D01*
X60051904Y1706072D01*
X60013809Y1782262D01*
X59975714Y1820358D01*
X59251904Y1096548D02*
X60051904Y829881D01*
X59251904Y563215D01*
X59251904Y50198691D02*
X59251904Y49703453D01*
X59556666Y49970120D01*
X59556666Y49855834D01*
X59594761Y49779643D01*
X59632857Y49741548D01*
X59709047Y49703453D01*
X59899523Y49703453D01*
X59975714Y49741548D01*
X60013809Y49779643D01*
X60051904Y49855834D01*
X60051904Y50084405D01*
X60013809Y50160596D01*
X59975714Y50198691D01*
X59975714Y49360596D02*
X60013809Y49322500D01*
X60051904Y49360596D01*
X60013809Y49398691D01*
X59975714Y49360596D01*
X60051904Y49360596D01*
X59251904Y49055834D02*
X59251904Y48560596D01*
X59556666Y48827262D01*
X59556666Y48712977D01*
X59594761Y48636786D01*
X59632857Y48598691D01*
X59709047Y48560596D01*
X59899523Y48560596D01*
X59975714Y48598691D01*
X60013809Y48636786D01*
X60051904Y48712977D01*
X60051904Y48941548D01*
X60013809Y49017739D01*
X59975714Y49055834D01*
X59251904Y48332024D02*
X60051904Y48065358D01*
X59251904Y47798691D01*
X52431904Y40987024D02*
X51631904Y40987024D01*
X51631904Y40682262D01*
X51670000Y40606072D01*
X51708095Y40567977D01*
X51784285Y40529881D01*
X51898571Y40529881D01*
X51974761Y40567977D01*
X52012857Y40606072D01*
X52050952Y40682262D01*
X52050952Y40987024D01*
X52203333Y40225120D02*
X52203333Y39844167D01*
X52431904Y40301310D02*
X51631904Y40034643D01*
X52431904Y39767977D01*
X52431904Y39463215D02*
X52431904Y39310834D01*
X52393809Y39234643D01*
X52355714Y39196548D01*
X52241428Y39120358D01*
X52089047Y39082262D01*
X51784285Y39082262D01*
X51708095Y39120358D01*
X51670000Y39158453D01*
X51631904Y39234643D01*
X51631904Y39387024D01*
X51670000Y39463215D01*
X51708095Y39501310D01*
X51784285Y39539405D01*
X51974761Y39539405D01*
X52050952Y39501310D01*
X52089047Y39463215D01*
X52127142Y39387024D01*
X52127142Y39234643D01*
X52089047Y39158453D01*
X52050952Y39120358D01*
X51974761Y39082262D01*
X56711904Y40987024D02*
X57359523Y40987024D01*
X57435714Y40948929D01*
X57473809Y40910834D01*
X57511904Y40834643D01*
X57511904Y40682262D01*
X57473809Y40606072D01*
X57435714Y40567977D01*
X57359523Y40529881D01*
X56711904Y40529881D01*
X57511904Y39729881D02*
X57511904Y40187024D01*
X57511904Y39958453D02*
X56711904Y39958453D01*
X56826190Y40034643D01*
X56902380Y40110834D01*
X56940476Y40187024D01*
X56711904Y39044167D02*
X56711904Y39196548D01*
X56750000Y39272739D01*
X56788095Y39310834D01*
X56902380Y39387024D01*
X57054761Y39425120D01*
X57359523Y39425120D01*
X57435714Y39387024D01*
X57473809Y39348929D01*
X57511904Y39272739D01*
X57511904Y39120358D01*
X57473809Y39044167D01*
X57435714Y39006072D01*
X57359523Y38967977D01*
X57169047Y38967977D01*
X57092857Y39006072D01*
X57054761Y39044167D01*
X57016666Y39120358D01*
X57016666Y39272739D01*
X57054761Y39348929D01*
X57092857Y39387024D01*
X57169047Y39425120D01*
X49891904Y2887024D02*
X49091904Y2887024D01*
X49091904Y2582262D01*
X49130000Y2506072D01*
X49168095Y2467977D01*
X49244285Y2429881D01*
X49358571Y2429881D01*
X49434761Y2467977D01*
X49472857Y2506072D01*
X49510952Y2582262D01*
X49510952Y2887024D01*
X49815714Y1629881D02*
X49853809Y1667977D01*
X49891904Y1782262D01*
X49891904Y1858453D01*
X49853809Y1972739D01*
X49777619Y2048929D01*
X49701428Y2087024D01*
X49549047Y2125120D01*
X49434761Y2125120D01*
X49282380Y2087024D01*
X49206190Y2048929D01*
X49130000Y1972739D01*
X49091904Y1858453D01*
X49091904Y1782262D01*
X49130000Y1667977D01*
X49168095Y1629881D01*
X49091904Y944167D02*
X49091904Y1096548D01*
X49130000Y1172739D01*
X49168095Y1210834D01*
X49282380Y1287024D01*
X49434761Y1325120D01*
X49739523Y1325120D01*
X49815714Y1287024D01*
X49853809Y1248929D01*
X49891904Y1172739D01*
X49891904Y1020358D01*
X49853809Y944167D01*
X49815714Y906072D01*
X49739523Y867977D01*
X49549047Y867977D01*
X49472857Y906072D01*
X49434761Y944167D01*
X49396666Y1020358D01*
X49396666Y1172739D01*
X49434761Y1248929D01*
X49472857Y1287024D01*
X49549047Y1325120D01*
X59290000Y10816072D02*
X59251904Y10892262D01*
X59251904Y11006548D01*
X59290000Y11120834D01*
X59366190Y11197024D01*
X59442380Y11235120D01*
X59594761Y11273215D01*
X59709047Y11273215D01*
X59861428Y11235120D01*
X59937619Y11197024D01*
X60013809Y11120834D01*
X60051904Y11006548D01*
X60051904Y10930358D01*
X60013809Y10816072D01*
X59975714Y10777977D01*
X59709047Y10777977D01*
X59709047Y10930358D01*
X60051904Y10435120D02*
X59251904Y10435120D01*
X60051904Y9977977D01*
X59251904Y9977977D01*
X60051904Y9597024D02*
X59251904Y9597024D01*
X59251904Y9406548D01*
X59290000Y9292262D01*
X59366190Y9216072D01*
X59442380Y9177977D01*
X59594761Y9139881D01*
X59709047Y9139881D01*
X59861428Y9177977D01*
X59937619Y9216072D01*
X60013809Y9292262D01*
X60051904Y9406548D01*
X60051904Y9597024D01*
X13531904Y50198691D02*
X13531904Y49703453D01*
X13836666Y49970120D01*
X13836666Y49855834D01*
X13874761Y49779643D01*
X13912857Y49741548D01*
X13989047Y49703453D01*
X14179523Y49703453D01*
X14255714Y49741548D01*
X14293809Y49779643D01*
X14331904Y49855834D01*
X14331904Y50084405D01*
X14293809Y50160596D01*
X14255714Y50198691D01*
X14255714Y49360596D02*
X14293809Y49322500D01*
X14331904Y49360596D01*
X14293809Y49398691D01*
X14255714Y49360596D01*
X14331904Y49360596D01*
X13531904Y49055834D02*
X13531904Y48560596D01*
X13836666Y48827262D01*
X13836666Y48712977D01*
X13874761Y48636786D01*
X13912857Y48598691D01*
X13989047Y48560596D01*
X14179523Y48560596D01*
X14255714Y48598691D01*
X14293809Y48636786D01*
X14331904Y48712977D01*
X14331904Y48941548D01*
X14293809Y49017739D01*
X14255714Y49055834D01*
X13531904Y48332024D02*
X14331904Y48065358D01*
X13531904Y47798691D01*
X41471904Y49893929D02*
X42119523Y49893929D01*
X42195714Y49855834D01*
X42233809Y49817739D01*
X42271904Y49741548D01*
X42271904Y49589167D01*
X42233809Y49512977D01*
X42195714Y49474881D01*
X42119523Y49436786D01*
X41471904Y49436786D01*
X42271904Y48636786D02*
X42271904Y49093929D01*
X42271904Y48865358D02*
X41471904Y48865358D01*
X41586190Y48941548D01*
X41662380Y49017739D01*
X41700476Y49093929D01*
X42271904Y47874881D02*
X42271904Y48332024D01*
X42271904Y48103453D02*
X41471904Y48103453D01*
X41586190Y48179643D01*
X41662380Y48255834D01*
X41700476Y48332024D01*
X39731904Y50655834D02*
X38931904Y50655834D01*
X38931904Y50351072D01*
X38970000Y50274881D01*
X39008095Y50236786D01*
X39084285Y50198691D01*
X39198571Y50198691D01*
X39274761Y50236786D01*
X39312857Y50274881D01*
X39350952Y50351072D01*
X39350952Y50655834D01*
X39655714Y49398691D02*
X39693809Y49436786D01*
X39731904Y49551072D01*
X39731904Y49627262D01*
X39693809Y49741548D01*
X39617619Y49817739D01*
X39541428Y49855834D01*
X39389047Y49893929D01*
X39274761Y49893929D01*
X39122380Y49855834D01*
X39046190Y49817739D01*
X38970000Y49741548D01*
X38931904Y49627262D01*
X38931904Y49551072D01*
X38970000Y49436786D01*
X39008095Y49398691D01*
X39731904Y48636786D02*
X39731904Y49093929D01*
X39731904Y48865358D02*
X38931904Y48865358D01*
X39046190Y48941548D01*
X39122380Y49017739D01*
X39160476Y49093929D01*
X38931904Y48141548D02*
X38931904Y48065358D01*
X38970000Y47989167D01*
X39008095Y47951072D01*
X39084285Y47912977D01*
X39236666Y47874881D01*
X39427142Y47874881D01*
X39579523Y47912977D01*
X39655714Y47951072D01*
X39693809Y47989167D01*
X39731904Y48065358D01*
X39731904Y48141548D01*
X39693809Y48217739D01*
X39655714Y48255834D01*
X39579523Y48293929D01*
X39427142Y48332024D01*
X39236666Y48332024D01*
X39084285Y48293929D01*
X39008095Y48255834D01*
X38970000Y48217739D01*
X38931904Y48141548D01*
X32111904Y11044643D02*
X31311904Y11044643D01*
X31311904Y10739881D01*
X31350000Y10663691D01*
X31388095Y10625596D01*
X31464285Y10587500D01*
X31578571Y10587500D01*
X31654761Y10625596D01*
X31692857Y10663691D01*
X31730952Y10739881D01*
X31730952Y11044643D01*
X31883333Y10282739D02*
X31883333Y9901786D01*
X32111904Y10358929D02*
X31311904Y10092262D01*
X32111904Y9825596D01*
X31311904Y9635120D02*
X31311904Y9101786D01*
X32111904Y9444643D01*
X49891904Y40987024D02*
X49091904Y40987024D01*
X49091904Y40682262D01*
X49130000Y40606072D01*
X49168095Y40567977D01*
X49244285Y40529881D01*
X49358571Y40529881D01*
X49434761Y40567977D01*
X49472857Y40606072D01*
X49510952Y40682262D01*
X49510952Y40987024D01*
X49663333Y40225120D02*
X49663333Y39844167D01*
X49891904Y40301310D02*
X49091904Y40034643D01*
X49891904Y39767977D01*
X49891904Y39082262D02*
X49891904Y39539405D01*
X49891904Y39310834D02*
X49091904Y39310834D01*
X49206190Y39387024D01*
X49282380Y39463215D01*
X49320476Y39539405D01*
X49891904Y38320358D02*
X49891904Y38777500D01*
X49891904Y38548929D02*
X49091904Y38548929D01*
X49206190Y38625120D01*
X49282380Y38701310D01*
X49320476Y38777500D01*
X44811904Y50541548D02*
X44011904Y50541548D01*
X44011904Y50236786D01*
X44050000Y50160596D01*
X44088095Y50122500D01*
X44164285Y50084405D01*
X44278571Y50084405D01*
X44354761Y50122500D01*
X44392857Y50160596D01*
X44430952Y50236786D01*
X44430952Y50541548D01*
X44583333Y49779643D02*
X44583333Y49398691D01*
X44811904Y49855834D02*
X44011904Y49589167D01*
X44811904Y49322500D01*
X44811904Y48636786D02*
X44811904Y49093929D01*
X44811904Y48865358D02*
X44011904Y48865358D01*
X44126190Y48941548D01*
X44202380Y49017739D01*
X44240476Y49093929D01*
X44278571Y47951072D02*
X44811904Y47951072D01*
X43973809Y48141548D02*
X44545238Y48332024D01*
X44545238Y47836786D01*
X44811904Y2887024D02*
X44011904Y2887024D01*
X44011904Y2582262D01*
X44050000Y2506072D01*
X44088095Y2467977D01*
X44164285Y2429881D01*
X44278571Y2429881D01*
X44354761Y2467977D01*
X44392857Y2506072D01*
X44430952Y2582262D01*
X44430952Y2887024D01*
X44392857Y1820358D02*
X44430952Y1706072D01*
X44469047Y1667977D01*
X44545238Y1629881D01*
X44659523Y1629881D01*
X44735714Y1667977D01*
X44773809Y1706072D01*
X44811904Y1782262D01*
X44811904Y2087024D01*
X44011904Y2087024D01*
X44011904Y1820358D01*
X44050000Y1744167D01*
X44088095Y1706072D01*
X44164285Y1667977D01*
X44240476Y1667977D01*
X44316666Y1706072D01*
X44354761Y1744167D01*
X44392857Y1820358D01*
X44392857Y2087024D01*
X44811904Y867977D02*
X44811904Y1325120D01*
X44811904Y1096548D02*
X44011904Y1096548D01*
X44126190Y1172739D01*
X44202380Y1248929D01*
X44240476Y1325120D01*
X44088095Y563215D02*
X44050000Y525120D01*
X44011904Y448929D01*
X44011904Y258453D01*
X44050000Y182262D01*
X44088095Y144167D01*
X44164285Y106072D01*
X44240476Y106072D01*
X44354761Y144167D01*
X44811904Y601310D01*
X44811904Y106072D01*
X34651904Y2887024D02*
X33851904Y2887024D01*
X33851904Y2582262D01*
X33890000Y2506072D01*
X33928095Y2467977D01*
X34004285Y2429881D01*
X34118571Y2429881D01*
X34194761Y2467977D01*
X34232857Y2506072D01*
X34270952Y2582262D01*
X34270952Y2887024D01*
X34575714Y1629881D02*
X34613809Y1667977D01*
X34651904Y1782262D01*
X34651904Y1858453D01*
X34613809Y1972739D01*
X34537619Y2048929D01*
X34461428Y2087024D01*
X34309047Y2125120D01*
X34194761Y2125120D01*
X34042380Y2087024D01*
X33966190Y2048929D01*
X33890000Y1972739D01*
X33851904Y1858453D01*
X33851904Y1782262D01*
X33890000Y1667977D01*
X33928095Y1629881D01*
X34118571Y944167D02*
X34651904Y944167D01*
X33813809Y1134643D02*
X34385238Y1325120D01*
X34385238Y829881D01*
X54171904Y2887024D02*
X54819523Y2887024D01*
X54895714Y2848929D01*
X54933809Y2810834D01*
X54971904Y2734643D01*
X54971904Y2582262D01*
X54933809Y2506072D01*
X54895714Y2467977D01*
X54819523Y2429881D01*
X54171904Y2429881D01*
X54971904Y1629881D02*
X54971904Y2087024D01*
X54971904Y1858453D02*
X54171904Y1858453D01*
X54286190Y1934643D01*
X54362380Y2010834D01*
X54400476Y2087024D01*
X47351904Y40987024D02*
X46551904Y40987024D01*
X46551904Y40682262D01*
X46590000Y40606072D01*
X46628095Y40567977D01*
X46704285Y40529881D01*
X46818571Y40529881D01*
X46894761Y40567977D01*
X46932857Y40606072D01*
X46970952Y40682262D01*
X46970952Y40987024D01*
X47123333Y40225120D02*
X47123333Y39844167D01*
X47351904Y40301310D02*
X46551904Y40034643D01*
X47351904Y39767977D01*
X47351904Y39082262D02*
X47351904Y39539405D01*
X47351904Y39310834D02*
X46551904Y39310834D01*
X46666190Y39387024D01*
X46742380Y39463215D01*
X46780476Y39539405D01*
X46551904Y38815596D02*
X46551904Y38320358D01*
X46856666Y38587024D01*
X46856666Y38472739D01*
X46894761Y38396548D01*
X46932857Y38358453D01*
X47009047Y38320358D01*
X47199523Y38320358D01*
X47275714Y38358453D01*
X47313809Y38396548D01*
X47351904Y38472739D01*
X47351904Y38701310D01*
X47313809Y38777500D01*
X47275714Y38815596D01*
X13531904Y2963215D02*
X13531904Y2467977D01*
X13836666Y2734643D01*
X13836666Y2620358D01*
X13874761Y2544167D01*
X13912857Y2506072D01*
X13989047Y2467977D01*
X14179523Y2467977D01*
X14255714Y2506072D01*
X14293809Y2544167D01*
X14331904Y2620358D01*
X14331904Y2848929D01*
X14293809Y2925120D01*
X14255714Y2963215D01*
X14255714Y2125120D02*
X14293809Y2087024D01*
X14331904Y2125120D01*
X14293809Y2163215D01*
X14255714Y2125120D01*
X14331904Y2125120D01*
X13531904Y1820358D02*
X13531904Y1325120D01*
X13836666Y1591786D01*
X13836666Y1477500D01*
X13874761Y1401310D01*
X13912857Y1363215D01*
X13989047Y1325120D01*
X14179523Y1325120D01*
X14255714Y1363215D01*
X14293809Y1401310D01*
X14331904Y1477500D01*
X14331904Y1706072D01*
X14293809Y1782262D01*
X14255714Y1820358D01*
X13531904Y1096548D02*
X14331904Y829881D01*
X13531904Y563215D01*
X37191904Y50655834D02*
X36391904Y50655834D01*
X36391904Y50351072D01*
X36430000Y50274881D01*
X36468095Y50236786D01*
X36544285Y50198691D01*
X36658571Y50198691D01*
X36734761Y50236786D01*
X36772857Y50274881D01*
X36810952Y50351072D01*
X36810952Y50655834D01*
X37115714Y49398691D02*
X37153809Y49436786D01*
X37191904Y49551072D01*
X37191904Y49627262D01*
X37153809Y49741548D01*
X37077619Y49817739D01*
X37001428Y49855834D01*
X36849047Y49893929D01*
X36734761Y49893929D01*
X36582380Y49855834D01*
X36506190Y49817739D01*
X36430000Y49741548D01*
X36391904Y49627262D01*
X36391904Y49551072D01*
X36430000Y49436786D01*
X36468095Y49398691D01*
X37191904Y48636786D02*
X37191904Y49093929D01*
X37191904Y48865358D02*
X36391904Y48865358D01*
X36506190Y48941548D01*
X36582380Y49017739D01*
X36620476Y49093929D01*
X36468095Y48332024D02*
X36430000Y48293929D01*
X36391904Y48217739D01*
X36391904Y48027262D01*
X36430000Y47951072D01*
X36468095Y47912977D01*
X36544285Y47874881D01*
X36620476Y47874881D01*
X36734761Y47912977D01*
X37191904Y48370120D01*
X37191904Y47874881D01*
X16871904Y11806548D02*
X16071904Y11806548D01*
X16871904Y11349405D01*
X16071904Y11349405D01*
X16871904Y10511310D02*
X16490952Y10777977D01*
X16871904Y10968453D02*
X16071904Y10968453D01*
X16071904Y10663691D01*
X16110000Y10587500D01*
X16148095Y10549405D01*
X16224285Y10511310D01*
X16338571Y10511310D01*
X16414761Y10549405D01*
X16452857Y10587500D01*
X16490952Y10663691D01*
X16490952Y10968453D01*
X16833809Y10206548D02*
X16871904Y10092262D01*
X16871904Y9901786D01*
X16833809Y9825596D01*
X16795714Y9787500D01*
X16719523Y9749405D01*
X16643333Y9749405D01*
X16567142Y9787500D01*
X16529047Y9825596D01*
X16490952Y9901786D01*
X16452857Y10054167D01*
X16414761Y10130358D01*
X16376666Y10168453D01*
X16300476Y10206548D01*
X16224285Y10206548D01*
X16148095Y10168453D01*
X16110000Y10130358D01*
X16071904Y10054167D01*
X16071904Y9863691D01*
X16110000Y9749405D01*
X16071904Y9520834D02*
X16071904Y9063691D01*
X16871904Y9292262D02*
X16071904Y9292262D01*
X2992380Y42844405D02*
X1992380Y42844405D01*
X1992380Y42463453D01*
X2040000Y42368215D01*
X2087619Y42320596D01*
X2182857Y42272977D01*
X2325714Y42272977D01*
X2420952Y42320596D01*
X2468571Y42368215D01*
X2516190Y42463453D01*
X2516190Y42844405D01*
X2992380Y41272977D02*
X2516190Y41606310D01*
X2992380Y41844405D02*
X1992380Y41844405D01*
X1992380Y41463453D01*
X2040000Y41368215D01*
X2087619Y41320596D01*
X2182857Y41272977D01*
X2325714Y41272977D01*
X2420952Y41320596D01*
X2468571Y41368215D01*
X2516190Y41463453D01*
X2516190Y41844405D01*
X2040000Y40320596D02*
X1992380Y40415834D01*
X1992380Y40558691D01*
X2040000Y40701548D01*
X2135238Y40796786D01*
X2230476Y40844405D01*
X2420952Y40892024D01*
X2563809Y40892024D01*
X2754285Y40844405D01*
X2849523Y40796786D01*
X2944761Y40701548D01*
X2992380Y40558691D01*
X2992380Y40463453D01*
X2944761Y40320596D01*
X2897142Y40272977D01*
X2563809Y40272977D01*
X2563809Y40463453D01*
X2944761Y39892024D02*
X2992380Y39749167D01*
X2992380Y39511072D01*
X2944761Y39415834D01*
X2897142Y39368215D01*
X2801904Y39320596D01*
X2706666Y39320596D01*
X2611428Y39368215D01*
X2563809Y39415834D01*
X2516190Y39511072D01*
X2468571Y39701548D01*
X2420952Y39796786D01*
X2373333Y39844405D01*
X2278095Y39892024D01*
X2182857Y39892024D01*
X2087619Y39844405D01*
X2040000Y39796786D01*
X1992380Y39701548D01*
X1992380Y39463453D01*
X2040000Y39320596D01*
X1992380Y39034881D02*
X1992380Y38463453D01*
X2992380Y38749167D02*
X1992380Y38749167D01*
X2992380Y37653929D02*
X2992380Y38130120D01*
X1992380Y38130120D01*
X2992380Y36558691D02*
X2325714Y36558691D01*
X2516190Y36558691D02*
X2420952Y36511072D01*
X2373333Y36463453D01*
X2325714Y36368215D01*
X2325714Y36272977D01*
X2944761Y35558691D02*
X2992380Y35653929D01*
X2992380Y35844405D01*
X2944761Y35939643D01*
X2849523Y35987262D01*
X2468571Y35987262D01*
X2373333Y35939643D01*
X2325714Y35844405D01*
X2325714Y35653929D01*
X2373333Y35558691D01*
X2468571Y35511072D01*
X2563809Y35511072D01*
X2659047Y35987262D01*
X2325714Y35177739D02*
X2992380Y34939643D01*
X2325714Y34701548D01*
X2897142Y34320596D02*
X2944761Y34272977D01*
X2992380Y34320596D01*
X2944761Y34368215D01*
X2897142Y34320596D01*
X2992380Y34320596D01*
X2992380Y32653929D02*
X2468571Y32653929D01*
X2373333Y32701548D01*
X2325714Y32796786D01*
X2325714Y32987262D01*
X2373333Y33082500D01*
X2944761Y32653929D02*
X2992380Y32749167D01*
X2992380Y32987262D01*
X2944761Y33082500D01*
X2849523Y33130120D01*
X2754285Y33130120D01*
X2659047Y33082500D01*
X2611428Y32987262D01*
X2611428Y32749167D01*
X2563809Y32653929D01*
X52431904Y11158929D02*
X51631904Y11158929D01*
X51631904Y10854167D01*
X51670000Y10777977D01*
X51708095Y10739881D01*
X51784285Y10701786D01*
X51898571Y10701786D01*
X51974761Y10739881D01*
X52012857Y10777977D01*
X52050952Y10854167D01*
X52050952Y11158929D01*
X52355714Y9901786D02*
X52393809Y9939881D01*
X52431904Y10054167D01*
X52431904Y10130358D01*
X52393809Y10244643D01*
X52317619Y10320834D01*
X52241428Y10358929D01*
X52089047Y10397024D01*
X51974761Y10397024D01*
X51822380Y10358929D01*
X51746190Y10320834D01*
X51670000Y10244643D01*
X51631904Y10130358D01*
X51631904Y10054167D01*
X51670000Y9939881D01*
X51708095Y9901786D01*
X52431904Y9520834D02*
X52431904Y9368453D01*
X52393809Y9292262D01*
X52355714Y9254167D01*
X52241428Y9177977D01*
X52089047Y9139881D01*
X51784285Y9139881D01*
X51708095Y9177977D01*
X51670000Y9216072D01*
X51631904Y9292262D01*
X51631904Y9444643D01*
X51670000Y9520834D01*
X51708095Y9558929D01*
X51784285Y9597024D01*
X51974761Y9597024D01*
X52050952Y9558929D01*
X52089047Y9520834D01*
X52127142Y9444643D01*
X52127142Y9292262D01*
X52089047Y9216072D01*
X52050952Y9177977D01*
X51974761Y9139881D01*
X42271904Y11920834D02*
X41471904Y11920834D01*
X41471904Y11616072D01*
X41510000Y11539881D01*
X41548095Y11501786D01*
X41624285Y11463691D01*
X41738571Y11463691D01*
X41814761Y11501786D01*
X41852857Y11539881D01*
X41890952Y11616072D01*
X41890952Y11920834D01*
X41852857Y10854167D02*
X41890952Y10739881D01*
X41929047Y10701786D01*
X42005238Y10663691D01*
X42119523Y10663691D01*
X42195714Y10701786D01*
X42233809Y10739881D01*
X42271904Y10816072D01*
X42271904Y11120834D01*
X41471904Y11120834D01*
X41471904Y10854167D01*
X41510000Y10777977D01*
X41548095Y10739881D01*
X41624285Y10701786D01*
X41700476Y10701786D01*
X41776666Y10739881D01*
X41814761Y10777977D01*
X41852857Y10854167D01*
X41852857Y11120834D01*
X42271904Y9901786D02*
X42271904Y10358929D01*
X42271904Y10130358D02*
X41471904Y10130358D01*
X41586190Y10206548D01*
X41662380Y10282739D01*
X41700476Y10358929D01*
X42271904Y9139881D02*
X42271904Y9597024D01*
X42271904Y9368453D02*
X41471904Y9368453D01*
X41586190Y9444643D01*
X41662380Y9520834D01*
X41700476Y9597024D01*
X21951904Y2887024D02*
X21151904Y2887024D01*
X21151904Y2582262D01*
X21190000Y2506072D01*
X21228095Y2467977D01*
X21304285Y2429881D01*
X21418571Y2429881D01*
X21494761Y2467977D01*
X21532857Y2506072D01*
X21570952Y2582262D01*
X21570952Y2887024D01*
X21875714Y1629881D02*
X21913809Y1667977D01*
X21951904Y1782262D01*
X21951904Y1858453D01*
X21913809Y1972739D01*
X21837619Y2048929D01*
X21761428Y2087024D01*
X21609047Y2125120D01*
X21494761Y2125120D01*
X21342380Y2087024D01*
X21266190Y2048929D01*
X21190000Y1972739D01*
X21151904Y1858453D01*
X21151904Y1782262D01*
X21190000Y1667977D01*
X21228095Y1629881D01*
X21228095Y1325120D02*
X21190000Y1287024D01*
X21151904Y1210834D01*
X21151904Y1020358D01*
X21190000Y944167D01*
X21228095Y906072D01*
X21304285Y867977D01*
X21380476Y867977D01*
X21494761Y906072D01*
X21951904Y1363215D01*
X21951904Y867977D01*
X44811904Y11920834D02*
X44011904Y11920834D01*
X44011904Y11616072D01*
X44050000Y11539881D01*
X44088095Y11501786D01*
X44164285Y11463691D01*
X44278571Y11463691D01*
X44354761Y11501786D01*
X44392857Y11539881D01*
X44430952Y11616072D01*
X44430952Y11920834D01*
X44392857Y10854167D02*
X44430952Y10739881D01*
X44469047Y10701786D01*
X44545238Y10663691D01*
X44659523Y10663691D01*
X44735714Y10701786D01*
X44773809Y10739881D01*
X44811904Y10816072D01*
X44811904Y11120834D01*
X44011904Y11120834D01*
X44011904Y10854167D01*
X44050000Y10777977D01*
X44088095Y10739881D01*
X44164285Y10701786D01*
X44240476Y10701786D01*
X44316666Y10739881D01*
X44354761Y10777977D01*
X44392857Y10854167D01*
X44392857Y11120834D01*
X44811904Y9901786D02*
X44811904Y10358929D01*
X44811904Y10130358D02*
X44011904Y10130358D01*
X44126190Y10206548D01*
X44202380Y10282739D01*
X44240476Y10358929D01*
X44011904Y9635120D02*
X44011904Y9139881D01*
X44316666Y9406548D01*
X44316666Y9292262D01*
X44354761Y9216072D01*
X44392857Y9177977D01*
X44469047Y9139881D01*
X44659523Y9139881D01*
X44735714Y9177977D01*
X44773809Y9216072D01*
X44811904Y9292262D01*
X44811904Y9520834D01*
X44773809Y9597024D01*
X44735714Y9635120D01*
X38931904Y10397024D02*
X39579523Y10397024D01*
X39655714Y10358929D01*
X39693809Y10320834D01*
X39731904Y10244643D01*
X39731904Y10092262D01*
X39693809Y10016072D01*
X39655714Y9977977D01*
X39579523Y9939881D01*
X38931904Y9939881D01*
X38931904Y9406548D02*
X38931904Y9330358D01*
X38970000Y9254167D01*
X39008095Y9216072D01*
X39084285Y9177977D01*
X39236666Y9139881D01*
X39427142Y9139881D01*
X39579523Y9177977D01*
X39655714Y9216072D01*
X39693809Y9254167D01*
X39731904Y9330358D01*
X39731904Y9406548D01*
X39693809Y9482739D01*
X39655714Y9520834D01*
X39579523Y9558929D01*
X39427142Y9597024D01*
X39236666Y9597024D01*
X39084285Y9558929D01*
X39008095Y9520834D01*
X38970000Y9482739D01*
X38931904Y9406548D01*
X42271904Y2887024D02*
X41471904Y2887024D01*
X41471904Y2582262D01*
X41510000Y2506072D01*
X41548095Y2467977D01*
X41624285Y2429881D01*
X41738571Y2429881D01*
X41814761Y2467977D01*
X41852857Y2506072D01*
X41890952Y2582262D01*
X41890952Y2887024D01*
X41852857Y1820358D02*
X41890952Y1706072D01*
X41929047Y1667977D01*
X42005238Y1629881D01*
X42119523Y1629881D01*
X42195714Y1667977D01*
X42233809Y1706072D01*
X42271904Y1782262D01*
X42271904Y2087024D01*
X41471904Y2087024D01*
X41471904Y1820358D01*
X41510000Y1744167D01*
X41548095Y1706072D01*
X41624285Y1667977D01*
X41700476Y1667977D01*
X41776666Y1706072D01*
X41814761Y1744167D01*
X41852857Y1820358D01*
X41852857Y2087024D01*
X42271904Y867977D02*
X42271904Y1325120D01*
X42271904Y1096548D02*
X41471904Y1096548D01*
X41586190Y1172739D01*
X41662380Y1248929D01*
X41700476Y1325120D01*
X41471904Y372739D02*
X41471904Y296548D01*
X41510000Y220358D01*
X41548095Y182262D01*
X41624285Y144167D01*
X41776666Y106072D01*
X41967142Y106072D01*
X42119523Y144167D01*
X42195714Y182262D01*
X42233809Y220358D01*
X42271904Y296548D01*
X42271904Y372739D01*
X42233809Y448929D01*
X42195714Y487024D01*
X42119523Y525120D01*
X41967142Y563215D01*
X41776666Y563215D01*
X41624285Y525120D01*
X41548095Y487024D01*
X41510000Y448929D01*
X41471904Y372739D01*
X59290000Y40567977D02*
X59251904Y40644167D01*
X59251904Y40758453D01*
X59290000Y40872739D01*
X59366190Y40948929D01*
X59442380Y40987024D01*
X59594761Y41025120D01*
X59709047Y41025120D01*
X59861428Y40987024D01*
X59937619Y40948929D01*
X60013809Y40872739D01*
X60051904Y40758453D01*
X60051904Y40682262D01*
X60013809Y40567977D01*
X59975714Y40529881D01*
X59709047Y40529881D01*
X59709047Y40682262D01*
X60051904Y40187024D02*
X59251904Y40187024D01*
X60051904Y39729881D01*
X59251904Y39729881D01*
X60051904Y39348929D02*
X59251904Y39348929D01*
X59251904Y39158453D01*
X59290000Y39044167D01*
X59366190Y38967977D01*
X59442380Y38929881D01*
X59594761Y38891786D01*
X59709047Y38891786D01*
X59861428Y38929881D01*
X59937619Y38967977D01*
X60013809Y39044167D01*
X60051904Y39158453D01*
X60051904Y39348929D01*
X39731904Y40987024D02*
X38931904Y40987024D01*
X38931904Y40682262D01*
X38970000Y40606072D01*
X39008095Y40567977D01*
X39084285Y40529881D01*
X39198571Y40529881D01*
X39274761Y40567977D01*
X39312857Y40606072D01*
X39350952Y40682262D01*
X39350952Y40987024D01*
X39655714Y39729881D02*
X39693809Y39767977D01*
X39731904Y39882262D01*
X39731904Y39958453D01*
X39693809Y40072739D01*
X39617619Y40148929D01*
X39541428Y40187024D01*
X39389047Y40225120D01*
X39274761Y40225120D01*
X39122380Y40187024D01*
X39046190Y40148929D01*
X38970000Y40072739D01*
X38931904Y39958453D01*
X38931904Y39882262D01*
X38970000Y39767977D01*
X39008095Y39729881D01*
X39731904Y38967977D02*
X39731904Y39425120D01*
X39731904Y39196548D02*
X38931904Y39196548D01*
X39046190Y39272739D01*
X39122380Y39348929D01*
X39160476Y39425120D01*
X39731904Y38206072D02*
X39731904Y38663215D01*
X39731904Y38434643D02*
X38931904Y38434643D01*
X39046190Y38510834D01*
X39122380Y38587024D01*
X39160476Y38663215D01*
X44811904Y40987024D02*
X44011904Y40987024D01*
X44011904Y40682262D01*
X44050000Y40606072D01*
X44088095Y40567977D01*
X44164285Y40529881D01*
X44278571Y40529881D01*
X44354761Y40567977D01*
X44392857Y40606072D01*
X44430952Y40682262D01*
X44430952Y40987024D01*
X44583333Y40225120D02*
X44583333Y39844167D01*
X44811904Y40301310D02*
X44011904Y40034643D01*
X44811904Y39767977D01*
X44811904Y39082262D02*
X44811904Y39539405D01*
X44811904Y39310834D02*
X44011904Y39310834D01*
X44126190Y39387024D01*
X44202380Y39463215D01*
X44240476Y39539405D01*
X44011904Y38358453D02*
X44011904Y38739405D01*
X44392857Y38777500D01*
X44354761Y38739405D01*
X44316666Y38663215D01*
X44316666Y38472739D01*
X44354761Y38396548D01*
X44392857Y38358453D01*
X44469047Y38320358D01*
X44659523Y38320358D01*
X44735714Y38358453D01*
X44773809Y38396548D01*
X44811904Y38472739D01*
X44811904Y38663215D01*
X44773809Y38739405D01*
X44735714Y38777500D01*
X29571904Y40987024D02*
X28771904Y40987024D01*
X28771904Y40682262D01*
X28810000Y40606072D01*
X28848095Y40567977D01*
X28924285Y40529881D01*
X29038571Y40529881D01*
X29114761Y40567977D01*
X29152857Y40606072D01*
X29190952Y40682262D01*
X29190952Y40987024D01*
X29152857Y39920358D02*
X29190952Y39806072D01*
X29229047Y39767977D01*
X29305238Y39729881D01*
X29419523Y39729881D01*
X29495714Y39767977D01*
X29533809Y39806072D01*
X29571904Y39882262D01*
X29571904Y40187024D01*
X28771904Y40187024D01*
X28771904Y39920358D01*
X28810000Y39844167D01*
X28848095Y39806072D01*
X28924285Y39767977D01*
X29000476Y39767977D01*
X29076666Y39806072D01*
X29114761Y39844167D01*
X29152857Y39920358D01*
X29152857Y40187024D01*
X28771904Y39463215D02*
X28771904Y38929881D01*
X29571904Y39272739D01*
X19411904Y40987024D02*
X18611904Y40987024D01*
X18611904Y40682262D01*
X18650000Y40606072D01*
X18688095Y40567977D01*
X18764285Y40529881D01*
X18878571Y40529881D01*
X18954761Y40567977D01*
X18992857Y40606072D01*
X19030952Y40682262D01*
X19030952Y40987024D01*
X19335714Y39729881D02*
X19373809Y39767977D01*
X19411904Y39882262D01*
X19411904Y39958453D01*
X19373809Y40072739D01*
X19297619Y40148929D01*
X19221428Y40187024D01*
X19069047Y40225120D01*
X18954761Y40225120D01*
X18802380Y40187024D01*
X18726190Y40148929D01*
X18650000Y40072739D01*
X18611904Y39958453D01*
X18611904Y39882262D01*
X18650000Y39767977D01*
X18688095Y39729881D01*
X19411904Y38967977D02*
X19411904Y39425120D01*
X19411904Y39196548D02*
X18611904Y39196548D01*
X18726190Y39272739D01*
X18802380Y39348929D01*
X18840476Y39425120D01*
X18611904Y38244167D02*
X18611904Y38625120D01*
X18992857Y38663215D01*
X18954761Y38625120D01*
X18916666Y38548929D01*
X18916666Y38358453D01*
X18954761Y38282262D01*
X18992857Y38244167D01*
X19069047Y38206072D01*
X19259523Y38206072D01*
X19335714Y38244167D01*
X19373809Y38282262D01*
X19411904Y38358453D01*
X19411904Y38548929D01*
X19373809Y38625120D01*
X19335714Y38663215D01*
X52431904Y49779643D02*
X51631904Y49779643D01*
X51631904Y49474881D01*
X51670000Y49398691D01*
X51708095Y49360596D01*
X51784285Y49322500D01*
X51898571Y49322500D01*
X51974761Y49360596D01*
X52012857Y49398691D01*
X52050952Y49474881D01*
X52050952Y49779643D01*
X52203333Y49017739D02*
X52203333Y48636786D01*
X52431904Y49093929D02*
X51631904Y48827262D01*
X52431904Y48560596D01*
X51974761Y48179643D02*
X51936666Y48255834D01*
X51898571Y48293929D01*
X51822380Y48332024D01*
X51784285Y48332024D01*
X51708095Y48293929D01*
X51670000Y48255834D01*
X51631904Y48179643D01*
X51631904Y48027262D01*
X51670000Y47951072D01*
X51708095Y47912977D01*
X51784285Y47874881D01*
X51822380Y47874881D01*
X51898571Y47912977D01*
X51936666Y47951072D01*
X51974761Y48027262D01*
X51974761Y48179643D01*
X52012857Y48255834D01*
X52050952Y48293929D01*
X52127142Y48332024D01*
X52279523Y48332024D01*
X52355714Y48293929D01*
X52393809Y48255834D01*
X52431904Y48179643D01*
X52431904Y48027262D01*
X52393809Y47951072D01*
X52355714Y47912977D01*
X52279523Y47874881D01*
X52127142Y47874881D01*
X52050952Y47912977D01*
X52012857Y47951072D01*
X51974761Y48027262D01*
X21951904Y50655834D02*
X21151904Y50655834D01*
X21151904Y50351072D01*
X21190000Y50274881D01*
X21228095Y50236786D01*
X21304285Y50198691D01*
X21418571Y50198691D01*
X21494761Y50236786D01*
X21532857Y50274881D01*
X21570952Y50351072D01*
X21570952Y50655834D01*
X21875714Y49398691D02*
X21913809Y49436786D01*
X21951904Y49551072D01*
X21951904Y49627262D01*
X21913809Y49741548D01*
X21837619Y49817739D01*
X21761428Y49855834D01*
X21609047Y49893929D01*
X21494761Y49893929D01*
X21342380Y49855834D01*
X21266190Y49817739D01*
X21190000Y49741548D01*
X21151904Y49627262D01*
X21151904Y49551072D01*
X21190000Y49436786D01*
X21228095Y49398691D01*
X21951904Y48636786D02*
X21951904Y49093929D01*
X21951904Y48865358D02*
X21151904Y48865358D01*
X21266190Y48941548D01*
X21342380Y49017739D01*
X21380476Y49093929D01*
X21418571Y47951072D02*
X21951904Y47951072D01*
X21113809Y48141548D02*
X21685238Y48332024D01*
X21685238Y47836786D01*
X37191904Y11158929D02*
X36391904Y11158929D01*
X36391904Y10854167D01*
X36430000Y10777977D01*
X36468095Y10739881D01*
X36544285Y10701786D01*
X36658571Y10701786D01*
X36734761Y10739881D01*
X36772857Y10777977D01*
X36810952Y10854167D01*
X36810952Y11158929D01*
X36772857Y10092262D02*
X36810952Y9977977D01*
X36849047Y9939881D01*
X36925238Y9901786D01*
X37039523Y9901786D01*
X37115714Y9939881D01*
X37153809Y9977977D01*
X37191904Y10054167D01*
X37191904Y10358929D01*
X36391904Y10358929D01*
X36391904Y10092262D01*
X36430000Y10016072D01*
X36468095Y9977977D01*
X36544285Y9939881D01*
X36620476Y9939881D01*
X36696666Y9977977D01*
X36734761Y10016072D01*
X36772857Y10092262D01*
X36772857Y10358929D01*
X37191904Y9139881D02*
X37191904Y9597024D01*
X37191904Y9368453D02*
X36391904Y9368453D01*
X36506190Y9444643D01*
X36582380Y9520834D01*
X36620476Y9597024D01*
X56711904Y10397024D02*
X57359523Y10397024D01*
X57435714Y10358929D01*
X57473809Y10320834D01*
X57511904Y10244643D01*
X57511904Y10092262D01*
X57473809Y10016072D01*
X57435714Y9977977D01*
X57359523Y9939881D01*
X56711904Y9939881D01*
X56978571Y9216072D02*
X57511904Y9216072D01*
X56673809Y9406548D02*
X57245238Y9597024D01*
X57245238Y9101786D01*
X27031904Y11044643D02*
X26231904Y11044643D01*
X26231904Y10739881D01*
X26270000Y10663691D01*
X26308095Y10625596D01*
X26384285Y10587500D01*
X26498571Y10587500D01*
X26574761Y10625596D01*
X26612857Y10663691D01*
X26650952Y10739881D01*
X26650952Y11044643D01*
X26803333Y10282739D02*
X26803333Y9901786D01*
X27031904Y10358929D02*
X26231904Y10092262D01*
X27031904Y9825596D01*
X26231904Y9635120D02*
X26231904Y9139881D01*
X26536666Y9406548D01*
X26536666Y9292262D01*
X26574761Y9216072D01*
X26612857Y9177977D01*
X26689047Y9139881D01*
X26879523Y9139881D01*
X26955714Y9177977D01*
X26993809Y9216072D01*
X27031904Y9292262D01*
X27031904Y9520834D01*
X26993809Y9597024D01*
X26955714Y9635120D01*
X54171904Y10397024D02*
X54819523Y10397024D01*
X54895714Y10358929D01*
X54933809Y10320834D01*
X54971904Y10244643D01*
X54971904Y10092262D01*
X54933809Y10016072D01*
X54895714Y9977977D01*
X54819523Y9939881D01*
X54171904Y9939881D01*
X54248095Y9597024D02*
X54210000Y9558929D01*
X54171904Y9482739D01*
X54171904Y9292262D01*
X54210000Y9216072D01*
X54248095Y9177977D01*
X54324285Y9139881D01*
X54400476Y9139881D01*
X54514761Y9177977D01*
X54971904Y9635120D01*
X54971904Y9139881D01*
X61830000Y40567977D02*
X61791904Y40644167D01*
X61791904Y40758453D01*
X61830000Y40872739D01*
X61906190Y40948929D01*
X61982380Y40987024D01*
X62134761Y41025120D01*
X62249047Y41025120D01*
X62401428Y40987024D01*
X62477619Y40948929D01*
X62553809Y40872739D01*
X62591904Y40758453D01*
X62591904Y40682262D01*
X62553809Y40567977D01*
X62515714Y40529881D01*
X62249047Y40529881D01*
X62249047Y40682262D01*
X62591904Y40187024D02*
X61791904Y40187024D01*
X62591904Y39729881D01*
X61791904Y39729881D01*
X62591904Y39348929D02*
X61791904Y39348929D01*
X61791904Y39158453D01*
X61830000Y39044167D01*
X61906190Y38967977D01*
X61982380Y38929881D01*
X62134761Y38891786D01*
X62249047Y38891786D01*
X62401428Y38929881D01*
X62477619Y38967977D01*
X62553809Y39044167D01*
X62591904Y39158453D01*
X62591904Y39348929D01*
X39731904Y2887024D02*
X38931904Y2887024D01*
X38931904Y2582262D01*
X38970000Y2506072D01*
X39008095Y2467977D01*
X39084285Y2429881D01*
X39198571Y2429881D01*
X39274761Y2467977D01*
X39312857Y2506072D01*
X39350952Y2582262D01*
X39350952Y2887024D01*
X39312857Y1820358D02*
X39350952Y1706072D01*
X39389047Y1667977D01*
X39465238Y1629881D01*
X39579523Y1629881D01*
X39655714Y1667977D01*
X39693809Y1706072D01*
X39731904Y1782262D01*
X39731904Y2087024D01*
X38931904Y2087024D01*
X38931904Y1820358D01*
X38970000Y1744167D01*
X39008095Y1706072D01*
X39084285Y1667977D01*
X39160476Y1667977D01*
X39236666Y1706072D01*
X39274761Y1744167D01*
X39312857Y1820358D01*
X39312857Y2087024D01*
X39008095Y1325120D02*
X38970000Y1287024D01*
X38931904Y1210834D01*
X38931904Y1020358D01*
X38970000Y944167D01*
X39008095Y906072D01*
X39084285Y867977D01*
X39160476Y867977D01*
X39274761Y906072D01*
X39731904Y1363215D01*
X39731904Y867977D01*
X16071904Y49132024D02*
X16719523Y49132024D01*
X16795714Y49093929D01*
X16833809Y49055834D01*
X16871904Y48979643D01*
X16871904Y48827262D01*
X16833809Y48751072D01*
X16795714Y48712977D01*
X16719523Y48674881D01*
X16071904Y48674881D01*
X16071904Y47912977D02*
X16071904Y48293929D01*
X16452857Y48332024D01*
X16414761Y48293929D01*
X16376666Y48217739D01*
X16376666Y48027262D01*
X16414761Y47951072D01*
X16452857Y47912977D01*
X16529047Y47874881D01*
X16719523Y47874881D01*
X16795714Y47912977D01*
X16833809Y47951072D01*
X16871904Y48027262D01*
X16871904Y48217739D01*
X16833809Y48293929D01*
X16795714Y48332024D01*
X21951904Y40987024D02*
X21151904Y40987024D01*
X21151904Y40682262D01*
X21190000Y40606072D01*
X21228095Y40567977D01*
X21304285Y40529881D01*
X21418571Y40529881D01*
X21494761Y40567977D01*
X21532857Y40606072D01*
X21570952Y40682262D01*
X21570952Y40987024D01*
X21875714Y39729881D02*
X21913809Y39767977D01*
X21951904Y39882262D01*
X21951904Y39958453D01*
X21913809Y40072739D01*
X21837619Y40148929D01*
X21761428Y40187024D01*
X21609047Y40225120D01*
X21494761Y40225120D01*
X21342380Y40187024D01*
X21266190Y40148929D01*
X21190000Y40072739D01*
X21151904Y39958453D01*
X21151904Y39882262D01*
X21190000Y39767977D01*
X21228095Y39729881D01*
X21951904Y38967977D02*
X21951904Y39425120D01*
X21951904Y39196548D02*
X21151904Y39196548D01*
X21266190Y39272739D01*
X21342380Y39348929D01*
X21380476Y39425120D01*
X21151904Y38701310D02*
X21151904Y38206072D01*
X21456666Y38472739D01*
X21456666Y38358453D01*
X21494761Y38282262D01*
X21532857Y38244167D01*
X21609047Y38206072D01*
X21799523Y38206072D01*
X21875714Y38244167D01*
X21913809Y38282262D01*
X21951904Y38358453D01*
X21951904Y38587024D01*
X21913809Y38663215D01*
X21875714Y38701310D01*
X23691904Y49132024D02*
X24339523Y49132024D01*
X24415714Y49093929D01*
X24453809Y49055834D01*
X24491904Y48979643D01*
X24491904Y48827262D01*
X24453809Y48751072D01*
X24415714Y48712977D01*
X24339523Y48674881D01*
X23691904Y48674881D01*
X24491904Y48255834D02*
X24491904Y48103453D01*
X24453809Y48027262D01*
X24415714Y47989167D01*
X24301428Y47912977D01*
X24149047Y47874881D01*
X23844285Y47874881D01*
X23768095Y47912977D01*
X23730000Y47951072D01*
X23691904Y48027262D01*
X23691904Y48179643D01*
X23730000Y48255834D01*
X23768095Y48293929D01*
X23844285Y48332024D01*
X24034761Y48332024D01*
X24110952Y48293929D01*
X24149047Y48255834D01*
X24187142Y48179643D01*
X24187142Y48027262D01*
X24149047Y47951072D01*
X24110952Y47912977D01*
X24034761Y47874881D01*
X47351904Y2887024D02*
X46551904Y2887024D01*
X46551904Y2582262D01*
X46590000Y2506072D01*
X46628095Y2467977D01*
X46704285Y2429881D01*
X46818571Y2429881D01*
X46894761Y2467977D01*
X46932857Y2506072D01*
X46970952Y2582262D01*
X46970952Y2887024D01*
X46932857Y1820358D02*
X46970952Y1706072D01*
X47009047Y1667977D01*
X47085238Y1629881D01*
X47199523Y1629881D01*
X47275714Y1667977D01*
X47313809Y1706072D01*
X47351904Y1782262D01*
X47351904Y2087024D01*
X46551904Y2087024D01*
X46551904Y1820358D01*
X46590000Y1744167D01*
X46628095Y1706072D01*
X46704285Y1667977D01*
X46780476Y1667977D01*
X46856666Y1706072D01*
X46894761Y1744167D01*
X46932857Y1820358D01*
X46932857Y2087024D01*
X47351904Y867977D02*
X47351904Y1325120D01*
X47351904Y1096548D02*
X46551904Y1096548D01*
X46666190Y1172739D01*
X46742380Y1248929D01*
X46780476Y1325120D01*
X46818571Y182262D02*
X47351904Y182262D01*
X46513809Y372739D02*
X47085238Y563215D01*
X47085238Y67977D01*
X27031904Y40987024D02*
X26231904Y40987024D01*
X26231904Y40682262D01*
X26270000Y40606072D01*
X26308095Y40567977D01*
X26384285Y40529881D01*
X26498571Y40529881D01*
X26574761Y40567977D01*
X26612857Y40606072D01*
X26650952Y40682262D01*
X26650952Y40987024D01*
X26612857Y39920358D02*
X26650952Y39806072D01*
X26689047Y39767977D01*
X26765238Y39729881D01*
X26879523Y39729881D01*
X26955714Y39767977D01*
X26993809Y39806072D01*
X27031904Y39882262D01*
X27031904Y40187024D01*
X26231904Y40187024D01*
X26231904Y39920358D01*
X26270000Y39844167D01*
X26308095Y39806072D01*
X26384285Y39767977D01*
X26460476Y39767977D01*
X26536666Y39806072D01*
X26574761Y39844167D01*
X26612857Y39920358D01*
X26612857Y40187024D01*
X27031904Y39348929D02*
X27031904Y39196548D01*
X26993809Y39120358D01*
X26955714Y39082262D01*
X26841428Y39006072D01*
X26689047Y38967977D01*
X26384285Y38967977D01*
X26308095Y39006072D01*
X26270000Y39044167D01*
X26231904Y39120358D01*
X26231904Y39272739D01*
X26270000Y39348929D01*
X26308095Y39387024D01*
X26384285Y39425120D01*
X26574761Y39425120D01*
X26650952Y39387024D01*
X26689047Y39348929D01*
X26727142Y39272739D01*
X26727142Y39120358D01*
X26689047Y39044167D01*
X26650952Y39006072D01*
X26574761Y38967977D01*
X34651904Y49893929D02*
X33851904Y49893929D01*
X33851904Y49589167D01*
X33890000Y49512977D01*
X33928095Y49474881D01*
X34004285Y49436786D01*
X34118571Y49436786D01*
X34194761Y49474881D01*
X34232857Y49512977D01*
X34270952Y49589167D01*
X34270952Y49893929D01*
X34651904Y49093929D02*
X33851904Y49093929D01*
X33851904Y48903453D01*
X33890000Y48789167D01*
X33966190Y48712977D01*
X34042380Y48674881D01*
X34194761Y48636786D01*
X34309047Y48636786D01*
X34461428Y48674881D01*
X34537619Y48712977D01*
X34613809Y48789167D01*
X34651904Y48903453D01*
X34651904Y49093929D01*
X33928095Y48332024D02*
X33890000Y48293929D01*
X33851904Y48217739D01*
X33851904Y48027262D01*
X33890000Y47951072D01*
X33928095Y47912977D01*
X34004285Y47874881D01*
X34080476Y47874881D01*
X34194761Y47912977D01*
X34651904Y48370120D01*
X34651904Y47874881D01*
X5532380Y42844405D02*
X4532380Y42844405D01*
X5532380Y42415834D02*
X5008571Y42415834D01*
X4913333Y42463453D01*
X4865714Y42558691D01*
X4865714Y42701548D01*
X4913333Y42796786D01*
X4960952Y42844405D01*
X4865714Y42082500D02*
X4865714Y41701548D01*
X4532380Y41939643D02*
X5389523Y41939643D01*
X5484761Y41892024D01*
X5532380Y41796786D01*
X5532380Y41701548D01*
X4865714Y41511072D02*
X4865714Y41130120D01*
X4532380Y41368215D02*
X5389523Y41368215D01*
X5484761Y41320596D01*
X5532380Y41225358D01*
X5532380Y41130120D01*
X4865714Y40796786D02*
X5865714Y40796786D01*
X4913333Y40796786D02*
X4865714Y40701548D01*
X4865714Y40511072D01*
X4913333Y40415834D01*
X4960952Y40368215D01*
X5056190Y40320596D01*
X5341904Y40320596D01*
X5437142Y40368215D01*
X5484761Y40415834D01*
X5532380Y40511072D01*
X5532380Y40701548D01*
X5484761Y40796786D01*
X5484761Y39939643D02*
X5532380Y39844405D01*
X5532380Y39653929D01*
X5484761Y39558691D01*
X5389523Y39511072D01*
X5341904Y39511072D01*
X5246666Y39558691D01*
X5199047Y39653929D01*
X5199047Y39796786D01*
X5151428Y39892024D01*
X5056190Y39939643D01*
X5008571Y39939643D01*
X4913333Y39892024D01*
X4865714Y39796786D01*
X4865714Y39653929D01*
X4913333Y39558691D01*
X5437142Y39082500D02*
X5484761Y39034881D01*
X5532380Y39082500D01*
X5484761Y39130120D01*
X5437142Y39082500D01*
X5532380Y39082500D01*
X4913333Y39082500D02*
X4960952Y39034881D01*
X5008571Y39082500D01*
X4960952Y39130120D01*
X4913333Y39082500D01*
X5008571Y39082500D01*
X4484761Y37892024D02*
X5770476Y38749167D01*
X4484761Y36844405D02*
X5770476Y37701548D01*
X5484761Y36558691D02*
X5532380Y36463453D01*
X5532380Y36272977D01*
X5484761Y36177739D01*
X5389523Y36130120D01*
X5341904Y36130120D01*
X5246666Y36177739D01*
X5199047Y36272977D01*
X5199047Y36415834D01*
X5151428Y36511072D01*
X5056190Y36558691D01*
X5008571Y36558691D01*
X4913333Y36511072D01*
X4865714Y36415834D01*
X4865714Y36272977D01*
X4913333Y36177739D01*
X4865714Y35844405D02*
X4865714Y35463453D01*
X4532380Y35701548D02*
X5389523Y35701548D01*
X5484761Y35653929D01*
X5532380Y35558691D01*
X5532380Y35463453D01*
X5532380Y35130120D02*
X4865714Y35130120D01*
X4960952Y35130120D02*
X4913333Y35082500D01*
X4865714Y34987262D01*
X4865714Y34844405D01*
X4913333Y34749167D01*
X5008571Y34701548D01*
X5532380Y34701548D01*
X5008571Y34701548D02*
X4913333Y34653929D01*
X4865714Y34558691D01*
X4865714Y34415834D01*
X4913333Y34320596D01*
X5008571Y34272977D01*
X5532380Y34272977D01*
X4532380Y33892024D02*
X4532380Y33272977D01*
X4913333Y33606310D01*
X4913333Y33463453D01*
X4960952Y33368215D01*
X5008571Y33320596D01*
X5103809Y33272977D01*
X5341904Y33272977D01*
X5437142Y33320596D01*
X5484761Y33368215D01*
X5532380Y33463453D01*
X5532380Y33749167D01*
X5484761Y33844405D01*
X5437142Y33892024D01*
X4627619Y32892024D02*
X4580000Y32844405D01*
X4532380Y32749167D01*
X4532380Y32511072D01*
X4580000Y32415834D01*
X4627619Y32368215D01*
X4722857Y32320596D01*
X4818095Y32320596D01*
X4960952Y32368215D01*
X5532380Y32939643D01*
X5532380Y32320596D01*
X4865714Y31987262D02*
X5532380Y31796786D01*
X5056190Y31606310D01*
X5532380Y31415834D01*
X4865714Y31225358D01*
X5532380Y30701548D02*
X5484761Y30796786D01*
X5437142Y30844405D01*
X5341904Y30892024D01*
X5056190Y30892024D01*
X4960952Y30844405D01*
X4913333Y30796786D01*
X4865714Y30701548D01*
X4865714Y30558691D01*
X4913333Y30463453D01*
X4960952Y30415834D01*
X5056190Y30368215D01*
X5341904Y30368215D01*
X5437142Y30415834D01*
X5484761Y30463453D01*
X5532380Y30558691D01*
X5532380Y30701548D01*
X5532380Y29939643D02*
X4865714Y29939643D01*
X5056190Y29939643D02*
X4960952Y29892024D01*
X4913333Y29844405D01*
X4865714Y29749167D01*
X4865714Y29653929D01*
X5532380Y29177739D02*
X5484761Y29272977D01*
X5389523Y29320596D01*
X4532380Y29320596D01*
X5532380Y28368215D02*
X4532380Y28368215D01*
X5484761Y28368215D02*
X5532380Y28463453D01*
X5532380Y28653929D01*
X5484761Y28749167D01*
X5437142Y28796786D01*
X5341904Y28844405D01*
X5056190Y28844405D01*
X4960952Y28796786D01*
X4913333Y28749167D01*
X4865714Y28653929D01*
X4865714Y28463453D01*
X4913333Y28368215D01*
X5437142Y27892024D02*
X5484761Y27844405D01*
X5532380Y27892024D01*
X5484761Y27939643D01*
X5437142Y27892024D01*
X5532380Y27892024D01*
X5484761Y26987262D02*
X5532380Y27082500D01*
X5532380Y27272977D01*
X5484761Y27368215D01*
X5437142Y27415834D01*
X5341904Y27463453D01*
X5056190Y27463453D01*
X4960952Y27415834D01*
X4913333Y27368215D01*
X4865714Y27272977D01*
X4865714Y27082500D01*
X4913333Y26987262D01*
X5532380Y26415834D02*
X5484761Y26511072D01*
X5437142Y26558691D01*
X5341904Y26606310D01*
X5056190Y26606310D01*
X4960952Y26558691D01*
X4913333Y26511072D01*
X4865714Y26415834D01*
X4865714Y26272977D01*
X4913333Y26177739D01*
X4960952Y26130120D01*
X5056190Y26082500D01*
X5341904Y26082500D01*
X5437142Y26130120D01*
X5484761Y26177739D01*
X5532380Y26272977D01*
X5532380Y26415834D01*
X5532380Y25653929D02*
X4865714Y25653929D01*
X4960952Y25653929D02*
X4913333Y25606310D01*
X4865714Y25511072D01*
X4865714Y25368215D01*
X4913333Y25272977D01*
X5008571Y25225358D01*
X5532380Y25225358D01*
X5008571Y25225358D02*
X4913333Y25177739D01*
X4865714Y25082500D01*
X4865714Y24939643D01*
X4913333Y24844405D01*
X5008571Y24796786D01*
X5532380Y24796786D01*
X4484761Y23606310D02*
X5770476Y24463453D01*
X4865714Y23368215D02*
X5532380Y23177739D01*
X5056190Y22987262D01*
X5532380Y22796786D01*
X4865714Y22606310D01*
X5532380Y22225358D02*
X4865714Y22225358D01*
X4532380Y22225358D02*
X4580000Y22272977D01*
X4627619Y22225358D01*
X4580000Y22177739D01*
X4532380Y22225358D01*
X4627619Y22225358D01*
X5532380Y21749167D02*
X4532380Y21749167D01*
X5151428Y21653929D02*
X5532380Y21368215D01*
X4865714Y21368215D02*
X5246666Y21749167D01*
X5532380Y20939643D02*
X4865714Y20939643D01*
X4532380Y20939643D02*
X4580000Y20987262D01*
X4627619Y20939643D01*
X4580000Y20892024D01*
X4532380Y20939643D01*
X4627619Y20939643D01*
X4484761Y19749167D02*
X5770476Y20606310D01*
X5532380Y19415834D02*
X4532380Y19415834D01*
X4532380Y19034881D01*
X4580000Y18939643D01*
X4627619Y18892024D01*
X4722857Y18844405D01*
X4865714Y18844405D01*
X4960952Y18892024D01*
X5008571Y18939643D01*
X5056190Y19034881D01*
X5056190Y19415834D01*
X5532380Y17844405D02*
X5056190Y18177739D01*
X5532380Y18415834D02*
X4532380Y18415834D01*
X4532380Y18034881D01*
X4580000Y17939643D01*
X4627619Y17892024D01*
X4722857Y17844405D01*
X4865714Y17844405D01*
X4960952Y17892024D01*
X5008571Y17939643D01*
X5056190Y18034881D01*
X5056190Y18415834D01*
X4580000Y16892024D02*
X4532380Y16987262D01*
X4532380Y17130120D01*
X4580000Y17272977D01*
X4675238Y17368215D01*
X4770476Y17415834D01*
X4960952Y17463453D01*
X5103809Y17463453D01*
X5294285Y17415834D01*
X5389523Y17368215D01*
X5484761Y17272977D01*
X5532380Y17130120D01*
X5532380Y17034881D01*
X5484761Y16892024D01*
X5437142Y16844405D01*
X5103809Y16844405D01*
X5103809Y17034881D01*
X5484761Y16463453D02*
X5532380Y16320596D01*
X5532380Y16082500D01*
X5484761Y15987262D01*
X5437142Y15939643D01*
X5341904Y15892024D01*
X5246666Y15892024D01*
X5151428Y15939643D01*
X5103809Y15987262D01*
X5056190Y16082500D01*
X5008571Y16272977D01*
X4960952Y16368215D01*
X4913333Y16415834D01*
X4818095Y16463453D01*
X4722857Y16463453D01*
X4627619Y16415834D01*
X4580000Y16368215D01*
X4532380Y16272977D01*
X4532380Y16034881D01*
X4580000Y15892024D01*
X4532380Y15606310D02*
X4532380Y15034881D01*
X5532380Y15320596D02*
X4532380Y15320596D01*
X5532380Y14225358D02*
X5532380Y14701548D01*
X4532380Y14701548D01*
X24491904Y11044643D02*
X23691904Y11044643D01*
X23691904Y10739881D01*
X23730000Y10663691D01*
X23768095Y10625596D01*
X23844285Y10587500D01*
X23958571Y10587500D01*
X24034761Y10625596D01*
X24072857Y10663691D01*
X24110952Y10739881D01*
X24110952Y11044643D01*
X24263333Y10282739D02*
X24263333Y9901786D01*
X24491904Y10358929D02*
X23691904Y10092262D01*
X24491904Y9825596D01*
X24491904Y9139881D02*
X24491904Y9597024D01*
X24491904Y9368453D02*
X23691904Y9368453D01*
X23806190Y9444643D01*
X23882380Y9520834D01*
X23920476Y9597024D01*
X32111904Y40987024D02*
X31311904Y40987024D01*
X31311904Y40682262D01*
X31350000Y40606072D01*
X31388095Y40567977D01*
X31464285Y40529881D01*
X31578571Y40529881D01*
X31654761Y40567977D01*
X31692857Y40606072D01*
X31730952Y40682262D01*
X31730952Y40987024D01*
X31692857Y39920358D02*
X31730952Y39806072D01*
X31769047Y39767977D01*
X31845238Y39729881D01*
X31959523Y39729881D01*
X32035714Y39767977D01*
X32073809Y39806072D01*
X32111904Y39882262D01*
X32111904Y40187024D01*
X31311904Y40187024D01*
X31311904Y39920358D01*
X31350000Y39844167D01*
X31388095Y39806072D01*
X31464285Y39767977D01*
X31540476Y39767977D01*
X31616666Y39806072D01*
X31654761Y39844167D01*
X31692857Y39920358D01*
X31692857Y40187024D01*
X31311904Y39006072D02*
X31311904Y39387024D01*
X31692857Y39425120D01*
X31654761Y39387024D01*
X31616666Y39310834D01*
X31616666Y39120358D01*
X31654761Y39044167D01*
X31692857Y39006072D01*
X31769047Y38967977D01*
X31959523Y38967977D01*
X32035714Y39006072D01*
X32073809Y39044167D01*
X32111904Y39120358D01*
X32111904Y39310834D01*
X32073809Y39387024D01*
X32035714Y39425120D01*
X29571904Y49893929D02*
X28771904Y49893929D01*
X28771904Y49589167D01*
X28810000Y49512977D01*
X28848095Y49474881D01*
X28924285Y49436786D01*
X29038571Y49436786D01*
X29114761Y49474881D01*
X29152857Y49512977D01*
X29190952Y49589167D01*
X29190952Y49893929D01*
X29152857Y48827262D02*
X29190952Y48712977D01*
X29229047Y48674881D01*
X29305238Y48636786D01*
X29419523Y48636786D01*
X29495714Y48674881D01*
X29533809Y48712977D01*
X29571904Y48789167D01*
X29571904Y49093929D01*
X28771904Y49093929D01*
X28771904Y48827262D01*
X28810000Y48751072D01*
X28848095Y48712977D01*
X28924285Y48674881D01*
X29000476Y48674881D01*
X29076666Y48712977D01*
X29114761Y48751072D01*
X29152857Y48827262D01*
X29152857Y49093929D01*
X28771904Y47951072D02*
X28771904Y48103453D01*
X28810000Y48179643D01*
X28848095Y48217739D01*
X28962380Y48293929D01*
X29114761Y48332024D01*
X29419523Y48332024D01*
X29495714Y48293929D01*
X29533809Y48255834D01*
X29571904Y48179643D01*
X29571904Y48027262D01*
X29533809Y47951072D01*
X29495714Y47912977D01*
X29419523Y47874881D01*
X29229047Y47874881D01*
X29152857Y47912977D01*
X29114761Y47951072D01*
X29076666Y48027262D01*
X29076666Y48179643D01*
X29114761Y48255834D01*
X29152857Y48293929D01*
X29229047Y48332024D01*
X36391904Y40987024D02*
X37039523Y40987024D01*
X37115714Y40948929D01*
X37153809Y40910834D01*
X37191904Y40834643D01*
X37191904Y40682262D01*
X37153809Y40606072D01*
X37115714Y40567977D01*
X37039523Y40529881D01*
X36391904Y40529881D01*
X36734761Y40034643D02*
X36696666Y40110834D01*
X36658571Y40148929D01*
X36582380Y40187024D01*
X36544285Y40187024D01*
X36468095Y40148929D01*
X36430000Y40110834D01*
X36391904Y40034643D01*
X36391904Y39882262D01*
X36430000Y39806072D01*
X36468095Y39767977D01*
X36544285Y39729881D01*
X36582380Y39729881D01*
X36658571Y39767977D01*
X36696666Y39806072D01*
X36734761Y39882262D01*
X36734761Y40034643D01*
X36772857Y40110834D01*
X36810952Y40148929D01*
X36887142Y40187024D01*
X37039523Y40187024D01*
X37115714Y40148929D01*
X37153809Y40110834D01*
X37191904Y40034643D01*
X37191904Y39882262D01*
X37153809Y39806072D01*
X37115714Y39767977D01*
X37039523Y39729881D01*
X36887142Y39729881D01*
X36810952Y39767977D01*
X36772857Y39806072D01*
X36734761Y39882262D01*
%TD*%
M02*
