M48
; DRILL file {KiCad 6.0.7+dfsg-1+b1} date Sat 10 Sep 2022 20:58:08 +08
; FORMAT={-:-/ absolute / inch / decimal}
; #@! TF.CreationDate,2022-09-10T20:58:08+08:00
; #@! TF.GenerationSoftware,Kicad,Pcbnew,6.0.7+dfsg-1+b1
; #@! TF.FileFunction,Plated,1,2,PTH
FMAT,2
INCH
; #@! TA.AperFunction,Plated,PTH,ViaDrill
T1C0.0138
; #@! TA.AperFunction,Plated,PTH,ComponentDrill
T2C0.0236
; #@! TA.AperFunction,Plated,PTH,ComponentDrill
T3C0.0394
%
G90
G05
T1
X0.175Y0.5
X0.175Y0.35
X0.225Y1.275
X0.25Y0.775
X0.35Y0.625
X0.4Y0.875
X0.525Y0.625
X0.65Y0.875
X0.7Y0.625
X0.8Y1.025
X0.8Y0.775
X0.85Y1.25
X0.85Y0.975
X1.025Y1.025
X1.125Y0.625
X1.175Y1.175
X1.225Y0.625
X1.3Y1.175
X1.3Y0.9
X1.4Y1.35
X1.425Y1.05
X1.5Y1.1
X1.5Y1.0
X1.625Y0.875
X1.625Y0.825
X1.675Y0.525
X1.725Y1.025
X1.775Y1.05
X1.775Y1.0
X1.8Y1.1
X1.8Y0.95
X1.825Y1.35
X1.825Y1.05
X1.825Y1.0
X1.875Y1.025
X1.875Y0.525
X1.9Y1.075
X2.0Y1.175
X2.05Y1.025
X2.05Y0.95
X2.15Y0.9
X2.2Y1.375
X2.2Y1.275
X2.45Y0.7
X2.45Y0.625
X2.45Y0.55
X2.5Y0.7
X2.5Y0.625
X2.5Y0.55
X2.541Y1.005
X2.55Y0.7
X2.55Y0.625
X2.55Y0.55
X2.65Y1.005
X2.675Y1.825
X2.675Y1.725
X2.7Y1.4
X2.825Y1.4
X2.825Y1.075
X2.825Y0.975
X2.875Y1.725
X2.875Y1.625
X2.875Y0.6
X2.875Y0.5
X2.875Y0.4
X2.875Y0.3
T3
X0.575Y1.825
X0.575Y1.725
X0.575Y0.325
X0.575Y0.225
X0.675Y1.825
X0.675Y1.725
X0.675Y0.325
X0.675Y0.225
X0.775Y1.825
X0.775Y1.725
X0.775Y0.325
X0.775Y0.225
X0.875Y1.825
X0.875Y1.725
X0.875Y0.325
X0.875Y0.225
X0.975Y1.825
X0.975Y1.725
X0.975Y0.325
X0.975Y0.225
X1.075Y1.825
X1.075Y1.725
X1.075Y0.325
X1.075Y0.225
X1.175Y1.825
X1.175Y1.725
X1.175Y0.325
X1.175Y0.225
X1.275Y1.825
X1.275Y1.725
X1.275Y0.325
X1.275Y0.225
X1.375Y1.825
X1.375Y1.725
X1.375Y0.325
X1.375Y0.225
X1.475Y1.825
X1.475Y1.725
X1.475Y0.325
X1.475Y0.225
X1.575Y1.825
X1.575Y1.725
X1.575Y0.325
X1.575Y0.225
X1.675Y1.825
X1.675Y1.725
X1.675Y0.325
X1.675Y0.225
X1.775Y1.825
X1.775Y1.725
X1.775Y0.325
X1.775Y0.225
X1.875Y1.825
X1.875Y1.725
X1.875Y0.325
X1.875Y0.225
X1.975Y1.825
X1.975Y1.725
X1.975Y0.325
X1.975Y0.225
X2.075Y1.825
X2.075Y1.725
X2.075Y0.325
X2.075Y0.225
X2.175Y1.825
X2.175Y1.725
X2.175Y0.325
X2.175Y0.225
X2.275Y1.825
X2.275Y1.725
X2.275Y0.325
X2.275Y0.225
X2.375Y1.825
X2.375Y1.725
X2.375Y0.325
X2.375Y0.225
X2.475Y1.825
X2.475Y1.725
X2.475Y0.325
X2.475Y0.225
T2
G00X2.7301Y1.1951
M15
G01X2.7734Y1.1951
M16
G05
G00X2.7301Y0.8549
M15
G01X2.7734Y0.8549
M16
G05
G00X2.9045Y1.1951
M15
G01X2.9281Y1.1951
M16
G05
G00X2.9045Y0.8549
M15
G01X2.9281Y0.8549
M16
G05
T0
M30
