M48
; DRILL file {KiCad 6.0.7+dfsg-1+b1} date Sun 18 Sep 2022 14:30:16 +08
; FORMAT={-:-/ absolute / metric / decimal}
; #@! TF.CreationDate,2022-09-18T14:30:16+08:00
; #@! TF.GenerationSoftware,Kicad,Pcbnew,6.0.7+dfsg-1+b1
; #@! TF.FileFunction,Plated,1,2,PTH
FMAT,2
METRIC
; #@! TA.AperFunction,Plated,PTH,ViaDrill
T1C0.350
; #@! TA.AperFunction,Plated,PTH,ComponentDrill
T2C0.600
; #@! TA.AperFunction,Plated,PTH,ComponentDrill
T3C1.000
%
G90
G05
T1
X5.715Y13.97
X5.715Y10.16
X6.985Y33.655
X7.62Y20.955
X10.16Y17.145
X11.43Y23.495
X14.605Y17.145
X17.78Y23.495
X19.05Y17.145
X21.59Y27.305
X21.59Y20.955
X22.86Y33.02
X22.86Y26.035
X27.305Y27.305
X29.845Y17.145
X31.115Y31.115
X32.385Y17.145
X34.29Y31.75
X34.29Y24.13
X36.83Y35.56
X37.465Y27.94
X39.37Y29.21
X39.37Y26.67
X42.545Y23.495
X42.545Y22.225
X43.815Y14.605
X45.085Y27.305
X46.355Y27.94
X46.355Y26.67
X46.99Y29.21
X46.99Y25.4
X47.625Y35.56
X47.625Y27.94
X47.625Y26.67
X48.895Y27.305
X48.895Y14.605
X49.53Y28.575
X52.07Y31.115
X53.34Y27.305
X53.34Y24.13
X53.34Y22.86
X54.61Y24.13
X57.15Y36.195
X57.15Y33.655
X63.5Y19.05
X63.5Y17.145
X63.5Y15.24
X64.77Y19.05
X64.77Y17.145
X64.77Y15.24
X65.811Y26.797
X66.04Y19.05
X66.04Y17.145
X66.04Y15.24
X68.58Y26.797
X69.215Y47.625
X69.215Y45.085
X69.85Y36.83
X73.025Y36.83
X73.025Y28.575
X73.025Y26.035
X74.295Y45.085
X74.295Y42.545
X74.295Y16.51
X74.295Y13.97
X74.295Y11.43
X74.295Y8.89
T3
X15.845Y47.605
X15.845Y45.065
X15.905Y9.545
X15.905Y7.005
X18.385Y47.605
X18.385Y45.065
X18.445Y9.545
X18.445Y7.005
X20.925Y47.605
X20.925Y45.065
X20.985Y9.545
X20.985Y7.005
X23.465Y47.605
X23.465Y45.065
X23.525Y9.545
X23.525Y7.005
X26.005Y47.605
X26.005Y45.065
X26.065Y9.545
X26.065Y7.005
X28.545Y47.605
X28.545Y45.065
X28.605Y9.545
X28.605Y7.005
X31.085Y47.605
X31.085Y45.065
X31.145Y9.545
X31.145Y7.005
X33.625Y47.605
X33.625Y45.065
X33.685Y9.545
X33.685Y7.005
X36.165Y47.605
X36.165Y45.065
X36.225Y9.545
X36.225Y7.005
X38.705Y47.605
X38.705Y45.065
X38.765Y9.545
X38.765Y7.005
X41.245Y47.605
X41.245Y45.065
X41.305Y9.545
X41.305Y7.005
X43.785Y47.605
X43.785Y45.065
X43.845Y9.545
X43.845Y7.005
X46.325Y47.605
X46.325Y45.065
X46.385Y9.545
X46.385Y7.005
X48.865Y47.605
X48.865Y45.065
X48.925Y9.545
X48.925Y7.005
X51.405Y47.605
X51.405Y45.065
X51.465Y9.545
X51.465Y7.005
X53.945Y47.605
X53.945Y45.065
X54.005Y9.545
X54.005Y7.005
X56.485Y47.605
X56.485Y45.065
X56.545Y9.545
X56.545Y7.005
X59.025Y47.605
X59.025Y45.065
X59.085Y9.545
X59.085Y7.005
X61.565Y47.605
X61.565Y45.065
X61.625Y9.545
X61.625Y7.005
X64.105Y47.605
X64.105Y45.065
X64.165Y9.545
X64.165Y7.005
T2
G00X70.615Y31.625
M15
G01X71.715Y31.625
M16
G05
G00X70.615Y22.985
M15
G01X71.715Y22.985
M16
G05
G00X75.045Y31.625
M15
G01X75.645Y31.625
M16
G05
G00X75.045Y22.985
M15
G01X75.645Y22.985
M16
G05
T0
M30
