M48
; DRILL file {KiCad 6.0.7+dfsg-1+b1} date Sat 10 Sep 2022 19:10:25 +08
; FORMAT={-:-/ absolute / metric / decimal}
; #@! TF.CreationDate,2022-09-10T19:10:25+08:00
; #@! TF.GenerationSoftware,Kicad,Pcbnew,6.0.7+dfsg-1+b1
; #@! TF.FileFunction,Plated,1,2,PTH
FMAT,2
METRIC
; #@! TA.AperFunction,Plated,PTH,ViaDrill
T1C0.350
; #@! TA.AperFunction,Plated,PTH,ComponentDrill
T2C0.600
; #@! TA.AperFunction,Plated,PTH,ComponentDrill
T3C1.000
%
G90
G05
T1
X3.81Y12.065
X3.81Y8.255
X5.08Y31.75
X5.715Y19.05
X8.255Y15.24
X9.525Y21.59
X12.7Y15.24
X15.875Y21.59
X17.145Y15.24
X19.685Y25.4
X19.685Y19.05
X20.955Y31.115
X20.955Y24.13
X25.4Y25.4
X27.94Y15.24
X29.21Y29.21
X30.48Y15.24
X32.385Y29.21
X32.385Y22.225
X34.925Y33.655
X35.56Y26.035
X37.465Y27.305
X37.465Y24.765
X40.64Y21.59
X40.64Y20.32
X41.91Y12.7
X43.18Y25.4
X44.45Y26.035
X44.45Y24.765
X45.085Y27.305
X45.085Y23.495
X45.72Y33.655
X45.72Y26.035
X45.72Y24.765
X46.99Y25.4
X46.99Y12.7
X47.625Y26.67
X50.165Y29.21
X51.435Y25.4
X51.435Y23.495
X53.975Y22.225
X55.245Y34.29
X55.245Y31.75
X61.595Y17.145
X61.595Y15.24
X61.595Y13.335
X62.865Y17.145
X62.865Y15.24
X62.865Y13.335
X63.906Y24.892
X64.135Y17.145
X64.135Y15.24
X64.135Y13.335
X66.675Y24.892
X67.31Y45.72
X67.31Y43.18
X67.945Y34.925
X71.12Y34.925
X71.12Y26.67
X71.12Y24.13
X72.39Y43.18
X72.39Y40.64
X72.39Y14.605
X72.39Y12.065
X72.39Y9.525
X72.39Y6.985
T3
X13.97Y45.72
X13.97Y43.18
X13.97Y7.62
X13.97Y5.08
X16.51Y45.72
X16.51Y43.18
X16.51Y7.62
X16.51Y5.08
X19.05Y45.72
X19.05Y43.18
X19.05Y7.62
X19.05Y5.08
X21.59Y45.72
X21.59Y43.18
X21.59Y7.62
X21.59Y5.08
X24.13Y45.72
X24.13Y43.18
X24.13Y7.62
X24.13Y5.08
X26.67Y45.72
X26.67Y43.18
X26.67Y7.62
X26.67Y5.08
X29.21Y45.72
X29.21Y43.18
X29.21Y7.62
X29.21Y5.08
X31.75Y45.72
X31.75Y43.18
X31.75Y7.62
X31.75Y5.08
X34.29Y45.72
X34.29Y43.18
X34.29Y7.62
X34.29Y5.08
X36.83Y45.72
X36.83Y43.18
X36.83Y7.62
X36.83Y5.08
X39.37Y45.72
X39.37Y43.18
X39.37Y7.62
X39.37Y5.08
X41.91Y45.72
X41.91Y43.18
X41.91Y7.62
X41.91Y5.08
X44.45Y45.72
X44.45Y43.18
X44.45Y7.62
X44.45Y5.08
X46.99Y45.72
X46.99Y43.18
X46.99Y7.62
X46.99Y5.08
X49.53Y45.72
X49.53Y43.18
X49.53Y7.62
X49.53Y5.08
X52.07Y45.72
X52.07Y43.18
X52.07Y7.62
X52.07Y5.08
X54.61Y45.72
X54.61Y43.18
X54.61Y7.62
X54.61Y5.08
X57.15Y45.72
X57.15Y43.18
X57.15Y7.62
X57.15Y5.08
X59.69Y45.72
X59.69Y43.18
X59.69Y7.62
X59.69Y5.08
X62.23Y45.72
X62.23Y43.18
X62.23Y7.62
X62.23Y5.08
T2
G00X68.71Y29.72
M15
G01X69.81Y29.72
M16
G05
G00X68.71Y21.08
M15
G01X69.81Y21.08
M16
G05
G00X73.14Y29.72
M15
G01X73.74Y29.72
M16
G05
G00X73.14Y21.08
M15
G01X73.74Y21.08
M16
G05
T0
M30
