%TF.GenerationSoftware,KiCad,Pcbnew,6.0.7+dfsg-1+b1*%
%TF.CreationDate,2022-09-10T19:10:33+08:00*%
%TF.ProjectId,prgstl,70726773-746c-42e6-9b69-6361645f7063,a*%
%TF.SameCoordinates,PX6d01460PY791ddc0*%
%TF.FileFunction,Legend,Top*%
%TF.FilePolarity,Positive*%
%FSLAX46Y46*%
G04 Gerber Fmt 4.6, Leading zero omitted, Abs format (unit mm)*
G04 Created by KiCad (PCBNEW 6.0.7+dfsg-1+b1) date 2022-09-10 19:10:33*
%MOMM*%
%LPD*%
G01*
G04 APERTURE LIST*
%ADD10C,0.150000*%
%ADD11C,0.120000*%
G04 APERTURE END LIST*
D10*
X10661904Y27108096D02*
X10661904Y26460477D01*
X10700000Y26384286D01*
X10738095Y26346191D01*
X10814285Y26308096D01*
X10966666Y26308096D01*
X11042857Y26346191D01*
X11080952Y26384286D01*
X11119047Y26460477D01*
X11119047Y27108096D01*
X11461904Y26346191D02*
X11576190Y26308096D01*
X11766666Y26308096D01*
X11842857Y26346191D01*
X11880952Y26384286D01*
X11919047Y26460477D01*
X11919047Y26536667D01*
X11880952Y26612858D01*
X11842857Y26650953D01*
X11766666Y26689048D01*
X11614285Y26727143D01*
X11538095Y26765239D01*
X11500000Y26803334D01*
X11461904Y26879524D01*
X11461904Y26955715D01*
X11500000Y27031905D01*
X11538095Y27070000D01*
X11614285Y27108096D01*
X11804761Y27108096D01*
X11919047Y27070000D01*
X12223809Y26536667D02*
X12604761Y26536667D01*
X12147619Y26308096D02*
X12414285Y27108096D01*
X12680952Y26308096D01*
X13404761Y26308096D02*
X13138095Y26689048D01*
X12947619Y26308096D02*
X12947619Y27108096D01*
X13252380Y27108096D01*
X13328571Y27070000D01*
X13366666Y27031905D01*
X13404761Y26955715D01*
X13404761Y26841429D01*
X13366666Y26765239D01*
X13328571Y26727143D01*
X13252380Y26689048D01*
X12947619Y26689048D01*
X13633333Y27108096D02*
X14090476Y27108096D01*
X13861904Y26308096D02*
X13861904Y27108096D01*
X14776190Y26308096D02*
X14319047Y26308096D01*
X14547619Y26308096D02*
X14547619Y27108096D01*
X14471428Y26993810D01*
X14395238Y26917620D01*
X14319047Y26879524D01*
X10661904Y22028096D02*
X10661904Y21380477D01*
X10700000Y21304286D01*
X10738095Y21266191D01*
X10814285Y21228096D01*
X10966666Y21228096D01*
X11042857Y21266191D01*
X11080952Y21304286D01*
X11119047Y21380477D01*
X11119047Y22028096D01*
X11461904Y21266191D02*
X11576190Y21228096D01*
X11766666Y21228096D01*
X11842857Y21266191D01*
X11880952Y21304286D01*
X11919047Y21380477D01*
X11919047Y21456667D01*
X11880952Y21532858D01*
X11842857Y21570953D01*
X11766666Y21609048D01*
X11614285Y21647143D01*
X11538095Y21685239D01*
X11500000Y21723334D01*
X11461904Y21799524D01*
X11461904Y21875715D01*
X11500000Y21951905D01*
X11538095Y21990000D01*
X11614285Y22028096D01*
X11804761Y22028096D01*
X11919047Y21990000D01*
X12223809Y21456667D02*
X12604761Y21456667D01*
X12147619Y21228096D02*
X12414285Y22028096D01*
X12680952Y21228096D01*
X13404761Y21228096D02*
X13138095Y21609048D01*
X12947619Y21228096D02*
X12947619Y22028096D01*
X13252380Y22028096D01*
X13328571Y21990000D01*
X13366666Y21951905D01*
X13404761Y21875715D01*
X13404761Y21761429D01*
X13366666Y21685239D01*
X13328571Y21647143D01*
X13252380Y21609048D01*
X12947619Y21609048D01*
X13633333Y22028096D02*
X14090476Y22028096D01*
X13861904Y21228096D02*
X13861904Y22028096D01*
X14319047Y21951905D02*
X14357142Y21990000D01*
X14433333Y22028096D01*
X14623809Y22028096D01*
X14700000Y21990000D01*
X14738095Y21951905D01*
X14776190Y21875715D01*
X14776190Y21799524D01*
X14738095Y21685239D01*
X14280952Y21228096D01*
X14776190Y21228096D01*
X10661904Y19488096D02*
X10661904Y18840477D01*
X10700000Y18764286D01*
X10738095Y18726191D01*
X10814285Y18688096D01*
X10966666Y18688096D01*
X11042857Y18726191D01*
X11080952Y18764286D01*
X11119047Y18840477D01*
X11119047Y19488096D01*
X11461904Y18726191D02*
X11576190Y18688096D01*
X11766666Y18688096D01*
X11842857Y18726191D01*
X11880952Y18764286D01*
X11919047Y18840477D01*
X11919047Y18916667D01*
X11880952Y18992858D01*
X11842857Y19030953D01*
X11766666Y19069048D01*
X11614285Y19107143D01*
X11538095Y19145239D01*
X11500000Y19183334D01*
X11461904Y19259524D01*
X11461904Y19335715D01*
X11500000Y19411905D01*
X11538095Y19450000D01*
X11614285Y19488096D01*
X11804761Y19488096D01*
X11919047Y19450000D01*
X12223809Y18916667D02*
X12604761Y18916667D01*
X12147619Y18688096D02*
X12414285Y19488096D01*
X12680952Y18688096D01*
X13404761Y18688096D02*
X13138095Y19069048D01*
X12947619Y18688096D02*
X12947619Y19488096D01*
X13252380Y19488096D01*
X13328571Y19450000D01*
X13366666Y19411905D01*
X13404761Y19335715D01*
X13404761Y19221429D01*
X13366666Y19145239D01*
X13328571Y19107143D01*
X13252380Y19069048D01*
X12947619Y19069048D01*
X13633333Y19488096D02*
X14090476Y19488096D01*
X13861904Y18688096D02*
X13861904Y19488096D01*
X14280952Y19488096D02*
X14776190Y19488096D01*
X14509523Y19183334D01*
X14623809Y19183334D01*
X14700000Y19145239D01*
X14738095Y19107143D01*
X14776190Y19030953D01*
X14776190Y18840477D01*
X14738095Y18764286D01*
X14700000Y18726191D01*
X14623809Y18688096D01*
X14395238Y18688096D01*
X14319047Y18726191D01*
X14280952Y18764286D01*
X9385714Y24568096D02*
X9385714Y23920477D01*
X9423809Y23844286D01*
X9461904Y23806191D01*
X9538095Y23768096D01*
X9690476Y23768096D01*
X9766666Y23806191D01*
X9804761Y23844286D01*
X9842857Y23920477D01*
X9842857Y24568096D01*
X10185714Y23806191D02*
X10300000Y23768096D01*
X10490476Y23768096D01*
X10566666Y23806191D01*
X10604761Y23844286D01*
X10642857Y23920477D01*
X10642857Y23996667D01*
X10604761Y24072858D01*
X10566666Y24110953D01*
X10490476Y24149048D01*
X10338095Y24187143D01*
X10261904Y24225239D01*
X10223809Y24263334D01*
X10185714Y24339524D01*
X10185714Y24415715D01*
X10223809Y24491905D01*
X10261904Y24530000D01*
X10338095Y24568096D01*
X10528571Y24568096D01*
X10642857Y24530000D01*
X10947619Y23996667D02*
X11328571Y23996667D01*
X10871428Y23768096D02*
X11138095Y24568096D01*
X11404761Y23768096D01*
X12128571Y23768096D02*
X11861904Y24149048D01*
X11671428Y23768096D02*
X11671428Y24568096D01*
X11976190Y24568096D01*
X12052380Y24530000D01*
X12090476Y24491905D01*
X12128571Y24415715D01*
X12128571Y24301429D01*
X12090476Y24225239D01*
X12052380Y24187143D01*
X11976190Y24149048D01*
X11671428Y24149048D01*
X12357142Y24568096D02*
X12814285Y24568096D01*
X12585714Y23768096D02*
X12585714Y24568096D01*
X13500000Y23768096D02*
X13042857Y23768096D01*
X13271428Y23768096D02*
X13271428Y24568096D01*
X13195238Y24453810D01*
X13119047Y24377620D01*
X13042857Y24339524D01*
X13652380Y23691905D02*
X14261904Y23691905D01*
X14414285Y23996667D02*
X14795238Y23996667D01*
X14338095Y23768096D02*
X14604761Y24568096D01*
X14871428Y23768096D01*
X15519047Y23768096D02*
X15138095Y23768096D01*
X15138095Y24568096D01*
X15671428Y24568096D02*
X16128571Y24568096D01*
X15900000Y23768096D02*
X15900000Y24568096D01*
X17646666Y28213096D02*
X17380000Y28594048D01*
X17189523Y28213096D02*
X17189523Y29013096D01*
X17494285Y29013096D01*
X17570476Y28975000D01*
X17608571Y28936905D01*
X17646666Y28860715D01*
X17646666Y28746429D01*
X17608571Y28670239D01*
X17570476Y28632143D01*
X17494285Y28594048D01*
X17189523Y28594048D01*
X17913333Y29013096D02*
X18446666Y28213096D01*
X18446666Y29013096D02*
X17913333Y28213096D01*
X7010476Y29013096D02*
X7467619Y29013096D01*
X7239047Y28213096D02*
X7239047Y29013096D01*
X7658095Y29013096D02*
X8191428Y28213096D01*
X8191428Y29013096D02*
X7658095Y28213096D01*
%TO.C,D4*%
X72286904Y17327620D02*
X72286904Y18327620D01*
X72525000Y18327620D01*
X72667857Y18280000D01*
X72763095Y18184762D01*
X72810714Y18089524D01*
X72858333Y17899048D01*
X72858333Y17756191D01*
X72810714Y17565715D01*
X72763095Y17470477D01*
X72667857Y17375239D01*
X72525000Y17327620D01*
X72286904Y17327620D01*
X73715476Y17994286D02*
X73715476Y17327620D01*
X73477380Y18375239D02*
X73239285Y17660953D01*
X73858333Y17660953D01*
%TO.C,J1*%
X72477380Y25066667D02*
X73191666Y25066667D01*
X73334523Y25019048D01*
X73429761Y24923810D01*
X73477380Y24780953D01*
X73477380Y24685715D01*
X73477380Y26066667D02*
X73477380Y25495239D01*
X73477380Y25780953D02*
X72477380Y25780953D01*
X72620238Y25685715D01*
X72715476Y25590477D01*
X72763095Y25495239D01*
%TO.C,C3*%
X41632142Y34758334D02*
X41679761Y34710715D01*
X41727380Y34567858D01*
X41727380Y34472620D01*
X41679761Y34329762D01*
X41584523Y34234524D01*
X41489285Y34186905D01*
X41298809Y34139286D01*
X41155952Y34139286D01*
X40965476Y34186905D01*
X40870238Y34234524D01*
X40775000Y34329762D01*
X40727380Y34472620D01*
X40727380Y34567858D01*
X40775000Y34710715D01*
X40822619Y34758334D01*
X40727380Y35091667D02*
X40727380Y35710715D01*
X41108333Y35377381D01*
X41108333Y35520239D01*
X41155952Y35615477D01*
X41203571Y35663096D01*
X41298809Y35710715D01*
X41536904Y35710715D01*
X41632142Y35663096D01*
X41679761Y35615477D01*
X41727380Y35520239D01*
X41727380Y35234524D01*
X41679761Y35139286D01*
X41632142Y35091667D01*
%TO.C,C4*%
X49922142Y34513334D02*
X49969761Y34465715D01*
X50017380Y34322858D01*
X50017380Y34227620D01*
X49969761Y34084762D01*
X49874523Y33989524D01*
X49779285Y33941905D01*
X49588809Y33894286D01*
X49445952Y33894286D01*
X49255476Y33941905D01*
X49160238Y33989524D01*
X49065000Y34084762D01*
X49017380Y34227620D01*
X49017380Y34322858D01*
X49065000Y34465715D01*
X49112619Y34513334D01*
X49350714Y35370477D02*
X50017380Y35370477D01*
X48969761Y35132381D02*
X49684047Y34894286D01*
X49684047Y35513334D01*
%TO.C,C5*%
X37822142Y15708334D02*
X37869761Y15660715D01*
X37917380Y15517858D01*
X37917380Y15422620D01*
X37869761Y15279762D01*
X37774523Y15184524D01*
X37679285Y15136905D01*
X37488809Y15089286D01*
X37345952Y15089286D01*
X37155476Y15136905D01*
X37060238Y15184524D01*
X36965000Y15279762D01*
X36917380Y15422620D01*
X36917380Y15517858D01*
X36965000Y15660715D01*
X37012619Y15708334D01*
X36917380Y16613096D02*
X36917380Y16136905D01*
X37393571Y16089286D01*
X37345952Y16136905D01*
X37298333Y16232143D01*
X37298333Y16470239D01*
X37345952Y16565477D01*
X37393571Y16613096D01*
X37488809Y16660715D01*
X37726904Y16660715D01*
X37822142Y16613096D01*
X37869761Y16565477D01*
X37917380Y16470239D01*
X37917380Y16232143D01*
X37869761Y16136905D01*
X37822142Y16089286D01*
%TO.C,C7*%
X49252142Y15708334D02*
X49299761Y15660715D01*
X49347380Y15517858D01*
X49347380Y15422620D01*
X49299761Y15279762D01*
X49204523Y15184524D01*
X49109285Y15136905D01*
X48918809Y15089286D01*
X48775952Y15089286D01*
X48585476Y15136905D01*
X48490238Y15184524D01*
X48395000Y15279762D01*
X48347380Y15422620D01*
X48347380Y15517858D01*
X48395000Y15660715D01*
X48442619Y15708334D01*
X48347380Y16041667D02*
X48347380Y16708334D01*
X49347380Y16279762D01*
%TO.C,U1*%
X62103095Y20232620D02*
X62103095Y19423096D01*
X62150714Y19327858D01*
X62198333Y19280239D01*
X62293571Y19232620D01*
X62484047Y19232620D01*
X62579285Y19280239D01*
X62626904Y19327858D01*
X62674523Y19423096D01*
X62674523Y20232620D01*
X63674523Y19232620D02*
X63103095Y19232620D01*
X63388809Y19232620D02*
X63388809Y20232620D01*
X63293571Y20089762D01*
X63198333Y19994524D01*
X63103095Y19946905D01*
%TO.C,C1*%
X68937142Y11263334D02*
X68984761Y11215715D01*
X69032380Y11072858D01*
X69032380Y10977620D01*
X68984761Y10834762D01*
X68889523Y10739524D01*
X68794285Y10691905D01*
X68603809Y10644286D01*
X68460952Y10644286D01*
X68270476Y10691905D01*
X68175238Y10739524D01*
X68080000Y10834762D01*
X68032380Y10977620D01*
X68032380Y11072858D01*
X68080000Y11215715D01*
X68127619Y11263334D01*
X69032380Y12215715D02*
X69032380Y11644286D01*
X69032380Y11930000D02*
X68032380Y11930000D01*
X68175238Y11834762D01*
X68270476Y11739524D01*
X68318095Y11644286D01*
%TO.C,D1*%
X531904Y37012620D02*
X531904Y38012620D01*
X770000Y38012620D01*
X912857Y37965000D01*
X1008095Y37869762D01*
X1055714Y37774524D01*
X1103333Y37584048D01*
X1103333Y37441191D01*
X1055714Y37250715D01*
X1008095Y37155477D01*
X912857Y37060239D01*
X770000Y37012620D01*
X531904Y37012620D01*
X2055714Y37012620D02*
X1484285Y37012620D01*
X1770000Y37012620D02*
X1770000Y38012620D01*
X1674761Y37869762D01*
X1579523Y37774524D01*
X1484285Y37726905D01*
%TO.C,R1*%
X9358333Y37012620D02*
X9025000Y37488810D01*
X8786904Y37012620D02*
X8786904Y38012620D01*
X9167857Y38012620D01*
X9263095Y37965000D01*
X9310714Y37917381D01*
X9358333Y37822143D01*
X9358333Y37679286D01*
X9310714Y37584048D01*
X9263095Y37536429D01*
X9167857Y37488810D01*
X8786904Y37488810D01*
X10310714Y37012620D02*
X9739285Y37012620D01*
X10025000Y37012620D02*
X10025000Y38012620D01*
X9929761Y37869762D01*
X9834523Y37774524D01*
X9739285Y37726905D01*
%TO.C,C9*%
X31472142Y27138334D02*
X31519761Y27090715D01*
X31567380Y26947858D01*
X31567380Y26852620D01*
X31519761Y26709762D01*
X31424523Y26614524D01*
X31329285Y26566905D01*
X31138809Y26519286D01*
X30995952Y26519286D01*
X30805476Y26566905D01*
X30710238Y26614524D01*
X30615000Y26709762D01*
X30567380Y26852620D01*
X30567380Y26947858D01*
X30615000Y27090715D01*
X30662619Y27138334D01*
X31567380Y27614524D02*
X31567380Y27805000D01*
X31519761Y27900239D01*
X31472142Y27947858D01*
X31329285Y28043096D01*
X31138809Y28090715D01*
X30757857Y28090715D01*
X30662619Y28043096D01*
X30615000Y27995477D01*
X30567380Y27900239D01*
X30567380Y27709762D01*
X30615000Y27614524D01*
X30662619Y27566905D01*
X30757857Y27519286D01*
X30995952Y27519286D01*
X31091190Y27566905D01*
X31138809Y27614524D01*
X31186428Y27709762D01*
X31186428Y27900239D01*
X31138809Y27995477D01*
X31091190Y28043096D01*
X30995952Y28090715D01*
%TO.C,C10*%
X31472142Y23487143D02*
X31519761Y23439524D01*
X31567380Y23296667D01*
X31567380Y23201429D01*
X31519761Y23058572D01*
X31424523Y22963334D01*
X31329285Y22915715D01*
X31138809Y22868096D01*
X30995952Y22868096D01*
X30805476Y22915715D01*
X30710238Y22963334D01*
X30615000Y23058572D01*
X30567380Y23201429D01*
X30567380Y23296667D01*
X30615000Y23439524D01*
X30662619Y23487143D01*
X31567380Y24439524D02*
X31567380Y23868096D01*
X31567380Y24153810D02*
X30567380Y24153810D01*
X30710238Y24058572D01*
X30805476Y23963334D01*
X30853095Y23868096D01*
X30567380Y25058572D02*
X30567380Y25153810D01*
X30615000Y25249048D01*
X30662619Y25296667D01*
X30757857Y25344286D01*
X30948333Y25391905D01*
X31186428Y25391905D01*
X31376904Y25344286D01*
X31472142Y25296667D01*
X31519761Y25249048D01*
X31567380Y25153810D01*
X31567380Y25058572D01*
X31519761Y24963334D01*
X31472142Y24915715D01*
X31376904Y24868096D01*
X31186428Y24820477D01*
X30948333Y24820477D01*
X30757857Y24868096D01*
X30662619Y24915715D01*
X30615000Y24963334D01*
X30567380Y25058572D01*
%TO.C,J2*%
X16071904Y39767977D02*
X16719523Y39767977D01*
X16795714Y39806072D01*
X16833809Y39844167D01*
X16871904Y39920358D01*
X16871904Y40072739D01*
X16833809Y40148929D01*
X16795714Y40187024D01*
X16719523Y40225120D01*
X16071904Y40225120D01*
X16071904Y40948929D02*
X16071904Y40796548D01*
X16110000Y40720358D01*
X16148095Y40682262D01*
X16262380Y40606072D01*
X16414761Y40567977D01*
X16719523Y40567977D01*
X16795714Y40606072D01*
X16833809Y40644167D01*
X16871904Y40720358D01*
X16871904Y40872739D01*
X16833809Y40948929D01*
X16795714Y40987024D01*
X16719523Y41025120D01*
X16529047Y41025120D01*
X16452857Y40987024D01*
X16414761Y40948929D01*
X16376666Y40872739D01*
X16376666Y40720358D01*
X16414761Y40644167D01*
X16452857Y40606072D01*
X16529047Y40567977D01*
X24491904Y1020358D02*
X23691904Y1020358D01*
X23691904Y1325120D01*
X23730000Y1401310D01*
X23768095Y1439405D01*
X23844285Y1477500D01*
X23958571Y1477500D01*
X24034761Y1439405D01*
X24072857Y1401310D01*
X24110952Y1325120D01*
X24110952Y1020358D01*
X24263333Y1782262D02*
X24263333Y2163215D01*
X24491904Y1706072D02*
X23691904Y1972739D01*
X24491904Y2239405D01*
X23691904Y2658453D02*
X23691904Y2734643D01*
X23730000Y2810834D01*
X23768095Y2848929D01*
X23844285Y2887024D01*
X23996666Y2925120D01*
X24187142Y2925120D01*
X24339523Y2887024D01*
X24415714Y2848929D01*
X24453809Y2810834D01*
X24491904Y2734643D01*
X24491904Y2658453D01*
X24453809Y2582262D01*
X24415714Y2544167D01*
X24339523Y2506072D01*
X24187142Y2467977D01*
X23996666Y2467977D01*
X23844285Y2506072D01*
X23768095Y2544167D01*
X23730000Y2582262D01*
X23691904Y2658453D01*
X41471904Y39006072D02*
X42119523Y39006072D01*
X42195714Y39044167D01*
X42233809Y39082262D01*
X42271904Y39158453D01*
X42271904Y39310834D01*
X42233809Y39387024D01*
X42195714Y39425120D01*
X42119523Y39463215D01*
X41471904Y39463215D01*
X42271904Y40263215D02*
X42271904Y39806072D01*
X42271904Y40034643D02*
X41471904Y40034643D01*
X41586190Y39958453D01*
X41662380Y39882262D01*
X41700476Y39806072D01*
X41548095Y40567977D02*
X41510000Y40606072D01*
X41471904Y40682262D01*
X41471904Y40872739D01*
X41510000Y40948929D01*
X41548095Y40987024D01*
X41624285Y41025120D01*
X41700476Y41025120D01*
X41814761Y40987024D01*
X42271904Y40529881D01*
X42271904Y41025120D01*
X16452857Y1134643D02*
X16490952Y1248929D01*
X16529047Y1287024D01*
X16605238Y1325120D01*
X16719523Y1325120D01*
X16795714Y1287024D01*
X16833809Y1248929D01*
X16871904Y1172739D01*
X16871904Y867977D01*
X16071904Y867977D01*
X16071904Y1134643D01*
X16110000Y1210834D01*
X16148095Y1248929D01*
X16224285Y1287024D01*
X16300476Y1287024D01*
X16376666Y1248929D01*
X16414761Y1210834D01*
X16452857Y1134643D01*
X16452857Y867977D01*
X16071904Y1820358D02*
X16071904Y1972739D01*
X16110000Y2048929D01*
X16186190Y2125120D01*
X16338571Y2163215D01*
X16605238Y2163215D01*
X16757619Y2125120D01*
X16833809Y2048929D01*
X16871904Y1972739D01*
X16871904Y1820358D01*
X16833809Y1744167D01*
X16757619Y1667977D01*
X16605238Y1629881D01*
X16338571Y1629881D01*
X16186190Y1667977D01*
X16110000Y1744167D01*
X16071904Y1820358D01*
X16071904Y2658453D02*
X16071904Y2734643D01*
X16110000Y2810834D01*
X16148095Y2848929D01*
X16224285Y2887024D01*
X16376666Y2925120D01*
X16567142Y2925120D01*
X16719523Y2887024D01*
X16795714Y2848929D01*
X16833809Y2810834D01*
X16871904Y2734643D01*
X16871904Y2658453D01*
X16833809Y2582262D01*
X16795714Y2544167D01*
X16719523Y2506072D01*
X16567142Y2467977D01*
X16376666Y2467977D01*
X16224285Y2506072D01*
X16148095Y2544167D01*
X16110000Y2582262D01*
X16071904Y2658453D01*
X37191904Y47912977D02*
X36391904Y47912977D01*
X36391904Y48217739D01*
X36430000Y48293929D01*
X36468095Y48332024D01*
X36544285Y48370120D01*
X36658571Y48370120D01*
X36734761Y48332024D01*
X36772857Y48293929D01*
X36810952Y48217739D01*
X36810952Y47912977D01*
X37115714Y49170120D02*
X37153809Y49132024D01*
X37191904Y49017739D01*
X37191904Y48941548D01*
X37153809Y48827262D01*
X37077619Y48751072D01*
X37001428Y48712977D01*
X36849047Y48674881D01*
X36734761Y48674881D01*
X36582380Y48712977D01*
X36506190Y48751072D01*
X36430000Y48827262D01*
X36391904Y48941548D01*
X36391904Y49017739D01*
X36430000Y49132024D01*
X36468095Y49170120D01*
X37191904Y49932024D02*
X37191904Y49474881D01*
X37191904Y49703453D02*
X36391904Y49703453D01*
X36506190Y49627262D01*
X36582380Y49551072D01*
X36620476Y49474881D01*
X36468095Y50236786D02*
X36430000Y50274881D01*
X36391904Y50351072D01*
X36391904Y50541548D01*
X36430000Y50617739D01*
X36468095Y50655834D01*
X36544285Y50693929D01*
X36620476Y50693929D01*
X36734761Y50655834D01*
X37191904Y50198691D01*
X37191904Y50693929D01*
X23691904Y47912977D02*
X24339523Y47912977D01*
X24415714Y47951072D01*
X24453809Y47989167D01*
X24491904Y48065358D01*
X24491904Y48217739D01*
X24453809Y48293929D01*
X24415714Y48332024D01*
X24339523Y48370120D01*
X23691904Y48370120D01*
X24491904Y48789167D02*
X24491904Y48941548D01*
X24453809Y49017739D01*
X24415714Y49055834D01*
X24301428Y49132024D01*
X24149047Y49170120D01*
X23844285Y49170120D01*
X23768095Y49132024D01*
X23730000Y49093929D01*
X23691904Y49017739D01*
X23691904Y48865358D01*
X23730000Y48789167D01*
X23768095Y48751072D01*
X23844285Y48712977D01*
X24034761Y48712977D01*
X24110952Y48751072D01*
X24149047Y48789167D01*
X24187142Y48865358D01*
X24187142Y49017739D01*
X24149047Y49093929D01*
X24110952Y49132024D01*
X24034761Y49170120D01*
X49891904Y9177977D02*
X49091904Y9177977D01*
X49091904Y9482739D01*
X49130000Y9558929D01*
X49168095Y9597024D01*
X49244285Y9635120D01*
X49358571Y9635120D01*
X49434761Y9597024D01*
X49472857Y9558929D01*
X49510952Y9482739D01*
X49510952Y9177977D01*
X49815714Y10435120D02*
X49853809Y10397024D01*
X49891904Y10282739D01*
X49891904Y10206548D01*
X49853809Y10092262D01*
X49777619Y10016072D01*
X49701428Y9977977D01*
X49549047Y9939881D01*
X49434761Y9939881D01*
X49282380Y9977977D01*
X49206190Y10016072D01*
X49130000Y10092262D01*
X49091904Y10206548D01*
X49091904Y10282739D01*
X49130000Y10397024D01*
X49168095Y10435120D01*
X49091904Y10701786D02*
X49091904Y11235120D01*
X49891904Y10892262D01*
X21951904Y906072D02*
X21151904Y906072D01*
X21151904Y1210834D01*
X21190000Y1287024D01*
X21228095Y1325120D01*
X21304285Y1363215D01*
X21418571Y1363215D01*
X21494761Y1325120D01*
X21532857Y1287024D01*
X21570952Y1210834D01*
X21570952Y906072D01*
X21875714Y2163215D02*
X21913809Y2125120D01*
X21951904Y2010834D01*
X21951904Y1934643D01*
X21913809Y1820358D01*
X21837619Y1744167D01*
X21761428Y1706072D01*
X21609047Y1667977D01*
X21494761Y1667977D01*
X21342380Y1706072D01*
X21266190Y1744167D01*
X21190000Y1820358D01*
X21151904Y1934643D01*
X21151904Y2010834D01*
X21190000Y2125120D01*
X21228095Y2163215D01*
X21228095Y2467977D02*
X21190000Y2506072D01*
X21151904Y2582262D01*
X21151904Y2772739D01*
X21190000Y2848929D01*
X21228095Y2887024D01*
X21304285Y2925120D01*
X21380476Y2925120D01*
X21494761Y2887024D01*
X21951904Y2429881D01*
X21951904Y2925120D01*
X52431904Y9177977D02*
X51631904Y9177977D01*
X51631904Y9482739D01*
X51670000Y9558929D01*
X51708095Y9597024D01*
X51784285Y9635120D01*
X51898571Y9635120D01*
X51974761Y9597024D01*
X52012857Y9558929D01*
X52050952Y9482739D01*
X52050952Y9177977D01*
X52355714Y10435120D02*
X52393809Y10397024D01*
X52431904Y10282739D01*
X52431904Y10206548D01*
X52393809Y10092262D01*
X52317619Y10016072D01*
X52241428Y9977977D01*
X52089047Y9939881D01*
X51974761Y9939881D01*
X51822380Y9977977D01*
X51746190Y10016072D01*
X51670000Y10092262D01*
X51631904Y10206548D01*
X51631904Y10282739D01*
X51670000Y10397024D01*
X51708095Y10435120D01*
X52431904Y10816072D02*
X52431904Y10968453D01*
X52393809Y11044643D01*
X52355714Y11082739D01*
X52241428Y11158929D01*
X52089047Y11197024D01*
X51784285Y11197024D01*
X51708095Y11158929D01*
X51670000Y11120834D01*
X51631904Y11044643D01*
X51631904Y10892262D01*
X51670000Y10816072D01*
X51708095Y10777977D01*
X51784285Y10739881D01*
X51974761Y10739881D01*
X52050952Y10777977D01*
X52089047Y10816072D01*
X52127142Y10892262D01*
X52127142Y11044643D01*
X52089047Y11120834D01*
X52050952Y11158929D01*
X51974761Y11197024D01*
X13570000Y39348929D02*
X13531904Y39272739D01*
X13531904Y39158453D01*
X13570000Y39044167D01*
X13646190Y38967977D01*
X13722380Y38929881D01*
X13874761Y38891786D01*
X13989047Y38891786D01*
X14141428Y38929881D01*
X14217619Y38967977D01*
X14293809Y39044167D01*
X14331904Y39158453D01*
X14331904Y39234643D01*
X14293809Y39348929D01*
X14255714Y39387024D01*
X13989047Y39387024D01*
X13989047Y39234643D01*
X14331904Y39729881D02*
X13531904Y39729881D01*
X14331904Y40187024D01*
X13531904Y40187024D01*
X14331904Y40567977D02*
X13531904Y40567977D01*
X13531904Y40758453D01*
X13570000Y40872739D01*
X13646190Y40948929D01*
X13722380Y40987024D01*
X13874761Y41025120D01*
X13989047Y41025120D01*
X14141428Y40987024D01*
X14217619Y40948929D01*
X14293809Y40872739D01*
X14331904Y40758453D01*
X14331904Y40567977D01*
X23691904Y39006072D02*
X24339523Y39006072D01*
X24415714Y39044167D01*
X24453809Y39082262D01*
X24491904Y39158453D01*
X24491904Y39310834D01*
X24453809Y39387024D01*
X24415714Y39425120D01*
X24339523Y39463215D01*
X23691904Y39463215D01*
X24491904Y40263215D02*
X24491904Y39806072D01*
X24491904Y40034643D02*
X23691904Y40034643D01*
X23806190Y39958453D01*
X23882380Y39882262D01*
X23920476Y39806072D01*
X23691904Y40758453D02*
X23691904Y40834643D01*
X23730000Y40910834D01*
X23768095Y40948929D01*
X23844285Y40987024D01*
X23996666Y41025120D01*
X24187142Y41025120D01*
X24339523Y40987024D01*
X24415714Y40948929D01*
X24453809Y40910834D01*
X24491904Y40834643D01*
X24491904Y40758453D01*
X24453809Y40682262D01*
X24415714Y40644167D01*
X24339523Y40606072D01*
X24187142Y40567977D01*
X23996666Y40567977D01*
X23844285Y40606072D01*
X23768095Y40644167D01*
X23730000Y40682262D01*
X23691904Y40758453D01*
X16071904Y47912977D02*
X16719523Y47912977D01*
X16795714Y47951072D01*
X16833809Y47989167D01*
X16871904Y48065358D01*
X16871904Y48217739D01*
X16833809Y48293929D01*
X16795714Y48332024D01*
X16719523Y48370120D01*
X16071904Y48370120D01*
X16071904Y49132024D02*
X16071904Y48751072D01*
X16452857Y48712977D01*
X16414761Y48751072D01*
X16376666Y48827262D01*
X16376666Y49017739D01*
X16414761Y49093929D01*
X16452857Y49132024D01*
X16529047Y49170120D01*
X16719523Y49170120D01*
X16795714Y49132024D01*
X16833809Y49093929D01*
X16871904Y49017739D01*
X16871904Y48827262D01*
X16833809Y48751072D01*
X16795714Y48712977D01*
X29571904Y1020358D02*
X28771904Y1020358D01*
X28771904Y1325120D01*
X28810000Y1401310D01*
X28848095Y1439405D01*
X28924285Y1477500D01*
X29038571Y1477500D01*
X29114761Y1439405D01*
X29152857Y1401310D01*
X29190952Y1325120D01*
X29190952Y1020358D01*
X29343333Y1782262D02*
X29343333Y2163215D01*
X29571904Y1706072D02*
X28771904Y1972739D01*
X29571904Y2239405D01*
X29038571Y2848929D02*
X29571904Y2848929D01*
X28733809Y2658453D02*
X29305238Y2467977D01*
X29305238Y2963215D01*
X59290000Y39348929D02*
X59251904Y39272739D01*
X59251904Y39158453D01*
X59290000Y39044167D01*
X59366190Y38967977D01*
X59442380Y38929881D01*
X59594761Y38891786D01*
X59709047Y38891786D01*
X59861428Y38929881D01*
X59937619Y38967977D01*
X60013809Y39044167D01*
X60051904Y39158453D01*
X60051904Y39234643D01*
X60013809Y39348929D01*
X59975714Y39387024D01*
X59709047Y39387024D01*
X59709047Y39234643D01*
X60051904Y39729881D02*
X59251904Y39729881D01*
X60051904Y40187024D01*
X59251904Y40187024D01*
X60051904Y40567977D02*
X59251904Y40567977D01*
X59251904Y40758453D01*
X59290000Y40872739D01*
X59366190Y40948929D01*
X59442380Y40987024D01*
X59594761Y41025120D01*
X59709047Y41025120D01*
X59861428Y40987024D01*
X59937619Y40948929D01*
X60013809Y40872739D01*
X60051904Y40758453D01*
X60051904Y40567977D01*
X56711904Y1667977D02*
X57359523Y1667977D01*
X57435714Y1706072D01*
X57473809Y1744167D01*
X57511904Y1820358D01*
X57511904Y1972739D01*
X57473809Y2048929D01*
X57435714Y2087024D01*
X57359523Y2125120D01*
X56711904Y2125120D01*
X56711904Y2429881D02*
X56711904Y2925120D01*
X57016666Y2658453D01*
X57016666Y2772739D01*
X57054761Y2848929D01*
X57092857Y2887024D01*
X57169047Y2925120D01*
X57359523Y2925120D01*
X57435714Y2887024D01*
X57473809Y2848929D01*
X57511904Y2772739D01*
X57511904Y2544167D01*
X57473809Y2467977D01*
X57435714Y2429881D01*
X29571904Y9177977D02*
X28771904Y9177977D01*
X28771904Y9482739D01*
X28810000Y9558929D01*
X28848095Y9597024D01*
X28924285Y9635120D01*
X29038571Y9635120D01*
X29114761Y9597024D01*
X29152857Y9558929D01*
X29190952Y9482739D01*
X29190952Y9177977D01*
X29343333Y9939881D02*
X29343333Y10320834D01*
X29571904Y9863691D02*
X28771904Y10130358D01*
X29571904Y10397024D01*
X28771904Y11044643D02*
X28771904Y10663691D01*
X29152857Y10625596D01*
X29114761Y10663691D01*
X29076666Y10739881D01*
X29076666Y10930358D01*
X29114761Y11006548D01*
X29152857Y11044643D01*
X29229047Y11082739D01*
X29419523Y11082739D01*
X29495714Y11044643D01*
X29533809Y11006548D01*
X29571904Y10930358D01*
X29571904Y10739881D01*
X29533809Y10663691D01*
X29495714Y10625596D01*
X39731904Y38244167D02*
X38931904Y38244167D01*
X38931904Y38548929D01*
X38970000Y38625120D01*
X39008095Y38663215D01*
X39084285Y38701310D01*
X39198571Y38701310D01*
X39274761Y38663215D01*
X39312857Y38625120D01*
X39350952Y38548929D01*
X39350952Y38244167D01*
X39655714Y39501310D02*
X39693809Y39463215D01*
X39731904Y39348929D01*
X39731904Y39272739D01*
X39693809Y39158453D01*
X39617619Y39082262D01*
X39541428Y39044167D01*
X39389047Y39006072D01*
X39274761Y39006072D01*
X39122380Y39044167D01*
X39046190Y39082262D01*
X38970000Y39158453D01*
X38931904Y39272739D01*
X38931904Y39348929D01*
X38970000Y39463215D01*
X39008095Y39501310D01*
X39731904Y40263215D02*
X39731904Y39806072D01*
X39731904Y40034643D02*
X38931904Y40034643D01*
X39046190Y39958453D01*
X39122380Y39882262D01*
X39160476Y39806072D01*
X39731904Y41025120D02*
X39731904Y40567977D01*
X39731904Y40796548D02*
X38931904Y40796548D01*
X39046190Y40720358D01*
X39122380Y40644167D01*
X39160476Y40567977D01*
X29571904Y39006072D02*
X28771904Y39006072D01*
X28771904Y39310834D01*
X28810000Y39387024D01*
X28848095Y39425120D01*
X28924285Y39463215D01*
X29038571Y39463215D01*
X29114761Y39425120D01*
X29152857Y39387024D01*
X29190952Y39310834D01*
X29190952Y39006072D01*
X29152857Y40072739D02*
X29190952Y40187024D01*
X29229047Y40225120D01*
X29305238Y40263215D01*
X29419523Y40263215D01*
X29495714Y40225120D01*
X29533809Y40187024D01*
X29571904Y40110834D01*
X29571904Y39806072D01*
X28771904Y39806072D01*
X28771904Y40072739D01*
X28810000Y40148929D01*
X28848095Y40187024D01*
X28924285Y40225120D01*
X29000476Y40225120D01*
X29076666Y40187024D01*
X29114761Y40148929D01*
X29152857Y40072739D01*
X29152857Y39806072D01*
X28771904Y40529881D02*
X28771904Y41063215D01*
X29571904Y40720358D01*
X24491904Y9177977D02*
X23691904Y9177977D01*
X23691904Y9482739D01*
X23730000Y9558929D01*
X23768095Y9597024D01*
X23844285Y9635120D01*
X23958571Y9635120D01*
X24034761Y9597024D01*
X24072857Y9558929D01*
X24110952Y9482739D01*
X24110952Y9177977D01*
X24263333Y9939881D02*
X24263333Y10320834D01*
X24491904Y9863691D02*
X23691904Y10130358D01*
X24491904Y10397024D01*
X24491904Y11082739D02*
X24491904Y10625596D01*
X24491904Y10854167D02*
X23691904Y10854167D01*
X23806190Y10777977D01*
X23882380Y10701786D01*
X23920476Y10625596D01*
X39731904Y47912977D02*
X38931904Y47912977D01*
X38931904Y48217739D01*
X38970000Y48293929D01*
X39008095Y48332024D01*
X39084285Y48370120D01*
X39198571Y48370120D01*
X39274761Y48332024D01*
X39312857Y48293929D01*
X39350952Y48217739D01*
X39350952Y47912977D01*
X39655714Y49170120D02*
X39693809Y49132024D01*
X39731904Y49017739D01*
X39731904Y48941548D01*
X39693809Y48827262D01*
X39617619Y48751072D01*
X39541428Y48712977D01*
X39389047Y48674881D01*
X39274761Y48674881D01*
X39122380Y48712977D01*
X39046190Y48751072D01*
X38970000Y48827262D01*
X38931904Y48941548D01*
X38931904Y49017739D01*
X38970000Y49132024D01*
X39008095Y49170120D01*
X39731904Y49932024D02*
X39731904Y49474881D01*
X39731904Y49703453D02*
X38931904Y49703453D01*
X39046190Y49627262D01*
X39122380Y49551072D01*
X39160476Y49474881D01*
X38931904Y50427262D02*
X38931904Y50503453D01*
X38970000Y50579643D01*
X39008095Y50617739D01*
X39084285Y50655834D01*
X39236666Y50693929D01*
X39427142Y50693929D01*
X39579523Y50655834D01*
X39655714Y50617739D01*
X39693809Y50579643D01*
X39731904Y50503453D01*
X39731904Y50427262D01*
X39693809Y50351072D01*
X39655714Y50312977D01*
X39579523Y50274881D01*
X39427142Y50236786D01*
X39236666Y50236786D01*
X39084285Y50274881D01*
X39008095Y50312977D01*
X38970000Y50351072D01*
X38931904Y50427262D01*
X56711904Y47912977D02*
X57359523Y47912977D01*
X57435714Y47951072D01*
X57473809Y47989167D01*
X57511904Y48065358D01*
X57511904Y48217739D01*
X57473809Y48293929D01*
X57435714Y48332024D01*
X57359523Y48370120D01*
X56711904Y48370120D01*
X57511904Y49170120D02*
X57511904Y48712977D01*
X57511904Y48941548D02*
X56711904Y48941548D01*
X56826190Y48865358D01*
X56902380Y48789167D01*
X56940476Y48712977D01*
X56711904Y49893929D02*
X56711904Y49512977D01*
X57092857Y49474881D01*
X57054761Y49512977D01*
X57016666Y49589167D01*
X57016666Y49779643D01*
X57054761Y49855834D01*
X57092857Y49893929D01*
X57169047Y49932024D01*
X57359523Y49932024D01*
X57435714Y49893929D01*
X57473809Y49855834D01*
X57511904Y49779643D01*
X57511904Y49589167D01*
X57473809Y49512977D01*
X57435714Y49474881D01*
X36391904Y39767977D02*
X37039523Y39767977D01*
X37115714Y39806072D01*
X37153809Y39844167D01*
X37191904Y39920358D01*
X37191904Y40072739D01*
X37153809Y40148929D01*
X37115714Y40187024D01*
X37039523Y40225120D01*
X36391904Y40225120D01*
X36734761Y40720358D02*
X36696666Y40644167D01*
X36658571Y40606072D01*
X36582380Y40567977D01*
X36544285Y40567977D01*
X36468095Y40606072D01*
X36430000Y40644167D01*
X36391904Y40720358D01*
X36391904Y40872739D01*
X36430000Y40948929D01*
X36468095Y40987024D01*
X36544285Y41025120D01*
X36582380Y41025120D01*
X36658571Y40987024D01*
X36696666Y40948929D01*
X36734761Y40872739D01*
X36734761Y40720358D01*
X36772857Y40644167D01*
X36810952Y40606072D01*
X36887142Y40567977D01*
X37039523Y40567977D01*
X37115714Y40606072D01*
X37153809Y40644167D01*
X37191904Y40720358D01*
X37191904Y40872739D01*
X37153809Y40948929D01*
X37115714Y40987024D01*
X37039523Y41025120D01*
X36887142Y41025120D01*
X36810952Y40987024D01*
X36772857Y40948929D01*
X36734761Y40872739D01*
X13531904Y601310D02*
X13531904Y1096548D01*
X13836666Y829881D01*
X13836666Y944167D01*
X13874761Y1020358D01*
X13912857Y1058453D01*
X13989047Y1096548D01*
X14179523Y1096548D01*
X14255714Y1058453D01*
X14293809Y1020358D01*
X14331904Y944167D01*
X14331904Y715596D01*
X14293809Y639405D01*
X14255714Y601310D01*
X14255714Y1439405D02*
X14293809Y1477500D01*
X14331904Y1439405D01*
X14293809Y1401310D01*
X14255714Y1439405D01*
X14331904Y1439405D01*
X13531904Y1744167D02*
X13531904Y2239405D01*
X13836666Y1972739D01*
X13836666Y2087024D01*
X13874761Y2163215D01*
X13912857Y2201310D01*
X13989047Y2239405D01*
X14179523Y2239405D01*
X14255714Y2201310D01*
X14293809Y2163215D01*
X14331904Y2087024D01*
X14331904Y1858453D01*
X14293809Y1782262D01*
X14255714Y1744167D01*
X13531904Y2467977D02*
X14331904Y2734643D01*
X13531904Y3001310D01*
X19411904Y38244167D02*
X18611904Y38244167D01*
X18611904Y38548929D01*
X18650000Y38625120D01*
X18688095Y38663215D01*
X18764285Y38701310D01*
X18878571Y38701310D01*
X18954761Y38663215D01*
X18992857Y38625120D01*
X19030952Y38548929D01*
X19030952Y38244167D01*
X19335714Y39501310D02*
X19373809Y39463215D01*
X19411904Y39348929D01*
X19411904Y39272739D01*
X19373809Y39158453D01*
X19297619Y39082262D01*
X19221428Y39044167D01*
X19069047Y39006072D01*
X18954761Y39006072D01*
X18802380Y39044167D01*
X18726190Y39082262D01*
X18650000Y39158453D01*
X18611904Y39272739D01*
X18611904Y39348929D01*
X18650000Y39463215D01*
X18688095Y39501310D01*
X19411904Y40263215D02*
X19411904Y39806072D01*
X19411904Y40034643D02*
X18611904Y40034643D01*
X18726190Y39958453D01*
X18802380Y39882262D01*
X18840476Y39806072D01*
X18611904Y40987024D02*
X18611904Y40606072D01*
X18992857Y40567977D01*
X18954761Y40606072D01*
X18916666Y40682262D01*
X18916666Y40872739D01*
X18954761Y40948929D01*
X18992857Y40987024D01*
X19069047Y41025120D01*
X19259523Y41025120D01*
X19335714Y40987024D01*
X19373809Y40948929D01*
X19411904Y40872739D01*
X19411904Y40682262D01*
X19373809Y40606072D01*
X19335714Y40567977D01*
X56711904Y9177977D02*
X57359523Y9177977D01*
X57435714Y9216072D01*
X57473809Y9254167D01*
X57511904Y9330358D01*
X57511904Y9482739D01*
X57473809Y9558929D01*
X57435714Y9597024D01*
X57359523Y9635120D01*
X56711904Y9635120D01*
X56978571Y10358929D02*
X57511904Y10358929D01*
X56673809Y10168453D02*
X57245238Y9977977D01*
X57245238Y10473215D01*
X32111904Y1020358D02*
X31311904Y1020358D01*
X31311904Y1325120D01*
X31350000Y1401310D01*
X31388095Y1439405D01*
X31464285Y1477500D01*
X31578571Y1477500D01*
X31654761Y1439405D01*
X31692857Y1401310D01*
X31730952Y1325120D01*
X31730952Y1020358D01*
X31883333Y1782262D02*
X31883333Y2163215D01*
X32111904Y1706072D02*
X31311904Y1972739D01*
X32111904Y2239405D01*
X31311904Y2848929D02*
X31311904Y2696548D01*
X31350000Y2620358D01*
X31388095Y2582262D01*
X31502380Y2506072D01*
X31654761Y2467977D01*
X31959523Y2467977D01*
X32035714Y2506072D01*
X32073809Y2544167D01*
X32111904Y2620358D01*
X32111904Y2772739D01*
X32073809Y2848929D01*
X32035714Y2887024D01*
X31959523Y2925120D01*
X31769047Y2925120D01*
X31692857Y2887024D01*
X31654761Y2848929D01*
X31616666Y2772739D01*
X31616666Y2620358D01*
X31654761Y2544167D01*
X31692857Y2506072D01*
X31769047Y2467977D01*
X47351904Y9177977D02*
X46551904Y9177977D01*
X46551904Y9482739D01*
X46590000Y9558929D01*
X46628095Y9597024D01*
X46704285Y9635120D01*
X46818571Y9635120D01*
X46894761Y9597024D01*
X46932857Y9558929D01*
X46970952Y9482739D01*
X46970952Y9177977D01*
X46932857Y10244643D02*
X46970952Y10358929D01*
X47009047Y10397024D01*
X47085238Y10435120D01*
X47199523Y10435120D01*
X47275714Y10397024D01*
X47313809Y10358929D01*
X47351904Y10282739D01*
X47351904Y9977977D01*
X46551904Y9977977D01*
X46551904Y10244643D01*
X46590000Y10320834D01*
X46628095Y10358929D01*
X46704285Y10397024D01*
X46780476Y10397024D01*
X46856666Y10358929D01*
X46894761Y10320834D01*
X46932857Y10244643D01*
X46932857Y9977977D01*
X47351904Y11197024D02*
X47351904Y10739881D01*
X47351904Y10968453D02*
X46551904Y10968453D01*
X46666190Y10892262D01*
X46742380Y10816072D01*
X46780476Y10739881D01*
X46551904Y11920834D02*
X46551904Y11539881D01*
X46932857Y11501786D01*
X46894761Y11539881D01*
X46856666Y11616072D01*
X46856666Y11806548D01*
X46894761Y11882739D01*
X46932857Y11920834D01*
X47009047Y11958929D01*
X47199523Y11958929D01*
X47275714Y11920834D01*
X47313809Y11882739D01*
X47351904Y11806548D01*
X47351904Y11616072D01*
X47313809Y11539881D01*
X47275714Y11501786D01*
X47351904Y144167D02*
X46551904Y144167D01*
X46551904Y448929D01*
X46590000Y525120D01*
X46628095Y563215D01*
X46704285Y601310D01*
X46818571Y601310D01*
X46894761Y563215D01*
X46932857Y525120D01*
X46970952Y448929D01*
X46970952Y144167D01*
X46932857Y1210834D02*
X46970952Y1325120D01*
X47009047Y1363215D01*
X47085238Y1401310D01*
X47199523Y1401310D01*
X47275714Y1363215D01*
X47313809Y1325120D01*
X47351904Y1248929D01*
X47351904Y944167D01*
X46551904Y944167D01*
X46551904Y1210834D01*
X46590000Y1287024D01*
X46628095Y1325120D01*
X46704285Y1363215D01*
X46780476Y1363215D01*
X46856666Y1325120D01*
X46894761Y1287024D01*
X46932857Y1210834D01*
X46932857Y944167D01*
X47351904Y2163215D02*
X47351904Y1706072D01*
X47351904Y1934643D02*
X46551904Y1934643D01*
X46666190Y1858453D01*
X46742380Y1782262D01*
X46780476Y1706072D01*
X46818571Y2848929D02*
X47351904Y2848929D01*
X46513809Y2658453D02*
X47085238Y2467977D01*
X47085238Y2963215D01*
X13570000Y9597024D02*
X13531904Y9520834D01*
X13531904Y9406548D01*
X13570000Y9292262D01*
X13646190Y9216072D01*
X13722380Y9177977D01*
X13874761Y9139881D01*
X13989047Y9139881D01*
X14141428Y9177977D01*
X14217619Y9216072D01*
X14293809Y9292262D01*
X14331904Y9406548D01*
X14331904Y9482739D01*
X14293809Y9597024D01*
X14255714Y9635120D01*
X13989047Y9635120D01*
X13989047Y9482739D01*
X14331904Y9977977D02*
X13531904Y9977977D01*
X14331904Y10435120D01*
X13531904Y10435120D01*
X14331904Y10816072D02*
X13531904Y10816072D01*
X13531904Y11006548D01*
X13570000Y11120834D01*
X13646190Y11197024D01*
X13722380Y11235120D01*
X13874761Y11273215D01*
X13989047Y11273215D01*
X14141428Y11235120D01*
X14217619Y11197024D01*
X14293809Y11120834D01*
X14331904Y11006548D01*
X14331904Y10816072D01*
X34651904Y9177977D02*
X33851904Y9177977D01*
X33851904Y9482739D01*
X33890000Y9558929D01*
X33928095Y9597024D01*
X34004285Y9635120D01*
X34118571Y9635120D01*
X34194761Y9597024D01*
X34232857Y9558929D01*
X34270952Y9482739D01*
X34270952Y9177977D01*
X34575714Y10435120D02*
X34613809Y10397024D01*
X34651904Y10282739D01*
X34651904Y10206548D01*
X34613809Y10092262D01*
X34537619Y10016072D01*
X34461428Y9977977D01*
X34309047Y9939881D01*
X34194761Y9939881D01*
X34042380Y9977977D01*
X33966190Y10016072D01*
X33890000Y10092262D01*
X33851904Y10206548D01*
X33851904Y10282739D01*
X33890000Y10397024D01*
X33928095Y10435120D01*
X33851904Y11158929D02*
X33851904Y10777977D01*
X34232857Y10739881D01*
X34194761Y10777977D01*
X34156666Y10854167D01*
X34156666Y11044643D01*
X34194761Y11120834D01*
X34232857Y11158929D01*
X34309047Y11197024D01*
X34499523Y11197024D01*
X34575714Y11158929D01*
X34613809Y11120834D01*
X34651904Y11044643D01*
X34651904Y10854167D01*
X34613809Y10777977D01*
X34575714Y10739881D01*
X44811904Y38358453D02*
X44011904Y38358453D01*
X44011904Y38663215D01*
X44050000Y38739405D01*
X44088095Y38777500D01*
X44164285Y38815596D01*
X44278571Y38815596D01*
X44354761Y38777500D01*
X44392857Y38739405D01*
X44430952Y38663215D01*
X44430952Y38358453D01*
X44583333Y39120358D02*
X44583333Y39501310D01*
X44811904Y39044167D02*
X44011904Y39310834D01*
X44811904Y39577500D01*
X44811904Y40263215D02*
X44811904Y39806072D01*
X44811904Y40034643D02*
X44011904Y40034643D01*
X44126190Y39958453D01*
X44202380Y39882262D01*
X44240476Y39806072D01*
X44011904Y40987024D02*
X44011904Y40606072D01*
X44392857Y40567977D01*
X44354761Y40606072D01*
X44316666Y40682262D01*
X44316666Y40872739D01*
X44354761Y40948929D01*
X44392857Y40987024D01*
X44469047Y41025120D01*
X44659523Y41025120D01*
X44735714Y40987024D01*
X44773809Y40948929D01*
X44811904Y40872739D01*
X44811904Y40682262D01*
X44773809Y40606072D01*
X44735714Y40567977D01*
X54171904Y9177977D02*
X54819523Y9177977D01*
X54895714Y9216072D01*
X54933809Y9254167D01*
X54971904Y9330358D01*
X54971904Y9482739D01*
X54933809Y9558929D01*
X54895714Y9597024D01*
X54819523Y9635120D01*
X54171904Y9635120D01*
X54248095Y9977977D02*
X54210000Y10016072D01*
X54171904Y10092262D01*
X54171904Y10282739D01*
X54210000Y10358929D01*
X54248095Y10397024D01*
X54324285Y10435120D01*
X54400476Y10435120D01*
X54514761Y10397024D01*
X54971904Y9939881D01*
X54971904Y10435120D01*
X37191904Y9177977D02*
X36391904Y9177977D01*
X36391904Y9482739D01*
X36430000Y9558929D01*
X36468095Y9597024D01*
X36544285Y9635120D01*
X36658571Y9635120D01*
X36734761Y9597024D01*
X36772857Y9558929D01*
X36810952Y9482739D01*
X36810952Y9177977D01*
X36772857Y10244643D02*
X36810952Y10358929D01*
X36849047Y10397024D01*
X36925238Y10435120D01*
X37039523Y10435120D01*
X37115714Y10397024D01*
X37153809Y10358929D01*
X37191904Y10282739D01*
X37191904Y9977977D01*
X36391904Y9977977D01*
X36391904Y10244643D01*
X36430000Y10320834D01*
X36468095Y10358929D01*
X36544285Y10397024D01*
X36620476Y10397024D01*
X36696666Y10358929D01*
X36734761Y10320834D01*
X36772857Y10244643D01*
X36772857Y9977977D01*
X37191904Y11197024D02*
X37191904Y10739881D01*
X37191904Y10968453D02*
X36391904Y10968453D01*
X36506190Y10892262D01*
X36582380Y10816072D01*
X36620476Y10739881D01*
X44811904Y144167D02*
X44011904Y144167D01*
X44011904Y448929D01*
X44050000Y525120D01*
X44088095Y563215D01*
X44164285Y601310D01*
X44278571Y601310D01*
X44354761Y563215D01*
X44392857Y525120D01*
X44430952Y448929D01*
X44430952Y144167D01*
X44392857Y1210834D02*
X44430952Y1325120D01*
X44469047Y1363215D01*
X44545238Y1401310D01*
X44659523Y1401310D01*
X44735714Y1363215D01*
X44773809Y1325120D01*
X44811904Y1248929D01*
X44811904Y944167D01*
X44011904Y944167D01*
X44011904Y1210834D01*
X44050000Y1287024D01*
X44088095Y1325120D01*
X44164285Y1363215D01*
X44240476Y1363215D01*
X44316666Y1325120D01*
X44354761Y1287024D01*
X44392857Y1210834D01*
X44392857Y944167D01*
X44811904Y2163215D02*
X44811904Y1706072D01*
X44811904Y1934643D02*
X44011904Y1934643D01*
X44126190Y1858453D01*
X44202380Y1782262D01*
X44240476Y1706072D01*
X44088095Y2467977D02*
X44050000Y2506072D01*
X44011904Y2582262D01*
X44011904Y2772739D01*
X44050000Y2848929D01*
X44088095Y2887024D01*
X44164285Y2925120D01*
X44240476Y2925120D01*
X44354761Y2887024D01*
X44811904Y2429881D01*
X44811904Y2925120D01*
X47351904Y38358453D02*
X46551904Y38358453D01*
X46551904Y38663215D01*
X46590000Y38739405D01*
X46628095Y38777500D01*
X46704285Y38815596D01*
X46818571Y38815596D01*
X46894761Y38777500D01*
X46932857Y38739405D01*
X46970952Y38663215D01*
X46970952Y38358453D01*
X47123333Y39120358D02*
X47123333Y39501310D01*
X47351904Y39044167D02*
X46551904Y39310834D01*
X47351904Y39577500D01*
X47351904Y40263215D02*
X47351904Y39806072D01*
X47351904Y40034643D02*
X46551904Y40034643D01*
X46666190Y39958453D01*
X46742380Y39882262D01*
X46780476Y39806072D01*
X46551904Y40529881D02*
X46551904Y41025120D01*
X46856666Y40758453D01*
X46856666Y40872739D01*
X46894761Y40948929D01*
X46932857Y40987024D01*
X47009047Y41025120D01*
X47199523Y41025120D01*
X47275714Y40987024D01*
X47313809Y40948929D01*
X47351904Y40872739D01*
X47351904Y40644167D01*
X47313809Y40567977D01*
X47275714Y40529881D01*
X44811904Y47912977D02*
X44011904Y47912977D01*
X44011904Y48217739D01*
X44050000Y48293929D01*
X44088095Y48332024D01*
X44164285Y48370120D01*
X44278571Y48370120D01*
X44354761Y48332024D01*
X44392857Y48293929D01*
X44430952Y48217739D01*
X44430952Y47912977D01*
X44583333Y48674881D02*
X44583333Y49055834D01*
X44811904Y48598691D02*
X44011904Y48865358D01*
X44811904Y49132024D01*
X44811904Y49817739D02*
X44811904Y49360596D01*
X44811904Y49589167D02*
X44011904Y49589167D01*
X44126190Y49512977D01*
X44202380Y49436786D01*
X44240476Y49360596D01*
X44278571Y50503453D02*
X44811904Y50503453D01*
X43973809Y50312977D02*
X44545238Y50122500D01*
X44545238Y50617739D01*
X34651904Y47912977D02*
X33851904Y47912977D01*
X33851904Y48217739D01*
X33890000Y48293929D01*
X33928095Y48332024D01*
X34004285Y48370120D01*
X34118571Y48370120D01*
X34194761Y48332024D01*
X34232857Y48293929D01*
X34270952Y48217739D01*
X34270952Y47912977D01*
X34651904Y48712977D02*
X33851904Y48712977D01*
X33851904Y48903453D01*
X33890000Y49017739D01*
X33966190Y49093929D01*
X34042380Y49132024D01*
X34194761Y49170120D01*
X34309047Y49170120D01*
X34461428Y49132024D01*
X34537619Y49093929D01*
X34613809Y49017739D01*
X34651904Y48903453D01*
X34651904Y48712977D01*
X33928095Y49474881D02*
X33890000Y49512977D01*
X33851904Y49589167D01*
X33851904Y49779643D01*
X33890000Y49855834D01*
X33928095Y49893929D01*
X34004285Y49932024D01*
X34080476Y49932024D01*
X34194761Y49893929D01*
X34651904Y49436786D01*
X34651904Y49932024D01*
X38931904Y9177977D02*
X39579523Y9177977D01*
X39655714Y9216072D01*
X39693809Y9254167D01*
X39731904Y9330358D01*
X39731904Y9482739D01*
X39693809Y9558929D01*
X39655714Y9597024D01*
X39579523Y9635120D01*
X38931904Y9635120D01*
X38931904Y10168453D02*
X38931904Y10244643D01*
X38970000Y10320834D01*
X39008095Y10358929D01*
X39084285Y10397024D01*
X39236666Y10435120D01*
X39427142Y10435120D01*
X39579523Y10397024D01*
X39655714Y10358929D01*
X39693809Y10320834D01*
X39731904Y10244643D01*
X39731904Y10168453D01*
X39693809Y10092262D01*
X39655714Y10054167D01*
X39579523Y10016072D01*
X39427142Y9977977D01*
X39236666Y9977977D01*
X39084285Y10016072D01*
X39008095Y10054167D01*
X38970000Y10092262D01*
X38931904Y10168453D01*
X32111904Y9177977D02*
X31311904Y9177977D01*
X31311904Y9482739D01*
X31350000Y9558929D01*
X31388095Y9597024D01*
X31464285Y9635120D01*
X31578571Y9635120D01*
X31654761Y9597024D01*
X31692857Y9558929D01*
X31730952Y9482739D01*
X31730952Y9177977D01*
X31883333Y9939881D02*
X31883333Y10320834D01*
X32111904Y9863691D02*
X31311904Y10130358D01*
X32111904Y10397024D01*
X31311904Y10587500D02*
X31311904Y11120834D01*
X32111904Y10777977D01*
X54171904Y47912977D02*
X54819523Y47912977D01*
X54895714Y47951072D01*
X54933809Y47989167D01*
X54971904Y48065358D01*
X54971904Y48217739D01*
X54933809Y48293929D01*
X54895714Y48332024D01*
X54819523Y48370120D01*
X54171904Y48370120D01*
X54971904Y49170120D02*
X54971904Y48712977D01*
X54971904Y48941548D02*
X54171904Y48941548D01*
X54286190Y48865358D01*
X54362380Y48789167D01*
X54400476Y48712977D01*
X54171904Y49436786D02*
X54171904Y49932024D01*
X54476666Y49665358D01*
X54476666Y49779643D01*
X54514761Y49855834D01*
X54552857Y49893929D01*
X54629047Y49932024D01*
X54819523Y49932024D01*
X54895714Y49893929D01*
X54933809Y49855834D01*
X54971904Y49779643D01*
X54971904Y49551072D01*
X54933809Y49474881D01*
X54895714Y49436786D01*
X39731904Y906072D02*
X38931904Y906072D01*
X38931904Y1210834D01*
X38970000Y1287024D01*
X39008095Y1325120D01*
X39084285Y1363215D01*
X39198571Y1363215D01*
X39274761Y1325120D01*
X39312857Y1287024D01*
X39350952Y1210834D01*
X39350952Y906072D01*
X39312857Y1972739D02*
X39350952Y2087024D01*
X39389047Y2125120D01*
X39465238Y2163215D01*
X39579523Y2163215D01*
X39655714Y2125120D01*
X39693809Y2087024D01*
X39731904Y2010834D01*
X39731904Y1706072D01*
X38931904Y1706072D01*
X38931904Y1972739D01*
X38970000Y2048929D01*
X39008095Y2087024D01*
X39084285Y2125120D01*
X39160476Y2125120D01*
X39236666Y2087024D01*
X39274761Y2048929D01*
X39312857Y1972739D01*
X39312857Y1706072D01*
X39008095Y2467977D02*
X38970000Y2506072D01*
X38931904Y2582262D01*
X38931904Y2772739D01*
X38970000Y2848929D01*
X39008095Y2887024D01*
X39084285Y2925120D01*
X39160476Y2925120D01*
X39274761Y2887024D01*
X39731904Y2429881D01*
X39731904Y2925120D01*
X21951904Y9177977D02*
X21151904Y9177977D01*
X21151904Y9482739D01*
X21190000Y9558929D01*
X21228095Y9597024D01*
X21304285Y9635120D01*
X21418571Y9635120D01*
X21494761Y9597024D01*
X21532857Y9558929D01*
X21570952Y9482739D01*
X21570952Y9177977D01*
X21875714Y10435120D02*
X21913809Y10397024D01*
X21951904Y10282739D01*
X21951904Y10206548D01*
X21913809Y10092262D01*
X21837619Y10016072D01*
X21761428Y9977977D01*
X21609047Y9939881D01*
X21494761Y9939881D01*
X21342380Y9977977D01*
X21266190Y10016072D01*
X21190000Y10092262D01*
X21151904Y10206548D01*
X21151904Y10282739D01*
X21190000Y10397024D01*
X21228095Y10435120D01*
X21151904Y10701786D02*
X21151904Y11197024D01*
X21456666Y10930358D01*
X21456666Y11044643D01*
X21494761Y11120834D01*
X21532857Y11158929D01*
X21609047Y11197024D01*
X21799523Y11197024D01*
X21875714Y11158929D01*
X21913809Y11120834D01*
X21951904Y11044643D01*
X21951904Y10816072D01*
X21913809Y10739881D01*
X21875714Y10701786D01*
X61791904Y48293929D02*
X61791904Y47912977D01*
X62172857Y47874881D01*
X62134761Y47912977D01*
X62096666Y47989167D01*
X62096666Y48179643D01*
X62134761Y48255834D01*
X62172857Y48293929D01*
X62249047Y48332024D01*
X62439523Y48332024D01*
X62515714Y48293929D01*
X62553809Y48255834D01*
X62591904Y48179643D01*
X62591904Y47989167D01*
X62553809Y47912977D01*
X62515714Y47874881D01*
X61791904Y48560596D02*
X62591904Y48827262D01*
X61791904Y49093929D01*
X27031904Y9177977D02*
X26231904Y9177977D01*
X26231904Y9482739D01*
X26270000Y9558929D01*
X26308095Y9597024D01*
X26384285Y9635120D01*
X26498571Y9635120D01*
X26574761Y9597024D01*
X26612857Y9558929D01*
X26650952Y9482739D01*
X26650952Y9177977D01*
X26803333Y9939881D02*
X26803333Y10320834D01*
X27031904Y9863691D02*
X26231904Y10130358D01*
X27031904Y10397024D01*
X26231904Y10587500D02*
X26231904Y11082739D01*
X26536666Y10816072D01*
X26536666Y10930358D01*
X26574761Y11006548D01*
X26612857Y11044643D01*
X26689047Y11082739D01*
X26879523Y11082739D01*
X26955714Y11044643D01*
X26993809Y11006548D01*
X27031904Y10930358D01*
X27031904Y10701786D01*
X26993809Y10625596D01*
X26955714Y10587500D01*
X37191904Y906072D02*
X36391904Y906072D01*
X36391904Y1210834D01*
X36430000Y1287024D01*
X36468095Y1325120D01*
X36544285Y1363215D01*
X36658571Y1363215D01*
X36734761Y1325120D01*
X36772857Y1287024D01*
X36810952Y1210834D01*
X36810952Y906072D01*
X36772857Y1972739D02*
X36810952Y2087024D01*
X36849047Y2125120D01*
X36925238Y2163215D01*
X37039523Y2163215D01*
X37115714Y2125120D01*
X37153809Y2087024D01*
X37191904Y2010834D01*
X37191904Y1706072D01*
X36391904Y1706072D01*
X36391904Y1972739D01*
X36430000Y2048929D01*
X36468095Y2087024D01*
X36544285Y2125120D01*
X36620476Y2125120D01*
X36696666Y2087024D01*
X36734761Y2048929D01*
X36772857Y1972739D01*
X36772857Y1706072D01*
X36391904Y2658453D02*
X36391904Y2734643D01*
X36430000Y2810834D01*
X36468095Y2848929D01*
X36544285Y2887024D01*
X36696666Y2925120D01*
X36887142Y2925120D01*
X37039523Y2887024D01*
X37115714Y2848929D01*
X37153809Y2810834D01*
X37191904Y2734643D01*
X37191904Y2658453D01*
X37153809Y2582262D01*
X37115714Y2544167D01*
X37039523Y2506072D01*
X36887142Y2467977D01*
X36696666Y2467977D01*
X36544285Y2506072D01*
X36468095Y2544167D01*
X36430000Y2582262D01*
X36391904Y2658453D01*
X27031904Y1020358D02*
X26231904Y1020358D01*
X26231904Y1325120D01*
X26270000Y1401310D01*
X26308095Y1439405D01*
X26384285Y1477500D01*
X26498571Y1477500D01*
X26574761Y1439405D01*
X26612857Y1401310D01*
X26650952Y1325120D01*
X26650952Y1020358D01*
X26803333Y1782262D02*
X26803333Y2163215D01*
X27031904Y1706072D02*
X26231904Y1972739D01*
X27031904Y2239405D01*
X26308095Y2467977D02*
X26270000Y2506072D01*
X26231904Y2582262D01*
X26231904Y2772739D01*
X26270000Y2848929D01*
X26308095Y2887024D01*
X26384285Y2925120D01*
X26460476Y2925120D01*
X26574761Y2887024D01*
X27031904Y2429881D01*
X27031904Y2925120D01*
X34651904Y39006072D02*
X33851904Y39006072D01*
X33851904Y39310834D01*
X33890000Y39387024D01*
X33928095Y39425120D01*
X34004285Y39463215D01*
X34118571Y39463215D01*
X34194761Y39425120D01*
X34232857Y39387024D01*
X34270952Y39310834D01*
X34270952Y39006072D01*
X34232857Y40072739D02*
X34270952Y40187024D01*
X34309047Y40225120D01*
X34385238Y40263215D01*
X34499523Y40263215D01*
X34575714Y40225120D01*
X34613809Y40187024D01*
X34651904Y40110834D01*
X34651904Y39806072D01*
X33851904Y39806072D01*
X33851904Y40072739D01*
X33890000Y40148929D01*
X33928095Y40187024D01*
X34004285Y40225120D01*
X34080476Y40225120D01*
X34156666Y40187024D01*
X34194761Y40148929D01*
X34232857Y40072739D01*
X34232857Y39806072D01*
X33851904Y40529881D02*
X33851904Y41025120D01*
X34156666Y40758453D01*
X34156666Y40872739D01*
X34194761Y40948929D01*
X34232857Y40987024D01*
X34309047Y41025120D01*
X34499523Y41025120D01*
X34575714Y40987024D01*
X34613809Y40948929D01*
X34651904Y40872739D01*
X34651904Y40644167D01*
X34613809Y40567977D01*
X34575714Y40529881D01*
X61830000Y9597024D02*
X61791904Y9520834D01*
X61791904Y9406548D01*
X61830000Y9292262D01*
X61906190Y9216072D01*
X61982380Y9177977D01*
X62134761Y9139881D01*
X62249047Y9139881D01*
X62401428Y9177977D01*
X62477619Y9216072D01*
X62553809Y9292262D01*
X62591904Y9406548D01*
X62591904Y9482739D01*
X62553809Y9597024D01*
X62515714Y9635120D01*
X62249047Y9635120D01*
X62249047Y9482739D01*
X62591904Y9977977D02*
X61791904Y9977977D01*
X62591904Y10435120D01*
X61791904Y10435120D01*
X62591904Y10816072D02*
X61791904Y10816072D01*
X61791904Y11006548D01*
X61830000Y11120834D01*
X61906190Y11197024D01*
X61982380Y11235120D01*
X62134761Y11273215D01*
X62249047Y11273215D01*
X62401428Y11235120D01*
X62477619Y11197024D01*
X62553809Y11120834D01*
X62591904Y11006548D01*
X62591904Y10816072D01*
X32111904Y39006072D02*
X31311904Y39006072D01*
X31311904Y39310834D01*
X31350000Y39387024D01*
X31388095Y39425120D01*
X31464285Y39463215D01*
X31578571Y39463215D01*
X31654761Y39425120D01*
X31692857Y39387024D01*
X31730952Y39310834D01*
X31730952Y39006072D01*
X31692857Y40072739D02*
X31730952Y40187024D01*
X31769047Y40225120D01*
X31845238Y40263215D01*
X31959523Y40263215D01*
X32035714Y40225120D01*
X32073809Y40187024D01*
X32111904Y40110834D01*
X32111904Y39806072D01*
X31311904Y39806072D01*
X31311904Y40072739D01*
X31350000Y40148929D01*
X31388095Y40187024D01*
X31464285Y40225120D01*
X31540476Y40225120D01*
X31616666Y40187024D01*
X31654761Y40148929D01*
X31692857Y40072739D01*
X31692857Y39806072D01*
X31311904Y40987024D02*
X31311904Y40606072D01*
X31692857Y40567977D01*
X31654761Y40606072D01*
X31616666Y40682262D01*
X31616666Y40872739D01*
X31654761Y40948929D01*
X31692857Y40987024D01*
X31769047Y41025120D01*
X31959523Y41025120D01*
X32035714Y40987024D01*
X32073809Y40948929D01*
X32111904Y40872739D01*
X32111904Y40682262D01*
X32073809Y40606072D01*
X32035714Y40567977D01*
X19411904Y9177977D02*
X18611904Y9177977D01*
X18611904Y9482739D01*
X18650000Y9558929D01*
X18688095Y9597024D01*
X18764285Y9635120D01*
X18878571Y9635120D01*
X18954761Y9597024D01*
X18992857Y9558929D01*
X19030952Y9482739D01*
X19030952Y9177977D01*
X19335714Y10435120D02*
X19373809Y10397024D01*
X19411904Y10282739D01*
X19411904Y10206548D01*
X19373809Y10092262D01*
X19297619Y10016072D01*
X19221428Y9977977D01*
X19069047Y9939881D01*
X18954761Y9939881D01*
X18802380Y9977977D01*
X18726190Y10016072D01*
X18650000Y10092262D01*
X18611904Y10206548D01*
X18611904Y10282739D01*
X18650000Y10397024D01*
X18688095Y10435120D01*
X19411904Y11197024D02*
X19411904Y10739881D01*
X19411904Y10968453D02*
X18611904Y10968453D01*
X18726190Y10892262D01*
X18802380Y10816072D01*
X18840476Y10739881D01*
X61830000Y39348929D02*
X61791904Y39272739D01*
X61791904Y39158453D01*
X61830000Y39044167D01*
X61906190Y38967977D01*
X61982380Y38929881D01*
X62134761Y38891786D01*
X62249047Y38891786D01*
X62401428Y38929881D01*
X62477619Y38967977D01*
X62553809Y39044167D01*
X62591904Y39158453D01*
X62591904Y39234643D01*
X62553809Y39348929D01*
X62515714Y39387024D01*
X62249047Y39387024D01*
X62249047Y39234643D01*
X62591904Y39729881D02*
X61791904Y39729881D01*
X62591904Y40187024D01*
X61791904Y40187024D01*
X62591904Y40567977D02*
X61791904Y40567977D01*
X61791904Y40758453D01*
X61830000Y40872739D01*
X61906190Y40948929D01*
X61982380Y40987024D01*
X62134761Y41025120D01*
X62249047Y41025120D01*
X62401428Y40987024D01*
X62477619Y40948929D01*
X62553809Y40872739D01*
X62591904Y40758453D01*
X62591904Y40567977D01*
X27031904Y39006072D02*
X26231904Y39006072D01*
X26231904Y39310834D01*
X26270000Y39387024D01*
X26308095Y39425120D01*
X26384285Y39463215D01*
X26498571Y39463215D01*
X26574761Y39425120D01*
X26612857Y39387024D01*
X26650952Y39310834D01*
X26650952Y39006072D01*
X26612857Y40072739D02*
X26650952Y40187024D01*
X26689047Y40225120D01*
X26765238Y40263215D01*
X26879523Y40263215D01*
X26955714Y40225120D01*
X26993809Y40187024D01*
X27031904Y40110834D01*
X27031904Y39806072D01*
X26231904Y39806072D01*
X26231904Y40072739D01*
X26270000Y40148929D01*
X26308095Y40187024D01*
X26384285Y40225120D01*
X26460476Y40225120D01*
X26536666Y40187024D01*
X26574761Y40148929D01*
X26612857Y40072739D01*
X26612857Y39806072D01*
X27031904Y40644167D02*
X27031904Y40796548D01*
X26993809Y40872739D01*
X26955714Y40910834D01*
X26841428Y40987024D01*
X26689047Y41025120D01*
X26384285Y41025120D01*
X26308095Y40987024D01*
X26270000Y40948929D01*
X26231904Y40872739D01*
X26231904Y40720358D01*
X26270000Y40644167D01*
X26308095Y40606072D01*
X26384285Y40567977D01*
X26574761Y40567977D01*
X26650952Y40606072D01*
X26689047Y40644167D01*
X26727142Y40720358D01*
X26727142Y40872739D01*
X26689047Y40948929D01*
X26650952Y40987024D01*
X26574761Y41025120D01*
X49891904Y38358453D02*
X49091904Y38358453D01*
X49091904Y38663215D01*
X49130000Y38739405D01*
X49168095Y38777500D01*
X49244285Y38815596D01*
X49358571Y38815596D01*
X49434761Y38777500D01*
X49472857Y38739405D01*
X49510952Y38663215D01*
X49510952Y38358453D01*
X49663333Y39120358D02*
X49663333Y39501310D01*
X49891904Y39044167D02*
X49091904Y39310834D01*
X49891904Y39577500D01*
X49891904Y40263215D02*
X49891904Y39806072D01*
X49891904Y40034643D02*
X49091904Y40034643D01*
X49206190Y39958453D01*
X49282380Y39882262D01*
X49320476Y39806072D01*
X49891904Y41025120D02*
X49891904Y40567977D01*
X49891904Y40796548D02*
X49091904Y40796548D01*
X49206190Y40720358D01*
X49282380Y40644167D01*
X49320476Y40567977D01*
X42271904Y144167D02*
X41471904Y144167D01*
X41471904Y448929D01*
X41510000Y525120D01*
X41548095Y563215D01*
X41624285Y601310D01*
X41738571Y601310D01*
X41814761Y563215D01*
X41852857Y525120D01*
X41890952Y448929D01*
X41890952Y144167D01*
X41852857Y1210834D02*
X41890952Y1325120D01*
X41929047Y1363215D01*
X42005238Y1401310D01*
X42119523Y1401310D01*
X42195714Y1363215D01*
X42233809Y1325120D01*
X42271904Y1248929D01*
X42271904Y944167D01*
X41471904Y944167D01*
X41471904Y1210834D01*
X41510000Y1287024D01*
X41548095Y1325120D01*
X41624285Y1363215D01*
X41700476Y1363215D01*
X41776666Y1325120D01*
X41814761Y1287024D01*
X41852857Y1210834D01*
X41852857Y944167D01*
X42271904Y2163215D02*
X42271904Y1706072D01*
X42271904Y1934643D02*
X41471904Y1934643D01*
X41586190Y1858453D01*
X41662380Y1782262D01*
X41700476Y1706072D01*
X41471904Y2658453D02*
X41471904Y2734643D01*
X41510000Y2810834D01*
X41548095Y2848929D01*
X41624285Y2887024D01*
X41776666Y2925120D01*
X41967142Y2925120D01*
X42119523Y2887024D01*
X42195714Y2848929D01*
X42233809Y2810834D01*
X42271904Y2734643D01*
X42271904Y2658453D01*
X42233809Y2582262D01*
X42195714Y2544167D01*
X42119523Y2506072D01*
X41967142Y2467977D01*
X41776666Y2467977D01*
X41624285Y2506072D01*
X41548095Y2544167D01*
X41510000Y2582262D01*
X41471904Y2658453D01*
X19411904Y906072D02*
X18611904Y906072D01*
X18611904Y1210834D01*
X18650000Y1287024D01*
X18688095Y1325120D01*
X18764285Y1363215D01*
X18878571Y1363215D01*
X18954761Y1325120D01*
X18992857Y1287024D01*
X19030952Y1210834D01*
X19030952Y906072D01*
X19335714Y2163215D02*
X19373809Y2125120D01*
X19411904Y2010834D01*
X19411904Y1934643D01*
X19373809Y1820358D01*
X19297619Y1744167D01*
X19221428Y1706072D01*
X19069047Y1667977D01*
X18954761Y1667977D01*
X18802380Y1706072D01*
X18726190Y1744167D01*
X18650000Y1820358D01*
X18611904Y1934643D01*
X18611904Y2010834D01*
X18650000Y2125120D01*
X18688095Y2163215D01*
X18611904Y2658453D02*
X18611904Y2734643D01*
X18650000Y2810834D01*
X18688095Y2848929D01*
X18764285Y2887024D01*
X18916666Y2925120D01*
X19107142Y2925120D01*
X19259523Y2887024D01*
X19335714Y2848929D01*
X19373809Y2810834D01*
X19411904Y2734643D01*
X19411904Y2658453D01*
X19373809Y2582262D01*
X19335714Y2544167D01*
X19259523Y2506072D01*
X19107142Y2467977D01*
X18916666Y2467977D01*
X18764285Y2506072D01*
X18688095Y2544167D01*
X18650000Y2582262D01*
X18611904Y2658453D01*
X21951904Y38244167D02*
X21151904Y38244167D01*
X21151904Y38548929D01*
X21190000Y38625120D01*
X21228095Y38663215D01*
X21304285Y38701310D01*
X21418571Y38701310D01*
X21494761Y38663215D01*
X21532857Y38625120D01*
X21570952Y38548929D01*
X21570952Y38244167D01*
X21875714Y39501310D02*
X21913809Y39463215D01*
X21951904Y39348929D01*
X21951904Y39272739D01*
X21913809Y39158453D01*
X21837619Y39082262D01*
X21761428Y39044167D01*
X21609047Y39006072D01*
X21494761Y39006072D01*
X21342380Y39044167D01*
X21266190Y39082262D01*
X21190000Y39158453D01*
X21151904Y39272739D01*
X21151904Y39348929D01*
X21190000Y39463215D01*
X21228095Y39501310D01*
X21951904Y40263215D02*
X21951904Y39806072D01*
X21951904Y40034643D02*
X21151904Y40034643D01*
X21266190Y39958453D01*
X21342380Y39882262D01*
X21380476Y39806072D01*
X21151904Y40529881D02*
X21151904Y41025120D01*
X21456666Y40758453D01*
X21456666Y40872739D01*
X21494761Y40948929D01*
X21532857Y40987024D01*
X21609047Y41025120D01*
X21799523Y41025120D01*
X21875714Y40987024D01*
X21913809Y40948929D01*
X21951904Y40872739D01*
X21951904Y40644167D01*
X21913809Y40567977D01*
X21875714Y40529881D01*
X59251904Y601310D02*
X59251904Y1096548D01*
X59556666Y829881D01*
X59556666Y944167D01*
X59594761Y1020358D01*
X59632857Y1058453D01*
X59709047Y1096548D01*
X59899523Y1096548D01*
X59975714Y1058453D01*
X60013809Y1020358D01*
X60051904Y944167D01*
X60051904Y715596D01*
X60013809Y639405D01*
X59975714Y601310D01*
X59975714Y1439405D02*
X60013809Y1477500D01*
X60051904Y1439405D01*
X60013809Y1401310D01*
X59975714Y1439405D01*
X60051904Y1439405D01*
X59251904Y1744167D02*
X59251904Y2239405D01*
X59556666Y1972739D01*
X59556666Y2087024D01*
X59594761Y2163215D01*
X59632857Y2201310D01*
X59709047Y2239405D01*
X59899523Y2239405D01*
X59975714Y2201310D01*
X60013809Y2163215D01*
X60051904Y2087024D01*
X60051904Y1858453D01*
X60013809Y1782262D01*
X59975714Y1744167D01*
X59251904Y2467977D02*
X60051904Y2734643D01*
X59251904Y3001310D01*
X56711904Y39006072D02*
X57359523Y39006072D01*
X57435714Y39044167D01*
X57473809Y39082262D01*
X57511904Y39158453D01*
X57511904Y39310834D01*
X57473809Y39387024D01*
X57435714Y39425120D01*
X57359523Y39463215D01*
X56711904Y39463215D01*
X57511904Y40263215D02*
X57511904Y39806072D01*
X57511904Y40034643D02*
X56711904Y40034643D01*
X56826190Y39958453D01*
X56902380Y39882262D01*
X56940476Y39806072D01*
X56711904Y40948929D02*
X56711904Y40796548D01*
X56750000Y40720358D01*
X56788095Y40682262D01*
X56902380Y40606072D01*
X57054761Y40567977D01*
X57359523Y40567977D01*
X57435714Y40606072D01*
X57473809Y40644167D01*
X57511904Y40720358D01*
X57511904Y40872739D01*
X57473809Y40948929D01*
X57435714Y40987024D01*
X57359523Y41025120D01*
X57169047Y41025120D01*
X57092857Y40987024D01*
X57054761Y40948929D01*
X57016666Y40872739D01*
X57016666Y40720358D01*
X57054761Y40644167D01*
X57092857Y40606072D01*
X57169047Y40567977D01*
X52431904Y39120358D02*
X51631904Y39120358D01*
X51631904Y39425120D01*
X51670000Y39501310D01*
X51708095Y39539405D01*
X51784285Y39577500D01*
X51898571Y39577500D01*
X51974761Y39539405D01*
X52012857Y39501310D01*
X52050952Y39425120D01*
X52050952Y39120358D01*
X52203333Y39882262D02*
X52203333Y40263215D01*
X52431904Y39806072D02*
X51631904Y40072739D01*
X52431904Y40339405D01*
X52431904Y40644167D02*
X52431904Y40796548D01*
X52393809Y40872739D01*
X52355714Y40910834D01*
X52241428Y40987024D01*
X52089047Y41025120D01*
X51784285Y41025120D01*
X51708095Y40987024D01*
X51670000Y40948929D01*
X51631904Y40872739D01*
X51631904Y40720358D01*
X51670000Y40644167D01*
X51708095Y40606072D01*
X51784285Y40567977D01*
X51974761Y40567977D01*
X52050952Y40606072D01*
X52089047Y40644167D01*
X52127142Y40720358D01*
X52127142Y40872739D01*
X52089047Y40948929D01*
X52050952Y40987024D01*
X51974761Y41025120D01*
X54171904Y1667977D02*
X54819523Y1667977D01*
X54895714Y1706072D01*
X54933809Y1744167D01*
X54971904Y1820358D01*
X54971904Y1972739D01*
X54933809Y2048929D01*
X54895714Y2087024D01*
X54819523Y2125120D01*
X54171904Y2125120D01*
X54971904Y2925120D02*
X54971904Y2467977D01*
X54971904Y2696548D02*
X54171904Y2696548D01*
X54286190Y2620358D01*
X54362380Y2544167D01*
X54400476Y2467977D01*
X13531904Y47836786D02*
X13531904Y48332024D01*
X13836666Y48065358D01*
X13836666Y48179643D01*
X13874761Y48255834D01*
X13912857Y48293929D01*
X13989047Y48332024D01*
X14179523Y48332024D01*
X14255714Y48293929D01*
X14293809Y48255834D01*
X14331904Y48179643D01*
X14331904Y47951072D01*
X14293809Y47874881D01*
X14255714Y47836786D01*
X14255714Y48674881D02*
X14293809Y48712977D01*
X14331904Y48674881D01*
X14293809Y48636786D01*
X14255714Y48674881D01*
X14331904Y48674881D01*
X13531904Y48979643D02*
X13531904Y49474881D01*
X13836666Y49208215D01*
X13836666Y49322500D01*
X13874761Y49398691D01*
X13912857Y49436786D01*
X13989047Y49474881D01*
X14179523Y49474881D01*
X14255714Y49436786D01*
X14293809Y49398691D01*
X14331904Y49322500D01*
X14331904Y49093929D01*
X14293809Y49017739D01*
X14255714Y48979643D01*
X13531904Y49703453D02*
X14331904Y49970120D01*
X13531904Y50236786D01*
X49891904Y906072D02*
X49091904Y906072D01*
X49091904Y1210834D01*
X49130000Y1287024D01*
X49168095Y1325120D01*
X49244285Y1363215D01*
X49358571Y1363215D01*
X49434761Y1325120D01*
X49472857Y1287024D01*
X49510952Y1210834D01*
X49510952Y906072D01*
X49815714Y2163215D02*
X49853809Y2125120D01*
X49891904Y2010834D01*
X49891904Y1934643D01*
X49853809Y1820358D01*
X49777619Y1744167D01*
X49701428Y1706072D01*
X49549047Y1667977D01*
X49434761Y1667977D01*
X49282380Y1706072D01*
X49206190Y1744167D01*
X49130000Y1820358D01*
X49091904Y1934643D01*
X49091904Y2010834D01*
X49130000Y2125120D01*
X49168095Y2163215D01*
X49091904Y2848929D02*
X49091904Y2696548D01*
X49130000Y2620358D01*
X49168095Y2582262D01*
X49282380Y2506072D01*
X49434761Y2467977D01*
X49739523Y2467977D01*
X49815714Y2506072D01*
X49853809Y2544167D01*
X49891904Y2620358D01*
X49891904Y2772739D01*
X49853809Y2848929D01*
X49815714Y2887024D01*
X49739523Y2925120D01*
X49549047Y2925120D01*
X49472857Y2887024D01*
X49434761Y2848929D01*
X49396666Y2772739D01*
X49396666Y2620358D01*
X49434761Y2544167D01*
X49472857Y2506072D01*
X49549047Y2467977D01*
X41471904Y47912977D02*
X42119523Y47912977D01*
X42195714Y47951072D01*
X42233809Y47989167D01*
X42271904Y48065358D01*
X42271904Y48217739D01*
X42233809Y48293929D01*
X42195714Y48332024D01*
X42119523Y48370120D01*
X41471904Y48370120D01*
X42271904Y49170120D02*
X42271904Y48712977D01*
X42271904Y48941548D02*
X41471904Y48941548D01*
X41586190Y48865358D01*
X41662380Y48789167D01*
X41700476Y48712977D01*
X42271904Y49932024D02*
X42271904Y49474881D01*
X42271904Y49703453D02*
X41471904Y49703453D01*
X41586190Y49627262D01*
X41662380Y49551072D01*
X41700476Y49474881D01*
X42271904Y9177977D02*
X41471904Y9177977D01*
X41471904Y9482739D01*
X41510000Y9558929D01*
X41548095Y9597024D01*
X41624285Y9635120D01*
X41738571Y9635120D01*
X41814761Y9597024D01*
X41852857Y9558929D01*
X41890952Y9482739D01*
X41890952Y9177977D01*
X41852857Y10244643D02*
X41890952Y10358929D01*
X41929047Y10397024D01*
X42005238Y10435120D01*
X42119523Y10435120D01*
X42195714Y10397024D01*
X42233809Y10358929D01*
X42271904Y10282739D01*
X42271904Y9977977D01*
X41471904Y9977977D01*
X41471904Y10244643D01*
X41510000Y10320834D01*
X41548095Y10358929D01*
X41624285Y10397024D01*
X41700476Y10397024D01*
X41776666Y10358929D01*
X41814761Y10320834D01*
X41852857Y10244643D01*
X41852857Y9977977D01*
X42271904Y11197024D02*
X42271904Y10739881D01*
X42271904Y10968453D02*
X41471904Y10968453D01*
X41586190Y10892262D01*
X41662380Y10816072D01*
X41700476Y10739881D01*
X42271904Y11958929D02*
X42271904Y11501786D01*
X42271904Y11730358D02*
X41471904Y11730358D01*
X41586190Y11654167D01*
X41662380Y11577977D01*
X41700476Y11501786D01*
X59290000Y9597024D02*
X59251904Y9520834D01*
X59251904Y9406548D01*
X59290000Y9292262D01*
X59366190Y9216072D01*
X59442380Y9177977D01*
X59594761Y9139881D01*
X59709047Y9139881D01*
X59861428Y9177977D01*
X59937619Y9216072D01*
X60013809Y9292262D01*
X60051904Y9406548D01*
X60051904Y9482739D01*
X60013809Y9597024D01*
X59975714Y9635120D01*
X59709047Y9635120D01*
X59709047Y9482739D01*
X60051904Y9977977D02*
X59251904Y9977977D01*
X60051904Y10435120D01*
X59251904Y10435120D01*
X60051904Y10816072D02*
X59251904Y10816072D01*
X59251904Y11006548D01*
X59290000Y11120834D01*
X59366190Y11197024D01*
X59442380Y11235120D01*
X59594761Y11273215D01*
X59709047Y11273215D01*
X59861428Y11235120D01*
X59937619Y11197024D01*
X60013809Y11120834D01*
X60051904Y11006548D01*
X60051904Y10816072D01*
X59251904Y47836786D02*
X59251904Y48332024D01*
X59556666Y48065358D01*
X59556666Y48179643D01*
X59594761Y48255834D01*
X59632857Y48293929D01*
X59709047Y48332024D01*
X59899523Y48332024D01*
X59975714Y48293929D01*
X60013809Y48255834D01*
X60051904Y48179643D01*
X60051904Y47951072D01*
X60013809Y47874881D01*
X59975714Y47836786D01*
X59975714Y48674881D02*
X60013809Y48712977D01*
X60051904Y48674881D01*
X60013809Y48636786D01*
X59975714Y48674881D01*
X60051904Y48674881D01*
X59251904Y48979643D02*
X59251904Y49474881D01*
X59556666Y49208215D01*
X59556666Y49322500D01*
X59594761Y49398691D01*
X59632857Y49436786D01*
X59709047Y49474881D01*
X59899523Y49474881D01*
X59975714Y49436786D01*
X60013809Y49398691D01*
X60051904Y49322500D01*
X60051904Y49093929D01*
X60013809Y49017739D01*
X59975714Y48979643D01*
X59251904Y49703453D02*
X60051904Y49970120D01*
X59251904Y50236786D01*
X18611904Y47912977D02*
X19259523Y47912977D01*
X19335714Y47951072D01*
X19373809Y47989167D01*
X19411904Y48065358D01*
X19411904Y48217739D01*
X19373809Y48293929D01*
X19335714Y48332024D01*
X19259523Y48370120D01*
X18611904Y48370120D01*
X18611904Y48674881D02*
X18611904Y49208215D01*
X19411904Y48865358D01*
X54171904Y39006072D02*
X54819523Y39006072D01*
X54895714Y39044167D01*
X54933809Y39082262D01*
X54971904Y39158453D01*
X54971904Y39310834D01*
X54933809Y39387024D01*
X54895714Y39425120D01*
X54819523Y39463215D01*
X54171904Y39463215D01*
X54971904Y40263215D02*
X54971904Y39806072D01*
X54971904Y40034643D02*
X54171904Y40034643D01*
X54286190Y39958453D01*
X54362380Y39882262D01*
X54400476Y39806072D01*
X54438571Y40948929D02*
X54971904Y40948929D01*
X54133809Y40758453D02*
X54705238Y40567977D01*
X54705238Y41063215D01*
X32111904Y47912977D02*
X31311904Y47912977D01*
X31311904Y48217739D01*
X31350000Y48293929D01*
X31388095Y48332024D01*
X31464285Y48370120D01*
X31578571Y48370120D01*
X31654761Y48332024D01*
X31692857Y48293929D01*
X31730952Y48217739D01*
X31730952Y47912977D01*
X31692857Y48979643D02*
X31730952Y49093929D01*
X31769047Y49132024D01*
X31845238Y49170120D01*
X31959523Y49170120D01*
X32035714Y49132024D01*
X32073809Y49093929D01*
X32111904Y49017739D01*
X32111904Y48712977D01*
X31311904Y48712977D01*
X31311904Y48979643D01*
X31350000Y49055834D01*
X31388095Y49093929D01*
X31464285Y49132024D01*
X31540476Y49132024D01*
X31616666Y49093929D01*
X31654761Y49055834D01*
X31692857Y48979643D01*
X31692857Y48712977D01*
X31578571Y49855834D02*
X32111904Y49855834D01*
X31273809Y49665358D02*
X31845238Y49474881D01*
X31845238Y49970120D01*
X29571904Y47912977D02*
X28771904Y47912977D01*
X28771904Y48217739D01*
X28810000Y48293929D01*
X28848095Y48332024D01*
X28924285Y48370120D01*
X29038571Y48370120D01*
X29114761Y48332024D01*
X29152857Y48293929D01*
X29190952Y48217739D01*
X29190952Y47912977D01*
X29152857Y48979643D02*
X29190952Y49093929D01*
X29229047Y49132024D01*
X29305238Y49170120D01*
X29419523Y49170120D01*
X29495714Y49132024D01*
X29533809Y49093929D01*
X29571904Y49017739D01*
X29571904Y48712977D01*
X28771904Y48712977D01*
X28771904Y48979643D01*
X28810000Y49055834D01*
X28848095Y49093929D01*
X28924285Y49132024D01*
X29000476Y49132024D01*
X29076666Y49093929D01*
X29114761Y49055834D01*
X29152857Y48979643D01*
X29152857Y48712977D01*
X28771904Y49855834D02*
X28771904Y49703453D01*
X28810000Y49627262D01*
X28848095Y49589167D01*
X28962380Y49512977D01*
X29114761Y49474881D01*
X29419523Y49474881D01*
X29495714Y49512977D01*
X29533809Y49551072D01*
X29571904Y49627262D01*
X29571904Y49779643D01*
X29533809Y49855834D01*
X29495714Y49893929D01*
X29419523Y49932024D01*
X29229047Y49932024D01*
X29152857Y49893929D01*
X29114761Y49855834D01*
X29076666Y49779643D01*
X29076666Y49627262D01*
X29114761Y49551072D01*
X29152857Y49512977D01*
X29229047Y49474881D01*
X61791904Y2201310D02*
X61791904Y1820358D01*
X62172857Y1782262D01*
X62134761Y1820358D01*
X62096666Y1896548D01*
X62096666Y2087024D01*
X62134761Y2163215D01*
X62172857Y2201310D01*
X62249047Y2239405D01*
X62439523Y2239405D01*
X62515714Y2201310D01*
X62553809Y2163215D01*
X62591904Y2087024D01*
X62591904Y1896548D01*
X62553809Y1820358D01*
X62515714Y1782262D01*
X61791904Y2467977D02*
X62591904Y2734643D01*
X61791904Y3001310D01*
X52431904Y47912977D02*
X51631904Y47912977D01*
X51631904Y48217739D01*
X51670000Y48293929D01*
X51708095Y48332024D01*
X51784285Y48370120D01*
X51898571Y48370120D01*
X51974761Y48332024D01*
X52012857Y48293929D01*
X52050952Y48217739D01*
X52050952Y47912977D01*
X52203333Y48674881D02*
X52203333Y49055834D01*
X52431904Y48598691D02*
X51631904Y48865358D01*
X52431904Y49132024D01*
X51974761Y49512977D02*
X51936666Y49436786D01*
X51898571Y49398691D01*
X51822380Y49360596D01*
X51784285Y49360596D01*
X51708095Y49398691D01*
X51670000Y49436786D01*
X51631904Y49512977D01*
X51631904Y49665358D01*
X51670000Y49741548D01*
X51708095Y49779643D01*
X51784285Y49817739D01*
X51822380Y49817739D01*
X51898571Y49779643D01*
X51936666Y49741548D01*
X51974761Y49665358D01*
X51974761Y49512977D01*
X52012857Y49436786D01*
X52050952Y49398691D01*
X52127142Y49360596D01*
X52279523Y49360596D01*
X52355714Y49398691D01*
X52393809Y49436786D01*
X52431904Y49512977D01*
X52431904Y49665358D01*
X52393809Y49741548D01*
X52355714Y49779643D01*
X52279523Y49817739D01*
X52127142Y49817739D01*
X52050952Y49779643D01*
X52012857Y49741548D01*
X51974761Y49665358D01*
X34651904Y906072D02*
X33851904Y906072D01*
X33851904Y1210834D01*
X33890000Y1287024D01*
X33928095Y1325120D01*
X34004285Y1363215D01*
X34118571Y1363215D01*
X34194761Y1325120D01*
X34232857Y1287024D01*
X34270952Y1210834D01*
X34270952Y906072D01*
X34575714Y2163215D02*
X34613809Y2125120D01*
X34651904Y2010834D01*
X34651904Y1934643D01*
X34613809Y1820358D01*
X34537619Y1744167D01*
X34461428Y1706072D01*
X34309047Y1667977D01*
X34194761Y1667977D01*
X34042380Y1706072D01*
X33966190Y1744167D01*
X33890000Y1820358D01*
X33851904Y1934643D01*
X33851904Y2010834D01*
X33890000Y2125120D01*
X33928095Y2163215D01*
X34118571Y2848929D02*
X34651904Y2848929D01*
X33813809Y2658453D02*
X34385238Y2467977D01*
X34385238Y2963215D01*
X27031904Y47912977D02*
X26231904Y47912977D01*
X26231904Y48217739D01*
X26270000Y48293929D01*
X26308095Y48332024D01*
X26384285Y48370120D01*
X26498571Y48370120D01*
X26574761Y48332024D01*
X26612857Y48293929D01*
X26650952Y48217739D01*
X26650952Y47912977D01*
X26612857Y48979643D02*
X26650952Y49093929D01*
X26689047Y49132024D01*
X26765238Y49170120D01*
X26879523Y49170120D01*
X26955714Y49132024D01*
X26993809Y49093929D01*
X27031904Y49017739D01*
X27031904Y48712977D01*
X26231904Y48712977D01*
X26231904Y48979643D01*
X26270000Y49055834D01*
X26308095Y49093929D01*
X26384285Y49132024D01*
X26460476Y49132024D01*
X26536666Y49093929D01*
X26574761Y49055834D01*
X26612857Y48979643D01*
X26612857Y48712977D01*
X26574761Y49627262D02*
X26536666Y49551072D01*
X26498571Y49512977D01*
X26422380Y49474881D01*
X26384285Y49474881D01*
X26308095Y49512977D01*
X26270000Y49551072D01*
X26231904Y49627262D01*
X26231904Y49779643D01*
X26270000Y49855834D01*
X26308095Y49893929D01*
X26384285Y49932024D01*
X26422380Y49932024D01*
X26498571Y49893929D01*
X26536666Y49855834D01*
X26574761Y49779643D01*
X26574761Y49627262D01*
X26612857Y49551072D01*
X26650952Y49512977D01*
X26727142Y49474881D01*
X26879523Y49474881D01*
X26955714Y49512977D01*
X26993809Y49551072D01*
X27031904Y49627262D01*
X27031904Y49779643D01*
X26993809Y49855834D01*
X26955714Y49893929D01*
X26879523Y49932024D01*
X26727142Y49932024D01*
X26650952Y49893929D01*
X26612857Y49855834D01*
X26574761Y49779643D01*
X49891904Y47912977D02*
X49091904Y47912977D01*
X49091904Y48217739D01*
X49130000Y48293929D01*
X49168095Y48332024D01*
X49244285Y48370120D01*
X49358571Y48370120D01*
X49434761Y48332024D01*
X49472857Y48293929D01*
X49510952Y48217739D01*
X49510952Y47912977D01*
X49663333Y48674881D02*
X49663333Y49055834D01*
X49891904Y48598691D02*
X49091904Y48865358D01*
X49891904Y49132024D01*
X49891904Y49817739D02*
X49891904Y49360596D01*
X49891904Y49589167D02*
X49091904Y49589167D01*
X49206190Y49512977D01*
X49282380Y49436786D01*
X49320476Y49360596D01*
X49091904Y50312977D02*
X49091904Y50389167D01*
X49130000Y50465358D01*
X49168095Y50503453D01*
X49244285Y50541548D01*
X49396666Y50579643D01*
X49587142Y50579643D01*
X49739523Y50541548D01*
X49815714Y50503453D01*
X49853809Y50465358D01*
X49891904Y50389167D01*
X49891904Y50312977D01*
X49853809Y50236786D01*
X49815714Y50198691D01*
X49739523Y50160596D01*
X49587142Y50122500D01*
X49396666Y50122500D01*
X49244285Y50160596D01*
X49168095Y50198691D01*
X49130000Y50236786D01*
X49091904Y50312977D01*
X52431904Y906072D02*
X51631904Y906072D01*
X51631904Y1210834D01*
X51670000Y1287024D01*
X51708095Y1325120D01*
X51784285Y1363215D01*
X51898571Y1363215D01*
X51974761Y1325120D01*
X52012857Y1287024D01*
X52050952Y1210834D01*
X52050952Y906072D01*
X52355714Y2163215D02*
X52393809Y2125120D01*
X52431904Y2010834D01*
X52431904Y1934643D01*
X52393809Y1820358D01*
X52317619Y1744167D01*
X52241428Y1706072D01*
X52089047Y1667977D01*
X51974761Y1667977D01*
X51822380Y1706072D01*
X51746190Y1744167D01*
X51670000Y1820358D01*
X51631904Y1934643D01*
X51631904Y2010834D01*
X51670000Y2125120D01*
X51708095Y2163215D01*
X51974761Y2620358D02*
X51936666Y2544167D01*
X51898571Y2506072D01*
X51822380Y2467977D01*
X51784285Y2467977D01*
X51708095Y2506072D01*
X51670000Y2544167D01*
X51631904Y2620358D01*
X51631904Y2772739D01*
X51670000Y2848929D01*
X51708095Y2887024D01*
X51784285Y2925120D01*
X51822380Y2925120D01*
X51898571Y2887024D01*
X51936666Y2848929D01*
X51974761Y2772739D01*
X51974761Y2620358D01*
X52012857Y2544167D01*
X52050952Y2506072D01*
X52127142Y2467977D01*
X52279523Y2467977D01*
X52355714Y2506072D01*
X52393809Y2544167D01*
X52431904Y2620358D01*
X52431904Y2772739D01*
X52393809Y2848929D01*
X52355714Y2887024D01*
X52279523Y2925120D01*
X52127142Y2925120D01*
X52050952Y2887024D01*
X52012857Y2848929D01*
X51974761Y2772739D01*
X16871904Y9177977D02*
X16071904Y9177977D01*
X16871904Y9635120D01*
X16071904Y9635120D01*
X16871904Y10473215D02*
X16490952Y10206548D01*
X16871904Y10016072D02*
X16071904Y10016072D01*
X16071904Y10320834D01*
X16110000Y10397024D01*
X16148095Y10435120D01*
X16224285Y10473215D01*
X16338571Y10473215D01*
X16414761Y10435120D01*
X16452857Y10397024D01*
X16490952Y10320834D01*
X16490952Y10016072D01*
X16833809Y10777977D02*
X16871904Y10892262D01*
X16871904Y11082739D01*
X16833809Y11158929D01*
X16795714Y11197024D01*
X16719523Y11235120D01*
X16643333Y11235120D01*
X16567142Y11197024D01*
X16529047Y11158929D01*
X16490952Y11082739D01*
X16452857Y10930358D01*
X16414761Y10854167D01*
X16376666Y10816072D01*
X16300476Y10777977D01*
X16224285Y10777977D01*
X16148095Y10816072D01*
X16110000Y10854167D01*
X16071904Y10930358D01*
X16071904Y11120834D01*
X16110000Y11235120D01*
X16071904Y11463691D02*
X16071904Y11920834D01*
X16871904Y11692262D02*
X16071904Y11692262D01*
X21951904Y47912977D02*
X21151904Y47912977D01*
X21151904Y48217739D01*
X21190000Y48293929D01*
X21228095Y48332024D01*
X21304285Y48370120D01*
X21418571Y48370120D01*
X21494761Y48332024D01*
X21532857Y48293929D01*
X21570952Y48217739D01*
X21570952Y47912977D01*
X21875714Y49170120D02*
X21913809Y49132024D01*
X21951904Y49017739D01*
X21951904Y48941548D01*
X21913809Y48827262D01*
X21837619Y48751072D01*
X21761428Y48712977D01*
X21609047Y48674881D01*
X21494761Y48674881D01*
X21342380Y48712977D01*
X21266190Y48751072D01*
X21190000Y48827262D01*
X21151904Y48941548D01*
X21151904Y49017739D01*
X21190000Y49132024D01*
X21228095Y49170120D01*
X21951904Y49932024D02*
X21951904Y49474881D01*
X21951904Y49703453D02*
X21151904Y49703453D01*
X21266190Y49627262D01*
X21342380Y49551072D01*
X21380476Y49474881D01*
X21418571Y50617739D02*
X21951904Y50617739D01*
X21113809Y50427262D02*
X21685238Y50236786D01*
X21685238Y50732024D01*
X44811904Y9177977D02*
X44011904Y9177977D01*
X44011904Y9482739D01*
X44050000Y9558929D01*
X44088095Y9597024D01*
X44164285Y9635120D01*
X44278571Y9635120D01*
X44354761Y9597024D01*
X44392857Y9558929D01*
X44430952Y9482739D01*
X44430952Y9177977D01*
X44392857Y10244643D02*
X44430952Y10358929D01*
X44469047Y10397024D01*
X44545238Y10435120D01*
X44659523Y10435120D01*
X44735714Y10397024D01*
X44773809Y10358929D01*
X44811904Y10282739D01*
X44811904Y9977977D01*
X44011904Y9977977D01*
X44011904Y10244643D01*
X44050000Y10320834D01*
X44088095Y10358929D01*
X44164285Y10397024D01*
X44240476Y10397024D01*
X44316666Y10358929D01*
X44354761Y10320834D01*
X44392857Y10244643D01*
X44392857Y9977977D01*
X44811904Y11197024D02*
X44811904Y10739881D01*
X44811904Y10968453D02*
X44011904Y10968453D01*
X44126190Y10892262D01*
X44202380Y10816072D01*
X44240476Y10739881D01*
X44011904Y11463691D02*
X44011904Y11958929D01*
X44316666Y11692262D01*
X44316666Y11806548D01*
X44354761Y11882739D01*
X44392857Y11920834D01*
X44469047Y11958929D01*
X44659523Y11958929D01*
X44735714Y11920834D01*
X44773809Y11882739D01*
X44811904Y11806548D01*
X44811904Y11577977D01*
X44773809Y11501786D01*
X44735714Y11463691D01*
X47351904Y47912977D02*
X46551904Y47912977D01*
X46551904Y48217739D01*
X46590000Y48293929D01*
X46628095Y48332024D01*
X46704285Y48370120D01*
X46818571Y48370120D01*
X46894761Y48332024D01*
X46932857Y48293929D01*
X46970952Y48217739D01*
X46970952Y47912977D01*
X47123333Y48674881D02*
X47123333Y49055834D01*
X47351904Y48598691D02*
X46551904Y48865358D01*
X47351904Y49132024D01*
X47351904Y49817739D02*
X47351904Y49360596D01*
X47351904Y49589167D02*
X46551904Y49589167D01*
X46666190Y49512977D01*
X46742380Y49436786D01*
X46780476Y49360596D01*
X46628095Y50122500D02*
X46590000Y50160596D01*
X46551904Y50236786D01*
X46551904Y50427262D01*
X46590000Y50503453D01*
X46628095Y50541548D01*
X46704285Y50579643D01*
X46780476Y50579643D01*
X46894761Y50541548D01*
X47351904Y50084405D01*
X47351904Y50579643D01*
%TO.C,C2*%
X55602142Y16782024D02*
X55649761Y16734405D01*
X55697380Y16591548D01*
X55697380Y16496310D01*
X55649761Y16353453D01*
X55554523Y16258215D01*
X55459285Y16210596D01*
X55268809Y16162977D01*
X55125952Y16162977D01*
X54935476Y16210596D01*
X54840238Y16258215D01*
X54745000Y16353453D01*
X54697380Y16496310D01*
X54697380Y16591548D01*
X54745000Y16734405D01*
X54792619Y16782024D01*
X54792619Y17162977D02*
X54745000Y17210596D01*
X54697380Y17305834D01*
X54697380Y17543929D01*
X54745000Y17639167D01*
X54792619Y17686786D01*
X54887857Y17734405D01*
X54983095Y17734405D01*
X55125952Y17686786D01*
X55697380Y17115358D01*
X55697380Y17734405D01*
%TO.C,C6*%
X57507142Y16782024D02*
X57554761Y16734405D01*
X57602380Y16591548D01*
X57602380Y16496310D01*
X57554761Y16353453D01*
X57459523Y16258215D01*
X57364285Y16210596D01*
X57173809Y16162977D01*
X57030952Y16162977D01*
X56840476Y16210596D01*
X56745238Y16258215D01*
X56650000Y16353453D01*
X56602380Y16496310D01*
X56602380Y16591548D01*
X56650000Y16734405D01*
X56697619Y16782024D01*
X56602380Y17639167D02*
X56602380Y17448691D01*
X56650000Y17353453D01*
X56697619Y17305834D01*
X56840476Y17210596D01*
X57030952Y17162977D01*
X57411904Y17162977D01*
X57507142Y17210596D01*
X57554761Y17258215D01*
X57602380Y17353453D01*
X57602380Y17543929D01*
X57554761Y17639167D01*
X57507142Y17686786D01*
X57411904Y17734405D01*
X57173809Y17734405D01*
X57078571Y17686786D01*
X57030952Y17639167D01*
X56983333Y17543929D01*
X56983333Y17353453D01*
X57030952Y17258215D01*
X57078571Y17210596D01*
X57173809Y17162977D01*
%TO.C,D3*%
X531904Y35107620D02*
X531904Y36107620D01*
X770000Y36107620D01*
X912857Y36060000D01*
X1008095Y35964762D01*
X1055714Y35869524D01*
X1103333Y35679048D01*
X1103333Y35536191D01*
X1055714Y35345715D01*
X1008095Y35250477D01*
X912857Y35155239D01*
X770000Y35107620D01*
X531904Y35107620D01*
X1436666Y36107620D02*
X2055714Y36107620D01*
X1722380Y35726667D01*
X1865238Y35726667D01*
X1960476Y35679048D01*
X2008095Y35631429D01*
X2055714Y35536191D01*
X2055714Y35298096D01*
X2008095Y35202858D01*
X1960476Y35155239D01*
X1865238Y35107620D01*
X1579523Y35107620D01*
X1484285Y35155239D01*
X1436666Y35202858D01*
%TO.C,Q1*%
X68484761Y36877381D02*
X68389523Y36925000D01*
X68294285Y37020239D01*
X68151428Y37163096D01*
X68056190Y37210715D01*
X67960952Y37210715D01*
X68008571Y36972620D02*
X67913333Y37020239D01*
X67818095Y37115477D01*
X67770476Y37305953D01*
X67770476Y37639286D01*
X67818095Y37829762D01*
X67913333Y37925000D01*
X68008571Y37972620D01*
X68199047Y37972620D01*
X68294285Y37925000D01*
X68389523Y37829762D01*
X68437142Y37639286D01*
X68437142Y37305953D01*
X68389523Y37115477D01*
X68294285Y37020239D01*
X68199047Y36972620D01*
X68008571Y36972620D01*
X69389523Y36972620D02*
X68818095Y36972620D01*
X69103809Y36972620D02*
X69103809Y37972620D01*
X69008571Y37829762D01*
X68913333Y37734524D01*
X68818095Y37686905D01*
%TO.C,R16*%
X51252380Y14597143D02*
X50776190Y14263810D01*
X51252380Y14025715D02*
X50252380Y14025715D01*
X50252380Y14406667D01*
X50300000Y14501905D01*
X50347619Y14549524D01*
X50442857Y14597143D01*
X50585714Y14597143D01*
X50680952Y14549524D01*
X50728571Y14501905D01*
X50776190Y14406667D01*
X50776190Y14025715D01*
X51252380Y15549524D02*
X51252380Y14978096D01*
X51252380Y15263810D02*
X50252380Y15263810D01*
X50395238Y15168572D01*
X50490476Y15073334D01*
X50538095Y14978096D01*
X50252380Y16406667D02*
X50252380Y16216191D01*
X50300000Y16120953D01*
X50347619Y16073334D01*
X50490476Y15978096D01*
X50680952Y15930477D01*
X51061904Y15930477D01*
X51157142Y15978096D01*
X51204761Y16025715D01*
X51252380Y16120953D01*
X51252380Y16311429D01*
X51204761Y16406667D01*
X51157142Y16454286D01*
X51061904Y16501905D01*
X50823809Y16501905D01*
X50728571Y16454286D01*
X50680952Y16406667D01*
X50633333Y16311429D01*
X50633333Y16120953D01*
X50680952Y16025715D01*
X50728571Y15978096D01*
X50823809Y15930477D01*
%TO.C,R2*%
X9358333Y33202620D02*
X9025000Y33678810D01*
X8786904Y33202620D02*
X8786904Y34202620D01*
X9167857Y34202620D01*
X9263095Y34155000D01*
X9310714Y34107381D01*
X9358333Y34012143D01*
X9358333Y33869286D01*
X9310714Y33774048D01*
X9263095Y33726429D01*
X9167857Y33678810D01*
X8786904Y33678810D01*
X9739285Y34107381D02*
X9786904Y34155000D01*
X9882142Y34202620D01*
X10120238Y34202620D01*
X10215476Y34155000D01*
X10263095Y34107381D01*
X10310714Y34012143D01*
X10310714Y33916905D01*
X10263095Y33774048D01*
X9691666Y33202620D01*
X10310714Y33202620D01*
%TO.C,R3*%
X9358333Y35107620D02*
X9025000Y35583810D01*
X8786904Y35107620D02*
X8786904Y36107620D01*
X9167857Y36107620D01*
X9263095Y36060000D01*
X9310714Y36012381D01*
X9358333Y35917143D01*
X9358333Y35774286D01*
X9310714Y35679048D01*
X9263095Y35631429D01*
X9167857Y35583810D01*
X8786904Y35583810D01*
X9691666Y36107620D02*
X10310714Y36107620D01*
X9977380Y35726667D01*
X10120238Y35726667D01*
X10215476Y35679048D01*
X10263095Y35631429D01*
X10310714Y35536191D01*
X10310714Y35298096D01*
X10263095Y35202858D01*
X10215476Y35155239D01*
X10120238Y35107620D01*
X9834523Y35107620D01*
X9739285Y35155239D01*
X9691666Y35202858D01*
%TO.C,D2*%
X531904Y33202620D02*
X531904Y34202620D01*
X770000Y34202620D01*
X912857Y34155000D01*
X1008095Y34059762D01*
X1055714Y33964524D01*
X1103333Y33774048D01*
X1103333Y33631191D01*
X1055714Y33440715D01*
X1008095Y33345477D01*
X912857Y33250239D01*
X770000Y33202620D01*
X531904Y33202620D01*
X1484285Y34107381D02*
X1531904Y34155000D01*
X1627142Y34202620D01*
X1865238Y34202620D01*
X1960476Y34155000D01*
X2008095Y34107381D01*
X2055714Y34012143D01*
X2055714Y33916905D01*
X2008095Y33774048D01*
X1436666Y33202620D01*
X2055714Y33202620D01*
%TO.C,R15*%
X37917380Y34917143D02*
X37441190Y34583810D01*
X37917380Y34345715D02*
X36917380Y34345715D01*
X36917380Y34726667D01*
X36965000Y34821905D01*
X37012619Y34869524D01*
X37107857Y34917143D01*
X37250714Y34917143D01*
X37345952Y34869524D01*
X37393571Y34821905D01*
X37441190Y34726667D01*
X37441190Y34345715D01*
X37917380Y35869524D02*
X37917380Y35298096D01*
X37917380Y35583810D02*
X36917380Y35583810D01*
X37060238Y35488572D01*
X37155476Y35393334D01*
X37203095Y35298096D01*
X36917380Y36774286D02*
X36917380Y36298096D01*
X37393571Y36250477D01*
X37345952Y36298096D01*
X37298333Y36393334D01*
X37298333Y36631429D01*
X37345952Y36726667D01*
X37393571Y36774286D01*
X37488809Y36821905D01*
X37726904Y36821905D01*
X37822142Y36774286D01*
X37869761Y36726667D01*
X37917380Y36631429D01*
X37917380Y36393334D01*
X37869761Y36298096D01*
X37822142Y36250477D01*
%TO.C,Y1*%
X38336190Y25558810D02*
X38812380Y25558810D01*
X37812380Y25225477D02*
X38336190Y25558810D01*
X37812380Y25892143D01*
X38812380Y26749286D02*
X38812380Y26177858D01*
X38812380Y26463572D02*
X37812380Y26463572D01*
X37955238Y26368334D01*
X38050476Y26273096D01*
X38098095Y26177858D01*
%TO.C,U2*%
X44323095Y31797620D02*
X44323095Y30988096D01*
X44370714Y30892858D01*
X44418333Y30845239D01*
X44513571Y30797620D01*
X44704047Y30797620D01*
X44799285Y30845239D01*
X44846904Y30892858D01*
X44894523Y30988096D01*
X44894523Y31797620D01*
X45323095Y31702381D02*
X45370714Y31750000D01*
X45465952Y31797620D01*
X45704047Y31797620D01*
X45799285Y31750000D01*
X45846904Y31702381D01*
X45894523Y31607143D01*
X45894523Y31511905D01*
X45846904Y31369048D01*
X45275476Y30797620D01*
X45894523Y30797620D01*
%TO.C,C8*%
X34012142Y15708334D02*
X34059761Y15660715D01*
X34107380Y15517858D01*
X34107380Y15422620D01*
X34059761Y15279762D01*
X33964523Y15184524D01*
X33869285Y15136905D01*
X33678809Y15089286D01*
X33535952Y15089286D01*
X33345476Y15136905D01*
X33250238Y15184524D01*
X33155000Y15279762D01*
X33107380Y15422620D01*
X33107380Y15517858D01*
X33155000Y15660715D01*
X33202619Y15708334D01*
X33535952Y16279762D02*
X33488333Y16184524D01*
X33440714Y16136905D01*
X33345476Y16089286D01*
X33297857Y16089286D01*
X33202619Y16136905D01*
X33155000Y16184524D01*
X33107380Y16279762D01*
X33107380Y16470239D01*
X33155000Y16565477D01*
X33202619Y16613096D01*
X33297857Y16660715D01*
X33345476Y16660715D01*
X33440714Y16613096D01*
X33488333Y16565477D01*
X33535952Y16470239D01*
X33535952Y16279762D01*
X33583571Y16184524D01*
X33631190Y16136905D01*
X33726428Y16089286D01*
X33916904Y16089286D01*
X34012142Y16136905D01*
X34059761Y16184524D01*
X34107380Y16279762D01*
X34107380Y16470239D01*
X34059761Y16565477D01*
X34012142Y16613096D01*
X33916904Y16660715D01*
X33726428Y16660715D01*
X33631190Y16613096D01*
X33583571Y16565477D01*
X33535952Y16470239D01*
%TO.C,R11*%
X36012380Y15232143D02*
X35536190Y14898810D01*
X36012380Y14660715D02*
X35012380Y14660715D01*
X35012380Y15041667D01*
X35060000Y15136905D01*
X35107619Y15184524D01*
X35202857Y15232143D01*
X35345714Y15232143D01*
X35440952Y15184524D01*
X35488571Y15136905D01*
X35536190Y15041667D01*
X35536190Y14660715D01*
X36012380Y16184524D02*
X36012380Y15613096D01*
X36012380Y15898810D02*
X35012380Y15898810D01*
X35155238Y15803572D01*
X35250476Y15708334D01*
X35298095Y15613096D01*
X36012380Y17136905D02*
X36012380Y16565477D01*
X36012380Y16851191D02*
X35012380Y16851191D01*
X35155238Y16755953D01*
X35250476Y16660715D01*
X35298095Y16565477D01*
%TO.C,R7*%
X65857380Y32414643D02*
X65381190Y32081310D01*
X65857380Y31843215D02*
X64857380Y31843215D01*
X64857380Y32224167D01*
X64905000Y32319405D01*
X64952619Y32367024D01*
X65047857Y32414643D01*
X65190714Y32414643D01*
X65285952Y32367024D01*
X65333571Y32319405D01*
X65381190Y32224167D01*
X65381190Y31843215D01*
X64857380Y32747977D02*
X64857380Y33414643D01*
X65857380Y32986072D01*
%TO.C,R8*%
X63952380Y32414643D02*
X63476190Y32081310D01*
X63952380Y31843215D02*
X62952380Y31843215D01*
X62952380Y32224167D01*
X63000000Y32319405D01*
X63047619Y32367024D01*
X63142857Y32414643D01*
X63285714Y32414643D01*
X63380952Y32367024D01*
X63428571Y32319405D01*
X63476190Y32224167D01*
X63476190Y31843215D01*
X63380952Y32986072D02*
X63333333Y32890834D01*
X63285714Y32843215D01*
X63190476Y32795596D01*
X63142857Y32795596D01*
X63047619Y32843215D01*
X63000000Y32890834D01*
X62952380Y32986072D01*
X62952380Y33176548D01*
X63000000Y33271786D01*
X63047619Y33319405D01*
X63142857Y33367024D01*
X63190476Y33367024D01*
X63285714Y33319405D01*
X63333333Y33271786D01*
X63380952Y33176548D01*
X63380952Y32986072D01*
X63428571Y32890834D01*
X63476190Y32843215D01*
X63571428Y32795596D01*
X63761904Y32795596D01*
X63857142Y32843215D01*
X63904761Y32890834D01*
X63952380Y32986072D01*
X63952380Y33176548D01*
X63904761Y33271786D01*
X63857142Y33319405D01*
X63761904Y33367024D01*
X63571428Y33367024D01*
X63476190Y33319405D01*
X63428571Y33271786D01*
X63380952Y33176548D01*
%TO.C,R13*%
X43632380Y34917143D02*
X43156190Y34583810D01*
X43632380Y34345715D02*
X42632380Y34345715D01*
X42632380Y34726667D01*
X42680000Y34821905D01*
X42727619Y34869524D01*
X42822857Y34917143D01*
X42965714Y34917143D01*
X43060952Y34869524D01*
X43108571Y34821905D01*
X43156190Y34726667D01*
X43156190Y34345715D01*
X43632380Y35869524D02*
X43632380Y35298096D01*
X43632380Y35583810D02*
X42632380Y35583810D01*
X42775238Y35488572D01*
X42870476Y35393334D01*
X42918095Y35298096D01*
X42632380Y36202858D02*
X42632380Y36821905D01*
X43013333Y36488572D01*
X43013333Y36631429D01*
X43060952Y36726667D01*
X43108571Y36774286D01*
X43203809Y36821905D01*
X43441904Y36821905D01*
X43537142Y36774286D01*
X43584761Y36726667D01*
X43632380Y36631429D01*
X43632380Y36345715D01*
X43584761Y36250477D01*
X43537142Y36202858D01*
%TO.C,R12*%
X62047380Y31462262D02*
X61571190Y31128929D01*
X62047380Y30890834D02*
X61047380Y30890834D01*
X61047380Y31271786D01*
X61095000Y31367024D01*
X61142619Y31414643D01*
X61237857Y31462262D01*
X61380714Y31462262D01*
X61475952Y31414643D01*
X61523571Y31367024D01*
X61571190Y31271786D01*
X61571190Y30890834D01*
X62047380Y32414643D02*
X62047380Y31843215D01*
X62047380Y32128929D02*
X61047380Y32128929D01*
X61190238Y32033691D01*
X61285476Y31938453D01*
X61333095Y31843215D01*
X61142619Y32795596D02*
X61095000Y32843215D01*
X61047380Y32938453D01*
X61047380Y33176548D01*
X61095000Y33271786D01*
X61142619Y33319405D01*
X61237857Y33367024D01*
X61333095Y33367024D01*
X61475952Y33319405D01*
X62047380Y32747977D01*
X62047380Y33367024D01*
%TO.C,R14*%
X39822380Y34917143D02*
X39346190Y34583810D01*
X39822380Y34345715D02*
X38822380Y34345715D01*
X38822380Y34726667D01*
X38870000Y34821905D01*
X38917619Y34869524D01*
X39012857Y34917143D01*
X39155714Y34917143D01*
X39250952Y34869524D01*
X39298571Y34821905D01*
X39346190Y34726667D01*
X39346190Y34345715D01*
X39822380Y35869524D02*
X39822380Y35298096D01*
X39822380Y35583810D02*
X38822380Y35583810D01*
X38965238Y35488572D01*
X39060476Y35393334D01*
X39108095Y35298096D01*
X39155714Y36726667D02*
X39822380Y36726667D01*
X38774761Y36488572D02*
X39489047Y36250477D01*
X39489047Y36869524D01*
%TO.C,R17*%
X39822380Y14597143D02*
X39346190Y14263810D01*
X39822380Y14025715D02*
X38822380Y14025715D01*
X38822380Y14406667D01*
X38870000Y14501905D01*
X38917619Y14549524D01*
X39012857Y14597143D01*
X39155714Y14597143D01*
X39250952Y14549524D01*
X39298571Y14501905D01*
X39346190Y14406667D01*
X39346190Y14025715D01*
X39822380Y15549524D02*
X39822380Y14978096D01*
X39822380Y15263810D02*
X38822380Y15263810D01*
X38965238Y15168572D01*
X39060476Y15073334D01*
X39108095Y14978096D01*
X38822380Y15882858D02*
X38822380Y16549524D01*
X39822380Y16120953D01*
%TO.C,R18*%
X41727380Y14597143D02*
X41251190Y14263810D01*
X41727380Y14025715D02*
X40727380Y14025715D01*
X40727380Y14406667D01*
X40775000Y14501905D01*
X40822619Y14549524D01*
X40917857Y14597143D01*
X41060714Y14597143D01*
X41155952Y14549524D01*
X41203571Y14501905D01*
X41251190Y14406667D01*
X41251190Y14025715D01*
X41727380Y15549524D02*
X41727380Y14978096D01*
X41727380Y15263810D02*
X40727380Y15263810D01*
X40870238Y15168572D01*
X40965476Y15073334D01*
X41013095Y14978096D01*
X41155952Y16120953D02*
X41108333Y16025715D01*
X41060714Y15978096D01*
X40965476Y15930477D01*
X40917857Y15930477D01*
X40822619Y15978096D01*
X40775000Y16025715D01*
X40727380Y16120953D01*
X40727380Y16311429D01*
X40775000Y16406667D01*
X40822619Y16454286D01*
X40917857Y16501905D01*
X40965476Y16501905D01*
X41060714Y16454286D01*
X41108333Y16406667D01*
X41155952Y16311429D01*
X41155952Y16120953D01*
X41203571Y16025715D01*
X41251190Y15978096D01*
X41346428Y15930477D01*
X41536904Y15930477D01*
X41632142Y15978096D01*
X41679761Y16025715D01*
X41727380Y16120953D01*
X41727380Y16311429D01*
X41679761Y16406667D01*
X41632142Y16454286D01*
X41536904Y16501905D01*
X41346428Y16501905D01*
X41251190Y16454286D01*
X41203571Y16406667D01*
X41155952Y16311429D01*
%TO.C,U3*%
X63246095Y22539620D02*
X63246095Y21730096D01*
X63293714Y21634858D01*
X63341333Y21587239D01*
X63436571Y21539620D01*
X63627047Y21539620D01*
X63722285Y21587239D01*
X63769904Y21634858D01*
X63817523Y21730096D01*
X63817523Y22539620D01*
X64198476Y22539620D02*
X64817523Y22539620D01*
X64484190Y22158667D01*
X64627047Y22158667D01*
X64722285Y22111048D01*
X64769904Y22063429D01*
X64817523Y21968191D01*
X64817523Y21730096D01*
X64769904Y21634858D01*
X64722285Y21587239D01*
X64627047Y21539620D01*
X64341333Y21539620D01*
X64246095Y21587239D01*
X64198476Y21634858D01*
%TO.C,R4*%
X57498333Y21712620D02*
X57165000Y22188810D01*
X56926904Y21712620D02*
X56926904Y22712620D01*
X57307857Y22712620D01*
X57403095Y22665000D01*
X57450714Y22617381D01*
X57498333Y22522143D01*
X57498333Y22379286D01*
X57450714Y22284048D01*
X57403095Y22236429D01*
X57307857Y22188810D01*
X56926904Y22188810D01*
X58355476Y22379286D02*
X58355476Y21712620D01*
X58117380Y22760239D02*
X57879285Y22045953D01*
X58498333Y22045953D01*
%TO.C,R10*%
X56862261Y25582620D02*
X56528928Y26058810D01*
X56290833Y25582620D02*
X56290833Y26582620D01*
X56671785Y26582620D01*
X56767023Y26535000D01*
X56814642Y26487381D01*
X56862261Y26392143D01*
X56862261Y26249286D01*
X56814642Y26154048D01*
X56767023Y26106429D01*
X56671785Y26058810D01*
X56290833Y26058810D01*
X57814642Y25582620D02*
X57243214Y25582620D01*
X57528928Y25582620D02*
X57528928Y26582620D01*
X57433690Y26439762D01*
X57338452Y26344524D01*
X57243214Y26296905D01*
X58433690Y26582620D02*
X58528928Y26582620D01*
X58624166Y26535000D01*
X58671785Y26487381D01*
X58719404Y26392143D01*
X58767023Y26201667D01*
X58767023Y25963572D01*
X58719404Y25773096D01*
X58671785Y25677858D01*
X58624166Y25630239D01*
X58528928Y25582620D01*
X58433690Y25582620D01*
X58338452Y25630239D01*
X58290833Y25677858D01*
X58243214Y25773096D01*
X58195595Y25963572D01*
X58195595Y26201667D01*
X58243214Y26392143D01*
X58290833Y26487381D01*
X58338452Y26535000D01*
X58433690Y26582620D01*
%TO.C,R9*%
X57618333Y23677620D02*
X57285000Y24153810D01*
X57046904Y23677620D02*
X57046904Y24677620D01*
X57427857Y24677620D01*
X57523095Y24630000D01*
X57570714Y24582381D01*
X57618333Y24487143D01*
X57618333Y24344286D01*
X57570714Y24249048D01*
X57523095Y24201429D01*
X57427857Y24153810D01*
X57046904Y24153810D01*
X58094523Y23677620D02*
X58285000Y23677620D01*
X58380238Y23725239D01*
X58427857Y23772858D01*
X58523095Y23915715D01*
X58570714Y24106191D01*
X58570714Y24487143D01*
X58523095Y24582381D01*
X58475476Y24630000D01*
X58380238Y24677620D01*
X58189761Y24677620D01*
X58094523Y24630000D01*
X58046904Y24582381D01*
X57999285Y24487143D01*
X57999285Y24249048D01*
X58046904Y24153810D01*
X58094523Y24106191D01*
X58189761Y24058572D01*
X58380238Y24058572D01*
X58475476Y24106191D01*
X58523095Y24153810D01*
X58570714Y24249048D01*
%TO.C,R6*%
X57618333Y29392620D02*
X57285000Y29868810D01*
X57046904Y29392620D02*
X57046904Y30392620D01*
X57427857Y30392620D01*
X57523095Y30345000D01*
X57570714Y30297381D01*
X57618333Y30202143D01*
X57618333Y30059286D01*
X57570714Y29964048D01*
X57523095Y29916429D01*
X57427857Y29868810D01*
X57046904Y29868810D01*
X58475476Y30392620D02*
X58285000Y30392620D01*
X58189761Y30345000D01*
X58142142Y30297381D01*
X58046904Y30154524D01*
X57999285Y29964048D01*
X57999285Y29583096D01*
X58046904Y29487858D01*
X58094523Y29440239D01*
X58189761Y29392620D01*
X58380238Y29392620D01*
X58475476Y29440239D01*
X58523095Y29487858D01*
X58570714Y29583096D01*
X58570714Y29821191D01*
X58523095Y29916429D01*
X58475476Y29964048D01*
X58380238Y30011667D01*
X58189761Y30011667D01*
X58094523Y29964048D01*
X58046904Y29916429D01*
X57999285Y29821191D01*
%TO.C,R5*%
X57498333Y27547620D02*
X57165000Y28023810D01*
X56926904Y27547620D02*
X56926904Y28547620D01*
X57307857Y28547620D01*
X57403095Y28500000D01*
X57450714Y28452381D01*
X57498333Y28357143D01*
X57498333Y28214286D01*
X57450714Y28119048D01*
X57403095Y28071429D01*
X57307857Y28023810D01*
X56926904Y28023810D01*
X58403095Y28547620D02*
X57926904Y28547620D01*
X57879285Y28071429D01*
X57926904Y28119048D01*
X58022142Y28166667D01*
X58260238Y28166667D01*
X58355476Y28119048D01*
X58403095Y28071429D01*
X58450714Y27976191D01*
X58450714Y27738096D01*
X58403095Y27642858D01*
X58355476Y27595239D01*
X58260238Y27547620D01*
X58022142Y27547620D01*
X57926904Y27595239D01*
X57879285Y27642858D01*
D11*
%TO.C,D4*%
X67600000Y18780000D02*
X67600000Y16780000D01*
X67600000Y16780000D02*
X71500000Y16780000D01*
X67600000Y18780000D02*
X71500000Y18780000D01*
%TO.C,J1*%
X76290000Y20700000D02*
X76290000Y30100000D01*
X74390000Y30100000D02*
X76290000Y30100000D01*
X74390000Y20700000D02*
X76290000Y20700000D01*
X70490000Y20700000D02*
X72490000Y20700000D01*
X70490000Y30100000D02*
X72490000Y30100000D01*
%TO.C,C3*%
X40765000Y32244420D02*
X40765000Y32525580D01*
X41785000Y32244420D02*
X41785000Y32525580D01*
%TO.C,C4*%
X49020000Y32244420D02*
X49020000Y32525580D01*
X50040000Y32244420D02*
X50040000Y32525580D01*
%TO.C,C5*%
X36955000Y18555580D02*
X36955000Y18274420D01*
X37975000Y18555580D02*
X37975000Y18274420D01*
%TO.C,C7*%
X49405000Y18555580D02*
X49405000Y18274420D01*
X48385000Y18555580D02*
X48385000Y18274420D01*
%TO.C,U1*%
X60955000Y11830000D02*
X60955000Y13090000D01*
X64715000Y18650000D02*
X60955000Y18650000D01*
X66965000Y11830000D02*
X60955000Y11830000D01*
X60955000Y18650000D02*
X60955000Y17390000D01*
%TO.C,C1*%
X69315000Y14231252D02*
X69315000Y13708748D01*
X67845000Y14231252D02*
X67845000Y13708748D01*
%TO.C,D1*%
X5295000Y38200000D02*
X3010000Y38200000D01*
X5295000Y36730000D02*
X5295000Y38200000D01*
X3010000Y36730000D02*
X5295000Y36730000D01*
%TO.C,R1*%
X6747742Y37987500D02*
X7222258Y37987500D01*
X6747742Y36942500D02*
X7222258Y36942500D01*
%TO.C,C9*%
X32895000Y27164420D02*
X32895000Y27445580D01*
X31875000Y27164420D02*
X31875000Y27445580D01*
%TO.C,C10*%
X32895000Y24270580D02*
X32895000Y23989420D01*
X31875000Y24270580D02*
X31875000Y23989420D01*
%TO.C,C2*%
X55755000Y14110580D02*
X55755000Y13829420D01*
X54735000Y14110580D02*
X54735000Y13829420D01*
%TO.C,C6*%
X56415000Y14231252D02*
X56415000Y13708748D01*
X57885000Y14231252D02*
X57885000Y13708748D01*
%TO.C,D3*%
X5295000Y36295000D02*
X3010000Y36295000D01*
X3010000Y34825000D02*
X5295000Y34825000D01*
X5295000Y34825000D02*
X5295000Y36295000D01*
%TO.C,Q1*%
X68580000Y36485000D02*
X66905000Y36485000D01*
X68580000Y33365000D02*
X67930000Y33365000D01*
X68580000Y33365000D02*
X69230000Y33365000D01*
X68580000Y36485000D02*
X69230000Y36485000D01*
%TO.C,R16*%
X51322500Y18652258D02*
X51322500Y18177742D01*
X50277500Y18652258D02*
X50277500Y18177742D01*
%TO.C,R2*%
X7222258Y34177500D02*
X6747742Y34177500D01*
X7222258Y33132500D02*
X6747742Y33132500D01*
%TO.C,R3*%
X6747742Y36082500D02*
X7222258Y36082500D01*
X6747742Y35037500D02*
X7222258Y35037500D01*
%TO.C,JP1*%
X6220000Y25670000D02*
X6220000Y27670000D01*
X6220000Y27670000D02*
X9020000Y27670000D01*
X9020000Y27670000D02*
X9020000Y25670000D01*
X9020000Y25670000D02*
X6220000Y25670000D01*
%TO.C,JP2*%
X6220000Y23130000D02*
X6220000Y25130000D01*
X9020000Y25130000D02*
X9020000Y23130000D01*
X6220000Y25130000D02*
X9020000Y25130000D01*
X9020000Y23130000D02*
X6220000Y23130000D01*
%TO.C,JP3*%
X6220000Y20590000D02*
X6220000Y22590000D01*
X6220000Y22590000D02*
X9020000Y22590000D01*
X9020000Y20590000D02*
X6220000Y20590000D01*
X9020000Y22590000D02*
X9020000Y20590000D01*
%TO.C,JP4*%
X9020000Y18050000D02*
X6220000Y18050000D01*
X6220000Y20050000D02*
X9020000Y20050000D01*
X9020000Y20050000D02*
X9020000Y18050000D01*
X6220000Y18050000D02*
X6220000Y20050000D01*
%TO.C,JP5*%
X19180000Y27670000D02*
X19180000Y25670000D01*
X19180000Y25670000D02*
X16380000Y25670000D01*
X16380000Y27670000D02*
X19180000Y27670000D01*
X16380000Y25670000D02*
X16380000Y27670000D01*
%TO.C,JP6*%
X19180000Y23130000D02*
X16380000Y23130000D01*
X16380000Y23130000D02*
X16380000Y25130000D01*
X16380000Y25130000D02*
X19180000Y25130000D01*
X19180000Y25130000D02*
X19180000Y23130000D01*
%TO.C,JP7*%
X16380000Y20590000D02*
X16380000Y22590000D01*
X19180000Y20590000D02*
X16380000Y20590000D01*
X19180000Y22590000D02*
X19180000Y20590000D01*
X16380000Y22590000D02*
X19180000Y22590000D01*
%TO.C,JP8*%
X16380000Y18050000D02*
X16380000Y20050000D01*
X19180000Y18050000D02*
X16380000Y18050000D01*
X19180000Y20050000D02*
X19180000Y18050000D01*
X16380000Y20050000D02*
X19180000Y20050000D01*
%TO.C,D2*%
X5295000Y32920000D02*
X5295000Y34390000D01*
X5295000Y34390000D02*
X3010000Y34390000D01*
X3010000Y32920000D02*
X5295000Y32920000D01*
%TO.C,R15*%
X37987500Y32622258D02*
X37987500Y32147742D01*
X36942500Y32622258D02*
X36942500Y32147742D01*
%TO.C,Y1*%
X37360000Y29085000D02*
X33760000Y29085000D01*
X37360000Y23335000D02*
X37360000Y29085000D01*
X33760000Y29085000D02*
X33760000Y23335000D01*
%TO.C,U2*%
X41475000Y29010000D02*
X41475000Y28560000D01*
X48245000Y29010000D02*
X48695000Y29010000D01*
X48695000Y29010000D02*
X48695000Y28560000D01*
X48695000Y21790000D02*
X48695000Y22240000D01*
X48245000Y21790000D02*
X48695000Y21790000D01*
X41475000Y28560000D02*
X40185000Y28560000D01*
X41475000Y21790000D02*
X41475000Y22240000D01*
X41925000Y29010000D02*
X41475000Y29010000D01*
X41925000Y21790000D02*
X41475000Y21790000D01*
%TO.C,C8*%
X33145000Y18555580D02*
X33145000Y18274420D01*
X34165000Y18555580D02*
X34165000Y18274420D01*
%TO.C,R11*%
X35037500Y18177742D02*
X35037500Y18652258D01*
X36082500Y18177742D02*
X36082500Y18652258D01*
%TO.C,R7*%
X64882500Y35162258D02*
X64882500Y34687742D01*
X65927500Y35162258D02*
X65927500Y34687742D01*
%TO.C,R8*%
X64022500Y34687742D02*
X64022500Y35162258D01*
X62977500Y34687742D02*
X62977500Y35162258D01*
%TO.C,R13*%
X42657500Y32147742D02*
X42657500Y32622258D01*
X43702500Y32147742D02*
X43702500Y32622258D01*
%TO.C,R12*%
X61072500Y35162258D02*
X61072500Y34687742D01*
X62117500Y35162258D02*
X62117500Y34687742D01*
%TO.C,R14*%
X38847500Y32147742D02*
X38847500Y32622258D01*
X39892500Y32147742D02*
X39892500Y32622258D01*
%TO.C,R17*%
X39892500Y18177742D02*
X39892500Y18652258D01*
X38847500Y18177742D02*
X38847500Y18652258D01*
%TO.C,R18*%
X40752500Y18652258D02*
X40752500Y18177742D01*
X41797500Y18652258D02*
X41797500Y18177742D01*
%TO.C,U3*%
X64008000Y26452000D02*
X64808000Y26452000D01*
X64008000Y26452000D02*
X63208000Y26452000D01*
X64008000Y23332000D02*
X65808000Y23332000D01*
X64008000Y23332000D02*
X63208000Y23332000D01*
%TO.C,R4*%
X60087742Y21702500D02*
X60562258Y21702500D01*
X60087742Y22747500D02*
X60562258Y22747500D01*
%TO.C,R10*%
X60087742Y25512500D02*
X60562258Y25512500D01*
X60087742Y26557500D02*
X60562258Y26557500D01*
%TO.C,R9*%
X60087742Y24652500D02*
X60562258Y24652500D01*
X60087742Y23607500D02*
X60562258Y23607500D01*
%TO.C,R6*%
X60087742Y29322500D02*
X60562258Y29322500D01*
X60087742Y30367500D02*
X60562258Y30367500D01*
%TO.C,R5*%
X60087742Y27417500D02*
X60562258Y27417500D01*
X60087742Y28462500D02*
X60562258Y28462500D01*
%TO.C,JP9*%
X54740000Y33290000D02*
X51940000Y33290000D01*
X51940000Y33290000D02*
X51940000Y35290000D01*
X54740000Y35290000D02*
X54740000Y33290000D01*
X51940000Y35290000D02*
X54740000Y35290000D01*
%TO.C,JP10*%
X54740000Y32750000D02*
X54740000Y30750000D01*
X51940000Y30750000D02*
X51940000Y32750000D01*
X51940000Y32750000D02*
X54740000Y32750000D01*
X54740000Y30750000D02*
X51940000Y30750000D01*
%TD*%
M02*
