%TF.GenerationSoftware,KiCad,Pcbnew,6.0.7+dfsg-1+b1*%
%TF.CreationDate,2022-09-18T14:30:12+08:00*%
%TF.ProjectId,prgstl,70726773-746c-42e6-9b69-6361645f7063,a*%
%TF.SameCoordinates,PX6b302f8PY7aeef28*%
%TF.FileFunction,Soldermask,Top*%
%TF.FilePolarity,Negative*%
%FSLAX46Y46*%
G04 Gerber Fmt 4.6, Leading zero omitted, Abs format (unit mm)*
G04 Created by KiCad (PCBNEW 6.0.7+dfsg-1+b1) date 2022-09-18 14:30:12*
%MOMM*%
%LPD*%
G01*
G04 APERTURE LIST*
G04 Aperture macros list*
%AMRoundRect*
0 Rectangle with rounded corners*
0 $1 Rounding radius*
0 $2 $3 $4 $5 $6 $7 $8 $9 X,Y pos of 4 corners*
0 Add a 4 corners polygon primitive as box body*
4,1,4,$2,$3,$4,$5,$6,$7,$8,$9,$2,$3,0*
0 Add four circle primitives for the rounded corners*
1,1,$1+$1,$2,$3*
1,1,$1+$1,$4,$5*
1,1,$1+$1,$6,$7*
1,1,$1+$1,$8,$9*
0 Add four rect primitives between the rounded corners*
20,1,$1+$1,$2,$3,$4,$5,0*
20,1,$1+$1,$4,$5,$6,$7,0*
20,1,$1+$1,$6,$7,$8,$9,0*
20,1,$1+$1,$8,$9,$2,$3,0*%
G04 Aperture macros list end*
%ADD10R,0.900000X1.200000*%
%ADD11C,0.650000*%
%ADD12R,1.450000X0.600000*%
%ADD13R,1.450000X0.300000*%
%ADD14O,2.100000X1.000000*%
%ADD15O,1.600000X1.000000*%
%ADD16RoundRect,0.225000X0.250000X-0.225000X0.250000X0.225000X-0.250000X0.225000X-0.250000X-0.225000X0*%
%ADD17RoundRect,0.225000X-0.250000X0.225000X-0.250000X-0.225000X0.250000X-0.225000X0.250000X0.225000X0*%
%ADD18R,2.000000X1.500000*%
%ADD19R,2.000000X3.800000*%
%ADD20RoundRect,0.250000X-0.475000X0.250000X-0.475000X-0.250000X0.475000X-0.250000X0.475000X0.250000X0*%
%ADD21RoundRect,0.218750X0.218750X0.256250X-0.218750X0.256250X-0.218750X-0.256250X0.218750X-0.256250X0*%
%ADD22RoundRect,0.200000X-0.200000X-0.275000X0.200000X-0.275000X0.200000X0.275000X-0.200000X0.275000X0*%
%ADD23RoundRect,0.150000X-0.587500X-0.150000X0.587500X-0.150000X0.587500X0.150000X-0.587500X0.150000X0*%
%ADD24RoundRect,0.200000X-0.275000X0.200000X-0.275000X-0.200000X0.275000X-0.200000X0.275000X0.200000X0*%
%ADD25RoundRect,0.200000X0.200000X0.275000X-0.200000X0.275000X-0.200000X-0.275000X0.200000X-0.275000X0*%
%ADD26R,1.000000X1.500000*%
%ADD27R,2.400000X2.000000*%
%ADD28RoundRect,0.075000X-0.662500X-0.075000X0.662500X-0.075000X0.662500X0.075000X-0.662500X0.075000X0*%
%ADD29RoundRect,0.075000X-0.075000X-0.662500X0.075000X-0.662500X0.075000X0.662500X-0.075000X0.662500X0*%
%ADD30RoundRect,0.200000X0.275000X-0.200000X0.275000X0.200000X-0.275000X0.200000X-0.275000X-0.200000X0*%
%ADD31RoundRect,0.150000X0.512500X0.150000X-0.512500X0.150000X-0.512500X-0.150000X0.512500X-0.150000X0*%
%ADD32R,1.700000X1.700000*%
%ADD33O,1.700000X1.700000*%
%ADD34C,3.200000*%
G04 APERTURE END LIST*
D10*
%TO.C,D1*%
X70105000Y19685000D03*
X73405000Y19685000D03*
%TD*%
D11*
%TO.C,J1*%
X71695000Y24415000D03*
X71695000Y30195000D03*
D12*
X70250000Y24055000D03*
X70250000Y24855000D03*
D13*
X70250000Y26055000D03*
X70250000Y27055000D03*
X70250000Y27555000D03*
X70250000Y28555000D03*
D12*
X70250000Y29755000D03*
X70250000Y30555000D03*
X70250000Y30555000D03*
X70250000Y29755000D03*
D13*
X70250000Y29055000D03*
X70250000Y28055000D03*
X70250000Y26555000D03*
X70250000Y25555000D03*
D12*
X70250000Y24855000D03*
X70250000Y24055000D03*
D14*
X71165000Y31625000D03*
D15*
X75345000Y31625000D03*
D14*
X71165000Y22985000D03*
D15*
X75345000Y22985000D03*
%TD*%
D16*
%TO.C,C3*%
X43180000Y33515000D03*
X43180000Y35065000D03*
%TD*%
%TO.C,C4*%
X51435000Y33515000D03*
X51435000Y35065000D03*
%TD*%
D17*
%TO.C,C5*%
X39370000Y21095000D03*
X39370000Y19545000D03*
%TD*%
%TO.C,C7*%
X50800000Y21095000D03*
X50800000Y19545000D03*
%TD*%
D18*
%TO.C,U1*%
X67920000Y14845000D03*
X67920000Y17145000D03*
D19*
X61620000Y17145000D03*
D18*
X67920000Y19445000D03*
%TD*%
D20*
%TO.C,C1*%
X70485000Y16825000D03*
X70485000Y14925000D03*
%TD*%
D21*
%TO.C,D2*%
X6502500Y39370000D03*
X4927500Y39370000D03*
%TD*%
D22*
%TO.C,R3*%
X8065000Y39370000D03*
X9715000Y39370000D03*
%TD*%
D16*
%TO.C,C9*%
X34290000Y29070000D03*
X34290000Y30620000D03*
%TD*%
D17*
%TO.C,C10*%
X34290000Y26810000D03*
X34290000Y25260000D03*
%TD*%
%TO.C,C2*%
X57150000Y16650000D03*
X57150000Y15100000D03*
%TD*%
D20*
%TO.C,C6*%
X59055000Y16825000D03*
X59055000Y14925000D03*
%TD*%
D21*
%TO.C,D4*%
X6502500Y37465000D03*
X4927500Y37465000D03*
%TD*%
D23*
%TO.C,Q1*%
X69547500Y37780000D03*
X69547500Y35880000D03*
X71422500Y36830000D03*
%TD*%
D24*
%TO.C,R16*%
X52705000Y21145000D03*
X52705000Y19495000D03*
%TD*%
D25*
%TO.C,R5*%
X9715000Y35560000D03*
X8065000Y35560000D03*
%TD*%
D22*
%TO.C,R6*%
X8065000Y37465000D03*
X9715000Y37465000D03*
%TD*%
D26*
%TO.C,JP1*%
X10175000Y28575000D03*
X8875000Y28575000D03*
%TD*%
%TO.C,JP2*%
X10175000Y26035000D03*
X8875000Y26035000D03*
%TD*%
%TO.C,JP3*%
X10175000Y23495000D03*
X8875000Y23495000D03*
%TD*%
%TO.C,JP4*%
X10175000Y20955000D03*
X8875000Y20955000D03*
%TD*%
%TO.C,JP5*%
X19035000Y28575000D03*
X20335000Y28575000D03*
%TD*%
%TO.C,JP6*%
X19035000Y26035000D03*
X20335000Y26035000D03*
%TD*%
%TO.C,JP7*%
X19035000Y23495000D03*
X20335000Y23495000D03*
%TD*%
%TO.C,JP8*%
X19035000Y20955000D03*
X20335000Y20955000D03*
%TD*%
D21*
%TO.C,D3*%
X6502500Y35560000D03*
X4927500Y35560000D03*
%TD*%
D24*
%TO.C,R15*%
X39370000Y35115000D03*
X39370000Y33465000D03*
%TD*%
D27*
%TO.C,Y1*%
X37465000Y29790000D03*
X37465000Y26090000D03*
%TD*%
D28*
%TO.C,U3*%
X42827500Y30055000D03*
X42827500Y29555000D03*
X42827500Y29055000D03*
X42827500Y28555000D03*
X42827500Y28055000D03*
X42827500Y27555000D03*
X42827500Y27055000D03*
X42827500Y26555000D03*
X42827500Y26055000D03*
X42827500Y25555000D03*
X42827500Y25055000D03*
X42827500Y24555000D03*
D29*
X44240000Y23142500D03*
X44740000Y23142500D03*
X45240000Y23142500D03*
X45740000Y23142500D03*
X46240000Y23142500D03*
X46740000Y23142500D03*
X47240000Y23142500D03*
X47740000Y23142500D03*
X48240000Y23142500D03*
X48740000Y23142500D03*
X49240000Y23142500D03*
X49740000Y23142500D03*
D28*
X51152500Y24555000D03*
X51152500Y25055000D03*
X51152500Y25555000D03*
X51152500Y26055000D03*
X51152500Y26555000D03*
X51152500Y27055000D03*
X51152500Y27555000D03*
X51152500Y28055000D03*
X51152500Y28555000D03*
X51152500Y29055000D03*
X51152500Y29555000D03*
X51152500Y30055000D03*
D29*
X49740000Y31467500D03*
X49240000Y31467500D03*
X48740000Y31467500D03*
X48240000Y31467500D03*
X47740000Y31467500D03*
X47240000Y31467500D03*
X46740000Y31467500D03*
X46240000Y31467500D03*
X45740000Y31467500D03*
X45240000Y31467500D03*
X44740000Y31467500D03*
X44240000Y31467500D03*
%TD*%
D17*
%TO.C,C8*%
X35560000Y21095000D03*
X35560000Y19545000D03*
%TD*%
D30*
%TO.C,R12*%
X37465000Y19495000D03*
X37465000Y21145000D03*
%TD*%
D24*
%TO.C,R7*%
X67310000Y37655000D03*
X67310000Y36005000D03*
%TD*%
D30*
%TO.C,R8*%
X65405000Y36005000D03*
X65405000Y37655000D03*
%TD*%
%TO.C,R13*%
X45085000Y33465000D03*
X45085000Y35115000D03*
%TD*%
D24*
%TO.C,R11*%
X63500000Y37655000D03*
X63500000Y36005000D03*
%TD*%
D30*
%TO.C,R14*%
X41275000Y33465000D03*
X41275000Y35115000D03*
%TD*%
%TO.C,R17*%
X41275000Y19495000D03*
X41275000Y21145000D03*
%TD*%
D24*
%TO.C,R18*%
X43180000Y21145000D03*
X43180000Y19495000D03*
%TD*%
D31*
%TO.C,U2*%
X67050500Y25847000D03*
X67050500Y26797000D03*
X67050500Y27747000D03*
X64775500Y27747000D03*
X64775500Y26797000D03*
X64775500Y25847000D03*
%TD*%
D22*
%TO.C,R1*%
X61405000Y24130000D03*
X63055000Y24130000D03*
%TD*%
%TO.C,R10*%
X61405000Y27940000D03*
X63055000Y27940000D03*
%TD*%
%TO.C,R9*%
X61405000Y26035000D03*
X63055000Y26035000D03*
%TD*%
%TO.C,R4*%
X61405000Y31750000D03*
X63055000Y31750000D03*
%TD*%
%TO.C,R2*%
X61405000Y29845000D03*
X63055000Y29845000D03*
%TD*%
D26*
%TO.C,JP9*%
X54595000Y36195000D03*
X55895000Y36195000D03*
%TD*%
%TO.C,JP10*%
X54595000Y33655000D03*
X55895000Y33655000D03*
%TD*%
D32*
%TO.C,J2*%
X15905000Y9545000D03*
D33*
X15905000Y7005000D03*
X18445000Y9545000D03*
X18445000Y7005000D03*
X20985000Y9545000D03*
X20985000Y7005000D03*
X23525000Y9545000D03*
X23525000Y7005000D03*
X26065000Y9545000D03*
X26065000Y7005000D03*
X28605000Y9545000D03*
X28605000Y7005000D03*
X31145000Y9545000D03*
X31145000Y7005000D03*
X33685000Y9545000D03*
X33685000Y7005000D03*
X36225000Y9545000D03*
X36225000Y7005000D03*
X38765000Y9545000D03*
X38765000Y7005000D03*
X41305000Y9545000D03*
X41305000Y7005000D03*
X43845000Y9545000D03*
X43845000Y7005000D03*
X46385000Y9545000D03*
X46385000Y7005000D03*
X48925000Y9545000D03*
X48925000Y7005000D03*
X51465000Y9545000D03*
X51465000Y7005000D03*
X54005000Y9545000D03*
X54005000Y7005000D03*
X56545000Y9545000D03*
X56545000Y7005000D03*
X59085000Y9545000D03*
X59085000Y7005000D03*
X61625000Y9545000D03*
X61625000Y7005000D03*
X64165000Y9545000D03*
X64165000Y7005000D03*
%TD*%
D32*
%TO.C,J3*%
X64105000Y45065000D03*
D33*
X64105000Y47605000D03*
X61565000Y45065000D03*
X61565000Y47605000D03*
X59025000Y45065000D03*
X59025000Y47605000D03*
X56485000Y45065000D03*
X56485000Y47605000D03*
X53945000Y45065000D03*
X53945000Y47605000D03*
X51405000Y45065000D03*
X51405000Y47605000D03*
X48865000Y45065000D03*
X48865000Y47605000D03*
X46325000Y45065000D03*
X46325000Y47605000D03*
X43785000Y45065000D03*
X43785000Y47605000D03*
X41245000Y45065000D03*
X41245000Y47605000D03*
X38705000Y45065000D03*
X38705000Y47605000D03*
X36165000Y45065000D03*
X36165000Y47605000D03*
X33625000Y45065000D03*
X33625000Y47605000D03*
X31085000Y45065000D03*
X31085000Y47605000D03*
X28545000Y45065000D03*
X28545000Y47605000D03*
X26005000Y45065000D03*
X26005000Y47605000D03*
X23465000Y45065000D03*
X23465000Y47605000D03*
X20925000Y45065000D03*
X20925000Y47605000D03*
X18385000Y45065000D03*
X18385000Y47605000D03*
X15845000Y45065000D03*
X15845000Y47605000D03*
%TD*%
D34*
%TO.C,J4*%
X5715000Y5715000D03*
X5715000Y48895000D03*
X74295000Y48895000D03*
X74295000Y5715000D03*
%TD*%
M02*
