%TF.GenerationSoftware,KiCad,Pcbnew,6.0.7+dfsg-1+b1*%
%TF.CreationDate,2022-09-10T19:10:33+08:00*%
%TF.ProjectId,prgstl,70726773-746c-42e6-9b69-6361645f7063,a*%
%TF.SameCoordinates,PX6d01460PY791ddc0*%
%TF.FileFunction,Soldermask,Top*%
%TF.FilePolarity,Negative*%
%FSLAX46Y46*%
G04 Gerber Fmt 4.6, Leading zero omitted, Abs format (unit mm)*
G04 Created by KiCad (PCBNEW 6.0.7+dfsg-1+b1) date 2022-09-10 19:10:33*
%MOMM*%
%LPD*%
G01*
G04 APERTURE LIST*
G04 Aperture macros list*
%AMRoundRect*
0 Rectangle with rounded corners*
0 $1 Rounding radius*
0 $2 $3 $4 $5 $6 $7 $8 $9 X,Y pos of 4 corners*
0 Add a 4 corners polygon primitive as box body*
4,1,4,$2,$3,$4,$5,$6,$7,$8,$9,$2,$3,0*
0 Add four circle primitives for the rounded corners*
1,1,$1+$1,$2,$3*
1,1,$1+$1,$4,$5*
1,1,$1+$1,$6,$7*
1,1,$1+$1,$8,$9*
0 Add four rect primitives between the rounded corners*
20,1,$1+$1,$2,$3,$4,$5,0*
20,1,$1+$1,$4,$5,$6,$7,0*
20,1,$1+$1,$6,$7,$8,$9,0*
20,1,$1+$1,$8,$9,$2,$3,0*%
G04 Aperture macros list end*
%ADD10R,0.900000X1.200000*%
%ADD11C,0.650000*%
%ADD12R,1.450000X0.600000*%
%ADD13R,1.450000X0.300000*%
%ADD14O,2.100000X1.000000*%
%ADD15O,1.600000X1.000000*%
%ADD16RoundRect,0.225000X0.250000X-0.225000X0.250000X0.225000X-0.250000X0.225000X-0.250000X-0.225000X0*%
%ADD17RoundRect,0.225000X-0.250000X0.225000X-0.250000X-0.225000X0.250000X-0.225000X0.250000X0.225000X0*%
%ADD18R,2.000000X1.500000*%
%ADD19R,2.000000X3.800000*%
%ADD20RoundRect,0.250000X-0.475000X0.250000X-0.475000X-0.250000X0.475000X-0.250000X0.475000X0.250000X0*%
%ADD21RoundRect,0.218750X0.218750X0.256250X-0.218750X0.256250X-0.218750X-0.256250X0.218750X-0.256250X0*%
%ADD22RoundRect,0.200000X-0.200000X-0.275000X0.200000X-0.275000X0.200000X0.275000X-0.200000X0.275000X0*%
%ADD23C,3.200000*%
%ADD24R,1.700000X1.700000*%
%ADD25C,1.700000*%
%ADD26RoundRect,0.150000X-0.587500X-0.150000X0.587500X-0.150000X0.587500X0.150000X-0.587500X0.150000X0*%
%ADD27RoundRect,0.200000X-0.275000X0.200000X-0.275000X-0.200000X0.275000X-0.200000X0.275000X0.200000X0*%
%ADD28RoundRect,0.200000X0.200000X0.275000X-0.200000X0.275000X-0.200000X-0.275000X0.200000X-0.275000X0*%
%ADD29R,1.000000X1.500000*%
%ADD30R,2.400000X2.000000*%
%ADD31RoundRect,0.075000X-0.662500X-0.075000X0.662500X-0.075000X0.662500X0.075000X-0.662500X0.075000X0*%
%ADD32RoundRect,0.075000X-0.075000X-0.662500X0.075000X-0.662500X0.075000X0.662500X-0.075000X0.662500X0*%
%ADD33RoundRect,0.200000X0.275000X-0.200000X0.275000X0.200000X-0.275000X0.200000X-0.275000X-0.200000X0*%
%ADD34RoundRect,0.150000X0.512500X0.150000X-0.512500X0.150000X-0.512500X-0.150000X0.512500X-0.150000X0*%
G04 APERTURE END LIST*
D10*
%TO.C,D4*%
X68200000Y17780000D03*
X71500000Y17780000D03*
%TD*%
D11*
%TO.C,J1*%
X69790000Y22510000D03*
X69790000Y28290000D03*
D12*
X68345000Y22150000D03*
X68345000Y22950000D03*
D13*
X68345000Y24150000D03*
X68345000Y25150000D03*
X68345000Y25650000D03*
X68345000Y26650000D03*
D12*
X68345000Y27850000D03*
X68345000Y28650000D03*
X68345000Y28650000D03*
X68345000Y27850000D03*
D13*
X68345000Y27150000D03*
X68345000Y26150000D03*
X68345000Y24650000D03*
X68345000Y23650000D03*
D12*
X68345000Y22950000D03*
X68345000Y22150000D03*
D14*
X69260000Y29720000D03*
D15*
X73440000Y29720000D03*
D14*
X69260000Y21080000D03*
D15*
X73440000Y21080000D03*
%TD*%
D16*
%TO.C,C3*%
X41275000Y31610000D03*
X41275000Y33160000D03*
%TD*%
%TO.C,C4*%
X49530000Y31610000D03*
X49530000Y33160000D03*
%TD*%
D17*
%TO.C,C5*%
X37465000Y19190000D03*
X37465000Y17640000D03*
%TD*%
%TO.C,C7*%
X48895000Y19190000D03*
X48895000Y17640000D03*
%TD*%
D18*
%TO.C,U1*%
X66015000Y12940000D03*
X66015000Y15240000D03*
D19*
X59715000Y15240000D03*
D18*
X66015000Y17540000D03*
%TD*%
D20*
%TO.C,C1*%
X68580000Y14920000D03*
X68580000Y13020000D03*
%TD*%
D21*
%TO.C,D1*%
X4597500Y37465000D03*
X3022500Y37465000D03*
%TD*%
D22*
%TO.C,R1*%
X6160000Y37465000D03*
X7810000Y37465000D03*
%TD*%
D16*
%TO.C,C9*%
X32385000Y26530000D03*
X32385000Y28080000D03*
%TD*%
D17*
%TO.C,C10*%
X32385000Y24905000D03*
X32385000Y23355000D03*
%TD*%
D23*
%TO.C,J2*%
X72390000Y3810000D03*
X3810000Y3810000D03*
X72390000Y46990000D03*
X3810000Y46990000D03*
D24*
X13970000Y5080000D03*
D25*
X13970000Y7620000D03*
X16510000Y5080000D03*
X16510000Y7620000D03*
X19050000Y5080000D03*
X19050000Y7620000D03*
X21590000Y5080000D03*
X21590000Y7620000D03*
X24130000Y5080000D03*
X24130000Y7620000D03*
X26670000Y5080000D03*
X26670000Y7620000D03*
X29210000Y5080000D03*
X29210000Y7620000D03*
X31750000Y5080000D03*
X31750000Y7620000D03*
X34290000Y5080000D03*
X34290000Y7620000D03*
X36830000Y5080000D03*
X36830000Y7620000D03*
X39370000Y5080000D03*
X39370000Y7620000D03*
X41910000Y5080000D03*
X41910000Y7620000D03*
X44450000Y5080000D03*
X44450000Y7620000D03*
X46990000Y5080000D03*
X46990000Y7620000D03*
X49530000Y5080000D03*
X49530000Y7620000D03*
X52070000Y5080000D03*
X52070000Y7620000D03*
X54610000Y5080000D03*
X54610000Y7620000D03*
X57150000Y5080000D03*
X57150000Y7620000D03*
X59690000Y5080000D03*
X59690000Y7620000D03*
X62230000Y5080000D03*
X62230000Y7620000D03*
D24*
X62230000Y45720000D03*
D25*
X62230000Y43180000D03*
X59690000Y45720000D03*
X59690000Y43180000D03*
X57150000Y45720000D03*
X57150000Y43180000D03*
X54610000Y45720000D03*
X54610000Y43180000D03*
X52070000Y45720000D03*
X52070000Y43180000D03*
X49530000Y45720000D03*
X49530000Y43180000D03*
X46990000Y45720000D03*
X46990000Y43180000D03*
X44450000Y45720000D03*
X44450000Y43180000D03*
X41910000Y45720000D03*
X41910000Y43180000D03*
X39370000Y45720000D03*
X39370000Y43180000D03*
X36830000Y45720000D03*
X36830000Y43180000D03*
X34290000Y45720000D03*
X34290000Y43180000D03*
X31750000Y45720000D03*
X31750000Y43180000D03*
X29210000Y45720000D03*
X29210000Y43180000D03*
X26670000Y45720000D03*
X26670000Y43180000D03*
X24130000Y45720000D03*
X24130000Y43180000D03*
X21590000Y45720000D03*
X21590000Y43180000D03*
X19050000Y45720000D03*
X19050000Y43180000D03*
X16510000Y45720000D03*
X16510000Y43180000D03*
X13970000Y45720000D03*
X13970000Y43180000D03*
%TD*%
D17*
%TO.C,C2*%
X55245000Y14745000D03*
X55245000Y13195000D03*
%TD*%
D20*
%TO.C,C6*%
X57150000Y14920000D03*
X57150000Y13020000D03*
%TD*%
D21*
%TO.C,D3*%
X4597500Y35560000D03*
X3022500Y35560000D03*
%TD*%
D26*
%TO.C,Q1*%
X67642500Y35875000D03*
X67642500Y33975000D03*
X69517500Y34925000D03*
%TD*%
D27*
%TO.C,R16*%
X50800000Y19240000D03*
X50800000Y17590000D03*
%TD*%
D28*
%TO.C,R2*%
X7810000Y33655000D03*
X6160000Y33655000D03*
%TD*%
D22*
%TO.C,R3*%
X6160000Y35560000D03*
X7810000Y35560000D03*
%TD*%
D29*
%TO.C,JP1*%
X8270000Y26670000D03*
X6970000Y26670000D03*
%TD*%
%TO.C,JP2*%
X8270000Y24130000D03*
X6970000Y24130000D03*
%TD*%
%TO.C,JP3*%
X8270000Y21590000D03*
X6970000Y21590000D03*
%TD*%
%TO.C,JP4*%
X8270000Y19050000D03*
X6970000Y19050000D03*
%TD*%
%TO.C,JP5*%
X17130000Y26670000D03*
X18430000Y26670000D03*
%TD*%
%TO.C,JP6*%
X17130000Y24130000D03*
X18430000Y24130000D03*
%TD*%
%TO.C,JP7*%
X17130000Y21590000D03*
X18430000Y21590000D03*
%TD*%
%TO.C,JP8*%
X17130000Y19050000D03*
X18430000Y19050000D03*
%TD*%
D21*
%TO.C,D2*%
X4597500Y33655000D03*
X3022500Y33655000D03*
%TD*%
D27*
%TO.C,R15*%
X37465000Y33210000D03*
X37465000Y31560000D03*
%TD*%
D30*
%TO.C,Y1*%
X35560000Y27885000D03*
X35560000Y24185000D03*
%TD*%
D31*
%TO.C,U2*%
X40922500Y28150000D03*
X40922500Y27650000D03*
X40922500Y27150000D03*
X40922500Y26650000D03*
X40922500Y26150000D03*
X40922500Y25650000D03*
X40922500Y25150000D03*
X40922500Y24650000D03*
X40922500Y24150000D03*
X40922500Y23650000D03*
X40922500Y23150000D03*
X40922500Y22650000D03*
D32*
X42335000Y21237500D03*
X42835000Y21237500D03*
X43335000Y21237500D03*
X43835000Y21237500D03*
X44335000Y21237500D03*
X44835000Y21237500D03*
X45335000Y21237500D03*
X45835000Y21237500D03*
X46335000Y21237500D03*
X46835000Y21237500D03*
X47335000Y21237500D03*
X47835000Y21237500D03*
D31*
X49247500Y22650000D03*
X49247500Y23150000D03*
X49247500Y23650000D03*
X49247500Y24150000D03*
X49247500Y24650000D03*
X49247500Y25150000D03*
X49247500Y25650000D03*
X49247500Y26150000D03*
X49247500Y26650000D03*
X49247500Y27150000D03*
X49247500Y27650000D03*
X49247500Y28150000D03*
D32*
X47835000Y29562500D03*
X47335000Y29562500D03*
X46835000Y29562500D03*
X46335000Y29562500D03*
X45835000Y29562500D03*
X45335000Y29562500D03*
X44835000Y29562500D03*
X44335000Y29562500D03*
X43835000Y29562500D03*
X43335000Y29562500D03*
X42835000Y29562500D03*
X42335000Y29562500D03*
%TD*%
D17*
%TO.C,C8*%
X33655000Y19190000D03*
X33655000Y17640000D03*
%TD*%
D33*
%TO.C,R11*%
X35560000Y17590000D03*
X35560000Y19240000D03*
%TD*%
D27*
%TO.C,R7*%
X65405000Y35750000D03*
X65405000Y34100000D03*
%TD*%
D33*
%TO.C,R8*%
X63500000Y34100000D03*
X63500000Y35750000D03*
%TD*%
%TO.C,R13*%
X43180000Y31560000D03*
X43180000Y33210000D03*
%TD*%
D27*
%TO.C,R12*%
X61595000Y35750000D03*
X61595000Y34100000D03*
%TD*%
D33*
%TO.C,R14*%
X39370000Y31560000D03*
X39370000Y33210000D03*
%TD*%
%TO.C,R17*%
X39370000Y17590000D03*
X39370000Y19240000D03*
%TD*%
D27*
%TO.C,R18*%
X41275000Y19240000D03*
X41275000Y17590000D03*
%TD*%
D34*
%TO.C,U3*%
X65145500Y23942000D03*
X65145500Y24892000D03*
X65145500Y25842000D03*
X62870500Y25842000D03*
X62870500Y24892000D03*
X62870500Y23942000D03*
%TD*%
D22*
%TO.C,R4*%
X59500000Y22225000D03*
X61150000Y22225000D03*
%TD*%
%TO.C,R10*%
X59500000Y26035000D03*
X61150000Y26035000D03*
%TD*%
%TO.C,R9*%
X59500000Y24130000D03*
X61150000Y24130000D03*
%TD*%
%TO.C,R6*%
X59500000Y29845000D03*
X61150000Y29845000D03*
%TD*%
%TO.C,R5*%
X59500000Y27940000D03*
X61150000Y27940000D03*
%TD*%
D29*
%TO.C,JP9*%
X52690000Y34290000D03*
X53990000Y34290000D03*
%TD*%
%TO.C,JP10*%
X52690000Y31750000D03*
X53990000Y31750000D03*
%TD*%
M02*
