%TF.GenerationSoftware,KiCad,Pcbnew,9.0.2+dfsg-1*%
%TF.CreationDate,2025-07-10T18:44:12+08:00*%
%TF.ProjectId,bp,62702e6b-6963-4616-945f-706362585858,rev?*%
%TF.SameCoordinates,Original*%
%TF.FileFunction,Legend,Top*%
%TF.FilePolarity,Positive*%
%FSLAX46Y46*%
G04 Gerber Fmt 4.6, Leading zero omitted, Abs format (unit mm)*
G04 Created by KiCad (PCBNEW 9.0.2+dfsg-1) date 2025-07-10 18:44:12*
%MOMM*%
%LPD*%
G01*
G04 APERTURE LIST*
%ADD10C,0.150000*%
%ADD11C,0.200000*%
%ADD12C,0.250000*%
%ADD13C,0.120000*%
G04 APERTURE END LIST*
D10*
X100589160Y-41622200D02*
X100732017Y-41669819D01*
X100732017Y-41669819D02*
X100970112Y-41669819D01*
X100970112Y-41669819D02*
X101065350Y-41622200D01*
X101065350Y-41622200D02*
X101112969Y-41574580D01*
X101112969Y-41574580D02*
X101160588Y-41479342D01*
X101160588Y-41479342D02*
X101160588Y-41384104D01*
X101160588Y-41384104D02*
X101112969Y-41288866D01*
X101112969Y-41288866D02*
X101065350Y-41241247D01*
X101065350Y-41241247D02*
X100970112Y-41193628D01*
X100970112Y-41193628D02*
X100779636Y-41146009D01*
X100779636Y-41146009D02*
X100684398Y-41098390D01*
X100684398Y-41098390D02*
X100636779Y-41050771D01*
X100636779Y-41050771D02*
X100589160Y-40955533D01*
X100589160Y-40955533D02*
X100589160Y-40860295D01*
X100589160Y-40860295D02*
X100636779Y-40765057D01*
X100636779Y-40765057D02*
X100684398Y-40717438D01*
X100684398Y-40717438D02*
X100779636Y-40669819D01*
X100779636Y-40669819D02*
X101017731Y-40669819D01*
X101017731Y-40669819D02*
X101160588Y-40717438D01*
X101446303Y-40669819D02*
X102017731Y-40669819D01*
X101732017Y-41669819D02*
X101732017Y-40669819D01*
X102351065Y-41669819D02*
X102351065Y-40669819D01*
X102351065Y-40669819D02*
X102684398Y-41384104D01*
X102684398Y-41384104D02*
X103017731Y-40669819D01*
X103017731Y-40669819D02*
X103017731Y-41669819D01*
X103398684Y-40669819D02*
X104017731Y-40669819D01*
X104017731Y-40669819D02*
X103684398Y-41050771D01*
X103684398Y-41050771D02*
X103827255Y-41050771D01*
X103827255Y-41050771D02*
X103922493Y-41098390D01*
X103922493Y-41098390D02*
X103970112Y-41146009D01*
X103970112Y-41146009D02*
X104017731Y-41241247D01*
X104017731Y-41241247D02*
X104017731Y-41479342D01*
X104017731Y-41479342D02*
X103970112Y-41574580D01*
X103970112Y-41574580D02*
X103922493Y-41622200D01*
X103922493Y-41622200D02*
X103827255Y-41669819D01*
X103827255Y-41669819D02*
X103541541Y-41669819D01*
X103541541Y-41669819D02*
X103446303Y-41622200D01*
X103446303Y-41622200D02*
X103398684Y-41574580D01*
X104398684Y-40765057D02*
X104446303Y-40717438D01*
X104446303Y-40717438D02*
X104541541Y-40669819D01*
X104541541Y-40669819D02*
X104779636Y-40669819D01*
X104779636Y-40669819D02*
X104874874Y-40717438D01*
X104874874Y-40717438D02*
X104922493Y-40765057D01*
X104922493Y-40765057D02*
X104970112Y-40860295D01*
X104970112Y-40860295D02*
X104970112Y-40955533D01*
X104970112Y-40955533D02*
X104922493Y-41098390D01*
X104922493Y-41098390D02*
X104351065Y-41669819D01*
X104351065Y-41669819D02*
X104970112Y-41669819D01*
X105303446Y-40669819D02*
X105541541Y-41669819D01*
X105541541Y-41669819D02*
X105732017Y-40955533D01*
X105732017Y-40955533D02*
X105922493Y-41669819D01*
X105922493Y-41669819D02*
X106160589Y-40669819D01*
X106684398Y-41669819D02*
X106589160Y-41622200D01*
X106589160Y-41622200D02*
X106541541Y-41574580D01*
X106541541Y-41574580D02*
X106493922Y-41479342D01*
X106493922Y-41479342D02*
X106493922Y-41193628D01*
X106493922Y-41193628D02*
X106541541Y-41098390D01*
X106541541Y-41098390D02*
X106589160Y-41050771D01*
X106589160Y-41050771D02*
X106684398Y-41003152D01*
X106684398Y-41003152D02*
X106827255Y-41003152D01*
X106827255Y-41003152D02*
X106922493Y-41050771D01*
X106922493Y-41050771D02*
X106970112Y-41098390D01*
X106970112Y-41098390D02*
X107017731Y-41193628D01*
X107017731Y-41193628D02*
X107017731Y-41479342D01*
X107017731Y-41479342D02*
X106970112Y-41574580D01*
X106970112Y-41574580D02*
X106922493Y-41622200D01*
X106922493Y-41622200D02*
X106827255Y-41669819D01*
X106827255Y-41669819D02*
X106684398Y-41669819D01*
X107446303Y-41669819D02*
X107446303Y-41003152D01*
X107446303Y-41193628D02*
X107493922Y-41098390D01*
X107493922Y-41098390D02*
X107541541Y-41050771D01*
X107541541Y-41050771D02*
X107636779Y-41003152D01*
X107636779Y-41003152D02*
X107732017Y-41003152D01*
X108208208Y-41669819D02*
X108112970Y-41622200D01*
X108112970Y-41622200D02*
X108065351Y-41526961D01*
X108065351Y-41526961D02*
X108065351Y-40669819D01*
X109017732Y-41669819D02*
X109017732Y-40669819D01*
X109017732Y-41622200D02*
X108922494Y-41669819D01*
X108922494Y-41669819D02*
X108732018Y-41669819D01*
X108732018Y-41669819D02*
X108636780Y-41622200D01*
X108636780Y-41622200D02*
X108589161Y-41574580D01*
X108589161Y-41574580D02*
X108541542Y-41479342D01*
X108541542Y-41479342D02*
X108541542Y-41193628D01*
X108541542Y-41193628D02*
X108589161Y-41098390D01*
X108589161Y-41098390D02*
X108636780Y-41050771D01*
X108636780Y-41050771D02*
X108732018Y-41003152D01*
X108732018Y-41003152D02*
X108922494Y-41003152D01*
X108922494Y-41003152D02*
X109017732Y-41050771D01*
X110208209Y-41622200D02*
X110351066Y-41669819D01*
X110351066Y-41669819D02*
X110589161Y-41669819D01*
X110589161Y-41669819D02*
X110684399Y-41622200D01*
X110684399Y-41622200D02*
X110732018Y-41574580D01*
X110732018Y-41574580D02*
X110779637Y-41479342D01*
X110779637Y-41479342D02*
X110779637Y-41384104D01*
X110779637Y-41384104D02*
X110732018Y-41288866D01*
X110732018Y-41288866D02*
X110684399Y-41241247D01*
X110684399Y-41241247D02*
X110589161Y-41193628D01*
X110589161Y-41193628D02*
X110398685Y-41146009D01*
X110398685Y-41146009D02*
X110303447Y-41098390D01*
X110303447Y-41098390D02*
X110255828Y-41050771D01*
X110255828Y-41050771D02*
X110208209Y-40955533D01*
X110208209Y-40955533D02*
X110208209Y-40860295D01*
X110208209Y-40860295D02*
X110255828Y-40765057D01*
X110255828Y-40765057D02*
X110303447Y-40717438D01*
X110303447Y-40717438D02*
X110398685Y-40669819D01*
X110398685Y-40669819D02*
X110636780Y-40669819D01*
X110636780Y-40669819D02*
X110779637Y-40717438D01*
X111065352Y-40669819D02*
X111636780Y-40669819D01*
X111351066Y-41669819D02*
X111351066Y-40669819D01*
X111970114Y-41669819D02*
X111970114Y-40669819D01*
X111970114Y-40669819D02*
X112303447Y-41384104D01*
X112303447Y-41384104D02*
X112636780Y-40669819D01*
X112636780Y-40669819D02*
X112636780Y-41669819D01*
X113017733Y-40669819D02*
X113255828Y-41669819D01*
X113255828Y-41669819D02*
X113446304Y-40955533D01*
X113446304Y-40955533D02*
X113636780Y-41669819D01*
X113636780Y-41669819D02*
X113874876Y-40669819D01*
X114255828Y-41288866D02*
X115017733Y-41288866D01*
X115827256Y-41146009D02*
X115970113Y-41193628D01*
X115970113Y-41193628D02*
X116017732Y-41241247D01*
X116017732Y-41241247D02*
X116065351Y-41336485D01*
X116065351Y-41336485D02*
X116065351Y-41479342D01*
X116065351Y-41479342D02*
X116017732Y-41574580D01*
X116017732Y-41574580D02*
X115970113Y-41622200D01*
X115970113Y-41622200D02*
X115874875Y-41669819D01*
X115874875Y-41669819D02*
X115493923Y-41669819D01*
X115493923Y-41669819D02*
X115493923Y-40669819D01*
X115493923Y-40669819D02*
X115827256Y-40669819D01*
X115827256Y-40669819D02*
X115922494Y-40717438D01*
X115922494Y-40717438D02*
X115970113Y-40765057D01*
X115970113Y-40765057D02*
X116017732Y-40860295D01*
X116017732Y-40860295D02*
X116017732Y-40955533D01*
X116017732Y-40955533D02*
X115970113Y-41050771D01*
X115970113Y-41050771D02*
X115922494Y-41098390D01*
X115922494Y-41098390D02*
X115827256Y-41146009D01*
X115827256Y-41146009D02*
X115493923Y-41146009D01*
X116493923Y-41669819D02*
X116493923Y-40669819D01*
X116493923Y-40669819D02*
X116874875Y-40669819D01*
X116874875Y-40669819D02*
X116970113Y-40717438D01*
X116970113Y-40717438D02*
X117017732Y-40765057D01*
X117017732Y-40765057D02*
X117065351Y-40860295D01*
X117065351Y-40860295D02*
X117065351Y-41003152D01*
X117065351Y-41003152D02*
X117017732Y-41098390D01*
X117017732Y-41098390D02*
X116970113Y-41146009D01*
X116970113Y-41146009D02*
X116874875Y-41193628D01*
X116874875Y-41193628D02*
X116493923Y-41193628D01*
X117493923Y-41288866D02*
X118255828Y-41288866D01*
X119160589Y-40669819D02*
X118970113Y-40669819D01*
X118970113Y-40669819D02*
X118874875Y-40717438D01*
X118874875Y-40717438D02*
X118827256Y-40765057D01*
X118827256Y-40765057D02*
X118732018Y-40907914D01*
X118732018Y-40907914D02*
X118684399Y-41098390D01*
X118684399Y-41098390D02*
X118684399Y-41479342D01*
X118684399Y-41479342D02*
X118732018Y-41574580D01*
X118732018Y-41574580D02*
X118779637Y-41622200D01*
X118779637Y-41622200D02*
X118874875Y-41669819D01*
X118874875Y-41669819D02*
X119065351Y-41669819D01*
X119065351Y-41669819D02*
X119160589Y-41622200D01*
X119160589Y-41622200D02*
X119208208Y-41574580D01*
X119208208Y-41574580D02*
X119255827Y-41479342D01*
X119255827Y-41479342D02*
X119255827Y-41241247D01*
X119255827Y-41241247D02*
X119208208Y-41146009D01*
X119208208Y-41146009D02*
X119160589Y-41098390D01*
X119160589Y-41098390D02*
X119065351Y-41050771D01*
X119065351Y-41050771D02*
X118874875Y-41050771D01*
X118874875Y-41050771D02*
X118779637Y-41098390D01*
X118779637Y-41098390D02*
X118732018Y-41146009D01*
X118732018Y-41146009D02*
X118684399Y-41241247D01*
X119732018Y-41622200D02*
X119732018Y-41669819D01*
X119732018Y-41669819D02*
X119684399Y-41765057D01*
X119684399Y-41765057D02*
X119636780Y-41812676D01*
X120922494Y-41669819D02*
X120922494Y-41003152D01*
X120922494Y-41193628D02*
X120970113Y-41098390D01*
X120970113Y-41098390D02*
X121017732Y-41050771D01*
X121017732Y-41050771D02*
X121112970Y-41003152D01*
X121112970Y-41003152D02*
X121208208Y-41003152D01*
X121922494Y-41622200D02*
X121827256Y-41669819D01*
X121827256Y-41669819D02*
X121636780Y-41669819D01*
X121636780Y-41669819D02*
X121541542Y-41622200D01*
X121541542Y-41622200D02*
X121493923Y-41526961D01*
X121493923Y-41526961D02*
X121493923Y-41146009D01*
X121493923Y-41146009D02*
X121541542Y-41050771D01*
X121541542Y-41050771D02*
X121636780Y-41003152D01*
X121636780Y-41003152D02*
X121827256Y-41003152D01*
X121827256Y-41003152D02*
X121922494Y-41050771D01*
X121922494Y-41050771D02*
X121970113Y-41146009D01*
X121970113Y-41146009D02*
X121970113Y-41241247D01*
X121970113Y-41241247D02*
X121493923Y-41336485D01*
X122303447Y-41003152D02*
X122541542Y-41669819D01*
X122541542Y-41669819D02*
X122779637Y-41003152D01*
X123160590Y-41574580D02*
X123208209Y-41622200D01*
X123208209Y-41622200D02*
X123160590Y-41669819D01*
X123160590Y-41669819D02*
X123112971Y-41622200D01*
X123112971Y-41622200D02*
X123160590Y-41574580D01*
X123160590Y-41574580D02*
X123160590Y-41669819D01*
X124827256Y-41669819D02*
X124827256Y-41146009D01*
X124827256Y-41146009D02*
X124779637Y-41050771D01*
X124779637Y-41050771D02*
X124684399Y-41003152D01*
X124684399Y-41003152D02*
X124493923Y-41003152D01*
X124493923Y-41003152D02*
X124398685Y-41050771D01*
X124827256Y-41622200D02*
X124732018Y-41669819D01*
X124732018Y-41669819D02*
X124493923Y-41669819D01*
X124493923Y-41669819D02*
X124398685Y-41622200D01*
X124398685Y-41622200D02*
X124351066Y-41526961D01*
X124351066Y-41526961D02*
X124351066Y-41431723D01*
X124351066Y-41431723D02*
X124398685Y-41336485D01*
X124398685Y-41336485D02*
X124493923Y-41288866D01*
X124493923Y-41288866D02*
X124732018Y-41288866D01*
X124732018Y-41288866D02*
X124827256Y-41241247D01*
X168954819Y-74261904D02*
X169764342Y-74261904D01*
X169764342Y-74261904D02*
X169859580Y-74214285D01*
X169859580Y-74214285D02*
X169907200Y-74166666D01*
X169907200Y-74166666D02*
X169954819Y-74071428D01*
X169954819Y-74071428D02*
X169954819Y-73880952D01*
X169954819Y-73880952D02*
X169907200Y-73785714D01*
X169907200Y-73785714D02*
X169859580Y-73738095D01*
X169859580Y-73738095D02*
X169764342Y-73690476D01*
X169764342Y-73690476D02*
X168954819Y-73690476D01*
X168954819Y-72785714D02*
X168954819Y-72976190D01*
X168954819Y-72976190D02*
X169002438Y-73071428D01*
X169002438Y-73071428D02*
X169050057Y-73119047D01*
X169050057Y-73119047D02*
X169192914Y-73214285D01*
X169192914Y-73214285D02*
X169383390Y-73261904D01*
X169383390Y-73261904D02*
X169764342Y-73261904D01*
X169764342Y-73261904D02*
X169859580Y-73214285D01*
X169859580Y-73214285D02*
X169907200Y-73166666D01*
X169907200Y-73166666D02*
X169954819Y-73071428D01*
X169954819Y-73071428D02*
X169954819Y-72880952D01*
X169954819Y-72880952D02*
X169907200Y-72785714D01*
X169907200Y-72785714D02*
X169859580Y-72738095D01*
X169859580Y-72738095D02*
X169764342Y-72690476D01*
X169764342Y-72690476D02*
X169526247Y-72690476D01*
X169526247Y-72690476D02*
X169431009Y-72738095D01*
X169431009Y-72738095D02*
X169383390Y-72785714D01*
X169383390Y-72785714D02*
X169335771Y-72880952D01*
X169335771Y-72880952D02*
X169335771Y-73071428D01*
X169335771Y-73071428D02*
X169383390Y-73166666D01*
X169383390Y-73166666D02*
X169431009Y-73214285D01*
X169431009Y-73214285D02*
X169526247Y-73261904D01*
D11*
X170615383Y-98958422D02*
X170712050Y-98668422D01*
X170712050Y-98668422D02*
X170808716Y-98571755D01*
X170808716Y-98571755D02*
X171002050Y-98475088D01*
X171002050Y-98475088D02*
X171292050Y-98475088D01*
X171292050Y-98475088D02*
X171485383Y-98571755D01*
X171485383Y-98571755D02*
X171582050Y-98668422D01*
X171582050Y-98668422D02*
X171678716Y-98861755D01*
X171678716Y-98861755D02*
X171678716Y-99635088D01*
X171678716Y-99635088D02*
X169648716Y-99635088D01*
X169648716Y-99635088D02*
X169648716Y-98958422D01*
X169648716Y-98958422D02*
X169745383Y-98765088D01*
X169745383Y-98765088D02*
X169842050Y-98668422D01*
X169842050Y-98668422D02*
X170035383Y-98571755D01*
X170035383Y-98571755D02*
X170228716Y-98571755D01*
X170228716Y-98571755D02*
X170422050Y-98668422D01*
X170422050Y-98668422D02*
X170518716Y-98765088D01*
X170518716Y-98765088D02*
X170615383Y-98958422D01*
X170615383Y-98958422D02*
X170615383Y-99635088D01*
X168598716Y-99481755D02*
X168598716Y-98515088D01*
X169178716Y-99675088D02*
X167148716Y-98998422D01*
X167148716Y-98998422D02*
X169178716Y-98321755D01*
D10*
X132954819Y-74261904D02*
X133764342Y-74261904D01*
X133764342Y-74261904D02*
X133859580Y-74214285D01*
X133859580Y-74214285D02*
X133907200Y-74166666D01*
X133907200Y-74166666D02*
X133954819Y-74071428D01*
X133954819Y-74071428D02*
X133954819Y-73880952D01*
X133954819Y-73880952D02*
X133907200Y-73785714D01*
X133907200Y-73785714D02*
X133859580Y-73738095D01*
X133859580Y-73738095D02*
X133764342Y-73690476D01*
X133764342Y-73690476D02*
X132954819Y-73690476D01*
X132954819Y-73309523D02*
X132954819Y-72690476D01*
X132954819Y-72690476D02*
X133335771Y-73023809D01*
X133335771Y-73023809D02*
X133335771Y-72880952D01*
X133335771Y-72880952D02*
X133383390Y-72785714D01*
X133383390Y-72785714D02*
X133431009Y-72738095D01*
X133431009Y-72738095D02*
X133526247Y-72690476D01*
X133526247Y-72690476D02*
X133764342Y-72690476D01*
X133764342Y-72690476D02*
X133859580Y-72738095D01*
X133859580Y-72738095D02*
X133907200Y-72785714D01*
X133907200Y-72785714D02*
X133954819Y-72880952D01*
X133954819Y-72880952D02*
X133954819Y-73166666D01*
X133954819Y-73166666D02*
X133907200Y-73261904D01*
X133907200Y-73261904D02*
X133859580Y-73309523D01*
D11*
X134615383Y-98958422D02*
X134712050Y-98668422D01*
X134712050Y-98668422D02*
X134808716Y-98571755D01*
X134808716Y-98571755D02*
X135002050Y-98475088D01*
X135002050Y-98475088D02*
X135292050Y-98475088D01*
X135292050Y-98475088D02*
X135485383Y-98571755D01*
X135485383Y-98571755D02*
X135582050Y-98668422D01*
X135582050Y-98668422D02*
X135678716Y-98861755D01*
X135678716Y-98861755D02*
X135678716Y-99635088D01*
X135678716Y-99635088D02*
X133648716Y-99635088D01*
X133648716Y-99635088D02*
X133648716Y-98958422D01*
X133648716Y-98958422D02*
X133745383Y-98765088D01*
X133745383Y-98765088D02*
X133842050Y-98668422D01*
X133842050Y-98668422D02*
X134035383Y-98571755D01*
X134035383Y-98571755D02*
X134228716Y-98571755D01*
X134228716Y-98571755D02*
X134422050Y-98668422D01*
X134422050Y-98668422D02*
X134518716Y-98765088D01*
X134518716Y-98765088D02*
X134615383Y-98958422D01*
X134615383Y-98958422D02*
X134615383Y-99635088D01*
X132598716Y-99481755D02*
X132598716Y-98515088D01*
X133178716Y-99675088D02*
X131148716Y-98998422D01*
X131148716Y-98998422D02*
X133178716Y-98321755D01*
D10*
X156954819Y-74261904D02*
X157764342Y-74261904D01*
X157764342Y-74261904D02*
X157859580Y-74214285D01*
X157859580Y-74214285D02*
X157907200Y-74166666D01*
X157907200Y-74166666D02*
X157954819Y-74071428D01*
X157954819Y-74071428D02*
X157954819Y-73880952D01*
X157954819Y-73880952D02*
X157907200Y-73785714D01*
X157907200Y-73785714D02*
X157859580Y-73738095D01*
X157859580Y-73738095D02*
X157764342Y-73690476D01*
X157764342Y-73690476D02*
X156954819Y-73690476D01*
X156954819Y-72738095D02*
X156954819Y-73214285D01*
X156954819Y-73214285D02*
X157431009Y-73261904D01*
X157431009Y-73261904D02*
X157383390Y-73214285D01*
X157383390Y-73214285D02*
X157335771Y-73119047D01*
X157335771Y-73119047D02*
X157335771Y-72880952D01*
X157335771Y-72880952D02*
X157383390Y-72785714D01*
X157383390Y-72785714D02*
X157431009Y-72738095D01*
X157431009Y-72738095D02*
X157526247Y-72690476D01*
X157526247Y-72690476D02*
X157764342Y-72690476D01*
X157764342Y-72690476D02*
X157859580Y-72738095D01*
X157859580Y-72738095D02*
X157907200Y-72785714D01*
X157907200Y-72785714D02*
X157954819Y-72880952D01*
X157954819Y-72880952D02*
X157954819Y-73119047D01*
X157954819Y-73119047D02*
X157907200Y-73214285D01*
X157907200Y-73214285D02*
X157859580Y-73261904D01*
D11*
X156598716Y-99481755D02*
X156598716Y-98515088D01*
X157178716Y-99675088D02*
X155148716Y-98998422D01*
X155148716Y-98998422D02*
X157178716Y-98321755D01*
X158615383Y-98958422D02*
X158712050Y-98668422D01*
X158712050Y-98668422D02*
X158808716Y-98571755D01*
X158808716Y-98571755D02*
X159002050Y-98475088D01*
X159002050Y-98475088D02*
X159292050Y-98475088D01*
X159292050Y-98475088D02*
X159485383Y-98571755D01*
X159485383Y-98571755D02*
X159582050Y-98668422D01*
X159582050Y-98668422D02*
X159678716Y-98861755D01*
X159678716Y-98861755D02*
X159678716Y-99635088D01*
X159678716Y-99635088D02*
X157648716Y-99635088D01*
X157648716Y-99635088D02*
X157648716Y-98958422D01*
X157648716Y-98958422D02*
X157745383Y-98765088D01*
X157745383Y-98765088D02*
X157842050Y-98668422D01*
X157842050Y-98668422D02*
X158035383Y-98571755D01*
X158035383Y-98571755D02*
X158228716Y-98571755D01*
X158228716Y-98571755D02*
X158422050Y-98668422D01*
X158422050Y-98668422D02*
X158518716Y-98765088D01*
X158518716Y-98765088D02*
X158615383Y-98958422D01*
X158615383Y-98958422D02*
X158615383Y-99635088D01*
D10*
X108954819Y-74261904D02*
X109764342Y-74261904D01*
X109764342Y-74261904D02*
X109859580Y-74214285D01*
X109859580Y-74214285D02*
X109907200Y-74166666D01*
X109907200Y-74166666D02*
X109954819Y-74071428D01*
X109954819Y-74071428D02*
X109954819Y-73880952D01*
X109954819Y-73880952D02*
X109907200Y-73785714D01*
X109907200Y-73785714D02*
X109859580Y-73738095D01*
X109859580Y-73738095D02*
X109764342Y-73690476D01*
X109764342Y-73690476D02*
X108954819Y-73690476D01*
X109954819Y-72690476D02*
X109954819Y-73261904D01*
X109954819Y-72976190D02*
X108954819Y-72976190D01*
X108954819Y-72976190D02*
X109097676Y-73071428D01*
X109097676Y-73071428D02*
X109192914Y-73166666D01*
X109192914Y-73166666D02*
X109240533Y-73261904D01*
D11*
X110615383Y-98958422D02*
X110712050Y-98668422D01*
X110712050Y-98668422D02*
X110808716Y-98571755D01*
X110808716Y-98571755D02*
X111002050Y-98475088D01*
X111002050Y-98475088D02*
X111292050Y-98475088D01*
X111292050Y-98475088D02*
X111485383Y-98571755D01*
X111485383Y-98571755D02*
X111582050Y-98668422D01*
X111582050Y-98668422D02*
X111678716Y-98861755D01*
X111678716Y-98861755D02*
X111678716Y-99635088D01*
X111678716Y-99635088D02*
X109648716Y-99635088D01*
X109648716Y-99635088D02*
X109648716Y-98958422D01*
X109648716Y-98958422D02*
X109745383Y-98765088D01*
X109745383Y-98765088D02*
X109842050Y-98668422D01*
X109842050Y-98668422D02*
X110035383Y-98571755D01*
X110035383Y-98571755D02*
X110228716Y-98571755D01*
X110228716Y-98571755D02*
X110422050Y-98668422D01*
X110422050Y-98668422D02*
X110518716Y-98765088D01*
X110518716Y-98765088D02*
X110615383Y-98958422D01*
X110615383Y-98958422D02*
X110615383Y-99635088D01*
X108598716Y-99481755D02*
X108598716Y-98515088D01*
X109178716Y-99675088D02*
X107148716Y-98998422D01*
X107148716Y-98998422D02*
X109178716Y-98321755D01*
D10*
X120954819Y-74261904D02*
X121764342Y-74261904D01*
X121764342Y-74261904D02*
X121859580Y-74214285D01*
X121859580Y-74214285D02*
X121907200Y-74166666D01*
X121907200Y-74166666D02*
X121954819Y-74071428D01*
X121954819Y-74071428D02*
X121954819Y-73880952D01*
X121954819Y-73880952D02*
X121907200Y-73785714D01*
X121907200Y-73785714D02*
X121859580Y-73738095D01*
X121859580Y-73738095D02*
X121764342Y-73690476D01*
X121764342Y-73690476D02*
X120954819Y-73690476D01*
X121050057Y-73261904D02*
X121002438Y-73214285D01*
X121002438Y-73214285D02*
X120954819Y-73119047D01*
X120954819Y-73119047D02*
X120954819Y-72880952D01*
X120954819Y-72880952D02*
X121002438Y-72785714D01*
X121002438Y-72785714D02*
X121050057Y-72738095D01*
X121050057Y-72738095D02*
X121145295Y-72690476D01*
X121145295Y-72690476D02*
X121240533Y-72690476D01*
X121240533Y-72690476D02*
X121383390Y-72738095D01*
X121383390Y-72738095D02*
X121954819Y-73309523D01*
X121954819Y-73309523D02*
X121954819Y-72690476D01*
D11*
X120598716Y-99481755D02*
X120598716Y-98515088D01*
X121178716Y-99675088D02*
X119148716Y-98998422D01*
X119148716Y-98998422D02*
X121178716Y-98321755D01*
X122615383Y-98958422D02*
X122712050Y-98668422D01*
X122712050Y-98668422D02*
X122808716Y-98571755D01*
X122808716Y-98571755D02*
X123002050Y-98475088D01*
X123002050Y-98475088D02*
X123292050Y-98475088D01*
X123292050Y-98475088D02*
X123485383Y-98571755D01*
X123485383Y-98571755D02*
X123582050Y-98668422D01*
X123582050Y-98668422D02*
X123678716Y-98861755D01*
X123678716Y-98861755D02*
X123678716Y-99635088D01*
X123678716Y-99635088D02*
X121648716Y-99635088D01*
X121648716Y-99635088D02*
X121648716Y-98958422D01*
X121648716Y-98958422D02*
X121745383Y-98765088D01*
X121745383Y-98765088D02*
X121842050Y-98668422D01*
X121842050Y-98668422D02*
X122035383Y-98571755D01*
X122035383Y-98571755D02*
X122228716Y-98571755D01*
X122228716Y-98571755D02*
X122422050Y-98668422D01*
X122422050Y-98668422D02*
X122518716Y-98765088D01*
X122518716Y-98765088D02*
X122615383Y-98958422D01*
X122615383Y-98958422D02*
X122615383Y-99635088D01*
D10*
X144954819Y-74261904D02*
X145764342Y-74261904D01*
X145764342Y-74261904D02*
X145859580Y-74214285D01*
X145859580Y-74214285D02*
X145907200Y-74166666D01*
X145907200Y-74166666D02*
X145954819Y-74071428D01*
X145954819Y-74071428D02*
X145954819Y-73880952D01*
X145954819Y-73880952D02*
X145907200Y-73785714D01*
X145907200Y-73785714D02*
X145859580Y-73738095D01*
X145859580Y-73738095D02*
X145764342Y-73690476D01*
X145764342Y-73690476D02*
X144954819Y-73690476D01*
X145288152Y-72785714D02*
X145954819Y-72785714D01*
X144907200Y-73023809D02*
X145621485Y-73261904D01*
X145621485Y-73261904D02*
X145621485Y-72642857D01*
D11*
X146615383Y-98958422D02*
X146712050Y-98668422D01*
X146712050Y-98668422D02*
X146808716Y-98571755D01*
X146808716Y-98571755D02*
X147002050Y-98475088D01*
X147002050Y-98475088D02*
X147292050Y-98475088D01*
X147292050Y-98475088D02*
X147485383Y-98571755D01*
X147485383Y-98571755D02*
X147582050Y-98668422D01*
X147582050Y-98668422D02*
X147678716Y-98861755D01*
X147678716Y-98861755D02*
X147678716Y-99635088D01*
X147678716Y-99635088D02*
X145648716Y-99635088D01*
X145648716Y-99635088D02*
X145648716Y-98958422D01*
X145648716Y-98958422D02*
X145745383Y-98765088D01*
X145745383Y-98765088D02*
X145842050Y-98668422D01*
X145842050Y-98668422D02*
X146035383Y-98571755D01*
X146035383Y-98571755D02*
X146228716Y-98571755D01*
X146228716Y-98571755D02*
X146422050Y-98668422D01*
X146422050Y-98668422D02*
X146518716Y-98765088D01*
X146518716Y-98765088D02*
X146615383Y-98958422D01*
X146615383Y-98958422D02*
X146615383Y-99635088D01*
X144598716Y-99481755D02*
X144598716Y-98515088D01*
X145178716Y-99675088D02*
X143148716Y-98998422D01*
X143148716Y-98998422D02*
X145178716Y-98321755D01*
D12*
%TO.C,U6*%
X165800000Y-45500000D02*
X166500000Y-45500000D01*
X165800000Y-47920000D02*
X165800000Y-45500000D01*
X165800000Y-87920000D02*
X165800000Y-86080000D01*
X165800000Y-99210000D02*
X165800000Y-99080000D01*
X165800000Y-101500000D02*
X165800000Y-99080000D01*
X165800000Y-101500000D02*
X166500000Y-101500000D01*
X174600000Y-45500000D02*
X172500000Y-45500000D01*
X174600000Y-101500000D02*
X172500000Y-101500000D01*
X174600000Y-101500000D02*
X174600000Y-45500000D01*
%TO.C,U3*%
X129800000Y-45500000D02*
X130500000Y-45500000D01*
X129800000Y-47920000D02*
X129800000Y-45500000D01*
X129800000Y-87920000D02*
X129800000Y-86080000D01*
X129800000Y-99210000D02*
X129800000Y-99080000D01*
X129800000Y-101500000D02*
X129800000Y-99080000D01*
X129800000Y-101500000D02*
X130500000Y-101500000D01*
X138600000Y-45500000D02*
X136500000Y-45500000D01*
X138600000Y-101500000D02*
X136500000Y-101500000D01*
X138600000Y-101500000D02*
X138600000Y-45500000D01*
%TO.C,U5*%
X153800000Y-45500000D02*
X154500000Y-45500000D01*
X153800000Y-47920000D02*
X153800000Y-45500000D01*
X153800000Y-87920000D02*
X153800000Y-86080000D01*
X153800000Y-99210000D02*
X153800000Y-99080000D01*
X153800000Y-101500000D02*
X153800000Y-99080000D01*
X153800000Y-101500000D02*
X154500000Y-101500000D01*
X162600000Y-45500000D02*
X160500000Y-45500000D01*
X162600000Y-101500000D02*
X160500000Y-101500000D01*
X162600000Y-101500000D02*
X162600000Y-45500000D01*
%TO.C,U1*%
X105800000Y-45500000D02*
X106500000Y-45500000D01*
X105800000Y-47920000D02*
X105800000Y-45500000D01*
X105800000Y-87920000D02*
X105800000Y-86080000D01*
X105800000Y-99210000D02*
X105800000Y-99080000D01*
X105800000Y-101500000D02*
X105800000Y-99080000D01*
X105800000Y-101500000D02*
X106500000Y-101500000D01*
X114600000Y-45500000D02*
X112500000Y-45500000D01*
X114600000Y-101500000D02*
X112500000Y-101500000D01*
X114600000Y-101500000D02*
X114600000Y-45500000D01*
D13*
%TO.C,J2*%
X180620000Y-41620000D02*
X182000000Y-41620000D01*
X180620000Y-43000000D02*
X180620000Y-41620000D01*
X180620000Y-44270000D02*
X180620000Y-105340000D01*
X180620000Y-44270000D02*
X183270000Y-44270000D01*
X180620000Y-105340000D02*
X185920000Y-105340000D01*
X183270000Y-41620000D02*
X185920000Y-41620000D01*
X183270000Y-44270000D02*
X183270000Y-41620000D01*
X185920000Y-41620000D02*
X185920000Y-105340000D01*
D12*
%TO.C,U2*%
X117800000Y-45500000D02*
X118500000Y-45500000D01*
X117800000Y-47920000D02*
X117800000Y-45500000D01*
X117800000Y-87920000D02*
X117800000Y-86080000D01*
X117800000Y-99210000D02*
X117800000Y-99080000D01*
X117800000Y-101500000D02*
X117800000Y-99080000D01*
X117800000Y-101500000D02*
X118500000Y-101500000D01*
X126600000Y-45500000D02*
X124500000Y-45500000D01*
X126600000Y-101500000D02*
X124500000Y-101500000D01*
X126600000Y-101500000D02*
X126600000Y-45500000D01*
%TO.C,U4*%
X141800000Y-45500000D02*
X142500000Y-45500000D01*
X141800000Y-47920000D02*
X141800000Y-45500000D01*
X141800000Y-87920000D02*
X141800000Y-86080000D01*
X141800000Y-99210000D02*
X141800000Y-99080000D01*
X141800000Y-101500000D02*
X141800000Y-99080000D01*
X141800000Y-101500000D02*
X142500000Y-101500000D01*
X150600000Y-45500000D02*
X148500000Y-45500000D01*
X150600000Y-101500000D02*
X148500000Y-101500000D01*
X150600000Y-101500000D02*
X150600000Y-45500000D01*
D13*
%TO.C,J1*%
X94620000Y-41620000D02*
X96000000Y-41620000D01*
X94620000Y-43000000D02*
X94620000Y-41620000D01*
X94620000Y-44270000D02*
X94620000Y-105340000D01*
X94620000Y-44270000D02*
X97270000Y-44270000D01*
X94620000Y-105340000D02*
X99920000Y-105340000D01*
X97270000Y-41620000D02*
X99920000Y-41620000D01*
X97270000Y-44270000D02*
X97270000Y-41620000D01*
X99920000Y-41620000D02*
X99920000Y-105340000D01*
%TD*%
M02*
