%TF.GenerationSoftware,KiCad,Pcbnew,6.0.7+dfsg-1+b1*%
%TF.CreationDate,2022-09-10T15:38:08+08:00*%
%TF.ProjectId,memw25q128,6d656d77-3235-4713-9132-382e6b696361,a*%
%TF.SameCoordinates,PX678e028PY74e0a78*%
%TF.FileFunction,Copper,L2,Bot*%
%TF.FilePolarity,Positive*%
%FSLAX46Y46*%
G04 Gerber Fmt 4.6, Leading zero omitted, Abs format (unit mm)*
G04 Created by KiCad (PCBNEW 6.0.7+dfsg-1+b1) date 2022-09-10 15:38:08*
%MOMM*%
%LPD*%
G01*
G04 APERTURE LIST*
%TA.AperFunction,ComponentPad*%
%ADD10R,1.700000X1.700000*%
%TD*%
%TA.AperFunction,ComponentPad*%
%ADD11C,1.700000*%
%TD*%
%TA.AperFunction,ViaPad*%
%ADD12C,0.700000*%
%TD*%
%TA.AperFunction,Conductor*%
%ADD13C,0.228600*%
%TD*%
G04 APERTURE END LIST*
D10*
%TO.P,J1,1,3.3V*%
%TO.N,+3V3*%
X13970000Y5080000D03*
D11*
%TO.P,J1,2,GND*%
%TO.N,GND*%
X13970000Y7620000D03*
%TO.P,J1,3,BO0*%
%TO.N,unconnected-(J1-Pad3)*%
X16510000Y5080000D03*
%TO.P,J1,4,NRST*%
%TO.N,unconnected-(J1-Pad4)*%
X16510000Y7620000D03*
%TO.P,J1,5,PC0*%
%TO.N,unconnected-(J1-Pad5)*%
X19050000Y5080000D03*
%TO.P,J1,6,PC1*%
%TO.N,unconnected-(J1-Pad6)*%
X19050000Y7620000D03*
%TO.P,J1,7,PC2*%
%TO.N,unconnected-(J1-Pad7)*%
X21590000Y5080000D03*
%TO.P,J1,8,PC3*%
%TO.N,unconnected-(J1-Pad8)*%
X21590000Y7620000D03*
%TO.P,J1,9,PA0*%
%TO.N,unconnected-(J1-Pad9)*%
X24130000Y5080000D03*
%TO.P,J1,10,PA1*%
%TO.N,unconnected-(J1-Pad10)*%
X24130000Y7620000D03*
%TO.P,J1,11,PA2*%
%TO.N,unconnected-(J1-Pad11)*%
X26670000Y5080000D03*
%TO.P,J1,12,PA3*%
%TO.N,unconnected-(J1-Pad12)*%
X26670000Y7620000D03*
%TO.P,J1,13,PA4*%
%TO.N,PA4*%
X29210000Y5080000D03*
%TO.P,J1,14,PA5*%
%TO.N,PA5*%
X29210000Y7620000D03*
%TO.P,J1,15,PA6*%
%TO.N,PA6*%
X31750000Y5080000D03*
%TO.P,J1,16,PA7*%
%TO.N,PA7*%
X31750000Y7620000D03*
%TO.P,J1,17,PC4*%
%TO.N,unconnected-(J1-Pad17)*%
X34290000Y5080000D03*
%TO.P,J1,18,PC5*%
%TO.N,unconnected-(J1-Pad18)*%
X34290000Y7620000D03*
%TO.P,J1,19,PB0*%
%TO.N,unconnected-(J1-Pad19)*%
X36830000Y5080000D03*
%TO.P,J1,20,PB1*%
%TO.N,unconnected-(J1-Pad20)*%
X36830000Y7620000D03*
%TO.P,J1,21,PB2*%
%TO.N,unconnected-(J1-Pad21)*%
X39370000Y5080000D03*
%TO.P,J1,22,U0*%
%TO.N,unconnected-(J1-Pad22)*%
X39370000Y7620000D03*
%TO.P,J1,23,PB10*%
%TO.N,unconnected-(J1-Pad23)*%
X41910000Y5080000D03*
%TO.P,J1,24,PB11*%
%TO.N,unconnected-(J1-Pad24)*%
X41910000Y7620000D03*
%TO.P,J1,25,PB12*%
%TO.N,PB12*%
X44450000Y5080000D03*
%TO.P,J1,26,PB13*%
%TO.N,PB13*%
X44450000Y7620000D03*
%TO.P,J1,27,PB14*%
%TO.N,PB14*%
X46990000Y5080000D03*
%TO.P,J1,28,PB15*%
%TO.N,PB15*%
X46990000Y7620000D03*
%TO.P,J1,29,PC6*%
%TO.N,unconnected-(J1-Pad29)*%
X49530000Y5080000D03*
%TO.P,J1,30,PC7*%
%TO.N,unconnected-(J1-Pad30)*%
X49530000Y7620000D03*
%TO.P,J1,31,PC8*%
%TO.N,unconnected-(J1-Pad31)*%
X52070000Y5080000D03*
%TO.P,J1,32,PC9*%
%TO.N,unconnected-(J1-Pad32)*%
X52070000Y7620000D03*
%TO.P,J1,33,U1*%
%TO.N,unconnected-(J1-Pad33)*%
X54610000Y5080000D03*
%TO.P,J1,34,U2*%
%TO.N,unconnected-(J1-Pad34)*%
X54610000Y7620000D03*
%TO.P,J1,35,U3*%
%TO.N,unconnected-(J1-Pad35)*%
X57150000Y5080000D03*
%TO.P,J1,36,U4*%
%TO.N,unconnected-(J1-Pad36)*%
X57150000Y7620000D03*
%TO.P,J1,37,3.3V*%
%TO.N,+3V3*%
X59690000Y5080000D03*
%TO.P,J1,38,GND*%
%TO.N,GND*%
X59690000Y7620000D03*
%TO.P,J1,39,5V*%
%TO.N,unconnected-(J1-Pad39)*%
X62230000Y5080000D03*
%TO.P,J1,40,GND*%
%TO.N,GND*%
X62230000Y7620000D03*
D10*
%TO.P,J1,41,5V*%
%TO.N,unconnected-(J1-Pad41)*%
X62230000Y45720000D03*
D11*
%TO.P,J1,42,GND*%
%TO.N,GND*%
X62230000Y43180000D03*
%TO.P,J1,43,3.3V*%
%TO.N,+3V3*%
X59690000Y45720000D03*
%TO.P,J1,44,GND*%
%TO.N,GND*%
X59690000Y43180000D03*
%TO.P,J1,45,U15*%
%TO.N,unconnected-(J1-Pad45)*%
X57150000Y45720000D03*
%TO.P,J1,46,U16*%
%TO.N,unconnected-(J1-Pad46)*%
X57150000Y43180000D03*
%TO.P,J1,47,U13*%
%TO.N,unconnected-(J1-Pad47)*%
X54610000Y45720000D03*
%TO.P,J1,48,U14*%
%TO.N,unconnected-(J1-Pad48)*%
X54610000Y43180000D03*
%TO.P,J1,49,PA8*%
%TO.N,unconnected-(J1-Pad49)*%
X52070000Y45720000D03*
%TO.P,J1,50,PA9*%
%TO.N,unconnected-(J1-Pad50)*%
X52070000Y43180000D03*
%TO.P,J1,51,PA10*%
%TO.N,unconnected-(J1-Pad51)*%
X49530000Y45720000D03*
%TO.P,J1,52,PA11*%
%TO.N,unconnected-(J1-Pad52)*%
X49530000Y43180000D03*
%TO.P,J1,53,PA12*%
%TO.N,unconnected-(J1-Pad53)*%
X46990000Y45720000D03*
%TO.P,J1,54,PA13*%
%TO.N,unconnected-(J1-Pad54)*%
X46990000Y43180000D03*
%TO.P,J1,55,PA14*%
%TO.N,unconnected-(J1-Pad55)*%
X44450000Y45720000D03*
%TO.P,J1,56,PA15*%
%TO.N,PA15*%
X44450000Y43180000D03*
%TO.P,J1,57,U11*%
%TO.N,unconnected-(J1-Pad57)*%
X41910000Y45720000D03*
%TO.P,J1,58,U12*%
%TO.N,unconnected-(J1-Pad58)*%
X41910000Y43180000D03*
%TO.P,J1,59,PC10*%
%TO.N,unconnected-(J1-Pad59)*%
X39370000Y45720000D03*
%TO.P,J1,60,PC11*%
%TO.N,unconnected-(J1-Pad60)*%
X39370000Y43180000D03*
%TO.P,J1,61,PC12*%
%TO.N,unconnected-(J1-Pad61)*%
X36830000Y45720000D03*
%TO.P,J1,62,U8*%
%TO.N,unconnected-(J1-Pad62)*%
X36830000Y43180000D03*
%TO.P,J1,63,PD2*%
%TO.N,unconnected-(J1-Pad63)*%
X34290000Y45720000D03*
%TO.P,J1,64,PB3*%
%TO.N,PB3*%
X34290000Y43180000D03*
%TO.P,J1,65,PB4*%
%TO.N,PB4*%
X31750000Y45720000D03*
%TO.P,J1,66,PB5*%
%TO.N,PB5*%
X31750000Y43180000D03*
%TO.P,J1,67,PB6*%
%TO.N,unconnected-(J1-Pad67)*%
X29210000Y45720000D03*
%TO.P,J1,68,PB7*%
%TO.N,unconnected-(J1-Pad68)*%
X29210000Y43180000D03*
%TO.P,J1,69,PB8*%
%TO.N,unconnected-(J1-Pad69)*%
X26670000Y45720000D03*
%TO.P,J1,70,PB9*%
%TO.N,unconnected-(J1-Pad70)*%
X26670000Y43180000D03*
%TO.P,J1,71,U9*%
%TO.N,unconnected-(J1-Pad71)*%
X24130000Y45720000D03*
%TO.P,J1,72,U10*%
%TO.N,unconnected-(J1-Pad72)*%
X24130000Y43180000D03*
%TO.P,J1,73,PC14*%
%TO.N,unconnected-(J1-Pad73)*%
X21590000Y45720000D03*
%TO.P,J1,74,PC13*%
%TO.N,unconnected-(J1-Pad74)*%
X21590000Y43180000D03*
%TO.P,J1,75,U7*%
%TO.N,unconnected-(J1-Pad75)*%
X19050000Y45720000D03*
%TO.P,J1,76,PC15*%
%TO.N,unconnected-(J1-Pad76)*%
X19050000Y43180000D03*
%TO.P,J1,77,U5*%
%TO.N,unconnected-(J1-Pad77)*%
X16510000Y45720000D03*
%TO.P,J1,78,U6*%
%TO.N,unconnected-(J1-Pad78)*%
X16510000Y43180000D03*
%TO.P,J1,79,3.3V*%
%TO.N,+3V3*%
X13970000Y45720000D03*
%TO.P,J1,80,GND*%
%TO.N,unconnected-(J1-Pad80)*%
X13970000Y43180000D03*
%TD*%
D12*
%TO.N,PB14*%
X30480000Y11430000D03*
%TO.N,PB15*%
X38100000Y12700000D03*
%TO.N,CS*%
X12700000Y25400000D03*
X12700000Y33020000D03*
X12700000Y29210000D03*
X53340000Y28575000D03*
%TO.N,CLK*%
X20320000Y29210000D03*
X20320000Y25400000D03*
X50165000Y22225000D03*
X20320000Y33020000D03*
%TO.N,DO(IO1)*%
X27940000Y29210000D03*
X27940000Y25400000D03*
X27940000Y33020000D03*
X53340000Y27305000D03*
%TO.N,DI(IO0)*%
X35560000Y25400000D03*
X35560000Y29210000D03*
X49411425Y24248585D03*
X35560000Y33020000D03*
%TD*%
D13*
%TO.N,PB14*%
X45873299Y6196701D02*
X46990000Y5080000D01*
X42292718Y11430000D02*
X45873299Y7849419D01*
X30480000Y11430000D02*
X42292718Y11430000D01*
X45873299Y7849419D02*
X45873299Y6196701D01*
%TO.N,PB15*%
X46641548Y7620000D02*
X46990000Y7620000D01*
X41561548Y12700000D02*
X46641548Y7620000D01*
X38100000Y12700000D02*
X41561548Y12700000D01*
%TO.N,CS*%
X55285000Y27975000D02*
X55285000Y26432280D01*
X16491702Y21608298D02*
X12700000Y25400000D01*
X53340000Y28575000D02*
X54685000Y28575000D01*
X12700000Y29210000D02*
X12700000Y25400000D01*
X50461018Y21608298D02*
X16491702Y21608298D01*
X12700000Y33020000D02*
X12700000Y29210000D01*
X55285000Y26432280D02*
X50461018Y21608298D01*
X54685000Y28575000D02*
X55285000Y27975000D01*
%TO.N,CLK*%
X20320000Y25400000D02*
X20320000Y23495000D01*
X20320000Y23495000D02*
X21590000Y22225000D01*
X20320000Y29210000D02*
X20320000Y25400000D01*
X21590000Y22225000D02*
X50165000Y22225000D01*
X20320000Y33020000D02*
X20320000Y29210000D01*
%TO.N,DO(IO1)*%
X29826701Y22878299D02*
X48913299Y22878299D01*
X27940000Y29210000D02*
X27940000Y25400000D01*
X48913299Y22878299D02*
X53340000Y27305000D01*
X27940000Y25400000D02*
X27940000Y24765000D01*
X27940000Y24765000D02*
X29826701Y22878299D01*
X27940000Y33020000D02*
X27940000Y29210000D01*
%TO.N,DI(IO0)*%
X35560000Y33020000D02*
X35560000Y25400000D01*
X48260010Y25400000D02*
X49411425Y24248585D01*
X35560000Y25400000D02*
X48260010Y25400000D01*
%TD*%
%TA.AperFunction,Conductor*%
%TO.N,GND*%
G36*
X73649431Y50644538D02*
G01*
X73650435Y50644269D01*
X73660000Y50641706D01*
X73669563Y50644269D01*
X73677737Y50644269D01*
X73688622Y50645369D01*
X73943197Y50629969D01*
X73952211Y50628874D01*
X74226794Y50578555D01*
X74235611Y50576382D01*
X74355380Y50539061D01*
X74502138Y50493329D01*
X74510618Y50490113D01*
X74765194Y50375538D01*
X74773230Y50371321D01*
X75012146Y50226891D01*
X75019605Y50221742D01*
X75239361Y50049574D01*
X75246158Y50043552D01*
X75443552Y49846158D01*
X75449574Y49839361D01*
X75621742Y49619605D01*
X75626891Y49612146D01*
X75736854Y49430246D01*
X75771320Y49373232D01*
X75775538Y49365194D01*
X75872025Y49150810D01*
X75890111Y49110624D01*
X75893331Y49102133D01*
X75976382Y48835611D01*
X75978555Y48826794D01*
X76028874Y48552211D01*
X76029969Y48543197D01*
X76045369Y48288622D01*
X76044269Y48277737D01*
X76044269Y48269563D01*
X76041706Y48260000D01*
X76044268Y48250438D01*
X76044538Y48249431D01*
X76047100Y48229968D01*
X76047100Y2570032D01*
X76044538Y2550570D01*
X76041706Y2540000D01*
X76044269Y2530437D01*
X76044269Y2522263D01*
X76045369Y2511378D01*
X76029969Y2256803D01*
X76028874Y2247789D01*
X75978555Y1973206D01*
X75976382Y1964389D01*
X75893331Y1697867D01*
X75890113Y1689382D01*
X75775540Y1434809D01*
X75771321Y1426770D01*
X75626891Y1187854D01*
X75621742Y1180395D01*
X75449574Y960639D01*
X75443552Y953842D01*
X75246158Y756448D01*
X75239361Y750426D01*
X75019605Y578258D01*
X75012146Y573109D01*
X74773232Y428680D01*
X74765194Y424462D01*
X74510618Y309887D01*
X74502138Y306671D01*
X74355380Y260939D01*
X74235611Y223618D01*
X74226794Y221445D01*
X73952211Y171126D01*
X73943197Y170031D01*
X73688622Y154631D01*
X73677737Y155731D01*
X73669563Y155731D01*
X73660000Y158294D01*
X73650438Y155732D01*
X73649431Y155462D01*
X73629968Y152900D01*
X2570032Y152900D01*
X2550569Y155462D01*
X2549562Y155732D01*
X2540000Y158294D01*
X2530437Y155731D01*
X2522263Y155731D01*
X2511378Y154631D01*
X2256803Y170031D01*
X2247789Y171126D01*
X1973206Y221445D01*
X1964389Y223618D01*
X1844620Y260939D01*
X1697862Y306671D01*
X1689382Y309887D01*
X1434806Y424462D01*
X1426768Y428680D01*
X1187854Y573109D01*
X1180395Y578258D01*
X960639Y750426D01*
X953842Y756448D01*
X756448Y953842D01*
X750426Y960639D01*
X578258Y1180395D01*
X573109Y1187854D01*
X428679Y1426770D01*
X424460Y1434809D01*
X309887Y1689382D01*
X306669Y1697867D01*
X223618Y1964389D01*
X221445Y1973206D01*
X171126Y2247789D01*
X170031Y2256803D01*
X154631Y2511378D01*
X155731Y2522263D01*
X155731Y2530437D01*
X158294Y2540000D01*
X155462Y2550570D01*
X152900Y2570032D01*
X152900Y3767905D01*
X1955028Y3767905D01*
X1955287Y3765191D01*
X1955287Y3765187D01*
X1972840Y3581207D01*
X1980534Y3500569D01*
X2044364Y3239715D01*
X2145182Y2990808D01*
X2146557Y2988460D01*
X2239627Y2829509D01*
X2280875Y2759062D01*
X2448601Y2549331D01*
X2450595Y2547469D01*
X2450598Y2547465D01*
X2476170Y2523577D01*
X2644846Y2366009D01*
X2865499Y2212936D01*
X2867933Y2211725D01*
X2867940Y2211721D01*
X3103491Y2094537D01*
X3103495Y2094535D01*
X3105938Y2093320D01*
X3361126Y2009665D01*
X3363810Y2009199D01*
X3363814Y2009198D01*
X3623452Y1964117D01*
X3623456Y1964117D01*
X3625717Y1963724D01*
X3710567Y1959500D01*
X3878223Y1959500D01*
X4077846Y1973984D01*
X4340080Y2031880D01*
X4342622Y2032843D01*
X4342625Y2032844D01*
X4588664Y2126060D01*
X4591211Y2127025D01*
X4748674Y2214488D01*
X4823587Y2256099D01*
X4825976Y2257426D01*
X4966222Y2364458D01*
X5037294Y2418698D01*
X5037298Y2418702D01*
X5039458Y2420350D01*
X5227185Y2612386D01*
X5228790Y2614591D01*
X5383621Y2827305D01*
X5383622Y2827307D01*
X5385225Y2829509D01*
X5470089Y2990808D01*
X5508998Y3064763D01*
X5509000Y3064768D01*
X5510265Y3067172D01*
X5599688Y3320397D01*
X5651620Y3583878D01*
X5660781Y3767905D01*
X70535028Y3767905D01*
X70535287Y3765191D01*
X70535287Y3765187D01*
X70552840Y3581207D01*
X70560534Y3500569D01*
X70624364Y3239715D01*
X70725182Y2990808D01*
X70726557Y2988460D01*
X70819627Y2829509D01*
X70860875Y2759062D01*
X71028601Y2549331D01*
X71030595Y2547469D01*
X71030598Y2547465D01*
X71056170Y2523577D01*
X71224846Y2366009D01*
X71445499Y2212936D01*
X71447933Y2211725D01*
X71447940Y2211721D01*
X71683491Y2094537D01*
X71683495Y2094535D01*
X71685938Y2093320D01*
X71941126Y2009665D01*
X71943810Y2009199D01*
X71943814Y2009198D01*
X72203452Y1964117D01*
X72203456Y1964117D01*
X72205717Y1963724D01*
X72290567Y1959500D01*
X72458223Y1959500D01*
X72657846Y1973984D01*
X72920080Y2031880D01*
X72922622Y2032843D01*
X72922625Y2032844D01*
X73168664Y2126060D01*
X73171211Y2127025D01*
X73328674Y2214488D01*
X73403587Y2256099D01*
X73405976Y2257426D01*
X73546222Y2364458D01*
X73617294Y2418698D01*
X73617298Y2418702D01*
X73619458Y2420350D01*
X73807185Y2612386D01*
X73808790Y2614591D01*
X73963621Y2827305D01*
X73963622Y2827307D01*
X73965225Y2829509D01*
X74050089Y2990808D01*
X74088998Y3064763D01*
X74089000Y3064768D01*
X74090265Y3067172D01*
X74179688Y3320397D01*
X74231620Y3583878D01*
X74244972Y3852095D01*
X74227415Y4036122D01*
X74219725Y4116719D01*
X74219724Y4116722D01*
X74219466Y4119431D01*
X74217878Y4125923D01*
X74176033Y4296929D01*
X74155636Y4380285D01*
X74054818Y4629192D01*
X73961786Y4788078D01*
X73920503Y4858585D01*
X73920501Y4858588D01*
X73919125Y4860938D01*
X73886489Y4901748D01*
X73800266Y5009564D01*
X73751399Y5070669D01*
X73749405Y5072531D01*
X73749402Y5072535D01*
X73557145Y5252131D01*
X73555154Y5253991D01*
X73334501Y5407064D01*
X73332067Y5408275D01*
X73332060Y5408279D01*
X73096509Y5525463D01*
X73096505Y5525465D01*
X73094062Y5526680D01*
X72838874Y5610335D01*
X72836190Y5610801D01*
X72836186Y5610802D01*
X72576548Y5655883D01*
X72576544Y5655883D01*
X72574283Y5656276D01*
X72489433Y5660500D01*
X72321777Y5660500D01*
X72122154Y5646016D01*
X71859920Y5588120D01*
X71857378Y5587157D01*
X71857375Y5587156D01*
X71693856Y5525204D01*
X71608789Y5492975D01*
X71606407Y5491652D01*
X71606405Y5491651D01*
X71376413Y5363901D01*
X71374024Y5362574D01*
X71371855Y5360919D01*
X71371854Y5360918D01*
X71162706Y5201302D01*
X71162702Y5201298D01*
X71160542Y5199650D01*
X70972815Y5007614D01*
X70971210Y5005409D01*
X70865650Y4860385D01*
X70814775Y4790491D01*
X70813508Y4788083D01*
X70813505Y4788078D01*
X70728587Y4626674D01*
X70689735Y4552828D01*
X70600312Y4299603D01*
X70548380Y4036122D01*
X70535028Y3767905D01*
X5660781Y3767905D01*
X5664972Y3852095D01*
X5647415Y4036122D01*
X5639725Y4116719D01*
X5639724Y4116722D01*
X5639466Y4119431D01*
X5637878Y4125923D01*
X5596033Y4296929D01*
X5575636Y4380285D01*
X5474818Y4629192D01*
X5381786Y4788078D01*
X5340503Y4858585D01*
X5340501Y4858588D01*
X5339125Y4860938D01*
X5306489Y4901748D01*
X5220266Y5009564D01*
X5171399Y5070669D01*
X5169405Y5072531D01*
X5169402Y5072535D01*
X4977145Y5252131D01*
X4975154Y5253991D01*
X4754501Y5407064D01*
X4752067Y5408275D01*
X4752060Y5408279D01*
X4516509Y5525463D01*
X4516505Y5525465D01*
X4514062Y5526680D01*
X4258874Y5610335D01*
X4256190Y5610801D01*
X4256186Y5610802D01*
X3996548Y5655883D01*
X3996544Y5655883D01*
X3994283Y5656276D01*
X3909433Y5660500D01*
X3741777Y5660500D01*
X3542154Y5646016D01*
X3279920Y5588120D01*
X3277378Y5587157D01*
X3277375Y5587156D01*
X3113856Y5525204D01*
X3028789Y5492975D01*
X3026407Y5491652D01*
X3026405Y5491651D01*
X2796413Y5363901D01*
X2794024Y5362574D01*
X2791855Y5360919D01*
X2791854Y5360918D01*
X2582706Y5201302D01*
X2582702Y5201298D01*
X2580542Y5199650D01*
X2392815Y5007614D01*
X2391210Y5005409D01*
X2285650Y4860385D01*
X2234775Y4790491D01*
X2233508Y4788083D01*
X2233505Y4788078D01*
X2148587Y4626674D01*
X2109735Y4552828D01*
X2020312Y4299603D01*
X1968380Y4036122D01*
X1955028Y3767905D01*
X152900Y3767905D01*
X152900Y5945057D01*
X12967100Y5945057D01*
X12967101Y4214944D01*
X12975972Y4170342D01*
X13009766Y4119766D01*
X13015923Y4115652D01*
X13054183Y4090087D01*
X13054184Y4090086D01*
X13060342Y4085972D01*
X13104943Y4077100D01*
X13969882Y4077100D01*
X14835056Y4077101D01*
X14879658Y4085972D01*
X14930234Y4119766D01*
X14954801Y4156533D01*
X14959913Y4164183D01*
X14959914Y4164184D01*
X14964028Y4170342D01*
X14972900Y4214943D01*
X14972899Y5094070D01*
X15502345Y5094070D01*
X15502653Y5090402D01*
X15502653Y5090399D01*
X15505889Y5051862D01*
X15518803Y4898081D01*
X15573015Y4709021D01*
X15662916Y4534092D01*
X15785083Y4379956D01*
X15787877Y4377578D01*
X15787878Y4377577D01*
X15822691Y4347949D01*
X15934862Y4252484D01*
X15938063Y4250695D01*
X15938066Y4250693D01*
X15976656Y4229126D01*
X16106547Y4156533D01*
X16110044Y4155397D01*
X16110048Y4155395D01*
X16200755Y4125923D01*
X16293600Y4095756D01*
X16400984Y4082951D01*
X16485237Y4072904D01*
X16485239Y4072904D01*
X16488895Y4072468D01*
X16684994Y4087557D01*
X16808627Y4122076D01*
X16870883Y4139458D01*
X16870885Y4139459D01*
X16874428Y4140448D01*
X17014727Y4211318D01*
X17046697Y4227467D01*
X17046698Y4227468D01*
X17049981Y4229126D01*
X17204966Y4350214D01*
X17333480Y4499099D01*
X17362546Y4550264D01*
X17428810Y4666909D01*
X17428812Y4666912D01*
X17430628Y4670110D01*
X17492710Y4856734D01*
X17517360Y5051862D01*
X17517753Y5080000D01*
X17517548Y5082093D01*
X17516374Y5094070D01*
X18042345Y5094070D01*
X18042653Y5090402D01*
X18042653Y5090399D01*
X18045889Y5051862D01*
X18058803Y4898081D01*
X18113015Y4709021D01*
X18202916Y4534092D01*
X18325083Y4379956D01*
X18327877Y4377578D01*
X18327878Y4377577D01*
X18362691Y4347949D01*
X18474862Y4252484D01*
X18478063Y4250695D01*
X18478066Y4250693D01*
X18516656Y4229126D01*
X18646547Y4156533D01*
X18650044Y4155397D01*
X18650048Y4155395D01*
X18740755Y4125923D01*
X18833600Y4095756D01*
X18940984Y4082951D01*
X19025237Y4072904D01*
X19025239Y4072904D01*
X19028895Y4072468D01*
X19224994Y4087557D01*
X19348627Y4122076D01*
X19410883Y4139458D01*
X19410885Y4139459D01*
X19414428Y4140448D01*
X19554727Y4211318D01*
X19586697Y4227467D01*
X19586698Y4227468D01*
X19589981Y4229126D01*
X19744966Y4350214D01*
X19873480Y4499099D01*
X19902546Y4550264D01*
X19968810Y4666909D01*
X19968812Y4666912D01*
X19970628Y4670110D01*
X20032710Y4856734D01*
X20057360Y5051862D01*
X20057753Y5080000D01*
X20057548Y5082093D01*
X20056374Y5094070D01*
X20582345Y5094070D01*
X20582653Y5090402D01*
X20582653Y5090399D01*
X20585889Y5051862D01*
X20598803Y4898081D01*
X20653015Y4709021D01*
X20742916Y4534092D01*
X20865083Y4379956D01*
X20867877Y4377578D01*
X20867878Y4377577D01*
X20902691Y4347949D01*
X21014862Y4252484D01*
X21018063Y4250695D01*
X21018066Y4250693D01*
X21056656Y4229126D01*
X21186547Y4156533D01*
X21190044Y4155397D01*
X21190048Y4155395D01*
X21280755Y4125923D01*
X21373600Y4095756D01*
X21480984Y4082951D01*
X21565237Y4072904D01*
X21565239Y4072904D01*
X21568895Y4072468D01*
X21764994Y4087557D01*
X21888627Y4122076D01*
X21950883Y4139458D01*
X21950885Y4139459D01*
X21954428Y4140448D01*
X22094727Y4211318D01*
X22126697Y4227467D01*
X22126698Y4227468D01*
X22129981Y4229126D01*
X22284966Y4350214D01*
X22413480Y4499099D01*
X22442546Y4550264D01*
X22508810Y4666909D01*
X22508812Y4666912D01*
X22510628Y4670110D01*
X22572710Y4856734D01*
X22597360Y5051862D01*
X22597753Y5080000D01*
X22597548Y5082093D01*
X22596374Y5094070D01*
X23122345Y5094070D01*
X23122653Y5090402D01*
X23122653Y5090399D01*
X23125889Y5051862D01*
X23138803Y4898081D01*
X23193015Y4709021D01*
X23282916Y4534092D01*
X23405083Y4379956D01*
X23407877Y4377578D01*
X23407878Y4377577D01*
X23442691Y4347949D01*
X23554862Y4252484D01*
X23558063Y4250695D01*
X23558066Y4250693D01*
X23596656Y4229126D01*
X23726547Y4156533D01*
X23730044Y4155397D01*
X23730048Y4155395D01*
X23820755Y4125923D01*
X23913600Y4095756D01*
X24020984Y4082951D01*
X24105237Y4072904D01*
X24105239Y4072904D01*
X24108895Y4072468D01*
X24304994Y4087557D01*
X24428627Y4122076D01*
X24490883Y4139458D01*
X24490885Y4139459D01*
X24494428Y4140448D01*
X24634727Y4211318D01*
X24666697Y4227467D01*
X24666698Y4227468D01*
X24669981Y4229126D01*
X24824966Y4350214D01*
X24953480Y4499099D01*
X24982546Y4550264D01*
X25048810Y4666909D01*
X25048812Y4666912D01*
X25050628Y4670110D01*
X25112710Y4856734D01*
X25137360Y5051862D01*
X25137753Y5080000D01*
X25137548Y5082093D01*
X25136374Y5094070D01*
X25662345Y5094070D01*
X25662653Y5090402D01*
X25662653Y5090399D01*
X25665889Y5051862D01*
X25678803Y4898081D01*
X25733015Y4709021D01*
X25822916Y4534092D01*
X25945083Y4379956D01*
X25947877Y4377578D01*
X25947878Y4377577D01*
X25982691Y4347949D01*
X26094862Y4252484D01*
X26098063Y4250695D01*
X26098066Y4250693D01*
X26136656Y4229126D01*
X26266547Y4156533D01*
X26270044Y4155397D01*
X26270048Y4155395D01*
X26360755Y4125923D01*
X26453600Y4095756D01*
X26560984Y4082951D01*
X26645237Y4072904D01*
X26645239Y4072904D01*
X26648895Y4072468D01*
X26844994Y4087557D01*
X26968627Y4122076D01*
X27030883Y4139458D01*
X27030885Y4139459D01*
X27034428Y4140448D01*
X27174727Y4211318D01*
X27206697Y4227467D01*
X27206698Y4227468D01*
X27209981Y4229126D01*
X27364966Y4350214D01*
X27493480Y4499099D01*
X27522546Y4550264D01*
X27588810Y4666909D01*
X27588812Y4666912D01*
X27590628Y4670110D01*
X27652710Y4856734D01*
X27677360Y5051862D01*
X27677753Y5080000D01*
X27677548Y5082093D01*
X27676374Y5094070D01*
X28202345Y5094070D01*
X28202653Y5090402D01*
X28202653Y5090399D01*
X28205889Y5051862D01*
X28218803Y4898081D01*
X28273015Y4709021D01*
X28362916Y4534092D01*
X28485083Y4379956D01*
X28487877Y4377578D01*
X28487878Y4377577D01*
X28522691Y4347949D01*
X28634862Y4252484D01*
X28638063Y4250695D01*
X28638066Y4250693D01*
X28676656Y4229126D01*
X28806547Y4156533D01*
X28810044Y4155397D01*
X28810048Y4155395D01*
X28900755Y4125923D01*
X28993600Y4095756D01*
X29100984Y4082951D01*
X29185237Y4072904D01*
X29185239Y4072904D01*
X29188895Y4072468D01*
X29384994Y4087557D01*
X29508627Y4122076D01*
X29570883Y4139458D01*
X29570885Y4139459D01*
X29574428Y4140448D01*
X29714727Y4211318D01*
X29746697Y4227467D01*
X29746698Y4227468D01*
X29749981Y4229126D01*
X29904966Y4350214D01*
X30033480Y4499099D01*
X30062546Y4550264D01*
X30128810Y4666909D01*
X30128812Y4666912D01*
X30130628Y4670110D01*
X30192710Y4856734D01*
X30217360Y5051862D01*
X30217753Y5080000D01*
X30217548Y5082093D01*
X30216374Y5094070D01*
X30742345Y5094070D01*
X30742653Y5090402D01*
X30742653Y5090399D01*
X30745889Y5051862D01*
X30758803Y4898081D01*
X30813015Y4709021D01*
X30902916Y4534092D01*
X31025083Y4379956D01*
X31027877Y4377578D01*
X31027878Y4377577D01*
X31062691Y4347949D01*
X31174862Y4252484D01*
X31178063Y4250695D01*
X31178066Y4250693D01*
X31216656Y4229126D01*
X31346547Y4156533D01*
X31350044Y4155397D01*
X31350048Y4155395D01*
X31440755Y4125923D01*
X31533600Y4095756D01*
X31640984Y4082951D01*
X31725237Y4072904D01*
X31725239Y4072904D01*
X31728895Y4072468D01*
X31924994Y4087557D01*
X32048627Y4122076D01*
X32110883Y4139458D01*
X32110885Y4139459D01*
X32114428Y4140448D01*
X32254727Y4211318D01*
X32286697Y4227467D01*
X32286698Y4227468D01*
X32289981Y4229126D01*
X32444966Y4350214D01*
X32573480Y4499099D01*
X32602546Y4550264D01*
X32668810Y4666909D01*
X32668812Y4666912D01*
X32670628Y4670110D01*
X32732710Y4856734D01*
X32757360Y5051862D01*
X32757753Y5080000D01*
X32757548Y5082093D01*
X32756374Y5094070D01*
X33282345Y5094070D01*
X33282653Y5090402D01*
X33282653Y5090399D01*
X33285889Y5051862D01*
X33298803Y4898081D01*
X33353015Y4709021D01*
X33442916Y4534092D01*
X33565083Y4379956D01*
X33567877Y4377578D01*
X33567878Y4377577D01*
X33602691Y4347949D01*
X33714862Y4252484D01*
X33718063Y4250695D01*
X33718066Y4250693D01*
X33756656Y4229126D01*
X33886547Y4156533D01*
X33890044Y4155397D01*
X33890048Y4155395D01*
X33980755Y4125923D01*
X34073600Y4095756D01*
X34180984Y4082951D01*
X34265237Y4072904D01*
X34265239Y4072904D01*
X34268895Y4072468D01*
X34464994Y4087557D01*
X34588627Y4122076D01*
X34650883Y4139458D01*
X34650885Y4139459D01*
X34654428Y4140448D01*
X34794727Y4211318D01*
X34826697Y4227467D01*
X34826698Y4227468D01*
X34829981Y4229126D01*
X34984966Y4350214D01*
X35113480Y4499099D01*
X35142546Y4550264D01*
X35208810Y4666909D01*
X35208812Y4666912D01*
X35210628Y4670110D01*
X35272710Y4856734D01*
X35297360Y5051862D01*
X35297753Y5080000D01*
X35297548Y5082093D01*
X35296374Y5094070D01*
X35822345Y5094070D01*
X35822653Y5090402D01*
X35822653Y5090399D01*
X35825889Y5051862D01*
X35838803Y4898081D01*
X35893015Y4709021D01*
X35982916Y4534092D01*
X36105083Y4379956D01*
X36107877Y4377578D01*
X36107878Y4377577D01*
X36142691Y4347949D01*
X36254862Y4252484D01*
X36258063Y4250695D01*
X36258066Y4250693D01*
X36296656Y4229126D01*
X36426547Y4156533D01*
X36430044Y4155397D01*
X36430048Y4155395D01*
X36520755Y4125923D01*
X36613600Y4095756D01*
X36720984Y4082951D01*
X36805237Y4072904D01*
X36805239Y4072904D01*
X36808895Y4072468D01*
X37004994Y4087557D01*
X37128627Y4122076D01*
X37190883Y4139458D01*
X37190885Y4139459D01*
X37194428Y4140448D01*
X37334727Y4211318D01*
X37366697Y4227467D01*
X37366698Y4227468D01*
X37369981Y4229126D01*
X37524966Y4350214D01*
X37653480Y4499099D01*
X37682546Y4550264D01*
X37748810Y4666909D01*
X37748812Y4666912D01*
X37750628Y4670110D01*
X37812710Y4856734D01*
X37837360Y5051862D01*
X37837753Y5080000D01*
X37837548Y5082093D01*
X37836374Y5094070D01*
X38362345Y5094070D01*
X38362653Y5090402D01*
X38362653Y5090399D01*
X38365889Y5051862D01*
X38378803Y4898081D01*
X38433015Y4709021D01*
X38522916Y4534092D01*
X38645083Y4379956D01*
X38647877Y4377578D01*
X38647878Y4377577D01*
X38682691Y4347949D01*
X38794862Y4252484D01*
X38798063Y4250695D01*
X38798066Y4250693D01*
X38836656Y4229126D01*
X38966547Y4156533D01*
X38970044Y4155397D01*
X38970048Y4155395D01*
X39060755Y4125923D01*
X39153600Y4095756D01*
X39260984Y4082951D01*
X39345237Y4072904D01*
X39345239Y4072904D01*
X39348895Y4072468D01*
X39544994Y4087557D01*
X39668627Y4122076D01*
X39730883Y4139458D01*
X39730885Y4139459D01*
X39734428Y4140448D01*
X39874727Y4211318D01*
X39906697Y4227467D01*
X39906698Y4227468D01*
X39909981Y4229126D01*
X40064966Y4350214D01*
X40193480Y4499099D01*
X40222546Y4550264D01*
X40288810Y4666909D01*
X40288812Y4666912D01*
X40290628Y4670110D01*
X40352710Y4856734D01*
X40377360Y5051862D01*
X40377753Y5080000D01*
X40377548Y5082093D01*
X40376374Y5094070D01*
X40902345Y5094070D01*
X40902653Y5090402D01*
X40902653Y5090399D01*
X40905889Y5051862D01*
X40918803Y4898081D01*
X40973015Y4709021D01*
X41062916Y4534092D01*
X41185083Y4379956D01*
X41187877Y4377578D01*
X41187878Y4377577D01*
X41222691Y4347949D01*
X41334862Y4252484D01*
X41338063Y4250695D01*
X41338066Y4250693D01*
X41376656Y4229126D01*
X41506547Y4156533D01*
X41510044Y4155397D01*
X41510048Y4155395D01*
X41600755Y4125923D01*
X41693600Y4095756D01*
X41800984Y4082951D01*
X41885237Y4072904D01*
X41885239Y4072904D01*
X41888895Y4072468D01*
X42084994Y4087557D01*
X42208627Y4122076D01*
X42270883Y4139458D01*
X42270885Y4139459D01*
X42274428Y4140448D01*
X42414727Y4211318D01*
X42446697Y4227467D01*
X42446698Y4227468D01*
X42449981Y4229126D01*
X42604966Y4350214D01*
X42733480Y4499099D01*
X42762546Y4550264D01*
X42828810Y4666909D01*
X42828812Y4666912D01*
X42830628Y4670110D01*
X42892710Y4856734D01*
X42917360Y5051862D01*
X42917753Y5080000D01*
X42917548Y5082093D01*
X42916374Y5094070D01*
X43442345Y5094070D01*
X43442653Y5090402D01*
X43442653Y5090399D01*
X43445889Y5051862D01*
X43458803Y4898081D01*
X43513015Y4709021D01*
X43602916Y4534092D01*
X43725083Y4379956D01*
X43727877Y4377578D01*
X43727878Y4377577D01*
X43762691Y4347949D01*
X43874862Y4252484D01*
X43878063Y4250695D01*
X43878066Y4250693D01*
X43916656Y4229126D01*
X44046547Y4156533D01*
X44050044Y4155397D01*
X44050048Y4155395D01*
X44140755Y4125923D01*
X44233600Y4095756D01*
X44340984Y4082951D01*
X44425237Y4072904D01*
X44425239Y4072904D01*
X44428895Y4072468D01*
X44624994Y4087557D01*
X44748627Y4122076D01*
X44810883Y4139458D01*
X44810885Y4139459D01*
X44814428Y4140448D01*
X44954727Y4211318D01*
X44986697Y4227467D01*
X44986698Y4227468D01*
X44989981Y4229126D01*
X45144966Y4350214D01*
X45273480Y4499099D01*
X45302546Y4550264D01*
X45368810Y4666909D01*
X45368812Y4666912D01*
X45370628Y4670110D01*
X45432710Y4856734D01*
X45457360Y5051862D01*
X45457753Y5080000D01*
X45457548Y5082093D01*
X45438921Y5272073D01*
X45438920Y5272078D01*
X45438561Y5275740D01*
X45381714Y5464025D01*
X45289379Y5637682D01*
X45165072Y5790097D01*
X45013528Y5915465D01*
X44840520Y6009010D01*
X44652637Y6067170D01*
X44509832Y6082179D01*
X44460690Y6087344D01*
X44460689Y6087344D01*
X44457035Y6087728D01*
X44359101Y6078816D01*
X44264824Y6070236D01*
X44264823Y6070236D01*
X44261166Y6069903D01*
X44257641Y6068866D01*
X44257638Y6068865D01*
X44139440Y6034077D01*
X44072489Y6014372D01*
X43898192Y5923252D01*
X43744912Y5800012D01*
X43618489Y5649347D01*
X43616718Y5646125D01*
X43616717Y5646124D01*
X43584829Y5588120D01*
X43523739Y5476996D01*
X43464269Y5289524D01*
X43442345Y5094070D01*
X42916374Y5094070D01*
X42898921Y5272073D01*
X42898920Y5272078D01*
X42898561Y5275740D01*
X42841714Y5464025D01*
X42749379Y5637682D01*
X42625072Y5790097D01*
X42473528Y5915465D01*
X42300520Y6009010D01*
X42112637Y6067170D01*
X41969832Y6082179D01*
X41920690Y6087344D01*
X41920689Y6087344D01*
X41917035Y6087728D01*
X41819101Y6078816D01*
X41724824Y6070236D01*
X41724823Y6070236D01*
X41721166Y6069903D01*
X41717641Y6068866D01*
X41717638Y6068865D01*
X41599440Y6034077D01*
X41532489Y6014372D01*
X41358192Y5923252D01*
X41204912Y5800012D01*
X41078489Y5649347D01*
X41076718Y5646125D01*
X41076717Y5646124D01*
X41044829Y5588120D01*
X40983739Y5476996D01*
X40924269Y5289524D01*
X40902345Y5094070D01*
X40376374Y5094070D01*
X40358921Y5272073D01*
X40358920Y5272078D01*
X40358561Y5275740D01*
X40301714Y5464025D01*
X40209379Y5637682D01*
X40085072Y5790097D01*
X39933528Y5915465D01*
X39760520Y6009010D01*
X39572637Y6067170D01*
X39429832Y6082179D01*
X39380690Y6087344D01*
X39380689Y6087344D01*
X39377035Y6087728D01*
X39279101Y6078816D01*
X39184824Y6070236D01*
X39184823Y6070236D01*
X39181166Y6069903D01*
X39177641Y6068866D01*
X39177638Y6068865D01*
X39059440Y6034077D01*
X38992489Y6014372D01*
X38818192Y5923252D01*
X38664912Y5800012D01*
X38538489Y5649347D01*
X38536718Y5646125D01*
X38536717Y5646124D01*
X38504829Y5588120D01*
X38443739Y5476996D01*
X38384269Y5289524D01*
X38362345Y5094070D01*
X37836374Y5094070D01*
X37818921Y5272073D01*
X37818920Y5272078D01*
X37818561Y5275740D01*
X37761714Y5464025D01*
X37669379Y5637682D01*
X37545072Y5790097D01*
X37393528Y5915465D01*
X37220520Y6009010D01*
X37032637Y6067170D01*
X36889832Y6082179D01*
X36840690Y6087344D01*
X36840689Y6087344D01*
X36837035Y6087728D01*
X36739101Y6078816D01*
X36644824Y6070236D01*
X36644823Y6070236D01*
X36641166Y6069903D01*
X36637641Y6068866D01*
X36637638Y6068865D01*
X36519440Y6034077D01*
X36452489Y6014372D01*
X36278192Y5923252D01*
X36124912Y5800012D01*
X35998489Y5649347D01*
X35996718Y5646125D01*
X35996717Y5646124D01*
X35964829Y5588120D01*
X35903739Y5476996D01*
X35844269Y5289524D01*
X35822345Y5094070D01*
X35296374Y5094070D01*
X35278921Y5272073D01*
X35278920Y5272078D01*
X35278561Y5275740D01*
X35221714Y5464025D01*
X35129379Y5637682D01*
X35005072Y5790097D01*
X34853528Y5915465D01*
X34680520Y6009010D01*
X34492637Y6067170D01*
X34349832Y6082179D01*
X34300690Y6087344D01*
X34300689Y6087344D01*
X34297035Y6087728D01*
X34199101Y6078816D01*
X34104824Y6070236D01*
X34104823Y6070236D01*
X34101166Y6069903D01*
X34097641Y6068866D01*
X34097638Y6068865D01*
X33979440Y6034077D01*
X33912489Y6014372D01*
X33738192Y5923252D01*
X33584912Y5800012D01*
X33458489Y5649347D01*
X33456718Y5646125D01*
X33456717Y5646124D01*
X33424829Y5588120D01*
X33363739Y5476996D01*
X33304269Y5289524D01*
X33282345Y5094070D01*
X32756374Y5094070D01*
X32738921Y5272073D01*
X32738920Y5272078D01*
X32738561Y5275740D01*
X32681714Y5464025D01*
X32589379Y5637682D01*
X32465072Y5790097D01*
X32313528Y5915465D01*
X32140520Y6009010D01*
X31952637Y6067170D01*
X31809832Y6082179D01*
X31760690Y6087344D01*
X31760689Y6087344D01*
X31757035Y6087728D01*
X31659101Y6078816D01*
X31564824Y6070236D01*
X31564823Y6070236D01*
X31561166Y6069903D01*
X31557641Y6068866D01*
X31557638Y6068865D01*
X31439440Y6034077D01*
X31372489Y6014372D01*
X31198192Y5923252D01*
X31044912Y5800012D01*
X30918489Y5649347D01*
X30916718Y5646125D01*
X30916717Y5646124D01*
X30884829Y5588120D01*
X30823739Y5476996D01*
X30764269Y5289524D01*
X30742345Y5094070D01*
X30216374Y5094070D01*
X30198921Y5272073D01*
X30198920Y5272078D01*
X30198561Y5275740D01*
X30141714Y5464025D01*
X30049379Y5637682D01*
X29925072Y5790097D01*
X29773528Y5915465D01*
X29600520Y6009010D01*
X29412637Y6067170D01*
X29269832Y6082179D01*
X29220690Y6087344D01*
X29220689Y6087344D01*
X29217035Y6087728D01*
X29119101Y6078816D01*
X29024824Y6070236D01*
X29024823Y6070236D01*
X29021166Y6069903D01*
X29017641Y6068866D01*
X29017638Y6068865D01*
X28899440Y6034077D01*
X28832489Y6014372D01*
X28658192Y5923252D01*
X28504912Y5800012D01*
X28378489Y5649347D01*
X28376718Y5646125D01*
X28376717Y5646124D01*
X28344829Y5588120D01*
X28283739Y5476996D01*
X28224269Y5289524D01*
X28202345Y5094070D01*
X27676374Y5094070D01*
X27658921Y5272073D01*
X27658920Y5272078D01*
X27658561Y5275740D01*
X27601714Y5464025D01*
X27509379Y5637682D01*
X27385072Y5790097D01*
X27233528Y5915465D01*
X27060520Y6009010D01*
X26872637Y6067170D01*
X26729832Y6082179D01*
X26680690Y6087344D01*
X26680689Y6087344D01*
X26677035Y6087728D01*
X26579101Y6078816D01*
X26484824Y6070236D01*
X26484823Y6070236D01*
X26481166Y6069903D01*
X26477641Y6068866D01*
X26477638Y6068865D01*
X26359440Y6034077D01*
X26292489Y6014372D01*
X26118192Y5923252D01*
X25964912Y5800012D01*
X25838489Y5649347D01*
X25836718Y5646125D01*
X25836717Y5646124D01*
X25804829Y5588120D01*
X25743739Y5476996D01*
X25684269Y5289524D01*
X25662345Y5094070D01*
X25136374Y5094070D01*
X25118921Y5272073D01*
X25118920Y5272078D01*
X25118561Y5275740D01*
X25061714Y5464025D01*
X24969379Y5637682D01*
X24845072Y5790097D01*
X24693528Y5915465D01*
X24520520Y6009010D01*
X24332637Y6067170D01*
X24189832Y6082179D01*
X24140690Y6087344D01*
X24140689Y6087344D01*
X24137035Y6087728D01*
X24039101Y6078816D01*
X23944824Y6070236D01*
X23944823Y6070236D01*
X23941166Y6069903D01*
X23937641Y6068866D01*
X23937638Y6068865D01*
X23819440Y6034077D01*
X23752489Y6014372D01*
X23578192Y5923252D01*
X23424912Y5800012D01*
X23298489Y5649347D01*
X23296718Y5646125D01*
X23296717Y5646124D01*
X23264829Y5588120D01*
X23203739Y5476996D01*
X23144269Y5289524D01*
X23122345Y5094070D01*
X22596374Y5094070D01*
X22578921Y5272073D01*
X22578920Y5272078D01*
X22578561Y5275740D01*
X22521714Y5464025D01*
X22429379Y5637682D01*
X22305072Y5790097D01*
X22153528Y5915465D01*
X21980520Y6009010D01*
X21792637Y6067170D01*
X21649832Y6082179D01*
X21600690Y6087344D01*
X21600689Y6087344D01*
X21597035Y6087728D01*
X21499101Y6078816D01*
X21404824Y6070236D01*
X21404823Y6070236D01*
X21401166Y6069903D01*
X21397641Y6068866D01*
X21397638Y6068865D01*
X21279440Y6034077D01*
X21212489Y6014372D01*
X21038192Y5923252D01*
X20884912Y5800012D01*
X20758489Y5649347D01*
X20756718Y5646125D01*
X20756717Y5646124D01*
X20724829Y5588120D01*
X20663739Y5476996D01*
X20604269Y5289524D01*
X20582345Y5094070D01*
X20056374Y5094070D01*
X20038921Y5272073D01*
X20038920Y5272078D01*
X20038561Y5275740D01*
X19981714Y5464025D01*
X19889379Y5637682D01*
X19765072Y5790097D01*
X19613528Y5915465D01*
X19440520Y6009010D01*
X19252637Y6067170D01*
X19109832Y6082179D01*
X19060690Y6087344D01*
X19060689Y6087344D01*
X19057035Y6087728D01*
X18959101Y6078816D01*
X18864824Y6070236D01*
X18864823Y6070236D01*
X18861166Y6069903D01*
X18857641Y6068866D01*
X18857638Y6068865D01*
X18739440Y6034077D01*
X18672489Y6014372D01*
X18498192Y5923252D01*
X18344912Y5800012D01*
X18218489Y5649347D01*
X18216718Y5646125D01*
X18216717Y5646124D01*
X18184829Y5588120D01*
X18123739Y5476996D01*
X18064269Y5289524D01*
X18042345Y5094070D01*
X17516374Y5094070D01*
X17498921Y5272073D01*
X17498920Y5272078D01*
X17498561Y5275740D01*
X17441714Y5464025D01*
X17349379Y5637682D01*
X17225072Y5790097D01*
X17073528Y5915465D01*
X16900520Y6009010D01*
X16712637Y6067170D01*
X16569832Y6082179D01*
X16520690Y6087344D01*
X16520689Y6087344D01*
X16517035Y6087728D01*
X16419101Y6078816D01*
X16324824Y6070236D01*
X16324823Y6070236D01*
X16321166Y6069903D01*
X16317641Y6068866D01*
X16317638Y6068865D01*
X16199440Y6034077D01*
X16132489Y6014372D01*
X15958192Y5923252D01*
X15804912Y5800012D01*
X15678489Y5649347D01*
X15676718Y5646125D01*
X15676717Y5646124D01*
X15644829Y5588120D01*
X15583739Y5476996D01*
X15524269Y5289524D01*
X15502345Y5094070D01*
X14972899Y5094070D01*
X14972899Y5945056D01*
X14964028Y5989658D01*
X14930234Y6040234D01*
X14924077Y6044348D01*
X14885817Y6069913D01*
X14885816Y6069914D01*
X14879658Y6074028D01*
X14835057Y6082900D01*
X13970118Y6082900D01*
X13104944Y6082899D01*
X13060342Y6074028D01*
X13009766Y6040234D01*
X13005652Y6034077D01*
X12987735Y6007262D01*
X12975972Y5989658D01*
X12967100Y5945057D01*
X152900Y5945057D01*
X152900Y6809361D01*
X13380117Y6809361D01*
X13381391Y6804607D01*
X13392346Y6795282D01*
X13398359Y6791103D01*
X13563537Y6698789D01*
X13570250Y6695856D01*
X13750210Y6637384D01*
X13757358Y6635812D01*
X13945248Y6613407D01*
X13952581Y6613254D01*
X14141239Y6627770D01*
X14148447Y6629041D01*
X14330701Y6679927D01*
X14337534Y6682578D01*
X14506426Y6767891D01*
X14512612Y6771816D01*
X14552713Y6803147D01*
X14558443Y6812316D01*
X14557835Y6816639D01*
X13979377Y7395097D01*
X13969578Y7399666D01*
X13963587Y7398061D01*
X13384686Y6819160D01*
X13380117Y6809361D01*
X152900Y6809361D01*
X152900Y7630392D01*
X12963156Y7630392D01*
X12978990Y7441839D01*
X12980312Y7434637D01*
X13032470Y7252739D01*
X13035164Y7245937D01*
X13121657Y7077637D01*
X13125623Y7071482D01*
X13152905Y7037060D01*
X13162114Y7031395D01*
X13166520Y7032046D01*
X13745097Y7610623D01*
X13749272Y7619578D01*
X14190334Y7619578D01*
X14191939Y7613587D01*
X14771215Y7034311D01*
X14781014Y7029742D01*
X14785864Y7031041D01*
X14790664Y7036602D01*
X14794886Y7042588D01*
X14888354Y7207120D01*
X14891328Y7213800D01*
X14951059Y7393359D01*
X14952680Y7400493D01*
X14976593Y7589785D01*
X14976886Y7593980D01*
X14977221Y7617901D01*
X14977045Y7622093D01*
X14975871Y7634070D01*
X15502345Y7634070D01*
X15502653Y7630402D01*
X15502653Y7630399D01*
X15506064Y7589785D01*
X15518803Y7438081D01*
X15573015Y7249021D01*
X15662916Y7074092D01*
X15785083Y6919956D01*
X15787877Y6917578D01*
X15787878Y6917577D01*
X15822691Y6887949D01*
X15934862Y6792484D01*
X15938063Y6790695D01*
X15938066Y6790693D01*
X15976656Y6769126D01*
X16106547Y6696533D01*
X16110044Y6695397D01*
X16110048Y6695395D01*
X16202615Y6665319D01*
X16293600Y6635756D01*
X16400984Y6622951D01*
X16485237Y6612904D01*
X16485239Y6612904D01*
X16488895Y6612468D01*
X16684994Y6627557D01*
X16799061Y6659405D01*
X16870883Y6679458D01*
X16870885Y6679459D01*
X16874428Y6680448D01*
X17049981Y6769126D01*
X17204966Y6890214D01*
X17333480Y7039099D01*
X17430628Y7210110D01*
X17492710Y7396734D01*
X17517360Y7591862D01*
X17517622Y7610623D01*
X17517724Y7617901D01*
X17517724Y7617907D01*
X17517753Y7620000D01*
X17516734Y7630392D01*
X17516373Y7634070D01*
X18042345Y7634070D01*
X18042653Y7630402D01*
X18042653Y7630399D01*
X18046064Y7589785D01*
X18058803Y7438081D01*
X18113015Y7249021D01*
X18202916Y7074092D01*
X18325083Y6919956D01*
X18327877Y6917578D01*
X18327878Y6917577D01*
X18362691Y6887949D01*
X18474862Y6792484D01*
X18478063Y6790695D01*
X18478066Y6790693D01*
X18516656Y6769126D01*
X18646547Y6696533D01*
X18650044Y6695397D01*
X18650048Y6695395D01*
X18742615Y6665319D01*
X18833600Y6635756D01*
X18940984Y6622951D01*
X19025237Y6612904D01*
X19025239Y6612904D01*
X19028895Y6612468D01*
X19224994Y6627557D01*
X19339061Y6659405D01*
X19410883Y6679458D01*
X19410885Y6679459D01*
X19414428Y6680448D01*
X19589981Y6769126D01*
X19744966Y6890214D01*
X19873480Y7039099D01*
X19970628Y7210110D01*
X20032710Y7396734D01*
X20057360Y7591862D01*
X20057622Y7610623D01*
X20057724Y7617901D01*
X20057724Y7617907D01*
X20057753Y7620000D01*
X20056734Y7630392D01*
X20056373Y7634070D01*
X20582345Y7634070D01*
X20582653Y7630402D01*
X20582653Y7630399D01*
X20586064Y7589785D01*
X20598803Y7438081D01*
X20653015Y7249021D01*
X20742916Y7074092D01*
X20865083Y6919956D01*
X20867877Y6917578D01*
X20867878Y6917577D01*
X20902691Y6887949D01*
X21014862Y6792484D01*
X21018063Y6790695D01*
X21018066Y6790693D01*
X21056656Y6769126D01*
X21186547Y6696533D01*
X21190044Y6695397D01*
X21190048Y6695395D01*
X21282615Y6665319D01*
X21373600Y6635756D01*
X21480984Y6622951D01*
X21565237Y6612904D01*
X21565239Y6612904D01*
X21568895Y6612468D01*
X21764994Y6627557D01*
X21879061Y6659405D01*
X21950883Y6679458D01*
X21950885Y6679459D01*
X21954428Y6680448D01*
X22129981Y6769126D01*
X22284966Y6890214D01*
X22413480Y7039099D01*
X22510628Y7210110D01*
X22572710Y7396734D01*
X22597360Y7591862D01*
X22597622Y7610623D01*
X22597724Y7617901D01*
X22597724Y7617907D01*
X22597753Y7620000D01*
X22596734Y7630392D01*
X22596373Y7634070D01*
X23122345Y7634070D01*
X23122653Y7630402D01*
X23122653Y7630399D01*
X23126064Y7589785D01*
X23138803Y7438081D01*
X23193015Y7249021D01*
X23282916Y7074092D01*
X23405083Y6919956D01*
X23407877Y6917578D01*
X23407878Y6917577D01*
X23442691Y6887949D01*
X23554862Y6792484D01*
X23558063Y6790695D01*
X23558066Y6790693D01*
X23596656Y6769126D01*
X23726547Y6696533D01*
X23730044Y6695397D01*
X23730048Y6695395D01*
X23822615Y6665319D01*
X23913600Y6635756D01*
X24020984Y6622951D01*
X24105237Y6612904D01*
X24105239Y6612904D01*
X24108895Y6612468D01*
X24304994Y6627557D01*
X24419061Y6659405D01*
X24490883Y6679458D01*
X24490885Y6679459D01*
X24494428Y6680448D01*
X24669981Y6769126D01*
X24824966Y6890214D01*
X24953480Y7039099D01*
X25050628Y7210110D01*
X25112710Y7396734D01*
X25137360Y7591862D01*
X25137622Y7610623D01*
X25137724Y7617901D01*
X25137724Y7617907D01*
X25137753Y7620000D01*
X25136734Y7630392D01*
X25136373Y7634070D01*
X25662345Y7634070D01*
X25662653Y7630402D01*
X25662653Y7630399D01*
X25666064Y7589785D01*
X25678803Y7438081D01*
X25733015Y7249021D01*
X25822916Y7074092D01*
X25945083Y6919956D01*
X25947877Y6917578D01*
X25947878Y6917577D01*
X25982691Y6887949D01*
X26094862Y6792484D01*
X26098063Y6790695D01*
X26098066Y6790693D01*
X26136656Y6769126D01*
X26266547Y6696533D01*
X26270044Y6695397D01*
X26270048Y6695395D01*
X26362615Y6665319D01*
X26453600Y6635756D01*
X26560984Y6622951D01*
X26645237Y6612904D01*
X26645239Y6612904D01*
X26648895Y6612468D01*
X26844994Y6627557D01*
X26959061Y6659405D01*
X27030883Y6679458D01*
X27030885Y6679459D01*
X27034428Y6680448D01*
X27209981Y6769126D01*
X27364966Y6890214D01*
X27493480Y7039099D01*
X27590628Y7210110D01*
X27652710Y7396734D01*
X27677360Y7591862D01*
X27677622Y7610623D01*
X27677724Y7617901D01*
X27677724Y7617907D01*
X27677753Y7620000D01*
X27676734Y7630392D01*
X27676373Y7634070D01*
X28202345Y7634070D01*
X28202653Y7630402D01*
X28202653Y7630399D01*
X28206064Y7589785D01*
X28218803Y7438081D01*
X28273015Y7249021D01*
X28362916Y7074092D01*
X28485083Y6919956D01*
X28487877Y6917578D01*
X28487878Y6917577D01*
X28522691Y6887949D01*
X28634862Y6792484D01*
X28638063Y6790695D01*
X28638066Y6790693D01*
X28676656Y6769126D01*
X28806547Y6696533D01*
X28810044Y6695397D01*
X28810048Y6695395D01*
X28902615Y6665319D01*
X28993600Y6635756D01*
X29100984Y6622951D01*
X29185237Y6612904D01*
X29185239Y6612904D01*
X29188895Y6612468D01*
X29384994Y6627557D01*
X29499061Y6659405D01*
X29570883Y6679458D01*
X29570885Y6679459D01*
X29574428Y6680448D01*
X29749981Y6769126D01*
X29904966Y6890214D01*
X30033480Y7039099D01*
X30130628Y7210110D01*
X30192710Y7396734D01*
X30217360Y7591862D01*
X30217622Y7610623D01*
X30217724Y7617901D01*
X30217724Y7617907D01*
X30217753Y7620000D01*
X30216734Y7630392D01*
X30216373Y7634070D01*
X30742345Y7634070D01*
X30742653Y7630402D01*
X30742653Y7630399D01*
X30746064Y7589785D01*
X30758803Y7438081D01*
X30813015Y7249021D01*
X30902916Y7074092D01*
X31025083Y6919956D01*
X31027877Y6917578D01*
X31027878Y6917577D01*
X31062691Y6887949D01*
X31174862Y6792484D01*
X31178063Y6790695D01*
X31178066Y6790693D01*
X31216656Y6769126D01*
X31346547Y6696533D01*
X31350044Y6695397D01*
X31350048Y6695395D01*
X31442615Y6665319D01*
X31533600Y6635756D01*
X31640984Y6622951D01*
X31725237Y6612904D01*
X31725239Y6612904D01*
X31728895Y6612468D01*
X31924994Y6627557D01*
X32039061Y6659405D01*
X32110883Y6679458D01*
X32110885Y6679459D01*
X32114428Y6680448D01*
X32289981Y6769126D01*
X32444966Y6890214D01*
X32573480Y7039099D01*
X32670628Y7210110D01*
X32732710Y7396734D01*
X32757360Y7591862D01*
X32757622Y7610623D01*
X32757724Y7617901D01*
X32757724Y7617907D01*
X32757753Y7620000D01*
X32756734Y7630392D01*
X32756373Y7634070D01*
X33282345Y7634070D01*
X33282653Y7630402D01*
X33282653Y7630399D01*
X33286064Y7589785D01*
X33298803Y7438081D01*
X33353015Y7249021D01*
X33442916Y7074092D01*
X33565083Y6919956D01*
X33567877Y6917578D01*
X33567878Y6917577D01*
X33602691Y6887949D01*
X33714862Y6792484D01*
X33718063Y6790695D01*
X33718066Y6790693D01*
X33756656Y6769126D01*
X33886547Y6696533D01*
X33890044Y6695397D01*
X33890048Y6695395D01*
X33982615Y6665319D01*
X34073600Y6635756D01*
X34180984Y6622951D01*
X34265237Y6612904D01*
X34265239Y6612904D01*
X34268895Y6612468D01*
X34464994Y6627557D01*
X34579061Y6659405D01*
X34650883Y6679458D01*
X34650885Y6679459D01*
X34654428Y6680448D01*
X34829981Y6769126D01*
X34984966Y6890214D01*
X35113480Y7039099D01*
X35210628Y7210110D01*
X35272710Y7396734D01*
X35297360Y7591862D01*
X35297622Y7610623D01*
X35297724Y7617901D01*
X35297724Y7617907D01*
X35297753Y7620000D01*
X35296734Y7630392D01*
X35296373Y7634070D01*
X35822345Y7634070D01*
X35822653Y7630402D01*
X35822653Y7630399D01*
X35826064Y7589785D01*
X35838803Y7438081D01*
X35893015Y7249021D01*
X35982916Y7074092D01*
X36105083Y6919956D01*
X36107877Y6917578D01*
X36107878Y6917577D01*
X36142691Y6887949D01*
X36254862Y6792484D01*
X36258063Y6790695D01*
X36258066Y6790693D01*
X36296656Y6769126D01*
X36426547Y6696533D01*
X36430044Y6695397D01*
X36430048Y6695395D01*
X36522615Y6665319D01*
X36613600Y6635756D01*
X36720984Y6622951D01*
X36805237Y6612904D01*
X36805239Y6612904D01*
X36808895Y6612468D01*
X37004994Y6627557D01*
X37119061Y6659405D01*
X37190883Y6679458D01*
X37190885Y6679459D01*
X37194428Y6680448D01*
X37369981Y6769126D01*
X37524966Y6890214D01*
X37653480Y7039099D01*
X37750628Y7210110D01*
X37812710Y7396734D01*
X37837360Y7591862D01*
X37837622Y7610623D01*
X37837724Y7617901D01*
X37837724Y7617907D01*
X37837753Y7620000D01*
X37836734Y7630392D01*
X37836373Y7634070D01*
X38362345Y7634070D01*
X38362653Y7630402D01*
X38362653Y7630399D01*
X38366064Y7589785D01*
X38378803Y7438081D01*
X38433015Y7249021D01*
X38522916Y7074092D01*
X38645083Y6919956D01*
X38647877Y6917578D01*
X38647878Y6917577D01*
X38682691Y6887949D01*
X38794862Y6792484D01*
X38798063Y6790695D01*
X38798066Y6790693D01*
X38836656Y6769126D01*
X38966547Y6696533D01*
X38970044Y6695397D01*
X38970048Y6695395D01*
X39062615Y6665319D01*
X39153600Y6635756D01*
X39260984Y6622951D01*
X39345237Y6612904D01*
X39345239Y6612904D01*
X39348895Y6612468D01*
X39544994Y6627557D01*
X39659061Y6659405D01*
X39730883Y6679458D01*
X39730885Y6679459D01*
X39734428Y6680448D01*
X39909981Y6769126D01*
X40064966Y6890214D01*
X40193480Y7039099D01*
X40290628Y7210110D01*
X40352710Y7396734D01*
X40377360Y7591862D01*
X40377622Y7610623D01*
X40377724Y7617901D01*
X40377724Y7617907D01*
X40377753Y7620000D01*
X40376734Y7630392D01*
X40376373Y7634070D01*
X40902345Y7634070D01*
X40902653Y7630402D01*
X40902653Y7630399D01*
X40906064Y7589785D01*
X40918803Y7438081D01*
X40973015Y7249021D01*
X41062916Y7074092D01*
X41185083Y6919956D01*
X41187877Y6917578D01*
X41187878Y6917577D01*
X41222691Y6887949D01*
X41334862Y6792484D01*
X41338063Y6790695D01*
X41338066Y6790693D01*
X41376656Y6769126D01*
X41506547Y6696533D01*
X41510044Y6695397D01*
X41510048Y6695395D01*
X41602615Y6665319D01*
X41693600Y6635756D01*
X41800984Y6622951D01*
X41885237Y6612904D01*
X41885239Y6612904D01*
X41888895Y6612468D01*
X42084994Y6627557D01*
X42199061Y6659405D01*
X42270883Y6679458D01*
X42270885Y6679459D01*
X42274428Y6680448D01*
X42449981Y6769126D01*
X42604966Y6890214D01*
X42733480Y7039099D01*
X42830628Y7210110D01*
X42892710Y7396734D01*
X42917360Y7591862D01*
X42917622Y7610623D01*
X42917724Y7617901D01*
X42917724Y7617907D01*
X42917753Y7620000D01*
X42916734Y7630392D01*
X42898921Y7812073D01*
X42898920Y7812078D01*
X42898561Y7815740D01*
X42841714Y8004025D01*
X42749379Y8177682D01*
X42625072Y8330097D01*
X42473528Y8455465D01*
X42300520Y8549010D01*
X42112637Y8607170D01*
X41976007Y8621530D01*
X41920690Y8627344D01*
X41920689Y8627344D01*
X41917035Y8627728D01*
X41819101Y8618816D01*
X41724824Y8610236D01*
X41724823Y8610236D01*
X41721166Y8609903D01*
X41717641Y8608866D01*
X41717638Y8608865D01*
X41536019Y8555411D01*
X41532489Y8554372D01*
X41358192Y8463252D01*
X41204912Y8340012D01*
X41078489Y8189347D01*
X40983739Y8016996D01*
X40924269Y7829524D01*
X40902345Y7634070D01*
X40376373Y7634070D01*
X40358921Y7812073D01*
X40358920Y7812078D01*
X40358561Y7815740D01*
X40301714Y8004025D01*
X40209379Y8177682D01*
X40085072Y8330097D01*
X39933528Y8455465D01*
X39760520Y8549010D01*
X39572637Y8607170D01*
X39436007Y8621530D01*
X39380690Y8627344D01*
X39380689Y8627344D01*
X39377035Y8627728D01*
X39279101Y8618816D01*
X39184824Y8610236D01*
X39184823Y8610236D01*
X39181166Y8609903D01*
X39177641Y8608866D01*
X39177638Y8608865D01*
X38996019Y8555411D01*
X38992489Y8554372D01*
X38818192Y8463252D01*
X38664912Y8340012D01*
X38538489Y8189347D01*
X38443739Y8016996D01*
X38384269Y7829524D01*
X38362345Y7634070D01*
X37836373Y7634070D01*
X37818921Y7812073D01*
X37818920Y7812078D01*
X37818561Y7815740D01*
X37761714Y8004025D01*
X37669379Y8177682D01*
X37545072Y8330097D01*
X37393528Y8455465D01*
X37220520Y8549010D01*
X37032637Y8607170D01*
X36896007Y8621530D01*
X36840690Y8627344D01*
X36840689Y8627344D01*
X36837035Y8627728D01*
X36739101Y8618816D01*
X36644824Y8610236D01*
X36644823Y8610236D01*
X36641166Y8609903D01*
X36637641Y8608866D01*
X36637638Y8608865D01*
X36456019Y8555411D01*
X36452489Y8554372D01*
X36278192Y8463252D01*
X36124912Y8340012D01*
X35998489Y8189347D01*
X35903739Y8016996D01*
X35844269Y7829524D01*
X35822345Y7634070D01*
X35296373Y7634070D01*
X35278921Y7812073D01*
X35278920Y7812078D01*
X35278561Y7815740D01*
X35221714Y8004025D01*
X35129379Y8177682D01*
X35005072Y8330097D01*
X34853528Y8455465D01*
X34680520Y8549010D01*
X34492637Y8607170D01*
X34356007Y8621530D01*
X34300690Y8627344D01*
X34300689Y8627344D01*
X34297035Y8627728D01*
X34199101Y8618816D01*
X34104824Y8610236D01*
X34104823Y8610236D01*
X34101166Y8609903D01*
X34097641Y8608866D01*
X34097638Y8608865D01*
X33916019Y8555411D01*
X33912489Y8554372D01*
X33738192Y8463252D01*
X33584912Y8340012D01*
X33458489Y8189347D01*
X33363739Y8016996D01*
X33304269Y7829524D01*
X33282345Y7634070D01*
X32756373Y7634070D01*
X32738921Y7812073D01*
X32738920Y7812078D01*
X32738561Y7815740D01*
X32681714Y8004025D01*
X32589379Y8177682D01*
X32465072Y8330097D01*
X32313528Y8455465D01*
X32140520Y8549010D01*
X31952637Y8607170D01*
X31816007Y8621530D01*
X31760690Y8627344D01*
X31760689Y8627344D01*
X31757035Y8627728D01*
X31659101Y8618816D01*
X31564824Y8610236D01*
X31564823Y8610236D01*
X31561166Y8609903D01*
X31557641Y8608866D01*
X31557638Y8608865D01*
X31376019Y8555411D01*
X31372489Y8554372D01*
X31198192Y8463252D01*
X31044912Y8340012D01*
X30918489Y8189347D01*
X30823739Y8016996D01*
X30764269Y7829524D01*
X30742345Y7634070D01*
X30216373Y7634070D01*
X30198921Y7812073D01*
X30198920Y7812078D01*
X30198561Y7815740D01*
X30141714Y8004025D01*
X30049379Y8177682D01*
X29925072Y8330097D01*
X29773528Y8455465D01*
X29600520Y8549010D01*
X29412637Y8607170D01*
X29276007Y8621530D01*
X29220690Y8627344D01*
X29220689Y8627344D01*
X29217035Y8627728D01*
X29119101Y8618816D01*
X29024824Y8610236D01*
X29024823Y8610236D01*
X29021166Y8609903D01*
X29017641Y8608866D01*
X29017638Y8608865D01*
X28836019Y8555411D01*
X28832489Y8554372D01*
X28658192Y8463252D01*
X28504912Y8340012D01*
X28378489Y8189347D01*
X28283739Y8016996D01*
X28224269Y7829524D01*
X28202345Y7634070D01*
X27676373Y7634070D01*
X27658921Y7812073D01*
X27658920Y7812078D01*
X27658561Y7815740D01*
X27601714Y8004025D01*
X27509379Y8177682D01*
X27385072Y8330097D01*
X27233528Y8455465D01*
X27060520Y8549010D01*
X26872637Y8607170D01*
X26736007Y8621530D01*
X26680690Y8627344D01*
X26680689Y8627344D01*
X26677035Y8627728D01*
X26579101Y8618816D01*
X26484824Y8610236D01*
X26484823Y8610236D01*
X26481166Y8609903D01*
X26477641Y8608866D01*
X26477638Y8608865D01*
X26296019Y8555411D01*
X26292489Y8554372D01*
X26118192Y8463252D01*
X25964912Y8340012D01*
X25838489Y8189347D01*
X25743739Y8016996D01*
X25684269Y7829524D01*
X25662345Y7634070D01*
X25136373Y7634070D01*
X25118921Y7812073D01*
X25118920Y7812078D01*
X25118561Y7815740D01*
X25061714Y8004025D01*
X24969379Y8177682D01*
X24845072Y8330097D01*
X24693528Y8455465D01*
X24520520Y8549010D01*
X24332637Y8607170D01*
X24196007Y8621530D01*
X24140690Y8627344D01*
X24140689Y8627344D01*
X24137035Y8627728D01*
X24039101Y8618816D01*
X23944824Y8610236D01*
X23944823Y8610236D01*
X23941166Y8609903D01*
X23937641Y8608866D01*
X23937638Y8608865D01*
X23756019Y8555411D01*
X23752489Y8554372D01*
X23578192Y8463252D01*
X23424912Y8340012D01*
X23298489Y8189347D01*
X23203739Y8016996D01*
X23144269Y7829524D01*
X23122345Y7634070D01*
X22596373Y7634070D01*
X22578921Y7812073D01*
X22578920Y7812078D01*
X22578561Y7815740D01*
X22521714Y8004025D01*
X22429379Y8177682D01*
X22305072Y8330097D01*
X22153528Y8455465D01*
X21980520Y8549010D01*
X21792637Y8607170D01*
X21656007Y8621530D01*
X21600690Y8627344D01*
X21600689Y8627344D01*
X21597035Y8627728D01*
X21499101Y8618816D01*
X21404824Y8610236D01*
X21404823Y8610236D01*
X21401166Y8609903D01*
X21397641Y8608866D01*
X21397638Y8608865D01*
X21216019Y8555411D01*
X21212489Y8554372D01*
X21038192Y8463252D01*
X20884912Y8340012D01*
X20758489Y8189347D01*
X20663739Y8016996D01*
X20604269Y7829524D01*
X20582345Y7634070D01*
X20056373Y7634070D01*
X20038921Y7812073D01*
X20038920Y7812078D01*
X20038561Y7815740D01*
X19981714Y8004025D01*
X19889379Y8177682D01*
X19765072Y8330097D01*
X19613528Y8455465D01*
X19440520Y8549010D01*
X19252637Y8607170D01*
X19116007Y8621530D01*
X19060690Y8627344D01*
X19060689Y8627344D01*
X19057035Y8627728D01*
X18959101Y8618816D01*
X18864824Y8610236D01*
X18864823Y8610236D01*
X18861166Y8609903D01*
X18857641Y8608866D01*
X18857638Y8608865D01*
X18676019Y8555411D01*
X18672489Y8554372D01*
X18498192Y8463252D01*
X18344912Y8340012D01*
X18218489Y8189347D01*
X18123739Y8016996D01*
X18064269Y7829524D01*
X18042345Y7634070D01*
X17516373Y7634070D01*
X17498921Y7812073D01*
X17498920Y7812078D01*
X17498561Y7815740D01*
X17441714Y8004025D01*
X17349379Y8177682D01*
X17225072Y8330097D01*
X17073528Y8455465D01*
X16900520Y8549010D01*
X16712637Y8607170D01*
X16576007Y8621530D01*
X16520690Y8627344D01*
X16520689Y8627344D01*
X16517035Y8627728D01*
X16419101Y8618816D01*
X16324824Y8610236D01*
X16324823Y8610236D01*
X16321166Y8609903D01*
X16317641Y8608866D01*
X16317638Y8608865D01*
X16136019Y8555411D01*
X16132489Y8554372D01*
X15958192Y8463252D01*
X15804912Y8340012D01*
X15678489Y8189347D01*
X15583739Y8016996D01*
X15524269Y7829524D01*
X15502345Y7634070D01*
X14975871Y7634070D01*
X14958427Y7811976D01*
X14957001Y7819172D01*
X14902312Y8000312D01*
X14899524Y8007078D01*
X14810687Y8174156D01*
X14806635Y8180255D01*
X14787679Y8203497D01*
X14778393Y8209032D01*
X14773816Y8208290D01*
X14194903Y7629377D01*
X14190334Y7619578D01*
X13749272Y7619578D01*
X13749666Y7620422D01*
X13748061Y7626413D01*
X13169500Y8204974D01*
X13159701Y8209543D01*
X13155041Y8208295D01*
X13141269Y8191881D01*
X13137131Y8185838D01*
X13045975Y8020025D01*
X13043088Y8013289D01*
X12985874Y7832926D01*
X12984351Y7825761D01*
X12963259Y7637725D01*
X12963156Y7630392D01*
X152900Y7630392D01*
X152900Y8428124D01*
X13381199Y8428124D01*
X13381894Y8423632D01*
X13960623Y7844903D01*
X13970422Y7840334D01*
X13976413Y7841939D01*
X14554667Y8420193D01*
X14559236Y8429992D01*
X14558012Y8434560D01*
X14536077Y8452707D01*
X14530018Y8456794D01*
X14363557Y8546799D01*
X14356813Y8549634D01*
X14176047Y8605590D01*
X14168880Y8607061D01*
X13980687Y8626841D01*
X13973374Y8626892D01*
X13784918Y8609742D01*
X13777732Y8608371D01*
X13596208Y8554945D01*
X13589421Y8552203D01*
X13421718Y8464531D01*
X13415607Y8460531D01*
X13386798Y8437369D01*
X13381199Y8428124D01*
X152900Y8428124D01*
X152900Y11436207D01*
X29971967Y11436207D01*
X29990645Y11293370D01*
X30048662Y11161516D01*
X30052107Y11157418D01*
X30052108Y11157416D01*
X30105923Y11093396D01*
X30141354Y11051245D01*
X30261270Y10971423D01*
X30398769Y10928465D01*
X30472871Y10927107D01*
X30537436Y10925923D01*
X30537438Y10925923D01*
X30542798Y10925825D01*
X30547969Y10927235D01*
X30547971Y10927235D01*
X30623695Y10947880D01*
X30681779Y10963715D01*
X30734871Y10996314D01*
X30799970Y11036284D01*
X30799973Y11036286D01*
X30804539Y11039090D01*
X30894128Y11138066D01*
X30939608Y11162095D01*
X30949879Y11162800D01*
X42150892Y11162800D01*
X42199230Y11145207D01*
X42204066Y11140774D01*
X44597499Y8747342D01*
X44619239Y8700722D01*
X44605925Y8651035D01*
X44563788Y8621530D01*
X44536465Y8619380D01*
X44460691Y8627344D01*
X44460688Y8627344D01*
X44457035Y8627728D01*
X44359101Y8618816D01*
X44264824Y8610236D01*
X44264823Y8610236D01*
X44261166Y8609903D01*
X44257641Y8608866D01*
X44257638Y8608865D01*
X44076019Y8555411D01*
X44072489Y8554372D01*
X43898192Y8463252D01*
X43744912Y8340012D01*
X43618489Y8189347D01*
X43523739Y8016996D01*
X43464269Y7829524D01*
X43442345Y7634070D01*
X43442653Y7630402D01*
X43442653Y7630399D01*
X43446064Y7589785D01*
X43458803Y7438081D01*
X43513015Y7249021D01*
X43602916Y7074092D01*
X43725083Y6919956D01*
X43727877Y6917578D01*
X43727878Y6917577D01*
X43762691Y6887949D01*
X43874862Y6792484D01*
X43878063Y6790695D01*
X43878066Y6790693D01*
X43916656Y6769126D01*
X44046547Y6696533D01*
X44050044Y6695397D01*
X44050048Y6695395D01*
X44142615Y6665319D01*
X44233600Y6635756D01*
X44340984Y6622951D01*
X44425237Y6612904D01*
X44425239Y6612904D01*
X44428895Y6612468D01*
X44624994Y6627557D01*
X44739061Y6659405D01*
X44810883Y6679458D01*
X44810885Y6679459D01*
X44814428Y6680448D01*
X44989981Y6769126D01*
X45144966Y6890214D01*
X45273480Y7039099D01*
X45370628Y7210110D01*
X45432710Y7396734D01*
X45456292Y7583408D01*
X45479805Y7629159D01*
X45527225Y7649093D01*
X45576365Y7633882D01*
X45604230Y7590644D01*
X45606099Y7573983D01*
X45606099Y6230430D01*
X45604654Y6215759D01*
X45600863Y6196701D01*
X45621602Y6092444D01*
X45638490Y6067170D01*
X45680658Y6004060D01*
X45692995Y5995817D01*
X45696813Y5993266D01*
X45708209Y5983913D01*
X46077517Y5614605D01*
X46099257Y5567985D01*
X46090243Y5525206D01*
X46063739Y5476996D01*
X46004269Y5289524D01*
X45982345Y5094070D01*
X45982653Y5090402D01*
X45982653Y5090399D01*
X45985889Y5051862D01*
X45998803Y4898081D01*
X46053015Y4709021D01*
X46142916Y4534092D01*
X46265083Y4379956D01*
X46267877Y4377578D01*
X46267878Y4377577D01*
X46302691Y4347949D01*
X46414862Y4252484D01*
X46418063Y4250695D01*
X46418066Y4250693D01*
X46456656Y4229126D01*
X46586547Y4156533D01*
X46590044Y4155397D01*
X46590048Y4155395D01*
X46680755Y4125923D01*
X46773600Y4095756D01*
X46880984Y4082951D01*
X46965237Y4072904D01*
X46965239Y4072904D01*
X46968895Y4072468D01*
X47164994Y4087557D01*
X47288627Y4122076D01*
X47350883Y4139458D01*
X47350885Y4139459D01*
X47354428Y4140448D01*
X47494727Y4211318D01*
X47526697Y4227467D01*
X47526698Y4227468D01*
X47529981Y4229126D01*
X47684966Y4350214D01*
X47813480Y4499099D01*
X47842546Y4550264D01*
X47908810Y4666909D01*
X47908812Y4666912D01*
X47910628Y4670110D01*
X47972710Y4856734D01*
X47997360Y5051862D01*
X47997753Y5080000D01*
X47997548Y5082093D01*
X47996374Y5094070D01*
X48522345Y5094070D01*
X48522653Y5090402D01*
X48522653Y5090399D01*
X48525889Y5051862D01*
X48538803Y4898081D01*
X48593015Y4709021D01*
X48682916Y4534092D01*
X48805083Y4379956D01*
X48807877Y4377578D01*
X48807878Y4377577D01*
X48842691Y4347949D01*
X48954862Y4252484D01*
X48958063Y4250695D01*
X48958066Y4250693D01*
X48996656Y4229126D01*
X49126547Y4156533D01*
X49130044Y4155397D01*
X49130048Y4155395D01*
X49220755Y4125923D01*
X49313600Y4095756D01*
X49420984Y4082951D01*
X49505237Y4072904D01*
X49505239Y4072904D01*
X49508895Y4072468D01*
X49704994Y4087557D01*
X49828627Y4122076D01*
X49890883Y4139458D01*
X49890885Y4139459D01*
X49894428Y4140448D01*
X50034727Y4211318D01*
X50066697Y4227467D01*
X50066698Y4227468D01*
X50069981Y4229126D01*
X50224966Y4350214D01*
X50353480Y4499099D01*
X50382546Y4550264D01*
X50448810Y4666909D01*
X50448812Y4666912D01*
X50450628Y4670110D01*
X50512710Y4856734D01*
X50537360Y5051862D01*
X50537753Y5080000D01*
X50537548Y5082093D01*
X50536374Y5094070D01*
X51062345Y5094070D01*
X51062653Y5090402D01*
X51062653Y5090399D01*
X51065889Y5051862D01*
X51078803Y4898081D01*
X51133015Y4709021D01*
X51222916Y4534092D01*
X51345083Y4379956D01*
X51347877Y4377578D01*
X51347878Y4377577D01*
X51382691Y4347949D01*
X51494862Y4252484D01*
X51498063Y4250695D01*
X51498066Y4250693D01*
X51536656Y4229126D01*
X51666547Y4156533D01*
X51670044Y4155397D01*
X51670048Y4155395D01*
X51760755Y4125923D01*
X51853600Y4095756D01*
X51960984Y4082951D01*
X52045237Y4072904D01*
X52045239Y4072904D01*
X52048895Y4072468D01*
X52244994Y4087557D01*
X52368627Y4122076D01*
X52430883Y4139458D01*
X52430885Y4139459D01*
X52434428Y4140448D01*
X52574727Y4211318D01*
X52606697Y4227467D01*
X52606698Y4227468D01*
X52609981Y4229126D01*
X52764966Y4350214D01*
X52893480Y4499099D01*
X52922546Y4550264D01*
X52988810Y4666909D01*
X52988812Y4666912D01*
X52990628Y4670110D01*
X53052710Y4856734D01*
X53077360Y5051862D01*
X53077753Y5080000D01*
X53077548Y5082093D01*
X53076374Y5094070D01*
X53602345Y5094070D01*
X53602653Y5090402D01*
X53602653Y5090399D01*
X53605889Y5051862D01*
X53618803Y4898081D01*
X53673015Y4709021D01*
X53762916Y4534092D01*
X53885083Y4379956D01*
X53887877Y4377578D01*
X53887878Y4377577D01*
X53922691Y4347949D01*
X54034862Y4252484D01*
X54038063Y4250695D01*
X54038066Y4250693D01*
X54076656Y4229126D01*
X54206547Y4156533D01*
X54210044Y4155397D01*
X54210048Y4155395D01*
X54300755Y4125923D01*
X54393600Y4095756D01*
X54500984Y4082951D01*
X54585237Y4072904D01*
X54585239Y4072904D01*
X54588895Y4072468D01*
X54784994Y4087557D01*
X54908627Y4122076D01*
X54970883Y4139458D01*
X54970885Y4139459D01*
X54974428Y4140448D01*
X55114727Y4211318D01*
X55146697Y4227467D01*
X55146698Y4227468D01*
X55149981Y4229126D01*
X55304966Y4350214D01*
X55433480Y4499099D01*
X55462546Y4550264D01*
X55528810Y4666909D01*
X55528812Y4666912D01*
X55530628Y4670110D01*
X55592710Y4856734D01*
X55617360Y5051862D01*
X55617753Y5080000D01*
X55617548Y5082093D01*
X55616374Y5094070D01*
X56142345Y5094070D01*
X56142653Y5090402D01*
X56142653Y5090399D01*
X56145889Y5051862D01*
X56158803Y4898081D01*
X56213015Y4709021D01*
X56302916Y4534092D01*
X56425083Y4379956D01*
X56427877Y4377578D01*
X56427878Y4377577D01*
X56462691Y4347949D01*
X56574862Y4252484D01*
X56578063Y4250695D01*
X56578066Y4250693D01*
X56616656Y4229126D01*
X56746547Y4156533D01*
X56750044Y4155397D01*
X56750048Y4155395D01*
X56840755Y4125923D01*
X56933600Y4095756D01*
X57040984Y4082951D01*
X57125237Y4072904D01*
X57125239Y4072904D01*
X57128895Y4072468D01*
X57324994Y4087557D01*
X57448627Y4122076D01*
X57510883Y4139458D01*
X57510885Y4139459D01*
X57514428Y4140448D01*
X57654727Y4211318D01*
X57686697Y4227467D01*
X57686698Y4227468D01*
X57689981Y4229126D01*
X57844966Y4350214D01*
X57973480Y4499099D01*
X58002546Y4550264D01*
X58068810Y4666909D01*
X58068812Y4666912D01*
X58070628Y4670110D01*
X58132710Y4856734D01*
X58157360Y5051862D01*
X58157753Y5080000D01*
X58157548Y5082093D01*
X58156374Y5094070D01*
X58682345Y5094070D01*
X58682653Y5090402D01*
X58682653Y5090399D01*
X58685889Y5051862D01*
X58698803Y4898081D01*
X58753015Y4709021D01*
X58842916Y4534092D01*
X58965083Y4379956D01*
X58967877Y4377578D01*
X58967878Y4377577D01*
X59002691Y4347949D01*
X59114862Y4252484D01*
X59118063Y4250695D01*
X59118066Y4250693D01*
X59156656Y4229126D01*
X59286547Y4156533D01*
X59290044Y4155397D01*
X59290048Y4155395D01*
X59380755Y4125923D01*
X59473600Y4095756D01*
X59580984Y4082951D01*
X59665237Y4072904D01*
X59665239Y4072904D01*
X59668895Y4072468D01*
X59864994Y4087557D01*
X59988627Y4122076D01*
X60050883Y4139458D01*
X60050885Y4139459D01*
X60054428Y4140448D01*
X60194727Y4211318D01*
X60226697Y4227467D01*
X60226698Y4227468D01*
X60229981Y4229126D01*
X60384966Y4350214D01*
X60513480Y4499099D01*
X60542546Y4550264D01*
X60608810Y4666909D01*
X60608812Y4666912D01*
X60610628Y4670110D01*
X60672710Y4856734D01*
X60697360Y5051862D01*
X60697753Y5080000D01*
X60697548Y5082093D01*
X60696374Y5094070D01*
X61222345Y5094070D01*
X61222653Y5090402D01*
X61222653Y5090399D01*
X61225889Y5051862D01*
X61238803Y4898081D01*
X61293015Y4709021D01*
X61382916Y4534092D01*
X61505083Y4379956D01*
X61507877Y4377578D01*
X61507878Y4377577D01*
X61542691Y4347949D01*
X61654862Y4252484D01*
X61658063Y4250695D01*
X61658066Y4250693D01*
X61696656Y4229126D01*
X61826547Y4156533D01*
X61830044Y4155397D01*
X61830048Y4155395D01*
X61920755Y4125923D01*
X62013600Y4095756D01*
X62120984Y4082951D01*
X62205237Y4072904D01*
X62205239Y4072904D01*
X62208895Y4072468D01*
X62404994Y4087557D01*
X62528627Y4122076D01*
X62590883Y4139458D01*
X62590885Y4139459D01*
X62594428Y4140448D01*
X62734727Y4211318D01*
X62766697Y4227467D01*
X62766698Y4227468D01*
X62769981Y4229126D01*
X62924966Y4350214D01*
X63053480Y4499099D01*
X63082546Y4550264D01*
X63148810Y4666909D01*
X63148812Y4666912D01*
X63150628Y4670110D01*
X63212710Y4856734D01*
X63237360Y5051862D01*
X63237753Y5080000D01*
X63237548Y5082093D01*
X63218921Y5272073D01*
X63218920Y5272078D01*
X63218561Y5275740D01*
X63161714Y5464025D01*
X63069379Y5637682D01*
X62945072Y5790097D01*
X62793528Y5915465D01*
X62620520Y6009010D01*
X62432637Y6067170D01*
X62289832Y6082179D01*
X62240690Y6087344D01*
X62240689Y6087344D01*
X62237035Y6087728D01*
X62139101Y6078816D01*
X62044824Y6070236D01*
X62044823Y6070236D01*
X62041166Y6069903D01*
X62037641Y6068866D01*
X62037638Y6068865D01*
X61919440Y6034077D01*
X61852489Y6014372D01*
X61678192Y5923252D01*
X61524912Y5800012D01*
X61398489Y5649347D01*
X61396718Y5646125D01*
X61396717Y5646124D01*
X61364829Y5588120D01*
X61303739Y5476996D01*
X61244269Y5289524D01*
X61222345Y5094070D01*
X60696374Y5094070D01*
X60678921Y5272073D01*
X60678920Y5272078D01*
X60678561Y5275740D01*
X60621714Y5464025D01*
X60529379Y5637682D01*
X60405072Y5790097D01*
X60253528Y5915465D01*
X60080520Y6009010D01*
X59892637Y6067170D01*
X59749832Y6082179D01*
X59700690Y6087344D01*
X59700689Y6087344D01*
X59697035Y6087728D01*
X59599101Y6078816D01*
X59504824Y6070236D01*
X59504823Y6070236D01*
X59501166Y6069903D01*
X59497641Y6068866D01*
X59497638Y6068865D01*
X59379440Y6034077D01*
X59312489Y6014372D01*
X59138192Y5923252D01*
X58984912Y5800012D01*
X58858489Y5649347D01*
X58856718Y5646125D01*
X58856717Y5646124D01*
X58824829Y5588120D01*
X58763739Y5476996D01*
X58704269Y5289524D01*
X58682345Y5094070D01*
X58156374Y5094070D01*
X58138921Y5272073D01*
X58138920Y5272078D01*
X58138561Y5275740D01*
X58081714Y5464025D01*
X57989379Y5637682D01*
X57865072Y5790097D01*
X57713528Y5915465D01*
X57540520Y6009010D01*
X57352637Y6067170D01*
X57209832Y6082179D01*
X57160690Y6087344D01*
X57160689Y6087344D01*
X57157035Y6087728D01*
X57059101Y6078816D01*
X56964824Y6070236D01*
X56964823Y6070236D01*
X56961166Y6069903D01*
X56957641Y6068866D01*
X56957638Y6068865D01*
X56839440Y6034077D01*
X56772489Y6014372D01*
X56598192Y5923252D01*
X56444912Y5800012D01*
X56318489Y5649347D01*
X56316718Y5646125D01*
X56316717Y5646124D01*
X56284829Y5588120D01*
X56223739Y5476996D01*
X56164269Y5289524D01*
X56142345Y5094070D01*
X55616374Y5094070D01*
X55598921Y5272073D01*
X55598920Y5272078D01*
X55598561Y5275740D01*
X55541714Y5464025D01*
X55449379Y5637682D01*
X55325072Y5790097D01*
X55173528Y5915465D01*
X55000520Y6009010D01*
X54812637Y6067170D01*
X54669832Y6082179D01*
X54620690Y6087344D01*
X54620689Y6087344D01*
X54617035Y6087728D01*
X54519101Y6078816D01*
X54424824Y6070236D01*
X54424823Y6070236D01*
X54421166Y6069903D01*
X54417641Y6068866D01*
X54417638Y6068865D01*
X54299440Y6034077D01*
X54232489Y6014372D01*
X54058192Y5923252D01*
X53904912Y5800012D01*
X53778489Y5649347D01*
X53776718Y5646125D01*
X53776717Y5646124D01*
X53744829Y5588120D01*
X53683739Y5476996D01*
X53624269Y5289524D01*
X53602345Y5094070D01*
X53076374Y5094070D01*
X53058921Y5272073D01*
X53058920Y5272078D01*
X53058561Y5275740D01*
X53001714Y5464025D01*
X52909379Y5637682D01*
X52785072Y5790097D01*
X52633528Y5915465D01*
X52460520Y6009010D01*
X52272637Y6067170D01*
X52129832Y6082179D01*
X52080690Y6087344D01*
X52080689Y6087344D01*
X52077035Y6087728D01*
X51979101Y6078816D01*
X51884824Y6070236D01*
X51884823Y6070236D01*
X51881166Y6069903D01*
X51877641Y6068866D01*
X51877638Y6068865D01*
X51759440Y6034077D01*
X51692489Y6014372D01*
X51518192Y5923252D01*
X51364912Y5800012D01*
X51238489Y5649347D01*
X51236718Y5646125D01*
X51236717Y5646124D01*
X51204829Y5588120D01*
X51143739Y5476996D01*
X51084269Y5289524D01*
X51062345Y5094070D01*
X50536374Y5094070D01*
X50518921Y5272073D01*
X50518920Y5272078D01*
X50518561Y5275740D01*
X50461714Y5464025D01*
X50369379Y5637682D01*
X50245072Y5790097D01*
X50093528Y5915465D01*
X49920520Y6009010D01*
X49732637Y6067170D01*
X49589832Y6082179D01*
X49540690Y6087344D01*
X49540689Y6087344D01*
X49537035Y6087728D01*
X49439101Y6078816D01*
X49344824Y6070236D01*
X49344823Y6070236D01*
X49341166Y6069903D01*
X49337641Y6068866D01*
X49337638Y6068865D01*
X49219440Y6034077D01*
X49152489Y6014372D01*
X48978192Y5923252D01*
X48824912Y5800012D01*
X48698489Y5649347D01*
X48696718Y5646125D01*
X48696717Y5646124D01*
X48664829Y5588120D01*
X48603739Y5476996D01*
X48544269Y5289524D01*
X48522345Y5094070D01*
X47996374Y5094070D01*
X47978921Y5272073D01*
X47978920Y5272078D01*
X47978561Y5275740D01*
X47921714Y5464025D01*
X47829379Y5637682D01*
X47705072Y5790097D01*
X47553528Y5915465D01*
X47380520Y6009010D01*
X47192637Y6067170D01*
X47049832Y6082179D01*
X47000690Y6087344D01*
X47000689Y6087344D01*
X46997035Y6087728D01*
X46899101Y6078816D01*
X46804824Y6070236D01*
X46804823Y6070236D01*
X46801166Y6069903D01*
X46797641Y6068866D01*
X46797638Y6068865D01*
X46616018Y6015411D01*
X46616015Y6015410D01*
X46612489Y6014372D01*
X46609230Y6012668D01*
X46609227Y6012667D01*
X46584896Y5999947D01*
X46554226Y5983913D01*
X46543906Y5978518D01*
X46492918Y5971714D01*
X46455892Y5991986D01*
X46162525Y6285353D01*
X46140785Y6331973D01*
X46140499Y6338527D01*
X46140499Y6863356D01*
X46158092Y6911694D01*
X46202641Y6937414D01*
X46253299Y6928481D01*
X46264734Y6919546D01*
X46265083Y6919956D01*
X46414862Y6792484D01*
X46418063Y6790695D01*
X46418066Y6790693D01*
X46456656Y6769126D01*
X46586547Y6696533D01*
X46590044Y6695397D01*
X46590048Y6695395D01*
X46682615Y6665319D01*
X46773600Y6635756D01*
X46880984Y6622951D01*
X46965237Y6612904D01*
X46965239Y6612904D01*
X46968895Y6612468D01*
X47164994Y6627557D01*
X47279061Y6659405D01*
X47350883Y6679458D01*
X47350885Y6679459D01*
X47354428Y6680448D01*
X47529981Y6769126D01*
X47684966Y6890214D01*
X47813480Y7039099D01*
X47910628Y7210110D01*
X47972710Y7396734D01*
X47997360Y7591862D01*
X47997622Y7610623D01*
X47997724Y7617901D01*
X47997724Y7617907D01*
X47997753Y7620000D01*
X47996734Y7630392D01*
X47996373Y7634070D01*
X48522345Y7634070D01*
X48522653Y7630402D01*
X48522653Y7630399D01*
X48526064Y7589785D01*
X48538803Y7438081D01*
X48593015Y7249021D01*
X48682916Y7074092D01*
X48805083Y6919956D01*
X48807877Y6917578D01*
X48807878Y6917577D01*
X48842691Y6887949D01*
X48954862Y6792484D01*
X48958063Y6790695D01*
X48958066Y6790693D01*
X48996656Y6769126D01*
X49126547Y6696533D01*
X49130044Y6695397D01*
X49130048Y6695395D01*
X49222615Y6665319D01*
X49313600Y6635756D01*
X49420984Y6622951D01*
X49505237Y6612904D01*
X49505239Y6612904D01*
X49508895Y6612468D01*
X49704994Y6627557D01*
X49819061Y6659405D01*
X49890883Y6679458D01*
X49890885Y6679459D01*
X49894428Y6680448D01*
X50069981Y6769126D01*
X50224966Y6890214D01*
X50353480Y7039099D01*
X50450628Y7210110D01*
X50512710Y7396734D01*
X50537360Y7591862D01*
X50537622Y7610623D01*
X50537724Y7617901D01*
X50537724Y7617907D01*
X50537753Y7620000D01*
X50536734Y7630392D01*
X50536373Y7634070D01*
X51062345Y7634070D01*
X51062653Y7630402D01*
X51062653Y7630399D01*
X51066064Y7589785D01*
X51078803Y7438081D01*
X51133015Y7249021D01*
X51222916Y7074092D01*
X51345083Y6919956D01*
X51347877Y6917578D01*
X51347878Y6917577D01*
X51382691Y6887949D01*
X51494862Y6792484D01*
X51498063Y6790695D01*
X51498066Y6790693D01*
X51536656Y6769126D01*
X51666547Y6696533D01*
X51670044Y6695397D01*
X51670048Y6695395D01*
X51762615Y6665319D01*
X51853600Y6635756D01*
X51960984Y6622951D01*
X52045237Y6612904D01*
X52045239Y6612904D01*
X52048895Y6612468D01*
X52244994Y6627557D01*
X52359061Y6659405D01*
X52430883Y6679458D01*
X52430885Y6679459D01*
X52434428Y6680448D01*
X52609981Y6769126D01*
X52764966Y6890214D01*
X52893480Y7039099D01*
X52990628Y7210110D01*
X53052710Y7396734D01*
X53077360Y7591862D01*
X53077622Y7610623D01*
X53077724Y7617901D01*
X53077724Y7617907D01*
X53077753Y7620000D01*
X53076734Y7630392D01*
X53076373Y7634070D01*
X53602345Y7634070D01*
X53602653Y7630402D01*
X53602653Y7630399D01*
X53606064Y7589785D01*
X53618803Y7438081D01*
X53673015Y7249021D01*
X53762916Y7074092D01*
X53885083Y6919956D01*
X53887877Y6917578D01*
X53887878Y6917577D01*
X53922691Y6887949D01*
X54034862Y6792484D01*
X54038063Y6790695D01*
X54038066Y6790693D01*
X54076656Y6769126D01*
X54206547Y6696533D01*
X54210044Y6695397D01*
X54210048Y6695395D01*
X54302615Y6665319D01*
X54393600Y6635756D01*
X54500984Y6622951D01*
X54585237Y6612904D01*
X54585239Y6612904D01*
X54588895Y6612468D01*
X54784994Y6627557D01*
X54899061Y6659405D01*
X54970883Y6679458D01*
X54970885Y6679459D01*
X54974428Y6680448D01*
X55149981Y6769126D01*
X55304966Y6890214D01*
X55433480Y7039099D01*
X55530628Y7210110D01*
X55592710Y7396734D01*
X55617360Y7591862D01*
X55617622Y7610623D01*
X55617724Y7617901D01*
X55617724Y7617907D01*
X55617753Y7620000D01*
X55616734Y7630392D01*
X55616373Y7634070D01*
X56142345Y7634070D01*
X56142653Y7630402D01*
X56142653Y7630399D01*
X56146064Y7589785D01*
X56158803Y7438081D01*
X56213015Y7249021D01*
X56302916Y7074092D01*
X56425083Y6919956D01*
X56427877Y6917578D01*
X56427878Y6917577D01*
X56462691Y6887949D01*
X56574862Y6792484D01*
X56578063Y6790695D01*
X56578066Y6790693D01*
X56616656Y6769126D01*
X56746547Y6696533D01*
X56750044Y6695397D01*
X56750048Y6695395D01*
X56842615Y6665319D01*
X56933600Y6635756D01*
X57040984Y6622951D01*
X57125237Y6612904D01*
X57125239Y6612904D01*
X57128895Y6612468D01*
X57324994Y6627557D01*
X57439061Y6659405D01*
X57510883Y6679458D01*
X57510885Y6679459D01*
X57514428Y6680448D01*
X57689981Y6769126D01*
X57741479Y6809361D01*
X59100117Y6809361D01*
X59101391Y6804607D01*
X59112346Y6795282D01*
X59118359Y6791103D01*
X59283537Y6698789D01*
X59290250Y6695856D01*
X59470210Y6637384D01*
X59477358Y6635812D01*
X59665248Y6613407D01*
X59672581Y6613254D01*
X59861239Y6627770D01*
X59868447Y6629041D01*
X60050701Y6679927D01*
X60057534Y6682578D01*
X60226426Y6767891D01*
X60232612Y6771816D01*
X60272713Y6803147D01*
X60276596Y6809361D01*
X61640117Y6809361D01*
X61641391Y6804607D01*
X61652346Y6795282D01*
X61658359Y6791103D01*
X61823537Y6698789D01*
X61830250Y6695856D01*
X62010210Y6637384D01*
X62017358Y6635812D01*
X62205248Y6613407D01*
X62212581Y6613254D01*
X62401239Y6627770D01*
X62408447Y6629041D01*
X62590701Y6679927D01*
X62597534Y6682578D01*
X62766426Y6767891D01*
X62772612Y6771816D01*
X62812713Y6803147D01*
X62818443Y6812316D01*
X62817835Y6816639D01*
X62239377Y7395097D01*
X62229578Y7399666D01*
X62223587Y7398061D01*
X61644686Y6819160D01*
X61640117Y6809361D01*
X60276596Y6809361D01*
X60278443Y6812316D01*
X60277835Y6816639D01*
X59699377Y7395097D01*
X59689578Y7399666D01*
X59683587Y7398061D01*
X59104686Y6819160D01*
X59100117Y6809361D01*
X57741479Y6809361D01*
X57844966Y6890214D01*
X57973480Y7039099D01*
X58070628Y7210110D01*
X58132710Y7396734D01*
X58157360Y7591862D01*
X58157622Y7610623D01*
X58157724Y7617901D01*
X58157724Y7617907D01*
X58157753Y7620000D01*
X58156734Y7630392D01*
X58683156Y7630392D01*
X58698990Y7441839D01*
X58700312Y7434637D01*
X58752470Y7252739D01*
X58755164Y7245937D01*
X58841657Y7077637D01*
X58845623Y7071482D01*
X58872905Y7037060D01*
X58882114Y7031395D01*
X58886520Y7032046D01*
X59465097Y7610623D01*
X59469272Y7619578D01*
X59910334Y7619578D01*
X59911939Y7613587D01*
X60491215Y7034311D01*
X60501014Y7029742D01*
X60505864Y7031041D01*
X60510664Y7036602D01*
X60514886Y7042588D01*
X60608354Y7207120D01*
X60611328Y7213800D01*
X60671059Y7393359D01*
X60672680Y7400493D01*
X60696593Y7589785D01*
X60696886Y7593980D01*
X60697221Y7617901D01*
X60697045Y7622093D01*
X60696231Y7630392D01*
X61223156Y7630392D01*
X61238990Y7441839D01*
X61240312Y7434637D01*
X61292470Y7252739D01*
X61295164Y7245937D01*
X61381657Y7077637D01*
X61385623Y7071482D01*
X61412905Y7037060D01*
X61422114Y7031395D01*
X61426520Y7032046D01*
X62005097Y7610623D01*
X62009272Y7619578D01*
X62450334Y7619578D01*
X62451939Y7613587D01*
X63031215Y7034311D01*
X63041014Y7029742D01*
X63045864Y7031041D01*
X63050664Y7036602D01*
X63054886Y7042588D01*
X63148354Y7207120D01*
X63151328Y7213800D01*
X63211059Y7393359D01*
X63212680Y7400493D01*
X63236593Y7589785D01*
X63236886Y7593980D01*
X63237221Y7617901D01*
X63237045Y7622093D01*
X63218427Y7811976D01*
X63217001Y7819172D01*
X63162312Y8000312D01*
X63159524Y8007078D01*
X63070687Y8174156D01*
X63066635Y8180255D01*
X63047679Y8203497D01*
X63038393Y8209032D01*
X63033816Y8208290D01*
X62454903Y7629377D01*
X62450334Y7619578D01*
X62009272Y7619578D01*
X62009666Y7620422D01*
X62008061Y7626413D01*
X61429500Y8204974D01*
X61419701Y8209543D01*
X61415041Y8208295D01*
X61401269Y8191881D01*
X61397131Y8185838D01*
X61305975Y8020025D01*
X61303088Y8013289D01*
X61245874Y7832926D01*
X61244351Y7825761D01*
X61223259Y7637725D01*
X61223156Y7630392D01*
X60696231Y7630392D01*
X60678427Y7811976D01*
X60677001Y7819172D01*
X60622312Y8000312D01*
X60619524Y8007078D01*
X60530687Y8174156D01*
X60526635Y8180255D01*
X60507679Y8203497D01*
X60498393Y8209032D01*
X60493816Y8208290D01*
X59914903Y7629377D01*
X59910334Y7619578D01*
X59469272Y7619578D01*
X59469666Y7620422D01*
X59468061Y7626413D01*
X58889500Y8204974D01*
X58879701Y8209543D01*
X58875041Y8208295D01*
X58861269Y8191881D01*
X58857131Y8185838D01*
X58765975Y8020025D01*
X58763088Y8013289D01*
X58705874Y7832926D01*
X58704351Y7825761D01*
X58683259Y7637725D01*
X58683156Y7630392D01*
X58156734Y7630392D01*
X58138921Y7812073D01*
X58138920Y7812078D01*
X58138561Y7815740D01*
X58081714Y8004025D01*
X57989379Y8177682D01*
X57865072Y8330097D01*
X57746578Y8428124D01*
X59101199Y8428124D01*
X59101894Y8423632D01*
X59680623Y7844903D01*
X59690422Y7840334D01*
X59696413Y7841939D01*
X60274667Y8420193D01*
X60278365Y8428124D01*
X61641199Y8428124D01*
X61641894Y8423632D01*
X62220623Y7844903D01*
X62230422Y7840334D01*
X62236413Y7841939D01*
X62814667Y8420193D01*
X62819236Y8429992D01*
X62818012Y8434560D01*
X62796077Y8452707D01*
X62790018Y8456794D01*
X62623557Y8546799D01*
X62616813Y8549634D01*
X62436047Y8605590D01*
X62428880Y8607061D01*
X62240687Y8626841D01*
X62233374Y8626892D01*
X62044918Y8609742D01*
X62037732Y8608371D01*
X61856208Y8554945D01*
X61849421Y8552203D01*
X61681718Y8464531D01*
X61675607Y8460531D01*
X61646798Y8437369D01*
X61641199Y8428124D01*
X60278365Y8428124D01*
X60279236Y8429992D01*
X60278012Y8434560D01*
X60256077Y8452707D01*
X60250018Y8456794D01*
X60083557Y8546799D01*
X60076813Y8549634D01*
X59896047Y8605590D01*
X59888880Y8607061D01*
X59700687Y8626841D01*
X59693374Y8626892D01*
X59504918Y8609742D01*
X59497732Y8608371D01*
X59316208Y8554945D01*
X59309421Y8552203D01*
X59141718Y8464531D01*
X59135607Y8460531D01*
X59106798Y8437369D01*
X59101199Y8428124D01*
X57746578Y8428124D01*
X57713528Y8455465D01*
X57540520Y8549010D01*
X57352637Y8607170D01*
X57216007Y8621530D01*
X57160690Y8627344D01*
X57160689Y8627344D01*
X57157035Y8627728D01*
X57059101Y8618816D01*
X56964824Y8610236D01*
X56964823Y8610236D01*
X56961166Y8609903D01*
X56957641Y8608866D01*
X56957638Y8608865D01*
X56776019Y8555411D01*
X56772489Y8554372D01*
X56598192Y8463252D01*
X56444912Y8340012D01*
X56318489Y8189347D01*
X56223739Y8016996D01*
X56164269Y7829524D01*
X56142345Y7634070D01*
X55616373Y7634070D01*
X55598921Y7812073D01*
X55598920Y7812078D01*
X55598561Y7815740D01*
X55541714Y8004025D01*
X55449379Y8177682D01*
X55325072Y8330097D01*
X55173528Y8455465D01*
X55000520Y8549010D01*
X54812637Y8607170D01*
X54676007Y8621530D01*
X54620690Y8627344D01*
X54620689Y8627344D01*
X54617035Y8627728D01*
X54519101Y8618816D01*
X54424824Y8610236D01*
X54424823Y8610236D01*
X54421166Y8609903D01*
X54417641Y8608866D01*
X54417638Y8608865D01*
X54236019Y8555411D01*
X54232489Y8554372D01*
X54058192Y8463252D01*
X53904912Y8340012D01*
X53778489Y8189347D01*
X53683739Y8016996D01*
X53624269Y7829524D01*
X53602345Y7634070D01*
X53076373Y7634070D01*
X53058921Y7812073D01*
X53058920Y7812078D01*
X53058561Y7815740D01*
X53001714Y8004025D01*
X52909379Y8177682D01*
X52785072Y8330097D01*
X52633528Y8455465D01*
X52460520Y8549010D01*
X52272637Y8607170D01*
X52136007Y8621530D01*
X52080690Y8627344D01*
X52080689Y8627344D01*
X52077035Y8627728D01*
X51979101Y8618816D01*
X51884824Y8610236D01*
X51884823Y8610236D01*
X51881166Y8609903D01*
X51877641Y8608866D01*
X51877638Y8608865D01*
X51696019Y8555411D01*
X51692489Y8554372D01*
X51518192Y8463252D01*
X51364912Y8340012D01*
X51238489Y8189347D01*
X51143739Y8016996D01*
X51084269Y7829524D01*
X51062345Y7634070D01*
X50536373Y7634070D01*
X50518921Y7812073D01*
X50518920Y7812078D01*
X50518561Y7815740D01*
X50461714Y8004025D01*
X50369379Y8177682D01*
X50245072Y8330097D01*
X50093528Y8455465D01*
X49920520Y8549010D01*
X49732637Y8607170D01*
X49596007Y8621530D01*
X49540690Y8627344D01*
X49540689Y8627344D01*
X49537035Y8627728D01*
X49439101Y8618816D01*
X49344824Y8610236D01*
X49344823Y8610236D01*
X49341166Y8609903D01*
X49337641Y8608866D01*
X49337638Y8608865D01*
X49156019Y8555411D01*
X49152489Y8554372D01*
X48978192Y8463252D01*
X48824912Y8340012D01*
X48698489Y8189347D01*
X48603739Y8016996D01*
X48544269Y7829524D01*
X48522345Y7634070D01*
X47996373Y7634070D01*
X47978921Y7812073D01*
X47978920Y7812078D01*
X47978561Y7815740D01*
X47921714Y8004025D01*
X47829379Y8177682D01*
X47705072Y8330097D01*
X47553528Y8455465D01*
X47380520Y8549010D01*
X47192637Y8607170D01*
X47056007Y8621530D01*
X47000690Y8627344D01*
X47000689Y8627344D01*
X46997035Y8627728D01*
X46899101Y8618816D01*
X46804824Y8610236D01*
X46804823Y8610236D01*
X46801166Y8609903D01*
X46797641Y8608866D01*
X46797638Y8608865D01*
X46616019Y8555411D01*
X46612489Y8554372D01*
X46438192Y8463252D01*
X46396825Y8429992D01*
X46345535Y8388754D01*
X46296839Y8372176D01*
X46245240Y8394186D01*
X41774336Y12865090D01*
X41764983Y12876486D01*
X41758302Y12886485D01*
X41754189Y12892641D01*
X41748032Y12896755D01*
X41719296Y12915955D01*
X41719294Y12915956D01*
X41665805Y12951697D01*
X41561548Y12972436D01*
X41554284Y12970991D01*
X41542490Y12968645D01*
X41527819Y12967200D01*
X38568125Y12967200D01*
X38519787Y12984793D01*
X38511156Y12993312D01*
X38437487Y13078810D01*
X38437484Y13078813D01*
X38433993Y13082864D01*
X38429502Y13085775D01*
X38317604Y13158303D01*
X38317603Y13158303D01*
X38313111Y13161215D01*
X38236912Y13184003D01*
X38180232Y13200955D01*
X38180229Y13200955D01*
X38175098Y13202490D01*
X38169743Y13202523D01*
X38169741Y13202523D01*
X38104524Y13202921D01*
X38031047Y13203370D01*
X38025897Y13201898D01*
X38025896Y13201898D01*
X37961793Y13183577D01*
X37892539Y13163785D01*
X37888013Y13160929D01*
X37888010Y13160928D01*
X37775237Y13089773D01*
X37770709Y13086916D01*
X37763550Y13078810D01*
X37678897Y12982959D01*
X37678895Y12982956D01*
X37675351Y12978943D01*
X37670516Y12968645D01*
X37631942Y12886485D01*
X37614129Y12848546D01*
X37591967Y12706207D01*
X37610645Y12563370D01*
X37668662Y12431516D01*
X37672107Y12427418D01*
X37672108Y12427416D01*
X37725923Y12363396D01*
X37761354Y12321245D01*
X37881270Y12241423D01*
X38018769Y12198465D01*
X38092871Y12197107D01*
X38157436Y12195923D01*
X38157438Y12195923D01*
X38162798Y12195825D01*
X38167969Y12197235D01*
X38167971Y12197235D01*
X38243695Y12217880D01*
X38301779Y12233715D01*
X38354871Y12266314D01*
X38419970Y12306284D01*
X38419973Y12306286D01*
X38424539Y12309090D01*
X38514128Y12408066D01*
X38559608Y12432095D01*
X38569879Y12432800D01*
X41419722Y12432800D01*
X41468060Y12415207D01*
X41472896Y12410774D01*
X42058096Y11825574D01*
X42079836Y11778954D01*
X42066522Y11729267D01*
X42024385Y11699762D01*
X42004922Y11697200D01*
X30948125Y11697200D01*
X30899787Y11714793D01*
X30891156Y11723312D01*
X30817487Y11808810D01*
X30817484Y11808813D01*
X30813993Y11812864D01*
X30809502Y11815775D01*
X30697604Y11888303D01*
X30697603Y11888303D01*
X30693111Y11891215D01*
X30616912Y11914003D01*
X30560232Y11930955D01*
X30560229Y11930955D01*
X30555098Y11932490D01*
X30549743Y11932523D01*
X30549741Y11932523D01*
X30484524Y11932921D01*
X30411047Y11933370D01*
X30405897Y11931898D01*
X30405896Y11931898D01*
X30341793Y11913578D01*
X30272539Y11893785D01*
X30268013Y11890929D01*
X30268010Y11890928D01*
X30164431Y11825574D01*
X30150709Y11816916D01*
X30143550Y11808810D01*
X30058897Y11712959D01*
X30058895Y11712956D01*
X30055351Y11708943D01*
X29994129Y11578546D01*
X29971967Y11436207D01*
X152900Y11436207D01*
X152900Y25406207D01*
X12191967Y25406207D01*
X12192661Y25400900D01*
X12192661Y25400897D01*
X12193159Y25397091D01*
X12210645Y25263370D01*
X12268662Y25131516D01*
X12272107Y25127418D01*
X12272108Y25127416D01*
X12325923Y25063396D01*
X12361354Y25021245D01*
X12481270Y24941423D01*
X12618769Y24898465D01*
X12692871Y24897107D01*
X12757436Y24895923D01*
X12757438Y24895923D01*
X12762798Y24895825D01*
X12770024Y24897795D01*
X12770593Y24897950D01*
X12772463Y24897795D01*
X12773284Y24897897D01*
X12773305Y24897725D01*
X12821856Y24893692D01*
X12843549Y24878573D01*
X16278914Y21443208D01*
X16288266Y21431813D01*
X16299061Y21415657D01*
X16305218Y21411543D01*
X16305219Y21411542D01*
X16321371Y21400750D01*
X16321373Y21400749D01*
X16387445Y21356601D01*
X16394709Y21355156D01*
X16484437Y21337308D01*
X16491702Y21335863D01*
X16498966Y21337308D01*
X16498967Y21337308D01*
X16510756Y21339653D01*
X16525427Y21341098D01*
X50427289Y21341098D01*
X50441960Y21339653D01*
X50461018Y21335862D01*
X50468282Y21337307D01*
X50558011Y21355156D01*
X50565275Y21356601D01*
X50631347Y21400749D01*
X50653659Y21415657D01*
X50664454Y21431813D01*
X50673806Y21443208D01*
X55450090Y26219492D01*
X55461486Y26228845D01*
X55471485Y26235526D01*
X55477641Y26239639D01*
X55536697Y26328024D01*
X55557436Y26432280D01*
X55553645Y26451338D01*
X55552200Y26466009D01*
X55552200Y27941275D01*
X55553645Y27955946D01*
X55555990Y27967735D01*
X55555990Y27967736D01*
X55557435Y27975000D01*
X55536697Y28079257D01*
X55511863Y28116423D01*
X55477641Y28167641D01*
X55461482Y28178438D01*
X55450087Y28187790D01*
X54897791Y28740087D01*
X54888438Y28751482D01*
X54877641Y28767641D01*
X54833797Y28796936D01*
X54789257Y28826697D01*
X54685000Y28847436D01*
X54677736Y28845991D01*
X54665942Y28843645D01*
X54651271Y28842200D01*
X53808125Y28842200D01*
X53759787Y28859793D01*
X53751156Y28868312D01*
X53677487Y28953810D01*
X53677484Y28953813D01*
X53673993Y28957864D01*
X53669502Y28960775D01*
X53557604Y29033303D01*
X53557603Y29033303D01*
X53553111Y29036215D01*
X53470852Y29060816D01*
X53420232Y29075955D01*
X53420229Y29075955D01*
X53415098Y29077490D01*
X53409743Y29077523D01*
X53409741Y29077523D01*
X53344524Y29077921D01*
X53271047Y29078370D01*
X53265897Y29076898D01*
X53265896Y29076898D01*
X53201793Y29058577D01*
X53132539Y29038785D01*
X53128013Y29035929D01*
X53128010Y29035928D01*
X53015237Y28964773D01*
X53010709Y28961916D01*
X52993732Y28942693D01*
X52918897Y28857959D01*
X52918895Y28857956D01*
X52915351Y28853943D01*
X52910516Y28843645D01*
X52871941Y28761483D01*
X52854129Y28723546D01*
X52831967Y28581207D01*
X52850645Y28438370D01*
X52908662Y28306516D01*
X52912107Y28302418D01*
X52912108Y28302416D01*
X52965923Y28238396D01*
X53001354Y28196245D01*
X53121270Y28116423D01*
X53258769Y28073465D01*
X53332871Y28072107D01*
X53397436Y28070923D01*
X53397438Y28070923D01*
X53402798Y28070825D01*
X53407969Y28072235D01*
X53407971Y28072235D01*
X53483695Y28092880D01*
X53541779Y28108715D01*
X53627722Y28161484D01*
X53659970Y28181284D01*
X53659973Y28181286D01*
X53664539Y28184090D01*
X53754128Y28283066D01*
X53799608Y28307095D01*
X53809879Y28307800D01*
X54543174Y28307800D01*
X54591512Y28290207D01*
X54596348Y28285774D01*
X54995774Y27886349D01*
X55017514Y27839729D01*
X55017800Y27833175D01*
X55017800Y26574106D01*
X55000207Y26525768D01*
X54995774Y26520932D01*
X50782726Y22307884D01*
X50736106Y22286144D01*
X50686419Y22299458D01*
X50656914Y22341595D01*
X50655115Y22350379D01*
X50652649Y22367599D01*
X50593026Y22498734D01*
X50583497Y22509793D01*
X50502487Y22603810D01*
X50502484Y22603813D01*
X50498993Y22607864D01*
X50494002Y22611099D01*
X50382604Y22683303D01*
X50382603Y22683303D01*
X50378111Y22686215D01*
X50287840Y22713212D01*
X50245232Y22725955D01*
X50245229Y22725955D01*
X50240098Y22727490D01*
X50234743Y22727523D01*
X50234741Y22727523D01*
X50169524Y22727921D01*
X50096047Y22728370D01*
X50090897Y22726898D01*
X50090896Y22726898D01*
X50043009Y22713212D01*
X49957539Y22688785D01*
X49953013Y22685929D01*
X49953010Y22685928D01*
X49864253Y22629926D01*
X49835709Y22611916D01*
X49830364Y22605864D01*
X49752430Y22517620D01*
X49707245Y22493036D01*
X49696065Y22492200D01*
X49064310Y22492200D01*
X49015972Y22509793D01*
X48990252Y22554342D01*
X48999185Y22605000D01*
X49022529Y22629925D01*
X49083628Y22670750D01*
X49105940Y22685658D01*
X49116736Y22701816D01*
X49126087Y22713209D01*
X53195708Y26782830D01*
X53242328Y26804570D01*
X53256948Y26804034D01*
X53258769Y26803465D01*
X53325873Y26802235D01*
X53397436Y26800923D01*
X53397438Y26800923D01*
X53402798Y26800825D01*
X53407969Y26802235D01*
X53407971Y26802235D01*
X53483695Y26822880D01*
X53541779Y26838715D01*
X53594871Y26871314D01*
X53659970Y26911284D01*
X53659973Y26911286D01*
X53664539Y26914090D01*
X53761210Y27020890D01*
X53824020Y27150530D01*
X53847919Y27292587D01*
X53848071Y27305000D01*
X53847659Y27307880D01*
X53828409Y27442296D01*
X53828408Y27442300D01*
X53827649Y27447599D01*
X53768026Y27578734D01*
X53763538Y27583943D01*
X53677487Y27683810D01*
X53677484Y27683813D01*
X53673993Y27687864D01*
X53669502Y27690775D01*
X53557604Y27763303D01*
X53557603Y27763303D01*
X53553111Y27766215D01*
X53476912Y27789003D01*
X53420232Y27805955D01*
X53420229Y27805955D01*
X53415098Y27807490D01*
X53409743Y27807523D01*
X53409741Y27807523D01*
X53344524Y27807921D01*
X53271047Y27808370D01*
X53265897Y27806898D01*
X53265896Y27806898D01*
X53201793Y27788577D01*
X53132539Y27768785D01*
X53128013Y27765929D01*
X53128010Y27765928D01*
X53015237Y27694773D01*
X53010709Y27691916D01*
X53003550Y27683810D01*
X52918897Y27587959D01*
X52918895Y27587956D01*
X52915351Y27583943D01*
X52854129Y27453546D01*
X52831967Y27311207D01*
X52832661Y27305899D01*
X52832661Y27305897D01*
X52842933Y27227344D01*
X52831756Y27177133D01*
X52821542Y27164420D01*
X50021960Y24364838D01*
X49975340Y24343098D01*
X49925653Y24356412D01*
X49900312Y24391747D01*
X49899074Y24391184D01*
X49841670Y24517438D01*
X49839451Y24522319D01*
X49805637Y24561562D01*
X49748912Y24627395D01*
X49748909Y24627398D01*
X49745418Y24631449D01*
X49709725Y24654584D01*
X49629029Y24706888D01*
X49629028Y24706888D01*
X49624536Y24709800D01*
X49548337Y24732588D01*
X49491657Y24749540D01*
X49491654Y24749540D01*
X49486523Y24751075D01*
X49481168Y24751108D01*
X49481166Y24751108D01*
X49415949Y24751506D01*
X49342472Y24751955D01*
X49337320Y24750483D01*
X49332016Y24749756D01*
X49331680Y24752208D01*
X49289725Y24755186D01*
X49267209Y24770679D01*
X48472798Y25565090D01*
X48463445Y25576486D01*
X48456764Y25586485D01*
X48452651Y25592641D01*
X48446494Y25596755D01*
X48417758Y25615955D01*
X48417756Y25615956D01*
X48364267Y25651697D01*
X48260010Y25672436D01*
X48252746Y25670991D01*
X48240952Y25668645D01*
X48226281Y25667200D01*
X36028125Y25667200D01*
X35979787Y25684793D01*
X35971156Y25693312D01*
X35897487Y25778810D01*
X35897484Y25778813D01*
X35893993Y25782864D01*
X35861498Y25803926D01*
X35830505Y25844981D01*
X35827200Y25867030D01*
X35827200Y28741813D01*
X35844793Y28790151D01*
X35863052Y28805897D01*
X35879970Y28816284D01*
X35879973Y28816286D01*
X35884539Y28819090D01*
X35981210Y28925890D01*
X35986795Y28937416D01*
X36041682Y29050704D01*
X36041682Y29050705D01*
X36044020Y29055530D01*
X36067919Y29197587D01*
X36068071Y29210000D01*
X36067659Y29212880D01*
X36048409Y29347296D01*
X36048408Y29347300D01*
X36047649Y29352599D01*
X35988026Y29483734D01*
X35983538Y29488943D01*
X35897487Y29588810D01*
X35897484Y29588813D01*
X35893993Y29592864D01*
X35861498Y29613926D01*
X35830505Y29654981D01*
X35827200Y29677030D01*
X35827200Y32551813D01*
X35844793Y32600151D01*
X35863052Y32615897D01*
X35879970Y32626284D01*
X35879973Y32626286D01*
X35884539Y32629090D01*
X35981210Y32735890D01*
X35986795Y32747416D01*
X36041682Y32860704D01*
X36041682Y32860705D01*
X36044020Y32865530D01*
X36067919Y33007587D01*
X36068071Y33020000D01*
X36067659Y33022880D01*
X36048409Y33157296D01*
X36048408Y33157300D01*
X36047649Y33162599D01*
X35988026Y33293734D01*
X35983538Y33298943D01*
X35897487Y33398810D01*
X35897484Y33398813D01*
X35893993Y33402864D01*
X35889502Y33405775D01*
X35777604Y33478303D01*
X35777603Y33478303D01*
X35773111Y33481215D01*
X35696912Y33504003D01*
X35640232Y33520955D01*
X35640229Y33520955D01*
X35635098Y33522490D01*
X35629743Y33522523D01*
X35629741Y33522523D01*
X35564524Y33522921D01*
X35491047Y33523370D01*
X35485897Y33521898D01*
X35485896Y33521898D01*
X35421793Y33503578D01*
X35352539Y33483785D01*
X35348013Y33480929D01*
X35348010Y33480928D01*
X35235237Y33409773D01*
X35230709Y33406916D01*
X35223550Y33398810D01*
X35138897Y33302959D01*
X35138895Y33302956D01*
X35135351Y33298943D01*
X35074129Y33168546D01*
X35051967Y33026207D01*
X35052661Y33020900D01*
X35052661Y33020897D01*
X35053159Y33017091D01*
X35070645Y32883370D01*
X35128662Y32751516D01*
X35221354Y32641245D01*
X35243830Y32626284D01*
X35259269Y32616007D01*
X35289759Y32574577D01*
X35292800Y32553407D01*
X35292800Y29677563D01*
X35275207Y29629225D01*
X35257728Y29613965D01*
X35235241Y29599777D01*
X35235234Y29599771D01*
X35230709Y29596916D01*
X35223550Y29588810D01*
X35138897Y29492959D01*
X35138895Y29492956D01*
X35135351Y29488943D01*
X35074129Y29358546D01*
X35051967Y29216207D01*
X35052661Y29210900D01*
X35052661Y29210897D01*
X35053159Y29207091D01*
X35070645Y29073370D01*
X35085215Y29040257D01*
X35123253Y28953810D01*
X35128662Y28941516D01*
X35221354Y28831245D01*
X35243830Y28816284D01*
X35259269Y28806007D01*
X35289759Y28764577D01*
X35292800Y28743407D01*
X35292800Y25867563D01*
X35275207Y25819225D01*
X35257728Y25803965D01*
X35235241Y25789777D01*
X35235234Y25789771D01*
X35230709Y25786916D01*
X35223550Y25778810D01*
X35138897Y25682959D01*
X35138895Y25682956D01*
X35135351Y25678943D01*
X35130614Y25668853D01*
X35091942Y25586485D01*
X35074129Y25548546D01*
X35051967Y25406207D01*
X35052661Y25400900D01*
X35052661Y25400897D01*
X35053159Y25397091D01*
X35070645Y25263370D01*
X35128662Y25131516D01*
X35132107Y25127418D01*
X35132108Y25127416D01*
X35185923Y25063396D01*
X35221354Y25021245D01*
X35341270Y24941423D01*
X35478769Y24898465D01*
X35552871Y24897107D01*
X35617436Y24895923D01*
X35617438Y24895923D01*
X35622798Y24895825D01*
X35627969Y24897235D01*
X35627971Y24897235D01*
X35754802Y24931813D01*
X35761779Y24933715D01*
X35827201Y24973884D01*
X35879970Y25006284D01*
X35879973Y25006286D01*
X35884539Y25009090D01*
X35974128Y25108066D01*
X36019608Y25132095D01*
X36029879Y25132800D01*
X48118184Y25132800D01*
X48166522Y25115207D01*
X48171358Y25110774D01*
X48893084Y24389048D01*
X48914824Y24342428D01*
X48914215Y24324305D01*
X48903392Y24254792D01*
X48922070Y24111955D01*
X48980087Y23980101D01*
X49072779Y23869830D01*
X49192695Y23790008D01*
X49265587Y23767235D01*
X49267926Y23766504D01*
X49308817Y23735297D01*
X49320082Y23685105D01*
X49298674Y23641552D01*
X48824647Y23167525D01*
X48778027Y23145785D01*
X48771473Y23145499D01*
X29968526Y23145499D01*
X29920188Y23163092D01*
X29915352Y23167525D01*
X28229226Y24853652D01*
X28207486Y24900272D01*
X28207200Y24906826D01*
X28207200Y24931813D01*
X28224793Y24980151D01*
X28243052Y24995897D01*
X28259970Y25006284D01*
X28259973Y25006286D01*
X28264539Y25009090D01*
X28361210Y25115890D01*
X28366795Y25127416D01*
X28421682Y25240704D01*
X28421682Y25240705D01*
X28424020Y25245530D01*
X28447919Y25387587D01*
X28448071Y25400000D01*
X28447659Y25402880D01*
X28428409Y25537296D01*
X28428408Y25537300D01*
X28427649Y25542599D01*
X28407696Y25586485D01*
X28379917Y25647581D01*
X28368026Y25673734D01*
X28363538Y25678943D01*
X28277487Y25778810D01*
X28277484Y25778813D01*
X28273993Y25782864D01*
X28241498Y25803926D01*
X28210505Y25844981D01*
X28207200Y25867030D01*
X28207200Y28741813D01*
X28224793Y28790151D01*
X28243052Y28805897D01*
X28259970Y28816284D01*
X28259973Y28816286D01*
X28264539Y28819090D01*
X28361210Y28925890D01*
X28366795Y28937416D01*
X28421682Y29050704D01*
X28421682Y29050705D01*
X28424020Y29055530D01*
X28447919Y29197587D01*
X28448071Y29210000D01*
X28447659Y29212880D01*
X28428409Y29347296D01*
X28428408Y29347300D01*
X28427649Y29352599D01*
X28368026Y29483734D01*
X28363538Y29488943D01*
X28277487Y29588810D01*
X28277484Y29588813D01*
X28273993Y29592864D01*
X28241498Y29613926D01*
X28210505Y29654981D01*
X28207200Y29677030D01*
X28207200Y32551813D01*
X28224793Y32600151D01*
X28243052Y32615897D01*
X28259970Y32626284D01*
X28259973Y32626286D01*
X28264539Y32629090D01*
X28361210Y32735890D01*
X28366795Y32747416D01*
X28421682Y32860704D01*
X28421682Y32860705D01*
X28424020Y32865530D01*
X28447919Y33007587D01*
X28448071Y33020000D01*
X28447659Y33022880D01*
X28428409Y33157296D01*
X28428408Y33157300D01*
X28427649Y33162599D01*
X28368026Y33293734D01*
X28363538Y33298943D01*
X28277487Y33398810D01*
X28277484Y33398813D01*
X28273993Y33402864D01*
X28269502Y33405775D01*
X28157604Y33478303D01*
X28157603Y33478303D01*
X28153111Y33481215D01*
X28076912Y33504003D01*
X28020232Y33520955D01*
X28020229Y33520955D01*
X28015098Y33522490D01*
X28009743Y33522523D01*
X28009741Y33522523D01*
X27944524Y33522921D01*
X27871047Y33523370D01*
X27865897Y33521898D01*
X27865896Y33521898D01*
X27801793Y33503578D01*
X27732539Y33483785D01*
X27728013Y33480929D01*
X27728010Y33480928D01*
X27615237Y33409773D01*
X27610709Y33406916D01*
X27603550Y33398810D01*
X27518897Y33302959D01*
X27518895Y33302956D01*
X27515351Y33298943D01*
X27454129Y33168546D01*
X27431967Y33026207D01*
X27432661Y33020900D01*
X27432661Y33020897D01*
X27433159Y33017091D01*
X27450645Y32883370D01*
X27508662Y32751516D01*
X27601354Y32641245D01*
X27623830Y32626284D01*
X27639269Y32616007D01*
X27669759Y32574577D01*
X27672800Y32553407D01*
X27672800Y29677563D01*
X27655207Y29629225D01*
X27637728Y29613965D01*
X27615241Y29599777D01*
X27615234Y29599771D01*
X27610709Y29596916D01*
X27603550Y29588810D01*
X27518897Y29492959D01*
X27518895Y29492956D01*
X27515351Y29488943D01*
X27454129Y29358546D01*
X27431967Y29216207D01*
X27432661Y29210900D01*
X27432661Y29210897D01*
X27433159Y29207091D01*
X27450645Y29073370D01*
X27465215Y29040257D01*
X27503253Y28953810D01*
X27508662Y28941516D01*
X27601354Y28831245D01*
X27623830Y28816284D01*
X27639269Y28806007D01*
X27669759Y28764577D01*
X27672800Y28743407D01*
X27672800Y25867563D01*
X27655207Y25819225D01*
X27637728Y25803965D01*
X27615241Y25789777D01*
X27615234Y25789771D01*
X27610709Y25786916D01*
X27603550Y25778810D01*
X27518897Y25682959D01*
X27518895Y25682956D01*
X27515351Y25678943D01*
X27510614Y25668853D01*
X27471942Y25586485D01*
X27454129Y25548546D01*
X27431967Y25406207D01*
X27432661Y25400900D01*
X27432661Y25400897D01*
X27433159Y25397091D01*
X27450645Y25263370D01*
X27508662Y25131516D01*
X27512107Y25127418D01*
X27512108Y25127416D01*
X27565923Y25063396D01*
X27601354Y25021245D01*
X27623830Y25006284D01*
X27639269Y24996007D01*
X27669759Y24954577D01*
X27672800Y24933407D01*
X27672800Y24798729D01*
X27671355Y24784058D01*
X27667564Y24765000D01*
X27688303Y24660743D01*
X27692417Y24654586D01*
X27692418Y24654584D01*
X27707876Y24631450D01*
X27743243Y24578519D01*
X27747359Y24572359D01*
X27763518Y24561562D01*
X27774913Y24552209D01*
X29613911Y22713212D01*
X29623263Y22701817D01*
X29634060Y22685658D01*
X29698257Y22642764D01*
X29698258Y22642763D01*
X29717469Y22629926D01*
X29747885Y22588442D01*
X29744520Y22537112D01*
X29708948Y22499954D01*
X29675689Y22492200D01*
X21731825Y22492200D01*
X21683487Y22509793D01*
X21678651Y22514226D01*
X20609226Y23583652D01*
X20587486Y23630272D01*
X20587200Y23636826D01*
X20587200Y24931813D01*
X20604793Y24980151D01*
X20623052Y24995897D01*
X20639970Y25006284D01*
X20639973Y25006286D01*
X20644539Y25009090D01*
X20741210Y25115890D01*
X20746795Y25127416D01*
X20801682Y25240704D01*
X20801682Y25240705D01*
X20804020Y25245530D01*
X20827919Y25387587D01*
X20828071Y25400000D01*
X20827659Y25402880D01*
X20808409Y25537296D01*
X20808408Y25537300D01*
X20807649Y25542599D01*
X20787696Y25586485D01*
X20759917Y25647581D01*
X20748026Y25673734D01*
X20743538Y25678943D01*
X20657487Y25778810D01*
X20657484Y25778813D01*
X20653993Y25782864D01*
X20621498Y25803926D01*
X20590505Y25844981D01*
X20587200Y25867030D01*
X20587200Y28741813D01*
X20604793Y28790151D01*
X20623052Y28805897D01*
X20639970Y28816284D01*
X20639973Y28816286D01*
X20644539Y28819090D01*
X20741210Y28925890D01*
X20746795Y28937416D01*
X20801682Y29050704D01*
X20801682Y29050705D01*
X20804020Y29055530D01*
X20827919Y29197587D01*
X20828071Y29210000D01*
X20827659Y29212880D01*
X20808409Y29347296D01*
X20808408Y29347300D01*
X20807649Y29352599D01*
X20748026Y29483734D01*
X20743538Y29488943D01*
X20657487Y29588810D01*
X20657484Y29588813D01*
X20653993Y29592864D01*
X20621498Y29613926D01*
X20590505Y29654981D01*
X20587200Y29677030D01*
X20587200Y32551813D01*
X20604793Y32600151D01*
X20623052Y32615897D01*
X20639970Y32626284D01*
X20639973Y32626286D01*
X20644539Y32629090D01*
X20741210Y32735890D01*
X20746795Y32747416D01*
X20801682Y32860704D01*
X20801682Y32860705D01*
X20804020Y32865530D01*
X20827919Y33007587D01*
X20828071Y33020000D01*
X20827659Y33022880D01*
X20808409Y33157296D01*
X20808408Y33157300D01*
X20807649Y33162599D01*
X20748026Y33293734D01*
X20743538Y33298943D01*
X20657487Y33398810D01*
X20657484Y33398813D01*
X20653993Y33402864D01*
X20649502Y33405775D01*
X20537604Y33478303D01*
X20537603Y33478303D01*
X20533111Y33481215D01*
X20456912Y33504003D01*
X20400232Y33520955D01*
X20400229Y33520955D01*
X20395098Y33522490D01*
X20389743Y33522523D01*
X20389741Y33522523D01*
X20324524Y33522921D01*
X20251047Y33523370D01*
X20245897Y33521898D01*
X20245896Y33521898D01*
X20181793Y33503578D01*
X20112539Y33483785D01*
X20108013Y33480929D01*
X20108010Y33480928D01*
X19995237Y33409773D01*
X19990709Y33406916D01*
X19983550Y33398810D01*
X19898897Y33302959D01*
X19898895Y33302956D01*
X19895351Y33298943D01*
X19834129Y33168546D01*
X19811967Y33026207D01*
X19812661Y33020900D01*
X19812661Y33020897D01*
X19813159Y33017091D01*
X19830645Y32883370D01*
X19888662Y32751516D01*
X19981354Y32641245D01*
X20003830Y32626284D01*
X20019269Y32616007D01*
X20049759Y32574577D01*
X20052800Y32553407D01*
X20052800Y29677563D01*
X20035207Y29629225D01*
X20017728Y29613965D01*
X19995241Y29599777D01*
X19995234Y29599771D01*
X19990709Y29596916D01*
X19983550Y29588810D01*
X19898897Y29492959D01*
X19898895Y29492956D01*
X19895351Y29488943D01*
X19834129Y29358546D01*
X19811967Y29216207D01*
X19812661Y29210900D01*
X19812661Y29210897D01*
X19813159Y29207091D01*
X19830645Y29073370D01*
X19845215Y29040257D01*
X19883253Y28953810D01*
X19888662Y28941516D01*
X19981354Y28831245D01*
X20003830Y28816284D01*
X20019269Y28806007D01*
X20049759Y28764577D01*
X20052800Y28743407D01*
X20052800Y25867563D01*
X20035207Y25819225D01*
X20017728Y25803965D01*
X19995241Y25789777D01*
X19995234Y25789771D01*
X19990709Y25786916D01*
X19983550Y25778810D01*
X19898897Y25682959D01*
X19898895Y25682956D01*
X19895351Y25678943D01*
X19890614Y25668853D01*
X19851942Y25586485D01*
X19834129Y25548546D01*
X19811967Y25406207D01*
X19812661Y25400900D01*
X19812661Y25400897D01*
X19813159Y25397091D01*
X19830645Y25263370D01*
X19888662Y25131516D01*
X19892107Y25127418D01*
X19892108Y25127416D01*
X19945923Y25063396D01*
X19981354Y25021245D01*
X20003830Y25006284D01*
X20019269Y24996007D01*
X20049759Y24954577D01*
X20052800Y24933407D01*
X20052800Y23528729D01*
X20051355Y23514058D01*
X20047564Y23495000D01*
X20068303Y23390743D01*
X20104044Y23337254D01*
X20127359Y23302359D01*
X20143518Y23291562D01*
X20154913Y23282209D01*
X21377210Y22059913D01*
X21386562Y22048518D01*
X21397359Y22032359D01*
X21403516Y22028245D01*
X21425996Y22013225D01*
X21456413Y21971742D01*
X21453050Y21920412D01*
X21417479Y21883254D01*
X21384218Y21875498D01*
X16633528Y21875498D01*
X16585190Y21893091D01*
X16580354Y21897524D01*
X13218396Y25259482D01*
X13196656Y25306102D01*
X13197412Y25325132D01*
X13207436Y25384717D01*
X13207919Y25387587D01*
X13208071Y25400000D01*
X13207659Y25402880D01*
X13188409Y25537296D01*
X13188408Y25537300D01*
X13187649Y25542599D01*
X13167696Y25586485D01*
X13139917Y25647581D01*
X13128026Y25673734D01*
X13123538Y25678943D01*
X13037487Y25778810D01*
X13037484Y25778813D01*
X13033993Y25782864D01*
X13001498Y25803926D01*
X12970505Y25844981D01*
X12967200Y25867030D01*
X12967200Y28741813D01*
X12984793Y28790151D01*
X13003052Y28805897D01*
X13019970Y28816284D01*
X13019973Y28816286D01*
X13024539Y28819090D01*
X13121210Y28925890D01*
X13126795Y28937416D01*
X13181682Y29050704D01*
X13181682Y29050705D01*
X13184020Y29055530D01*
X13207919Y29197587D01*
X13208071Y29210000D01*
X13207659Y29212880D01*
X13188409Y29347296D01*
X13188408Y29347300D01*
X13187649Y29352599D01*
X13128026Y29483734D01*
X13123538Y29488943D01*
X13037487Y29588810D01*
X13037484Y29588813D01*
X13033993Y29592864D01*
X13001498Y29613926D01*
X12970505Y29654981D01*
X12967200Y29677030D01*
X12967200Y32551813D01*
X12984793Y32600151D01*
X13003052Y32615897D01*
X13019970Y32626284D01*
X13019973Y32626286D01*
X13024539Y32629090D01*
X13121210Y32735890D01*
X13126795Y32747416D01*
X13181682Y32860704D01*
X13181682Y32860705D01*
X13184020Y32865530D01*
X13207919Y33007587D01*
X13208071Y33020000D01*
X13207659Y33022880D01*
X13188409Y33157296D01*
X13188408Y33157300D01*
X13187649Y33162599D01*
X13128026Y33293734D01*
X13123538Y33298943D01*
X13037487Y33398810D01*
X13037484Y33398813D01*
X13033993Y33402864D01*
X13029502Y33405775D01*
X12917604Y33478303D01*
X12917603Y33478303D01*
X12913111Y33481215D01*
X12836912Y33504003D01*
X12780232Y33520955D01*
X12780229Y33520955D01*
X12775098Y33522490D01*
X12769743Y33522523D01*
X12769741Y33522523D01*
X12704524Y33522921D01*
X12631047Y33523370D01*
X12625897Y33521898D01*
X12625896Y33521898D01*
X12561793Y33503578D01*
X12492539Y33483785D01*
X12488013Y33480929D01*
X12488010Y33480928D01*
X12375237Y33409773D01*
X12370709Y33406916D01*
X12363550Y33398810D01*
X12278897Y33302959D01*
X12278895Y33302956D01*
X12275351Y33298943D01*
X12214129Y33168546D01*
X12191967Y33026207D01*
X12192661Y33020900D01*
X12192661Y33020897D01*
X12193159Y33017091D01*
X12210645Y32883370D01*
X12268662Y32751516D01*
X12361354Y32641245D01*
X12383830Y32626284D01*
X12399269Y32616007D01*
X12429759Y32574577D01*
X12432800Y32553407D01*
X12432800Y29677563D01*
X12415207Y29629225D01*
X12397728Y29613965D01*
X12375241Y29599777D01*
X12375234Y29599771D01*
X12370709Y29596916D01*
X12363550Y29588810D01*
X12278897Y29492959D01*
X12278895Y29492956D01*
X12275351Y29488943D01*
X12214129Y29358546D01*
X12191967Y29216207D01*
X12192661Y29210900D01*
X12192661Y29210897D01*
X12193159Y29207091D01*
X12210645Y29073370D01*
X12225215Y29040257D01*
X12263253Y28953810D01*
X12268662Y28941516D01*
X12361354Y28831245D01*
X12383830Y28816284D01*
X12399269Y28806007D01*
X12429759Y28764577D01*
X12432800Y28743407D01*
X12432800Y25867563D01*
X12415207Y25819225D01*
X12397728Y25803965D01*
X12375241Y25789777D01*
X12375234Y25789771D01*
X12370709Y25786916D01*
X12363550Y25778810D01*
X12278897Y25682959D01*
X12278895Y25682956D01*
X12275351Y25678943D01*
X12270614Y25668853D01*
X12231942Y25586485D01*
X12214129Y25548546D01*
X12191967Y25406207D01*
X152900Y25406207D01*
X152900Y43194070D01*
X12962345Y43194070D01*
X12962653Y43190402D01*
X12962653Y43190399D01*
X12965889Y43151862D01*
X12978803Y42998081D01*
X13033015Y42809021D01*
X13122916Y42634092D01*
X13245083Y42479956D01*
X13247877Y42477578D01*
X13247878Y42477577D01*
X13282691Y42447949D01*
X13394862Y42352484D01*
X13398063Y42350695D01*
X13398066Y42350693D01*
X13436656Y42329126D01*
X13566547Y42256533D01*
X13570044Y42255397D01*
X13570048Y42255395D01*
X13662615Y42225319D01*
X13753600Y42195756D01*
X13860984Y42182951D01*
X13945237Y42172904D01*
X13945239Y42172904D01*
X13948895Y42172468D01*
X14144994Y42187557D01*
X14259061Y42219405D01*
X14330883Y42239458D01*
X14330885Y42239459D01*
X14334428Y42240448D01*
X14509981Y42329126D01*
X14664966Y42450214D01*
X14793480Y42599099D01*
X14890628Y42770110D01*
X14952710Y42956734D01*
X14977360Y43151862D01*
X14977622Y43170623D01*
X14977724Y43177901D01*
X14977724Y43177907D01*
X14977753Y43180000D01*
X14976734Y43190392D01*
X14976373Y43194070D01*
X15502345Y43194070D01*
X15502653Y43190402D01*
X15502653Y43190399D01*
X15505889Y43151862D01*
X15518803Y42998081D01*
X15573015Y42809021D01*
X15662916Y42634092D01*
X15785083Y42479956D01*
X15787877Y42477578D01*
X15787878Y42477577D01*
X15822691Y42447949D01*
X15934862Y42352484D01*
X15938063Y42350695D01*
X15938066Y42350693D01*
X15976656Y42329126D01*
X16106547Y42256533D01*
X16110044Y42255397D01*
X16110048Y42255395D01*
X16202615Y42225319D01*
X16293600Y42195756D01*
X16400984Y42182951D01*
X16485237Y42172904D01*
X16485239Y42172904D01*
X16488895Y42172468D01*
X16684994Y42187557D01*
X16799061Y42219405D01*
X16870883Y42239458D01*
X16870885Y42239459D01*
X16874428Y42240448D01*
X17049981Y42329126D01*
X17204966Y42450214D01*
X17333480Y42599099D01*
X17430628Y42770110D01*
X17492710Y42956734D01*
X17517360Y43151862D01*
X17517622Y43170623D01*
X17517724Y43177901D01*
X17517724Y43177907D01*
X17517753Y43180000D01*
X17516734Y43190392D01*
X17516373Y43194070D01*
X18042345Y43194070D01*
X18042653Y43190402D01*
X18042653Y43190399D01*
X18045889Y43151862D01*
X18058803Y42998081D01*
X18113015Y42809021D01*
X18202916Y42634092D01*
X18325083Y42479956D01*
X18327877Y42477578D01*
X18327878Y42477577D01*
X18362691Y42447949D01*
X18474862Y42352484D01*
X18478063Y42350695D01*
X18478066Y42350693D01*
X18516656Y42329126D01*
X18646547Y42256533D01*
X18650044Y42255397D01*
X18650048Y42255395D01*
X18742615Y42225319D01*
X18833600Y42195756D01*
X18940984Y42182951D01*
X19025237Y42172904D01*
X19025239Y42172904D01*
X19028895Y42172468D01*
X19224994Y42187557D01*
X19339061Y42219405D01*
X19410883Y42239458D01*
X19410885Y42239459D01*
X19414428Y42240448D01*
X19589981Y42329126D01*
X19744966Y42450214D01*
X19873480Y42599099D01*
X19970628Y42770110D01*
X20032710Y42956734D01*
X20057360Y43151862D01*
X20057622Y43170623D01*
X20057724Y43177901D01*
X20057724Y43177907D01*
X20057753Y43180000D01*
X20056734Y43190392D01*
X20056373Y43194070D01*
X20582345Y43194070D01*
X20582653Y43190402D01*
X20582653Y43190399D01*
X20585889Y43151862D01*
X20598803Y42998081D01*
X20653015Y42809021D01*
X20742916Y42634092D01*
X20865083Y42479956D01*
X20867877Y42477578D01*
X20867878Y42477577D01*
X20902691Y42447949D01*
X21014862Y42352484D01*
X21018063Y42350695D01*
X21018066Y42350693D01*
X21056656Y42329126D01*
X21186547Y42256533D01*
X21190044Y42255397D01*
X21190048Y42255395D01*
X21282615Y42225319D01*
X21373600Y42195756D01*
X21480984Y42182951D01*
X21565237Y42172904D01*
X21565239Y42172904D01*
X21568895Y42172468D01*
X21764994Y42187557D01*
X21879061Y42219405D01*
X21950883Y42239458D01*
X21950885Y42239459D01*
X21954428Y42240448D01*
X22129981Y42329126D01*
X22284966Y42450214D01*
X22413480Y42599099D01*
X22510628Y42770110D01*
X22572710Y42956734D01*
X22597360Y43151862D01*
X22597622Y43170623D01*
X22597724Y43177901D01*
X22597724Y43177907D01*
X22597753Y43180000D01*
X22596734Y43190392D01*
X22596373Y43194070D01*
X23122345Y43194070D01*
X23122653Y43190402D01*
X23122653Y43190399D01*
X23125889Y43151862D01*
X23138803Y42998081D01*
X23193015Y42809021D01*
X23282916Y42634092D01*
X23405083Y42479956D01*
X23407877Y42477578D01*
X23407878Y42477577D01*
X23442691Y42447949D01*
X23554862Y42352484D01*
X23558063Y42350695D01*
X23558066Y42350693D01*
X23596656Y42329126D01*
X23726547Y42256533D01*
X23730044Y42255397D01*
X23730048Y42255395D01*
X23822615Y42225319D01*
X23913600Y42195756D01*
X24020984Y42182951D01*
X24105237Y42172904D01*
X24105239Y42172904D01*
X24108895Y42172468D01*
X24304994Y42187557D01*
X24419061Y42219405D01*
X24490883Y42239458D01*
X24490885Y42239459D01*
X24494428Y42240448D01*
X24669981Y42329126D01*
X24824966Y42450214D01*
X24953480Y42599099D01*
X25050628Y42770110D01*
X25112710Y42956734D01*
X25137360Y43151862D01*
X25137622Y43170623D01*
X25137724Y43177901D01*
X25137724Y43177907D01*
X25137753Y43180000D01*
X25136734Y43190392D01*
X25136373Y43194070D01*
X25662345Y43194070D01*
X25662653Y43190402D01*
X25662653Y43190399D01*
X25665889Y43151862D01*
X25678803Y42998081D01*
X25733015Y42809021D01*
X25822916Y42634092D01*
X25945083Y42479956D01*
X25947877Y42477578D01*
X25947878Y42477577D01*
X25982691Y42447949D01*
X26094862Y42352484D01*
X26098063Y42350695D01*
X26098066Y42350693D01*
X26136656Y42329126D01*
X26266547Y42256533D01*
X26270044Y42255397D01*
X26270048Y42255395D01*
X26362615Y42225319D01*
X26453600Y42195756D01*
X26560984Y42182951D01*
X26645237Y42172904D01*
X26645239Y42172904D01*
X26648895Y42172468D01*
X26844994Y42187557D01*
X26959061Y42219405D01*
X27030883Y42239458D01*
X27030885Y42239459D01*
X27034428Y42240448D01*
X27209981Y42329126D01*
X27364966Y42450214D01*
X27493480Y42599099D01*
X27590628Y42770110D01*
X27652710Y42956734D01*
X27677360Y43151862D01*
X27677622Y43170623D01*
X27677724Y43177901D01*
X27677724Y43177907D01*
X27677753Y43180000D01*
X27676734Y43190392D01*
X27676373Y43194070D01*
X28202345Y43194070D01*
X28202653Y43190402D01*
X28202653Y43190399D01*
X28205889Y43151862D01*
X28218803Y42998081D01*
X28273015Y42809021D01*
X28362916Y42634092D01*
X28485083Y42479956D01*
X28487877Y42477578D01*
X28487878Y42477577D01*
X28522691Y42447949D01*
X28634862Y42352484D01*
X28638063Y42350695D01*
X28638066Y42350693D01*
X28676656Y42329126D01*
X28806547Y42256533D01*
X28810044Y42255397D01*
X28810048Y42255395D01*
X28902615Y42225319D01*
X28993600Y42195756D01*
X29100984Y42182951D01*
X29185237Y42172904D01*
X29185239Y42172904D01*
X29188895Y42172468D01*
X29384994Y42187557D01*
X29499061Y42219405D01*
X29570883Y42239458D01*
X29570885Y42239459D01*
X29574428Y42240448D01*
X29749981Y42329126D01*
X29904966Y42450214D01*
X30033480Y42599099D01*
X30130628Y42770110D01*
X30192710Y42956734D01*
X30217360Y43151862D01*
X30217622Y43170623D01*
X30217724Y43177901D01*
X30217724Y43177907D01*
X30217753Y43180000D01*
X30216734Y43190392D01*
X30216373Y43194070D01*
X30742345Y43194070D01*
X30742653Y43190402D01*
X30742653Y43190399D01*
X30745889Y43151862D01*
X30758803Y42998081D01*
X30813015Y42809021D01*
X30902916Y42634092D01*
X31025083Y42479956D01*
X31027877Y42477578D01*
X31027878Y42477577D01*
X31062691Y42447949D01*
X31174862Y42352484D01*
X31178063Y42350695D01*
X31178066Y42350693D01*
X31216656Y42329126D01*
X31346547Y42256533D01*
X31350044Y42255397D01*
X31350048Y42255395D01*
X31442615Y42225319D01*
X31533600Y42195756D01*
X31640984Y42182951D01*
X31725237Y42172904D01*
X31725239Y42172904D01*
X31728895Y42172468D01*
X31924994Y42187557D01*
X32039061Y42219405D01*
X32110883Y42239458D01*
X32110885Y42239459D01*
X32114428Y42240448D01*
X32289981Y42329126D01*
X32444966Y42450214D01*
X32573480Y42599099D01*
X32670628Y42770110D01*
X32732710Y42956734D01*
X32757360Y43151862D01*
X32757622Y43170623D01*
X32757724Y43177901D01*
X32757724Y43177907D01*
X32757753Y43180000D01*
X32756734Y43190392D01*
X32756373Y43194070D01*
X33282345Y43194070D01*
X33282653Y43190402D01*
X33282653Y43190399D01*
X33285889Y43151862D01*
X33298803Y42998081D01*
X33353015Y42809021D01*
X33442916Y42634092D01*
X33565083Y42479956D01*
X33567877Y42477578D01*
X33567878Y42477577D01*
X33602691Y42447949D01*
X33714862Y42352484D01*
X33718063Y42350695D01*
X33718066Y42350693D01*
X33756656Y42329126D01*
X33886547Y42256533D01*
X33890044Y42255397D01*
X33890048Y42255395D01*
X33982615Y42225319D01*
X34073600Y42195756D01*
X34180984Y42182951D01*
X34265237Y42172904D01*
X34265239Y42172904D01*
X34268895Y42172468D01*
X34464994Y42187557D01*
X34579061Y42219405D01*
X34650883Y42239458D01*
X34650885Y42239459D01*
X34654428Y42240448D01*
X34829981Y42329126D01*
X34984966Y42450214D01*
X35113480Y42599099D01*
X35210628Y42770110D01*
X35272710Y42956734D01*
X35297360Y43151862D01*
X35297622Y43170623D01*
X35297724Y43177901D01*
X35297724Y43177907D01*
X35297753Y43180000D01*
X35296734Y43190392D01*
X35296373Y43194070D01*
X35822345Y43194070D01*
X35822653Y43190402D01*
X35822653Y43190399D01*
X35825889Y43151862D01*
X35838803Y42998081D01*
X35893015Y42809021D01*
X35982916Y42634092D01*
X36105083Y42479956D01*
X36107877Y42477578D01*
X36107878Y42477577D01*
X36142691Y42447949D01*
X36254862Y42352484D01*
X36258063Y42350695D01*
X36258066Y42350693D01*
X36296656Y42329126D01*
X36426547Y42256533D01*
X36430044Y42255397D01*
X36430048Y42255395D01*
X36522615Y42225319D01*
X36613600Y42195756D01*
X36720984Y42182951D01*
X36805237Y42172904D01*
X36805239Y42172904D01*
X36808895Y42172468D01*
X37004994Y42187557D01*
X37119061Y42219405D01*
X37190883Y42239458D01*
X37190885Y42239459D01*
X37194428Y42240448D01*
X37369981Y42329126D01*
X37524966Y42450214D01*
X37653480Y42599099D01*
X37750628Y42770110D01*
X37812710Y42956734D01*
X37837360Y43151862D01*
X37837622Y43170623D01*
X37837724Y43177901D01*
X37837724Y43177907D01*
X37837753Y43180000D01*
X37836734Y43190392D01*
X37836373Y43194070D01*
X38362345Y43194070D01*
X38362653Y43190402D01*
X38362653Y43190399D01*
X38365889Y43151862D01*
X38378803Y42998081D01*
X38433015Y42809021D01*
X38522916Y42634092D01*
X38645083Y42479956D01*
X38647877Y42477578D01*
X38647878Y42477577D01*
X38682691Y42447949D01*
X38794862Y42352484D01*
X38798063Y42350695D01*
X38798066Y42350693D01*
X38836656Y42329126D01*
X38966547Y42256533D01*
X38970044Y42255397D01*
X38970048Y42255395D01*
X39062615Y42225319D01*
X39153600Y42195756D01*
X39260984Y42182951D01*
X39345237Y42172904D01*
X39345239Y42172904D01*
X39348895Y42172468D01*
X39544994Y42187557D01*
X39659061Y42219405D01*
X39730883Y42239458D01*
X39730885Y42239459D01*
X39734428Y42240448D01*
X39909981Y42329126D01*
X40064966Y42450214D01*
X40193480Y42599099D01*
X40290628Y42770110D01*
X40352710Y42956734D01*
X40377360Y43151862D01*
X40377622Y43170623D01*
X40377724Y43177901D01*
X40377724Y43177907D01*
X40377753Y43180000D01*
X40376734Y43190392D01*
X40376373Y43194070D01*
X40902345Y43194070D01*
X40902653Y43190402D01*
X40902653Y43190399D01*
X40905889Y43151862D01*
X40918803Y42998081D01*
X40973015Y42809021D01*
X41062916Y42634092D01*
X41185083Y42479956D01*
X41187877Y42477578D01*
X41187878Y42477577D01*
X41222691Y42447949D01*
X41334862Y42352484D01*
X41338063Y42350695D01*
X41338066Y42350693D01*
X41376656Y42329126D01*
X41506547Y42256533D01*
X41510044Y42255397D01*
X41510048Y42255395D01*
X41602615Y42225319D01*
X41693600Y42195756D01*
X41800984Y42182951D01*
X41885237Y42172904D01*
X41885239Y42172904D01*
X41888895Y42172468D01*
X42084994Y42187557D01*
X42199061Y42219405D01*
X42270883Y42239458D01*
X42270885Y42239459D01*
X42274428Y42240448D01*
X42449981Y42329126D01*
X42604966Y42450214D01*
X42733480Y42599099D01*
X42830628Y42770110D01*
X42892710Y42956734D01*
X42917360Y43151862D01*
X42917622Y43170623D01*
X42917724Y43177901D01*
X42917724Y43177907D01*
X42917753Y43180000D01*
X42916734Y43190392D01*
X42916373Y43194070D01*
X43442345Y43194070D01*
X43442653Y43190402D01*
X43442653Y43190399D01*
X43445889Y43151862D01*
X43458803Y42998081D01*
X43513015Y42809021D01*
X43602916Y42634092D01*
X43725083Y42479956D01*
X43727877Y42477578D01*
X43727878Y42477577D01*
X43762691Y42447949D01*
X43874862Y42352484D01*
X43878063Y42350695D01*
X43878066Y42350693D01*
X43916656Y42329126D01*
X44046547Y42256533D01*
X44050044Y42255397D01*
X44050048Y42255395D01*
X44142615Y42225319D01*
X44233600Y42195756D01*
X44340984Y42182951D01*
X44425237Y42172904D01*
X44425239Y42172904D01*
X44428895Y42172468D01*
X44624994Y42187557D01*
X44739061Y42219405D01*
X44810883Y42239458D01*
X44810885Y42239459D01*
X44814428Y42240448D01*
X44989981Y42329126D01*
X45144966Y42450214D01*
X45273480Y42599099D01*
X45370628Y42770110D01*
X45432710Y42956734D01*
X45457360Y43151862D01*
X45457622Y43170623D01*
X45457724Y43177901D01*
X45457724Y43177907D01*
X45457753Y43180000D01*
X45456734Y43190392D01*
X45456373Y43194070D01*
X45982345Y43194070D01*
X45982653Y43190402D01*
X45982653Y43190399D01*
X45985889Y43151862D01*
X45998803Y42998081D01*
X46053015Y42809021D01*
X46142916Y42634092D01*
X46265083Y42479956D01*
X46267877Y42477578D01*
X46267878Y42477577D01*
X46302691Y42447949D01*
X46414862Y42352484D01*
X46418063Y42350695D01*
X46418066Y42350693D01*
X46456656Y42329126D01*
X46586547Y42256533D01*
X46590044Y42255397D01*
X46590048Y42255395D01*
X46682615Y42225319D01*
X46773600Y42195756D01*
X46880984Y42182951D01*
X46965237Y42172904D01*
X46965239Y42172904D01*
X46968895Y42172468D01*
X47164994Y42187557D01*
X47279061Y42219405D01*
X47350883Y42239458D01*
X47350885Y42239459D01*
X47354428Y42240448D01*
X47529981Y42329126D01*
X47684966Y42450214D01*
X47813480Y42599099D01*
X47910628Y42770110D01*
X47972710Y42956734D01*
X47997360Y43151862D01*
X47997622Y43170623D01*
X47997724Y43177901D01*
X47997724Y43177907D01*
X47997753Y43180000D01*
X47996734Y43190392D01*
X47996373Y43194070D01*
X48522345Y43194070D01*
X48522653Y43190402D01*
X48522653Y43190399D01*
X48525889Y43151862D01*
X48538803Y42998081D01*
X48593015Y42809021D01*
X48682916Y42634092D01*
X48805083Y42479956D01*
X48807877Y42477578D01*
X48807878Y42477577D01*
X48842691Y42447949D01*
X48954862Y42352484D01*
X48958063Y42350695D01*
X48958066Y42350693D01*
X48996656Y42329126D01*
X49126547Y42256533D01*
X49130044Y42255397D01*
X49130048Y42255395D01*
X49222615Y42225319D01*
X49313600Y42195756D01*
X49420984Y42182951D01*
X49505237Y42172904D01*
X49505239Y42172904D01*
X49508895Y42172468D01*
X49704994Y42187557D01*
X49819061Y42219405D01*
X49890883Y42239458D01*
X49890885Y42239459D01*
X49894428Y42240448D01*
X50069981Y42329126D01*
X50224966Y42450214D01*
X50353480Y42599099D01*
X50450628Y42770110D01*
X50512710Y42956734D01*
X50537360Y43151862D01*
X50537622Y43170623D01*
X50537724Y43177901D01*
X50537724Y43177907D01*
X50537753Y43180000D01*
X50536734Y43190392D01*
X50536373Y43194070D01*
X51062345Y43194070D01*
X51062653Y43190402D01*
X51062653Y43190399D01*
X51065889Y43151862D01*
X51078803Y42998081D01*
X51133015Y42809021D01*
X51222916Y42634092D01*
X51345083Y42479956D01*
X51347877Y42477578D01*
X51347878Y42477577D01*
X51382691Y42447949D01*
X51494862Y42352484D01*
X51498063Y42350695D01*
X51498066Y42350693D01*
X51536656Y42329126D01*
X51666547Y42256533D01*
X51670044Y42255397D01*
X51670048Y42255395D01*
X51762615Y42225319D01*
X51853600Y42195756D01*
X51960984Y42182951D01*
X52045237Y42172904D01*
X52045239Y42172904D01*
X52048895Y42172468D01*
X52244994Y42187557D01*
X52359061Y42219405D01*
X52430883Y42239458D01*
X52430885Y42239459D01*
X52434428Y42240448D01*
X52609981Y42329126D01*
X52764966Y42450214D01*
X52893480Y42599099D01*
X52990628Y42770110D01*
X53052710Y42956734D01*
X53077360Y43151862D01*
X53077622Y43170623D01*
X53077724Y43177901D01*
X53077724Y43177907D01*
X53077753Y43180000D01*
X53076734Y43190392D01*
X53076373Y43194070D01*
X53602345Y43194070D01*
X53602653Y43190402D01*
X53602653Y43190399D01*
X53605889Y43151862D01*
X53618803Y42998081D01*
X53673015Y42809021D01*
X53762916Y42634092D01*
X53885083Y42479956D01*
X53887877Y42477578D01*
X53887878Y42477577D01*
X53922691Y42447949D01*
X54034862Y42352484D01*
X54038063Y42350695D01*
X54038066Y42350693D01*
X54076656Y42329126D01*
X54206547Y42256533D01*
X54210044Y42255397D01*
X54210048Y42255395D01*
X54302615Y42225319D01*
X54393600Y42195756D01*
X54500984Y42182951D01*
X54585237Y42172904D01*
X54585239Y42172904D01*
X54588895Y42172468D01*
X54784994Y42187557D01*
X54899061Y42219405D01*
X54970883Y42239458D01*
X54970885Y42239459D01*
X54974428Y42240448D01*
X55149981Y42329126D01*
X55304966Y42450214D01*
X55433480Y42599099D01*
X55530628Y42770110D01*
X55592710Y42956734D01*
X55617360Y43151862D01*
X55617622Y43170623D01*
X55617724Y43177901D01*
X55617724Y43177907D01*
X55617753Y43180000D01*
X55616734Y43190392D01*
X55616373Y43194070D01*
X56142345Y43194070D01*
X56142653Y43190402D01*
X56142653Y43190399D01*
X56145889Y43151862D01*
X56158803Y42998081D01*
X56213015Y42809021D01*
X56302916Y42634092D01*
X56425083Y42479956D01*
X56427877Y42477578D01*
X56427878Y42477577D01*
X56462691Y42447949D01*
X56574862Y42352484D01*
X56578063Y42350695D01*
X56578066Y42350693D01*
X56616656Y42329126D01*
X56746547Y42256533D01*
X56750044Y42255397D01*
X56750048Y42255395D01*
X56842615Y42225319D01*
X56933600Y42195756D01*
X57040984Y42182951D01*
X57125237Y42172904D01*
X57125239Y42172904D01*
X57128895Y42172468D01*
X57324994Y42187557D01*
X57439061Y42219405D01*
X57510883Y42239458D01*
X57510885Y42239459D01*
X57514428Y42240448D01*
X57689981Y42329126D01*
X57741479Y42369361D01*
X59100117Y42369361D01*
X59101391Y42364607D01*
X59112346Y42355282D01*
X59118359Y42351103D01*
X59283537Y42258789D01*
X59290250Y42255856D01*
X59470210Y42197384D01*
X59477358Y42195812D01*
X59665248Y42173407D01*
X59672581Y42173254D01*
X59861239Y42187770D01*
X59868447Y42189041D01*
X60050701Y42239927D01*
X60057534Y42242578D01*
X60226426Y42327891D01*
X60232612Y42331816D01*
X60272713Y42363147D01*
X60276596Y42369361D01*
X61640117Y42369361D01*
X61641391Y42364607D01*
X61652346Y42355282D01*
X61658359Y42351103D01*
X61823537Y42258789D01*
X61830250Y42255856D01*
X62010210Y42197384D01*
X62017358Y42195812D01*
X62205248Y42173407D01*
X62212581Y42173254D01*
X62401239Y42187770D01*
X62408447Y42189041D01*
X62590701Y42239927D01*
X62597534Y42242578D01*
X62766426Y42327891D01*
X62772612Y42331816D01*
X62812713Y42363147D01*
X62818443Y42372316D01*
X62817835Y42376639D01*
X62239377Y42955097D01*
X62229578Y42959666D01*
X62223587Y42958061D01*
X61644686Y42379160D01*
X61640117Y42369361D01*
X60276596Y42369361D01*
X60278443Y42372316D01*
X60277835Y42376639D01*
X59699377Y42955097D01*
X59689578Y42959666D01*
X59683587Y42958061D01*
X59104686Y42379160D01*
X59100117Y42369361D01*
X57741479Y42369361D01*
X57844966Y42450214D01*
X57973480Y42599099D01*
X58070628Y42770110D01*
X58132710Y42956734D01*
X58157360Y43151862D01*
X58157622Y43170623D01*
X58157724Y43177901D01*
X58157724Y43177907D01*
X58157753Y43180000D01*
X58156734Y43190392D01*
X58683156Y43190392D01*
X58698990Y43001839D01*
X58700312Y42994637D01*
X58752470Y42812739D01*
X58755164Y42805937D01*
X58841657Y42637637D01*
X58845623Y42631482D01*
X58872905Y42597060D01*
X58882114Y42591395D01*
X58886520Y42592046D01*
X59465097Y43170623D01*
X59469272Y43179578D01*
X59910334Y43179578D01*
X59911939Y43173587D01*
X60491215Y42594311D01*
X60501014Y42589742D01*
X60505864Y42591041D01*
X60510664Y42596602D01*
X60514886Y42602588D01*
X60608354Y42767120D01*
X60611328Y42773800D01*
X60671059Y42953359D01*
X60672680Y42960493D01*
X60696593Y43149785D01*
X60696886Y43153980D01*
X60697221Y43177901D01*
X60697045Y43182093D01*
X60696231Y43190392D01*
X61223156Y43190392D01*
X61238990Y43001839D01*
X61240312Y42994637D01*
X61292470Y42812739D01*
X61295164Y42805937D01*
X61381657Y42637637D01*
X61385623Y42631482D01*
X61412905Y42597060D01*
X61422114Y42591395D01*
X61426520Y42592046D01*
X62005097Y43170623D01*
X62009272Y43179578D01*
X62450334Y43179578D01*
X62451939Y43173587D01*
X63031215Y42594311D01*
X63041014Y42589742D01*
X63045864Y42591041D01*
X63050664Y42596602D01*
X63054886Y42602588D01*
X63148354Y42767120D01*
X63151328Y42773800D01*
X63211059Y42953359D01*
X63212680Y42960493D01*
X63236593Y43149785D01*
X63236886Y43153980D01*
X63237221Y43177901D01*
X63237045Y43182093D01*
X63218427Y43371976D01*
X63217001Y43379172D01*
X63162312Y43560312D01*
X63159524Y43567078D01*
X63070687Y43734156D01*
X63066635Y43740255D01*
X63047679Y43763497D01*
X63038393Y43769032D01*
X63033816Y43768290D01*
X62454903Y43189377D01*
X62450334Y43179578D01*
X62009272Y43179578D01*
X62009666Y43180422D01*
X62008061Y43186413D01*
X61429500Y43764974D01*
X61419701Y43769543D01*
X61415041Y43768295D01*
X61401269Y43751881D01*
X61397131Y43745838D01*
X61305975Y43580025D01*
X61303088Y43573289D01*
X61245874Y43392926D01*
X61244351Y43385761D01*
X61223259Y43197725D01*
X61223156Y43190392D01*
X60696231Y43190392D01*
X60678427Y43371976D01*
X60677001Y43379172D01*
X60622312Y43560312D01*
X60619524Y43567078D01*
X60530687Y43734156D01*
X60526635Y43740255D01*
X60507679Y43763497D01*
X60498393Y43769032D01*
X60493816Y43768290D01*
X59914903Y43189377D01*
X59910334Y43179578D01*
X59469272Y43179578D01*
X59469666Y43180422D01*
X59468061Y43186413D01*
X58889500Y43764974D01*
X58879701Y43769543D01*
X58875041Y43768295D01*
X58861269Y43751881D01*
X58857131Y43745838D01*
X58765975Y43580025D01*
X58763088Y43573289D01*
X58705874Y43392926D01*
X58704351Y43385761D01*
X58683259Y43197725D01*
X58683156Y43190392D01*
X58156734Y43190392D01*
X58138921Y43372073D01*
X58138920Y43372078D01*
X58138561Y43375740D01*
X58081714Y43564025D01*
X57989379Y43737682D01*
X57865072Y43890097D01*
X57746578Y43988124D01*
X59101199Y43988124D01*
X59101894Y43983632D01*
X59680623Y43404903D01*
X59690422Y43400334D01*
X59696413Y43401939D01*
X60274667Y43980193D01*
X60278365Y43988124D01*
X61641199Y43988124D01*
X61641894Y43983632D01*
X62220623Y43404903D01*
X62230422Y43400334D01*
X62236413Y43401939D01*
X62814667Y43980193D01*
X62819236Y43989992D01*
X62818012Y43994560D01*
X62796077Y44012707D01*
X62790018Y44016794D01*
X62623557Y44106799D01*
X62616813Y44109634D01*
X62436047Y44165590D01*
X62428880Y44167061D01*
X62240687Y44186841D01*
X62233374Y44186892D01*
X62044918Y44169742D01*
X62037732Y44168371D01*
X61856208Y44114945D01*
X61849421Y44112203D01*
X61681718Y44024531D01*
X61675607Y44020531D01*
X61646798Y43997369D01*
X61641199Y43988124D01*
X60278365Y43988124D01*
X60279236Y43989992D01*
X60278012Y43994560D01*
X60256077Y44012707D01*
X60250018Y44016794D01*
X60083557Y44106799D01*
X60076813Y44109634D01*
X59896047Y44165590D01*
X59888880Y44167061D01*
X59700687Y44186841D01*
X59693374Y44186892D01*
X59504918Y44169742D01*
X59497732Y44168371D01*
X59316208Y44114945D01*
X59309421Y44112203D01*
X59141718Y44024531D01*
X59135607Y44020531D01*
X59106798Y43997369D01*
X59101199Y43988124D01*
X57746578Y43988124D01*
X57713528Y44015465D01*
X57540520Y44109010D01*
X57352637Y44167170D01*
X57229766Y44180084D01*
X57160690Y44187344D01*
X57160689Y44187344D01*
X57157035Y44187728D01*
X57059100Y44178815D01*
X56964824Y44170236D01*
X56964823Y44170236D01*
X56961166Y44169903D01*
X56957641Y44168866D01*
X56957638Y44168865D01*
X56776019Y44115411D01*
X56772489Y44114372D01*
X56598192Y44023252D01*
X56444912Y43900012D01*
X56318489Y43749347D01*
X56223739Y43576996D01*
X56164269Y43389524D01*
X56142345Y43194070D01*
X55616373Y43194070D01*
X55598921Y43372073D01*
X55598920Y43372078D01*
X55598561Y43375740D01*
X55541714Y43564025D01*
X55449379Y43737682D01*
X55325072Y43890097D01*
X55173528Y44015465D01*
X55000520Y44109010D01*
X54812637Y44167170D01*
X54689766Y44180084D01*
X54620690Y44187344D01*
X54620689Y44187344D01*
X54617035Y44187728D01*
X54519100Y44178815D01*
X54424824Y44170236D01*
X54424823Y44170236D01*
X54421166Y44169903D01*
X54417641Y44168866D01*
X54417638Y44168865D01*
X54236019Y44115411D01*
X54232489Y44114372D01*
X54058192Y44023252D01*
X53904912Y43900012D01*
X53778489Y43749347D01*
X53683739Y43576996D01*
X53624269Y43389524D01*
X53602345Y43194070D01*
X53076373Y43194070D01*
X53058921Y43372073D01*
X53058920Y43372078D01*
X53058561Y43375740D01*
X53001714Y43564025D01*
X52909379Y43737682D01*
X52785072Y43890097D01*
X52633528Y44015465D01*
X52460520Y44109010D01*
X52272637Y44167170D01*
X52149766Y44180084D01*
X52080690Y44187344D01*
X52080689Y44187344D01*
X52077035Y44187728D01*
X51979100Y44178815D01*
X51884824Y44170236D01*
X51884823Y44170236D01*
X51881166Y44169903D01*
X51877641Y44168866D01*
X51877638Y44168865D01*
X51696019Y44115411D01*
X51692489Y44114372D01*
X51518192Y44023252D01*
X51364912Y43900012D01*
X51238489Y43749347D01*
X51143739Y43576996D01*
X51084269Y43389524D01*
X51062345Y43194070D01*
X50536373Y43194070D01*
X50518921Y43372073D01*
X50518920Y43372078D01*
X50518561Y43375740D01*
X50461714Y43564025D01*
X50369379Y43737682D01*
X50245072Y43890097D01*
X50093528Y44015465D01*
X49920520Y44109010D01*
X49732637Y44167170D01*
X49609766Y44180084D01*
X49540690Y44187344D01*
X49540689Y44187344D01*
X49537035Y44187728D01*
X49439100Y44178815D01*
X49344824Y44170236D01*
X49344823Y44170236D01*
X49341166Y44169903D01*
X49337641Y44168866D01*
X49337638Y44168865D01*
X49156019Y44115411D01*
X49152489Y44114372D01*
X48978192Y44023252D01*
X48824912Y43900012D01*
X48698489Y43749347D01*
X48603739Y43576996D01*
X48544269Y43389524D01*
X48522345Y43194070D01*
X47996373Y43194070D01*
X47978921Y43372073D01*
X47978920Y43372078D01*
X47978561Y43375740D01*
X47921714Y43564025D01*
X47829379Y43737682D01*
X47705072Y43890097D01*
X47553528Y44015465D01*
X47380520Y44109010D01*
X47192637Y44167170D01*
X47069766Y44180084D01*
X47000690Y44187344D01*
X47000689Y44187344D01*
X46997035Y44187728D01*
X46899100Y44178815D01*
X46804824Y44170236D01*
X46804823Y44170236D01*
X46801166Y44169903D01*
X46797641Y44168866D01*
X46797638Y44168865D01*
X46616019Y44115411D01*
X46612489Y44114372D01*
X46438192Y44023252D01*
X46284912Y43900012D01*
X46158489Y43749347D01*
X46063739Y43576996D01*
X46004269Y43389524D01*
X45982345Y43194070D01*
X45456373Y43194070D01*
X45438921Y43372073D01*
X45438920Y43372078D01*
X45438561Y43375740D01*
X45381714Y43564025D01*
X45289379Y43737682D01*
X45165072Y43890097D01*
X45013528Y44015465D01*
X44840520Y44109010D01*
X44652637Y44167170D01*
X44529766Y44180084D01*
X44460690Y44187344D01*
X44460689Y44187344D01*
X44457035Y44187728D01*
X44359100Y44178815D01*
X44264824Y44170236D01*
X44264823Y44170236D01*
X44261166Y44169903D01*
X44257641Y44168866D01*
X44257638Y44168865D01*
X44076019Y44115411D01*
X44072489Y44114372D01*
X43898192Y44023252D01*
X43744912Y43900012D01*
X43618489Y43749347D01*
X43523739Y43576996D01*
X43464269Y43389524D01*
X43442345Y43194070D01*
X42916373Y43194070D01*
X42898921Y43372073D01*
X42898920Y43372078D01*
X42898561Y43375740D01*
X42841714Y43564025D01*
X42749379Y43737682D01*
X42625072Y43890097D01*
X42473528Y44015465D01*
X42300520Y44109010D01*
X42112637Y44167170D01*
X41989766Y44180084D01*
X41920690Y44187344D01*
X41920689Y44187344D01*
X41917035Y44187728D01*
X41819100Y44178815D01*
X41724824Y44170236D01*
X41724823Y44170236D01*
X41721166Y44169903D01*
X41717641Y44168866D01*
X41717638Y44168865D01*
X41536019Y44115411D01*
X41532489Y44114372D01*
X41358192Y44023252D01*
X41204912Y43900012D01*
X41078489Y43749347D01*
X40983739Y43576996D01*
X40924269Y43389524D01*
X40902345Y43194070D01*
X40376373Y43194070D01*
X40358921Y43372073D01*
X40358920Y43372078D01*
X40358561Y43375740D01*
X40301714Y43564025D01*
X40209379Y43737682D01*
X40085072Y43890097D01*
X39933528Y44015465D01*
X39760520Y44109010D01*
X39572637Y44167170D01*
X39449766Y44180084D01*
X39380690Y44187344D01*
X39380689Y44187344D01*
X39377035Y44187728D01*
X39279100Y44178815D01*
X39184824Y44170236D01*
X39184823Y44170236D01*
X39181166Y44169903D01*
X39177641Y44168866D01*
X39177638Y44168865D01*
X38996019Y44115411D01*
X38992489Y44114372D01*
X38818192Y44023252D01*
X38664912Y43900012D01*
X38538489Y43749347D01*
X38443739Y43576996D01*
X38384269Y43389524D01*
X38362345Y43194070D01*
X37836373Y43194070D01*
X37818921Y43372073D01*
X37818920Y43372078D01*
X37818561Y43375740D01*
X37761714Y43564025D01*
X37669379Y43737682D01*
X37545072Y43890097D01*
X37393528Y44015465D01*
X37220520Y44109010D01*
X37032637Y44167170D01*
X36909766Y44180084D01*
X36840690Y44187344D01*
X36840689Y44187344D01*
X36837035Y44187728D01*
X36739100Y44178815D01*
X36644824Y44170236D01*
X36644823Y44170236D01*
X36641166Y44169903D01*
X36637641Y44168866D01*
X36637638Y44168865D01*
X36456019Y44115411D01*
X36452489Y44114372D01*
X36278192Y44023252D01*
X36124912Y43900012D01*
X35998489Y43749347D01*
X35903739Y43576996D01*
X35844269Y43389524D01*
X35822345Y43194070D01*
X35296373Y43194070D01*
X35278921Y43372073D01*
X35278920Y43372078D01*
X35278561Y43375740D01*
X35221714Y43564025D01*
X35129379Y43737682D01*
X35005072Y43890097D01*
X34853528Y44015465D01*
X34680520Y44109010D01*
X34492637Y44167170D01*
X34369766Y44180084D01*
X34300690Y44187344D01*
X34300689Y44187344D01*
X34297035Y44187728D01*
X34199100Y44178815D01*
X34104824Y44170236D01*
X34104823Y44170236D01*
X34101166Y44169903D01*
X34097641Y44168866D01*
X34097638Y44168865D01*
X33916019Y44115411D01*
X33912489Y44114372D01*
X33738192Y44023252D01*
X33584912Y43900012D01*
X33458489Y43749347D01*
X33363739Y43576996D01*
X33304269Y43389524D01*
X33282345Y43194070D01*
X32756373Y43194070D01*
X32738921Y43372073D01*
X32738920Y43372078D01*
X32738561Y43375740D01*
X32681714Y43564025D01*
X32589379Y43737682D01*
X32465072Y43890097D01*
X32313528Y44015465D01*
X32140520Y44109010D01*
X31952637Y44167170D01*
X31829766Y44180084D01*
X31760690Y44187344D01*
X31760689Y44187344D01*
X31757035Y44187728D01*
X31659100Y44178815D01*
X31564824Y44170236D01*
X31564823Y44170236D01*
X31561166Y44169903D01*
X31557641Y44168866D01*
X31557638Y44168865D01*
X31376019Y44115411D01*
X31372489Y44114372D01*
X31198192Y44023252D01*
X31044912Y43900012D01*
X30918489Y43749347D01*
X30823739Y43576996D01*
X30764269Y43389524D01*
X30742345Y43194070D01*
X30216373Y43194070D01*
X30198921Y43372073D01*
X30198920Y43372078D01*
X30198561Y43375740D01*
X30141714Y43564025D01*
X30049379Y43737682D01*
X29925072Y43890097D01*
X29773528Y44015465D01*
X29600520Y44109010D01*
X29412637Y44167170D01*
X29289766Y44180084D01*
X29220690Y44187344D01*
X29220689Y44187344D01*
X29217035Y44187728D01*
X29119100Y44178815D01*
X29024824Y44170236D01*
X29024823Y44170236D01*
X29021166Y44169903D01*
X29017641Y44168866D01*
X29017638Y44168865D01*
X28836019Y44115411D01*
X28832489Y44114372D01*
X28658192Y44023252D01*
X28504912Y43900012D01*
X28378489Y43749347D01*
X28283739Y43576996D01*
X28224269Y43389524D01*
X28202345Y43194070D01*
X27676373Y43194070D01*
X27658921Y43372073D01*
X27658920Y43372078D01*
X27658561Y43375740D01*
X27601714Y43564025D01*
X27509379Y43737682D01*
X27385072Y43890097D01*
X27233528Y44015465D01*
X27060520Y44109010D01*
X26872637Y44167170D01*
X26749766Y44180084D01*
X26680690Y44187344D01*
X26680689Y44187344D01*
X26677035Y44187728D01*
X26579100Y44178815D01*
X26484824Y44170236D01*
X26484823Y44170236D01*
X26481166Y44169903D01*
X26477641Y44168866D01*
X26477638Y44168865D01*
X26296019Y44115411D01*
X26292489Y44114372D01*
X26118192Y44023252D01*
X25964912Y43900012D01*
X25838489Y43749347D01*
X25743739Y43576996D01*
X25684269Y43389524D01*
X25662345Y43194070D01*
X25136373Y43194070D01*
X25118921Y43372073D01*
X25118920Y43372078D01*
X25118561Y43375740D01*
X25061714Y43564025D01*
X24969379Y43737682D01*
X24845072Y43890097D01*
X24693528Y44015465D01*
X24520520Y44109010D01*
X24332637Y44167170D01*
X24209766Y44180084D01*
X24140690Y44187344D01*
X24140689Y44187344D01*
X24137035Y44187728D01*
X24039100Y44178815D01*
X23944824Y44170236D01*
X23944823Y44170236D01*
X23941166Y44169903D01*
X23937641Y44168866D01*
X23937638Y44168865D01*
X23756019Y44115411D01*
X23752489Y44114372D01*
X23578192Y44023252D01*
X23424912Y43900012D01*
X23298489Y43749347D01*
X23203739Y43576996D01*
X23144269Y43389524D01*
X23122345Y43194070D01*
X22596373Y43194070D01*
X22578921Y43372073D01*
X22578920Y43372078D01*
X22578561Y43375740D01*
X22521714Y43564025D01*
X22429379Y43737682D01*
X22305072Y43890097D01*
X22153528Y44015465D01*
X21980520Y44109010D01*
X21792637Y44167170D01*
X21669766Y44180084D01*
X21600690Y44187344D01*
X21600689Y44187344D01*
X21597035Y44187728D01*
X21499100Y44178815D01*
X21404824Y44170236D01*
X21404823Y44170236D01*
X21401166Y44169903D01*
X21397641Y44168866D01*
X21397638Y44168865D01*
X21216019Y44115411D01*
X21212489Y44114372D01*
X21038192Y44023252D01*
X20884912Y43900012D01*
X20758489Y43749347D01*
X20663739Y43576996D01*
X20604269Y43389524D01*
X20582345Y43194070D01*
X20056373Y43194070D01*
X20038921Y43372073D01*
X20038920Y43372078D01*
X20038561Y43375740D01*
X19981714Y43564025D01*
X19889379Y43737682D01*
X19765072Y43890097D01*
X19613528Y44015465D01*
X19440520Y44109010D01*
X19252637Y44167170D01*
X19129766Y44180084D01*
X19060690Y44187344D01*
X19060689Y44187344D01*
X19057035Y44187728D01*
X18959100Y44178815D01*
X18864824Y44170236D01*
X18864823Y44170236D01*
X18861166Y44169903D01*
X18857641Y44168866D01*
X18857638Y44168865D01*
X18676019Y44115411D01*
X18672489Y44114372D01*
X18498192Y44023252D01*
X18344912Y43900012D01*
X18218489Y43749347D01*
X18123739Y43576996D01*
X18064269Y43389524D01*
X18042345Y43194070D01*
X17516373Y43194070D01*
X17498921Y43372073D01*
X17498920Y43372078D01*
X17498561Y43375740D01*
X17441714Y43564025D01*
X17349379Y43737682D01*
X17225072Y43890097D01*
X17073528Y44015465D01*
X16900520Y44109010D01*
X16712637Y44167170D01*
X16589766Y44180084D01*
X16520690Y44187344D01*
X16520689Y44187344D01*
X16517035Y44187728D01*
X16419100Y44178815D01*
X16324824Y44170236D01*
X16324823Y44170236D01*
X16321166Y44169903D01*
X16317641Y44168866D01*
X16317638Y44168865D01*
X16136019Y44115411D01*
X16132489Y44114372D01*
X15958192Y44023252D01*
X15804912Y43900012D01*
X15678489Y43749347D01*
X15583739Y43576996D01*
X15524269Y43389524D01*
X15502345Y43194070D01*
X14976373Y43194070D01*
X14958921Y43372073D01*
X14958920Y43372078D01*
X14958561Y43375740D01*
X14901714Y43564025D01*
X14809379Y43737682D01*
X14685072Y43890097D01*
X14533528Y44015465D01*
X14360520Y44109010D01*
X14172637Y44167170D01*
X14049766Y44180084D01*
X13980690Y44187344D01*
X13980689Y44187344D01*
X13977035Y44187728D01*
X13879100Y44178815D01*
X13784824Y44170236D01*
X13784823Y44170236D01*
X13781166Y44169903D01*
X13777641Y44168866D01*
X13777638Y44168865D01*
X13596019Y44115411D01*
X13592489Y44114372D01*
X13418192Y44023252D01*
X13264912Y43900012D01*
X13138489Y43749347D01*
X13043739Y43576996D01*
X12984269Y43389524D01*
X12962345Y43194070D01*
X152900Y43194070D01*
X152900Y46947905D01*
X1955028Y46947905D01*
X1955287Y46945191D01*
X1955287Y46945187D01*
X1977734Y46709913D01*
X1980534Y46680569D01*
X1981181Y46677927D01*
X1981181Y46677924D01*
X1986690Y46655411D01*
X2044364Y46419715D01*
X2045383Y46417200D01*
X2045384Y46417196D01*
X2098474Y46286124D01*
X2145182Y46170808D01*
X2146557Y46168460D01*
X2239627Y46009509D01*
X2280875Y45939062D01*
X2282576Y45936936D01*
X2282578Y45936932D01*
X2364879Y45834020D01*
X2448601Y45729331D01*
X2450595Y45727469D01*
X2450598Y45727465D01*
X2584591Y45602296D01*
X2644846Y45546009D01*
X2865499Y45392936D01*
X2867933Y45391725D01*
X2867940Y45391721D01*
X3103491Y45274537D01*
X3103495Y45274535D01*
X3105938Y45273320D01*
X3361126Y45189665D01*
X3363810Y45189199D01*
X3363814Y45189198D01*
X3623452Y45144117D01*
X3623456Y45144117D01*
X3625717Y45143724D01*
X3710567Y45139500D01*
X3878223Y45139500D01*
X4077846Y45153984D01*
X4340080Y45211880D01*
X4342622Y45212843D01*
X4342625Y45212844D01*
X4588664Y45306060D01*
X4591211Y45307025D01*
X4603056Y45313604D01*
X4823587Y45436099D01*
X4825976Y45437426D01*
X4899110Y45493240D01*
X5037294Y45598698D01*
X5037298Y45598702D01*
X5039458Y45600350D01*
X5170178Y45734070D01*
X12962345Y45734070D01*
X12962653Y45730402D01*
X12962653Y45730399D01*
X12973574Y45600350D01*
X12978803Y45538081D01*
X13033015Y45349021D01*
X13122916Y45174092D01*
X13245083Y45019956D01*
X13247877Y45017578D01*
X13247878Y45017577D01*
X13282691Y44987949D01*
X13394862Y44892484D01*
X13398063Y44890695D01*
X13398066Y44890693D01*
X13436656Y44869126D01*
X13566547Y44796533D01*
X13570044Y44795397D01*
X13570048Y44795395D01*
X13660755Y44765923D01*
X13753600Y44735756D01*
X13860984Y44722951D01*
X13945237Y44712904D01*
X13945239Y44712904D01*
X13948895Y44712468D01*
X14144994Y44727557D01*
X14260354Y44759766D01*
X14330883Y44779458D01*
X14330885Y44779459D01*
X14334428Y44780448D01*
X14474727Y44851318D01*
X14506697Y44867467D01*
X14506698Y44867468D01*
X14509981Y44869126D01*
X14664966Y44990214D01*
X14793480Y45139099D01*
X14822206Y45189665D01*
X14888810Y45306909D01*
X14888812Y45306912D01*
X14890628Y45310110D01*
X14952710Y45496734D01*
X14977360Y45691862D01*
X14977753Y45720000D01*
X14976838Y45729331D01*
X14976373Y45734070D01*
X15502345Y45734070D01*
X15502653Y45730402D01*
X15502653Y45730399D01*
X15513574Y45600350D01*
X15518803Y45538081D01*
X15573015Y45349021D01*
X15662916Y45174092D01*
X15785083Y45019956D01*
X15787877Y45017578D01*
X15787878Y45017577D01*
X15822691Y44987949D01*
X15934862Y44892484D01*
X15938063Y44890695D01*
X15938066Y44890693D01*
X15976656Y44869126D01*
X16106547Y44796533D01*
X16110044Y44795397D01*
X16110048Y44795395D01*
X16200755Y44765923D01*
X16293600Y44735756D01*
X16400984Y44722951D01*
X16485237Y44712904D01*
X16485239Y44712904D01*
X16488895Y44712468D01*
X16684994Y44727557D01*
X16800354Y44759766D01*
X16870883Y44779458D01*
X16870885Y44779459D01*
X16874428Y44780448D01*
X17014727Y44851318D01*
X17046697Y44867467D01*
X17046698Y44867468D01*
X17049981Y44869126D01*
X17204966Y44990214D01*
X17333480Y45139099D01*
X17362206Y45189665D01*
X17428810Y45306909D01*
X17428812Y45306912D01*
X17430628Y45310110D01*
X17492710Y45496734D01*
X17517360Y45691862D01*
X17517753Y45720000D01*
X17516838Y45729331D01*
X17516373Y45734070D01*
X18042345Y45734070D01*
X18042653Y45730402D01*
X18042653Y45730399D01*
X18053574Y45600350D01*
X18058803Y45538081D01*
X18113015Y45349021D01*
X18202916Y45174092D01*
X18325083Y45019956D01*
X18327877Y45017578D01*
X18327878Y45017577D01*
X18362691Y44987949D01*
X18474862Y44892484D01*
X18478063Y44890695D01*
X18478066Y44890693D01*
X18516656Y44869126D01*
X18646547Y44796533D01*
X18650044Y44795397D01*
X18650048Y44795395D01*
X18740755Y44765923D01*
X18833600Y44735756D01*
X18940984Y44722951D01*
X19025237Y44712904D01*
X19025239Y44712904D01*
X19028895Y44712468D01*
X19224994Y44727557D01*
X19340354Y44759766D01*
X19410883Y44779458D01*
X19410885Y44779459D01*
X19414428Y44780448D01*
X19554727Y44851318D01*
X19586697Y44867467D01*
X19586698Y44867468D01*
X19589981Y44869126D01*
X19744966Y44990214D01*
X19873480Y45139099D01*
X19902206Y45189665D01*
X19968810Y45306909D01*
X19968812Y45306912D01*
X19970628Y45310110D01*
X20032710Y45496734D01*
X20057360Y45691862D01*
X20057753Y45720000D01*
X20056838Y45729331D01*
X20056373Y45734070D01*
X20582345Y45734070D01*
X20582653Y45730402D01*
X20582653Y45730399D01*
X20593574Y45600350D01*
X20598803Y45538081D01*
X20653015Y45349021D01*
X20742916Y45174092D01*
X20865083Y45019956D01*
X20867877Y45017578D01*
X20867878Y45017577D01*
X20902691Y44987949D01*
X21014862Y44892484D01*
X21018063Y44890695D01*
X21018066Y44890693D01*
X21056656Y44869126D01*
X21186547Y44796533D01*
X21190044Y44795397D01*
X21190048Y44795395D01*
X21280755Y44765923D01*
X21373600Y44735756D01*
X21480984Y44722951D01*
X21565237Y44712904D01*
X21565239Y44712904D01*
X21568895Y44712468D01*
X21764994Y44727557D01*
X21880354Y44759766D01*
X21950883Y44779458D01*
X21950885Y44779459D01*
X21954428Y44780448D01*
X22094727Y44851318D01*
X22126697Y44867467D01*
X22126698Y44867468D01*
X22129981Y44869126D01*
X22284966Y44990214D01*
X22413480Y45139099D01*
X22442206Y45189665D01*
X22508810Y45306909D01*
X22508812Y45306912D01*
X22510628Y45310110D01*
X22572710Y45496734D01*
X22597360Y45691862D01*
X22597753Y45720000D01*
X22596838Y45729331D01*
X22596373Y45734070D01*
X23122345Y45734070D01*
X23122653Y45730402D01*
X23122653Y45730399D01*
X23133574Y45600350D01*
X23138803Y45538081D01*
X23193015Y45349021D01*
X23282916Y45174092D01*
X23405083Y45019956D01*
X23407877Y45017578D01*
X23407878Y45017577D01*
X23442691Y44987949D01*
X23554862Y44892484D01*
X23558063Y44890695D01*
X23558066Y44890693D01*
X23596656Y44869126D01*
X23726547Y44796533D01*
X23730044Y44795397D01*
X23730048Y44795395D01*
X23820755Y44765923D01*
X23913600Y44735756D01*
X24020984Y44722951D01*
X24105237Y44712904D01*
X24105239Y44712904D01*
X24108895Y44712468D01*
X24304994Y44727557D01*
X24420354Y44759766D01*
X24490883Y44779458D01*
X24490885Y44779459D01*
X24494428Y44780448D01*
X24634727Y44851318D01*
X24666697Y44867467D01*
X24666698Y44867468D01*
X24669981Y44869126D01*
X24824966Y44990214D01*
X24953480Y45139099D01*
X24982206Y45189665D01*
X25048810Y45306909D01*
X25048812Y45306912D01*
X25050628Y45310110D01*
X25112710Y45496734D01*
X25137360Y45691862D01*
X25137753Y45720000D01*
X25136838Y45729331D01*
X25136373Y45734070D01*
X25662345Y45734070D01*
X25662653Y45730402D01*
X25662653Y45730399D01*
X25673574Y45600350D01*
X25678803Y45538081D01*
X25733015Y45349021D01*
X25822916Y45174092D01*
X25945083Y45019956D01*
X25947877Y45017578D01*
X25947878Y45017577D01*
X25982691Y44987949D01*
X26094862Y44892484D01*
X26098063Y44890695D01*
X26098066Y44890693D01*
X26136656Y44869126D01*
X26266547Y44796533D01*
X26270044Y44795397D01*
X26270048Y44795395D01*
X26360755Y44765923D01*
X26453600Y44735756D01*
X26560984Y44722951D01*
X26645237Y44712904D01*
X26645239Y44712904D01*
X26648895Y44712468D01*
X26844994Y44727557D01*
X26960354Y44759766D01*
X27030883Y44779458D01*
X27030885Y44779459D01*
X27034428Y44780448D01*
X27174727Y44851318D01*
X27206697Y44867467D01*
X27206698Y44867468D01*
X27209981Y44869126D01*
X27364966Y44990214D01*
X27493480Y45139099D01*
X27522206Y45189665D01*
X27588810Y45306909D01*
X27588812Y45306912D01*
X27590628Y45310110D01*
X27652710Y45496734D01*
X27677360Y45691862D01*
X27677753Y45720000D01*
X27676838Y45729331D01*
X27676373Y45734070D01*
X28202345Y45734070D01*
X28202653Y45730402D01*
X28202653Y45730399D01*
X28213574Y45600350D01*
X28218803Y45538081D01*
X28273015Y45349021D01*
X28362916Y45174092D01*
X28485083Y45019956D01*
X28487877Y45017578D01*
X28487878Y45017577D01*
X28522691Y44987949D01*
X28634862Y44892484D01*
X28638063Y44890695D01*
X28638066Y44890693D01*
X28676656Y44869126D01*
X28806547Y44796533D01*
X28810044Y44795397D01*
X28810048Y44795395D01*
X28900755Y44765923D01*
X28993600Y44735756D01*
X29100984Y44722951D01*
X29185237Y44712904D01*
X29185239Y44712904D01*
X29188895Y44712468D01*
X29384994Y44727557D01*
X29500354Y44759766D01*
X29570883Y44779458D01*
X29570885Y44779459D01*
X29574428Y44780448D01*
X29714727Y44851318D01*
X29746697Y44867467D01*
X29746698Y44867468D01*
X29749981Y44869126D01*
X29904966Y44990214D01*
X30033480Y45139099D01*
X30062206Y45189665D01*
X30128810Y45306909D01*
X30128812Y45306912D01*
X30130628Y45310110D01*
X30192710Y45496734D01*
X30217360Y45691862D01*
X30217753Y45720000D01*
X30216838Y45729331D01*
X30216373Y45734070D01*
X30742345Y45734070D01*
X30742653Y45730402D01*
X30742653Y45730399D01*
X30753574Y45600350D01*
X30758803Y45538081D01*
X30813015Y45349021D01*
X30902916Y45174092D01*
X31025083Y45019956D01*
X31027877Y45017578D01*
X31027878Y45017577D01*
X31062691Y44987949D01*
X31174862Y44892484D01*
X31178063Y44890695D01*
X31178066Y44890693D01*
X31216656Y44869126D01*
X31346547Y44796533D01*
X31350044Y44795397D01*
X31350048Y44795395D01*
X31440755Y44765923D01*
X31533600Y44735756D01*
X31640984Y44722951D01*
X31725237Y44712904D01*
X31725239Y44712904D01*
X31728895Y44712468D01*
X31924994Y44727557D01*
X32040354Y44759766D01*
X32110883Y44779458D01*
X32110885Y44779459D01*
X32114428Y44780448D01*
X32254727Y44851318D01*
X32286697Y44867467D01*
X32286698Y44867468D01*
X32289981Y44869126D01*
X32444966Y44990214D01*
X32573480Y45139099D01*
X32602206Y45189665D01*
X32668810Y45306909D01*
X32668812Y45306912D01*
X32670628Y45310110D01*
X32732710Y45496734D01*
X32757360Y45691862D01*
X32757753Y45720000D01*
X32756838Y45729331D01*
X32756373Y45734070D01*
X33282345Y45734070D01*
X33282653Y45730402D01*
X33282653Y45730399D01*
X33293574Y45600350D01*
X33298803Y45538081D01*
X33353015Y45349021D01*
X33442916Y45174092D01*
X33565083Y45019956D01*
X33567877Y45017578D01*
X33567878Y45017577D01*
X33602691Y44987949D01*
X33714862Y44892484D01*
X33718063Y44890695D01*
X33718066Y44890693D01*
X33756656Y44869126D01*
X33886547Y44796533D01*
X33890044Y44795397D01*
X33890048Y44795395D01*
X33980755Y44765923D01*
X34073600Y44735756D01*
X34180984Y44722951D01*
X34265237Y44712904D01*
X34265239Y44712904D01*
X34268895Y44712468D01*
X34464994Y44727557D01*
X34580354Y44759766D01*
X34650883Y44779458D01*
X34650885Y44779459D01*
X34654428Y44780448D01*
X34794727Y44851318D01*
X34826697Y44867467D01*
X34826698Y44867468D01*
X34829981Y44869126D01*
X34984966Y44990214D01*
X35113480Y45139099D01*
X35142206Y45189665D01*
X35208810Y45306909D01*
X35208812Y45306912D01*
X35210628Y45310110D01*
X35272710Y45496734D01*
X35297360Y45691862D01*
X35297753Y45720000D01*
X35296838Y45729331D01*
X35296373Y45734070D01*
X35822345Y45734070D01*
X35822653Y45730402D01*
X35822653Y45730399D01*
X35833574Y45600350D01*
X35838803Y45538081D01*
X35893015Y45349021D01*
X35982916Y45174092D01*
X36105083Y45019956D01*
X36107877Y45017578D01*
X36107878Y45017577D01*
X36142691Y44987949D01*
X36254862Y44892484D01*
X36258063Y44890695D01*
X36258066Y44890693D01*
X36296656Y44869126D01*
X36426547Y44796533D01*
X36430044Y44795397D01*
X36430048Y44795395D01*
X36520755Y44765923D01*
X36613600Y44735756D01*
X36720984Y44722951D01*
X36805237Y44712904D01*
X36805239Y44712904D01*
X36808895Y44712468D01*
X37004994Y44727557D01*
X37120354Y44759766D01*
X37190883Y44779458D01*
X37190885Y44779459D01*
X37194428Y44780448D01*
X37334727Y44851318D01*
X37366697Y44867467D01*
X37366698Y44867468D01*
X37369981Y44869126D01*
X37524966Y44990214D01*
X37653480Y45139099D01*
X37682206Y45189665D01*
X37748810Y45306909D01*
X37748812Y45306912D01*
X37750628Y45310110D01*
X37812710Y45496734D01*
X37837360Y45691862D01*
X37837753Y45720000D01*
X37836838Y45729331D01*
X37836373Y45734070D01*
X38362345Y45734070D01*
X38362653Y45730402D01*
X38362653Y45730399D01*
X38373574Y45600350D01*
X38378803Y45538081D01*
X38433015Y45349021D01*
X38522916Y45174092D01*
X38645083Y45019956D01*
X38647877Y45017578D01*
X38647878Y45017577D01*
X38682691Y44987949D01*
X38794862Y44892484D01*
X38798063Y44890695D01*
X38798066Y44890693D01*
X38836656Y44869126D01*
X38966547Y44796533D01*
X38970044Y44795397D01*
X38970048Y44795395D01*
X39060755Y44765923D01*
X39153600Y44735756D01*
X39260984Y44722951D01*
X39345237Y44712904D01*
X39345239Y44712904D01*
X39348895Y44712468D01*
X39544994Y44727557D01*
X39660354Y44759766D01*
X39730883Y44779458D01*
X39730885Y44779459D01*
X39734428Y44780448D01*
X39874727Y44851318D01*
X39906697Y44867467D01*
X39906698Y44867468D01*
X39909981Y44869126D01*
X40064966Y44990214D01*
X40193480Y45139099D01*
X40222206Y45189665D01*
X40288810Y45306909D01*
X40288812Y45306912D01*
X40290628Y45310110D01*
X40352710Y45496734D01*
X40377360Y45691862D01*
X40377753Y45720000D01*
X40376838Y45729331D01*
X40376373Y45734070D01*
X40902345Y45734070D01*
X40902653Y45730402D01*
X40902653Y45730399D01*
X40913574Y45600350D01*
X40918803Y45538081D01*
X40973015Y45349021D01*
X41062916Y45174092D01*
X41185083Y45019956D01*
X41187877Y45017578D01*
X41187878Y45017577D01*
X41222691Y44987949D01*
X41334862Y44892484D01*
X41338063Y44890695D01*
X41338066Y44890693D01*
X41376656Y44869126D01*
X41506547Y44796533D01*
X41510044Y44795397D01*
X41510048Y44795395D01*
X41600755Y44765923D01*
X41693600Y44735756D01*
X41800984Y44722951D01*
X41885237Y44712904D01*
X41885239Y44712904D01*
X41888895Y44712468D01*
X42084994Y44727557D01*
X42200354Y44759766D01*
X42270883Y44779458D01*
X42270885Y44779459D01*
X42274428Y44780448D01*
X42414727Y44851318D01*
X42446697Y44867467D01*
X42446698Y44867468D01*
X42449981Y44869126D01*
X42604966Y44990214D01*
X42733480Y45139099D01*
X42762206Y45189665D01*
X42828810Y45306909D01*
X42828812Y45306912D01*
X42830628Y45310110D01*
X42892710Y45496734D01*
X42917360Y45691862D01*
X42917753Y45720000D01*
X42916838Y45729331D01*
X42916373Y45734070D01*
X43442345Y45734070D01*
X43442653Y45730402D01*
X43442653Y45730399D01*
X43453574Y45600350D01*
X43458803Y45538081D01*
X43513015Y45349021D01*
X43602916Y45174092D01*
X43725083Y45019956D01*
X43727877Y45017578D01*
X43727878Y45017577D01*
X43762691Y44987949D01*
X43874862Y44892484D01*
X43878063Y44890695D01*
X43878066Y44890693D01*
X43916656Y44869126D01*
X44046547Y44796533D01*
X44050044Y44795397D01*
X44050048Y44795395D01*
X44140755Y44765923D01*
X44233600Y44735756D01*
X44340984Y44722951D01*
X44425237Y44712904D01*
X44425239Y44712904D01*
X44428895Y44712468D01*
X44624994Y44727557D01*
X44740354Y44759766D01*
X44810883Y44779458D01*
X44810885Y44779459D01*
X44814428Y44780448D01*
X44954727Y44851318D01*
X44986697Y44867467D01*
X44986698Y44867468D01*
X44989981Y44869126D01*
X45144966Y44990214D01*
X45273480Y45139099D01*
X45302206Y45189665D01*
X45368810Y45306909D01*
X45368812Y45306912D01*
X45370628Y45310110D01*
X45432710Y45496734D01*
X45457360Y45691862D01*
X45457753Y45720000D01*
X45456838Y45729331D01*
X45456373Y45734070D01*
X45982345Y45734070D01*
X45982653Y45730402D01*
X45982653Y45730399D01*
X45993574Y45600350D01*
X45998803Y45538081D01*
X46053015Y45349021D01*
X46142916Y45174092D01*
X46265083Y45019956D01*
X46267877Y45017578D01*
X46267878Y45017577D01*
X46302691Y44987949D01*
X46414862Y44892484D01*
X46418063Y44890695D01*
X46418066Y44890693D01*
X46456656Y44869126D01*
X46586547Y44796533D01*
X46590044Y44795397D01*
X46590048Y44795395D01*
X46680755Y44765923D01*
X46773600Y44735756D01*
X46880984Y44722951D01*
X46965237Y44712904D01*
X46965239Y44712904D01*
X46968895Y44712468D01*
X47164994Y44727557D01*
X47280354Y44759766D01*
X47350883Y44779458D01*
X47350885Y44779459D01*
X47354428Y44780448D01*
X47494727Y44851318D01*
X47526697Y44867467D01*
X47526698Y44867468D01*
X47529981Y44869126D01*
X47684966Y44990214D01*
X47813480Y45139099D01*
X47842206Y45189665D01*
X47908810Y45306909D01*
X47908812Y45306912D01*
X47910628Y45310110D01*
X47972710Y45496734D01*
X47997360Y45691862D01*
X47997753Y45720000D01*
X47996838Y45729331D01*
X47996373Y45734070D01*
X48522345Y45734070D01*
X48522653Y45730402D01*
X48522653Y45730399D01*
X48533574Y45600350D01*
X48538803Y45538081D01*
X48593015Y45349021D01*
X48682916Y45174092D01*
X48805083Y45019956D01*
X48807877Y45017578D01*
X48807878Y45017577D01*
X48842691Y44987949D01*
X48954862Y44892484D01*
X48958063Y44890695D01*
X48958066Y44890693D01*
X48996656Y44869126D01*
X49126547Y44796533D01*
X49130044Y44795397D01*
X49130048Y44795395D01*
X49220755Y44765923D01*
X49313600Y44735756D01*
X49420984Y44722951D01*
X49505237Y44712904D01*
X49505239Y44712904D01*
X49508895Y44712468D01*
X49704994Y44727557D01*
X49820354Y44759766D01*
X49890883Y44779458D01*
X49890885Y44779459D01*
X49894428Y44780448D01*
X50034727Y44851318D01*
X50066697Y44867467D01*
X50066698Y44867468D01*
X50069981Y44869126D01*
X50224966Y44990214D01*
X50353480Y45139099D01*
X50382206Y45189665D01*
X50448810Y45306909D01*
X50448812Y45306912D01*
X50450628Y45310110D01*
X50512710Y45496734D01*
X50537360Y45691862D01*
X50537753Y45720000D01*
X50536838Y45729331D01*
X50536373Y45734070D01*
X51062345Y45734070D01*
X51062653Y45730402D01*
X51062653Y45730399D01*
X51073574Y45600350D01*
X51078803Y45538081D01*
X51133015Y45349021D01*
X51222916Y45174092D01*
X51345083Y45019956D01*
X51347877Y45017578D01*
X51347878Y45017577D01*
X51382691Y44987949D01*
X51494862Y44892484D01*
X51498063Y44890695D01*
X51498066Y44890693D01*
X51536656Y44869126D01*
X51666547Y44796533D01*
X51670044Y44795397D01*
X51670048Y44795395D01*
X51760755Y44765923D01*
X51853600Y44735756D01*
X51960984Y44722951D01*
X52045237Y44712904D01*
X52045239Y44712904D01*
X52048895Y44712468D01*
X52244994Y44727557D01*
X52360354Y44759766D01*
X52430883Y44779458D01*
X52430885Y44779459D01*
X52434428Y44780448D01*
X52574727Y44851318D01*
X52606697Y44867467D01*
X52606698Y44867468D01*
X52609981Y44869126D01*
X52764966Y44990214D01*
X52893480Y45139099D01*
X52922206Y45189665D01*
X52988810Y45306909D01*
X52988812Y45306912D01*
X52990628Y45310110D01*
X53052710Y45496734D01*
X53077360Y45691862D01*
X53077753Y45720000D01*
X53076838Y45729331D01*
X53076373Y45734070D01*
X53602345Y45734070D01*
X53602653Y45730402D01*
X53602653Y45730399D01*
X53613574Y45600350D01*
X53618803Y45538081D01*
X53673015Y45349021D01*
X53762916Y45174092D01*
X53885083Y45019956D01*
X53887877Y45017578D01*
X53887878Y45017577D01*
X53922691Y44987949D01*
X54034862Y44892484D01*
X54038063Y44890695D01*
X54038066Y44890693D01*
X54076656Y44869126D01*
X54206547Y44796533D01*
X54210044Y44795397D01*
X54210048Y44795395D01*
X54300755Y44765923D01*
X54393600Y44735756D01*
X54500984Y44722951D01*
X54585237Y44712904D01*
X54585239Y44712904D01*
X54588895Y44712468D01*
X54784994Y44727557D01*
X54900354Y44759766D01*
X54970883Y44779458D01*
X54970885Y44779459D01*
X54974428Y44780448D01*
X55114727Y44851318D01*
X55146697Y44867467D01*
X55146698Y44867468D01*
X55149981Y44869126D01*
X55304966Y44990214D01*
X55433480Y45139099D01*
X55462206Y45189665D01*
X55528810Y45306909D01*
X55528812Y45306912D01*
X55530628Y45310110D01*
X55592710Y45496734D01*
X55617360Y45691862D01*
X55617753Y45720000D01*
X55616838Y45729331D01*
X55616373Y45734070D01*
X56142345Y45734070D01*
X56142653Y45730402D01*
X56142653Y45730399D01*
X56153574Y45600350D01*
X56158803Y45538081D01*
X56213015Y45349021D01*
X56302916Y45174092D01*
X56425083Y45019956D01*
X56427877Y45017578D01*
X56427878Y45017577D01*
X56462691Y44987949D01*
X56574862Y44892484D01*
X56578063Y44890695D01*
X56578066Y44890693D01*
X56616656Y44869126D01*
X56746547Y44796533D01*
X56750044Y44795397D01*
X56750048Y44795395D01*
X56840755Y44765923D01*
X56933600Y44735756D01*
X57040984Y44722951D01*
X57125237Y44712904D01*
X57125239Y44712904D01*
X57128895Y44712468D01*
X57324994Y44727557D01*
X57440354Y44759766D01*
X57510883Y44779458D01*
X57510885Y44779459D01*
X57514428Y44780448D01*
X57654727Y44851318D01*
X57686697Y44867467D01*
X57686698Y44867468D01*
X57689981Y44869126D01*
X57844966Y44990214D01*
X57973480Y45139099D01*
X58002206Y45189665D01*
X58068810Y45306909D01*
X58068812Y45306912D01*
X58070628Y45310110D01*
X58132710Y45496734D01*
X58157360Y45691862D01*
X58157753Y45720000D01*
X58156838Y45729331D01*
X58156373Y45734070D01*
X58682345Y45734070D01*
X58682653Y45730402D01*
X58682653Y45730399D01*
X58693574Y45600350D01*
X58698803Y45538081D01*
X58753015Y45349021D01*
X58842916Y45174092D01*
X58965083Y45019956D01*
X58967877Y45017578D01*
X58967878Y45017577D01*
X59002691Y44987949D01*
X59114862Y44892484D01*
X59118063Y44890695D01*
X59118066Y44890693D01*
X59156656Y44869126D01*
X59286547Y44796533D01*
X59290044Y44795397D01*
X59290048Y44795395D01*
X59380755Y44765923D01*
X59473600Y44735756D01*
X59580984Y44722951D01*
X59665237Y44712904D01*
X59665239Y44712904D01*
X59668895Y44712468D01*
X59864994Y44727557D01*
X59980354Y44759766D01*
X60050883Y44779458D01*
X60050885Y44779459D01*
X60054428Y44780448D01*
X60194727Y44851318D01*
X60226697Y44867467D01*
X60226698Y44867468D01*
X60229981Y44869126D01*
X60384966Y44990214D01*
X60513480Y45139099D01*
X60542206Y45189665D01*
X60608810Y45306909D01*
X60608812Y45306912D01*
X60610628Y45310110D01*
X60672710Y45496734D01*
X60697360Y45691862D01*
X60697753Y45720000D01*
X60696838Y45729331D01*
X60678921Y45912073D01*
X60678920Y45912078D01*
X60678561Y45915740D01*
X60621714Y46104025D01*
X60529379Y46277682D01*
X60405072Y46430097D01*
X60253528Y46555465D01*
X60198799Y46585057D01*
X61227100Y46585057D01*
X61227101Y44854944D01*
X61235972Y44810342D01*
X61269766Y44759766D01*
X61275923Y44755652D01*
X61314183Y44730087D01*
X61314184Y44730086D01*
X61320342Y44725972D01*
X61364943Y44717100D01*
X62229882Y44717100D01*
X63095056Y44717101D01*
X63139658Y44725972D01*
X63190234Y44759766D01*
X63214801Y44796533D01*
X63219913Y44804183D01*
X63219914Y44804184D01*
X63224028Y44810342D01*
X63232900Y44854943D01*
X63232899Y46585056D01*
X63224028Y46629658D01*
X63190234Y46680234D01*
X63184077Y46684348D01*
X63145817Y46709913D01*
X63145816Y46709914D01*
X63139658Y46714028D01*
X63095057Y46722900D01*
X62230118Y46722900D01*
X61364944Y46722899D01*
X61320342Y46714028D01*
X61269766Y46680234D01*
X61265652Y46674077D01*
X61247735Y46647262D01*
X61235972Y46629658D01*
X61227100Y46585057D01*
X60198799Y46585057D01*
X60080520Y46649010D01*
X59892637Y46707170D01*
X59749832Y46722179D01*
X59700690Y46727344D01*
X59700689Y46727344D01*
X59697035Y46727728D01*
X59599101Y46718816D01*
X59504824Y46710236D01*
X59504823Y46710236D01*
X59501166Y46709903D01*
X59497641Y46708866D01*
X59497638Y46708865D01*
X59392511Y46677924D01*
X59312489Y46654372D01*
X59138192Y46563252D01*
X58984912Y46440012D01*
X58858489Y46289347D01*
X58763739Y46116996D01*
X58704269Y45929524D01*
X58682345Y45734070D01*
X58156373Y45734070D01*
X58138921Y45912073D01*
X58138920Y45912078D01*
X58138561Y45915740D01*
X58081714Y46104025D01*
X57989379Y46277682D01*
X57865072Y46430097D01*
X57713528Y46555465D01*
X57540520Y46649010D01*
X57352637Y46707170D01*
X57209832Y46722179D01*
X57160690Y46727344D01*
X57160689Y46727344D01*
X57157035Y46727728D01*
X57059101Y46718816D01*
X56964824Y46710236D01*
X56964823Y46710236D01*
X56961166Y46709903D01*
X56957641Y46708866D01*
X56957638Y46708865D01*
X56852511Y46677924D01*
X56772489Y46654372D01*
X56598192Y46563252D01*
X56444912Y46440012D01*
X56318489Y46289347D01*
X56223739Y46116996D01*
X56164269Y45929524D01*
X56142345Y45734070D01*
X55616373Y45734070D01*
X55598921Y45912073D01*
X55598920Y45912078D01*
X55598561Y45915740D01*
X55541714Y46104025D01*
X55449379Y46277682D01*
X55325072Y46430097D01*
X55173528Y46555465D01*
X55000520Y46649010D01*
X54812637Y46707170D01*
X54669832Y46722179D01*
X54620690Y46727344D01*
X54620689Y46727344D01*
X54617035Y46727728D01*
X54519101Y46718816D01*
X54424824Y46710236D01*
X54424823Y46710236D01*
X54421166Y46709903D01*
X54417641Y46708866D01*
X54417638Y46708865D01*
X54312511Y46677924D01*
X54232489Y46654372D01*
X54058192Y46563252D01*
X53904912Y46440012D01*
X53778489Y46289347D01*
X53683739Y46116996D01*
X53624269Y45929524D01*
X53602345Y45734070D01*
X53076373Y45734070D01*
X53058921Y45912073D01*
X53058920Y45912078D01*
X53058561Y45915740D01*
X53001714Y46104025D01*
X52909379Y46277682D01*
X52785072Y46430097D01*
X52633528Y46555465D01*
X52460520Y46649010D01*
X52272637Y46707170D01*
X52129832Y46722179D01*
X52080690Y46727344D01*
X52080689Y46727344D01*
X52077035Y46727728D01*
X51979101Y46718816D01*
X51884824Y46710236D01*
X51884823Y46710236D01*
X51881166Y46709903D01*
X51877641Y46708866D01*
X51877638Y46708865D01*
X51772511Y46677924D01*
X51692489Y46654372D01*
X51518192Y46563252D01*
X51364912Y46440012D01*
X51238489Y46289347D01*
X51143739Y46116996D01*
X51084269Y45929524D01*
X51062345Y45734070D01*
X50536373Y45734070D01*
X50518921Y45912073D01*
X50518920Y45912078D01*
X50518561Y45915740D01*
X50461714Y46104025D01*
X50369379Y46277682D01*
X50245072Y46430097D01*
X50093528Y46555465D01*
X49920520Y46649010D01*
X49732637Y46707170D01*
X49589832Y46722179D01*
X49540690Y46727344D01*
X49540689Y46727344D01*
X49537035Y46727728D01*
X49439101Y46718816D01*
X49344824Y46710236D01*
X49344823Y46710236D01*
X49341166Y46709903D01*
X49337641Y46708866D01*
X49337638Y46708865D01*
X49232511Y46677924D01*
X49152489Y46654372D01*
X48978192Y46563252D01*
X48824912Y46440012D01*
X48698489Y46289347D01*
X48603739Y46116996D01*
X48544269Y45929524D01*
X48522345Y45734070D01*
X47996373Y45734070D01*
X47978921Y45912073D01*
X47978920Y45912078D01*
X47978561Y45915740D01*
X47921714Y46104025D01*
X47829379Y46277682D01*
X47705072Y46430097D01*
X47553528Y46555465D01*
X47380520Y46649010D01*
X47192637Y46707170D01*
X47049832Y46722179D01*
X47000690Y46727344D01*
X47000689Y46727344D01*
X46997035Y46727728D01*
X46899101Y46718816D01*
X46804824Y46710236D01*
X46804823Y46710236D01*
X46801166Y46709903D01*
X46797641Y46708866D01*
X46797638Y46708865D01*
X46692511Y46677924D01*
X46612489Y46654372D01*
X46438192Y46563252D01*
X46284912Y46440012D01*
X46158489Y46289347D01*
X46063739Y46116996D01*
X46004269Y45929524D01*
X45982345Y45734070D01*
X45456373Y45734070D01*
X45438921Y45912073D01*
X45438920Y45912078D01*
X45438561Y45915740D01*
X45381714Y46104025D01*
X45289379Y46277682D01*
X45165072Y46430097D01*
X45013528Y46555465D01*
X44840520Y46649010D01*
X44652637Y46707170D01*
X44509832Y46722179D01*
X44460690Y46727344D01*
X44460689Y46727344D01*
X44457035Y46727728D01*
X44359101Y46718816D01*
X44264824Y46710236D01*
X44264823Y46710236D01*
X44261166Y46709903D01*
X44257641Y46708866D01*
X44257638Y46708865D01*
X44152511Y46677924D01*
X44072489Y46654372D01*
X43898192Y46563252D01*
X43744912Y46440012D01*
X43618489Y46289347D01*
X43523739Y46116996D01*
X43464269Y45929524D01*
X43442345Y45734070D01*
X42916373Y45734070D01*
X42898921Y45912073D01*
X42898920Y45912078D01*
X42898561Y45915740D01*
X42841714Y46104025D01*
X42749379Y46277682D01*
X42625072Y46430097D01*
X42473528Y46555465D01*
X42300520Y46649010D01*
X42112637Y46707170D01*
X41969832Y46722179D01*
X41920690Y46727344D01*
X41920689Y46727344D01*
X41917035Y46727728D01*
X41819101Y46718816D01*
X41724824Y46710236D01*
X41724823Y46710236D01*
X41721166Y46709903D01*
X41717641Y46708866D01*
X41717638Y46708865D01*
X41612511Y46677924D01*
X41532489Y46654372D01*
X41358192Y46563252D01*
X41204912Y46440012D01*
X41078489Y46289347D01*
X40983739Y46116996D01*
X40924269Y45929524D01*
X40902345Y45734070D01*
X40376373Y45734070D01*
X40358921Y45912073D01*
X40358920Y45912078D01*
X40358561Y45915740D01*
X40301714Y46104025D01*
X40209379Y46277682D01*
X40085072Y46430097D01*
X39933528Y46555465D01*
X39760520Y46649010D01*
X39572637Y46707170D01*
X39429832Y46722179D01*
X39380690Y46727344D01*
X39380689Y46727344D01*
X39377035Y46727728D01*
X39279101Y46718816D01*
X39184824Y46710236D01*
X39184823Y46710236D01*
X39181166Y46709903D01*
X39177641Y46708866D01*
X39177638Y46708865D01*
X39072511Y46677924D01*
X38992489Y46654372D01*
X38818192Y46563252D01*
X38664912Y46440012D01*
X38538489Y46289347D01*
X38443739Y46116996D01*
X38384269Y45929524D01*
X38362345Y45734070D01*
X37836373Y45734070D01*
X37818921Y45912073D01*
X37818920Y45912078D01*
X37818561Y45915740D01*
X37761714Y46104025D01*
X37669379Y46277682D01*
X37545072Y46430097D01*
X37393528Y46555465D01*
X37220520Y46649010D01*
X37032637Y46707170D01*
X36889832Y46722179D01*
X36840690Y46727344D01*
X36840689Y46727344D01*
X36837035Y46727728D01*
X36739101Y46718816D01*
X36644824Y46710236D01*
X36644823Y46710236D01*
X36641166Y46709903D01*
X36637641Y46708866D01*
X36637638Y46708865D01*
X36532511Y46677924D01*
X36452489Y46654372D01*
X36278192Y46563252D01*
X36124912Y46440012D01*
X35998489Y46289347D01*
X35903739Y46116996D01*
X35844269Y45929524D01*
X35822345Y45734070D01*
X35296373Y45734070D01*
X35278921Y45912073D01*
X35278920Y45912078D01*
X35278561Y45915740D01*
X35221714Y46104025D01*
X35129379Y46277682D01*
X35005072Y46430097D01*
X34853528Y46555465D01*
X34680520Y46649010D01*
X34492637Y46707170D01*
X34349832Y46722179D01*
X34300690Y46727344D01*
X34300689Y46727344D01*
X34297035Y46727728D01*
X34199101Y46718816D01*
X34104824Y46710236D01*
X34104823Y46710236D01*
X34101166Y46709903D01*
X34097641Y46708866D01*
X34097638Y46708865D01*
X33992511Y46677924D01*
X33912489Y46654372D01*
X33738192Y46563252D01*
X33584912Y46440012D01*
X33458489Y46289347D01*
X33363739Y46116996D01*
X33304269Y45929524D01*
X33282345Y45734070D01*
X32756373Y45734070D01*
X32738921Y45912073D01*
X32738920Y45912078D01*
X32738561Y45915740D01*
X32681714Y46104025D01*
X32589379Y46277682D01*
X32465072Y46430097D01*
X32313528Y46555465D01*
X32140520Y46649010D01*
X31952637Y46707170D01*
X31809832Y46722179D01*
X31760690Y46727344D01*
X31760689Y46727344D01*
X31757035Y46727728D01*
X31659101Y46718816D01*
X31564824Y46710236D01*
X31564823Y46710236D01*
X31561166Y46709903D01*
X31557641Y46708866D01*
X31557638Y46708865D01*
X31452511Y46677924D01*
X31372489Y46654372D01*
X31198192Y46563252D01*
X31044912Y46440012D01*
X30918489Y46289347D01*
X30823739Y46116996D01*
X30764269Y45929524D01*
X30742345Y45734070D01*
X30216373Y45734070D01*
X30198921Y45912073D01*
X30198920Y45912078D01*
X30198561Y45915740D01*
X30141714Y46104025D01*
X30049379Y46277682D01*
X29925072Y46430097D01*
X29773528Y46555465D01*
X29600520Y46649010D01*
X29412637Y46707170D01*
X29269832Y46722179D01*
X29220690Y46727344D01*
X29220689Y46727344D01*
X29217035Y46727728D01*
X29119101Y46718816D01*
X29024824Y46710236D01*
X29024823Y46710236D01*
X29021166Y46709903D01*
X29017641Y46708866D01*
X29017638Y46708865D01*
X28912511Y46677924D01*
X28832489Y46654372D01*
X28658192Y46563252D01*
X28504912Y46440012D01*
X28378489Y46289347D01*
X28283739Y46116996D01*
X28224269Y45929524D01*
X28202345Y45734070D01*
X27676373Y45734070D01*
X27658921Y45912073D01*
X27658920Y45912078D01*
X27658561Y45915740D01*
X27601714Y46104025D01*
X27509379Y46277682D01*
X27385072Y46430097D01*
X27233528Y46555465D01*
X27060520Y46649010D01*
X26872637Y46707170D01*
X26729832Y46722179D01*
X26680690Y46727344D01*
X26680689Y46727344D01*
X26677035Y46727728D01*
X26579101Y46718816D01*
X26484824Y46710236D01*
X26484823Y46710236D01*
X26481166Y46709903D01*
X26477641Y46708866D01*
X26477638Y46708865D01*
X26372511Y46677924D01*
X26292489Y46654372D01*
X26118192Y46563252D01*
X25964912Y46440012D01*
X25838489Y46289347D01*
X25743739Y46116996D01*
X25684269Y45929524D01*
X25662345Y45734070D01*
X25136373Y45734070D01*
X25118921Y45912073D01*
X25118920Y45912078D01*
X25118561Y45915740D01*
X25061714Y46104025D01*
X24969379Y46277682D01*
X24845072Y46430097D01*
X24693528Y46555465D01*
X24520520Y46649010D01*
X24332637Y46707170D01*
X24189832Y46722179D01*
X24140690Y46727344D01*
X24140689Y46727344D01*
X24137035Y46727728D01*
X24039101Y46718816D01*
X23944824Y46710236D01*
X23944823Y46710236D01*
X23941166Y46709903D01*
X23937641Y46708866D01*
X23937638Y46708865D01*
X23832511Y46677924D01*
X23752489Y46654372D01*
X23578192Y46563252D01*
X23424912Y46440012D01*
X23298489Y46289347D01*
X23203739Y46116996D01*
X23144269Y45929524D01*
X23122345Y45734070D01*
X22596373Y45734070D01*
X22578921Y45912073D01*
X22578920Y45912078D01*
X22578561Y45915740D01*
X22521714Y46104025D01*
X22429379Y46277682D01*
X22305072Y46430097D01*
X22153528Y46555465D01*
X21980520Y46649010D01*
X21792637Y46707170D01*
X21649832Y46722179D01*
X21600690Y46727344D01*
X21600689Y46727344D01*
X21597035Y46727728D01*
X21499101Y46718816D01*
X21404824Y46710236D01*
X21404823Y46710236D01*
X21401166Y46709903D01*
X21397641Y46708866D01*
X21397638Y46708865D01*
X21292511Y46677924D01*
X21212489Y46654372D01*
X21038192Y46563252D01*
X20884912Y46440012D01*
X20758489Y46289347D01*
X20663739Y46116996D01*
X20604269Y45929524D01*
X20582345Y45734070D01*
X20056373Y45734070D01*
X20038921Y45912073D01*
X20038920Y45912078D01*
X20038561Y45915740D01*
X19981714Y46104025D01*
X19889379Y46277682D01*
X19765072Y46430097D01*
X19613528Y46555465D01*
X19440520Y46649010D01*
X19252637Y46707170D01*
X19109832Y46722179D01*
X19060690Y46727344D01*
X19060689Y46727344D01*
X19057035Y46727728D01*
X18959101Y46718816D01*
X18864824Y46710236D01*
X18864823Y46710236D01*
X18861166Y46709903D01*
X18857641Y46708866D01*
X18857638Y46708865D01*
X18752511Y46677924D01*
X18672489Y46654372D01*
X18498192Y46563252D01*
X18344912Y46440012D01*
X18218489Y46289347D01*
X18123739Y46116996D01*
X18064269Y45929524D01*
X18042345Y45734070D01*
X17516373Y45734070D01*
X17498921Y45912073D01*
X17498920Y45912078D01*
X17498561Y45915740D01*
X17441714Y46104025D01*
X17349379Y46277682D01*
X17225072Y46430097D01*
X17073528Y46555465D01*
X16900520Y46649010D01*
X16712637Y46707170D01*
X16569832Y46722179D01*
X16520690Y46727344D01*
X16520689Y46727344D01*
X16517035Y46727728D01*
X16419101Y46718816D01*
X16324824Y46710236D01*
X16324823Y46710236D01*
X16321166Y46709903D01*
X16317641Y46708866D01*
X16317638Y46708865D01*
X16212511Y46677924D01*
X16132489Y46654372D01*
X15958192Y46563252D01*
X15804912Y46440012D01*
X15678489Y46289347D01*
X15583739Y46116996D01*
X15524269Y45929524D01*
X15502345Y45734070D01*
X14976373Y45734070D01*
X14958921Y45912073D01*
X14958920Y45912078D01*
X14958561Y45915740D01*
X14901714Y46104025D01*
X14809379Y46277682D01*
X14685072Y46430097D01*
X14533528Y46555465D01*
X14360520Y46649010D01*
X14172637Y46707170D01*
X14029832Y46722179D01*
X13980690Y46727344D01*
X13980689Y46727344D01*
X13977035Y46727728D01*
X13879101Y46718816D01*
X13784824Y46710236D01*
X13784823Y46710236D01*
X13781166Y46709903D01*
X13777641Y46708866D01*
X13777638Y46708865D01*
X13672511Y46677924D01*
X13592489Y46654372D01*
X13418192Y46563252D01*
X13264912Y46440012D01*
X13138489Y46289347D01*
X13043739Y46116996D01*
X12984269Y45929524D01*
X12962345Y45734070D01*
X5170178Y45734070D01*
X5227185Y45792386D01*
X5329558Y45933031D01*
X5383621Y46007305D01*
X5383622Y46007307D01*
X5385225Y46009509D01*
X5434953Y46104025D01*
X5508998Y46244763D01*
X5509000Y46244768D01*
X5510265Y46247172D01*
X5599688Y46500397D01*
X5651620Y46763878D01*
X5660781Y46947905D01*
X70535028Y46947905D01*
X70535287Y46945191D01*
X70535287Y46945187D01*
X70557734Y46709913D01*
X70560534Y46680569D01*
X70561181Y46677927D01*
X70561181Y46677924D01*
X70566690Y46655411D01*
X70624364Y46419715D01*
X70625383Y46417200D01*
X70625384Y46417196D01*
X70678474Y46286124D01*
X70725182Y46170808D01*
X70726557Y46168460D01*
X70819627Y46009509D01*
X70860875Y45939062D01*
X70862576Y45936936D01*
X70862578Y45936932D01*
X70944879Y45834020D01*
X71028601Y45729331D01*
X71030595Y45727469D01*
X71030598Y45727465D01*
X71164591Y45602296D01*
X71224846Y45546009D01*
X71445499Y45392936D01*
X71447933Y45391725D01*
X71447940Y45391721D01*
X71683491Y45274537D01*
X71683495Y45274535D01*
X71685938Y45273320D01*
X71941126Y45189665D01*
X71943810Y45189199D01*
X71943814Y45189198D01*
X72203452Y45144117D01*
X72203456Y45144117D01*
X72205717Y45143724D01*
X72290567Y45139500D01*
X72458223Y45139500D01*
X72657846Y45153984D01*
X72920080Y45211880D01*
X72922622Y45212843D01*
X72922625Y45212844D01*
X73168664Y45306060D01*
X73171211Y45307025D01*
X73183056Y45313604D01*
X73403587Y45436099D01*
X73405976Y45437426D01*
X73479110Y45493240D01*
X73617294Y45598698D01*
X73617298Y45598702D01*
X73619458Y45600350D01*
X73807185Y45792386D01*
X73909558Y45933031D01*
X73963621Y46007305D01*
X73963622Y46007307D01*
X73965225Y46009509D01*
X74014953Y46104025D01*
X74088998Y46244763D01*
X74089000Y46244768D01*
X74090265Y46247172D01*
X74179688Y46500397D01*
X74231620Y46763878D01*
X74244972Y47032095D01*
X74227415Y47216122D01*
X74219725Y47296719D01*
X74219724Y47296722D01*
X74219466Y47299431D01*
X74155636Y47560285D01*
X74054818Y47809192D01*
X73961786Y47968078D01*
X73920503Y48038585D01*
X73920501Y48038588D01*
X73919125Y48040938D01*
X73751399Y48250669D01*
X73749405Y48252531D01*
X73749402Y48252535D01*
X73557145Y48432131D01*
X73555154Y48433991D01*
X73334501Y48587064D01*
X73332067Y48588275D01*
X73332060Y48588279D01*
X73096509Y48705463D01*
X73096505Y48705465D01*
X73094062Y48706680D01*
X72838874Y48790335D01*
X72836190Y48790801D01*
X72836186Y48790802D01*
X72576548Y48835883D01*
X72576544Y48835883D01*
X72574283Y48836276D01*
X72489433Y48840500D01*
X72321777Y48840500D01*
X72122154Y48826016D01*
X71859920Y48768120D01*
X71857378Y48767157D01*
X71857375Y48767156D01*
X71611336Y48673940D01*
X71608789Y48672975D01*
X71606407Y48671652D01*
X71606405Y48671651D01*
X71408968Y48561984D01*
X71374024Y48542574D01*
X71371855Y48540919D01*
X71371854Y48540918D01*
X71162706Y48381302D01*
X71162702Y48381298D01*
X71160542Y48379650D01*
X70972815Y48187614D01*
X70971210Y48185409D01*
X70867603Y48043068D01*
X70814775Y47970491D01*
X70813508Y47968083D01*
X70813505Y47968078D01*
X70728587Y47806674D01*
X70689735Y47732828D01*
X70600312Y47479603D01*
X70548380Y47216122D01*
X70535028Y46947905D01*
X5660781Y46947905D01*
X5664972Y47032095D01*
X5647415Y47216122D01*
X5639725Y47296719D01*
X5639724Y47296722D01*
X5639466Y47299431D01*
X5575636Y47560285D01*
X5474818Y47809192D01*
X5381786Y47968078D01*
X5340503Y48038585D01*
X5340501Y48038588D01*
X5339125Y48040938D01*
X5171399Y48250669D01*
X5169405Y48252531D01*
X5169402Y48252535D01*
X4977145Y48432131D01*
X4975154Y48433991D01*
X4754501Y48587064D01*
X4752067Y48588275D01*
X4752060Y48588279D01*
X4516509Y48705463D01*
X4516505Y48705465D01*
X4514062Y48706680D01*
X4258874Y48790335D01*
X4256190Y48790801D01*
X4256186Y48790802D01*
X3996548Y48835883D01*
X3996544Y48835883D01*
X3994283Y48836276D01*
X3909433Y48840500D01*
X3741777Y48840500D01*
X3542154Y48826016D01*
X3279920Y48768120D01*
X3277378Y48767157D01*
X3277375Y48767156D01*
X3031336Y48673940D01*
X3028789Y48672975D01*
X3026407Y48671652D01*
X3026405Y48671651D01*
X2828968Y48561984D01*
X2794024Y48542574D01*
X2791855Y48540919D01*
X2791854Y48540918D01*
X2582706Y48381302D01*
X2582702Y48381298D01*
X2580542Y48379650D01*
X2392815Y48187614D01*
X2391210Y48185409D01*
X2287603Y48043068D01*
X2234775Y47970491D01*
X2233508Y47968083D01*
X2233505Y47968078D01*
X2148587Y47806674D01*
X2109735Y47732828D01*
X2020312Y47479603D01*
X1968380Y47216122D01*
X1955028Y46947905D01*
X152900Y46947905D01*
X152900Y48229968D01*
X155462Y48249431D01*
X155732Y48250438D01*
X158294Y48260000D01*
X155731Y48269563D01*
X155731Y48277737D01*
X154631Y48288622D01*
X170031Y48543197D01*
X171126Y48552211D01*
X221445Y48826794D01*
X223618Y48835611D01*
X306669Y49102133D01*
X309889Y49110624D01*
X327976Y49150810D01*
X424462Y49365194D01*
X428680Y49373232D01*
X463146Y49430246D01*
X573109Y49612146D01*
X578258Y49619605D01*
X750426Y49839361D01*
X756448Y49846158D01*
X953842Y50043552D01*
X960639Y50049574D01*
X1180395Y50221742D01*
X1187854Y50226891D01*
X1426770Y50371321D01*
X1434806Y50375538D01*
X1689382Y50490113D01*
X1697862Y50493329D01*
X1844620Y50539061D01*
X1964389Y50576382D01*
X1973206Y50578555D01*
X2247789Y50628874D01*
X2256803Y50629969D01*
X2511378Y50645369D01*
X2522263Y50644269D01*
X2530437Y50644269D01*
X2540000Y50641706D01*
X2549562Y50644268D01*
X2550569Y50644538D01*
X2570032Y50647100D01*
X73629968Y50647100D01*
X73649431Y50644538D01*
G37*
%TD.AperFunction*%
%TD*%
M02*
