%TF.GenerationSoftware,KiCad,Pcbnew,6.0.7+dfsg-1+b1*%
%TF.CreationDate,2022-09-10T15:38:09+08:00*%
%TF.ProjectId,memw25q128,6d656d77-3235-4713-9132-382e6b696361,a*%
%TF.SameCoordinates,PX678e028PY74e0a78*%
%TF.FileFunction,Soldermask,Top*%
%TF.FilePolarity,Negative*%
%FSLAX46Y46*%
G04 Gerber Fmt 4.6, Leading zero omitted, Abs format (unit mm)*
G04 Created by KiCad (PCBNEW 6.0.7+dfsg-1+b1) date 2022-09-10 15:38:09*
%MOMM*%
%LPD*%
G01*
G04 APERTURE LIST*
G04 Aperture macros list*
%AMRoundRect*
0 Rectangle with rounded corners*
0 $1 Rounding radius*
0 $2 $3 $4 $5 $6 $7 $8 $9 X,Y pos of 4 corners*
0 Add a 4 corners polygon primitive as box body*
4,1,4,$2,$3,$4,$5,$6,$7,$8,$9,$2,$3,0*
0 Add four circle primitives for the rounded corners*
1,1,$1+$1,$2,$3*
1,1,$1+$1,$4,$5*
1,1,$1+$1,$6,$7*
1,1,$1+$1,$8,$9*
0 Add four rect primitives between the rounded corners*
20,1,$1+$1,$2,$3,$4,$5,0*
20,1,$1+$1,$4,$5,$6,$7,0*
20,1,$1+$1,$6,$7,$8,$9,0*
20,1,$1+$1,$8,$9,$2,$3,0*%
%AMFreePoly0*
4,1,22,0.500000,-0.750000,0.000000,-0.750000,0.000000,-0.745033,-0.079941,-0.743568,-0.215256,-0.701293,-0.333266,-0.622738,-0.424486,-0.514219,-0.481581,-0.384460,-0.499164,-0.250000,-0.500000,-0.250000,-0.500000,0.250000,-0.499164,0.250000,-0.499963,0.256109,-0.478152,0.396186,-0.417904,0.524511,-0.324060,0.630769,-0.204165,0.706417,-0.067858,0.745374,0.000000,0.744959,0.000000,0.750000,
0.500000,0.750000,0.500000,-0.750000,0.500000,-0.750000,$1*%
%AMFreePoly1*
4,1,20,0.000000,0.744959,0.073905,0.744508,0.209726,0.703889,0.328688,0.626782,0.421226,0.519385,0.479903,0.390333,0.500000,0.250000,0.500000,-0.250000,0.499851,-0.262216,0.476331,-0.402017,0.414519,-0.529596,0.319384,-0.634700,0.198574,-0.708877,0.061801,-0.746166,0.000000,-0.745033,0.000000,-0.750000,-0.500000,-0.750000,-0.500000,0.750000,0.000000,0.750000,0.000000,0.744959,
0.000000,0.744959,$1*%
G04 Aperture macros list end*
%ADD10C,3.200000*%
%ADD11R,1.700000X1.700000*%
%ADD12C,1.700000*%
%ADD13RoundRect,0.150000X-0.650000X-0.150000X0.650000X-0.150000X0.650000X0.150000X-0.650000X0.150000X0*%
%ADD14RoundRect,0.225000X0.225000X0.250000X-0.225000X0.250000X-0.225000X-0.250000X0.225000X-0.250000X0*%
%ADD15FreePoly0,0.000000*%
%ADD16FreePoly1,0.000000*%
G04 APERTURE END LIST*
D10*
%TO.C,J1*%
X3810000Y3810000D03*
X3810000Y46990000D03*
X72390000Y3810000D03*
X72390000Y46990000D03*
D11*
X13970000Y5080000D03*
D12*
X13970000Y7620000D03*
X16510000Y5080000D03*
X16510000Y7620000D03*
X19050000Y5080000D03*
X19050000Y7620000D03*
X21590000Y5080000D03*
X21590000Y7620000D03*
X24130000Y5080000D03*
X24130000Y7620000D03*
X26670000Y5080000D03*
X26670000Y7620000D03*
X29210000Y5080000D03*
X29210000Y7620000D03*
X31750000Y5080000D03*
X31750000Y7620000D03*
X34290000Y5080000D03*
X34290000Y7620000D03*
X36830000Y5080000D03*
X36830000Y7620000D03*
X39370000Y5080000D03*
X39370000Y7620000D03*
X41910000Y5080000D03*
X41910000Y7620000D03*
X44450000Y5080000D03*
X44450000Y7620000D03*
X46990000Y5080000D03*
X46990000Y7620000D03*
X49530000Y5080000D03*
X49530000Y7620000D03*
X52070000Y5080000D03*
X52070000Y7620000D03*
X54610000Y5080000D03*
X54610000Y7620000D03*
X57150000Y5080000D03*
X57150000Y7620000D03*
X59690000Y5080000D03*
X59690000Y7620000D03*
X62230000Y5080000D03*
X62230000Y7620000D03*
D11*
X62230000Y45720000D03*
D12*
X62230000Y43180000D03*
X59690000Y45720000D03*
X59690000Y43180000D03*
X57150000Y45720000D03*
X57150000Y43180000D03*
X54610000Y45720000D03*
X54610000Y43180000D03*
X52070000Y45720000D03*
X52070000Y43180000D03*
X49530000Y45720000D03*
X49530000Y43180000D03*
X46990000Y45720000D03*
X46990000Y43180000D03*
X44450000Y45720000D03*
X44450000Y43180000D03*
X41910000Y45720000D03*
X41910000Y43180000D03*
X39370000Y45720000D03*
X39370000Y43180000D03*
X36830000Y45720000D03*
X36830000Y43180000D03*
X34290000Y45720000D03*
X34290000Y43180000D03*
X31750000Y45720000D03*
X31750000Y43180000D03*
X29210000Y45720000D03*
X29210000Y43180000D03*
X26670000Y45720000D03*
X26670000Y43180000D03*
X24130000Y45720000D03*
X24130000Y43180000D03*
X21590000Y45720000D03*
X21590000Y43180000D03*
X19050000Y45720000D03*
X19050000Y43180000D03*
X16510000Y45720000D03*
X16510000Y43180000D03*
X13970000Y45720000D03*
X13970000Y43180000D03*
%TD*%
D13*
%TO.C,U1*%
X55455000Y28575000D03*
X55455000Y27305000D03*
X55455000Y26035000D03*
X55455000Y24765000D03*
X62655000Y24765000D03*
X62655000Y26035000D03*
X62655000Y27305000D03*
X62655000Y28575000D03*
%TD*%
D14*
%TO.C,C1*%
X63005000Y30480000D03*
X61455000Y30480000D03*
%TD*%
D15*
%TO.C,JP2*%
X13955000Y29210000D03*
D16*
X15255000Y29210000D03*
%TD*%
D15*
%TO.C,JP3*%
X13955000Y25400000D03*
D16*
X15255000Y25400000D03*
%TD*%
D15*
%TO.C,JP4*%
X21575000Y33020000D03*
D16*
X22875000Y33020000D03*
%TD*%
D15*
%TO.C,JP5*%
X21575000Y29210000D03*
D16*
X22875000Y29210000D03*
%TD*%
D15*
%TO.C,JP6*%
X21575000Y25400000D03*
D16*
X22875000Y25400000D03*
%TD*%
D15*
%TO.C,JP1*%
X13955000Y33020000D03*
D16*
X15255000Y33020000D03*
%TD*%
D15*
%TO.C,JP7*%
X29195000Y33020000D03*
D16*
X30495000Y33020000D03*
%TD*%
D15*
%TO.C,JP9*%
X29195000Y25400000D03*
D16*
X30495000Y25400000D03*
%TD*%
D15*
%TO.C,JP8*%
X29195000Y29210000D03*
D16*
X30495000Y29210000D03*
%TD*%
D15*
%TO.C,JP12*%
X36815000Y25400000D03*
D16*
X38115000Y25400000D03*
%TD*%
D15*
%TO.C,JP11*%
X36815000Y29210000D03*
D16*
X38115000Y29210000D03*
%TD*%
D15*
%TO.C,JP10*%
X36815000Y33020000D03*
D16*
X38115000Y33020000D03*
%TD*%
M02*
