%TF.GenerationSoftware,KiCad,Pcbnew,6.0.7+dfsg-1+b1*%
%TF.CreationDate,2022-09-10T15:38:09+08:00*%
%TF.ProjectId,memw25q128,6d656d77-3235-4713-9132-382e6b696361,a*%
%TF.SameCoordinates,PX678e028PY74e0a78*%
%TF.FileFunction,Soldermask,Bot*%
%TF.FilePolarity,Negative*%
%FSLAX46Y46*%
G04 Gerber Fmt 4.6, Leading zero omitted, Abs format (unit mm)*
G04 Created by KiCad (PCBNEW 6.0.7+dfsg-1+b1) date 2022-09-10 15:38:09*
%MOMM*%
%LPD*%
G01*
G04 APERTURE LIST*
%ADD10C,3.200000*%
%ADD11R,1.700000X1.700000*%
%ADD12C,1.700000*%
G04 APERTURE END LIST*
D10*
%TO.C,J1*%
X3810000Y3810000D03*
X3810000Y46990000D03*
X72390000Y3810000D03*
X72390000Y46990000D03*
D11*
X13970000Y5080000D03*
D12*
X13970000Y7620000D03*
X16510000Y5080000D03*
X16510000Y7620000D03*
X19050000Y5080000D03*
X19050000Y7620000D03*
X21590000Y5080000D03*
X21590000Y7620000D03*
X24130000Y5080000D03*
X24130000Y7620000D03*
X26670000Y5080000D03*
X26670000Y7620000D03*
X29210000Y5080000D03*
X29210000Y7620000D03*
X31750000Y5080000D03*
X31750000Y7620000D03*
X34290000Y5080000D03*
X34290000Y7620000D03*
X36830000Y5080000D03*
X36830000Y7620000D03*
X39370000Y5080000D03*
X39370000Y7620000D03*
X41910000Y5080000D03*
X41910000Y7620000D03*
X44450000Y5080000D03*
X44450000Y7620000D03*
X46990000Y5080000D03*
X46990000Y7620000D03*
X49530000Y5080000D03*
X49530000Y7620000D03*
X52070000Y5080000D03*
X52070000Y7620000D03*
X54610000Y5080000D03*
X54610000Y7620000D03*
X57150000Y5080000D03*
X57150000Y7620000D03*
X59690000Y5080000D03*
X59690000Y7620000D03*
X62230000Y5080000D03*
X62230000Y7620000D03*
D11*
X62230000Y45720000D03*
D12*
X62230000Y43180000D03*
X59690000Y45720000D03*
X59690000Y43180000D03*
X57150000Y45720000D03*
X57150000Y43180000D03*
X54610000Y45720000D03*
X54610000Y43180000D03*
X52070000Y45720000D03*
X52070000Y43180000D03*
X49530000Y45720000D03*
X49530000Y43180000D03*
X46990000Y45720000D03*
X46990000Y43180000D03*
X44450000Y45720000D03*
X44450000Y43180000D03*
X41910000Y45720000D03*
X41910000Y43180000D03*
X39370000Y45720000D03*
X39370000Y43180000D03*
X36830000Y45720000D03*
X36830000Y43180000D03*
X34290000Y45720000D03*
X34290000Y43180000D03*
X31750000Y45720000D03*
X31750000Y43180000D03*
X29210000Y45720000D03*
X29210000Y43180000D03*
X26670000Y45720000D03*
X26670000Y43180000D03*
X24130000Y45720000D03*
X24130000Y43180000D03*
X21590000Y45720000D03*
X21590000Y43180000D03*
X19050000Y45720000D03*
X19050000Y43180000D03*
X16510000Y45720000D03*
X16510000Y43180000D03*
X13970000Y45720000D03*
X13970000Y43180000D03*
%TD*%
M02*
