%TF.GenerationSoftware,KiCad,Pcbnew,6.0.7+dfsg-1+b1*%
%TF.CreationDate,2022-09-10T15:38:09+08:00*%
%TF.ProjectId,memw25q128,6d656d77-3235-4713-9132-382e6b696361,a*%
%TF.SameCoordinates,PX678e028PY74e0a78*%
%TF.FileFunction,Legend,Top*%
%TF.FilePolarity,Positive*%
%FSLAX46Y46*%
G04 Gerber Fmt 4.6, Leading zero omitted, Abs format (unit mm)*
G04 Created by KiCad (PCBNEW 6.0.7+dfsg-1+b1) date 2022-09-10 15:38:09*
%MOMM*%
%LPD*%
G01*
G04 APERTURE LIST*
%ADD10C,0.120000*%
%ADD11C,0.150000*%
G04 APERTURE END LIST*
D10*
X4445000Y23495000D02*
X12065000Y23495000D01*
X12065000Y31115000D02*
X4445000Y31115000D01*
X4445000Y34925000D02*
X4445000Y23495000D01*
X12065000Y27305000D02*
X4445000Y27305000D01*
X43815000Y23495000D02*
X12065000Y23495000D01*
X43815000Y27305000D02*
X12065000Y27305000D01*
X12065000Y31115000D02*
X43815000Y31115000D01*
X12065000Y34925000D02*
X43815000Y34925000D01*
X43815000Y34925000D02*
X43815000Y23495000D01*
X12065000Y34925000D02*
X4445000Y34925000D01*
D11*
X16845595Y28757620D02*
X16845595Y29757620D01*
X17226547Y29757620D01*
X17321785Y29710000D01*
X17369404Y29662381D01*
X17417023Y29567143D01*
X17417023Y29424286D01*
X17369404Y29329048D01*
X17321785Y29281429D01*
X17226547Y29233810D01*
X16845595Y29233810D01*
X17797976Y29043334D02*
X18274166Y29043334D01*
X17702738Y28757620D02*
X18036071Y29757620D01*
X18369404Y28757620D01*
X19226547Y28757620D02*
X18655119Y28757620D01*
X18940833Y28757620D02*
X18940833Y29757620D01*
X18845595Y29614762D01*
X18750357Y29519524D01*
X18655119Y29471905D01*
X20131309Y29757620D02*
X19655119Y29757620D01*
X19607500Y29281429D01*
X19655119Y29329048D01*
X19750357Y29376667D01*
X19988452Y29376667D01*
X20083690Y29329048D01*
X20131309Y29281429D01*
X20178928Y29186191D01*
X20178928Y28948096D01*
X20131309Y28852858D01*
X20083690Y28805239D01*
X19988452Y28757620D01*
X19750357Y28757620D01*
X19655119Y28805239D01*
X19607500Y28852858D01*
X16845595Y24947620D02*
X16845595Y25947620D01*
X17226547Y25947620D01*
X17321785Y25900000D01*
X17369404Y25852381D01*
X17417023Y25757143D01*
X17417023Y25614286D01*
X17369404Y25519048D01*
X17321785Y25471429D01*
X17226547Y25423810D01*
X16845595Y25423810D01*
X18178928Y25471429D02*
X18321785Y25423810D01*
X18369404Y25376191D01*
X18417023Y25280953D01*
X18417023Y25138096D01*
X18369404Y25042858D01*
X18321785Y24995239D01*
X18226547Y24947620D01*
X17845595Y24947620D01*
X17845595Y25947620D01*
X18178928Y25947620D01*
X18274166Y25900000D01*
X18321785Y25852381D01*
X18369404Y25757143D01*
X18369404Y25661905D01*
X18321785Y25566667D01*
X18274166Y25519048D01*
X18178928Y25471429D01*
X17845595Y25471429D01*
X19369404Y24947620D02*
X18797976Y24947620D01*
X19083690Y24947620D02*
X19083690Y25947620D01*
X18988452Y25804762D01*
X18893214Y25709524D01*
X18797976Y25661905D01*
X19750357Y25852381D02*
X19797976Y25900000D01*
X19893214Y25947620D01*
X20131309Y25947620D01*
X20226547Y25900000D01*
X20274166Y25852381D01*
X20321785Y25757143D01*
X20321785Y25661905D01*
X20274166Y25519048D01*
X19702738Y24947620D01*
X20321785Y24947620D01*
X24465595Y32567620D02*
X24465595Y33567620D01*
X24846547Y33567620D01*
X24941785Y33520000D01*
X24989404Y33472381D01*
X25037023Y33377143D01*
X25037023Y33234286D01*
X24989404Y33139048D01*
X24941785Y33091429D01*
X24846547Y33043810D01*
X24465595Y33043810D01*
X25417976Y32853334D02*
X25894166Y32853334D01*
X25322738Y32567620D02*
X25656071Y33567620D01*
X25989404Y32567620D01*
X26798928Y33567620D02*
X26322738Y33567620D01*
X26275119Y33091429D01*
X26322738Y33139048D01*
X26417976Y33186667D01*
X26656071Y33186667D01*
X26751309Y33139048D01*
X26798928Y33091429D01*
X26846547Y32996191D01*
X26846547Y32758096D01*
X26798928Y32662858D01*
X26751309Y32615239D01*
X26656071Y32567620D01*
X26417976Y32567620D01*
X26322738Y32615239D01*
X26275119Y32662858D01*
X24465595Y28757620D02*
X24465595Y29757620D01*
X24846547Y29757620D01*
X24941785Y29710000D01*
X24989404Y29662381D01*
X25037023Y29567143D01*
X25037023Y29424286D01*
X24989404Y29329048D01*
X24941785Y29281429D01*
X24846547Y29233810D01*
X24465595Y29233810D01*
X25798928Y29281429D02*
X25941785Y29233810D01*
X25989404Y29186191D01*
X26037023Y29090953D01*
X26037023Y28948096D01*
X25989404Y28852858D01*
X25941785Y28805239D01*
X25846547Y28757620D01*
X25465595Y28757620D01*
X25465595Y29757620D01*
X25798928Y29757620D01*
X25894166Y29710000D01*
X25941785Y29662381D01*
X25989404Y29567143D01*
X25989404Y29471905D01*
X25941785Y29376667D01*
X25894166Y29329048D01*
X25798928Y29281429D01*
X25465595Y29281429D01*
X26370357Y29757620D02*
X26989404Y29757620D01*
X26656071Y29376667D01*
X26798928Y29376667D01*
X26894166Y29329048D01*
X26941785Y29281429D01*
X26989404Y29186191D01*
X26989404Y28948096D01*
X26941785Y28852858D01*
X26894166Y28805239D01*
X26798928Y28757620D01*
X26513214Y28757620D01*
X26417976Y28805239D01*
X26370357Y28852858D01*
X24465595Y24947620D02*
X24465595Y25947620D01*
X24846547Y25947620D01*
X24941785Y25900000D01*
X24989404Y25852381D01*
X25037023Y25757143D01*
X25037023Y25614286D01*
X24989404Y25519048D01*
X24941785Y25471429D01*
X24846547Y25423810D01*
X24465595Y25423810D01*
X25798928Y25471429D02*
X25941785Y25423810D01*
X25989404Y25376191D01*
X26037023Y25280953D01*
X26037023Y25138096D01*
X25989404Y25042858D01*
X25941785Y24995239D01*
X25846547Y24947620D01*
X25465595Y24947620D01*
X25465595Y25947620D01*
X25798928Y25947620D01*
X25894166Y25900000D01*
X25941785Y25852381D01*
X25989404Y25757143D01*
X25989404Y25661905D01*
X25941785Y25566667D01*
X25894166Y25519048D01*
X25798928Y25471429D01*
X25465595Y25471429D01*
X26989404Y24947620D02*
X26417976Y24947620D01*
X26703690Y24947620D02*
X26703690Y25947620D01*
X26608452Y25804762D01*
X26513214Y25709524D01*
X26417976Y25661905D01*
X27322738Y25947620D02*
X27941785Y25947620D01*
X27608452Y25566667D01*
X27751309Y25566667D01*
X27846547Y25519048D01*
X27894166Y25471429D01*
X27941785Y25376191D01*
X27941785Y25138096D01*
X27894166Y25042858D01*
X27846547Y24995239D01*
X27751309Y24947620D01*
X27465595Y24947620D01*
X27370357Y24995239D01*
X27322738Y25042858D01*
X32085595Y24947620D02*
X32085595Y25947620D01*
X32466547Y25947620D01*
X32561785Y25900000D01*
X32609404Y25852381D01*
X32657023Y25757143D01*
X32657023Y25614286D01*
X32609404Y25519048D01*
X32561785Y25471429D01*
X32466547Y25423810D01*
X32085595Y25423810D01*
X33418928Y25471429D02*
X33561785Y25423810D01*
X33609404Y25376191D01*
X33657023Y25280953D01*
X33657023Y25138096D01*
X33609404Y25042858D01*
X33561785Y24995239D01*
X33466547Y24947620D01*
X33085595Y24947620D01*
X33085595Y25947620D01*
X33418928Y25947620D01*
X33514166Y25900000D01*
X33561785Y25852381D01*
X33609404Y25757143D01*
X33609404Y25661905D01*
X33561785Y25566667D01*
X33514166Y25519048D01*
X33418928Y25471429D01*
X33085595Y25471429D01*
X34609404Y24947620D02*
X34037976Y24947620D01*
X34323690Y24947620D02*
X34323690Y25947620D01*
X34228452Y25804762D01*
X34133214Y25709524D01*
X34037976Y25661905D01*
X35466547Y25614286D02*
X35466547Y24947620D01*
X35228452Y25995239D02*
X34990357Y25280953D01*
X35609404Y25280953D01*
X32085595Y28757620D02*
X32085595Y29757620D01*
X32466547Y29757620D01*
X32561785Y29710000D01*
X32609404Y29662381D01*
X32657023Y29567143D01*
X32657023Y29424286D01*
X32609404Y29329048D01*
X32561785Y29281429D01*
X32466547Y29233810D01*
X32085595Y29233810D01*
X33418928Y29281429D02*
X33561785Y29233810D01*
X33609404Y29186191D01*
X33657023Y29090953D01*
X33657023Y28948096D01*
X33609404Y28852858D01*
X33561785Y28805239D01*
X33466547Y28757620D01*
X33085595Y28757620D01*
X33085595Y29757620D01*
X33418928Y29757620D01*
X33514166Y29710000D01*
X33561785Y29662381D01*
X33609404Y29567143D01*
X33609404Y29471905D01*
X33561785Y29376667D01*
X33514166Y29329048D01*
X33418928Y29281429D01*
X33085595Y29281429D01*
X34514166Y29424286D02*
X34514166Y28757620D01*
X34276071Y29805239D02*
X34037976Y29090953D01*
X34657023Y29090953D01*
X32085595Y32567620D02*
X32085595Y33567620D01*
X32466547Y33567620D01*
X32561785Y33520000D01*
X32609404Y33472381D01*
X32657023Y33377143D01*
X32657023Y33234286D01*
X32609404Y33139048D01*
X32561785Y33091429D01*
X32466547Y33043810D01*
X32085595Y33043810D01*
X33037976Y32853334D02*
X33514166Y32853334D01*
X32942738Y32567620D02*
X33276071Y33567620D01*
X33609404Y32567620D01*
X34371309Y33567620D02*
X34180833Y33567620D01*
X34085595Y33520000D01*
X34037976Y33472381D01*
X33942738Y33329524D01*
X33895119Y33139048D01*
X33895119Y32758096D01*
X33942738Y32662858D01*
X33990357Y32615239D01*
X34085595Y32567620D01*
X34276071Y32567620D01*
X34371309Y32615239D01*
X34418928Y32662858D01*
X34466547Y32758096D01*
X34466547Y32996191D01*
X34418928Y33091429D01*
X34371309Y33139048D01*
X34276071Y33186667D01*
X34085595Y33186667D01*
X33990357Y33139048D01*
X33942738Y33091429D01*
X33895119Y32996191D01*
X39705595Y32567620D02*
X39705595Y33567620D01*
X40086547Y33567620D01*
X40181785Y33520000D01*
X40229404Y33472381D01*
X40277023Y33377143D01*
X40277023Y33234286D01*
X40229404Y33139048D01*
X40181785Y33091429D01*
X40086547Y33043810D01*
X39705595Y33043810D01*
X40657976Y32853334D02*
X41134166Y32853334D01*
X40562738Y32567620D02*
X40896071Y33567620D01*
X41229404Y32567620D01*
X41467500Y33567620D02*
X42134166Y33567620D01*
X41705595Y32567620D01*
X39705595Y28757620D02*
X39705595Y29757620D01*
X40086547Y29757620D01*
X40181785Y29710000D01*
X40229404Y29662381D01*
X40277023Y29567143D01*
X40277023Y29424286D01*
X40229404Y29329048D01*
X40181785Y29281429D01*
X40086547Y29233810D01*
X39705595Y29233810D01*
X41038928Y29281429D02*
X41181785Y29233810D01*
X41229404Y29186191D01*
X41277023Y29090953D01*
X41277023Y28948096D01*
X41229404Y28852858D01*
X41181785Y28805239D01*
X41086547Y28757620D01*
X40705595Y28757620D01*
X40705595Y29757620D01*
X41038928Y29757620D01*
X41134166Y29710000D01*
X41181785Y29662381D01*
X41229404Y29567143D01*
X41229404Y29471905D01*
X41181785Y29376667D01*
X41134166Y29329048D01*
X41038928Y29281429D01*
X40705595Y29281429D01*
X42181785Y29757620D02*
X41705595Y29757620D01*
X41657976Y29281429D01*
X41705595Y29329048D01*
X41800833Y29376667D01*
X42038928Y29376667D01*
X42134166Y29329048D01*
X42181785Y29281429D01*
X42229404Y29186191D01*
X42229404Y28948096D01*
X42181785Y28852858D01*
X42134166Y28805239D01*
X42038928Y28757620D01*
X41800833Y28757620D01*
X41705595Y28805239D01*
X41657976Y28852858D01*
X39705595Y24947620D02*
X39705595Y25947620D01*
X40086547Y25947620D01*
X40181785Y25900000D01*
X40229404Y25852381D01*
X40277023Y25757143D01*
X40277023Y25614286D01*
X40229404Y25519048D01*
X40181785Y25471429D01*
X40086547Y25423810D01*
X39705595Y25423810D01*
X41038928Y25471429D02*
X41181785Y25423810D01*
X41229404Y25376191D01*
X41277023Y25280953D01*
X41277023Y25138096D01*
X41229404Y25042858D01*
X41181785Y24995239D01*
X41086547Y24947620D01*
X40705595Y24947620D01*
X40705595Y25947620D01*
X41038928Y25947620D01*
X41134166Y25900000D01*
X41181785Y25852381D01*
X41229404Y25757143D01*
X41229404Y25661905D01*
X41181785Y25566667D01*
X41134166Y25519048D01*
X41038928Y25471429D01*
X40705595Y25471429D01*
X42229404Y24947620D02*
X41657976Y24947620D01*
X41943690Y24947620D02*
X41943690Y25947620D01*
X41848452Y25804762D01*
X41753214Y25709524D01*
X41657976Y25661905D01*
X43086547Y25947620D02*
X42896071Y25947620D01*
X42800833Y25900000D01*
X42753214Y25852381D01*
X42657976Y25709524D01*
X42610357Y25519048D01*
X42610357Y25138096D01*
X42657976Y25042858D01*
X42705595Y24995239D01*
X42800833Y24947620D01*
X42991309Y24947620D01*
X43086547Y24995239D01*
X43134166Y25042858D01*
X43181785Y25138096D01*
X43181785Y25376191D01*
X43134166Y25471429D01*
X43086547Y25519048D01*
X42991309Y25566667D01*
X42800833Y25566667D01*
X42705595Y25519048D01*
X42657976Y25471429D01*
X42610357Y25376191D01*
X14438333Y35202858D02*
X14390714Y35155239D01*
X14247857Y35107620D01*
X14152619Y35107620D01*
X14009761Y35155239D01*
X13914523Y35250477D01*
X13866904Y35345715D01*
X13819285Y35536191D01*
X13819285Y35679048D01*
X13866904Y35869524D01*
X13914523Y35964762D01*
X14009761Y36060000D01*
X14152619Y36107620D01*
X14247857Y36107620D01*
X14390714Y36060000D01*
X14438333Y36012381D01*
X14819285Y35155239D02*
X14962142Y35107620D01*
X15200238Y35107620D01*
X15295476Y35155239D01*
X15343095Y35202858D01*
X15390714Y35298096D01*
X15390714Y35393334D01*
X15343095Y35488572D01*
X15295476Y35536191D01*
X15200238Y35583810D01*
X15009761Y35631429D01*
X14914523Y35679048D01*
X14866904Y35726667D01*
X14819285Y35821905D01*
X14819285Y35917143D01*
X14866904Y36012381D01*
X14914523Y36060000D01*
X15009761Y36107620D01*
X15247857Y36107620D01*
X15390714Y36060000D01*
X21629761Y35202858D02*
X21582142Y35155239D01*
X21439285Y35107620D01*
X21344047Y35107620D01*
X21201190Y35155239D01*
X21105952Y35250477D01*
X21058333Y35345715D01*
X21010714Y35536191D01*
X21010714Y35679048D01*
X21058333Y35869524D01*
X21105952Y35964762D01*
X21201190Y36060000D01*
X21344047Y36107620D01*
X21439285Y36107620D01*
X21582142Y36060000D01*
X21629761Y36012381D01*
X22534523Y35107620D02*
X22058333Y35107620D01*
X22058333Y36107620D01*
X22867857Y35107620D02*
X22867857Y36107620D01*
X23439285Y35107620D02*
X23010714Y35679048D01*
X23439285Y36107620D02*
X22867857Y35536191D01*
X28273571Y35107620D02*
X28273571Y36107620D01*
X28606904Y35393334D01*
X28940238Y36107620D01*
X28940238Y35107620D01*
X29416428Y35107620D02*
X29416428Y36107620D01*
X29845000Y35155239D02*
X29987857Y35107620D01*
X30225952Y35107620D01*
X30321190Y35155239D01*
X30368809Y35202858D01*
X30416428Y35298096D01*
X30416428Y35393334D01*
X30368809Y35488572D01*
X30321190Y35536191D01*
X30225952Y35583810D01*
X30035476Y35631429D01*
X29940238Y35679048D01*
X29892619Y35726667D01*
X29845000Y35821905D01*
X29845000Y35917143D01*
X29892619Y36012381D01*
X29940238Y36060000D01*
X30035476Y36107620D01*
X30273571Y36107620D01*
X30416428Y36060000D01*
X31035476Y36107620D02*
X31225952Y36107620D01*
X31321190Y36060000D01*
X31416428Y35964762D01*
X31464047Y35774286D01*
X31464047Y35440953D01*
X31416428Y35250477D01*
X31321190Y35155239D01*
X31225952Y35107620D01*
X31035476Y35107620D01*
X30940238Y35155239D01*
X30845000Y35250477D01*
X30797380Y35440953D01*
X30797380Y35774286D01*
X30845000Y35964762D01*
X30940238Y36060000D01*
X31035476Y36107620D01*
X35893571Y35107620D02*
X35893571Y36107620D01*
X36226904Y35393334D01*
X36560238Y36107620D01*
X36560238Y35107620D01*
X37226904Y36107620D02*
X37417380Y36107620D01*
X37512619Y36060000D01*
X37607857Y35964762D01*
X37655476Y35774286D01*
X37655476Y35440953D01*
X37607857Y35250477D01*
X37512619Y35155239D01*
X37417380Y35107620D01*
X37226904Y35107620D01*
X37131666Y35155239D01*
X37036428Y35250477D01*
X36988809Y35440953D01*
X36988809Y35774286D01*
X37036428Y35964762D01*
X37131666Y36060000D01*
X37226904Y36107620D01*
X38036428Y35155239D02*
X38179285Y35107620D01*
X38417380Y35107620D01*
X38512619Y35155239D01*
X38560238Y35202858D01*
X38607857Y35298096D01*
X38607857Y35393334D01*
X38560238Y35488572D01*
X38512619Y35536191D01*
X38417380Y35583810D01*
X38226904Y35631429D01*
X38131666Y35679048D01*
X38084047Y35726667D01*
X38036428Y35821905D01*
X38036428Y35917143D01*
X38084047Y36012381D01*
X38131666Y36060000D01*
X38226904Y36107620D01*
X38465000Y36107620D01*
X38607857Y36060000D01*
X39036428Y35107620D02*
X39036428Y36107620D01*
X8300833Y32615239D02*
X8443690Y32567620D01*
X8681785Y32567620D01*
X8777023Y32615239D01*
X8824642Y32662858D01*
X8872261Y32758096D01*
X8872261Y32853334D01*
X8824642Y32948572D01*
X8777023Y32996191D01*
X8681785Y33043810D01*
X8491309Y33091429D01*
X8396071Y33139048D01*
X8348452Y33186667D01*
X8300833Y33281905D01*
X8300833Y33377143D01*
X8348452Y33472381D01*
X8396071Y33520000D01*
X8491309Y33567620D01*
X8729404Y33567620D01*
X8872261Y33520000D01*
X9300833Y32567620D02*
X9300833Y33567620D01*
X9681785Y33567620D01*
X9777023Y33520000D01*
X9824642Y33472381D01*
X9872261Y33377143D01*
X9872261Y33234286D01*
X9824642Y33139048D01*
X9777023Y33091429D01*
X9681785Y33043810D01*
X9300833Y33043810D01*
X10300833Y32567620D02*
X10300833Y33567620D01*
X11300833Y32567620D02*
X10729404Y32567620D01*
X11015119Y32567620D02*
X11015119Y33567620D01*
X10919880Y33424762D01*
X10824642Y33329524D01*
X10729404Y33281905D01*
X11729404Y32662858D02*
X11777023Y32615239D01*
X11729404Y32567620D01*
X11681785Y32615239D01*
X11729404Y32662858D01*
X11729404Y32567620D01*
X11729404Y33186667D02*
X11777023Y33139048D01*
X11729404Y33091429D01*
X11681785Y33139048D01*
X11729404Y33186667D01*
X11729404Y33091429D01*
X5110357Y28805239D02*
X5253214Y28757620D01*
X5491309Y28757620D01*
X5586547Y28805239D01*
X5634166Y28852858D01*
X5681785Y28948096D01*
X5681785Y29043334D01*
X5634166Y29138572D01*
X5586547Y29186191D01*
X5491309Y29233810D01*
X5300833Y29281429D01*
X5205595Y29329048D01*
X5157976Y29376667D01*
X5110357Y29471905D01*
X5110357Y29567143D01*
X5157976Y29662381D01*
X5205595Y29710000D01*
X5300833Y29757620D01*
X5538928Y29757620D01*
X5681785Y29710000D01*
X6110357Y28757620D02*
X6110357Y29757620D01*
X6491309Y29757620D01*
X6586547Y29710000D01*
X6634166Y29662381D01*
X6681785Y29567143D01*
X6681785Y29424286D01*
X6634166Y29329048D01*
X6586547Y29281429D01*
X6491309Y29233810D01*
X6110357Y29233810D01*
X7110357Y28757620D02*
X7110357Y29757620D01*
X8110357Y28757620D02*
X7538928Y28757620D01*
X7824642Y28757620D02*
X7824642Y29757620D01*
X7729404Y29614762D01*
X7634166Y29519524D01*
X7538928Y29471905D01*
X8300833Y28662381D02*
X9062738Y28662381D01*
X9253214Y29043334D02*
X9729404Y29043334D01*
X9157976Y28757620D02*
X9491309Y29757620D01*
X9824642Y28757620D01*
X10634166Y28757620D02*
X10157976Y28757620D01*
X10157976Y29757620D01*
X10824642Y29757620D02*
X11396071Y29757620D01*
X11110357Y28757620D02*
X11110357Y29757620D01*
X11729404Y28852858D02*
X11777023Y28805239D01*
X11729404Y28757620D01*
X11681785Y28805239D01*
X11729404Y28852858D01*
X11729404Y28757620D01*
X11729404Y29376667D02*
X11777023Y29329048D01*
X11729404Y29281429D01*
X11681785Y29329048D01*
X11729404Y29376667D01*
X11729404Y29281429D01*
X8300833Y24995239D02*
X8443690Y24947620D01*
X8681785Y24947620D01*
X8777023Y24995239D01*
X8824642Y25042858D01*
X8872261Y25138096D01*
X8872261Y25233334D01*
X8824642Y25328572D01*
X8777023Y25376191D01*
X8681785Y25423810D01*
X8491309Y25471429D01*
X8396071Y25519048D01*
X8348452Y25566667D01*
X8300833Y25661905D01*
X8300833Y25757143D01*
X8348452Y25852381D01*
X8396071Y25900000D01*
X8491309Y25947620D01*
X8729404Y25947620D01*
X8872261Y25900000D01*
X9300833Y24947620D02*
X9300833Y25947620D01*
X9681785Y25947620D01*
X9777023Y25900000D01*
X9824642Y25852381D01*
X9872261Y25757143D01*
X9872261Y25614286D01*
X9824642Y25519048D01*
X9777023Y25471429D01*
X9681785Y25423810D01*
X9300833Y25423810D01*
X10300833Y24947620D02*
X10300833Y25947620D01*
X10729404Y25852381D02*
X10777023Y25900000D01*
X10872261Y25947620D01*
X11110357Y25947620D01*
X11205595Y25900000D01*
X11253214Y25852381D01*
X11300833Y25757143D01*
X11300833Y25661905D01*
X11253214Y25519048D01*
X10681785Y24947620D01*
X11300833Y24947620D01*
X11729404Y25042858D02*
X11777023Y24995239D01*
X11729404Y24947620D01*
X11681785Y24995239D01*
X11729404Y25042858D01*
X11729404Y24947620D01*
X11729404Y25566667D02*
X11777023Y25519048D01*
X11729404Y25471429D01*
X11681785Y25519048D01*
X11729404Y25566667D01*
X11729404Y25471429D01*
X16845595Y32567620D02*
X16845595Y33567620D01*
X17226547Y33567620D01*
X17321785Y33520000D01*
X17369404Y33472381D01*
X17417023Y33377143D01*
X17417023Y33234286D01*
X17369404Y33139048D01*
X17321785Y33091429D01*
X17226547Y33043810D01*
X16845595Y33043810D01*
X17797976Y32853334D02*
X18274166Y32853334D01*
X17702738Y32567620D02*
X18036071Y33567620D01*
X18369404Y32567620D01*
X19131309Y33234286D02*
X19131309Y32567620D01*
X18893214Y33615239D02*
X18655119Y32900953D01*
X19274166Y32900953D01*
%TO.C,J1*%
X34651904Y906072D02*
X33851904Y906072D01*
X33851904Y1210834D01*
X33890000Y1287024D01*
X33928095Y1325120D01*
X34004285Y1363215D01*
X34118571Y1363215D01*
X34194761Y1325120D01*
X34232857Y1287024D01*
X34270952Y1210834D01*
X34270952Y906072D01*
X34575714Y2163215D02*
X34613809Y2125120D01*
X34651904Y2010834D01*
X34651904Y1934643D01*
X34613809Y1820358D01*
X34537619Y1744167D01*
X34461428Y1706072D01*
X34309047Y1667977D01*
X34194761Y1667977D01*
X34042380Y1706072D01*
X33966190Y1744167D01*
X33890000Y1820358D01*
X33851904Y1934643D01*
X33851904Y2010834D01*
X33890000Y2125120D01*
X33928095Y2163215D01*
X34118571Y2848929D02*
X34651904Y2848929D01*
X33813809Y2658453D02*
X34385238Y2467977D01*
X34385238Y2963215D01*
X34651904Y39006072D02*
X33851904Y39006072D01*
X33851904Y39310834D01*
X33890000Y39387024D01*
X33928095Y39425120D01*
X34004285Y39463215D01*
X34118571Y39463215D01*
X34194761Y39425120D01*
X34232857Y39387024D01*
X34270952Y39310834D01*
X34270952Y39006072D01*
X34232857Y40072739D02*
X34270952Y40187024D01*
X34309047Y40225120D01*
X34385238Y40263215D01*
X34499523Y40263215D01*
X34575714Y40225120D01*
X34613809Y40187024D01*
X34651904Y40110834D01*
X34651904Y39806072D01*
X33851904Y39806072D01*
X33851904Y40072739D01*
X33890000Y40148929D01*
X33928095Y40187024D01*
X34004285Y40225120D01*
X34080476Y40225120D01*
X34156666Y40187024D01*
X34194761Y40148929D01*
X34232857Y40072739D01*
X34232857Y39806072D01*
X33851904Y40529881D02*
X33851904Y41025120D01*
X34156666Y40758453D01*
X34156666Y40872739D01*
X34194761Y40948929D01*
X34232857Y40987024D01*
X34309047Y41025120D01*
X34499523Y41025120D01*
X34575714Y40987024D01*
X34613809Y40948929D01*
X34651904Y40872739D01*
X34651904Y40644167D01*
X34613809Y40567977D01*
X34575714Y40529881D01*
X27031904Y1020358D02*
X26231904Y1020358D01*
X26231904Y1325120D01*
X26270000Y1401310D01*
X26308095Y1439405D01*
X26384285Y1477500D01*
X26498571Y1477500D01*
X26574761Y1439405D01*
X26612857Y1401310D01*
X26650952Y1325120D01*
X26650952Y1020358D01*
X26803333Y1782262D02*
X26803333Y2163215D01*
X27031904Y1706072D02*
X26231904Y1972739D01*
X27031904Y2239405D01*
X26308095Y2467977D02*
X26270000Y2506072D01*
X26231904Y2582262D01*
X26231904Y2772739D01*
X26270000Y2848929D01*
X26308095Y2887024D01*
X26384285Y2925120D01*
X26460476Y2925120D01*
X26574761Y2887024D01*
X27031904Y2429881D01*
X27031904Y2925120D01*
X49891904Y9177977D02*
X49091904Y9177977D01*
X49091904Y9482739D01*
X49130000Y9558929D01*
X49168095Y9597024D01*
X49244285Y9635120D01*
X49358571Y9635120D01*
X49434761Y9597024D01*
X49472857Y9558929D01*
X49510952Y9482739D01*
X49510952Y9177977D01*
X49815714Y10435120D02*
X49853809Y10397024D01*
X49891904Y10282739D01*
X49891904Y10206548D01*
X49853809Y10092262D01*
X49777619Y10016072D01*
X49701428Y9977977D01*
X49549047Y9939881D01*
X49434761Y9939881D01*
X49282380Y9977977D01*
X49206190Y10016072D01*
X49130000Y10092262D01*
X49091904Y10206548D01*
X49091904Y10282739D01*
X49130000Y10397024D01*
X49168095Y10435120D01*
X49091904Y10701786D02*
X49091904Y11235120D01*
X49891904Y10892262D01*
X41471904Y47912977D02*
X42119523Y47912977D01*
X42195714Y47951072D01*
X42233809Y47989167D01*
X42271904Y48065358D01*
X42271904Y48217739D01*
X42233809Y48293929D01*
X42195714Y48332024D01*
X42119523Y48370120D01*
X41471904Y48370120D01*
X42271904Y49170120D02*
X42271904Y48712977D01*
X42271904Y48941548D02*
X41471904Y48941548D01*
X41586190Y48865358D01*
X41662380Y48789167D01*
X41700476Y48712977D01*
X42271904Y49932024D02*
X42271904Y49474881D01*
X42271904Y49703453D02*
X41471904Y49703453D01*
X41586190Y49627262D01*
X41662380Y49551072D01*
X41700476Y49474881D01*
X29571904Y39006072D02*
X28771904Y39006072D01*
X28771904Y39310834D01*
X28810000Y39387024D01*
X28848095Y39425120D01*
X28924285Y39463215D01*
X29038571Y39463215D01*
X29114761Y39425120D01*
X29152857Y39387024D01*
X29190952Y39310834D01*
X29190952Y39006072D01*
X29152857Y40072739D02*
X29190952Y40187024D01*
X29229047Y40225120D01*
X29305238Y40263215D01*
X29419523Y40263215D01*
X29495714Y40225120D01*
X29533809Y40187024D01*
X29571904Y40110834D01*
X29571904Y39806072D01*
X28771904Y39806072D01*
X28771904Y40072739D01*
X28810000Y40148929D01*
X28848095Y40187024D01*
X28924285Y40225120D01*
X29000476Y40225120D01*
X29076666Y40187024D01*
X29114761Y40148929D01*
X29152857Y40072739D01*
X29152857Y39806072D01*
X28771904Y40529881D02*
X28771904Y41063215D01*
X29571904Y40720358D01*
X24491904Y9177977D02*
X23691904Y9177977D01*
X23691904Y9482739D01*
X23730000Y9558929D01*
X23768095Y9597024D01*
X23844285Y9635120D01*
X23958571Y9635120D01*
X24034761Y9597024D01*
X24072857Y9558929D01*
X24110952Y9482739D01*
X24110952Y9177977D01*
X24263333Y9939881D02*
X24263333Y10320834D01*
X24491904Y9863691D02*
X23691904Y10130358D01*
X24491904Y10397024D01*
X24491904Y11082739D02*
X24491904Y10625596D01*
X24491904Y10854167D02*
X23691904Y10854167D01*
X23806190Y10777977D01*
X23882380Y10701786D01*
X23920476Y10625596D01*
X52431904Y906072D02*
X51631904Y906072D01*
X51631904Y1210834D01*
X51670000Y1287024D01*
X51708095Y1325120D01*
X51784285Y1363215D01*
X51898571Y1363215D01*
X51974761Y1325120D01*
X52012857Y1287024D01*
X52050952Y1210834D01*
X52050952Y906072D01*
X52355714Y2163215D02*
X52393809Y2125120D01*
X52431904Y2010834D01*
X52431904Y1934643D01*
X52393809Y1820358D01*
X52317619Y1744167D01*
X52241428Y1706072D01*
X52089047Y1667977D01*
X51974761Y1667977D01*
X51822380Y1706072D01*
X51746190Y1744167D01*
X51670000Y1820358D01*
X51631904Y1934643D01*
X51631904Y2010834D01*
X51670000Y2125120D01*
X51708095Y2163215D01*
X51974761Y2620358D02*
X51936666Y2544167D01*
X51898571Y2506072D01*
X51822380Y2467977D01*
X51784285Y2467977D01*
X51708095Y2506072D01*
X51670000Y2544167D01*
X51631904Y2620358D01*
X51631904Y2772739D01*
X51670000Y2848929D01*
X51708095Y2887024D01*
X51784285Y2925120D01*
X51822380Y2925120D01*
X51898571Y2887024D01*
X51936666Y2848929D01*
X51974761Y2772739D01*
X51974761Y2620358D01*
X52012857Y2544167D01*
X52050952Y2506072D01*
X52127142Y2467977D01*
X52279523Y2467977D01*
X52355714Y2506072D01*
X52393809Y2544167D01*
X52431904Y2620358D01*
X52431904Y2772739D01*
X52393809Y2848929D01*
X52355714Y2887024D01*
X52279523Y2925120D01*
X52127142Y2925120D01*
X52050952Y2887024D01*
X52012857Y2848929D01*
X51974761Y2772739D01*
X61830000Y39348929D02*
X61791904Y39272739D01*
X61791904Y39158453D01*
X61830000Y39044167D01*
X61906190Y38967977D01*
X61982380Y38929881D01*
X62134761Y38891786D01*
X62249047Y38891786D01*
X62401428Y38929881D01*
X62477619Y38967977D01*
X62553809Y39044167D01*
X62591904Y39158453D01*
X62591904Y39234643D01*
X62553809Y39348929D01*
X62515714Y39387024D01*
X62249047Y39387024D01*
X62249047Y39234643D01*
X62591904Y39729881D02*
X61791904Y39729881D01*
X62591904Y40187024D01*
X61791904Y40187024D01*
X62591904Y40567977D02*
X61791904Y40567977D01*
X61791904Y40758453D01*
X61830000Y40872739D01*
X61906190Y40948929D01*
X61982380Y40987024D01*
X62134761Y41025120D01*
X62249047Y41025120D01*
X62401428Y40987024D01*
X62477619Y40948929D01*
X62553809Y40872739D01*
X62591904Y40758453D01*
X62591904Y40567977D01*
X47351904Y9177977D02*
X46551904Y9177977D01*
X46551904Y9482739D01*
X46590000Y9558929D01*
X46628095Y9597024D01*
X46704285Y9635120D01*
X46818571Y9635120D01*
X46894761Y9597024D01*
X46932857Y9558929D01*
X46970952Y9482739D01*
X46970952Y9177977D01*
X46932857Y10244643D02*
X46970952Y10358929D01*
X47009047Y10397024D01*
X47085238Y10435120D01*
X47199523Y10435120D01*
X47275714Y10397024D01*
X47313809Y10358929D01*
X47351904Y10282739D01*
X47351904Y9977977D01*
X46551904Y9977977D01*
X46551904Y10244643D01*
X46590000Y10320834D01*
X46628095Y10358929D01*
X46704285Y10397024D01*
X46780476Y10397024D01*
X46856666Y10358929D01*
X46894761Y10320834D01*
X46932857Y10244643D01*
X46932857Y9977977D01*
X47351904Y11197024D02*
X47351904Y10739881D01*
X47351904Y10968453D02*
X46551904Y10968453D01*
X46666190Y10892262D01*
X46742380Y10816072D01*
X46780476Y10739881D01*
X46551904Y11920834D02*
X46551904Y11539881D01*
X46932857Y11501786D01*
X46894761Y11539881D01*
X46856666Y11616072D01*
X46856666Y11806548D01*
X46894761Y11882739D01*
X46932857Y11920834D01*
X47009047Y11958929D01*
X47199523Y11958929D01*
X47275714Y11920834D01*
X47313809Y11882739D01*
X47351904Y11806548D01*
X47351904Y11616072D01*
X47313809Y11539881D01*
X47275714Y11501786D01*
X29571904Y47912977D02*
X28771904Y47912977D01*
X28771904Y48217739D01*
X28810000Y48293929D01*
X28848095Y48332024D01*
X28924285Y48370120D01*
X29038571Y48370120D01*
X29114761Y48332024D01*
X29152857Y48293929D01*
X29190952Y48217739D01*
X29190952Y47912977D01*
X29152857Y48979643D02*
X29190952Y49093929D01*
X29229047Y49132024D01*
X29305238Y49170120D01*
X29419523Y49170120D01*
X29495714Y49132024D01*
X29533809Y49093929D01*
X29571904Y49017739D01*
X29571904Y48712977D01*
X28771904Y48712977D01*
X28771904Y48979643D01*
X28810000Y49055834D01*
X28848095Y49093929D01*
X28924285Y49132024D01*
X29000476Y49132024D01*
X29076666Y49093929D01*
X29114761Y49055834D01*
X29152857Y48979643D01*
X29152857Y48712977D01*
X28771904Y49855834D02*
X28771904Y49703453D01*
X28810000Y49627262D01*
X28848095Y49589167D01*
X28962380Y49512977D01*
X29114761Y49474881D01*
X29419523Y49474881D01*
X29495714Y49512977D01*
X29533809Y49551072D01*
X29571904Y49627262D01*
X29571904Y49779643D01*
X29533809Y49855834D01*
X29495714Y49893929D01*
X29419523Y49932024D01*
X29229047Y49932024D01*
X29152857Y49893929D01*
X29114761Y49855834D01*
X29076666Y49779643D01*
X29076666Y49627262D01*
X29114761Y49551072D01*
X29152857Y49512977D01*
X29229047Y49474881D01*
X16071904Y39767977D02*
X16719523Y39767977D01*
X16795714Y39806072D01*
X16833809Y39844167D01*
X16871904Y39920358D01*
X16871904Y40072739D01*
X16833809Y40148929D01*
X16795714Y40187024D01*
X16719523Y40225120D01*
X16071904Y40225120D01*
X16071904Y40948929D02*
X16071904Y40796548D01*
X16110000Y40720358D01*
X16148095Y40682262D01*
X16262380Y40606072D01*
X16414761Y40567977D01*
X16719523Y40567977D01*
X16795714Y40606072D01*
X16833809Y40644167D01*
X16871904Y40720358D01*
X16871904Y40872739D01*
X16833809Y40948929D01*
X16795714Y40987024D01*
X16719523Y41025120D01*
X16529047Y41025120D01*
X16452857Y40987024D01*
X16414761Y40948929D01*
X16376666Y40872739D01*
X16376666Y40720358D01*
X16414761Y40644167D01*
X16452857Y40606072D01*
X16529047Y40567977D01*
X54171904Y47912977D02*
X54819523Y47912977D01*
X54895714Y47951072D01*
X54933809Y47989167D01*
X54971904Y48065358D01*
X54971904Y48217739D01*
X54933809Y48293929D01*
X54895714Y48332024D01*
X54819523Y48370120D01*
X54171904Y48370120D01*
X54971904Y49170120D02*
X54971904Y48712977D01*
X54971904Y48941548D02*
X54171904Y48941548D01*
X54286190Y48865358D01*
X54362380Y48789167D01*
X54400476Y48712977D01*
X54171904Y49436786D02*
X54171904Y49932024D01*
X54476666Y49665358D01*
X54476666Y49779643D01*
X54514761Y49855834D01*
X54552857Y49893929D01*
X54629047Y49932024D01*
X54819523Y49932024D01*
X54895714Y49893929D01*
X54933809Y49855834D01*
X54971904Y49779643D01*
X54971904Y49551072D01*
X54933809Y49474881D01*
X54895714Y49436786D01*
X54171904Y9177977D02*
X54819523Y9177977D01*
X54895714Y9216072D01*
X54933809Y9254167D01*
X54971904Y9330358D01*
X54971904Y9482739D01*
X54933809Y9558929D01*
X54895714Y9597024D01*
X54819523Y9635120D01*
X54171904Y9635120D01*
X54248095Y9977977D02*
X54210000Y10016072D01*
X54171904Y10092262D01*
X54171904Y10282739D01*
X54210000Y10358929D01*
X54248095Y10397024D01*
X54324285Y10435120D01*
X54400476Y10435120D01*
X54514761Y10397024D01*
X54971904Y9939881D01*
X54971904Y10435120D01*
X37191904Y47912977D02*
X36391904Y47912977D01*
X36391904Y48217739D01*
X36430000Y48293929D01*
X36468095Y48332024D01*
X36544285Y48370120D01*
X36658571Y48370120D01*
X36734761Y48332024D01*
X36772857Y48293929D01*
X36810952Y48217739D01*
X36810952Y47912977D01*
X37115714Y49170120D02*
X37153809Y49132024D01*
X37191904Y49017739D01*
X37191904Y48941548D01*
X37153809Y48827262D01*
X37077619Y48751072D01*
X37001428Y48712977D01*
X36849047Y48674881D01*
X36734761Y48674881D01*
X36582380Y48712977D01*
X36506190Y48751072D01*
X36430000Y48827262D01*
X36391904Y48941548D01*
X36391904Y49017739D01*
X36430000Y49132024D01*
X36468095Y49170120D01*
X37191904Y49932024D02*
X37191904Y49474881D01*
X37191904Y49703453D02*
X36391904Y49703453D01*
X36506190Y49627262D01*
X36582380Y49551072D01*
X36620476Y49474881D01*
X36468095Y50236786D02*
X36430000Y50274881D01*
X36391904Y50351072D01*
X36391904Y50541548D01*
X36430000Y50617739D01*
X36468095Y50655834D01*
X36544285Y50693929D01*
X36620476Y50693929D01*
X36734761Y50655834D01*
X37191904Y50198691D01*
X37191904Y50693929D01*
X24491904Y1020358D02*
X23691904Y1020358D01*
X23691904Y1325120D01*
X23730000Y1401310D01*
X23768095Y1439405D01*
X23844285Y1477500D01*
X23958571Y1477500D01*
X24034761Y1439405D01*
X24072857Y1401310D01*
X24110952Y1325120D01*
X24110952Y1020358D01*
X24263333Y1782262D02*
X24263333Y2163215D01*
X24491904Y1706072D02*
X23691904Y1972739D01*
X24491904Y2239405D01*
X23691904Y2658453D02*
X23691904Y2734643D01*
X23730000Y2810834D01*
X23768095Y2848929D01*
X23844285Y2887024D01*
X23996666Y2925120D01*
X24187142Y2925120D01*
X24339523Y2887024D01*
X24415714Y2848929D01*
X24453809Y2810834D01*
X24491904Y2734643D01*
X24491904Y2658453D01*
X24453809Y2582262D01*
X24415714Y2544167D01*
X24339523Y2506072D01*
X24187142Y2467977D01*
X23996666Y2467977D01*
X23844285Y2506072D01*
X23768095Y2544167D01*
X23730000Y2582262D01*
X23691904Y2658453D01*
X47351904Y144167D02*
X46551904Y144167D01*
X46551904Y448929D01*
X46590000Y525120D01*
X46628095Y563215D01*
X46704285Y601310D01*
X46818571Y601310D01*
X46894761Y563215D01*
X46932857Y525120D01*
X46970952Y448929D01*
X46970952Y144167D01*
X46932857Y1210834D02*
X46970952Y1325120D01*
X47009047Y1363215D01*
X47085238Y1401310D01*
X47199523Y1401310D01*
X47275714Y1363215D01*
X47313809Y1325120D01*
X47351904Y1248929D01*
X47351904Y944167D01*
X46551904Y944167D01*
X46551904Y1210834D01*
X46590000Y1287024D01*
X46628095Y1325120D01*
X46704285Y1363215D01*
X46780476Y1363215D01*
X46856666Y1325120D01*
X46894761Y1287024D01*
X46932857Y1210834D01*
X46932857Y944167D01*
X47351904Y2163215D02*
X47351904Y1706072D01*
X47351904Y1934643D02*
X46551904Y1934643D01*
X46666190Y1858453D01*
X46742380Y1782262D01*
X46780476Y1706072D01*
X46818571Y2848929D02*
X47351904Y2848929D01*
X46513809Y2658453D02*
X47085238Y2467977D01*
X47085238Y2963215D01*
X19411904Y9177977D02*
X18611904Y9177977D01*
X18611904Y9482739D01*
X18650000Y9558929D01*
X18688095Y9597024D01*
X18764285Y9635120D01*
X18878571Y9635120D01*
X18954761Y9597024D01*
X18992857Y9558929D01*
X19030952Y9482739D01*
X19030952Y9177977D01*
X19335714Y10435120D02*
X19373809Y10397024D01*
X19411904Y10282739D01*
X19411904Y10206548D01*
X19373809Y10092262D01*
X19297619Y10016072D01*
X19221428Y9977977D01*
X19069047Y9939881D01*
X18954761Y9939881D01*
X18802380Y9977977D01*
X18726190Y10016072D01*
X18650000Y10092262D01*
X18611904Y10206548D01*
X18611904Y10282739D01*
X18650000Y10397024D01*
X18688095Y10435120D01*
X19411904Y11197024D02*
X19411904Y10739881D01*
X19411904Y10968453D02*
X18611904Y10968453D01*
X18726190Y10892262D01*
X18802380Y10816072D01*
X18840476Y10739881D01*
X32111904Y1020358D02*
X31311904Y1020358D01*
X31311904Y1325120D01*
X31350000Y1401310D01*
X31388095Y1439405D01*
X31464285Y1477500D01*
X31578571Y1477500D01*
X31654761Y1439405D01*
X31692857Y1401310D01*
X31730952Y1325120D01*
X31730952Y1020358D01*
X31883333Y1782262D02*
X31883333Y2163215D01*
X32111904Y1706072D02*
X31311904Y1972739D01*
X32111904Y2239405D01*
X31311904Y2848929D02*
X31311904Y2696548D01*
X31350000Y2620358D01*
X31388095Y2582262D01*
X31502380Y2506072D01*
X31654761Y2467977D01*
X31959523Y2467977D01*
X32035714Y2506072D01*
X32073809Y2544167D01*
X32111904Y2620358D01*
X32111904Y2772739D01*
X32073809Y2848929D01*
X32035714Y2887024D01*
X31959523Y2925120D01*
X31769047Y2925120D01*
X31692857Y2887024D01*
X31654761Y2848929D01*
X31616666Y2772739D01*
X31616666Y2620358D01*
X31654761Y2544167D01*
X31692857Y2506072D01*
X31769047Y2467977D01*
X19411904Y906072D02*
X18611904Y906072D01*
X18611904Y1210834D01*
X18650000Y1287024D01*
X18688095Y1325120D01*
X18764285Y1363215D01*
X18878571Y1363215D01*
X18954761Y1325120D01*
X18992857Y1287024D01*
X19030952Y1210834D01*
X19030952Y906072D01*
X19335714Y2163215D02*
X19373809Y2125120D01*
X19411904Y2010834D01*
X19411904Y1934643D01*
X19373809Y1820358D01*
X19297619Y1744167D01*
X19221428Y1706072D01*
X19069047Y1667977D01*
X18954761Y1667977D01*
X18802380Y1706072D01*
X18726190Y1744167D01*
X18650000Y1820358D01*
X18611904Y1934643D01*
X18611904Y2010834D01*
X18650000Y2125120D01*
X18688095Y2163215D01*
X18611904Y2658453D02*
X18611904Y2734643D01*
X18650000Y2810834D01*
X18688095Y2848929D01*
X18764285Y2887024D01*
X18916666Y2925120D01*
X19107142Y2925120D01*
X19259523Y2887024D01*
X19335714Y2848929D01*
X19373809Y2810834D01*
X19411904Y2734643D01*
X19411904Y2658453D01*
X19373809Y2582262D01*
X19335714Y2544167D01*
X19259523Y2506072D01*
X19107142Y2467977D01*
X18916666Y2467977D01*
X18764285Y2506072D01*
X18688095Y2544167D01*
X18650000Y2582262D01*
X18611904Y2658453D01*
X13531904Y601310D02*
X13531904Y1096548D01*
X13836666Y829881D01*
X13836666Y944167D01*
X13874761Y1020358D01*
X13912857Y1058453D01*
X13989047Y1096548D01*
X14179523Y1096548D01*
X14255714Y1058453D01*
X14293809Y1020358D01*
X14331904Y944167D01*
X14331904Y715596D01*
X14293809Y639405D01*
X14255714Y601310D01*
X14255714Y1439405D02*
X14293809Y1477500D01*
X14331904Y1439405D01*
X14293809Y1401310D01*
X14255714Y1439405D01*
X14331904Y1439405D01*
X13531904Y1744167D02*
X13531904Y2239405D01*
X13836666Y1972739D01*
X13836666Y2087024D01*
X13874761Y2163215D01*
X13912857Y2201310D01*
X13989047Y2239405D01*
X14179523Y2239405D01*
X14255714Y2201310D01*
X14293809Y2163215D01*
X14331904Y2087024D01*
X14331904Y1858453D01*
X14293809Y1782262D01*
X14255714Y1744167D01*
X13531904Y2467977D02*
X14331904Y2734643D01*
X13531904Y3001310D01*
X56711904Y1667977D02*
X57359523Y1667977D01*
X57435714Y1706072D01*
X57473809Y1744167D01*
X57511904Y1820358D01*
X57511904Y1972739D01*
X57473809Y2048929D01*
X57435714Y2087024D01*
X57359523Y2125120D01*
X56711904Y2125120D01*
X56711904Y2429881D02*
X56711904Y2925120D01*
X57016666Y2658453D01*
X57016666Y2772739D01*
X57054761Y2848929D01*
X57092857Y2887024D01*
X57169047Y2925120D01*
X57359523Y2925120D01*
X57435714Y2887024D01*
X57473809Y2848929D01*
X57511904Y2772739D01*
X57511904Y2544167D01*
X57473809Y2467977D01*
X57435714Y2429881D01*
X19411904Y38244167D02*
X18611904Y38244167D01*
X18611904Y38548929D01*
X18650000Y38625120D01*
X18688095Y38663215D01*
X18764285Y38701310D01*
X18878571Y38701310D01*
X18954761Y38663215D01*
X18992857Y38625120D01*
X19030952Y38548929D01*
X19030952Y38244167D01*
X19335714Y39501310D02*
X19373809Y39463215D01*
X19411904Y39348929D01*
X19411904Y39272739D01*
X19373809Y39158453D01*
X19297619Y39082262D01*
X19221428Y39044167D01*
X19069047Y39006072D01*
X18954761Y39006072D01*
X18802380Y39044167D01*
X18726190Y39082262D01*
X18650000Y39158453D01*
X18611904Y39272739D01*
X18611904Y39348929D01*
X18650000Y39463215D01*
X18688095Y39501310D01*
X19411904Y40263215D02*
X19411904Y39806072D01*
X19411904Y40034643D02*
X18611904Y40034643D01*
X18726190Y39958453D01*
X18802380Y39882262D01*
X18840476Y39806072D01*
X18611904Y40987024D02*
X18611904Y40606072D01*
X18992857Y40567977D01*
X18954761Y40606072D01*
X18916666Y40682262D01*
X18916666Y40872739D01*
X18954761Y40948929D01*
X18992857Y40987024D01*
X19069047Y41025120D01*
X19259523Y41025120D01*
X19335714Y40987024D01*
X19373809Y40948929D01*
X19411904Y40872739D01*
X19411904Y40682262D01*
X19373809Y40606072D01*
X19335714Y40567977D01*
X34651904Y47912977D02*
X33851904Y47912977D01*
X33851904Y48217739D01*
X33890000Y48293929D01*
X33928095Y48332024D01*
X34004285Y48370120D01*
X34118571Y48370120D01*
X34194761Y48332024D01*
X34232857Y48293929D01*
X34270952Y48217739D01*
X34270952Y47912977D01*
X34651904Y48712977D02*
X33851904Y48712977D01*
X33851904Y48903453D01*
X33890000Y49017739D01*
X33966190Y49093929D01*
X34042380Y49132024D01*
X34194761Y49170120D01*
X34309047Y49170120D01*
X34461428Y49132024D01*
X34537619Y49093929D01*
X34613809Y49017739D01*
X34651904Y48903453D01*
X34651904Y48712977D01*
X33928095Y49474881D02*
X33890000Y49512977D01*
X33851904Y49589167D01*
X33851904Y49779643D01*
X33890000Y49855834D01*
X33928095Y49893929D01*
X34004285Y49932024D01*
X34080476Y49932024D01*
X34194761Y49893929D01*
X34651904Y49436786D01*
X34651904Y49932024D01*
X21951904Y9177977D02*
X21151904Y9177977D01*
X21151904Y9482739D01*
X21190000Y9558929D01*
X21228095Y9597024D01*
X21304285Y9635120D01*
X21418571Y9635120D01*
X21494761Y9597024D01*
X21532857Y9558929D01*
X21570952Y9482739D01*
X21570952Y9177977D01*
X21875714Y10435120D02*
X21913809Y10397024D01*
X21951904Y10282739D01*
X21951904Y10206548D01*
X21913809Y10092262D01*
X21837619Y10016072D01*
X21761428Y9977977D01*
X21609047Y9939881D01*
X21494761Y9939881D01*
X21342380Y9977977D01*
X21266190Y10016072D01*
X21190000Y10092262D01*
X21151904Y10206548D01*
X21151904Y10282739D01*
X21190000Y10397024D01*
X21228095Y10435120D01*
X21151904Y10701786D02*
X21151904Y11197024D01*
X21456666Y10930358D01*
X21456666Y11044643D01*
X21494761Y11120834D01*
X21532857Y11158929D01*
X21609047Y11197024D01*
X21799523Y11197024D01*
X21875714Y11158929D01*
X21913809Y11120834D01*
X21951904Y11044643D01*
X21951904Y10816072D01*
X21913809Y10739881D01*
X21875714Y10701786D01*
X13531904Y47836786D02*
X13531904Y48332024D01*
X13836666Y48065358D01*
X13836666Y48179643D01*
X13874761Y48255834D01*
X13912857Y48293929D01*
X13989047Y48332024D01*
X14179523Y48332024D01*
X14255714Y48293929D01*
X14293809Y48255834D01*
X14331904Y48179643D01*
X14331904Y47951072D01*
X14293809Y47874881D01*
X14255714Y47836786D01*
X14255714Y48674881D02*
X14293809Y48712977D01*
X14331904Y48674881D01*
X14293809Y48636786D01*
X14255714Y48674881D01*
X14331904Y48674881D01*
X13531904Y48979643D02*
X13531904Y49474881D01*
X13836666Y49208215D01*
X13836666Y49322500D01*
X13874761Y49398691D01*
X13912857Y49436786D01*
X13989047Y49474881D01*
X14179523Y49474881D01*
X14255714Y49436786D01*
X14293809Y49398691D01*
X14331904Y49322500D01*
X14331904Y49093929D01*
X14293809Y49017739D01*
X14255714Y48979643D01*
X13531904Y49703453D02*
X14331904Y49970120D01*
X13531904Y50236786D01*
X34651904Y9177977D02*
X33851904Y9177977D01*
X33851904Y9482739D01*
X33890000Y9558929D01*
X33928095Y9597024D01*
X34004285Y9635120D01*
X34118571Y9635120D01*
X34194761Y9597024D01*
X34232857Y9558929D01*
X34270952Y9482739D01*
X34270952Y9177977D01*
X34575714Y10435120D02*
X34613809Y10397024D01*
X34651904Y10282739D01*
X34651904Y10206548D01*
X34613809Y10092262D01*
X34537619Y10016072D01*
X34461428Y9977977D01*
X34309047Y9939881D01*
X34194761Y9939881D01*
X34042380Y9977977D01*
X33966190Y10016072D01*
X33890000Y10092262D01*
X33851904Y10206548D01*
X33851904Y10282739D01*
X33890000Y10397024D01*
X33928095Y10435120D01*
X33851904Y11158929D02*
X33851904Y10777977D01*
X34232857Y10739881D01*
X34194761Y10777977D01*
X34156666Y10854167D01*
X34156666Y11044643D01*
X34194761Y11120834D01*
X34232857Y11158929D01*
X34309047Y11197024D01*
X34499523Y11197024D01*
X34575714Y11158929D01*
X34613809Y11120834D01*
X34651904Y11044643D01*
X34651904Y10854167D01*
X34613809Y10777977D01*
X34575714Y10739881D01*
X41471904Y39006072D02*
X42119523Y39006072D01*
X42195714Y39044167D01*
X42233809Y39082262D01*
X42271904Y39158453D01*
X42271904Y39310834D01*
X42233809Y39387024D01*
X42195714Y39425120D01*
X42119523Y39463215D01*
X41471904Y39463215D01*
X42271904Y40263215D02*
X42271904Y39806072D01*
X42271904Y40034643D02*
X41471904Y40034643D01*
X41586190Y39958453D01*
X41662380Y39882262D01*
X41700476Y39806072D01*
X41548095Y40567977D02*
X41510000Y40606072D01*
X41471904Y40682262D01*
X41471904Y40872739D01*
X41510000Y40948929D01*
X41548095Y40987024D01*
X41624285Y41025120D01*
X41700476Y41025120D01*
X41814761Y40987024D01*
X42271904Y40529881D01*
X42271904Y41025120D01*
X49891904Y38358453D02*
X49091904Y38358453D01*
X49091904Y38663215D01*
X49130000Y38739405D01*
X49168095Y38777500D01*
X49244285Y38815596D01*
X49358571Y38815596D01*
X49434761Y38777500D01*
X49472857Y38739405D01*
X49510952Y38663215D01*
X49510952Y38358453D01*
X49663333Y39120358D02*
X49663333Y39501310D01*
X49891904Y39044167D02*
X49091904Y39310834D01*
X49891904Y39577500D01*
X49891904Y40263215D02*
X49891904Y39806072D01*
X49891904Y40034643D02*
X49091904Y40034643D01*
X49206190Y39958453D01*
X49282380Y39882262D01*
X49320476Y39806072D01*
X49891904Y41025120D02*
X49891904Y40567977D01*
X49891904Y40796548D02*
X49091904Y40796548D01*
X49206190Y40720358D01*
X49282380Y40644167D01*
X49320476Y40567977D01*
X32111904Y47912977D02*
X31311904Y47912977D01*
X31311904Y48217739D01*
X31350000Y48293929D01*
X31388095Y48332024D01*
X31464285Y48370120D01*
X31578571Y48370120D01*
X31654761Y48332024D01*
X31692857Y48293929D01*
X31730952Y48217739D01*
X31730952Y47912977D01*
X31692857Y48979643D02*
X31730952Y49093929D01*
X31769047Y49132024D01*
X31845238Y49170120D01*
X31959523Y49170120D01*
X32035714Y49132024D01*
X32073809Y49093929D01*
X32111904Y49017739D01*
X32111904Y48712977D01*
X31311904Y48712977D01*
X31311904Y48979643D01*
X31350000Y49055834D01*
X31388095Y49093929D01*
X31464285Y49132024D01*
X31540476Y49132024D01*
X31616666Y49093929D01*
X31654761Y49055834D01*
X31692857Y48979643D01*
X31692857Y48712977D01*
X31578571Y49855834D02*
X32111904Y49855834D01*
X31273809Y49665358D02*
X31845238Y49474881D01*
X31845238Y49970120D01*
X52431904Y39120358D02*
X51631904Y39120358D01*
X51631904Y39425120D01*
X51670000Y39501310D01*
X51708095Y39539405D01*
X51784285Y39577500D01*
X51898571Y39577500D01*
X51974761Y39539405D01*
X52012857Y39501310D01*
X52050952Y39425120D01*
X52050952Y39120358D01*
X52203333Y39882262D02*
X52203333Y40263215D01*
X52431904Y39806072D02*
X51631904Y40072739D01*
X52431904Y40339405D01*
X52431904Y40644167D02*
X52431904Y40796548D01*
X52393809Y40872739D01*
X52355714Y40910834D01*
X52241428Y40987024D01*
X52089047Y41025120D01*
X51784285Y41025120D01*
X51708095Y40987024D01*
X51670000Y40948929D01*
X51631904Y40872739D01*
X51631904Y40720358D01*
X51670000Y40644167D01*
X51708095Y40606072D01*
X51784285Y40567977D01*
X51974761Y40567977D01*
X52050952Y40606072D01*
X52089047Y40644167D01*
X52127142Y40720358D01*
X52127142Y40872739D01*
X52089047Y40948929D01*
X52050952Y40987024D01*
X51974761Y41025120D01*
X54171904Y1667977D02*
X54819523Y1667977D01*
X54895714Y1706072D01*
X54933809Y1744167D01*
X54971904Y1820358D01*
X54971904Y1972739D01*
X54933809Y2048929D01*
X54895714Y2087024D01*
X54819523Y2125120D01*
X54171904Y2125120D01*
X54971904Y2925120D02*
X54971904Y2467977D01*
X54971904Y2696548D02*
X54171904Y2696548D01*
X54286190Y2620358D01*
X54362380Y2544167D01*
X54400476Y2467977D01*
X21951904Y47912977D02*
X21151904Y47912977D01*
X21151904Y48217739D01*
X21190000Y48293929D01*
X21228095Y48332024D01*
X21304285Y48370120D01*
X21418571Y48370120D01*
X21494761Y48332024D01*
X21532857Y48293929D01*
X21570952Y48217739D01*
X21570952Y47912977D01*
X21875714Y49170120D02*
X21913809Y49132024D01*
X21951904Y49017739D01*
X21951904Y48941548D01*
X21913809Y48827262D01*
X21837619Y48751072D01*
X21761428Y48712977D01*
X21609047Y48674881D01*
X21494761Y48674881D01*
X21342380Y48712977D01*
X21266190Y48751072D01*
X21190000Y48827262D01*
X21151904Y48941548D01*
X21151904Y49017739D01*
X21190000Y49132024D01*
X21228095Y49170120D01*
X21951904Y49932024D02*
X21951904Y49474881D01*
X21951904Y49703453D02*
X21151904Y49703453D01*
X21266190Y49627262D01*
X21342380Y49551072D01*
X21380476Y49474881D01*
X21418571Y50617739D02*
X21951904Y50617739D01*
X21113809Y50427262D02*
X21685238Y50236786D01*
X21685238Y50732024D01*
X59290000Y39348929D02*
X59251904Y39272739D01*
X59251904Y39158453D01*
X59290000Y39044167D01*
X59366190Y38967977D01*
X59442380Y38929881D01*
X59594761Y38891786D01*
X59709047Y38891786D01*
X59861428Y38929881D01*
X59937619Y38967977D01*
X60013809Y39044167D01*
X60051904Y39158453D01*
X60051904Y39234643D01*
X60013809Y39348929D01*
X59975714Y39387024D01*
X59709047Y39387024D01*
X59709047Y39234643D01*
X60051904Y39729881D02*
X59251904Y39729881D01*
X60051904Y40187024D01*
X59251904Y40187024D01*
X60051904Y40567977D02*
X59251904Y40567977D01*
X59251904Y40758453D01*
X59290000Y40872739D01*
X59366190Y40948929D01*
X59442380Y40987024D01*
X59594761Y41025120D01*
X59709047Y41025120D01*
X59861428Y40987024D01*
X59937619Y40948929D01*
X60013809Y40872739D01*
X60051904Y40758453D01*
X60051904Y40567977D01*
X16452857Y1134643D02*
X16490952Y1248929D01*
X16529047Y1287024D01*
X16605238Y1325120D01*
X16719523Y1325120D01*
X16795714Y1287024D01*
X16833809Y1248929D01*
X16871904Y1172739D01*
X16871904Y867977D01*
X16071904Y867977D01*
X16071904Y1134643D01*
X16110000Y1210834D01*
X16148095Y1248929D01*
X16224285Y1287024D01*
X16300476Y1287024D01*
X16376666Y1248929D01*
X16414761Y1210834D01*
X16452857Y1134643D01*
X16452857Y867977D01*
X16071904Y1820358D02*
X16071904Y1972739D01*
X16110000Y2048929D01*
X16186190Y2125120D01*
X16338571Y2163215D01*
X16605238Y2163215D01*
X16757619Y2125120D01*
X16833809Y2048929D01*
X16871904Y1972739D01*
X16871904Y1820358D01*
X16833809Y1744167D01*
X16757619Y1667977D01*
X16605238Y1629881D01*
X16338571Y1629881D01*
X16186190Y1667977D01*
X16110000Y1744167D01*
X16071904Y1820358D01*
X16071904Y2658453D02*
X16071904Y2734643D01*
X16110000Y2810834D01*
X16148095Y2848929D01*
X16224285Y2887024D01*
X16376666Y2925120D01*
X16567142Y2925120D01*
X16719523Y2887024D01*
X16795714Y2848929D01*
X16833809Y2810834D01*
X16871904Y2734643D01*
X16871904Y2658453D01*
X16833809Y2582262D01*
X16795714Y2544167D01*
X16719523Y2506072D01*
X16567142Y2467977D01*
X16376666Y2467977D01*
X16224285Y2506072D01*
X16148095Y2544167D01*
X16110000Y2582262D01*
X16071904Y2658453D01*
X27031904Y47912977D02*
X26231904Y47912977D01*
X26231904Y48217739D01*
X26270000Y48293929D01*
X26308095Y48332024D01*
X26384285Y48370120D01*
X26498571Y48370120D01*
X26574761Y48332024D01*
X26612857Y48293929D01*
X26650952Y48217739D01*
X26650952Y47912977D01*
X26612857Y48979643D02*
X26650952Y49093929D01*
X26689047Y49132024D01*
X26765238Y49170120D01*
X26879523Y49170120D01*
X26955714Y49132024D01*
X26993809Y49093929D01*
X27031904Y49017739D01*
X27031904Y48712977D01*
X26231904Y48712977D01*
X26231904Y48979643D01*
X26270000Y49055834D01*
X26308095Y49093929D01*
X26384285Y49132024D01*
X26460476Y49132024D01*
X26536666Y49093929D01*
X26574761Y49055834D01*
X26612857Y48979643D01*
X26612857Y48712977D01*
X26574761Y49627262D02*
X26536666Y49551072D01*
X26498571Y49512977D01*
X26422380Y49474881D01*
X26384285Y49474881D01*
X26308095Y49512977D01*
X26270000Y49551072D01*
X26231904Y49627262D01*
X26231904Y49779643D01*
X26270000Y49855834D01*
X26308095Y49893929D01*
X26384285Y49932024D01*
X26422380Y49932024D01*
X26498571Y49893929D01*
X26536666Y49855834D01*
X26574761Y49779643D01*
X26574761Y49627262D01*
X26612857Y49551072D01*
X26650952Y49512977D01*
X26727142Y49474881D01*
X26879523Y49474881D01*
X26955714Y49512977D01*
X26993809Y49551072D01*
X27031904Y49627262D01*
X27031904Y49779643D01*
X26993809Y49855834D01*
X26955714Y49893929D01*
X26879523Y49932024D01*
X26727142Y49932024D01*
X26650952Y49893929D01*
X26612857Y49855834D01*
X26574761Y49779643D01*
X36391904Y39767977D02*
X37039523Y39767977D01*
X37115714Y39806072D01*
X37153809Y39844167D01*
X37191904Y39920358D01*
X37191904Y40072739D01*
X37153809Y40148929D01*
X37115714Y40187024D01*
X37039523Y40225120D01*
X36391904Y40225120D01*
X36734761Y40720358D02*
X36696666Y40644167D01*
X36658571Y40606072D01*
X36582380Y40567977D01*
X36544285Y40567977D01*
X36468095Y40606072D01*
X36430000Y40644167D01*
X36391904Y40720358D01*
X36391904Y40872739D01*
X36430000Y40948929D01*
X36468095Y40987024D01*
X36544285Y41025120D01*
X36582380Y41025120D01*
X36658571Y40987024D01*
X36696666Y40948929D01*
X36734761Y40872739D01*
X36734761Y40720358D01*
X36772857Y40644167D01*
X36810952Y40606072D01*
X36887142Y40567977D01*
X37039523Y40567977D01*
X37115714Y40606072D01*
X37153809Y40644167D01*
X37191904Y40720358D01*
X37191904Y40872739D01*
X37153809Y40948929D01*
X37115714Y40987024D01*
X37039523Y41025120D01*
X36887142Y41025120D01*
X36810952Y40987024D01*
X36772857Y40948929D01*
X36734761Y40872739D01*
X52431904Y47912977D02*
X51631904Y47912977D01*
X51631904Y48217739D01*
X51670000Y48293929D01*
X51708095Y48332024D01*
X51784285Y48370120D01*
X51898571Y48370120D01*
X51974761Y48332024D01*
X52012857Y48293929D01*
X52050952Y48217739D01*
X52050952Y47912977D01*
X52203333Y48674881D02*
X52203333Y49055834D01*
X52431904Y48598691D02*
X51631904Y48865358D01*
X52431904Y49132024D01*
X51974761Y49512977D02*
X51936666Y49436786D01*
X51898571Y49398691D01*
X51822380Y49360596D01*
X51784285Y49360596D01*
X51708095Y49398691D01*
X51670000Y49436786D01*
X51631904Y49512977D01*
X51631904Y49665358D01*
X51670000Y49741548D01*
X51708095Y49779643D01*
X51784285Y49817739D01*
X51822380Y49817739D01*
X51898571Y49779643D01*
X51936666Y49741548D01*
X51974761Y49665358D01*
X51974761Y49512977D01*
X52012857Y49436786D01*
X52050952Y49398691D01*
X52127142Y49360596D01*
X52279523Y49360596D01*
X52355714Y49398691D01*
X52393809Y49436786D01*
X52431904Y49512977D01*
X52431904Y49665358D01*
X52393809Y49741548D01*
X52355714Y49779643D01*
X52279523Y49817739D01*
X52127142Y49817739D01*
X52050952Y49779643D01*
X52012857Y49741548D01*
X51974761Y49665358D01*
X52431904Y9177977D02*
X51631904Y9177977D01*
X51631904Y9482739D01*
X51670000Y9558929D01*
X51708095Y9597024D01*
X51784285Y9635120D01*
X51898571Y9635120D01*
X51974761Y9597024D01*
X52012857Y9558929D01*
X52050952Y9482739D01*
X52050952Y9177977D01*
X52355714Y10435120D02*
X52393809Y10397024D01*
X52431904Y10282739D01*
X52431904Y10206548D01*
X52393809Y10092262D01*
X52317619Y10016072D01*
X52241428Y9977977D01*
X52089047Y9939881D01*
X51974761Y9939881D01*
X51822380Y9977977D01*
X51746190Y10016072D01*
X51670000Y10092262D01*
X51631904Y10206548D01*
X51631904Y10282739D01*
X51670000Y10397024D01*
X51708095Y10435120D01*
X52431904Y10816072D02*
X52431904Y10968453D01*
X52393809Y11044643D01*
X52355714Y11082739D01*
X52241428Y11158929D01*
X52089047Y11197024D01*
X51784285Y11197024D01*
X51708095Y11158929D01*
X51670000Y11120834D01*
X51631904Y11044643D01*
X51631904Y10892262D01*
X51670000Y10816072D01*
X51708095Y10777977D01*
X51784285Y10739881D01*
X51974761Y10739881D01*
X52050952Y10777977D01*
X52089047Y10816072D01*
X52127142Y10892262D01*
X52127142Y11044643D01*
X52089047Y11120834D01*
X52050952Y11158929D01*
X51974761Y11197024D01*
X37191904Y906072D02*
X36391904Y906072D01*
X36391904Y1210834D01*
X36430000Y1287024D01*
X36468095Y1325120D01*
X36544285Y1363215D01*
X36658571Y1363215D01*
X36734761Y1325120D01*
X36772857Y1287024D01*
X36810952Y1210834D01*
X36810952Y906072D01*
X36772857Y1972739D02*
X36810952Y2087024D01*
X36849047Y2125120D01*
X36925238Y2163215D01*
X37039523Y2163215D01*
X37115714Y2125120D01*
X37153809Y2087024D01*
X37191904Y2010834D01*
X37191904Y1706072D01*
X36391904Y1706072D01*
X36391904Y1972739D01*
X36430000Y2048929D01*
X36468095Y2087024D01*
X36544285Y2125120D01*
X36620476Y2125120D01*
X36696666Y2087024D01*
X36734761Y2048929D01*
X36772857Y1972739D01*
X36772857Y1706072D01*
X36391904Y2658453D02*
X36391904Y2734643D01*
X36430000Y2810834D01*
X36468095Y2848929D01*
X36544285Y2887024D01*
X36696666Y2925120D01*
X36887142Y2925120D01*
X37039523Y2887024D01*
X37115714Y2848929D01*
X37153809Y2810834D01*
X37191904Y2734643D01*
X37191904Y2658453D01*
X37153809Y2582262D01*
X37115714Y2544167D01*
X37039523Y2506072D01*
X36887142Y2467977D01*
X36696666Y2467977D01*
X36544285Y2506072D01*
X36468095Y2544167D01*
X36430000Y2582262D01*
X36391904Y2658453D01*
X39731904Y38244167D02*
X38931904Y38244167D01*
X38931904Y38548929D01*
X38970000Y38625120D01*
X39008095Y38663215D01*
X39084285Y38701310D01*
X39198571Y38701310D01*
X39274761Y38663215D01*
X39312857Y38625120D01*
X39350952Y38548929D01*
X39350952Y38244167D01*
X39655714Y39501310D02*
X39693809Y39463215D01*
X39731904Y39348929D01*
X39731904Y39272739D01*
X39693809Y39158453D01*
X39617619Y39082262D01*
X39541428Y39044167D01*
X39389047Y39006072D01*
X39274761Y39006072D01*
X39122380Y39044167D01*
X39046190Y39082262D01*
X38970000Y39158453D01*
X38931904Y39272739D01*
X38931904Y39348929D01*
X38970000Y39463215D01*
X39008095Y39501310D01*
X39731904Y40263215D02*
X39731904Y39806072D01*
X39731904Y40034643D02*
X38931904Y40034643D01*
X39046190Y39958453D01*
X39122380Y39882262D01*
X39160476Y39806072D01*
X39731904Y41025120D02*
X39731904Y40567977D01*
X39731904Y40796548D02*
X38931904Y40796548D01*
X39046190Y40720358D01*
X39122380Y40644167D01*
X39160476Y40567977D01*
X16071904Y47912977D02*
X16719523Y47912977D01*
X16795714Y47951072D01*
X16833809Y47989167D01*
X16871904Y48065358D01*
X16871904Y48217739D01*
X16833809Y48293929D01*
X16795714Y48332024D01*
X16719523Y48370120D01*
X16071904Y48370120D01*
X16071904Y49132024D02*
X16071904Y48751072D01*
X16452857Y48712977D01*
X16414761Y48751072D01*
X16376666Y48827262D01*
X16376666Y49017739D01*
X16414761Y49093929D01*
X16452857Y49132024D01*
X16529047Y49170120D01*
X16719523Y49170120D01*
X16795714Y49132024D01*
X16833809Y49093929D01*
X16871904Y49017739D01*
X16871904Y48827262D01*
X16833809Y48751072D01*
X16795714Y48712977D01*
X56711904Y39006072D02*
X57359523Y39006072D01*
X57435714Y39044167D01*
X57473809Y39082262D01*
X57511904Y39158453D01*
X57511904Y39310834D01*
X57473809Y39387024D01*
X57435714Y39425120D01*
X57359523Y39463215D01*
X56711904Y39463215D01*
X57511904Y40263215D02*
X57511904Y39806072D01*
X57511904Y40034643D02*
X56711904Y40034643D01*
X56826190Y39958453D01*
X56902380Y39882262D01*
X56940476Y39806072D01*
X56711904Y40948929D02*
X56711904Y40796548D01*
X56750000Y40720358D01*
X56788095Y40682262D01*
X56902380Y40606072D01*
X57054761Y40567977D01*
X57359523Y40567977D01*
X57435714Y40606072D01*
X57473809Y40644167D01*
X57511904Y40720358D01*
X57511904Y40872739D01*
X57473809Y40948929D01*
X57435714Y40987024D01*
X57359523Y41025120D01*
X57169047Y41025120D01*
X57092857Y40987024D01*
X57054761Y40948929D01*
X57016666Y40872739D01*
X57016666Y40720358D01*
X57054761Y40644167D01*
X57092857Y40606072D01*
X57169047Y40567977D01*
X54171904Y39006072D02*
X54819523Y39006072D01*
X54895714Y39044167D01*
X54933809Y39082262D01*
X54971904Y39158453D01*
X54971904Y39310834D01*
X54933809Y39387024D01*
X54895714Y39425120D01*
X54819523Y39463215D01*
X54171904Y39463215D01*
X54971904Y40263215D02*
X54971904Y39806072D01*
X54971904Y40034643D02*
X54171904Y40034643D01*
X54286190Y39958453D01*
X54362380Y39882262D01*
X54400476Y39806072D01*
X54438571Y40948929D02*
X54971904Y40948929D01*
X54133809Y40758453D02*
X54705238Y40567977D01*
X54705238Y41063215D01*
X23691904Y39006072D02*
X24339523Y39006072D01*
X24415714Y39044167D01*
X24453809Y39082262D01*
X24491904Y39158453D01*
X24491904Y39310834D01*
X24453809Y39387024D01*
X24415714Y39425120D01*
X24339523Y39463215D01*
X23691904Y39463215D01*
X24491904Y40263215D02*
X24491904Y39806072D01*
X24491904Y40034643D02*
X23691904Y40034643D01*
X23806190Y39958453D01*
X23882380Y39882262D01*
X23920476Y39806072D01*
X23691904Y40758453D02*
X23691904Y40834643D01*
X23730000Y40910834D01*
X23768095Y40948929D01*
X23844285Y40987024D01*
X23996666Y41025120D01*
X24187142Y41025120D01*
X24339523Y40987024D01*
X24415714Y40948929D01*
X24453809Y40910834D01*
X24491904Y40834643D01*
X24491904Y40758453D01*
X24453809Y40682262D01*
X24415714Y40644167D01*
X24339523Y40606072D01*
X24187142Y40567977D01*
X23996666Y40567977D01*
X23844285Y40606072D01*
X23768095Y40644167D01*
X23730000Y40682262D01*
X23691904Y40758453D01*
X59251904Y601310D02*
X59251904Y1096548D01*
X59556666Y829881D01*
X59556666Y944167D01*
X59594761Y1020358D01*
X59632857Y1058453D01*
X59709047Y1096548D01*
X59899523Y1096548D01*
X59975714Y1058453D01*
X60013809Y1020358D01*
X60051904Y944167D01*
X60051904Y715596D01*
X60013809Y639405D01*
X59975714Y601310D01*
X59975714Y1439405D02*
X60013809Y1477500D01*
X60051904Y1439405D01*
X60013809Y1401310D01*
X59975714Y1439405D01*
X60051904Y1439405D01*
X59251904Y1744167D02*
X59251904Y2239405D01*
X59556666Y1972739D01*
X59556666Y2087024D01*
X59594761Y2163215D01*
X59632857Y2201310D01*
X59709047Y2239405D01*
X59899523Y2239405D01*
X59975714Y2201310D01*
X60013809Y2163215D01*
X60051904Y2087024D01*
X60051904Y1858453D01*
X60013809Y1782262D01*
X59975714Y1744167D01*
X59251904Y2467977D02*
X60051904Y2734643D01*
X59251904Y3001310D01*
X29571904Y9177977D02*
X28771904Y9177977D01*
X28771904Y9482739D01*
X28810000Y9558929D01*
X28848095Y9597024D01*
X28924285Y9635120D01*
X29038571Y9635120D01*
X29114761Y9597024D01*
X29152857Y9558929D01*
X29190952Y9482739D01*
X29190952Y9177977D01*
X29343333Y9939881D02*
X29343333Y10320834D01*
X29571904Y9863691D02*
X28771904Y10130358D01*
X29571904Y10397024D01*
X28771904Y11044643D02*
X28771904Y10663691D01*
X29152857Y10625596D01*
X29114761Y10663691D01*
X29076666Y10739881D01*
X29076666Y10930358D01*
X29114761Y11006548D01*
X29152857Y11044643D01*
X29229047Y11082739D01*
X29419523Y11082739D01*
X29495714Y11044643D01*
X29533809Y11006548D01*
X29571904Y10930358D01*
X29571904Y10739881D01*
X29533809Y10663691D01*
X29495714Y10625596D01*
X39731904Y47912977D02*
X38931904Y47912977D01*
X38931904Y48217739D01*
X38970000Y48293929D01*
X39008095Y48332024D01*
X39084285Y48370120D01*
X39198571Y48370120D01*
X39274761Y48332024D01*
X39312857Y48293929D01*
X39350952Y48217739D01*
X39350952Y47912977D01*
X39655714Y49170120D02*
X39693809Y49132024D01*
X39731904Y49017739D01*
X39731904Y48941548D01*
X39693809Y48827262D01*
X39617619Y48751072D01*
X39541428Y48712977D01*
X39389047Y48674881D01*
X39274761Y48674881D01*
X39122380Y48712977D01*
X39046190Y48751072D01*
X38970000Y48827262D01*
X38931904Y48941548D01*
X38931904Y49017739D01*
X38970000Y49132024D01*
X39008095Y49170120D01*
X39731904Y49932024D02*
X39731904Y49474881D01*
X39731904Y49703453D02*
X38931904Y49703453D01*
X39046190Y49627262D01*
X39122380Y49551072D01*
X39160476Y49474881D01*
X38931904Y50427262D02*
X38931904Y50503453D01*
X38970000Y50579643D01*
X39008095Y50617739D01*
X39084285Y50655834D01*
X39236666Y50693929D01*
X39427142Y50693929D01*
X39579523Y50655834D01*
X39655714Y50617739D01*
X39693809Y50579643D01*
X39731904Y50503453D01*
X39731904Y50427262D01*
X39693809Y50351072D01*
X39655714Y50312977D01*
X39579523Y50274881D01*
X39427142Y50236786D01*
X39236666Y50236786D01*
X39084285Y50274881D01*
X39008095Y50312977D01*
X38970000Y50351072D01*
X38931904Y50427262D01*
X42271904Y9177977D02*
X41471904Y9177977D01*
X41471904Y9482739D01*
X41510000Y9558929D01*
X41548095Y9597024D01*
X41624285Y9635120D01*
X41738571Y9635120D01*
X41814761Y9597024D01*
X41852857Y9558929D01*
X41890952Y9482739D01*
X41890952Y9177977D01*
X41852857Y10244643D02*
X41890952Y10358929D01*
X41929047Y10397024D01*
X42005238Y10435120D01*
X42119523Y10435120D01*
X42195714Y10397024D01*
X42233809Y10358929D01*
X42271904Y10282739D01*
X42271904Y9977977D01*
X41471904Y9977977D01*
X41471904Y10244643D01*
X41510000Y10320834D01*
X41548095Y10358929D01*
X41624285Y10397024D01*
X41700476Y10397024D01*
X41776666Y10358929D01*
X41814761Y10320834D01*
X41852857Y10244643D01*
X41852857Y9977977D01*
X42271904Y11197024D02*
X42271904Y10739881D01*
X42271904Y10968453D02*
X41471904Y10968453D01*
X41586190Y10892262D01*
X41662380Y10816072D01*
X41700476Y10739881D01*
X42271904Y11958929D02*
X42271904Y11501786D01*
X42271904Y11730358D02*
X41471904Y11730358D01*
X41586190Y11654167D01*
X41662380Y11577977D01*
X41700476Y11501786D01*
X38931904Y9177977D02*
X39579523Y9177977D01*
X39655714Y9216072D01*
X39693809Y9254167D01*
X39731904Y9330358D01*
X39731904Y9482739D01*
X39693809Y9558929D01*
X39655714Y9597024D01*
X39579523Y9635120D01*
X38931904Y9635120D01*
X38931904Y10168453D02*
X38931904Y10244643D01*
X38970000Y10320834D01*
X39008095Y10358929D01*
X39084285Y10397024D01*
X39236666Y10435120D01*
X39427142Y10435120D01*
X39579523Y10397024D01*
X39655714Y10358929D01*
X39693809Y10320834D01*
X39731904Y10244643D01*
X39731904Y10168453D01*
X39693809Y10092262D01*
X39655714Y10054167D01*
X39579523Y10016072D01*
X39427142Y9977977D01*
X39236666Y9977977D01*
X39084285Y10016072D01*
X39008095Y10054167D01*
X38970000Y10092262D01*
X38931904Y10168453D01*
X61791904Y2201310D02*
X61791904Y1820358D01*
X62172857Y1782262D01*
X62134761Y1820358D01*
X62096666Y1896548D01*
X62096666Y2087024D01*
X62134761Y2163215D01*
X62172857Y2201310D01*
X62249047Y2239405D01*
X62439523Y2239405D01*
X62515714Y2201310D01*
X62553809Y2163215D01*
X62591904Y2087024D01*
X62591904Y1896548D01*
X62553809Y1820358D01*
X62515714Y1782262D01*
X61791904Y2467977D02*
X62591904Y2734643D01*
X61791904Y3001310D01*
X44811904Y38358453D02*
X44011904Y38358453D01*
X44011904Y38663215D01*
X44050000Y38739405D01*
X44088095Y38777500D01*
X44164285Y38815596D01*
X44278571Y38815596D01*
X44354761Y38777500D01*
X44392857Y38739405D01*
X44430952Y38663215D01*
X44430952Y38358453D01*
X44583333Y39120358D02*
X44583333Y39501310D01*
X44811904Y39044167D02*
X44011904Y39310834D01*
X44811904Y39577500D01*
X44811904Y40263215D02*
X44811904Y39806072D01*
X44811904Y40034643D02*
X44011904Y40034643D01*
X44126190Y39958453D01*
X44202380Y39882262D01*
X44240476Y39806072D01*
X44011904Y40987024D02*
X44011904Y40606072D01*
X44392857Y40567977D01*
X44354761Y40606072D01*
X44316666Y40682262D01*
X44316666Y40872739D01*
X44354761Y40948929D01*
X44392857Y40987024D01*
X44469047Y41025120D01*
X44659523Y41025120D01*
X44735714Y40987024D01*
X44773809Y40948929D01*
X44811904Y40872739D01*
X44811904Y40682262D01*
X44773809Y40606072D01*
X44735714Y40567977D01*
X21951904Y906072D02*
X21151904Y906072D01*
X21151904Y1210834D01*
X21190000Y1287024D01*
X21228095Y1325120D01*
X21304285Y1363215D01*
X21418571Y1363215D01*
X21494761Y1325120D01*
X21532857Y1287024D01*
X21570952Y1210834D01*
X21570952Y906072D01*
X21875714Y2163215D02*
X21913809Y2125120D01*
X21951904Y2010834D01*
X21951904Y1934643D01*
X21913809Y1820358D01*
X21837619Y1744167D01*
X21761428Y1706072D01*
X21609047Y1667977D01*
X21494761Y1667977D01*
X21342380Y1706072D01*
X21266190Y1744167D01*
X21190000Y1820358D01*
X21151904Y1934643D01*
X21151904Y2010834D01*
X21190000Y2125120D01*
X21228095Y2163215D01*
X21228095Y2467977D02*
X21190000Y2506072D01*
X21151904Y2582262D01*
X21151904Y2772739D01*
X21190000Y2848929D01*
X21228095Y2887024D01*
X21304285Y2925120D01*
X21380476Y2925120D01*
X21494761Y2887024D01*
X21951904Y2429881D01*
X21951904Y2925120D01*
X16871904Y9177977D02*
X16071904Y9177977D01*
X16871904Y9635120D01*
X16071904Y9635120D01*
X16871904Y10473215D02*
X16490952Y10206548D01*
X16871904Y10016072D02*
X16071904Y10016072D01*
X16071904Y10320834D01*
X16110000Y10397024D01*
X16148095Y10435120D01*
X16224285Y10473215D01*
X16338571Y10473215D01*
X16414761Y10435120D01*
X16452857Y10397024D01*
X16490952Y10320834D01*
X16490952Y10016072D01*
X16833809Y10777977D02*
X16871904Y10892262D01*
X16871904Y11082739D01*
X16833809Y11158929D01*
X16795714Y11197024D01*
X16719523Y11235120D01*
X16643333Y11235120D01*
X16567142Y11197024D01*
X16529047Y11158929D01*
X16490952Y11082739D01*
X16452857Y10930358D01*
X16414761Y10854167D01*
X16376666Y10816072D01*
X16300476Y10777977D01*
X16224285Y10777977D01*
X16148095Y10816072D01*
X16110000Y10854167D01*
X16071904Y10930358D01*
X16071904Y11120834D01*
X16110000Y11235120D01*
X16071904Y11463691D02*
X16071904Y11920834D01*
X16871904Y11692262D02*
X16071904Y11692262D01*
X39731904Y906072D02*
X38931904Y906072D01*
X38931904Y1210834D01*
X38970000Y1287024D01*
X39008095Y1325120D01*
X39084285Y1363215D01*
X39198571Y1363215D01*
X39274761Y1325120D01*
X39312857Y1287024D01*
X39350952Y1210834D01*
X39350952Y906072D01*
X39312857Y1972739D02*
X39350952Y2087024D01*
X39389047Y2125120D01*
X39465238Y2163215D01*
X39579523Y2163215D01*
X39655714Y2125120D01*
X39693809Y2087024D01*
X39731904Y2010834D01*
X39731904Y1706072D01*
X38931904Y1706072D01*
X38931904Y1972739D01*
X38970000Y2048929D01*
X39008095Y2087024D01*
X39084285Y2125120D01*
X39160476Y2125120D01*
X39236666Y2087024D01*
X39274761Y2048929D01*
X39312857Y1972739D01*
X39312857Y1706072D01*
X39008095Y2467977D02*
X38970000Y2506072D01*
X38931904Y2582262D01*
X38931904Y2772739D01*
X38970000Y2848929D01*
X39008095Y2887024D01*
X39084285Y2925120D01*
X39160476Y2925120D01*
X39274761Y2887024D01*
X39731904Y2429881D01*
X39731904Y2925120D01*
X37191904Y9177977D02*
X36391904Y9177977D01*
X36391904Y9482739D01*
X36430000Y9558929D01*
X36468095Y9597024D01*
X36544285Y9635120D01*
X36658571Y9635120D01*
X36734761Y9597024D01*
X36772857Y9558929D01*
X36810952Y9482739D01*
X36810952Y9177977D01*
X36772857Y10244643D02*
X36810952Y10358929D01*
X36849047Y10397024D01*
X36925238Y10435120D01*
X37039523Y10435120D01*
X37115714Y10397024D01*
X37153809Y10358929D01*
X37191904Y10282739D01*
X37191904Y9977977D01*
X36391904Y9977977D01*
X36391904Y10244643D01*
X36430000Y10320834D01*
X36468095Y10358929D01*
X36544285Y10397024D01*
X36620476Y10397024D01*
X36696666Y10358929D01*
X36734761Y10320834D01*
X36772857Y10244643D01*
X36772857Y9977977D01*
X37191904Y11197024D02*
X37191904Y10739881D01*
X37191904Y10968453D02*
X36391904Y10968453D01*
X36506190Y10892262D01*
X36582380Y10816072D01*
X36620476Y10739881D01*
X56711904Y47912977D02*
X57359523Y47912977D01*
X57435714Y47951072D01*
X57473809Y47989167D01*
X57511904Y48065358D01*
X57511904Y48217739D01*
X57473809Y48293929D01*
X57435714Y48332024D01*
X57359523Y48370120D01*
X56711904Y48370120D01*
X57511904Y49170120D02*
X57511904Y48712977D01*
X57511904Y48941548D02*
X56711904Y48941548D01*
X56826190Y48865358D01*
X56902380Y48789167D01*
X56940476Y48712977D01*
X56711904Y49893929D02*
X56711904Y49512977D01*
X57092857Y49474881D01*
X57054761Y49512977D01*
X57016666Y49589167D01*
X57016666Y49779643D01*
X57054761Y49855834D01*
X57092857Y49893929D01*
X57169047Y49932024D01*
X57359523Y49932024D01*
X57435714Y49893929D01*
X57473809Y49855834D01*
X57511904Y49779643D01*
X57511904Y49589167D01*
X57473809Y49512977D01*
X57435714Y49474881D01*
X13570000Y9597024D02*
X13531904Y9520834D01*
X13531904Y9406548D01*
X13570000Y9292262D01*
X13646190Y9216072D01*
X13722380Y9177977D01*
X13874761Y9139881D01*
X13989047Y9139881D01*
X14141428Y9177977D01*
X14217619Y9216072D01*
X14293809Y9292262D01*
X14331904Y9406548D01*
X14331904Y9482739D01*
X14293809Y9597024D01*
X14255714Y9635120D01*
X13989047Y9635120D01*
X13989047Y9482739D01*
X14331904Y9977977D02*
X13531904Y9977977D01*
X14331904Y10435120D01*
X13531904Y10435120D01*
X14331904Y10816072D02*
X13531904Y10816072D01*
X13531904Y11006548D01*
X13570000Y11120834D01*
X13646190Y11197024D01*
X13722380Y11235120D01*
X13874761Y11273215D01*
X13989047Y11273215D01*
X14141428Y11235120D01*
X14217619Y11197024D01*
X14293809Y11120834D01*
X14331904Y11006548D01*
X14331904Y10816072D01*
X29571904Y1020358D02*
X28771904Y1020358D01*
X28771904Y1325120D01*
X28810000Y1401310D01*
X28848095Y1439405D01*
X28924285Y1477500D01*
X29038571Y1477500D01*
X29114761Y1439405D01*
X29152857Y1401310D01*
X29190952Y1325120D01*
X29190952Y1020358D01*
X29343333Y1782262D02*
X29343333Y2163215D01*
X29571904Y1706072D02*
X28771904Y1972739D01*
X29571904Y2239405D01*
X29038571Y2848929D02*
X29571904Y2848929D01*
X28733809Y2658453D02*
X29305238Y2467977D01*
X29305238Y2963215D01*
X56711904Y9177977D02*
X57359523Y9177977D01*
X57435714Y9216072D01*
X57473809Y9254167D01*
X57511904Y9330358D01*
X57511904Y9482739D01*
X57473809Y9558929D01*
X57435714Y9597024D01*
X57359523Y9635120D01*
X56711904Y9635120D01*
X56978571Y10358929D02*
X57511904Y10358929D01*
X56673809Y10168453D02*
X57245238Y9977977D01*
X57245238Y10473215D01*
X27031904Y39006072D02*
X26231904Y39006072D01*
X26231904Y39310834D01*
X26270000Y39387024D01*
X26308095Y39425120D01*
X26384285Y39463215D01*
X26498571Y39463215D01*
X26574761Y39425120D01*
X26612857Y39387024D01*
X26650952Y39310834D01*
X26650952Y39006072D01*
X26612857Y40072739D02*
X26650952Y40187024D01*
X26689047Y40225120D01*
X26765238Y40263215D01*
X26879523Y40263215D01*
X26955714Y40225120D01*
X26993809Y40187024D01*
X27031904Y40110834D01*
X27031904Y39806072D01*
X26231904Y39806072D01*
X26231904Y40072739D01*
X26270000Y40148929D01*
X26308095Y40187024D01*
X26384285Y40225120D01*
X26460476Y40225120D01*
X26536666Y40187024D01*
X26574761Y40148929D01*
X26612857Y40072739D01*
X26612857Y39806072D01*
X27031904Y40644167D02*
X27031904Y40796548D01*
X26993809Y40872739D01*
X26955714Y40910834D01*
X26841428Y40987024D01*
X26689047Y41025120D01*
X26384285Y41025120D01*
X26308095Y40987024D01*
X26270000Y40948929D01*
X26231904Y40872739D01*
X26231904Y40720358D01*
X26270000Y40644167D01*
X26308095Y40606072D01*
X26384285Y40567977D01*
X26574761Y40567977D01*
X26650952Y40606072D01*
X26689047Y40644167D01*
X26727142Y40720358D01*
X26727142Y40872739D01*
X26689047Y40948929D01*
X26650952Y40987024D01*
X26574761Y41025120D01*
X42271904Y144167D02*
X41471904Y144167D01*
X41471904Y448929D01*
X41510000Y525120D01*
X41548095Y563215D01*
X41624285Y601310D01*
X41738571Y601310D01*
X41814761Y563215D01*
X41852857Y525120D01*
X41890952Y448929D01*
X41890952Y144167D01*
X41852857Y1210834D02*
X41890952Y1325120D01*
X41929047Y1363215D01*
X42005238Y1401310D01*
X42119523Y1401310D01*
X42195714Y1363215D01*
X42233809Y1325120D01*
X42271904Y1248929D01*
X42271904Y944167D01*
X41471904Y944167D01*
X41471904Y1210834D01*
X41510000Y1287024D01*
X41548095Y1325120D01*
X41624285Y1363215D01*
X41700476Y1363215D01*
X41776666Y1325120D01*
X41814761Y1287024D01*
X41852857Y1210834D01*
X41852857Y944167D01*
X42271904Y2163215D02*
X42271904Y1706072D01*
X42271904Y1934643D02*
X41471904Y1934643D01*
X41586190Y1858453D01*
X41662380Y1782262D01*
X41700476Y1706072D01*
X41471904Y2658453D02*
X41471904Y2734643D01*
X41510000Y2810834D01*
X41548095Y2848929D01*
X41624285Y2887024D01*
X41776666Y2925120D01*
X41967142Y2925120D01*
X42119523Y2887024D01*
X42195714Y2848929D01*
X42233809Y2810834D01*
X42271904Y2734643D01*
X42271904Y2658453D01*
X42233809Y2582262D01*
X42195714Y2544167D01*
X42119523Y2506072D01*
X41967142Y2467977D01*
X41776666Y2467977D01*
X41624285Y2506072D01*
X41548095Y2544167D01*
X41510000Y2582262D01*
X41471904Y2658453D01*
X32111904Y9177977D02*
X31311904Y9177977D01*
X31311904Y9482739D01*
X31350000Y9558929D01*
X31388095Y9597024D01*
X31464285Y9635120D01*
X31578571Y9635120D01*
X31654761Y9597024D01*
X31692857Y9558929D01*
X31730952Y9482739D01*
X31730952Y9177977D01*
X31883333Y9939881D02*
X31883333Y10320834D01*
X32111904Y9863691D02*
X31311904Y10130358D01*
X32111904Y10397024D01*
X31311904Y10587500D02*
X31311904Y11120834D01*
X32111904Y10777977D01*
X61791904Y48293929D02*
X61791904Y47912977D01*
X62172857Y47874881D01*
X62134761Y47912977D01*
X62096666Y47989167D01*
X62096666Y48179643D01*
X62134761Y48255834D01*
X62172857Y48293929D01*
X62249047Y48332024D01*
X62439523Y48332024D01*
X62515714Y48293929D01*
X62553809Y48255834D01*
X62591904Y48179643D01*
X62591904Y47989167D01*
X62553809Y47912977D01*
X62515714Y47874881D01*
X61791904Y48560596D02*
X62591904Y48827262D01*
X61791904Y49093929D01*
X47351904Y47912977D02*
X46551904Y47912977D01*
X46551904Y48217739D01*
X46590000Y48293929D01*
X46628095Y48332024D01*
X46704285Y48370120D01*
X46818571Y48370120D01*
X46894761Y48332024D01*
X46932857Y48293929D01*
X46970952Y48217739D01*
X46970952Y47912977D01*
X47123333Y48674881D02*
X47123333Y49055834D01*
X47351904Y48598691D02*
X46551904Y48865358D01*
X47351904Y49132024D01*
X47351904Y49817739D02*
X47351904Y49360596D01*
X47351904Y49589167D02*
X46551904Y49589167D01*
X46666190Y49512977D01*
X46742380Y49436786D01*
X46780476Y49360596D01*
X46628095Y50122500D02*
X46590000Y50160596D01*
X46551904Y50236786D01*
X46551904Y50427262D01*
X46590000Y50503453D01*
X46628095Y50541548D01*
X46704285Y50579643D01*
X46780476Y50579643D01*
X46894761Y50541548D01*
X47351904Y50084405D01*
X47351904Y50579643D01*
X59251904Y47836786D02*
X59251904Y48332024D01*
X59556666Y48065358D01*
X59556666Y48179643D01*
X59594761Y48255834D01*
X59632857Y48293929D01*
X59709047Y48332024D01*
X59899523Y48332024D01*
X59975714Y48293929D01*
X60013809Y48255834D01*
X60051904Y48179643D01*
X60051904Y47951072D01*
X60013809Y47874881D01*
X59975714Y47836786D01*
X59975714Y48674881D02*
X60013809Y48712977D01*
X60051904Y48674881D01*
X60013809Y48636786D01*
X59975714Y48674881D01*
X60051904Y48674881D01*
X59251904Y48979643D02*
X59251904Y49474881D01*
X59556666Y49208215D01*
X59556666Y49322500D01*
X59594761Y49398691D01*
X59632857Y49436786D01*
X59709047Y49474881D01*
X59899523Y49474881D01*
X59975714Y49436786D01*
X60013809Y49398691D01*
X60051904Y49322500D01*
X60051904Y49093929D01*
X60013809Y49017739D01*
X59975714Y48979643D01*
X59251904Y49703453D02*
X60051904Y49970120D01*
X59251904Y50236786D01*
X18611904Y47912977D02*
X19259523Y47912977D01*
X19335714Y47951072D01*
X19373809Y47989167D01*
X19411904Y48065358D01*
X19411904Y48217739D01*
X19373809Y48293929D01*
X19335714Y48332024D01*
X19259523Y48370120D01*
X18611904Y48370120D01*
X18611904Y48674881D02*
X18611904Y49208215D01*
X19411904Y48865358D01*
X49891904Y906072D02*
X49091904Y906072D01*
X49091904Y1210834D01*
X49130000Y1287024D01*
X49168095Y1325120D01*
X49244285Y1363215D01*
X49358571Y1363215D01*
X49434761Y1325120D01*
X49472857Y1287024D01*
X49510952Y1210834D01*
X49510952Y906072D01*
X49815714Y2163215D02*
X49853809Y2125120D01*
X49891904Y2010834D01*
X49891904Y1934643D01*
X49853809Y1820358D01*
X49777619Y1744167D01*
X49701428Y1706072D01*
X49549047Y1667977D01*
X49434761Y1667977D01*
X49282380Y1706072D01*
X49206190Y1744167D01*
X49130000Y1820358D01*
X49091904Y1934643D01*
X49091904Y2010834D01*
X49130000Y2125120D01*
X49168095Y2163215D01*
X49091904Y2848929D02*
X49091904Y2696548D01*
X49130000Y2620358D01*
X49168095Y2582262D01*
X49282380Y2506072D01*
X49434761Y2467977D01*
X49739523Y2467977D01*
X49815714Y2506072D01*
X49853809Y2544167D01*
X49891904Y2620358D01*
X49891904Y2772739D01*
X49853809Y2848929D01*
X49815714Y2887024D01*
X49739523Y2925120D01*
X49549047Y2925120D01*
X49472857Y2887024D01*
X49434761Y2848929D01*
X49396666Y2772739D01*
X49396666Y2620358D01*
X49434761Y2544167D01*
X49472857Y2506072D01*
X49549047Y2467977D01*
X44811904Y144167D02*
X44011904Y144167D01*
X44011904Y448929D01*
X44050000Y525120D01*
X44088095Y563215D01*
X44164285Y601310D01*
X44278571Y601310D01*
X44354761Y563215D01*
X44392857Y525120D01*
X44430952Y448929D01*
X44430952Y144167D01*
X44392857Y1210834D02*
X44430952Y1325120D01*
X44469047Y1363215D01*
X44545238Y1401310D01*
X44659523Y1401310D01*
X44735714Y1363215D01*
X44773809Y1325120D01*
X44811904Y1248929D01*
X44811904Y944167D01*
X44011904Y944167D01*
X44011904Y1210834D01*
X44050000Y1287024D01*
X44088095Y1325120D01*
X44164285Y1363215D01*
X44240476Y1363215D01*
X44316666Y1325120D01*
X44354761Y1287024D01*
X44392857Y1210834D01*
X44392857Y944167D01*
X44811904Y2163215D02*
X44811904Y1706072D01*
X44811904Y1934643D02*
X44011904Y1934643D01*
X44126190Y1858453D01*
X44202380Y1782262D01*
X44240476Y1706072D01*
X44088095Y2467977D02*
X44050000Y2506072D01*
X44011904Y2582262D01*
X44011904Y2772739D01*
X44050000Y2848929D01*
X44088095Y2887024D01*
X44164285Y2925120D01*
X44240476Y2925120D01*
X44354761Y2887024D01*
X44811904Y2429881D01*
X44811904Y2925120D01*
X21951904Y38244167D02*
X21151904Y38244167D01*
X21151904Y38548929D01*
X21190000Y38625120D01*
X21228095Y38663215D01*
X21304285Y38701310D01*
X21418571Y38701310D01*
X21494761Y38663215D01*
X21532857Y38625120D01*
X21570952Y38548929D01*
X21570952Y38244167D01*
X21875714Y39501310D02*
X21913809Y39463215D01*
X21951904Y39348929D01*
X21951904Y39272739D01*
X21913809Y39158453D01*
X21837619Y39082262D01*
X21761428Y39044167D01*
X21609047Y39006072D01*
X21494761Y39006072D01*
X21342380Y39044167D01*
X21266190Y39082262D01*
X21190000Y39158453D01*
X21151904Y39272739D01*
X21151904Y39348929D01*
X21190000Y39463215D01*
X21228095Y39501310D01*
X21951904Y40263215D02*
X21951904Y39806072D01*
X21951904Y40034643D02*
X21151904Y40034643D01*
X21266190Y39958453D01*
X21342380Y39882262D01*
X21380476Y39806072D01*
X21151904Y40529881D02*
X21151904Y41025120D01*
X21456666Y40758453D01*
X21456666Y40872739D01*
X21494761Y40948929D01*
X21532857Y40987024D01*
X21609047Y41025120D01*
X21799523Y41025120D01*
X21875714Y40987024D01*
X21913809Y40948929D01*
X21951904Y40872739D01*
X21951904Y40644167D01*
X21913809Y40567977D01*
X21875714Y40529881D01*
X27031904Y9177977D02*
X26231904Y9177977D01*
X26231904Y9482739D01*
X26270000Y9558929D01*
X26308095Y9597024D01*
X26384285Y9635120D01*
X26498571Y9635120D01*
X26574761Y9597024D01*
X26612857Y9558929D01*
X26650952Y9482739D01*
X26650952Y9177977D01*
X26803333Y9939881D02*
X26803333Y10320834D01*
X27031904Y9863691D02*
X26231904Y10130358D01*
X27031904Y10397024D01*
X26231904Y10587500D02*
X26231904Y11082739D01*
X26536666Y10816072D01*
X26536666Y10930358D01*
X26574761Y11006548D01*
X26612857Y11044643D01*
X26689047Y11082739D01*
X26879523Y11082739D01*
X26955714Y11044643D01*
X26993809Y11006548D01*
X27031904Y10930358D01*
X27031904Y10701786D01*
X26993809Y10625596D01*
X26955714Y10587500D01*
X59290000Y9597024D02*
X59251904Y9520834D01*
X59251904Y9406548D01*
X59290000Y9292262D01*
X59366190Y9216072D01*
X59442380Y9177977D01*
X59594761Y9139881D01*
X59709047Y9139881D01*
X59861428Y9177977D01*
X59937619Y9216072D01*
X60013809Y9292262D01*
X60051904Y9406548D01*
X60051904Y9482739D01*
X60013809Y9597024D01*
X59975714Y9635120D01*
X59709047Y9635120D01*
X59709047Y9482739D01*
X60051904Y9977977D02*
X59251904Y9977977D01*
X60051904Y10435120D01*
X59251904Y10435120D01*
X60051904Y10816072D02*
X59251904Y10816072D01*
X59251904Y11006548D01*
X59290000Y11120834D01*
X59366190Y11197024D01*
X59442380Y11235120D01*
X59594761Y11273215D01*
X59709047Y11273215D01*
X59861428Y11235120D01*
X59937619Y11197024D01*
X60013809Y11120834D01*
X60051904Y11006548D01*
X60051904Y10816072D01*
X61830000Y9597024D02*
X61791904Y9520834D01*
X61791904Y9406548D01*
X61830000Y9292262D01*
X61906190Y9216072D01*
X61982380Y9177977D01*
X62134761Y9139881D01*
X62249047Y9139881D01*
X62401428Y9177977D01*
X62477619Y9216072D01*
X62553809Y9292262D01*
X62591904Y9406548D01*
X62591904Y9482739D01*
X62553809Y9597024D01*
X62515714Y9635120D01*
X62249047Y9635120D01*
X62249047Y9482739D01*
X62591904Y9977977D02*
X61791904Y9977977D01*
X62591904Y10435120D01*
X61791904Y10435120D01*
X62591904Y10816072D02*
X61791904Y10816072D01*
X61791904Y11006548D01*
X61830000Y11120834D01*
X61906190Y11197024D01*
X61982380Y11235120D01*
X62134761Y11273215D01*
X62249047Y11273215D01*
X62401428Y11235120D01*
X62477619Y11197024D01*
X62553809Y11120834D01*
X62591904Y11006548D01*
X62591904Y10816072D01*
X44811904Y47912977D02*
X44011904Y47912977D01*
X44011904Y48217739D01*
X44050000Y48293929D01*
X44088095Y48332024D01*
X44164285Y48370120D01*
X44278571Y48370120D01*
X44354761Y48332024D01*
X44392857Y48293929D01*
X44430952Y48217739D01*
X44430952Y47912977D01*
X44583333Y48674881D02*
X44583333Y49055834D01*
X44811904Y48598691D02*
X44011904Y48865358D01*
X44811904Y49132024D01*
X44811904Y49817739D02*
X44811904Y49360596D01*
X44811904Y49589167D02*
X44011904Y49589167D01*
X44126190Y49512977D01*
X44202380Y49436786D01*
X44240476Y49360596D01*
X44278571Y50503453D02*
X44811904Y50503453D01*
X43973809Y50312977D02*
X44545238Y50122500D01*
X44545238Y50617739D01*
X47351904Y38358453D02*
X46551904Y38358453D01*
X46551904Y38663215D01*
X46590000Y38739405D01*
X46628095Y38777500D01*
X46704285Y38815596D01*
X46818571Y38815596D01*
X46894761Y38777500D01*
X46932857Y38739405D01*
X46970952Y38663215D01*
X46970952Y38358453D01*
X47123333Y39120358D02*
X47123333Y39501310D01*
X47351904Y39044167D02*
X46551904Y39310834D01*
X47351904Y39577500D01*
X47351904Y40263215D02*
X47351904Y39806072D01*
X47351904Y40034643D02*
X46551904Y40034643D01*
X46666190Y39958453D01*
X46742380Y39882262D01*
X46780476Y39806072D01*
X46551904Y40529881D02*
X46551904Y41025120D01*
X46856666Y40758453D01*
X46856666Y40872739D01*
X46894761Y40948929D01*
X46932857Y40987024D01*
X47009047Y41025120D01*
X47199523Y41025120D01*
X47275714Y40987024D01*
X47313809Y40948929D01*
X47351904Y40872739D01*
X47351904Y40644167D01*
X47313809Y40567977D01*
X47275714Y40529881D01*
X23691904Y47912977D02*
X24339523Y47912977D01*
X24415714Y47951072D01*
X24453809Y47989167D01*
X24491904Y48065358D01*
X24491904Y48217739D01*
X24453809Y48293929D01*
X24415714Y48332024D01*
X24339523Y48370120D01*
X23691904Y48370120D01*
X24491904Y48789167D02*
X24491904Y48941548D01*
X24453809Y49017739D01*
X24415714Y49055834D01*
X24301428Y49132024D01*
X24149047Y49170120D01*
X23844285Y49170120D01*
X23768095Y49132024D01*
X23730000Y49093929D01*
X23691904Y49017739D01*
X23691904Y48865358D01*
X23730000Y48789167D01*
X23768095Y48751072D01*
X23844285Y48712977D01*
X24034761Y48712977D01*
X24110952Y48751072D01*
X24149047Y48789167D01*
X24187142Y48865358D01*
X24187142Y49017739D01*
X24149047Y49093929D01*
X24110952Y49132024D01*
X24034761Y49170120D01*
X44811904Y9177977D02*
X44011904Y9177977D01*
X44011904Y9482739D01*
X44050000Y9558929D01*
X44088095Y9597024D01*
X44164285Y9635120D01*
X44278571Y9635120D01*
X44354761Y9597024D01*
X44392857Y9558929D01*
X44430952Y9482739D01*
X44430952Y9177977D01*
X44392857Y10244643D02*
X44430952Y10358929D01*
X44469047Y10397024D01*
X44545238Y10435120D01*
X44659523Y10435120D01*
X44735714Y10397024D01*
X44773809Y10358929D01*
X44811904Y10282739D01*
X44811904Y9977977D01*
X44011904Y9977977D01*
X44011904Y10244643D01*
X44050000Y10320834D01*
X44088095Y10358929D01*
X44164285Y10397024D01*
X44240476Y10397024D01*
X44316666Y10358929D01*
X44354761Y10320834D01*
X44392857Y10244643D01*
X44392857Y9977977D01*
X44811904Y11197024D02*
X44811904Y10739881D01*
X44811904Y10968453D02*
X44011904Y10968453D01*
X44126190Y10892262D01*
X44202380Y10816072D01*
X44240476Y10739881D01*
X44011904Y11463691D02*
X44011904Y11958929D01*
X44316666Y11692262D01*
X44316666Y11806548D01*
X44354761Y11882739D01*
X44392857Y11920834D01*
X44469047Y11958929D01*
X44659523Y11958929D01*
X44735714Y11920834D01*
X44773809Y11882739D01*
X44811904Y11806548D01*
X44811904Y11577977D01*
X44773809Y11501786D01*
X44735714Y11463691D01*
X32111904Y39006072D02*
X31311904Y39006072D01*
X31311904Y39310834D01*
X31350000Y39387024D01*
X31388095Y39425120D01*
X31464285Y39463215D01*
X31578571Y39463215D01*
X31654761Y39425120D01*
X31692857Y39387024D01*
X31730952Y39310834D01*
X31730952Y39006072D01*
X31692857Y40072739D02*
X31730952Y40187024D01*
X31769047Y40225120D01*
X31845238Y40263215D01*
X31959523Y40263215D01*
X32035714Y40225120D01*
X32073809Y40187024D01*
X32111904Y40110834D01*
X32111904Y39806072D01*
X31311904Y39806072D01*
X31311904Y40072739D01*
X31350000Y40148929D01*
X31388095Y40187024D01*
X31464285Y40225120D01*
X31540476Y40225120D01*
X31616666Y40187024D01*
X31654761Y40148929D01*
X31692857Y40072739D01*
X31692857Y39806072D01*
X31311904Y40987024D02*
X31311904Y40606072D01*
X31692857Y40567977D01*
X31654761Y40606072D01*
X31616666Y40682262D01*
X31616666Y40872739D01*
X31654761Y40948929D01*
X31692857Y40987024D01*
X31769047Y41025120D01*
X31959523Y41025120D01*
X32035714Y40987024D01*
X32073809Y40948929D01*
X32111904Y40872739D01*
X32111904Y40682262D01*
X32073809Y40606072D01*
X32035714Y40567977D01*
X49891904Y47912977D02*
X49091904Y47912977D01*
X49091904Y48217739D01*
X49130000Y48293929D01*
X49168095Y48332024D01*
X49244285Y48370120D01*
X49358571Y48370120D01*
X49434761Y48332024D01*
X49472857Y48293929D01*
X49510952Y48217739D01*
X49510952Y47912977D01*
X49663333Y48674881D02*
X49663333Y49055834D01*
X49891904Y48598691D02*
X49091904Y48865358D01*
X49891904Y49132024D01*
X49891904Y49817739D02*
X49891904Y49360596D01*
X49891904Y49589167D02*
X49091904Y49589167D01*
X49206190Y49512977D01*
X49282380Y49436786D01*
X49320476Y49360596D01*
X49091904Y50312977D02*
X49091904Y50389167D01*
X49130000Y50465358D01*
X49168095Y50503453D01*
X49244285Y50541548D01*
X49396666Y50579643D01*
X49587142Y50579643D01*
X49739523Y50541548D01*
X49815714Y50503453D01*
X49853809Y50465358D01*
X49891904Y50389167D01*
X49891904Y50312977D01*
X49853809Y50236786D01*
X49815714Y50198691D01*
X49739523Y50160596D01*
X49587142Y50122500D01*
X49396666Y50122500D01*
X49244285Y50160596D01*
X49168095Y50198691D01*
X49130000Y50236786D01*
X49091904Y50312977D01*
X13570000Y39348929D02*
X13531904Y39272739D01*
X13531904Y39158453D01*
X13570000Y39044167D01*
X13646190Y38967977D01*
X13722380Y38929881D01*
X13874761Y38891786D01*
X13989047Y38891786D01*
X14141428Y38929881D01*
X14217619Y38967977D01*
X14293809Y39044167D01*
X14331904Y39158453D01*
X14331904Y39234643D01*
X14293809Y39348929D01*
X14255714Y39387024D01*
X13989047Y39387024D01*
X13989047Y39234643D01*
X14331904Y39729881D02*
X13531904Y39729881D01*
X14331904Y40187024D01*
X13531904Y40187024D01*
X14331904Y40567977D02*
X13531904Y40567977D01*
X13531904Y40758453D01*
X13570000Y40872739D01*
X13646190Y40948929D01*
X13722380Y40987024D01*
X13874761Y41025120D01*
X13989047Y41025120D01*
X14141428Y40987024D01*
X14217619Y40948929D01*
X14293809Y40872739D01*
X14331904Y40758453D01*
X14331904Y40567977D01*
%TO.C,U1*%
X58293095Y30807620D02*
X58293095Y29998096D01*
X58340714Y29902858D01*
X58388333Y29855239D01*
X58483571Y29807620D01*
X58674047Y29807620D01*
X58769285Y29855239D01*
X58816904Y29902858D01*
X58864523Y29998096D01*
X58864523Y30807620D01*
X59864523Y29807620D02*
X59293095Y29807620D01*
X59578809Y29807620D02*
X59578809Y30807620D01*
X59483571Y30664762D01*
X59388333Y30569524D01*
X59293095Y30521905D01*
%TO.C,C1*%
X64603333Y30122858D02*
X64555714Y30075239D01*
X64412857Y30027620D01*
X64317619Y30027620D01*
X64174761Y30075239D01*
X64079523Y30170477D01*
X64031904Y30265715D01*
X63984285Y30456191D01*
X63984285Y30599048D01*
X64031904Y30789524D01*
X64079523Y30884762D01*
X64174761Y30980000D01*
X64317619Y31027620D01*
X64412857Y31027620D01*
X64555714Y30980000D01*
X64603333Y30932381D01*
X65555714Y30027620D02*
X64984285Y30027620D01*
X65270000Y30027620D02*
X65270000Y31027620D01*
X65174761Y30884762D01*
X65079523Y30789524D01*
X64984285Y30741905D01*
D10*
%TO.C,U1*%
X56307500Y23922500D02*
X56307500Y24205000D01*
X61802500Y29417500D02*
X61802500Y29135000D01*
X56307500Y29135000D02*
X54655000Y29135000D01*
X59055000Y29417500D02*
X61802500Y29417500D01*
X59055000Y23922500D02*
X61802500Y23922500D01*
X61802500Y23922500D02*
X61802500Y24205000D01*
X56307500Y29417500D02*
X56307500Y29135000D01*
X59055000Y29417500D02*
X56307500Y29417500D01*
X59055000Y23922500D02*
X56307500Y23922500D01*
%TO.C,C1*%
X62370580Y29970000D02*
X62089420Y29970000D01*
X62370580Y30990000D02*
X62089420Y30990000D01*
%TO.C,JP2*%
X15305000Y28210000D02*
X13905000Y28210000D01*
X13205000Y28910000D02*
X13205000Y29510000D01*
X13905000Y30210000D02*
X15305000Y30210000D01*
X16005000Y29510000D02*
X16005000Y28910000D01*
X15305000Y28210000D02*
G75*
G03*
X16005000Y28910000I0J700000D01*
G01*
X16005000Y29510000D02*
G75*
G03*
X15305000Y30210000I-700000J0D01*
G01*
X13205000Y28910000D02*
G75*
G03*
X13905000Y28210000I699999J-1D01*
G01*
X13905000Y30210000D02*
G75*
G03*
X13205000Y29510000I-1J-699999D01*
G01*
%TO.C,JP3*%
X16005000Y25700000D02*
X16005000Y25100000D01*
X13905000Y26400000D02*
X15305000Y26400000D01*
X15305000Y24400000D02*
X13905000Y24400000D01*
X13205000Y25100000D02*
X13205000Y25700000D01*
X16005000Y25700000D02*
G75*
G03*
X15305000Y26400000I-700000J0D01*
G01*
X15305000Y24400000D02*
G75*
G03*
X16005000Y25100000I0J700000D01*
G01*
X13905000Y26400000D02*
G75*
G03*
X13205000Y25700000I-1J-699999D01*
G01*
X13205000Y25100000D02*
G75*
G03*
X13905000Y24400000I699999J-1D01*
G01*
%TO.C,JP4*%
X23625000Y33320000D02*
X23625000Y32720000D01*
X21525000Y34020000D02*
X22925000Y34020000D01*
X22925000Y32020000D02*
X21525000Y32020000D01*
X20825000Y32720000D02*
X20825000Y33320000D01*
X22925000Y32020000D02*
G75*
G03*
X23625000Y32720000I0J700000D01*
G01*
X20825000Y32720000D02*
G75*
G03*
X21525000Y32020000I699999J-1D01*
G01*
X23625000Y33320000D02*
G75*
G03*
X22925000Y34020000I-700000J0D01*
G01*
X21525000Y34020000D02*
G75*
G03*
X20825000Y33320000I-1J-699999D01*
G01*
%TO.C,JP5*%
X21525000Y30210000D02*
X22925000Y30210000D01*
X23625000Y29510000D02*
X23625000Y28910000D01*
X20825000Y28910000D02*
X20825000Y29510000D01*
X22925000Y28210000D02*
X21525000Y28210000D01*
X20825000Y28910000D02*
G75*
G03*
X21525000Y28210000I699999J-1D01*
G01*
X21525000Y30210000D02*
G75*
G03*
X20825000Y29510000I-1J-699999D01*
G01*
X22925000Y28210000D02*
G75*
G03*
X23625000Y28910000I0J700000D01*
G01*
X23625000Y29510000D02*
G75*
G03*
X22925000Y30210000I-700000J0D01*
G01*
%TO.C,JP6*%
X23625000Y25700000D02*
X23625000Y25100000D01*
X21525000Y26400000D02*
X22925000Y26400000D01*
X22925000Y24400000D02*
X21525000Y24400000D01*
X20825000Y25100000D02*
X20825000Y25700000D01*
X20825000Y25100000D02*
G75*
G03*
X21525000Y24400000I699999J-1D01*
G01*
X23625000Y25700000D02*
G75*
G03*
X22925000Y26400000I-700000J0D01*
G01*
X21525000Y26400000D02*
G75*
G03*
X20825000Y25700000I-1J-699999D01*
G01*
X22925000Y24400000D02*
G75*
G03*
X23625000Y25100000I0J700000D01*
G01*
%TO.C,JP1*%
X13905000Y34020000D02*
X15305000Y34020000D01*
X13205000Y32720000D02*
X13205000Y33320000D01*
X16005000Y33320000D02*
X16005000Y32720000D01*
X15305000Y32020000D02*
X13905000Y32020000D01*
X13905000Y34020000D02*
G75*
G03*
X13205000Y33320000I-1J-699999D01*
G01*
X13205000Y32720000D02*
G75*
G03*
X13905000Y32020000I699999J-1D01*
G01*
X16005000Y33320000D02*
G75*
G03*
X15305000Y34020000I-700000J0D01*
G01*
X15305000Y32020000D02*
G75*
G03*
X16005000Y32720000I0J700000D01*
G01*
%TO.C,JP7*%
X29145000Y34020000D02*
X30545000Y34020000D01*
X31245000Y33320000D02*
X31245000Y32720000D01*
X30545000Y32020000D02*
X29145000Y32020000D01*
X28445000Y32720000D02*
X28445000Y33320000D01*
X30545000Y32020000D02*
G75*
G03*
X31245000Y32720000I0J700000D01*
G01*
X29145000Y34020000D02*
G75*
G03*
X28445000Y33320000I-1J-699999D01*
G01*
X31245000Y33320000D02*
G75*
G03*
X30545000Y34020000I-700000J0D01*
G01*
X28445000Y32720000D02*
G75*
G03*
X29145000Y32020000I699999J-1D01*
G01*
%TO.C,JP9*%
X30545000Y24400000D02*
X29145000Y24400000D01*
X31245000Y25700000D02*
X31245000Y25100000D01*
X29145000Y26400000D02*
X30545000Y26400000D01*
X28445000Y25100000D02*
X28445000Y25700000D01*
X29145000Y26400000D02*
G75*
G03*
X28445000Y25700000I-1J-699999D01*
G01*
X28445000Y25100000D02*
G75*
G03*
X29145000Y24400000I699999J-1D01*
G01*
X31245000Y25700000D02*
G75*
G03*
X30545000Y26400000I-700000J0D01*
G01*
X30545000Y24400000D02*
G75*
G03*
X31245000Y25100000I0J700000D01*
G01*
%TO.C,JP8*%
X28445000Y28910000D02*
X28445000Y29510000D01*
X30545000Y28210000D02*
X29145000Y28210000D01*
X29145000Y30210000D02*
X30545000Y30210000D01*
X31245000Y29510000D02*
X31245000Y28910000D01*
X28445000Y28910000D02*
G75*
G03*
X29145000Y28210000I699999J-1D01*
G01*
X30545000Y28210000D02*
G75*
G03*
X31245000Y28910000I0J700000D01*
G01*
X31245000Y29510000D02*
G75*
G03*
X30545000Y30210000I-700000J0D01*
G01*
X29145000Y30210000D02*
G75*
G03*
X28445000Y29510000I-1J-699999D01*
G01*
%TO.C,JP12*%
X38165000Y24400000D02*
X36765000Y24400000D01*
X38865000Y25700000D02*
X38865000Y25100000D01*
X36765000Y26400000D02*
X38165000Y26400000D01*
X36065000Y25100000D02*
X36065000Y25700000D01*
X36065000Y25100000D02*
G75*
G03*
X36765000Y24400000I699999J-1D01*
G01*
X36765000Y26400000D02*
G75*
G03*
X36065000Y25700000I-1J-699999D01*
G01*
X38865000Y25700000D02*
G75*
G03*
X38165000Y26400000I-700000J0D01*
G01*
X38165000Y24400000D02*
G75*
G03*
X38865000Y25100000I0J700000D01*
G01*
%TO.C,JP11*%
X38165000Y28210000D02*
X36765000Y28210000D01*
X38865000Y29510000D02*
X38865000Y28910000D01*
X36065000Y28910000D02*
X36065000Y29510000D01*
X36765000Y30210000D02*
X38165000Y30210000D01*
X38165000Y28210000D02*
G75*
G03*
X38865000Y28910000I0J700000D01*
G01*
X36765000Y30210000D02*
G75*
G03*
X36065000Y29510000I-1J-699999D01*
G01*
X38865000Y29510000D02*
G75*
G03*
X38165000Y30210000I-700000J0D01*
G01*
X36065000Y28910000D02*
G75*
G03*
X36765000Y28210000I699999J-1D01*
G01*
%TO.C,JP10*%
X38865000Y33320000D02*
X38865000Y32720000D01*
X36065000Y32720000D02*
X36065000Y33320000D01*
X38165000Y32020000D02*
X36765000Y32020000D01*
X36765000Y34020000D02*
X38165000Y34020000D01*
X36065000Y32720000D02*
G75*
G03*
X36765000Y32020000I699999J-1D01*
G01*
X36765000Y34020000D02*
G75*
G03*
X36065000Y33320000I-1J-699999D01*
G01*
X38165000Y32020000D02*
G75*
G03*
X38865000Y32720000I0J700000D01*
G01*
X38865000Y33320000D02*
G75*
G03*
X38165000Y34020000I-700000J0D01*
G01*
%TD*%
M02*
