G04 #@! TF.GenerationSoftware,KiCad,Pcbnew,7.0.5+dfsg-2*
G04 #@! TF.CreationDate,2023-07-13T13:02:35+08:00*
G04 #@! TF.ProjectId,memw25q128,6d656d77-3235-4713-9132-382e6b696361,a*
G04 #@! TF.SameCoordinates,PX65bcec0PY76b1be0*
G04 #@! TF.FileFunction,Legend,Top*
G04 #@! TF.FilePolarity,Positive*
%FSLAX46Y46*%
G04 Gerber Fmt 4.6, Leading zero omitted, Abs format (unit mm)*
G04 Created by KiCad (PCBNEW 7.0.5+dfsg-2) date 2023-07-13 13:02:35*
%MOMM*%
%LPD*%
G01*
G04 APERTURE LIST*
%ADD10C,0.120000*%
%ADD11C,0.150000*%
G04 APERTURE END LIST*
D10*
X6350000Y25400000D02*
X13970000Y25400000D01*
X13970000Y33020000D02*
X6350000Y33020000D01*
X6350000Y36830000D02*
X6350000Y25400000D01*
X13970000Y29210000D02*
X6350000Y29210000D01*
X45720000Y25400000D02*
X13970000Y25400000D01*
X45720000Y29210000D02*
X13970000Y29210000D01*
X13970000Y33020000D02*
X45720000Y33020000D01*
X13970000Y36830000D02*
X45720000Y36830000D01*
X45720000Y36830000D02*
X45720000Y25400000D01*
X13970000Y36830000D02*
X6350000Y36830000D01*
D11*
X18751779Y30660181D02*
X18751779Y31660181D01*
X18751779Y31660181D02*
X19132731Y31660181D01*
X19132731Y31660181D02*
X19227969Y31612562D01*
X19227969Y31612562D02*
X19275588Y31564943D01*
X19275588Y31564943D02*
X19323207Y31469705D01*
X19323207Y31469705D02*
X19323207Y31326848D01*
X19323207Y31326848D02*
X19275588Y31231610D01*
X19275588Y31231610D02*
X19227969Y31183991D01*
X19227969Y31183991D02*
X19132731Y31136372D01*
X19132731Y31136372D02*
X18751779Y31136372D01*
X19704160Y30945896D02*
X20180350Y30945896D01*
X19608922Y30660181D02*
X19942255Y31660181D01*
X19942255Y31660181D02*
X20275588Y30660181D01*
X21132731Y30660181D02*
X20561303Y30660181D01*
X20847017Y30660181D02*
X20847017Y31660181D01*
X20847017Y31660181D02*
X20751779Y31517324D01*
X20751779Y31517324D02*
X20656541Y31422086D01*
X20656541Y31422086D02*
X20561303Y31374467D01*
X22037493Y31660181D02*
X21561303Y31660181D01*
X21561303Y31660181D02*
X21513684Y31183991D01*
X21513684Y31183991D02*
X21561303Y31231610D01*
X21561303Y31231610D02*
X21656541Y31279229D01*
X21656541Y31279229D02*
X21894636Y31279229D01*
X21894636Y31279229D02*
X21989874Y31231610D01*
X21989874Y31231610D02*
X22037493Y31183991D01*
X22037493Y31183991D02*
X22085112Y31088753D01*
X22085112Y31088753D02*
X22085112Y30850658D01*
X22085112Y30850658D02*
X22037493Y30755420D01*
X22037493Y30755420D02*
X21989874Y30707800D01*
X21989874Y30707800D02*
X21894636Y30660181D01*
X21894636Y30660181D02*
X21656541Y30660181D01*
X21656541Y30660181D02*
X21561303Y30707800D01*
X21561303Y30707800D02*
X21513684Y30755420D01*
X18751779Y26850181D02*
X18751779Y27850181D01*
X18751779Y27850181D02*
X19132731Y27850181D01*
X19132731Y27850181D02*
X19227969Y27802562D01*
X19227969Y27802562D02*
X19275588Y27754943D01*
X19275588Y27754943D02*
X19323207Y27659705D01*
X19323207Y27659705D02*
X19323207Y27516848D01*
X19323207Y27516848D02*
X19275588Y27421610D01*
X19275588Y27421610D02*
X19227969Y27373991D01*
X19227969Y27373991D02*
X19132731Y27326372D01*
X19132731Y27326372D02*
X18751779Y27326372D01*
X20085112Y27373991D02*
X20227969Y27326372D01*
X20227969Y27326372D02*
X20275588Y27278753D01*
X20275588Y27278753D02*
X20323207Y27183515D01*
X20323207Y27183515D02*
X20323207Y27040658D01*
X20323207Y27040658D02*
X20275588Y26945420D01*
X20275588Y26945420D02*
X20227969Y26897800D01*
X20227969Y26897800D02*
X20132731Y26850181D01*
X20132731Y26850181D02*
X19751779Y26850181D01*
X19751779Y26850181D02*
X19751779Y27850181D01*
X19751779Y27850181D02*
X20085112Y27850181D01*
X20085112Y27850181D02*
X20180350Y27802562D01*
X20180350Y27802562D02*
X20227969Y27754943D01*
X20227969Y27754943D02*
X20275588Y27659705D01*
X20275588Y27659705D02*
X20275588Y27564467D01*
X20275588Y27564467D02*
X20227969Y27469229D01*
X20227969Y27469229D02*
X20180350Y27421610D01*
X20180350Y27421610D02*
X20085112Y27373991D01*
X20085112Y27373991D02*
X19751779Y27373991D01*
X21275588Y26850181D02*
X20704160Y26850181D01*
X20989874Y26850181D02*
X20989874Y27850181D01*
X20989874Y27850181D02*
X20894636Y27707324D01*
X20894636Y27707324D02*
X20799398Y27612086D01*
X20799398Y27612086D02*
X20704160Y27564467D01*
X21656541Y27754943D02*
X21704160Y27802562D01*
X21704160Y27802562D02*
X21799398Y27850181D01*
X21799398Y27850181D02*
X22037493Y27850181D01*
X22037493Y27850181D02*
X22132731Y27802562D01*
X22132731Y27802562D02*
X22180350Y27754943D01*
X22180350Y27754943D02*
X22227969Y27659705D01*
X22227969Y27659705D02*
X22227969Y27564467D01*
X22227969Y27564467D02*
X22180350Y27421610D01*
X22180350Y27421610D02*
X21608922Y26850181D01*
X21608922Y26850181D02*
X22227969Y26850181D01*
X26371779Y34470181D02*
X26371779Y35470181D01*
X26371779Y35470181D02*
X26752731Y35470181D01*
X26752731Y35470181D02*
X26847969Y35422562D01*
X26847969Y35422562D02*
X26895588Y35374943D01*
X26895588Y35374943D02*
X26943207Y35279705D01*
X26943207Y35279705D02*
X26943207Y35136848D01*
X26943207Y35136848D02*
X26895588Y35041610D01*
X26895588Y35041610D02*
X26847969Y34993991D01*
X26847969Y34993991D02*
X26752731Y34946372D01*
X26752731Y34946372D02*
X26371779Y34946372D01*
X27324160Y34755896D02*
X27800350Y34755896D01*
X27228922Y34470181D02*
X27562255Y35470181D01*
X27562255Y35470181D02*
X27895588Y34470181D01*
X28705112Y35470181D02*
X28228922Y35470181D01*
X28228922Y35470181D02*
X28181303Y34993991D01*
X28181303Y34993991D02*
X28228922Y35041610D01*
X28228922Y35041610D02*
X28324160Y35089229D01*
X28324160Y35089229D02*
X28562255Y35089229D01*
X28562255Y35089229D02*
X28657493Y35041610D01*
X28657493Y35041610D02*
X28705112Y34993991D01*
X28705112Y34993991D02*
X28752731Y34898753D01*
X28752731Y34898753D02*
X28752731Y34660658D01*
X28752731Y34660658D02*
X28705112Y34565420D01*
X28705112Y34565420D02*
X28657493Y34517800D01*
X28657493Y34517800D02*
X28562255Y34470181D01*
X28562255Y34470181D02*
X28324160Y34470181D01*
X28324160Y34470181D02*
X28228922Y34517800D01*
X28228922Y34517800D02*
X28181303Y34565420D01*
X26371779Y30660181D02*
X26371779Y31660181D01*
X26371779Y31660181D02*
X26752731Y31660181D01*
X26752731Y31660181D02*
X26847969Y31612562D01*
X26847969Y31612562D02*
X26895588Y31564943D01*
X26895588Y31564943D02*
X26943207Y31469705D01*
X26943207Y31469705D02*
X26943207Y31326848D01*
X26943207Y31326848D02*
X26895588Y31231610D01*
X26895588Y31231610D02*
X26847969Y31183991D01*
X26847969Y31183991D02*
X26752731Y31136372D01*
X26752731Y31136372D02*
X26371779Y31136372D01*
X27705112Y31183991D02*
X27847969Y31136372D01*
X27847969Y31136372D02*
X27895588Y31088753D01*
X27895588Y31088753D02*
X27943207Y30993515D01*
X27943207Y30993515D02*
X27943207Y30850658D01*
X27943207Y30850658D02*
X27895588Y30755420D01*
X27895588Y30755420D02*
X27847969Y30707800D01*
X27847969Y30707800D02*
X27752731Y30660181D01*
X27752731Y30660181D02*
X27371779Y30660181D01*
X27371779Y30660181D02*
X27371779Y31660181D01*
X27371779Y31660181D02*
X27705112Y31660181D01*
X27705112Y31660181D02*
X27800350Y31612562D01*
X27800350Y31612562D02*
X27847969Y31564943D01*
X27847969Y31564943D02*
X27895588Y31469705D01*
X27895588Y31469705D02*
X27895588Y31374467D01*
X27895588Y31374467D02*
X27847969Y31279229D01*
X27847969Y31279229D02*
X27800350Y31231610D01*
X27800350Y31231610D02*
X27705112Y31183991D01*
X27705112Y31183991D02*
X27371779Y31183991D01*
X28276541Y31660181D02*
X28895588Y31660181D01*
X28895588Y31660181D02*
X28562255Y31279229D01*
X28562255Y31279229D02*
X28705112Y31279229D01*
X28705112Y31279229D02*
X28800350Y31231610D01*
X28800350Y31231610D02*
X28847969Y31183991D01*
X28847969Y31183991D02*
X28895588Y31088753D01*
X28895588Y31088753D02*
X28895588Y30850658D01*
X28895588Y30850658D02*
X28847969Y30755420D01*
X28847969Y30755420D02*
X28800350Y30707800D01*
X28800350Y30707800D02*
X28705112Y30660181D01*
X28705112Y30660181D02*
X28419398Y30660181D01*
X28419398Y30660181D02*
X28324160Y30707800D01*
X28324160Y30707800D02*
X28276541Y30755420D01*
X26371779Y26850181D02*
X26371779Y27850181D01*
X26371779Y27850181D02*
X26752731Y27850181D01*
X26752731Y27850181D02*
X26847969Y27802562D01*
X26847969Y27802562D02*
X26895588Y27754943D01*
X26895588Y27754943D02*
X26943207Y27659705D01*
X26943207Y27659705D02*
X26943207Y27516848D01*
X26943207Y27516848D02*
X26895588Y27421610D01*
X26895588Y27421610D02*
X26847969Y27373991D01*
X26847969Y27373991D02*
X26752731Y27326372D01*
X26752731Y27326372D02*
X26371779Y27326372D01*
X27705112Y27373991D02*
X27847969Y27326372D01*
X27847969Y27326372D02*
X27895588Y27278753D01*
X27895588Y27278753D02*
X27943207Y27183515D01*
X27943207Y27183515D02*
X27943207Y27040658D01*
X27943207Y27040658D02*
X27895588Y26945420D01*
X27895588Y26945420D02*
X27847969Y26897800D01*
X27847969Y26897800D02*
X27752731Y26850181D01*
X27752731Y26850181D02*
X27371779Y26850181D01*
X27371779Y26850181D02*
X27371779Y27850181D01*
X27371779Y27850181D02*
X27705112Y27850181D01*
X27705112Y27850181D02*
X27800350Y27802562D01*
X27800350Y27802562D02*
X27847969Y27754943D01*
X27847969Y27754943D02*
X27895588Y27659705D01*
X27895588Y27659705D02*
X27895588Y27564467D01*
X27895588Y27564467D02*
X27847969Y27469229D01*
X27847969Y27469229D02*
X27800350Y27421610D01*
X27800350Y27421610D02*
X27705112Y27373991D01*
X27705112Y27373991D02*
X27371779Y27373991D01*
X28895588Y26850181D02*
X28324160Y26850181D01*
X28609874Y26850181D02*
X28609874Y27850181D01*
X28609874Y27850181D02*
X28514636Y27707324D01*
X28514636Y27707324D02*
X28419398Y27612086D01*
X28419398Y27612086D02*
X28324160Y27564467D01*
X29228922Y27850181D02*
X29847969Y27850181D01*
X29847969Y27850181D02*
X29514636Y27469229D01*
X29514636Y27469229D02*
X29657493Y27469229D01*
X29657493Y27469229D02*
X29752731Y27421610D01*
X29752731Y27421610D02*
X29800350Y27373991D01*
X29800350Y27373991D02*
X29847969Y27278753D01*
X29847969Y27278753D02*
X29847969Y27040658D01*
X29847969Y27040658D02*
X29800350Y26945420D01*
X29800350Y26945420D02*
X29752731Y26897800D01*
X29752731Y26897800D02*
X29657493Y26850181D01*
X29657493Y26850181D02*
X29371779Y26850181D01*
X29371779Y26850181D02*
X29276541Y26897800D01*
X29276541Y26897800D02*
X29228922Y26945420D01*
X33991779Y26850181D02*
X33991779Y27850181D01*
X33991779Y27850181D02*
X34372731Y27850181D01*
X34372731Y27850181D02*
X34467969Y27802562D01*
X34467969Y27802562D02*
X34515588Y27754943D01*
X34515588Y27754943D02*
X34563207Y27659705D01*
X34563207Y27659705D02*
X34563207Y27516848D01*
X34563207Y27516848D02*
X34515588Y27421610D01*
X34515588Y27421610D02*
X34467969Y27373991D01*
X34467969Y27373991D02*
X34372731Y27326372D01*
X34372731Y27326372D02*
X33991779Y27326372D01*
X35325112Y27373991D02*
X35467969Y27326372D01*
X35467969Y27326372D02*
X35515588Y27278753D01*
X35515588Y27278753D02*
X35563207Y27183515D01*
X35563207Y27183515D02*
X35563207Y27040658D01*
X35563207Y27040658D02*
X35515588Y26945420D01*
X35515588Y26945420D02*
X35467969Y26897800D01*
X35467969Y26897800D02*
X35372731Y26850181D01*
X35372731Y26850181D02*
X34991779Y26850181D01*
X34991779Y26850181D02*
X34991779Y27850181D01*
X34991779Y27850181D02*
X35325112Y27850181D01*
X35325112Y27850181D02*
X35420350Y27802562D01*
X35420350Y27802562D02*
X35467969Y27754943D01*
X35467969Y27754943D02*
X35515588Y27659705D01*
X35515588Y27659705D02*
X35515588Y27564467D01*
X35515588Y27564467D02*
X35467969Y27469229D01*
X35467969Y27469229D02*
X35420350Y27421610D01*
X35420350Y27421610D02*
X35325112Y27373991D01*
X35325112Y27373991D02*
X34991779Y27373991D01*
X36515588Y26850181D02*
X35944160Y26850181D01*
X36229874Y26850181D02*
X36229874Y27850181D01*
X36229874Y27850181D02*
X36134636Y27707324D01*
X36134636Y27707324D02*
X36039398Y27612086D01*
X36039398Y27612086D02*
X35944160Y27564467D01*
X37372731Y27516848D02*
X37372731Y26850181D01*
X37134636Y27897800D02*
X36896541Y27183515D01*
X36896541Y27183515D02*
X37515588Y27183515D01*
X33991779Y30660181D02*
X33991779Y31660181D01*
X33991779Y31660181D02*
X34372731Y31660181D01*
X34372731Y31660181D02*
X34467969Y31612562D01*
X34467969Y31612562D02*
X34515588Y31564943D01*
X34515588Y31564943D02*
X34563207Y31469705D01*
X34563207Y31469705D02*
X34563207Y31326848D01*
X34563207Y31326848D02*
X34515588Y31231610D01*
X34515588Y31231610D02*
X34467969Y31183991D01*
X34467969Y31183991D02*
X34372731Y31136372D01*
X34372731Y31136372D02*
X33991779Y31136372D01*
X35325112Y31183991D02*
X35467969Y31136372D01*
X35467969Y31136372D02*
X35515588Y31088753D01*
X35515588Y31088753D02*
X35563207Y30993515D01*
X35563207Y30993515D02*
X35563207Y30850658D01*
X35563207Y30850658D02*
X35515588Y30755420D01*
X35515588Y30755420D02*
X35467969Y30707800D01*
X35467969Y30707800D02*
X35372731Y30660181D01*
X35372731Y30660181D02*
X34991779Y30660181D01*
X34991779Y30660181D02*
X34991779Y31660181D01*
X34991779Y31660181D02*
X35325112Y31660181D01*
X35325112Y31660181D02*
X35420350Y31612562D01*
X35420350Y31612562D02*
X35467969Y31564943D01*
X35467969Y31564943D02*
X35515588Y31469705D01*
X35515588Y31469705D02*
X35515588Y31374467D01*
X35515588Y31374467D02*
X35467969Y31279229D01*
X35467969Y31279229D02*
X35420350Y31231610D01*
X35420350Y31231610D02*
X35325112Y31183991D01*
X35325112Y31183991D02*
X34991779Y31183991D01*
X36420350Y31326848D02*
X36420350Y30660181D01*
X36182255Y31707800D02*
X35944160Y30993515D01*
X35944160Y30993515D02*
X36563207Y30993515D01*
X33991779Y34470181D02*
X33991779Y35470181D01*
X33991779Y35470181D02*
X34372731Y35470181D01*
X34372731Y35470181D02*
X34467969Y35422562D01*
X34467969Y35422562D02*
X34515588Y35374943D01*
X34515588Y35374943D02*
X34563207Y35279705D01*
X34563207Y35279705D02*
X34563207Y35136848D01*
X34563207Y35136848D02*
X34515588Y35041610D01*
X34515588Y35041610D02*
X34467969Y34993991D01*
X34467969Y34993991D02*
X34372731Y34946372D01*
X34372731Y34946372D02*
X33991779Y34946372D01*
X34944160Y34755896D02*
X35420350Y34755896D01*
X34848922Y34470181D02*
X35182255Y35470181D01*
X35182255Y35470181D02*
X35515588Y34470181D01*
X36277493Y35470181D02*
X36087017Y35470181D01*
X36087017Y35470181D02*
X35991779Y35422562D01*
X35991779Y35422562D02*
X35944160Y35374943D01*
X35944160Y35374943D02*
X35848922Y35232086D01*
X35848922Y35232086D02*
X35801303Y35041610D01*
X35801303Y35041610D02*
X35801303Y34660658D01*
X35801303Y34660658D02*
X35848922Y34565420D01*
X35848922Y34565420D02*
X35896541Y34517800D01*
X35896541Y34517800D02*
X35991779Y34470181D01*
X35991779Y34470181D02*
X36182255Y34470181D01*
X36182255Y34470181D02*
X36277493Y34517800D01*
X36277493Y34517800D02*
X36325112Y34565420D01*
X36325112Y34565420D02*
X36372731Y34660658D01*
X36372731Y34660658D02*
X36372731Y34898753D01*
X36372731Y34898753D02*
X36325112Y34993991D01*
X36325112Y34993991D02*
X36277493Y35041610D01*
X36277493Y35041610D02*
X36182255Y35089229D01*
X36182255Y35089229D02*
X35991779Y35089229D01*
X35991779Y35089229D02*
X35896541Y35041610D01*
X35896541Y35041610D02*
X35848922Y34993991D01*
X35848922Y34993991D02*
X35801303Y34898753D01*
X41611779Y34470181D02*
X41611779Y35470181D01*
X41611779Y35470181D02*
X41992731Y35470181D01*
X41992731Y35470181D02*
X42087969Y35422562D01*
X42087969Y35422562D02*
X42135588Y35374943D01*
X42135588Y35374943D02*
X42183207Y35279705D01*
X42183207Y35279705D02*
X42183207Y35136848D01*
X42183207Y35136848D02*
X42135588Y35041610D01*
X42135588Y35041610D02*
X42087969Y34993991D01*
X42087969Y34993991D02*
X41992731Y34946372D01*
X41992731Y34946372D02*
X41611779Y34946372D01*
X42564160Y34755896D02*
X43040350Y34755896D01*
X42468922Y34470181D02*
X42802255Y35470181D01*
X42802255Y35470181D02*
X43135588Y34470181D01*
X43373684Y35470181D02*
X44040350Y35470181D01*
X44040350Y35470181D02*
X43611779Y34470181D01*
X41611779Y30660181D02*
X41611779Y31660181D01*
X41611779Y31660181D02*
X41992731Y31660181D01*
X41992731Y31660181D02*
X42087969Y31612562D01*
X42087969Y31612562D02*
X42135588Y31564943D01*
X42135588Y31564943D02*
X42183207Y31469705D01*
X42183207Y31469705D02*
X42183207Y31326848D01*
X42183207Y31326848D02*
X42135588Y31231610D01*
X42135588Y31231610D02*
X42087969Y31183991D01*
X42087969Y31183991D02*
X41992731Y31136372D01*
X41992731Y31136372D02*
X41611779Y31136372D01*
X42945112Y31183991D02*
X43087969Y31136372D01*
X43087969Y31136372D02*
X43135588Y31088753D01*
X43135588Y31088753D02*
X43183207Y30993515D01*
X43183207Y30993515D02*
X43183207Y30850658D01*
X43183207Y30850658D02*
X43135588Y30755420D01*
X43135588Y30755420D02*
X43087969Y30707800D01*
X43087969Y30707800D02*
X42992731Y30660181D01*
X42992731Y30660181D02*
X42611779Y30660181D01*
X42611779Y30660181D02*
X42611779Y31660181D01*
X42611779Y31660181D02*
X42945112Y31660181D01*
X42945112Y31660181D02*
X43040350Y31612562D01*
X43040350Y31612562D02*
X43087969Y31564943D01*
X43087969Y31564943D02*
X43135588Y31469705D01*
X43135588Y31469705D02*
X43135588Y31374467D01*
X43135588Y31374467D02*
X43087969Y31279229D01*
X43087969Y31279229D02*
X43040350Y31231610D01*
X43040350Y31231610D02*
X42945112Y31183991D01*
X42945112Y31183991D02*
X42611779Y31183991D01*
X44087969Y31660181D02*
X43611779Y31660181D01*
X43611779Y31660181D02*
X43564160Y31183991D01*
X43564160Y31183991D02*
X43611779Y31231610D01*
X43611779Y31231610D02*
X43707017Y31279229D01*
X43707017Y31279229D02*
X43945112Y31279229D01*
X43945112Y31279229D02*
X44040350Y31231610D01*
X44040350Y31231610D02*
X44087969Y31183991D01*
X44087969Y31183991D02*
X44135588Y31088753D01*
X44135588Y31088753D02*
X44135588Y30850658D01*
X44135588Y30850658D02*
X44087969Y30755420D01*
X44087969Y30755420D02*
X44040350Y30707800D01*
X44040350Y30707800D02*
X43945112Y30660181D01*
X43945112Y30660181D02*
X43707017Y30660181D01*
X43707017Y30660181D02*
X43611779Y30707800D01*
X43611779Y30707800D02*
X43564160Y30755420D01*
X41611779Y26850181D02*
X41611779Y27850181D01*
X41611779Y27850181D02*
X41992731Y27850181D01*
X41992731Y27850181D02*
X42087969Y27802562D01*
X42087969Y27802562D02*
X42135588Y27754943D01*
X42135588Y27754943D02*
X42183207Y27659705D01*
X42183207Y27659705D02*
X42183207Y27516848D01*
X42183207Y27516848D02*
X42135588Y27421610D01*
X42135588Y27421610D02*
X42087969Y27373991D01*
X42087969Y27373991D02*
X41992731Y27326372D01*
X41992731Y27326372D02*
X41611779Y27326372D01*
X42945112Y27373991D02*
X43087969Y27326372D01*
X43087969Y27326372D02*
X43135588Y27278753D01*
X43135588Y27278753D02*
X43183207Y27183515D01*
X43183207Y27183515D02*
X43183207Y27040658D01*
X43183207Y27040658D02*
X43135588Y26945420D01*
X43135588Y26945420D02*
X43087969Y26897800D01*
X43087969Y26897800D02*
X42992731Y26850181D01*
X42992731Y26850181D02*
X42611779Y26850181D01*
X42611779Y26850181D02*
X42611779Y27850181D01*
X42611779Y27850181D02*
X42945112Y27850181D01*
X42945112Y27850181D02*
X43040350Y27802562D01*
X43040350Y27802562D02*
X43087969Y27754943D01*
X43087969Y27754943D02*
X43135588Y27659705D01*
X43135588Y27659705D02*
X43135588Y27564467D01*
X43135588Y27564467D02*
X43087969Y27469229D01*
X43087969Y27469229D02*
X43040350Y27421610D01*
X43040350Y27421610D02*
X42945112Y27373991D01*
X42945112Y27373991D02*
X42611779Y27373991D01*
X44135588Y26850181D02*
X43564160Y26850181D01*
X43849874Y26850181D02*
X43849874Y27850181D01*
X43849874Y27850181D02*
X43754636Y27707324D01*
X43754636Y27707324D02*
X43659398Y27612086D01*
X43659398Y27612086D02*
X43564160Y27564467D01*
X44992731Y27850181D02*
X44802255Y27850181D01*
X44802255Y27850181D02*
X44707017Y27802562D01*
X44707017Y27802562D02*
X44659398Y27754943D01*
X44659398Y27754943D02*
X44564160Y27612086D01*
X44564160Y27612086D02*
X44516541Y27421610D01*
X44516541Y27421610D02*
X44516541Y27040658D01*
X44516541Y27040658D02*
X44564160Y26945420D01*
X44564160Y26945420D02*
X44611779Y26897800D01*
X44611779Y26897800D02*
X44707017Y26850181D01*
X44707017Y26850181D02*
X44897493Y26850181D01*
X44897493Y26850181D02*
X44992731Y26897800D01*
X44992731Y26897800D02*
X45040350Y26945420D01*
X45040350Y26945420D02*
X45087969Y27040658D01*
X45087969Y27040658D02*
X45087969Y27278753D01*
X45087969Y27278753D02*
X45040350Y27373991D01*
X45040350Y27373991D02*
X44992731Y27421610D01*
X44992731Y27421610D02*
X44897493Y27469229D01*
X44897493Y27469229D02*
X44707017Y27469229D01*
X44707017Y27469229D02*
X44611779Y27421610D01*
X44611779Y27421610D02*
X44564160Y27373991D01*
X44564160Y27373991D02*
X44516541Y27278753D01*
X16343333Y37105420D02*
X16295714Y37057800D01*
X16295714Y37057800D02*
X16152857Y37010181D01*
X16152857Y37010181D02*
X16057619Y37010181D01*
X16057619Y37010181D02*
X15914762Y37057800D01*
X15914762Y37057800D02*
X15819524Y37153039D01*
X15819524Y37153039D02*
X15771905Y37248277D01*
X15771905Y37248277D02*
X15724286Y37438753D01*
X15724286Y37438753D02*
X15724286Y37581610D01*
X15724286Y37581610D02*
X15771905Y37772086D01*
X15771905Y37772086D02*
X15819524Y37867324D01*
X15819524Y37867324D02*
X15914762Y37962562D01*
X15914762Y37962562D02*
X16057619Y38010181D01*
X16057619Y38010181D02*
X16152857Y38010181D01*
X16152857Y38010181D02*
X16295714Y37962562D01*
X16295714Y37962562D02*
X16343333Y37914943D01*
X16724286Y37057800D02*
X16867143Y37010181D01*
X16867143Y37010181D02*
X17105238Y37010181D01*
X17105238Y37010181D02*
X17200476Y37057800D01*
X17200476Y37057800D02*
X17248095Y37105420D01*
X17248095Y37105420D02*
X17295714Y37200658D01*
X17295714Y37200658D02*
X17295714Y37295896D01*
X17295714Y37295896D02*
X17248095Y37391134D01*
X17248095Y37391134D02*
X17200476Y37438753D01*
X17200476Y37438753D02*
X17105238Y37486372D01*
X17105238Y37486372D02*
X16914762Y37533991D01*
X16914762Y37533991D02*
X16819524Y37581610D01*
X16819524Y37581610D02*
X16771905Y37629229D01*
X16771905Y37629229D02*
X16724286Y37724467D01*
X16724286Y37724467D02*
X16724286Y37819705D01*
X16724286Y37819705D02*
X16771905Y37914943D01*
X16771905Y37914943D02*
X16819524Y37962562D01*
X16819524Y37962562D02*
X16914762Y38010181D01*
X16914762Y38010181D02*
X17152857Y38010181D01*
X17152857Y38010181D02*
X17295714Y37962562D01*
X23534761Y37105420D02*
X23487142Y37057800D01*
X23487142Y37057800D02*
X23344285Y37010181D01*
X23344285Y37010181D02*
X23249047Y37010181D01*
X23249047Y37010181D02*
X23106190Y37057800D01*
X23106190Y37057800D02*
X23010952Y37153039D01*
X23010952Y37153039D02*
X22963333Y37248277D01*
X22963333Y37248277D02*
X22915714Y37438753D01*
X22915714Y37438753D02*
X22915714Y37581610D01*
X22915714Y37581610D02*
X22963333Y37772086D01*
X22963333Y37772086D02*
X23010952Y37867324D01*
X23010952Y37867324D02*
X23106190Y37962562D01*
X23106190Y37962562D02*
X23249047Y38010181D01*
X23249047Y38010181D02*
X23344285Y38010181D01*
X23344285Y38010181D02*
X23487142Y37962562D01*
X23487142Y37962562D02*
X23534761Y37914943D01*
X24439523Y37010181D02*
X23963333Y37010181D01*
X23963333Y37010181D02*
X23963333Y38010181D01*
X24772857Y37010181D02*
X24772857Y38010181D01*
X25344285Y37010181D02*
X24915714Y37581610D01*
X25344285Y38010181D02*
X24772857Y37438753D01*
X30178572Y37010181D02*
X30178572Y38010181D01*
X30178572Y38010181D02*
X30511905Y37295896D01*
X30511905Y37295896D02*
X30845238Y38010181D01*
X30845238Y38010181D02*
X30845238Y37010181D01*
X31321429Y37010181D02*
X31321429Y38010181D01*
X31750000Y37057800D02*
X31892857Y37010181D01*
X31892857Y37010181D02*
X32130952Y37010181D01*
X32130952Y37010181D02*
X32226190Y37057800D01*
X32226190Y37057800D02*
X32273809Y37105420D01*
X32273809Y37105420D02*
X32321428Y37200658D01*
X32321428Y37200658D02*
X32321428Y37295896D01*
X32321428Y37295896D02*
X32273809Y37391134D01*
X32273809Y37391134D02*
X32226190Y37438753D01*
X32226190Y37438753D02*
X32130952Y37486372D01*
X32130952Y37486372D02*
X31940476Y37533991D01*
X31940476Y37533991D02*
X31845238Y37581610D01*
X31845238Y37581610D02*
X31797619Y37629229D01*
X31797619Y37629229D02*
X31750000Y37724467D01*
X31750000Y37724467D02*
X31750000Y37819705D01*
X31750000Y37819705D02*
X31797619Y37914943D01*
X31797619Y37914943D02*
X31845238Y37962562D01*
X31845238Y37962562D02*
X31940476Y38010181D01*
X31940476Y38010181D02*
X32178571Y38010181D01*
X32178571Y38010181D02*
X32321428Y37962562D01*
X32940476Y38010181D02*
X33130952Y38010181D01*
X33130952Y38010181D02*
X33226190Y37962562D01*
X33226190Y37962562D02*
X33321428Y37867324D01*
X33321428Y37867324D02*
X33369047Y37676848D01*
X33369047Y37676848D02*
X33369047Y37343515D01*
X33369047Y37343515D02*
X33321428Y37153039D01*
X33321428Y37153039D02*
X33226190Y37057800D01*
X33226190Y37057800D02*
X33130952Y37010181D01*
X33130952Y37010181D02*
X32940476Y37010181D01*
X32940476Y37010181D02*
X32845238Y37057800D01*
X32845238Y37057800D02*
X32750000Y37153039D01*
X32750000Y37153039D02*
X32702381Y37343515D01*
X32702381Y37343515D02*
X32702381Y37676848D01*
X32702381Y37676848D02*
X32750000Y37867324D01*
X32750000Y37867324D02*
X32845238Y37962562D01*
X32845238Y37962562D02*
X32940476Y38010181D01*
X37798572Y37010181D02*
X37798572Y38010181D01*
X37798572Y38010181D02*
X38131905Y37295896D01*
X38131905Y37295896D02*
X38465238Y38010181D01*
X38465238Y38010181D02*
X38465238Y37010181D01*
X39131905Y38010181D02*
X39322381Y38010181D01*
X39322381Y38010181D02*
X39417619Y37962562D01*
X39417619Y37962562D02*
X39512857Y37867324D01*
X39512857Y37867324D02*
X39560476Y37676848D01*
X39560476Y37676848D02*
X39560476Y37343515D01*
X39560476Y37343515D02*
X39512857Y37153039D01*
X39512857Y37153039D02*
X39417619Y37057800D01*
X39417619Y37057800D02*
X39322381Y37010181D01*
X39322381Y37010181D02*
X39131905Y37010181D01*
X39131905Y37010181D02*
X39036667Y37057800D01*
X39036667Y37057800D02*
X38941429Y37153039D01*
X38941429Y37153039D02*
X38893810Y37343515D01*
X38893810Y37343515D02*
X38893810Y37676848D01*
X38893810Y37676848D02*
X38941429Y37867324D01*
X38941429Y37867324D02*
X39036667Y37962562D01*
X39036667Y37962562D02*
X39131905Y38010181D01*
X39941429Y37057800D02*
X40084286Y37010181D01*
X40084286Y37010181D02*
X40322381Y37010181D01*
X40322381Y37010181D02*
X40417619Y37057800D01*
X40417619Y37057800D02*
X40465238Y37105420D01*
X40465238Y37105420D02*
X40512857Y37200658D01*
X40512857Y37200658D02*
X40512857Y37295896D01*
X40512857Y37295896D02*
X40465238Y37391134D01*
X40465238Y37391134D02*
X40417619Y37438753D01*
X40417619Y37438753D02*
X40322381Y37486372D01*
X40322381Y37486372D02*
X40131905Y37533991D01*
X40131905Y37533991D02*
X40036667Y37581610D01*
X40036667Y37581610D02*
X39989048Y37629229D01*
X39989048Y37629229D02*
X39941429Y37724467D01*
X39941429Y37724467D02*
X39941429Y37819705D01*
X39941429Y37819705D02*
X39989048Y37914943D01*
X39989048Y37914943D02*
X40036667Y37962562D01*
X40036667Y37962562D02*
X40131905Y38010181D01*
X40131905Y38010181D02*
X40370000Y38010181D01*
X40370000Y38010181D02*
X40512857Y37962562D01*
X40941429Y37010181D02*
X40941429Y38010181D01*
X10204650Y34517800D02*
X10347507Y34470181D01*
X10347507Y34470181D02*
X10585602Y34470181D01*
X10585602Y34470181D02*
X10680840Y34517800D01*
X10680840Y34517800D02*
X10728459Y34565420D01*
X10728459Y34565420D02*
X10776078Y34660658D01*
X10776078Y34660658D02*
X10776078Y34755896D01*
X10776078Y34755896D02*
X10728459Y34851134D01*
X10728459Y34851134D02*
X10680840Y34898753D01*
X10680840Y34898753D02*
X10585602Y34946372D01*
X10585602Y34946372D02*
X10395126Y34993991D01*
X10395126Y34993991D02*
X10299888Y35041610D01*
X10299888Y35041610D02*
X10252269Y35089229D01*
X10252269Y35089229D02*
X10204650Y35184467D01*
X10204650Y35184467D02*
X10204650Y35279705D01*
X10204650Y35279705D02*
X10252269Y35374943D01*
X10252269Y35374943D02*
X10299888Y35422562D01*
X10299888Y35422562D02*
X10395126Y35470181D01*
X10395126Y35470181D02*
X10633221Y35470181D01*
X10633221Y35470181D02*
X10776078Y35422562D01*
X11204650Y34470181D02*
X11204650Y35470181D01*
X11204650Y35470181D02*
X11585602Y35470181D01*
X11585602Y35470181D02*
X11680840Y35422562D01*
X11680840Y35422562D02*
X11728459Y35374943D01*
X11728459Y35374943D02*
X11776078Y35279705D01*
X11776078Y35279705D02*
X11776078Y35136848D01*
X11776078Y35136848D02*
X11728459Y35041610D01*
X11728459Y35041610D02*
X11680840Y34993991D01*
X11680840Y34993991D02*
X11585602Y34946372D01*
X11585602Y34946372D02*
X11204650Y34946372D01*
X12204650Y34470181D02*
X12204650Y35470181D01*
X13204649Y34470181D02*
X12633221Y34470181D01*
X12918935Y34470181D02*
X12918935Y35470181D01*
X12918935Y35470181D02*
X12823697Y35327324D01*
X12823697Y35327324D02*
X12728459Y35232086D01*
X12728459Y35232086D02*
X12633221Y35184467D01*
X13633221Y34565420D02*
X13680840Y34517800D01*
X13680840Y34517800D02*
X13633221Y34470181D01*
X13633221Y34470181D02*
X13585602Y34517800D01*
X13585602Y34517800D02*
X13633221Y34565420D01*
X13633221Y34565420D02*
X13633221Y34470181D01*
X13633221Y35089229D02*
X13680840Y35041610D01*
X13680840Y35041610D02*
X13633221Y34993991D01*
X13633221Y34993991D02*
X13585602Y35041610D01*
X13585602Y35041610D02*
X13633221Y35089229D01*
X13633221Y35089229D02*
X13633221Y34993991D01*
X7014173Y30707800D02*
X7157030Y30660181D01*
X7157030Y30660181D02*
X7395125Y30660181D01*
X7395125Y30660181D02*
X7490363Y30707800D01*
X7490363Y30707800D02*
X7537982Y30755420D01*
X7537982Y30755420D02*
X7585601Y30850658D01*
X7585601Y30850658D02*
X7585601Y30945896D01*
X7585601Y30945896D02*
X7537982Y31041134D01*
X7537982Y31041134D02*
X7490363Y31088753D01*
X7490363Y31088753D02*
X7395125Y31136372D01*
X7395125Y31136372D02*
X7204649Y31183991D01*
X7204649Y31183991D02*
X7109411Y31231610D01*
X7109411Y31231610D02*
X7061792Y31279229D01*
X7061792Y31279229D02*
X7014173Y31374467D01*
X7014173Y31374467D02*
X7014173Y31469705D01*
X7014173Y31469705D02*
X7061792Y31564943D01*
X7061792Y31564943D02*
X7109411Y31612562D01*
X7109411Y31612562D02*
X7204649Y31660181D01*
X7204649Y31660181D02*
X7442744Y31660181D01*
X7442744Y31660181D02*
X7585601Y31612562D01*
X8014173Y30660181D02*
X8014173Y31660181D01*
X8014173Y31660181D02*
X8395125Y31660181D01*
X8395125Y31660181D02*
X8490363Y31612562D01*
X8490363Y31612562D02*
X8537982Y31564943D01*
X8537982Y31564943D02*
X8585601Y31469705D01*
X8585601Y31469705D02*
X8585601Y31326848D01*
X8585601Y31326848D02*
X8537982Y31231610D01*
X8537982Y31231610D02*
X8490363Y31183991D01*
X8490363Y31183991D02*
X8395125Y31136372D01*
X8395125Y31136372D02*
X8014173Y31136372D01*
X9014173Y30660181D02*
X9014173Y31660181D01*
X10014172Y30660181D02*
X9442744Y30660181D01*
X9728458Y30660181D02*
X9728458Y31660181D01*
X9728458Y31660181D02*
X9633220Y31517324D01*
X9633220Y31517324D02*
X9537982Y31422086D01*
X9537982Y31422086D02*
X9442744Y31374467D01*
X10204649Y30564943D02*
X10966553Y30564943D01*
X11157030Y30945896D02*
X11633220Y30945896D01*
X11061792Y30660181D02*
X11395125Y31660181D01*
X11395125Y31660181D02*
X11728458Y30660181D01*
X12537982Y30660181D02*
X12061792Y30660181D01*
X12061792Y30660181D02*
X12061792Y31660181D01*
X12728459Y31660181D02*
X13299887Y31660181D01*
X13014173Y30660181D02*
X13014173Y31660181D01*
X13633221Y30755420D02*
X13680840Y30707800D01*
X13680840Y30707800D02*
X13633221Y30660181D01*
X13633221Y30660181D02*
X13585602Y30707800D01*
X13585602Y30707800D02*
X13633221Y30755420D01*
X13633221Y30755420D02*
X13633221Y30660181D01*
X13633221Y31279229D02*
X13680840Y31231610D01*
X13680840Y31231610D02*
X13633221Y31183991D01*
X13633221Y31183991D02*
X13585602Y31231610D01*
X13585602Y31231610D02*
X13633221Y31279229D01*
X13633221Y31279229D02*
X13633221Y31183991D01*
X10204650Y26897800D02*
X10347507Y26850181D01*
X10347507Y26850181D02*
X10585602Y26850181D01*
X10585602Y26850181D02*
X10680840Y26897800D01*
X10680840Y26897800D02*
X10728459Y26945420D01*
X10728459Y26945420D02*
X10776078Y27040658D01*
X10776078Y27040658D02*
X10776078Y27135896D01*
X10776078Y27135896D02*
X10728459Y27231134D01*
X10728459Y27231134D02*
X10680840Y27278753D01*
X10680840Y27278753D02*
X10585602Y27326372D01*
X10585602Y27326372D02*
X10395126Y27373991D01*
X10395126Y27373991D02*
X10299888Y27421610D01*
X10299888Y27421610D02*
X10252269Y27469229D01*
X10252269Y27469229D02*
X10204650Y27564467D01*
X10204650Y27564467D02*
X10204650Y27659705D01*
X10204650Y27659705D02*
X10252269Y27754943D01*
X10252269Y27754943D02*
X10299888Y27802562D01*
X10299888Y27802562D02*
X10395126Y27850181D01*
X10395126Y27850181D02*
X10633221Y27850181D01*
X10633221Y27850181D02*
X10776078Y27802562D01*
X11204650Y26850181D02*
X11204650Y27850181D01*
X11204650Y27850181D02*
X11585602Y27850181D01*
X11585602Y27850181D02*
X11680840Y27802562D01*
X11680840Y27802562D02*
X11728459Y27754943D01*
X11728459Y27754943D02*
X11776078Y27659705D01*
X11776078Y27659705D02*
X11776078Y27516848D01*
X11776078Y27516848D02*
X11728459Y27421610D01*
X11728459Y27421610D02*
X11680840Y27373991D01*
X11680840Y27373991D02*
X11585602Y27326372D01*
X11585602Y27326372D02*
X11204650Y27326372D01*
X12204650Y26850181D02*
X12204650Y27850181D01*
X12633221Y27754943D02*
X12680840Y27802562D01*
X12680840Y27802562D02*
X12776078Y27850181D01*
X12776078Y27850181D02*
X13014173Y27850181D01*
X13014173Y27850181D02*
X13109411Y27802562D01*
X13109411Y27802562D02*
X13157030Y27754943D01*
X13157030Y27754943D02*
X13204649Y27659705D01*
X13204649Y27659705D02*
X13204649Y27564467D01*
X13204649Y27564467D02*
X13157030Y27421610D01*
X13157030Y27421610D02*
X12585602Y26850181D01*
X12585602Y26850181D02*
X13204649Y26850181D01*
X13633221Y26945420D02*
X13680840Y26897800D01*
X13680840Y26897800D02*
X13633221Y26850181D01*
X13633221Y26850181D02*
X13585602Y26897800D01*
X13585602Y26897800D02*
X13633221Y26945420D01*
X13633221Y26945420D02*
X13633221Y26850181D01*
X13633221Y27469229D02*
X13680840Y27421610D01*
X13680840Y27421610D02*
X13633221Y27373991D01*
X13633221Y27373991D02*
X13585602Y27421610D01*
X13585602Y27421610D02*
X13633221Y27469229D01*
X13633221Y27469229D02*
X13633221Y27373991D01*
X18751779Y34470181D02*
X18751779Y35470181D01*
X18751779Y35470181D02*
X19132731Y35470181D01*
X19132731Y35470181D02*
X19227969Y35422562D01*
X19227969Y35422562D02*
X19275588Y35374943D01*
X19275588Y35374943D02*
X19323207Y35279705D01*
X19323207Y35279705D02*
X19323207Y35136848D01*
X19323207Y35136848D02*
X19275588Y35041610D01*
X19275588Y35041610D02*
X19227969Y34993991D01*
X19227969Y34993991D02*
X19132731Y34946372D01*
X19132731Y34946372D02*
X18751779Y34946372D01*
X19704160Y34755896D02*
X20180350Y34755896D01*
X19608922Y34470181D02*
X19942255Y35470181D01*
X19942255Y35470181D02*
X20275588Y34470181D01*
X21037493Y35136848D02*
X21037493Y34470181D01*
X20799398Y35517800D02*
X20561303Y34803515D01*
X20561303Y34803515D02*
X21180350Y34803515D01*
G04 #@! TO.C,J1*
X23857295Y40147983D02*
X23057295Y40147983D01*
X23057295Y40147983D02*
X23057295Y40452745D01*
X23057295Y40452745D02*
X23095390Y40528935D01*
X23095390Y40528935D02*
X23133485Y40567030D01*
X23133485Y40567030D02*
X23209676Y40605126D01*
X23209676Y40605126D02*
X23323961Y40605126D01*
X23323961Y40605126D02*
X23400152Y40567030D01*
X23400152Y40567030D02*
X23438247Y40528935D01*
X23438247Y40528935D02*
X23476342Y40452745D01*
X23476342Y40452745D02*
X23476342Y40147983D01*
X23781104Y41405126D02*
X23819200Y41367030D01*
X23819200Y41367030D02*
X23857295Y41252745D01*
X23857295Y41252745D02*
X23857295Y41176554D01*
X23857295Y41176554D02*
X23819200Y41062268D01*
X23819200Y41062268D02*
X23743009Y40986078D01*
X23743009Y40986078D02*
X23666819Y40947983D01*
X23666819Y40947983D02*
X23514438Y40909887D01*
X23514438Y40909887D02*
X23400152Y40909887D01*
X23400152Y40909887D02*
X23247771Y40947983D01*
X23247771Y40947983D02*
X23171580Y40986078D01*
X23171580Y40986078D02*
X23095390Y41062268D01*
X23095390Y41062268D02*
X23057295Y41176554D01*
X23057295Y41176554D02*
X23057295Y41252745D01*
X23057295Y41252745D02*
X23095390Y41367030D01*
X23095390Y41367030D02*
X23133485Y41405126D01*
X23857295Y42167030D02*
X23857295Y41709887D01*
X23857295Y41938459D02*
X23057295Y41938459D01*
X23057295Y41938459D02*
X23171580Y41862268D01*
X23171580Y41862268D02*
X23247771Y41786078D01*
X23247771Y41786078D02*
X23285866Y41709887D01*
X23057295Y42433697D02*
X23057295Y42928935D01*
X23057295Y42928935D02*
X23362057Y42662269D01*
X23362057Y42662269D02*
X23362057Y42776554D01*
X23362057Y42776554D02*
X23400152Y42852745D01*
X23400152Y42852745D02*
X23438247Y42890840D01*
X23438247Y42890840D02*
X23514438Y42928935D01*
X23514438Y42928935D02*
X23704914Y42928935D01*
X23704914Y42928935D02*
X23781104Y42890840D01*
X23781104Y42890840D02*
X23819200Y42852745D01*
X23819200Y42852745D02*
X23857295Y42776554D01*
X23857295Y42776554D02*
X23857295Y42547983D01*
X23857295Y42547983D02*
X23819200Y42471792D01*
X23819200Y42471792D02*
X23781104Y42433697D01*
X39097295Y11084161D02*
X38297295Y11084161D01*
X38297295Y11084161D02*
X38297295Y11388923D01*
X38297295Y11388923D02*
X38335390Y11465113D01*
X38335390Y11465113D02*
X38373485Y11503208D01*
X38373485Y11503208D02*
X38449676Y11541304D01*
X38449676Y11541304D02*
X38563961Y11541304D01*
X38563961Y11541304D02*
X38640152Y11503208D01*
X38640152Y11503208D02*
X38678247Y11465113D01*
X38678247Y11465113D02*
X38716342Y11388923D01*
X38716342Y11388923D02*
X38716342Y11084161D01*
X38678247Y12150827D02*
X38716342Y12265113D01*
X38716342Y12265113D02*
X38754438Y12303208D01*
X38754438Y12303208D02*
X38830628Y12341304D01*
X38830628Y12341304D02*
X38944914Y12341304D01*
X38944914Y12341304D02*
X39021104Y12303208D01*
X39021104Y12303208D02*
X39059200Y12265113D01*
X39059200Y12265113D02*
X39097295Y12188923D01*
X39097295Y12188923D02*
X39097295Y11884161D01*
X39097295Y11884161D02*
X38297295Y11884161D01*
X38297295Y11884161D02*
X38297295Y12150827D01*
X38297295Y12150827D02*
X38335390Y12227018D01*
X38335390Y12227018D02*
X38373485Y12265113D01*
X38373485Y12265113D02*
X38449676Y12303208D01*
X38449676Y12303208D02*
X38525866Y12303208D01*
X38525866Y12303208D02*
X38602057Y12265113D01*
X38602057Y12265113D02*
X38640152Y12227018D01*
X38640152Y12227018D02*
X38678247Y12150827D01*
X38678247Y12150827D02*
X38678247Y11884161D01*
X39097295Y13103208D02*
X39097295Y12646065D01*
X39097295Y12874637D02*
X38297295Y12874637D01*
X38297295Y12874637D02*
X38411580Y12798446D01*
X38411580Y12798446D02*
X38487771Y12722256D01*
X38487771Y12722256D02*
X38525866Y12646065D01*
X28937295Y49819161D02*
X28137295Y49819161D01*
X28137295Y49819161D02*
X28137295Y50123923D01*
X28137295Y50123923D02*
X28175390Y50200113D01*
X28175390Y50200113D02*
X28213485Y50238208D01*
X28213485Y50238208D02*
X28289676Y50276304D01*
X28289676Y50276304D02*
X28403961Y50276304D01*
X28403961Y50276304D02*
X28480152Y50238208D01*
X28480152Y50238208D02*
X28518247Y50200113D01*
X28518247Y50200113D02*
X28556342Y50123923D01*
X28556342Y50123923D02*
X28556342Y49819161D01*
X28518247Y50885827D02*
X28556342Y51000113D01*
X28556342Y51000113D02*
X28594438Y51038208D01*
X28594438Y51038208D02*
X28670628Y51076304D01*
X28670628Y51076304D02*
X28784914Y51076304D01*
X28784914Y51076304D02*
X28861104Y51038208D01*
X28861104Y51038208D02*
X28899200Y51000113D01*
X28899200Y51000113D02*
X28937295Y50923923D01*
X28937295Y50923923D02*
X28937295Y50619161D01*
X28937295Y50619161D02*
X28137295Y50619161D01*
X28137295Y50619161D02*
X28137295Y50885827D01*
X28137295Y50885827D02*
X28175390Y50962018D01*
X28175390Y50962018D02*
X28213485Y51000113D01*
X28213485Y51000113D02*
X28289676Y51038208D01*
X28289676Y51038208D02*
X28365866Y51038208D01*
X28365866Y51038208D02*
X28442057Y51000113D01*
X28442057Y51000113D02*
X28480152Y50962018D01*
X28480152Y50962018D02*
X28518247Y50885827D01*
X28518247Y50885827D02*
X28518247Y50619161D01*
X28480152Y51533446D02*
X28442057Y51457256D01*
X28442057Y51457256D02*
X28403961Y51419161D01*
X28403961Y51419161D02*
X28327771Y51381065D01*
X28327771Y51381065D02*
X28289676Y51381065D01*
X28289676Y51381065D02*
X28213485Y51419161D01*
X28213485Y51419161D02*
X28175390Y51457256D01*
X28175390Y51457256D02*
X28137295Y51533446D01*
X28137295Y51533446D02*
X28137295Y51685827D01*
X28137295Y51685827D02*
X28175390Y51762018D01*
X28175390Y51762018D02*
X28213485Y51800113D01*
X28213485Y51800113D02*
X28289676Y51838208D01*
X28289676Y51838208D02*
X28327771Y51838208D01*
X28327771Y51838208D02*
X28403961Y51800113D01*
X28403961Y51800113D02*
X28442057Y51762018D01*
X28442057Y51762018D02*
X28480152Y51685827D01*
X28480152Y51685827D02*
X28480152Y51533446D01*
X28480152Y51533446D02*
X28518247Y51457256D01*
X28518247Y51457256D02*
X28556342Y51419161D01*
X28556342Y51419161D02*
X28632533Y51381065D01*
X28632533Y51381065D02*
X28784914Y51381065D01*
X28784914Y51381065D02*
X28861104Y51419161D01*
X28861104Y51419161D02*
X28899200Y51457256D01*
X28899200Y51457256D02*
X28937295Y51533446D01*
X28937295Y51533446D02*
X28937295Y51685827D01*
X28937295Y51685827D02*
X28899200Y51762018D01*
X28899200Y51762018D02*
X28861104Y51800113D01*
X28861104Y51800113D02*
X28784914Y51838208D01*
X28784914Y51838208D02*
X28632533Y51838208D01*
X28632533Y51838208D02*
X28556342Y51800113D01*
X28556342Y51800113D02*
X28518247Y51762018D01*
X28518247Y51762018D02*
X28480152Y51685827D01*
X54337295Y41024174D02*
X53537295Y41024174D01*
X53537295Y41024174D02*
X53537295Y41328936D01*
X53537295Y41328936D02*
X53575390Y41405126D01*
X53575390Y41405126D02*
X53613485Y41443221D01*
X53613485Y41443221D02*
X53689676Y41481317D01*
X53689676Y41481317D02*
X53803961Y41481317D01*
X53803961Y41481317D02*
X53880152Y41443221D01*
X53880152Y41443221D02*
X53918247Y41405126D01*
X53918247Y41405126D02*
X53956342Y41328936D01*
X53956342Y41328936D02*
X53956342Y41024174D01*
X54108723Y41786078D02*
X54108723Y42167031D01*
X54337295Y41709888D02*
X53537295Y41976555D01*
X53537295Y41976555D02*
X54337295Y42243221D01*
X54337295Y42547983D02*
X54337295Y42700364D01*
X54337295Y42700364D02*
X54299200Y42776554D01*
X54299200Y42776554D02*
X54261104Y42814650D01*
X54261104Y42814650D02*
X54146819Y42890840D01*
X54146819Y42890840D02*
X53994438Y42928935D01*
X53994438Y42928935D02*
X53689676Y42928935D01*
X53689676Y42928935D02*
X53613485Y42890840D01*
X53613485Y42890840D02*
X53575390Y42852745D01*
X53575390Y42852745D02*
X53537295Y42776554D01*
X53537295Y42776554D02*
X53537295Y42624173D01*
X53537295Y42624173D02*
X53575390Y42547983D01*
X53575390Y42547983D02*
X53613485Y42509888D01*
X53613485Y42509888D02*
X53689676Y42471792D01*
X53689676Y42471792D02*
X53880152Y42471792D01*
X53880152Y42471792D02*
X53956342Y42509888D01*
X53956342Y42509888D02*
X53994438Y42547983D01*
X53994438Y42547983D02*
X54032533Y42624173D01*
X54032533Y42624173D02*
X54032533Y42776554D01*
X54032533Y42776554D02*
X53994438Y42852745D01*
X53994438Y42852745D02*
X53956342Y42890840D01*
X53956342Y42890840D02*
X53880152Y42928935D01*
X28937295Y40909888D02*
X28137295Y40909888D01*
X28137295Y40909888D02*
X28137295Y41214650D01*
X28137295Y41214650D02*
X28175390Y41290840D01*
X28175390Y41290840D02*
X28213485Y41328935D01*
X28213485Y41328935D02*
X28289676Y41367031D01*
X28289676Y41367031D02*
X28403961Y41367031D01*
X28403961Y41367031D02*
X28480152Y41328935D01*
X28480152Y41328935D02*
X28518247Y41290840D01*
X28518247Y41290840D02*
X28556342Y41214650D01*
X28556342Y41214650D02*
X28556342Y40909888D01*
X28518247Y41976554D02*
X28556342Y42090840D01*
X28556342Y42090840D02*
X28594438Y42128935D01*
X28594438Y42128935D02*
X28670628Y42167031D01*
X28670628Y42167031D02*
X28784914Y42167031D01*
X28784914Y42167031D02*
X28861104Y42128935D01*
X28861104Y42128935D02*
X28899200Y42090840D01*
X28899200Y42090840D02*
X28937295Y42014650D01*
X28937295Y42014650D02*
X28937295Y41709888D01*
X28937295Y41709888D02*
X28137295Y41709888D01*
X28137295Y41709888D02*
X28137295Y41976554D01*
X28137295Y41976554D02*
X28175390Y42052745D01*
X28175390Y42052745D02*
X28213485Y42090840D01*
X28213485Y42090840D02*
X28289676Y42128935D01*
X28289676Y42128935D02*
X28365866Y42128935D01*
X28365866Y42128935D02*
X28442057Y42090840D01*
X28442057Y42090840D02*
X28480152Y42052745D01*
X28480152Y42052745D02*
X28518247Y41976554D01*
X28518247Y41976554D02*
X28518247Y41709888D01*
X28937295Y42547983D02*
X28937295Y42700364D01*
X28937295Y42700364D02*
X28899200Y42776554D01*
X28899200Y42776554D02*
X28861104Y42814650D01*
X28861104Y42814650D02*
X28746819Y42890840D01*
X28746819Y42890840D02*
X28594438Y42928935D01*
X28594438Y42928935D02*
X28289676Y42928935D01*
X28289676Y42928935D02*
X28213485Y42890840D01*
X28213485Y42890840D02*
X28175390Y42852745D01*
X28175390Y42852745D02*
X28137295Y42776554D01*
X28137295Y42776554D02*
X28137295Y42624173D01*
X28137295Y42624173D02*
X28175390Y42547983D01*
X28175390Y42547983D02*
X28213485Y42509888D01*
X28213485Y42509888D02*
X28289676Y42471792D01*
X28289676Y42471792D02*
X28480152Y42471792D01*
X28480152Y42471792D02*
X28556342Y42509888D01*
X28556342Y42509888D02*
X28594438Y42547983D01*
X28594438Y42547983D02*
X28632533Y42624173D01*
X28632533Y42624173D02*
X28632533Y42776554D01*
X28632533Y42776554D02*
X28594438Y42852745D01*
X28594438Y42852745D02*
X28556342Y42890840D01*
X28556342Y42890840D02*
X28480152Y42928935D01*
X31477295Y2924174D02*
X30677295Y2924174D01*
X30677295Y2924174D02*
X30677295Y3228936D01*
X30677295Y3228936D02*
X30715390Y3305126D01*
X30715390Y3305126D02*
X30753485Y3343221D01*
X30753485Y3343221D02*
X30829676Y3381317D01*
X30829676Y3381317D02*
X30943961Y3381317D01*
X30943961Y3381317D02*
X31020152Y3343221D01*
X31020152Y3343221D02*
X31058247Y3305126D01*
X31058247Y3305126D02*
X31096342Y3228936D01*
X31096342Y3228936D02*
X31096342Y2924174D01*
X31248723Y3686078D02*
X31248723Y4067031D01*
X31477295Y3609888D02*
X30677295Y3876555D01*
X30677295Y3876555D02*
X31477295Y4143221D01*
X30943961Y4752745D02*
X31477295Y4752745D01*
X30639200Y4562269D02*
X31210628Y4371792D01*
X31210628Y4371792D02*
X31210628Y4867031D01*
X56077295Y3571793D02*
X56724914Y3571793D01*
X56724914Y3571793D02*
X56801104Y3609888D01*
X56801104Y3609888D02*
X56839200Y3647983D01*
X56839200Y3647983D02*
X56877295Y3724174D01*
X56877295Y3724174D02*
X56877295Y3876555D01*
X56877295Y3876555D02*
X56839200Y3952745D01*
X56839200Y3952745D02*
X56801104Y3990840D01*
X56801104Y3990840D02*
X56724914Y4028936D01*
X56724914Y4028936D02*
X56077295Y4028936D01*
X56877295Y4828935D02*
X56877295Y4371792D01*
X56877295Y4600364D02*
X56077295Y4600364D01*
X56077295Y4600364D02*
X56191580Y4524173D01*
X56191580Y4524173D02*
X56267771Y4447983D01*
X56267771Y4447983D02*
X56305866Y4371792D01*
X18777295Y11084161D02*
X17977295Y11084161D01*
X17977295Y11084161D02*
X18777295Y11541304D01*
X18777295Y11541304D02*
X17977295Y11541304D01*
X18777295Y12379399D02*
X18396342Y12112732D01*
X18777295Y11922256D02*
X17977295Y11922256D01*
X17977295Y11922256D02*
X17977295Y12227018D01*
X17977295Y12227018D02*
X18015390Y12303208D01*
X18015390Y12303208D02*
X18053485Y12341303D01*
X18053485Y12341303D02*
X18129676Y12379399D01*
X18129676Y12379399D02*
X18243961Y12379399D01*
X18243961Y12379399D02*
X18320152Y12341303D01*
X18320152Y12341303D02*
X18358247Y12303208D01*
X18358247Y12303208D02*
X18396342Y12227018D01*
X18396342Y12227018D02*
X18396342Y11922256D01*
X18739200Y12684160D02*
X18777295Y12798446D01*
X18777295Y12798446D02*
X18777295Y12988922D01*
X18777295Y12988922D02*
X18739200Y13065113D01*
X18739200Y13065113D02*
X18701104Y13103208D01*
X18701104Y13103208D02*
X18624914Y13141303D01*
X18624914Y13141303D02*
X18548723Y13141303D01*
X18548723Y13141303D02*
X18472533Y13103208D01*
X18472533Y13103208D02*
X18434438Y13065113D01*
X18434438Y13065113D02*
X18396342Y12988922D01*
X18396342Y12988922D02*
X18358247Y12836541D01*
X18358247Y12836541D02*
X18320152Y12760351D01*
X18320152Y12760351D02*
X18282057Y12722256D01*
X18282057Y12722256D02*
X18205866Y12684160D01*
X18205866Y12684160D02*
X18129676Y12684160D01*
X18129676Y12684160D02*
X18053485Y12722256D01*
X18053485Y12722256D02*
X18015390Y12760351D01*
X18015390Y12760351D02*
X17977295Y12836541D01*
X17977295Y12836541D02*
X17977295Y13027018D01*
X17977295Y13027018D02*
X18015390Y13141303D01*
X17977295Y13369875D02*
X17977295Y13827018D01*
X18777295Y13598446D02*
X17977295Y13598446D01*
X40837295Y11084161D02*
X41484914Y11084161D01*
X41484914Y11084161D02*
X41561104Y11122256D01*
X41561104Y11122256D02*
X41599200Y11160351D01*
X41599200Y11160351D02*
X41637295Y11236542D01*
X41637295Y11236542D02*
X41637295Y11388923D01*
X41637295Y11388923D02*
X41599200Y11465113D01*
X41599200Y11465113D02*
X41561104Y11503208D01*
X41561104Y11503208D02*
X41484914Y11541304D01*
X41484914Y11541304D02*
X40837295Y11541304D01*
X40837295Y12074637D02*
X40837295Y12150827D01*
X40837295Y12150827D02*
X40875390Y12227018D01*
X40875390Y12227018D02*
X40913485Y12265113D01*
X40913485Y12265113D02*
X40989676Y12303208D01*
X40989676Y12303208D02*
X41142057Y12341303D01*
X41142057Y12341303D02*
X41332533Y12341303D01*
X41332533Y12341303D02*
X41484914Y12303208D01*
X41484914Y12303208D02*
X41561104Y12265113D01*
X41561104Y12265113D02*
X41599200Y12227018D01*
X41599200Y12227018D02*
X41637295Y12150827D01*
X41637295Y12150827D02*
X41637295Y12074637D01*
X41637295Y12074637D02*
X41599200Y11998446D01*
X41599200Y11998446D02*
X41561104Y11960351D01*
X41561104Y11960351D02*
X41484914Y11922256D01*
X41484914Y11922256D02*
X41332533Y11884160D01*
X41332533Y11884160D02*
X41142057Y11884160D01*
X41142057Y11884160D02*
X40989676Y11922256D01*
X40989676Y11922256D02*
X40913485Y11960351D01*
X40913485Y11960351D02*
X40875390Y11998446D01*
X40875390Y11998446D02*
X40837295Y12074637D01*
X23857295Y2809888D02*
X23057295Y2809888D01*
X23057295Y2809888D02*
X23057295Y3114650D01*
X23057295Y3114650D02*
X23095390Y3190840D01*
X23095390Y3190840D02*
X23133485Y3228935D01*
X23133485Y3228935D02*
X23209676Y3267031D01*
X23209676Y3267031D02*
X23323961Y3267031D01*
X23323961Y3267031D02*
X23400152Y3228935D01*
X23400152Y3228935D02*
X23438247Y3190840D01*
X23438247Y3190840D02*
X23476342Y3114650D01*
X23476342Y3114650D02*
X23476342Y2809888D01*
X23781104Y4067031D02*
X23819200Y4028935D01*
X23819200Y4028935D02*
X23857295Y3914650D01*
X23857295Y3914650D02*
X23857295Y3838459D01*
X23857295Y3838459D02*
X23819200Y3724173D01*
X23819200Y3724173D02*
X23743009Y3647983D01*
X23743009Y3647983D02*
X23666819Y3609888D01*
X23666819Y3609888D02*
X23514438Y3571792D01*
X23514438Y3571792D02*
X23400152Y3571792D01*
X23400152Y3571792D02*
X23247771Y3609888D01*
X23247771Y3609888D02*
X23171580Y3647983D01*
X23171580Y3647983D02*
X23095390Y3724173D01*
X23095390Y3724173D02*
X23057295Y3838459D01*
X23057295Y3838459D02*
X23057295Y3914650D01*
X23057295Y3914650D02*
X23095390Y4028935D01*
X23095390Y4028935D02*
X23133485Y4067031D01*
X23133485Y4371792D02*
X23095390Y4409888D01*
X23095390Y4409888D02*
X23057295Y4486078D01*
X23057295Y4486078D02*
X23057295Y4676554D01*
X23057295Y4676554D02*
X23095390Y4752745D01*
X23095390Y4752745D02*
X23133485Y4790840D01*
X23133485Y4790840D02*
X23209676Y4828935D01*
X23209676Y4828935D02*
X23285866Y4828935D01*
X23285866Y4828935D02*
X23400152Y4790840D01*
X23400152Y4790840D02*
X23857295Y4333697D01*
X23857295Y4333697D02*
X23857295Y4828935D01*
X63697295Y4105126D02*
X63697295Y3724174D01*
X63697295Y3724174D02*
X64078247Y3686078D01*
X64078247Y3686078D02*
X64040152Y3724174D01*
X64040152Y3724174D02*
X64002057Y3800364D01*
X64002057Y3800364D02*
X64002057Y3990840D01*
X64002057Y3990840D02*
X64040152Y4067031D01*
X64040152Y4067031D02*
X64078247Y4105126D01*
X64078247Y4105126D02*
X64154438Y4143221D01*
X64154438Y4143221D02*
X64344914Y4143221D01*
X64344914Y4143221D02*
X64421104Y4105126D01*
X64421104Y4105126D02*
X64459200Y4067031D01*
X64459200Y4067031D02*
X64497295Y3990840D01*
X64497295Y3990840D02*
X64497295Y3800364D01*
X64497295Y3800364D02*
X64459200Y3724174D01*
X64459200Y3724174D02*
X64421104Y3686078D01*
X63697295Y4371793D02*
X64497295Y4638460D01*
X64497295Y4638460D02*
X63697295Y4905126D01*
X18358247Y3038459D02*
X18396342Y3152745D01*
X18396342Y3152745D02*
X18434438Y3190840D01*
X18434438Y3190840D02*
X18510628Y3228936D01*
X18510628Y3228936D02*
X18624914Y3228936D01*
X18624914Y3228936D02*
X18701104Y3190840D01*
X18701104Y3190840D02*
X18739200Y3152745D01*
X18739200Y3152745D02*
X18777295Y3076555D01*
X18777295Y3076555D02*
X18777295Y2771793D01*
X18777295Y2771793D02*
X17977295Y2771793D01*
X17977295Y2771793D02*
X17977295Y3038459D01*
X17977295Y3038459D02*
X18015390Y3114650D01*
X18015390Y3114650D02*
X18053485Y3152745D01*
X18053485Y3152745D02*
X18129676Y3190840D01*
X18129676Y3190840D02*
X18205866Y3190840D01*
X18205866Y3190840D02*
X18282057Y3152745D01*
X18282057Y3152745D02*
X18320152Y3114650D01*
X18320152Y3114650D02*
X18358247Y3038459D01*
X18358247Y3038459D02*
X18358247Y2771793D01*
X17977295Y3724174D02*
X17977295Y3876555D01*
X17977295Y3876555D02*
X18015390Y3952745D01*
X18015390Y3952745D02*
X18091580Y4028936D01*
X18091580Y4028936D02*
X18243961Y4067031D01*
X18243961Y4067031D02*
X18510628Y4067031D01*
X18510628Y4067031D02*
X18663009Y4028936D01*
X18663009Y4028936D02*
X18739200Y3952745D01*
X18739200Y3952745D02*
X18777295Y3876555D01*
X18777295Y3876555D02*
X18777295Y3724174D01*
X18777295Y3724174D02*
X18739200Y3647983D01*
X18739200Y3647983D02*
X18663009Y3571793D01*
X18663009Y3571793D02*
X18510628Y3533697D01*
X18510628Y3533697D02*
X18243961Y3533697D01*
X18243961Y3533697D02*
X18091580Y3571793D01*
X18091580Y3571793D02*
X18015390Y3647983D01*
X18015390Y3647983D02*
X17977295Y3724174D01*
X17977295Y4562269D02*
X17977295Y4638459D01*
X17977295Y4638459D02*
X18015390Y4714650D01*
X18015390Y4714650D02*
X18053485Y4752745D01*
X18053485Y4752745D02*
X18129676Y4790840D01*
X18129676Y4790840D02*
X18282057Y4828935D01*
X18282057Y4828935D02*
X18472533Y4828935D01*
X18472533Y4828935D02*
X18624914Y4790840D01*
X18624914Y4790840D02*
X18701104Y4752745D01*
X18701104Y4752745D02*
X18739200Y4714650D01*
X18739200Y4714650D02*
X18777295Y4638459D01*
X18777295Y4638459D02*
X18777295Y4562269D01*
X18777295Y4562269D02*
X18739200Y4486078D01*
X18739200Y4486078D02*
X18701104Y4447983D01*
X18701104Y4447983D02*
X18624914Y4409888D01*
X18624914Y4409888D02*
X18472533Y4371792D01*
X18472533Y4371792D02*
X18282057Y4371792D01*
X18282057Y4371792D02*
X18129676Y4409888D01*
X18129676Y4409888D02*
X18053485Y4447983D01*
X18053485Y4447983D02*
X18015390Y4486078D01*
X18015390Y4486078D02*
X17977295Y4562269D01*
X25597295Y49819161D02*
X26244914Y49819161D01*
X26244914Y49819161D02*
X26321104Y49857256D01*
X26321104Y49857256D02*
X26359200Y49895351D01*
X26359200Y49895351D02*
X26397295Y49971542D01*
X26397295Y49971542D02*
X26397295Y50123923D01*
X26397295Y50123923D02*
X26359200Y50200113D01*
X26359200Y50200113D02*
X26321104Y50238208D01*
X26321104Y50238208D02*
X26244914Y50276304D01*
X26244914Y50276304D02*
X25597295Y50276304D01*
X26397295Y50695351D02*
X26397295Y50847732D01*
X26397295Y50847732D02*
X26359200Y50923922D01*
X26359200Y50923922D02*
X26321104Y50962018D01*
X26321104Y50962018D02*
X26206819Y51038208D01*
X26206819Y51038208D02*
X26054438Y51076303D01*
X26054438Y51076303D02*
X25749676Y51076303D01*
X25749676Y51076303D02*
X25673485Y51038208D01*
X25673485Y51038208D02*
X25635390Y51000113D01*
X25635390Y51000113D02*
X25597295Y50923922D01*
X25597295Y50923922D02*
X25597295Y50771541D01*
X25597295Y50771541D02*
X25635390Y50695351D01*
X25635390Y50695351D02*
X25673485Y50657256D01*
X25673485Y50657256D02*
X25749676Y50619160D01*
X25749676Y50619160D02*
X25940152Y50619160D01*
X25940152Y50619160D02*
X26016342Y50657256D01*
X26016342Y50657256D02*
X26054438Y50695351D01*
X26054438Y50695351D02*
X26092533Y50771541D01*
X26092533Y50771541D02*
X26092533Y50923922D01*
X26092533Y50923922D02*
X26054438Y51000113D01*
X26054438Y51000113D02*
X26016342Y51038208D01*
X26016342Y51038208D02*
X25940152Y51076303D01*
X63735390Y11503208D02*
X63697295Y11427018D01*
X63697295Y11427018D02*
X63697295Y11312732D01*
X63697295Y11312732D02*
X63735390Y11198446D01*
X63735390Y11198446D02*
X63811580Y11122256D01*
X63811580Y11122256D02*
X63887771Y11084161D01*
X63887771Y11084161D02*
X64040152Y11046065D01*
X64040152Y11046065D02*
X64154438Y11046065D01*
X64154438Y11046065D02*
X64306819Y11084161D01*
X64306819Y11084161D02*
X64383009Y11122256D01*
X64383009Y11122256D02*
X64459200Y11198446D01*
X64459200Y11198446D02*
X64497295Y11312732D01*
X64497295Y11312732D02*
X64497295Y11388923D01*
X64497295Y11388923D02*
X64459200Y11503208D01*
X64459200Y11503208D02*
X64421104Y11541304D01*
X64421104Y11541304D02*
X64154438Y11541304D01*
X64154438Y11541304D02*
X64154438Y11388923D01*
X64497295Y11884161D02*
X63697295Y11884161D01*
X63697295Y11884161D02*
X64497295Y12341304D01*
X64497295Y12341304D02*
X63697295Y12341304D01*
X64497295Y12722256D02*
X63697295Y12722256D01*
X63697295Y12722256D02*
X63697295Y12912732D01*
X63697295Y12912732D02*
X63735390Y13027018D01*
X63735390Y13027018D02*
X63811580Y13103208D01*
X63811580Y13103208D02*
X63887771Y13141303D01*
X63887771Y13141303D02*
X64040152Y13179399D01*
X64040152Y13179399D02*
X64154438Y13179399D01*
X64154438Y13179399D02*
X64306819Y13141303D01*
X64306819Y13141303D02*
X64383009Y13103208D01*
X64383009Y13103208D02*
X64459200Y13027018D01*
X64459200Y13027018D02*
X64497295Y12912732D01*
X64497295Y12912732D02*
X64497295Y12722256D01*
X44177295Y11084161D02*
X43377295Y11084161D01*
X43377295Y11084161D02*
X43377295Y11388923D01*
X43377295Y11388923D02*
X43415390Y11465113D01*
X43415390Y11465113D02*
X43453485Y11503208D01*
X43453485Y11503208D02*
X43529676Y11541304D01*
X43529676Y11541304D02*
X43643961Y11541304D01*
X43643961Y11541304D02*
X43720152Y11503208D01*
X43720152Y11503208D02*
X43758247Y11465113D01*
X43758247Y11465113D02*
X43796342Y11388923D01*
X43796342Y11388923D02*
X43796342Y11084161D01*
X43758247Y12150827D02*
X43796342Y12265113D01*
X43796342Y12265113D02*
X43834438Y12303208D01*
X43834438Y12303208D02*
X43910628Y12341304D01*
X43910628Y12341304D02*
X44024914Y12341304D01*
X44024914Y12341304D02*
X44101104Y12303208D01*
X44101104Y12303208D02*
X44139200Y12265113D01*
X44139200Y12265113D02*
X44177295Y12188923D01*
X44177295Y12188923D02*
X44177295Y11884161D01*
X44177295Y11884161D02*
X43377295Y11884161D01*
X43377295Y11884161D02*
X43377295Y12150827D01*
X43377295Y12150827D02*
X43415390Y12227018D01*
X43415390Y12227018D02*
X43453485Y12265113D01*
X43453485Y12265113D02*
X43529676Y12303208D01*
X43529676Y12303208D02*
X43605866Y12303208D01*
X43605866Y12303208D02*
X43682057Y12265113D01*
X43682057Y12265113D02*
X43720152Y12227018D01*
X43720152Y12227018D02*
X43758247Y12150827D01*
X43758247Y12150827D02*
X43758247Y11884161D01*
X44177295Y13103208D02*
X44177295Y12646065D01*
X44177295Y12874637D02*
X43377295Y12874637D01*
X43377295Y12874637D02*
X43491580Y12798446D01*
X43491580Y12798446D02*
X43567771Y12722256D01*
X43567771Y12722256D02*
X43605866Y12646065D01*
X44177295Y13865113D02*
X44177295Y13407970D01*
X44177295Y13636542D02*
X43377295Y13636542D01*
X43377295Y13636542D02*
X43491580Y13560351D01*
X43491580Y13560351D02*
X43567771Y13484161D01*
X43567771Y13484161D02*
X43605866Y13407970D01*
X41637295Y49819161D02*
X40837295Y49819161D01*
X40837295Y49819161D02*
X40837295Y50123923D01*
X40837295Y50123923D02*
X40875390Y50200113D01*
X40875390Y50200113D02*
X40913485Y50238208D01*
X40913485Y50238208D02*
X40989676Y50276304D01*
X40989676Y50276304D02*
X41103961Y50276304D01*
X41103961Y50276304D02*
X41180152Y50238208D01*
X41180152Y50238208D02*
X41218247Y50200113D01*
X41218247Y50200113D02*
X41256342Y50123923D01*
X41256342Y50123923D02*
X41256342Y49819161D01*
X41561104Y51076304D02*
X41599200Y51038208D01*
X41599200Y51038208D02*
X41637295Y50923923D01*
X41637295Y50923923D02*
X41637295Y50847732D01*
X41637295Y50847732D02*
X41599200Y50733446D01*
X41599200Y50733446D02*
X41523009Y50657256D01*
X41523009Y50657256D02*
X41446819Y50619161D01*
X41446819Y50619161D02*
X41294438Y50581065D01*
X41294438Y50581065D02*
X41180152Y50581065D01*
X41180152Y50581065D02*
X41027771Y50619161D01*
X41027771Y50619161D02*
X40951580Y50657256D01*
X40951580Y50657256D02*
X40875390Y50733446D01*
X40875390Y50733446D02*
X40837295Y50847732D01*
X40837295Y50847732D02*
X40837295Y50923923D01*
X40837295Y50923923D02*
X40875390Y51038208D01*
X40875390Y51038208D02*
X40913485Y51076304D01*
X41637295Y51838208D02*
X41637295Y51381065D01*
X41637295Y51609637D02*
X40837295Y51609637D01*
X40837295Y51609637D02*
X40951580Y51533446D01*
X40951580Y51533446D02*
X41027771Y51457256D01*
X41027771Y51457256D02*
X41065866Y51381065D01*
X40837295Y52333447D02*
X40837295Y52409637D01*
X40837295Y52409637D02*
X40875390Y52485828D01*
X40875390Y52485828D02*
X40913485Y52523923D01*
X40913485Y52523923D02*
X40989676Y52562018D01*
X40989676Y52562018D02*
X41142057Y52600113D01*
X41142057Y52600113D02*
X41332533Y52600113D01*
X41332533Y52600113D02*
X41484914Y52562018D01*
X41484914Y52562018D02*
X41561104Y52523923D01*
X41561104Y52523923D02*
X41599200Y52485828D01*
X41599200Y52485828D02*
X41637295Y52409637D01*
X41637295Y52409637D02*
X41637295Y52333447D01*
X41637295Y52333447D02*
X41599200Y52257256D01*
X41599200Y52257256D02*
X41561104Y52219161D01*
X41561104Y52219161D02*
X41484914Y52181066D01*
X41484914Y52181066D02*
X41332533Y52142970D01*
X41332533Y52142970D02*
X41142057Y52142970D01*
X41142057Y52142970D02*
X40989676Y52181066D01*
X40989676Y52181066D02*
X40913485Y52219161D01*
X40913485Y52219161D02*
X40875390Y52257256D01*
X40875390Y52257256D02*
X40837295Y52333447D01*
X36557295Y2809888D02*
X35757295Y2809888D01*
X35757295Y2809888D02*
X35757295Y3114650D01*
X35757295Y3114650D02*
X35795390Y3190840D01*
X35795390Y3190840D02*
X35833485Y3228935D01*
X35833485Y3228935D02*
X35909676Y3267031D01*
X35909676Y3267031D02*
X36023961Y3267031D01*
X36023961Y3267031D02*
X36100152Y3228935D01*
X36100152Y3228935D02*
X36138247Y3190840D01*
X36138247Y3190840D02*
X36176342Y3114650D01*
X36176342Y3114650D02*
X36176342Y2809888D01*
X36481104Y4067031D02*
X36519200Y4028935D01*
X36519200Y4028935D02*
X36557295Y3914650D01*
X36557295Y3914650D02*
X36557295Y3838459D01*
X36557295Y3838459D02*
X36519200Y3724173D01*
X36519200Y3724173D02*
X36443009Y3647983D01*
X36443009Y3647983D02*
X36366819Y3609888D01*
X36366819Y3609888D02*
X36214438Y3571792D01*
X36214438Y3571792D02*
X36100152Y3571792D01*
X36100152Y3571792D02*
X35947771Y3609888D01*
X35947771Y3609888D02*
X35871580Y3647983D01*
X35871580Y3647983D02*
X35795390Y3724173D01*
X35795390Y3724173D02*
X35757295Y3838459D01*
X35757295Y3838459D02*
X35757295Y3914650D01*
X35757295Y3914650D02*
X35795390Y4028935D01*
X35795390Y4028935D02*
X35833485Y4067031D01*
X36023961Y4752745D02*
X36557295Y4752745D01*
X35719200Y4562269D02*
X36290628Y4371792D01*
X36290628Y4371792D02*
X36290628Y4867031D01*
X44177295Y2047983D02*
X43377295Y2047983D01*
X43377295Y2047983D02*
X43377295Y2352745D01*
X43377295Y2352745D02*
X43415390Y2428935D01*
X43415390Y2428935D02*
X43453485Y2467030D01*
X43453485Y2467030D02*
X43529676Y2505126D01*
X43529676Y2505126D02*
X43643961Y2505126D01*
X43643961Y2505126D02*
X43720152Y2467030D01*
X43720152Y2467030D02*
X43758247Y2428935D01*
X43758247Y2428935D02*
X43796342Y2352745D01*
X43796342Y2352745D02*
X43796342Y2047983D01*
X43758247Y3114649D02*
X43796342Y3228935D01*
X43796342Y3228935D02*
X43834438Y3267030D01*
X43834438Y3267030D02*
X43910628Y3305126D01*
X43910628Y3305126D02*
X44024914Y3305126D01*
X44024914Y3305126D02*
X44101104Y3267030D01*
X44101104Y3267030D02*
X44139200Y3228935D01*
X44139200Y3228935D02*
X44177295Y3152745D01*
X44177295Y3152745D02*
X44177295Y2847983D01*
X44177295Y2847983D02*
X43377295Y2847983D01*
X43377295Y2847983D02*
X43377295Y3114649D01*
X43377295Y3114649D02*
X43415390Y3190840D01*
X43415390Y3190840D02*
X43453485Y3228935D01*
X43453485Y3228935D02*
X43529676Y3267030D01*
X43529676Y3267030D02*
X43605866Y3267030D01*
X43605866Y3267030D02*
X43682057Y3228935D01*
X43682057Y3228935D02*
X43720152Y3190840D01*
X43720152Y3190840D02*
X43758247Y3114649D01*
X43758247Y3114649D02*
X43758247Y2847983D01*
X44177295Y4067030D02*
X44177295Y3609887D01*
X44177295Y3838459D02*
X43377295Y3838459D01*
X43377295Y3838459D02*
X43491580Y3762268D01*
X43491580Y3762268D02*
X43567771Y3686078D01*
X43567771Y3686078D02*
X43605866Y3609887D01*
X43377295Y4562269D02*
X43377295Y4638459D01*
X43377295Y4638459D02*
X43415390Y4714650D01*
X43415390Y4714650D02*
X43453485Y4752745D01*
X43453485Y4752745D02*
X43529676Y4790840D01*
X43529676Y4790840D02*
X43682057Y4828935D01*
X43682057Y4828935D02*
X43872533Y4828935D01*
X43872533Y4828935D02*
X44024914Y4790840D01*
X44024914Y4790840D02*
X44101104Y4752745D01*
X44101104Y4752745D02*
X44139200Y4714650D01*
X44139200Y4714650D02*
X44177295Y4638459D01*
X44177295Y4638459D02*
X44177295Y4562269D01*
X44177295Y4562269D02*
X44139200Y4486078D01*
X44139200Y4486078D02*
X44101104Y4447983D01*
X44101104Y4447983D02*
X44024914Y4409888D01*
X44024914Y4409888D02*
X43872533Y4371792D01*
X43872533Y4371792D02*
X43682057Y4371792D01*
X43682057Y4371792D02*
X43529676Y4409888D01*
X43529676Y4409888D02*
X43453485Y4447983D01*
X43453485Y4447983D02*
X43415390Y4486078D01*
X43415390Y4486078D02*
X43377295Y4562269D01*
X58617295Y49819161D02*
X59264914Y49819161D01*
X59264914Y49819161D02*
X59341104Y49857256D01*
X59341104Y49857256D02*
X59379200Y49895351D01*
X59379200Y49895351D02*
X59417295Y49971542D01*
X59417295Y49971542D02*
X59417295Y50123923D01*
X59417295Y50123923D02*
X59379200Y50200113D01*
X59379200Y50200113D02*
X59341104Y50238208D01*
X59341104Y50238208D02*
X59264914Y50276304D01*
X59264914Y50276304D02*
X58617295Y50276304D01*
X59417295Y51076303D02*
X59417295Y50619160D01*
X59417295Y50847732D02*
X58617295Y50847732D01*
X58617295Y50847732D02*
X58731580Y50771541D01*
X58731580Y50771541D02*
X58807771Y50695351D01*
X58807771Y50695351D02*
X58845866Y50619160D01*
X58617295Y51800113D02*
X58617295Y51419161D01*
X58617295Y51419161D02*
X58998247Y51381065D01*
X58998247Y51381065D02*
X58960152Y51419161D01*
X58960152Y51419161D02*
X58922057Y51495351D01*
X58922057Y51495351D02*
X58922057Y51685827D01*
X58922057Y51685827D02*
X58960152Y51762018D01*
X58960152Y51762018D02*
X58998247Y51800113D01*
X58998247Y51800113D02*
X59074438Y51838208D01*
X59074438Y51838208D02*
X59264914Y51838208D01*
X59264914Y51838208D02*
X59341104Y51800113D01*
X59341104Y51800113D02*
X59379200Y51762018D01*
X59379200Y51762018D02*
X59417295Y51685827D01*
X59417295Y51685827D02*
X59417295Y51495351D01*
X59417295Y51495351D02*
X59379200Y51419161D01*
X59379200Y51419161D02*
X59341104Y51381065D01*
X63735390Y41252745D02*
X63697295Y41176555D01*
X63697295Y41176555D02*
X63697295Y41062269D01*
X63697295Y41062269D02*
X63735390Y40947983D01*
X63735390Y40947983D02*
X63811580Y40871793D01*
X63811580Y40871793D02*
X63887771Y40833698D01*
X63887771Y40833698D02*
X64040152Y40795602D01*
X64040152Y40795602D02*
X64154438Y40795602D01*
X64154438Y40795602D02*
X64306819Y40833698D01*
X64306819Y40833698D02*
X64383009Y40871793D01*
X64383009Y40871793D02*
X64459200Y40947983D01*
X64459200Y40947983D02*
X64497295Y41062269D01*
X64497295Y41062269D02*
X64497295Y41138460D01*
X64497295Y41138460D02*
X64459200Y41252745D01*
X64459200Y41252745D02*
X64421104Y41290841D01*
X64421104Y41290841D02*
X64154438Y41290841D01*
X64154438Y41290841D02*
X64154438Y41138460D01*
X64497295Y41633698D02*
X63697295Y41633698D01*
X63697295Y41633698D02*
X64497295Y42090841D01*
X64497295Y42090841D02*
X63697295Y42090841D01*
X64497295Y42471793D02*
X63697295Y42471793D01*
X63697295Y42471793D02*
X63697295Y42662269D01*
X63697295Y42662269D02*
X63735390Y42776555D01*
X63735390Y42776555D02*
X63811580Y42852745D01*
X63811580Y42852745D02*
X63887771Y42890840D01*
X63887771Y42890840D02*
X64040152Y42928936D01*
X64040152Y42928936D02*
X64154438Y42928936D01*
X64154438Y42928936D02*
X64306819Y42890840D01*
X64306819Y42890840D02*
X64383009Y42852745D01*
X64383009Y42852745D02*
X64459200Y42776555D01*
X64459200Y42776555D02*
X64497295Y42662269D01*
X64497295Y42662269D02*
X64497295Y42471793D01*
X49257295Y11084161D02*
X48457295Y11084161D01*
X48457295Y11084161D02*
X48457295Y11388923D01*
X48457295Y11388923D02*
X48495390Y11465113D01*
X48495390Y11465113D02*
X48533485Y11503208D01*
X48533485Y11503208D02*
X48609676Y11541304D01*
X48609676Y11541304D02*
X48723961Y11541304D01*
X48723961Y11541304D02*
X48800152Y11503208D01*
X48800152Y11503208D02*
X48838247Y11465113D01*
X48838247Y11465113D02*
X48876342Y11388923D01*
X48876342Y11388923D02*
X48876342Y11084161D01*
X48838247Y12150827D02*
X48876342Y12265113D01*
X48876342Y12265113D02*
X48914438Y12303208D01*
X48914438Y12303208D02*
X48990628Y12341304D01*
X48990628Y12341304D02*
X49104914Y12341304D01*
X49104914Y12341304D02*
X49181104Y12303208D01*
X49181104Y12303208D02*
X49219200Y12265113D01*
X49219200Y12265113D02*
X49257295Y12188923D01*
X49257295Y12188923D02*
X49257295Y11884161D01*
X49257295Y11884161D02*
X48457295Y11884161D01*
X48457295Y11884161D02*
X48457295Y12150827D01*
X48457295Y12150827D02*
X48495390Y12227018D01*
X48495390Y12227018D02*
X48533485Y12265113D01*
X48533485Y12265113D02*
X48609676Y12303208D01*
X48609676Y12303208D02*
X48685866Y12303208D01*
X48685866Y12303208D02*
X48762057Y12265113D01*
X48762057Y12265113D02*
X48800152Y12227018D01*
X48800152Y12227018D02*
X48838247Y12150827D01*
X48838247Y12150827D02*
X48838247Y11884161D01*
X49257295Y13103208D02*
X49257295Y12646065D01*
X49257295Y12874637D02*
X48457295Y12874637D01*
X48457295Y12874637D02*
X48571580Y12798446D01*
X48571580Y12798446D02*
X48647771Y12722256D01*
X48647771Y12722256D02*
X48685866Y12646065D01*
X48457295Y13827018D02*
X48457295Y13446066D01*
X48457295Y13446066D02*
X48838247Y13407970D01*
X48838247Y13407970D02*
X48800152Y13446066D01*
X48800152Y13446066D02*
X48762057Y13522256D01*
X48762057Y13522256D02*
X48762057Y13712732D01*
X48762057Y13712732D02*
X48800152Y13788923D01*
X48800152Y13788923D02*
X48838247Y13827018D01*
X48838247Y13827018D02*
X48914438Y13865113D01*
X48914438Y13865113D02*
X49104914Y13865113D01*
X49104914Y13865113D02*
X49181104Y13827018D01*
X49181104Y13827018D02*
X49219200Y13788923D01*
X49219200Y13788923D02*
X49257295Y13712732D01*
X49257295Y13712732D02*
X49257295Y13522256D01*
X49257295Y13522256D02*
X49219200Y13446066D01*
X49219200Y13446066D02*
X49181104Y13407970D01*
X61157295Y2505126D02*
X61157295Y3000364D01*
X61157295Y3000364D02*
X61462057Y2733698D01*
X61462057Y2733698D02*
X61462057Y2847983D01*
X61462057Y2847983D02*
X61500152Y2924174D01*
X61500152Y2924174D02*
X61538247Y2962269D01*
X61538247Y2962269D02*
X61614438Y3000364D01*
X61614438Y3000364D02*
X61804914Y3000364D01*
X61804914Y3000364D02*
X61881104Y2962269D01*
X61881104Y2962269D02*
X61919200Y2924174D01*
X61919200Y2924174D02*
X61957295Y2847983D01*
X61957295Y2847983D02*
X61957295Y2619412D01*
X61957295Y2619412D02*
X61919200Y2543221D01*
X61919200Y2543221D02*
X61881104Y2505126D01*
X61881104Y3343222D02*
X61919200Y3381317D01*
X61919200Y3381317D02*
X61957295Y3343222D01*
X61957295Y3343222D02*
X61919200Y3305126D01*
X61919200Y3305126D02*
X61881104Y3343222D01*
X61881104Y3343222D02*
X61957295Y3343222D01*
X61157295Y3647983D02*
X61157295Y4143221D01*
X61157295Y4143221D02*
X61462057Y3876555D01*
X61462057Y3876555D02*
X61462057Y3990840D01*
X61462057Y3990840D02*
X61500152Y4067031D01*
X61500152Y4067031D02*
X61538247Y4105126D01*
X61538247Y4105126D02*
X61614438Y4143221D01*
X61614438Y4143221D02*
X61804914Y4143221D01*
X61804914Y4143221D02*
X61881104Y4105126D01*
X61881104Y4105126D02*
X61919200Y4067031D01*
X61919200Y4067031D02*
X61957295Y3990840D01*
X61957295Y3990840D02*
X61957295Y3762269D01*
X61957295Y3762269D02*
X61919200Y3686078D01*
X61919200Y3686078D02*
X61881104Y3647983D01*
X61157295Y4371793D02*
X61957295Y4638460D01*
X61957295Y4638460D02*
X61157295Y4905126D01*
X54337295Y49819161D02*
X53537295Y49819161D01*
X53537295Y49819161D02*
X53537295Y50123923D01*
X53537295Y50123923D02*
X53575390Y50200113D01*
X53575390Y50200113D02*
X53613485Y50238208D01*
X53613485Y50238208D02*
X53689676Y50276304D01*
X53689676Y50276304D02*
X53803961Y50276304D01*
X53803961Y50276304D02*
X53880152Y50238208D01*
X53880152Y50238208D02*
X53918247Y50200113D01*
X53918247Y50200113D02*
X53956342Y50123923D01*
X53956342Y50123923D02*
X53956342Y49819161D01*
X54108723Y50581065D02*
X54108723Y50962018D01*
X54337295Y50504875D02*
X53537295Y50771542D01*
X53537295Y50771542D02*
X54337295Y51038208D01*
X53880152Y51419160D02*
X53842057Y51342970D01*
X53842057Y51342970D02*
X53803961Y51304875D01*
X53803961Y51304875D02*
X53727771Y51266779D01*
X53727771Y51266779D02*
X53689676Y51266779D01*
X53689676Y51266779D02*
X53613485Y51304875D01*
X53613485Y51304875D02*
X53575390Y51342970D01*
X53575390Y51342970D02*
X53537295Y51419160D01*
X53537295Y51419160D02*
X53537295Y51571541D01*
X53537295Y51571541D02*
X53575390Y51647732D01*
X53575390Y51647732D02*
X53613485Y51685827D01*
X53613485Y51685827D02*
X53689676Y51723922D01*
X53689676Y51723922D02*
X53727771Y51723922D01*
X53727771Y51723922D02*
X53803961Y51685827D01*
X53803961Y51685827D02*
X53842057Y51647732D01*
X53842057Y51647732D02*
X53880152Y51571541D01*
X53880152Y51571541D02*
X53880152Y51419160D01*
X53880152Y51419160D02*
X53918247Y51342970D01*
X53918247Y51342970D02*
X53956342Y51304875D01*
X53956342Y51304875D02*
X54032533Y51266779D01*
X54032533Y51266779D02*
X54184914Y51266779D01*
X54184914Y51266779D02*
X54261104Y51304875D01*
X54261104Y51304875D02*
X54299200Y51342970D01*
X54299200Y51342970D02*
X54337295Y51419160D01*
X54337295Y51419160D02*
X54337295Y51571541D01*
X54337295Y51571541D02*
X54299200Y51647732D01*
X54299200Y51647732D02*
X54261104Y51685827D01*
X54261104Y51685827D02*
X54184914Y51723922D01*
X54184914Y51723922D02*
X54032533Y51723922D01*
X54032533Y51723922D02*
X53956342Y51685827D01*
X53956342Y51685827D02*
X53918247Y51647732D01*
X53918247Y51647732D02*
X53880152Y51571541D01*
X34017295Y40909888D02*
X33217295Y40909888D01*
X33217295Y40909888D02*
X33217295Y41214650D01*
X33217295Y41214650D02*
X33255390Y41290840D01*
X33255390Y41290840D02*
X33293485Y41328935D01*
X33293485Y41328935D02*
X33369676Y41367031D01*
X33369676Y41367031D02*
X33483961Y41367031D01*
X33483961Y41367031D02*
X33560152Y41328935D01*
X33560152Y41328935D02*
X33598247Y41290840D01*
X33598247Y41290840D02*
X33636342Y41214650D01*
X33636342Y41214650D02*
X33636342Y40909888D01*
X33598247Y41976554D02*
X33636342Y42090840D01*
X33636342Y42090840D02*
X33674438Y42128935D01*
X33674438Y42128935D02*
X33750628Y42167031D01*
X33750628Y42167031D02*
X33864914Y42167031D01*
X33864914Y42167031D02*
X33941104Y42128935D01*
X33941104Y42128935D02*
X33979200Y42090840D01*
X33979200Y42090840D02*
X34017295Y42014650D01*
X34017295Y42014650D02*
X34017295Y41709888D01*
X34017295Y41709888D02*
X33217295Y41709888D01*
X33217295Y41709888D02*
X33217295Y41976554D01*
X33217295Y41976554D02*
X33255390Y42052745D01*
X33255390Y42052745D02*
X33293485Y42090840D01*
X33293485Y42090840D02*
X33369676Y42128935D01*
X33369676Y42128935D02*
X33445866Y42128935D01*
X33445866Y42128935D02*
X33522057Y42090840D01*
X33522057Y42090840D02*
X33560152Y42052745D01*
X33560152Y42052745D02*
X33598247Y41976554D01*
X33598247Y41976554D02*
X33598247Y41709888D01*
X33217295Y42890840D02*
X33217295Y42509888D01*
X33217295Y42509888D02*
X33598247Y42471792D01*
X33598247Y42471792D02*
X33560152Y42509888D01*
X33560152Y42509888D02*
X33522057Y42586078D01*
X33522057Y42586078D02*
X33522057Y42776554D01*
X33522057Y42776554D02*
X33560152Y42852745D01*
X33560152Y42852745D02*
X33598247Y42890840D01*
X33598247Y42890840D02*
X33674438Y42928935D01*
X33674438Y42928935D02*
X33864914Y42928935D01*
X33864914Y42928935D02*
X33941104Y42890840D01*
X33941104Y42890840D02*
X33979200Y42852745D01*
X33979200Y42852745D02*
X34017295Y42776554D01*
X34017295Y42776554D02*
X34017295Y42586078D01*
X34017295Y42586078D02*
X33979200Y42509888D01*
X33979200Y42509888D02*
X33941104Y42471792D01*
X36557295Y40909888D02*
X35757295Y40909888D01*
X35757295Y40909888D02*
X35757295Y41214650D01*
X35757295Y41214650D02*
X35795390Y41290840D01*
X35795390Y41290840D02*
X35833485Y41328935D01*
X35833485Y41328935D02*
X35909676Y41367031D01*
X35909676Y41367031D02*
X36023961Y41367031D01*
X36023961Y41367031D02*
X36100152Y41328935D01*
X36100152Y41328935D02*
X36138247Y41290840D01*
X36138247Y41290840D02*
X36176342Y41214650D01*
X36176342Y41214650D02*
X36176342Y40909888D01*
X36138247Y41976554D02*
X36176342Y42090840D01*
X36176342Y42090840D02*
X36214438Y42128935D01*
X36214438Y42128935D02*
X36290628Y42167031D01*
X36290628Y42167031D02*
X36404914Y42167031D01*
X36404914Y42167031D02*
X36481104Y42128935D01*
X36481104Y42128935D02*
X36519200Y42090840D01*
X36519200Y42090840D02*
X36557295Y42014650D01*
X36557295Y42014650D02*
X36557295Y41709888D01*
X36557295Y41709888D02*
X35757295Y41709888D01*
X35757295Y41709888D02*
X35757295Y41976554D01*
X35757295Y41976554D02*
X35795390Y42052745D01*
X35795390Y42052745D02*
X35833485Y42090840D01*
X35833485Y42090840D02*
X35909676Y42128935D01*
X35909676Y42128935D02*
X35985866Y42128935D01*
X35985866Y42128935D02*
X36062057Y42090840D01*
X36062057Y42090840D02*
X36100152Y42052745D01*
X36100152Y42052745D02*
X36138247Y41976554D01*
X36138247Y41976554D02*
X36138247Y41709888D01*
X35757295Y42433697D02*
X35757295Y42928935D01*
X35757295Y42928935D02*
X36062057Y42662269D01*
X36062057Y42662269D02*
X36062057Y42776554D01*
X36062057Y42776554D02*
X36100152Y42852745D01*
X36100152Y42852745D02*
X36138247Y42890840D01*
X36138247Y42890840D02*
X36214438Y42928935D01*
X36214438Y42928935D02*
X36404914Y42928935D01*
X36404914Y42928935D02*
X36481104Y42890840D01*
X36481104Y42890840D02*
X36519200Y42852745D01*
X36519200Y42852745D02*
X36557295Y42776554D01*
X36557295Y42776554D02*
X36557295Y42547983D01*
X36557295Y42547983D02*
X36519200Y42471792D01*
X36519200Y42471792D02*
X36481104Y42433697D01*
X56077295Y49819161D02*
X56724914Y49819161D01*
X56724914Y49819161D02*
X56801104Y49857256D01*
X56801104Y49857256D02*
X56839200Y49895351D01*
X56839200Y49895351D02*
X56877295Y49971542D01*
X56877295Y49971542D02*
X56877295Y50123923D01*
X56877295Y50123923D02*
X56839200Y50200113D01*
X56839200Y50200113D02*
X56801104Y50238208D01*
X56801104Y50238208D02*
X56724914Y50276304D01*
X56724914Y50276304D02*
X56077295Y50276304D01*
X56877295Y51076303D02*
X56877295Y50619160D01*
X56877295Y50847732D02*
X56077295Y50847732D01*
X56077295Y50847732D02*
X56191580Y50771541D01*
X56191580Y50771541D02*
X56267771Y50695351D01*
X56267771Y50695351D02*
X56305866Y50619160D01*
X56077295Y51342970D02*
X56077295Y51838208D01*
X56077295Y51838208D02*
X56382057Y51571542D01*
X56382057Y51571542D02*
X56382057Y51685827D01*
X56382057Y51685827D02*
X56420152Y51762018D01*
X56420152Y51762018D02*
X56458247Y51800113D01*
X56458247Y51800113D02*
X56534438Y51838208D01*
X56534438Y51838208D02*
X56724914Y51838208D01*
X56724914Y51838208D02*
X56801104Y51800113D01*
X56801104Y51800113D02*
X56839200Y51762018D01*
X56839200Y51762018D02*
X56877295Y51685827D01*
X56877295Y51685827D02*
X56877295Y51457256D01*
X56877295Y51457256D02*
X56839200Y51381065D01*
X56839200Y51381065D02*
X56801104Y51342970D01*
X21317295Y40147983D02*
X20517295Y40147983D01*
X20517295Y40147983D02*
X20517295Y40452745D01*
X20517295Y40452745D02*
X20555390Y40528935D01*
X20555390Y40528935D02*
X20593485Y40567030D01*
X20593485Y40567030D02*
X20669676Y40605126D01*
X20669676Y40605126D02*
X20783961Y40605126D01*
X20783961Y40605126D02*
X20860152Y40567030D01*
X20860152Y40567030D02*
X20898247Y40528935D01*
X20898247Y40528935D02*
X20936342Y40452745D01*
X20936342Y40452745D02*
X20936342Y40147983D01*
X21241104Y41405126D02*
X21279200Y41367030D01*
X21279200Y41367030D02*
X21317295Y41252745D01*
X21317295Y41252745D02*
X21317295Y41176554D01*
X21317295Y41176554D02*
X21279200Y41062268D01*
X21279200Y41062268D02*
X21203009Y40986078D01*
X21203009Y40986078D02*
X21126819Y40947983D01*
X21126819Y40947983D02*
X20974438Y40909887D01*
X20974438Y40909887D02*
X20860152Y40909887D01*
X20860152Y40909887D02*
X20707771Y40947983D01*
X20707771Y40947983D02*
X20631580Y40986078D01*
X20631580Y40986078D02*
X20555390Y41062268D01*
X20555390Y41062268D02*
X20517295Y41176554D01*
X20517295Y41176554D02*
X20517295Y41252745D01*
X20517295Y41252745D02*
X20555390Y41367030D01*
X20555390Y41367030D02*
X20593485Y41405126D01*
X21317295Y42167030D02*
X21317295Y41709887D01*
X21317295Y41938459D02*
X20517295Y41938459D01*
X20517295Y41938459D02*
X20631580Y41862268D01*
X20631580Y41862268D02*
X20707771Y41786078D01*
X20707771Y41786078D02*
X20745866Y41709887D01*
X20517295Y42890840D02*
X20517295Y42509888D01*
X20517295Y42509888D02*
X20898247Y42471792D01*
X20898247Y42471792D02*
X20860152Y42509888D01*
X20860152Y42509888D02*
X20822057Y42586078D01*
X20822057Y42586078D02*
X20822057Y42776554D01*
X20822057Y42776554D02*
X20860152Y42852745D01*
X20860152Y42852745D02*
X20898247Y42890840D01*
X20898247Y42890840D02*
X20974438Y42928935D01*
X20974438Y42928935D02*
X21164914Y42928935D01*
X21164914Y42928935D02*
X21241104Y42890840D01*
X21241104Y42890840D02*
X21279200Y42852745D01*
X21279200Y42852745D02*
X21317295Y42776554D01*
X21317295Y42776554D02*
X21317295Y42586078D01*
X21317295Y42586078D02*
X21279200Y42509888D01*
X21279200Y42509888D02*
X21241104Y42471792D01*
X31477295Y49819161D02*
X30677295Y49819161D01*
X30677295Y49819161D02*
X30677295Y50123923D01*
X30677295Y50123923D02*
X30715390Y50200113D01*
X30715390Y50200113D02*
X30753485Y50238208D01*
X30753485Y50238208D02*
X30829676Y50276304D01*
X30829676Y50276304D02*
X30943961Y50276304D01*
X30943961Y50276304D02*
X31020152Y50238208D01*
X31020152Y50238208D02*
X31058247Y50200113D01*
X31058247Y50200113D02*
X31096342Y50123923D01*
X31096342Y50123923D02*
X31096342Y49819161D01*
X31058247Y50885827D02*
X31096342Y51000113D01*
X31096342Y51000113D02*
X31134438Y51038208D01*
X31134438Y51038208D02*
X31210628Y51076304D01*
X31210628Y51076304D02*
X31324914Y51076304D01*
X31324914Y51076304D02*
X31401104Y51038208D01*
X31401104Y51038208D02*
X31439200Y51000113D01*
X31439200Y51000113D02*
X31477295Y50923923D01*
X31477295Y50923923D02*
X31477295Y50619161D01*
X31477295Y50619161D02*
X30677295Y50619161D01*
X30677295Y50619161D02*
X30677295Y50885827D01*
X30677295Y50885827D02*
X30715390Y50962018D01*
X30715390Y50962018D02*
X30753485Y51000113D01*
X30753485Y51000113D02*
X30829676Y51038208D01*
X30829676Y51038208D02*
X30905866Y51038208D01*
X30905866Y51038208D02*
X30982057Y51000113D01*
X30982057Y51000113D02*
X31020152Y50962018D01*
X31020152Y50962018D02*
X31058247Y50885827D01*
X31058247Y50885827D02*
X31058247Y50619161D01*
X30677295Y51762018D02*
X30677295Y51609637D01*
X30677295Y51609637D02*
X30715390Y51533446D01*
X30715390Y51533446D02*
X30753485Y51495351D01*
X30753485Y51495351D02*
X30867771Y51419161D01*
X30867771Y51419161D02*
X31020152Y51381065D01*
X31020152Y51381065D02*
X31324914Y51381065D01*
X31324914Y51381065D02*
X31401104Y51419161D01*
X31401104Y51419161D02*
X31439200Y51457256D01*
X31439200Y51457256D02*
X31477295Y51533446D01*
X31477295Y51533446D02*
X31477295Y51685827D01*
X31477295Y51685827D02*
X31439200Y51762018D01*
X31439200Y51762018D02*
X31401104Y51800113D01*
X31401104Y51800113D02*
X31324914Y51838208D01*
X31324914Y51838208D02*
X31134438Y51838208D01*
X31134438Y51838208D02*
X31058247Y51800113D01*
X31058247Y51800113D02*
X31020152Y51762018D01*
X31020152Y51762018D02*
X30982057Y51685827D01*
X30982057Y51685827D02*
X30982057Y51533446D01*
X30982057Y51533446D02*
X31020152Y51457256D01*
X31020152Y51457256D02*
X31058247Y51419161D01*
X31058247Y51419161D02*
X31134438Y51381065D01*
X34017295Y49819161D02*
X33217295Y49819161D01*
X33217295Y49819161D02*
X33217295Y50123923D01*
X33217295Y50123923D02*
X33255390Y50200113D01*
X33255390Y50200113D02*
X33293485Y50238208D01*
X33293485Y50238208D02*
X33369676Y50276304D01*
X33369676Y50276304D02*
X33483961Y50276304D01*
X33483961Y50276304D02*
X33560152Y50238208D01*
X33560152Y50238208D02*
X33598247Y50200113D01*
X33598247Y50200113D02*
X33636342Y50123923D01*
X33636342Y50123923D02*
X33636342Y49819161D01*
X33598247Y50885827D02*
X33636342Y51000113D01*
X33636342Y51000113D02*
X33674438Y51038208D01*
X33674438Y51038208D02*
X33750628Y51076304D01*
X33750628Y51076304D02*
X33864914Y51076304D01*
X33864914Y51076304D02*
X33941104Y51038208D01*
X33941104Y51038208D02*
X33979200Y51000113D01*
X33979200Y51000113D02*
X34017295Y50923923D01*
X34017295Y50923923D02*
X34017295Y50619161D01*
X34017295Y50619161D02*
X33217295Y50619161D01*
X33217295Y50619161D02*
X33217295Y50885827D01*
X33217295Y50885827D02*
X33255390Y50962018D01*
X33255390Y50962018D02*
X33293485Y51000113D01*
X33293485Y51000113D02*
X33369676Y51038208D01*
X33369676Y51038208D02*
X33445866Y51038208D01*
X33445866Y51038208D02*
X33522057Y51000113D01*
X33522057Y51000113D02*
X33560152Y50962018D01*
X33560152Y50962018D02*
X33598247Y50885827D01*
X33598247Y50885827D02*
X33598247Y50619161D01*
X33483961Y51762018D02*
X34017295Y51762018D01*
X33179200Y51571542D02*
X33750628Y51381065D01*
X33750628Y51381065D02*
X33750628Y51876304D01*
X43377295Y49819161D02*
X44024914Y49819161D01*
X44024914Y49819161D02*
X44101104Y49857256D01*
X44101104Y49857256D02*
X44139200Y49895351D01*
X44139200Y49895351D02*
X44177295Y49971542D01*
X44177295Y49971542D02*
X44177295Y50123923D01*
X44177295Y50123923D02*
X44139200Y50200113D01*
X44139200Y50200113D02*
X44101104Y50238208D01*
X44101104Y50238208D02*
X44024914Y50276304D01*
X44024914Y50276304D02*
X43377295Y50276304D01*
X44177295Y51076303D02*
X44177295Y50619160D01*
X44177295Y50847732D02*
X43377295Y50847732D01*
X43377295Y50847732D02*
X43491580Y50771541D01*
X43491580Y50771541D02*
X43567771Y50695351D01*
X43567771Y50695351D02*
X43605866Y50619160D01*
X44177295Y51838208D02*
X44177295Y51381065D01*
X44177295Y51609637D02*
X43377295Y51609637D01*
X43377295Y51609637D02*
X43491580Y51533446D01*
X43491580Y51533446D02*
X43567771Y51457256D01*
X43567771Y51457256D02*
X43605866Y51381065D01*
X46717295Y49819161D02*
X45917295Y49819161D01*
X45917295Y49819161D02*
X45917295Y50123923D01*
X45917295Y50123923D02*
X45955390Y50200113D01*
X45955390Y50200113D02*
X45993485Y50238208D01*
X45993485Y50238208D02*
X46069676Y50276304D01*
X46069676Y50276304D02*
X46183961Y50276304D01*
X46183961Y50276304D02*
X46260152Y50238208D01*
X46260152Y50238208D02*
X46298247Y50200113D01*
X46298247Y50200113D02*
X46336342Y50123923D01*
X46336342Y50123923D02*
X46336342Y49819161D01*
X46488723Y50581065D02*
X46488723Y50962018D01*
X46717295Y50504875D02*
X45917295Y50771542D01*
X45917295Y50771542D02*
X46717295Y51038208D01*
X46717295Y51723922D02*
X46717295Y51266779D01*
X46717295Y51495351D02*
X45917295Y51495351D01*
X45917295Y51495351D02*
X46031580Y51419160D01*
X46031580Y51419160D02*
X46107771Y51342970D01*
X46107771Y51342970D02*
X46145866Y51266779D01*
X46183961Y52409637D02*
X46717295Y52409637D01*
X45879200Y52219161D02*
X46450628Y52028684D01*
X46450628Y52028684D02*
X46450628Y52523923D01*
X23857295Y11084161D02*
X23057295Y11084161D01*
X23057295Y11084161D02*
X23057295Y11388923D01*
X23057295Y11388923D02*
X23095390Y11465113D01*
X23095390Y11465113D02*
X23133485Y11503208D01*
X23133485Y11503208D02*
X23209676Y11541304D01*
X23209676Y11541304D02*
X23323961Y11541304D01*
X23323961Y11541304D02*
X23400152Y11503208D01*
X23400152Y11503208D02*
X23438247Y11465113D01*
X23438247Y11465113D02*
X23476342Y11388923D01*
X23476342Y11388923D02*
X23476342Y11084161D01*
X23781104Y12341304D02*
X23819200Y12303208D01*
X23819200Y12303208D02*
X23857295Y12188923D01*
X23857295Y12188923D02*
X23857295Y12112732D01*
X23857295Y12112732D02*
X23819200Y11998446D01*
X23819200Y11998446D02*
X23743009Y11922256D01*
X23743009Y11922256D02*
X23666819Y11884161D01*
X23666819Y11884161D02*
X23514438Y11846065D01*
X23514438Y11846065D02*
X23400152Y11846065D01*
X23400152Y11846065D02*
X23247771Y11884161D01*
X23247771Y11884161D02*
X23171580Y11922256D01*
X23171580Y11922256D02*
X23095390Y11998446D01*
X23095390Y11998446D02*
X23057295Y12112732D01*
X23057295Y12112732D02*
X23057295Y12188923D01*
X23057295Y12188923D02*
X23095390Y12303208D01*
X23095390Y12303208D02*
X23133485Y12341304D01*
X23057295Y12607970D02*
X23057295Y13103208D01*
X23057295Y13103208D02*
X23362057Y12836542D01*
X23362057Y12836542D02*
X23362057Y12950827D01*
X23362057Y12950827D02*
X23400152Y13027018D01*
X23400152Y13027018D02*
X23438247Y13065113D01*
X23438247Y13065113D02*
X23514438Y13103208D01*
X23514438Y13103208D02*
X23704914Y13103208D01*
X23704914Y13103208D02*
X23781104Y13065113D01*
X23781104Y13065113D02*
X23819200Y13027018D01*
X23819200Y13027018D02*
X23857295Y12950827D01*
X23857295Y12950827D02*
X23857295Y12722256D01*
X23857295Y12722256D02*
X23819200Y12646065D01*
X23819200Y12646065D02*
X23781104Y12607970D01*
X49257295Y49819161D02*
X48457295Y49819161D01*
X48457295Y49819161D02*
X48457295Y50123923D01*
X48457295Y50123923D02*
X48495390Y50200113D01*
X48495390Y50200113D02*
X48533485Y50238208D01*
X48533485Y50238208D02*
X48609676Y50276304D01*
X48609676Y50276304D02*
X48723961Y50276304D01*
X48723961Y50276304D02*
X48800152Y50238208D01*
X48800152Y50238208D02*
X48838247Y50200113D01*
X48838247Y50200113D02*
X48876342Y50123923D01*
X48876342Y50123923D02*
X48876342Y49819161D01*
X49028723Y50581065D02*
X49028723Y50962018D01*
X49257295Y50504875D02*
X48457295Y50771542D01*
X48457295Y50771542D02*
X49257295Y51038208D01*
X49257295Y51723922D02*
X49257295Y51266779D01*
X49257295Y51495351D02*
X48457295Y51495351D01*
X48457295Y51495351D02*
X48571580Y51419160D01*
X48571580Y51419160D02*
X48647771Y51342970D01*
X48647771Y51342970D02*
X48685866Y51266779D01*
X48533485Y52028684D02*
X48495390Y52066780D01*
X48495390Y52066780D02*
X48457295Y52142970D01*
X48457295Y52142970D02*
X48457295Y52333446D01*
X48457295Y52333446D02*
X48495390Y52409637D01*
X48495390Y52409637D02*
X48533485Y52447732D01*
X48533485Y52447732D02*
X48609676Y52485827D01*
X48609676Y52485827D02*
X48685866Y52485827D01*
X48685866Y52485827D02*
X48800152Y52447732D01*
X48800152Y52447732D02*
X49257295Y51990589D01*
X49257295Y51990589D02*
X49257295Y52485827D01*
X54337295Y11084161D02*
X53537295Y11084161D01*
X53537295Y11084161D02*
X53537295Y11388923D01*
X53537295Y11388923D02*
X53575390Y11465113D01*
X53575390Y11465113D02*
X53613485Y11503208D01*
X53613485Y11503208D02*
X53689676Y11541304D01*
X53689676Y11541304D02*
X53803961Y11541304D01*
X53803961Y11541304D02*
X53880152Y11503208D01*
X53880152Y11503208D02*
X53918247Y11465113D01*
X53918247Y11465113D02*
X53956342Y11388923D01*
X53956342Y11388923D02*
X53956342Y11084161D01*
X54261104Y12341304D02*
X54299200Y12303208D01*
X54299200Y12303208D02*
X54337295Y12188923D01*
X54337295Y12188923D02*
X54337295Y12112732D01*
X54337295Y12112732D02*
X54299200Y11998446D01*
X54299200Y11998446D02*
X54223009Y11922256D01*
X54223009Y11922256D02*
X54146819Y11884161D01*
X54146819Y11884161D02*
X53994438Y11846065D01*
X53994438Y11846065D02*
X53880152Y11846065D01*
X53880152Y11846065D02*
X53727771Y11884161D01*
X53727771Y11884161D02*
X53651580Y11922256D01*
X53651580Y11922256D02*
X53575390Y11998446D01*
X53575390Y11998446D02*
X53537295Y12112732D01*
X53537295Y12112732D02*
X53537295Y12188923D01*
X53537295Y12188923D02*
X53575390Y12303208D01*
X53575390Y12303208D02*
X53613485Y12341304D01*
X54337295Y12722256D02*
X54337295Y12874637D01*
X54337295Y12874637D02*
X54299200Y12950827D01*
X54299200Y12950827D02*
X54261104Y12988923D01*
X54261104Y12988923D02*
X54146819Y13065113D01*
X54146819Y13065113D02*
X53994438Y13103208D01*
X53994438Y13103208D02*
X53689676Y13103208D01*
X53689676Y13103208D02*
X53613485Y13065113D01*
X53613485Y13065113D02*
X53575390Y13027018D01*
X53575390Y13027018D02*
X53537295Y12950827D01*
X53537295Y12950827D02*
X53537295Y12798446D01*
X53537295Y12798446D02*
X53575390Y12722256D01*
X53575390Y12722256D02*
X53613485Y12684161D01*
X53613485Y12684161D02*
X53689676Y12646065D01*
X53689676Y12646065D02*
X53880152Y12646065D01*
X53880152Y12646065D02*
X53956342Y12684161D01*
X53956342Y12684161D02*
X53994438Y12722256D01*
X53994438Y12722256D02*
X54032533Y12798446D01*
X54032533Y12798446D02*
X54032533Y12950827D01*
X54032533Y12950827D02*
X53994438Y13027018D01*
X53994438Y13027018D02*
X53956342Y13065113D01*
X53956342Y13065113D02*
X53880152Y13103208D01*
X34017295Y11084161D02*
X33217295Y11084161D01*
X33217295Y11084161D02*
X33217295Y11388923D01*
X33217295Y11388923D02*
X33255390Y11465113D01*
X33255390Y11465113D02*
X33293485Y11503208D01*
X33293485Y11503208D02*
X33369676Y11541304D01*
X33369676Y11541304D02*
X33483961Y11541304D01*
X33483961Y11541304D02*
X33560152Y11503208D01*
X33560152Y11503208D02*
X33598247Y11465113D01*
X33598247Y11465113D02*
X33636342Y11388923D01*
X33636342Y11388923D02*
X33636342Y11084161D01*
X33788723Y11846065D02*
X33788723Y12227018D01*
X34017295Y11769875D02*
X33217295Y12036542D01*
X33217295Y12036542D02*
X34017295Y12303208D01*
X33217295Y12493684D02*
X33217295Y13027018D01*
X33217295Y13027018D02*
X34017295Y12684160D01*
X20517295Y49819161D02*
X21164914Y49819161D01*
X21164914Y49819161D02*
X21241104Y49857256D01*
X21241104Y49857256D02*
X21279200Y49895351D01*
X21279200Y49895351D02*
X21317295Y49971542D01*
X21317295Y49971542D02*
X21317295Y50123923D01*
X21317295Y50123923D02*
X21279200Y50200113D01*
X21279200Y50200113D02*
X21241104Y50238208D01*
X21241104Y50238208D02*
X21164914Y50276304D01*
X21164914Y50276304D02*
X20517295Y50276304D01*
X20517295Y50581065D02*
X20517295Y51114399D01*
X20517295Y51114399D02*
X21317295Y50771541D01*
X61157295Y49742970D02*
X61157295Y50238208D01*
X61157295Y50238208D02*
X61462057Y49971542D01*
X61462057Y49971542D02*
X61462057Y50085827D01*
X61462057Y50085827D02*
X61500152Y50162018D01*
X61500152Y50162018D02*
X61538247Y50200113D01*
X61538247Y50200113D02*
X61614438Y50238208D01*
X61614438Y50238208D02*
X61804914Y50238208D01*
X61804914Y50238208D02*
X61881104Y50200113D01*
X61881104Y50200113D02*
X61919200Y50162018D01*
X61919200Y50162018D02*
X61957295Y50085827D01*
X61957295Y50085827D02*
X61957295Y49857256D01*
X61957295Y49857256D02*
X61919200Y49781065D01*
X61919200Y49781065D02*
X61881104Y49742970D01*
X61881104Y50581066D02*
X61919200Y50619161D01*
X61919200Y50619161D02*
X61957295Y50581066D01*
X61957295Y50581066D02*
X61919200Y50542970D01*
X61919200Y50542970D02*
X61881104Y50581066D01*
X61881104Y50581066D02*
X61957295Y50581066D01*
X61157295Y50885827D02*
X61157295Y51381065D01*
X61157295Y51381065D02*
X61462057Y51114399D01*
X61462057Y51114399D02*
X61462057Y51228684D01*
X61462057Y51228684D02*
X61500152Y51304875D01*
X61500152Y51304875D02*
X61538247Y51342970D01*
X61538247Y51342970D02*
X61614438Y51381065D01*
X61614438Y51381065D02*
X61804914Y51381065D01*
X61804914Y51381065D02*
X61881104Y51342970D01*
X61881104Y51342970D02*
X61919200Y51304875D01*
X61919200Y51304875D02*
X61957295Y51228684D01*
X61957295Y51228684D02*
X61957295Y51000113D01*
X61957295Y51000113D02*
X61919200Y50923922D01*
X61919200Y50923922D02*
X61881104Y50885827D01*
X61157295Y51609637D02*
X61957295Y51876304D01*
X61957295Y51876304D02*
X61157295Y52142970D01*
X28937295Y11084161D02*
X28137295Y11084161D01*
X28137295Y11084161D02*
X28137295Y11388923D01*
X28137295Y11388923D02*
X28175390Y11465113D01*
X28175390Y11465113D02*
X28213485Y11503208D01*
X28213485Y11503208D02*
X28289676Y11541304D01*
X28289676Y11541304D02*
X28403961Y11541304D01*
X28403961Y11541304D02*
X28480152Y11503208D01*
X28480152Y11503208D02*
X28518247Y11465113D01*
X28518247Y11465113D02*
X28556342Y11388923D01*
X28556342Y11388923D02*
X28556342Y11084161D01*
X28708723Y11846065D02*
X28708723Y12227018D01*
X28937295Y11769875D02*
X28137295Y12036542D01*
X28137295Y12036542D02*
X28937295Y12303208D01*
X28137295Y12493684D02*
X28137295Y12988922D01*
X28137295Y12988922D02*
X28442057Y12722256D01*
X28442057Y12722256D02*
X28442057Y12836541D01*
X28442057Y12836541D02*
X28480152Y12912732D01*
X28480152Y12912732D02*
X28518247Y12950827D01*
X28518247Y12950827D02*
X28594438Y12988922D01*
X28594438Y12988922D02*
X28784914Y12988922D01*
X28784914Y12988922D02*
X28861104Y12950827D01*
X28861104Y12950827D02*
X28899200Y12912732D01*
X28899200Y12912732D02*
X28937295Y12836541D01*
X28937295Y12836541D02*
X28937295Y12607970D01*
X28937295Y12607970D02*
X28899200Y12531779D01*
X28899200Y12531779D02*
X28861104Y12493684D01*
X56077295Y40909888D02*
X56724914Y40909888D01*
X56724914Y40909888D02*
X56801104Y40947983D01*
X56801104Y40947983D02*
X56839200Y40986078D01*
X56839200Y40986078D02*
X56877295Y41062269D01*
X56877295Y41062269D02*
X56877295Y41214650D01*
X56877295Y41214650D02*
X56839200Y41290840D01*
X56839200Y41290840D02*
X56801104Y41328935D01*
X56801104Y41328935D02*
X56724914Y41367031D01*
X56724914Y41367031D02*
X56077295Y41367031D01*
X56877295Y42167030D02*
X56877295Y41709887D01*
X56877295Y41938459D02*
X56077295Y41938459D01*
X56077295Y41938459D02*
X56191580Y41862268D01*
X56191580Y41862268D02*
X56267771Y41786078D01*
X56267771Y41786078D02*
X56305866Y41709887D01*
X56343961Y42852745D02*
X56877295Y42852745D01*
X56039200Y42662269D02*
X56610628Y42471792D01*
X56610628Y42471792D02*
X56610628Y42967031D01*
X39097295Y49819161D02*
X38297295Y49819161D01*
X38297295Y49819161D02*
X38297295Y50123923D01*
X38297295Y50123923D02*
X38335390Y50200113D01*
X38335390Y50200113D02*
X38373485Y50238208D01*
X38373485Y50238208D02*
X38449676Y50276304D01*
X38449676Y50276304D02*
X38563961Y50276304D01*
X38563961Y50276304D02*
X38640152Y50238208D01*
X38640152Y50238208D02*
X38678247Y50200113D01*
X38678247Y50200113D02*
X38716342Y50123923D01*
X38716342Y50123923D02*
X38716342Y49819161D01*
X39021104Y51076304D02*
X39059200Y51038208D01*
X39059200Y51038208D02*
X39097295Y50923923D01*
X39097295Y50923923D02*
X39097295Y50847732D01*
X39097295Y50847732D02*
X39059200Y50733446D01*
X39059200Y50733446D02*
X38983009Y50657256D01*
X38983009Y50657256D02*
X38906819Y50619161D01*
X38906819Y50619161D02*
X38754438Y50581065D01*
X38754438Y50581065D02*
X38640152Y50581065D01*
X38640152Y50581065D02*
X38487771Y50619161D01*
X38487771Y50619161D02*
X38411580Y50657256D01*
X38411580Y50657256D02*
X38335390Y50733446D01*
X38335390Y50733446D02*
X38297295Y50847732D01*
X38297295Y50847732D02*
X38297295Y50923923D01*
X38297295Y50923923D02*
X38335390Y51038208D01*
X38335390Y51038208D02*
X38373485Y51076304D01*
X39097295Y51838208D02*
X39097295Y51381065D01*
X39097295Y51609637D02*
X38297295Y51609637D01*
X38297295Y51609637D02*
X38411580Y51533446D01*
X38411580Y51533446D02*
X38487771Y51457256D01*
X38487771Y51457256D02*
X38525866Y51381065D01*
X38373485Y52142970D02*
X38335390Y52181066D01*
X38335390Y52181066D02*
X38297295Y52257256D01*
X38297295Y52257256D02*
X38297295Y52447732D01*
X38297295Y52447732D02*
X38335390Y52523923D01*
X38335390Y52523923D02*
X38373485Y52562018D01*
X38373485Y52562018D02*
X38449676Y52600113D01*
X38449676Y52600113D02*
X38525866Y52600113D01*
X38525866Y52600113D02*
X38640152Y52562018D01*
X38640152Y52562018D02*
X39097295Y52104875D01*
X39097295Y52104875D02*
X39097295Y52600113D01*
X49257295Y40262269D02*
X48457295Y40262269D01*
X48457295Y40262269D02*
X48457295Y40567031D01*
X48457295Y40567031D02*
X48495390Y40643221D01*
X48495390Y40643221D02*
X48533485Y40681316D01*
X48533485Y40681316D02*
X48609676Y40719412D01*
X48609676Y40719412D02*
X48723961Y40719412D01*
X48723961Y40719412D02*
X48800152Y40681316D01*
X48800152Y40681316D02*
X48838247Y40643221D01*
X48838247Y40643221D02*
X48876342Y40567031D01*
X48876342Y40567031D02*
X48876342Y40262269D01*
X49028723Y41024173D02*
X49028723Y41405126D01*
X49257295Y40947983D02*
X48457295Y41214650D01*
X48457295Y41214650D02*
X49257295Y41481316D01*
X49257295Y42167030D02*
X49257295Y41709887D01*
X49257295Y41938459D02*
X48457295Y41938459D01*
X48457295Y41938459D02*
X48571580Y41862268D01*
X48571580Y41862268D02*
X48647771Y41786078D01*
X48647771Y41786078D02*
X48685866Y41709887D01*
X48457295Y42433697D02*
X48457295Y42928935D01*
X48457295Y42928935D02*
X48762057Y42662269D01*
X48762057Y42662269D02*
X48762057Y42776554D01*
X48762057Y42776554D02*
X48800152Y42852745D01*
X48800152Y42852745D02*
X48838247Y42890840D01*
X48838247Y42890840D02*
X48914438Y42928935D01*
X48914438Y42928935D02*
X49104914Y42928935D01*
X49104914Y42928935D02*
X49181104Y42890840D01*
X49181104Y42890840D02*
X49219200Y42852745D01*
X49219200Y42852745D02*
X49257295Y42776554D01*
X49257295Y42776554D02*
X49257295Y42547983D01*
X49257295Y42547983D02*
X49219200Y42471792D01*
X49219200Y42471792D02*
X49181104Y42433697D01*
X17977295Y49819161D02*
X18624914Y49819161D01*
X18624914Y49819161D02*
X18701104Y49857256D01*
X18701104Y49857256D02*
X18739200Y49895351D01*
X18739200Y49895351D02*
X18777295Y49971542D01*
X18777295Y49971542D02*
X18777295Y50123923D01*
X18777295Y50123923D02*
X18739200Y50200113D01*
X18739200Y50200113D02*
X18701104Y50238208D01*
X18701104Y50238208D02*
X18624914Y50276304D01*
X18624914Y50276304D02*
X17977295Y50276304D01*
X17977295Y51038208D02*
X17977295Y50657256D01*
X17977295Y50657256D02*
X18358247Y50619160D01*
X18358247Y50619160D02*
X18320152Y50657256D01*
X18320152Y50657256D02*
X18282057Y50733446D01*
X18282057Y50733446D02*
X18282057Y50923922D01*
X18282057Y50923922D02*
X18320152Y51000113D01*
X18320152Y51000113D02*
X18358247Y51038208D01*
X18358247Y51038208D02*
X18434438Y51076303D01*
X18434438Y51076303D02*
X18624914Y51076303D01*
X18624914Y51076303D02*
X18701104Y51038208D01*
X18701104Y51038208D02*
X18739200Y51000113D01*
X18739200Y51000113D02*
X18777295Y50923922D01*
X18777295Y50923922D02*
X18777295Y50733446D01*
X18777295Y50733446D02*
X18739200Y50657256D01*
X18739200Y50657256D02*
X18701104Y50619160D01*
X36557295Y49819161D02*
X35757295Y49819161D01*
X35757295Y49819161D02*
X35757295Y50123923D01*
X35757295Y50123923D02*
X35795390Y50200113D01*
X35795390Y50200113D02*
X35833485Y50238208D01*
X35833485Y50238208D02*
X35909676Y50276304D01*
X35909676Y50276304D02*
X36023961Y50276304D01*
X36023961Y50276304D02*
X36100152Y50238208D01*
X36100152Y50238208D02*
X36138247Y50200113D01*
X36138247Y50200113D02*
X36176342Y50123923D01*
X36176342Y50123923D02*
X36176342Y49819161D01*
X36557295Y50619161D02*
X35757295Y50619161D01*
X35757295Y50619161D02*
X35757295Y50809637D01*
X35757295Y50809637D02*
X35795390Y50923923D01*
X35795390Y50923923D02*
X35871580Y51000113D01*
X35871580Y51000113D02*
X35947771Y51038208D01*
X35947771Y51038208D02*
X36100152Y51076304D01*
X36100152Y51076304D02*
X36214438Y51076304D01*
X36214438Y51076304D02*
X36366819Y51038208D01*
X36366819Y51038208D02*
X36443009Y51000113D01*
X36443009Y51000113D02*
X36519200Y50923923D01*
X36519200Y50923923D02*
X36557295Y50809637D01*
X36557295Y50809637D02*
X36557295Y50619161D01*
X35833485Y51381065D02*
X35795390Y51419161D01*
X35795390Y51419161D02*
X35757295Y51495351D01*
X35757295Y51495351D02*
X35757295Y51685827D01*
X35757295Y51685827D02*
X35795390Y51762018D01*
X35795390Y51762018D02*
X35833485Y51800113D01*
X35833485Y51800113D02*
X35909676Y51838208D01*
X35909676Y51838208D02*
X35985866Y51838208D01*
X35985866Y51838208D02*
X36100152Y51800113D01*
X36100152Y51800113D02*
X36557295Y51342970D01*
X36557295Y51342970D02*
X36557295Y51838208D01*
X51797295Y2809888D02*
X50997295Y2809888D01*
X50997295Y2809888D02*
X50997295Y3114650D01*
X50997295Y3114650D02*
X51035390Y3190840D01*
X51035390Y3190840D02*
X51073485Y3228935D01*
X51073485Y3228935D02*
X51149676Y3267031D01*
X51149676Y3267031D02*
X51263961Y3267031D01*
X51263961Y3267031D02*
X51340152Y3228935D01*
X51340152Y3228935D02*
X51378247Y3190840D01*
X51378247Y3190840D02*
X51416342Y3114650D01*
X51416342Y3114650D02*
X51416342Y2809888D01*
X51721104Y4067031D02*
X51759200Y4028935D01*
X51759200Y4028935D02*
X51797295Y3914650D01*
X51797295Y3914650D02*
X51797295Y3838459D01*
X51797295Y3838459D02*
X51759200Y3724173D01*
X51759200Y3724173D02*
X51683009Y3647983D01*
X51683009Y3647983D02*
X51606819Y3609888D01*
X51606819Y3609888D02*
X51454438Y3571792D01*
X51454438Y3571792D02*
X51340152Y3571792D01*
X51340152Y3571792D02*
X51187771Y3609888D01*
X51187771Y3609888D02*
X51111580Y3647983D01*
X51111580Y3647983D02*
X51035390Y3724173D01*
X51035390Y3724173D02*
X50997295Y3838459D01*
X50997295Y3838459D02*
X50997295Y3914650D01*
X50997295Y3914650D02*
X51035390Y4028935D01*
X51035390Y4028935D02*
X51073485Y4067031D01*
X50997295Y4752745D02*
X50997295Y4600364D01*
X50997295Y4600364D02*
X51035390Y4524173D01*
X51035390Y4524173D02*
X51073485Y4486078D01*
X51073485Y4486078D02*
X51187771Y4409888D01*
X51187771Y4409888D02*
X51340152Y4371792D01*
X51340152Y4371792D02*
X51644914Y4371792D01*
X51644914Y4371792D02*
X51721104Y4409888D01*
X51721104Y4409888D02*
X51759200Y4447983D01*
X51759200Y4447983D02*
X51797295Y4524173D01*
X51797295Y4524173D02*
X51797295Y4676554D01*
X51797295Y4676554D02*
X51759200Y4752745D01*
X51759200Y4752745D02*
X51721104Y4790840D01*
X51721104Y4790840D02*
X51644914Y4828935D01*
X51644914Y4828935D02*
X51454438Y4828935D01*
X51454438Y4828935D02*
X51378247Y4790840D01*
X51378247Y4790840D02*
X51340152Y4752745D01*
X51340152Y4752745D02*
X51302057Y4676554D01*
X51302057Y4676554D02*
X51302057Y4524173D01*
X51302057Y4524173D02*
X51340152Y4447983D01*
X51340152Y4447983D02*
X51378247Y4409888D01*
X51378247Y4409888D02*
X51454438Y4371792D01*
X51797295Y49819161D02*
X50997295Y49819161D01*
X50997295Y49819161D02*
X50997295Y50123923D01*
X50997295Y50123923D02*
X51035390Y50200113D01*
X51035390Y50200113D02*
X51073485Y50238208D01*
X51073485Y50238208D02*
X51149676Y50276304D01*
X51149676Y50276304D02*
X51263961Y50276304D01*
X51263961Y50276304D02*
X51340152Y50238208D01*
X51340152Y50238208D02*
X51378247Y50200113D01*
X51378247Y50200113D02*
X51416342Y50123923D01*
X51416342Y50123923D02*
X51416342Y49819161D01*
X51568723Y50581065D02*
X51568723Y50962018D01*
X51797295Y50504875D02*
X50997295Y50771542D01*
X50997295Y50771542D02*
X51797295Y51038208D01*
X51797295Y51723922D02*
X51797295Y51266779D01*
X51797295Y51495351D02*
X50997295Y51495351D01*
X50997295Y51495351D02*
X51111580Y51419160D01*
X51111580Y51419160D02*
X51187771Y51342970D01*
X51187771Y51342970D02*
X51225866Y51266779D01*
X50997295Y52219161D02*
X50997295Y52295351D01*
X50997295Y52295351D02*
X51035390Y52371542D01*
X51035390Y52371542D02*
X51073485Y52409637D01*
X51073485Y52409637D02*
X51149676Y52447732D01*
X51149676Y52447732D02*
X51302057Y52485827D01*
X51302057Y52485827D02*
X51492533Y52485827D01*
X51492533Y52485827D02*
X51644914Y52447732D01*
X51644914Y52447732D02*
X51721104Y52409637D01*
X51721104Y52409637D02*
X51759200Y52371542D01*
X51759200Y52371542D02*
X51797295Y52295351D01*
X51797295Y52295351D02*
X51797295Y52219161D01*
X51797295Y52219161D02*
X51759200Y52142970D01*
X51759200Y52142970D02*
X51721104Y52104875D01*
X51721104Y52104875D02*
X51644914Y52066780D01*
X51644914Y52066780D02*
X51492533Y52028684D01*
X51492533Y52028684D02*
X51302057Y52028684D01*
X51302057Y52028684D02*
X51149676Y52066780D01*
X51149676Y52066780D02*
X51073485Y52104875D01*
X51073485Y52104875D02*
X51035390Y52142970D01*
X51035390Y52142970D02*
X50997295Y52219161D01*
X31477295Y40909888D02*
X30677295Y40909888D01*
X30677295Y40909888D02*
X30677295Y41214650D01*
X30677295Y41214650D02*
X30715390Y41290840D01*
X30715390Y41290840D02*
X30753485Y41328935D01*
X30753485Y41328935D02*
X30829676Y41367031D01*
X30829676Y41367031D02*
X30943961Y41367031D01*
X30943961Y41367031D02*
X31020152Y41328935D01*
X31020152Y41328935D02*
X31058247Y41290840D01*
X31058247Y41290840D02*
X31096342Y41214650D01*
X31096342Y41214650D02*
X31096342Y40909888D01*
X31058247Y41976554D02*
X31096342Y42090840D01*
X31096342Y42090840D02*
X31134438Y42128935D01*
X31134438Y42128935D02*
X31210628Y42167031D01*
X31210628Y42167031D02*
X31324914Y42167031D01*
X31324914Y42167031D02*
X31401104Y42128935D01*
X31401104Y42128935D02*
X31439200Y42090840D01*
X31439200Y42090840D02*
X31477295Y42014650D01*
X31477295Y42014650D02*
X31477295Y41709888D01*
X31477295Y41709888D02*
X30677295Y41709888D01*
X30677295Y41709888D02*
X30677295Y41976554D01*
X30677295Y41976554D02*
X30715390Y42052745D01*
X30715390Y42052745D02*
X30753485Y42090840D01*
X30753485Y42090840D02*
X30829676Y42128935D01*
X30829676Y42128935D02*
X30905866Y42128935D01*
X30905866Y42128935D02*
X30982057Y42090840D01*
X30982057Y42090840D02*
X31020152Y42052745D01*
X31020152Y42052745D02*
X31058247Y41976554D01*
X31058247Y41976554D02*
X31058247Y41709888D01*
X30677295Y42433697D02*
X30677295Y42967031D01*
X30677295Y42967031D02*
X31477295Y42624173D01*
X41637295Y40147983D02*
X40837295Y40147983D01*
X40837295Y40147983D02*
X40837295Y40452745D01*
X40837295Y40452745D02*
X40875390Y40528935D01*
X40875390Y40528935D02*
X40913485Y40567030D01*
X40913485Y40567030D02*
X40989676Y40605126D01*
X40989676Y40605126D02*
X41103961Y40605126D01*
X41103961Y40605126D02*
X41180152Y40567030D01*
X41180152Y40567030D02*
X41218247Y40528935D01*
X41218247Y40528935D02*
X41256342Y40452745D01*
X41256342Y40452745D02*
X41256342Y40147983D01*
X41561104Y41405126D02*
X41599200Y41367030D01*
X41599200Y41367030D02*
X41637295Y41252745D01*
X41637295Y41252745D02*
X41637295Y41176554D01*
X41637295Y41176554D02*
X41599200Y41062268D01*
X41599200Y41062268D02*
X41523009Y40986078D01*
X41523009Y40986078D02*
X41446819Y40947983D01*
X41446819Y40947983D02*
X41294438Y40909887D01*
X41294438Y40909887D02*
X41180152Y40909887D01*
X41180152Y40909887D02*
X41027771Y40947983D01*
X41027771Y40947983D02*
X40951580Y40986078D01*
X40951580Y40986078D02*
X40875390Y41062268D01*
X40875390Y41062268D02*
X40837295Y41176554D01*
X40837295Y41176554D02*
X40837295Y41252745D01*
X40837295Y41252745D02*
X40875390Y41367030D01*
X40875390Y41367030D02*
X40913485Y41405126D01*
X41637295Y42167030D02*
X41637295Y41709887D01*
X41637295Y41938459D02*
X40837295Y41938459D01*
X40837295Y41938459D02*
X40951580Y41862268D01*
X40951580Y41862268D02*
X41027771Y41786078D01*
X41027771Y41786078D02*
X41065866Y41709887D01*
X41637295Y42928935D02*
X41637295Y42471792D01*
X41637295Y42700364D02*
X40837295Y42700364D01*
X40837295Y42700364D02*
X40951580Y42624173D01*
X40951580Y42624173D02*
X41027771Y42547983D01*
X41027771Y42547983D02*
X41065866Y42471792D01*
X31477295Y11084161D02*
X30677295Y11084161D01*
X30677295Y11084161D02*
X30677295Y11388923D01*
X30677295Y11388923D02*
X30715390Y11465113D01*
X30715390Y11465113D02*
X30753485Y11503208D01*
X30753485Y11503208D02*
X30829676Y11541304D01*
X30829676Y11541304D02*
X30943961Y11541304D01*
X30943961Y11541304D02*
X31020152Y11503208D01*
X31020152Y11503208D02*
X31058247Y11465113D01*
X31058247Y11465113D02*
X31096342Y11388923D01*
X31096342Y11388923D02*
X31096342Y11084161D01*
X31248723Y11846065D02*
X31248723Y12227018D01*
X31477295Y11769875D02*
X30677295Y12036542D01*
X30677295Y12036542D02*
X31477295Y12303208D01*
X30677295Y12950827D02*
X30677295Y12569875D01*
X30677295Y12569875D02*
X31058247Y12531779D01*
X31058247Y12531779D02*
X31020152Y12569875D01*
X31020152Y12569875D02*
X30982057Y12646065D01*
X30982057Y12646065D02*
X30982057Y12836541D01*
X30982057Y12836541D02*
X31020152Y12912732D01*
X31020152Y12912732D02*
X31058247Y12950827D01*
X31058247Y12950827D02*
X31134438Y12988922D01*
X31134438Y12988922D02*
X31324914Y12988922D01*
X31324914Y12988922D02*
X31401104Y12950827D01*
X31401104Y12950827D02*
X31439200Y12912732D01*
X31439200Y12912732D02*
X31477295Y12836541D01*
X31477295Y12836541D02*
X31477295Y12646065D01*
X31477295Y12646065D02*
X31439200Y12569875D01*
X31439200Y12569875D02*
X31401104Y12531779D01*
X46717295Y11084161D02*
X45917295Y11084161D01*
X45917295Y11084161D02*
X45917295Y11388923D01*
X45917295Y11388923D02*
X45955390Y11465113D01*
X45955390Y11465113D02*
X45993485Y11503208D01*
X45993485Y11503208D02*
X46069676Y11541304D01*
X46069676Y11541304D02*
X46183961Y11541304D01*
X46183961Y11541304D02*
X46260152Y11503208D01*
X46260152Y11503208D02*
X46298247Y11465113D01*
X46298247Y11465113D02*
X46336342Y11388923D01*
X46336342Y11388923D02*
X46336342Y11084161D01*
X46298247Y12150827D02*
X46336342Y12265113D01*
X46336342Y12265113D02*
X46374438Y12303208D01*
X46374438Y12303208D02*
X46450628Y12341304D01*
X46450628Y12341304D02*
X46564914Y12341304D01*
X46564914Y12341304D02*
X46641104Y12303208D01*
X46641104Y12303208D02*
X46679200Y12265113D01*
X46679200Y12265113D02*
X46717295Y12188923D01*
X46717295Y12188923D02*
X46717295Y11884161D01*
X46717295Y11884161D02*
X45917295Y11884161D01*
X45917295Y11884161D02*
X45917295Y12150827D01*
X45917295Y12150827D02*
X45955390Y12227018D01*
X45955390Y12227018D02*
X45993485Y12265113D01*
X45993485Y12265113D02*
X46069676Y12303208D01*
X46069676Y12303208D02*
X46145866Y12303208D01*
X46145866Y12303208D02*
X46222057Y12265113D01*
X46222057Y12265113D02*
X46260152Y12227018D01*
X46260152Y12227018D02*
X46298247Y12150827D01*
X46298247Y12150827D02*
X46298247Y11884161D01*
X46717295Y13103208D02*
X46717295Y12646065D01*
X46717295Y12874637D02*
X45917295Y12874637D01*
X45917295Y12874637D02*
X46031580Y12798446D01*
X46031580Y12798446D02*
X46107771Y12722256D01*
X46107771Y12722256D02*
X46145866Y12646065D01*
X45917295Y13369875D02*
X45917295Y13865113D01*
X45917295Y13865113D02*
X46222057Y13598447D01*
X46222057Y13598447D02*
X46222057Y13712732D01*
X46222057Y13712732D02*
X46260152Y13788923D01*
X46260152Y13788923D02*
X46298247Y13827018D01*
X46298247Y13827018D02*
X46374438Y13865113D01*
X46374438Y13865113D02*
X46564914Y13865113D01*
X46564914Y13865113D02*
X46641104Y13827018D01*
X46641104Y13827018D02*
X46679200Y13788923D01*
X46679200Y13788923D02*
X46717295Y13712732D01*
X46717295Y13712732D02*
X46717295Y13484161D01*
X46717295Y13484161D02*
X46679200Y13407970D01*
X46679200Y13407970D02*
X46641104Y13369875D01*
X54337295Y2809888D02*
X53537295Y2809888D01*
X53537295Y2809888D02*
X53537295Y3114650D01*
X53537295Y3114650D02*
X53575390Y3190840D01*
X53575390Y3190840D02*
X53613485Y3228935D01*
X53613485Y3228935D02*
X53689676Y3267031D01*
X53689676Y3267031D02*
X53803961Y3267031D01*
X53803961Y3267031D02*
X53880152Y3228935D01*
X53880152Y3228935D02*
X53918247Y3190840D01*
X53918247Y3190840D02*
X53956342Y3114650D01*
X53956342Y3114650D02*
X53956342Y2809888D01*
X54261104Y4067031D02*
X54299200Y4028935D01*
X54299200Y4028935D02*
X54337295Y3914650D01*
X54337295Y3914650D02*
X54337295Y3838459D01*
X54337295Y3838459D02*
X54299200Y3724173D01*
X54299200Y3724173D02*
X54223009Y3647983D01*
X54223009Y3647983D02*
X54146819Y3609888D01*
X54146819Y3609888D02*
X53994438Y3571792D01*
X53994438Y3571792D02*
X53880152Y3571792D01*
X53880152Y3571792D02*
X53727771Y3609888D01*
X53727771Y3609888D02*
X53651580Y3647983D01*
X53651580Y3647983D02*
X53575390Y3724173D01*
X53575390Y3724173D02*
X53537295Y3838459D01*
X53537295Y3838459D02*
X53537295Y3914650D01*
X53537295Y3914650D02*
X53575390Y4028935D01*
X53575390Y4028935D02*
X53613485Y4067031D01*
X53880152Y4524173D02*
X53842057Y4447983D01*
X53842057Y4447983D02*
X53803961Y4409888D01*
X53803961Y4409888D02*
X53727771Y4371792D01*
X53727771Y4371792D02*
X53689676Y4371792D01*
X53689676Y4371792D02*
X53613485Y4409888D01*
X53613485Y4409888D02*
X53575390Y4447983D01*
X53575390Y4447983D02*
X53537295Y4524173D01*
X53537295Y4524173D02*
X53537295Y4676554D01*
X53537295Y4676554D02*
X53575390Y4752745D01*
X53575390Y4752745D02*
X53613485Y4790840D01*
X53613485Y4790840D02*
X53689676Y4828935D01*
X53689676Y4828935D02*
X53727771Y4828935D01*
X53727771Y4828935D02*
X53803961Y4790840D01*
X53803961Y4790840D02*
X53842057Y4752745D01*
X53842057Y4752745D02*
X53880152Y4676554D01*
X53880152Y4676554D02*
X53880152Y4524173D01*
X53880152Y4524173D02*
X53918247Y4447983D01*
X53918247Y4447983D02*
X53956342Y4409888D01*
X53956342Y4409888D02*
X54032533Y4371792D01*
X54032533Y4371792D02*
X54184914Y4371792D01*
X54184914Y4371792D02*
X54261104Y4409888D01*
X54261104Y4409888D02*
X54299200Y4447983D01*
X54299200Y4447983D02*
X54337295Y4524173D01*
X54337295Y4524173D02*
X54337295Y4676554D01*
X54337295Y4676554D02*
X54299200Y4752745D01*
X54299200Y4752745D02*
X54261104Y4790840D01*
X54261104Y4790840D02*
X54184914Y4828935D01*
X54184914Y4828935D02*
X54032533Y4828935D01*
X54032533Y4828935D02*
X53956342Y4790840D01*
X53956342Y4790840D02*
X53918247Y4752745D01*
X53918247Y4752745D02*
X53880152Y4676554D01*
X51797295Y40262269D02*
X50997295Y40262269D01*
X50997295Y40262269D02*
X50997295Y40567031D01*
X50997295Y40567031D02*
X51035390Y40643221D01*
X51035390Y40643221D02*
X51073485Y40681316D01*
X51073485Y40681316D02*
X51149676Y40719412D01*
X51149676Y40719412D02*
X51263961Y40719412D01*
X51263961Y40719412D02*
X51340152Y40681316D01*
X51340152Y40681316D02*
X51378247Y40643221D01*
X51378247Y40643221D02*
X51416342Y40567031D01*
X51416342Y40567031D02*
X51416342Y40262269D01*
X51568723Y41024173D02*
X51568723Y41405126D01*
X51797295Y40947983D02*
X50997295Y41214650D01*
X50997295Y41214650D02*
X51797295Y41481316D01*
X51797295Y42167030D02*
X51797295Y41709887D01*
X51797295Y41938459D02*
X50997295Y41938459D01*
X50997295Y41938459D02*
X51111580Y41862268D01*
X51111580Y41862268D02*
X51187771Y41786078D01*
X51187771Y41786078D02*
X51225866Y41709887D01*
X51797295Y42928935D02*
X51797295Y42471792D01*
X51797295Y42700364D02*
X50997295Y42700364D01*
X50997295Y42700364D02*
X51111580Y42624173D01*
X51111580Y42624173D02*
X51187771Y42547983D01*
X51187771Y42547983D02*
X51225866Y42471792D01*
X56077295Y11084161D02*
X56724914Y11084161D01*
X56724914Y11084161D02*
X56801104Y11122256D01*
X56801104Y11122256D02*
X56839200Y11160351D01*
X56839200Y11160351D02*
X56877295Y11236542D01*
X56877295Y11236542D02*
X56877295Y11388923D01*
X56877295Y11388923D02*
X56839200Y11465113D01*
X56839200Y11465113D02*
X56801104Y11503208D01*
X56801104Y11503208D02*
X56724914Y11541304D01*
X56724914Y11541304D02*
X56077295Y11541304D01*
X56153485Y11884160D02*
X56115390Y11922256D01*
X56115390Y11922256D02*
X56077295Y11998446D01*
X56077295Y11998446D02*
X56077295Y12188922D01*
X56077295Y12188922D02*
X56115390Y12265113D01*
X56115390Y12265113D02*
X56153485Y12303208D01*
X56153485Y12303208D02*
X56229676Y12341303D01*
X56229676Y12341303D02*
X56305866Y12341303D01*
X56305866Y12341303D02*
X56420152Y12303208D01*
X56420152Y12303208D02*
X56877295Y11846065D01*
X56877295Y11846065D02*
X56877295Y12341303D01*
X41637295Y2809888D02*
X40837295Y2809888D01*
X40837295Y2809888D02*
X40837295Y3114650D01*
X40837295Y3114650D02*
X40875390Y3190840D01*
X40875390Y3190840D02*
X40913485Y3228935D01*
X40913485Y3228935D02*
X40989676Y3267031D01*
X40989676Y3267031D02*
X41103961Y3267031D01*
X41103961Y3267031D02*
X41180152Y3228935D01*
X41180152Y3228935D02*
X41218247Y3190840D01*
X41218247Y3190840D02*
X41256342Y3114650D01*
X41256342Y3114650D02*
X41256342Y2809888D01*
X41218247Y3876554D02*
X41256342Y3990840D01*
X41256342Y3990840D02*
X41294438Y4028935D01*
X41294438Y4028935D02*
X41370628Y4067031D01*
X41370628Y4067031D02*
X41484914Y4067031D01*
X41484914Y4067031D02*
X41561104Y4028935D01*
X41561104Y4028935D02*
X41599200Y3990840D01*
X41599200Y3990840D02*
X41637295Y3914650D01*
X41637295Y3914650D02*
X41637295Y3609888D01*
X41637295Y3609888D02*
X40837295Y3609888D01*
X40837295Y3609888D02*
X40837295Y3876554D01*
X40837295Y3876554D02*
X40875390Y3952745D01*
X40875390Y3952745D02*
X40913485Y3990840D01*
X40913485Y3990840D02*
X40989676Y4028935D01*
X40989676Y4028935D02*
X41065866Y4028935D01*
X41065866Y4028935D02*
X41142057Y3990840D01*
X41142057Y3990840D02*
X41180152Y3952745D01*
X41180152Y3952745D02*
X41218247Y3876554D01*
X41218247Y3876554D02*
X41218247Y3609888D01*
X40913485Y4371792D02*
X40875390Y4409888D01*
X40875390Y4409888D02*
X40837295Y4486078D01*
X40837295Y4486078D02*
X40837295Y4676554D01*
X40837295Y4676554D02*
X40875390Y4752745D01*
X40875390Y4752745D02*
X40913485Y4790840D01*
X40913485Y4790840D02*
X40989676Y4828935D01*
X40989676Y4828935D02*
X41065866Y4828935D01*
X41065866Y4828935D02*
X41180152Y4790840D01*
X41180152Y4790840D02*
X41637295Y4333697D01*
X41637295Y4333697D02*
X41637295Y4828935D01*
X61195390Y41252745D02*
X61157295Y41176555D01*
X61157295Y41176555D02*
X61157295Y41062269D01*
X61157295Y41062269D02*
X61195390Y40947983D01*
X61195390Y40947983D02*
X61271580Y40871793D01*
X61271580Y40871793D02*
X61347771Y40833698D01*
X61347771Y40833698D02*
X61500152Y40795602D01*
X61500152Y40795602D02*
X61614438Y40795602D01*
X61614438Y40795602D02*
X61766819Y40833698D01*
X61766819Y40833698D02*
X61843009Y40871793D01*
X61843009Y40871793D02*
X61919200Y40947983D01*
X61919200Y40947983D02*
X61957295Y41062269D01*
X61957295Y41062269D02*
X61957295Y41138460D01*
X61957295Y41138460D02*
X61919200Y41252745D01*
X61919200Y41252745D02*
X61881104Y41290841D01*
X61881104Y41290841D02*
X61614438Y41290841D01*
X61614438Y41290841D02*
X61614438Y41138460D01*
X61957295Y41633698D02*
X61157295Y41633698D01*
X61157295Y41633698D02*
X61957295Y42090841D01*
X61957295Y42090841D02*
X61157295Y42090841D01*
X61957295Y42471793D02*
X61157295Y42471793D01*
X61157295Y42471793D02*
X61157295Y42662269D01*
X61157295Y42662269D02*
X61195390Y42776555D01*
X61195390Y42776555D02*
X61271580Y42852745D01*
X61271580Y42852745D02*
X61347771Y42890840D01*
X61347771Y42890840D02*
X61500152Y42928936D01*
X61500152Y42928936D02*
X61614438Y42928936D01*
X61614438Y42928936D02*
X61766819Y42890840D01*
X61766819Y42890840D02*
X61843009Y42852745D01*
X61843009Y42852745D02*
X61919200Y42776555D01*
X61919200Y42776555D02*
X61957295Y42662269D01*
X61957295Y42662269D02*
X61957295Y42471793D01*
X39097295Y2809888D02*
X38297295Y2809888D01*
X38297295Y2809888D02*
X38297295Y3114650D01*
X38297295Y3114650D02*
X38335390Y3190840D01*
X38335390Y3190840D02*
X38373485Y3228935D01*
X38373485Y3228935D02*
X38449676Y3267031D01*
X38449676Y3267031D02*
X38563961Y3267031D01*
X38563961Y3267031D02*
X38640152Y3228935D01*
X38640152Y3228935D02*
X38678247Y3190840D01*
X38678247Y3190840D02*
X38716342Y3114650D01*
X38716342Y3114650D02*
X38716342Y2809888D01*
X38678247Y3876554D02*
X38716342Y3990840D01*
X38716342Y3990840D02*
X38754438Y4028935D01*
X38754438Y4028935D02*
X38830628Y4067031D01*
X38830628Y4067031D02*
X38944914Y4067031D01*
X38944914Y4067031D02*
X39021104Y4028935D01*
X39021104Y4028935D02*
X39059200Y3990840D01*
X39059200Y3990840D02*
X39097295Y3914650D01*
X39097295Y3914650D02*
X39097295Y3609888D01*
X39097295Y3609888D02*
X38297295Y3609888D01*
X38297295Y3609888D02*
X38297295Y3876554D01*
X38297295Y3876554D02*
X38335390Y3952745D01*
X38335390Y3952745D02*
X38373485Y3990840D01*
X38373485Y3990840D02*
X38449676Y4028935D01*
X38449676Y4028935D02*
X38525866Y4028935D01*
X38525866Y4028935D02*
X38602057Y3990840D01*
X38602057Y3990840D02*
X38640152Y3952745D01*
X38640152Y3952745D02*
X38678247Y3876554D01*
X38678247Y3876554D02*
X38678247Y3609888D01*
X38297295Y4562269D02*
X38297295Y4638459D01*
X38297295Y4638459D02*
X38335390Y4714650D01*
X38335390Y4714650D02*
X38373485Y4752745D01*
X38373485Y4752745D02*
X38449676Y4790840D01*
X38449676Y4790840D02*
X38602057Y4828935D01*
X38602057Y4828935D02*
X38792533Y4828935D01*
X38792533Y4828935D02*
X38944914Y4790840D01*
X38944914Y4790840D02*
X39021104Y4752745D01*
X39021104Y4752745D02*
X39059200Y4714650D01*
X39059200Y4714650D02*
X39097295Y4638459D01*
X39097295Y4638459D02*
X39097295Y4562269D01*
X39097295Y4562269D02*
X39059200Y4486078D01*
X39059200Y4486078D02*
X39021104Y4447983D01*
X39021104Y4447983D02*
X38944914Y4409888D01*
X38944914Y4409888D02*
X38792533Y4371792D01*
X38792533Y4371792D02*
X38602057Y4371792D01*
X38602057Y4371792D02*
X38449676Y4409888D01*
X38449676Y4409888D02*
X38373485Y4447983D01*
X38373485Y4447983D02*
X38335390Y4486078D01*
X38335390Y4486078D02*
X38297295Y4562269D01*
X51797295Y11084161D02*
X50997295Y11084161D01*
X50997295Y11084161D02*
X50997295Y11388923D01*
X50997295Y11388923D02*
X51035390Y11465113D01*
X51035390Y11465113D02*
X51073485Y11503208D01*
X51073485Y11503208D02*
X51149676Y11541304D01*
X51149676Y11541304D02*
X51263961Y11541304D01*
X51263961Y11541304D02*
X51340152Y11503208D01*
X51340152Y11503208D02*
X51378247Y11465113D01*
X51378247Y11465113D02*
X51416342Y11388923D01*
X51416342Y11388923D02*
X51416342Y11084161D01*
X51721104Y12341304D02*
X51759200Y12303208D01*
X51759200Y12303208D02*
X51797295Y12188923D01*
X51797295Y12188923D02*
X51797295Y12112732D01*
X51797295Y12112732D02*
X51759200Y11998446D01*
X51759200Y11998446D02*
X51683009Y11922256D01*
X51683009Y11922256D02*
X51606819Y11884161D01*
X51606819Y11884161D02*
X51454438Y11846065D01*
X51454438Y11846065D02*
X51340152Y11846065D01*
X51340152Y11846065D02*
X51187771Y11884161D01*
X51187771Y11884161D02*
X51111580Y11922256D01*
X51111580Y11922256D02*
X51035390Y11998446D01*
X51035390Y11998446D02*
X50997295Y12112732D01*
X50997295Y12112732D02*
X50997295Y12188923D01*
X50997295Y12188923D02*
X51035390Y12303208D01*
X51035390Y12303208D02*
X51073485Y12341304D01*
X50997295Y12607970D02*
X50997295Y13141304D01*
X50997295Y13141304D02*
X51797295Y12798446D01*
X15475390Y41252745D02*
X15437295Y41176555D01*
X15437295Y41176555D02*
X15437295Y41062269D01*
X15437295Y41062269D02*
X15475390Y40947983D01*
X15475390Y40947983D02*
X15551580Y40871793D01*
X15551580Y40871793D02*
X15627771Y40833698D01*
X15627771Y40833698D02*
X15780152Y40795602D01*
X15780152Y40795602D02*
X15894438Y40795602D01*
X15894438Y40795602D02*
X16046819Y40833698D01*
X16046819Y40833698D02*
X16123009Y40871793D01*
X16123009Y40871793D02*
X16199200Y40947983D01*
X16199200Y40947983D02*
X16237295Y41062269D01*
X16237295Y41062269D02*
X16237295Y41138460D01*
X16237295Y41138460D02*
X16199200Y41252745D01*
X16199200Y41252745D02*
X16161104Y41290841D01*
X16161104Y41290841D02*
X15894438Y41290841D01*
X15894438Y41290841D02*
X15894438Y41138460D01*
X16237295Y41633698D02*
X15437295Y41633698D01*
X15437295Y41633698D02*
X16237295Y42090841D01*
X16237295Y42090841D02*
X15437295Y42090841D01*
X16237295Y42471793D02*
X15437295Y42471793D01*
X15437295Y42471793D02*
X15437295Y42662269D01*
X15437295Y42662269D02*
X15475390Y42776555D01*
X15475390Y42776555D02*
X15551580Y42852745D01*
X15551580Y42852745D02*
X15627771Y42890840D01*
X15627771Y42890840D02*
X15780152Y42928936D01*
X15780152Y42928936D02*
X15894438Y42928936D01*
X15894438Y42928936D02*
X16046819Y42890840D01*
X16046819Y42890840D02*
X16123009Y42852745D01*
X16123009Y42852745D02*
X16199200Y42776555D01*
X16199200Y42776555D02*
X16237295Y42662269D01*
X16237295Y42662269D02*
X16237295Y42471793D01*
X36557295Y11084161D02*
X35757295Y11084161D01*
X35757295Y11084161D02*
X35757295Y11388923D01*
X35757295Y11388923D02*
X35795390Y11465113D01*
X35795390Y11465113D02*
X35833485Y11503208D01*
X35833485Y11503208D02*
X35909676Y11541304D01*
X35909676Y11541304D02*
X36023961Y11541304D01*
X36023961Y11541304D02*
X36100152Y11503208D01*
X36100152Y11503208D02*
X36138247Y11465113D01*
X36138247Y11465113D02*
X36176342Y11388923D01*
X36176342Y11388923D02*
X36176342Y11084161D01*
X36481104Y12341304D02*
X36519200Y12303208D01*
X36519200Y12303208D02*
X36557295Y12188923D01*
X36557295Y12188923D02*
X36557295Y12112732D01*
X36557295Y12112732D02*
X36519200Y11998446D01*
X36519200Y11998446D02*
X36443009Y11922256D01*
X36443009Y11922256D02*
X36366819Y11884161D01*
X36366819Y11884161D02*
X36214438Y11846065D01*
X36214438Y11846065D02*
X36100152Y11846065D01*
X36100152Y11846065D02*
X35947771Y11884161D01*
X35947771Y11884161D02*
X35871580Y11922256D01*
X35871580Y11922256D02*
X35795390Y11998446D01*
X35795390Y11998446D02*
X35757295Y12112732D01*
X35757295Y12112732D02*
X35757295Y12188923D01*
X35757295Y12188923D02*
X35795390Y12303208D01*
X35795390Y12303208D02*
X35833485Y12341304D01*
X35757295Y13065113D02*
X35757295Y12684161D01*
X35757295Y12684161D02*
X36138247Y12646065D01*
X36138247Y12646065D02*
X36100152Y12684161D01*
X36100152Y12684161D02*
X36062057Y12760351D01*
X36062057Y12760351D02*
X36062057Y12950827D01*
X36062057Y12950827D02*
X36100152Y13027018D01*
X36100152Y13027018D02*
X36138247Y13065113D01*
X36138247Y13065113D02*
X36214438Y13103208D01*
X36214438Y13103208D02*
X36404914Y13103208D01*
X36404914Y13103208D02*
X36481104Y13065113D01*
X36481104Y13065113D02*
X36519200Y13027018D01*
X36519200Y13027018D02*
X36557295Y12950827D01*
X36557295Y12950827D02*
X36557295Y12760351D01*
X36557295Y12760351D02*
X36519200Y12684161D01*
X36519200Y12684161D02*
X36481104Y12646065D01*
X49257295Y2047983D02*
X48457295Y2047983D01*
X48457295Y2047983D02*
X48457295Y2352745D01*
X48457295Y2352745D02*
X48495390Y2428935D01*
X48495390Y2428935D02*
X48533485Y2467030D01*
X48533485Y2467030D02*
X48609676Y2505126D01*
X48609676Y2505126D02*
X48723961Y2505126D01*
X48723961Y2505126D02*
X48800152Y2467030D01*
X48800152Y2467030D02*
X48838247Y2428935D01*
X48838247Y2428935D02*
X48876342Y2352745D01*
X48876342Y2352745D02*
X48876342Y2047983D01*
X48838247Y3114649D02*
X48876342Y3228935D01*
X48876342Y3228935D02*
X48914438Y3267030D01*
X48914438Y3267030D02*
X48990628Y3305126D01*
X48990628Y3305126D02*
X49104914Y3305126D01*
X49104914Y3305126D02*
X49181104Y3267030D01*
X49181104Y3267030D02*
X49219200Y3228935D01*
X49219200Y3228935D02*
X49257295Y3152745D01*
X49257295Y3152745D02*
X49257295Y2847983D01*
X49257295Y2847983D02*
X48457295Y2847983D01*
X48457295Y2847983D02*
X48457295Y3114649D01*
X48457295Y3114649D02*
X48495390Y3190840D01*
X48495390Y3190840D02*
X48533485Y3228935D01*
X48533485Y3228935D02*
X48609676Y3267030D01*
X48609676Y3267030D02*
X48685866Y3267030D01*
X48685866Y3267030D02*
X48762057Y3228935D01*
X48762057Y3228935D02*
X48800152Y3190840D01*
X48800152Y3190840D02*
X48838247Y3114649D01*
X48838247Y3114649D02*
X48838247Y2847983D01*
X49257295Y4067030D02*
X49257295Y3609887D01*
X49257295Y3838459D02*
X48457295Y3838459D01*
X48457295Y3838459D02*
X48571580Y3762268D01*
X48571580Y3762268D02*
X48647771Y3686078D01*
X48647771Y3686078D02*
X48685866Y3609887D01*
X48723961Y4752745D02*
X49257295Y4752745D01*
X48419200Y4562269D02*
X48990628Y4371792D01*
X48990628Y4371792D02*
X48990628Y4867031D01*
X61195390Y11503208D02*
X61157295Y11427018D01*
X61157295Y11427018D02*
X61157295Y11312732D01*
X61157295Y11312732D02*
X61195390Y11198446D01*
X61195390Y11198446D02*
X61271580Y11122256D01*
X61271580Y11122256D02*
X61347771Y11084161D01*
X61347771Y11084161D02*
X61500152Y11046065D01*
X61500152Y11046065D02*
X61614438Y11046065D01*
X61614438Y11046065D02*
X61766819Y11084161D01*
X61766819Y11084161D02*
X61843009Y11122256D01*
X61843009Y11122256D02*
X61919200Y11198446D01*
X61919200Y11198446D02*
X61957295Y11312732D01*
X61957295Y11312732D02*
X61957295Y11388923D01*
X61957295Y11388923D02*
X61919200Y11503208D01*
X61919200Y11503208D02*
X61881104Y11541304D01*
X61881104Y11541304D02*
X61614438Y11541304D01*
X61614438Y11541304D02*
X61614438Y11388923D01*
X61957295Y11884161D02*
X61157295Y11884161D01*
X61157295Y11884161D02*
X61957295Y12341304D01*
X61957295Y12341304D02*
X61157295Y12341304D01*
X61957295Y12722256D02*
X61157295Y12722256D01*
X61157295Y12722256D02*
X61157295Y12912732D01*
X61157295Y12912732D02*
X61195390Y13027018D01*
X61195390Y13027018D02*
X61271580Y13103208D01*
X61271580Y13103208D02*
X61347771Y13141303D01*
X61347771Y13141303D02*
X61500152Y13179399D01*
X61500152Y13179399D02*
X61614438Y13179399D01*
X61614438Y13179399D02*
X61766819Y13141303D01*
X61766819Y13141303D02*
X61843009Y13103208D01*
X61843009Y13103208D02*
X61919200Y13027018D01*
X61919200Y13027018D02*
X61957295Y12912732D01*
X61957295Y12912732D02*
X61957295Y12722256D01*
X58617295Y11084161D02*
X59264914Y11084161D01*
X59264914Y11084161D02*
X59341104Y11122256D01*
X59341104Y11122256D02*
X59379200Y11160351D01*
X59379200Y11160351D02*
X59417295Y11236542D01*
X59417295Y11236542D02*
X59417295Y11388923D01*
X59417295Y11388923D02*
X59379200Y11465113D01*
X59379200Y11465113D02*
X59341104Y11503208D01*
X59341104Y11503208D02*
X59264914Y11541304D01*
X59264914Y11541304D02*
X58617295Y11541304D01*
X58883961Y12265113D02*
X59417295Y12265113D01*
X58579200Y12074637D02*
X59150628Y11884160D01*
X59150628Y11884160D02*
X59150628Y12379399D01*
X23857295Y49819161D02*
X23057295Y49819161D01*
X23057295Y49819161D02*
X23057295Y50123923D01*
X23057295Y50123923D02*
X23095390Y50200113D01*
X23095390Y50200113D02*
X23133485Y50238208D01*
X23133485Y50238208D02*
X23209676Y50276304D01*
X23209676Y50276304D02*
X23323961Y50276304D01*
X23323961Y50276304D02*
X23400152Y50238208D01*
X23400152Y50238208D02*
X23438247Y50200113D01*
X23438247Y50200113D02*
X23476342Y50123923D01*
X23476342Y50123923D02*
X23476342Y49819161D01*
X23781104Y51076304D02*
X23819200Y51038208D01*
X23819200Y51038208D02*
X23857295Y50923923D01*
X23857295Y50923923D02*
X23857295Y50847732D01*
X23857295Y50847732D02*
X23819200Y50733446D01*
X23819200Y50733446D02*
X23743009Y50657256D01*
X23743009Y50657256D02*
X23666819Y50619161D01*
X23666819Y50619161D02*
X23514438Y50581065D01*
X23514438Y50581065D02*
X23400152Y50581065D01*
X23400152Y50581065D02*
X23247771Y50619161D01*
X23247771Y50619161D02*
X23171580Y50657256D01*
X23171580Y50657256D02*
X23095390Y50733446D01*
X23095390Y50733446D02*
X23057295Y50847732D01*
X23057295Y50847732D02*
X23057295Y50923923D01*
X23057295Y50923923D02*
X23095390Y51038208D01*
X23095390Y51038208D02*
X23133485Y51076304D01*
X23857295Y51838208D02*
X23857295Y51381065D01*
X23857295Y51609637D02*
X23057295Y51609637D01*
X23057295Y51609637D02*
X23171580Y51533446D01*
X23171580Y51533446D02*
X23247771Y51457256D01*
X23247771Y51457256D02*
X23285866Y51381065D01*
X23323961Y52523923D02*
X23857295Y52523923D01*
X23019200Y52333447D02*
X23590628Y52142970D01*
X23590628Y52142970D02*
X23590628Y52638209D01*
X43377295Y40909888D02*
X44024914Y40909888D01*
X44024914Y40909888D02*
X44101104Y40947983D01*
X44101104Y40947983D02*
X44139200Y40986078D01*
X44139200Y40986078D02*
X44177295Y41062269D01*
X44177295Y41062269D02*
X44177295Y41214650D01*
X44177295Y41214650D02*
X44139200Y41290840D01*
X44139200Y41290840D02*
X44101104Y41328935D01*
X44101104Y41328935D02*
X44024914Y41367031D01*
X44024914Y41367031D02*
X43377295Y41367031D01*
X44177295Y42167030D02*
X44177295Y41709887D01*
X44177295Y41938459D02*
X43377295Y41938459D01*
X43377295Y41938459D02*
X43491580Y41862268D01*
X43491580Y41862268D02*
X43567771Y41786078D01*
X43567771Y41786078D02*
X43605866Y41709887D01*
X43453485Y42471792D02*
X43415390Y42509888D01*
X43415390Y42509888D02*
X43377295Y42586078D01*
X43377295Y42586078D02*
X43377295Y42776554D01*
X43377295Y42776554D02*
X43415390Y42852745D01*
X43415390Y42852745D02*
X43453485Y42890840D01*
X43453485Y42890840D02*
X43529676Y42928935D01*
X43529676Y42928935D02*
X43605866Y42928935D01*
X43605866Y42928935D02*
X43720152Y42890840D01*
X43720152Y42890840D02*
X44177295Y42433697D01*
X44177295Y42433697D02*
X44177295Y42928935D01*
X17977295Y41671793D02*
X18624914Y41671793D01*
X18624914Y41671793D02*
X18701104Y41709888D01*
X18701104Y41709888D02*
X18739200Y41747983D01*
X18739200Y41747983D02*
X18777295Y41824174D01*
X18777295Y41824174D02*
X18777295Y41976555D01*
X18777295Y41976555D02*
X18739200Y42052745D01*
X18739200Y42052745D02*
X18701104Y42090840D01*
X18701104Y42090840D02*
X18624914Y42128936D01*
X18624914Y42128936D02*
X17977295Y42128936D01*
X17977295Y42852745D02*
X17977295Y42700364D01*
X17977295Y42700364D02*
X18015390Y42624173D01*
X18015390Y42624173D02*
X18053485Y42586078D01*
X18053485Y42586078D02*
X18167771Y42509888D01*
X18167771Y42509888D02*
X18320152Y42471792D01*
X18320152Y42471792D02*
X18624914Y42471792D01*
X18624914Y42471792D02*
X18701104Y42509888D01*
X18701104Y42509888D02*
X18739200Y42547983D01*
X18739200Y42547983D02*
X18777295Y42624173D01*
X18777295Y42624173D02*
X18777295Y42776554D01*
X18777295Y42776554D02*
X18739200Y42852745D01*
X18739200Y42852745D02*
X18701104Y42890840D01*
X18701104Y42890840D02*
X18624914Y42928935D01*
X18624914Y42928935D02*
X18434438Y42928935D01*
X18434438Y42928935D02*
X18358247Y42890840D01*
X18358247Y42890840D02*
X18320152Y42852745D01*
X18320152Y42852745D02*
X18282057Y42776554D01*
X18282057Y42776554D02*
X18282057Y42624173D01*
X18282057Y42624173D02*
X18320152Y42547983D01*
X18320152Y42547983D02*
X18358247Y42509888D01*
X18358247Y42509888D02*
X18434438Y42471792D01*
X58617295Y3571793D02*
X59264914Y3571793D01*
X59264914Y3571793D02*
X59341104Y3609888D01*
X59341104Y3609888D02*
X59379200Y3647983D01*
X59379200Y3647983D02*
X59417295Y3724174D01*
X59417295Y3724174D02*
X59417295Y3876555D01*
X59417295Y3876555D02*
X59379200Y3952745D01*
X59379200Y3952745D02*
X59341104Y3990840D01*
X59341104Y3990840D02*
X59264914Y4028936D01*
X59264914Y4028936D02*
X58617295Y4028936D01*
X58617295Y4333697D02*
X58617295Y4828935D01*
X58617295Y4828935D02*
X58922057Y4562269D01*
X58922057Y4562269D02*
X58922057Y4676554D01*
X58922057Y4676554D02*
X58960152Y4752745D01*
X58960152Y4752745D02*
X58998247Y4790840D01*
X58998247Y4790840D02*
X59074438Y4828935D01*
X59074438Y4828935D02*
X59264914Y4828935D01*
X59264914Y4828935D02*
X59341104Y4790840D01*
X59341104Y4790840D02*
X59379200Y4752745D01*
X59379200Y4752745D02*
X59417295Y4676554D01*
X59417295Y4676554D02*
X59417295Y4447983D01*
X59417295Y4447983D02*
X59379200Y4371792D01*
X59379200Y4371792D02*
X59341104Y4333697D01*
X38297295Y41671793D02*
X38944914Y41671793D01*
X38944914Y41671793D02*
X39021104Y41709888D01*
X39021104Y41709888D02*
X39059200Y41747983D01*
X39059200Y41747983D02*
X39097295Y41824174D01*
X39097295Y41824174D02*
X39097295Y41976555D01*
X39097295Y41976555D02*
X39059200Y42052745D01*
X39059200Y42052745D02*
X39021104Y42090840D01*
X39021104Y42090840D02*
X38944914Y42128936D01*
X38944914Y42128936D02*
X38297295Y42128936D01*
X38640152Y42624173D02*
X38602057Y42547983D01*
X38602057Y42547983D02*
X38563961Y42509888D01*
X38563961Y42509888D02*
X38487771Y42471792D01*
X38487771Y42471792D02*
X38449676Y42471792D01*
X38449676Y42471792D02*
X38373485Y42509888D01*
X38373485Y42509888D02*
X38335390Y42547983D01*
X38335390Y42547983D02*
X38297295Y42624173D01*
X38297295Y42624173D02*
X38297295Y42776554D01*
X38297295Y42776554D02*
X38335390Y42852745D01*
X38335390Y42852745D02*
X38373485Y42890840D01*
X38373485Y42890840D02*
X38449676Y42928935D01*
X38449676Y42928935D02*
X38487771Y42928935D01*
X38487771Y42928935D02*
X38563961Y42890840D01*
X38563961Y42890840D02*
X38602057Y42852745D01*
X38602057Y42852745D02*
X38640152Y42776554D01*
X38640152Y42776554D02*
X38640152Y42624173D01*
X38640152Y42624173D02*
X38678247Y42547983D01*
X38678247Y42547983D02*
X38716342Y42509888D01*
X38716342Y42509888D02*
X38792533Y42471792D01*
X38792533Y42471792D02*
X38944914Y42471792D01*
X38944914Y42471792D02*
X39021104Y42509888D01*
X39021104Y42509888D02*
X39059200Y42547983D01*
X39059200Y42547983D02*
X39097295Y42624173D01*
X39097295Y42624173D02*
X39097295Y42776554D01*
X39097295Y42776554D02*
X39059200Y42852745D01*
X39059200Y42852745D02*
X39021104Y42890840D01*
X39021104Y42890840D02*
X38944914Y42928935D01*
X38944914Y42928935D02*
X38792533Y42928935D01*
X38792533Y42928935D02*
X38716342Y42890840D01*
X38716342Y42890840D02*
X38678247Y42852745D01*
X38678247Y42852745D02*
X38640152Y42776554D01*
X58617295Y40909888D02*
X59264914Y40909888D01*
X59264914Y40909888D02*
X59341104Y40947983D01*
X59341104Y40947983D02*
X59379200Y40986078D01*
X59379200Y40986078D02*
X59417295Y41062269D01*
X59417295Y41062269D02*
X59417295Y41214650D01*
X59417295Y41214650D02*
X59379200Y41290840D01*
X59379200Y41290840D02*
X59341104Y41328935D01*
X59341104Y41328935D02*
X59264914Y41367031D01*
X59264914Y41367031D02*
X58617295Y41367031D01*
X59417295Y42167030D02*
X59417295Y41709887D01*
X59417295Y41938459D02*
X58617295Y41938459D01*
X58617295Y41938459D02*
X58731580Y41862268D01*
X58731580Y41862268D02*
X58807771Y41786078D01*
X58807771Y41786078D02*
X58845866Y41709887D01*
X58617295Y42852745D02*
X58617295Y42700364D01*
X58617295Y42700364D02*
X58655390Y42624173D01*
X58655390Y42624173D02*
X58693485Y42586078D01*
X58693485Y42586078D02*
X58807771Y42509888D01*
X58807771Y42509888D02*
X58960152Y42471792D01*
X58960152Y42471792D02*
X59264914Y42471792D01*
X59264914Y42471792D02*
X59341104Y42509888D01*
X59341104Y42509888D02*
X59379200Y42547983D01*
X59379200Y42547983D02*
X59417295Y42624173D01*
X59417295Y42624173D02*
X59417295Y42776554D01*
X59417295Y42776554D02*
X59379200Y42852745D01*
X59379200Y42852745D02*
X59341104Y42890840D01*
X59341104Y42890840D02*
X59264914Y42928935D01*
X59264914Y42928935D02*
X59074438Y42928935D01*
X59074438Y42928935D02*
X58998247Y42890840D01*
X58998247Y42890840D02*
X58960152Y42852745D01*
X58960152Y42852745D02*
X58922057Y42776554D01*
X58922057Y42776554D02*
X58922057Y42624173D01*
X58922057Y42624173D02*
X58960152Y42547983D01*
X58960152Y42547983D02*
X58998247Y42509888D01*
X58998247Y42509888D02*
X59074438Y42471792D01*
X15475390Y11503208D02*
X15437295Y11427018D01*
X15437295Y11427018D02*
X15437295Y11312732D01*
X15437295Y11312732D02*
X15475390Y11198446D01*
X15475390Y11198446D02*
X15551580Y11122256D01*
X15551580Y11122256D02*
X15627771Y11084161D01*
X15627771Y11084161D02*
X15780152Y11046065D01*
X15780152Y11046065D02*
X15894438Y11046065D01*
X15894438Y11046065D02*
X16046819Y11084161D01*
X16046819Y11084161D02*
X16123009Y11122256D01*
X16123009Y11122256D02*
X16199200Y11198446D01*
X16199200Y11198446D02*
X16237295Y11312732D01*
X16237295Y11312732D02*
X16237295Y11388923D01*
X16237295Y11388923D02*
X16199200Y11503208D01*
X16199200Y11503208D02*
X16161104Y11541304D01*
X16161104Y11541304D02*
X15894438Y11541304D01*
X15894438Y11541304D02*
X15894438Y11388923D01*
X16237295Y11884161D02*
X15437295Y11884161D01*
X15437295Y11884161D02*
X16237295Y12341304D01*
X16237295Y12341304D02*
X15437295Y12341304D01*
X16237295Y12722256D02*
X15437295Y12722256D01*
X15437295Y12722256D02*
X15437295Y12912732D01*
X15437295Y12912732D02*
X15475390Y13027018D01*
X15475390Y13027018D02*
X15551580Y13103208D01*
X15551580Y13103208D02*
X15627771Y13141303D01*
X15627771Y13141303D02*
X15780152Y13179399D01*
X15780152Y13179399D02*
X15894438Y13179399D01*
X15894438Y13179399D02*
X16046819Y13141303D01*
X16046819Y13141303D02*
X16123009Y13103208D01*
X16123009Y13103208D02*
X16199200Y13027018D01*
X16199200Y13027018D02*
X16237295Y12912732D01*
X16237295Y12912732D02*
X16237295Y12722256D01*
X34017295Y2924174D02*
X33217295Y2924174D01*
X33217295Y2924174D02*
X33217295Y3228936D01*
X33217295Y3228936D02*
X33255390Y3305126D01*
X33255390Y3305126D02*
X33293485Y3343221D01*
X33293485Y3343221D02*
X33369676Y3381317D01*
X33369676Y3381317D02*
X33483961Y3381317D01*
X33483961Y3381317D02*
X33560152Y3343221D01*
X33560152Y3343221D02*
X33598247Y3305126D01*
X33598247Y3305126D02*
X33636342Y3228936D01*
X33636342Y3228936D02*
X33636342Y2924174D01*
X33788723Y3686078D02*
X33788723Y4067031D01*
X34017295Y3609888D02*
X33217295Y3876555D01*
X33217295Y3876555D02*
X34017295Y4143221D01*
X33217295Y4752745D02*
X33217295Y4600364D01*
X33217295Y4600364D02*
X33255390Y4524173D01*
X33255390Y4524173D02*
X33293485Y4486078D01*
X33293485Y4486078D02*
X33407771Y4409888D01*
X33407771Y4409888D02*
X33560152Y4371792D01*
X33560152Y4371792D02*
X33864914Y4371792D01*
X33864914Y4371792D02*
X33941104Y4409888D01*
X33941104Y4409888D02*
X33979200Y4447983D01*
X33979200Y4447983D02*
X34017295Y4524173D01*
X34017295Y4524173D02*
X34017295Y4676554D01*
X34017295Y4676554D02*
X33979200Y4752745D01*
X33979200Y4752745D02*
X33941104Y4790840D01*
X33941104Y4790840D02*
X33864914Y4828935D01*
X33864914Y4828935D02*
X33674438Y4828935D01*
X33674438Y4828935D02*
X33598247Y4790840D01*
X33598247Y4790840D02*
X33560152Y4752745D01*
X33560152Y4752745D02*
X33522057Y4676554D01*
X33522057Y4676554D02*
X33522057Y4524173D01*
X33522057Y4524173D02*
X33560152Y4447983D01*
X33560152Y4447983D02*
X33598247Y4409888D01*
X33598247Y4409888D02*
X33674438Y4371792D01*
X28937295Y2924174D02*
X28137295Y2924174D01*
X28137295Y2924174D02*
X28137295Y3228936D01*
X28137295Y3228936D02*
X28175390Y3305126D01*
X28175390Y3305126D02*
X28213485Y3343221D01*
X28213485Y3343221D02*
X28289676Y3381317D01*
X28289676Y3381317D02*
X28403961Y3381317D01*
X28403961Y3381317D02*
X28480152Y3343221D01*
X28480152Y3343221D02*
X28518247Y3305126D01*
X28518247Y3305126D02*
X28556342Y3228936D01*
X28556342Y3228936D02*
X28556342Y2924174D01*
X28708723Y3686078D02*
X28708723Y4067031D01*
X28937295Y3609888D02*
X28137295Y3876555D01*
X28137295Y3876555D02*
X28937295Y4143221D01*
X28213485Y4371792D02*
X28175390Y4409888D01*
X28175390Y4409888D02*
X28137295Y4486078D01*
X28137295Y4486078D02*
X28137295Y4676554D01*
X28137295Y4676554D02*
X28175390Y4752745D01*
X28175390Y4752745D02*
X28213485Y4790840D01*
X28213485Y4790840D02*
X28289676Y4828935D01*
X28289676Y4828935D02*
X28365866Y4828935D01*
X28365866Y4828935D02*
X28480152Y4790840D01*
X28480152Y4790840D02*
X28937295Y4333697D01*
X28937295Y4333697D02*
X28937295Y4828935D01*
X26397295Y11084161D02*
X25597295Y11084161D01*
X25597295Y11084161D02*
X25597295Y11388923D01*
X25597295Y11388923D02*
X25635390Y11465113D01*
X25635390Y11465113D02*
X25673485Y11503208D01*
X25673485Y11503208D02*
X25749676Y11541304D01*
X25749676Y11541304D02*
X25863961Y11541304D01*
X25863961Y11541304D02*
X25940152Y11503208D01*
X25940152Y11503208D02*
X25978247Y11465113D01*
X25978247Y11465113D02*
X26016342Y11388923D01*
X26016342Y11388923D02*
X26016342Y11084161D01*
X26168723Y11846065D02*
X26168723Y12227018D01*
X26397295Y11769875D02*
X25597295Y12036542D01*
X25597295Y12036542D02*
X26397295Y12303208D01*
X26397295Y12988922D02*
X26397295Y12531779D01*
X26397295Y12760351D02*
X25597295Y12760351D01*
X25597295Y12760351D02*
X25711580Y12684160D01*
X25711580Y12684160D02*
X25787771Y12607970D01*
X25787771Y12607970D02*
X25825866Y12531779D01*
X46717295Y40262269D02*
X45917295Y40262269D01*
X45917295Y40262269D02*
X45917295Y40567031D01*
X45917295Y40567031D02*
X45955390Y40643221D01*
X45955390Y40643221D02*
X45993485Y40681316D01*
X45993485Y40681316D02*
X46069676Y40719412D01*
X46069676Y40719412D02*
X46183961Y40719412D01*
X46183961Y40719412D02*
X46260152Y40681316D01*
X46260152Y40681316D02*
X46298247Y40643221D01*
X46298247Y40643221D02*
X46336342Y40567031D01*
X46336342Y40567031D02*
X46336342Y40262269D01*
X46488723Y41024173D02*
X46488723Y41405126D01*
X46717295Y40947983D02*
X45917295Y41214650D01*
X45917295Y41214650D02*
X46717295Y41481316D01*
X46717295Y42167030D02*
X46717295Y41709887D01*
X46717295Y41938459D02*
X45917295Y41938459D01*
X45917295Y41938459D02*
X46031580Y41862268D01*
X46031580Y41862268D02*
X46107771Y41786078D01*
X46107771Y41786078D02*
X46145866Y41709887D01*
X45917295Y42890840D02*
X45917295Y42509888D01*
X45917295Y42509888D02*
X46298247Y42471792D01*
X46298247Y42471792D02*
X46260152Y42509888D01*
X46260152Y42509888D02*
X46222057Y42586078D01*
X46222057Y42586078D02*
X46222057Y42776554D01*
X46222057Y42776554D02*
X46260152Y42852745D01*
X46260152Y42852745D02*
X46298247Y42890840D01*
X46298247Y42890840D02*
X46374438Y42928935D01*
X46374438Y42928935D02*
X46564914Y42928935D01*
X46564914Y42928935D02*
X46641104Y42890840D01*
X46641104Y42890840D02*
X46679200Y42852745D01*
X46679200Y42852745D02*
X46717295Y42776554D01*
X46717295Y42776554D02*
X46717295Y42586078D01*
X46717295Y42586078D02*
X46679200Y42509888D01*
X46679200Y42509888D02*
X46641104Y42471792D01*
X26397295Y2924174D02*
X25597295Y2924174D01*
X25597295Y2924174D02*
X25597295Y3228936D01*
X25597295Y3228936D02*
X25635390Y3305126D01*
X25635390Y3305126D02*
X25673485Y3343221D01*
X25673485Y3343221D02*
X25749676Y3381317D01*
X25749676Y3381317D02*
X25863961Y3381317D01*
X25863961Y3381317D02*
X25940152Y3343221D01*
X25940152Y3343221D02*
X25978247Y3305126D01*
X25978247Y3305126D02*
X26016342Y3228936D01*
X26016342Y3228936D02*
X26016342Y2924174D01*
X26168723Y3686078D02*
X26168723Y4067031D01*
X26397295Y3609888D02*
X25597295Y3876555D01*
X25597295Y3876555D02*
X26397295Y4143221D01*
X25597295Y4562269D02*
X25597295Y4638459D01*
X25597295Y4638459D02*
X25635390Y4714650D01*
X25635390Y4714650D02*
X25673485Y4752745D01*
X25673485Y4752745D02*
X25749676Y4790840D01*
X25749676Y4790840D02*
X25902057Y4828935D01*
X25902057Y4828935D02*
X26092533Y4828935D01*
X26092533Y4828935D02*
X26244914Y4790840D01*
X26244914Y4790840D02*
X26321104Y4752745D01*
X26321104Y4752745D02*
X26359200Y4714650D01*
X26359200Y4714650D02*
X26397295Y4638459D01*
X26397295Y4638459D02*
X26397295Y4562269D01*
X26397295Y4562269D02*
X26359200Y4486078D01*
X26359200Y4486078D02*
X26321104Y4447983D01*
X26321104Y4447983D02*
X26244914Y4409888D01*
X26244914Y4409888D02*
X26092533Y4371792D01*
X26092533Y4371792D02*
X25902057Y4371792D01*
X25902057Y4371792D02*
X25749676Y4409888D01*
X25749676Y4409888D02*
X25673485Y4447983D01*
X25673485Y4447983D02*
X25635390Y4486078D01*
X25635390Y4486078D02*
X25597295Y4562269D01*
X15437295Y49704875D02*
X16237295Y49971542D01*
X16237295Y49971542D02*
X15437295Y50238208D01*
X15818247Y50771541D02*
X15856342Y50885827D01*
X15856342Y50885827D02*
X15894438Y50923922D01*
X15894438Y50923922D02*
X15970628Y50962018D01*
X15970628Y50962018D02*
X16084914Y50962018D01*
X16084914Y50962018D02*
X16161104Y50923922D01*
X16161104Y50923922D02*
X16199200Y50885827D01*
X16199200Y50885827D02*
X16237295Y50809637D01*
X16237295Y50809637D02*
X16237295Y50504875D01*
X16237295Y50504875D02*
X15437295Y50504875D01*
X15437295Y50504875D02*
X15437295Y50771541D01*
X15437295Y50771541D02*
X15475390Y50847732D01*
X15475390Y50847732D02*
X15513485Y50885827D01*
X15513485Y50885827D02*
X15589676Y50923922D01*
X15589676Y50923922D02*
X15665866Y50923922D01*
X15665866Y50923922D02*
X15742057Y50885827D01*
X15742057Y50885827D02*
X15780152Y50847732D01*
X15780152Y50847732D02*
X15818247Y50771541D01*
X15818247Y50771541D02*
X15818247Y50504875D01*
X21317295Y2809888D02*
X20517295Y2809888D01*
X20517295Y2809888D02*
X20517295Y3114650D01*
X20517295Y3114650D02*
X20555390Y3190840D01*
X20555390Y3190840D02*
X20593485Y3228935D01*
X20593485Y3228935D02*
X20669676Y3267031D01*
X20669676Y3267031D02*
X20783961Y3267031D01*
X20783961Y3267031D02*
X20860152Y3228935D01*
X20860152Y3228935D02*
X20898247Y3190840D01*
X20898247Y3190840D02*
X20936342Y3114650D01*
X20936342Y3114650D02*
X20936342Y2809888D01*
X21241104Y4067031D02*
X21279200Y4028935D01*
X21279200Y4028935D02*
X21317295Y3914650D01*
X21317295Y3914650D02*
X21317295Y3838459D01*
X21317295Y3838459D02*
X21279200Y3724173D01*
X21279200Y3724173D02*
X21203009Y3647983D01*
X21203009Y3647983D02*
X21126819Y3609888D01*
X21126819Y3609888D02*
X20974438Y3571792D01*
X20974438Y3571792D02*
X20860152Y3571792D01*
X20860152Y3571792D02*
X20707771Y3609888D01*
X20707771Y3609888D02*
X20631580Y3647983D01*
X20631580Y3647983D02*
X20555390Y3724173D01*
X20555390Y3724173D02*
X20517295Y3838459D01*
X20517295Y3838459D02*
X20517295Y3914650D01*
X20517295Y3914650D02*
X20555390Y4028935D01*
X20555390Y4028935D02*
X20593485Y4067031D01*
X20517295Y4562269D02*
X20517295Y4638459D01*
X20517295Y4638459D02*
X20555390Y4714650D01*
X20555390Y4714650D02*
X20593485Y4752745D01*
X20593485Y4752745D02*
X20669676Y4790840D01*
X20669676Y4790840D02*
X20822057Y4828935D01*
X20822057Y4828935D02*
X21012533Y4828935D01*
X21012533Y4828935D02*
X21164914Y4790840D01*
X21164914Y4790840D02*
X21241104Y4752745D01*
X21241104Y4752745D02*
X21279200Y4714650D01*
X21279200Y4714650D02*
X21317295Y4638459D01*
X21317295Y4638459D02*
X21317295Y4562269D01*
X21317295Y4562269D02*
X21279200Y4486078D01*
X21279200Y4486078D02*
X21241104Y4447983D01*
X21241104Y4447983D02*
X21164914Y4409888D01*
X21164914Y4409888D02*
X21012533Y4371792D01*
X21012533Y4371792D02*
X20822057Y4371792D01*
X20822057Y4371792D02*
X20669676Y4409888D01*
X20669676Y4409888D02*
X20593485Y4447983D01*
X20593485Y4447983D02*
X20555390Y4486078D01*
X20555390Y4486078D02*
X20517295Y4562269D01*
X15437295Y3686079D02*
X16237295Y3952746D01*
X16237295Y3952746D02*
X15437295Y4219412D01*
X16008723Y4447983D02*
X16008723Y4828936D01*
X16237295Y4371793D02*
X15437295Y4638460D01*
X15437295Y4638460D02*
X16237295Y4905126D01*
X63697295Y50200113D02*
X63697295Y49819161D01*
X63697295Y49819161D02*
X64078247Y49781065D01*
X64078247Y49781065D02*
X64040152Y49819161D01*
X64040152Y49819161D02*
X64002057Y49895351D01*
X64002057Y49895351D02*
X64002057Y50085827D01*
X64002057Y50085827D02*
X64040152Y50162018D01*
X64040152Y50162018D02*
X64078247Y50200113D01*
X64078247Y50200113D02*
X64154438Y50238208D01*
X64154438Y50238208D02*
X64344914Y50238208D01*
X64344914Y50238208D02*
X64421104Y50200113D01*
X64421104Y50200113D02*
X64459200Y50162018D01*
X64459200Y50162018D02*
X64497295Y50085827D01*
X64497295Y50085827D02*
X64497295Y49895351D01*
X64497295Y49895351D02*
X64459200Y49819161D01*
X64459200Y49819161D02*
X64421104Y49781065D01*
X63697295Y50466780D02*
X64497295Y50733447D01*
X64497295Y50733447D02*
X63697295Y51000113D01*
X21317295Y11084161D02*
X20517295Y11084161D01*
X20517295Y11084161D02*
X20517295Y11388923D01*
X20517295Y11388923D02*
X20555390Y11465113D01*
X20555390Y11465113D02*
X20593485Y11503208D01*
X20593485Y11503208D02*
X20669676Y11541304D01*
X20669676Y11541304D02*
X20783961Y11541304D01*
X20783961Y11541304D02*
X20860152Y11503208D01*
X20860152Y11503208D02*
X20898247Y11465113D01*
X20898247Y11465113D02*
X20936342Y11388923D01*
X20936342Y11388923D02*
X20936342Y11084161D01*
X21241104Y12341304D02*
X21279200Y12303208D01*
X21279200Y12303208D02*
X21317295Y12188923D01*
X21317295Y12188923D02*
X21317295Y12112732D01*
X21317295Y12112732D02*
X21279200Y11998446D01*
X21279200Y11998446D02*
X21203009Y11922256D01*
X21203009Y11922256D02*
X21126819Y11884161D01*
X21126819Y11884161D02*
X20974438Y11846065D01*
X20974438Y11846065D02*
X20860152Y11846065D01*
X20860152Y11846065D02*
X20707771Y11884161D01*
X20707771Y11884161D02*
X20631580Y11922256D01*
X20631580Y11922256D02*
X20555390Y11998446D01*
X20555390Y11998446D02*
X20517295Y12112732D01*
X20517295Y12112732D02*
X20517295Y12188923D01*
X20517295Y12188923D02*
X20555390Y12303208D01*
X20555390Y12303208D02*
X20593485Y12341304D01*
X21317295Y13103208D02*
X21317295Y12646065D01*
X21317295Y12874637D02*
X20517295Y12874637D01*
X20517295Y12874637D02*
X20631580Y12798446D01*
X20631580Y12798446D02*
X20707771Y12722256D01*
X20707771Y12722256D02*
X20745866Y12646065D01*
X46717295Y2047983D02*
X45917295Y2047983D01*
X45917295Y2047983D02*
X45917295Y2352745D01*
X45917295Y2352745D02*
X45955390Y2428935D01*
X45955390Y2428935D02*
X45993485Y2467030D01*
X45993485Y2467030D02*
X46069676Y2505126D01*
X46069676Y2505126D02*
X46183961Y2505126D01*
X46183961Y2505126D02*
X46260152Y2467030D01*
X46260152Y2467030D02*
X46298247Y2428935D01*
X46298247Y2428935D02*
X46336342Y2352745D01*
X46336342Y2352745D02*
X46336342Y2047983D01*
X46298247Y3114649D02*
X46336342Y3228935D01*
X46336342Y3228935D02*
X46374438Y3267030D01*
X46374438Y3267030D02*
X46450628Y3305126D01*
X46450628Y3305126D02*
X46564914Y3305126D01*
X46564914Y3305126D02*
X46641104Y3267030D01*
X46641104Y3267030D02*
X46679200Y3228935D01*
X46679200Y3228935D02*
X46717295Y3152745D01*
X46717295Y3152745D02*
X46717295Y2847983D01*
X46717295Y2847983D02*
X45917295Y2847983D01*
X45917295Y2847983D02*
X45917295Y3114649D01*
X45917295Y3114649D02*
X45955390Y3190840D01*
X45955390Y3190840D02*
X45993485Y3228935D01*
X45993485Y3228935D02*
X46069676Y3267030D01*
X46069676Y3267030D02*
X46145866Y3267030D01*
X46145866Y3267030D02*
X46222057Y3228935D01*
X46222057Y3228935D02*
X46260152Y3190840D01*
X46260152Y3190840D02*
X46298247Y3114649D01*
X46298247Y3114649D02*
X46298247Y2847983D01*
X46717295Y4067030D02*
X46717295Y3609887D01*
X46717295Y3838459D02*
X45917295Y3838459D01*
X45917295Y3838459D02*
X46031580Y3762268D01*
X46031580Y3762268D02*
X46107771Y3686078D01*
X46107771Y3686078D02*
X46145866Y3609887D01*
X45993485Y4371792D02*
X45955390Y4409888D01*
X45955390Y4409888D02*
X45917295Y4486078D01*
X45917295Y4486078D02*
X45917295Y4676554D01*
X45917295Y4676554D02*
X45955390Y4752745D01*
X45955390Y4752745D02*
X45993485Y4790840D01*
X45993485Y4790840D02*
X46069676Y4828935D01*
X46069676Y4828935D02*
X46145866Y4828935D01*
X46145866Y4828935D02*
X46260152Y4790840D01*
X46260152Y4790840D02*
X46717295Y4333697D01*
X46717295Y4333697D02*
X46717295Y4828935D01*
X25597295Y40909888D02*
X26244914Y40909888D01*
X26244914Y40909888D02*
X26321104Y40947983D01*
X26321104Y40947983D02*
X26359200Y40986078D01*
X26359200Y40986078D02*
X26397295Y41062269D01*
X26397295Y41062269D02*
X26397295Y41214650D01*
X26397295Y41214650D02*
X26359200Y41290840D01*
X26359200Y41290840D02*
X26321104Y41328935D01*
X26321104Y41328935D02*
X26244914Y41367031D01*
X26244914Y41367031D02*
X25597295Y41367031D01*
X26397295Y42167030D02*
X26397295Y41709887D01*
X26397295Y41938459D02*
X25597295Y41938459D01*
X25597295Y41938459D02*
X25711580Y41862268D01*
X25711580Y41862268D02*
X25787771Y41786078D01*
X25787771Y41786078D02*
X25825866Y41709887D01*
X25597295Y42662269D02*
X25597295Y42738459D01*
X25597295Y42738459D02*
X25635390Y42814650D01*
X25635390Y42814650D02*
X25673485Y42852745D01*
X25673485Y42852745D02*
X25749676Y42890840D01*
X25749676Y42890840D02*
X25902057Y42928935D01*
X25902057Y42928935D02*
X26092533Y42928935D01*
X26092533Y42928935D02*
X26244914Y42890840D01*
X26244914Y42890840D02*
X26321104Y42852745D01*
X26321104Y42852745D02*
X26359200Y42814650D01*
X26359200Y42814650D02*
X26397295Y42738459D01*
X26397295Y42738459D02*
X26397295Y42662269D01*
X26397295Y42662269D02*
X26359200Y42586078D01*
X26359200Y42586078D02*
X26321104Y42547983D01*
X26321104Y42547983D02*
X26244914Y42509888D01*
X26244914Y42509888D02*
X26092533Y42471792D01*
X26092533Y42471792D02*
X25902057Y42471792D01*
X25902057Y42471792D02*
X25749676Y42509888D01*
X25749676Y42509888D02*
X25673485Y42547983D01*
X25673485Y42547983D02*
X25635390Y42586078D01*
X25635390Y42586078D02*
X25597295Y42662269D01*
G04 #@! TO.C,U1*
X60198095Y32710181D02*
X60198095Y31900658D01*
X60198095Y31900658D02*
X60245714Y31805420D01*
X60245714Y31805420D02*
X60293333Y31757800D01*
X60293333Y31757800D02*
X60388571Y31710181D01*
X60388571Y31710181D02*
X60579047Y31710181D01*
X60579047Y31710181D02*
X60674285Y31757800D01*
X60674285Y31757800D02*
X60721904Y31805420D01*
X60721904Y31805420D02*
X60769523Y31900658D01*
X60769523Y31900658D02*
X60769523Y32710181D01*
X61769523Y31710181D02*
X61198095Y31710181D01*
X61483809Y31710181D02*
X61483809Y32710181D01*
X61483809Y32710181D02*
X61388571Y32567324D01*
X61388571Y32567324D02*
X61293333Y32472086D01*
X61293333Y32472086D02*
X61198095Y32424467D01*
G04 #@! TO.C,C1*
X66508333Y32025420D02*
X66460714Y31977800D01*
X66460714Y31977800D02*
X66317857Y31930181D01*
X66317857Y31930181D02*
X66222619Y31930181D01*
X66222619Y31930181D02*
X66079762Y31977800D01*
X66079762Y31977800D02*
X65984524Y32073039D01*
X65984524Y32073039D02*
X65936905Y32168277D01*
X65936905Y32168277D02*
X65889286Y32358753D01*
X65889286Y32358753D02*
X65889286Y32501610D01*
X65889286Y32501610D02*
X65936905Y32692086D01*
X65936905Y32692086D02*
X65984524Y32787324D01*
X65984524Y32787324D02*
X66079762Y32882562D01*
X66079762Y32882562D02*
X66222619Y32930181D01*
X66222619Y32930181D02*
X66317857Y32930181D01*
X66317857Y32930181D02*
X66460714Y32882562D01*
X66460714Y32882562D02*
X66508333Y32834943D01*
X67460714Y31930181D02*
X66889286Y31930181D01*
X67175000Y31930181D02*
X67175000Y32930181D01*
X67175000Y32930181D02*
X67079762Y32787324D01*
X67079762Y32787324D02*
X66984524Y32692086D01*
X66984524Y32692086D02*
X66889286Y32644467D01*
D10*
G04 #@! TO.C,U1*
X58212500Y31322500D02*
X58212500Y31040000D01*
X58212500Y31040000D02*
X56560000Y31040000D01*
X58212500Y25827500D02*
X58212500Y26110000D01*
X60960000Y31322500D02*
X58212500Y31322500D01*
X60960000Y31322500D02*
X63707500Y31322500D01*
X60960000Y25827500D02*
X58212500Y25827500D01*
X60960000Y25827500D02*
X63707500Y25827500D01*
X63707500Y31322500D02*
X63707500Y31040000D01*
X63707500Y25827500D02*
X63707500Y26110000D01*
G04 #@! TO.C,C1*
X64275580Y31875000D02*
X63994420Y31875000D01*
X64275580Y32895000D02*
X63994420Y32895000D01*
G04 #@! TO.C,JP10*
X37970000Y34625000D02*
X37970000Y35225000D01*
X38670000Y35925000D02*
X40070000Y35925000D01*
X40070000Y33925000D02*
X38670000Y33925000D01*
X40770000Y35225000D02*
X40770000Y34625000D01*
X38670000Y35925000D02*
G75*
G03*
X37970000Y35225000I-1J-699999D01*
G01*
X37970000Y34625000D02*
G75*
G03*
X38670000Y33925000I699999J-1D01*
G01*
X40770000Y35225000D02*
G75*
G03*
X40070000Y35925000I-700000J0D01*
G01*
X40070000Y33925000D02*
G75*
G03*
X40770000Y34625000I0J700000D01*
G01*
G04 #@! TO.C,JP1*
X15110000Y34625000D02*
X15110000Y35225000D01*
X15810000Y35925000D02*
X17210000Y35925000D01*
X17210000Y33925000D02*
X15810000Y33925000D01*
X17910000Y35225000D02*
X17910000Y34625000D01*
X15810000Y35925000D02*
G75*
G03*
X15110000Y35225000I-1J-699999D01*
G01*
X15110000Y34625000D02*
G75*
G03*
X15810000Y33925000I699999J-1D01*
G01*
X17910000Y35225000D02*
G75*
G03*
X17210000Y35925000I-700000J0D01*
G01*
X17210000Y33925000D02*
G75*
G03*
X17910000Y34625000I0J700000D01*
G01*
G04 #@! TO.C,JP2*
X15110000Y30815000D02*
X15110000Y31415000D01*
X15810000Y32115000D02*
X17210000Y32115000D01*
X17210000Y30115000D02*
X15810000Y30115000D01*
X17910000Y31415000D02*
X17910000Y30815000D01*
X15810000Y32115000D02*
G75*
G03*
X15110000Y31415000I-1J-699999D01*
G01*
X15110000Y30815000D02*
G75*
G03*
X15810000Y30115000I699999J-1D01*
G01*
X17910000Y31415000D02*
G75*
G03*
X17210000Y32115000I-700000J0D01*
G01*
X17210000Y30115000D02*
G75*
G03*
X17910000Y30815000I0J700000D01*
G01*
G04 #@! TO.C,JP11*
X37970000Y30815000D02*
X37970000Y31415000D01*
X38670000Y32115000D02*
X40070000Y32115000D01*
X40070000Y30115000D02*
X38670000Y30115000D01*
X40770000Y31415000D02*
X40770000Y30815000D01*
X38670000Y32115000D02*
G75*
G03*
X37970000Y31415000I-1J-699999D01*
G01*
X37970000Y30815000D02*
G75*
G03*
X38670000Y30115000I699999J-1D01*
G01*
X40770000Y31415000D02*
G75*
G03*
X40070000Y32115000I-700000J0D01*
G01*
X40070000Y30115000D02*
G75*
G03*
X40770000Y30815000I0J700000D01*
G01*
G04 #@! TO.C,JP7*
X30350000Y34625000D02*
X30350000Y35225000D01*
X31050000Y35925000D02*
X32450000Y35925000D01*
X32450000Y33925000D02*
X31050000Y33925000D01*
X33150000Y35225000D02*
X33150000Y34625000D01*
X31050000Y35925000D02*
G75*
G03*
X30350000Y35225000I-1J-699999D01*
G01*
X30350000Y34625000D02*
G75*
G03*
X31050000Y33925000I699999J-1D01*
G01*
X33150000Y35225000D02*
G75*
G03*
X32450000Y35925000I-700000J0D01*
G01*
X32450000Y33925000D02*
G75*
G03*
X33150000Y34625000I0J700000D01*
G01*
G04 #@! TO.C,JP5*
X22730000Y30815000D02*
X22730000Y31415000D01*
X23430000Y32115000D02*
X24830000Y32115000D01*
X24830000Y30115000D02*
X23430000Y30115000D01*
X25530000Y31415000D02*
X25530000Y30815000D01*
X23430000Y32115000D02*
G75*
G03*
X22730000Y31415000I-1J-699999D01*
G01*
X22730000Y30815000D02*
G75*
G03*
X23430000Y30115000I699999J-1D01*
G01*
X25530000Y31415000D02*
G75*
G03*
X24830000Y32115000I-700000J0D01*
G01*
X24830000Y30115000D02*
G75*
G03*
X25530000Y30815000I0J700000D01*
G01*
G04 #@! TO.C,JP6*
X22730000Y27005000D02*
X22730000Y27605000D01*
X23430000Y28305000D02*
X24830000Y28305000D01*
X24830000Y26305000D02*
X23430000Y26305000D01*
X25530000Y27605000D02*
X25530000Y27005000D01*
X23430000Y28305000D02*
G75*
G03*
X22730000Y27605000I-1J-699999D01*
G01*
X22730000Y27005000D02*
G75*
G03*
X23430000Y26305000I699999J-1D01*
G01*
X25530000Y27605000D02*
G75*
G03*
X24830000Y28305000I-700000J0D01*
G01*
X24830000Y26305000D02*
G75*
G03*
X25530000Y27005000I0J700000D01*
G01*
G04 #@! TO.C,JP3*
X15110000Y27005000D02*
X15110000Y27605000D01*
X15810000Y28305000D02*
X17210000Y28305000D01*
X17210000Y26305000D02*
X15810000Y26305000D01*
X17910000Y27605000D02*
X17910000Y27005000D01*
X15810000Y28305000D02*
G75*
G03*
X15110000Y27605000I-1J-699999D01*
G01*
X15110000Y27005000D02*
G75*
G03*
X15810000Y26305000I699999J-1D01*
G01*
X17910000Y27605000D02*
G75*
G03*
X17210000Y28305000I-700000J0D01*
G01*
X17210000Y26305000D02*
G75*
G03*
X17910000Y27005000I0J700000D01*
G01*
G04 #@! TO.C,JP8*
X30335000Y30815000D02*
X30335000Y31415000D01*
X31035000Y32115000D02*
X32435000Y32115000D01*
X32435000Y30115000D02*
X31035000Y30115000D01*
X33135000Y31415000D02*
X33135000Y30815000D01*
X31035000Y32115000D02*
G75*
G03*
X30335000Y31415000I-1J-699999D01*
G01*
X30335000Y30815000D02*
G75*
G03*
X31035000Y30115000I699999J-1D01*
G01*
X33135000Y31415000D02*
G75*
G03*
X32435000Y32115000I-700000J0D01*
G01*
X32435000Y30115000D02*
G75*
G03*
X33135000Y30815000I0J700000D01*
G01*
G04 #@! TO.C,JP9*
X30335000Y27005000D02*
X30335000Y27605000D01*
X31035000Y28305000D02*
X32435000Y28305000D01*
X32435000Y26305000D02*
X31035000Y26305000D01*
X33135000Y27605000D02*
X33135000Y27005000D01*
X31035000Y28305000D02*
G75*
G03*
X30335000Y27605000I-1J-699999D01*
G01*
X30335000Y27005000D02*
G75*
G03*
X31035000Y26305000I699999J-1D01*
G01*
X33135000Y27605000D02*
G75*
G03*
X32435000Y28305000I-700000J0D01*
G01*
X32435000Y26305000D02*
G75*
G03*
X33135000Y27005000I0J700000D01*
G01*
G04 #@! TO.C,JP4*
X22730000Y34625000D02*
X22730000Y35225000D01*
X23430000Y35925000D02*
X24830000Y35925000D01*
X24830000Y33925000D02*
X23430000Y33925000D01*
X25530000Y35225000D02*
X25530000Y34625000D01*
X23430000Y35925000D02*
G75*
G03*
X22730000Y35225000I-1J-699999D01*
G01*
X22730000Y34625000D02*
G75*
G03*
X23430000Y33925000I699999J-1D01*
G01*
X25530000Y35225000D02*
G75*
G03*
X24830000Y35925000I-700000J0D01*
G01*
X24830000Y33925000D02*
G75*
G03*
X25530000Y34625000I0J700000D01*
G01*
G04 #@! TO.C,JP12*
X37970000Y27005000D02*
X37970000Y27605000D01*
X38670000Y28305000D02*
X40070000Y28305000D01*
X40070000Y26305000D02*
X38670000Y26305000D01*
X40770000Y27605000D02*
X40770000Y27005000D01*
X38670000Y28305000D02*
G75*
G03*
X37970000Y27605000I-1J-699999D01*
G01*
X37970000Y27005000D02*
G75*
G03*
X38670000Y26305000I699999J-1D01*
G01*
X40770000Y27605000D02*
G75*
G03*
X40070000Y28305000I-700000J0D01*
G01*
X40070000Y26305000D02*
G75*
G03*
X40770000Y27005000I0J700000D01*
G01*
G04 #@! TD*
M02*
