M48
; DRILL file {KiCad 6.0.7+dfsg-1+b1} date Sun 11 Sep 2022 09:12:05 +08
; FORMAT={-:-/ absolute / metric / decimal}
; #@! TF.CreationDate,2022-09-11T09:12:05+08:00
; #@! TF.GenerationSoftware,Kicad,Pcbnew,6.0.7+dfsg-1+b1
; #@! TF.FileFunction,Plated,1,2,PTH
FMAT,2
METRIC
; #@! TA.AperFunction,Plated,PTH,ViaDrill
T1C0.350
; #@! TA.AperFunction,Plated,PTH,ComponentDrill
T2C1.000
%
G90
G05
T1
X14.605Y34.925
X14.605Y31.115
X14.605Y27.305
X22.225Y34.925
X22.225Y31.115
X22.225Y27.305
X29.845Y34.925
X29.845Y31.115
X29.845Y27.305
X32.385Y13.335
X37.465Y34.925
X37.465Y31.115
X37.465Y27.305
X40.005Y14.605
X51.316Y26.154
X52.07Y24.13
X55.245Y30.48
X55.245Y29.21
T2
X15.875Y47.625
X15.875Y45.085
X15.875Y9.525
X15.875Y6.985
X18.415Y47.625
X18.415Y45.085
X18.415Y9.525
X18.415Y6.985
X20.955Y47.625
X20.955Y45.085
X20.955Y9.525
X20.955Y6.985
X23.495Y47.625
X23.495Y45.085
X23.495Y9.525
X23.495Y6.985
X26.035Y47.625
X26.035Y45.085
X26.035Y9.525
X26.035Y6.985
X28.575Y47.625
X28.575Y45.085
X28.575Y9.525
X28.575Y6.985
X31.115Y47.625
X31.115Y45.085
X31.115Y9.525
X31.115Y6.985
X33.655Y47.625
X33.655Y45.085
X33.655Y9.525
X33.655Y6.985
X36.195Y47.625
X36.195Y45.085
X36.195Y9.525
X36.195Y6.985
X38.735Y47.625
X38.735Y45.085
X38.735Y9.525
X38.735Y6.985
X41.275Y47.625
X41.275Y45.085
X41.275Y9.525
X41.275Y6.985
X43.815Y47.625
X43.815Y45.085
X43.815Y9.525
X43.815Y6.985
X46.355Y47.625
X46.355Y45.085
X46.355Y9.525
X46.355Y6.985
X48.895Y47.625
X48.895Y45.085
X48.895Y9.525
X48.895Y6.985
X51.435Y47.625
X51.435Y45.085
X51.435Y9.525
X51.435Y6.985
X53.975Y47.625
X53.975Y45.085
X53.975Y9.525
X53.975Y6.985
X56.515Y47.625
X56.515Y45.085
X56.515Y9.525
X56.515Y6.985
X59.055Y47.625
X59.055Y45.085
X59.055Y9.525
X59.055Y6.985
X61.595Y47.625
X61.595Y45.085
X61.595Y9.525
X61.595Y6.985
X64.135Y47.625
X64.135Y45.085
X64.135Y9.525
X64.135Y6.985
T0
M30
