G04 #@! TF.GenerationSoftware,KiCad,Pcbnew,7.0.5+dfsg-2*
G04 #@! TF.CreationDate,2023-07-13T13:02:35+08:00*
G04 #@! TF.ProjectId,memw25q128,6d656d77-3235-4713-9132-382e6b696361,a*
G04 #@! TF.SameCoordinates,PX65bcec0PY76b1be0*
G04 #@! TF.FileFunction,Copper,L2,Bot*
G04 #@! TF.FilePolarity,Positive*
%FSLAX46Y46*%
G04 Gerber Fmt 4.6, Leading zero omitted, Abs format (unit mm)*
G04 Created by KiCad (PCBNEW 7.0.5+dfsg-2) date 2023-07-13 13:02:35*
%MOMM*%
%LPD*%
G01*
G04 APERTURE LIST*
G04 #@! TA.AperFunction,ComponentPad*
%ADD10R,1.700000X1.700000*%
G04 #@! TD*
G04 #@! TA.AperFunction,ComponentPad*
%ADD11C,1.700000*%
G04 #@! TD*
G04 #@! TA.AperFunction,ViaPad*
%ADD12C,0.700000*%
G04 #@! TD*
G04 #@! TA.AperFunction,Conductor*
%ADD13C,0.228600*%
G04 #@! TD*
G04 APERTURE END LIST*
D10*
G04 #@! TO.P,J1,1,VA*
G04 #@! TO.N,unconnected-(J1-VA-Pad1)*
X15875000Y6985000D03*
D11*
G04 #@! TO.P,J1,2,GND*
G04 #@! TO.N,GND*
X15875000Y9525000D03*
G04 #@! TO.P,J1,3,BO0*
G04 #@! TO.N,unconnected-(J1-BO0-Pad3)*
X18415000Y6985000D03*
G04 #@! TO.P,J1,4,NRST*
G04 #@! TO.N,unconnected-(J1-NRST-Pad4)*
X18415000Y9525000D03*
G04 #@! TO.P,J1,5,PC0*
G04 #@! TO.N,unconnected-(J1-PC0-Pad5)*
X20955000Y6985000D03*
G04 #@! TO.P,J1,6,PC1*
G04 #@! TO.N,unconnected-(J1-PC1-Pad6)*
X20955000Y9525000D03*
G04 #@! TO.P,J1,7,PC2*
G04 #@! TO.N,unconnected-(J1-PC2-Pad7)*
X23495000Y6985000D03*
G04 #@! TO.P,J1,8,PC3*
G04 #@! TO.N,unconnected-(J1-PC3-Pad8)*
X23495000Y9525000D03*
G04 #@! TO.P,J1,9,PA0*
G04 #@! TO.N,unconnected-(J1-PA0-Pad9)*
X26035000Y6985000D03*
G04 #@! TO.P,J1,10,PA1*
G04 #@! TO.N,unconnected-(J1-PA1-Pad10)*
X26035000Y9525000D03*
G04 #@! TO.P,J1,11,PA2*
G04 #@! TO.N,unconnected-(J1-PA2-Pad11)*
X28575000Y6985000D03*
G04 #@! TO.P,J1,12,PA3*
G04 #@! TO.N,unconnected-(J1-PA3-Pad12)*
X28575000Y9525000D03*
G04 #@! TO.P,J1,13,PA4*
G04 #@! TO.N,PA4*
X31115000Y6985000D03*
G04 #@! TO.P,J1,14,PA5*
G04 #@! TO.N,PA5*
X31115000Y9525000D03*
G04 #@! TO.P,J1,15,PA6*
G04 #@! TO.N,PA6*
X33655000Y6985000D03*
G04 #@! TO.P,J1,16,PA7*
G04 #@! TO.N,PA7*
X33655000Y9525000D03*
G04 #@! TO.P,J1,17,PC4*
G04 #@! TO.N,unconnected-(J1-PC4-Pad17)*
X36195000Y6985000D03*
G04 #@! TO.P,J1,18,PC5*
G04 #@! TO.N,unconnected-(J1-PC5-Pad18)*
X36195000Y9525000D03*
G04 #@! TO.P,J1,19,PB0*
G04 #@! TO.N,unconnected-(J1-PB0-Pad19)*
X38735000Y6985000D03*
G04 #@! TO.P,J1,20,PB1*
G04 #@! TO.N,unconnected-(J1-PB1-Pad20)*
X38735000Y9525000D03*
G04 #@! TO.P,J1,21,PB2*
G04 #@! TO.N,unconnected-(J1-PB2-Pad21)*
X41275000Y6985000D03*
G04 #@! TO.P,J1,22,U0*
G04 #@! TO.N,unconnected-(J1-U0-Pad22)*
X41275000Y9525000D03*
G04 #@! TO.P,J1,23,PB10*
G04 #@! TO.N,unconnected-(J1-PB10-Pad23)*
X43815000Y6985000D03*
G04 #@! TO.P,J1,24,PB11*
G04 #@! TO.N,unconnected-(J1-PB11-Pad24)*
X43815000Y9525000D03*
G04 #@! TO.P,J1,25,PB12*
G04 #@! TO.N,PB12*
X46355000Y6985000D03*
G04 #@! TO.P,J1,26,PB13*
G04 #@! TO.N,PB13*
X46355000Y9525000D03*
G04 #@! TO.P,J1,27,PB14*
G04 #@! TO.N,PB14*
X48895000Y6985000D03*
G04 #@! TO.P,J1,28,PB15*
G04 #@! TO.N,PB15*
X48895000Y9525000D03*
G04 #@! TO.P,J1,29,PC6*
G04 #@! TO.N,unconnected-(J1-PC6-Pad29)*
X51435000Y6985000D03*
G04 #@! TO.P,J1,30,PC7*
G04 #@! TO.N,unconnected-(J1-PC7-Pad30)*
X51435000Y9525000D03*
G04 #@! TO.P,J1,31,PC8*
G04 #@! TO.N,unconnected-(J1-PC8-Pad31)*
X53975000Y6985000D03*
G04 #@! TO.P,J1,32,PC9*
G04 #@! TO.N,unconnected-(J1-PC9-Pad32)*
X53975000Y9525000D03*
G04 #@! TO.P,J1,33,U1*
G04 #@! TO.N,unconnected-(J1-U1-Pad33)*
X56515000Y6985000D03*
G04 #@! TO.P,J1,34,U2*
G04 #@! TO.N,unconnected-(J1-U2-Pad34)*
X56515000Y9525000D03*
G04 #@! TO.P,J1,35,U3*
G04 #@! TO.N,unconnected-(J1-U3-Pad35)*
X59055000Y6985000D03*
G04 #@! TO.P,J1,36,U4*
G04 #@! TO.N,unconnected-(J1-U4-Pad36)*
X59055000Y9525000D03*
G04 #@! TO.P,J1,37,3.3V*
G04 #@! TO.N,+3V3*
X61595000Y6985000D03*
G04 #@! TO.P,J1,38,GND*
G04 #@! TO.N,GND*
X61595000Y9525000D03*
G04 #@! TO.P,J1,39,5V*
G04 #@! TO.N,unconnected-(J1-5V-Pad39)*
X64135000Y6985000D03*
G04 #@! TO.P,J1,40,GND*
G04 #@! TO.N,GND*
X64135000Y9525000D03*
D10*
G04 #@! TO.P,J1,41,5V*
G04 #@! TO.N,unconnected-(J1-5V-Pad41)*
X64135000Y47625000D03*
D11*
G04 #@! TO.P,J1,42,GND*
G04 #@! TO.N,GND*
X64135000Y45085000D03*
G04 #@! TO.P,J1,43,3.3V*
G04 #@! TO.N,+3V3*
X61595000Y47625000D03*
G04 #@! TO.P,J1,44,GND*
G04 #@! TO.N,GND*
X61595000Y45085000D03*
G04 #@! TO.P,J1,45,U15*
G04 #@! TO.N,unconnected-(J1-U15-Pad45)*
X59055000Y47625000D03*
G04 #@! TO.P,J1,46,U16*
G04 #@! TO.N,unconnected-(J1-U16-Pad46)*
X59055000Y45085000D03*
G04 #@! TO.P,J1,47,U13*
G04 #@! TO.N,unconnected-(J1-U13-Pad47)*
X56515000Y47625000D03*
G04 #@! TO.P,J1,48,U14*
G04 #@! TO.N,unconnected-(J1-U14-Pad48)*
X56515000Y45085000D03*
G04 #@! TO.P,J1,49,PA8*
G04 #@! TO.N,unconnected-(J1-PA8-Pad49)*
X53975000Y47625000D03*
G04 #@! TO.P,J1,50,PA9*
G04 #@! TO.N,unconnected-(J1-PA9-Pad50)*
X53975000Y45085000D03*
G04 #@! TO.P,J1,51,PA10*
G04 #@! TO.N,unconnected-(J1-PA10-Pad51)*
X51435000Y47625000D03*
G04 #@! TO.P,J1,52,PA11*
G04 #@! TO.N,unconnected-(J1-PA11-Pad52)*
X51435000Y45085000D03*
G04 #@! TO.P,J1,53,PA12*
G04 #@! TO.N,unconnected-(J1-PA12-Pad53)*
X48895000Y47625000D03*
G04 #@! TO.P,J1,54,PA13*
G04 #@! TO.N,unconnected-(J1-PA13-Pad54)*
X48895000Y45085000D03*
G04 #@! TO.P,J1,55,PA14*
G04 #@! TO.N,unconnected-(J1-PA14-Pad55)*
X46355000Y47625000D03*
G04 #@! TO.P,J1,56,PA15*
G04 #@! TO.N,PA15*
X46355000Y45085000D03*
G04 #@! TO.P,J1,57,U11*
G04 #@! TO.N,unconnected-(J1-U11-Pad57)*
X43815000Y47625000D03*
G04 #@! TO.P,J1,58,U12*
G04 #@! TO.N,unconnected-(J1-U12-Pad58)*
X43815000Y45085000D03*
G04 #@! TO.P,J1,59,PC10*
G04 #@! TO.N,unconnected-(J1-PC10-Pad59)*
X41275000Y47625000D03*
G04 #@! TO.P,J1,60,PC11*
G04 #@! TO.N,unconnected-(J1-PC11-Pad60)*
X41275000Y45085000D03*
G04 #@! TO.P,J1,61,PC12*
G04 #@! TO.N,unconnected-(J1-PC12-Pad61)*
X38735000Y47625000D03*
G04 #@! TO.P,J1,62,U8*
G04 #@! TO.N,unconnected-(J1-U8-Pad62)*
X38735000Y45085000D03*
G04 #@! TO.P,J1,63,PD2*
G04 #@! TO.N,unconnected-(J1-PD2-Pad63)*
X36195000Y47625000D03*
G04 #@! TO.P,J1,64,PB3*
G04 #@! TO.N,PB3*
X36195000Y45085000D03*
G04 #@! TO.P,J1,65,PB4*
G04 #@! TO.N,PB4*
X33655000Y47625000D03*
G04 #@! TO.P,J1,66,PB5*
G04 #@! TO.N,PB5*
X33655000Y45085000D03*
G04 #@! TO.P,J1,67,PB6*
G04 #@! TO.N,unconnected-(J1-PB6-Pad67)*
X31115000Y47625000D03*
G04 #@! TO.P,J1,68,PB7*
G04 #@! TO.N,unconnected-(J1-PB7-Pad68)*
X31115000Y45085000D03*
G04 #@! TO.P,J1,69,PB8*
G04 #@! TO.N,unconnected-(J1-PB8-Pad69)*
X28575000Y47625000D03*
G04 #@! TO.P,J1,70,PB9*
G04 #@! TO.N,unconnected-(J1-PB9-Pad70)*
X28575000Y45085000D03*
G04 #@! TO.P,J1,71,U9*
G04 #@! TO.N,unconnected-(J1-U9-Pad71)*
X26035000Y47625000D03*
G04 #@! TO.P,J1,72,U10*
G04 #@! TO.N,unconnected-(J1-U10-Pad72)*
X26035000Y45085000D03*
G04 #@! TO.P,J1,73,PC14*
G04 #@! TO.N,unconnected-(J1-PC14-Pad73)*
X23495000Y47625000D03*
G04 #@! TO.P,J1,74,PC13*
G04 #@! TO.N,unconnected-(J1-PC13-Pad74)*
X23495000Y45085000D03*
G04 #@! TO.P,J1,75,U7*
G04 #@! TO.N,unconnected-(J1-U7-Pad75)*
X20955000Y47625000D03*
G04 #@! TO.P,J1,76,PC15*
G04 #@! TO.N,unconnected-(J1-PC15-Pad76)*
X20955000Y45085000D03*
G04 #@! TO.P,J1,77,U5*
G04 #@! TO.N,unconnected-(J1-U5-Pad77)*
X18415000Y47625000D03*
G04 #@! TO.P,J1,78,U6*
G04 #@! TO.N,unconnected-(J1-U6-Pad78)*
X18415000Y45085000D03*
G04 #@! TO.P,J1,79,VB*
G04 #@! TO.N,unconnected-(J1-VB-Pad79)*
X15875000Y47625000D03*
G04 #@! TO.P,J1,80,GND*
G04 #@! TO.N,unconnected-(J1-GND-Pad80)*
X15875000Y45085000D03*
G04 #@! TD*
D12*
G04 #@! TO.N,GND*
X70485000Y30480000D03*
X70485000Y45085000D03*
X61595000Y21590000D03*
X38100000Y39370000D03*
X70485000Y5715000D03*
X10160000Y5715000D03*
X59690000Y21590000D03*
X57785000Y21590000D03*
X70485000Y48895000D03*
X66040000Y13970000D03*
X66040000Y12065000D03*
X10160000Y48895000D03*
X8890000Y48895000D03*
X70485000Y26670000D03*
X61595000Y34925000D03*
X43180000Y39370000D03*
X57785000Y34925000D03*
X70485000Y28575000D03*
X70485000Y9525000D03*
X59690000Y34925000D03*
X8890000Y5715000D03*
G04 #@! TO.N,PB14*
X32385000Y13335000D03*
G04 #@! TO.N,PB15*
X40005000Y14605000D03*
G04 #@! TO.N,CS*
X14605000Y27305000D03*
X14605000Y34925000D03*
X14605000Y31115000D03*
X55245000Y30480000D03*
G04 #@! TO.N,CLK*
X22225000Y31115000D03*
X22225000Y27305000D03*
X52070000Y24130000D03*
X22225000Y34925000D03*
G04 #@! TO.N,DO(IO1)*
X29845000Y31115000D03*
X29845000Y27305000D03*
X29845000Y34925000D03*
X55245000Y29210000D03*
G04 #@! TO.N,DI(IO0)*
X37465000Y27305000D03*
X37465000Y31115000D03*
X51316425Y26153585D03*
X37465000Y34925000D03*
G04 #@! TD*
D13*
G04 #@! TO.N,PB14*
X47778299Y8101701D02*
X48895000Y6985000D01*
X44197718Y13335000D02*
X47778299Y9754419D01*
X32385000Y13335000D02*
X44197718Y13335000D01*
X47778299Y9754419D02*
X47778299Y8101701D01*
G04 #@! TO.N,PB15*
X48895000Y9525000D02*
X48895000Y11430000D01*
X45720000Y14605000D02*
X40005000Y14605000D01*
X48895000Y11430000D02*
X45720000Y14605000D01*
G04 #@! TO.N,CS*
X53340000Y22225000D02*
X19685000Y22225000D01*
X14605000Y31115000D02*
X14605000Y27305000D01*
X57190000Y29880000D02*
X57190000Y26075000D01*
X57190000Y26075000D02*
X53340000Y22225000D01*
X56590000Y30480000D02*
X57190000Y29880000D01*
X19685000Y22225000D02*
X14605000Y27305000D01*
X14605000Y34925000D02*
X14605000Y31115000D01*
X55245000Y30480000D02*
X56590000Y30480000D01*
G04 #@! TO.N,CLK*
X22225000Y31115000D02*
X22225000Y27305000D01*
X22225000Y25400000D02*
X22225000Y27305000D01*
X24130000Y23495000D02*
X22225000Y25400000D01*
X51435000Y23495000D02*
X24130000Y23495000D01*
X52070000Y24130000D02*
X51435000Y23495000D01*
X22225000Y34925000D02*
X22225000Y31115000D01*
G04 #@! TO.N,DO(IO1)*
X31731701Y24783299D02*
X50818299Y24783299D01*
X29845000Y31115000D02*
X29845000Y27305000D01*
X50818299Y24783299D02*
X55245000Y29210000D01*
X29845000Y27305000D02*
X29845000Y26670000D01*
X29845000Y26670000D02*
X31731701Y24783299D01*
X29845000Y34925000D02*
X29845000Y31115000D01*
G04 #@! TO.N,DI(IO0)*
X51316425Y26153585D02*
X38616415Y26153585D01*
X37465000Y34925000D02*
X37465000Y27305000D01*
X38616415Y26153585D02*
X37465000Y27305000D01*
G04 #@! TD*
G04 #@! TA.AperFunction,Conductor*
G04 #@! TO.N,GND*
G36*
X75566131Y52679431D02*
G01*
X75697775Y52671469D01*
X75865832Y52661303D01*
X75870317Y52660758D01*
X76164538Y52606840D01*
X76168918Y52605761D01*
X76454482Y52516775D01*
X76458728Y52515164D01*
X76731468Y52392414D01*
X76735492Y52390302D01*
X76991454Y52235568D01*
X76995183Y52232995D01*
X77230638Y52048528D01*
X77234025Y52045527D01*
X77445525Y51834027D01*
X77448528Y51830637D01*
X77632992Y51595187D01*
X77635567Y51591455D01*
X77790301Y51335493D01*
X77792413Y51331469D01*
X77915163Y51058729D01*
X77916775Y51054480D01*
X78005756Y50768932D01*
X78006842Y50764528D01*
X78041572Y50575013D01*
X78060755Y50470332D01*
X78061303Y50465821D01*
X78079431Y50166131D01*
X78079500Y50163860D01*
X78079500Y4446141D01*
X78079431Y4443870D01*
X78061303Y4144180D01*
X78060755Y4139669D01*
X78013046Y3879323D01*
X78006844Y3845482D01*
X78005756Y3841069D01*
X77916775Y3555521D01*
X77915163Y3551272D01*
X77792413Y3278532D01*
X77790301Y3274508D01*
X77635567Y3018546D01*
X77632986Y3014805D01*
X77448532Y2779368D01*
X77445518Y2775966D01*
X77234034Y2564482D01*
X77230632Y2561468D01*
X76995195Y2377014D01*
X76991454Y2374433D01*
X76735492Y2219699D01*
X76731468Y2217587D01*
X76458728Y2094837D01*
X76454479Y2093225D01*
X76168931Y2004244D01*
X76164523Y2003158D01*
X75959379Y1965564D01*
X75870331Y1949245D01*
X75865820Y1948697D01*
X75566131Y1930569D01*
X75563860Y1930500D01*
X4446140Y1930500D01*
X4443869Y1930569D01*
X4144179Y1948697D01*
X4139668Y1949245D01*
X3845472Y2003158D01*
X3841068Y2004244D01*
X3555520Y2093225D01*
X3551271Y2094837D01*
X3278531Y2217587D01*
X3274507Y2219699D01*
X3018545Y2374433D01*
X3014813Y2377008D01*
X2779363Y2561472D01*
X2775973Y2564475D01*
X2564473Y2775975D01*
X2561472Y2779362D01*
X2377005Y3014817D01*
X2374432Y3018546D01*
X2219698Y3274508D01*
X2217586Y3278532D01*
X2094836Y3551272D01*
X2093224Y3555521D01*
X2004239Y3841082D01*
X2003160Y3845462D01*
X1949242Y4139683D01*
X1948697Y4144168D01*
X1937268Y4333120D01*
X1930569Y4443870D01*
X1930500Y4446141D01*
X1930500Y5647235D01*
X3860788Y5647235D01*
X3890414Y5377978D01*
X3958926Y5115916D01*
X3958928Y5115911D01*
X4064869Y4866612D01*
X4064871Y4866608D01*
X4205983Y4635388D01*
X4205984Y4635387D01*
X4379251Y4427184D01*
X4379255Y4427180D01*
X4580998Y4246418D01*
X4806910Y4096956D01*
X5052176Y3981980D01*
X5311569Y3903940D01*
X5579561Y3864500D01*
X5579565Y3864500D01*
X5782639Y3864500D01*
X5782641Y3864501D01*
X5856251Y3869889D01*
X5985147Y3879322D01*
X5985149Y3879323D01*
X5985156Y3879323D01*
X6249553Y3938220D01*
X6502558Y4034986D01*
X6738777Y4167559D01*
X6953177Y4333112D01*
X7141186Y4528119D01*
X7298799Y4748421D01*
X7422656Y4989325D01*
X7432093Y5016989D01*
X7510116Y5245688D01*
X7510116Y5245691D01*
X7510118Y5245695D01*
X7559319Y5512067D01*
X7564259Y5647235D01*
X72440788Y5647235D01*
X72470414Y5377978D01*
X72538926Y5115916D01*
X72538928Y5115911D01*
X72644869Y4866612D01*
X72644871Y4866608D01*
X72785983Y4635388D01*
X72785984Y4635387D01*
X72959251Y4427184D01*
X72959255Y4427180D01*
X73160998Y4246418D01*
X73386910Y4096956D01*
X73632176Y3981980D01*
X73891569Y3903940D01*
X74159561Y3864500D01*
X74159565Y3864500D01*
X74362639Y3864500D01*
X74362641Y3864501D01*
X74436251Y3869889D01*
X74565147Y3879322D01*
X74565149Y3879323D01*
X74565156Y3879323D01*
X74829553Y3938220D01*
X75082558Y4034986D01*
X75318777Y4167559D01*
X75533177Y4333112D01*
X75721186Y4528119D01*
X75878799Y4748421D01*
X76002656Y4989325D01*
X76012093Y5016989D01*
X76090116Y5245688D01*
X76090116Y5245691D01*
X76090118Y5245695D01*
X76139319Y5512067D01*
X76149212Y5782765D01*
X76119586Y6052018D01*
X76119079Y6053956D01*
X76051073Y6314085D01*
X76051071Y6314090D01*
X75945130Y6563390D01*
X75804018Y6794610D01*
X75645575Y6985000D01*
X75630748Y7002817D01*
X75630744Y7002821D01*
X75525766Y7096881D01*
X75429002Y7183582D01*
X75278394Y7283224D01*
X75203089Y7333045D01*
X74957822Y7448021D01*
X74810051Y7492479D01*
X74698431Y7526060D01*
X74531147Y7550679D01*
X74430440Y7565500D01*
X74430439Y7565500D01*
X74227369Y7565500D01*
X74227357Y7565500D01*
X74024852Y7550679D01*
X73760442Y7491779D01*
X73507439Y7395013D01*
X73271226Y7262444D01*
X73056827Y7096892D01*
X73056815Y7096881D01*
X72868818Y6901886D01*
X72868810Y6901876D01*
X72711201Y6681580D01*
X72711200Y6681578D01*
X72587341Y6440670D01*
X72499883Y6184313D01*
X72499881Y6184303D01*
X72450681Y5917936D01*
X72440788Y5647239D01*
X72440788Y5647235D01*
X7564259Y5647235D01*
X7569212Y5782765D01*
X7539586Y6052018D01*
X7539079Y6053956D01*
X7521827Y6119945D01*
X14872100Y6119945D01*
X14872101Y6119943D01*
X14880972Y6075341D01*
X14914764Y6024768D01*
X14914765Y6024768D01*
X14914766Y6024766D01*
X14965342Y5990972D01*
X15009943Y5982100D01*
X16740056Y5982101D01*
X16784658Y5990972D01*
X16835234Y6024766D01*
X16869028Y6075342D01*
X16877900Y6119943D01*
X16877899Y6985000D01*
X17407247Y6985000D01*
X17426610Y6788401D01*
X17426610Y6788399D01*
X17483955Y6599357D01*
X17483956Y6599353D01*
X17483958Y6599350D01*
X17568773Y6440670D01*
X17577086Y6425119D01*
X17577089Y6425115D01*
X17702410Y6272411D01*
X17855114Y6147090D01*
X17855118Y6147087D01*
X17855122Y6147084D01*
X17989343Y6075342D01*
X18029352Y6053957D01*
X18029356Y6053956D01*
X18035745Y6052018D01*
X18218397Y5996611D01*
X18415000Y5977247D01*
X18611603Y5996611D01*
X18800650Y6053958D01*
X18974878Y6147084D01*
X19127589Y6272411D01*
X19252916Y6425122D01*
X19346042Y6599350D01*
X19403389Y6788397D01*
X19422753Y6985000D01*
X19422753Y6985001D01*
X19947247Y6985001D01*
X19966610Y6788401D01*
X19966610Y6788399D01*
X20023955Y6599357D01*
X20023956Y6599353D01*
X20023958Y6599350D01*
X20108773Y6440670D01*
X20117086Y6425119D01*
X20117089Y6425115D01*
X20242410Y6272411D01*
X20395114Y6147090D01*
X20395118Y6147087D01*
X20395122Y6147084D01*
X20529343Y6075342D01*
X20569352Y6053957D01*
X20569356Y6053956D01*
X20575745Y6052018D01*
X20758397Y5996611D01*
X20955000Y5977247D01*
X21151603Y5996611D01*
X21340650Y6053958D01*
X21514878Y6147084D01*
X21667589Y6272411D01*
X21792916Y6425122D01*
X21886042Y6599350D01*
X21943389Y6788397D01*
X21962753Y6985000D01*
X21962753Y6985001D01*
X22487247Y6985001D01*
X22506610Y6788401D01*
X22506610Y6788399D01*
X22563955Y6599357D01*
X22563956Y6599353D01*
X22563958Y6599350D01*
X22648773Y6440670D01*
X22657086Y6425119D01*
X22657089Y6425115D01*
X22782410Y6272411D01*
X22935114Y6147090D01*
X22935118Y6147087D01*
X22935122Y6147084D01*
X23069343Y6075342D01*
X23109352Y6053957D01*
X23109356Y6053956D01*
X23115745Y6052018D01*
X23298397Y5996611D01*
X23495000Y5977247D01*
X23691603Y5996611D01*
X23880650Y6053958D01*
X24054878Y6147084D01*
X24207589Y6272411D01*
X24332916Y6425122D01*
X24426042Y6599350D01*
X24483389Y6788397D01*
X24502753Y6985000D01*
X25027247Y6985000D01*
X25046610Y6788401D01*
X25046610Y6788399D01*
X25103955Y6599357D01*
X25103956Y6599353D01*
X25103958Y6599350D01*
X25188773Y6440670D01*
X25197086Y6425119D01*
X25197089Y6425115D01*
X25322410Y6272411D01*
X25475114Y6147090D01*
X25475118Y6147087D01*
X25475122Y6147084D01*
X25609343Y6075342D01*
X25649352Y6053957D01*
X25649356Y6053956D01*
X25655745Y6052018D01*
X25838397Y5996611D01*
X26035000Y5977247D01*
X26231603Y5996611D01*
X26420650Y6053958D01*
X26594878Y6147084D01*
X26747589Y6272411D01*
X26872916Y6425122D01*
X26966042Y6599350D01*
X27023389Y6788397D01*
X27042753Y6985000D01*
X27567247Y6985000D01*
X27586610Y6788401D01*
X27586610Y6788399D01*
X27643955Y6599357D01*
X27643956Y6599353D01*
X27643958Y6599350D01*
X27728773Y6440670D01*
X27737086Y6425119D01*
X27737089Y6425115D01*
X27862410Y6272411D01*
X28015114Y6147090D01*
X28015118Y6147087D01*
X28015122Y6147084D01*
X28149343Y6075342D01*
X28189352Y6053957D01*
X28189356Y6053956D01*
X28195745Y6052018D01*
X28378397Y5996611D01*
X28575000Y5977247D01*
X28771603Y5996611D01*
X28960650Y6053958D01*
X29134878Y6147084D01*
X29287589Y6272411D01*
X29412916Y6425122D01*
X29506042Y6599350D01*
X29563389Y6788397D01*
X29582753Y6985000D01*
X29582753Y6985001D01*
X30107247Y6985001D01*
X30126610Y6788401D01*
X30126610Y6788399D01*
X30183955Y6599357D01*
X30183956Y6599353D01*
X30183958Y6599350D01*
X30268773Y6440670D01*
X30277086Y6425119D01*
X30277089Y6425115D01*
X30402410Y6272411D01*
X30555114Y6147090D01*
X30555118Y6147087D01*
X30555122Y6147084D01*
X30689343Y6075342D01*
X30729352Y6053957D01*
X30729356Y6053956D01*
X30735745Y6052018D01*
X30918397Y5996611D01*
X31115000Y5977247D01*
X31311603Y5996611D01*
X31500650Y6053958D01*
X31674878Y6147084D01*
X31827589Y6272411D01*
X31952916Y6425122D01*
X32046042Y6599350D01*
X32103389Y6788397D01*
X32122753Y6985000D01*
X32647247Y6985000D01*
X32666610Y6788401D01*
X32666610Y6788399D01*
X32723955Y6599357D01*
X32723956Y6599353D01*
X32723958Y6599350D01*
X32808773Y6440670D01*
X32817086Y6425119D01*
X32817089Y6425115D01*
X32942410Y6272411D01*
X33095114Y6147090D01*
X33095118Y6147087D01*
X33095122Y6147084D01*
X33229343Y6075342D01*
X33269352Y6053957D01*
X33269356Y6053956D01*
X33275745Y6052018D01*
X33458397Y5996611D01*
X33655000Y5977247D01*
X33851603Y5996611D01*
X34040650Y6053958D01*
X34214878Y6147084D01*
X34367589Y6272411D01*
X34492916Y6425122D01*
X34586042Y6599350D01*
X34643389Y6788397D01*
X34662753Y6985000D01*
X35187247Y6985000D01*
X35206610Y6788401D01*
X35206610Y6788399D01*
X35263955Y6599357D01*
X35263956Y6599353D01*
X35263958Y6599350D01*
X35348773Y6440670D01*
X35357086Y6425119D01*
X35357089Y6425115D01*
X35482410Y6272411D01*
X35635114Y6147090D01*
X35635118Y6147087D01*
X35635122Y6147084D01*
X35769343Y6075342D01*
X35809352Y6053957D01*
X35809356Y6053956D01*
X35815745Y6052018D01*
X35998397Y5996611D01*
X36195000Y5977247D01*
X36391603Y5996611D01*
X36580650Y6053958D01*
X36754878Y6147084D01*
X36907589Y6272411D01*
X37032916Y6425122D01*
X37126042Y6599350D01*
X37183389Y6788397D01*
X37202753Y6985000D01*
X37202753Y6985001D01*
X37727247Y6985001D01*
X37746610Y6788401D01*
X37746610Y6788399D01*
X37803955Y6599357D01*
X37803956Y6599353D01*
X37803958Y6599350D01*
X37888773Y6440670D01*
X37897086Y6425119D01*
X37897089Y6425115D01*
X38022410Y6272411D01*
X38175114Y6147090D01*
X38175118Y6147087D01*
X38175122Y6147084D01*
X38309343Y6075342D01*
X38349352Y6053957D01*
X38349356Y6053956D01*
X38355745Y6052018D01*
X38538397Y5996611D01*
X38735000Y5977247D01*
X38931603Y5996611D01*
X39120650Y6053958D01*
X39294878Y6147084D01*
X39447589Y6272411D01*
X39572916Y6425122D01*
X39666042Y6599350D01*
X39723389Y6788397D01*
X39742753Y6985000D01*
X39742753Y6985001D01*
X40267247Y6985001D01*
X40286610Y6788401D01*
X40286610Y6788399D01*
X40343955Y6599357D01*
X40343956Y6599353D01*
X40343958Y6599350D01*
X40428773Y6440670D01*
X40437086Y6425119D01*
X40437089Y6425115D01*
X40562410Y6272411D01*
X40715114Y6147090D01*
X40715118Y6147087D01*
X40715122Y6147084D01*
X40849343Y6075342D01*
X40889352Y6053957D01*
X40889356Y6053956D01*
X40895745Y6052018D01*
X41078397Y5996611D01*
X41275000Y5977247D01*
X41471603Y5996611D01*
X41660650Y6053958D01*
X41834878Y6147084D01*
X41987589Y6272411D01*
X42112916Y6425122D01*
X42206042Y6599350D01*
X42263389Y6788397D01*
X42282753Y6985000D01*
X42807247Y6985000D01*
X42826610Y6788401D01*
X42826610Y6788399D01*
X42883955Y6599357D01*
X42883956Y6599353D01*
X42883958Y6599350D01*
X42968773Y6440670D01*
X42977086Y6425119D01*
X42977089Y6425115D01*
X43102410Y6272411D01*
X43255114Y6147090D01*
X43255118Y6147087D01*
X43255122Y6147084D01*
X43389343Y6075342D01*
X43429352Y6053957D01*
X43429356Y6053956D01*
X43435745Y6052018D01*
X43618397Y5996611D01*
X43815000Y5977247D01*
X44011603Y5996611D01*
X44200650Y6053958D01*
X44374878Y6147084D01*
X44527589Y6272411D01*
X44652916Y6425122D01*
X44746042Y6599350D01*
X44803389Y6788397D01*
X44822753Y6985000D01*
X45347247Y6985000D01*
X45366610Y6788401D01*
X45366610Y6788399D01*
X45423955Y6599357D01*
X45423956Y6599353D01*
X45423958Y6599350D01*
X45508773Y6440670D01*
X45517086Y6425119D01*
X45517089Y6425115D01*
X45642410Y6272411D01*
X45795114Y6147090D01*
X45795118Y6147087D01*
X45795122Y6147084D01*
X45929343Y6075342D01*
X45969352Y6053957D01*
X45969356Y6053956D01*
X45975745Y6052018D01*
X46158397Y5996611D01*
X46355000Y5977247D01*
X46551603Y5996611D01*
X46740650Y6053958D01*
X46914878Y6147084D01*
X47067589Y6272411D01*
X47192916Y6425122D01*
X47286042Y6599350D01*
X47343389Y6788397D01*
X47362753Y6985000D01*
X47343389Y7181603D01*
X47286042Y7370650D01*
X47192916Y7544878D01*
X47192913Y7544882D01*
X47192910Y7544886D01*
X47067589Y7697590D01*
X46914885Y7822911D01*
X46914881Y7822914D01*
X46914879Y7822915D01*
X46914878Y7822916D01*
X46800629Y7883983D01*
X46740647Y7916044D01*
X46740643Y7916045D01*
X46551600Y7973390D01*
X46379112Y7990379D01*
X46355000Y7992753D01*
X46354999Y7992753D01*
X46158400Y7973390D01*
X46158398Y7973390D01*
X45969356Y7916045D01*
X45969352Y7916044D01*
X45795118Y7822914D01*
X45795114Y7822911D01*
X45642410Y7697590D01*
X45517089Y7544886D01*
X45517086Y7544882D01*
X45423956Y7370648D01*
X45423955Y7370644D01*
X45366610Y7181602D01*
X45366610Y7181600D01*
X45347247Y6985000D01*
X44822753Y6985000D01*
X44803389Y7181603D01*
X44746042Y7370650D01*
X44652916Y7544878D01*
X44652913Y7544882D01*
X44652910Y7544886D01*
X44527589Y7697590D01*
X44374885Y7822911D01*
X44374881Y7822914D01*
X44374879Y7822915D01*
X44374878Y7822916D01*
X44260629Y7883983D01*
X44200647Y7916044D01*
X44200643Y7916045D01*
X44011600Y7973390D01*
X43815000Y7992753D01*
X43618400Y7973390D01*
X43618398Y7973390D01*
X43429356Y7916045D01*
X43429352Y7916044D01*
X43255118Y7822914D01*
X43255114Y7822911D01*
X43102410Y7697590D01*
X42977089Y7544886D01*
X42977086Y7544882D01*
X42883956Y7370648D01*
X42883955Y7370644D01*
X42826610Y7181602D01*
X42826610Y7181600D01*
X42807247Y6985000D01*
X42282753Y6985000D01*
X42263389Y7181603D01*
X42206042Y7370650D01*
X42112916Y7544878D01*
X42112913Y7544882D01*
X42112910Y7544886D01*
X41987589Y7697590D01*
X41834885Y7822911D01*
X41834881Y7822914D01*
X41834879Y7822915D01*
X41834878Y7822916D01*
X41720629Y7883983D01*
X41660647Y7916044D01*
X41660643Y7916045D01*
X41471600Y7973390D01*
X41275000Y7992753D01*
X41078400Y7973390D01*
X41078398Y7973390D01*
X40889356Y7916045D01*
X40889352Y7916044D01*
X40715118Y7822914D01*
X40715114Y7822911D01*
X40562410Y7697590D01*
X40437089Y7544886D01*
X40437086Y7544882D01*
X40343956Y7370648D01*
X40343955Y7370644D01*
X40286610Y7181602D01*
X40286610Y7181600D01*
X40267247Y6985001D01*
X39742753Y6985001D01*
X39723389Y7181603D01*
X39666042Y7370650D01*
X39572916Y7544878D01*
X39572913Y7544882D01*
X39572910Y7544886D01*
X39447589Y7697590D01*
X39294885Y7822911D01*
X39294881Y7822914D01*
X39294879Y7822915D01*
X39294878Y7822916D01*
X39180629Y7883983D01*
X39120647Y7916044D01*
X39120643Y7916045D01*
X38931600Y7973390D01*
X38759112Y7990379D01*
X38735000Y7992753D01*
X38734999Y7992753D01*
X38538400Y7973390D01*
X38538398Y7973390D01*
X38349356Y7916045D01*
X38349352Y7916044D01*
X38175118Y7822914D01*
X38175114Y7822911D01*
X38022410Y7697590D01*
X37897089Y7544886D01*
X37897086Y7544882D01*
X37803956Y7370648D01*
X37803955Y7370644D01*
X37746610Y7181602D01*
X37746610Y7181600D01*
X37727247Y6985001D01*
X37202753Y6985001D01*
X37183389Y7181603D01*
X37126042Y7370650D01*
X37032916Y7544878D01*
X37032913Y7544882D01*
X37032910Y7544886D01*
X36907589Y7697590D01*
X36754885Y7822911D01*
X36754881Y7822914D01*
X36754879Y7822915D01*
X36754878Y7822916D01*
X36640629Y7883983D01*
X36580647Y7916044D01*
X36580643Y7916045D01*
X36391600Y7973390D01*
X36219112Y7990379D01*
X36195000Y7992753D01*
X36194999Y7992753D01*
X35998400Y7973390D01*
X35998398Y7973390D01*
X35809356Y7916045D01*
X35809352Y7916044D01*
X35635118Y7822914D01*
X35635114Y7822911D01*
X35482410Y7697590D01*
X35357089Y7544886D01*
X35357086Y7544882D01*
X35263956Y7370648D01*
X35263955Y7370644D01*
X35206610Y7181602D01*
X35206610Y7181600D01*
X35187247Y6985000D01*
X34662753Y6985000D01*
X34643389Y7181603D01*
X34586042Y7370650D01*
X34492916Y7544878D01*
X34492913Y7544882D01*
X34492910Y7544886D01*
X34367589Y7697590D01*
X34214885Y7822911D01*
X34214881Y7822914D01*
X34214879Y7822915D01*
X34214878Y7822916D01*
X34100629Y7883983D01*
X34040647Y7916044D01*
X34040643Y7916045D01*
X33851600Y7973390D01*
X33655000Y7992753D01*
X33458400Y7973390D01*
X33458398Y7973390D01*
X33269356Y7916045D01*
X33269352Y7916044D01*
X33095118Y7822914D01*
X33095114Y7822911D01*
X32942410Y7697590D01*
X32817089Y7544886D01*
X32817086Y7544882D01*
X32723956Y7370648D01*
X32723955Y7370644D01*
X32666610Y7181602D01*
X32666610Y7181600D01*
X32647247Y6985000D01*
X32122753Y6985000D01*
X32103389Y7181603D01*
X32046042Y7370650D01*
X31952916Y7544878D01*
X31952913Y7544882D01*
X31952910Y7544886D01*
X31827589Y7697590D01*
X31674885Y7822911D01*
X31674881Y7822914D01*
X31674879Y7822915D01*
X31674878Y7822916D01*
X31560629Y7883983D01*
X31500647Y7916044D01*
X31500643Y7916045D01*
X31311600Y7973390D01*
X31115000Y7992753D01*
X30918400Y7973390D01*
X30918398Y7973390D01*
X30729356Y7916045D01*
X30729352Y7916044D01*
X30555118Y7822914D01*
X30555114Y7822911D01*
X30402410Y7697590D01*
X30277089Y7544886D01*
X30277086Y7544882D01*
X30183956Y7370648D01*
X30183955Y7370644D01*
X30126610Y7181602D01*
X30126610Y7181600D01*
X30107247Y6985001D01*
X29582753Y6985001D01*
X29563389Y7181603D01*
X29506042Y7370650D01*
X29412916Y7544878D01*
X29412913Y7544882D01*
X29412910Y7544886D01*
X29287589Y7697590D01*
X29134885Y7822911D01*
X29134881Y7822914D01*
X29134879Y7822915D01*
X29134878Y7822916D01*
X29020629Y7883983D01*
X28960647Y7916044D01*
X28960643Y7916045D01*
X28771600Y7973390D01*
X28599112Y7990379D01*
X28575000Y7992753D01*
X28574999Y7992753D01*
X28378400Y7973390D01*
X28378398Y7973390D01*
X28189356Y7916045D01*
X28189352Y7916044D01*
X28015118Y7822914D01*
X28015114Y7822911D01*
X27862410Y7697590D01*
X27737089Y7544886D01*
X27737086Y7544882D01*
X27643956Y7370648D01*
X27643955Y7370644D01*
X27586610Y7181602D01*
X27586610Y7181600D01*
X27567247Y6985000D01*
X27042753Y6985000D01*
X27023389Y7181603D01*
X26966042Y7370650D01*
X26872916Y7544878D01*
X26872913Y7544882D01*
X26872910Y7544886D01*
X26747589Y7697590D01*
X26594885Y7822911D01*
X26594881Y7822914D01*
X26594879Y7822915D01*
X26594878Y7822916D01*
X26480629Y7883983D01*
X26420647Y7916044D01*
X26420643Y7916045D01*
X26231600Y7973390D01*
X26059112Y7990379D01*
X26035000Y7992753D01*
X26034999Y7992753D01*
X25838400Y7973390D01*
X25838398Y7973390D01*
X25649356Y7916045D01*
X25649352Y7916044D01*
X25475118Y7822914D01*
X25475114Y7822911D01*
X25322410Y7697590D01*
X25197089Y7544886D01*
X25197086Y7544882D01*
X25103956Y7370648D01*
X25103955Y7370644D01*
X25046610Y7181602D01*
X25046610Y7181600D01*
X25027247Y6985000D01*
X24502753Y6985000D01*
X24483389Y7181603D01*
X24426042Y7370650D01*
X24332916Y7544878D01*
X24332913Y7544882D01*
X24332910Y7544886D01*
X24207589Y7697590D01*
X24054885Y7822911D01*
X24054881Y7822914D01*
X24054879Y7822915D01*
X24054878Y7822916D01*
X23940629Y7883983D01*
X23880647Y7916044D01*
X23880643Y7916045D01*
X23691600Y7973390D01*
X23495000Y7992753D01*
X23298400Y7973390D01*
X23298398Y7973390D01*
X23109356Y7916045D01*
X23109352Y7916044D01*
X22935118Y7822914D01*
X22935114Y7822911D01*
X22782410Y7697590D01*
X22657089Y7544886D01*
X22657086Y7544882D01*
X22563956Y7370648D01*
X22563955Y7370644D01*
X22506610Y7181602D01*
X22506610Y7181600D01*
X22487247Y6985001D01*
X21962753Y6985001D01*
X21943389Y7181603D01*
X21886042Y7370650D01*
X21792916Y7544878D01*
X21792913Y7544882D01*
X21792910Y7544886D01*
X21667589Y7697590D01*
X21514885Y7822911D01*
X21514881Y7822914D01*
X21514879Y7822915D01*
X21514878Y7822916D01*
X21400629Y7883983D01*
X21340647Y7916044D01*
X21340643Y7916045D01*
X21151600Y7973390D01*
X20955000Y7992753D01*
X20758400Y7973390D01*
X20758398Y7973390D01*
X20569356Y7916045D01*
X20569352Y7916044D01*
X20395118Y7822914D01*
X20395114Y7822911D01*
X20242410Y7697590D01*
X20117089Y7544886D01*
X20117086Y7544882D01*
X20023956Y7370648D01*
X20023955Y7370644D01*
X19966610Y7181602D01*
X19966610Y7181600D01*
X19947247Y6985001D01*
X19422753Y6985001D01*
X19403389Y7181603D01*
X19346042Y7370650D01*
X19252916Y7544878D01*
X19252913Y7544882D01*
X19252910Y7544886D01*
X19127589Y7697590D01*
X18974885Y7822911D01*
X18974881Y7822914D01*
X18974879Y7822915D01*
X18974878Y7822916D01*
X18860629Y7883983D01*
X18800647Y7916044D01*
X18800643Y7916045D01*
X18611600Y7973390D01*
X18439112Y7990379D01*
X18415000Y7992753D01*
X18414999Y7992753D01*
X18218400Y7973390D01*
X18218398Y7973390D01*
X18029356Y7916045D01*
X18029352Y7916044D01*
X17855118Y7822914D01*
X17855114Y7822911D01*
X17702410Y7697590D01*
X17577089Y7544886D01*
X17577086Y7544882D01*
X17483956Y7370648D01*
X17483955Y7370644D01*
X17426610Y7181602D01*
X17426610Y7181600D01*
X17407247Y6985000D01*
X16877899Y6985000D01*
X16877899Y7850056D01*
X16869028Y7894658D01*
X16867376Y7897130D01*
X16835235Y7945233D01*
X16835231Y7945236D01*
X16784658Y7979028D01*
X16784656Y7979029D01*
X16740057Y7987900D01*
X15009944Y7987900D01*
X15009942Y7987899D01*
X14965340Y7979028D01*
X14914767Y7945236D01*
X14880972Y7894658D01*
X14880971Y7894657D01*
X14872100Y7850058D01*
X14872100Y6119945D01*
X7521827Y6119945D01*
X7471073Y6314085D01*
X7471071Y6314090D01*
X7365130Y6563390D01*
X7224018Y6794610D01*
X7065575Y6985000D01*
X7050748Y7002817D01*
X7050744Y7002821D01*
X6945766Y7096881D01*
X6849002Y7183582D01*
X6698394Y7283224D01*
X6623089Y7333045D01*
X6377822Y7448021D01*
X6230051Y7492479D01*
X6118431Y7526060D01*
X5951147Y7550679D01*
X5850440Y7565500D01*
X5850439Y7565500D01*
X5647369Y7565500D01*
X5647357Y7565500D01*
X5444852Y7550679D01*
X5180442Y7491779D01*
X4927439Y7395013D01*
X4691226Y7262444D01*
X4476827Y7096892D01*
X4476815Y7096881D01*
X4288818Y6901886D01*
X4288810Y6901876D01*
X4131201Y6681580D01*
X4131200Y6681578D01*
X4007341Y6440670D01*
X3919883Y6184313D01*
X3919881Y6184303D01*
X3870681Y5917936D01*
X3860788Y5647239D01*
X3860788Y5647235D01*
X1930500Y5647235D01*
X1930500Y9525001D01*
X14867750Y9525001D01*
X14887103Y9328497D01*
X14944419Y9139549D01*
X14944424Y9139537D01*
X15037499Y8965407D01*
X15037503Y8965401D01*
X15065617Y8931144D01*
X15428856Y9294384D01*
X15493239Y9194202D01*
X15601900Y9100048D01*
X15645610Y9080087D01*
X15281142Y8715619D01*
X15315400Y8687504D01*
X15315406Y8687500D01*
X15489536Y8594425D01*
X15489548Y8594420D01*
X15678497Y8537104D01*
X15678496Y8537104D01*
X15874999Y8517751D01*
X16071503Y8537104D01*
X16260451Y8594420D01*
X16260454Y8594421D01*
X16434598Y8687503D01*
X16468856Y8715619D01*
X16104389Y9080086D01*
X16148100Y9100048D01*
X16256761Y9194202D01*
X16321142Y9294383D01*
X16684381Y8931144D01*
X16712497Y8965402D01*
X16805579Y9139546D01*
X16805580Y9139549D01*
X16862896Y9328497D01*
X16882249Y9525001D01*
X17407247Y9525001D01*
X17426610Y9328401D01*
X17426610Y9328399D01*
X17483955Y9139357D01*
X17483956Y9139353D01*
X17483958Y9139350D01*
X17576934Y8965402D01*
X17577086Y8965119D01*
X17577089Y8965115D01*
X17702410Y8812411D01*
X17855114Y8687090D01*
X17855118Y8687087D01*
X17855122Y8687084D01*
X18028476Y8594425D01*
X18029352Y8593957D01*
X18029356Y8593956D01*
X18072593Y8580841D01*
X18218397Y8536611D01*
X18415000Y8517247D01*
X18611603Y8536611D01*
X18800650Y8593958D01*
X18974878Y8687084D01*
X19127589Y8812411D01*
X19252916Y8965122D01*
X19346042Y9139350D01*
X19403389Y9328397D01*
X19422753Y9525000D01*
X19422753Y9525001D01*
X19947247Y9525001D01*
X19966610Y9328401D01*
X19966610Y9328399D01*
X20023955Y9139357D01*
X20023956Y9139353D01*
X20023958Y9139350D01*
X20116934Y8965402D01*
X20117086Y8965119D01*
X20117089Y8965115D01*
X20242410Y8812411D01*
X20395114Y8687090D01*
X20395118Y8687087D01*
X20395122Y8687084D01*
X20568476Y8594425D01*
X20569352Y8593957D01*
X20569356Y8593956D01*
X20612593Y8580841D01*
X20758397Y8536611D01*
X20955000Y8517247D01*
X21151603Y8536611D01*
X21340650Y8593958D01*
X21514878Y8687084D01*
X21667589Y8812411D01*
X21792916Y8965122D01*
X21886042Y9139350D01*
X21943389Y9328397D01*
X21962753Y9525000D01*
X21962753Y9525001D01*
X22487247Y9525001D01*
X22506610Y9328401D01*
X22506610Y9328399D01*
X22563955Y9139357D01*
X22563956Y9139353D01*
X22563958Y9139350D01*
X22656934Y8965402D01*
X22657086Y8965119D01*
X22657089Y8965115D01*
X22782410Y8812411D01*
X22935114Y8687090D01*
X22935118Y8687087D01*
X22935122Y8687084D01*
X23108476Y8594425D01*
X23109352Y8593957D01*
X23109356Y8593956D01*
X23152593Y8580841D01*
X23298397Y8536611D01*
X23495000Y8517247D01*
X23691603Y8536611D01*
X23880650Y8593958D01*
X24054878Y8687084D01*
X24207589Y8812411D01*
X24332916Y8965122D01*
X24426042Y9139350D01*
X24483389Y9328397D01*
X24502753Y9525000D01*
X24502753Y9525001D01*
X25027247Y9525001D01*
X25046610Y9328401D01*
X25046610Y9328399D01*
X25103955Y9139357D01*
X25103956Y9139353D01*
X25103958Y9139350D01*
X25196934Y8965402D01*
X25197086Y8965119D01*
X25197089Y8965115D01*
X25322410Y8812411D01*
X25475114Y8687090D01*
X25475118Y8687087D01*
X25475122Y8687084D01*
X25648476Y8594425D01*
X25649352Y8593957D01*
X25649356Y8593956D01*
X25692593Y8580841D01*
X25838397Y8536611D01*
X26035000Y8517247D01*
X26231603Y8536611D01*
X26420650Y8593958D01*
X26594878Y8687084D01*
X26747589Y8812411D01*
X26872916Y8965122D01*
X26966042Y9139350D01*
X27023389Y9328397D01*
X27042753Y9525000D01*
X27042753Y9525001D01*
X27567247Y9525001D01*
X27586610Y9328401D01*
X27586610Y9328399D01*
X27643955Y9139357D01*
X27643956Y9139353D01*
X27643958Y9139350D01*
X27736934Y8965402D01*
X27737086Y8965119D01*
X27737089Y8965115D01*
X27862410Y8812411D01*
X28015114Y8687090D01*
X28015118Y8687087D01*
X28015122Y8687084D01*
X28188476Y8594425D01*
X28189352Y8593957D01*
X28189356Y8593956D01*
X28232593Y8580841D01*
X28378397Y8536611D01*
X28575000Y8517247D01*
X28771603Y8536611D01*
X28960650Y8593958D01*
X29134878Y8687084D01*
X29287589Y8812411D01*
X29412916Y8965122D01*
X29506042Y9139350D01*
X29563389Y9328397D01*
X29582753Y9525000D01*
X29582753Y9525001D01*
X30107247Y9525001D01*
X30126610Y9328401D01*
X30126610Y9328399D01*
X30183955Y9139357D01*
X30183956Y9139353D01*
X30183958Y9139350D01*
X30276934Y8965402D01*
X30277086Y8965119D01*
X30277089Y8965115D01*
X30402410Y8812411D01*
X30555114Y8687090D01*
X30555118Y8687087D01*
X30555122Y8687084D01*
X30728476Y8594425D01*
X30729352Y8593957D01*
X30729356Y8593956D01*
X30772593Y8580841D01*
X30918397Y8536611D01*
X31115000Y8517247D01*
X31311603Y8536611D01*
X31500650Y8593958D01*
X31674878Y8687084D01*
X31827589Y8812411D01*
X31952916Y8965122D01*
X32046042Y9139350D01*
X32103389Y9328397D01*
X32122753Y9525000D01*
X32122753Y9525001D01*
X32647247Y9525001D01*
X32666610Y9328401D01*
X32666610Y9328399D01*
X32723955Y9139357D01*
X32723956Y9139353D01*
X32723958Y9139350D01*
X32816934Y8965402D01*
X32817086Y8965119D01*
X32817089Y8965115D01*
X32942410Y8812411D01*
X33095114Y8687090D01*
X33095118Y8687087D01*
X33095122Y8687084D01*
X33268476Y8594425D01*
X33269352Y8593957D01*
X33269356Y8593956D01*
X33312593Y8580841D01*
X33458397Y8536611D01*
X33655000Y8517247D01*
X33851603Y8536611D01*
X34040650Y8593958D01*
X34214878Y8687084D01*
X34367589Y8812411D01*
X34492916Y8965122D01*
X34586042Y9139350D01*
X34643389Y9328397D01*
X34662753Y9525000D01*
X35187247Y9525000D01*
X35206610Y9328401D01*
X35206610Y9328399D01*
X35263955Y9139357D01*
X35263956Y9139353D01*
X35263958Y9139350D01*
X35356934Y8965402D01*
X35357086Y8965119D01*
X35357089Y8965115D01*
X35482410Y8812411D01*
X35635114Y8687090D01*
X35635118Y8687087D01*
X35635122Y8687084D01*
X35808476Y8594425D01*
X35809352Y8593957D01*
X35809356Y8593956D01*
X35852593Y8580841D01*
X35998397Y8536611D01*
X36195000Y8517247D01*
X36391603Y8536611D01*
X36580650Y8593958D01*
X36754878Y8687084D01*
X36907589Y8812411D01*
X37032916Y8965122D01*
X37126042Y9139350D01*
X37183389Y9328397D01*
X37202753Y9525000D01*
X37202753Y9525001D01*
X37727247Y9525001D01*
X37746610Y9328401D01*
X37746610Y9328399D01*
X37803955Y9139357D01*
X37803956Y9139353D01*
X37803958Y9139350D01*
X37896934Y8965402D01*
X37897086Y8965119D01*
X37897089Y8965115D01*
X38022410Y8812411D01*
X38175114Y8687090D01*
X38175118Y8687087D01*
X38175122Y8687084D01*
X38348476Y8594425D01*
X38349352Y8593957D01*
X38349356Y8593956D01*
X38392593Y8580841D01*
X38538397Y8536611D01*
X38735000Y8517247D01*
X38931603Y8536611D01*
X39120650Y8593958D01*
X39294878Y8687084D01*
X39447589Y8812411D01*
X39572916Y8965122D01*
X39666042Y9139350D01*
X39723389Y9328397D01*
X39742753Y9525000D01*
X39742753Y9525001D01*
X40267247Y9525001D01*
X40286610Y9328401D01*
X40286610Y9328399D01*
X40343955Y9139357D01*
X40343956Y9139353D01*
X40343958Y9139350D01*
X40436934Y8965402D01*
X40437086Y8965119D01*
X40437089Y8965115D01*
X40562410Y8812411D01*
X40715114Y8687090D01*
X40715118Y8687087D01*
X40715122Y8687084D01*
X40888476Y8594425D01*
X40889352Y8593957D01*
X40889356Y8593956D01*
X40932593Y8580841D01*
X41078397Y8536611D01*
X41275000Y8517247D01*
X41471603Y8536611D01*
X41660650Y8593958D01*
X41834878Y8687084D01*
X41987589Y8812411D01*
X42112916Y8965122D01*
X42206042Y9139350D01*
X42263389Y9328397D01*
X42282753Y9525000D01*
X42282753Y9525001D01*
X42807247Y9525001D01*
X42826610Y9328401D01*
X42826610Y9328399D01*
X42883955Y9139357D01*
X42883956Y9139353D01*
X42883958Y9139350D01*
X42976934Y8965402D01*
X42977086Y8965119D01*
X42977089Y8965115D01*
X43102410Y8812411D01*
X43255114Y8687090D01*
X43255118Y8687087D01*
X43255122Y8687084D01*
X43428476Y8594425D01*
X43429352Y8593957D01*
X43429356Y8593956D01*
X43472593Y8580841D01*
X43618397Y8536611D01*
X43815000Y8517247D01*
X44011603Y8536611D01*
X44200650Y8593958D01*
X44374878Y8687084D01*
X44527589Y8812411D01*
X44652916Y8965122D01*
X44746042Y9139350D01*
X44803389Y9328397D01*
X44822753Y9525000D01*
X44803389Y9721603D01*
X44746102Y9910452D01*
X44746044Y9910644D01*
X44746043Y9910648D01*
X44746042Y9910650D01*
X44652916Y10084878D01*
X44652913Y10084882D01*
X44652910Y10084886D01*
X44527589Y10237590D01*
X44374885Y10362911D01*
X44374881Y10362914D01*
X44374879Y10362915D01*
X44374878Y10362916D01*
X44287764Y10409480D01*
X44200647Y10456044D01*
X44200643Y10456045D01*
X44011600Y10513390D01*
X43839112Y10530379D01*
X43815000Y10532753D01*
X43814999Y10532753D01*
X43618400Y10513390D01*
X43618398Y10513390D01*
X43429356Y10456045D01*
X43429352Y10456044D01*
X43255118Y10362914D01*
X43255114Y10362911D01*
X43102410Y10237590D01*
X42977089Y10084886D01*
X42977086Y10084882D01*
X42883956Y9910648D01*
X42883955Y9910644D01*
X42826610Y9721602D01*
X42826610Y9721600D01*
X42807247Y9525001D01*
X42282753Y9525001D01*
X42263389Y9721603D01*
X42206102Y9910452D01*
X42206044Y9910644D01*
X42206043Y9910648D01*
X42206042Y9910650D01*
X42112916Y10084878D01*
X42112913Y10084882D01*
X42112910Y10084886D01*
X41987589Y10237590D01*
X41834885Y10362911D01*
X41834881Y10362914D01*
X41834879Y10362915D01*
X41834878Y10362916D01*
X41747764Y10409480D01*
X41660647Y10456044D01*
X41660643Y10456045D01*
X41471600Y10513390D01*
X41275000Y10532753D01*
X41078400Y10513390D01*
X41078398Y10513390D01*
X40889356Y10456045D01*
X40889352Y10456044D01*
X40715118Y10362914D01*
X40715114Y10362911D01*
X40562410Y10237590D01*
X40437089Y10084886D01*
X40437086Y10084882D01*
X40343956Y9910648D01*
X40343955Y9910644D01*
X40286610Y9721602D01*
X40286610Y9721600D01*
X40267247Y9525001D01*
X39742753Y9525001D01*
X39723389Y9721603D01*
X39666102Y9910452D01*
X39666044Y9910644D01*
X39666043Y9910648D01*
X39666042Y9910650D01*
X39572916Y10084878D01*
X39572913Y10084882D01*
X39572910Y10084886D01*
X39447589Y10237590D01*
X39294885Y10362911D01*
X39294881Y10362914D01*
X39294879Y10362915D01*
X39294878Y10362916D01*
X39207764Y10409479D01*
X39120647Y10456044D01*
X39120643Y10456045D01*
X38931600Y10513390D01*
X38735000Y10532753D01*
X38538400Y10513390D01*
X38538398Y10513390D01*
X38349356Y10456045D01*
X38349352Y10456044D01*
X38175118Y10362914D01*
X38175114Y10362911D01*
X38022410Y10237590D01*
X37897089Y10084886D01*
X37897086Y10084882D01*
X37803956Y9910648D01*
X37803955Y9910644D01*
X37746610Y9721602D01*
X37746610Y9721600D01*
X37727247Y9525001D01*
X37202753Y9525001D01*
X37183389Y9721603D01*
X37126102Y9910452D01*
X37126044Y9910644D01*
X37126043Y9910648D01*
X37126042Y9910650D01*
X37032916Y10084878D01*
X37032913Y10084882D01*
X37032910Y10084886D01*
X36907589Y10237590D01*
X36754885Y10362911D01*
X36754881Y10362914D01*
X36754879Y10362915D01*
X36754878Y10362916D01*
X36667764Y10409479D01*
X36580647Y10456044D01*
X36580643Y10456045D01*
X36391600Y10513390D01*
X36219112Y10530379D01*
X36195000Y10532753D01*
X36194999Y10532753D01*
X35998400Y10513390D01*
X35998398Y10513390D01*
X35809356Y10456045D01*
X35809352Y10456044D01*
X35635118Y10362914D01*
X35635114Y10362911D01*
X35482410Y10237590D01*
X35357089Y10084886D01*
X35357086Y10084882D01*
X35263956Y9910648D01*
X35263955Y9910644D01*
X35206610Y9721602D01*
X35206610Y9721600D01*
X35187247Y9525000D01*
X34662753Y9525000D01*
X34643389Y9721603D01*
X34586102Y9910452D01*
X34586044Y9910644D01*
X34586043Y9910648D01*
X34586042Y9910650D01*
X34492916Y10084878D01*
X34492913Y10084882D01*
X34492910Y10084886D01*
X34367589Y10237590D01*
X34214885Y10362911D01*
X34214881Y10362914D01*
X34214879Y10362915D01*
X34214878Y10362916D01*
X34127764Y10409479D01*
X34040647Y10456044D01*
X34040643Y10456045D01*
X33851600Y10513390D01*
X33679112Y10530379D01*
X33655000Y10532753D01*
X33654999Y10532753D01*
X33458400Y10513390D01*
X33458398Y10513390D01*
X33269356Y10456045D01*
X33269352Y10456044D01*
X33095118Y10362914D01*
X33095114Y10362911D01*
X32942410Y10237590D01*
X32817089Y10084886D01*
X32817086Y10084882D01*
X32723956Y9910648D01*
X32723955Y9910644D01*
X32666610Y9721602D01*
X32666610Y9721600D01*
X32647247Y9525001D01*
X32122753Y9525001D01*
X32103389Y9721603D01*
X32046102Y9910452D01*
X32046044Y9910644D01*
X32046043Y9910648D01*
X32046042Y9910650D01*
X31952916Y10084878D01*
X31952913Y10084882D01*
X31952910Y10084886D01*
X31827589Y10237590D01*
X31674885Y10362911D01*
X31674881Y10362914D01*
X31674879Y10362915D01*
X31674878Y10362916D01*
X31587764Y10409479D01*
X31500647Y10456044D01*
X31500643Y10456045D01*
X31311600Y10513390D01*
X31115000Y10532753D01*
X30918400Y10513390D01*
X30918398Y10513390D01*
X30729356Y10456045D01*
X30729352Y10456044D01*
X30555118Y10362914D01*
X30555114Y10362911D01*
X30402410Y10237590D01*
X30277089Y10084886D01*
X30277086Y10084882D01*
X30183956Y9910648D01*
X30183955Y9910644D01*
X30126610Y9721602D01*
X30126610Y9721600D01*
X30107247Y9525001D01*
X29582753Y9525001D01*
X29563389Y9721603D01*
X29506102Y9910452D01*
X29506044Y9910644D01*
X29506043Y9910648D01*
X29506042Y9910650D01*
X29412916Y10084878D01*
X29412913Y10084882D01*
X29412910Y10084886D01*
X29287589Y10237590D01*
X29134885Y10362911D01*
X29134881Y10362914D01*
X29134879Y10362915D01*
X29134878Y10362916D01*
X29047764Y10409479D01*
X28960647Y10456044D01*
X28960643Y10456045D01*
X28771600Y10513390D01*
X28575000Y10532753D01*
X28378400Y10513390D01*
X28378398Y10513390D01*
X28189356Y10456045D01*
X28189352Y10456044D01*
X28015118Y10362914D01*
X28015114Y10362911D01*
X27862410Y10237590D01*
X27737089Y10084886D01*
X27737086Y10084882D01*
X27643956Y9910648D01*
X27643955Y9910644D01*
X27586610Y9721602D01*
X27586610Y9721600D01*
X27567247Y9525001D01*
X27042753Y9525001D01*
X27023389Y9721603D01*
X26966102Y9910452D01*
X26966044Y9910644D01*
X26966043Y9910648D01*
X26966042Y9910650D01*
X26872916Y10084878D01*
X26872913Y10084882D01*
X26872910Y10084886D01*
X26747589Y10237590D01*
X26594885Y10362911D01*
X26594881Y10362914D01*
X26594879Y10362915D01*
X26594878Y10362916D01*
X26507764Y10409479D01*
X26420647Y10456044D01*
X26420643Y10456045D01*
X26231600Y10513390D01*
X26059112Y10530379D01*
X26035000Y10532753D01*
X26034999Y10532753D01*
X25838400Y10513390D01*
X25838398Y10513390D01*
X25649356Y10456045D01*
X25649352Y10456044D01*
X25475118Y10362914D01*
X25475114Y10362911D01*
X25322410Y10237590D01*
X25197089Y10084886D01*
X25197086Y10084882D01*
X25103956Y9910648D01*
X25103955Y9910644D01*
X25046610Y9721602D01*
X25046610Y9721600D01*
X25027247Y9525001D01*
X24502753Y9525001D01*
X24483389Y9721603D01*
X24426102Y9910452D01*
X24426044Y9910644D01*
X24426043Y9910648D01*
X24426042Y9910650D01*
X24332916Y10084878D01*
X24332913Y10084882D01*
X24332910Y10084886D01*
X24207589Y10237590D01*
X24054885Y10362911D01*
X24054881Y10362914D01*
X24054879Y10362915D01*
X24054878Y10362916D01*
X23967764Y10409479D01*
X23880647Y10456044D01*
X23880643Y10456045D01*
X23691600Y10513390D01*
X23519112Y10530379D01*
X23495000Y10532753D01*
X23494999Y10532753D01*
X23298400Y10513390D01*
X23298398Y10513390D01*
X23109356Y10456045D01*
X23109352Y10456044D01*
X22935118Y10362914D01*
X22935114Y10362911D01*
X22782410Y10237590D01*
X22657089Y10084886D01*
X22657086Y10084882D01*
X22563956Y9910648D01*
X22563955Y9910644D01*
X22506610Y9721602D01*
X22506610Y9721600D01*
X22487247Y9525001D01*
X21962753Y9525001D01*
X21943389Y9721603D01*
X21886102Y9910452D01*
X21886044Y9910644D01*
X21886043Y9910648D01*
X21886042Y9910650D01*
X21792916Y10084878D01*
X21792913Y10084882D01*
X21792910Y10084886D01*
X21667589Y10237590D01*
X21514885Y10362911D01*
X21514881Y10362914D01*
X21514879Y10362915D01*
X21514878Y10362916D01*
X21427764Y10409479D01*
X21340647Y10456044D01*
X21340643Y10456045D01*
X21151600Y10513390D01*
X20955000Y10532753D01*
X20758400Y10513390D01*
X20758398Y10513390D01*
X20569356Y10456045D01*
X20569352Y10456044D01*
X20395118Y10362914D01*
X20395114Y10362911D01*
X20242410Y10237590D01*
X20117089Y10084886D01*
X20117086Y10084882D01*
X20023956Y9910648D01*
X20023955Y9910644D01*
X19966610Y9721602D01*
X19966610Y9721600D01*
X19947247Y9525001D01*
X19422753Y9525001D01*
X19403389Y9721603D01*
X19346102Y9910452D01*
X19346044Y9910644D01*
X19346043Y9910648D01*
X19346042Y9910650D01*
X19252916Y10084878D01*
X19252913Y10084882D01*
X19252910Y10084886D01*
X19127589Y10237590D01*
X18974885Y10362911D01*
X18974881Y10362914D01*
X18974879Y10362915D01*
X18974878Y10362916D01*
X18887764Y10409479D01*
X18800647Y10456044D01*
X18800643Y10456045D01*
X18611600Y10513390D01*
X18415000Y10532753D01*
X18218400Y10513390D01*
X18218398Y10513390D01*
X18029356Y10456045D01*
X18029352Y10456044D01*
X17855118Y10362914D01*
X17855114Y10362911D01*
X17702410Y10237590D01*
X17577089Y10084886D01*
X17577086Y10084882D01*
X17483956Y9910648D01*
X17483955Y9910644D01*
X17426610Y9721602D01*
X17426610Y9721600D01*
X17407247Y9525001D01*
X16882249Y9525001D01*
X16862896Y9721504D01*
X16805580Y9910452D01*
X16805575Y9910464D01*
X16712500Y10084594D01*
X16712496Y10084600D01*
X16684381Y10118858D01*
X16321142Y9755619D01*
X16256761Y9855798D01*
X16148100Y9949952D01*
X16104388Y9969915D01*
X16468856Y10334383D01*
X16434599Y10362497D01*
X16434593Y10362501D01*
X16260463Y10455576D01*
X16260451Y10455581D01*
X16071502Y10512897D01*
X16071503Y10512897D01*
X15874999Y10532250D01*
X15678496Y10512897D01*
X15489548Y10455581D01*
X15489536Y10455576D01*
X15315411Y10362504D01*
X15315396Y10362494D01*
X15281142Y10334383D01*
X15645610Y9969915D01*
X15601900Y9949952D01*
X15493239Y9855798D01*
X15428857Y9755618D01*
X15065617Y10118858D01*
X15037506Y10084604D01*
X15037496Y10084589D01*
X14944424Y9910464D01*
X14944419Y9910452D01*
X14887103Y9721504D01*
X14867750Y9525001D01*
X1930500Y9525001D01*
X1930500Y13335000D01*
X31876929Y13335000D01*
X31897509Y13191860D01*
X31897509Y13191859D01*
X31897510Y13191857D01*
X31897510Y13191855D01*
X31957581Y13060319D01*
X31957582Y13060318D01*
X31957583Y13060316D01*
X32052284Y12951026D01*
X32173940Y12872842D01*
X32312694Y12832100D01*
X32312697Y12832100D01*
X32457303Y12832100D01*
X32457306Y12832100D01*
X32596060Y12872842D01*
X32717716Y12951026D01*
X32796413Y13041847D01*
X32841363Y13066855D01*
X32853244Y13067800D01*
X44055892Y13067800D01*
X44104230Y13050207D01*
X44109066Y13045774D01*
X46502655Y10652186D01*
X46524395Y10605566D01*
X46511081Y10555879D01*
X46468944Y10526374D01*
X46442111Y10524174D01*
X46355000Y10532753D01*
X46158400Y10513390D01*
X46158398Y10513390D01*
X45969356Y10456045D01*
X45969352Y10456044D01*
X45795118Y10362914D01*
X45795114Y10362911D01*
X45642410Y10237590D01*
X45517089Y10084886D01*
X45517086Y10084882D01*
X45423956Y9910648D01*
X45423955Y9910644D01*
X45366610Y9721602D01*
X45366610Y9721600D01*
X45347247Y9525001D01*
X45366610Y9328401D01*
X45366610Y9328399D01*
X45423955Y9139357D01*
X45423956Y9139353D01*
X45423958Y9139350D01*
X45516934Y8965402D01*
X45517086Y8965119D01*
X45517089Y8965115D01*
X45642410Y8812411D01*
X45795114Y8687090D01*
X45795118Y8687087D01*
X45795122Y8687084D01*
X45968476Y8594425D01*
X45969352Y8593957D01*
X45969356Y8593956D01*
X46012593Y8580841D01*
X46158397Y8536611D01*
X46355000Y8517247D01*
X46551603Y8536611D01*
X46740650Y8593958D01*
X46914878Y8687084D01*
X47067589Y8812411D01*
X47192916Y8965122D01*
X47286042Y9139350D01*
X47343389Y9328397D01*
X47361061Y9507824D01*
X47383308Y9554203D01*
X47430162Y9575433D01*
X47479701Y9561578D01*
X47508745Y9519122D01*
X47511099Y9500452D01*
X47511099Y8135430D01*
X47509654Y8120759D01*
X47505863Y8101702D01*
X47505863Y8101701D01*
X47526601Y7997446D01*
X47526602Y7997443D01*
X47542674Y7973389D01*
X47585657Y7909060D01*
X47601812Y7898266D01*
X47613209Y7888913D01*
X47982870Y7519252D01*
X48004610Y7472632D01*
X47996017Y7430630D01*
X47963958Y7370652D01*
X47963955Y7370644D01*
X47906610Y7181602D01*
X47906610Y7181600D01*
X47887247Y6985001D01*
X47906610Y6788401D01*
X47906610Y6788399D01*
X47963955Y6599357D01*
X47963956Y6599353D01*
X47963958Y6599350D01*
X48048773Y6440670D01*
X48057086Y6425119D01*
X48057089Y6425115D01*
X48182410Y6272411D01*
X48335114Y6147090D01*
X48335118Y6147087D01*
X48335122Y6147084D01*
X48469343Y6075342D01*
X48509352Y6053957D01*
X48509356Y6053956D01*
X48515745Y6052018D01*
X48698397Y5996611D01*
X48895000Y5977247D01*
X49091603Y5996611D01*
X49280650Y6053958D01*
X49454878Y6147084D01*
X49607589Y6272411D01*
X49732916Y6425122D01*
X49826042Y6599350D01*
X49883389Y6788397D01*
X49902753Y6985000D01*
X50427247Y6985000D01*
X50446610Y6788401D01*
X50446610Y6788399D01*
X50503955Y6599357D01*
X50503956Y6599353D01*
X50503958Y6599350D01*
X50588773Y6440670D01*
X50597086Y6425119D01*
X50597089Y6425115D01*
X50722410Y6272411D01*
X50875114Y6147090D01*
X50875118Y6147087D01*
X50875122Y6147084D01*
X51009343Y6075342D01*
X51049352Y6053957D01*
X51049356Y6053956D01*
X51055745Y6052018D01*
X51238397Y5996611D01*
X51435000Y5977247D01*
X51631603Y5996611D01*
X51820650Y6053958D01*
X51994878Y6147084D01*
X52147589Y6272411D01*
X52272916Y6425122D01*
X52366042Y6599350D01*
X52423389Y6788397D01*
X52442753Y6985000D01*
X52967247Y6985000D01*
X52986610Y6788401D01*
X52986610Y6788399D01*
X53043955Y6599357D01*
X53043956Y6599353D01*
X53043958Y6599350D01*
X53128773Y6440670D01*
X53137086Y6425119D01*
X53137089Y6425115D01*
X53262410Y6272411D01*
X53415114Y6147090D01*
X53415118Y6147087D01*
X53415122Y6147084D01*
X53549343Y6075342D01*
X53589352Y6053957D01*
X53589356Y6053956D01*
X53595745Y6052018D01*
X53778397Y5996611D01*
X53975000Y5977247D01*
X54171603Y5996611D01*
X54360650Y6053958D01*
X54534878Y6147084D01*
X54687589Y6272411D01*
X54812916Y6425122D01*
X54906042Y6599350D01*
X54963389Y6788397D01*
X54982753Y6985000D01*
X55507247Y6985000D01*
X55526610Y6788401D01*
X55526610Y6788399D01*
X55583955Y6599357D01*
X55583956Y6599353D01*
X55583958Y6599350D01*
X55668773Y6440670D01*
X55677086Y6425119D01*
X55677089Y6425115D01*
X55802410Y6272411D01*
X55955114Y6147090D01*
X55955118Y6147087D01*
X55955122Y6147084D01*
X56089343Y6075342D01*
X56129352Y6053957D01*
X56129356Y6053956D01*
X56135745Y6052018D01*
X56318397Y5996611D01*
X56515000Y5977247D01*
X56711603Y5996611D01*
X56900650Y6053958D01*
X57074878Y6147084D01*
X57227589Y6272411D01*
X57352916Y6425122D01*
X57446042Y6599350D01*
X57503389Y6788397D01*
X57522753Y6985000D01*
X57522753Y6985001D01*
X58047247Y6985001D01*
X58066610Y6788401D01*
X58066610Y6788399D01*
X58123955Y6599357D01*
X58123956Y6599353D01*
X58123958Y6599350D01*
X58208773Y6440670D01*
X58217086Y6425119D01*
X58217089Y6425115D01*
X58342410Y6272411D01*
X58495114Y6147090D01*
X58495118Y6147087D01*
X58495122Y6147084D01*
X58629343Y6075342D01*
X58669352Y6053957D01*
X58669356Y6053956D01*
X58675745Y6052018D01*
X58858397Y5996611D01*
X59055000Y5977247D01*
X59251603Y5996611D01*
X59440650Y6053958D01*
X59614878Y6147084D01*
X59767589Y6272411D01*
X59892916Y6425122D01*
X59986042Y6599350D01*
X60043389Y6788397D01*
X60062753Y6985000D01*
X60587247Y6985000D01*
X60606610Y6788401D01*
X60606610Y6788399D01*
X60663955Y6599357D01*
X60663956Y6599353D01*
X60663958Y6599350D01*
X60748773Y6440670D01*
X60757086Y6425119D01*
X60757089Y6425115D01*
X60882410Y6272411D01*
X61035114Y6147090D01*
X61035118Y6147087D01*
X61035122Y6147084D01*
X61169343Y6075342D01*
X61209352Y6053957D01*
X61209356Y6053956D01*
X61215745Y6052018D01*
X61398397Y5996611D01*
X61595000Y5977247D01*
X61791603Y5996611D01*
X61980650Y6053958D01*
X62154878Y6147084D01*
X62307589Y6272411D01*
X62432916Y6425122D01*
X62526042Y6599350D01*
X62583389Y6788397D01*
X62602753Y6985000D01*
X63127247Y6985000D01*
X63146610Y6788401D01*
X63146610Y6788399D01*
X63203955Y6599357D01*
X63203956Y6599353D01*
X63203958Y6599350D01*
X63288773Y6440670D01*
X63297086Y6425119D01*
X63297089Y6425115D01*
X63422410Y6272411D01*
X63575114Y6147090D01*
X63575118Y6147087D01*
X63575122Y6147084D01*
X63709343Y6075342D01*
X63749352Y6053957D01*
X63749356Y6053956D01*
X63755745Y6052018D01*
X63938397Y5996611D01*
X64135000Y5977247D01*
X64331603Y5996611D01*
X64520650Y6053958D01*
X64694878Y6147084D01*
X64847589Y6272411D01*
X64972916Y6425122D01*
X65066042Y6599350D01*
X65123389Y6788397D01*
X65142753Y6985000D01*
X65123389Y7181603D01*
X65066042Y7370650D01*
X64972916Y7544878D01*
X64972913Y7544882D01*
X64972910Y7544886D01*
X64847589Y7697590D01*
X64694885Y7822911D01*
X64694881Y7822914D01*
X64694879Y7822915D01*
X64694878Y7822916D01*
X64580629Y7883983D01*
X64520647Y7916044D01*
X64520643Y7916045D01*
X64331600Y7973390D01*
X64135000Y7992753D01*
X63938400Y7973390D01*
X63938398Y7973390D01*
X63749356Y7916045D01*
X63749352Y7916044D01*
X63575118Y7822914D01*
X63575114Y7822911D01*
X63422410Y7697590D01*
X63297089Y7544886D01*
X63297086Y7544882D01*
X63203956Y7370648D01*
X63203955Y7370644D01*
X63146610Y7181602D01*
X63146610Y7181600D01*
X63127247Y6985000D01*
X62602753Y6985000D01*
X62583389Y7181603D01*
X62526042Y7370650D01*
X62432916Y7544878D01*
X62432913Y7544882D01*
X62432910Y7544886D01*
X62307589Y7697590D01*
X62154885Y7822911D01*
X62154881Y7822914D01*
X62154879Y7822915D01*
X62154878Y7822916D01*
X62040629Y7883983D01*
X61980647Y7916044D01*
X61980643Y7916045D01*
X61791600Y7973390D01*
X61595000Y7992753D01*
X61398400Y7973390D01*
X61398398Y7973390D01*
X61209356Y7916045D01*
X61209352Y7916044D01*
X61035118Y7822914D01*
X61035114Y7822911D01*
X60882410Y7697590D01*
X60757089Y7544886D01*
X60757086Y7544882D01*
X60663956Y7370648D01*
X60663955Y7370644D01*
X60606610Y7181602D01*
X60606610Y7181600D01*
X60587247Y6985000D01*
X60062753Y6985000D01*
X60043389Y7181603D01*
X59986042Y7370650D01*
X59892916Y7544878D01*
X59892913Y7544882D01*
X59892910Y7544886D01*
X59767589Y7697590D01*
X59614885Y7822911D01*
X59614881Y7822914D01*
X59614879Y7822915D01*
X59614878Y7822916D01*
X59500629Y7883983D01*
X59440647Y7916044D01*
X59440643Y7916045D01*
X59251600Y7973390D01*
X59079112Y7990379D01*
X59055000Y7992753D01*
X59054999Y7992753D01*
X58858400Y7973390D01*
X58858398Y7973390D01*
X58669356Y7916045D01*
X58669352Y7916044D01*
X58495118Y7822914D01*
X58495114Y7822911D01*
X58342410Y7697590D01*
X58217089Y7544886D01*
X58217086Y7544882D01*
X58123956Y7370648D01*
X58123955Y7370644D01*
X58066610Y7181602D01*
X58066610Y7181600D01*
X58047247Y6985001D01*
X57522753Y6985001D01*
X57503389Y7181603D01*
X57446042Y7370650D01*
X57352916Y7544878D01*
X57352913Y7544882D01*
X57352910Y7544886D01*
X57227589Y7697590D01*
X57074885Y7822911D01*
X57074881Y7822914D01*
X57074879Y7822915D01*
X57074878Y7822916D01*
X56960629Y7883983D01*
X56900647Y7916044D01*
X56900643Y7916045D01*
X56711600Y7973390D01*
X56539112Y7990379D01*
X56515000Y7992753D01*
X56514999Y7992753D01*
X56318400Y7973390D01*
X56318398Y7973390D01*
X56129356Y7916045D01*
X56129352Y7916044D01*
X55955118Y7822914D01*
X55955114Y7822911D01*
X55802410Y7697590D01*
X55677089Y7544886D01*
X55677086Y7544882D01*
X55583956Y7370648D01*
X55583955Y7370644D01*
X55526610Y7181602D01*
X55526610Y7181600D01*
X55507247Y6985000D01*
X54982753Y6985000D01*
X54963389Y7181603D01*
X54906042Y7370650D01*
X54812916Y7544878D01*
X54812913Y7544882D01*
X54812910Y7544886D01*
X54687589Y7697590D01*
X54534885Y7822911D01*
X54534881Y7822914D01*
X54534879Y7822915D01*
X54534878Y7822916D01*
X54420629Y7883983D01*
X54360647Y7916044D01*
X54360643Y7916045D01*
X54171600Y7973390D01*
X53975000Y7992753D01*
X53778400Y7973390D01*
X53778398Y7973390D01*
X53589356Y7916045D01*
X53589352Y7916044D01*
X53415118Y7822914D01*
X53415114Y7822911D01*
X53262410Y7697590D01*
X53137089Y7544886D01*
X53137086Y7544882D01*
X53043956Y7370648D01*
X53043955Y7370644D01*
X52986610Y7181602D01*
X52986610Y7181600D01*
X52967247Y6985000D01*
X52442753Y6985000D01*
X52423389Y7181603D01*
X52366042Y7370650D01*
X52272916Y7544878D01*
X52272913Y7544882D01*
X52272910Y7544886D01*
X52147589Y7697590D01*
X51994885Y7822911D01*
X51994881Y7822914D01*
X51994879Y7822915D01*
X51994878Y7822916D01*
X51880629Y7883983D01*
X51820647Y7916044D01*
X51820643Y7916045D01*
X51631600Y7973390D01*
X51435000Y7992753D01*
X51238400Y7973390D01*
X51238398Y7973390D01*
X51049356Y7916045D01*
X51049352Y7916044D01*
X50875118Y7822914D01*
X50875114Y7822911D01*
X50722410Y7697590D01*
X50597089Y7544886D01*
X50597086Y7544882D01*
X50503956Y7370648D01*
X50503955Y7370644D01*
X50446610Y7181602D01*
X50446610Y7181600D01*
X50427247Y6985000D01*
X49902753Y6985000D01*
X49883389Y7181603D01*
X49826042Y7370650D01*
X49732916Y7544878D01*
X49732913Y7544882D01*
X49732910Y7544886D01*
X49607589Y7697590D01*
X49454885Y7822911D01*
X49454881Y7822914D01*
X49454879Y7822915D01*
X49454878Y7822916D01*
X49340629Y7883983D01*
X49280647Y7916044D01*
X49280643Y7916045D01*
X49091600Y7973390D01*
X48919112Y7990379D01*
X48895000Y7992753D01*
X48894999Y7992753D01*
X48698400Y7973390D01*
X48698398Y7973390D01*
X48509356Y7916045D01*
X48509348Y7916042D01*
X48449370Y7883983D01*
X48398447Y7876714D01*
X48360748Y7897130D01*
X48067525Y8190353D01*
X48045785Y8236973D01*
X48045499Y8243527D01*
X48045499Y8769069D01*
X48063092Y8817407D01*
X48107641Y8843127D01*
X48158299Y8834194D01*
X48178828Y8816776D01*
X48182411Y8812411D01*
X48182412Y8812410D01*
X48182414Y8812408D01*
X48335114Y8687090D01*
X48335118Y8687087D01*
X48335122Y8687084D01*
X48508476Y8594425D01*
X48509352Y8593957D01*
X48509356Y8593956D01*
X48552593Y8580841D01*
X48698397Y8536611D01*
X48895000Y8517247D01*
X49091603Y8536611D01*
X49280650Y8593958D01*
X49454878Y8687084D01*
X49607589Y8812411D01*
X49732916Y8965122D01*
X49826042Y9139350D01*
X49883389Y9328397D01*
X49902753Y9525000D01*
X49902753Y9525001D01*
X50427247Y9525001D01*
X50446610Y9328401D01*
X50446610Y9328399D01*
X50503955Y9139357D01*
X50503956Y9139353D01*
X50503958Y9139350D01*
X50596934Y8965402D01*
X50597086Y8965119D01*
X50597089Y8965115D01*
X50722410Y8812411D01*
X50875114Y8687090D01*
X50875118Y8687087D01*
X50875122Y8687084D01*
X51048476Y8594425D01*
X51049352Y8593957D01*
X51049356Y8593956D01*
X51092593Y8580841D01*
X51238397Y8536611D01*
X51435000Y8517247D01*
X51631603Y8536611D01*
X51820650Y8593958D01*
X51994878Y8687084D01*
X52147589Y8812411D01*
X52272916Y8965122D01*
X52366042Y9139350D01*
X52423389Y9328397D01*
X52442753Y9525000D01*
X52967247Y9525000D01*
X52986610Y9328401D01*
X52986610Y9328399D01*
X53043955Y9139357D01*
X53043956Y9139353D01*
X53043958Y9139350D01*
X53136934Y8965402D01*
X53137086Y8965119D01*
X53137089Y8965115D01*
X53262410Y8812411D01*
X53415114Y8687090D01*
X53415118Y8687087D01*
X53415122Y8687084D01*
X53588476Y8594425D01*
X53589352Y8593957D01*
X53589356Y8593956D01*
X53632593Y8580841D01*
X53778397Y8536611D01*
X53975000Y8517247D01*
X54171603Y8536611D01*
X54360650Y8593958D01*
X54534878Y8687084D01*
X54687589Y8812411D01*
X54812916Y8965122D01*
X54906042Y9139350D01*
X54963389Y9328397D01*
X54982753Y9525000D01*
X54982753Y9525001D01*
X55507247Y9525001D01*
X55526610Y9328401D01*
X55526610Y9328399D01*
X55583955Y9139357D01*
X55583956Y9139353D01*
X55583958Y9139350D01*
X55676934Y8965402D01*
X55677086Y8965119D01*
X55677089Y8965115D01*
X55802410Y8812411D01*
X55955114Y8687090D01*
X55955118Y8687087D01*
X55955122Y8687084D01*
X56128476Y8594425D01*
X56129352Y8593957D01*
X56129356Y8593956D01*
X56172593Y8580841D01*
X56318397Y8536611D01*
X56515000Y8517247D01*
X56711603Y8536611D01*
X56900650Y8593958D01*
X57074878Y8687084D01*
X57227589Y8812411D01*
X57352916Y8965122D01*
X57446042Y9139350D01*
X57503389Y9328397D01*
X57522753Y9525000D01*
X57522753Y9525001D01*
X58047247Y9525001D01*
X58066610Y9328401D01*
X58066610Y9328399D01*
X58123955Y9139357D01*
X58123956Y9139353D01*
X58123958Y9139350D01*
X58216934Y8965402D01*
X58217086Y8965119D01*
X58217089Y8965115D01*
X58342410Y8812411D01*
X58495114Y8687090D01*
X58495118Y8687087D01*
X58495122Y8687084D01*
X58668476Y8594425D01*
X58669352Y8593957D01*
X58669356Y8593956D01*
X58712593Y8580841D01*
X58858397Y8536611D01*
X59055000Y8517247D01*
X59251603Y8536611D01*
X59440650Y8593958D01*
X59614878Y8687084D01*
X59767589Y8812411D01*
X59892916Y8965122D01*
X59986042Y9139350D01*
X60043389Y9328397D01*
X60062753Y9525000D01*
X60062753Y9525001D01*
X60587750Y9525001D01*
X60607103Y9328497D01*
X60664419Y9139549D01*
X60664424Y9139537D01*
X60757499Y8965407D01*
X60757503Y8965401D01*
X60785617Y8931144D01*
X61148856Y9294384D01*
X61213239Y9194202D01*
X61321900Y9100048D01*
X61365610Y9080087D01*
X61001142Y8715619D01*
X61035400Y8687504D01*
X61035406Y8687500D01*
X61209536Y8594425D01*
X61209548Y8594420D01*
X61398497Y8537104D01*
X61398496Y8537104D01*
X61595000Y8517751D01*
X61791503Y8537104D01*
X61980451Y8594420D01*
X61980454Y8594421D01*
X62154598Y8687503D01*
X62188856Y8715619D01*
X61824389Y9080086D01*
X61868100Y9100048D01*
X61976761Y9194202D01*
X62041142Y9294383D01*
X62404381Y8931144D01*
X62432497Y8965402D01*
X62525579Y9139546D01*
X62525580Y9139549D01*
X62582896Y9328497D01*
X62602249Y9525000D01*
X63127750Y9525000D01*
X63147103Y9328497D01*
X63204419Y9139549D01*
X63204424Y9139537D01*
X63297499Y8965407D01*
X63297503Y8965401D01*
X63325617Y8931144D01*
X63688856Y9294384D01*
X63753239Y9194202D01*
X63861900Y9100048D01*
X63905610Y9080087D01*
X63541142Y8715619D01*
X63575400Y8687504D01*
X63575406Y8687500D01*
X63749536Y8594425D01*
X63749548Y8594420D01*
X63938497Y8537104D01*
X63938496Y8537104D01*
X64134999Y8517751D01*
X64331503Y8537104D01*
X64520451Y8594420D01*
X64520454Y8594421D01*
X64694598Y8687503D01*
X64728856Y8715619D01*
X64364389Y9080086D01*
X64408100Y9100048D01*
X64516761Y9194202D01*
X64581142Y9294383D01*
X64944381Y8931144D01*
X64972497Y8965402D01*
X65065579Y9139546D01*
X65065580Y9139549D01*
X65122896Y9328497D01*
X65142249Y9525000D01*
X65122896Y9721504D01*
X65065580Y9910452D01*
X65065575Y9910464D01*
X64972500Y10084594D01*
X64972496Y10084600D01*
X64944381Y10118858D01*
X64581142Y9755619D01*
X64516761Y9855798D01*
X64408100Y9949952D01*
X64364388Y9969915D01*
X64728856Y10334383D01*
X64694599Y10362497D01*
X64694593Y10362501D01*
X64520463Y10455576D01*
X64520451Y10455581D01*
X64331502Y10512897D01*
X64331503Y10512897D01*
X64134999Y10532250D01*
X63938496Y10512897D01*
X63749548Y10455581D01*
X63749536Y10455576D01*
X63575411Y10362504D01*
X63575396Y10362494D01*
X63541142Y10334383D01*
X63905610Y9969915D01*
X63861900Y9949952D01*
X63753239Y9855798D01*
X63688857Y9755619D01*
X63325617Y10118858D01*
X63297506Y10084604D01*
X63297496Y10084589D01*
X63204424Y9910464D01*
X63204419Y9910452D01*
X63147103Y9721504D01*
X63127750Y9525000D01*
X62602249Y9525000D01*
X62602249Y9525001D01*
X62582896Y9721504D01*
X62525580Y9910452D01*
X62525575Y9910464D01*
X62432500Y10084594D01*
X62432496Y10084600D01*
X62404381Y10118858D01*
X62041142Y9755619D01*
X61976761Y9855798D01*
X61868100Y9949952D01*
X61824388Y9969915D01*
X62188856Y10334383D01*
X62154599Y10362497D01*
X62154593Y10362501D01*
X61980463Y10455576D01*
X61980451Y10455581D01*
X61791502Y10512897D01*
X61791503Y10512897D01*
X61595000Y10532250D01*
X61398496Y10512897D01*
X61209548Y10455581D01*
X61209536Y10455576D01*
X61035411Y10362504D01*
X61035396Y10362494D01*
X61001142Y10334383D01*
X61365610Y9969915D01*
X61321900Y9949952D01*
X61213239Y9855798D01*
X61148857Y9755619D01*
X60785617Y10118858D01*
X60757506Y10084604D01*
X60757496Y10084589D01*
X60664424Y9910464D01*
X60664419Y9910452D01*
X60607103Y9721504D01*
X60587750Y9525001D01*
X60062753Y9525001D01*
X60043389Y9721603D01*
X59986102Y9910452D01*
X59986044Y9910644D01*
X59986043Y9910648D01*
X59986042Y9910650D01*
X59892916Y10084878D01*
X59892913Y10084882D01*
X59892910Y10084886D01*
X59767589Y10237590D01*
X59614885Y10362911D01*
X59614881Y10362914D01*
X59614879Y10362915D01*
X59614878Y10362916D01*
X59527764Y10409480D01*
X59440647Y10456044D01*
X59440643Y10456045D01*
X59251600Y10513390D01*
X59055000Y10532753D01*
X58858400Y10513390D01*
X58858398Y10513390D01*
X58669356Y10456045D01*
X58669352Y10456044D01*
X58495118Y10362914D01*
X58495114Y10362911D01*
X58342410Y10237590D01*
X58217089Y10084886D01*
X58217086Y10084882D01*
X58123956Y9910648D01*
X58123955Y9910644D01*
X58066610Y9721602D01*
X58066610Y9721600D01*
X58047247Y9525001D01*
X57522753Y9525001D01*
X57503389Y9721603D01*
X57446102Y9910452D01*
X57446044Y9910644D01*
X57446043Y9910648D01*
X57446042Y9910650D01*
X57352916Y10084878D01*
X57352913Y10084882D01*
X57352910Y10084886D01*
X57227589Y10237590D01*
X57074885Y10362911D01*
X57074881Y10362914D01*
X57074879Y10362915D01*
X57074878Y10362916D01*
X56987764Y10409480D01*
X56900647Y10456044D01*
X56900643Y10456045D01*
X56711600Y10513390D01*
X56539112Y10530379D01*
X56515000Y10532753D01*
X56514999Y10532753D01*
X56318400Y10513390D01*
X56318398Y10513390D01*
X56129356Y10456045D01*
X56129352Y10456044D01*
X55955118Y10362914D01*
X55955114Y10362911D01*
X55802410Y10237590D01*
X55677089Y10084886D01*
X55677086Y10084882D01*
X55583956Y9910648D01*
X55583955Y9910644D01*
X55526610Y9721602D01*
X55526610Y9721600D01*
X55507247Y9525001D01*
X54982753Y9525001D01*
X54963389Y9721603D01*
X54906102Y9910452D01*
X54906044Y9910644D01*
X54906043Y9910648D01*
X54906042Y9910650D01*
X54812916Y10084878D01*
X54812913Y10084882D01*
X54812910Y10084886D01*
X54687589Y10237590D01*
X54534885Y10362911D01*
X54534881Y10362914D01*
X54534879Y10362915D01*
X54534878Y10362916D01*
X54447764Y10409480D01*
X54360647Y10456044D01*
X54360643Y10456045D01*
X54171600Y10513390D01*
X53999112Y10530379D01*
X53975000Y10532753D01*
X53974999Y10532753D01*
X53778400Y10513390D01*
X53778398Y10513390D01*
X53589356Y10456045D01*
X53589352Y10456044D01*
X53415118Y10362914D01*
X53415114Y10362911D01*
X53262410Y10237590D01*
X53137089Y10084886D01*
X53137086Y10084882D01*
X53043956Y9910648D01*
X53043955Y9910644D01*
X52986610Y9721602D01*
X52986610Y9721600D01*
X52967247Y9525000D01*
X52442753Y9525000D01*
X52423389Y9721603D01*
X52366102Y9910452D01*
X52366044Y9910644D01*
X52366043Y9910648D01*
X52366042Y9910650D01*
X52272916Y10084878D01*
X52272913Y10084882D01*
X52272910Y10084886D01*
X52147589Y10237590D01*
X51994885Y10362911D01*
X51994881Y10362914D01*
X51994879Y10362915D01*
X51994878Y10362916D01*
X51907764Y10409480D01*
X51820647Y10456044D01*
X51820643Y10456045D01*
X51631600Y10513390D01*
X51435000Y10532753D01*
X51238400Y10513390D01*
X51238398Y10513390D01*
X51049356Y10456045D01*
X51049352Y10456044D01*
X50875118Y10362914D01*
X50875114Y10362911D01*
X50722410Y10237590D01*
X50597089Y10084886D01*
X50597086Y10084882D01*
X50503956Y9910648D01*
X50503955Y9910644D01*
X50446610Y9721602D01*
X50446610Y9721600D01*
X50427247Y9525001D01*
X49902753Y9525001D01*
X49883389Y9721603D01*
X49826102Y9910452D01*
X49826044Y9910644D01*
X49826043Y9910648D01*
X49826042Y9910650D01*
X49732916Y10084878D01*
X49732913Y10084882D01*
X49732910Y10084886D01*
X49607589Y10237590D01*
X49454885Y10362911D01*
X49454881Y10362914D01*
X49454879Y10362915D01*
X49454878Y10362916D01*
X49280650Y10456042D01*
X49215569Y10475785D01*
X49174421Y10506652D01*
X49162200Y10547746D01*
X49162200Y11396277D01*
X49163645Y11410949D01*
X49167435Y11430000D01*
X49146697Y11534257D01*
X49146696Y11534259D01*
X49146695Y11534261D01*
X49102548Y11600330D01*
X49087641Y11622641D01*
X49087639Y11622642D01*
X49087639Y11622643D01*
X49071482Y11633439D01*
X49060087Y11642791D01*
X45932788Y14770090D01*
X45923435Y14781487D01*
X45912641Y14797642D01*
X45877747Y14820957D01*
X45824259Y14856696D01*
X45824255Y14856698D01*
X45745887Y14872287D01*
X45720000Y14877436D01*
X45719999Y14877436D01*
X45700942Y14873645D01*
X45686271Y14872200D01*
X40473244Y14872200D01*
X40424906Y14889793D01*
X40416415Y14898151D01*
X40337716Y14988974D01*
X40216060Y15067158D01*
X40216059Y15067159D01*
X40216058Y15067159D01*
X40077308Y15107900D01*
X40077306Y15107900D01*
X39932694Y15107900D01*
X39932691Y15107900D01*
X39793941Y15067159D01*
X39672284Y14988974D01*
X39577581Y14879682D01*
X39517510Y14748146D01*
X39517510Y14748144D01*
X39517509Y14748142D01*
X39517509Y14748140D01*
X39496929Y14605000D01*
X39517509Y14461860D01*
X39517509Y14461859D01*
X39517510Y14461857D01*
X39517510Y14461855D01*
X39577581Y14330319D01*
X39577582Y14330318D01*
X39577583Y14330316D01*
X39672284Y14221026D01*
X39793940Y14142842D01*
X39932694Y14102100D01*
X39932697Y14102100D01*
X40077303Y14102100D01*
X40077306Y14102100D01*
X40216060Y14142842D01*
X40337716Y14221026D01*
X40416413Y14311847D01*
X40461363Y14336855D01*
X40473244Y14337800D01*
X45578174Y14337800D01*
X45626512Y14320207D01*
X45631348Y14315774D01*
X48605774Y11341348D01*
X48627514Y11294728D01*
X48627800Y11288174D01*
X48627800Y10547746D01*
X48610207Y10499408D01*
X48574430Y10475785D01*
X48555571Y10470064D01*
X48509349Y10456042D01*
X48335118Y10362914D01*
X48335114Y10362911D01*
X48182410Y10237590D01*
X48057089Y10084886D01*
X48057083Y10084878D01*
X48024289Y10023524D01*
X47985987Y9989188D01*
X47934574Y9987506D01*
X47904795Y10005800D01*
X44410506Y13500090D01*
X44401153Y13511487D01*
X44390359Y13527642D01*
X44355465Y13550957D01*
X44301977Y13586696D01*
X44301973Y13586698D01*
X44223605Y13602287D01*
X44197718Y13607436D01*
X44197717Y13607436D01*
X44178660Y13603645D01*
X44163989Y13602200D01*
X32853244Y13602200D01*
X32804906Y13619793D01*
X32796415Y13628151D01*
X32717716Y13718974D01*
X32596060Y13797158D01*
X32596059Y13797159D01*
X32596058Y13797159D01*
X32457308Y13837900D01*
X32457306Y13837900D01*
X32312694Y13837900D01*
X32312691Y13837900D01*
X32173941Y13797159D01*
X32052284Y13718974D01*
X31957581Y13609682D01*
X31897510Y13478146D01*
X31897510Y13478144D01*
X31897509Y13478142D01*
X31897509Y13478140D01*
X31876929Y13335000D01*
X1930500Y13335000D01*
X1930500Y27305000D01*
X14096929Y27305000D01*
X14117509Y27161860D01*
X14117509Y27161859D01*
X14117510Y27161857D01*
X14117510Y27161855D01*
X14177581Y27030319D01*
X14177582Y27030318D01*
X14177583Y27030316D01*
X14272284Y26921026D01*
X14393940Y26842842D01*
X14532694Y26802100D01*
X14532697Y26802100D01*
X14677304Y26802100D01*
X14677306Y26802100D01*
X14677307Y26802101D01*
X14682631Y26802866D01*
X14682898Y26801004D01*
X14726560Y26798243D01*
X14749606Y26782516D01*
X19472209Y22059913D01*
X19481561Y22048518D01*
X19492357Y22032361D01*
X19492358Y22032361D01*
X19492359Y22032359D01*
X19514669Y22017453D01*
X19514670Y22017451D01*
X19547707Y21995377D01*
X19580744Y21973303D01*
X19685000Y21952564D01*
X19704057Y21956355D01*
X19718729Y21957800D01*
X53306271Y21957800D01*
X53320942Y21956355D01*
X53340000Y21952564D01*
X53444257Y21973303D01*
X53510329Y22017451D01*
X53510328Y22017451D01*
X53532641Y22032359D01*
X53532642Y22032361D01*
X53533027Y22032618D01*
X53533943Y22034308D01*
X53543437Y22048519D01*
X53552784Y22059908D01*
X57355089Y25862214D01*
X57366478Y25871561D01*
X57382641Y25882359D01*
X57435149Y25960944D01*
X57441697Y25970743D01*
X57462435Y26075000D01*
X57458645Y26094054D01*
X57457200Y26108725D01*
X57457200Y29846277D01*
X57458645Y29860949D01*
X57462435Y29880000D01*
X57441697Y29984257D01*
X57419256Y30017842D01*
X57382641Y30072641D01*
X57382640Y30072643D01*
X57366479Y30083441D01*
X57355084Y30092793D01*
X56802788Y30645090D01*
X56793435Y30656487D01*
X56782642Y30672641D01*
X56758216Y30688961D01*
X56733791Y30705281D01*
X56714024Y30718489D01*
X56694258Y30731697D01*
X56694255Y30731698D01*
X56590000Y30752436D01*
X56570942Y30748645D01*
X56556271Y30747200D01*
X55713244Y30747200D01*
X55664906Y30764793D01*
X55656415Y30773151D01*
X55577716Y30863974D01*
X55456060Y30942158D01*
X55456059Y30942159D01*
X55456058Y30942159D01*
X55317308Y30982900D01*
X55317306Y30982900D01*
X55172694Y30982900D01*
X55172691Y30982900D01*
X55033941Y30942159D01*
X54912284Y30863974D01*
X54817581Y30754682D01*
X54757510Y30623146D01*
X54757510Y30623144D01*
X54757509Y30623142D01*
X54757509Y30623140D01*
X54736929Y30480000D01*
X54757509Y30336860D01*
X54757509Y30336859D01*
X54757510Y30336857D01*
X54757510Y30336855D01*
X54817581Y30205319D01*
X54817582Y30205318D01*
X54817583Y30205316D01*
X54912284Y30096026D01*
X55033940Y30017842D01*
X55172694Y29977100D01*
X55172697Y29977100D01*
X55317303Y29977100D01*
X55317306Y29977100D01*
X55456060Y30017842D01*
X55577716Y30096026D01*
X55656413Y30186847D01*
X55701363Y30211855D01*
X55713244Y30212800D01*
X56448174Y30212800D01*
X56496512Y30195207D01*
X56501348Y30190774D01*
X56900773Y29791349D01*
X56922513Y29744729D01*
X56922799Y29738175D01*
X56922799Y26216827D01*
X56905206Y26168489D01*
X56900773Y26163653D01*
X53251348Y22514226D01*
X53204728Y22492486D01*
X53198174Y22492200D01*
X19826826Y22492200D01*
X19778488Y22509793D01*
X19773652Y22514226D01*
X15123322Y27164556D01*
X15101582Y27211176D01*
X15102062Y27228433D01*
X15113071Y27305000D01*
X21716929Y27305000D01*
X21737509Y27161860D01*
X21737509Y27161859D01*
X21737510Y27161857D01*
X21737510Y27161855D01*
X21797581Y27030319D01*
X21797582Y27030318D01*
X21797583Y27030316D01*
X21892284Y26921026D01*
X21923255Y26901122D01*
X21954408Y26860190D01*
X21957800Y26837860D01*
X21957800Y25433729D01*
X21956355Y25419058D01*
X21952564Y25400001D01*
X21973302Y25295745D01*
X21973304Y25295741D01*
X22009042Y25242254D01*
X22032358Y25207359D01*
X22048513Y25196565D01*
X22059910Y25187212D01*
X23917209Y23329913D01*
X23926561Y23318518D01*
X23937357Y23302361D01*
X23937358Y23302361D01*
X23937359Y23302359D01*
X23959669Y23287453D01*
X23959670Y23287451D01*
X23992707Y23265377D01*
X24025744Y23243303D01*
X24130000Y23222564D01*
X24149057Y23226355D01*
X24163729Y23227800D01*
X51401271Y23227800D01*
X51415942Y23226355D01*
X51435000Y23222564D01*
X51539257Y23243303D01*
X51605329Y23287451D01*
X51605328Y23287451D01*
X51627641Y23302359D01*
X51627642Y23302361D01*
X51628027Y23302618D01*
X51628943Y23304308D01*
X51638437Y23318519D01*
X51647784Y23329908D01*
X51925393Y23607517D01*
X51972012Y23629256D01*
X51992280Y23627239D01*
X51992371Y23627865D01*
X51997691Y23627100D01*
X51997694Y23627100D01*
X52142303Y23627100D01*
X52142306Y23627100D01*
X52281060Y23667842D01*
X52402716Y23746026D01*
X52497417Y23855316D01*
X52557491Y23986860D01*
X52578071Y24130000D01*
X52557491Y24273140D01*
X52557489Y24273145D01*
X52557489Y24273146D01*
X52497418Y24404682D01*
X52497417Y24404683D01*
X52497417Y24404684D01*
X52402716Y24513974D01*
X52281060Y24592158D01*
X52281059Y24592159D01*
X52281058Y24592159D01*
X52142308Y24632900D01*
X52142306Y24632900D01*
X51997694Y24632900D01*
X51997691Y24632900D01*
X51858941Y24592159D01*
X51737284Y24513974D01*
X51642581Y24404682D01*
X51582510Y24273146D01*
X51582510Y24273144D01*
X51561929Y24130000D01*
X51572937Y24053432D01*
X51562401Y24003083D01*
X51551677Y23989557D01*
X51346348Y23784226D01*
X51299727Y23762486D01*
X51293173Y23762200D01*
X24271826Y23762200D01*
X24223488Y23779793D01*
X24218652Y23784226D01*
X22514226Y25488652D01*
X22492486Y25535272D01*
X22492200Y25541826D01*
X22492200Y26185678D01*
X22492200Y26837863D01*
X22509792Y26886198D01*
X22526738Y26901119D01*
X22557716Y26921026D01*
X22652417Y27030316D01*
X22712491Y27161860D01*
X22733071Y27305000D01*
X29336929Y27305000D01*
X29357509Y27161860D01*
X29357509Y27161859D01*
X29357510Y27161857D01*
X29357510Y27161855D01*
X29417581Y27030319D01*
X29417582Y27030318D01*
X29417583Y27030316D01*
X29512284Y26921026D01*
X29543255Y26901122D01*
X29574408Y26860190D01*
X29577800Y26837860D01*
X29577800Y26703729D01*
X29576355Y26689058D01*
X29572564Y26670001D01*
X29572564Y26670000D01*
X29593302Y26565747D01*
X29593303Y26565742D01*
X29594929Y26563310D01*
X29594931Y26563303D01*
X29594933Y26563304D01*
X29652360Y26477358D01*
X29668513Y26466565D01*
X29679910Y26457212D01*
X31518908Y24618215D01*
X31528260Y24606820D01*
X31539058Y24590659D01*
X31551992Y24582017D01*
X31603256Y24547765D01*
X31603257Y24547763D01*
X31627440Y24531604D01*
X31627442Y24531603D01*
X31627444Y24531602D01*
X31731701Y24510864D01*
X31750755Y24514654D01*
X31765426Y24516099D01*
X50784570Y24516099D01*
X50799241Y24514654D01*
X50818299Y24510863D01*
X50922556Y24531602D01*
X50988628Y24575750D01*
X50988627Y24575750D01*
X51010940Y24590658D01*
X51010941Y24590660D01*
X51011326Y24590917D01*
X51012242Y24592607D01*
X51021736Y24606818D01*
X51031083Y24618207D01*
X55100393Y28687517D01*
X55147012Y28709256D01*
X55167280Y28707239D01*
X55167371Y28707865D01*
X55172691Y28707100D01*
X55172694Y28707100D01*
X55317303Y28707100D01*
X55317306Y28707100D01*
X55456060Y28747842D01*
X55577716Y28826026D01*
X55672417Y28935316D01*
X55732491Y29066860D01*
X55753071Y29210000D01*
X55732491Y29353140D01*
X55732489Y29353145D01*
X55732489Y29353146D01*
X55672418Y29484682D01*
X55672417Y29484683D01*
X55672417Y29484684D01*
X55577716Y29593974D01*
X55456060Y29672158D01*
X55456059Y29672159D01*
X55456058Y29672159D01*
X55317308Y29712900D01*
X55317306Y29712900D01*
X55172694Y29712900D01*
X55172691Y29712900D01*
X55033941Y29672159D01*
X54912284Y29593974D01*
X54817581Y29484682D01*
X54757510Y29353146D01*
X54757510Y29353144D01*
X54736929Y29210000D01*
X54747937Y29133431D01*
X54737401Y29083082D01*
X54726676Y29069556D01*
X51927506Y26270386D01*
X51880886Y26248646D01*
X51831199Y26261960D01*
X51805928Y26292321D01*
X51743843Y26428267D01*
X51743842Y26428268D01*
X51743842Y26428269D01*
X51649141Y26537559D01*
X51527485Y26615743D01*
X51527484Y26615744D01*
X51527483Y26615744D01*
X51388733Y26656485D01*
X51388731Y26656485D01*
X51244119Y26656485D01*
X51244116Y26656485D01*
X51105366Y26615744D01*
X51027570Y26565747D01*
X50983709Y26537559D01*
X50905011Y26446739D01*
X50860062Y26421730D01*
X50848181Y26420785D01*
X38758241Y26420785D01*
X38709903Y26438378D01*
X38705067Y26442811D01*
X37983322Y27164556D01*
X37961582Y27211176D01*
X37962062Y27228433D01*
X37973071Y27304997D01*
X37973071Y27305000D01*
X37952491Y27448140D01*
X37952489Y27448145D01*
X37952489Y27448146D01*
X37892418Y27579682D01*
X37892417Y27579683D01*
X37892417Y27579684D01*
X37797716Y27688974D01*
X37766742Y27708880D01*
X37735591Y27749813D01*
X37732200Y27772141D01*
X37732200Y30647860D01*
X37749793Y30696198D01*
X37766744Y30711122D01*
X37797716Y30731026D01*
X37892417Y30840316D01*
X37952491Y30971860D01*
X37973071Y31115000D01*
X37952491Y31258140D01*
X37952489Y31258145D01*
X37952489Y31258146D01*
X37892418Y31389682D01*
X37892417Y31389683D01*
X37892417Y31389684D01*
X37797716Y31498974D01*
X37766742Y31518880D01*
X37735591Y31559813D01*
X37732200Y31582141D01*
X37732200Y34457860D01*
X37749793Y34506198D01*
X37766744Y34521122D01*
X37797716Y34541026D01*
X37892417Y34650316D01*
X37952491Y34781860D01*
X37973071Y34925000D01*
X37952491Y35068140D01*
X37952489Y35068145D01*
X37952489Y35068146D01*
X37892418Y35199682D01*
X37892417Y35199683D01*
X37892417Y35199684D01*
X37797716Y35308974D01*
X37676060Y35387158D01*
X37676059Y35387159D01*
X37676058Y35387159D01*
X37537308Y35427900D01*
X37537306Y35427900D01*
X37392694Y35427900D01*
X37392691Y35427900D01*
X37253941Y35387159D01*
X37132284Y35308974D01*
X37037581Y35199682D01*
X36977510Y35068146D01*
X36977510Y35068144D01*
X36977509Y35068142D01*
X36977509Y35068140D01*
X36956929Y34925000D01*
X36977509Y34781860D01*
X36977509Y34781859D01*
X36977510Y34781857D01*
X36977510Y34781855D01*
X37037581Y34650319D01*
X37037582Y34650318D01*
X37037583Y34650316D01*
X37132284Y34541026D01*
X37163255Y34521122D01*
X37194408Y34480190D01*
X37197800Y34457860D01*
X37197800Y31582141D01*
X37180207Y31533803D01*
X37163258Y31518881D01*
X37132284Y31498975D01*
X37132284Y31498974D01*
X37037581Y31389682D01*
X36977510Y31258146D01*
X36977510Y31258144D01*
X36977509Y31258142D01*
X36977509Y31258140D01*
X36956929Y31115000D01*
X36977509Y30971860D01*
X36977509Y30971859D01*
X36977510Y30971857D01*
X36977510Y30971855D01*
X37037581Y30840319D01*
X37037582Y30840318D01*
X37037583Y30840316D01*
X37132284Y30731026D01*
X37163255Y30711122D01*
X37194408Y30670190D01*
X37197800Y30647860D01*
X37197800Y27772141D01*
X37180207Y27723803D01*
X37163258Y27708881D01*
X37132284Y27688975D01*
X37132284Y27688974D01*
X37037581Y27579682D01*
X36977510Y27448146D01*
X36977510Y27448144D01*
X36977509Y27448142D01*
X36977509Y27448140D01*
X36956929Y27305000D01*
X36977509Y27161860D01*
X36977509Y27161859D01*
X36977510Y27161857D01*
X36977510Y27161855D01*
X37037581Y27030319D01*
X37037582Y27030318D01*
X37037583Y27030316D01*
X37132284Y26921026D01*
X37253940Y26842842D01*
X37392694Y26802100D01*
X37392697Y26802100D01*
X37537304Y26802100D01*
X37537306Y26802100D01*
X37537307Y26802101D01*
X37542631Y26802866D01*
X37542898Y26801004D01*
X37586560Y26798243D01*
X37609606Y26782516D01*
X38403624Y25988498D01*
X38412976Y25977103D01*
X38423772Y25960946D01*
X38423773Y25960946D01*
X38423774Y25960944D01*
X38446084Y25946038D01*
X38446085Y25946036D01*
X38479122Y25923962D01*
X38512159Y25901888D01*
X38616415Y25881149D01*
X38635472Y25884940D01*
X38650144Y25886385D01*
X50848181Y25886385D01*
X50896519Y25868792D01*
X50905009Y25860435D01*
X50983709Y25769611D01*
X51105365Y25691427D01*
X51171742Y25671937D01*
X51213165Y25641438D01*
X51225293Y25591448D01*
X51203730Y25546609D01*
X50729647Y25072525D01*
X50683027Y25050785D01*
X50676473Y25050499D01*
X31873526Y25050499D01*
X31825188Y25068092D01*
X31820352Y25072525D01*
X30134226Y26758652D01*
X30112486Y26805272D01*
X30112200Y26811826D01*
X30112200Y26837860D01*
X30129793Y26886198D01*
X30146742Y26901121D01*
X30177716Y26921026D01*
X30272417Y27030316D01*
X30332491Y27161860D01*
X30353071Y27305000D01*
X30332491Y27448140D01*
X30332489Y27448145D01*
X30332489Y27448146D01*
X30272418Y27579682D01*
X30272417Y27579683D01*
X30272417Y27579684D01*
X30177716Y27688974D01*
X30146742Y27708880D01*
X30115591Y27749813D01*
X30112200Y27772141D01*
X30112200Y30647860D01*
X30129793Y30696198D01*
X30146744Y30711122D01*
X30177716Y30731026D01*
X30272417Y30840316D01*
X30332491Y30971860D01*
X30353071Y31115000D01*
X30332491Y31258140D01*
X30332489Y31258145D01*
X30332489Y31258146D01*
X30272418Y31389682D01*
X30272417Y31389683D01*
X30272417Y31389684D01*
X30177716Y31498974D01*
X30146742Y31518880D01*
X30115591Y31559813D01*
X30112200Y31582141D01*
X30112200Y34457860D01*
X30129793Y34506198D01*
X30146744Y34521122D01*
X30177716Y34541026D01*
X30272417Y34650316D01*
X30332491Y34781860D01*
X30353071Y34925000D01*
X30332491Y35068140D01*
X30332489Y35068145D01*
X30332489Y35068146D01*
X30272418Y35199682D01*
X30272417Y35199683D01*
X30272417Y35199684D01*
X30177716Y35308974D01*
X30056060Y35387158D01*
X30056059Y35387159D01*
X30056058Y35387159D01*
X29917308Y35427900D01*
X29917306Y35427900D01*
X29772694Y35427900D01*
X29772691Y35427900D01*
X29633941Y35387159D01*
X29512284Y35308974D01*
X29417581Y35199682D01*
X29357510Y35068146D01*
X29357510Y35068144D01*
X29357509Y35068142D01*
X29357509Y35068140D01*
X29336929Y34925000D01*
X29357509Y34781860D01*
X29357509Y34781859D01*
X29357510Y34781857D01*
X29357510Y34781855D01*
X29417581Y34650319D01*
X29417582Y34650318D01*
X29417583Y34650316D01*
X29512284Y34541026D01*
X29543255Y34521122D01*
X29574408Y34480190D01*
X29577800Y34457860D01*
X29577800Y31582141D01*
X29560207Y31533803D01*
X29543258Y31518881D01*
X29512284Y31498975D01*
X29512284Y31498974D01*
X29417581Y31389682D01*
X29357510Y31258146D01*
X29357510Y31258144D01*
X29357509Y31258142D01*
X29357509Y31258140D01*
X29336929Y31115000D01*
X29357509Y30971860D01*
X29357509Y30971859D01*
X29357510Y30971857D01*
X29357510Y30971855D01*
X29417581Y30840319D01*
X29417582Y30840318D01*
X29417583Y30840316D01*
X29512284Y30731026D01*
X29543255Y30711122D01*
X29574408Y30670190D01*
X29577800Y30647860D01*
X29577800Y27772141D01*
X29560207Y27723803D01*
X29543258Y27708881D01*
X29512284Y27688975D01*
X29512284Y27688974D01*
X29417581Y27579682D01*
X29357510Y27448146D01*
X29357510Y27448144D01*
X29357509Y27448142D01*
X29357509Y27448140D01*
X29336929Y27305000D01*
X22733071Y27305000D01*
X22712491Y27448140D01*
X22712489Y27448145D01*
X22712489Y27448146D01*
X22652418Y27579682D01*
X22652417Y27579683D01*
X22652417Y27579684D01*
X22557716Y27688974D01*
X22526742Y27708880D01*
X22495591Y27749813D01*
X22492200Y27772141D01*
X22492200Y30647860D01*
X22509793Y30696198D01*
X22526744Y30711122D01*
X22557716Y30731026D01*
X22652417Y30840316D01*
X22712491Y30971860D01*
X22733071Y31115000D01*
X22712491Y31258140D01*
X22712489Y31258145D01*
X22712489Y31258146D01*
X22652418Y31389682D01*
X22652417Y31389683D01*
X22652417Y31389684D01*
X22557716Y31498974D01*
X22526742Y31518880D01*
X22495591Y31559813D01*
X22492200Y31582141D01*
X22492200Y34457860D01*
X22509793Y34506198D01*
X22526744Y34521122D01*
X22557716Y34541026D01*
X22652417Y34650316D01*
X22712491Y34781860D01*
X22733071Y34925000D01*
X22712491Y35068140D01*
X22712489Y35068145D01*
X22712489Y35068146D01*
X22652418Y35199682D01*
X22652417Y35199683D01*
X22652417Y35199684D01*
X22557716Y35308974D01*
X22436060Y35387158D01*
X22436059Y35387159D01*
X22436058Y35387159D01*
X22297308Y35427900D01*
X22297306Y35427900D01*
X22152694Y35427900D01*
X22152691Y35427900D01*
X22013941Y35387159D01*
X21892284Y35308974D01*
X21797581Y35199682D01*
X21737510Y35068146D01*
X21737510Y35068144D01*
X21737509Y35068142D01*
X21737509Y35068140D01*
X21716929Y34925000D01*
X21737509Y34781860D01*
X21737509Y34781859D01*
X21737510Y34781857D01*
X21737510Y34781855D01*
X21797581Y34650319D01*
X21797582Y34650318D01*
X21797583Y34650316D01*
X21892284Y34541026D01*
X21892285Y34541026D01*
X21892286Y34541024D01*
X21923255Y34521122D01*
X21954408Y34480189D01*
X21957799Y34457860D01*
X21957800Y31582141D01*
X21940207Y31533803D01*
X21923258Y31518881D01*
X21892284Y31498975D01*
X21892284Y31498974D01*
X21797581Y31389682D01*
X21737510Y31258146D01*
X21737510Y31258144D01*
X21737509Y31258142D01*
X21737509Y31258140D01*
X21716929Y31115000D01*
X21737509Y30971860D01*
X21737509Y30971859D01*
X21737510Y30971857D01*
X21737510Y30971855D01*
X21797581Y30840319D01*
X21797582Y30840318D01*
X21797583Y30840316D01*
X21892284Y30731026D01*
X21892285Y30731026D01*
X21892286Y30731024D01*
X21923255Y30711122D01*
X21954408Y30670189D01*
X21957799Y30647860D01*
X21957800Y27772141D01*
X21940207Y27723803D01*
X21923258Y27708881D01*
X21892284Y27688975D01*
X21892284Y27688974D01*
X21797581Y27579682D01*
X21737510Y27448146D01*
X21737510Y27448144D01*
X21737509Y27448142D01*
X21737509Y27448140D01*
X21716929Y27305000D01*
X15113071Y27305000D01*
X15092491Y27448140D01*
X15092489Y27448145D01*
X15092489Y27448146D01*
X15032418Y27579682D01*
X15032417Y27579683D01*
X15032417Y27579684D01*
X14937716Y27688974D01*
X14906742Y27708880D01*
X14875591Y27749813D01*
X14872200Y27772141D01*
X14872200Y30647860D01*
X14889793Y30696198D01*
X14906744Y30711122D01*
X14937716Y30731026D01*
X15032417Y30840316D01*
X15092491Y30971860D01*
X15113071Y31115000D01*
X15092491Y31258140D01*
X15092489Y31258145D01*
X15092489Y31258146D01*
X15032418Y31389682D01*
X15032417Y31389683D01*
X15032417Y31389684D01*
X14937716Y31498974D01*
X14906742Y31518880D01*
X14875591Y31559813D01*
X14872200Y31582141D01*
X14872200Y34457860D01*
X14889793Y34506198D01*
X14906744Y34521122D01*
X14937716Y34541026D01*
X15032417Y34650316D01*
X15092491Y34781860D01*
X15113071Y34925000D01*
X15092491Y35068140D01*
X15092489Y35068145D01*
X15092489Y35068146D01*
X15032418Y35199682D01*
X15032417Y35199683D01*
X15032417Y35199684D01*
X14937716Y35308974D01*
X14816060Y35387158D01*
X14816059Y35387159D01*
X14816058Y35387159D01*
X14677308Y35427900D01*
X14677306Y35427900D01*
X14532694Y35427900D01*
X14532691Y35427900D01*
X14393941Y35387159D01*
X14272284Y35308974D01*
X14177581Y35199682D01*
X14117510Y35068146D01*
X14117510Y35068144D01*
X14117509Y35068142D01*
X14117509Y35068140D01*
X14096929Y34925000D01*
X14117509Y34781860D01*
X14117509Y34781859D01*
X14117510Y34781857D01*
X14117510Y34781855D01*
X14177581Y34650319D01*
X14177582Y34650318D01*
X14177583Y34650316D01*
X14272284Y34541026D01*
X14303255Y34521122D01*
X14334408Y34480190D01*
X14337800Y34457860D01*
X14337800Y31582141D01*
X14320207Y31533803D01*
X14303258Y31518881D01*
X14272284Y31498975D01*
X14272284Y31498974D01*
X14177581Y31389682D01*
X14117510Y31258146D01*
X14117510Y31258144D01*
X14117509Y31258142D01*
X14117509Y31258140D01*
X14096929Y31115000D01*
X14117509Y30971860D01*
X14117509Y30971859D01*
X14117510Y30971857D01*
X14117510Y30971855D01*
X14177581Y30840319D01*
X14177582Y30840318D01*
X14177583Y30840316D01*
X14272284Y30731026D01*
X14303255Y30711122D01*
X14334408Y30670190D01*
X14337800Y30647860D01*
X14337800Y27772141D01*
X14320207Y27723803D01*
X14303258Y27708881D01*
X14272284Y27688975D01*
X14272284Y27688974D01*
X14177581Y27579682D01*
X14117510Y27448146D01*
X14117510Y27448144D01*
X14117509Y27448142D01*
X14117509Y27448140D01*
X14096929Y27305000D01*
X1930500Y27305000D01*
X1930500Y45085001D01*
X14867247Y45085001D01*
X14886610Y44888401D01*
X14886610Y44888399D01*
X14943955Y44699357D01*
X14943956Y44699353D01*
X14943958Y44699350D01*
X15036934Y44525402D01*
X15037086Y44525119D01*
X15037089Y44525115D01*
X15162410Y44372411D01*
X15315114Y44247090D01*
X15315118Y44247087D01*
X15315122Y44247084D01*
X15488476Y44154425D01*
X15489352Y44153957D01*
X15489356Y44153956D01*
X15532593Y44140841D01*
X15678397Y44096611D01*
X15875000Y44077247D01*
X16071603Y44096611D01*
X16260650Y44153958D01*
X16434878Y44247084D01*
X16587589Y44372411D01*
X16712916Y44525122D01*
X16806042Y44699350D01*
X16863389Y44888397D01*
X16882753Y45085000D01*
X16882753Y45085001D01*
X17407247Y45085001D01*
X17426610Y44888401D01*
X17426610Y44888399D01*
X17483955Y44699357D01*
X17483956Y44699353D01*
X17483958Y44699350D01*
X17576934Y44525402D01*
X17577086Y44525119D01*
X17577089Y44525115D01*
X17702410Y44372411D01*
X17855114Y44247090D01*
X17855118Y44247087D01*
X17855122Y44247084D01*
X18028476Y44154425D01*
X18029352Y44153957D01*
X18029356Y44153956D01*
X18072593Y44140841D01*
X18218397Y44096611D01*
X18415000Y44077247D01*
X18611603Y44096611D01*
X18800650Y44153958D01*
X18974878Y44247084D01*
X19127589Y44372411D01*
X19252916Y44525122D01*
X19346042Y44699350D01*
X19403389Y44888397D01*
X19422753Y45085000D01*
X19422753Y45085001D01*
X19947247Y45085001D01*
X19966610Y44888401D01*
X19966610Y44888399D01*
X20023955Y44699357D01*
X20023956Y44699353D01*
X20023958Y44699350D01*
X20116934Y44525402D01*
X20117086Y44525119D01*
X20117089Y44525115D01*
X20242410Y44372411D01*
X20395114Y44247090D01*
X20395118Y44247087D01*
X20395122Y44247084D01*
X20568476Y44154425D01*
X20569352Y44153957D01*
X20569356Y44153956D01*
X20612593Y44140841D01*
X20758397Y44096611D01*
X20955000Y44077247D01*
X21151603Y44096611D01*
X21340650Y44153958D01*
X21514878Y44247084D01*
X21667589Y44372411D01*
X21792916Y44525122D01*
X21886042Y44699350D01*
X21943389Y44888397D01*
X21962753Y45085000D01*
X21962753Y45085001D01*
X22487247Y45085001D01*
X22506610Y44888401D01*
X22506610Y44888399D01*
X22563955Y44699357D01*
X22563956Y44699353D01*
X22563958Y44699350D01*
X22656934Y44525402D01*
X22657086Y44525119D01*
X22657089Y44525115D01*
X22782410Y44372411D01*
X22935114Y44247090D01*
X22935118Y44247087D01*
X22935122Y44247084D01*
X23108476Y44154425D01*
X23109352Y44153957D01*
X23109356Y44153956D01*
X23152593Y44140841D01*
X23298397Y44096611D01*
X23495000Y44077247D01*
X23691603Y44096611D01*
X23880650Y44153958D01*
X24054878Y44247084D01*
X24207589Y44372411D01*
X24332916Y44525122D01*
X24426042Y44699350D01*
X24483389Y44888397D01*
X24502753Y45085000D01*
X24502753Y45085001D01*
X25027247Y45085001D01*
X25046610Y44888401D01*
X25046610Y44888399D01*
X25103955Y44699357D01*
X25103956Y44699353D01*
X25103958Y44699350D01*
X25196934Y44525402D01*
X25197086Y44525119D01*
X25197089Y44525115D01*
X25322410Y44372411D01*
X25475114Y44247090D01*
X25475118Y44247087D01*
X25475122Y44247084D01*
X25648476Y44154425D01*
X25649352Y44153957D01*
X25649356Y44153956D01*
X25692593Y44140841D01*
X25838397Y44096611D01*
X26035000Y44077247D01*
X26231603Y44096611D01*
X26420650Y44153958D01*
X26594878Y44247084D01*
X26747589Y44372411D01*
X26872916Y44525122D01*
X26966042Y44699350D01*
X27023389Y44888397D01*
X27042753Y45085000D01*
X27042753Y45085001D01*
X27567247Y45085001D01*
X27586610Y44888401D01*
X27586610Y44888399D01*
X27643955Y44699357D01*
X27643956Y44699353D01*
X27643958Y44699350D01*
X27736934Y44525402D01*
X27737086Y44525119D01*
X27737089Y44525115D01*
X27862410Y44372411D01*
X28015114Y44247090D01*
X28015118Y44247087D01*
X28015122Y44247084D01*
X28188476Y44154425D01*
X28189352Y44153957D01*
X28189356Y44153956D01*
X28232593Y44140841D01*
X28378397Y44096611D01*
X28575000Y44077247D01*
X28771603Y44096611D01*
X28960650Y44153958D01*
X29134878Y44247084D01*
X29287589Y44372411D01*
X29412916Y44525122D01*
X29506042Y44699350D01*
X29563389Y44888397D01*
X29582753Y45085000D01*
X30107247Y45085000D01*
X30126610Y44888401D01*
X30126610Y44888399D01*
X30183955Y44699357D01*
X30183956Y44699353D01*
X30183958Y44699350D01*
X30276934Y44525402D01*
X30277086Y44525119D01*
X30277089Y44525115D01*
X30402410Y44372411D01*
X30555114Y44247090D01*
X30555118Y44247087D01*
X30555122Y44247084D01*
X30728476Y44154425D01*
X30729352Y44153957D01*
X30729356Y44153956D01*
X30772593Y44140841D01*
X30918397Y44096611D01*
X31115000Y44077247D01*
X31311603Y44096611D01*
X31500650Y44153958D01*
X31674878Y44247084D01*
X31827589Y44372411D01*
X31952916Y44525122D01*
X32046042Y44699350D01*
X32103389Y44888397D01*
X32122753Y45085000D01*
X32122753Y45085001D01*
X32647247Y45085001D01*
X32666610Y44888401D01*
X32666610Y44888399D01*
X32723955Y44699357D01*
X32723956Y44699353D01*
X32723958Y44699350D01*
X32816934Y44525402D01*
X32817086Y44525119D01*
X32817089Y44525115D01*
X32942410Y44372411D01*
X33095114Y44247090D01*
X33095118Y44247087D01*
X33095122Y44247084D01*
X33268476Y44154425D01*
X33269352Y44153957D01*
X33269356Y44153956D01*
X33312593Y44140841D01*
X33458397Y44096611D01*
X33655000Y44077247D01*
X33851603Y44096611D01*
X34040650Y44153958D01*
X34214878Y44247084D01*
X34367589Y44372411D01*
X34492916Y44525122D01*
X34586042Y44699350D01*
X34643389Y44888397D01*
X34662753Y45085000D01*
X34662753Y45085001D01*
X35187247Y45085001D01*
X35206610Y44888401D01*
X35206610Y44888399D01*
X35263955Y44699357D01*
X35263956Y44699353D01*
X35263958Y44699350D01*
X35356934Y44525402D01*
X35357086Y44525119D01*
X35357089Y44525115D01*
X35482410Y44372411D01*
X35635114Y44247090D01*
X35635118Y44247087D01*
X35635122Y44247084D01*
X35808476Y44154425D01*
X35809352Y44153957D01*
X35809356Y44153956D01*
X35852593Y44140841D01*
X35998397Y44096611D01*
X36195000Y44077247D01*
X36391603Y44096611D01*
X36580650Y44153958D01*
X36754878Y44247084D01*
X36907589Y44372411D01*
X37032916Y44525122D01*
X37126042Y44699350D01*
X37183389Y44888397D01*
X37202753Y45085000D01*
X37202753Y45085001D01*
X37727247Y45085001D01*
X37746610Y44888401D01*
X37746610Y44888399D01*
X37803955Y44699357D01*
X37803956Y44699353D01*
X37803958Y44699350D01*
X37896934Y44525402D01*
X37897086Y44525119D01*
X37897089Y44525115D01*
X38022410Y44372411D01*
X38175114Y44247090D01*
X38175118Y44247087D01*
X38175122Y44247084D01*
X38348476Y44154425D01*
X38349352Y44153957D01*
X38349356Y44153956D01*
X38392593Y44140841D01*
X38538397Y44096611D01*
X38735000Y44077247D01*
X38931603Y44096611D01*
X39120650Y44153958D01*
X39294878Y44247084D01*
X39447589Y44372411D01*
X39572916Y44525122D01*
X39666042Y44699350D01*
X39723389Y44888397D01*
X39742753Y45085000D01*
X39742753Y45085001D01*
X40267247Y45085001D01*
X40286610Y44888401D01*
X40286610Y44888399D01*
X40343955Y44699357D01*
X40343956Y44699353D01*
X40343958Y44699350D01*
X40436934Y44525402D01*
X40437086Y44525119D01*
X40437089Y44525115D01*
X40562410Y44372411D01*
X40715114Y44247090D01*
X40715118Y44247087D01*
X40715122Y44247084D01*
X40888476Y44154425D01*
X40889352Y44153957D01*
X40889356Y44153956D01*
X40932593Y44140841D01*
X41078397Y44096611D01*
X41275000Y44077247D01*
X41471603Y44096611D01*
X41660650Y44153958D01*
X41834878Y44247084D01*
X41987589Y44372411D01*
X42112916Y44525122D01*
X42206042Y44699350D01*
X42263389Y44888397D01*
X42282753Y45085000D01*
X42282753Y45085001D01*
X42807247Y45085001D01*
X42826610Y44888401D01*
X42826610Y44888399D01*
X42883955Y44699357D01*
X42883956Y44699353D01*
X42883958Y44699350D01*
X42976934Y44525402D01*
X42977086Y44525119D01*
X42977089Y44525115D01*
X43102410Y44372411D01*
X43255114Y44247090D01*
X43255118Y44247087D01*
X43255122Y44247084D01*
X43428476Y44154425D01*
X43429352Y44153957D01*
X43429356Y44153956D01*
X43472593Y44140841D01*
X43618397Y44096611D01*
X43815000Y44077247D01*
X44011603Y44096611D01*
X44200650Y44153958D01*
X44374878Y44247084D01*
X44527589Y44372411D01*
X44652916Y44525122D01*
X44746042Y44699350D01*
X44803389Y44888397D01*
X44822753Y45085000D01*
X44822753Y45085001D01*
X45347247Y45085001D01*
X45366610Y44888401D01*
X45366610Y44888399D01*
X45423955Y44699357D01*
X45423956Y44699353D01*
X45423958Y44699350D01*
X45516934Y44525402D01*
X45517086Y44525119D01*
X45517089Y44525115D01*
X45642410Y44372411D01*
X45795114Y44247090D01*
X45795118Y44247087D01*
X45795122Y44247084D01*
X45968476Y44154425D01*
X45969352Y44153957D01*
X45969356Y44153956D01*
X46012593Y44140841D01*
X46158397Y44096611D01*
X46355000Y44077247D01*
X46551603Y44096611D01*
X46740650Y44153958D01*
X46914878Y44247084D01*
X47067589Y44372411D01*
X47192916Y44525122D01*
X47286042Y44699350D01*
X47343389Y44888397D01*
X47362753Y45085000D01*
X47887247Y45085000D01*
X47906610Y44888401D01*
X47906610Y44888399D01*
X47963955Y44699357D01*
X47963956Y44699353D01*
X47963958Y44699350D01*
X48056934Y44525402D01*
X48057086Y44525119D01*
X48057089Y44525115D01*
X48182410Y44372411D01*
X48335114Y44247090D01*
X48335118Y44247087D01*
X48335122Y44247084D01*
X48508476Y44154425D01*
X48509352Y44153957D01*
X48509356Y44153956D01*
X48552593Y44140841D01*
X48698397Y44096611D01*
X48895000Y44077247D01*
X49091603Y44096611D01*
X49280650Y44153958D01*
X49454878Y44247084D01*
X49607589Y44372411D01*
X49732916Y44525122D01*
X49826042Y44699350D01*
X49883389Y44888397D01*
X49902753Y45085000D01*
X49902753Y45085001D01*
X50427247Y45085001D01*
X50446610Y44888401D01*
X50446610Y44888399D01*
X50503955Y44699357D01*
X50503956Y44699353D01*
X50503958Y44699350D01*
X50596934Y44525402D01*
X50597086Y44525119D01*
X50597089Y44525115D01*
X50722410Y44372411D01*
X50875114Y44247090D01*
X50875118Y44247087D01*
X50875122Y44247084D01*
X51048476Y44154425D01*
X51049352Y44153957D01*
X51049356Y44153956D01*
X51092593Y44140841D01*
X51238397Y44096611D01*
X51435000Y44077247D01*
X51631603Y44096611D01*
X51820650Y44153958D01*
X51994878Y44247084D01*
X52147589Y44372411D01*
X52272916Y44525122D01*
X52366042Y44699350D01*
X52423389Y44888397D01*
X52442753Y45085000D01*
X52442753Y45085001D01*
X52967247Y45085001D01*
X52986610Y44888401D01*
X52986610Y44888399D01*
X53043955Y44699357D01*
X53043956Y44699353D01*
X53043958Y44699350D01*
X53136934Y44525402D01*
X53137086Y44525119D01*
X53137089Y44525115D01*
X53262410Y44372411D01*
X53415114Y44247090D01*
X53415118Y44247087D01*
X53415122Y44247084D01*
X53588476Y44154425D01*
X53589352Y44153957D01*
X53589356Y44153956D01*
X53632593Y44140841D01*
X53778397Y44096611D01*
X53975000Y44077247D01*
X54171603Y44096611D01*
X54360650Y44153958D01*
X54534878Y44247084D01*
X54687589Y44372411D01*
X54812916Y44525122D01*
X54906042Y44699350D01*
X54963389Y44888397D01*
X54982753Y45085000D01*
X54982753Y45085001D01*
X55507247Y45085001D01*
X55526610Y44888401D01*
X55526610Y44888399D01*
X55583955Y44699357D01*
X55583956Y44699353D01*
X55583958Y44699350D01*
X55676934Y44525402D01*
X55677086Y44525119D01*
X55677089Y44525115D01*
X55802410Y44372411D01*
X55955114Y44247090D01*
X55955118Y44247087D01*
X55955122Y44247084D01*
X56128476Y44154425D01*
X56129352Y44153957D01*
X56129356Y44153956D01*
X56172593Y44140841D01*
X56318397Y44096611D01*
X56515000Y44077247D01*
X56711603Y44096611D01*
X56900650Y44153958D01*
X57074878Y44247084D01*
X57227589Y44372411D01*
X57352916Y44525122D01*
X57446042Y44699350D01*
X57503389Y44888397D01*
X57522753Y45085000D01*
X57522753Y45085001D01*
X58047247Y45085001D01*
X58066610Y44888401D01*
X58066610Y44888399D01*
X58123955Y44699357D01*
X58123956Y44699353D01*
X58123958Y44699350D01*
X58216934Y44525402D01*
X58217086Y44525119D01*
X58217089Y44525115D01*
X58342410Y44372411D01*
X58495114Y44247090D01*
X58495118Y44247087D01*
X58495122Y44247084D01*
X58668476Y44154425D01*
X58669352Y44153957D01*
X58669356Y44153956D01*
X58712593Y44140841D01*
X58858397Y44096611D01*
X59055000Y44077247D01*
X59251603Y44096611D01*
X59440650Y44153958D01*
X59614878Y44247084D01*
X59767589Y44372411D01*
X59892916Y44525122D01*
X59986042Y44699350D01*
X60043389Y44888397D01*
X60062753Y45085000D01*
X60587750Y45085000D01*
X60607103Y44888497D01*
X60664419Y44699549D01*
X60664424Y44699537D01*
X60757499Y44525407D01*
X60757503Y44525401D01*
X60785617Y44491144D01*
X61148856Y44854384D01*
X61213239Y44754202D01*
X61321900Y44660048D01*
X61365610Y44640087D01*
X61001142Y44275619D01*
X61035400Y44247504D01*
X61035406Y44247500D01*
X61209536Y44154425D01*
X61209548Y44154420D01*
X61398497Y44097104D01*
X61398496Y44097104D01*
X61595000Y44077751D01*
X61791503Y44097104D01*
X61980451Y44154420D01*
X61980454Y44154421D01*
X62154598Y44247503D01*
X62188856Y44275619D01*
X61824389Y44640086D01*
X61868100Y44660048D01*
X61976761Y44754202D01*
X62041142Y44854383D01*
X62404381Y44491144D01*
X62432497Y44525402D01*
X62525579Y44699546D01*
X62525580Y44699549D01*
X62582896Y44888497D01*
X62602249Y45085000D01*
X63127750Y45085000D01*
X63147103Y44888497D01*
X63204419Y44699549D01*
X63204424Y44699537D01*
X63297499Y44525407D01*
X63297503Y44525401D01*
X63325617Y44491144D01*
X63688856Y44854384D01*
X63753239Y44754202D01*
X63861900Y44660048D01*
X63905610Y44640087D01*
X63541142Y44275619D01*
X63575400Y44247504D01*
X63575406Y44247500D01*
X63749536Y44154425D01*
X63749548Y44154420D01*
X63938497Y44097104D01*
X63938496Y44097104D01*
X64135000Y44077751D01*
X64331503Y44097104D01*
X64520451Y44154420D01*
X64520454Y44154421D01*
X64694598Y44247503D01*
X64728856Y44275619D01*
X64364389Y44640086D01*
X64408100Y44660048D01*
X64516761Y44754202D01*
X64581142Y44854383D01*
X64944381Y44491144D01*
X64972497Y44525402D01*
X65065579Y44699546D01*
X65065580Y44699549D01*
X65122896Y44888497D01*
X65142249Y45085000D01*
X65122896Y45281504D01*
X65065580Y45470452D01*
X65065575Y45470464D01*
X64972500Y45644594D01*
X64972496Y45644600D01*
X64944381Y45678858D01*
X64581141Y45315619D01*
X64516761Y45415798D01*
X64408100Y45509952D01*
X64364388Y45529915D01*
X64728856Y45894383D01*
X64694599Y45922497D01*
X64694593Y45922501D01*
X64520463Y46015576D01*
X64520451Y46015581D01*
X64331502Y46072897D01*
X64331503Y46072897D01*
X64135000Y46092250D01*
X63938496Y46072897D01*
X63749548Y46015581D01*
X63749536Y46015576D01*
X63575411Y45922504D01*
X63575396Y45922494D01*
X63541142Y45894383D01*
X63905610Y45529915D01*
X63861900Y45509952D01*
X63753239Y45415798D01*
X63688857Y45315618D01*
X63325617Y45678858D01*
X63297506Y45644604D01*
X63297496Y45644589D01*
X63204424Y45470464D01*
X63204419Y45470452D01*
X63147103Y45281504D01*
X63127750Y45085000D01*
X62602249Y45085000D01*
X62582896Y45281504D01*
X62525580Y45470452D01*
X62525575Y45470464D01*
X62432500Y45644594D01*
X62432496Y45644600D01*
X62404381Y45678858D01*
X62041142Y45315619D01*
X61976761Y45415798D01*
X61868100Y45509952D01*
X61824388Y45529915D01*
X62188856Y45894383D01*
X62154599Y45922497D01*
X62154593Y45922501D01*
X61980463Y46015576D01*
X61980451Y46015581D01*
X61791502Y46072897D01*
X61791503Y46072897D01*
X61595000Y46092250D01*
X61398496Y46072897D01*
X61209548Y46015581D01*
X61209536Y46015576D01*
X61035411Y45922504D01*
X61035396Y45922494D01*
X61001142Y45894383D01*
X61365611Y45529915D01*
X61321900Y45509952D01*
X61213239Y45415798D01*
X61148857Y45315618D01*
X60785617Y45678858D01*
X60757506Y45644604D01*
X60757496Y45644589D01*
X60664424Y45470464D01*
X60664419Y45470452D01*
X60607103Y45281504D01*
X60587750Y45085000D01*
X60062753Y45085000D01*
X60043389Y45281603D01*
X59986102Y45470452D01*
X59986044Y45470644D01*
X59986043Y45470648D01*
X59965035Y45509952D01*
X59892916Y45644878D01*
X59892913Y45644882D01*
X59892910Y45644886D01*
X59767589Y45797590D01*
X59614885Y45922911D01*
X59614881Y45922914D01*
X59614879Y45922915D01*
X59614878Y45922916D01*
X59527763Y45969479D01*
X59440647Y46016044D01*
X59440643Y46016045D01*
X59251600Y46073390D01*
X59079112Y46090379D01*
X59055000Y46092753D01*
X59054999Y46092753D01*
X58858400Y46073390D01*
X58858398Y46073390D01*
X58669356Y46016045D01*
X58669352Y46016044D01*
X58495118Y45922914D01*
X58495114Y45922911D01*
X58342410Y45797590D01*
X58217089Y45644886D01*
X58217086Y45644882D01*
X58123956Y45470648D01*
X58123955Y45470644D01*
X58066610Y45281602D01*
X58066610Y45281600D01*
X58047247Y45085001D01*
X57522753Y45085001D01*
X57503389Y45281603D01*
X57446102Y45470452D01*
X57446044Y45470644D01*
X57446043Y45470648D01*
X57425035Y45509952D01*
X57352916Y45644878D01*
X57352913Y45644882D01*
X57352910Y45644886D01*
X57227589Y45797590D01*
X57074885Y45922911D01*
X57074881Y45922914D01*
X57074879Y45922915D01*
X57074878Y45922916D01*
X56987764Y45969479D01*
X56900647Y46016044D01*
X56900643Y46016045D01*
X56711600Y46073390D01*
X56515000Y46092753D01*
X56318400Y46073390D01*
X56318398Y46073390D01*
X56129356Y46016045D01*
X56129352Y46016044D01*
X55955118Y45922914D01*
X55955114Y45922911D01*
X55802410Y45797590D01*
X55677089Y45644886D01*
X55677086Y45644882D01*
X55583956Y45470648D01*
X55583955Y45470644D01*
X55526610Y45281602D01*
X55526610Y45281600D01*
X55507247Y45085001D01*
X54982753Y45085001D01*
X54963389Y45281603D01*
X54906102Y45470452D01*
X54906044Y45470644D01*
X54906043Y45470648D01*
X54885035Y45509952D01*
X54812916Y45644878D01*
X54812913Y45644882D01*
X54812910Y45644886D01*
X54687589Y45797590D01*
X54534885Y45922911D01*
X54534881Y45922914D01*
X54534879Y45922915D01*
X54534878Y45922916D01*
X54447764Y45969479D01*
X54360647Y46016044D01*
X54360643Y46016045D01*
X54171600Y46073390D01*
X53999112Y46090379D01*
X53975000Y46092753D01*
X53974999Y46092753D01*
X53778400Y46073390D01*
X53778398Y46073390D01*
X53589356Y46016045D01*
X53589352Y46016044D01*
X53415118Y45922914D01*
X53415114Y45922911D01*
X53262410Y45797590D01*
X53137089Y45644886D01*
X53137086Y45644882D01*
X53043956Y45470648D01*
X53043955Y45470644D01*
X52986610Y45281602D01*
X52986610Y45281600D01*
X52967247Y45085001D01*
X52442753Y45085001D01*
X52423389Y45281603D01*
X52366102Y45470452D01*
X52366044Y45470644D01*
X52366043Y45470648D01*
X52345035Y45509952D01*
X52272916Y45644878D01*
X52272913Y45644882D01*
X52272910Y45644886D01*
X52147589Y45797590D01*
X51994885Y45922911D01*
X51994881Y45922914D01*
X51994879Y45922915D01*
X51994878Y45922916D01*
X51907764Y45969479D01*
X51820647Y46016044D01*
X51820643Y46016045D01*
X51631600Y46073390D01*
X51435000Y46092753D01*
X51238400Y46073390D01*
X51238398Y46073390D01*
X51049356Y46016045D01*
X51049352Y46016044D01*
X50875118Y45922914D01*
X50875114Y45922911D01*
X50722410Y45797590D01*
X50597089Y45644886D01*
X50597086Y45644882D01*
X50503956Y45470648D01*
X50503955Y45470644D01*
X50446610Y45281602D01*
X50446610Y45281600D01*
X50427247Y45085001D01*
X49902753Y45085001D01*
X49883389Y45281603D01*
X49826102Y45470452D01*
X49826044Y45470644D01*
X49826043Y45470648D01*
X49805035Y45509952D01*
X49732916Y45644878D01*
X49732913Y45644882D01*
X49732910Y45644886D01*
X49607589Y45797590D01*
X49454885Y45922911D01*
X49454881Y45922914D01*
X49454879Y45922915D01*
X49454878Y45922916D01*
X49367764Y45969479D01*
X49280647Y46016044D01*
X49280643Y46016045D01*
X49091600Y46073390D01*
X48919112Y46090379D01*
X48895000Y46092753D01*
X48894999Y46092753D01*
X48698400Y46073390D01*
X48698398Y46073390D01*
X48509356Y46016045D01*
X48509352Y46016044D01*
X48335118Y45922914D01*
X48335114Y45922911D01*
X48182410Y45797590D01*
X48057089Y45644886D01*
X48057086Y45644882D01*
X47963956Y45470648D01*
X47963955Y45470644D01*
X47906610Y45281602D01*
X47906610Y45281600D01*
X47887247Y45085000D01*
X47362753Y45085000D01*
X47343389Y45281603D01*
X47286102Y45470452D01*
X47286044Y45470644D01*
X47286043Y45470648D01*
X47265035Y45509952D01*
X47192916Y45644878D01*
X47192913Y45644882D01*
X47192910Y45644886D01*
X47067589Y45797590D01*
X46914885Y45922911D01*
X46914881Y45922914D01*
X46914879Y45922915D01*
X46914878Y45922916D01*
X46827764Y45969480D01*
X46740647Y46016044D01*
X46740643Y46016045D01*
X46551600Y46073390D01*
X46355000Y46092753D01*
X46158400Y46073390D01*
X46158398Y46073390D01*
X45969356Y46016045D01*
X45969352Y46016044D01*
X45795118Y45922914D01*
X45795114Y45922911D01*
X45642410Y45797590D01*
X45517089Y45644886D01*
X45517086Y45644882D01*
X45423956Y45470648D01*
X45423955Y45470644D01*
X45366610Y45281602D01*
X45366610Y45281600D01*
X45347247Y45085001D01*
X44822753Y45085001D01*
X44803389Y45281603D01*
X44746102Y45470452D01*
X44746044Y45470644D01*
X44746043Y45470648D01*
X44725035Y45509952D01*
X44652916Y45644878D01*
X44652913Y45644882D01*
X44652910Y45644886D01*
X44527589Y45797590D01*
X44374885Y45922911D01*
X44374881Y45922914D01*
X44374879Y45922915D01*
X44374878Y45922916D01*
X44287764Y45969479D01*
X44200647Y46016044D01*
X44200643Y46016045D01*
X44011600Y46073390D01*
X43839112Y46090379D01*
X43815000Y46092753D01*
X43814999Y46092753D01*
X43618400Y46073390D01*
X43618398Y46073390D01*
X43429356Y46016045D01*
X43429352Y46016044D01*
X43255118Y45922914D01*
X43255114Y45922911D01*
X43102410Y45797590D01*
X42977089Y45644886D01*
X42977086Y45644882D01*
X42883956Y45470648D01*
X42883955Y45470644D01*
X42826610Y45281602D01*
X42826610Y45281600D01*
X42807247Y45085001D01*
X42282753Y45085001D01*
X42263389Y45281603D01*
X42206102Y45470452D01*
X42206044Y45470644D01*
X42206043Y45470648D01*
X42185035Y45509952D01*
X42112916Y45644878D01*
X42112913Y45644882D01*
X42112910Y45644886D01*
X41987589Y45797590D01*
X41834885Y45922911D01*
X41834881Y45922914D01*
X41834879Y45922915D01*
X41834878Y45922916D01*
X41747764Y45969479D01*
X41660647Y46016044D01*
X41660643Y46016045D01*
X41471600Y46073390D01*
X41275000Y46092753D01*
X41078400Y46073390D01*
X41078398Y46073390D01*
X40889356Y46016045D01*
X40889352Y46016044D01*
X40715118Y45922914D01*
X40715114Y45922911D01*
X40562410Y45797590D01*
X40437089Y45644886D01*
X40437086Y45644882D01*
X40343956Y45470648D01*
X40343955Y45470644D01*
X40286610Y45281602D01*
X40286610Y45281600D01*
X40267247Y45085001D01*
X39742753Y45085001D01*
X39723389Y45281603D01*
X39666102Y45470452D01*
X39666044Y45470644D01*
X39666043Y45470648D01*
X39645035Y45509952D01*
X39572916Y45644878D01*
X39572913Y45644882D01*
X39572910Y45644886D01*
X39447589Y45797590D01*
X39294885Y45922911D01*
X39294881Y45922914D01*
X39294879Y45922915D01*
X39294878Y45922916D01*
X39207764Y45969479D01*
X39120647Y46016044D01*
X39120643Y46016045D01*
X38931600Y46073390D01*
X38759112Y46090379D01*
X38735000Y46092753D01*
X38734999Y46092753D01*
X38538400Y46073390D01*
X38538398Y46073390D01*
X38349356Y46016045D01*
X38349352Y46016044D01*
X38175118Y45922914D01*
X38175114Y45922911D01*
X38022410Y45797590D01*
X37897089Y45644886D01*
X37897086Y45644882D01*
X37803956Y45470648D01*
X37803955Y45470644D01*
X37746610Y45281602D01*
X37746610Y45281600D01*
X37727247Y45085001D01*
X37202753Y45085001D01*
X37183389Y45281603D01*
X37126102Y45470452D01*
X37126044Y45470644D01*
X37126043Y45470648D01*
X37105035Y45509952D01*
X37032916Y45644878D01*
X37032913Y45644882D01*
X37032910Y45644886D01*
X36907589Y45797590D01*
X36754885Y45922911D01*
X36754881Y45922914D01*
X36754879Y45922915D01*
X36754878Y45922916D01*
X36667764Y45969479D01*
X36580647Y46016044D01*
X36580643Y46016045D01*
X36391600Y46073390D01*
X36195000Y46092753D01*
X35998400Y46073390D01*
X35998398Y46073390D01*
X35809356Y46016045D01*
X35809352Y46016044D01*
X35635118Y45922914D01*
X35635114Y45922911D01*
X35482410Y45797590D01*
X35357089Y45644886D01*
X35357086Y45644882D01*
X35263956Y45470648D01*
X35263955Y45470644D01*
X35206610Y45281602D01*
X35206610Y45281600D01*
X35187247Y45085001D01*
X34662753Y45085001D01*
X34643389Y45281603D01*
X34586102Y45470452D01*
X34586044Y45470644D01*
X34586043Y45470648D01*
X34565035Y45509952D01*
X34492916Y45644878D01*
X34492913Y45644882D01*
X34492910Y45644886D01*
X34367589Y45797590D01*
X34214885Y45922911D01*
X34214881Y45922914D01*
X34214879Y45922915D01*
X34214878Y45922916D01*
X34127764Y45969480D01*
X34040647Y46016044D01*
X34040643Y46016045D01*
X33851600Y46073390D01*
X33679112Y46090379D01*
X33655000Y46092753D01*
X33654999Y46092753D01*
X33458400Y46073390D01*
X33458398Y46073390D01*
X33269356Y46016045D01*
X33269352Y46016044D01*
X33095118Y45922914D01*
X33095114Y45922911D01*
X32942410Y45797590D01*
X32817089Y45644886D01*
X32817086Y45644882D01*
X32723956Y45470648D01*
X32723955Y45470644D01*
X32666610Y45281602D01*
X32666610Y45281600D01*
X32647247Y45085001D01*
X32122753Y45085001D01*
X32103389Y45281603D01*
X32046102Y45470452D01*
X32046044Y45470644D01*
X32046043Y45470648D01*
X32025035Y45509952D01*
X31952916Y45644878D01*
X31952913Y45644882D01*
X31952910Y45644886D01*
X31827589Y45797590D01*
X31674885Y45922911D01*
X31674881Y45922914D01*
X31674879Y45922915D01*
X31674878Y45922916D01*
X31587764Y45969479D01*
X31500647Y46016044D01*
X31500643Y46016045D01*
X31311600Y46073390D01*
X31115000Y46092753D01*
X30918400Y46073390D01*
X30918398Y46073390D01*
X30729356Y46016045D01*
X30729352Y46016044D01*
X30555118Y45922914D01*
X30555114Y45922911D01*
X30402410Y45797590D01*
X30277089Y45644886D01*
X30277086Y45644882D01*
X30183956Y45470648D01*
X30183955Y45470644D01*
X30126610Y45281602D01*
X30126610Y45281600D01*
X30107247Y45085000D01*
X29582753Y45085000D01*
X29563389Y45281603D01*
X29506102Y45470452D01*
X29506044Y45470644D01*
X29506043Y45470648D01*
X29485035Y45509952D01*
X29412916Y45644878D01*
X29412913Y45644882D01*
X29412910Y45644886D01*
X29287589Y45797590D01*
X29134885Y45922911D01*
X29134881Y45922914D01*
X29134879Y45922915D01*
X29134878Y45922916D01*
X29047764Y45969479D01*
X28960647Y46016044D01*
X28960643Y46016045D01*
X28771600Y46073390D01*
X28599112Y46090379D01*
X28575000Y46092753D01*
X28574999Y46092753D01*
X28378400Y46073390D01*
X28378398Y46073390D01*
X28189356Y46016045D01*
X28189352Y46016044D01*
X28015118Y45922914D01*
X28015114Y45922911D01*
X27862410Y45797590D01*
X27737089Y45644886D01*
X27737086Y45644882D01*
X27643956Y45470648D01*
X27643955Y45470644D01*
X27586610Y45281602D01*
X27586610Y45281600D01*
X27567247Y45085001D01*
X27042753Y45085001D01*
X27023389Y45281603D01*
X26966102Y45470452D01*
X26966044Y45470644D01*
X26966043Y45470648D01*
X26945035Y45509952D01*
X26872916Y45644878D01*
X26872913Y45644882D01*
X26872910Y45644886D01*
X26747589Y45797590D01*
X26594885Y45922911D01*
X26594881Y45922914D01*
X26594879Y45922915D01*
X26594878Y45922916D01*
X26507764Y45969479D01*
X26420647Y46016044D01*
X26420643Y46016045D01*
X26231600Y46073390D01*
X26035000Y46092753D01*
X25838400Y46073390D01*
X25838398Y46073390D01*
X25649356Y46016045D01*
X25649352Y46016044D01*
X25475118Y45922914D01*
X25475114Y45922911D01*
X25322410Y45797590D01*
X25197089Y45644886D01*
X25197086Y45644882D01*
X25103956Y45470648D01*
X25103955Y45470644D01*
X25046610Y45281602D01*
X25046610Y45281600D01*
X25027247Y45085001D01*
X24502753Y45085001D01*
X24483389Y45281603D01*
X24426102Y45470452D01*
X24426044Y45470644D01*
X24426043Y45470648D01*
X24405035Y45509952D01*
X24332916Y45644878D01*
X24332913Y45644882D01*
X24332910Y45644886D01*
X24207589Y45797590D01*
X24054885Y45922911D01*
X24054881Y45922914D01*
X24054879Y45922915D01*
X24054878Y45922916D01*
X23967764Y45969479D01*
X23880647Y46016044D01*
X23880643Y46016045D01*
X23691600Y46073390D01*
X23519112Y46090379D01*
X23495000Y46092753D01*
X23494999Y46092753D01*
X23298400Y46073390D01*
X23298398Y46073390D01*
X23109356Y46016045D01*
X23109352Y46016044D01*
X22935118Y45922914D01*
X22935114Y45922911D01*
X22782410Y45797590D01*
X22657089Y45644886D01*
X22657086Y45644882D01*
X22563956Y45470648D01*
X22563955Y45470644D01*
X22506610Y45281602D01*
X22506610Y45281600D01*
X22487247Y45085001D01*
X21962753Y45085001D01*
X21943389Y45281603D01*
X21886102Y45470452D01*
X21886044Y45470644D01*
X21886043Y45470648D01*
X21865035Y45509952D01*
X21792916Y45644878D01*
X21792913Y45644882D01*
X21792910Y45644886D01*
X21667589Y45797590D01*
X21514885Y45922911D01*
X21514881Y45922914D01*
X21514879Y45922915D01*
X21514878Y45922916D01*
X21427763Y45969479D01*
X21340647Y46016044D01*
X21340643Y46016045D01*
X21151600Y46073390D01*
X20955000Y46092753D01*
X20758400Y46073390D01*
X20758398Y46073390D01*
X20569356Y46016045D01*
X20569352Y46016044D01*
X20395118Y45922914D01*
X20395114Y45922911D01*
X20242410Y45797590D01*
X20117089Y45644886D01*
X20117086Y45644882D01*
X20023956Y45470648D01*
X20023955Y45470644D01*
X19966610Y45281602D01*
X19966610Y45281600D01*
X19947247Y45085001D01*
X19422753Y45085001D01*
X19403389Y45281603D01*
X19346102Y45470452D01*
X19346044Y45470644D01*
X19346043Y45470648D01*
X19325035Y45509952D01*
X19252916Y45644878D01*
X19252913Y45644882D01*
X19252910Y45644886D01*
X19127589Y45797590D01*
X18974885Y45922911D01*
X18974881Y45922914D01*
X18974879Y45922915D01*
X18974878Y45922916D01*
X18887763Y45969479D01*
X18800647Y46016044D01*
X18800643Y46016045D01*
X18611600Y46073390D01*
X18439112Y46090379D01*
X18415000Y46092753D01*
X18414999Y46092753D01*
X18218400Y46073390D01*
X18218398Y46073390D01*
X18029356Y46016045D01*
X18029352Y46016044D01*
X17855118Y45922914D01*
X17855114Y45922911D01*
X17702410Y45797590D01*
X17577089Y45644886D01*
X17577086Y45644882D01*
X17483956Y45470648D01*
X17483955Y45470644D01*
X17426610Y45281602D01*
X17426610Y45281600D01*
X17407247Y45085001D01*
X16882753Y45085001D01*
X16863389Y45281603D01*
X16806102Y45470452D01*
X16806044Y45470644D01*
X16806043Y45470648D01*
X16785035Y45509952D01*
X16712916Y45644878D01*
X16712913Y45644882D01*
X16712910Y45644886D01*
X16587589Y45797590D01*
X16434885Y45922911D01*
X16434881Y45922914D01*
X16434879Y45922915D01*
X16434878Y45922916D01*
X16347763Y45969479D01*
X16260647Y46016044D01*
X16260643Y46016045D01*
X16071600Y46073390D01*
X15875000Y46092753D01*
X15678400Y46073390D01*
X15678398Y46073390D01*
X15489356Y46016045D01*
X15489352Y46016044D01*
X15315118Y45922914D01*
X15315114Y45922911D01*
X15162410Y45797590D01*
X15037089Y45644886D01*
X15037086Y45644882D01*
X14943956Y45470648D01*
X14943955Y45470644D01*
X14886610Y45281602D01*
X14886610Y45281600D01*
X14867247Y45085001D01*
X1930500Y45085001D01*
X1930500Y48827235D01*
X3860788Y48827235D01*
X3890414Y48557978D01*
X3958926Y48295916D01*
X3958928Y48295911D01*
X4064869Y48046612D01*
X4064871Y48046608D01*
X4205983Y47815388D01*
X4205984Y47815387D01*
X4379251Y47607184D01*
X4379255Y47607180D01*
X4580998Y47426418D01*
X4806910Y47276956D01*
X5052176Y47161980D01*
X5311569Y47083940D01*
X5579561Y47044500D01*
X5579565Y47044500D01*
X5782639Y47044500D01*
X5782641Y47044501D01*
X5856251Y47049889D01*
X5985147Y47059322D01*
X5985149Y47059323D01*
X5985156Y47059323D01*
X6249553Y47118220D01*
X6502558Y47214986D01*
X6738777Y47347559D01*
X6953177Y47513112D01*
X7061050Y47625000D01*
X14867247Y47625000D01*
X14886610Y47428401D01*
X14886610Y47428399D01*
X14943955Y47239357D01*
X14943956Y47239353D01*
X15037086Y47065119D01*
X15037089Y47065115D01*
X15162410Y46912411D01*
X15315114Y46787090D01*
X15315118Y46787087D01*
X15315122Y46787084D01*
X15449343Y46715342D01*
X15489352Y46693957D01*
X15489356Y46693956D01*
X15532593Y46680841D01*
X15678397Y46636611D01*
X15875000Y46617247D01*
X16071603Y46636611D01*
X16260650Y46693958D01*
X16434878Y46787084D01*
X16587589Y46912411D01*
X16712916Y47065122D01*
X16806042Y47239350D01*
X16863389Y47428397D01*
X16882753Y47625000D01*
X17407247Y47625000D01*
X17426610Y47428401D01*
X17426610Y47428399D01*
X17483955Y47239357D01*
X17483956Y47239353D01*
X17577086Y47065119D01*
X17577089Y47065115D01*
X17702410Y46912411D01*
X17855114Y46787090D01*
X17855118Y46787087D01*
X17855122Y46787084D01*
X17989343Y46715342D01*
X18029352Y46693957D01*
X18029356Y46693956D01*
X18072593Y46680841D01*
X18218397Y46636611D01*
X18415000Y46617247D01*
X18611603Y46636611D01*
X18800650Y46693958D01*
X18974878Y46787084D01*
X19127589Y46912411D01*
X19252916Y47065122D01*
X19346042Y47239350D01*
X19403389Y47428397D01*
X19422753Y47625000D01*
X19422753Y47625001D01*
X19947247Y47625001D01*
X19966610Y47428401D01*
X19966610Y47428399D01*
X20023955Y47239357D01*
X20023956Y47239353D01*
X20117086Y47065119D01*
X20117089Y47065115D01*
X20242410Y46912411D01*
X20395114Y46787090D01*
X20395118Y46787087D01*
X20395122Y46787084D01*
X20529343Y46715342D01*
X20569352Y46693957D01*
X20569356Y46693956D01*
X20612593Y46680841D01*
X20758397Y46636611D01*
X20955000Y46617247D01*
X21151603Y46636611D01*
X21340650Y46693958D01*
X21514878Y46787084D01*
X21667589Y46912411D01*
X21792916Y47065122D01*
X21886042Y47239350D01*
X21943389Y47428397D01*
X21962753Y47625000D01*
X21962753Y47625001D01*
X22487247Y47625001D01*
X22506610Y47428401D01*
X22506610Y47428399D01*
X22563955Y47239357D01*
X22563956Y47239353D01*
X22657086Y47065119D01*
X22657089Y47065115D01*
X22782410Y46912411D01*
X22935114Y46787090D01*
X22935118Y46787087D01*
X22935122Y46787084D01*
X23069343Y46715342D01*
X23109352Y46693957D01*
X23109356Y46693956D01*
X23152593Y46680841D01*
X23298397Y46636611D01*
X23495000Y46617247D01*
X23691603Y46636611D01*
X23880650Y46693958D01*
X24054878Y46787084D01*
X24207589Y46912411D01*
X24332916Y47065122D01*
X24426042Y47239350D01*
X24483389Y47428397D01*
X24502753Y47625000D01*
X25027247Y47625000D01*
X25046610Y47428401D01*
X25046610Y47428399D01*
X25103955Y47239357D01*
X25103956Y47239353D01*
X25197086Y47065119D01*
X25197089Y47065115D01*
X25322410Y46912411D01*
X25475114Y46787090D01*
X25475118Y46787087D01*
X25475122Y46787084D01*
X25609343Y46715342D01*
X25649352Y46693957D01*
X25649356Y46693956D01*
X25692593Y46680841D01*
X25838397Y46636611D01*
X26035000Y46617247D01*
X26231603Y46636611D01*
X26420650Y46693958D01*
X26594878Y46787084D01*
X26747589Y46912411D01*
X26872916Y47065122D01*
X26966042Y47239350D01*
X27023389Y47428397D01*
X27042753Y47625000D01*
X27567247Y47625000D01*
X27586610Y47428401D01*
X27586610Y47428399D01*
X27643955Y47239357D01*
X27643956Y47239353D01*
X27737086Y47065119D01*
X27737089Y47065115D01*
X27862410Y46912411D01*
X28015114Y46787090D01*
X28015118Y46787087D01*
X28015122Y46787084D01*
X28149343Y46715342D01*
X28189352Y46693957D01*
X28189356Y46693956D01*
X28232593Y46680841D01*
X28378397Y46636611D01*
X28575000Y46617247D01*
X28771603Y46636611D01*
X28960650Y46693958D01*
X29134878Y46787084D01*
X29287589Y46912411D01*
X29412916Y47065122D01*
X29506042Y47239350D01*
X29563389Y47428397D01*
X29582753Y47625000D01*
X29582753Y47625001D01*
X30107247Y47625001D01*
X30126610Y47428401D01*
X30126610Y47428399D01*
X30183955Y47239357D01*
X30183956Y47239353D01*
X30277086Y47065119D01*
X30277089Y47065115D01*
X30402410Y46912411D01*
X30555114Y46787090D01*
X30555118Y46787087D01*
X30555122Y46787084D01*
X30689343Y46715342D01*
X30729352Y46693957D01*
X30729356Y46693956D01*
X30772593Y46680841D01*
X30918397Y46636611D01*
X31115000Y46617247D01*
X31311603Y46636611D01*
X31500650Y46693958D01*
X31674878Y46787084D01*
X31827589Y46912411D01*
X31952916Y47065122D01*
X32046042Y47239350D01*
X32103389Y47428397D01*
X32122753Y47625000D01*
X32647247Y47625000D01*
X32666610Y47428401D01*
X32666610Y47428399D01*
X32723955Y47239357D01*
X32723956Y47239353D01*
X32817086Y47065119D01*
X32817089Y47065115D01*
X32942410Y46912411D01*
X33095114Y46787090D01*
X33095118Y46787087D01*
X33095122Y46787084D01*
X33229343Y46715342D01*
X33269352Y46693957D01*
X33269356Y46693956D01*
X33312593Y46680841D01*
X33458397Y46636611D01*
X33655000Y46617247D01*
X33851603Y46636611D01*
X34040650Y46693958D01*
X34214878Y46787084D01*
X34367589Y46912411D01*
X34492916Y47065122D01*
X34586042Y47239350D01*
X34643389Y47428397D01*
X34662753Y47625000D01*
X35187247Y47625000D01*
X35206610Y47428401D01*
X35206610Y47428399D01*
X35263955Y47239357D01*
X35263956Y47239353D01*
X35357086Y47065119D01*
X35357089Y47065115D01*
X35482410Y46912411D01*
X35635114Y46787090D01*
X35635118Y46787087D01*
X35635122Y46787084D01*
X35769343Y46715342D01*
X35809352Y46693957D01*
X35809356Y46693956D01*
X35852593Y46680841D01*
X35998397Y46636611D01*
X36195000Y46617247D01*
X36391603Y46636611D01*
X36580650Y46693958D01*
X36754878Y46787084D01*
X36907589Y46912411D01*
X37032916Y47065122D01*
X37126042Y47239350D01*
X37183389Y47428397D01*
X37202753Y47625000D01*
X37202753Y47625001D01*
X37727247Y47625001D01*
X37746610Y47428401D01*
X37746610Y47428399D01*
X37803955Y47239357D01*
X37803956Y47239353D01*
X37897086Y47065119D01*
X37897089Y47065115D01*
X38022410Y46912411D01*
X38175114Y46787090D01*
X38175118Y46787087D01*
X38175122Y46787084D01*
X38309343Y46715342D01*
X38349352Y46693957D01*
X38349356Y46693956D01*
X38392593Y46680841D01*
X38538397Y46636611D01*
X38735000Y46617247D01*
X38931603Y46636611D01*
X39120650Y46693958D01*
X39294878Y46787084D01*
X39447589Y46912411D01*
X39572916Y47065122D01*
X39666042Y47239350D01*
X39723389Y47428397D01*
X39742753Y47625000D01*
X39742753Y47625001D01*
X40267247Y47625001D01*
X40286610Y47428401D01*
X40286610Y47428399D01*
X40343955Y47239357D01*
X40343956Y47239353D01*
X40437086Y47065119D01*
X40437089Y47065115D01*
X40562410Y46912411D01*
X40715114Y46787090D01*
X40715118Y46787087D01*
X40715122Y46787084D01*
X40849343Y46715342D01*
X40889352Y46693957D01*
X40889356Y46693956D01*
X40932593Y46680841D01*
X41078397Y46636611D01*
X41275000Y46617247D01*
X41471603Y46636611D01*
X41660650Y46693958D01*
X41834878Y46787084D01*
X41987589Y46912411D01*
X42112916Y47065122D01*
X42206042Y47239350D01*
X42263389Y47428397D01*
X42282753Y47625000D01*
X42807247Y47625000D01*
X42826610Y47428401D01*
X42826610Y47428399D01*
X42883955Y47239357D01*
X42883956Y47239353D01*
X42977086Y47065119D01*
X42977089Y47065115D01*
X43102410Y46912411D01*
X43255114Y46787090D01*
X43255118Y46787087D01*
X43255122Y46787084D01*
X43389343Y46715342D01*
X43429352Y46693957D01*
X43429356Y46693956D01*
X43472593Y46680841D01*
X43618397Y46636611D01*
X43815000Y46617247D01*
X44011603Y46636611D01*
X44200650Y46693958D01*
X44374878Y46787084D01*
X44527589Y46912411D01*
X44652916Y47065122D01*
X44746042Y47239350D01*
X44803389Y47428397D01*
X44822753Y47625000D01*
X45347247Y47625000D01*
X45366610Y47428401D01*
X45366610Y47428399D01*
X45423955Y47239357D01*
X45423956Y47239353D01*
X45517086Y47065119D01*
X45517089Y47065115D01*
X45642410Y46912411D01*
X45795114Y46787090D01*
X45795118Y46787087D01*
X45795122Y46787084D01*
X45929343Y46715342D01*
X45969352Y46693957D01*
X45969356Y46693956D01*
X46012593Y46680841D01*
X46158397Y46636611D01*
X46355000Y46617247D01*
X46551603Y46636611D01*
X46740650Y46693958D01*
X46914878Y46787084D01*
X47067589Y46912411D01*
X47192916Y47065122D01*
X47286042Y47239350D01*
X47343389Y47428397D01*
X47362753Y47625000D01*
X47362753Y47625001D01*
X47887247Y47625001D01*
X47906610Y47428401D01*
X47906610Y47428399D01*
X47963955Y47239357D01*
X47963956Y47239353D01*
X48057086Y47065119D01*
X48057089Y47065115D01*
X48182410Y46912411D01*
X48335114Y46787090D01*
X48335118Y46787087D01*
X48335122Y46787084D01*
X48469343Y46715342D01*
X48509352Y46693957D01*
X48509356Y46693956D01*
X48552593Y46680841D01*
X48698397Y46636611D01*
X48895000Y46617247D01*
X49091603Y46636611D01*
X49280650Y46693958D01*
X49454878Y46787084D01*
X49607589Y46912411D01*
X49732916Y47065122D01*
X49826042Y47239350D01*
X49883389Y47428397D01*
X49902753Y47625000D01*
X50427247Y47625000D01*
X50446610Y47428401D01*
X50446610Y47428399D01*
X50503955Y47239357D01*
X50503956Y47239353D01*
X50597086Y47065119D01*
X50597089Y47065115D01*
X50722410Y46912411D01*
X50875114Y46787090D01*
X50875118Y46787087D01*
X50875122Y46787084D01*
X51009343Y46715342D01*
X51049352Y46693957D01*
X51049356Y46693956D01*
X51092593Y46680841D01*
X51238397Y46636611D01*
X51435000Y46617247D01*
X51631603Y46636611D01*
X51820650Y46693958D01*
X51994878Y46787084D01*
X52147589Y46912411D01*
X52272916Y47065122D01*
X52366042Y47239350D01*
X52423389Y47428397D01*
X52442753Y47625000D01*
X52967247Y47625000D01*
X52986610Y47428401D01*
X52986610Y47428399D01*
X53043955Y47239357D01*
X53043956Y47239353D01*
X53137086Y47065119D01*
X53137089Y47065115D01*
X53262410Y46912411D01*
X53415114Y46787090D01*
X53415118Y46787087D01*
X53415122Y46787084D01*
X53549343Y46715342D01*
X53589352Y46693957D01*
X53589356Y46693956D01*
X53632593Y46680841D01*
X53778397Y46636611D01*
X53975000Y46617247D01*
X54171603Y46636611D01*
X54360650Y46693958D01*
X54534878Y46787084D01*
X54687589Y46912411D01*
X54812916Y47065122D01*
X54906042Y47239350D01*
X54963389Y47428397D01*
X54982753Y47625000D01*
X55507247Y47625000D01*
X55526610Y47428401D01*
X55526610Y47428399D01*
X55583955Y47239357D01*
X55583956Y47239353D01*
X55677086Y47065119D01*
X55677089Y47065115D01*
X55802410Y46912411D01*
X55955114Y46787090D01*
X55955118Y46787087D01*
X55955122Y46787084D01*
X56089343Y46715342D01*
X56129352Y46693957D01*
X56129356Y46693956D01*
X56172593Y46680841D01*
X56318397Y46636611D01*
X56515000Y46617247D01*
X56711603Y46636611D01*
X56900650Y46693958D01*
X57074878Y46787084D01*
X57227589Y46912411D01*
X57352916Y47065122D01*
X57446042Y47239350D01*
X57503389Y47428397D01*
X57522753Y47625000D01*
X57522753Y47625001D01*
X58047247Y47625001D01*
X58066610Y47428401D01*
X58066610Y47428399D01*
X58123955Y47239357D01*
X58123956Y47239353D01*
X58217086Y47065119D01*
X58217089Y47065115D01*
X58342410Y46912411D01*
X58495114Y46787090D01*
X58495118Y46787087D01*
X58495122Y46787084D01*
X58629343Y46715342D01*
X58669352Y46693957D01*
X58669356Y46693956D01*
X58712593Y46680841D01*
X58858397Y46636611D01*
X59055000Y46617247D01*
X59251603Y46636611D01*
X59440650Y46693958D01*
X59614878Y46787084D01*
X59767589Y46912411D01*
X59892916Y47065122D01*
X59986042Y47239350D01*
X60043389Y47428397D01*
X60062753Y47625000D01*
X60587247Y47625000D01*
X60606610Y47428401D01*
X60606610Y47428399D01*
X60663955Y47239357D01*
X60663956Y47239353D01*
X60757086Y47065119D01*
X60757089Y47065115D01*
X60882410Y46912411D01*
X61035114Y46787090D01*
X61035118Y46787087D01*
X61035122Y46787084D01*
X61169343Y46715342D01*
X61209352Y46693957D01*
X61209356Y46693956D01*
X61252593Y46680841D01*
X61398397Y46636611D01*
X61595000Y46617247D01*
X61791603Y46636611D01*
X61980650Y46693958D01*
X62104104Y46759945D01*
X63132100Y46759945D01*
X63132101Y46759943D01*
X63140972Y46715341D01*
X63174764Y46664768D01*
X63174765Y46664768D01*
X63174766Y46664766D01*
X63225342Y46630972D01*
X63269943Y46622100D01*
X65000056Y46622101D01*
X65044658Y46630972D01*
X65095234Y46664766D01*
X65129028Y46715342D01*
X65137900Y46759943D01*
X65137899Y48490056D01*
X65129028Y48534658D01*
X65114738Y48556044D01*
X65095235Y48585233D01*
X65095231Y48585236D01*
X65044658Y48619028D01*
X65044656Y48619029D01*
X65000057Y48627900D01*
X63269944Y48627900D01*
X63269942Y48627899D01*
X63225340Y48619028D01*
X63174767Y48585236D01*
X63140972Y48534658D01*
X63140971Y48534657D01*
X63132100Y48490058D01*
X63132100Y46759945D01*
X62104104Y46759945D01*
X62154878Y46787084D01*
X62307589Y46912411D01*
X62432916Y47065122D01*
X62526042Y47239350D01*
X62583389Y47428397D01*
X62602753Y47625000D01*
X62583389Y47821603D01*
X62526042Y48010650D01*
X62432916Y48184878D01*
X62432913Y48184882D01*
X62432910Y48184886D01*
X62307589Y48337590D01*
X62154885Y48462911D01*
X62154881Y48462914D01*
X62154879Y48462915D01*
X62154878Y48462916D01*
X62020657Y48534658D01*
X61980647Y48556044D01*
X61980643Y48556045D01*
X61791600Y48613390D01*
X61619112Y48630379D01*
X61595000Y48632753D01*
X61594999Y48632753D01*
X61398400Y48613390D01*
X61398398Y48613390D01*
X61209356Y48556045D01*
X61209352Y48556044D01*
X61035118Y48462914D01*
X61035114Y48462911D01*
X60882410Y48337590D01*
X60757089Y48184886D01*
X60757086Y48184882D01*
X60663956Y48010648D01*
X60663955Y48010644D01*
X60606610Y47821602D01*
X60606610Y47821600D01*
X60587247Y47625000D01*
X60062753Y47625000D01*
X60043389Y47821603D01*
X59986042Y48010650D01*
X59892916Y48184878D01*
X59892913Y48184882D01*
X59892910Y48184886D01*
X59767589Y48337590D01*
X59614885Y48462911D01*
X59614881Y48462914D01*
X59614879Y48462915D01*
X59614878Y48462916D01*
X59480657Y48534658D01*
X59440647Y48556044D01*
X59440643Y48556045D01*
X59251600Y48613390D01*
X59055000Y48632753D01*
X58858400Y48613390D01*
X58858398Y48613390D01*
X58669356Y48556045D01*
X58669352Y48556044D01*
X58495118Y48462914D01*
X58495114Y48462911D01*
X58342410Y48337590D01*
X58217089Y48184886D01*
X58217086Y48184882D01*
X58123956Y48010648D01*
X58123955Y48010644D01*
X58066610Y47821602D01*
X58066610Y47821600D01*
X58047247Y47625001D01*
X57522753Y47625001D01*
X57503389Y47821603D01*
X57446042Y48010650D01*
X57352916Y48184878D01*
X57352913Y48184882D01*
X57352910Y48184886D01*
X57227589Y48337590D01*
X57074885Y48462911D01*
X57074881Y48462914D01*
X57074879Y48462915D01*
X57074878Y48462916D01*
X56940657Y48534658D01*
X56900647Y48556044D01*
X56900643Y48556045D01*
X56711600Y48613390D01*
X56539112Y48630379D01*
X56515000Y48632753D01*
X56514999Y48632753D01*
X56318400Y48613390D01*
X56318398Y48613390D01*
X56129356Y48556045D01*
X56129352Y48556044D01*
X55955118Y48462914D01*
X55955114Y48462911D01*
X55802410Y48337590D01*
X55677089Y48184886D01*
X55677086Y48184882D01*
X55583956Y48010648D01*
X55583955Y48010644D01*
X55526610Y47821602D01*
X55526610Y47821600D01*
X55507247Y47625000D01*
X54982753Y47625000D01*
X54963389Y47821603D01*
X54906042Y48010650D01*
X54812916Y48184878D01*
X54812913Y48184882D01*
X54812910Y48184886D01*
X54687589Y48337590D01*
X54534885Y48462911D01*
X54534881Y48462914D01*
X54534879Y48462915D01*
X54534878Y48462916D01*
X54400657Y48534658D01*
X54360647Y48556044D01*
X54360643Y48556045D01*
X54171600Y48613390D01*
X53975000Y48632753D01*
X53778400Y48613390D01*
X53778398Y48613390D01*
X53589356Y48556045D01*
X53589352Y48556044D01*
X53415118Y48462914D01*
X53415114Y48462911D01*
X53262410Y48337590D01*
X53137089Y48184886D01*
X53137086Y48184882D01*
X53043956Y48010648D01*
X53043955Y48010644D01*
X52986610Y47821602D01*
X52986610Y47821600D01*
X52967247Y47625000D01*
X52442753Y47625000D01*
X52423389Y47821603D01*
X52366042Y48010650D01*
X52272916Y48184878D01*
X52272913Y48184882D01*
X52272910Y48184886D01*
X52147589Y48337590D01*
X51994885Y48462911D01*
X51994881Y48462914D01*
X51994879Y48462915D01*
X51994878Y48462916D01*
X51860657Y48534658D01*
X51820647Y48556044D01*
X51820643Y48556045D01*
X51631600Y48613390D01*
X51459112Y48630379D01*
X51435000Y48632753D01*
X51434999Y48632753D01*
X51238400Y48613390D01*
X51238398Y48613390D01*
X51049356Y48556045D01*
X51049352Y48556044D01*
X50875118Y48462914D01*
X50875114Y48462911D01*
X50722410Y48337590D01*
X50597089Y48184886D01*
X50597086Y48184882D01*
X50503956Y48010648D01*
X50503955Y48010644D01*
X50446610Y47821602D01*
X50446610Y47821600D01*
X50427247Y47625000D01*
X49902753Y47625000D01*
X49883389Y47821603D01*
X49826042Y48010650D01*
X49732916Y48184878D01*
X49732913Y48184882D01*
X49732910Y48184886D01*
X49607589Y48337590D01*
X49454885Y48462911D01*
X49454881Y48462914D01*
X49454879Y48462915D01*
X49454878Y48462916D01*
X49320657Y48534658D01*
X49280647Y48556044D01*
X49280643Y48556045D01*
X49091600Y48613390D01*
X48895000Y48632753D01*
X48698400Y48613390D01*
X48698398Y48613390D01*
X48509356Y48556045D01*
X48509352Y48556044D01*
X48335118Y48462914D01*
X48335114Y48462911D01*
X48182410Y48337590D01*
X48057089Y48184886D01*
X48057086Y48184882D01*
X47963956Y48010648D01*
X47963955Y48010644D01*
X47906610Y47821602D01*
X47906610Y47821600D01*
X47887247Y47625001D01*
X47362753Y47625001D01*
X47343389Y47821603D01*
X47286042Y48010650D01*
X47192916Y48184878D01*
X47192913Y48184882D01*
X47192910Y48184886D01*
X47067589Y48337590D01*
X46914885Y48462911D01*
X46914881Y48462914D01*
X46914879Y48462915D01*
X46914878Y48462916D01*
X46780657Y48534658D01*
X46740647Y48556044D01*
X46740643Y48556045D01*
X46551600Y48613390D01*
X46379112Y48630379D01*
X46355000Y48632753D01*
X46354999Y48632753D01*
X46158400Y48613390D01*
X46158398Y48613390D01*
X45969356Y48556045D01*
X45969352Y48556044D01*
X45795118Y48462914D01*
X45795114Y48462911D01*
X45642410Y48337590D01*
X45517089Y48184886D01*
X45517086Y48184882D01*
X45423956Y48010648D01*
X45423955Y48010644D01*
X45366610Y47821602D01*
X45366610Y47821600D01*
X45347247Y47625000D01*
X44822753Y47625000D01*
X44803389Y47821603D01*
X44746042Y48010650D01*
X44652916Y48184878D01*
X44652913Y48184882D01*
X44652910Y48184886D01*
X44527589Y48337590D01*
X44374885Y48462911D01*
X44374881Y48462914D01*
X44374879Y48462915D01*
X44374878Y48462916D01*
X44240657Y48534658D01*
X44200647Y48556044D01*
X44200643Y48556045D01*
X44011600Y48613390D01*
X43815000Y48632753D01*
X43618400Y48613390D01*
X43618398Y48613390D01*
X43429356Y48556045D01*
X43429352Y48556044D01*
X43255118Y48462914D01*
X43255114Y48462911D01*
X43102410Y48337590D01*
X42977089Y48184886D01*
X42977086Y48184882D01*
X42883956Y48010648D01*
X42883955Y48010644D01*
X42826610Y47821602D01*
X42826610Y47821600D01*
X42807247Y47625000D01*
X42282753Y47625000D01*
X42263389Y47821603D01*
X42206042Y48010650D01*
X42112916Y48184878D01*
X42112913Y48184882D01*
X42112910Y48184886D01*
X41987589Y48337590D01*
X41834885Y48462911D01*
X41834881Y48462914D01*
X41834879Y48462915D01*
X41834878Y48462916D01*
X41700657Y48534658D01*
X41660647Y48556044D01*
X41660643Y48556045D01*
X41471600Y48613390D01*
X41299112Y48630379D01*
X41275000Y48632753D01*
X41274999Y48632753D01*
X41078400Y48613390D01*
X41078398Y48613390D01*
X40889356Y48556045D01*
X40889352Y48556044D01*
X40715118Y48462914D01*
X40715114Y48462911D01*
X40562410Y48337590D01*
X40437089Y48184886D01*
X40437086Y48184882D01*
X40343956Y48010648D01*
X40343955Y48010644D01*
X40286610Y47821602D01*
X40286610Y47821600D01*
X40267247Y47625001D01*
X39742753Y47625001D01*
X39723389Y47821603D01*
X39666042Y48010650D01*
X39572916Y48184878D01*
X39572913Y48184882D01*
X39572910Y48184886D01*
X39447589Y48337590D01*
X39294885Y48462911D01*
X39294881Y48462914D01*
X39294879Y48462915D01*
X39294878Y48462916D01*
X39160657Y48534658D01*
X39120647Y48556044D01*
X39120643Y48556045D01*
X38931600Y48613390D01*
X38735000Y48632753D01*
X38538400Y48613390D01*
X38538398Y48613390D01*
X38349356Y48556045D01*
X38349352Y48556044D01*
X38175118Y48462914D01*
X38175114Y48462911D01*
X38022410Y48337590D01*
X37897089Y48184886D01*
X37897086Y48184882D01*
X37803956Y48010648D01*
X37803955Y48010644D01*
X37746610Y47821602D01*
X37746610Y47821600D01*
X37727247Y47625001D01*
X37202753Y47625001D01*
X37183389Y47821603D01*
X37126042Y48010650D01*
X37032916Y48184878D01*
X37032913Y48184882D01*
X37032910Y48184886D01*
X36907589Y48337590D01*
X36754885Y48462911D01*
X36754881Y48462914D01*
X36754879Y48462915D01*
X36754878Y48462916D01*
X36620657Y48534658D01*
X36580647Y48556044D01*
X36580643Y48556045D01*
X36391600Y48613390D01*
X36219112Y48630379D01*
X36195000Y48632753D01*
X36194999Y48632753D01*
X35998400Y48613390D01*
X35998398Y48613390D01*
X35809356Y48556045D01*
X35809352Y48556044D01*
X35635118Y48462914D01*
X35635114Y48462911D01*
X35482410Y48337590D01*
X35357089Y48184886D01*
X35357086Y48184882D01*
X35263956Y48010648D01*
X35263955Y48010644D01*
X35206610Y47821602D01*
X35206610Y47821600D01*
X35187247Y47625000D01*
X34662753Y47625000D01*
X34643389Y47821603D01*
X34586042Y48010650D01*
X34492916Y48184878D01*
X34492913Y48184882D01*
X34492910Y48184886D01*
X34367589Y48337590D01*
X34214885Y48462911D01*
X34214881Y48462914D01*
X34214879Y48462915D01*
X34214878Y48462916D01*
X34080657Y48534658D01*
X34040647Y48556044D01*
X34040643Y48556045D01*
X33851600Y48613390D01*
X33655000Y48632753D01*
X33458400Y48613390D01*
X33458398Y48613390D01*
X33269356Y48556045D01*
X33269352Y48556044D01*
X33095118Y48462914D01*
X33095114Y48462911D01*
X32942410Y48337590D01*
X32817089Y48184886D01*
X32817086Y48184882D01*
X32723956Y48010648D01*
X32723955Y48010644D01*
X32666610Y47821602D01*
X32666610Y47821600D01*
X32647247Y47625000D01*
X32122753Y47625000D01*
X32103389Y47821603D01*
X32046042Y48010650D01*
X31952916Y48184878D01*
X31952913Y48184882D01*
X31952910Y48184886D01*
X31827589Y48337590D01*
X31674885Y48462911D01*
X31674881Y48462914D01*
X31674879Y48462915D01*
X31674878Y48462916D01*
X31540657Y48534658D01*
X31500647Y48556044D01*
X31500643Y48556045D01*
X31311600Y48613390D01*
X31139112Y48630379D01*
X31115000Y48632753D01*
X31114999Y48632753D01*
X30918400Y48613390D01*
X30918398Y48613390D01*
X30729356Y48556045D01*
X30729352Y48556044D01*
X30555118Y48462914D01*
X30555114Y48462911D01*
X30402410Y48337590D01*
X30277089Y48184886D01*
X30277086Y48184882D01*
X30183956Y48010648D01*
X30183955Y48010644D01*
X30126610Y47821602D01*
X30126610Y47821600D01*
X30107247Y47625001D01*
X29582753Y47625001D01*
X29563389Y47821603D01*
X29506042Y48010650D01*
X29412916Y48184878D01*
X29412913Y48184882D01*
X29412910Y48184886D01*
X29287589Y48337590D01*
X29134885Y48462911D01*
X29134881Y48462914D01*
X29134879Y48462915D01*
X29134878Y48462916D01*
X29000657Y48534658D01*
X28960647Y48556044D01*
X28960643Y48556045D01*
X28771600Y48613390D01*
X28575000Y48632753D01*
X28378400Y48613390D01*
X28378398Y48613390D01*
X28189356Y48556045D01*
X28189352Y48556044D01*
X28015118Y48462914D01*
X28015114Y48462911D01*
X27862410Y48337590D01*
X27737089Y48184886D01*
X27737086Y48184882D01*
X27643956Y48010648D01*
X27643955Y48010644D01*
X27586610Y47821602D01*
X27586610Y47821600D01*
X27567247Y47625000D01*
X27042753Y47625000D01*
X27023389Y47821603D01*
X26966042Y48010650D01*
X26872916Y48184878D01*
X26872913Y48184882D01*
X26872910Y48184886D01*
X26747589Y48337590D01*
X26594885Y48462911D01*
X26594881Y48462914D01*
X26594879Y48462915D01*
X26594878Y48462916D01*
X26460657Y48534658D01*
X26420647Y48556044D01*
X26420643Y48556045D01*
X26231600Y48613390D01*
X26059112Y48630379D01*
X26035000Y48632753D01*
X26034999Y48632753D01*
X25838400Y48613390D01*
X25838398Y48613390D01*
X25649356Y48556045D01*
X25649352Y48556044D01*
X25475118Y48462914D01*
X25475114Y48462911D01*
X25322410Y48337590D01*
X25197089Y48184886D01*
X25197086Y48184882D01*
X25103956Y48010648D01*
X25103955Y48010644D01*
X25046610Y47821602D01*
X25046610Y47821600D01*
X25027247Y47625000D01*
X24502753Y47625000D01*
X24483389Y47821603D01*
X24426042Y48010650D01*
X24332916Y48184878D01*
X24332913Y48184882D01*
X24332910Y48184886D01*
X24207589Y48337590D01*
X24054885Y48462911D01*
X24054881Y48462914D01*
X24054879Y48462915D01*
X24054878Y48462916D01*
X23920657Y48534658D01*
X23880647Y48556044D01*
X23880643Y48556045D01*
X23691600Y48613390D01*
X23495000Y48632753D01*
X23298400Y48613390D01*
X23298398Y48613390D01*
X23109356Y48556045D01*
X23109352Y48556044D01*
X22935118Y48462914D01*
X22935114Y48462911D01*
X22782410Y48337590D01*
X22657089Y48184886D01*
X22657086Y48184882D01*
X22563956Y48010648D01*
X22563955Y48010644D01*
X22506610Y47821602D01*
X22506610Y47821600D01*
X22487247Y47625001D01*
X21962753Y47625001D01*
X21943389Y47821603D01*
X21886042Y48010650D01*
X21792916Y48184878D01*
X21792913Y48184882D01*
X21792910Y48184886D01*
X21667589Y48337590D01*
X21514885Y48462911D01*
X21514881Y48462914D01*
X21514879Y48462915D01*
X21514878Y48462916D01*
X21380657Y48534658D01*
X21340647Y48556044D01*
X21340643Y48556045D01*
X21151600Y48613390D01*
X20979112Y48630379D01*
X20955000Y48632753D01*
X20954999Y48632753D01*
X20758400Y48613390D01*
X20758398Y48613390D01*
X20569356Y48556045D01*
X20569352Y48556044D01*
X20395118Y48462914D01*
X20395114Y48462911D01*
X20242410Y48337590D01*
X20117089Y48184886D01*
X20117086Y48184882D01*
X20023956Y48010648D01*
X20023955Y48010644D01*
X19966610Y47821602D01*
X19966610Y47821600D01*
X19947247Y47625001D01*
X19422753Y47625001D01*
X19403389Y47821603D01*
X19346042Y48010650D01*
X19252916Y48184878D01*
X19252913Y48184882D01*
X19252910Y48184886D01*
X19127589Y48337590D01*
X18974885Y48462911D01*
X18974881Y48462914D01*
X18974879Y48462915D01*
X18974878Y48462916D01*
X18840657Y48534658D01*
X18800647Y48556044D01*
X18800643Y48556045D01*
X18611600Y48613390D01*
X18415000Y48632753D01*
X18218400Y48613390D01*
X18218398Y48613390D01*
X18029356Y48556045D01*
X18029352Y48556044D01*
X17855118Y48462914D01*
X17855114Y48462911D01*
X17702410Y48337590D01*
X17577089Y48184886D01*
X17577086Y48184882D01*
X17483956Y48010648D01*
X17483955Y48010644D01*
X17426610Y47821602D01*
X17426610Y47821600D01*
X17407247Y47625000D01*
X16882753Y47625000D01*
X16863389Y47821603D01*
X16806042Y48010650D01*
X16712916Y48184878D01*
X16712913Y48184882D01*
X16712910Y48184886D01*
X16587589Y48337590D01*
X16434885Y48462911D01*
X16434881Y48462914D01*
X16434879Y48462915D01*
X16434878Y48462916D01*
X16300657Y48534658D01*
X16260647Y48556044D01*
X16260643Y48556045D01*
X16071600Y48613390D01*
X15899112Y48630379D01*
X15875000Y48632753D01*
X15874999Y48632753D01*
X15678400Y48613390D01*
X15678398Y48613390D01*
X15489356Y48556045D01*
X15489352Y48556044D01*
X15315118Y48462914D01*
X15315114Y48462911D01*
X15162410Y48337590D01*
X15037089Y48184886D01*
X15037086Y48184882D01*
X14943956Y48010648D01*
X14943955Y48010644D01*
X14886610Y47821602D01*
X14886610Y47821600D01*
X14867247Y47625000D01*
X7061050Y47625000D01*
X7141186Y47708119D01*
X7298799Y47928421D01*
X7422656Y48169325D01*
X7432093Y48196989D01*
X7510116Y48425688D01*
X7510116Y48425691D01*
X7510118Y48425695D01*
X7559319Y48692067D01*
X7564259Y48827235D01*
X72440788Y48827235D01*
X72470414Y48557978D01*
X72538926Y48295916D01*
X72538928Y48295911D01*
X72644869Y48046612D01*
X72644871Y48046608D01*
X72785983Y47815388D01*
X72785984Y47815387D01*
X72959251Y47607184D01*
X72959255Y47607180D01*
X73160998Y47426418D01*
X73386910Y47276956D01*
X73632176Y47161980D01*
X73891569Y47083940D01*
X74159561Y47044500D01*
X74159565Y47044500D01*
X74362639Y47044500D01*
X74362641Y47044501D01*
X74436251Y47049889D01*
X74565147Y47059322D01*
X74565149Y47059323D01*
X74565156Y47059323D01*
X74829553Y47118220D01*
X75082558Y47214986D01*
X75318777Y47347559D01*
X75533177Y47513112D01*
X75721186Y47708119D01*
X75878799Y47928421D01*
X76002656Y48169325D01*
X76012093Y48196989D01*
X76090116Y48425688D01*
X76090116Y48425691D01*
X76090118Y48425695D01*
X76139319Y48692067D01*
X76149212Y48962765D01*
X76119586Y49232018D01*
X76051072Y49494088D01*
X75945130Y49743390D01*
X75804018Y49974610D01*
X75645575Y50165000D01*
X75630748Y50182817D01*
X75630744Y50182821D01*
X75525766Y50276881D01*
X75429002Y50363582D01*
X75267649Y50470332D01*
X75203089Y50513045D01*
X74957822Y50628021D01*
X74810051Y50672479D01*
X74698431Y50706060D01*
X74531147Y50730679D01*
X74430440Y50745500D01*
X74430439Y50745500D01*
X74227369Y50745500D01*
X74227357Y50745500D01*
X74024852Y50730679D01*
X73760442Y50671779D01*
X73507439Y50575013D01*
X73271226Y50442444D01*
X73056827Y50276892D01*
X73056815Y50276881D01*
X72868818Y50081886D01*
X72868810Y50081876D01*
X72711201Y49861580D01*
X72711200Y49861578D01*
X72587341Y49620670D01*
X72499883Y49364313D01*
X72499881Y49364303D01*
X72450681Y49097936D01*
X72440788Y48827239D01*
X72440788Y48827235D01*
X7564259Y48827235D01*
X7569212Y48962765D01*
X7539586Y49232018D01*
X7471072Y49494088D01*
X7365130Y49743390D01*
X7224018Y49974610D01*
X7065575Y50165000D01*
X7050748Y50182817D01*
X7050744Y50182821D01*
X6945766Y50276881D01*
X6849002Y50363582D01*
X6687649Y50470332D01*
X6623089Y50513045D01*
X6377822Y50628021D01*
X6230051Y50672479D01*
X6118431Y50706060D01*
X5951147Y50730679D01*
X5850440Y50745500D01*
X5850439Y50745500D01*
X5647369Y50745500D01*
X5647357Y50745500D01*
X5444852Y50730679D01*
X5180442Y50671779D01*
X4927439Y50575013D01*
X4691226Y50442444D01*
X4476827Y50276892D01*
X4476815Y50276881D01*
X4288818Y50081886D01*
X4288810Y50081876D01*
X4131201Y49861580D01*
X4131200Y49861578D01*
X4007341Y49620670D01*
X3919883Y49364313D01*
X3919881Y49364303D01*
X3870681Y49097936D01*
X3860788Y48827239D01*
X3860788Y48827235D01*
X1930500Y48827235D01*
X1930500Y50163861D01*
X1930569Y50166132D01*
X1942512Y50363582D01*
X1948697Y50465835D01*
X1949241Y50470316D01*
X2003160Y50764543D01*
X2004238Y50768915D01*
X2093227Y51054489D01*
X2094836Y51058729D01*
X2217586Y51331469D01*
X2219698Y51335493D01*
X2374432Y51591455D01*
X2376999Y51595177D01*
X2561479Y51830647D01*
X2564465Y51834018D01*
X2775982Y52045535D01*
X2779353Y52048521D01*
X3014823Y52233001D01*
X3018545Y52235568D01*
X3274507Y52390302D01*
X3278531Y52392414D01*
X3326323Y52413923D01*
X3551269Y52515164D01*
X3555511Y52516773D01*
X3841085Y52605762D01*
X3845457Y52606840D01*
X4139684Y52660759D01*
X4144165Y52661303D01*
X4317941Y52671815D01*
X4443869Y52679431D01*
X4446140Y52679500D01*
X4453285Y52679500D01*
X75556715Y52679500D01*
X75563860Y52679500D01*
X75566131Y52679431D01*
G37*
G04 #@! TD.AperFunction*
G04 #@! TD*
M02*
