G04 #@! TF.GenerationSoftware,KiCad,Pcbnew,7.0.6+dfsg-1*
G04 #@! TF.CreationDate,2023-08-25T11:52:39+08:00*
G04 #@! TF.ProjectId,mem24cxx,6d656d32-3463-4787-982e-6b696361645f,rev?*
G04 #@! TF.SameCoordinates,Original*
G04 #@! TF.FileFunction,Legend,Top*
G04 #@! TF.FilePolarity,Positive*
%FSLAX46Y46*%
G04 Gerber Fmt 4.6, Leading zero omitted, Abs format (unit mm)*
G04 Created by KiCad (PCBNEW 7.0.6+dfsg-1) date 2023-08-25 11:52:39*
%MOMM*%
%LPD*%
G01*
G04 APERTURE LIST*
%ADD10C,0.150000*%
%ADD11C,0.120000*%
G04 APERTURE END LIST*
D10*
X179070000Y-113665000D02*
X179070000Y-128905000D01*
X170815000Y-128905000D02*
X162560000Y-128905000D01*
X162560000Y-117475000D02*
X170815000Y-117475000D01*
X162560000Y-113665000D02*
X170815000Y-113665000D01*
X179070000Y-121285000D02*
X170815000Y-121285000D01*
X170815000Y-113665000D02*
X170815000Y-128905000D01*
X170815000Y-113665000D02*
X179070000Y-113665000D01*
X179070000Y-128905000D02*
X170815000Y-128905000D01*
X179070000Y-125095000D02*
X170815000Y-125095000D01*
X162560000Y-121285000D02*
X170815000Y-121285000D01*
X179070000Y-117475000D02*
X170815000Y-117475000D01*
X162560000Y-128905000D02*
X162560000Y-113665000D01*
X162560000Y-125095000D02*
X170815000Y-125095000D01*
X158683459Y-127454819D02*
X158683459Y-126454819D01*
X159112030Y-126550057D02*
X159159649Y-126502438D01*
X159159649Y-126502438D02*
X159254887Y-126454819D01*
X159254887Y-126454819D02*
X159492982Y-126454819D01*
X159492982Y-126454819D02*
X159588220Y-126502438D01*
X159588220Y-126502438D02*
X159635839Y-126550057D01*
X159635839Y-126550057D02*
X159683458Y-126645295D01*
X159683458Y-126645295D02*
X159683458Y-126740533D01*
X159683458Y-126740533D02*
X159635839Y-126883390D01*
X159635839Y-126883390D02*
X159064411Y-127454819D01*
X159064411Y-127454819D02*
X159683458Y-127454819D01*
X160683458Y-127359580D02*
X160635839Y-127407200D01*
X160635839Y-127407200D02*
X160492982Y-127454819D01*
X160492982Y-127454819D02*
X160397744Y-127454819D01*
X160397744Y-127454819D02*
X160254887Y-127407200D01*
X160254887Y-127407200D02*
X160159649Y-127311961D01*
X160159649Y-127311961D02*
X160112030Y-127216723D01*
X160112030Y-127216723D02*
X160064411Y-127026247D01*
X160064411Y-127026247D02*
X160064411Y-126883390D01*
X160064411Y-126883390D02*
X160112030Y-126692914D01*
X160112030Y-126692914D02*
X160159649Y-126597676D01*
X160159649Y-126597676D02*
X160254887Y-126502438D01*
X160254887Y-126502438D02*
X160397744Y-126454819D01*
X160397744Y-126454819D02*
X160492982Y-126454819D01*
X160492982Y-126454819D02*
X160635839Y-126502438D01*
X160635839Y-126502438D02*
X160683458Y-126550057D01*
X161016792Y-126454819D02*
X161635839Y-126454819D01*
X161635839Y-126454819D02*
X161302506Y-126835771D01*
X161302506Y-126835771D02*
X161445363Y-126835771D01*
X161445363Y-126835771D02*
X161540601Y-126883390D01*
X161540601Y-126883390D02*
X161588220Y-126931009D01*
X161588220Y-126931009D02*
X161635839Y-127026247D01*
X161635839Y-127026247D02*
X161635839Y-127264342D01*
X161635839Y-127264342D02*
X161588220Y-127359580D01*
X161588220Y-127359580D02*
X161540601Y-127407200D01*
X161540601Y-127407200D02*
X161445363Y-127454819D01*
X161445363Y-127454819D02*
X161159649Y-127454819D01*
X161159649Y-127454819D02*
X161064411Y-127407200D01*
X161064411Y-127407200D02*
X161016792Y-127359580D01*
X158683459Y-123644819D02*
X158683459Y-122644819D01*
X159112030Y-122740057D02*
X159159649Y-122692438D01*
X159159649Y-122692438D02*
X159254887Y-122644819D01*
X159254887Y-122644819D02*
X159492982Y-122644819D01*
X159492982Y-122644819D02*
X159588220Y-122692438D01*
X159588220Y-122692438D02*
X159635839Y-122740057D01*
X159635839Y-122740057D02*
X159683458Y-122835295D01*
X159683458Y-122835295D02*
X159683458Y-122930533D01*
X159683458Y-122930533D02*
X159635839Y-123073390D01*
X159635839Y-123073390D02*
X159064411Y-123644819D01*
X159064411Y-123644819D02*
X159683458Y-123644819D01*
X160683458Y-123549580D02*
X160635839Y-123597200D01*
X160635839Y-123597200D02*
X160492982Y-123644819D01*
X160492982Y-123644819D02*
X160397744Y-123644819D01*
X160397744Y-123644819D02*
X160254887Y-123597200D01*
X160254887Y-123597200D02*
X160159649Y-123501961D01*
X160159649Y-123501961D02*
X160112030Y-123406723D01*
X160112030Y-123406723D02*
X160064411Y-123216247D01*
X160064411Y-123216247D02*
X160064411Y-123073390D01*
X160064411Y-123073390D02*
X160112030Y-122882914D01*
X160112030Y-122882914D02*
X160159649Y-122787676D01*
X160159649Y-122787676D02*
X160254887Y-122692438D01*
X160254887Y-122692438D02*
X160397744Y-122644819D01*
X160397744Y-122644819D02*
X160492982Y-122644819D01*
X160492982Y-122644819D02*
X160635839Y-122692438D01*
X160635839Y-122692438D02*
X160683458Y-122740057D01*
X161064411Y-122740057D02*
X161112030Y-122692438D01*
X161112030Y-122692438D02*
X161207268Y-122644819D01*
X161207268Y-122644819D02*
X161445363Y-122644819D01*
X161445363Y-122644819D02*
X161540601Y-122692438D01*
X161540601Y-122692438D02*
X161588220Y-122740057D01*
X161588220Y-122740057D02*
X161635839Y-122835295D01*
X161635839Y-122835295D02*
X161635839Y-122930533D01*
X161635839Y-122930533D02*
X161588220Y-123073390D01*
X161588220Y-123073390D02*
X161016792Y-123644819D01*
X161016792Y-123644819D02*
X161635839Y-123644819D01*
X165179524Y-112852200D02*
X165322381Y-112899819D01*
X165322381Y-112899819D02*
X165560476Y-112899819D01*
X165560476Y-112899819D02*
X165655714Y-112852200D01*
X165655714Y-112852200D02*
X165703333Y-112804580D01*
X165703333Y-112804580D02*
X165750952Y-112709342D01*
X165750952Y-112709342D02*
X165750952Y-112614104D01*
X165750952Y-112614104D02*
X165703333Y-112518866D01*
X165703333Y-112518866D02*
X165655714Y-112471247D01*
X165655714Y-112471247D02*
X165560476Y-112423628D01*
X165560476Y-112423628D02*
X165370000Y-112376009D01*
X165370000Y-112376009D02*
X165274762Y-112328390D01*
X165274762Y-112328390D02*
X165227143Y-112280771D01*
X165227143Y-112280771D02*
X165179524Y-112185533D01*
X165179524Y-112185533D02*
X165179524Y-112090295D01*
X165179524Y-112090295D02*
X165227143Y-111995057D01*
X165227143Y-111995057D02*
X165274762Y-111947438D01*
X165274762Y-111947438D02*
X165370000Y-111899819D01*
X165370000Y-111899819D02*
X165608095Y-111899819D01*
X165608095Y-111899819D02*
X165750952Y-111947438D01*
X166750952Y-112804580D02*
X166703333Y-112852200D01*
X166703333Y-112852200D02*
X166560476Y-112899819D01*
X166560476Y-112899819D02*
X166465238Y-112899819D01*
X166465238Y-112899819D02*
X166322381Y-112852200D01*
X166322381Y-112852200D02*
X166227143Y-112756961D01*
X166227143Y-112756961D02*
X166179524Y-112661723D01*
X166179524Y-112661723D02*
X166131905Y-112471247D01*
X166131905Y-112471247D02*
X166131905Y-112328390D01*
X166131905Y-112328390D02*
X166179524Y-112137914D01*
X166179524Y-112137914D02*
X166227143Y-112042676D01*
X166227143Y-112042676D02*
X166322381Y-111947438D01*
X166322381Y-111947438D02*
X166465238Y-111899819D01*
X166465238Y-111899819D02*
X166560476Y-111899819D01*
X166560476Y-111899819D02*
X166703333Y-111947438D01*
X166703333Y-111947438D02*
X166750952Y-111995057D01*
X167655714Y-112899819D02*
X167179524Y-112899819D01*
X167179524Y-112899819D02*
X167179524Y-111899819D01*
X158683459Y-116024819D02*
X158683459Y-115024819D01*
X159112030Y-115120057D02*
X159159649Y-115072438D01*
X159159649Y-115072438D02*
X159254887Y-115024819D01*
X159254887Y-115024819D02*
X159492982Y-115024819D01*
X159492982Y-115024819D02*
X159588220Y-115072438D01*
X159588220Y-115072438D02*
X159635839Y-115120057D01*
X159635839Y-115120057D02*
X159683458Y-115215295D01*
X159683458Y-115215295D02*
X159683458Y-115310533D01*
X159683458Y-115310533D02*
X159635839Y-115453390D01*
X159635839Y-115453390D02*
X159064411Y-116024819D01*
X159064411Y-116024819D02*
X159683458Y-116024819D01*
X160683458Y-115929580D02*
X160635839Y-115977200D01*
X160635839Y-115977200D02*
X160492982Y-116024819D01*
X160492982Y-116024819D02*
X160397744Y-116024819D01*
X160397744Y-116024819D02*
X160254887Y-115977200D01*
X160254887Y-115977200D02*
X160159649Y-115881961D01*
X160159649Y-115881961D02*
X160112030Y-115786723D01*
X160112030Y-115786723D02*
X160064411Y-115596247D01*
X160064411Y-115596247D02*
X160064411Y-115453390D01*
X160064411Y-115453390D02*
X160112030Y-115262914D01*
X160112030Y-115262914D02*
X160159649Y-115167676D01*
X160159649Y-115167676D02*
X160254887Y-115072438D01*
X160254887Y-115072438D02*
X160397744Y-115024819D01*
X160397744Y-115024819D02*
X160492982Y-115024819D01*
X160492982Y-115024819D02*
X160635839Y-115072438D01*
X160635839Y-115072438D02*
X160683458Y-115120057D01*
X161635839Y-116024819D02*
X161064411Y-116024819D01*
X161350125Y-116024819D02*
X161350125Y-115024819D01*
X161350125Y-115024819D02*
X161254887Y-115167676D01*
X161254887Y-115167676D02*
X161159649Y-115262914D01*
X161159649Y-115262914D02*
X161064411Y-115310533D01*
X173644160Y-112852200D02*
X173787017Y-112899819D01*
X173787017Y-112899819D02*
X174025112Y-112899819D01*
X174025112Y-112899819D02*
X174120350Y-112852200D01*
X174120350Y-112852200D02*
X174167969Y-112804580D01*
X174167969Y-112804580D02*
X174215588Y-112709342D01*
X174215588Y-112709342D02*
X174215588Y-112614104D01*
X174215588Y-112614104D02*
X174167969Y-112518866D01*
X174167969Y-112518866D02*
X174120350Y-112471247D01*
X174120350Y-112471247D02*
X174025112Y-112423628D01*
X174025112Y-112423628D02*
X173834636Y-112376009D01*
X173834636Y-112376009D02*
X173739398Y-112328390D01*
X173739398Y-112328390D02*
X173691779Y-112280771D01*
X173691779Y-112280771D02*
X173644160Y-112185533D01*
X173644160Y-112185533D02*
X173644160Y-112090295D01*
X173644160Y-112090295D02*
X173691779Y-111995057D01*
X173691779Y-111995057D02*
X173739398Y-111947438D01*
X173739398Y-111947438D02*
X173834636Y-111899819D01*
X173834636Y-111899819D02*
X174072731Y-111899819D01*
X174072731Y-111899819D02*
X174215588Y-111947438D01*
X174644160Y-112899819D02*
X174644160Y-111899819D01*
X174644160Y-111899819D02*
X174882255Y-111899819D01*
X174882255Y-111899819D02*
X175025112Y-111947438D01*
X175025112Y-111947438D02*
X175120350Y-112042676D01*
X175120350Y-112042676D02*
X175167969Y-112137914D01*
X175167969Y-112137914D02*
X175215588Y-112328390D01*
X175215588Y-112328390D02*
X175215588Y-112471247D01*
X175215588Y-112471247D02*
X175167969Y-112661723D01*
X175167969Y-112661723D02*
X175120350Y-112756961D01*
X175120350Y-112756961D02*
X175025112Y-112852200D01*
X175025112Y-112852200D02*
X174882255Y-112899819D01*
X174882255Y-112899819D02*
X174644160Y-112899819D01*
X175596541Y-112614104D02*
X176072731Y-112614104D01*
X175501303Y-112899819D02*
X175834636Y-111899819D01*
X175834636Y-111899819D02*
X176167969Y-112899819D01*
X157826316Y-119834819D02*
X157826316Y-118834819D01*
X158254887Y-118930057D02*
X158302506Y-118882438D01*
X158302506Y-118882438D02*
X158397744Y-118834819D01*
X158397744Y-118834819D02*
X158635839Y-118834819D01*
X158635839Y-118834819D02*
X158731077Y-118882438D01*
X158731077Y-118882438D02*
X158778696Y-118930057D01*
X158778696Y-118930057D02*
X158826315Y-119025295D01*
X158826315Y-119025295D02*
X158826315Y-119120533D01*
X158826315Y-119120533D02*
X158778696Y-119263390D01*
X158778696Y-119263390D02*
X158207268Y-119834819D01*
X158207268Y-119834819D02*
X158826315Y-119834819D01*
X159826315Y-119739580D02*
X159778696Y-119787200D01*
X159778696Y-119787200D02*
X159635839Y-119834819D01*
X159635839Y-119834819D02*
X159540601Y-119834819D01*
X159540601Y-119834819D02*
X159397744Y-119787200D01*
X159397744Y-119787200D02*
X159302506Y-119691961D01*
X159302506Y-119691961D02*
X159254887Y-119596723D01*
X159254887Y-119596723D02*
X159207268Y-119406247D01*
X159207268Y-119406247D02*
X159207268Y-119263390D01*
X159207268Y-119263390D02*
X159254887Y-119072914D01*
X159254887Y-119072914D02*
X159302506Y-118977676D01*
X159302506Y-118977676D02*
X159397744Y-118882438D01*
X159397744Y-118882438D02*
X159540601Y-118834819D01*
X159540601Y-118834819D02*
X159635839Y-118834819D01*
X159635839Y-118834819D02*
X159778696Y-118882438D01*
X159778696Y-118882438D02*
X159826315Y-118930057D01*
X160778696Y-119834819D02*
X160207268Y-119834819D01*
X160492982Y-119834819D02*
X160492982Y-118834819D01*
X160492982Y-118834819D02*
X160397744Y-118977676D01*
X160397744Y-118977676D02*
X160302506Y-119072914D01*
X160302506Y-119072914D02*
X160207268Y-119120533D01*
X161159649Y-119549104D02*
X161635839Y-119549104D01*
X161064411Y-119834819D02*
X161397744Y-118834819D01*
X161397744Y-118834819D02*
X161731077Y-119834819D01*
X200533095Y-122419819D02*
X200533095Y-123229342D01*
X200533095Y-123229342D02*
X200580714Y-123324580D01*
X200580714Y-123324580D02*
X200628333Y-123372200D01*
X200628333Y-123372200D02*
X200723571Y-123419819D01*
X200723571Y-123419819D02*
X200914047Y-123419819D01*
X200914047Y-123419819D02*
X201009285Y-123372200D01*
X201009285Y-123372200D02*
X201056904Y-123324580D01*
X201056904Y-123324580D02*
X201104523Y-123229342D01*
X201104523Y-123229342D02*
X201104523Y-122419819D01*
X202009285Y-122753152D02*
X202009285Y-123419819D01*
X201771190Y-122372200D02*
X201533095Y-123086485D01*
X201533095Y-123086485D02*
X202152142Y-123086485D01*
X190373095Y-114164819D02*
X190373095Y-114974342D01*
X190373095Y-114974342D02*
X190420714Y-115069580D01*
X190420714Y-115069580D02*
X190468333Y-115117200D01*
X190468333Y-115117200D02*
X190563571Y-115164819D01*
X190563571Y-115164819D02*
X190754047Y-115164819D01*
X190754047Y-115164819D02*
X190849285Y-115117200D01*
X190849285Y-115117200D02*
X190896904Y-115069580D01*
X190896904Y-115069580D02*
X190944523Y-114974342D01*
X190944523Y-114974342D02*
X190944523Y-114164819D01*
X191944523Y-115164819D02*
X191373095Y-115164819D01*
X191658809Y-115164819D02*
X191658809Y-114164819D01*
X191658809Y-114164819D02*
X191563571Y-114307676D01*
X191563571Y-114307676D02*
X191468333Y-114402914D01*
X191468333Y-114402914D02*
X191373095Y-114450533D01*
X164266666Y-122644819D02*
X164266666Y-123359104D01*
X164266666Y-123359104D02*
X164219047Y-123501961D01*
X164219047Y-123501961D02*
X164123809Y-123597200D01*
X164123809Y-123597200D02*
X163980952Y-123644819D01*
X163980952Y-123644819D02*
X163885714Y-123644819D01*
X164742857Y-123644819D02*
X164742857Y-122644819D01*
X164742857Y-122644819D02*
X165123809Y-122644819D01*
X165123809Y-122644819D02*
X165219047Y-122692438D01*
X165219047Y-122692438D02*
X165266666Y-122740057D01*
X165266666Y-122740057D02*
X165314285Y-122835295D01*
X165314285Y-122835295D02*
X165314285Y-122978152D01*
X165314285Y-122978152D02*
X165266666Y-123073390D01*
X165266666Y-123073390D02*
X165219047Y-123121009D01*
X165219047Y-123121009D02*
X165123809Y-123168628D01*
X165123809Y-123168628D02*
X164742857Y-123168628D01*
X165647619Y-122644819D02*
X166266666Y-122644819D01*
X166266666Y-122644819D02*
X165933333Y-123025771D01*
X165933333Y-123025771D02*
X166076190Y-123025771D01*
X166076190Y-123025771D02*
X166171428Y-123073390D01*
X166171428Y-123073390D02*
X166219047Y-123121009D01*
X166219047Y-123121009D02*
X166266666Y-123216247D01*
X166266666Y-123216247D02*
X166266666Y-123454342D01*
X166266666Y-123454342D02*
X166219047Y-123549580D01*
X166219047Y-123549580D02*
X166171428Y-123597200D01*
X166171428Y-123597200D02*
X166076190Y-123644819D01*
X166076190Y-123644819D02*
X165790476Y-123644819D01*
X165790476Y-123644819D02*
X165695238Y-123597200D01*
X165695238Y-123597200D02*
X165647619Y-123549580D01*
X208113333Y-114659580D02*
X208065714Y-114707200D01*
X208065714Y-114707200D02*
X207922857Y-114754819D01*
X207922857Y-114754819D02*
X207827619Y-114754819D01*
X207827619Y-114754819D02*
X207684762Y-114707200D01*
X207684762Y-114707200D02*
X207589524Y-114611961D01*
X207589524Y-114611961D02*
X207541905Y-114516723D01*
X207541905Y-114516723D02*
X207494286Y-114326247D01*
X207494286Y-114326247D02*
X207494286Y-114183390D01*
X207494286Y-114183390D02*
X207541905Y-113992914D01*
X207541905Y-113992914D02*
X207589524Y-113897676D01*
X207589524Y-113897676D02*
X207684762Y-113802438D01*
X207684762Y-113802438D02*
X207827619Y-113754819D01*
X207827619Y-113754819D02*
X207922857Y-113754819D01*
X207922857Y-113754819D02*
X208065714Y-113802438D01*
X208065714Y-113802438D02*
X208113333Y-113850057D01*
X208446667Y-113754819D02*
X209065714Y-113754819D01*
X209065714Y-113754819D02*
X208732381Y-114135771D01*
X208732381Y-114135771D02*
X208875238Y-114135771D01*
X208875238Y-114135771D02*
X208970476Y-114183390D01*
X208970476Y-114183390D02*
X209018095Y-114231009D01*
X209018095Y-114231009D02*
X209065714Y-114326247D01*
X209065714Y-114326247D02*
X209065714Y-114564342D01*
X209065714Y-114564342D02*
X209018095Y-114659580D01*
X209018095Y-114659580D02*
X208970476Y-114707200D01*
X208970476Y-114707200D02*
X208875238Y-114754819D01*
X208875238Y-114754819D02*
X208589524Y-114754819D01*
X208589524Y-114754819D02*
X208494286Y-114707200D01*
X208494286Y-114707200D02*
X208446667Y-114659580D01*
X164266666Y-115024819D02*
X164266666Y-115739104D01*
X164266666Y-115739104D02*
X164219047Y-115881961D01*
X164219047Y-115881961D02*
X164123809Y-115977200D01*
X164123809Y-115977200D02*
X163980952Y-116024819D01*
X163980952Y-116024819D02*
X163885714Y-116024819D01*
X164742857Y-116024819D02*
X164742857Y-115024819D01*
X164742857Y-115024819D02*
X165123809Y-115024819D01*
X165123809Y-115024819D02*
X165219047Y-115072438D01*
X165219047Y-115072438D02*
X165266666Y-115120057D01*
X165266666Y-115120057D02*
X165314285Y-115215295D01*
X165314285Y-115215295D02*
X165314285Y-115358152D01*
X165314285Y-115358152D02*
X165266666Y-115453390D01*
X165266666Y-115453390D02*
X165219047Y-115501009D01*
X165219047Y-115501009D02*
X165123809Y-115548628D01*
X165123809Y-115548628D02*
X164742857Y-115548628D01*
X166266666Y-116024819D02*
X165695238Y-116024819D01*
X165980952Y-116024819D02*
X165980952Y-115024819D01*
X165980952Y-115024819D02*
X165885714Y-115167676D01*
X165885714Y-115167676D02*
X165790476Y-115262914D01*
X165790476Y-115262914D02*
X165695238Y-115310533D01*
X172521666Y-126454819D02*
X172521666Y-127169104D01*
X172521666Y-127169104D02*
X172474047Y-127311961D01*
X172474047Y-127311961D02*
X172378809Y-127407200D01*
X172378809Y-127407200D02*
X172235952Y-127454819D01*
X172235952Y-127454819D02*
X172140714Y-127454819D01*
X172997857Y-127454819D02*
X172997857Y-126454819D01*
X172997857Y-126454819D02*
X173378809Y-126454819D01*
X173378809Y-126454819D02*
X173474047Y-126502438D01*
X173474047Y-126502438D02*
X173521666Y-126550057D01*
X173521666Y-126550057D02*
X173569285Y-126645295D01*
X173569285Y-126645295D02*
X173569285Y-126788152D01*
X173569285Y-126788152D02*
X173521666Y-126883390D01*
X173521666Y-126883390D02*
X173474047Y-126931009D01*
X173474047Y-126931009D02*
X173378809Y-126978628D01*
X173378809Y-126978628D02*
X172997857Y-126978628D01*
X174140714Y-126883390D02*
X174045476Y-126835771D01*
X174045476Y-126835771D02*
X173997857Y-126788152D01*
X173997857Y-126788152D02*
X173950238Y-126692914D01*
X173950238Y-126692914D02*
X173950238Y-126645295D01*
X173950238Y-126645295D02*
X173997857Y-126550057D01*
X173997857Y-126550057D02*
X174045476Y-126502438D01*
X174045476Y-126502438D02*
X174140714Y-126454819D01*
X174140714Y-126454819D02*
X174331190Y-126454819D01*
X174331190Y-126454819D02*
X174426428Y-126502438D01*
X174426428Y-126502438D02*
X174474047Y-126550057D01*
X174474047Y-126550057D02*
X174521666Y-126645295D01*
X174521666Y-126645295D02*
X174521666Y-126692914D01*
X174521666Y-126692914D02*
X174474047Y-126788152D01*
X174474047Y-126788152D02*
X174426428Y-126835771D01*
X174426428Y-126835771D02*
X174331190Y-126883390D01*
X174331190Y-126883390D02*
X174140714Y-126883390D01*
X174140714Y-126883390D02*
X174045476Y-126931009D01*
X174045476Y-126931009D02*
X173997857Y-126978628D01*
X173997857Y-126978628D02*
X173950238Y-127073866D01*
X173950238Y-127073866D02*
X173950238Y-127264342D01*
X173950238Y-127264342D02*
X173997857Y-127359580D01*
X173997857Y-127359580D02*
X174045476Y-127407200D01*
X174045476Y-127407200D02*
X174140714Y-127454819D01*
X174140714Y-127454819D02*
X174331190Y-127454819D01*
X174331190Y-127454819D02*
X174426428Y-127407200D01*
X174426428Y-127407200D02*
X174474047Y-127359580D01*
X174474047Y-127359580D02*
X174521666Y-127264342D01*
X174521666Y-127264342D02*
X174521666Y-127073866D01*
X174521666Y-127073866D02*
X174474047Y-126978628D01*
X174474047Y-126978628D02*
X174426428Y-126931009D01*
X174426428Y-126931009D02*
X174331190Y-126883390D01*
X175622295Y-145030826D02*
X174822295Y-145030826D01*
X174822295Y-145030826D02*
X174822295Y-144726064D01*
X174822295Y-144726064D02*
X174860390Y-144649874D01*
X174860390Y-144649874D02*
X174898485Y-144611779D01*
X174898485Y-144611779D02*
X174974676Y-144573683D01*
X174974676Y-144573683D02*
X175088961Y-144573683D01*
X175088961Y-144573683D02*
X175165152Y-144611779D01*
X175165152Y-144611779D02*
X175203247Y-144649874D01*
X175203247Y-144649874D02*
X175241342Y-144726064D01*
X175241342Y-144726064D02*
X175241342Y-145030826D01*
X175393723Y-144268922D02*
X175393723Y-143887969D01*
X175622295Y-144345112D02*
X174822295Y-144078445D01*
X174822295Y-144078445D02*
X175622295Y-143811779D01*
X175088961Y-143202255D02*
X175622295Y-143202255D01*
X174784200Y-143392731D02*
X175355628Y-143583208D01*
X175355628Y-143583208D02*
X175355628Y-143087969D01*
X180702295Y-107045112D02*
X179902295Y-107045112D01*
X179902295Y-107045112D02*
X179902295Y-106740350D01*
X179902295Y-106740350D02*
X179940390Y-106664160D01*
X179940390Y-106664160D02*
X179978485Y-106626065D01*
X179978485Y-106626065D02*
X180054676Y-106587969D01*
X180054676Y-106587969D02*
X180168961Y-106587969D01*
X180168961Y-106587969D02*
X180245152Y-106626065D01*
X180245152Y-106626065D02*
X180283247Y-106664160D01*
X180283247Y-106664160D02*
X180321342Y-106740350D01*
X180321342Y-106740350D02*
X180321342Y-107045112D01*
X180283247Y-105978446D02*
X180321342Y-105864160D01*
X180321342Y-105864160D02*
X180359438Y-105826065D01*
X180359438Y-105826065D02*
X180435628Y-105787969D01*
X180435628Y-105787969D02*
X180549914Y-105787969D01*
X180549914Y-105787969D02*
X180626104Y-105826065D01*
X180626104Y-105826065D02*
X180664200Y-105864160D01*
X180664200Y-105864160D02*
X180702295Y-105940350D01*
X180702295Y-105940350D02*
X180702295Y-106245112D01*
X180702295Y-106245112D02*
X179902295Y-106245112D01*
X179902295Y-106245112D02*
X179902295Y-105978446D01*
X179902295Y-105978446D02*
X179940390Y-105902255D01*
X179940390Y-105902255D02*
X179978485Y-105864160D01*
X179978485Y-105864160D02*
X180054676Y-105826065D01*
X180054676Y-105826065D02*
X180130866Y-105826065D01*
X180130866Y-105826065D02*
X180207057Y-105864160D01*
X180207057Y-105864160D02*
X180245152Y-105902255D01*
X180245152Y-105902255D02*
X180283247Y-105978446D01*
X180283247Y-105978446D02*
X180283247Y-106245112D01*
X179902295Y-105521303D02*
X179902295Y-105026065D01*
X179902295Y-105026065D02*
X180207057Y-105292731D01*
X180207057Y-105292731D02*
X180207057Y-105178446D01*
X180207057Y-105178446D02*
X180245152Y-105102255D01*
X180245152Y-105102255D02*
X180283247Y-105064160D01*
X180283247Y-105064160D02*
X180359438Y-105026065D01*
X180359438Y-105026065D02*
X180549914Y-105026065D01*
X180549914Y-105026065D02*
X180626104Y-105064160D01*
X180626104Y-105064160D02*
X180664200Y-105102255D01*
X180664200Y-105102255D02*
X180702295Y-105178446D01*
X180702295Y-105178446D02*
X180702295Y-105407017D01*
X180702295Y-105407017D02*
X180664200Y-105483208D01*
X180664200Y-105483208D02*
X180626104Y-105521303D01*
X175622295Y-98135839D02*
X174822295Y-98135839D01*
X174822295Y-98135839D02*
X174822295Y-97831077D01*
X174822295Y-97831077D02*
X174860390Y-97754887D01*
X174860390Y-97754887D02*
X174898485Y-97716792D01*
X174898485Y-97716792D02*
X174974676Y-97678696D01*
X174974676Y-97678696D02*
X175088961Y-97678696D01*
X175088961Y-97678696D02*
X175165152Y-97716792D01*
X175165152Y-97716792D02*
X175203247Y-97754887D01*
X175203247Y-97754887D02*
X175241342Y-97831077D01*
X175241342Y-97831077D02*
X175241342Y-98135839D01*
X175203247Y-97069173D02*
X175241342Y-96954887D01*
X175241342Y-96954887D02*
X175279438Y-96916792D01*
X175279438Y-96916792D02*
X175355628Y-96878696D01*
X175355628Y-96878696D02*
X175469914Y-96878696D01*
X175469914Y-96878696D02*
X175546104Y-96916792D01*
X175546104Y-96916792D02*
X175584200Y-96954887D01*
X175584200Y-96954887D02*
X175622295Y-97031077D01*
X175622295Y-97031077D02*
X175622295Y-97335839D01*
X175622295Y-97335839D02*
X174822295Y-97335839D01*
X174822295Y-97335839D02*
X174822295Y-97069173D01*
X174822295Y-97069173D02*
X174860390Y-96992982D01*
X174860390Y-96992982D02*
X174898485Y-96954887D01*
X174898485Y-96954887D02*
X174974676Y-96916792D01*
X174974676Y-96916792D02*
X175050866Y-96916792D01*
X175050866Y-96916792D02*
X175127057Y-96954887D01*
X175127057Y-96954887D02*
X175165152Y-96992982D01*
X175165152Y-96992982D02*
X175203247Y-97069173D01*
X175203247Y-97069173D02*
X175203247Y-97335839D01*
X174822295Y-96192982D02*
X174822295Y-96345363D01*
X174822295Y-96345363D02*
X174860390Y-96421554D01*
X174860390Y-96421554D02*
X174898485Y-96459649D01*
X174898485Y-96459649D02*
X175012771Y-96535839D01*
X175012771Y-96535839D02*
X175165152Y-96573935D01*
X175165152Y-96573935D02*
X175469914Y-96573935D01*
X175469914Y-96573935D02*
X175546104Y-96535839D01*
X175546104Y-96535839D02*
X175584200Y-96497744D01*
X175584200Y-96497744D02*
X175622295Y-96421554D01*
X175622295Y-96421554D02*
X175622295Y-96269173D01*
X175622295Y-96269173D02*
X175584200Y-96192982D01*
X175584200Y-96192982D02*
X175546104Y-96154887D01*
X175546104Y-96154887D02*
X175469914Y-96116792D01*
X175469914Y-96116792D02*
X175279438Y-96116792D01*
X175279438Y-96116792D02*
X175203247Y-96154887D01*
X175203247Y-96154887D02*
X175165152Y-96192982D01*
X175165152Y-96192982D02*
X175127057Y-96269173D01*
X175127057Y-96269173D02*
X175127057Y-96421554D01*
X175127057Y-96421554D02*
X175165152Y-96497744D01*
X175165152Y-96497744D02*
X175203247Y-96535839D01*
X175203247Y-96535839D02*
X175279438Y-96573935D01*
X198482295Y-106930826D02*
X197682295Y-106930826D01*
X197682295Y-106930826D02*
X197682295Y-106626064D01*
X197682295Y-106626064D02*
X197720390Y-106549874D01*
X197720390Y-106549874D02*
X197758485Y-106511779D01*
X197758485Y-106511779D02*
X197834676Y-106473683D01*
X197834676Y-106473683D02*
X197948961Y-106473683D01*
X197948961Y-106473683D02*
X198025152Y-106511779D01*
X198025152Y-106511779D02*
X198063247Y-106549874D01*
X198063247Y-106549874D02*
X198101342Y-106626064D01*
X198101342Y-106626064D02*
X198101342Y-106930826D01*
X198253723Y-106168922D02*
X198253723Y-105787969D01*
X198482295Y-106245112D02*
X197682295Y-105978445D01*
X197682295Y-105978445D02*
X198482295Y-105711779D01*
X198482295Y-105407017D02*
X198482295Y-105254636D01*
X198482295Y-105254636D02*
X198444200Y-105178446D01*
X198444200Y-105178446D02*
X198406104Y-105140350D01*
X198406104Y-105140350D02*
X198291819Y-105064160D01*
X198291819Y-105064160D02*
X198139438Y-105026065D01*
X198139438Y-105026065D02*
X197834676Y-105026065D01*
X197834676Y-105026065D02*
X197758485Y-105064160D01*
X197758485Y-105064160D02*
X197720390Y-105102255D01*
X197720390Y-105102255D02*
X197682295Y-105178446D01*
X197682295Y-105178446D02*
X197682295Y-105330827D01*
X197682295Y-105330827D02*
X197720390Y-105407017D01*
X197720390Y-105407017D02*
X197758485Y-105445112D01*
X197758485Y-105445112D02*
X197834676Y-105483208D01*
X197834676Y-105483208D02*
X198025152Y-105483208D01*
X198025152Y-105483208D02*
X198101342Y-105445112D01*
X198101342Y-105445112D02*
X198139438Y-105407017D01*
X198139438Y-105407017D02*
X198177533Y-105330827D01*
X198177533Y-105330827D02*
X198177533Y-105178446D01*
X198177533Y-105178446D02*
X198139438Y-105102255D01*
X198139438Y-105102255D02*
X198101342Y-105064160D01*
X198101342Y-105064160D02*
X198025152Y-105026065D01*
X190862295Y-136235839D02*
X190062295Y-136235839D01*
X190062295Y-136235839D02*
X190062295Y-135931077D01*
X190062295Y-135931077D02*
X190100390Y-135854887D01*
X190100390Y-135854887D02*
X190138485Y-135816792D01*
X190138485Y-135816792D02*
X190214676Y-135778696D01*
X190214676Y-135778696D02*
X190328961Y-135778696D01*
X190328961Y-135778696D02*
X190405152Y-135816792D01*
X190405152Y-135816792D02*
X190443247Y-135854887D01*
X190443247Y-135854887D02*
X190481342Y-135931077D01*
X190481342Y-135931077D02*
X190481342Y-136235839D01*
X190443247Y-135169173D02*
X190481342Y-135054887D01*
X190481342Y-135054887D02*
X190519438Y-135016792D01*
X190519438Y-135016792D02*
X190595628Y-134978696D01*
X190595628Y-134978696D02*
X190709914Y-134978696D01*
X190709914Y-134978696D02*
X190786104Y-135016792D01*
X190786104Y-135016792D02*
X190824200Y-135054887D01*
X190824200Y-135054887D02*
X190862295Y-135131077D01*
X190862295Y-135131077D02*
X190862295Y-135435839D01*
X190862295Y-135435839D02*
X190062295Y-135435839D01*
X190062295Y-135435839D02*
X190062295Y-135169173D01*
X190062295Y-135169173D02*
X190100390Y-135092982D01*
X190100390Y-135092982D02*
X190138485Y-135054887D01*
X190138485Y-135054887D02*
X190214676Y-135016792D01*
X190214676Y-135016792D02*
X190290866Y-135016792D01*
X190290866Y-135016792D02*
X190367057Y-135054887D01*
X190367057Y-135054887D02*
X190405152Y-135092982D01*
X190405152Y-135092982D02*
X190443247Y-135169173D01*
X190443247Y-135169173D02*
X190443247Y-135435839D01*
X190862295Y-134216792D02*
X190862295Y-134673935D01*
X190862295Y-134445363D02*
X190062295Y-134445363D01*
X190062295Y-134445363D02*
X190176580Y-134521554D01*
X190176580Y-134521554D02*
X190252771Y-134597744D01*
X190252771Y-134597744D02*
X190290866Y-134673935D01*
X190062295Y-133950125D02*
X190062295Y-133454887D01*
X190062295Y-133454887D02*
X190367057Y-133721553D01*
X190367057Y-133721553D02*
X190367057Y-133607268D01*
X190367057Y-133607268D02*
X190405152Y-133531077D01*
X190405152Y-133531077D02*
X190443247Y-133492982D01*
X190443247Y-133492982D02*
X190519438Y-133454887D01*
X190519438Y-133454887D02*
X190709914Y-133454887D01*
X190709914Y-133454887D02*
X190786104Y-133492982D01*
X190786104Y-133492982D02*
X190824200Y-133531077D01*
X190824200Y-133531077D02*
X190862295Y-133607268D01*
X190862295Y-133607268D02*
X190862295Y-133835839D01*
X190862295Y-133835839D02*
X190824200Y-133912030D01*
X190824200Y-133912030D02*
X190786104Y-133950125D01*
X175622295Y-107045112D02*
X174822295Y-107045112D01*
X174822295Y-107045112D02*
X174822295Y-106740350D01*
X174822295Y-106740350D02*
X174860390Y-106664160D01*
X174860390Y-106664160D02*
X174898485Y-106626065D01*
X174898485Y-106626065D02*
X174974676Y-106587969D01*
X174974676Y-106587969D02*
X175088961Y-106587969D01*
X175088961Y-106587969D02*
X175165152Y-106626065D01*
X175165152Y-106626065D02*
X175203247Y-106664160D01*
X175203247Y-106664160D02*
X175241342Y-106740350D01*
X175241342Y-106740350D02*
X175241342Y-107045112D01*
X175203247Y-105978446D02*
X175241342Y-105864160D01*
X175241342Y-105864160D02*
X175279438Y-105826065D01*
X175279438Y-105826065D02*
X175355628Y-105787969D01*
X175355628Y-105787969D02*
X175469914Y-105787969D01*
X175469914Y-105787969D02*
X175546104Y-105826065D01*
X175546104Y-105826065D02*
X175584200Y-105864160D01*
X175584200Y-105864160D02*
X175622295Y-105940350D01*
X175622295Y-105940350D02*
X175622295Y-106245112D01*
X175622295Y-106245112D02*
X174822295Y-106245112D01*
X174822295Y-106245112D02*
X174822295Y-105978446D01*
X174822295Y-105978446D02*
X174860390Y-105902255D01*
X174860390Y-105902255D02*
X174898485Y-105864160D01*
X174898485Y-105864160D02*
X174974676Y-105826065D01*
X174974676Y-105826065D02*
X175050866Y-105826065D01*
X175050866Y-105826065D02*
X175127057Y-105864160D01*
X175127057Y-105864160D02*
X175165152Y-105902255D01*
X175165152Y-105902255D02*
X175203247Y-105978446D01*
X175203247Y-105978446D02*
X175203247Y-106245112D01*
X174822295Y-105521303D02*
X174822295Y-104987969D01*
X174822295Y-104987969D02*
X175622295Y-105330827D01*
X195942295Y-136235839D02*
X195142295Y-136235839D01*
X195142295Y-136235839D02*
X195142295Y-135931077D01*
X195142295Y-135931077D02*
X195180390Y-135854887D01*
X195180390Y-135854887D02*
X195218485Y-135816792D01*
X195218485Y-135816792D02*
X195294676Y-135778696D01*
X195294676Y-135778696D02*
X195408961Y-135778696D01*
X195408961Y-135778696D02*
X195485152Y-135816792D01*
X195485152Y-135816792D02*
X195523247Y-135854887D01*
X195523247Y-135854887D02*
X195561342Y-135931077D01*
X195561342Y-135931077D02*
X195561342Y-136235839D01*
X195866104Y-134978696D02*
X195904200Y-135016792D01*
X195904200Y-135016792D02*
X195942295Y-135131077D01*
X195942295Y-135131077D02*
X195942295Y-135207268D01*
X195942295Y-135207268D02*
X195904200Y-135321554D01*
X195904200Y-135321554D02*
X195828009Y-135397744D01*
X195828009Y-135397744D02*
X195751819Y-135435839D01*
X195751819Y-135435839D02*
X195599438Y-135473935D01*
X195599438Y-135473935D02*
X195485152Y-135473935D01*
X195485152Y-135473935D02*
X195332771Y-135435839D01*
X195332771Y-135435839D02*
X195256580Y-135397744D01*
X195256580Y-135397744D02*
X195180390Y-135321554D01*
X195180390Y-135321554D02*
X195142295Y-135207268D01*
X195142295Y-135207268D02*
X195142295Y-135131077D01*
X195142295Y-135131077D02*
X195180390Y-135016792D01*
X195180390Y-135016792D02*
X195218485Y-134978696D01*
X195142295Y-134712030D02*
X195142295Y-134178696D01*
X195142295Y-134178696D02*
X195942295Y-134521554D01*
X159620390Y-135816792D02*
X159582295Y-135892982D01*
X159582295Y-135892982D02*
X159582295Y-136007268D01*
X159582295Y-136007268D02*
X159620390Y-136121554D01*
X159620390Y-136121554D02*
X159696580Y-136197744D01*
X159696580Y-136197744D02*
X159772771Y-136235839D01*
X159772771Y-136235839D02*
X159925152Y-136273935D01*
X159925152Y-136273935D02*
X160039438Y-136273935D01*
X160039438Y-136273935D02*
X160191819Y-136235839D01*
X160191819Y-136235839D02*
X160268009Y-136197744D01*
X160268009Y-136197744D02*
X160344200Y-136121554D01*
X160344200Y-136121554D02*
X160382295Y-136007268D01*
X160382295Y-136007268D02*
X160382295Y-135931077D01*
X160382295Y-135931077D02*
X160344200Y-135816792D01*
X160344200Y-135816792D02*
X160306104Y-135778696D01*
X160306104Y-135778696D02*
X160039438Y-135778696D01*
X160039438Y-135778696D02*
X160039438Y-135931077D01*
X160382295Y-135435839D02*
X159582295Y-135435839D01*
X159582295Y-135435839D02*
X160382295Y-134978696D01*
X160382295Y-134978696D02*
X159582295Y-134978696D01*
X160382295Y-134597744D02*
X159582295Y-134597744D01*
X159582295Y-134597744D02*
X159582295Y-134407268D01*
X159582295Y-134407268D02*
X159620390Y-134292982D01*
X159620390Y-134292982D02*
X159696580Y-134216792D01*
X159696580Y-134216792D02*
X159772771Y-134178697D01*
X159772771Y-134178697D02*
X159925152Y-134140601D01*
X159925152Y-134140601D02*
X160039438Y-134140601D01*
X160039438Y-134140601D02*
X160191819Y-134178697D01*
X160191819Y-134178697D02*
X160268009Y-134216792D01*
X160268009Y-134216792D02*
X160344200Y-134292982D01*
X160344200Y-134292982D02*
X160382295Y-134407268D01*
X160382295Y-134407268D02*
X160382295Y-134597744D01*
X180702295Y-136235839D02*
X179902295Y-136235839D01*
X179902295Y-136235839D02*
X179902295Y-135931077D01*
X179902295Y-135931077D02*
X179940390Y-135854887D01*
X179940390Y-135854887D02*
X179978485Y-135816792D01*
X179978485Y-135816792D02*
X180054676Y-135778696D01*
X180054676Y-135778696D02*
X180168961Y-135778696D01*
X180168961Y-135778696D02*
X180245152Y-135816792D01*
X180245152Y-135816792D02*
X180283247Y-135854887D01*
X180283247Y-135854887D02*
X180321342Y-135931077D01*
X180321342Y-135931077D02*
X180321342Y-136235839D01*
X180626104Y-134978696D02*
X180664200Y-135016792D01*
X180664200Y-135016792D02*
X180702295Y-135131077D01*
X180702295Y-135131077D02*
X180702295Y-135207268D01*
X180702295Y-135207268D02*
X180664200Y-135321554D01*
X180664200Y-135321554D02*
X180588009Y-135397744D01*
X180588009Y-135397744D02*
X180511819Y-135435839D01*
X180511819Y-135435839D02*
X180359438Y-135473935D01*
X180359438Y-135473935D02*
X180245152Y-135473935D01*
X180245152Y-135473935D02*
X180092771Y-135435839D01*
X180092771Y-135435839D02*
X180016580Y-135397744D01*
X180016580Y-135397744D02*
X179940390Y-135321554D01*
X179940390Y-135321554D02*
X179902295Y-135207268D01*
X179902295Y-135207268D02*
X179902295Y-135131077D01*
X179902295Y-135131077D02*
X179940390Y-135016792D01*
X179940390Y-135016792D02*
X179978485Y-134978696D01*
X179902295Y-134254887D02*
X179902295Y-134635839D01*
X179902295Y-134635839D02*
X180283247Y-134673935D01*
X180283247Y-134673935D02*
X180245152Y-134635839D01*
X180245152Y-134635839D02*
X180207057Y-134559649D01*
X180207057Y-134559649D02*
X180207057Y-134369173D01*
X180207057Y-134369173D02*
X180245152Y-134292982D01*
X180245152Y-134292982D02*
X180283247Y-134254887D01*
X180283247Y-134254887D02*
X180359438Y-134216792D01*
X180359438Y-134216792D02*
X180549914Y-134216792D01*
X180549914Y-134216792D02*
X180626104Y-134254887D01*
X180626104Y-134254887D02*
X180664200Y-134292982D01*
X180664200Y-134292982D02*
X180702295Y-134369173D01*
X180702295Y-134369173D02*
X180702295Y-134559649D01*
X180702295Y-134559649D02*
X180664200Y-134635839D01*
X180664200Y-134635839D02*
X180626104Y-134673935D01*
X184982295Y-136235839D02*
X185629914Y-136235839D01*
X185629914Y-136235839D02*
X185706104Y-136197744D01*
X185706104Y-136197744D02*
X185744200Y-136159649D01*
X185744200Y-136159649D02*
X185782295Y-136083458D01*
X185782295Y-136083458D02*
X185782295Y-135931077D01*
X185782295Y-135931077D02*
X185744200Y-135854887D01*
X185744200Y-135854887D02*
X185706104Y-135816792D01*
X185706104Y-135816792D02*
X185629914Y-135778696D01*
X185629914Y-135778696D02*
X184982295Y-135778696D01*
X184982295Y-135245363D02*
X184982295Y-135169173D01*
X184982295Y-135169173D02*
X185020390Y-135092982D01*
X185020390Y-135092982D02*
X185058485Y-135054887D01*
X185058485Y-135054887D02*
X185134676Y-135016792D01*
X185134676Y-135016792D02*
X185287057Y-134978697D01*
X185287057Y-134978697D02*
X185477533Y-134978697D01*
X185477533Y-134978697D02*
X185629914Y-135016792D01*
X185629914Y-135016792D02*
X185706104Y-135054887D01*
X185706104Y-135054887D02*
X185744200Y-135092982D01*
X185744200Y-135092982D02*
X185782295Y-135169173D01*
X185782295Y-135169173D02*
X185782295Y-135245363D01*
X185782295Y-135245363D02*
X185744200Y-135321554D01*
X185744200Y-135321554D02*
X185706104Y-135359649D01*
X185706104Y-135359649D02*
X185629914Y-135397744D01*
X185629914Y-135397744D02*
X185477533Y-135435840D01*
X185477533Y-135435840D02*
X185287057Y-135435840D01*
X185287057Y-135435840D02*
X185134676Y-135397744D01*
X185134676Y-135397744D02*
X185058485Y-135359649D01*
X185058485Y-135359649D02*
X185020390Y-135321554D01*
X185020390Y-135321554D02*
X184982295Y-135245363D01*
X200222295Y-98135839D02*
X200869914Y-98135839D01*
X200869914Y-98135839D02*
X200946104Y-98097744D01*
X200946104Y-98097744D02*
X200984200Y-98059649D01*
X200984200Y-98059649D02*
X201022295Y-97983458D01*
X201022295Y-97983458D02*
X201022295Y-97831077D01*
X201022295Y-97831077D02*
X200984200Y-97754887D01*
X200984200Y-97754887D02*
X200946104Y-97716792D01*
X200946104Y-97716792D02*
X200869914Y-97678696D01*
X200869914Y-97678696D02*
X200222295Y-97678696D01*
X201022295Y-96878697D02*
X201022295Y-97335840D01*
X201022295Y-97107268D02*
X200222295Y-97107268D01*
X200222295Y-97107268D02*
X200336580Y-97183459D01*
X200336580Y-97183459D02*
X200412771Y-97259649D01*
X200412771Y-97259649D02*
X200450866Y-97335840D01*
X200222295Y-96612030D02*
X200222295Y-96116792D01*
X200222295Y-96116792D02*
X200527057Y-96383458D01*
X200527057Y-96383458D02*
X200527057Y-96269173D01*
X200527057Y-96269173D02*
X200565152Y-96192982D01*
X200565152Y-96192982D02*
X200603247Y-96154887D01*
X200603247Y-96154887D02*
X200679438Y-96116792D01*
X200679438Y-96116792D02*
X200869914Y-96116792D01*
X200869914Y-96116792D02*
X200946104Y-96154887D01*
X200946104Y-96154887D02*
X200984200Y-96192982D01*
X200984200Y-96192982D02*
X201022295Y-96269173D01*
X201022295Y-96269173D02*
X201022295Y-96497744D01*
X201022295Y-96497744D02*
X200984200Y-96573935D01*
X200984200Y-96573935D02*
X200946104Y-96612030D01*
X170542295Y-145030826D02*
X169742295Y-145030826D01*
X169742295Y-145030826D02*
X169742295Y-144726064D01*
X169742295Y-144726064D02*
X169780390Y-144649874D01*
X169780390Y-144649874D02*
X169818485Y-144611779D01*
X169818485Y-144611779D02*
X169894676Y-144573683D01*
X169894676Y-144573683D02*
X170008961Y-144573683D01*
X170008961Y-144573683D02*
X170085152Y-144611779D01*
X170085152Y-144611779D02*
X170123247Y-144649874D01*
X170123247Y-144649874D02*
X170161342Y-144726064D01*
X170161342Y-144726064D02*
X170161342Y-145030826D01*
X170313723Y-144268922D02*
X170313723Y-143887969D01*
X170542295Y-144345112D02*
X169742295Y-144078445D01*
X169742295Y-144078445D02*
X170542295Y-143811779D01*
X169742295Y-143392731D02*
X169742295Y-143316541D01*
X169742295Y-143316541D02*
X169780390Y-143240350D01*
X169780390Y-143240350D02*
X169818485Y-143202255D01*
X169818485Y-143202255D02*
X169894676Y-143164160D01*
X169894676Y-143164160D02*
X170047057Y-143126065D01*
X170047057Y-143126065D02*
X170237533Y-143126065D01*
X170237533Y-143126065D02*
X170389914Y-143164160D01*
X170389914Y-143164160D02*
X170466104Y-143202255D01*
X170466104Y-143202255D02*
X170504200Y-143240350D01*
X170504200Y-143240350D02*
X170542295Y-143316541D01*
X170542295Y-143316541D02*
X170542295Y-143392731D01*
X170542295Y-143392731D02*
X170504200Y-143468922D01*
X170504200Y-143468922D02*
X170466104Y-143507017D01*
X170466104Y-143507017D02*
X170389914Y-143545112D01*
X170389914Y-143545112D02*
X170237533Y-143583208D01*
X170237533Y-143583208D02*
X170047057Y-143583208D01*
X170047057Y-143583208D02*
X169894676Y-143545112D01*
X169894676Y-143545112D02*
X169818485Y-143507017D01*
X169818485Y-143507017D02*
X169780390Y-143468922D01*
X169780390Y-143468922D02*
X169742295Y-143392731D01*
X178162295Y-136235839D02*
X177362295Y-136235839D01*
X177362295Y-136235839D02*
X177362295Y-135931077D01*
X177362295Y-135931077D02*
X177400390Y-135854887D01*
X177400390Y-135854887D02*
X177438485Y-135816792D01*
X177438485Y-135816792D02*
X177514676Y-135778696D01*
X177514676Y-135778696D02*
X177628961Y-135778696D01*
X177628961Y-135778696D02*
X177705152Y-135816792D01*
X177705152Y-135816792D02*
X177743247Y-135854887D01*
X177743247Y-135854887D02*
X177781342Y-135931077D01*
X177781342Y-135931077D02*
X177781342Y-136235839D01*
X177933723Y-135473935D02*
X177933723Y-135092982D01*
X178162295Y-135550125D02*
X177362295Y-135283458D01*
X177362295Y-135283458D02*
X178162295Y-135016792D01*
X177362295Y-134826316D02*
X177362295Y-134292982D01*
X177362295Y-134292982D02*
X178162295Y-134635840D01*
X200222295Y-136235839D02*
X200869914Y-136235839D01*
X200869914Y-136235839D02*
X200946104Y-136197744D01*
X200946104Y-136197744D02*
X200984200Y-136159649D01*
X200984200Y-136159649D02*
X201022295Y-136083458D01*
X201022295Y-136083458D02*
X201022295Y-135931077D01*
X201022295Y-135931077D02*
X200984200Y-135854887D01*
X200984200Y-135854887D02*
X200946104Y-135816792D01*
X200946104Y-135816792D02*
X200869914Y-135778696D01*
X200869914Y-135778696D02*
X200222295Y-135778696D01*
X200298485Y-135435840D02*
X200260390Y-135397744D01*
X200260390Y-135397744D02*
X200222295Y-135321554D01*
X200222295Y-135321554D02*
X200222295Y-135131078D01*
X200222295Y-135131078D02*
X200260390Y-135054887D01*
X200260390Y-135054887D02*
X200298485Y-135016792D01*
X200298485Y-135016792D02*
X200374676Y-134978697D01*
X200374676Y-134978697D02*
X200450866Y-134978697D01*
X200450866Y-134978697D02*
X200565152Y-135016792D01*
X200565152Y-135016792D02*
X201022295Y-135473935D01*
X201022295Y-135473935D02*
X201022295Y-134978697D01*
X188322295Y-136235839D02*
X187522295Y-136235839D01*
X187522295Y-136235839D02*
X187522295Y-135931077D01*
X187522295Y-135931077D02*
X187560390Y-135854887D01*
X187560390Y-135854887D02*
X187598485Y-135816792D01*
X187598485Y-135816792D02*
X187674676Y-135778696D01*
X187674676Y-135778696D02*
X187788961Y-135778696D01*
X187788961Y-135778696D02*
X187865152Y-135816792D01*
X187865152Y-135816792D02*
X187903247Y-135854887D01*
X187903247Y-135854887D02*
X187941342Y-135931077D01*
X187941342Y-135931077D02*
X187941342Y-136235839D01*
X187903247Y-135169173D02*
X187941342Y-135054887D01*
X187941342Y-135054887D02*
X187979438Y-135016792D01*
X187979438Y-135016792D02*
X188055628Y-134978696D01*
X188055628Y-134978696D02*
X188169914Y-134978696D01*
X188169914Y-134978696D02*
X188246104Y-135016792D01*
X188246104Y-135016792D02*
X188284200Y-135054887D01*
X188284200Y-135054887D02*
X188322295Y-135131077D01*
X188322295Y-135131077D02*
X188322295Y-135435839D01*
X188322295Y-135435839D02*
X187522295Y-135435839D01*
X187522295Y-135435839D02*
X187522295Y-135169173D01*
X187522295Y-135169173D02*
X187560390Y-135092982D01*
X187560390Y-135092982D02*
X187598485Y-135054887D01*
X187598485Y-135054887D02*
X187674676Y-135016792D01*
X187674676Y-135016792D02*
X187750866Y-135016792D01*
X187750866Y-135016792D02*
X187827057Y-135054887D01*
X187827057Y-135054887D02*
X187865152Y-135092982D01*
X187865152Y-135092982D02*
X187903247Y-135169173D01*
X187903247Y-135169173D02*
X187903247Y-135435839D01*
X188322295Y-134216792D02*
X188322295Y-134673935D01*
X188322295Y-134445363D02*
X187522295Y-134445363D01*
X187522295Y-134445363D02*
X187636580Y-134521554D01*
X187636580Y-134521554D02*
X187712771Y-134597744D01*
X187712771Y-134597744D02*
X187750866Y-134673935D01*
X188322295Y-133454887D02*
X188322295Y-133912030D01*
X188322295Y-133683458D02*
X187522295Y-133683458D01*
X187522295Y-133683458D02*
X187636580Y-133759649D01*
X187636580Y-133759649D02*
X187712771Y-133835839D01*
X187712771Y-133835839D02*
X187750866Y-133912030D01*
X187522295Y-107045112D02*
X188169914Y-107045112D01*
X188169914Y-107045112D02*
X188246104Y-107007017D01*
X188246104Y-107007017D02*
X188284200Y-106968922D01*
X188284200Y-106968922D02*
X188322295Y-106892731D01*
X188322295Y-106892731D02*
X188322295Y-106740350D01*
X188322295Y-106740350D02*
X188284200Y-106664160D01*
X188284200Y-106664160D02*
X188246104Y-106626065D01*
X188246104Y-106626065D02*
X188169914Y-106587969D01*
X188169914Y-106587969D02*
X187522295Y-106587969D01*
X188322295Y-105787970D02*
X188322295Y-106245113D01*
X188322295Y-106016541D02*
X187522295Y-106016541D01*
X187522295Y-106016541D02*
X187636580Y-106092732D01*
X187636580Y-106092732D02*
X187712771Y-106168922D01*
X187712771Y-106168922D02*
X187750866Y-106245113D01*
X187598485Y-105483208D02*
X187560390Y-105445112D01*
X187560390Y-105445112D02*
X187522295Y-105368922D01*
X187522295Y-105368922D02*
X187522295Y-105178446D01*
X187522295Y-105178446D02*
X187560390Y-105102255D01*
X187560390Y-105102255D02*
X187598485Y-105064160D01*
X187598485Y-105064160D02*
X187674676Y-105026065D01*
X187674676Y-105026065D02*
X187750866Y-105026065D01*
X187750866Y-105026065D02*
X187865152Y-105064160D01*
X187865152Y-105064160D02*
X188322295Y-105521303D01*
X188322295Y-105521303D02*
X188322295Y-105026065D01*
X193402295Y-136235839D02*
X192602295Y-136235839D01*
X192602295Y-136235839D02*
X192602295Y-135931077D01*
X192602295Y-135931077D02*
X192640390Y-135854887D01*
X192640390Y-135854887D02*
X192678485Y-135816792D01*
X192678485Y-135816792D02*
X192754676Y-135778696D01*
X192754676Y-135778696D02*
X192868961Y-135778696D01*
X192868961Y-135778696D02*
X192945152Y-135816792D01*
X192945152Y-135816792D02*
X192983247Y-135854887D01*
X192983247Y-135854887D02*
X193021342Y-135931077D01*
X193021342Y-135931077D02*
X193021342Y-136235839D01*
X192983247Y-135169173D02*
X193021342Y-135054887D01*
X193021342Y-135054887D02*
X193059438Y-135016792D01*
X193059438Y-135016792D02*
X193135628Y-134978696D01*
X193135628Y-134978696D02*
X193249914Y-134978696D01*
X193249914Y-134978696D02*
X193326104Y-135016792D01*
X193326104Y-135016792D02*
X193364200Y-135054887D01*
X193364200Y-135054887D02*
X193402295Y-135131077D01*
X193402295Y-135131077D02*
X193402295Y-135435839D01*
X193402295Y-135435839D02*
X192602295Y-135435839D01*
X192602295Y-135435839D02*
X192602295Y-135169173D01*
X192602295Y-135169173D02*
X192640390Y-135092982D01*
X192640390Y-135092982D02*
X192678485Y-135054887D01*
X192678485Y-135054887D02*
X192754676Y-135016792D01*
X192754676Y-135016792D02*
X192830866Y-135016792D01*
X192830866Y-135016792D02*
X192907057Y-135054887D01*
X192907057Y-135054887D02*
X192945152Y-135092982D01*
X192945152Y-135092982D02*
X192983247Y-135169173D01*
X192983247Y-135169173D02*
X192983247Y-135435839D01*
X193402295Y-134216792D02*
X193402295Y-134673935D01*
X193402295Y-134445363D02*
X192602295Y-134445363D01*
X192602295Y-134445363D02*
X192716580Y-134521554D01*
X192716580Y-134521554D02*
X192792771Y-134597744D01*
X192792771Y-134597744D02*
X192830866Y-134673935D01*
X192602295Y-133492982D02*
X192602295Y-133873934D01*
X192602295Y-133873934D02*
X192983247Y-133912030D01*
X192983247Y-133912030D02*
X192945152Y-133873934D01*
X192945152Y-133873934D02*
X192907057Y-133797744D01*
X192907057Y-133797744D02*
X192907057Y-133607268D01*
X192907057Y-133607268D02*
X192945152Y-133531077D01*
X192945152Y-133531077D02*
X192983247Y-133492982D01*
X192983247Y-133492982D02*
X193059438Y-133454887D01*
X193059438Y-133454887D02*
X193249914Y-133454887D01*
X193249914Y-133454887D02*
X193326104Y-133492982D01*
X193326104Y-133492982D02*
X193364200Y-133531077D01*
X193364200Y-133531077D02*
X193402295Y-133607268D01*
X193402295Y-133607268D02*
X193402295Y-133797744D01*
X193402295Y-133797744D02*
X193364200Y-133873934D01*
X193364200Y-133873934D02*
X193326104Y-133912030D01*
X195942295Y-107692731D02*
X195142295Y-107692731D01*
X195142295Y-107692731D02*
X195142295Y-107387969D01*
X195142295Y-107387969D02*
X195180390Y-107311779D01*
X195180390Y-107311779D02*
X195218485Y-107273684D01*
X195218485Y-107273684D02*
X195294676Y-107235588D01*
X195294676Y-107235588D02*
X195408961Y-107235588D01*
X195408961Y-107235588D02*
X195485152Y-107273684D01*
X195485152Y-107273684D02*
X195523247Y-107311779D01*
X195523247Y-107311779D02*
X195561342Y-107387969D01*
X195561342Y-107387969D02*
X195561342Y-107692731D01*
X195713723Y-106930827D02*
X195713723Y-106549874D01*
X195942295Y-107007017D02*
X195142295Y-106740350D01*
X195142295Y-106740350D02*
X195942295Y-106473684D01*
X195942295Y-105787970D02*
X195942295Y-106245113D01*
X195942295Y-106016541D02*
X195142295Y-106016541D01*
X195142295Y-106016541D02*
X195256580Y-106092732D01*
X195256580Y-106092732D02*
X195332771Y-106168922D01*
X195332771Y-106168922D02*
X195370866Y-106245113D01*
X195942295Y-105026065D02*
X195942295Y-105483208D01*
X195942295Y-105254636D02*
X195142295Y-105254636D01*
X195142295Y-105254636D02*
X195256580Y-105330827D01*
X195256580Y-105330827D02*
X195332771Y-105407017D01*
X195332771Y-105407017D02*
X195370866Y-105483208D01*
X198482295Y-136235839D02*
X197682295Y-136235839D01*
X197682295Y-136235839D02*
X197682295Y-135931077D01*
X197682295Y-135931077D02*
X197720390Y-135854887D01*
X197720390Y-135854887D02*
X197758485Y-135816792D01*
X197758485Y-135816792D02*
X197834676Y-135778696D01*
X197834676Y-135778696D02*
X197948961Y-135778696D01*
X197948961Y-135778696D02*
X198025152Y-135816792D01*
X198025152Y-135816792D02*
X198063247Y-135854887D01*
X198063247Y-135854887D02*
X198101342Y-135931077D01*
X198101342Y-135931077D02*
X198101342Y-136235839D01*
X198406104Y-134978696D02*
X198444200Y-135016792D01*
X198444200Y-135016792D02*
X198482295Y-135131077D01*
X198482295Y-135131077D02*
X198482295Y-135207268D01*
X198482295Y-135207268D02*
X198444200Y-135321554D01*
X198444200Y-135321554D02*
X198368009Y-135397744D01*
X198368009Y-135397744D02*
X198291819Y-135435839D01*
X198291819Y-135435839D02*
X198139438Y-135473935D01*
X198139438Y-135473935D02*
X198025152Y-135473935D01*
X198025152Y-135473935D02*
X197872771Y-135435839D01*
X197872771Y-135435839D02*
X197796580Y-135397744D01*
X197796580Y-135397744D02*
X197720390Y-135321554D01*
X197720390Y-135321554D02*
X197682295Y-135207268D01*
X197682295Y-135207268D02*
X197682295Y-135131077D01*
X197682295Y-135131077D02*
X197720390Y-135016792D01*
X197720390Y-135016792D02*
X197758485Y-134978696D01*
X198482295Y-134597744D02*
X198482295Y-134445363D01*
X198482295Y-134445363D02*
X198444200Y-134369173D01*
X198444200Y-134369173D02*
X198406104Y-134331077D01*
X198406104Y-134331077D02*
X198291819Y-134254887D01*
X198291819Y-134254887D02*
X198139438Y-134216792D01*
X198139438Y-134216792D02*
X197834676Y-134216792D01*
X197834676Y-134216792D02*
X197758485Y-134254887D01*
X197758485Y-134254887D02*
X197720390Y-134292982D01*
X197720390Y-134292982D02*
X197682295Y-134369173D01*
X197682295Y-134369173D02*
X197682295Y-134521554D01*
X197682295Y-134521554D02*
X197720390Y-134597744D01*
X197720390Y-134597744D02*
X197758485Y-134635839D01*
X197758485Y-134635839D02*
X197834676Y-134673935D01*
X197834676Y-134673935D02*
X198025152Y-134673935D01*
X198025152Y-134673935D02*
X198101342Y-134635839D01*
X198101342Y-134635839D02*
X198139438Y-134597744D01*
X198139438Y-134597744D02*
X198177533Y-134521554D01*
X198177533Y-134521554D02*
X198177533Y-134369173D01*
X198177533Y-134369173D02*
X198139438Y-134292982D01*
X198139438Y-134292982D02*
X198101342Y-134254887D01*
X198101342Y-134254887D02*
X198025152Y-134216792D01*
X202762295Y-98135839D02*
X203409914Y-98135839D01*
X203409914Y-98135839D02*
X203486104Y-98097744D01*
X203486104Y-98097744D02*
X203524200Y-98059649D01*
X203524200Y-98059649D02*
X203562295Y-97983458D01*
X203562295Y-97983458D02*
X203562295Y-97831077D01*
X203562295Y-97831077D02*
X203524200Y-97754887D01*
X203524200Y-97754887D02*
X203486104Y-97716792D01*
X203486104Y-97716792D02*
X203409914Y-97678696D01*
X203409914Y-97678696D02*
X202762295Y-97678696D01*
X203562295Y-96878697D02*
X203562295Y-97335840D01*
X203562295Y-97107268D02*
X202762295Y-97107268D01*
X202762295Y-97107268D02*
X202876580Y-97183459D01*
X202876580Y-97183459D02*
X202952771Y-97259649D01*
X202952771Y-97259649D02*
X202990866Y-97335840D01*
X202762295Y-96154887D02*
X202762295Y-96535839D01*
X202762295Y-96535839D02*
X203143247Y-96573935D01*
X203143247Y-96573935D02*
X203105152Y-96535839D01*
X203105152Y-96535839D02*
X203067057Y-96459649D01*
X203067057Y-96459649D02*
X203067057Y-96269173D01*
X203067057Y-96269173D02*
X203105152Y-96192982D01*
X203105152Y-96192982D02*
X203143247Y-96154887D01*
X203143247Y-96154887D02*
X203219438Y-96116792D01*
X203219438Y-96116792D02*
X203409914Y-96116792D01*
X203409914Y-96116792D02*
X203486104Y-96154887D01*
X203486104Y-96154887D02*
X203524200Y-96192982D01*
X203524200Y-96192982D02*
X203562295Y-96269173D01*
X203562295Y-96269173D02*
X203562295Y-96459649D01*
X203562295Y-96459649D02*
X203524200Y-96535839D01*
X203524200Y-96535839D02*
X203486104Y-96573935D01*
X183242295Y-98135839D02*
X182442295Y-98135839D01*
X182442295Y-98135839D02*
X182442295Y-97831077D01*
X182442295Y-97831077D02*
X182480390Y-97754887D01*
X182480390Y-97754887D02*
X182518485Y-97716792D01*
X182518485Y-97716792D02*
X182594676Y-97678696D01*
X182594676Y-97678696D02*
X182708961Y-97678696D01*
X182708961Y-97678696D02*
X182785152Y-97716792D01*
X182785152Y-97716792D02*
X182823247Y-97754887D01*
X182823247Y-97754887D02*
X182861342Y-97831077D01*
X182861342Y-97831077D02*
X182861342Y-98135839D01*
X183166104Y-96878696D02*
X183204200Y-96916792D01*
X183204200Y-96916792D02*
X183242295Y-97031077D01*
X183242295Y-97031077D02*
X183242295Y-97107268D01*
X183242295Y-97107268D02*
X183204200Y-97221554D01*
X183204200Y-97221554D02*
X183128009Y-97297744D01*
X183128009Y-97297744D02*
X183051819Y-97335839D01*
X183051819Y-97335839D02*
X182899438Y-97373935D01*
X182899438Y-97373935D02*
X182785152Y-97373935D01*
X182785152Y-97373935D02*
X182632771Y-97335839D01*
X182632771Y-97335839D02*
X182556580Y-97297744D01*
X182556580Y-97297744D02*
X182480390Y-97221554D01*
X182480390Y-97221554D02*
X182442295Y-97107268D01*
X182442295Y-97107268D02*
X182442295Y-97031077D01*
X182442295Y-97031077D02*
X182480390Y-96916792D01*
X182480390Y-96916792D02*
X182518485Y-96878696D01*
X183242295Y-96116792D02*
X183242295Y-96573935D01*
X183242295Y-96345363D02*
X182442295Y-96345363D01*
X182442295Y-96345363D02*
X182556580Y-96421554D01*
X182556580Y-96421554D02*
X182632771Y-96497744D01*
X182632771Y-96497744D02*
X182670866Y-96573935D01*
X182518485Y-95812030D02*
X182480390Y-95773934D01*
X182480390Y-95773934D02*
X182442295Y-95697744D01*
X182442295Y-95697744D02*
X182442295Y-95507268D01*
X182442295Y-95507268D02*
X182480390Y-95431077D01*
X182480390Y-95431077D02*
X182518485Y-95392982D01*
X182518485Y-95392982D02*
X182594676Y-95354887D01*
X182594676Y-95354887D02*
X182670866Y-95354887D01*
X182670866Y-95354887D02*
X182785152Y-95392982D01*
X182785152Y-95392982D02*
X183242295Y-95850125D01*
X183242295Y-95850125D02*
X183242295Y-95354887D01*
X207842295Y-97754887D02*
X207842295Y-98135839D01*
X207842295Y-98135839D02*
X208223247Y-98173935D01*
X208223247Y-98173935D02*
X208185152Y-98135839D01*
X208185152Y-98135839D02*
X208147057Y-98059649D01*
X208147057Y-98059649D02*
X208147057Y-97869173D01*
X208147057Y-97869173D02*
X208185152Y-97792982D01*
X208185152Y-97792982D02*
X208223247Y-97754887D01*
X208223247Y-97754887D02*
X208299438Y-97716792D01*
X208299438Y-97716792D02*
X208489914Y-97716792D01*
X208489914Y-97716792D02*
X208566104Y-97754887D01*
X208566104Y-97754887D02*
X208604200Y-97792982D01*
X208604200Y-97792982D02*
X208642295Y-97869173D01*
X208642295Y-97869173D02*
X208642295Y-98059649D01*
X208642295Y-98059649D02*
X208604200Y-98135839D01*
X208604200Y-98135839D02*
X208566104Y-98173935D01*
X207842295Y-97488220D02*
X208642295Y-97221553D01*
X208642295Y-97221553D02*
X207842295Y-96954887D01*
X170542295Y-136235839D02*
X169742295Y-136235839D01*
X169742295Y-136235839D02*
X169742295Y-135931077D01*
X169742295Y-135931077D02*
X169780390Y-135854887D01*
X169780390Y-135854887D02*
X169818485Y-135816792D01*
X169818485Y-135816792D02*
X169894676Y-135778696D01*
X169894676Y-135778696D02*
X170008961Y-135778696D01*
X170008961Y-135778696D02*
X170085152Y-135816792D01*
X170085152Y-135816792D02*
X170123247Y-135854887D01*
X170123247Y-135854887D02*
X170161342Y-135931077D01*
X170161342Y-135931077D02*
X170161342Y-136235839D01*
X170313723Y-135473935D02*
X170313723Y-135092982D01*
X170542295Y-135550125D02*
X169742295Y-135283458D01*
X169742295Y-135283458D02*
X170542295Y-135016792D01*
X170542295Y-134331078D02*
X170542295Y-134788221D01*
X170542295Y-134559649D02*
X169742295Y-134559649D01*
X169742295Y-134559649D02*
X169856580Y-134635840D01*
X169856580Y-134635840D02*
X169932771Y-134712030D01*
X169932771Y-134712030D02*
X169970866Y-134788221D01*
X168002295Y-98135839D02*
X167202295Y-98135839D01*
X167202295Y-98135839D02*
X167202295Y-97831077D01*
X167202295Y-97831077D02*
X167240390Y-97754887D01*
X167240390Y-97754887D02*
X167278485Y-97716792D01*
X167278485Y-97716792D02*
X167354676Y-97678696D01*
X167354676Y-97678696D02*
X167468961Y-97678696D01*
X167468961Y-97678696D02*
X167545152Y-97716792D01*
X167545152Y-97716792D02*
X167583247Y-97754887D01*
X167583247Y-97754887D02*
X167621342Y-97831077D01*
X167621342Y-97831077D02*
X167621342Y-98135839D01*
X167926104Y-96878696D02*
X167964200Y-96916792D01*
X167964200Y-96916792D02*
X168002295Y-97031077D01*
X168002295Y-97031077D02*
X168002295Y-97107268D01*
X168002295Y-97107268D02*
X167964200Y-97221554D01*
X167964200Y-97221554D02*
X167888009Y-97297744D01*
X167888009Y-97297744D02*
X167811819Y-97335839D01*
X167811819Y-97335839D02*
X167659438Y-97373935D01*
X167659438Y-97373935D02*
X167545152Y-97373935D01*
X167545152Y-97373935D02*
X167392771Y-97335839D01*
X167392771Y-97335839D02*
X167316580Y-97297744D01*
X167316580Y-97297744D02*
X167240390Y-97221554D01*
X167240390Y-97221554D02*
X167202295Y-97107268D01*
X167202295Y-97107268D02*
X167202295Y-97031077D01*
X167202295Y-97031077D02*
X167240390Y-96916792D01*
X167240390Y-96916792D02*
X167278485Y-96878696D01*
X168002295Y-96116792D02*
X168002295Y-96573935D01*
X168002295Y-96345363D02*
X167202295Y-96345363D01*
X167202295Y-96345363D02*
X167316580Y-96421554D01*
X167316580Y-96421554D02*
X167392771Y-96497744D01*
X167392771Y-96497744D02*
X167430866Y-96573935D01*
X167468961Y-95431077D02*
X168002295Y-95431077D01*
X167164200Y-95621553D02*
X167735628Y-95812030D01*
X167735628Y-95812030D02*
X167735628Y-95316791D01*
X180702295Y-145145112D02*
X179902295Y-145145112D01*
X179902295Y-145145112D02*
X179902295Y-144840350D01*
X179902295Y-144840350D02*
X179940390Y-144764160D01*
X179940390Y-144764160D02*
X179978485Y-144726065D01*
X179978485Y-144726065D02*
X180054676Y-144687969D01*
X180054676Y-144687969D02*
X180168961Y-144687969D01*
X180168961Y-144687969D02*
X180245152Y-144726065D01*
X180245152Y-144726065D02*
X180283247Y-144764160D01*
X180283247Y-144764160D02*
X180321342Y-144840350D01*
X180321342Y-144840350D02*
X180321342Y-145145112D01*
X180626104Y-143887969D02*
X180664200Y-143926065D01*
X180664200Y-143926065D02*
X180702295Y-144040350D01*
X180702295Y-144040350D02*
X180702295Y-144116541D01*
X180702295Y-144116541D02*
X180664200Y-144230827D01*
X180664200Y-144230827D02*
X180588009Y-144307017D01*
X180588009Y-144307017D02*
X180511819Y-144345112D01*
X180511819Y-144345112D02*
X180359438Y-144383208D01*
X180359438Y-144383208D02*
X180245152Y-144383208D01*
X180245152Y-144383208D02*
X180092771Y-144345112D01*
X180092771Y-144345112D02*
X180016580Y-144307017D01*
X180016580Y-144307017D02*
X179940390Y-144230827D01*
X179940390Y-144230827D02*
X179902295Y-144116541D01*
X179902295Y-144116541D02*
X179902295Y-144040350D01*
X179902295Y-144040350D02*
X179940390Y-143926065D01*
X179940390Y-143926065D02*
X179978485Y-143887969D01*
X180168961Y-143202255D02*
X180702295Y-143202255D01*
X179864200Y-143392731D02*
X180435628Y-143583208D01*
X180435628Y-143583208D02*
X180435628Y-143087969D01*
X178162295Y-145030826D02*
X177362295Y-145030826D01*
X177362295Y-145030826D02*
X177362295Y-144726064D01*
X177362295Y-144726064D02*
X177400390Y-144649874D01*
X177400390Y-144649874D02*
X177438485Y-144611779D01*
X177438485Y-144611779D02*
X177514676Y-144573683D01*
X177514676Y-144573683D02*
X177628961Y-144573683D01*
X177628961Y-144573683D02*
X177705152Y-144611779D01*
X177705152Y-144611779D02*
X177743247Y-144649874D01*
X177743247Y-144649874D02*
X177781342Y-144726064D01*
X177781342Y-144726064D02*
X177781342Y-145030826D01*
X177933723Y-144268922D02*
X177933723Y-143887969D01*
X178162295Y-144345112D02*
X177362295Y-144078445D01*
X177362295Y-144078445D02*
X178162295Y-143811779D01*
X177362295Y-143202255D02*
X177362295Y-143354636D01*
X177362295Y-143354636D02*
X177400390Y-143430827D01*
X177400390Y-143430827D02*
X177438485Y-143468922D01*
X177438485Y-143468922D02*
X177552771Y-143545112D01*
X177552771Y-143545112D02*
X177705152Y-143583208D01*
X177705152Y-143583208D02*
X178009914Y-143583208D01*
X178009914Y-143583208D02*
X178086104Y-143545112D01*
X178086104Y-143545112D02*
X178124200Y-143507017D01*
X178124200Y-143507017D02*
X178162295Y-143430827D01*
X178162295Y-143430827D02*
X178162295Y-143278446D01*
X178162295Y-143278446D02*
X178124200Y-143202255D01*
X178124200Y-143202255D02*
X178086104Y-143164160D01*
X178086104Y-143164160D02*
X178009914Y-143126065D01*
X178009914Y-143126065D02*
X177819438Y-143126065D01*
X177819438Y-143126065D02*
X177743247Y-143164160D01*
X177743247Y-143164160D02*
X177705152Y-143202255D01*
X177705152Y-143202255D02*
X177667057Y-143278446D01*
X177667057Y-143278446D02*
X177667057Y-143430827D01*
X177667057Y-143430827D02*
X177705152Y-143507017D01*
X177705152Y-143507017D02*
X177743247Y-143545112D01*
X177743247Y-143545112D02*
X177819438Y-143583208D01*
X165462295Y-107807017D02*
X164662295Y-107807017D01*
X164662295Y-107807017D02*
X164662295Y-107502255D01*
X164662295Y-107502255D02*
X164700390Y-107426065D01*
X164700390Y-107426065D02*
X164738485Y-107387970D01*
X164738485Y-107387970D02*
X164814676Y-107349874D01*
X164814676Y-107349874D02*
X164928961Y-107349874D01*
X164928961Y-107349874D02*
X165005152Y-107387970D01*
X165005152Y-107387970D02*
X165043247Y-107426065D01*
X165043247Y-107426065D02*
X165081342Y-107502255D01*
X165081342Y-107502255D02*
X165081342Y-107807017D01*
X165386104Y-106549874D02*
X165424200Y-106587970D01*
X165424200Y-106587970D02*
X165462295Y-106702255D01*
X165462295Y-106702255D02*
X165462295Y-106778446D01*
X165462295Y-106778446D02*
X165424200Y-106892732D01*
X165424200Y-106892732D02*
X165348009Y-106968922D01*
X165348009Y-106968922D02*
X165271819Y-107007017D01*
X165271819Y-107007017D02*
X165119438Y-107045113D01*
X165119438Y-107045113D02*
X165005152Y-107045113D01*
X165005152Y-107045113D02*
X164852771Y-107007017D01*
X164852771Y-107007017D02*
X164776580Y-106968922D01*
X164776580Y-106968922D02*
X164700390Y-106892732D01*
X164700390Y-106892732D02*
X164662295Y-106778446D01*
X164662295Y-106778446D02*
X164662295Y-106702255D01*
X164662295Y-106702255D02*
X164700390Y-106587970D01*
X164700390Y-106587970D02*
X164738485Y-106549874D01*
X165462295Y-105787970D02*
X165462295Y-106245113D01*
X165462295Y-106016541D02*
X164662295Y-106016541D01*
X164662295Y-106016541D02*
X164776580Y-106092732D01*
X164776580Y-106092732D02*
X164852771Y-106168922D01*
X164852771Y-106168922D02*
X164890866Y-106245113D01*
X164662295Y-105064160D02*
X164662295Y-105445112D01*
X164662295Y-105445112D02*
X165043247Y-105483208D01*
X165043247Y-105483208D02*
X165005152Y-105445112D01*
X165005152Y-105445112D02*
X164967057Y-105368922D01*
X164967057Y-105368922D02*
X164967057Y-105178446D01*
X164967057Y-105178446D02*
X165005152Y-105102255D01*
X165005152Y-105102255D02*
X165043247Y-105064160D01*
X165043247Y-105064160D02*
X165119438Y-105026065D01*
X165119438Y-105026065D02*
X165309914Y-105026065D01*
X165309914Y-105026065D02*
X165386104Y-105064160D01*
X165386104Y-105064160D02*
X165424200Y-105102255D01*
X165424200Y-105102255D02*
X165462295Y-105178446D01*
X165462295Y-105178446D02*
X165462295Y-105368922D01*
X165462295Y-105368922D02*
X165424200Y-105445112D01*
X165424200Y-105445112D02*
X165386104Y-105483208D01*
X205340390Y-106702255D02*
X205302295Y-106778445D01*
X205302295Y-106778445D02*
X205302295Y-106892731D01*
X205302295Y-106892731D02*
X205340390Y-107007017D01*
X205340390Y-107007017D02*
X205416580Y-107083207D01*
X205416580Y-107083207D02*
X205492771Y-107121302D01*
X205492771Y-107121302D02*
X205645152Y-107159398D01*
X205645152Y-107159398D02*
X205759438Y-107159398D01*
X205759438Y-107159398D02*
X205911819Y-107121302D01*
X205911819Y-107121302D02*
X205988009Y-107083207D01*
X205988009Y-107083207D02*
X206064200Y-107007017D01*
X206064200Y-107007017D02*
X206102295Y-106892731D01*
X206102295Y-106892731D02*
X206102295Y-106816540D01*
X206102295Y-106816540D02*
X206064200Y-106702255D01*
X206064200Y-106702255D02*
X206026104Y-106664159D01*
X206026104Y-106664159D02*
X205759438Y-106664159D01*
X205759438Y-106664159D02*
X205759438Y-106816540D01*
X206102295Y-106321302D02*
X205302295Y-106321302D01*
X205302295Y-106321302D02*
X206102295Y-105864159D01*
X206102295Y-105864159D02*
X205302295Y-105864159D01*
X206102295Y-105483207D02*
X205302295Y-105483207D01*
X205302295Y-105483207D02*
X205302295Y-105292731D01*
X205302295Y-105292731D02*
X205340390Y-105178445D01*
X205340390Y-105178445D02*
X205416580Y-105102255D01*
X205416580Y-105102255D02*
X205492771Y-105064160D01*
X205492771Y-105064160D02*
X205645152Y-105026064D01*
X205645152Y-105026064D02*
X205759438Y-105026064D01*
X205759438Y-105026064D02*
X205911819Y-105064160D01*
X205911819Y-105064160D02*
X205988009Y-105102255D01*
X205988009Y-105102255D02*
X206064200Y-105178445D01*
X206064200Y-105178445D02*
X206102295Y-105292731D01*
X206102295Y-105292731D02*
X206102295Y-105483207D01*
X180702295Y-98135839D02*
X179902295Y-98135839D01*
X179902295Y-98135839D02*
X179902295Y-97831077D01*
X179902295Y-97831077D02*
X179940390Y-97754887D01*
X179940390Y-97754887D02*
X179978485Y-97716792D01*
X179978485Y-97716792D02*
X180054676Y-97678696D01*
X180054676Y-97678696D02*
X180168961Y-97678696D01*
X180168961Y-97678696D02*
X180245152Y-97716792D01*
X180245152Y-97716792D02*
X180283247Y-97754887D01*
X180283247Y-97754887D02*
X180321342Y-97831077D01*
X180321342Y-97831077D02*
X180321342Y-98135839D01*
X180702295Y-97335839D02*
X179902295Y-97335839D01*
X179902295Y-97335839D02*
X179902295Y-97145363D01*
X179902295Y-97145363D02*
X179940390Y-97031077D01*
X179940390Y-97031077D02*
X180016580Y-96954887D01*
X180016580Y-96954887D02*
X180092771Y-96916792D01*
X180092771Y-96916792D02*
X180245152Y-96878696D01*
X180245152Y-96878696D02*
X180359438Y-96878696D01*
X180359438Y-96878696D02*
X180511819Y-96916792D01*
X180511819Y-96916792D02*
X180588009Y-96954887D01*
X180588009Y-96954887D02*
X180664200Y-97031077D01*
X180664200Y-97031077D02*
X180702295Y-97145363D01*
X180702295Y-97145363D02*
X180702295Y-97335839D01*
X179978485Y-96573935D02*
X179940390Y-96535839D01*
X179940390Y-96535839D02*
X179902295Y-96459649D01*
X179902295Y-96459649D02*
X179902295Y-96269173D01*
X179902295Y-96269173D02*
X179940390Y-96192982D01*
X179940390Y-96192982D02*
X179978485Y-96154887D01*
X179978485Y-96154887D02*
X180054676Y-96116792D01*
X180054676Y-96116792D02*
X180130866Y-96116792D01*
X180130866Y-96116792D02*
X180245152Y-96154887D01*
X180245152Y-96154887D02*
X180702295Y-96612030D01*
X180702295Y-96612030D02*
X180702295Y-96116792D01*
X183242295Y-145145112D02*
X182442295Y-145145112D01*
X182442295Y-145145112D02*
X182442295Y-144840350D01*
X182442295Y-144840350D02*
X182480390Y-144764160D01*
X182480390Y-144764160D02*
X182518485Y-144726065D01*
X182518485Y-144726065D02*
X182594676Y-144687969D01*
X182594676Y-144687969D02*
X182708961Y-144687969D01*
X182708961Y-144687969D02*
X182785152Y-144726065D01*
X182785152Y-144726065D02*
X182823247Y-144764160D01*
X182823247Y-144764160D02*
X182861342Y-144840350D01*
X182861342Y-144840350D02*
X182861342Y-145145112D01*
X182823247Y-144078446D02*
X182861342Y-143964160D01*
X182861342Y-143964160D02*
X182899438Y-143926065D01*
X182899438Y-143926065D02*
X182975628Y-143887969D01*
X182975628Y-143887969D02*
X183089914Y-143887969D01*
X183089914Y-143887969D02*
X183166104Y-143926065D01*
X183166104Y-143926065D02*
X183204200Y-143964160D01*
X183204200Y-143964160D02*
X183242295Y-144040350D01*
X183242295Y-144040350D02*
X183242295Y-144345112D01*
X183242295Y-144345112D02*
X182442295Y-144345112D01*
X182442295Y-144345112D02*
X182442295Y-144078446D01*
X182442295Y-144078446D02*
X182480390Y-144002255D01*
X182480390Y-144002255D02*
X182518485Y-143964160D01*
X182518485Y-143964160D02*
X182594676Y-143926065D01*
X182594676Y-143926065D02*
X182670866Y-143926065D01*
X182670866Y-143926065D02*
X182747057Y-143964160D01*
X182747057Y-143964160D02*
X182785152Y-144002255D01*
X182785152Y-144002255D02*
X182823247Y-144078446D01*
X182823247Y-144078446D02*
X182823247Y-144345112D01*
X182442295Y-143392731D02*
X182442295Y-143316541D01*
X182442295Y-143316541D02*
X182480390Y-143240350D01*
X182480390Y-143240350D02*
X182518485Y-143202255D01*
X182518485Y-143202255D02*
X182594676Y-143164160D01*
X182594676Y-143164160D02*
X182747057Y-143126065D01*
X182747057Y-143126065D02*
X182937533Y-143126065D01*
X182937533Y-143126065D02*
X183089914Y-143164160D01*
X183089914Y-143164160D02*
X183166104Y-143202255D01*
X183166104Y-143202255D02*
X183204200Y-143240350D01*
X183204200Y-143240350D02*
X183242295Y-143316541D01*
X183242295Y-143316541D02*
X183242295Y-143392731D01*
X183242295Y-143392731D02*
X183204200Y-143468922D01*
X183204200Y-143468922D02*
X183166104Y-143507017D01*
X183166104Y-143507017D02*
X183089914Y-143545112D01*
X183089914Y-143545112D02*
X182937533Y-143583208D01*
X182937533Y-143583208D02*
X182747057Y-143583208D01*
X182747057Y-143583208D02*
X182594676Y-143545112D01*
X182594676Y-143545112D02*
X182518485Y-143507017D01*
X182518485Y-143507017D02*
X182480390Y-143468922D01*
X182480390Y-143468922D02*
X182442295Y-143392731D01*
X178162295Y-107045112D02*
X177362295Y-107045112D01*
X177362295Y-107045112D02*
X177362295Y-106740350D01*
X177362295Y-106740350D02*
X177400390Y-106664160D01*
X177400390Y-106664160D02*
X177438485Y-106626065D01*
X177438485Y-106626065D02*
X177514676Y-106587969D01*
X177514676Y-106587969D02*
X177628961Y-106587969D01*
X177628961Y-106587969D02*
X177705152Y-106626065D01*
X177705152Y-106626065D02*
X177743247Y-106664160D01*
X177743247Y-106664160D02*
X177781342Y-106740350D01*
X177781342Y-106740350D02*
X177781342Y-107045112D01*
X177743247Y-105978446D02*
X177781342Y-105864160D01*
X177781342Y-105864160D02*
X177819438Y-105826065D01*
X177819438Y-105826065D02*
X177895628Y-105787969D01*
X177895628Y-105787969D02*
X178009914Y-105787969D01*
X178009914Y-105787969D02*
X178086104Y-105826065D01*
X178086104Y-105826065D02*
X178124200Y-105864160D01*
X178124200Y-105864160D02*
X178162295Y-105940350D01*
X178162295Y-105940350D02*
X178162295Y-106245112D01*
X178162295Y-106245112D02*
X177362295Y-106245112D01*
X177362295Y-106245112D02*
X177362295Y-105978446D01*
X177362295Y-105978446D02*
X177400390Y-105902255D01*
X177400390Y-105902255D02*
X177438485Y-105864160D01*
X177438485Y-105864160D02*
X177514676Y-105826065D01*
X177514676Y-105826065D02*
X177590866Y-105826065D01*
X177590866Y-105826065D02*
X177667057Y-105864160D01*
X177667057Y-105864160D02*
X177705152Y-105902255D01*
X177705152Y-105902255D02*
X177743247Y-105978446D01*
X177743247Y-105978446D02*
X177743247Y-106245112D01*
X177362295Y-105064160D02*
X177362295Y-105445112D01*
X177362295Y-105445112D02*
X177743247Y-105483208D01*
X177743247Y-105483208D02*
X177705152Y-105445112D01*
X177705152Y-105445112D02*
X177667057Y-105368922D01*
X177667057Y-105368922D02*
X177667057Y-105178446D01*
X177667057Y-105178446D02*
X177705152Y-105102255D01*
X177705152Y-105102255D02*
X177743247Y-105064160D01*
X177743247Y-105064160D02*
X177819438Y-105026065D01*
X177819438Y-105026065D02*
X178009914Y-105026065D01*
X178009914Y-105026065D02*
X178086104Y-105064160D01*
X178086104Y-105064160D02*
X178124200Y-105102255D01*
X178124200Y-105102255D02*
X178162295Y-105178446D01*
X178162295Y-105178446D02*
X178162295Y-105368922D01*
X178162295Y-105368922D02*
X178124200Y-105445112D01*
X178124200Y-105445112D02*
X178086104Y-105483208D01*
X190862295Y-107692731D02*
X190062295Y-107692731D01*
X190062295Y-107692731D02*
X190062295Y-107387969D01*
X190062295Y-107387969D02*
X190100390Y-107311779D01*
X190100390Y-107311779D02*
X190138485Y-107273684D01*
X190138485Y-107273684D02*
X190214676Y-107235588D01*
X190214676Y-107235588D02*
X190328961Y-107235588D01*
X190328961Y-107235588D02*
X190405152Y-107273684D01*
X190405152Y-107273684D02*
X190443247Y-107311779D01*
X190443247Y-107311779D02*
X190481342Y-107387969D01*
X190481342Y-107387969D02*
X190481342Y-107692731D01*
X190633723Y-106930827D02*
X190633723Y-106549874D01*
X190862295Y-107007017D02*
X190062295Y-106740350D01*
X190062295Y-106740350D02*
X190862295Y-106473684D01*
X190862295Y-105787970D02*
X190862295Y-106245113D01*
X190862295Y-106016541D02*
X190062295Y-106016541D01*
X190062295Y-106016541D02*
X190176580Y-106092732D01*
X190176580Y-106092732D02*
X190252771Y-106168922D01*
X190252771Y-106168922D02*
X190290866Y-106245113D01*
X190062295Y-105064160D02*
X190062295Y-105445112D01*
X190062295Y-105445112D02*
X190443247Y-105483208D01*
X190443247Y-105483208D02*
X190405152Y-105445112D01*
X190405152Y-105445112D02*
X190367057Y-105368922D01*
X190367057Y-105368922D02*
X190367057Y-105178446D01*
X190367057Y-105178446D02*
X190405152Y-105102255D01*
X190405152Y-105102255D02*
X190443247Y-105064160D01*
X190443247Y-105064160D02*
X190519438Y-105026065D01*
X190519438Y-105026065D02*
X190709914Y-105026065D01*
X190709914Y-105026065D02*
X190786104Y-105064160D01*
X190786104Y-105064160D02*
X190824200Y-105102255D01*
X190824200Y-105102255D02*
X190862295Y-105178446D01*
X190862295Y-105178446D02*
X190862295Y-105368922D01*
X190862295Y-105368922D02*
X190824200Y-105445112D01*
X190824200Y-105445112D02*
X190786104Y-105483208D01*
X185782295Y-145145112D02*
X184982295Y-145145112D01*
X184982295Y-145145112D02*
X184982295Y-144840350D01*
X184982295Y-144840350D02*
X185020390Y-144764160D01*
X185020390Y-144764160D02*
X185058485Y-144726065D01*
X185058485Y-144726065D02*
X185134676Y-144687969D01*
X185134676Y-144687969D02*
X185248961Y-144687969D01*
X185248961Y-144687969D02*
X185325152Y-144726065D01*
X185325152Y-144726065D02*
X185363247Y-144764160D01*
X185363247Y-144764160D02*
X185401342Y-144840350D01*
X185401342Y-144840350D02*
X185401342Y-145145112D01*
X185363247Y-144078446D02*
X185401342Y-143964160D01*
X185401342Y-143964160D02*
X185439438Y-143926065D01*
X185439438Y-143926065D02*
X185515628Y-143887969D01*
X185515628Y-143887969D02*
X185629914Y-143887969D01*
X185629914Y-143887969D02*
X185706104Y-143926065D01*
X185706104Y-143926065D02*
X185744200Y-143964160D01*
X185744200Y-143964160D02*
X185782295Y-144040350D01*
X185782295Y-144040350D02*
X185782295Y-144345112D01*
X185782295Y-144345112D02*
X184982295Y-144345112D01*
X184982295Y-144345112D02*
X184982295Y-144078446D01*
X184982295Y-144078446D02*
X185020390Y-144002255D01*
X185020390Y-144002255D02*
X185058485Y-143964160D01*
X185058485Y-143964160D02*
X185134676Y-143926065D01*
X185134676Y-143926065D02*
X185210866Y-143926065D01*
X185210866Y-143926065D02*
X185287057Y-143964160D01*
X185287057Y-143964160D02*
X185325152Y-144002255D01*
X185325152Y-144002255D02*
X185363247Y-144078446D01*
X185363247Y-144078446D02*
X185363247Y-144345112D01*
X185058485Y-143583208D02*
X185020390Y-143545112D01*
X185020390Y-143545112D02*
X184982295Y-143468922D01*
X184982295Y-143468922D02*
X184982295Y-143278446D01*
X184982295Y-143278446D02*
X185020390Y-143202255D01*
X185020390Y-143202255D02*
X185058485Y-143164160D01*
X185058485Y-143164160D02*
X185134676Y-143126065D01*
X185134676Y-143126065D02*
X185210866Y-143126065D01*
X185210866Y-143126065D02*
X185325152Y-143164160D01*
X185325152Y-143164160D02*
X185782295Y-143621303D01*
X185782295Y-143621303D02*
X185782295Y-143126065D01*
X169742295Y-107045112D02*
X170389914Y-107045112D01*
X170389914Y-107045112D02*
X170466104Y-107007017D01*
X170466104Y-107007017D02*
X170504200Y-106968922D01*
X170504200Y-106968922D02*
X170542295Y-106892731D01*
X170542295Y-106892731D02*
X170542295Y-106740350D01*
X170542295Y-106740350D02*
X170504200Y-106664160D01*
X170504200Y-106664160D02*
X170466104Y-106626065D01*
X170466104Y-106626065D02*
X170389914Y-106587969D01*
X170389914Y-106587969D02*
X169742295Y-106587969D01*
X170542295Y-105787970D02*
X170542295Y-106245113D01*
X170542295Y-106016541D02*
X169742295Y-106016541D01*
X169742295Y-106016541D02*
X169856580Y-106092732D01*
X169856580Y-106092732D02*
X169932771Y-106168922D01*
X169932771Y-106168922D02*
X169970866Y-106245113D01*
X169742295Y-105292731D02*
X169742295Y-105216541D01*
X169742295Y-105216541D02*
X169780390Y-105140350D01*
X169780390Y-105140350D02*
X169818485Y-105102255D01*
X169818485Y-105102255D02*
X169894676Y-105064160D01*
X169894676Y-105064160D02*
X170047057Y-105026065D01*
X170047057Y-105026065D02*
X170237533Y-105026065D01*
X170237533Y-105026065D02*
X170389914Y-105064160D01*
X170389914Y-105064160D02*
X170466104Y-105102255D01*
X170466104Y-105102255D02*
X170504200Y-105140350D01*
X170504200Y-105140350D02*
X170542295Y-105216541D01*
X170542295Y-105216541D02*
X170542295Y-105292731D01*
X170542295Y-105292731D02*
X170504200Y-105368922D01*
X170504200Y-105368922D02*
X170466104Y-105407017D01*
X170466104Y-105407017D02*
X170389914Y-105445112D01*
X170389914Y-105445112D02*
X170237533Y-105483208D01*
X170237533Y-105483208D02*
X170047057Y-105483208D01*
X170047057Y-105483208D02*
X169894676Y-105445112D01*
X169894676Y-105445112D02*
X169818485Y-105407017D01*
X169818485Y-105407017D02*
X169780390Y-105368922D01*
X169780390Y-105368922D02*
X169742295Y-105292731D01*
X202762295Y-136235839D02*
X203409914Y-136235839D01*
X203409914Y-136235839D02*
X203486104Y-136197744D01*
X203486104Y-136197744D02*
X203524200Y-136159649D01*
X203524200Y-136159649D02*
X203562295Y-136083458D01*
X203562295Y-136083458D02*
X203562295Y-135931077D01*
X203562295Y-135931077D02*
X203524200Y-135854887D01*
X203524200Y-135854887D02*
X203486104Y-135816792D01*
X203486104Y-135816792D02*
X203409914Y-135778696D01*
X203409914Y-135778696D02*
X202762295Y-135778696D01*
X203028961Y-135054887D02*
X203562295Y-135054887D01*
X202724200Y-135245363D02*
X203295628Y-135435840D01*
X203295628Y-135435840D02*
X203295628Y-134940601D01*
X200222295Y-144383207D02*
X200869914Y-144383207D01*
X200869914Y-144383207D02*
X200946104Y-144345112D01*
X200946104Y-144345112D02*
X200984200Y-144307017D01*
X200984200Y-144307017D02*
X201022295Y-144230826D01*
X201022295Y-144230826D02*
X201022295Y-144078445D01*
X201022295Y-144078445D02*
X200984200Y-144002255D01*
X200984200Y-144002255D02*
X200946104Y-143964160D01*
X200946104Y-143964160D02*
X200869914Y-143926064D01*
X200869914Y-143926064D02*
X200222295Y-143926064D01*
X201022295Y-143126065D02*
X201022295Y-143583208D01*
X201022295Y-143354636D02*
X200222295Y-143354636D01*
X200222295Y-143354636D02*
X200336580Y-143430827D01*
X200336580Y-143430827D02*
X200412771Y-143507017D01*
X200412771Y-143507017D02*
X200450866Y-143583208D01*
X207880390Y-135816792D02*
X207842295Y-135892982D01*
X207842295Y-135892982D02*
X207842295Y-136007268D01*
X207842295Y-136007268D02*
X207880390Y-136121554D01*
X207880390Y-136121554D02*
X207956580Y-136197744D01*
X207956580Y-136197744D02*
X208032771Y-136235839D01*
X208032771Y-136235839D02*
X208185152Y-136273935D01*
X208185152Y-136273935D02*
X208299438Y-136273935D01*
X208299438Y-136273935D02*
X208451819Y-136235839D01*
X208451819Y-136235839D02*
X208528009Y-136197744D01*
X208528009Y-136197744D02*
X208604200Y-136121554D01*
X208604200Y-136121554D02*
X208642295Y-136007268D01*
X208642295Y-136007268D02*
X208642295Y-135931077D01*
X208642295Y-135931077D02*
X208604200Y-135816792D01*
X208604200Y-135816792D02*
X208566104Y-135778696D01*
X208566104Y-135778696D02*
X208299438Y-135778696D01*
X208299438Y-135778696D02*
X208299438Y-135931077D01*
X208642295Y-135435839D02*
X207842295Y-135435839D01*
X207842295Y-135435839D02*
X208642295Y-134978696D01*
X208642295Y-134978696D02*
X207842295Y-134978696D01*
X208642295Y-134597744D02*
X207842295Y-134597744D01*
X207842295Y-134597744D02*
X207842295Y-134407268D01*
X207842295Y-134407268D02*
X207880390Y-134292982D01*
X207880390Y-134292982D02*
X207956580Y-134216792D01*
X207956580Y-134216792D02*
X208032771Y-134178697D01*
X208032771Y-134178697D02*
X208185152Y-134140601D01*
X208185152Y-134140601D02*
X208299438Y-134140601D01*
X208299438Y-134140601D02*
X208451819Y-134178697D01*
X208451819Y-134178697D02*
X208528009Y-134216792D01*
X208528009Y-134216792D02*
X208604200Y-134292982D01*
X208604200Y-134292982D02*
X208642295Y-134407268D01*
X208642295Y-134407268D02*
X208642295Y-134597744D01*
X205302295Y-98212030D02*
X205302295Y-97716792D01*
X205302295Y-97716792D02*
X205607057Y-97983458D01*
X205607057Y-97983458D02*
X205607057Y-97869173D01*
X205607057Y-97869173D02*
X205645152Y-97792982D01*
X205645152Y-97792982D02*
X205683247Y-97754887D01*
X205683247Y-97754887D02*
X205759438Y-97716792D01*
X205759438Y-97716792D02*
X205949914Y-97716792D01*
X205949914Y-97716792D02*
X206026104Y-97754887D01*
X206026104Y-97754887D02*
X206064200Y-97792982D01*
X206064200Y-97792982D02*
X206102295Y-97869173D01*
X206102295Y-97869173D02*
X206102295Y-98097744D01*
X206102295Y-98097744D02*
X206064200Y-98173935D01*
X206064200Y-98173935D02*
X206026104Y-98212030D01*
X206026104Y-97373934D02*
X206064200Y-97335839D01*
X206064200Y-97335839D02*
X206102295Y-97373934D01*
X206102295Y-97373934D02*
X206064200Y-97412030D01*
X206064200Y-97412030D02*
X206026104Y-97373934D01*
X206026104Y-97373934D02*
X206102295Y-97373934D01*
X205302295Y-97069173D02*
X205302295Y-96573935D01*
X205302295Y-96573935D02*
X205607057Y-96840601D01*
X205607057Y-96840601D02*
X205607057Y-96726316D01*
X205607057Y-96726316D02*
X205645152Y-96650125D01*
X205645152Y-96650125D02*
X205683247Y-96612030D01*
X205683247Y-96612030D02*
X205759438Y-96573935D01*
X205759438Y-96573935D02*
X205949914Y-96573935D01*
X205949914Y-96573935D02*
X206026104Y-96612030D01*
X206026104Y-96612030D02*
X206064200Y-96650125D01*
X206064200Y-96650125D02*
X206102295Y-96726316D01*
X206102295Y-96726316D02*
X206102295Y-96954887D01*
X206102295Y-96954887D02*
X206064200Y-97031078D01*
X206064200Y-97031078D02*
X206026104Y-97069173D01*
X205302295Y-96345363D02*
X206102295Y-96078696D01*
X206102295Y-96078696D02*
X205302295Y-95812030D01*
X198482295Y-98135839D02*
X197682295Y-98135839D01*
X197682295Y-98135839D02*
X197682295Y-97831077D01*
X197682295Y-97831077D02*
X197720390Y-97754887D01*
X197720390Y-97754887D02*
X197758485Y-97716792D01*
X197758485Y-97716792D02*
X197834676Y-97678696D01*
X197834676Y-97678696D02*
X197948961Y-97678696D01*
X197948961Y-97678696D02*
X198025152Y-97716792D01*
X198025152Y-97716792D02*
X198063247Y-97754887D01*
X198063247Y-97754887D02*
X198101342Y-97831077D01*
X198101342Y-97831077D02*
X198101342Y-98135839D01*
X198253723Y-97373935D02*
X198253723Y-96992982D01*
X198482295Y-97450125D02*
X197682295Y-97183458D01*
X197682295Y-97183458D02*
X198482295Y-96916792D01*
X198025152Y-96535840D02*
X197987057Y-96612030D01*
X197987057Y-96612030D02*
X197948961Y-96650125D01*
X197948961Y-96650125D02*
X197872771Y-96688221D01*
X197872771Y-96688221D02*
X197834676Y-96688221D01*
X197834676Y-96688221D02*
X197758485Y-96650125D01*
X197758485Y-96650125D02*
X197720390Y-96612030D01*
X197720390Y-96612030D02*
X197682295Y-96535840D01*
X197682295Y-96535840D02*
X197682295Y-96383459D01*
X197682295Y-96383459D02*
X197720390Y-96307268D01*
X197720390Y-96307268D02*
X197758485Y-96269173D01*
X197758485Y-96269173D02*
X197834676Y-96231078D01*
X197834676Y-96231078D02*
X197872771Y-96231078D01*
X197872771Y-96231078D02*
X197948961Y-96269173D01*
X197948961Y-96269173D02*
X197987057Y-96307268D01*
X197987057Y-96307268D02*
X198025152Y-96383459D01*
X198025152Y-96383459D02*
X198025152Y-96535840D01*
X198025152Y-96535840D02*
X198063247Y-96612030D01*
X198063247Y-96612030D02*
X198101342Y-96650125D01*
X198101342Y-96650125D02*
X198177533Y-96688221D01*
X198177533Y-96688221D02*
X198329914Y-96688221D01*
X198329914Y-96688221D02*
X198406104Y-96650125D01*
X198406104Y-96650125D02*
X198444200Y-96612030D01*
X198444200Y-96612030D02*
X198482295Y-96535840D01*
X198482295Y-96535840D02*
X198482295Y-96383459D01*
X198482295Y-96383459D02*
X198444200Y-96307268D01*
X198444200Y-96307268D02*
X198406104Y-96269173D01*
X198406104Y-96269173D02*
X198329914Y-96231078D01*
X198329914Y-96231078D02*
X198177533Y-96231078D01*
X198177533Y-96231078D02*
X198101342Y-96269173D01*
X198101342Y-96269173D02*
X198063247Y-96307268D01*
X198063247Y-96307268D02*
X198025152Y-96383459D01*
X193402295Y-98135839D02*
X192602295Y-98135839D01*
X192602295Y-98135839D02*
X192602295Y-97831077D01*
X192602295Y-97831077D02*
X192640390Y-97754887D01*
X192640390Y-97754887D02*
X192678485Y-97716792D01*
X192678485Y-97716792D02*
X192754676Y-97678696D01*
X192754676Y-97678696D02*
X192868961Y-97678696D01*
X192868961Y-97678696D02*
X192945152Y-97716792D01*
X192945152Y-97716792D02*
X192983247Y-97754887D01*
X192983247Y-97754887D02*
X193021342Y-97831077D01*
X193021342Y-97831077D02*
X193021342Y-98135839D01*
X193173723Y-97373935D02*
X193173723Y-96992982D01*
X193402295Y-97450125D02*
X192602295Y-97183458D01*
X192602295Y-97183458D02*
X193402295Y-96916792D01*
X193402295Y-96231078D02*
X193402295Y-96688221D01*
X193402295Y-96459649D02*
X192602295Y-96459649D01*
X192602295Y-96459649D02*
X192716580Y-96535840D01*
X192716580Y-96535840D02*
X192792771Y-96612030D01*
X192792771Y-96612030D02*
X192830866Y-96688221D01*
X192678485Y-95926316D02*
X192640390Y-95888220D01*
X192640390Y-95888220D02*
X192602295Y-95812030D01*
X192602295Y-95812030D02*
X192602295Y-95621554D01*
X192602295Y-95621554D02*
X192640390Y-95545363D01*
X192640390Y-95545363D02*
X192678485Y-95507268D01*
X192678485Y-95507268D02*
X192754676Y-95469173D01*
X192754676Y-95469173D02*
X192830866Y-95469173D01*
X192830866Y-95469173D02*
X192945152Y-95507268D01*
X192945152Y-95507268D02*
X193402295Y-95964411D01*
X193402295Y-95964411D02*
X193402295Y-95469173D01*
X168002295Y-145145112D02*
X167202295Y-145145112D01*
X167202295Y-145145112D02*
X167202295Y-144840350D01*
X167202295Y-144840350D02*
X167240390Y-144764160D01*
X167240390Y-144764160D02*
X167278485Y-144726065D01*
X167278485Y-144726065D02*
X167354676Y-144687969D01*
X167354676Y-144687969D02*
X167468961Y-144687969D01*
X167468961Y-144687969D02*
X167545152Y-144726065D01*
X167545152Y-144726065D02*
X167583247Y-144764160D01*
X167583247Y-144764160D02*
X167621342Y-144840350D01*
X167621342Y-144840350D02*
X167621342Y-145145112D01*
X167926104Y-143887969D02*
X167964200Y-143926065D01*
X167964200Y-143926065D02*
X168002295Y-144040350D01*
X168002295Y-144040350D02*
X168002295Y-144116541D01*
X168002295Y-144116541D02*
X167964200Y-144230827D01*
X167964200Y-144230827D02*
X167888009Y-144307017D01*
X167888009Y-144307017D02*
X167811819Y-144345112D01*
X167811819Y-144345112D02*
X167659438Y-144383208D01*
X167659438Y-144383208D02*
X167545152Y-144383208D01*
X167545152Y-144383208D02*
X167392771Y-144345112D01*
X167392771Y-144345112D02*
X167316580Y-144307017D01*
X167316580Y-144307017D02*
X167240390Y-144230827D01*
X167240390Y-144230827D02*
X167202295Y-144116541D01*
X167202295Y-144116541D02*
X167202295Y-144040350D01*
X167202295Y-144040350D02*
X167240390Y-143926065D01*
X167240390Y-143926065D02*
X167278485Y-143887969D01*
X167278485Y-143583208D02*
X167240390Y-143545112D01*
X167240390Y-143545112D02*
X167202295Y-143468922D01*
X167202295Y-143468922D02*
X167202295Y-143278446D01*
X167202295Y-143278446D02*
X167240390Y-143202255D01*
X167240390Y-143202255D02*
X167278485Y-143164160D01*
X167278485Y-143164160D02*
X167354676Y-143126065D01*
X167354676Y-143126065D02*
X167430866Y-143126065D01*
X167430866Y-143126065D02*
X167545152Y-143164160D01*
X167545152Y-143164160D02*
X168002295Y-143621303D01*
X168002295Y-143621303D02*
X168002295Y-143126065D01*
X178162295Y-98135839D02*
X177362295Y-98135839D01*
X177362295Y-98135839D02*
X177362295Y-97831077D01*
X177362295Y-97831077D02*
X177400390Y-97754887D01*
X177400390Y-97754887D02*
X177438485Y-97716792D01*
X177438485Y-97716792D02*
X177514676Y-97678696D01*
X177514676Y-97678696D02*
X177628961Y-97678696D01*
X177628961Y-97678696D02*
X177705152Y-97716792D01*
X177705152Y-97716792D02*
X177743247Y-97754887D01*
X177743247Y-97754887D02*
X177781342Y-97831077D01*
X177781342Y-97831077D02*
X177781342Y-98135839D01*
X177743247Y-97069173D02*
X177781342Y-96954887D01*
X177781342Y-96954887D02*
X177819438Y-96916792D01*
X177819438Y-96916792D02*
X177895628Y-96878696D01*
X177895628Y-96878696D02*
X178009914Y-96878696D01*
X178009914Y-96878696D02*
X178086104Y-96916792D01*
X178086104Y-96916792D02*
X178124200Y-96954887D01*
X178124200Y-96954887D02*
X178162295Y-97031077D01*
X178162295Y-97031077D02*
X178162295Y-97335839D01*
X178162295Y-97335839D02*
X177362295Y-97335839D01*
X177362295Y-97335839D02*
X177362295Y-97069173D01*
X177362295Y-97069173D02*
X177400390Y-96992982D01*
X177400390Y-96992982D02*
X177438485Y-96954887D01*
X177438485Y-96954887D02*
X177514676Y-96916792D01*
X177514676Y-96916792D02*
X177590866Y-96916792D01*
X177590866Y-96916792D02*
X177667057Y-96954887D01*
X177667057Y-96954887D02*
X177705152Y-96992982D01*
X177705152Y-96992982D02*
X177743247Y-97069173D01*
X177743247Y-97069173D02*
X177743247Y-97335839D01*
X177628961Y-96192982D02*
X178162295Y-96192982D01*
X177324200Y-96383458D02*
X177895628Y-96573935D01*
X177895628Y-96573935D02*
X177895628Y-96078696D01*
X183242295Y-136235839D02*
X182442295Y-136235839D01*
X182442295Y-136235839D02*
X182442295Y-135931077D01*
X182442295Y-135931077D02*
X182480390Y-135854887D01*
X182480390Y-135854887D02*
X182518485Y-135816792D01*
X182518485Y-135816792D02*
X182594676Y-135778696D01*
X182594676Y-135778696D02*
X182708961Y-135778696D01*
X182708961Y-135778696D02*
X182785152Y-135816792D01*
X182785152Y-135816792D02*
X182823247Y-135854887D01*
X182823247Y-135854887D02*
X182861342Y-135931077D01*
X182861342Y-135931077D02*
X182861342Y-136235839D01*
X182823247Y-135169173D02*
X182861342Y-135054887D01*
X182861342Y-135054887D02*
X182899438Y-135016792D01*
X182899438Y-135016792D02*
X182975628Y-134978696D01*
X182975628Y-134978696D02*
X183089914Y-134978696D01*
X183089914Y-134978696D02*
X183166104Y-135016792D01*
X183166104Y-135016792D02*
X183204200Y-135054887D01*
X183204200Y-135054887D02*
X183242295Y-135131077D01*
X183242295Y-135131077D02*
X183242295Y-135435839D01*
X183242295Y-135435839D02*
X182442295Y-135435839D01*
X182442295Y-135435839D02*
X182442295Y-135169173D01*
X182442295Y-135169173D02*
X182480390Y-135092982D01*
X182480390Y-135092982D02*
X182518485Y-135054887D01*
X182518485Y-135054887D02*
X182594676Y-135016792D01*
X182594676Y-135016792D02*
X182670866Y-135016792D01*
X182670866Y-135016792D02*
X182747057Y-135054887D01*
X182747057Y-135054887D02*
X182785152Y-135092982D01*
X182785152Y-135092982D02*
X182823247Y-135169173D01*
X182823247Y-135169173D02*
X182823247Y-135435839D01*
X183242295Y-134216792D02*
X183242295Y-134673935D01*
X183242295Y-134445363D02*
X182442295Y-134445363D01*
X182442295Y-134445363D02*
X182556580Y-134521554D01*
X182556580Y-134521554D02*
X182632771Y-134597744D01*
X182632771Y-134597744D02*
X182670866Y-134673935D01*
X168002295Y-107807017D02*
X167202295Y-107807017D01*
X167202295Y-107807017D02*
X167202295Y-107502255D01*
X167202295Y-107502255D02*
X167240390Y-107426065D01*
X167240390Y-107426065D02*
X167278485Y-107387970D01*
X167278485Y-107387970D02*
X167354676Y-107349874D01*
X167354676Y-107349874D02*
X167468961Y-107349874D01*
X167468961Y-107349874D02*
X167545152Y-107387970D01*
X167545152Y-107387970D02*
X167583247Y-107426065D01*
X167583247Y-107426065D02*
X167621342Y-107502255D01*
X167621342Y-107502255D02*
X167621342Y-107807017D01*
X167926104Y-106549874D02*
X167964200Y-106587970D01*
X167964200Y-106587970D02*
X168002295Y-106702255D01*
X168002295Y-106702255D02*
X168002295Y-106778446D01*
X168002295Y-106778446D02*
X167964200Y-106892732D01*
X167964200Y-106892732D02*
X167888009Y-106968922D01*
X167888009Y-106968922D02*
X167811819Y-107007017D01*
X167811819Y-107007017D02*
X167659438Y-107045113D01*
X167659438Y-107045113D02*
X167545152Y-107045113D01*
X167545152Y-107045113D02*
X167392771Y-107007017D01*
X167392771Y-107007017D02*
X167316580Y-106968922D01*
X167316580Y-106968922D02*
X167240390Y-106892732D01*
X167240390Y-106892732D02*
X167202295Y-106778446D01*
X167202295Y-106778446D02*
X167202295Y-106702255D01*
X167202295Y-106702255D02*
X167240390Y-106587970D01*
X167240390Y-106587970D02*
X167278485Y-106549874D01*
X168002295Y-105787970D02*
X168002295Y-106245113D01*
X168002295Y-106016541D02*
X167202295Y-106016541D01*
X167202295Y-106016541D02*
X167316580Y-106092732D01*
X167316580Y-106092732D02*
X167392771Y-106168922D01*
X167392771Y-106168922D02*
X167430866Y-106245113D01*
X167202295Y-105521303D02*
X167202295Y-105026065D01*
X167202295Y-105026065D02*
X167507057Y-105292731D01*
X167507057Y-105292731D02*
X167507057Y-105178446D01*
X167507057Y-105178446D02*
X167545152Y-105102255D01*
X167545152Y-105102255D02*
X167583247Y-105064160D01*
X167583247Y-105064160D02*
X167659438Y-105026065D01*
X167659438Y-105026065D02*
X167849914Y-105026065D01*
X167849914Y-105026065D02*
X167926104Y-105064160D01*
X167926104Y-105064160D02*
X167964200Y-105102255D01*
X167964200Y-105102255D02*
X168002295Y-105178446D01*
X168002295Y-105178446D02*
X168002295Y-105407017D01*
X168002295Y-105407017D02*
X167964200Y-105483208D01*
X167964200Y-105483208D02*
X167926104Y-105521303D01*
X175622295Y-136235839D02*
X174822295Y-136235839D01*
X174822295Y-136235839D02*
X174822295Y-135931077D01*
X174822295Y-135931077D02*
X174860390Y-135854887D01*
X174860390Y-135854887D02*
X174898485Y-135816792D01*
X174898485Y-135816792D02*
X174974676Y-135778696D01*
X174974676Y-135778696D02*
X175088961Y-135778696D01*
X175088961Y-135778696D02*
X175165152Y-135816792D01*
X175165152Y-135816792D02*
X175203247Y-135854887D01*
X175203247Y-135854887D02*
X175241342Y-135931077D01*
X175241342Y-135931077D02*
X175241342Y-136235839D01*
X175393723Y-135473935D02*
X175393723Y-135092982D01*
X175622295Y-135550125D02*
X174822295Y-135283458D01*
X174822295Y-135283458D02*
X175622295Y-135016792D01*
X174822295Y-134369173D02*
X174822295Y-134750125D01*
X174822295Y-134750125D02*
X175203247Y-134788221D01*
X175203247Y-134788221D02*
X175165152Y-134750125D01*
X175165152Y-134750125D02*
X175127057Y-134673935D01*
X175127057Y-134673935D02*
X175127057Y-134483459D01*
X175127057Y-134483459D02*
X175165152Y-134407268D01*
X175165152Y-134407268D02*
X175203247Y-134369173D01*
X175203247Y-134369173D02*
X175279438Y-134331078D01*
X175279438Y-134331078D02*
X175469914Y-134331078D01*
X175469914Y-134331078D02*
X175546104Y-134369173D01*
X175546104Y-134369173D02*
X175584200Y-134407268D01*
X175584200Y-134407268D02*
X175622295Y-134483459D01*
X175622295Y-134483459D02*
X175622295Y-134673935D01*
X175622295Y-134673935D02*
X175584200Y-134750125D01*
X175584200Y-134750125D02*
X175546104Y-134788221D01*
X207842295Y-143849874D02*
X207842295Y-144230826D01*
X207842295Y-144230826D02*
X208223247Y-144268922D01*
X208223247Y-144268922D02*
X208185152Y-144230826D01*
X208185152Y-144230826D02*
X208147057Y-144154636D01*
X208147057Y-144154636D02*
X208147057Y-143964160D01*
X208147057Y-143964160D02*
X208185152Y-143887969D01*
X208185152Y-143887969D02*
X208223247Y-143849874D01*
X208223247Y-143849874D02*
X208299438Y-143811779D01*
X208299438Y-143811779D02*
X208489914Y-143811779D01*
X208489914Y-143811779D02*
X208566104Y-143849874D01*
X208566104Y-143849874D02*
X208604200Y-143887969D01*
X208604200Y-143887969D02*
X208642295Y-143964160D01*
X208642295Y-143964160D02*
X208642295Y-144154636D01*
X208642295Y-144154636D02*
X208604200Y-144230826D01*
X208604200Y-144230826D02*
X208566104Y-144268922D01*
X207842295Y-143583207D02*
X208642295Y-143316540D01*
X208642295Y-143316540D02*
X207842295Y-143049874D01*
X168002295Y-136235839D02*
X167202295Y-136235839D01*
X167202295Y-136235839D02*
X167202295Y-135931077D01*
X167202295Y-135931077D02*
X167240390Y-135854887D01*
X167240390Y-135854887D02*
X167278485Y-135816792D01*
X167278485Y-135816792D02*
X167354676Y-135778696D01*
X167354676Y-135778696D02*
X167468961Y-135778696D01*
X167468961Y-135778696D02*
X167545152Y-135816792D01*
X167545152Y-135816792D02*
X167583247Y-135854887D01*
X167583247Y-135854887D02*
X167621342Y-135931077D01*
X167621342Y-135931077D02*
X167621342Y-136235839D01*
X167926104Y-134978696D02*
X167964200Y-135016792D01*
X167964200Y-135016792D02*
X168002295Y-135131077D01*
X168002295Y-135131077D02*
X168002295Y-135207268D01*
X168002295Y-135207268D02*
X167964200Y-135321554D01*
X167964200Y-135321554D02*
X167888009Y-135397744D01*
X167888009Y-135397744D02*
X167811819Y-135435839D01*
X167811819Y-135435839D02*
X167659438Y-135473935D01*
X167659438Y-135473935D02*
X167545152Y-135473935D01*
X167545152Y-135473935D02*
X167392771Y-135435839D01*
X167392771Y-135435839D02*
X167316580Y-135397744D01*
X167316580Y-135397744D02*
X167240390Y-135321554D01*
X167240390Y-135321554D02*
X167202295Y-135207268D01*
X167202295Y-135207268D02*
X167202295Y-135131077D01*
X167202295Y-135131077D02*
X167240390Y-135016792D01*
X167240390Y-135016792D02*
X167278485Y-134978696D01*
X167202295Y-134712030D02*
X167202295Y-134216792D01*
X167202295Y-134216792D02*
X167507057Y-134483458D01*
X167507057Y-134483458D02*
X167507057Y-134369173D01*
X167507057Y-134369173D02*
X167545152Y-134292982D01*
X167545152Y-134292982D02*
X167583247Y-134254887D01*
X167583247Y-134254887D02*
X167659438Y-134216792D01*
X167659438Y-134216792D02*
X167849914Y-134216792D01*
X167849914Y-134216792D02*
X167926104Y-134254887D01*
X167926104Y-134254887D02*
X167964200Y-134292982D01*
X167964200Y-134292982D02*
X168002295Y-134369173D01*
X168002295Y-134369173D02*
X168002295Y-134597744D01*
X168002295Y-134597744D02*
X167964200Y-134673935D01*
X167964200Y-134673935D02*
X167926104Y-134712030D01*
X162122295Y-106283207D02*
X162769914Y-106283207D01*
X162769914Y-106283207D02*
X162846104Y-106245112D01*
X162846104Y-106245112D02*
X162884200Y-106207017D01*
X162884200Y-106207017D02*
X162922295Y-106130826D01*
X162922295Y-106130826D02*
X162922295Y-105978445D01*
X162922295Y-105978445D02*
X162884200Y-105902255D01*
X162884200Y-105902255D02*
X162846104Y-105864160D01*
X162846104Y-105864160D02*
X162769914Y-105826064D01*
X162769914Y-105826064D02*
X162122295Y-105826064D01*
X162122295Y-105102255D02*
X162122295Y-105254636D01*
X162122295Y-105254636D02*
X162160390Y-105330827D01*
X162160390Y-105330827D02*
X162198485Y-105368922D01*
X162198485Y-105368922D02*
X162312771Y-105445112D01*
X162312771Y-105445112D02*
X162465152Y-105483208D01*
X162465152Y-105483208D02*
X162769914Y-105483208D01*
X162769914Y-105483208D02*
X162846104Y-105445112D01*
X162846104Y-105445112D02*
X162884200Y-105407017D01*
X162884200Y-105407017D02*
X162922295Y-105330827D01*
X162922295Y-105330827D02*
X162922295Y-105178446D01*
X162922295Y-105178446D02*
X162884200Y-105102255D01*
X162884200Y-105102255D02*
X162846104Y-105064160D01*
X162846104Y-105064160D02*
X162769914Y-105026065D01*
X162769914Y-105026065D02*
X162579438Y-105026065D01*
X162579438Y-105026065D02*
X162503247Y-105064160D01*
X162503247Y-105064160D02*
X162465152Y-105102255D01*
X162465152Y-105102255D02*
X162427057Y-105178446D01*
X162427057Y-105178446D02*
X162427057Y-105330827D01*
X162427057Y-105330827D02*
X162465152Y-105407017D01*
X162465152Y-105407017D02*
X162503247Y-105445112D01*
X162503247Y-105445112D02*
X162579438Y-105483208D01*
X205340390Y-135816792D02*
X205302295Y-135892982D01*
X205302295Y-135892982D02*
X205302295Y-136007268D01*
X205302295Y-136007268D02*
X205340390Y-136121554D01*
X205340390Y-136121554D02*
X205416580Y-136197744D01*
X205416580Y-136197744D02*
X205492771Y-136235839D01*
X205492771Y-136235839D02*
X205645152Y-136273935D01*
X205645152Y-136273935D02*
X205759438Y-136273935D01*
X205759438Y-136273935D02*
X205911819Y-136235839D01*
X205911819Y-136235839D02*
X205988009Y-136197744D01*
X205988009Y-136197744D02*
X206064200Y-136121554D01*
X206064200Y-136121554D02*
X206102295Y-136007268D01*
X206102295Y-136007268D02*
X206102295Y-135931077D01*
X206102295Y-135931077D02*
X206064200Y-135816792D01*
X206064200Y-135816792D02*
X206026104Y-135778696D01*
X206026104Y-135778696D02*
X205759438Y-135778696D01*
X205759438Y-135778696D02*
X205759438Y-135931077D01*
X206102295Y-135435839D02*
X205302295Y-135435839D01*
X205302295Y-135435839D02*
X206102295Y-134978696D01*
X206102295Y-134978696D02*
X205302295Y-134978696D01*
X206102295Y-134597744D02*
X205302295Y-134597744D01*
X205302295Y-134597744D02*
X205302295Y-134407268D01*
X205302295Y-134407268D02*
X205340390Y-134292982D01*
X205340390Y-134292982D02*
X205416580Y-134216792D01*
X205416580Y-134216792D02*
X205492771Y-134178697D01*
X205492771Y-134178697D02*
X205645152Y-134140601D01*
X205645152Y-134140601D02*
X205759438Y-134140601D01*
X205759438Y-134140601D02*
X205911819Y-134178697D01*
X205911819Y-134178697D02*
X205988009Y-134216792D01*
X205988009Y-134216792D02*
X206064200Y-134292982D01*
X206064200Y-134292982D02*
X206102295Y-134407268D01*
X206102295Y-134407268D02*
X206102295Y-134597744D01*
X185782295Y-107807017D02*
X184982295Y-107807017D01*
X184982295Y-107807017D02*
X184982295Y-107502255D01*
X184982295Y-107502255D02*
X185020390Y-107426065D01*
X185020390Y-107426065D02*
X185058485Y-107387970D01*
X185058485Y-107387970D02*
X185134676Y-107349874D01*
X185134676Y-107349874D02*
X185248961Y-107349874D01*
X185248961Y-107349874D02*
X185325152Y-107387970D01*
X185325152Y-107387970D02*
X185363247Y-107426065D01*
X185363247Y-107426065D02*
X185401342Y-107502255D01*
X185401342Y-107502255D02*
X185401342Y-107807017D01*
X185706104Y-106549874D02*
X185744200Y-106587970D01*
X185744200Y-106587970D02*
X185782295Y-106702255D01*
X185782295Y-106702255D02*
X185782295Y-106778446D01*
X185782295Y-106778446D02*
X185744200Y-106892732D01*
X185744200Y-106892732D02*
X185668009Y-106968922D01*
X185668009Y-106968922D02*
X185591819Y-107007017D01*
X185591819Y-107007017D02*
X185439438Y-107045113D01*
X185439438Y-107045113D02*
X185325152Y-107045113D01*
X185325152Y-107045113D02*
X185172771Y-107007017D01*
X185172771Y-107007017D02*
X185096580Y-106968922D01*
X185096580Y-106968922D02*
X185020390Y-106892732D01*
X185020390Y-106892732D02*
X184982295Y-106778446D01*
X184982295Y-106778446D02*
X184982295Y-106702255D01*
X184982295Y-106702255D02*
X185020390Y-106587970D01*
X185020390Y-106587970D02*
X185058485Y-106549874D01*
X185782295Y-105787970D02*
X185782295Y-106245113D01*
X185782295Y-106016541D02*
X184982295Y-106016541D01*
X184982295Y-106016541D02*
X185096580Y-106092732D01*
X185096580Y-106092732D02*
X185172771Y-106168922D01*
X185172771Y-106168922D02*
X185210866Y-106245113D01*
X185782295Y-105026065D02*
X185782295Y-105483208D01*
X185782295Y-105254636D02*
X184982295Y-105254636D01*
X184982295Y-105254636D02*
X185096580Y-105330827D01*
X185096580Y-105330827D02*
X185172771Y-105407017D01*
X185172771Y-105407017D02*
X185210866Y-105483208D01*
X190862295Y-145907017D02*
X190062295Y-145907017D01*
X190062295Y-145907017D02*
X190062295Y-145602255D01*
X190062295Y-145602255D02*
X190100390Y-145526065D01*
X190100390Y-145526065D02*
X190138485Y-145487970D01*
X190138485Y-145487970D02*
X190214676Y-145449874D01*
X190214676Y-145449874D02*
X190328961Y-145449874D01*
X190328961Y-145449874D02*
X190405152Y-145487970D01*
X190405152Y-145487970D02*
X190443247Y-145526065D01*
X190443247Y-145526065D02*
X190481342Y-145602255D01*
X190481342Y-145602255D02*
X190481342Y-145907017D01*
X190443247Y-144840351D02*
X190481342Y-144726065D01*
X190481342Y-144726065D02*
X190519438Y-144687970D01*
X190519438Y-144687970D02*
X190595628Y-144649874D01*
X190595628Y-144649874D02*
X190709914Y-144649874D01*
X190709914Y-144649874D02*
X190786104Y-144687970D01*
X190786104Y-144687970D02*
X190824200Y-144726065D01*
X190824200Y-144726065D02*
X190862295Y-144802255D01*
X190862295Y-144802255D02*
X190862295Y-145107017D01*
X190862295Y-145107017D02*
X190062295Y-145107017D01*
X190062295Y-145107017D02*
X190062295Y-144840351D01*
X190062295Y-144840351D02*
X190100390Y-144764160D01*
X190100390Y-144764160D02*
X190138485Y-144726065D01*
X190138485Y-144726065D02*
X190214676Y-144687970D01*
X190214676Y-144687970D02*
X190290866Y-144687970D01*
X190290866Y-144687970D02*
X190367057Y-144726065D01*
X190367057Y-144726065D02*
X190405152Y-144764160D01*
X190405152Y-144764160D02*
X190443247Y-144840351D01*
X190443247Y-144840351D02*
X190443247Y-145107017D01*
X190862295Y-143887970D02*
X190862295Y-144345113D01*
X190862295Y-144116541D02*
X190062295Y-144116541D01*
X190062295Y-144116541D02*
X190176580Y-144192732D01*
X190176580Y-144192732D02*
X190252771Y-144268922D01*
X190252771Y-144268922D02*
X190290866Y-144345113D01*
X190138485Y-143583208D02*
X190100390Y-143545112D01*
X190100390Y-143545112D02*
X190062295Y-143468922D01*
X190062295Y-143468922D02*
X190062295Y-143278446D01*
X190062295Y-143278446D02*
X190100390Y-143202255D01*
X190100390Y-143202255D02*
X190138485Y-143164160D01*
X190138485Y-143164160D02*
X190214676Y-143126065D01*
X190214676Y-143126065D02*
X190290866Y-143126065D01*
X190290866Y-143126065D02*
X190405152Y-143164160D01*
X190405152Y-143164160D02*
X190862295Y-143621303D01*
X190862295Y-143621303D02*
X190862295Y-143126065D01*
X200222295Y-107045112D02*
X200869914Y-107045112D01*
X200869914Y-107045112D02*
X200946104Y-107007017D01*
X200946104Y-107007017D02*
X200984200Y-106968922D01*
X200984200Y-106968922D02*
X201022295Y-106892731D01*
X201022295Y-106892731D02*
X201022295Y-106740350D01*
X201022295Y-106740350D02*
X200984200Y-106664160D01*
X200984200Y-106664160D02*
X200946104Y-106626065D01*
X200946104Y-106626065D02*
X200869914Y-106587969D01*
X200869914Y-106587969D02*
X200222295Y-106587969D01*
X201022295Y-105787970D02*
X201022295Y-106245113D01*
X201022295Y-106016541D02*
X200222295Y-106016541D01*
X200222295Y-106016541D02*
X200336580Y-106092732D01*
X200336580Y-106092732D02*
X200412771Y-106168922D01*
X200412771Y-106168922D02*
X200450866Y-106245113D01*
X200488961Y-105102255D02*
X201022295Y-105102255D01*
X200184200Y-105292731D02*
X200755628Y-105483208D01*
X200755628Y-105483208D02*
X200755628Y-104987969D01*
X165462295Y-145145112D02*
X164662295Y-145145112D01*
X164662295Y-145145112D02*
X164662295Y-144840350D01*
X164662295Y-144840350D02*
X164700390Y-144764160D01*
X164700390Y-144764160D02*
X164738485Y-144726065D01*
X164738485Y-144726065D02*
X164814676Y-144687969D01*
X164814676Y-144687969D02*
X164928961Y-144687969D01*
X164928961Y-144687969D02*
X165005152Y-144726065D01*
X165005152Y-144726065D02*
X165043247Y-144764160D01*
X165043247Y-144764160D02*
X165081342Y-144840350D01*
X165081342Y-144840350D02*
X165081342Y-145145112D01*
X165386104Y-143887969D02*
X165424200Y-143926065D01*
X165424200Y-143926065D02*
X165462295Y-144040350D01*
X165462295Y-144040350D02*
X165462295Y-144116541D01*
X165462295Y-144116541D02*
X165424200Y-144230827D01*
X165424200Y-144230827D02*
X165348009Y-144307017D01*
X165348009Y-144307017D02*
X165271819Y-144345112D01*
X165271819Y-144345112D02*
X165119438Y-144383208D01*
X165119438Y-144383208D02*
X165005152Y-144383208D01*
X165005152Y-144383208D02*
X164852771Y-144345112D01*
X164852771Y-144345112D02*
X164776580Y-144307017D01*
X164776580Y-144307017D02*
X164700390Y-144230827D01*
X164700390Y-144230827D02*
X164662295Y-144116541D01*
X164662295Y-144116541D02*
X164662295Y-144040350D01*
X164662295Y-144040350D02*
X164700390Y-143926065D01*
X164700390Y-143926065D02*
X164738485Y-143887969D01*
X164662295Y-143392731D02*
X164662295Y-143316541D01*
X164662295Y-143316541D02*
X164700390Y-143240350D01*
X164700390Y-143240350D02*
X164738485Y-143202255D01*
X164738485Y-143202255D02*
X164814676Y-143164160D01*
X164814676Y-143164160D02*
X164967057Y-143126065D01*
X164967057Y-143126065D02*
X165157533Y-143126065D01*
X165157533Y-143126065D02*
X165309914Y-143164160D01*
X165309914Y-143164160D02*
X165386104Y-143202255D01*
X165386104Y-143202255D02*
X165424200Y-143240350D01*
X165424200Y-143240350D02*
X165462295Y-143316541D01*
X165462295Y-143316541D02*
X165462295Y-143392731D01*
X165462295Y-143392731D02*
X165424200Y-143468922D01*
X165424200Y-143468922D02*
X165386104Y-143507017D01*
X165386104Y-143507017D02*
X165309914Y-143545112D01*
X165309914Y-143545112D02*
X165157533Y-143583208D01*
X165157533Y-143583208D02*
X164967057Y-143583208D01*
X164967057Y-143583208D02*
X164814676Y-143545112D01*
X164814676Y-143545112D02*
X164738485Y-143507017D01*
X164738485Y-143507017D02*
X164700390Y-143468922D01*
X164700390Y-143468922D02*
X164662295Y-143392731D01*
X195942295Y-98135839D02*
X195142295Y-98135839D01*
X195142295Y-98135839D02*
X195142295Y-97831077D01*
X195142295Y-97831077D02*
X195180390Y-97754887D01*
X195180390Y-97754887D02*
X195218485Y-97716792D01*
X195218485Y-97716792D02*
X195294676Y-97678696D01*
X195294676Y-97678696D02*
X195408961Y-97678696D01*
X195408961Y-97678696D02*
X195485152Y-97716792D01*
X195485152Y-97716792D02*
X195523247Y-97754887D01*
X195523247Y-97754887D02*
X195561342Y-97831077D01*
X195561342Y-97831077D02*
X195561342Y-98135839D01*
X195713723Y-97373935D02*
X195713723Y-96992982D01*
X195942295Y-97450125D02*
X195142295Y-97183458D01*
X195142295Y-97183458D02*
X195942295Y-96916792D01*
X195942295Y-96231078D02*
X195942295Y-96688221D01*
X195942295Y-96459649D02*
X195142295Y-96459649D01*
X195142295Y-96459649D02*
X195256580Y-96535840D01*
X195256580Y-96535840D02*
X195332771Y-96612030D01*
X195332771Y-96612030D02*
X195370866Y-96688221D01*
X195142295Y-95735839D02*
X195142295Y-95659649D01*
X195142295Y-95659649D02*
X195180390Y-95583458D01*
X195180390Y-95583458D02*
X195218485Y-95545363D01*
X195218485Y-95545363D02*
X195294676Y-95507268D01*
X195294676Y-95507268D02*
X195447057Y-95469173D01*
X195447057Y-95469173D02*
X195637533Y-95469173D01*
X195637533Y-95469173D02*
X195789914Y-95507268D01*
X195789914Y-95507268D02*
X195866104Y-95545363D01*
X195866104Y-95545363D02*
X195904200Y-95583458D01*
X195904200Y-95583458D02*
X195942295Y-95659649D01*
X195942295Y-95659649D02*
X195942295Y-95735839D01*
X195942295Y-95735839D02*
X195904200Y-95812030D01*
X195904200Y-95812030D02*
X195866104Y-95850125D01*
X195866104Y-95850125D02*
X195789914Y-95888220D01*
X195789914Y-95888220D02*
X195637533Y-95926316D01*
X195637533Y-95926316D02*
X195447057Y-95926316D01*
X195447057Y-95926316D02*
X195294676Y-95888220D01*
X195294676Y-95888220D02*
X195218485Y-95850125D01*
X195218485Y-95850125D02*
X195180390Y-95812030D01*
X195180390Y-95812030D02*
X195142295Y-95735839D01*
X187522295Y-98135839D02*
X188169914Y-98135839D01*
X188169914Y-98135839D02*
X188246104Y-98097744D01*
X188246104Y-98097744D02*
X188284200Y-98059649D01*
X188284200Y-98059649D02*
X188322295Y-97983458D01*
X188322295Y-97983458D02*
X188322295Y-97831077D01*
X188322295Y-97831077D02*
X188284200Y-97754887D01*
X188284200Y-97754887D02*
X188246104Y-97716792D01*
X188246104Y-97716792D02*
X188169914Y-97678696D01*
X188169914Y-97678696D02*
X187522295Y-97678696D01*
X188322295Y-96878697D02*
X188322295Y-97335840D01*
X188322295Y-97107268D02*
X187522295Y-97107268D01*
X187522295Y-97107268D02*
X187636580Y-97183459D01*
X187636580Y-97183459D02*
X187712771Y-97259649D01*
X187712771Y-97259649D02*
X187750866Y-97335840D01*
X188322295Y-96116792D02*
X188322295Y-96573935D01*
X188322295Y-96345363D02*
X187522295Y-96345363D01*
X187522295Y-96345363D02*
X187636580Y-96421554D01*
X187636580Y-96421554D02*
X187712771Y-96497744D01*
X187712771Y-96497744D02*
X187750866Y-96573935D01*
X188322295Y-145907017D02*
X187522295Y-145907017D01*
X187522295Y-145907017D02*
X187522295Y-145602255D01*
X187522295Y-145602255D02*
X187560390Y-145526065D01*
X187560390Y-145526065D02*
X187598485Y-145487970D01*
X187598485Y-145487970D02*
X187674676Y-145449874D01*
X187674676Y-145449874D02*
X187788961Y-145449874D01*
X187788961Y-145449874D02*
X187865152Y-145487970D01*
X187865152Y-145487970D02*
X187903247Y-145526065D01*
X187903247Y-145526065D02*
X187941342Y-145602255D01*
X187941342Y-145602255D02*
X187941342Y-145907017D01*
X187903247Y-144840351D02*
X187941342Y-144726065D01*
X187941342Y-144726065D02*
X187979438Y-144687970D01*
X187979438Y-144687970D02*
X188055628Y-144649874D01*
X188055628Y-144649874D02*
X188169914Y-144649874D01*
X188169914Y-144649874D02*
X188246104Y-144687970D01*
X188246104Y-144687970D02*
X188284200Y-144726065D01*
X188284200Y-144726065D02*
X188322295Y-144802255D01*
X188322295Y-144802255D02*
X188322295Y-145107017D01*
X188322295Y-145107017D02*
X187522295Y-145107017D01*
X187522295Y-145107017D02*
X187522295Y-144840351D01*
X187522295Y-144840351D02*
X187560390Y-144764160D01*
X187560390Y-144764160D02*
X187598485Y-144726065D01*
X187598485Y-144726065D02*
X187674676Y-144687970D01*
X187674676Y-144687970D02*
X187750866Y-144687970D01*
X187750866Y-144687970D02*
X187827057Y-144726065D01*
X187827057Y-144726065D02*
X187865152Y-144764160D01*
X187865152Y-144764160D02*
X187903247Y-144840351D01*
X187903247Y-144840351D02*
X187903247Y-145107017D01*
X188322295Y-143887970D02*
X188322295Y-144345113D01*
X188322295Y-144116541D02*
X187522295Y-144116541D01*
X187522295Y-144116541D02*
X187636580Y-144192732D01*
X187636580Y-144192732D02*
X187712771Y-144268922D01*
X187712771Y-144268922D02*
X187750866Y-144345113D01*
X187522295Y-143392731D02*
X187522295Y-143316541D01*
X187522295Y-143316541D02*
X187560390Y-143240350D01*
X187560390Y-143240350D02*
X187598485Y-143202255D01*
X187598485Y-143202255D02*
X187674676Y-143164160D01*
X187674676Y-143164160D02*
X187827057Y-143126065D01*
X187827057Y-143126065D02*
X188017533Y-143126065D01*
X188017533Y-143126065D02*
X188169914Y-143164160D01*
X188169914Y-143164160D02*
X188246104Y-143202255D01*
X188246104Y-143202255D02*
X188284200Y-143240350D01*
X188284200Y-143240350D02*
X188322295Y-143316541D01*
X188322295Y-143316541D02*
X188322295Y-143392731D01*
X188322295Y-143392731D02*
X188284200Y-143468922D01*
X188284200Y-143468922D02*
X188246104Y-143507017D01*
X188246104Y-143507017D02*
X188169914Y-143545112D01*
X188169914Y-143545112D02*
X188017533Y-143583208D01*
X188017533Y-143583208D02*
X187827057Y-143583208D01*
X187827057Y-143583208D02*
X187674676Y-143545112D01*
X187674676Y-143545112D02*
X187598485Y-143507017D01*
X187598485Y-143507017D02*
X187560390Y-143468922D01*
X187560390Y-143468922D02*
X187522295Y-143392731D01*
X202762295Y-144383207D02*
X203409914Y-144383207D01*
X203409914Y-144383207D02*
X203486104Y-144345112D01*
X203486104Y-144345112D02*
X203524200Y-144307017D01*
X203524200Y-144307017D02*
X203562295Y-144230826D01*
X203562295Y-144230826D02*
X203562295Y-144078445D01*
X203562295Y-144078445D02*
X203524200Y-144002255D01*
X203524200Y-144002255D02*
X203486104Y-143964160D01*
X203486104Y-143964160D02*
X203409914Y-143926064D01*
X203409914Y-143926064D02*
X202762295Y-143926064D01*
X202762295Y-143621303D02*
X202762295Y-143126065D01*
X202762295Y-143126065D02*
X203067057Y-143392731D01*
X203067057Y-143392731D02*
X203067057Y-143278446D01*
X203067057Y-143278446D02*
X203105152Y-143202255D01*
X203105152Y-143202255D02*
X203143247Y-143164160D01*
X203143247Y-143164160D02*
X203219438Y-143126065D01*
X203219438Y-143126065D02*
X203409914Y-143126065D01*
X203409914Y-143126065D02*
X203486104Y-143164160D01*
X203486104Y-143164160D02*
X203524200Y-143202255D01*
X203524200Y-143202255D02*
X203562295Y-143278446D01*
X203562295Y-143278446D02*
X203562295Y-143507017D01*
X203562295Y-143507017D02*
X203524200Y-143583208D01*
X203524200Y-143583208D02*
X203486104Y-143621303D01*
X162922295Y-136235839D02*
X162122295Y-136235839D01*
X162122295Y-136235839D02*
X162922295Y-135778696D01*
X162922295Y-135778696D02*
X162122295Y-135778696D01*
X162922295Y-134940601D02*
X162541342Y-135207268D01*
X162922295Y-135397744D02*
X162122295Y-135397744D01*
X162122295Y-135397744D02*
X162122295Y-135092982D01*
X162122295Y-135092982D02*
X162160390Y-135016792D01*
X162160390Y-135016792D02*
X162198485Y-134978697D01*
X162198485Y-134978697D02*
X162274676Y-134940601D01*
X162274676Y-134940601D02*
X162388961Y-134940601D01*
X162388961Y-134940601D02*
X162465152Y-134978697D01*
X162465152Y-134978697D02*
X162503247Y-135016792D01*
X162503247Y-135016792D02*
X162541342Y-135092982D01*
X162541342Y-135092982D02*
X162541342Y-135397744D01*
X162884200Y-134635840D02*
X162922295Y-134521554D01*
X162922295Y-134521554D02*
X162922295Y-134331078D01*
X162922295Y-134331078D02*
X162884200Y-134254887D01*
X162884200Y-134254887D02*
X162846104Y-134216792D01*
X162846104Y-134216792D02*
X162769914Y-134178697D01*
X162769914Y-134178697D02*
X162693723Y-134178697D01*
X162693723Y-134178697D02*
X162617533Y-134216792D01*
X162617533Y-134216792D02*
X162579438Y-134254887D01*
X162579438Y-134254887D02*
X162541342Y-134331078D01*
X162541342Y-134331078D02*
X162503247Y-134483459D01*
X162503247Y-134483459D02*
X162465152Y-134559649D01*
X162465152Y-134559649D02*
X162427057Y-134597744D01*
X162427057Y-134597744D02*
X162350866Y-134635840D01*
X162350866Y-134635840D02*
X162274676Y-134635840D01*
X162274676Y-134635840D02*
X162198485Y-134597744D01*
X162198485Y-134597744D02*
X162160390Y-134559649D01*
X162160390Y-134559649D02*
X162122295Y-134483459D01*
X162122295Y-134483459D02*
X162122295Y-134292982D01*
X162122295Y-134292982D02*
X162160390Y-134178697D01*
X162122295Y-133950125D02*
X162122295Y-133492982D01*
X162922295Y-133721554D02*
X162122295Y-133721554D01*
X193402295Y-107692731D02*
X192602295Y-107692731D01*
X192602295Y-107692731D02*
X192602295Y-107387969D01*
X192602295Y-107387969D02*
X192640390Y-107311779D01*
X192640390Y-107311779D02*
X192678485Y-107273684D01*
X192678485Y-107273684D02*
X192754676Y-107235588D01*
X192754676Y-107235588D02*
X192868961Y-107235588D01*
X192868961Y-107235588D02*
X192945152Y-107273684D01*
X192945152Y-107273684D02*
X192983247Y-107311779D01*
X192983247Y-107311779D02*
X193021342Y-107387969D01*
X193021342Y-107387969D02*
X193021342Y-107692731D01*
X193173723Y-106930827D02*
X193173723Y-106549874D01*
X193402295Y-107007017D02*
X192602295Y-106740350D01*
X192602295Y-106740350D02*
X193402295Y-106473684D01*
X193402295Y-105787970D02*
X193402295Y-106245113D01*
X193402295Y-106016541D02*
X192602295Y-106016541D01*
X192602295Y-106016541D02*
X192716580Y-106092732D01*
X192716580Y-106092732D02*
X192792771Y-106168922D01*
X192792771Y-106168922D02*
X192830866Y-106245113D01*
X192602295Y-105521303D02*
X192602295Y-105026065D01*
X192602295Y-105026065D02*
X192907057Y-105292731D01*
X192907057Y-105292731D02*
X192907057Y-105178446D01*
X192907057Y-105178446D02*
X192945152Y-105102255D01*
X192945152Y-105102255D02*
X192983247Y-105064160D01*
X192983247Y-105064160D02*
X193059438Y-105026065D01*
X193059438Y-105026065D02*
X193249914Y-105026065D01*
X193249914Y-105026065D02*
X193326104Y-105064160D01*
X193326104Y-105064160D02*
X193364200Y-105102255D01*
X193364200Y-105102255D02*
X193402295Y-105178446D01*
X193402295Y-105178446D02*
X193402295Y-105407017D01*
X193402295Y-105407017D02*
X193364200Y-105483208D01*
X193364200Y-105483208D02*
X193326104Y-105521303D01*
X198482295Y-145145112D02*
X197682295Y-145145112D01*
X197682295Y-145145112D02*
X197682295Y-144840350D01*
X197682295Y-144840350D02*
X197720390Y-144764160D01*
X197720390Y-144764160D02*
X197758485Y-144726065D01*
X197758485Y-144726065D02*
X197834676Y-144687969D01*
X197834676Y-144687969D02*
X197948961Y-144687969D01*
X197948961Y-144687969D02*
X198025152Y-144726065D01*
X198025152Y-144726065D02*
X198063247Y-144764160D01*
X198063247Y-144764160D02*
X198101342Y-144840350D01*
X198101342Y-144840350D02*
X198101342Y-145145112D01*
X198406104Y-143887969D02*
X198444200Y-143926065D01*
X198444200Y-143926065D02*
X198482295Y-144040350D01*
X198482295Y-144040350D02*
X198482295Y-144116541D01*
X198482295Y-144116541D02*
X198444200Y-144230827D01*
X198444200Y-144230827D02*
X198368009Y-144307017D01*
X198368009Y-144307017D02*
X198291819Y-144345112D01*
X198291819Y-144345112D02*
X198139438Y-144383208D01*
X198139438Y-144383208D02*
X198025152Y-144383208D01*
X198025152Y-144383208D02*
X197872771Y-144345112D01*
X197872771Y-144345112D02*
X197796580Y-144307017D01*
X197796580Y-144307017D02*
X197720390Y-144230827D01*
X197720390Y-144230827D02*
X197682295Y-144116541D01*
X197682295Y-144116541D02*
X197682295Y-144040350D01*
X197682295Y-144040350D02*
X197720390Y-143926065D01*
X197720390Y-143926065D02*
X197758485Y-143887969D01*
X198025152Y-143430827D02*
X197987057Y-143507017D01*
X197987057Y-143507017D02*
X197948961Y-143545112D01*
X197948961Y-143545112D02*
X197872771Y-143583208D01*
X197872771Y-143583208D02*
X197834676Y-143583208D01*
X197834676Y-143583208D02*
X197758485Y-143545112D01*
X197758485Y-143545112D02*
X197720390Y-143507017D01*
X197720390Y-143507017D02*
X197682295Y-143430827D01*
X197682295Y-143430827D02*
X197682295Y-143278446D01*
X197682295Y-143278446D02*
X197720390Y-143202255D01*
X197720390Y-143202255D02*
X197758485Y-143164160D01*
X197758485Y-143164160D02*
X197834676Y-143126065D01*
X197834676Y-143126065D02*
X197872771Y-143126065D01*
X197872771Y-143126065D02*
X197948961Y-143164160D01*
X197948961Y-143164160D02*
X197987057Y-143202255D01*
X197987057Y-143202255D02*
X198025152Y-143278446D01*
X198025152Y-143278446D02*
X198025152Y-143430827D01*
X198025152Y-143430827D02*
X198063247Y-143507017D01*
X198063247Y-143507017D02*
X198101342Y-143545112D01*
X198101342Y-143545112D02*
X198177533Y-143583208D01*
X198177533Y-143583208D02*
X198329914Y-143583208D01*
X198329914Y-143583208D02*
X198406104Y-143545112D01*
X198406104Y-143545112D02*
X198444200Y-143507017D01*
X198444200Y-143507017D02*
X198482295Y-143430827D01*
X198482295Y-143430827D02*
X198482295Y-143278446D01*
X198482295Y-143278446D02*
X198444200Y-143202255D01*
X198444200Y-143202255D02*
X198406104Y-143164160D01*
X198406104Y-143164160D02*
X198329914Y-143126065D01*
X198329914Y-143126065D02*
X198177533Y-143126065D01*
X198177533Y-143126065D02*
X198101342Y-143164160D01*
X198101342Y-143164160D02*
X198063247Y-143202255D01*
X198063247Y-143202255D02*
X198025152Y-143278446D01*
X193402295Y-145907017D02*
X192602295Y-145907017D01*
X192602295Y-145907017D02*
X192602295Y-145602255D01*
X192602295Y-145602255D02*
X192640390Y-145526065D01*
X192640390Y-145526065D02*
X192678485Y-145487970D01*
X192678485Y-145487970D02*
X192754676Y-145449874D01*
X192754676Y-145449874D02*
X192868961Y-145449874D01*
X192868961Y-145449874D02*
X192945152Y-145487970D01*
X192945152Y-145487970D02*
X192983247Y-145526065D01*
X192983247Y-145526065D02*
X193021342Y-145602255D01*
X193021342Y-145602255D02*
X193021342Y-145907017D01*
X192983247Y-144840351D02*
X193021342Y-144726065D01*
X193021342Y-144726065D02*
X193059438Y-144687970D01*
X193059438Y-144687970D02*
X193135628Y-144649874D01*
X193135628Y-144649874D02*
X193249914Y-144649874D01*
X193249914Y-144649874D02*
X193326104Y-144687970D01*
X193326104Y-144687970D02*
X193364200Y-144726065D01*
X193364200Y-144726065D02*
X193402295Y-144802255D01*
X193402295Y-144802255D02*
X193402295Y-145107017D01*
X193402295Y-145107017D02*
X192602295Y-145107017D01*
X192602295Y-145107017D02*
X192602295Y-144840351D01*
X192602295Y-144840351D02*
X192640390Y-144764160D01*
X192640390Y-144764160D02*
X192678485Y-144726065D01*
X192678485Y-144726065D02*
X192754676Y-144687970D01*
X192754676Y-144687970D02*
X192830866Y-144687970D01*
X192830866Y-144687970D02*
X192907057Y-144726065D01*
X192907057Y-144726065D02*
X192945152Y-144764160D01*
X192945152Y-144764160D02*
X192983247Y-144840351D01*
X192983247Y-144840351D02*
X192983247Y-145107017D01*
X193402295Y-143887970D02*
X193402295Y-144345113D01*
X193402295Y-144116541D02*
X192602295Y-144116541D01*
X192602295Y-144116541D02*
X192716580Y-144192732D01*
X192716580Y-144192732D02*
X192792771Y-144268922D01*
X192792771Y-144268922D02*
X192830866Y-144345113D01*
X192868961Y-143202255D02*
X193402295Y-143202255D01*
X192564200Y-143392731D02*
X193135628Y-143583208D01*
X193135628Y-143583208D02*
X193135628Y-143087969D01*
X207880390Y-106702255D02*
X207842295Y-106778445D01*
X207842295Y-106778445D02*
X207842295Y-106892731D01*
X207842295Y-106892731D02*
X207880390Y-107007017D01*
X207880390Y-107007017D02*
X207956580Y-107083207D01*
X207956580Y-107083207D02*
X208032771Y-107121302D01*
X208032771Y-107121302D02*
X208185152Y-107159398D01*
X208185152Y-107159398D02*
X208299438Y-107159398D01*
X208299438Y-107159398D02*
X208451819Y-107121302D01*
X208451819Y-107121302D02*
X208528009Y-107083207D01*
X208528009Y-107083207D02*
X208604200Y-107007017D01*
X208604200Y-107007017D02*
X208642295Y-106892731D01*
X208642295Y-106892731D02*
X208642295Y-106816540D01*
X208642295Y-106816540D02*
X208604200Y-106702255D01*
X208604200Y-106702255D02*
X208566104Y-106664159D01*
X208566104Y-106664159D02*
X208299438Y-106664159D01*
X208299438Y-106664159D02*
X208299438Y-106816540D01*
X208642295Y-106321302D02*
X207842295Y-106321302D01*
X207842295Y-106321302D02*
X208642295Y-105864159D01*
X208642295Y-105864159D02*
X207842295Y-105864159D01*
X208642295Y-105483207D02*
X207842295Y-105483207D01*
X207842295Y-105483207D02*
X207842295Y-105292731D01*
X207842295Y-105292731D02*
X207880390Y-105178445D01*
X207880390Y-105178445D02*
X207956580Y-105102255D01*
X207956580Y-105102255D02*
X208032771Y-105064160D01*
X208032771Y-105064160D02*
X208185152Y-105026064D01*
X208185152Y-105026064D02*
X208299438Y-105026064D01*
X208299438Y-105026064D02*
X208451819Y-105064160D01*
X208451819Y-105064160D02*
X208528009Y-105102255D01*
X208528009Y-105102255D02*
X208604200Y-105178445D01*
X208604200Y-105178445D02*
X208642295Y-105292731D01*
X208642295Y-105292731D02*
X208642295Y-105483207D01*
X162122295Y-98135839D02*
X162769914Y-98135839D01*
X162769914Y-98135839D02*
X162846104Y-98097744D01*
X162846104Y-98097744D02*
X162884200Y-98059649D01*
X162884200Y-98059649D02*
X162922295Y-97983458D01*
X162922295Y-97983458D02*
X162922295Y-97831077D01*
X162922295Y-97831077D02*
X162884200Y-97754887D01*
X162884200Y-97754887D02*
X162846104Y-97716792D01*
X162846104Y-97716792D02*
X162769914Y-97678696D01*
X162769914Y-97678696D02*
X162122295Y-97678696D01*
X162122295Y-96916792D02*
X162122295Y-97297744D01*
X162122295Y-97297744D02*
X162503247Y-97335840D01*
X162503247Y-97335840D02*
X162465152Y-97297744D01*
X162465152Y-97297744D02*
X162427057Y-97221554D01*
X162427057Y-97221554D02*
X162427057Y-97031078D01*
X162427057Y-97031078D02*
X162465152Y-96954887D01*
X162465152Y-96954887D02*
X162503247Y-96916792D01*
X162503247Y-96916792D02*
X162579438Y-96878697D01*
X162579438Y-96878697D02*
X162769914Y-96878697D01*
X162769914Y-96878697D02*
X162846104Y-96916792D01*
X162846104Y-96916792D02*
X162884200Y-96954887D01*
X162884200Y-96954887D02*
X162922295Y-97031078D01*
X162922295Y-97031078D02*
X162922295Y-97221554D01*
X162922295Y-97221554D02*
X162884200Y-97297744D01*
X162884200Y-97297744D02*
X162846104Y-97335840D01*
X202762295Y-107045112D02*
X203409914Y-107045112D01*
X203409914Y-107045112D02*
X203486104Y-107007017D01*
X203486104Y-107007017D02*
X203524200Y-106968922D01*
X203524200Y-106968922D02*
X203562295Y-106892731D01*
X203562295Y-106892731D02*
X203562295Y-106740350D01*
X203562295Y-106740350D02*
X203524200Y-106664160D01*
X203524200Y-106664160D02*
X203486104Y-106626065D01*
X203486104Y-106626065D02*
X203409914Y-106587969D01*
X203409914Y-106587969D02*
X202762295Y-106587969D01*
X203562295Y-105787970D02*
X203562295Y-106245113D01*
X203562295Y-106016541D02*
X202762295Y-106016541D01*
X202762295Y-106016541D02*
X202876580Y-106092732D01*
X202876580Y-106092732D02*
X202952771Y-106168922D01*
X202952771Y-106168922D02*
X202990866Y-106245113D01*
X202762295Y-105102255D02*
X202762295Y-105254636D01*
X202762295Y-105254636D02*
X202800390Y-105330827D01*
X202800390Y-105330827D02*
X202838485Y-105368922D01*
X202838485Y-105368922D02*
X202952771Y-105445112D01*
X202952771Y-105445112D02*
X203105152Y-105483208D01*
X203105152Y-105483208D02*
X203409914Y-105483208D01*
X203409914Y-105483208D02*
X203486104Y-105445112D01*
X203486104Y-105445112D02*
X203524200Y-105407017D01*
X203524200Y-105407017D02*
X203562295Y-105330827D01*
X203562295Y-105330827D02*
X203562295Y-105178446D01*
X203562295Y-105178446D02*
X203524200Y-105102255D01*
X203524200Y-105102255D02*
X203486104Y-105064160D01*
X203486104Y-105064160D02*
X203409914Y-105026065D01*
X203409914Y-105026065D02*
X203219438Y-105026065D01*
X203219438Y-105026065D02*
X203143247Y-105064160D01*
X203143247Y-105064160D02*
X203105152Y-105102255D01*
X203105152Y-105102255D02*
X203067057Y-105178446D01*
X203067057Y-105178446D02*
X203067057Y-105330827D01*
X203067057Y-105330827D02*
X203105152Y-105407017D01*
X203105152Y-105407017D02*
X203143247Y-105445112D01*
X203143247Y-105445112D02*
X203219438Y-105483208D01*
X165462295Y-136235839D02*
X164662295Y-136235839D01*
X164662295Y-136235839D02*
X164662295Y-135931077D01*
X164662295Y-135931077D02*
X164700390Y-135854887D01*
X164700390Y-135854887D02*
X164738485Y-135816792D01*
X164738485Y-135816792D02*
X164814676Y-135778696D01*
X164814676Y-135778696D02*
X164928961Y-135778696D01*
X164928961Y-135778696D02*
X165005152Y-135816792D01*
X165005152Y-135816792D02*
X165043247Y-135854887D01*
X165043247Y-135854887D02*
X165081342Y-135931077D01*
X165081342Y-135931077D02*
X165081342Y-136235839D01*
X165386104Y-134978696D02*
X165424200Y-135016792D01*
X165424200Y-135016792D02*
X165462295Y-135131077D01*
X165462295Y-135131077D02*
X165462295Y-135207268D01*
X165462295Y-135207268D02*
X165424200Y-135321554D01*
X165424200Y-135321554D02*
X165348009Y-135397744D01*
X165348009Y-135397744D02*
X165271819Y-135435839D01*
X165271819Y-135435839D02*
X165119438Y-135473935D01*
X165119438Y-135473935D02*
X165005152Y-135473935D01*
X165005152Y-135473935D02*
X164852771Y-135435839D01*
X164852771Y-135435839D02*
X164776580Y-135397744D01*
X164776580Y-135397744D02*
X164700390Y-135321554D01*
X164700390Y-135321554D02*
X164662295Y-135207268D01*
X164662295Y-135207268D02*
X164662295Y-135131077D01*
X164662295Y-135131077D02*
X164700390Y-135016792D01*
X164700390Y-135016792D02*
X164738485Y-134978696D01*
X165462295Y-134216792D02*
X165462295Y-134673935D01*
X165462295Y-134445363D02*
X164662295Y-134445363D01*
X164662295Y-134445363D02*
X164776580Y-134521554D01*
X164776580Y-134521554D02*
X164852771Y-134597744D01*
X164852771Y-134597744D02*
X164890866Y-134673935D01*
X173082295Y-136235839D02*
X172282295Y-136235839D01*
X172282295Y-136235839D02*
X172282295Y-135931077D01*
X172282295Y-135931077D02*
X172320390Y-135854887D01*
X172320390Y-135854887D02*
X172358485Y-135816792D01*
X172358485Y-135816792D02*
X172434676Y-135778696D01*
X172434676Y-135778696D02*
X172548961Y-135778696D01*
X172548961Y-135778696D02*
X172625152Y-135816792D01*
X172625152Y-135816792D02*
X172663247Y-135854887D01*
X172663247Y-135854887D02*
X172701342Y-135931077D01*
X172701342Y-135931077D02*
X172701342Y-136235839D01*
X172853723Y-135473935D02*
X172853723Y-135092982D01*
X173082295Y-135550125D02*
X172282295Y-135283458D01*
X172282295Y-135283458D02*
X173082295Y-135016792D01*
X172282295Y-134826316D02*
X172282295Y-134331078D01*
X172282295Y-134331078D02*
X172587057Y-134597744D01*
X172587057Y-134597744D02*
X172587057Y-134483459D01*
X172587057Y-134483459D02*
X172625152Y-134407268D01*
X172625152Y-134407268D02*
X172663247Y-134369173D01*
X172663247Y-134369173D02*
X172739438Y-134331078D01*
X172739438Y-134331078D02*
X172929914Y-134331078D01*
X172929914Y-134331078D02*
X173006104Y-134369173D01*
X173006104Y-134369173D02*
X173044200Y-134407268D01*
X173044200Y-134407268D02*
X173082295Y-134483459D01*
X173082295Y-134483459D02*
X173082295Y-134712030D01*
X173082295Y-134712030D02*
X173044200Y-134788221D01*
X173044200Y-134788221D02*
X173006104Y-134826316D01*
X195942295Y-145145112D02*
X195142295Y-145145112D01*
X195142295Y-145145112D02*
X195142295Y-144840350D01*
X195142295Y-144840350D02*
X195180390Y-144764160D01*
X195180390Y-144764160D02*
X195218485Y-144726065D01*
X195218485Y-144726065D02*
X195294676Y-144687969D01*
X195294676Y-144687969D02*
X195408961Y-144687969D01*
X195408961Y-144687969D02*
X195485152Y-144726065D01*
X195485152Y-144726065D02*
X195523247Y-144764160D01*
X195523247Y-144764160D02*
X195561342Y-144840350D01*
X195561342Y-144840350D02*
X195561342Y-145145112D01*
X195866104Y-143887969D02*
X195904200Y-143926065D01*
X195904200Y-143926065D02*
X195942295Y-144040350D01*
X195942295Y-144040350D02*
X195942295Y-144116541D01*
X195942295Y-144116541D02*
X195904200Y-144230827D01*
X195904200Y-144230827D02*
X195828009Y-144307017D01*
X195828009Y-144307017D02*
X195751819Y-144345112D01*
X195751819Y-144345112D02*
X195599438Y-144383208D01*
X195599438Y-144383208D02*
X195485152Y-144383208D01*
X195485152Y-144383208D02*
X195332771Y-144345112D01*
X195332771Y-144345112D02*
X195256580Y-144307017D01*
X195256580Y-144307017D02*
X195180390Y-144230827D01*
X195180390Y-144230827D02*
X195142295Y-144116541D01*
X195142295Y-144116541D02*
X195142295Y-144040350D01*
X195142295Y-144040350D02*
X195180390Y-143926065D01*
X195180390Y-143926065D02*
X195218485Y-143887969D01*
X195142295Y-143202255D02*
X195142295Y-143354636D01*
X195142295Y-143354636D02*
X195180390Y-143430827D01*
X195180390Y-143430827D02*
X195218485Y-143468922D01*
X195218485Y-143468922D02*
X195332771Y-143545112D01*
X195332771Y-143545112D02*
X195485152Y-143583208D01*
X195485152Y-143583208D02*
X195789914Y-143583208D01*
X195789914Y-143583208D02*
X195866104Y-143545112D01*
X195866104Y-143545112D02*
X195904200Y-143507017D01*
X195904200Y-143507017D02*
X195942295Y-143430827D01*
X195942295Y-143430827D02*
X195942295Y-143278446D01*
X195942295Y-143278446D02*
X195904200Y-143202255D01*
X195904200Y-143202255D02*
X195866104Y-143164160D01*
X195866104Y-143164160D02*
X195789914Y-143126065D01*
X195789914Y-143126065D02*
X195599438Y-143126065D01*
X195599438Y-143126065D02*
X195523247Y-143164160D01*
X195523247Y-143164160D02*
X195485152Y-143202255D01*
X195485152Y-143202255D02*
X195447057Y-143278446D01*
X195447057Y-143278446D02*
X195447057Y-143430827D01*
X195447057Y-143430827D02*
X195485152Y-143507017D01*
X195485152Y-143507017D02*
X195523247Y-143545112D01*
X195523247Y-143545112D02*
X195599438Y-143583208D01*
X185782295Y-98135839D02*
X184982295Y-98135839D01*
X184982295Y-98135839D02*
X184982295Y-97831077D01*
X184982295Y-97831077D02*
X185020390Y-97754887D01*
X185020390Y-97754887D02*
X185058485Y-97716792D01*
X185058485Y-97716792D02*
X185134676Y-97678696D01*
X185134676Y-97678696D02*
X185248961Y-97678696D01*
X185248961Y-97678696D02*
X185325152Y-97716792D01*
X185325152Y-97716792D02*
X185363247Y-97754887D01*
X185363247Y-97754887D02*
X185401342Y-97831077D01*
X185401342Y-97831077D02*
X185401342Y-98135839D01*
X185706104Y-96878696D02*
X185744200Y-96916792D01*
X185744200Y-96916792D02*
X185782295Y-97031077D01*
X185782295Y-97031077D02*
X185782295Y-97107268D01*
X185782295Y-97107268D02*
X185744200Y-97221554D01*
X185744200Y-97221554D02*
X185668009Y-97297744D01*
X185668009Y-97297744D02*
X185591819Y-97335839D01*
X185591819Y-97335839D02*
X185439438Y-97373935D01*
X185439438Y-97373935D02*
X185325152Y-97373935D01*
X185325152Y-97373935D02*
X185172771Y-97335839D01*
X185172771Y-97335839D02*
X185096580Y-97297744D01*
X185096580Y-97297744D02*
X185020390Y-97221554D01*
X185020390Y-97221554D02*
X184982295Y-97107268D01*
X184982295Y-97107268D02*
X184982295Y-97031077D01*
X184982295Y-97031077D02*
X185020390Y-96916792D01*
X185020390Y-96916792D02*
X185058485Y-96878696D01*
X185782295Y-96116792D02*
X185782295Y-96573935D01*
X185782295Y-96345363D02*
X184982295Y-96345363D01*
X184982295Y-96345363D02*
X185096580Y-96421554D01*
X185096580Y-96421554D02*
X185172771Y-96497744D01*
X185172771Y-96497744D02*
X185210866Y-96573935D01*
X184982295Y-95621553D02*
X184982295Y-95545363D01*
X184982295Y-95545363D02*
X185020390Y-95469172D01*
X185020390Y-95469172D02*
X185058485Y-95431077D01*
X185058485Y-95431077D02*
X185134676Y-95392982D01*
X185134676Y-95392982D02*
X185287057Y-95354887D01*
X185287057Y-95354887D02*
X185477533Y-95354887D01*
X185477533Y-95354887D02*
X185629914Y-95392982D01*
X185629914Y-95392982D02*
X185706104Y-95431077D01*
X185706104Y-95431077D02*
X185744200Y-95469172D01*
X185744200Y-95469172D02*
X185782295Y-95545363D01*
X185782295Y-95545363D02*
X185782295Y-95621553D01*
X185782295Y-95621553D02*
X185744200Y-95697744D01*
X185744200Y-95697744D02*
X185706104Y-95735839D01*
X185706104Y-95735839D02*
X185629914Y-95773934D01*
X185629914Y-95773934D02*
X185477533Y-95812030D01*
X185477533Y-95812030D02*
X185287057Y-95812030D01*
X185287057Y-95812030D02*
X185134676Y-95773934D01*
X185134676Y-95773934D02*
X185058485Y-95735839D01*
X185058485Y-95735839D02*
X185020390Y-95697744D01*
X185020390Y-95697744D02*
X184982295Y-95621553D01*
X182442295Y-106283207D02*
X183089914Y-106283207D01*
X183089914Y-106283207D02*
X183166104Y-106245112D01*
X183166104Y-106245112D02*
X183204200Y-106207017D01*
X183204200Y-106207017D02*
X183242295Y-106130826D01*
X183242295Y-106130826D02*
X183242295Y-105978445D01*
X183242295Y-105978445D02*
X183204200Y-105902255D01*
X183204200Y-105902255D02*
X183166104Y-105864160D01*
X183166104Y-105864160D02*
X183089914Y-105826064D01*
X183089914Y-105826064D02*
X182442295Y-105826064D01*
X182785152Y-105330827D02*
X182747057Y-105407017D01*
X182747057Y-105407017D02*
X182708961Y-105445112D01*
X182708961Y-105445112D02*
X182632771Y-105483208D01*
X182632771Y-105483208D02*
X182594676Y-105483208D01*
X182594676Y-105483208D02*
X182518485Y-105445112D01*
X182518485Y-105445112D02*
X182480390Y-105407017D01*
X182480390Y-105407017D02*
X182442295Y-105330827D01*
X182442295Y-105330827D02*
X182442295Y-105178446D01*
X182442295Y-105178446D02*
X182480390Y-105102255D01*
X182480390Y-105102255D02*
X182518485Y-105064160D01*
X182518485Y-105064160D02*
X182594676Y-105026065D01*
X182594676Y-105026065D02*
X182632771Y-105026065D01*
X182632771Y-105026065D02*
X182708961Y-105064160D01*
X182708961Y-105064160D02*
X182747057Y-105102255D01*
X182747057Y-105102255D02*
X182785152Y-105178446D01*
X182785152Y-105178446D02*
X182785152Y-105330827D01*
X182785152Y-105330827D02*
X182823247Y-105407017D01*
X182823247Y-105407017D02*
X182861342Y-105445112D01*
X182861342Y-105445112D02*
X182937533Y-105483208D01*
X182937533Y-105483208D02*
X183089914Y-105483208D01*
X183089914Y-105483208D02*
X183166104Y-105445112D01*
X183166104Y-105445112D02*
X183204200Y-105407017D01*
X183204200Y-105407017D02*
X183242295Y-105330827D01*
X183242295Y-105330827D02*
X183242295Y-105178446D01*
X183242295Y-105178446D02*
X183204200Y-105102255D01*
X183204200Y-105102255D02*
X183166104Y-105064160D01*
X183166104Y-105064160D02*
X183089914Y-105026065D01*
X183089914Y-105026065D02*
X182937533Y-105026065D01*
X182937533Y-105026065D02*
X182861342Y-105064160D01*
X182861342Y-105064160D02*
X182823247Y-105102255D01*
X182823247Y-105102255D02*
X182785152Y-105178446D01*
X159620390Y-106702255D02*
X159582295Y-106778445D01*
X159582295Y-106778445D02*
X159582295Y-106892731D01*
X159582295Y-106892731D02*
X159620390Y-107007017D01*
X159620390Y-107007017D02*
X159696580Y-107083207D01*
X159696580Y-107083207D02*
X159772771Y-107121302D01*
X159772771Y-107121302D02*
X159925152Y-107159398D01*
X159925152Y-107159398D02*
X160039438Y-107159398D01*
X160039438Y-107159398D02*
X160191819Y-107121302D01*
X160191819Y-107121302D02*
X160268009Y-107083207D01*
X160268009Y-107083207D02*
X160344200Y-107007017D01*
X160344200Y-107007017D02*
X160382295Y-106892731D01*
X160382295Y-106892731D02*
X160382295Y-106816540D01*
X160382295Y-106816540D02*
X160344200Y-106702255D01*
X160344200Y-106702255D02*
X160306104Y-106664159D01*
X160306104Y-106664159D02*
X160039438Y-106664159D01*
X160039438Y-106664159D02*
X160039438Y-106816540D01*
X160382295Y-106321302D02*
X159582295Y-106321302D01*
X159582295Y-106321302D02*
X160382295Y-105864159D01*
X160382295Y-105864159D02*
X159582295Y-105864159D01*
X160382295Y-105483207D02*
X159582295Y-105483207D01*
X159582295Y-105483207D02*
X159582295Y-105292731D01*
X159582295Y-105292731D02*
X159620390Y-105178445D01*
X159620390Y-105178445D02*
X159696580Y-105102255D01*
X159696580Y-105102255D02*
X159772771Y-105064160D01*
X159772771Y-105064160D02*
X159925152Y-105026064D01*
X159925152Y-105026064D02*
X160039438Y-105026064D01*
X160039438Y-105026064D02*
X160191819Y-105064160D01*
X160191819Y-105064160D02*
X160268009Y-105102255D01*
X160268009Y-105102255D02*
X160344200Y-105178445D01*
X160344200Y-105178445D02*
X160382295Y-105292731D01*
X160382295Y-105292731D02*
X160382295Y-105483207D01*
X190862295Y-98135839D02*
X190062295Y-98135839D01*
X190062295Y-98135839D02*
X190062295Y-97831077D01*
X190062295Y-97831077D02*
X190100390Y-97754887D01*
X190100390Y-97754887D02*
X190138485Y-97716792D01*
X190138485Y-97716792D02*
X190214676Y-97678696D01*
X190214676Y-97678696D02*
X190328961Y-97678696D01*
X190328961Y-97678696D02*
X190405152Y-97716792D01*
X190405152Y-97716792D02*
X190443247Y-97754887D01*
X190443247Y-97754887D02*
X190481342Y-97831077D01*
X190481342Y-97831077D02*
X190481342Y-98135839D01*
X190633723Y-97373935D02*
X190633723Y-96992982D01*
X190862295Y-97450125D02*
X190062295Y-97183458D01*
X190062295Y-97183458D02*
X190862295Y-96916792D01*
X190862295Y-96231078D02*
X190862295Y-96688221D01*
X190862295Y-96459649D02*
X190062295Y-96459649D01*
X190062295Y-96459649D02*
X190176580Y-96535840D01*
X190176580Y-96535840D02*
X190252771Y-96612030D01*
X190252771Y-96612030D02*
X190290866Y-96688221D01*
X190328961Y-95545363D02*
X190862295Y-95545363D01*
X190024200Y-95735839D02*
X190595628Y-95926316D01*
X190595628Y-95926316D02*
X190595628Y-95431077D01*
X173082295Y-107045112D02*
X172282295Y-107045112D01*
X172282295Y-107045112D02*
X172282295Y-106740350D01*
X172282295Y-106740350D02*
X172320390Y-106664160D01*
X172320390Y-106664160D02*
X172358485Y-106626065D01*
X172358485Y-106626065D02*
X172434676Y-106587969D01*
X172434676Y-106587969D02*
X172548961Y-106587969D01*
X172548961Y-106587969D02*
X172625152Y-106626065D01*
X172625152Y-106626065D02*
X172663247Y-106664160D01*
X172663247Y-106664160D02*
X172701342Y-106740350D01*
X172701342Y-106740350D02*
X172701342Y-107045112D01*
X172663247Y-105978446D02*
X172701342Y-105864160D01*
X172701342Y-105864160D02*
X172739438Y-105826065D01*
X172739438Y-105826065D02*
X172815628Y-105787969D01*
X172815628Y-105787969D02*
X172929914Y-105787969D01*
X172929914Y-105787969D02*
X173006104Y-105826065D01*
X173006104Y-105826065D02*
X173044200Y-105864160D01*
X173044200Y-105864160D02*
X173082295Y-105940350D01*
X173082295Y-105940350D02*
X173082295Y-106245112D01*
X173082295Y-106245112D02*
X172282295Y-106245112D01*
X172282295Y-106245112D02*
X172282295Y-105978446D01*
X172282295Y-105978446D02*
X172320390Y-105902255D01*
X172320390Y-105902255D02*
X172358485Y-105864160D01*
X172358485Y-105864160D02*
X172434676Y-105826065D01*
X172434676Y-105826065D02*
X172510866Y-105826065D01*
X172510866Y-105826065D02*
X172587057Y-105864160D01*
X172587057Y-105864160D02*
X172625152Y-105902255D01*
X172625152Y-105902255D02*
X172663247Y-105978446D01*
X172663247Y-105978446D02*
X172663247Y-106245112D01*
X173082295Y-105407017D02*
X173082295Y-105254636D01*
X173082295Y-105254636D02*
X173044200Y-105178446D01*
X173044200Y-105178446D02*
X173006104Y-105140350D01*
X173006104Y-105140350D02*
X172891819Y-105064160D01*
X172891819Y-105064160D02*
X172739438Y-105026065D01*
X172739438Y-105026065D02*
X172434676Y-105026065D01*
X172434676Y-105026065D02*
X172358485Y-105064160D01*
X172358485Y-105064160D02*
X172320390Y-105102255D01*
X172320390Y-105102255D02*
X172282295Y-105178446D01*
X172282295Y-105178446D02*
X172282295Y-105330827D01*
X172282295Y-105330827D02*
X172320390Y-105407017D01*
X172320390Y-105407017D02*
X172358485Y-105445112D01*
X172358485Y-105445112D02*
X172434676Y-105483208D01*
X172434676Y-105483208D02*
X172625152Y-105483208D01*
X172625152Y-105483208D02*
X172701342Y-105445112D01*
X172701342Y-105445112D02*
X172739438Y-105407017D01*
X172739438Y-105407017D02*
X172777533Y-105330827D01*
X172777533Y-105330827D02*
X172777533Y-105178446D01*
X172777533Y-105178446D02*
X172739438Y-105102255D01*
X172739438Y-105102255D02*
X172701342Y-105064160D01*
X172701342Y-105064160D02*
X172625152Y-105026065D01*
X173082295Y-145030826D02*
X172282295Y-145030826D01*
X172282295Y-145030826D02*
X172282295Y-144726064D01*
X172282295Y-144726064D02*
X172320390Y-144649874D01*
X172320390Y-144649874D02*
X172358485Y-144611779D01*
X172358485Y-144611779D02*
X172434676Y-144573683D01*
X172434676Y-144573683D02*
X172548961Y-144573683D01*
X172548961Y-144573683D02*
X172625152Y-144611779D01*
X172625152Y-144611779D02*
X172663247Y-144649874D01*
X172663247Y-144649874D02*
X172701342Y-144726064D01*
X172701342Y-144726064D02*
X172701342Y-145030826D01*
X172853723Y-144268922D02*
X172853723Y-143887969D01*
X173082295Y-144345112D02*
X172282295Y-144078445D01*
X172282295Y-144078445D02*
X173082295Y-143811779D01*
X172358485Y-143583208D02*
X172320390Y-143545112D01*
X172320390Y-143545112D02*
X172282295Y-143468922D01*
X172282295Y-143468922D02*
X172282295Y-143278446D01*
X172282295Y-143278446D02*
X172320390Y-143202255D01*
X172320390Y-143202255D02*
X172358485Y-143164160D01*
X172358485Y-143164160D02*
X172434676Y-143126065D01*
X172434676Y-143126065D02*
X172510866Y-143126065D01*
X172510866Y-143126065D02*
X172625152Y-143164160D01*
X172625152Y-143164160D02*
X173082295Y-143621303D01*
X173082295Y-143621303D02*
X173082295Y-143126065D01*
X164662295Y-98135839D02*
X165309914Y-98135839D01*
X165309914Y-98135839D02*
X165386104Y-98097744D01*
X165386104Y-98097744D02*
X165424200Y-98059649D01*
X165424200Y-98059649D02*
X165462295Y-97983458D01*
X165462295Y-97983458D02*
X165462295Y-97831077D01*
X165462295Y-97831077D02*
X165424200Y-97754887D01*
X165424200Y-97754887D02*
X165386104Y-97716792D01*
X165386104Y-97716792D02*
X165309914Y-97678696D01*
X165309914Y-97678696D02*
X164662295Y-97678696D01*
X164662295Y-97373935D02*
X164662295Y-96840601D01*
X164662295Y-96840601D02*
X165462295Y-97183459D01*
X205302295Y-145449874D02*
X205302295Y-144954636D01*
X205302295Y-144954636D02*
X205607057Y-145221302D01*
X205607057Y-145221302D02*
X205607057Y-145107017D01*
X205607057Y-145107017D02*
X205645152Y-145030826D01*
X205645152Y-145030826D02*
X205683247Y-144992731D01*
X205683247Y-144992731D02*
X205759438Y-144954636D01*
X205759438Y-144954636D02*
X205949914Y-144954636D01*
X205949914Y-144954636D02*
X206026104Y-144992731D01*
X206026104Y-144992731D02*
X206064200Y-145030826D01*
X206064200Y-145030826D02*
X206102295Y-145107017D01*
X206102295Y-145107017D02*
X206102295Y-145335588D01*
X206102295Y-145335588D02*
X206064200Y-145411779D01*
X206064200Y-145411779D02*
X206026104Y-145449874D01*
X206026104Y-144611778D02*
X206064200Y-144573683D01*
X206064200Y-144573683D02*
X206102295Y-144611778D01*
X206102295Y-144611778D02*
X206064200Y-144649874D01*
X206064200Y-144649874D02*
X206026104Y-144611778D01*
X206026104Y-144611778D02*
X206102295Y-144611778D01*
X205302295Y-144307017D02*
X205302295Y-143811779D01*
X205302295Y-143811779D02*
X205607057Y-144078445D01*
X205607057Y-144078445D02*
X205607057Y-143964160D01*
X205607057Y-143964160D02*
X205645152Y-143887969D01*
X205645152Y-143887969D02*
X205683247Y-143849874D01*
X205683247Y-143849874D02*
X205759438Y-143811779D01*
X205759438Y-143811779D02*
X205949914Y-143811779D01*
X205949914Y-143811779D02*
X206026104Y-143849874D01*
X206026104Y-143849874D02*
X206064200Y-143887969D01*
X206064200Y-143887969D02*
X206102295Y-143964160D01*
X206102295Y-143964160D02*
X206102295Y-144192731D01*
X206102295Y-144192731D02*
X206064200Y-144268922D01*
X206064200Y-144268922D02*
X206026104Y-144307017D01*
X205302295Y-143583207D02*
X206102295Y-143316540D01*
X206102295Y-143316540D02*
X205302295Y-143049874D01*
X159582295Y-144268921D02*
X160382295Y-144002254D01*
X160382295Y-144002254D02*
X159582295Y-143735588D01*
X160153723Y-143507017D02*
X160153723Y-143126064D01*
X160382295Y-143583207D02*
X159582295Y-143316540D01*
X159582295Y-143316540D02*
X160382295Y-143049874D01*
X162503247Y-144916541D02*
X162541342Y-144802255D01*
X162541342Y-144802255D02*
X162579438Y-144764160D01*
X162579438Y-144764160D02*
X162655628Y-144726064D01*
X162655628Y-144726064D02*
X162769914Y-144726064D01*
X162769914Y-144726064D02*
X162846104Y-144764160D01*
X162846104Y-144764160D02*
X162884200Y-144802255D01*
X162884200Y-144802255D02*
X162922295Y-144878445D01*
X162922295Y-144878445D02*
X162922295Y-145183207D01*
X162922295Y-145183207D02*
X162122295Y-145183207D01*
X162122295Y-145183207D02*
X162122295Y-144916541D01*
X162122295Y-144916541D02*
X162160390Y-144840350D01*
X162160390Y-144840350D02*
X162198485Y-144802255D01*
X162198485Y-144802255D02*
X162274676Y-144764160D01*
X162274676Y-144764160D02*
X162350866Y-144764160D01*
X162350866Y-144764160D02*
X162427057Y-144802255D01*
X162427057Y-144802255D02*
X162465152Y-144840350D01*
X162465152Y-144840350D02*
X162503247Y-144916541D01*
X162503247Y-144916541D02*
X162503247Y-145183207D01*
X162122295Y-144230826D02*
X162122295Y-144078445D01*
X162122295Y-144078445D02*
X162160390Y-144002255D01*
X162160390Y-144002255D02*
X162236580Y-143926064D01*
X162236580Y-143926064D02*
X162388961Y-143887969D01*
X162388961Y-143887969D02*
X162655628Y-143887969D01*
X162655628Y-143887969D02*
X162808009Y-143926064D01*
X162808009Y-143926064D02*
X162884200Y-144002255D01*
X162884200Y-144002255D02*
X162922295Y-144078445D01*
X162922295Y-144078445D02*
X162922295Y-144230826D01*
X162922295Y-144230826D02*
X162884200Y-144307017D01*
X162884200Y-144307017D02*
X162808009Y-144383207D01*
X162808009Y-144383207D02*
X162655628Y-144421303D01*
X162655628Y-144421303D02*
X162388961Y-144421303D01*
X162388961Y-144421303D02*
X162236580Y-144383207D01*
X162236580Y-144383207D02*
X162160390Y-144307017D01*
X162160390Y-144307017D02*
X162122295Y-144230826D01*
X162122295Y-143392731D02*
X162122295Y-143316541D01*
X162122295Y-143316541D02*
X162160390Y-143240350D01*
X162160390Y-143240350D02*
X162198485Y-143202255D01*
X162198485Y-143202255D02*
X162274676Y-143164160D01*
X162274676Y-143164160D02*
X162427057Y-143126065D01*
X162427057Y-143126065D02*
X162617533Y-143126065D01*
X162617533Y-143126065D02*
X162769914Y-143164160D01*
X162769914Y-143164160D02*
X162846104Y-143202255D01*
X162846104Y-143202255D02*
X162884200Y-143240350D01*
X162884200Y-143240350D02*
X162922295Y-143316541D01*
X162922295Y-143316541D02*
X162922295Y-143392731D01*
X162922295Y-143392731D02*
X162884200Y-143468922D01*
X162884200Y-143468922D02*
X162846104Y-143507017D01*
X162846104Y-143507017D02*
X162769914Y-143545112D01*
X162769914Y-143545112D02*
X162617533Y-143583208D01*
X162617533Y-143583208D02*
X162427057Y-143583208D01*
X162427057Y-143583208D02*
X162274676Y-143545112D01*
X162274676Y-143545112D02*
X162198485Y-143507017D01*
X162198485Y-143507017D02*
X162160390Y-143468922D01*
X162160390Y-143468922D02*
X162122295Y-143392731D01*
X169742295Y-98135839D02*
X170389914Y-98135839D01*
X170389914Y-98135839D02*
X170466104Y-98097744D01*
X170466104Y-98097744D02*
X170504200Y-98059649D01*
X170504200Y-98059649D02*
X170542295Y-97983458D01*
X170542295Y-97983458D02*
X170542295Y-97831077D01*
X170542295Y-97831077D02*
X170504200Y-97754887D01*
X170504200Y-97754887D02*
X170466104Y-97716792D01*
X170466104Y-97716792D02*
X170389914Y-97678696D01*
X170389914Y-97678696D02*
X169742295Y-97678696D01*
X170542295Y-97259649D02*
X170542295Y-97107268D01*
X170542295Y-97107268D02*
X170504200Y-97031078D01*
X170504200Y-97031078D02*
X170466104Y-96992982D01*
X170466104Y-96992982D02*
X170351819Y-96916792D01*
X170351819Y-96916792D02*
X170199438Y-96878697D01*
X170199438Y-96878697D02*
X169894676Y-96878697D01*
X169894676Y-96878697D02*
X169818485Y-96916792D01*
X169818485Y-96916792D02*
X169780390Y-96954887D01*
X169780390Y-96954887D02*
X169742295Y-97031078D01*
X169742295Y-97031078D02*
X169742295Y-97183459D01*
X169742295Y-97183459D02*
X169780390Y-97259649D01*
X169780390Y-97259649D02*
X169818485Y-97297744D01*
X169818485Y-97297744D02*
X169894676Y-97335840D01*
X169894676Y-97335840D02*
X170085152Y-97335840D01*
X170085152Y-97335840D02*
X170161342Y-97297744D01*
X170161342Y-97297744D02*
X170199438Y-97259649D01*
X170199438Y-97259649D02*
X170237533Y-97183459D01*
X170237533Y-97183459D02*
X170237533Y-97031078D01*
X170237533Y-97031078D02*
X170199438Y-96954887D01*
X170199438Y-96954887D02*
X170161342Y-96916792D01*
X170161342Y-96916792D02*
X170085152Y-96878697D01*
X159582295Y-98250125D02*
X160382295Y-97983458D01*
X160382295Y-97983458D02*
X159582295Y-97716792D01*
X159963247Y-97183459D02*
X160001342Y-97069173D01*
X160001342Y-97069173D02*
X160039438Y-97031078D01*
X160039438Y-97031078D02*
X160115628Y-96992982D01*
X160115628Y-96992982D02*
X160229914Y-96992982D01*
X160229914Y-96992982D02*
X160306104Y-97031078D01*
X160306104Y-97031078D02*
X160344200Y-97069173D01*
X160344200Y-97069173D02*
X160382295Y-97145363D01*
X160382295Y-97145363D02*
X160382295Y-97450125D01*
X160382295Y-97450125D02*
X159582295Y-97450125D01*
X159582295Y-97450125D02*
X159582295Y-97183459D01*
X159582295Y-97183459D02*
X159620390Y-97107268D01*
X159620390Y-97107268D02*
X159658485Y-97069173D01*
X159658485Y-97069173D02*
X159734676Y-97031078D01*
X159734676Y-97031078D02*
X159810866Y-97031078D01*
X159810866Y-97031078D02*
X159887057Y-97069173D01*
X159887057Y-97069173D02*
X159925152Y-97107268D01*
X159925152Y-97107268D02*
X159963247Y-97183459D01*
X159963247Y-97183459D02*
X159963247Y-97450125D01*
X173082295Y-98135839D02*
X172282295Y-98135839D01*
X172282295Y-98135839D02*
X172282295Y-97831077D01*
X172282295Y-97831077D02*
X172320390Y-97754887D01*
X172320390Y-97754887D02*
X172358485Y-97716792D01*
X172358485Y-97716792D02*
X172434676Y-97678696D01*
X172434676Y-97678696D02*
X172548961Y-97678696D01*
X172548961Y-97678696D02*
X172625152Y-97716792D01*
X172625152Y-97716792D02*
X172663247Y-97754887D01*
X172663247Y-97754887D02*
X172701342Y-97831077D01*
X172701342Y-97831077D02*
X172701342Y-98135839D01*
X172663247Y-97069173D02*
X172701342Y-96954887D01*
X172701342Y-96954887D02*
X172739438Y-96916792D01*
X172739438Y-96916792D02*
X172815628Y-96878696D01*
X172815628Y-96878696D02*
X172929914Y-96878696D01*
X172929914Y-96878696D02*
X173006104Y-96916792D01*
X173006104Y-96916792D02*
X173044200Y-96954887D01*
X173044200Y-96954887D02*
X173082295Y-97031077D01*
X173082295Y-97031077D02*
X173082295Y-97335839D01*
X173082295Y-97335839D02*
X172282295Y-97335839D01*
X172282295Y-97335839D02*
X172282295Y-97069173D01*
X172282295Y-97069173D02*
X172320390Y-96992982D01*
X172320390Y-96992982D02*
X172358485Y-96954887D01*
X172358485Y-96954887D02*
X172434676Y-96916792D01*
X172434676Y-96916792D02*
X172510866Y-96916792D01*
X172510866Y-96916792D02*
X172587057Y-96954887D01*
X172587057Y-96954887D02*
X172625152Y-96992982D01*
X172625152Y-96992982D02*
X172663247Y-97069173D01*
X172663247Y-97069173D02*
X172663247Y-97335839D01*
X172625152Y-96421554D02*
X172587057Y-96497744D01*
X172587057Y-96497744D02*
X172548961Y-96535839D01*
X172548961Y-96535839D02*
X172472771Y-96573935D01*
X172472771Y-96573935D02*
X172434676Y-96573935D01*
X172434676Y-96573935D02*
X172358485Y-96535839D01*
X172358485Y-96535839D02*
X172320390Y-96497744D01*
X172320390Y-96497744D02*
X172282295Y-96421554D01*
X172282295Y-96421554D02*
X172282295Y-96269173D01*
X172282295Y-96269173D02*
X172320390Y-96192982D01*
X172320390Y-96192982D02*
X172358485Y-96154887D01*
X172358485Y-96154887D02*
X172434676Y-96116792D01*
X172434676Y-96116792D02*
X172472771Y-96116792D01*
X172472771Y-96116792D02*
X172548961Y-96154887D01*
X172548961Y-96154887D02*
X172587057Y-96192982D01*
X172587057Y-96192982D02*
X172625152Y-96269173D01*
X172625152Y-96269173D02*
X172625152Y-96421554D01*
X172625152Y-96421554D02*
X172663247Y-96497744D01*
X172663247Y-96497744D02*
X172701342Y-96535839D01*
X172701342Y-96535839D02*
X172777533Y-96573935D01*
X172777533Y-96573935D02*
X172929914Y-96573935D01*
X172929914Y-96573935D02*
X173006104Y-96535839D01*
X173006104Y-96535839D02*
X173044200Y-96497744D01*
X173044200Y-96497744D02*
X173082295Y-96421554D01*
X173082295Y-96421554D02*
X173082295Y-96269173D01*
X173082295Y-96269173D02*
X173044200Y-96192982D01*
X173044200Y-96192982D02*
X173006104Y-96154887D01*
X173006104Y-96154887D02*
X172929914Y-96116792D01*
X172929914Y-96116792D02*
X172777533Y-96116792D01*
X172777533Y-96116792D02*
X172701342Y-96154887D01*
X172701342Y-96154887D02*
X172663247Y-96192982D01*
X172663247Y-96192982D02*
X172625152Y-96269173D01*
X164266666Y-126454819D02*
X164266666Y-127169104D01*
X164266666Y-127169104D02*
X164219047Y-127311961D01*
X164219047Y-127311961D02*
X164123809Y-127407200D01*
X164123809Y-127407200D02*
X163980952Y-127454819D01*
X163980952Y-127454819D02*
X163885714Y-127454819D01*
X164742857Y-127454819D02*
X164742857Y-126454819D01*
X164742857Y-126454819D02*
X165123809Y-126454819D01*
X165123809Y-126454819D02*
X165219047Y-126502438D01*
X165219047Y-126502438D02*
X165266666Y-126550057D01*
X165266666Y-126550057D02*
X165314285Y-126645295D01*
X165314285Y-126645295D02*
X165314285Y-126788152D01*
X165314285Y-126788152D02*
X165266666Y-126883390D01*
X165266666Y-126883390D02*
X165219047Y-126931009D01*
X165219047Y-126931009D02*
X165123809Y-126978628D01*
X165123809Y-126978628D02*
X164742857Y-126978628D01*
X166171428Y-126788152D02*
X166171428Y-127454819D01*
X165933333Y-126407200D02*
X165695238Y-127121485D01*
X165695238Y-127121485D02*
X166314285Y-127121485D01*
X172521666Y-122644819D02*
X172521666Y-123359104D01*
X172521666Y-123359104D02*
X172474047Y-123501961D01*
X172474047Y-123501961D02*
X172378809Y-123597200D01*
X172378809Y-123597200D02*
X172235952Y-123644819D01*
X172235952Y-123644819D02*
X172140714Y-123644819D01*
X172997857Y-123644819D02*
X172997857Y-122644819D01*
X172997857Y-122644819D02*
X173378809Y-122644819D01*
X173378809Y-122644819D02*
X173474047Y-122692438D01*
X173474047Y-122692438D02*
X173521666Y-122740057D01*
X173521666Y-122740057D02*
X173569285Y-122835295D01*
X173569285Y-122835295D02*
X173569285Y-122978152D01*
X173569285Y-122978152D02*
X173521666Y-123073390D01*
X173521666Y-123073390D02*
X173474047Y-123121009D01*
X173474047Y-123121009D02*
X173378809Y-123168628D01*
X173378809Y-123168628D02*
X172997857Y-123168628D01*
X173902619Y-122644819D02*
X174569285Y-122644819D01*
X174569285Y-122644819D02*
X174140714Y-123644819D01*
X197953333Y-122914580D02*
X197905714Y-122962200D01*
X197905714Y-122962200D02*
X197762857Y-123009819D01*
X197762857Y-123009819D02*
X197667619Y-123009819D01*
X197667619Y-123009819D02*
X197524762Y-122962200D01*
X197524762Y-122962200D02*
X197429524Y-122866961D01*
X197429524Y-122866961D02*
X197381905Y-122771723D01*
X197381905Y-122771723D02*
X197334286Y-122581247D01*
X197334286Y-122581247D02*
X197334286Y-122438390D01*
X197334286Y-122438390D02*
X197381905Y-122247914D01*
X197381905Y-122247914D02*
X197429524Y-122152676D01*
X197429524Y-122152676D02*
X197524762Y-122057438D01*
X197524762Y-122057438D02*
X197667619Y-122009819D01*
X197667619Y-122009819D02*
X197762857Y-122009819D01*
X197762857Y-122009819D02*
X197905714Y-122057438D01*
X197905714Y-122057438D02*
X197953333Y-122105057D01*
X198334286Y-122105057D02*
X198381905Y-122057438D01*
X198381905Y-122057438D02*
X198477143Y-122009819D01*
X198477143Y-122009819D02*
X198715238Y-122009819D01*
X198715238Y-122009819D02*
X198810476Y-122057438D01*
X198810476Y-122057438D02*
X198858095Y-122105057D01*
X198858095Y-122105057D02*
X198905714Y-122200295D01*
X198905714Y-122200295D02*
X198905714Y-122295533D01*
X198905714Y-122295533D02*
X198858095Y-122438390D01*
X198858095Y-122438390D02*
X198286667Y-123009819D01*
X198286667Y-123009819D02*
X198905714Y-123009819D01*
X202130819Y-132246666D02*
X201654628Y-132579999D01*
X202130819Y-132818094D02*
X201130819Y-132818094D01*
X201130819Y-132818094D02*
X201130819Y-132437142D01*
X201130819Y-132437142D02*
X201178438Y-132341904D01*
X201178438Y-132341904D02*
X201226057Y-132294285D01*
X201226057Y-132294285D02*
X201321295Y-132246666D01*
X201321295Y-132246666D02*
X201464152Y-132246666D01*
X201464152Y-132246666D02*
X201559390Y-132294285D01*
X201559390Y-132294285D02*
X201607009Y-132341904D01*
X201607009Y-132341904D02*
X201654628Y-132437142D01*
X201654628Y-132437142D02*
X201654628Y-132818094D01*
X202130819Y-131294285D02*
X202130819Y-131865713D01*
X202130819Y-131579999D02*
X201130819Y-131579999D01*
X201130819Y-131579999D02*
X201273676Y-131675237D01*
X201273676Y-131675237D02*
X201368914Y-131770475D01*
X201368914Y-131770475D02*
X201416533Y-131865713D01*
X200533095Y-114164819D02*
X200533095Y-114974342D01*
X200533095Y-114974342D02*
X200580714Y-115069580D01*
X200580714Y-115069580D02*
X200628333Y-115117200D01*
X200628333Y-115117200D02*
X200723571Y-115164819D01*
X200723571Y-115164819D02*
X200914047Y-115164819D01*
X200914047Y-115164819D02*
X201009285Y-115117200D01*
X201009285Y-115117200D02*
X201056904Y-115069580D01*
X201056904Y-115069580D02*
X201104523Y-114974342D01*
X201104523Y-114974342D02*
X201104523Y-114164819D01*
X201485476Y-114164819D02*
X202104523Y-114164819D01*
X202104523Y-114164819D02*
X201771190Y-114545771D01*
X201771190Y-114545771D02*
X201914047Y-114545771D01*
X201914047Y-114545771D02*
X202009285Y-114593390D01*
X202009285Y-114593390D02*
X202056904Y-114641009D01*
X202056904Y-114641009D02*
X202104523Y-114736247D01*
X202104523Y-114736247D02*
X202104523Y-114974342D01*
X202104523Y-114974342D02*
X202056904Y-115069580D01*
X202056904Y-115069580D02*
X202009285Y-115117200D01*
X202009285Y-115117200D02*
X201914047Y-115164819D01*
X201914047Y-115164819D02*
X201628333Y-115164819D01*
X201628333Y-115164819D02*
X201533095Y-115117200D01*
X201533095Y-115117200D02*
X201485476Y-115069580D01*
X199082819Y-132246666D02*
X198606628Y-132579999D01*
X199082819Y-132818094D02*
X198082819Y-132818094D01*
X198082819Y-132818094D02*
X198082819Y-132437142D01*
X198082819Y-132437142D02*
X198130438Y-132341904D01*
X198130438Y-132341904D02*
X198178057Y-132294285D01*
X198178057Y-132294285D02*
X198273295Y-132246666D01*
X198273295Y-132246666D02*
X198416152Y-132246666D01*
X198416152Y-132246666D02*
X198511390Y-132294285D01*
X198511390Y-132294285D02*
X198559009Y-132341904D01*
X198559009Y-132341904D02*
X198606628Y-132437142D01*
X198606628Y-132437142D02*
X198606628Y-132818094D01*
X198082819Y-131913332D02*
X198082819Y-131294285D01*
X198082819Y-131294285D02*
X198463771Y-131627618D01*
X198463771Y-131627618D02*
X198463771Y-131484761D01*
X198463771Y-131484761D02*
X198511390Y-131389523D01*
X198511390Y-131389523D02*
X198559009Y-131341904D01*
X198559009Y-131341904D02*
X198654247Y-131294285D01*
X198654247Y-131294285D02*
X198892342Y-131294285D01*
X198892342Y-131294285D02*
X198987580Y-131341904D01*
X198987580Y-131341904D02*
X199035200Y-131389523D01*
X199035200Y-131389523D02*
X199082819Y-131484761D01*
X199082819Y-131484761D02*
X199082819Y-131770475D01*
X199082819Y-131770475D02*
X199035200Y-131865713D01*
X199035200Y-131865713D02*
X198987580Y-131913332D01*
X172521666Y-115024819D02*
X172521666Y-115739104D01*
X172521666Y-115739104D02*
X172474047Y-115881961D01*
X172474047Y-115881961D02*
X172378809Y-115977200D01*
X172378809Y-115977200D02*
X172235952Y-116024819D01*
X172235952Y-116024819D02*
X172140714Y-116024819D01*
X172997857Y-116024819D02*
X172997857Y-115024819D01*
X172997857Y-115024819D02*
X173378809Y-115024819D01*
X173378809Y-115024819D02*
X173474047Y-115072438D01*
X173474047Y-115072438D02*
X173521666Y-115120057D01*
X173521666Y-115120057D02*
X173569285Y-115215295D01*
X173569285Y-115215295D02*
X173569285Y-115358152D01*
X173569285Y-115358152D02*
X173521666Y-115453390D01*
X173521666Y-115453390D02*
X173474047Y-115501009D01*
X173474047Y-115501009D02*
X173378809Y-115548628D01*
X173378809Y-115548628D02*
X172997857Y-115548628D01*
X174474047Y-115024819D02*
X173997857Y-115024819D01*
X173997857Y-115024819D02*
X173950238Y-115501009D01*
X173950238Y-115501009D02*
X173997857Y-115453390D01*
X173997857Y-115453390D02*
X174093095Y-115405771D01*
X174093095Y-115405771D02*
X174331190Y-115405771D01*
X174331190Y-115405771D02*
X174426428Y-115453390D01*
X174426428Y-115453390D02*
X174474047Y-115501009D01*
X174474047Y-115501009D02*
X174521666Y-115596247D01*
X174521666Y-115596247D02*
X174521666Y-115834342D01*
X174521666Y-115834342D02*
X174474047Y-115929580D01*
X174474047Y-115929580D02*
X174426428Y-115977200D01*
X174426428Y-115977200D02*
X174331190Y-116024819D01*
X174331190Y-116024819D02*
X174093095Y-116024819D01*
X174093095Y-116024819D02*
X173997857Y-115977200D01*
X173997857Y-115977200D02*
X173950238Y-115929580D01*
X197953333Y-114659580D02*
X197905714Y-114707200D01*
X197905714Y-114707200D02*
X197762857Y-114754819D01*
X197762857Y-114754819D02*
X197667619Y-114754819D01*
X197667619Y-114754819D02*
X197524762Y-114707200D01*
X197524762Y-114707200D02*
X197429524Y-114611961D01*
X197429524Y-114611961D02*
X197381905Y-114516723D01*
X197381905Y-114516723D02*
X197334286Y-114326247D01*
X197334286Y-114326247D02*
X197334286Y-114183390D01*
X197334286Y-114183390D02*
X197381905Y-113992914D01*
X197381905Y-113992914D02*
X197429524Y-113897676D01*
X197429524Y-113897676D02*
X197524762Y-113802438D01*
X197524762Y-113802438D02*
X197667619Y-113754819D01*
X197667619Y-113754819D02*
X197762857Y-113754819D01*
X197762857Y-113754819D02*
X197905714Y-113802438D01*
X197905714Y-113802438D02*
X197953333Y-113850057D01*
X198905714Y-114754819D02*
X198334286Y-114754819D01*
X198620000Y-114754819D02*
X198620000Y-113754819D01*
X198620000Y-113754819D02*
X198524762Y-113897676D01*
X198524762Y-113897676D02*
X198429524Y-113992914D01*
X198429524Y-113992914D02*
X198334286Y-114040533D01*
X208113333Y-122914580D02*
X208065714Y-122962200D01*
X208065714Y-122962200D02*
X207922857Y-123009819D01*
X207922857Y-123009819D02*
X207827619Y-123009819D01*
X207827619Y-123009819D02*
X207684762Y-122962200D01*
X207684762Y-122962200D02*
X207589524Y-122866961D01*
X207589524Y-122866961D02*
X207541905Y-122771723D01*
X207541905Y-122771723D02*
X207494286Y-122581247D01*
X207494286Y-122581247D02*
X207494286Y-122438390D01*
X207494286Y-122438390D02*
X207541905Y-122247914D01*
X207541905Y-122247914D02*
X207589524Y-122152676D01*
X207589524Y-122152676D02*
X207684762Y-122057438D01*
X207684762Y-122057438D02*
X207827619Y-122009819D01*
X207827619Y-122009819D02*
X207922857Y-122009819D01*
X207922857Y-122009819D02*
X208065714Y-122057438D01*
X208065714Y-122057438D02*
X208113333Y-122105057D01*
X208970476Y-122343152D02*
X208970476Y-123009819D01*
X208732381Y-121962200D02*
X208494286Y-122676485D01*
X208494286Y-122676485D02*
X209113333Y-122676485D01*
X164266666Y-118834819D02*
X164266666Y-119549104D01*
X164266666Y-119549104D02*
X164219047Y-119691961D01*
X164219047Y-119691961D02*
X164123809Y-119787200D01*
X164123809Y-119787200D02*
X163980952Y-119834819D01*
X163980952Y-119834819D02*
X163885714Y-119834819D01*
X164742857Y-119834819D02*
X164742857Y-118834819D01*
X164742857Y-118834819D02*
X165123809Y-118834819D01*
X165123809Y-118834819D02*
X165219047Y-118882438D01*
X165219047Y-118882438D02*
X165266666Y-118930057D01*
X165266666Y-118930057D02*
X165314285Y-119025295D01*
X165314285Y-119025295D02*
X165314285Y-119168152D01*
X165314285Y-119168152D02*
X165266666Y-119263390D01*
X165266666Y-119263390D02*
X165219047Y-119311009D01*
X165219047Y-119311009D02*
X165123809Y-119358628D01*
X165123809Y-119358628D02*
X164742857Y-119358628D01*
X165695238Y-118930057D02*
X165742857Y-118882438D01*
X165742857Y-118882438D02*
X165838095Y-118834819D01*
X165838095Y-118834819D02*
X166076190Y-118834819D01*
X166076190Y-118834819D02*
X166171428Y-118882438D01*
X166171428Y-118882438D02*
X166219047Y-118930057D01*
X166219047Y-118930057D02*
X166266666Y-119025295D01*
X166266666Y-119025295D02*
X166266666Y-119120533D01*
X166266666Y-119120533D02*
X166219047Y-119263390D01*
X166219047Y-119263390D02*
X165647619Y-119834819D01*
X165647619Y-119834819D02*
X166266666Y-119834819D01*
X172521666Y-118834819D02*
X172521666Y-119549104D01*
X172521666Y-119549104D02*
X172474047Y-119691961D01*
X172474047Y-119691961D02*
X172378809Y-119787200D01*
X172378809Y-119787200D02*
X172235952Y-119834819D01*
X172235952Y-119834819D02*
X172140714Y-119834819D01*
X172997857Y-119834819D02*
X172997857Y-118834819D01*
X172997857Y-118834819D02*
X173378809Y-118834819D01*
X173378809Y-118834819D02*
X173474047Y-118882438D01*
X173474047Y-118882438D02*
X173521666Y-118930057D01*
X173521666Y-118930057D02*
X173569285Y-119025295D01*
X173569285Y-119025295D02*
X173569285Y-119168152D01*
X173569285Y-119168152D02*
X173521666Y-119263390D01*
X173521666Y-119263390D02*
X173474047Y-119311009D01*
X173474047Y-119311009D02*
X173378809Y-119358628D01*
X173378809Y-119358628D02*
X172997857Y-119358628D01*
X174426428Y-118834819D02*
X174235952Y-118834819D01*
X174235952Y-118834819D02*
X174140714Y-118882438D01*
X174140714Y-118882438D02*
X174093095Y-118930057D01*
X174093095Y-118930057D02*
X173997857Y-119072914D01*
X173997857Y-119072914D02*
X173950238Y-119263390D01*
X173950238Y-119263390D02*
X173950238Y-119644342D01*
X173950238Y-119644342D02*
X173997857Y-119739580D01*
X173997857Y-119739580D02*
X174045476Y-119787200D01*
X174045476Y-119787200D02*
X174140714Y-119834819D01*
X174140714Y-119834819D02*
X174331190Y-119834819D01*
X174331190Y-119834819D02*
X174426428Y-119787200D01*
X174426428Y-119787200D02*
X174474047Y-119739580D01*
X174474047Y-119739580D02*
X174521666Y-119644342D01*
X174521666Y-119644342D02*
X174521666Y-119406247D01*
X174521666Y-119406247D02*
X174474047Y-119311009D01*
X174474047Y-119311009D02*
X174426428Y-119263390D01*
X174426428Y-119263390D02*
X174331190Y-119215771D01*
X174331190Y-119215771D02*
X174140714Y-119215771D01*
X174140714Y-119215771D02*
X174045476Y-119263390D01*
X174045476Y-119263390D02*
X173997857Y-119311009D01*
X173997857Y-119311009D02*
X173950238Y-119406247D01*
X190373095Y-122419819D02*
X190373095Y-123229342D01*
X190373095Y-123229342D02*
X190420714Y-123324580D01*
X190420714Y-123324580D02*
X190468333Y-123372200D01*
X190468333Y-123372200D02*
X190563571Y-123419819D01*
X190563571Y-123419819D02*
X190754047Y-123419819D01*
X190754047Y-123419819D02*
X190849285Y-123372200D01*
X190849285Y-123372200D02*
X190896904Y-123324580D01*
X190896904Y-123324580D02*
X190944523Y-123229342D01*
X190944523Y-123229342D02*
X190944523Y-122419819D01*
X191373095Y-122515057D02*
X191420714Y-122467438D01*
X191420714Y-122467438D02*
X191515952Y-122419819D01*
X191515952Y-122419819D02*
X191754047Y-122419819D01*
X191754047Y-122419819D02*
X191849285Y-122467438D01*
X191849285Y-122467438D02*
X191896904Y-122515057D01*
X191896904Y-122515057D02*
X191944523Y-122610295D01*
X191944523Y-122610295D02*
X191944523Y-122705533D01*
X191944523Y-122705533D02*
X191896904Y-122848390D01*
X191896904Y-122848390D02*
X191325476Y-123419819D01*
X191325476Y-123419819D02*
X191944523Y-123419819D01*
X205178819Y-132246666D02*
X204702628Y-132579999D01*
X205178819Y-132818094D02*
X204178819Y-132818094D01*
X204178819Y-132818094D02*
X204178819Y-132437142D01*
X204178819Y-132437142D02*
X204226438Y-132341904D01*
X204226438Y-132341904D02*
X204274057Y-132294285D01*
X204274057Y-132294285D02*
X204369295Y-132246666D01*
X204369295Y-132246666D02*
X204512152Y-132246666D01*
X204512152Y-132246666D02*
X204607390Y-132294285D01*
X204607390Y-132294285D02*
X204655009Y-132341904D01*
X204655009Y-132341904D02*
X204702628Y-132437142D01*
X204702628Y-132437142D02*
X204702628Y-132818094D01*
X204274057Y-131865713D02*
X204226438Y-131818094D01*
X204226438Y-131818094D02*
X204178819Y-131722856D01*
X204178819Y-131722856D02*
X204178819Y-131484761D01*
X204178819Y-131484761D02*
X204226438Y-131389523D01*
X204226438Y-131389523D02*
X204274057Y-131341904D01*
X204274057Y-131341904D02*
X204369295Y-131294285D01*
X204369295Y-131294285D02*
X204464533Y-131294285D01*
X204464533Y-131294285D02*
X204607390Y-131341904D01*
X204607390Y-131341904D02*
X205178819Y-131913332D01*
X205178819Y-131913332D02*
X205178819Y-131294285D01*
D11*
G04 #@! TO.C,U4*
X203835000Y-123805000D02*
X200385000Y-123805000D01*
X203835000Y-123805000D02*
X205785000Y-123805000D01*
X203835000Y-128925000D02*
X201885000Y-128925000D01*
X203835000Y-128925000D02*
X205785000Y-128925000D01*
G04 #@! TO.C,U1*
X193675000Y-115550000D02*
X190225000Y-115550000D01*
X193675000Y-115550000D02*
X195625000Y-115550000D01*
X193675000Y-120670000D02*
X191725000Y-120670000D01*
X193675000Y-120670000D02*
X195625000Y-120670000D01*
G04 #@! TO.C,JP3*
X166875000Y-122190000D02*
X169675000Y-122190000D01*
X166875000Y-124190000D02*
X166875000Y-122190000D01*
X169675000Y-122190000D02*
X169675000Y-124190000D01*
X169675000Y-124190000D02*
X166875000Y-124190000D01*
G04 #@! TO.C,C3*
X205880580Y-114810000D02*
X205599420Y-114810000D01*
X205880580Y-113790000D02*
X205599420Y-113790000D01*
G04 #@! TO.C,JP1*
X166875000Y-114570000D02*
X169675000Y-114570000D01*
X166875000Y-116570000D02*
X166875000Y-114570000D01*
X169675000Y-114570000D02*
X169675000Y-116570000D01*
X169675000Y-116570000D02*
X166875000Y-116570000D01*
G04 #@! TO.C,JP8*
X175130000Y-126000000D02*
X177930000Y-126000000D01*
X175130000Y-128000000D02*
X175130000Y-126000000D01*
X177930000Y-126000000D02*
X177930000Y-128000000D01*
X177930000Y-128000000D02*
X175130000Y-128000000D01*
G04 #@! TO.C,JP4*
X166875000Y-126000000D02*
X169675000Y-126000000D01*
X166875000Y-128000000D02*
X166875000Y-126000000D01*
X169675000Y-126000000D02*
X169675000Y-128000000D01*
X169675000Y-128000000D02*
X166875000Y-128000000D01*
G04 #@! TO.C,JP7*
X175130000Y-122190000D02*
X177930000Y-122190000D01*
X175130000Y-124190000D02*
X175130000Y-122190000D01*
X177930000Y-122190000D02*
X177930000Y-124190000D01*
X177930000Y-124190000D02*
X175130000Y-124190000D01*
G04 #@! TO.C,J2*
X209610000Y-99000000D02*
X158690000Y-99000000D01*
X209610000Y-99000000D02*
X209610000Y-101600000D01*
X158690000Y-99000000D02*
X158690000Y-104200000D01*
X209610000Y-101600000D02*
X207010000Y-101600000D01*
X207010000Y-101600000D02*
X207010000Y-104200000D01*
X209610000Y-102870000D02*
X209610000Y-104200000D01*
X209610000Y-104200000D02*
X208280000Y-104200000D01*
X207010000Y-104200000D02*
X158690000Y-104200000D01*
G04 #@! TO.C,C2*
X195720580Y-123065000D02*
X195439420Y-123065000D01*
X195720580Y-122045000D02*
X195439420Y-122045000D01*
G04 #@! TO.C,R1*
X202677500Y-132317258D02*
X202677500Y-131842742D01*
X203722500Y-132317258D02*
X203722500Y-131842742D01*
G04 #@! TO.C,U3*
X203835000Y-115550000D02*
X200385000Y-115550000D01*
X203835000Y-115550000D02*
X205785000Y-115550000D01*
X203835000Y-120670000D02*
X201885000Y-120670000D01*
X203835000Y-120670000D02*
X205785000Y-120670000D01*
G04 #@! TO.C,R3*
X200674500Y-131842742D02*
X200674500Y-132317258D01*
X199629500Y-131842742D02*
X199629500Y-132317258D01*
G04 #@! TO.C,JP5*
X175130000Y-114570000D02*
X177930000Y-114570000D01*
X175130000Y-116570000D02*
X175130000Y-114570000D01*
X177930000Y-114570000D02*
X177930000Y-116570000D01*
X177930000Y-116570000D02*
X175130000Y-116570000D01*
G04 #@! TO.C,C1*
X195720580Y-114810000D02*
X195439420Y-114810000D01*
X195720580Y-113790000D02*
X195439420Y-113790000D01*
G04 #@! TO.C,C4*
X205880580Y-123065000D02*
X205599420Y-123065000D01*
X205880580Y-122045000D02*
X205599420Y-122045000D01*
G04 #@! TO.C,JP2*
X166875000Y-118380000D02*
X169675000Y-118380000D01*
X166875000Y-120380000D02*
X166875000Y-118380000D01*
X169675000Y-118380000D02*
X169675000Y-120380000D01*
X169675000Y-120380000D02*
X166875000Y-120380000D01*
G04 #@! TO.C,JP6*
X175130000Y-118380000D02*
X177930000Y-118380000D01*
X175130000Y-120380000D02*
X175130000Y-118380000D01*
X177930000Y-118380000D02*
X177930000Y-120380000D01*
X177930000Y-120380000D02*
X175130000Y-120380000D01*
G04 #@! TO.C,U2*
X193675000Y-123805000D02*
X190225000Y-123805000D01*
X193675000Y-123805000D02*
X195625000Y-123805000D01*
X193675000Y-128925000D02*
X191725000Y-128925000D01*
X193675000Y-128925000D02*
X195625000Y-128925000D01*
G04 #@! TO.C,R2*
X205725500Y-132317258D02*
X205725500Y-131842742D01*
X206770500Y-132317258D02*
X206770500Y-131842742D01*
G04 #@! TO.C,J1*
X158690000Y-142300000D02*
X209610000Y-142300000D01*
X158690000Y-142300000D02*
X158690000Y-139700000D01*
X209610000Y-142300000D02*
X209610000Y-137100000D01*
X158690000Y-139700000D02*
X161290000Y-139700000D01*
X161290000Y-139700000D02*
X161290000Y-137100000D01*
X158690000Y-138430000D02*
X158690000Y-137100000D01*
X158690000Y-137100000D02*
X160020000Y-137100000D01*
X161290000Y-137100000D02*
X209610000Y-137100000D01*
G04 #@! TD*
M02*
