G04 #@! TF.GenerationSoftware,KiCad,Pcbnew,7.0.6+dfsg-1*
G04 #@! TF.CreationDate,2023-08-25T11:52:39+08:00*
G04 #@! TF.ProjectId,mem24cxx,6d656d32-3463-4787-982e-6b696361645f,rev?*
G04 #@! TF.SameCoordinates,Original*
G04 #@! TF.FileFunction,Legend,Bot*
G04 #@! TF.FilePolarity,Positive*
%FSLAX46Y46*%
G04 Gerber Fmt 4.6, Leading zero omitted, Abs format (unit mm)*
G04 Created by KiCad (PCBNEW 7.0.6+dfsg-1) date 2023-08-25 11:52:39*
%MOMM*%
%LPD*%
G01*
G04 APERTURE LIST*
%ADD10C,0.150000*%
G04 APERTURE END LIST*
D10*
X202762295Y-96154887D02*
X203409914Y-96154887D01*
X203409914Y-96154887D02*
X203486104Y-96192982D01*
X203486104Y-96192982D02*
X203524200Y-96231077D01*
X203524200Y-96231077D02*
X203562295Y-96307268D01*
X203562295Y-96307268D02*
X203562295Y-96459649D01*
X203562295Y-96459649D02*
X203524200Y-96535839D01*
X203524200Y-96535839D02*
X203486104Y-96573934D01*
X203486104Y-96573934D02*
X203409914Y-96612030D01*
X203409914Y-96612030D02*
X202762295Y-96612030D01*
X203562295Y-97412029D02*
X203562295Y-96954886D01*
X203562295Y-97183458D02*
X202762295Y-97183458D01*
X202762295Y-97183458D02*
X202876580Y-97107267D01*
X202876580Y-97107267D02*
X202952771Y-97031077D01*
X202952771Y-97031077D02*
X202990866Y-96954886D01*
X202762295Y-98135839D02*
X202762295Y-97754887D01*
X202762295Y-97754887D02*
X203143247Y-97716791D01*
X203143247Y-97716791D02*
X203105152Y-97754887D01*
X203105152Y-97754887D02*
X203067057Y-97831077D01*
X203067057Y-97831077D02*
X203067057Y-98021553D01*
X203067057Y-98021553D02*
X203105152Y-98097744D01*
X203105152Y-98097744D02*
X203143247Y-98135839D01*
X203143247Y-98135839D02*
X203219438Y-98173934D01*
X203219438Y-98173934D02*
X203409914Y-98173934D01*
X203409914Y-98173934D02*
X203486104Y-98135839D01*
X203486104Y-98135839D02*
X203524200Y-98097744D01*
X203524200Y-98097744D02*
X203562295Y-98021553D01*
X203562295Y-98021553D02*
X203562295Y-97831077D01*
X203562295Y-97831077D02*
X203524200Y-97754887D01*
X203524200Y-97754887D02*
X203486104Y-97716791D01*
X198482295Y-105064160D02*
X197682295Y-105064160D01*
X197682295Y-105064160D02*
X197682295Y-105368922D01*
X197682295Y-105368922D02*
X197720390Y-105445112D01*
X197720390Y-105445112D02*
X197758485Y-105483207D01*
X197758485Y-105483207D02*
X197834676Y-105521303D01*
X197834676Y-105521303D02*
X197948961Y-105521303D01*
X197948961Y-105521303D02*
X198025152Y-105483207D01*
X198025152Y-105483207D02*
X198063247Y-105445112D01*
X198063247Y-105445112D02*
X198101342Y-105368922D01*
X198101342Y-105368922D02*
X198101342Y-105064160D01*
X198253723Y-105826064D02*
X198253723Y-106207017D01*
X198482295Y-105749874D02*
X197682295Y-106016541D01*
X197682295Y-106016541D02*
X198482295Y-106283207D01*
X198482295Y-106587969D02*
X198482295Y-106740350D01*
X198482295Y-106740350D02*
X198444200Y-106816540D01*
X198444200Y-106816540D02*
X198406104Y-106854636D01*
X198406104Y-106854636D02*
X198291819Y-106930826D01*
X198291819Y-106930826D02*
X198139438Y-106968921D01*
X198139438Y-106968921D02*
X197834676Y-106968921D01*
X197834676Y-106968921D02*
X197758485Y-106930826D01*
X197758485Y-106930826D02*
X197720390Y-106892731D01*
X197720390Y-106892731D02*
X197682295Y-106816540D01*
X197682295Y-106816540D02*
X197682295Y-106664159D01*
X197682295Y-106664159D02*
X197720390Y-106587969D01*
X197720390Y-106587969D02*
X197758485Y-106549874D01*
X197758485Y-106549874D02*
X197834676Y-106511778D01*
X197834676Y-106511778D02*
X198025152Y-106511778D01*
X198025152Y-106511778D02*
X198101342Y-106549874D01*
X198101342Y-106549874D02*
X198139438Y-106587969D01*
X198139438Y-106587969D02*
X198177533Y-106664159D01*
X198177533Y-106664159D02*
X198177533Y-106816540D01*
X198177533Y-106816540D02*
X198139438Y-106892731D01*
X198139438Y-106892731D02*
X198101342Y-106930826D01*
X198101342Y-106930826D02*
X198025152Y-106968921D01*
X202762295Y-105064160D02*
X203409914Y-105064160D01*
X203409914Y-105064160D02*
X203486104Y-105102255D01*
X203486104Y-105102255D02*
X203524200Y-105140350D01*
X203524200Y-105140350D02*
X203562295Y-105216541D01*
X203562295Y-105216541D02*
X203562295Y-105368922D01*
X203562295Y-105368922D02*
X203524200Y-105445112D01*
X203524200Y-105445112D02*
X203486104Y-105483207D01*
X203486104Y-105483207D02*
X203409914Y-105521303D01*
X203409914Y-105521303D02*
X202762295Y-105521303D01*
X203562295Y-106321302D02*
X203562295Y-105864159D01*
X203562295Y-106092731D02*
X202762295Y-106092731D01*
X202762295Y-106092731D02*
X202876580Y-106016540D01*
X202876580Y-106016540D02*
X202952771Y-105940350D01*
X202952771Y-105940350D02*
X202990866Y-105864159D01*
X202762295Y-107007017D02*
X202762295Y-106854636D01*
X202762295Y-106854636D02*
X202800390Y-106778445D01*
X202800390Y-106778445D02*
X202838485Y-106740350D01*
X202838485Y-106740350D02*
X202952771Y-106664160D01*
X202952771Y-106664160D02*
X203105152Y-106626064D01*
X203105152Y-106626064D02*
X203409914Y-106626064D01*
X203409914Y-106626064D02*
X203486104Y-106664160D01*
X203486104Y-106664160D02*
X203524200Y-106702255D01*
X203524200Y-106702255D02*
X203562295Y-106778445D01*
X203562295Y-106778445D02*
X203562295Y-106930826D01*
X203562295Y-106930826D02*
X203524200Y-107007017D01*
X203524200Y-107007017D02*
X203486104Y-107045112D01*
X203486104Y-107045112D02*
X203409914Y-107083207D01*
X203409914Y-107083207D02*
X203219438Y-107083207D01*
X203219438Y-107083207D02*
X203143247Y-107045112D01*
X203143247Y-107045112D02*
X203105152Y-107007017D01*
X203105152Y-107007017D02*
X203067057Y-106930826D01*
X203067057Y-106930826D02*
X203067057Y-106778445D01*
X203067057Y-106778445D02*
X203105152Y-106702255D01*
X203105152Y-106702255D02*
X203143247Y-106664160D01*
X203143247Y-106664160D02*
X203219438Y-106626064D01*
X205302295Y-95850125D02*
X205302295Y-96345363D01*
X205302295Y-96345363D02*
X205607057Y-96078697D01*
X205607057Y-96078697D02*
X205607057Y-96192982D01*
X205607057Y-96192982D02*
X205645152Y-96269173D01*
X205645152Y-96269173D02*
X205683247Y-96307268D01*
X205683247Y-96307268D02*
X205759438Y-96345363D01*
X205759438Y-96345363D02*
X205949914Y-96345363D01*
X205949914Y-96345363D02*
X206026104Y-96307268D01*
X206026104Y-96307268D02*
X206064200Y-96269173D01*
X206064200Y-96269173D02*
X206102295Y-96192982D01*
X206102295Y-96192982D02*
X206102295Y-95964411D01*
X206102295Y-95964411D02*
X206064200Y-95888220D01*
X206064200Y-95888220D02*
X206026104Y-95850125D01*
X206026104Y-96688221D02*
X206064200Y-96726316D01*
X206064200Y-96726316D02*
X206102295Y-96688221D01*
X206102295Y-96688221D02*
X206064200Y-96650125D01*
X206064200Y-96650125D02*
X206026104Y-96688221D01*
X206026104Y-96688221D02*
X206102295Y-96688221D01*
X205302295Y-96992982D02*
X205302295Y-97488220D01*
X205302295Y-97488220D02*
X205607057Y-97221554D01*
X205607057Y-97221554D02*
X205607057Y-97335839D01*
X205607057Y-97335839D02*
X205645152Y-97412030D01*
X205645152Y-97412030D02*
X205683247Y-97450125D01*
X205683247Y-97450125D02*
X205759438Y-97488220D01*
X205759438Y-97488220D02*
X205949914Y-97488220D01*
X205949914Y-97488220D02*
X206026104Y-97450125D01*
X206026104Y-97450125D02*
X206064200Y-97412030D01*
X206064200Y-97412030D02*
X206102295Y-97335839D01*
X206102295Y-97335839D02*
X206102295Y-97107268D01*
X206102295Y-97107268D02*
X206064200Y-97031077D01*
X206064200Y-97031077D02*
X206026104Y-96992982D01*
X205302295Y-97716792D02*
X206102295Y-97983459D01*
X206102295Y-97983459D02*
X205302295Y-98250125D01*
X175622295Y-105064160D02*
X174822295Y-105064160D01*
X174822295Y-105064160D02*
X174822295Y-105368922D01*
X174822295Y-105368922D02*
X174860390Y-105445112D01*
X174860390Y-105445112D02*
X174898485Y-105483207D01*
X174898485Y-105483207D02*
X174974676Y-105521303D01*
X174974676Y-105521303D02*
X175088961Y-105521303D01*
X175088961Y-105521303D02*
X175165152Y-105483207D01*
X175165152Y-105483207D02*
X175203247Y-105445112D01*
X175203247Y-105445112D02*
X175241342Y-105368922D01*
X175241342Y-105368922D02*
X175241342Y-105064160D01*
X175203247Y-106130826D02*
X175241342Y-106245112D01*
X175241342Y-106245112D02*
X175279438Y-106283207D01*
X175279438Y-106283207D02*
X175355628Y-106321303D01*
X175355628Y-106321303D02*
X175469914Y-106321303D01*
X175469914Y-106321303D02*
X175546104Y-106283207D01*
X175546104Y-106283207D02*
X175584200Y-106245112D01*
X175584200Y-106245112D02*
X175622295Y-106168922D01*
X175622295Y-106168922D02*
X175622295Y-105864160D01*
X175622295Y-105864160D02*
X174822295Y-105864160D01*
X174822295Y-105864160D02*
X174822295Y-106130826D01*
X174822295Y-106130826D02*
X174860390Y-106207017D01*
X174860390Y-106207017D02*
X174898485Y-106245112D01*
X174898485Y-106245112D02*
X174974676Y-106283207D01*
X174974676Y-106283207D02*
X175050866Y-106283207D01*
X175050866Y-106283207D02*
X175127057Y-106245112D01*
X175127057Y-106245112D02*
X175165152Y-106207017D01*
X175165152Y-106207017D02*
X175203247Y-106130826D01*
X175203247Y-106130826D02*
X175203247Y-105864160D01*
X174822295Y-106587969D02*
X174822295Y-107121303D01*
X174822295Y-107121303D02*
X175622295Y-106778445D01*
X173082295Y-96154887D02*
X172282295Y-96154887D01*
X172282295Y-96154887D02*
X172282295Y-96459649D01*
X172282295Y-96459649D02*
X172320390Y-96535839D01*
X172320390Y-96535839D02*
X172358485Y-96573934D01*
X172358485Y-96573934D02*
X172434676Y-96612030D01*
X172434676Y-96612030D02*
X172548961Y-96612030D01*
X172548961Y-96612030D02*
X172625152Y-96573934D01*
X172625152Y-96573934D02*
X172663247Y-96535839D01*
X172663247Y-96535839D02*
X172701342Y-96459649D01*
X172701342Y-96459649D02*
X172701342Y-96154887D01*
X172663247Y-97221553D02*
X172701342Y-97335839D01*
X172701342Y-97335839D02*
X172739438Y-97373934D01*
X172739438Y-97373934D02*
X172815628Y-97412030D01*
X172815628Y-97412030D02*
X172929914Y-97412030D01*
X172929914Y-97412030D02*
X173006104Y-97373934D01*
X173006104Y-97373934D02*
X173044200Y-97335839D01*
X173044200Y-97335839D02*
X173082295Y-97259649D01*
X173082295Y-97259649D02*
X173082295Y-96954887D01*
X173082295Y-96954887D02*
X172282295Y-96954887D01*
X172282295Y-96954887D02*
X172282295Y-97221553D01*
X172282295Y-97221553D02*
X172320390Y-97297744D01*
X172320390Y-97297744D02*
X172358485Y-97335839D01*
X172358485Y-97335839D02*
X172434676Y-97373934D01*
X172434676Y-97373934D02*
X172510866Y-97373934D01*
X172510866Y-97373934D02*
X172587057Y-97335839D01*
X172587057Y-97335839D02*
X172625152Y-97297744D01*
X172625152Y-97297744D02*
X172663247Y-97221553D01*
X172663247Y-97221553D02*
X172663247Y-96954887D01*
X172625152Y-97869172D02*
X172587057Y-97792982D01*
X172587057Y-97792982D02*
X172548961Y-97754887D01*
X172548961Y-97754887D02*
X172472771Y-97716791D01*
X172472771Y-97716791D02*
X172434676Y-97716791D01*
X172434676Y-97716791D02*
X172358485Y-97754887D01*
X172358485Y-97754887D02*
X172320390Y-97792982D01*
X172320390Y-97792982D02*
X172282295Y-97869172D01*
X172282295Y-97869172D02*
X172282295Y-98021553D01*
X172282295Y-98021553D02*
X172320390Y-98097744D01*
X172320390Y-98097744D02*
X172358485Y-98135839D01*
X172358485Y-98135839D02*
X172434676Y-98173934D01*
X172434676Y-98173934D02*
X172472771Y-98173934D01*
X172472771Y-98173934D02*
X172548961Y-98135839D01*
X172548961Y-98135839D02*
X172587057Y-98097744D01*
X172587057Y-98097744D02*
X172625152Y-98021553D01*
X172625152Y-98021553D02*
X172625152Y-97869172D01*
X172625152Y-97869172D02*
X172663247Y-97792982D01*
X172663247Y-97792982D02*
X172701342Y-97754887D01*
X172701342Y-97754887D02*
X172777533Y-97716791D01*
X172777533Y-97716791D02*
X172929914Y-97716791D01*
X172929914Y-97716791D02*
X173006104Y-97754887D01*
X173006104Y-97754887D02*
X173044200Y-97792982D01*
X173044200Y-97792982D02*
X173082295Y-97869172D01*
X173082295Y-97869172D02*
X173082295Y-98021553D01*
X173082295Y-98021553D02*
X173044200Y-98097744D01*
X173044200Y-98097744D02*
X173006104Y-98135839D01*
X173006104Y-98135839D02*
X172929914Y-98173934D01*
X172929914Y-98173934D02*
X172777533Y-98173934D01*
X172777533Y-98173934D02*
X172701342Y-98135839D01*
X172701342Y-98135839D02*
X172663247Y-98097744D01*
X172663247Y-98097744D02*
X172625152Y-98021553D01*
X182442295Y-105064160D02*
X183089914Y-105064160D01*
X183089914Y-105064160D02*
X183166104Y-105102255D01*
X183166104Y-105102255D02*
X183204200Y-105140350D01*
X183204200Y-105140350D02*
X183242295Y-105216541D01*
X183242295Y-105216541D02*
X183242295Y-105368922D01*
X183242295Y-105368922D02*
X183204200Y-105445112D01*
X183204200Y-105445112D02*
X183166104Y-105483207D01*
X183166104Y-105483207D02*
X183089914Y-105521303D01*
X183089914Y-105521303D02*
X182442295Y-105521303D01*
X182785152Y-106016540D02*
X182747057Y-105940350D01*
X182747057Y-105940350D02*
X182708961Y-105902255D01*
X182708961Y-105902255D02*
X182632771Y-105864159D01*
X182632771Y-105864159D02*
X182594676Y-105864159D01*
X182594676Y-105864159D02*
X182518485Y-105902255D01*
X182518485Y-105902255D02*
X182480390Y-105940350D01*
X182480390Y-105940350D02*
X182442295Y-106016540D01*
X182442295Y-106016540D02*
X182442295Y-106168921D01*
X182442295Y-106168921D02*
X182480390Y-106245112D01*
X182480390Y-106245112D02*
X182518485Y-106283207D01*
X182518485Y-106283207D02*
X182594676Y-106321302D01*
X182594676Y-106321302D02*
X182632771Y-106321302D01*
X182632771Y-106321302D02*
X182708961Y-106283207D01*
X182708961Y-106283207D02*
X182747057Y-106245112D01*
X182747057Y-106245112D02*
X182785152Y-106168921D01*
X182785152Y-106168921D02*
X182785152Y-106016540D01*
X182785152Y-106016540D02*
X182823247Y-105940350D01*
X182823247Y-105940350D02*
X182861342Y-105902255D01*
X182861342Y-105902255D02*
X182937533Y-105864159D01*
X182937533Y-105864159D02*
X183089914Y-105864159D01*
X183089914Y-105864159D02*
X183166104Y-105902255D01*
X183166104Y-105902255D02*
X183204200Y-105940350D01*
X183204200Y-105940350D02*
X183242295Y-106016540D01*
X183242295Y-106016540D02*
X183242295Y-106168921D01*
X183242295Y-106168921D02*
X183204200Y-106245112D01*
X183204200Y-106245112D02*
X183166104Y-106283207D01*
X183166104Y-106283207D02*
X183089914Y-106321302D01*
X183089914Y-106321302D02*
X182937533Y-106321302D01*
X182937533Y-106321302D02*
X182861342Y-106283207D01*
X182861342Y-106283207D02*
X182823247Y-106245112D01*
X182823247Y-106245112D02*
X182785152Y-106168921D01*
X190862295Y-105064160D02*
X190062295Y-105064160D01*
X190062295Y-105064160D02*
X190062295Y-105368922D01*
X190062295Y-105368922D02*
X190100390Y-105445112D01*
X190100390Y-105445112D02*
X190138485Y-105483207D01*
X190138485Y-105483207D02*
X190214676Y-105521303D01*
X190214676Y-105521303D02*
X190328961Y-105521303D01*
X190328961Y-105521303D02*
X190405152Y-105483207D01*
X190405152Y-105483207D02*
X190443247Y-105445112D01*
X190443247Y-105445112D02*
X190481342Y-105368922D01*
X190481342Y-105368922D02*
X190481342Y-105064160D01*
X190633723Y-105826064D02*
X190633723Y-106207017D01*
X190862295Y-105749874D02*
X190062295Y-106016541D01*
X190062295Y-106016541D02*
X190862295Y-106283207D01*
X190862295Y-106968921D02*
X190862295Y-106511778D01*
X190862295Y-106740350D02*
X190062295Y-106740350D01*
X190062295Y-106740350D02*
X190176580Y-106664159D01*
X190176580Y-106664159D02*
X190252771Y-106587969D01*
X190252771Y-106587969D02*
X190290866Y-106511778D01*
X190062295Y-107692731D02*
X190062295Y-107311779D01*
X190062295Y-107311779D02*
X190443247Y-107273683D01*
X190443247Y-107273683D02*
X190405152Y-107311779D01*
X190405152Y-107311779D02*
X190367057Y-107387969D01*
X190367057Y-107387969D02*
X190367057Y-107578445D01*
X190367057Y-107578445D02*
X190405152Y-107654636D01*
X190405152Y-107654636D02*
X190443247Y-107692731D01*
X190443247Y-107692731D02*
X190519438Y-107730826D01*
X190519438Y-107730826D02*
X190709914Y-107730826D01*
X190709914Y-107730826D02*
X190786104Y-107692731D01*
X190786104Y-107692731D02*
X190824200Y-107654636D01*
X190824200Y-107654636D02*
X190862295Y-107578445D01*
X190862295Y-107578445D02*
X190862295Y-107387969D01*
X190862295Y-107387969D02*
X190824200Y-107311779D01*
X190824200Y-107311779D02*
X190786104Y-107273683D01*
X188322295Y-133492982D02*
X187522295Y-133492982D01*
X187522295Y-133492982D02*
X187522295Y-133797744D01*
X187522295Y-133797744D02*
X187560390Y-133873934D01*
X187560390Y-133873934D02*
X187598485Y-133912029D01*
X187598485Y-133912029D02*
X187674676Y-133950125D01*
X187674676Y-133950125D02*
X187788961Y-133950125D01*
X187788961Y-133950125D02*
X187865152Y-133912029D01*
X187865152Y-133912029D02*
X187903247Y-133873934D01*
X187903247Y-133873934D02*
X187941342Y-133797744D01*
X187941342Y-133797744D02*
X187941342Y-133492982D01*
X187903247Y-134559648D02*
X187941342Y-134673934D01*
X187941342Y-134673934D02*
X187979438Y-134712029D01*
X187979438Y-134712029D02*
X188055628Y-134750125D01*
X188055628Y-134750125D02*
X188169914Y-134750125D01*
X188169914Y-134750125D02*
X188246104Y-134712029D01*
X188246104Y-134712029D02*
X188284200Y-134673934D01*
X188284200Y-134673934D02*
X188322295Y-134597744D01*
X188322295Y-134597744D02*
X188322295Y-134292982D01*
X188322295Y-134292982D02*
X187522295Y-134292982D01*
X187522295Y-134292982D02*
X187522295Y-134559648D01*
X187522295Y-134559648D02*
X187560390Y-134635839D01*
X187560390Y-134635839D02*
X187598485Y-134673934D01*
X187598485Y-134673934D02*
X187674676Y-134712029D01*
X187674676Y-134712029D02*
X187750866Y-134712029D01*
X187750866Y-134712029D02*
X187827057Y-134673934D01*
X187827057Y-134673934D02*
X187865152Y-134635839D01*
X187865152Y-134635839D02*
X187903247Y-134559648D01*
X187903247Y-134559648D02*
X187903247Y-134292982D01*
X188322295Y-135512029D02*
X188322295Y-135054886D01*
X188322295Y-135283458D02*
X187522295Y-135283458D01*
X187522295Y-135283458D02*
X187636580Y-135207267D01*
X187636580Y-135207267D02*
X187712771Y-135131077D01*
X187712771Y-135131077D02*
X187750866Y-135054886D01*
X188322295Y-136273934D02*
X188322295Y-135816791D01*
X188322295Y-136045363D02*
X187522295Y-136045363D01*
X187522295Y-136045363D02*
X187636580Y-135969172D01*
X187636580Y-135969172D02*
X187712771Y-135892982D01*
X187712771Y-135892982D02*
X187750866Y-135816791D01*
X147774819Y-101936779D02*
X146774819Y-101936779D01*
X146774819Y-101936779D02*
X147489104Y-102270112D01*
X147489104Y-102270112D02*
X146774819Y-102603445D01*
X146774819Y-102603445D02*
X147774819Y-102603445D01*
X147251009Y-103079636D02*
X147251009Y-103412969D01*
X147774819Y-103555826D02*
X147774819Y-103079636D01*
X147774819Y-103079636D02*
X146774819Y-103079636D01*
X146774819Y-103079636D02*
X146774819Y-103555826D01*
X147774819Y-103984398D02*
X146774819Y-103984398D01*
X146774819Y-103984398D02*
X147489104Y-104317731D01*
X147489104Y-104317731D02*
X146774819Y-104651064D01*
X146774819Y-104651064D02*
X147774819Y-104651064D01*
X146870057Y-105079636D02*
X146822438Y-105127255D01*
X146822438Y-105127255D02*
X146774819Y-105222493D01*
X146774819Y-105222493D02*
X146774819Y-105460588D01*
X146774819Y-105460588D02*
X146822438Y-105555826D01*
X146822438Y-105555826D02*
X146870057Y-105603445D01*
X146870057Y-105603445D02*
X146965295Y-105651064D01*
X146965295Y-105651064D02*
X147060533Y-105651064D01*
X147060533Y-105651064D02*
X147203390Y-105603445D01*
X147203390Y-105603445D02*
X147774819Y-105032017D01*
X147774819Y-105032017D02*
X147774819Y-105651064D01*
X147108152Y-106508207D02*
X147774819Y-106508207D01*
X146727200Y-106270112D02*
X147441485Y-106032017D01*
X147441485Y-106032017D02*
X147441485Y-106651064D01*
X147679580Y-107603445D02*
X147727200Y-107555826D01*
X147727200Y-107555826D02*
X147774819Y-107412969D01*
X147774819Y-107412969D02*
X147774819Y-107317731D01*
X147774819Y-107317731D02*
X147727200Y-107174874D01*
X147727200Y-107174874D02*
X147631961Y-107079636D01*
X147631961Y-107079636D02*
X147536723Y-107032017D01*
X147536723Y-107032017D02*
X147346247Y-106984398D01*
X147346247Y-106984398D02*
X147203390Y-106984398D01*
X147203390Y-106984398D02*
X147012914Y-107032017D01*
X147012914Y-107032017D02*
X146917676Y-107079636D01*
X146917676Y-107079636D02*
X146822438Y-107174874D01*
X146822438Y-107174874D02*
X146774819Y-107317731D01*
X146774819Y-107317731D02*
X146774819Y-107412969D01*
X146774819Y-107412969D02*
X146822438Y-107555826D01*
X146822438Y-107555826D02*
X146870057Y-107603445D01*
X146774819Y-107936779D02*
X147774819Y-108603445D01*
X146774819Y-108603445D02*
X147774819Y-107936779D01*
X146774819Y-108889160D02*
X147774819Y-109555826D01*
X146774819Y-109555826D02*
X147774819Y-108889160D01*
X147774819Y-110698684D02*
X147108152Y-110698684D01*
X147298628Y-110698684D02*
X147203390Y-110746303D01*
X147203390Y-110746303D02*
X147155771Y-110793922D01*
X147155771Y-110793922D02*
X147108152Y-110889160D01*
X147108152Y-110889160D02*
X147108152Y-110984398D01*
X147727200Y-111698684D02*
X147774819Y-111603446D01*
X147774819Y-111603446D02*
X147774819Y-111412970D01*
X147774819Y-111412970D02*
X147727200Y-111317732D01*
X147727200Y-111317732D02*
X147631961Y-111270113D01*
X147631961Y-111270113D02*
X147251009Y-111270113D01*
X147251009Y-111270113D02*
X147155771Y-111317732D01*
X147155771Y-111317732D02*
X147108152Y-111412970D01*
X147108152Y-111412970D02*
X147108152Y-111603446D01*
X147108152Y-111603446D02*
X147155771Y-111698684D01*
X147155771Y-111698684D02*
X147251009Y-111746303D01*
X147251009Y-111746303D02*
X147346247Y-111746303D01*
X147346247Y-111746303D02*
X147441485Y-111270113D01*
X147108152Y-112079637D02*
X147774819Y-112317732D01*
X147774819Y-112317732D02*
X147108152Y-112555827D01*
X147679580Y-112936780D02*
X147727200Y-112984399D01*
X147727200Y-112984399D02*
X147774819Y-112936780D01*
X147774819Y-112936780D02*
X147727200Y-112889161D01*
X147727200Y-112889161D02*
X147679580Y-112936780D01*
X147679580Y-112936780D02*
X147774819Y-112936780D01*
X147774819Y-114603446D02*
X147251009Y-114603446D01*
X147251009Y-114603446D02*
X147155771Y-114555827D01*
X147155771Y-114555827D02*
X147108152Y-114460589D01*
X147108152Y-114460589D02*
X147108152Y-114270113D01*
X147108152Y-114270113D02*
X147155771Y-114174875D01*
X147727200Y-114603446D02*
X147774819Y-114508208D01*
X147774819Y-114508208D02*
X147774819Y-114270113D01*
X147774819Y-114270113D02*
X147727200Y-114174875D01*
X147727200Y-114174875D02*
X147631961Y-114127256D01*
X147631961Y-114127256D02*
X147536723Y-114127256D01*
X147536723Y-114127256D02*
X147441485Y-114174875D01*
X147441485Y-114174875D02*
X147393866Y-114270113D01*
X147393866Y-114270113D02*
X147393866Y-114508208D01*
X147393866Y-114508208D02*
X147346247Y-114603446D01*
X205302295Y-143087969D02*
X205302295Y-143583207D01*
X205302295Y-143583207D02*
X205607057Y-143316541D01*
X205607057Y-143316541D02*
X205607057Y-143430826D01*
X205607057Y-143430826D02*
X205645152Y-143507017D01*
X205645152Y-143507017D02*
X205683247Y-143545112D01*
X205683247Y-143545112D02*
X205759438Y-143583207D01*
X205759438Y-143583207D02*
X205949914Y-143583207D01*
X205949914Y-143583207D02*
X206026104Y-143545112D01*
X206026104Y-143545112D02*
X206064200Y-143507017D01*
X206064200Y-143507017D02*
X206102295Y-143430826D01*
X206102295Y-143430826D02*
X206102295Y-143202255D01*
X206102295Y-143202255D02*
X206064200Y-143126064D01*
X206064200Y-143126064D02*
X206026104Y-143087969D01*
X206026104Y-143926065D02*
X206064200Y-143964160D01*
X206064200Y-143964160D02*
X206102295Y-143926065D01*
X206102295Y-143926065D02*
X206064200Y-143887969D01*
X206064200Y-143887969D02*
X206026104Y-143926065D01*
X206026104Y-143926065D02*
X206102295Y-143926065D01*
X205302295Y-144230826D02*
X205302295Y-144726064D01*
X205302295Y-144726064D02*
X205607057Y-144459398D01*
X205607057Y-144459398D02*
X205607057Y-144573683D01*
X205607057Y-144573683D02*
X205645152Y-144649874D01*
X205645152Y-144649874D02*
X205683247Y-144687969D01*
X205683247Y-144687969D02*
X205759438Y-144726064D01*
X205759438Y-144726064D02*
X205949914Y-144726064D01*
X205949914Y-144726064D02*
X206026104Y-144687969D01*
X206026104Y-144687969D02*
X206064200Y-144649874D01*
X206064200Y-144649874D02*
X206102295Y-144573683D01*
X206102295Y-144573683D02*
X206102295Y-144345112D01*
X206102295Y-144345112D02*
X206064200Y-144268921D01*
X206064200Y-144268921D02*
X206026104Y-144230826D01*
X205302295Y-144954636D02*
X206102295Y-145221303D01*
X206102295Y-145221303D02*
X205302295Y-145487969D01*
X178162295Y-96154887D02*
X177362295Y-96154887D01*
X177362295Y-96154887D02*
X177362295Y-96459649D01*
X177362295Y-96459649D02*
X177400390Y-96535839D01*
X177400390Y-96535839D02*
X177438485Y-96573934D01*
X177438485Y-96573934D02*
X177514676Y-96612030D01*
X177514676Y-96612030D02*
X177628961Y-96612030D01*
X177628961Y-96612030D02*
X177705152Y-96573934D01*
X177705152Y-96573934D02*
X177743247Y-96535839D01*
X177743247Y-96535839D02*
X177781342Y-96459649D01*
X177781342Y-96459649D02*
X177781342Y-96154887D01*
X177743247Y-97221553D02*
X177781342Y-97335839D01*
X177781342Y-97335839D02*
X177819438Y-97373934D01*
X177819438Y-97373934D02*
X177895628Y-97412030D01*
X177895628Y-97412030D02*
X178009914Y-97412030D01*
X178009914Y-97412030D02*
X178086104Y-97373934D01*
X178086104Y-97373934D02*
X178124200Y-97335839D01*
X178124200Y-97335839D02*
X178162295Y-97259649D01*
X178162295Y-97259649D02*
X178162295Y-96954887D01*
X178162295Y-96954887D02*
X177362295Y-96954887D01*
X177362295Y-96954887D02*
X177362295Y-97221553D01*
X177362295Y-97221553D02*
X177400390Y-97297744D01*
X177400390Y-97297744D02*
X177438485Y-97335839D01*
X177438485Y-97335839D02*
X177514676Y-97373934D01*
X177514676Y-97373934D02*
X177590866Y-97373934D01*
X177590866Y-97373934D02*
X177667057Y-97335839D01*
X177667057Y-97335839D02*
X177705152Y-97297744D01*
X177705152Y-97297744D02*
X177743247Y-97221553D01*
X177743247Y-97221553D02*
X177743247Y-96954887D01*
X177628961Y-98097744D02*
X178162295Y-98097744D01*
X177324200Y-97907268D02*
X177895628Y-97716791D01*
X177895628Y-97716791D02*
X177895628Y-98212030D01*
X198482295Y-143164160D02*
X197682295Y-143164160D01*
X197682295Y-143164160D02*
X197682295Y-143468922D01*
X197682295Y-143468922D02*
X197720390Y-143545112D01*
X197720390Y-143545112D02*
X197758485Y-143583207D01*
X197758485Y-143583207D02*
X197834676Y-143621303D01*
X197834676Y-143621303D02*
X197948961Y-143621303D01*
X197948961Y-143621303D02*
X198025152Y-143583207D01*
X198025152Y-143583207D02*
X198063247Y-143545112D01*
X198063247Y-143545112D02*
X198101342Y-143468922D01*
X198101342Y-143468922D02*
X198101342Y-143164160D01*
X198406104Y-144421303D02*
X198444200Y-144383207D01*
X198444200Y-144383207D02*
X198482295Y-144268922D01*
X198482295Y-144268922D02*
X198482295Y-144192731D01*
X198482295Y-144192731D02*
X198444200Y-144078445D01*
X198444200Y-144078445D02*
X198368009Y-144002255D01*
X198368009Y-144002255D02*
X198291819Y-143964160D01*
X198291819Y-143964160D02*
X198139438Y-143926064D01*
X198139438Y-143926064D02*
X198025152Y-143926064D01*
X198025152Y-143926064D02*
X197872771Y-143964160D01*
X197872771Y-143964160D02*
X197796580Y-144002255D01*
X197796580Y-144002255D02*
X197720390Y-144078445D01*
X197720390Y-144078445D02*
X197682295Y-144192731D01*
X197682295Y-144192731D02*
X197682295Y-144268922D01*
X197682295Y-144268922D02*
X197720390Y-144383207D01*
X197720390Y-144383207D02*
X197758485Y-144421303D01*
X198025152Y-144878445D02*
X197987057Y-144802255D01*
X197987057Y-144802255D02*
X197948961Y-144764160D01*
X197948961Y-144764160D02*
X197872771Y-144726064D01*
X197872771Y-144726064D02*
X197834676Y-144726064D01*
X197834676Y-144726064D02*
X197758485Y-144764160D01*
X197758485Y-144764160D02*
X197720390Y-144802255D01*
X197720390Y-144802255D02*
X197682295Y-144878445D01*
X197682295Y-144878445D02*
X197682295Y-145030826D01*
X197682295Y-145030826D02*
X197720390Y-145107017D01*
X197720390Y-145107017D02*
X197758485Y-145145112D01*
X197758485Y-145145112D02*
X197834676Y-145183207D01*
X197834676Y-145183207D02*
X197872771Y-145183207D01*
X197872771Y-145183207D02*
X197948961Y-145145112D01*
X197948961Y-145145112D02*
X197987057Y-145107017D01*
X197987057Y-145107017D02*
X198025152Y-145030826D01*
X198025152Y-145030826D02*
X198025152Y-144878445D01*
X198025152Y-144878445D02*
X198063247Y-144802255D01*
X198063247Y-144802255D02*
X198101342Y-144764160D01*
X198101342Y-144764160D02*
X198177533Y-144726064D01*
X198177533Y-144726064D02*
X198329914Y-144726064D01*
X198329914Y-144726064D02*
X198406104Y-144764160D01*
X198406104Y-144764160D02*
X198444200Y-144802255D01*
X198444200Y-144802255D02*
X198482295Y-144878445D01*
X198482295Y-144878445D02*
X198482295Y-145030826D01*
X198482295Y-145030826D02*
X198444200Y-145107017D01*
X198444200Y-145107017D02*
X198406104Y-145145112D01*
X198406104Y-145145112D02*
X198329914Y-145183207D01*
X198329914Y-145183207D02*
X198177533Y-145183207D01*
X198177533Y-145183207D02*
X198101342Y-145145112D01*
X198101342Y-145145112D02*
X198063247Y-145107017D01*
X198063247Y-145107017D02*
X198025152Y-145030826D01*
X202762295Y-143164160D02*
X203409914Y-143164160D01*
X203409914Y-143164160D02*
X203486104Y-143202255D01*
X203486104Y-143202255D02*
X203524200Y-143240350D01*
X203524200Y-143240350D02*
X203562295Y-143316541D01*
X203562295Y-143316541D02*
X203562295Y-143468922D01*
X203562295Y-143468922D02*
X203524200Y-143545112D01*
X203524200Y-143545112D02*
X203486104Y-143583207D01*
X203486104Y-143583207D02*
X203409914Y-143621303D01*
X203409914Y-143621303D02*
X202762295Y-143621303D01*
X202762295Y-143926064D02*
X202762295Y-144421302D01*
X202762295Y-144421302D02*
X203067057Y-144154636D01*
X203067057Y-144154636D02*
X203067057Y-144268921D01*
X203067057Y-144268921D02*
X203105152Y-144345112D01*
X203105152Y-144345112D02*
X203143247Y-144383207D01*
X203143247Y-144383207D02*
X203219438Y-144421302D01*
X203219438Y-144421302D02*
X203409914Y-144421302D01*
X203409914Y-144421302D02*
X203486104Y-144383207D01*
X203486104Y-144383207D02*
X203524200Y-144345112D01*
X203524200Y-144345112D02*
X203562295Y-144268921D01*
X203562295Y-144268921D02*
X203562295Y-144040350D01*
X203562295Y-144040350D02*
X203524200Y-143964159D01*
X203524200Y-143964159D02*
X203486104Y-143926064D01*
X162503247Y-143430826D02*
X162541342Y-143545112D01*
X162541342Y-143545112D02*
X162579438Y-143583207D01*
X162579438Y-143583207D02*
X162655628Y-143621303D01*
X162655628Y-143621303D02*
X162769914Y-143621303D01*
X162769914Y-143621303D02*
X162846104Y-143583207D01*
X162846104Y-143583207D02*
X162884200Y-143545112D01*
X162884200Y-143545112D02*
X162922295Y-143468922D01*
X162922295Y-143468922D02*
X162922295Y-143164160D01*
X162922295Y-143164160D02*
X162122295Y-143164160D01*
X162122295Y-143164160D02*
X162122295Y-143430826D01*
X162122295Y-143430826D02*
X162160390Y-143507017D01*
X162160390Y-143507017D02*
X162198485Y-143545112D01*
X162198485Y-143545112D02*
X162274676Y-143583207D01*
X162274676Y-143583207D02*
X162350866Y-143583207D01*
X162350866Y-143583207D02*
X162427057Y-143545112D01*
X162427057Y-143545112D02*
X162465152Y-143507017D01*
X162465152Y-143507017D02*
X162503247Y-143430826D01*
X162503247Y-143430826D02*
X162503247Y-143164160D01*
X162122295Y-144116541D02*
X162122295Y-144268922D01*
X162122295Y-144268922D02*
X162160390Y-144345112D01*
X162160390Y-144345112D02*
X162236580Y-144421303D01*
X162236580Y-144421303D02*
X162388961Y-144459398D01*
X162388961Y-144459398D02*
X162655628Y-144459398D01*
X162655628Y-144459398D02*
X162808009Y-144421303D01*
X162808009Y-144421303D02*
X162884200Y-144345112D01*
X162884200Y-144345112D02*
X162922295Y-144268922D01*
X162922295Y-144268922D02*
X162922295Y-144116541D01*
X162922295Y-144116541D02*
X162884200Y-144040350D01*
X162884200Y-144040350D02*
X162808009Y-143964160D01*
X162808009Y-143964160D02*
X162655628Y-143926064D01*
X162655628Y-143926064D02*
X162388961Y-143926064D01*
X162388961Y-143926064D02*
X162236580Y-143964160D01*
X162236580Y-143964160D02*
X162160390Y-144040350D01*
X162160390Y-144040350D02*
X162122295Y-144116541D01*
X162122295Y-144954636D02*
X162122295Y-145030826D01*
X162122295Y-145030826D02*
X162160390Y-145107017D01*
X162160390Y-145107017D02*
X162198485Y-145145112D01*
X162198485Y-145145112D02*
X162274676Y-145183207D01*
X162274676Y-145183207D02*
X162427057Y-145221302D01*
X162427057Y-145221302D02*
X162617533Y-145221302D01*
X162617533Y-145221302D02*
X162769914Y-145183207D01*
X162769914Y-145183207D02*
X162846104Y-145145112D01*
X162846104Y-145145112D02*
X162884200Y-145107017D01*
X162884200Y-145107017D02*
X162922295Y-145030826D01*
X162922295Y-145030826D02*
X162922295Y-144954636D01*
X162922295Y-144954636D02*
X162884200Y-144878445D01*
X162884200Y-144878445D02*
X162846104Y-144840350D01*
X162846104Y-144840350D02*
X162769914Y-144802255D01*
X162769914Y-144802255D02*
X162617533Y-144764159D01*
X162617533Y-144764159D02*
X162427057Y-144764159D01*
X162427057Y-144764159D02*
X162274676Y-144802255D01*
X162274676Y-144802255D02*
X162198485Y-144840350D01*
X162198485Y-144840350D02*
X162160390Y-144878445D01*
X162160390Y-144878445D02*
X162122295Y-144954636D01*
X187522295Y-96154887D02*
X188169914Y-96154887D01*
X188169914Y-96154887D02*
X188246104Y-96192982D01*
X188246104Y-96192982D02*
X188284200Y-96231077D01*
X188284200Y-96231077D02*
X188322295Y-96307268D01*
X188322295Y-96307268D02*
X188322295Y-96459649D01*
X188322295Y-96459649D02*
X188284200Y-96535839D01*
X188284200Y-96535839D02*
X188246104Y-96573934D01*
X188246104Y-96573934D02*
X188169914Y-96612030D01*
X188169914Y-96612030D02*
X187522295Y-96612030D01*
X188322295Y-97412029D02*
X188322295Y-96954886D01*
X188322295Y-97183458D02*
X187522295Y-97183458D01*
X187522295Y-97183458D02*
X187636580Y-97107267D01*
X187636580Y-97107267D02*
X187712771Y-97031077D01*
X187712771Y-97031077D02*
X187750866Y-96954886D01*
X188322295Y-98173934D02*
X188322295Y-97716791D01*
X188322295Y-97945363D02*
X187522295Y-97945363D01*
X187522295Y-97945363D02*
X187636580Y-97869172D01*
X187636580Y-97869172D02*
X187712771Y-97792982D01*
X187712771Y-97792982D02*
X187750866Y-97716791D01*
X188322295Y-143164160D02*
X187522295Y-143164160D01*
X187522295Y-143164160D02*
X187522295Y-143468922D01*
X187522295Y-143468922D02*
X187560390Y-143545112D01*
X187560390Y-143545112D02*
X187598485Y-143583207D01*
X187598485Y-143583207D02*
X187674676Y-143621303D01*
X187674676Y-143621303D02*
X187788961Y-143621303D01*
X187788961Y-143621303D02*
X187865152Y-143583207D01*
X187865152Y-143583207D02*
X187903247Y-143545112D01*
X187903247Y-143545112D02*
X187941342Y-143468922D01*
X187941342Y-143468922D02*
X187941342Y-143164160D01*
X187903247Y-144230826D02*
X187941342Y-144345112D01*
X187941342Y-144345112D02*
X187979438Y-144383207D01*
X187979438Y-144383207D02*
X188055628Y-144421303D01*
X188055628Y-144421303D02*
X188169914Y-144421303D01*
X188169914Y-144421303D02*
X188246104Y-144383207D01*
X188246104Y-144383207D02*
X188284200Y-144345112D01*
X188284200Y-144345112D02*
X188322295Y-144268922D01*
X188322295Y-144268922D02*
X188322295Y-143964160D01*
X188322295Y-143964160D02*
X187522295Y-143964160D01*
X187522295Y-143964160D02*
X187522295Y-144230826D01*
X187522295Y-144230826D02*
X187560390Y-144307017D01*
X187560390Y-144307017D02*
X187598485Y-144345112D01*
X187598485Y-144345112D02*
X187674676Y-144383207D01*
X187674676Y-144383207D02*
X187750866Y-144383207D01*
X187750866Y-144383207D02*
X187827057Y-144345112D01*
X187827057Y-144345112D02*
X187865152Y-144307017D01*
X187865152Y-144307017D02*
X187903247Y-144230826D01*
X187903247Y-144230826D02*
X187903247Y-143964160D01*
X188322295Y-145183207D02*
X188322295Y-144726064D01*
X188322295Y-144954636D02*
X187522295Y-144954636D01*
X187522295Y-144954636D02*
X187636580Y-144878445D01*
X187636580Y-144878445D02*
X187712771Y-144802255D01*
X187712771Y-144802255D02*
X187750866Y-144726064D01*
X187522295Y-145678446D02*
X187522295Y-145754636D01*
X187522295Y-145754636D02*
X187560390Y-145830827D01*
X187560390Y-145830827D02*
X187598485Y-145868922D01*
X187598485Y-145868922D02*
X187674676Y-145907017D01*
X187674676Y-145907017D02*
X187827057Y-145945112D01*
X187827057Y-145945112D02*
X188017533Y-145945112D01*
X188017533Y-145945112D02*
X188169914Y-145907017D01*
X188169914Y-145907017D02*
X188246104Y-145868922D01*
X188246104Y-145868922D02*
X188284200Y-145830827D01*
X188284200Y-145830827D02*
X188322295Y-145754636D01*
X188322295Y-145754636D02*
X188322295Y-145678446D01*
X188322295Y-145678446D02*
X188284200Y-145602255D01*
X188284200Y-145602255D02*
X188246104Y-145564160D01*
X188246104Y-145564160D02*
X188169914Y-145526065D01*
X188169914Y-145526065D02*
X188017533Y-145487969D01*
X188017533Y-145487969D02*
X187827057Y-145487969D01*
X187827057Y-145487969D02*
X187674676Y-145526065D01*
X187674676Y-145526065D02*
X187598485Y-145564160D01*
X187598485Y-145564160D02*
X187560390Y-145602255D01*
X187560390Y-145602255D02*
X187522295Y-145678446D01*
X183242295Y-143164160D02*
X182442295Y-143164160D01*
X182442295Y-143164160D02*
X182442295Y-143468922D01*
X182442295Y-143468922D02*
X182480390Y-143545112D01*
X182480390Y-143545112D02*
X182518485Y-143583207D01*
X182518485Y-143583207D02*
X182594676Y-143621303D01*
X182594676Y-143621303D02*
X182708961Y-143621303D01*
X182708961Y-143621303D02*
X182785152Y-143583207D01*
X182785152Y-143583207D02*
X182823247Y-143545112D01*
X182823247Y-143545112D02*
X182861342Y-143468922D01*
X182861342Y-143468922D02*
X182861342Y-143164160D01*
X182823247Y-144230826D02*
X182861342Y-144345112D01*
X182861342Y-144345112D02*
X182899438Y-144383207D01*
X182899438Y-144383207D02*
X182975628Y-144421303D01*
X182975628Y-144421303D02*
X183089914Y-144421303D01*
X183089914Y-144421303D02*
X183166104Y-144383207D01*
X183166104Y-144383207D02*
X183204200Y-144345112D01*
X183204200Y-144345112D02*
X183242295Y-144268922D01*
X183242295Y-144268922D02*
X183242295Y-143964160D01*
X183242295Y-143964160D02*
X182442295Y-143964160D01*
X182442295Y-143964160D02*
X182442295Y-144230826D01*
X182442295Y-144230826D02*
X182480390Y-144307017D01*
X182480390Y-144307017D02*
X182518485Y-144345112D01*
X182518485Y-144345112D02*
X182594676Y-144383207D01*
X182594676Y-144383207D02*
X182670866Y-144383207D01*
X182670866Y-144383207D02*
X182747057Y-144345112D01*
X182747057Y-144345112D02*
X182785152Y-144307017D01*
X182785152Y-144307017D02*
X182823247Y-144230826D01*
X182823247Y-144230826D02*
X182823247Y-143964160D01*
X182442295Y-144916541D02*
X182442295Y-144992731D01*
X182442295Y-144992731D02*
X182480390Y-145068922D01*
X182480390Y-145068922D02*
X182518485Y-145107017D01*
X182518485Y-145107017D02*
X182594676Y-145145112D01*
X182594676Y-145145112D02*
X182747057Y-145183207D01*
X182747057Y-145183207D02*
X182937533Y-145183207D01*
X182937533Y-145183207D02*
X183089914Y-145145112D01*
X183089914Y-145145112D02*
X183166104Y-145107017D01*
X183166104Y-145107017D02*
X183204200Y-145068922D01*
X183204200Y-145068922D02*
X183242295Y-144992731D01*
X183242295Y-144992731D02*
X183242295Y-144916541D01*
X183242295Y-144916541D02*
X183204200Y-144840350D01*
X183204200Y-144840350D02*
X183166104Y-144802255D01*
X183166104Y-144802255D02*
X183089914Y-144764160D01*
X183089914Y-144764160D02*
X182937533Y-144726064D01*
X182937533Y-144726064D02*
X182747057Y-144726064D01*
X182747057Y-144726064D02*
X182594676Y-144764160D01*
X182594676Y-144764160D02*
X182518485Y-144802255D01*
X182518485Y-144802255D02*
X182480390Y-144840350D01*
X182480390Y-144840350D02*
X182442295Y-144916541D01*
X168002295Y-105064160D02*
X167202295Y-105064160D01*
X167202295Y-105064160D02*
X167202295Y-105368922D01*
X167202295Y-105368922D02*
X167240390Y-105445112D01*
X167240390Y-105445112D02*
X167278485Y-105483207D01*
X167278485Y-105483207D02*
X167354676Y-105521303D01*
X167354676Y-105521303D02*
X167468961Y-105521303D01*
X167468961Y-105521303D02*
X167545152Y-105483207D01*
X167545152Y-105483207D02*
X167583247Y-105445112D01*
X167583247Y-105445112D02*
X167621342Y-105368922D01*
X167621342Y-105368922D02*
X167621342Y-105064160D01*
X167926104Y-106321303D02*
X167964200Y-106283207D01*
X167964200Y-106283207D02*
X168002295Y-106168922D01*
X168002295Y-106168922D02*
X168002295Y-106092731D01*
X168002295Y-106092731D02*
X167964200Y-105978445D01*
X167964200Y-105978445D02*
X167888009Y-105902255D01*
X167888009Y-105902255D02*
X167811819Y-105864160D01*
X167811819Y-105864160D02*
X167659438Y-105826064D01*
X167659438Y-105826064D02*
X167545152Y-105826064D01*
X167545152Y-105826064D02*
X167392771Y-105864160D01*
X167392771Y-105864160D02*
X167316580Y-105902255D01*
X167316580Y-105902255D02*
X167240390Y-105978445D01*
X167240390Y-105978445D02*
X167202295Y-106092731D01*
X167202295Y-106092731D02*
X167202295Y-106168922D01*
X167202295Y-106168922D02*
X167240390Y-106283207D01*
X167240390Y-106283207D02*
X167278485Y-106321303D01*
X168002295Y-107083207D02*
X168002295Y-106626064D01*
X168002295Y-106854636D02*
X167202295Y-106854636D01*
X167202295Y-106854636D02*
X167316580Y-106778445D01*
X167316580Y-106778445D02*
X167392771Y-106702255D01*
X167392771Y-106702255D02*
X167430866Y-106626064D01*
X167202295Y-107349874D02*
X167202295Y-107845112D01*
X167202295Y-107845112D02*
X167507057Y-107578446D01*
X167507057Y-107578446D02*
X167507057Y-107692731D01*
X167507057Y-107692731D02*
X167545152Y-107768922D01*
X167545152Y-107768922D02*
X167583247Y-107807017D01*
X167583247Y-107807017D02*
X167659438Y-107845112D01*
X167659438Y-107845112D02*
X167849914Y-107845112D01*
X167849914Y-107845112D02*
X167926104Y-107807017D01*
X167926104Y-107807017D02*
X167964200Y-107768922D01*
X167964200Y-107768922D02*
X168002295Y-107692731D01*
X168002295Y-107692731D02*
X168002295Y-107464160D01*
X168002295Y-107464160D02*
X167964200Y-107387969D01*
X167964200Y-107387969D02*
X167926104Y-107349874D01*
X175622295Y-134369173D02*
X174822295Y-134369173D01*
X174822295Y-134369173D02*
X174822295Y-134673935D01*
X174822295Y-134673935D02*
X174860390Y-134750125D01*
X174860390Y-134750125D02*
X174898485Y-134788220D01*
X174898485Y-134788220D02*
X174974676Y-134826316D01*
X174974676Y-134826316D02*
X175088961Y-134826316D01*
X175088961Y-134826316D02*
X175165152Y-134788220D01*
X175165152Y-134788220D02*
X175203247Y-134750125D01*
X175203247Y-134750125D02*
X175241342Y-134673935D01*
X175241342Y-134673935D02*
X175241342Y-134369173D01*
X175393723Y-135131077D02*
X175393723Y-135512030D01*
X175622295Y-135054887D02*
X174822295Y-135321554D01*
X174822295Y-135321554D02*
X175622295Y-135588220D01*
X174822295Y-136235839D02*
X174822295Y-135854887D01*
X174822295Y-135854887D02*
X175203247Y-135816791D01*
X175203247Y-135816791D02*
X175165152Y-135854887D01*
X175165152Y-135854887D02*
X175127057Y-135931077D01*
X175127057Y-135931077D02*
X175127057Y-136121553D01*
X175127057Y-136121553D02*
X175165152Y-136197744D01*
X175165152Y-136197744D02*
X175203247Y-136235839D01*
X175203247Y-136235839D02*
X175279438Y-136273934D01*
X175279438Y-136273934D02*
X175469914Y-136273934D01*
X175469914Y-136273934D02*
X175546104Y-136235839D01*
X175546104Y-136235839D02*
X175584200Y-136197744D01*
X175584200Y-136197744D02*
X175622295Y-136121553D01*
X175622295Y-136121553D02*
X175622295Y-135931077D01*
X175622295Y-135931077D02*
X175584200Y-135854887D01*
X175584200Y-135854887D02*
X175546104Y-135816791D01*
X207880390Y-134597744D02*
X207842295Y-134521554D01*
X207842295Y-134521554D02*
X207842295Y-134407268D01*
X207842295Y-134407268D02*
X207880390Y-134292982D01*
X207880390Y-134292982D02*
X207956580Y-134216792D01*
X207956580Y-134216792D02*
X208032771Y-134178697D01*
X208032771Y-134178697D02*
X208185152Y-134140601D01*
X208185152Y-134140601D02*
X208299438Y-134140601D01*
X208299438Y-134140601D02*
X208451819Y-134178697D01*
X208451819Y-134178697D02*
X208528009Y-134216792D01*
X208528009Y-134216792D02*
X208604200Y-134292982D01*
X208604200Y-134292982D02*
X208642295Y-134407268D01*
X208642295Y-134407268D02*
X208642295Y-134483459D01*
X208642295Y-134483459D02*
X208604200Y-134597744D01*
X208604200Y-134597744D02*
X208566104Y-134635840D01*
X208566104Y-134635840D02*
X208299438Y-134635840D01*
X208299438Y-134635840D02*
X208299438Y-134483459D01*
X208642295Y-134978697D02*
X207842295Y-134978697D01*
X207842295Y-134978697D02*
X208642295Y-135435840D01*
X208642295Y-135435840D02*
X207842295Y-135435840D01*
X208642295Y-135816792D02*
X207842295Y-135816792D01*
X207842295Y-135816792D02*
X207842295Y-136007268D01*
X207842295Y-136007268D02*
X207880390Y-136121554D01*
X207880390Y-136121554D02*
X207956580Y-136197744D01*
X207956580Y-136197744D02*
X208032771Y-136235839D01*
X208032771Y-136235839D02*
X208185152Y-136273935D01*
X208185152Y-136273935D02*
X208299438Y-136273935D01*
X208299438Y-136273935D02*
X208451819Y-136235839D01*
X208451819Y-136235839D02*
X208528009Y-136197744D01*
X208528009Y-136197744D02*
X208604200Y-136121554D01*
X208604200Y-136121554D02*
X208642295Y-136007268D01*
X208642295Y-136007268D02*
X208642295Y-135816792D01*
X198482295Y-96269173D02*
X197682295Y-96269173D01*
X197682295Y-96269173D02*
X197682295Y-96573935D01*
X197682295Y-96573935D02*
X197720390Y-96650125D01*
X197720390Y-96650125D02*
X197758485Y-96688220D01*
X197758485Y-96688220D02*
X197834676Y-96726316D01*
X197834676Y-96726316D02*
X197948961Y-96726316D01*
X197948961Y-96726316D02*
X198025152Y-96688220D01*
X198025152Y-96688220D02*
X198063247Y-96650125D01*
X198063247Y-96650125D02*
X198101342Y-96573935D01*
X198101342Y-96573935D02*
X198101342Y-96269173D01*
X198253723Y-97031077D02*
X198253723Y-97412030D01*
X198482295Y-96954887D02*
X197682295Y-97221554D01*
X197682295Y-97221554D02*
X198482295Y-97488220D01*
X198025152Y-97869172D02*
X197987057Y-97792982D01*
X197987057Y-97792982D02*
X197948961Y-97754887D01*
X197948961Y-97754887D02*
X197872771Y-97716791D01*
X197872771Y-97716791D02*
X197834676Y-97716791D01*
X197834676Y-97716791D02*
X197758485Y-97754887D01*
X197758485Y-97754887D02*
X197720390Y-97792982D01*
X197720390Y-97792982D02*
X197682295Y-97869172D01*
X197682295Y-97869172D02*
X197682295Y-98021553D01*
X197682295Y-98021553D02*
X197720390Y-98097744D01*
X197720390Y-98097744D02*
X197758485Y-98135839D01*
X197758485Y-98135839D02*
X197834676Y-98173934D01*
X197834676Y-98173934D02*
X197872771Y-98173934D01*
X197872771Y-98173934D02*
X197948961Y-98135839D01*
X197948961Y-98135839D02*
X197987057Y-98097744D01*
X197987057Y-98097744D02*
X198025152Y-98021553D01*
X198025152Y-98021553D02*
X198025152Y-97869172D01*
X198025152Y-97869172D02*
X198063247Y-97792982D01*
X198063247Y-97792982D02*
X198101342Y-97754887D01*
X198101342Y-97754887D02*
X198177533Y-97716791D01*
X198177533Y-97716791D02*
X198329914Y-97716791D01*
X198329914Y-97716791D02*
X198406104Y-97754887D01*
X198406104Y-97754887D02*
X198444200Y-97792982D01*
X198444200Y-97792982D02*
X198482295Y-97869172D01*
X198482295Y-97869172D02*
X198482295Y-98021553D01*
X198482295Y-98021553D02*
X198444200Y-98097744D01*
X198444200Y-98097744D02*
X198406104Y-98135839D01*
X198406104Y-98135839D02*
X198329914Y-98173934D01*
X198329914Y-98173934D02*
X198177533Y-98173934D01*
X198177533Y-98173934D02*
X198101342Y-98135839D01*
X198101342Y-98135839D02*
X198063247Y-98097744D01*
X198063247Y-98097744D02*
X198025152Y-98021553D01*
X190862295Y-133492982D02*
X190062295Y-133492982D01*
X190062295Y-133492982D02*
X190062295Y-133797744D01*
X190062295Y-133797744D02*
X190100390Y-133873934D01*
X190100390Y-133873934D02*
X190138485Y-133912029D01*
X190138485Y-133912029D02*
X190214676Y-133950125D01*
X190214676Y-133950125D02*
X190328961Y-133950125D01*
X190328961Y-133950125D02*
X190405152Y-133912029D01*
X190405152Y-133912029D02*
X190443247Y-133873934D01*
X190443247Y-133873934D02*
X190481342Y-133797744D01*
X190481342Y-133797744D02*
X190481342Y-133492982D01*
X190443247Y-134559648D02*
X190481342Y-134673934D01*
X190481342Y-134673934D02*
X190519438Y-134712029D01*
X190519438Y-134712029D02*
X190595628Y-134750125D01*
X190595628Y-134750125D02*
X190709914Y-134750125D01*
X190709914Y-134750125D02*
X190786104Y-134712029D01*
X190786104Y-134712029D02*
X190824200Y-134673934D01*
X190824200Y-134673934D02*
X190862295Y-134597744D01*
X190862295Y-134597744D02*
X190862295Y-134292982D01*
X190862295Y-134292982D02*
X190062295Y-134292982D01*
X190062295Y-134292982D02*
X190062295Y-134559648D01*
X190062295Y-134559648D02*
X190100390Y-134635839D01*
X190100390Y-134635839D02*
X190138485Y-134673934D01*
X190138485Y-134673934D02*
X190214676Y-134712029D01*
X190214676Y-134712029D02*
X190290866Y-134712029D01*
X190290866Y-134712029D02*
X190367057Y-134673934D01*
X190367057Y-134673934D02*
X190405152Y-134635839D01*
X190405152Y-134635839D02*
X190443247Y-134559648D01*
X190443247Y-134559648D02*
X190443247Y-134292982D01*
X190862295Y-135512029D02*
X190862295Y-135054886D01*
X190862295Y-135283458D02*
X190062295Y-135283458D01*
X190062295Y-135283458D02*
X190176580Y-135207267D01*
X190176580Y-135207267D02*
X190252771Y-135131077D01*
X190252771Y-135131077D02*
X190290866Y-135054886D01*
X190062295Y-135778696D02*
X190062295Y-136273934D01*
X190062295Y-136273934D02*
X190367057Y-136007268D01*
X190367057Y-136007268D02*
X190367057Y-136121553D01*
X190367057Y-136121553D02*
X190405152Y-136197744D01*
X190405152Y-136197744D02*
X190443247Y-136235839D01*
X190443247Y-136235839D02*
X190519438Y-136273934D01*
X190519438Y-136273934D02*
X190709914Y-136273934D01*
X190709914Y-136273934D02*
X190786104Y-136235839D01*
X190786104Y-136235839D02*
X190824200Y-136197744D01*
X190824200Y-136197744D02*
X190862295Y-136121553D01*
X190862295Y-136121553D02*
X190862295Y-135892982D01*
X190862295Y-135892982D02*
X190824200Y-135816791D01*
X190824200Y-135816791D02*
X190786104Y-135778696D01*
X195942295Y-95507268D02*
X195142295Y-95507268D01*
X195142295Y-95507268D02*
X195142295Y-95812030D01*
X195142295Y-95812030D02*
X195180390Y-95888220D01*
X195180390Y-95888220D02*
X195218485Y-95926315D01*
X195218485Y-95926315D02*
X195294676Y-95964411D01*
X195294676Y-95964411D02*
X195408961Y-95964411D01*
X195408961Y-95964411D02*
X195485152Y-95926315D01*
X195485152Y-95926315D02*
X195523247Y-95888220D01*
X195523247Y-95888220D02*
X195561342Y-95812030D01*
X195561342Y-95812030D02*
X195561342Y-95507268D01*
X195713723Y-96269172D02*
X195713723Y-96650125D01*
X195942295Y-96192982D02*
X195142295Y-96459649D01*
X195142295Y-96459649D02*
X195942295Y-96726315D01*
X195942295Y-97412029D02*
X195942295Y-96954886D01*
X195942295Y-97183458D02*
X195142295Y-97183458D01*
X195142295Y-97183458D02*
X195256580Y-97107267D01*
X195256580Y-97107267D02*
X195332771Y-97031077D01*
X195332771Y-97031077D02*
X195370866Y-96954886D01*
X195142295Y-97907268D02*
X195142295Y-97983458D01*
X195142295Y-97983458D02*
X195180390Y-98059649D01*
X195180390Y-98059649D02*
X195218485Y-98097744D01*
X195218485Y-98097744D02*
X195294676Y-98135839D01*
X195294676Y-98135839D02*
X195447057Y-98173934D01*
X195447057Y-98173934D02*
X195637533Y-98173934D01*
X195637533Y-98173934D02*
X195789914Y-98135839D01*
X195789914Y-98135839D02*
X195866104Y-98097744D01*
X195866104Y-98097744D02*
X195904200Y-98059649D01*
X195904200Y-98059649D02*
X195942295Y-97983458D01*
X195942295Y-97983458D02*
X195942295Y-97907268D01*
X195942295Y-97907268D02*
X195904200Y-97831077D01*
X195904200Y-97831077D02*
X195866104Y-97792982D01*
X195866104Y-97792982D02*
X195789914Y-97754887D01*
X195789914Y-97754887D02*
X195637533Y-97716791D01*
X195637533Y-97716791D02*
X195447057Y-97716791D01*
X195447057Y-97716791D02*
X195294676Y-97754887D01*
X195294676Y-97754887D02*
X195218485Y-97792982D01*
X195218485Y-97792982D02*
X195180390Y-97831077D01*
X195180390Y-97831077D02*
X195142295Y-97907268D01*
X219164819Y-102222493D02*
X219879104Y-102222493D01*
X219879104Y-102222493D02*
X220021961Y-102174874D01*
X220021961Y-102174874D02*
X220117200Y-102079636D01*
X220117200Y-102079636D02*
X220164819Y-101936779D01*
X220164819Y-101936779D02*
X220164819Y-101841541D01*
X220164819Y-103174874D02*
X220164819Y-102698684D01*
X220164819Y-102698684D02*
X219164819Y-102698684D01*
X220069580Y-104079636D02*
X220117200Y-104032017D01*
X220117200Y-104032017D02*
X220164819Y-103889160D01*
X220164819Y-103889160D02*
X220164819Y-103793922D01*
X220164819Y-103793922D02*
X220117200Y-103651065D01*
X220117200Y-103651065D02*
X220021961Y-103555827D01*
X220021961Y-103555827D02*
X219926723Y-103508208D01*
X219926723Y-103508208D02*
X219736247Y-103460589D01*
X219736247Y-103460589D02*
X219593390Y-103460589D01*
X219593390Y-103460589D02*
X219402914Y-103508208D01*
X219402914Y-103508208D02*
X219307676Y-103555827D01*
X219307676Y-103555827D02*
X219212438Y-103651065D01*
X219212438Y-103651065D02*
X219164819Y-103793922D01*
X219164819Y-103793922D02*
X219164819Y-103889160D01*
X219164819Y-103889160D02*
X219212438Y-104032017D01*
X219212438Y-104032017D02*
X219260057Y-104079636D01*
X219164819Y-104793922D02*
X219879104Y-104793922D01*
X219879104Y-104793922D02*
X220021961Y-104746303D01*
X220021961Y-104746303D02*
X220117200Y-104651065D01*
X220117200Y-104651065D02*
X220164819Y-104508208D01*
X220164819Y-104508208D02*
X220164819Y-104412970D01*
X220164819Y-105746303D02*
X220164819Y-105270113D01*
X220164819Y-105270113D02*
X219164819Y-105270113D01*
X220069580Y-106651065D02*
X220117200Y-106603446D01*
X220117200Y-106603446D02*
X220164819Y-106460589D01*
X220164819Y-106460589D02*
X220164819Y-106365351D01*
X220164819Y-106365351D02*
X220117200Y-106222494D01*
X220117200Y-106222494D02*
X220021961Y-106127256D01*
X220021961Y-106127256D02*
X219926723Y-106079637D01*
X219926723Y-106079637D02*
X219736247Y-106032018D01*
X219736247Y-106032018D02*
X219593390Y-106032018D01*
X219593390Y-106032018D02*
X219402914Y-106079637D01*
X219402914Y-106079637D02*
X219307676Y-106127256D01*
X219307676Y-106127256D02*
X219212438Y-106222494D01*
X219212438Y-106222494D02*
X219164819Y-106365351D01*
X219164819Y-106365351D02*
X219164819Y-106460589D01*
X219164819Y-106460589D02*
X219212438Y-106603446D01*
X219212438Y-106603446D02*
X219260057Y-106651065D01*
X219164819Y-107365351D02*
X219879104Y-107365351D01*
X219879104Y-107365351D02*
X220021961Y-107317732D01*
X220021961Y-107317732D02*
X220117200Y-107222494D01*
X220117200Y-107222494D02*
X220164819Y-107079637D01*
X220164819Y-107079637D02*
X220164819Y-106984399D01*
X220164819Y-108317732D02*
X220164819Y-107841542D01*
X220164819Y-107841542D02*
X219164819Y-107841542D01*
X220069580Y-109222494D02*
X220117200Y-109174875D01*
X220117200Y-109174875D02*
X220164819Y-109032018D01*
X220164819Y-109032018D02*
X220164819Y-108936780D01*
X220164819Y-108936780D02*
X220117200Y-108793923D01*
X220117200Y-108793923D02*
X220021961Y-108698685D01*
X220021961Y-108698685D02*
X219926723Y-108651066D01*
X219926723Y-108651066D02*
X219736247Y-108603447D01*
X219736247Y-108603447D02*
X219593390Y-108603447D01*
X219593390Y-108603447D02*
X219402914Y-108651066D01*
X219402914Y-108651066D02*
X219307676Y-108698685D01*
X219307676Y-108698685D02*
X219212438Y-108793923D01*
X219212438Y-108793923D02*
X219164819Y-108936780D01*
X219164819Y-108936780D02*
X219164819Y-109032018D01*
X219164819Y-109032018D02*
X219212438Y-109174875D01*
X219212438Y-109174875D02*
X219260057Y-109222494D01*
X219164819Y-109936780D02*
X219879104Y-109936780D01*
X219879104Y-109936780D02*
X220021961Y-109889161D01*
X220021961Y-109889161D02*
X220117200Y-109793923D01*
X220117200Y-109793923D02*
X220164819Y-109651066D01*
X220164819Y-109651066D02*
X220164819Y-109555828D01*
X220164819Y-110889161D02*
X220164819Y-110412971D01*
X220164819Y-110412971D02*
X219164819Y-110412971D01*
X220069580Y-111793923D02*
X220117200Y-111746304D01*
X220117200Y-111746304D02*
X220164819Y-111603447D01*
X220164819Y-111603447D02*
X220164819Y-111508209D01*
X220164819Y-111508209D02*
X220117200Y-111365352D01*
X220117200Y-111365352D02*
X220021961Y-111270114D01*
X220021961Y-111270114D02*
X219926723Y-111222495D01*
X219926723Y-111222495D02*
X219736247Y-111174876D01*
X219736247Y-111174876D02*
X219593390Y-111174876D01*
X219593390Y-111174876D02*
X219402914Y-111222495D01*
X219402914Y-111222495D02*
X219307676Y-111270114D01*
X219307676Y-111270114D02*
X219212438Y-111365352D01*
X219212438Y-111365352D02*
X219164819Y-111508209D01*
X219164819Y-111508209D02*
X219164819Y-111603447D01*
X219164819Y-111603447D02*
X219212438Y-111746304D01*
X219212438Y-111746304D02*
X219260057Y-111793923D01*
X168002295Y-134254887D02*
X167202295Y-134254887D01*
X167202295Y-134254887D02*
X167202295Y-134559649D01*
X167202295Y-134559649D02*
X167240390Y-134635839D01*
X167240390Y-134635839D02*
X167278485Y-134673934D01*
X167278485Y-134673934D02*
X167354676Y-134712030D01*
X167354676Y-134712030D02*
X167468961Y-134712030D01*
X167468961Y-134712030D02*
X167545152Y-134673934D01*
X167545152Y-134673934D02*
X167583247Y-134635839D01*
X167583247Y-134635839D02*
X167621342Y-134559649D01*
X167621342Y-134559649D02*
X167621342Y-134254887D01*
X167926104Y-135512030D02*
X167964200Y-135473934D01*
X167964200Y-135473934D02*
X168002295Y-135359649D01*
X168002295Y-135359649D02*
X168002295Y-135283458D01*
X168002295Y-135283458D02*
X167964200Y-135169172D01*
X167964200Y-135169172D02*
X167888009Y-135092982D01*
X167888009Y-135092982D02*
X167811819Y-135054887D01*
X167811819Y-135054887D02*
X167659438Y-135016791D01*
X167659438Y-135016791D02*
X167545152Y-135016791D01*
X167545152Y-135016791D02*
X167392771Y-135054887D01*
X167392771Y-135054887D02*
X167316580Y-135092982D01*
X167316580Y-135092982D02*
X167240390Y-135169172D01*
X167240390Y-135169172D02*
X167202295Y-135283458D01*
X167202295Y-135283458D02*
X167202295Y-135359649D01*
X167202295Y-135359649D02*
X167240390Y-135473934D01*
X167240390Y-135473934D02*
X167278485Y-135512030D01*
X167202295Y-135778696D02*
X167202295Y-136273934D01*
X167202295Y-136273934D02*
X167507057Y-136007268D01*
X167507057Y-136007268D02*
X167507057Y-136121553D01*
X167507057Y-136121553D02*
X167545152Y-136197744D01*
X167545152Y-136197744D02*
X167583247Y-136235839D01*
X167583247Y-136235839D02*
X167659438Y-136273934D01*
X167659438Y-136273934D02*
X167849914Y-136273934D01*
X167849914Y-136273934D02*
X167926104Y-136235839D01*
X167926104Y-136235839D02*
X167964200Y-136197744D01*
X167964200Y-136197744D02*
X168002295Y-136121553D01*
X168002295Y-136121553D02*
X168002295Y-135892982D01*
X168002295Y-135892982D02*
X167964200Y-135816791D01*
X167964200Y-135816791D02*
X167926104Y-135778696D01*
X159582295Y-96916792D02*
X160382295Y-97183459D01*
X160382295Y-97183459D02*
X159582295Y-97450125D01*
X159963247Y-97983458D02*
X160001342Y-98097744D01*
X160001342Y-98097744D02*
X160039438Y-98135839D01*
X160039438Y-98135839D02*
X160115628Y-98173935D01*
X160115628Y-98173935D02*
X160229914Y-98173935D01*
X160229914Y-98173935D02*
X160306104Y-98135839D01*
X160306104Y-98135839D02*
X160344200Y-98097744D01*
X160344200Y-98097744D02*
X160382295Y-98021554D01*
X160382295Y-98021554D02*
X160382295Y-97716792D01*
X160382295Y-97716792D02*
X159582295Y-97716792D01*
X159582295Y-97716792D02*
X159582295Y-97983458D01*
X159582295Y-97983458D02*
X159620390Y-98059649D01*
X159620390Y-98059649D02*
X159658485Y-98097744D01*
X159658485Y-98097744D02*
X159734676Y-98135839D01*
X159734676Y-98135839D02*
X159810866Y-98135839D01*
X159810866Y-98135839D02*
X159887057Y-98097744D01*
X159887057Y-98097744D02*
X159925152Y-98059649D01*
X159925152Y-98059649D02*
X159963247Y-97983458D01*
X159963247Y-97983458D02*
X159963247Y-97716792D01*
X180702295Y-134254887D02*
X179902295Y-134254887D01*
X179902295Y-134254887D02*
X179902295Y-134559649D01*
X179902295Y-134559649D02*
X179940390Y-134635839D01*
X179940390Y-134635839D02*
X179978485Y-134673934D01*
X179978485Y-134673934D02*
X180054676Y-134712030D01*
X180054676Y-134712030D02*
X180168961Y-134712030D01*
X180168961Y-134712030D02*
X180245152Y-134673934D01*
X180245152Y-134673934D02*
X180283247Y-134635839D01*
X180283247Y-134635839D02*
X180321342Y-134559649D01*
X180321342Y-134559649D02*
X180321342Y-134254887D01*
X180626104Y-135512030D02*
X180664200Y-135473934D01*
X180664200Y-135473934D02*
X180702295Y-135359649D01*
X180702295Y-135359649D02*
X180702295Y-135283458D01*
X180702295Y-135283458D02*
X180664200Y-135169172D01*
X180664200Y-135169172D02*
X180588009Y-135092982D01*
X180588009Y-135092982D02*
X180511819Y-135054887D01*
X180511819Y-135054887D02*
X180359438Y-135016791D01*
X180359438Y-135016791D02*
X180245152Y-135016791D01*
X180245152Y-135016791D02*
X180092771Y-135054887D01*
X180092771Y-135054887D02*
X180016580Y-135092982D01*
X180016580Y-135092982D02*
X179940390Y-135169172D01*
X179940390Y-135169172D02*
X179902295Y-135283458D01*
X179902295Y-135283458D02*
X179902295Y-135359649D01*
X179902295Y-135359649D02*
X179940390Y-135473934D01*
X179940390Y-135473934D02*
X179978485Y-135512030D01*
X179902295Y-136235839D02*
X179902295Y-135854887D01*
X179902295Y-135854887D02*
X180283247Y-135816791D01*
X180283247Y-135816791D02*
X180245152Y-135854887D01*
X180245152Y-135854887D02*
X180207057Y-135931077D01*
X180207057Y-135931077D02*
X180207057Y-136121553D01*
X180207057Y-136121553D02*
X180245152Y-136197744D01*
X180245152Y-136197744D02*
X180283247Y-136235839D01*
X180283247Y-136235839D02*
X180359438Y-136273934D01*
X180359438Y-136273934D02*
X180549914Y-136273934D01*
X180549914Y-136273934D02*
X180626104Y-136235839D01*
X180626104Y-136235839D02*
X180664200Y-136197744D01*
X180664200Y-136197744D02*
X180702295Y-136121553D01*
X180702295Y-136121553D02*
X180702295Y-135931077D01*
X180702295Y-135931077D02*
X180664200Y-135854887D01*
X180664200Y-135854887D02*
X180626104Y-135816791D01*
X193402295Y-133492982D02*
X192602295Y-133492982D01*
X192602295Y-133492982D02*
X192602295Y-133797744D01*
X192602295Y-133797744D02*
X192640390Y-133873934D01*
X192640390Y-133873934D02*
X192678485Y-133912029D01*
X192678485Y-133912029D02*
X192754676Y-133950125D01*
X192754676Y-133950125D02*
X192868961Y-133950125D01*
X192868961Y-133950125D02*
X192945152Y-133912029D01*
X192945152Y-133912029D02*
X192983247Y-133873934D01*
X192983247Y-133873934D02*
X193021342Y-133797744D01*
X193021342Y-133797744D02*
X193021342Y-133492982D01*
X192983247Y-134559648D02*
X193021342Y-134673934D01*
X193021342Y-134673934D02*
X193059438Y-134712029D01*
X193059438Y-134712029D02*
X193135628Y-134750125D01*
X193135628Y-134750125D02*
X193249914Y-134750125D01*
X193249914Y-134750125D02*
X193326104Y-134712029D01*
X193326104Y-134712029D02*
X193364200Y-134673934D01*
X193364200Y-134673934D02*
X193402295Y-134597744D01*
X193402295Y-134597744D02*
X193402295Y-134292982D01*
X193402295Y-134292982D02*
X192602295Y-134292982D01*
X192602295Y-134292982D02*
X192602295Y-134559648D01*
X192602295Y-134559648D02*
X192640390Y-134635839D01*
X192640390Y-134635839D02*
X192678485Y-134673934D01*
X192678485Y-134673934D02*
X192754676Y-134712029D01*
X192754676Y-134712029D02*
X192830866Y-134712029D01*
X192830866Y-134712029D02*
X192907057Y-134673934D01*
X192907057Y-134673934D02*
X192945152Y-134635839D01*
X192945152Y-134635839D02*
X192983247Y-134559648D01*
X192983247Y-134559648D02*
X192983247Y-134292982D01*
X193402295Y-135512029D02*
X193402295Y-135054886D01*
X193402295Y-135283458D02*
X192602295Y-135283458D01*
X192602295Y-135283458D02*
X192716580Y-135207267D01*
X192716580Y-135207267D02*
X192792771Y-135131077D01*
X192792771Y-135131077D02*
X192830866Y-135054886D01*
X192602295Y-136235839D02*
X192602295Y-135854887D01*
X192602295Y-135854887D02*
X192983247Y-135816791D01*
X192983247Y-135816791D02*
X192945152Y-135854887D01*
X192945152Y-135854887D02*
X192907057Y-135931077D01*
X192907057Y-135931077D02*
X192907057Y-136121553D01*
X192907057Y-136121553D02*
X192945152Y-136197744D01*
X192945152Y-136197744D02*
X192983247Y-136235839D01*
X192983247Y-136235839D02*
X193059438Y-136273934D01*
X193059438Y-136273934D02*
X193249914Y-136273934D01*
X193249914Y-136273934D02*
X193326104Y-136235839D01*
X193326104Y-136235839D02*
X193364200Y-136197744D01*
X193364200Y-136197744D02*
X193402295Y-136121553D01*
X193402295Y-136121553D02*
X193402295Y-135931077D01*
X193402295Y-135931077D02*
X193364200Y-135854887D01*
X193364200Y-135854887D02*
X193326104Y-135816791D01*
X169742295Y-96916792D02*
X170389914Y-96916792D01*
X170389914Y-96916792D02*
X170466104Y-96954887D01*
X170466104Y-96954887D02*
X170504200Y-96992982D01*
X170504200Y-96992982D02*
X170542295Y-97069173D01*
X170542295Y-97069173D02*
X170542295Y-97221554D01*
X170542295Y-97221554D02*
X170504200Y-97297744D01*
X170504200Y-97297744D02*
X170466104Y-97335839D01*
X170466104Y-97335839D02*
X170389914Y-97373935D01*
X170389914Y-97373935D02*
X169742295Y-97373935D01*
X170542295Y-97792982D02*
X170542295Y-97945363D01*
X170542295Y-97945363D02*
X170504200Y-98021553D01*
X170504200Y-98021553D02*
X170466104Y-98059649D01*
X170466104Y-98059649D02*
X170351819Y-98135839D01*
X170351819Y-98135839D02*
X170199438Y-98173934D01*
X170199438Y-98173934D02*
X169894676Y-98173934D01*
X169894676Y-98173934D02*
X169818485Y-98135839D01*
X169818485Y-98135839D02*
X169780390Y-98097744D01*
X169780390Y-98097744D02*
X169742295Y-98021553D01*
X169742295Y-98021553D02*
X169742295Y-97869172D01*
X169742295Y-97869172D02*
X169780390Y-97792982D01*
X169780390Y-97792982D02*
X169818485Y-97754887D01*
X169818485Y-97754887D02*
X169894676Y-97716791D01*
X169894676Y-97716791D02*
X170085152Y-97716791D01*
X170085152Y-97716791D02*
X170161342Y-97754887D01*
X170161342Y-97754887D02*
X170199438Y-97792982D01*
X170199438Y-97792982D02*
X170237533Y-97869172D01*
X170237533Y-97869172D02*
X170237533Y-98021553D01*
X170237533Y-98021553D02*
X170199438Y-98097744D01*
X170199438Y-98097744D02*
X170161342Y-98135839D01*
X170161342Y-98135839D02*
X170085152Y-98173934D01*
X162122295Y-105064160D02*
X162769914Y-105064160D01*
X162769914Y-105064160D02*
X162846104Y-105102255D01*
X162846104Y-105102255D02*
X162884200Y-105140350D01*
X162884200Y-105140350D02*
X162922295Y-105216541D01*
X162922295Y-105216541D02*
X162922295Y-105368922D01*
X162922295Y-105368922D02*
X162884200Y-105445112D01*
X162884200Y-105445112D02*
X162846104Y-105483207D01*
X162846104Y-105483207D02*
X162769914Y-105521303D01*
X162769914Y-105521303D02*
X162122295Y-105521303D01*
X162122295Y-106245112D02*
X162122295Y-106092731D01*
X162122295Y-106092731D02*
X162160390Y-106016540D01*
X162160390Y-106016540D02*
X162198485Y-105978445D01*
X162198485Y-105978445D02*
X162312771Y-105902255D01*
X162312771Y-105902255D02*
X162465152Y-105864159D01*
X162465152Y-105864159D02*
X162769914Y-105864159D01*
X162769914Y-105864159D02*
X162846104Y-105902255D01*
X162846104Y-105902255D02*
X162884200Y-105940350D01*
X162884200Y-105940350D02*
X162922295Y-106016540D01*
X162922295Y-106016540D02*
X162922295Y-106168921D01*
X162922295Y-106168921D02*
X162884200Y-106245112D01*
X162884200Y-106245112D02*
X162846104Y-106283207D01*
X162846104Y-106283207D02*
X162769914Y-106321302D01*
X162769914Y-106321302D02*
X162579438Y-106321302D01*
X162579438Y-106321302D02*
X162503247Y-106283207D01*
X162503247Y-106283207D02*
X162465152Y-106245112D01*
X162465152Y-106245112D02*
X162427057Y-106168921D01*
X162427057Y-106168921D02*
X162427057Y-106016540D01*
X162427057Y-106016540D02*
X162465152Y-105940350D01*
X162465152Y-105940350D02*
X162503247Y-105902255D01*
X162503247Y-105902255D02*
X162579438Y-105864159D01*
X205340390Y-134597744D02*
X205302295Y-134521554D01*
X205302295Y-134521554D02*
X205302295Y-134407268D01*
X205302295Y-134407268D02*
X205340390Y-134292982D01*
X205340390Y-134292982D02*
X205416580Y-134216792D01*
X205416580Y-134216792D02*
X205492771Y-134178697D01*
X205492771Y-134178697D02*
X205645152Y-134140601D01*
X205645152Y-134140601D02*
X205759438Y-134140601D01*
X205759438Y-134140601D02*
X205911819Y-134178697D01*
X205911819Y-134178697D02*
X205988009Y-134216792D01*
X205988009Y-134216792D02*
X206064200Y-134292982D01*
X206064200Y-134292982D02*
X206102295Y-134407268D01*
X206102295Y-134407268D02*
X206102295Y-134483459D01*
X206102295Y-134483459D02*
X206064200Y-134597744D01*
X206064200Y-134597744D02*
X206026104Y-134635840D01*
X206026104Y-134635840D02*
X205759438Y-134635840D01*
X205759438Y-134635840D02*
X205759438Y-134483459D01*
X206102295Y-134978697D02*
X205302295Y-134978697D01*
X205302295Y-134978697D02*
X206102295Y-135435840D01*
X206102295Y-135435840D02*
X205302295Y-135435840D01*
X206102295Y-135816792D02*
X205302295Y-135816792D01*
X205302295Y-135816792D02*
X205302295Y-136007268D01*
X205302295Y-136007268D02*
X205340390Y-136121554D01*
X205340390Y-136121554D02*
X205416580Y-136197744D01*
X205416580Y-136197744D02*
X205492771Y-136235839D01*
X205492771Y-136235839D02*
X205645152Y-136273935D01*
X205645152Y-136273935D02*
X205759438Y-136273935D01*
X205759438Y-136273935D02*
X205911819Y-136235839D01*
X205911819Y-136235839D02*
X205988009Y-136197744D01*
X205988009Y-136197744D02*
X206064200Y-136121554D01*
X206064200Y-136121554D02*
X206102295Y-136007268D01*
X206102295Y-136007268D02*
X206102295Y-135816792D01*
X190862295Y-143164160D02*
X190062295Y-143164160D01*
X190062295Y-143164160D02*
X190062295Y-143468922D01*
X190062295Y-143468922D02*
X190100390Y-143545112D01*
X190100390Y-143545112D02*
X190138485Y-143583207D01*
X190138485Y-143583207D02*
X190214676Y-143621303D01*
X190214676Y-143621303D02*
X190328961Y-143621303D01*
X190328961Y-143621303D02*
X190405152Y-143583207D01*
X190405152Y-143583207D02*
X190443247Y-143545112D01*
X190443247Y-143545112D02*
X190481342Y-143468922D01*
X190481342Y-143468922D02*
X190481342Y-143164160D01*
X190443247Y-144230826D02*
X190481342Y-144345112D01*
X190481342Y-144345112D02*
X190519438Y-144383207D01*
X190519438Y-144383207D02*
X190595628Y-144421303D01*
X190595628Y-144421303D02*
X190709914Y-144421303D01*
X190709914Y-144421303D02*
X190786104Y-144383207D01*
X190786104Y-144383207D02*
X190824200Y-144345112D01*
X190824200Y-144345112D02*
X190862295Y-144268922D01*
X190862295Y-144268922D02*
X190862295Y-143964160D01*
X190862295Y-143964160D02*
X190062295Y-143964160D01*
X190062295Y-143964160D02*
X190062295Y-144230826D01*
X190062295Y-144230826D02*
X190100390Y-144307017D01*
X190100390Y-144307017D02*
X190138485Y-144345112D01*
X190138485Y-144345112D02*
X190214676Y-144383207D01*
X190214676Y-144383207D02*
X190290866Y-144383207D01*
X190290866Y-144383207D02*
X190367057Y-144345112D01*
X190367057Y-144345112D02*
X190405152Y-144307017D01*
X190405152Y-144307017D02*
X190443247Y-144230826D01*
X190443247Y-144230826D02*
X190443247Y-143964160D01*
X190862295Y-145183207D02*
X190862295Y-144726064D01*
X190862295Y-144954636D02*
X190062295Y-144954636D01*
X190062295Y-144954636D02*
X190176580Y-144878445D01*
X190176580Y-144878445D02*
X190252771Y-144802255D01*
X190252771Y-144802255D02*
X190290866Y-144726064D01*
X190138485Y-145487969D02*
X190100390Y-145526065D01*
X190100390Y-145526065D02*
X190062295Y-145602255D01*
X190062295Y-145602255D02*
X190062295Y-145792731D01*
X190062295Y-145792731D02*
X190100390Y-145868922D01*
X190100390Y-145868922D02*
X190138485Y-145907017D01*
X190138485Y-145907017D02*
X190214676Y-145945112D01*
X190214676Y-145945112D02*
X190290866Y-145945112D01*
X190290866Y-145945112D02*
X190405152Y-145907017D01*
X190405152Y-145907017D02*
X190862295Y-145449874D01*
X190862295Y-145449874D02*
X190862295Y-145945112D01*
X187522295Y-105064160D02*
X188169914Y-105064160D01*
X188169914Y-105064160D02*
X188246104Y-105102255D01*
X188246104Y-105102255D02*
X188284200Y-105140350D01*
X188284200Y-105140350D02*
X188322295Y-105216541D01*
X188322295Y-105216541D02*
X188322295Y-105368922D01*
X188322295Y-105368922D02*
X188284200Y-105445112D01*
X188284200Y-105445112D02*
X188246104Y-105483207D01*
X188246104Y-105483207D02*
X188169914Y-105521303D01*
X188169914Y-105521303D02*
X187522295Y-105521303D01*
X188322295Y-106321302D02*
X188322295Y-105864159D01*
X188322295Y-106092731D02*
X187522295Y-106092731D01*
X187522295Y-106092731D02*
X187636580Y-106016540D01*
X187636580Y-106016540D02*
X187712771Y-105940350D01*
X187712771Y-105940350D02*
X187750866Y-105864159D01*
X187598485Y-106626064D02*
X187560390Y-106664160D01*
X187560390Y-106664160D02*
X187522295Y-106740350D01*
X187522295Y-106740350D02*
X187522295Y-106930826D01*
X187522295Y-106930826D02*
X187560390Y-107007017D01*
X187560390Y-107007017D02*
X187598485Y-107045112D01*
X187598485Y-107045112D02*
X187674676Y-107083207D01*
X187674676Y-107083207D02*
X187750866Y-107083207D01*
X187750866Y-107083207D02*
X187865152Y-107045112D01*
X187865152Y-107045112D02*
X188322295Y-106587969D01*
X188322295Y-106587969D02*
X188322295Y-107083207D01*
X207842295Y-97450125D02*
X207842295Y-97069173D01*
X207842295Y-97069173D02*
X208223247Y-97031077D01*
X208223247Y-97031077D02*
X208185152Y-97069173D01*
X208185152Y-97069173D02*
X208147057Y-97145363D01*
X208147057Y-97145363D02*
X208147057Y-97335839D01*
X208147057Y-97335839D02*
X208185152Y-97412030D01*
X208185152Y-97412030D02*
X208223247Y-97450125D01*
X208223247Y-97450125D02*
X208299438Y-97488220D01*
X208299438Y-97488220D02*
X208489914Y-97488220D01*
X208489914Y-97488220D02*
X208566104Y-97450125D01*
X208566104Y-97450125D02*
X208604200Y-97412030D01*
X208604200Y-97412030D02*
X208642295Y-97335839D01*
X208642295Y-97335839D02*
X208642295Y-97145363D01*
X208642295Y-97145363D02*
X208604200Y-97069173D01*
X208604200Y-97069173D02*
X208566104Y-97031077D01*
X207842295Y-97716792D02*
X208642295Y-97983459D01*
X208642295Y-97983459D02*
X207842295Y-98250125D01*
X193402295Y-105064160D02*
X192602295Y-105064160D01*
X192602295Y-105064160D02*
X192602295Y-105368922D01*
X192602295Y-105368922D02*
X192640390Y-105445112D01*
X192640390Y-105445112D02*
X192678485Y-105483207D01*
X192678485Y-105483207D02*
X192754676Y-105521303D01*
X192754676Y-105521303D02*
X192868961Y-105521303D01*
X192868961Y-105521303D02*
X192945152Y-105483207D01*
X192945152Y-105483207D02*
X192983247Y-105445112D01*
X192983247Y-105445112D02*
X193021342Y-105368922D01*
X193021342Y-105368922D02*
X193021342Y-105064160D01*
X193173723Y-105826064D02*
X193173723Y-106207017D01*
X193402295Y-105749874D02*
X192602295Y-106016541D01*
X192602295Y-106016541D02*
X193402295Y-106283207D01*
X193402295Y-106968921D02*
X193402295Y-106511778D01*
X193402295Y-106740350D02*
X192602295Y-106740350D01*
X192602295Y-106740350D02*
X192716580Y-106664159D01*
X192716580Y-106664159D02*
X192792771Y-106587969D01*
X192792771Y-106587969D02*
X192830866Y-106511778D01*
X192602295Y-107235588D02*
X192602295Y-107730826D01*
X192602295Y-107730826D02*
X192907057Y-107464160D01*
X192907057Y-107464160D02*
X192907057Y-107578445D01*
X192907057Y-107578445D02*
X192945152Y-107654636D01*
X192945152Y-107654636D02*
X192983247Y-107692731D01*
X192983247Y-107692731D02*
X193059438Y-107730826D01*
X193059438Y-107730826D02*
X193249914Y-107730826D01*
X193249914Y-107730826D02*
X193326104Y-107692731D01*
X193326104Y-107692731D02*
X193364200Y-107654636D01*
X193364200Y-107654636D02*
X193402295Y-107578445D01*
X193402295Y-107578445D02*
X193402295Y-107349874D01*
X193402295Y-107349874D02*
X193364200Y-107273683D01*
X193364200Y-107273683D02*
X193326104Y-107235588D01*
X198482295Y-134254887D02*
X197682295Y-134254887D01*
X197682295Y-134254887D02*
X197682295Y-134559649D01*
X197682295Y-134559649D02*
X197720390Y-134635839D01*
X197720390Y-134635839D02*
X197758485Y-134673934D01*
X197758485Y-134673934D02*
X197834676Y-134712030D01*
X197834676Y-134712030D02*
X197948961Y-134712030D01*
X197948961Y-134712030D02*
X198025152Y-134673934D01*
X198025152Y-134673934D02*
X198063247Y-134635839D01*
X198063247Y-134635839D02*
X198101342Y-134559649D01*
X198101342Y-134559649D02*
X198101342Y-134254887D01*
X198406104Y-135512030D02*
X198444200Y-135473934D01*
X198444200Y-135473934D02*
X198482295Y-135359649D01*
X198482295Y-135359649D02*
X198482295Y-135283458D01*
X198482295Y-135283458D02*
X198444200Y-135169172D01*
X198444200Y-135169172D02*
X198368009Y-135092982D01*
X198368009Y-135092982D02*
X198291819Y-135054887D01*
X198291819Y-135054887D02*
X198139438Y-135016791D01*
X198139438Y-135016791D02*
X198025152Y-135016791D01*
X198025152Y-135016791D02*
X197872771Y-135054887D01*
X197872771Y-135054887D02*
X197796580Y-135092982D01*
X197796580Y-135092982D02*
X197720390Y-135169172D01*
X197720390Y-135169172D02*
X197682295Y-135283458D01*
X197682295Y-135283458D02*
X197682295Y-135359649D01*
X197682295Y-135359649D02*
X197720390Y-135473934D01*
X197720390Y-135473934D02*
X197758485Y-135512030D01*
X198482295Y-135892982D02*
X198482295Y-136045363D01*
X198482295Y-136045363D02*
X198444200Y-136121553D01*
X198444200Y-136121553D02*
X198406104Y-136159649D01*
X198406104Y-136159649D02*
X198291819Y-136235839D01*
X198291819Y-136235839D02*
X198139438Y-136273934D01*
X198139438Y-136273934D02*
X197834676Y-136273934D01*
X197834676Y-136273934D02*
X197758485Y-136235839D01*
X197758485Y-136235839D02*
X197720390Y-136197744D01*
X197720390Y-136197744D02*
X197682295Y-136121553D01*
X197682295Y-136121553D02*
X197682295Y-135969172D01*
X197682295Y-135969172D02*
X197720390Y-135892982D01*
X197720390Y-135892982D02*
X197758485Y-135854887D01*
X197758485Y-135854887D02*
X197834676Y-135816791D01*
X197834676Y-135816791D02*
X198025152Y-135816791D01*
X198025152Y-135816791D02*
X198101342Y-135854887D01*
X198101342Y-135854887D02*
X198139438Y-135892982D01*
X198139438Y-135892982D02*
X198177533Y-135969172D01*
X198177533Y-135969172D02*
X198177533Y-136121553D01*
X198177533Y-136121553D02*
X198139438Y-136197744D01*
X198139438Y-136197744D02*
X198101342Y-136235839D01*
X198101342Y-136235839D02*
X198025152Y-136273934D01*
X165462295Y-105064160D02*
X164662295Y-105064160D01*
X164662295Y-105064160D02*
X164662295Y-105368922D01*
X164662295Y-105368922D02*
X164700390Y-105445112D01*
X164700390Y-105445112D02*
X164738485Y-105483207D01*
X164738485Y-105483207D02*
X164814676Y-105521303D01*
X164814676Y-105521303D02*
X164928961Y-105521303D01*
X164928961Y-105521303D02*
X165005152Y-105483207D01*
X165005152Y-105483207D02*
X165043247Y-105445112D01*
X165043247Y-105445112D02*
X165081342Y-105368922D01*
X165081342Y-105368922D02*
X165081342Y-105064160D01*
X165386104Y-106321303D02*
X165424200Y-106283207D01*
X165424200Y-106283207D02*
X165462295Y-106168922D01*
X165462295Y-106168922D02*
X165462295Y-106092731D01*
X165462295Y-106092731D02*
X165424200Y-105978445D01*
X165424200Y-105978445D02*
X165348009Y-105902255D01*
X165348009Y-105902255D02*
X165271819Y-105864160D01*
X165271819Y-105864160D02*
X165119438Y-105826064D01*
X165119438Y-105826064D02*
X165005152Y-105826064D01*
X165005152Y-105826064D02*
X164852771Y-105864160D01*
X164852771Y-105864160D02*
X164776580Y-105902255D01*
X164776580Y-105902255D02*
X164700390Y-105978445D01*
X164700390Y-105978445D02*
X164662295Y-106092731D01*
X164662295Y-106092731D02*
X164662295Y-106168922D01*
X164662295Y-106168922D02*
X164700390Y-106283207D01*
X164700390Y-106283207D02*
X164738485Y-106321303D01*
X165462295Y-107083207D02*
X165462295Y-106626064D01*
X165462295Y-106854636D02*
X164662295Y-106854636D01*
X164662295Y-106854636D02*
X164776580Y-106778445D01*
X164776580Y-106778445D02*
X164852771Y-106702255D01*
X164852771Y-106702255D02*
X164890866Y-106626064D01*
X164662295Y-107807017D02*
X164662295Y-107426065D01*
X164662295Y-107426065D02*
X165043247Y-107387969D01*
X165043247Y-107387969D02*
X165005152Y-107426065D01*
X165005152Y-107426065D02*
X164967057Y-107502255D01*
X164967057Y-107502255D02*
X164967057Y-107692731D01*
X164967057Y-107692731D02*
X165005152Y-107768922D01*
X165005152Y-107768922D02*
X165043247Y-107807017D01*
X165043247Y-107807017D02*
X165119438Y-107845112D01*
X165119438Y-107845112D02*
X165309914Y-107845112D01*
X165309914Y-107845112D02*
X165386104Y-107807017D01*
X165386104Y-107807017D02*
X165424200Y-107768922D01*
X165424200Y-107768922D02*
X165462295Y-107692731D01*
X165462295Y-107692731D02*
X165462295Y-107502255D01*
X165462295Y-107502255D02*
X165424200Y-107426065D01*
X165424200Y-107426065D02*
X165386104Y-107387969D01*
X183242295Y-134254887D02*
X182442295Y-134254887D01*
X182442295Y-134254887D02*
X182442295Y-134559649D01*
X182442295Y-134559649D02*
X182480390Y-134635839D01*
X182480390Y-134635839D02*
X182518485Y-134673934D01*
X182518485Y-134673934D02*
X182594676Y-134712030D01*
X182594676Y-134712030D02*
X182708961Y-134712030D01*
X182708961Y-134712030D02*
X182785152Y-134673934D01*
X182785152Y-134673934D02*
X182823247Y-134635839D01*
X182823247Y-134635839D02*
X182861342Y-134559649D01*
X182861342Y-134559649D02*
X182861342Y-134254887D01*
X182823247Y-135321553D02*
X182861342Y-135435839D01*
X182861342Y-135435839D02*
X182899438Y-135473934D01*
X182899438Y-135473934D02*
X182975628Y-135512030D01*
X182975628Y-135512030D02*
X183089914Y-135512030D01*
X183089914Y-135512030D02*
X183166104Y-135473934D01*
X183166104Y-135473934D02*
X183204200Y-135435839D01*
X183204200Y-135435839D02*
X183242295Y-135359649D01*
X183242295Y-135359649D02*
X183242295Y-135054887D01*
X183242295Y-135054887D02*
X182442295Y-135054887D01*
X182442295Y-135054887D02*
X182442295Y-135321553D01*
X182442295Y-135321553D02*
X182480390Y-135397744D01*
X182480390Y-135397744D02*
X182518485Y-135435839D01*
X182518485Y-135435839D02*
X182594676Y-135473934D01*
X182594676Y-135473934D02*
X182670866Y-135473934D01*
X182670866Y-135473934D02*
X182747057Y-135435839D01*
X182747057Y-135435839D02*
X182785152Y-135397744D01*
X182785152Y-135397744D02*
X182823247Y-135321553D01*
X182823247Y-135321553D02*
X182823247Y-135054887D01*
X183242295Y-136273934D02*
X183242295Y-135816791D01*
X183242295Y-136045363D02*
X182442295Y-136045363D01*
X182442295Y-136045363D02*
X182556580Y-135969172D01*
X182556580Y-135969172D02*
X182632771Y-135892982D01*
X182632771Y-135892982D02*
X182670866Y-135816791D01*
X185782295Y-95392982D02*
X184982295Y-95392982D01*
X184982295Y-95392982D02*
X184982295Y-95697744D01*
X184982295Y-95697744D02*
X185020390Y-95773934D01*
X185020390Y-95773934D02*
X185058485Y-95812029D01*
X185058485Y-95812029D02*
X185134676Y-95850125D01*
X185134676Y-95850125D02*
X185248961Y-95850125D01*
X185248961Y-95850125D02*
X185325152Y-95812029D01*
X185325152Y-95812029D02*
X185363247Y-95773934D01*
X185363247Y-95773934D02*
X185401342Y-95697744D01*
X185401342Y-95697744D02*
X185401342Y-95392982D01*
X185706104Y-96650125D02*
X185744200Y-96612029D01*
X185744200Y-96612029D02*
X185782295Y-96497744D01*
X185782295Y-96497744D02*
X185782295Y-96421553D01*
X185782295Y-96421553D02*
X185744200Y-96307267D01*
X185744200Y-96307267D02*
X185668009Y-96231077D01*
X185668009Y-96231077D02*
X185591819Y-96192982D01*
X185591819Y-96192982D02*
X185439438Y-96154886D01*
X185439438Y-96154886D02*
X185325152Y-96154886D01*
X185325152Y-96154886D02*
X185172771Y-96192982D01*
X185172771Y-96192982D02*
X185096580Y-96231077D01*
X185096580Y-96231077D02*
X185020390Y-96307267D01*
X185020390Y-96307267D02*
X184982295Y-96421553D01*
X184982295Y-96421553D02*
X184982295Y-96497744D01*
X184982295Y-96497744D02*
X185020390Y-96612029D01*
X185020390Y-96612029D02*
X185058485Y-96650125D01*
X185782295Y-97412029D02*
X185782295Y-96954886D01*
X185782295Y-97183458D02*
X184982295Y-97183458D01*
X184982295Y-97183458D02*
X185096580Y-97107267D01*
X185096580Y-97107267D02*
X185172771Y-97031077D01*
X185172771Y-97031077D02*
X185210866Y-96954886D01*
X184982295Y-97907268D02*
X184982295Y-97983458D01*
X184982295Y-97983458D02*
X185020390Y-98059649D01*
X185020390Y-98059649D02*
X185058485Y-98097744D01*
X185058485Y-98097744D02*
X185134676Y-98135839D01*
X185134676Y-98135839D02*
X185287057Y-98173934D01*
X185287057Y-98173934D02*
X185477533Y-98173934D01*
X185477533Y-98173934D02*
X185629914Y-98135839D01*
X185629914Y-98135839D02*
X185706104Y-98097744D01*
X185706104Y-98097744D02*
X185744200Y-98059649D01*
X185744200Y-98059649D02*
X185782295Y-97983458D01*
X185782295Y-97983458D02*
X185782295Y-97907268D01*
X185782295Y-97907268D02*
X185744200Y-97831077D01*
X185744200Y-97831077D02*
X185706104Y-97792982D01*
X185706104Y-97792982D02*
X185629914Y-97754887D01*
X185629914Y-97754887D02*
X185477533Y-97716791D01*
X185477533Y-97716791D02*
X185287057Y-97716791D01*
X185287057Y-97716791D02*
X185134676Y-97754887D01*
X185134676Y-97754887D02*
X185058485Y-97792982D01*
X185058485Y-97792982D02*
X185020390Y-97831077D01*
X185020390Y-97831077D02*
X184982295Y-97907268D01*
X173082295Y-143164160D02*
X172282295Y-143164160D01*
X172282295Y-143164160D02*
X172282295Y-143468922D01*
X172282295Y-143468922D02*
X172320390Y-143545112D01*
X172320390Y-143545112D02*
X172358485Y-143583207D01*
X172358485Y-143583207D02*
X172434676Y-143621303D01*
X172434676Y-143621303D02*
X172548961Y-143621303D01*
X172548961Y-143621303D02*
X172625152Y-143583207D01*
X172625152Y-143583207D02*
X172663247Y-143545112D01*
X172663247Y-143545112D02*
X172701342Y-143468922D01*
X172701342Y-143468922D02*
X172701342Y-143164160D01*
X172853723Y-143926064D02*
X172853723Y-144307017D01*
X173082295Y-143849874D02*
X172282295Y-144116541D01*
X172282295Y-144116541D02*
X173082295Y-144383207D01*
X172358485Y-144611778D02*
X172320390Y-144649874D01*
X172320390Y-144649874D02*
X172282295Y-144726064D01*
X172282295Y-144726064D02*
X172282295Y-144916540D01*
X172282295Y-144916540D02*
X172320390Y-144992731D01*
X172320390Y-144992731D02*
X172358485Y-145030826D01*
X172358485Y-145030826D02*
X172434676Y-145068921D01*
X172434676Y-145068921D02*
X172510866Y-145068921D01*
X172510866Y-145068921D02*
X172625152Y-145030826D01*
X172625152Y-145030826D02*
X173082295Y-144573683D01*
X173082295Y-144573683D02*
X173082295Y-145068921D01*
X168002295Y-143164160D02*
X167202295Y-143164160D01*
X167202295Y-143164160D02*
X167202295Y-143468922D01*
X167202295Y-143468922D02*
X167240390Y-143545112D01*
X167240390Y-143545112D02*
X167278485Y-143583207D01*
X167278485Y-143583207D02*
X167354676Y-143621303D01*
X167354676Y-143621303D02*
X167468961Y-143621303D01*
X167468961Y-143621303D02*
X167545152Y-143583207D01*
X167545152Y-143583207D02*
X167583247Y-143545112D01*
X167583247Y-143545112D02*
X167621342Y-143468922D01*
X167621342Y-143468922D02*
X167621342Y-143164160D01*
X167926104Y-144421303D02*
X167964200Y-144383207D01*
X167964200Y-144383207D02*
X168002295Y-144268922D01*
X168002295Y-144268922D02*
X168002295Y-144192731D01*
X168002295Y-144192731D02*
X167964200Y-144078445D01*
X167964200Y-144078445D02*
X167888009Y-144002255D01*
X167888009Y-144002255D02*
X167811819Y-143964160D01*
X167811819Y-143964160D02*
X167659438Y-143926064D01*
X167659438Y-143926064D02*
X167545152Y-143926064D01*
X167545152Y-143926064D02*
X167392771Y-143964160D01*
X167392771Y-143964160D02*
X167316580Y-144002255D01*
X167316580Y-144002255D02*
X167240390Y-144078445D01*
X167240390Y-144078445D02*
X167202295Y-144192731D01*
X167202295Y-144192731D02*
X167202295Y-144268922D01*
X167202295Y-144268922D02*
X167240390Y-144383207D01*
X167240390Y-144383207D02*
X167278485Y-144421303D01*
X167278485Y-144726064D02*
X167240390Y-144764160D01*
X167240390Y-144764160D02*
X167202295Y-144840350D01*
X167202295Y-144840350D02*
X167202295Y-145030826D01*
X167202295Y-145030826D02*
X167240390Y-145107017D01*
X167240390Y-145107017D02*
X167278485Y-145145112D01*
X167278485Y-145145112D02*
X167354676Y-145183207D01*
X167354676Y-145183207D02*
X167430866Y-145183207D01*
X167430866Y-145183207D02*
X167545152Y-145145112D01*
X167545152Y-145145112D02*
X168002295Y-144687969D01*
X168002295Y-144687969D02*
X168002295Y-145183207D01*
X168002295Y-95392982D02*
X167202295Y-95392982D01*
X167202295Y-95392982D02*
X167202295Y-95697744D01*
X167202295Y-95697744D02*
X167240390Y-95773934D01*
X167240390Y-95773934D02*
X167278485Y-95812029D01*
X167278485Y-95812029D02*
X167354676Y-95850125D01*
X167354676Y-95850125D02*
X167468961Y-95850125D01*
X167468961Y-95850125D02*
X167545152Y-95812029D01*
X167545152Y-95812029D02*
X167583247Y-95773934D01*
X167583247Y-95773934D02*
X167621342Y-95697744D01*
X167621342Y-95697744D02*
X167621342Y-95392982D01*
X167926104Y-96650125D02*
X167964200Y-96612029D01*
X167964200Y-96612029D02*
X168002295Y-96497744D01*
X168002295Y-96497744D02*
X168002295Y-96421553D01*
X168002295Y-96421553D02*
X167964200Y-96307267D01*
X167964200Y-96307267D02*
X167888009Y-96231077D01*
X167888009Y-96231077D02*
X167811819Y-96192982D01*
X167811819Y-96192982D02*
X167659438Y-96154886D01*
X167659438Y-96154886D02*
X167545152Y-96154886D01*
X167545152Y-96154886D02*
X167392771Y-96192982D01*
X167392771Y-96192982D02*
X167316580Y-96231077D01*
X167316580Y-96231077D02*
X167240390Y-96307267D01*
X167240390Y-96307267D02*
X167202295Y-96421553D01*
X167202295Y-96421553D02*
X167202295Y-96497744D01*
X167202295Y-96497744D02*
X167240390Y-96612029D01*
X167240390Y-96612029D02*
X167278485Y-96650125D01*
X168002295Y-97412029D02*
X168002295Y-96954886D01*
X168002295Y-97183458D02*
X167202295Y-97183458D01*
X167202295Y-97183458D02*
X167316580Y-97107267D01*
X167316580Y-97107267D02*
X167392771Y-97031077D01*
X167392771Y-97031077D02*
X167430866Y-96954886D01*
X167468961Y-98097744D02*
X168002295Y-98097744D01*
X167164200Y-97907268D02*
X167735628Y-97716791D01*
X167735628Y-97716791D02*
X167735628Y-98212030D01*
X162122295Y-96916792D02*
X162769914Y-96916792D01*
X162769914Y-96916792D02*
X162846104Y-96954887D01*
X162846104Y-96954887D02*
X162884200Y-96992982D01*
X162884200Y-96992982D02*
X162922295Y-97069173D01*
X162922295Y-97069173D02*
X162922295Y-97221554D01*
X162922295Y-97221554D02*
X162884200Y-97297744D01*
X162884200Y-97297744D02*
X162846104Y-97335839D01*
X162846104Y-97335839D02*
X162769914Y-97373935D01*
X162769914Y-97373935D02*
X162122295Y-97373935D01*
X162122295Y-98135839D02*
X162122295Y-97754887D01*
X162122295Y-97754887D02*
X162503247Y-97716791D01*
X162503247Y-97716791D02*
X162465152Y-97754887D01*
X162465152Y-97754887D02*
X162427057Y-97831077D01*
X162427057Y-97831077D02*
X162427057Y-98021553D01*
X162427057Y-98021553D02*
X162465152Y-98097744D01*
X162465152Y-98097744D02*
X162503247Y-98135839D01*
X162503247Y-98135839D02*
X162579438Y-98173934D01*
X162579438Y-98173934D02*
X162769914Y-98173934D01*
X162769914Y-98173934D02*
X162846104Y-98135839D01*
X162846104Y-98135839D02*
X162884200Y-98097744D01*
X162884200Y-98097744D02*
X162922295Y-98021553D01*
X162922295Y-98021553D02*
X162922295Y-97831077D01*
X162922295Y-97831077D02*
X162884200Y-97754887D01*
X162884200Y-97754887D02*
X162846104Y-97716791D01*
X195942295Y-134254887D02*
X195142295Y-134254887D01*
X195142295Y-134254887D02*
X195142295Y-134559649D01*
X195142295Y-134559649D02*
X195180390Y-134635839D01*
X195180390Y-134635839D02*
X195218485Y-134673934D01*
X195218485Y-134673934D02*
X195294676Y-134712030D01*
X195294676Y-134712030D02*
X195408961Y-134712030D01*
X195408961Y-134712030D02*
X195485152Y-134673934D01*
X195485152Y-134673934D02*
X195523247Y-134635839D01*
X195523247Y-134635839D02*
X195561342Y-134559649D01*
X195561342Y-134559649D02*
X195561342Y-134254887D01*
X195866104Y-135512030D02*
X195904200Y-135473934D01*
X195904200Y-135473934D02*
X195942295Y-135359649D01*
X195942295Y-135359649D02*
X195942295Y-135283458D01*
X195942295Y-135283458D02*
X195904200Y-135169172D01*
X195904200Y-135169172D02*
X195828009Y-135092982D01*
X195828009Y-135092982D02*
X195751819Y-135054887D01*
X195751819Y-135054887D02*
X195599438Y-135016791D01*
X195599438Y-135016791D02*
X195485152Y-135016791D01*
X195485152Y-135016791D02*
X195332771Y-135054887D01*
X195332771Y-135054887D02*
X195256580Y-135092982D01*
X195256580Y-135092982D02*
X195180390Y-135169172D01*
X195180390Y-135169172D02*
X195142295Y-135283458D01*
X195142295Y-135283458D02*
X195142295Y-135359649D01*
X195142295Y-135359649D02*
X195180390Y-135473934D01*
X195180390Y-135473934D02*
X195218485Y-135512030D01*
X195142295Y-135778696D02*
X195142295Y-136312030D01*
X195142295Y-136312030D02*
X195942295Y-135969172D01*
X180702295Y-96154887D02*
X179902295Y-96154887D01*
X179902295Y-96154887D02*
X179902295Y-96459649D01*
X179902295Y-96459649D02*
X179940390Y-96535839D01*
X179940390Y-96535839D02*
X179978485Y-96573934D01*
X179978485Y-96573934D02*
X180054676Y-96612030D01*
X180054676Y-96612030D02*
X180168961Y-96612030D01*
X180168961Y-96612030D02*
X180245152Y-96573934D01*
X180245152Y-96573934D02*
X180283247Y-96535839D01*
X180283247Y-96535839D02*
X180321342Y-96459649D01*
X180321342Y-96459649D02*
X180321342Y-96154887D01*
X180702295Y-96954887D02*
X179902295Y-96954887D01*
X179902295Y-96954887D02*
X179902295Y-97145363D01*
X179902295Y-97145363D02*
X179940390Y-97259649D01*
X179940390Y-97259649D02*
X180016580Y-97335839D01*
X180016580Y-97335839D02*
X180092771Y-97373934D01*
X180092771Y-97373934D02*
X180245152Y-97412030D01*
X180245152Y-97412030D02*
X180359438Y-97412030D01*
X180359438Y-97412030D02*
X180511819Y-97373934D01*
X180511819Y-97373934D02*
X180588009Y-97335839D01*
X180588009Y-97335839D02*
X180664200Y-97259649D01*
X180664200Y-97259649D02*
X180702295Y-97145363D01*
X180702295Y-97145363D02*
X180702295Y-96954887D01*
X179978485Y-97716791D02*
X179940390Y-97754887D01*
X179940390Y-97754887D02*
X179902295Y-97831077D01*
X179902295Y-97831077D02*
X179902295Y-98021553D01*
X179902295Y-98021553D02*
X179940390Y-98097744D01*
X179940390Y-98097744D02*
X179978485Y-98135839D01*
X179978485Y-98135839D02*
X180054676Y-98173934D01*
X180054676Y-98173934D02*
X180130866Y-98173934D01*
X180130866Y-98173934D02*
X180245152Y-98135839D01*
X180245152Y-98135839D02*
X180702295Y-97678696D01*
X180702295Y-97678696D02*
X180702295Y-98173934D01*
X173082295Y-134369173D02*
X172282295Y-134369173D01*
X172282295Y-134369173D02*
X172282295Y-134673935D01*
X172282295Y-134673935D02*
X172320390Y-134750125D01*
X172320390Y-134750125D02*
X172358485Y-134788220D01*
X172358485Y-134788220D02*
X172434676Y-134826316D01*
X172434676Y-134826316D02*
X172548961Y-134826316D01*
X172548961Y-134826316D02*
X172625152Y-134788220D01*
X172625152Y-134788220D02*
X172663247Y-134750125D01*
X172663247Y-134750125D02*
X172701342Y-134673935D01*
X172701342Y-134673935D02*
X172701342Y-134369173D01*
X172853723Y-135131077D02*
X172853723Y-135512030D01*
X173082295Y-135054887D02*
X172282295Y-135321554D01*
X172282295Y-135321554D02*
X173082295Y-135588220D01*
X172282295Y-135778696D02*
X172282295Y-136273934D01*
X172282295Y-136273934D02*
X172587057Y-136007268D01*
X172587057Y-136007268D02*
X172587057Y-136121553D01*
X172587057Y-136121553D02*
X172625152Y-136197744D01*
X172625152Y-136197744D02*
X172663247Y-136235839D01*
X172663247Y-136235839D02*
X172739438Y-136273934D01*
X172739438Y-136273934D02*
X172929914Y-136273934D01*
X172929914Y-136273934D02*
X173006104Y-136235839D01*
X173006104Y-136235839D02*
X173044200Y-136197744D01*
X173044200Y-136197744D02*
X173082295Y-136121553D01*
X173082295Y-136121553D02*
X173082295Y-135892982D01*
X173082295Y-135892982D02*
X173044200Y-135816791D01*
X173044200Y-135816791D02*
X173006104Y-135778696D01*
X159620390Y-105483207D02*
X159582295Y-105407017D01*
X159582295Y-105407017D02*
X159582295Y-105292731D01*
X159582295Y-105292731D02*
X159620390Y-105178445D01*
X159620390Y-105178445D02*
X159696580Y-105102255D01*
X159696580Y-105102255D02*
X159772771Y-105064160D01*
X159772771Y-105064160D02*
X159925152Y-105026064D01*
X159925152Y-105026064D02*
X160039438Y-105026064D01*
X160039438Y-105026064D02*
X160191819Y-105064160D01*
X160191819Y-105064160D02*
X160268009Y-105102255D01*
X160268009Y-105102255D02*
X160344200Y-105178445D01*
X160344200Y-105178445D02*
X160382295Y-105292731D01*
X160382295Y-105292731D02*
X160382295Y-105368922D01*
X160382295Y-105368922D02*
X160344200Y-105483207D01*
X160344200Y-105483207D02*
X160306104Y-105521303D01*
X160306104Y-105521303D02*
X160039438Y-105521303D01*
X160039438Y-105521303D02*
X160039438Y-105368922D01*
X160382295Y-105864160D02*
X159582295Y-105864160D01*
X159582295Y-105864160D02*
X160382295Y-106321303D01*
X160382295Y-106321303D02*
X159582295Y-106321303D01*
X160382295Y-106702255D02*
X159582295Y-106702255D01*
X159582295Y-106702255D02*
X159582295Y-106892731D01*
X159582295Y-106892731D02*
X159620390Y-107007017D01*
X159620390Y-107007017D02*
X159696580Y-107083207D01*
X159696580Y-107083207D02*
X159772771Y-107121302D01*
X159772771Y-107121302D02*
X159925152Y-107159398D01*
X159925152Y-107159398D02*
X160039438Y-107159398D01*
X160039438Y-107159398D02*
X160191819Y-107121302D01*
X160191819Y-107121302D02*
X160268009Y-107083207D01*
X160268009Y-107083207D02*
X160344200Y-107007017D01*
X160344200Y-107007017D02*
X160382295Y-106892731D01*
X160382295Y-106892731D02*
X160382295Y-106702255D01*
X193402295Y-143164160D02*
X192602295Y-143164160D01*
X192602295Y-143164160D02*
X192602295Y-143468922D01*
X192602295Y-143468922D02*
X192640390Y-143545112D01*
X192640390Y-143545112D02*
X192678485Y-143583207D01*
X192678485Y-143583207D02*
X192754676Y-143621303D01*
X192754676Y-143621303D02*
X192868961Y-143621303D01*
X192868961Y-143621303D02*
X192945152Y-143583207D01*
X192945152Y-143583207D02*
X192983247Y-143545112D01*
X192983247Y-143545112D02*
X193021342Y-143468922D01*
X193021342Y-143468922D02*
X193021342Y-143164160D01*
X192983247Y-144230826D02*
X193021342Y-144345112D01*
X193021342Y-144345112D02*
X193059438Y-144383207D01*
X193059438Y-144383207D02*
X193135628Y-144421303D01*
X193135628Y-144421303D02*
X193249914Y-144421303D01*
X193249914Y-144421303D02*
X193326104Y-144383207D01*
X193326104Y-144383207D02*
X193364200Y-144345112D01*
X193364200Y-144345112D02*
X193402295Y-144268922D01*
X193402295Y-144268922D02*
X193402295Y-143964160D01*
X193402295Y-143964160D02*
X192602295Y-143964160D01*
X192602295Y-143964160D02*
X192602295Y-144230826D01*
X192602295Y-144230826D02*
X192640390Y-144307017D01*
X192640390Y-144307017D02*
X192678485Y-144345112D01*
X192678485Y-144345112D02*
X192754676Y-144383207D01*
X192754676Y-144383207D02*
X192830866Y-144383207D01*
X192830866Y-144383207D02*
X192907057Y-144345112D01*
X192907057Y-144345112D02*
X192945152Y-144307017D01*
X192945152Y-144307017D02*
X192983247Y-144230826D01*
X192983247Y-144230826D02*
X192983247Y-143964160D01*
X193402295Y-145183207D02*
X193402295Y-144726064D01*
X193402295Y-144954636D02*
X192602295Y-144954636D01*
X192602295Y-144954636D02*
X192716580Y-144878445D01*
X192716580Y-144878445D02*
X192792771Y-144802255D01*
X192792771Y-144802255D02*
X192830866Y-144726064D01*
X192868961Y-145868922D02*
X193402295Y-145868922D01*
X192564200Y-145678446D02*
X193135628Y-145487969D01*
X193135628Y-145487969D02*
X193135628Y-145983208D01*
X190862295Y-95507268D02*
X190062295Y-95507268D01*
X190062295Y-95507268D02*
X190062295Y-95812030D01*
X190062295Y-95812030D02*
X190100390Y-95888220D01*
X190100390Y-95888220D02*
X190138485Y-95926315D01*
X190138485Y-95926315D02*
X190214676Y-95964411D01*
X190214676Y-95964411D02*
X190328961Y-95964411D01*
X190328961Y-95964411D02*
X190405152Y-95926315D01*
X190405152Y-95926315D02*
X190443247Y-95888220D01*
X190443247Y-95888220D02*
X190481342Y-95812030D01*
X190481342Y-95812030D02*
X190481342Y-95507268D01*
X190633723Y-96269172D02*
X190633723Y-96650125D01*
X190862295Y-96192982D02*
X190062295Y-96459649D01*
X190062295Y-96459649D02*
X190862295Y-96726315D01*
X190862295Y-97412029D02*
X190862295Y-96954886D01*
X190862295Y-97183458D02*
X190062295Y-97183458D01*
X190062295Y-97183458D02*
X190176580Y-97107267D01*
X190176580Y-97107267D02*
X190252771Y-97031077D01*
X190252771Y-97031077D02*
X190290866Y-96954886D01*
X190328961Y-98097744D02*
X190862295Y-98097744D01*
X190024200Y-97907268D02*
X190595628Y-97716791D01*
X190595628Y-97716791D02*
X190595628Y-98212030D01*
X169742295Y-105064160D02*
X170389914Y-105064160D01*
X170389914Y-105064160D02*
X170466104Y-105102255D01*
X170466104Y-105102255D02*
X170504200Y-105140350D01*
X170504200Y-105140350D02*
X170542295Y-105216541D01*
X170542295Y-105216541D02*
X170542295Y-105368922D01*
X170542295Y-105368922D02*
X170504200Y-105445112D01*
X170504200Y-105445112D02*
X170466104Y-105483207D01*
X170466104Y-105483207D02*
X170389914Y-105521303D01*
X170389914Y-105521303D02*
X169742295Y-105521303D01*
X170542295Y-106321302D02*
X170542295Y-105864159D01*
X170542295Y-106092731D02*
X169742295Y-106092731D01*
X169742295Y-106092731D02*
X169856580Y-106016540D01*
X169856580Y-106016540D02*
X169932771Y-105940350D01*
X169932771Y-105940350D02*
X169970866Y-105864159D01*
X169742295Y-106816541D02*
X169742295Y-106892731D01*
X169742295Y-106892731D02*
X169780390Y-106968922D01*
X169780390Y-106968922D02*
X169818485Y-107007017D01*
X169818485Y-107007017D02*
X169894676Y-107045112D01*
X169894676Y-107045112D02*
X170047057Y-107083207D01*
X170047057Y-107083207D02*
X170237533Y-107083207D01*
X170237533Y-107083207D02*
X170389914Y-107045112D01*
X170389914Y-107045112D02*
X170466104Y-107007017D01*
X170466104Y-107007017D02*
X170504200Y-106968922D01*
X170504200Y-106968922D02*
X170542295Y-106892731D01*
X170542295Y-106892731D02*
X170542295Y-106816541D01*
X170542295Y-106816541D02*
X170504200Y-106740350D01*
X170504200Y-106740350D02*
X170466104Y-106702255D01*
X170466104Y-106702255D02*
X170389914Y-106664160D01*
X170389914Y-106664160D02*
X170237533Y-106626064D01*
X170237533Y-106626064D02*
X170047057Y-106626064D01*
X170047057Y-106626064D02*
X169894676Y-106664160D01*
X169894676Y-106664160D02*
X169818485Y-106702255D01*
X169818485Y-106702255D02*
X169780390Y-106740350D01*
X169780390Y-106740350D02*
X169742295Y-106816541D01*
X178162295Y-105064160D02*
X177362295Y-105064160D01*
X177362295Y-105064160D02*
X177362295Y-105368922D01*
X177362295Y-105368922D02*
X177400390Y-105445112D01*
X177400390Y-105445112D02*
X177438485Y-105483207D01*
X177438485Y-105483207D02*
X177514676Y-105521303D01*
X177514676Y-105521303D02*
X177628961Y-105521303D01*
X177628961Y-105521303D02*
X177705152Y-105483207D01*
X177705152Y-105483207D02*
X177743247Y-105445112D01*
X177743247Y-105445112D02*
X177781342Y-105368922D01*
X177781342Y-105368922D02*
X177781342Y-105064160D01*
X177743247Y-106130826D02*
X177781342Y-106245112D01*
X177781342Y-106245112D02*
X177819438Y-106283207D01*
X177819438Y-106283207D02*
X177895628Y-106321303D01*
X177895628Y-106321303D02*
X178009914Y-106321303D01*
X178009914Y-106321303D02*
X178086104Y-106283207D01*
X178086104Y-106283207D02*
X178124200Y-106245112D01*
X178124200Y-106245112D02*
X178162295Y-106168922D01*
X178162295Y-106168922D02*
X178162295Y-105864160D01*
X178162295Y-105864160D02*
X177362295Y-105864160D01*
X177362295Y-105864160D02*
X177362295Y-106130826D01*
X177362295Y-106130826D02*
X177400390Y-106207017D01*
X177400390Y-106207017D02*
X177438485Y-106245112D01*
X177438485Y-106245112D02*
X177514676Y-106283207D01*
X177514676Y-106283207D02*
X177590866Y-106283207D01*
X177590866Y-106283207D02*
X177667057Y-106245112D01*
X177667057Y-106245112D02*
X177705152Y-106207017D01*
X177705152Y-106207017D02*
X177743247Y-106130826D01*
X177743247Y-106130826D02*
X177743247Y-105864160D01*
X177362295Y-107045112D02*
X177362295Y-106664160D01*
X177362295Y-106664160D02*
X177743247Y-106626064D01*
X177743247Y-106626064D02*
X177705152Y-106664160D01*
X177705152Y-106664160D02*
X177667057Y-106740350D01*
X177667057Y-106740350D02*
X177667057Y-106930826D01*
X177667057Y-106930826D02*
X177705152Y-107007017D01*
X177705152Y-107007017D02*
X177743247Y-107045112D01*
X177743247Y-107045112D02*
X177819438Y-107083207D01*
X177819438Y-107083207D02*
X178009914Y-107083207D01*
X178009914Y-107083207D02*
X178086104Y-107045112D01*
X178086104Y-107045112D02*
X178124200Y-107007017D01*
X178124200Y-107007017D02*
X178162295Y-106930826D01*
X178162295Y-106930826D02*
X178162295Y-106740350D01*
X178162295Y-106740350D02*
X178124200Y-106664160D01*
X178124200Y-106664160D02*
X178086104Y-106626064D01*
X173082295Y-105064160D02*
X172282295Y-105064160D01*
X172282295Y-105064160D02*
X172282295Y-105368922D01*
X172282295Y-105368922D02*
X172320390Y-105445112D01*
X172320390Y-105445112D02*
X172358485Y-105483207D01*
X172358485Y-105483207D02*
X172434676Y-105521303D01*
X172434676Y-105521303D02*
X172548961Y-105521303D01*
X172548961Y-105521303D02*
X172625152Y-105483207D01*
X172625152Y-105483207D02*
X172663247Y-105445112D01*
X172663247Y-105445112D02*
X172701342Y-105368922D01*
X172701342Y-105368922D02*
X172701342Y-105064160D01*
X172663247Y-106130826D02*
X172701342Y-106245112D01*
X172701342Y-106245112D02*
X172739438Y-106283207D01*
X172739438Y-106283207D02*
X172815628Y-106321303D01*
X172815628Y-106321303D02*
X172929914Y-106321303D01*
X172929914Y-106321303D02*
X173006104Y-106283207D01*
X173006104Y-106283207D02*
X173044200Y-106245112D01*
X173044200Y-106245112D02*
X173082295Y-106168922D01*
X173082295Y-106168922D02*
X173082295Y-105864160D01*
X173082295Y-105864160D02*
X172282295Y-105864160D01*
X172282295Y-105864160D02*
X172282295Y-106130826D01*
X172282295Y-106130826D02*
X172320390Y-106207017D01*
X172320390Y-106207017D02*
X172358485Y-106245112D01*
X172358485Y-106245112D02*
X172434676Y-106283207D01*
X172434676Y-106283207D02*
X172510866Y-106283207D01*
X172510866Y-106283207D02*
X172587057Y-106245112D01*
X172587057Y-106245112D02*
X172625152Y-106207017D01*
X172625152Y-106207017D02*
X172663247Y-106130826D01*
X172663247Y-106130826D02*
X172663247Y-105864160D01*
X173082295Y-106702255D02*
X173082295Y-106854636D01*
X173082295Y-106854636D02*
X173044200Y-106930826D01*
X173044200Y-106930826D02*
X173006104Y-106968922D01*
X173006104Y-106968922D02*
X172891819Y-107045112D01*
X172891819Y-107045112D02*
X172739438Y-107083207D01*
X172739438Y-107083207D02*
X172434676Y-107083207D01*
X172434676Y-107083207D02*
X172358485Y-107045112D01*
X172358485Y-107045112D02*
X172320390Y-107007017D01*
X172320390Y-107007017D02*
X172282295Y-106930826D01*
X172282295Y-106930826D02*
X172282295Y-106778445D01*
X172282295Y-106778445D02*
X172320390Y-106702255D01*
X172320390Y-106702255D02*
X172358485Y-106664160D01*
X172358485Y-106664160D02*
X172434676Y-106626064D01*
X172434676Y-106626064D02*
X172625152Y-106626064D01*
X172625152Y-106626064D02*
X172701342Y-106664160D01*
X172701342Y-106664160D02*
X172739438Y-106702255D01*
X172739438Y-106702255D02*
X172777533Y-106778445D01*
X172777533Y-106778445D02*
X172777533Y-106930826D01*
X172777533Y-106930826D02*
X172739438Y-107007017D01*
X172739438Y-107007017D02*
X172701342Y-107045112D01*
X172701342Y-107045112D02*
X172625152Y-107083207D01*
X170542295Y-143164160D02*
X169742295Y-143164160D01*
X169742295Y-143164160D02*
X169742295Y-143468922D01*
X169742295Y-143468922D02*
X169780390Y-143545112D01*
X169780390Y-143545112D02*
X169818485Y-143583207D01*
X169818485Y-143583207D02*
X169894676Y-143621303D01*
X169894676Y-143621303D02*
X170008961Y-143621303D01*
X170008961Y-143621303D02*
X170085152Y-143583207D01*
X170085152Y-143583207D02*
X170123247Y-143545112D01*
X170123247Y-143545112D02*
X170161342Y-143468922D01*
X170161342Y-143468922D02*
X170161342Y-143164160D01*
X170313723Y-143926064D02*
X170313723Y-144307017D01*
X170542295Y-143849874D02*
X169742295Y-144116541D01*
X169742295Y-144116541D02*
X170542295Y-144383207D01*
X169742295Y-144802255D02*
X169742295Y-144878445D01*
X169742295Y-144878445D02*
X169780390Y-144954636D01*
X169780390Y-144954636D02*
X169818485Y-144992731D01*
X169818485Y-144992731D02*
X169894676Y-145030826D01*
X169894676Y-145030826D02*
X170047057Y-145068921D01*
X170047057Y-145068921D02*
X170237533Y-145068921D01*
X170237533Y-145068921D02*
X170389914Y-145030826D01*
X170389914Y-145030826D02*
X170466104Y-144992731D01*
X170466104Y-144992731D02*
X170504200Y-144954636D01*
X170504200Y-144954636D02*
X170542295Y-144878445D01*
X170542295Y-144878445D02*
X170542295Y-144802255D01*
X170542295Y-144802255D02*
X170504200Y-144726064D01*
X170504200Y-144726064D02*
X170466104Y-144687969D01*
X170466104Y-144687969D02*
X170389914Y-144649874D01*
X170389914Y-144649874D02*
X170237533Y-144611778D01*
X170237533Y-144611778D02*
X170047057Y-144611778D01*
X170047057Y-144611778D02*
X169894676Y-144649874D01*
X169894676Y-144649874D02*
X169818485Y-144687969D01*
X169818485Y-144687969D02*
X169780390Y-144726064D01*
X169780390Y-144726064D02*
X169742295Y-144802255D01*
X185782295Y-105064160D02*
X184982295Y-105064160D01*
X184982295Y-105064160D02*
X184982295Y-105368922D01*
X184982295Y-105368922D02*
X185020390Y-105445112D01*
X185020390Y-105445112D02*
X185058485Y-105483207D01*
X185058485Y-105483207D02*
X185134676Y-105521303D01*
X185134676Y-105521303D02*
X185248961Y-105521303D01*
X185248961Y-105521303D02*
X185325152Y-105483207D01*
X185325152Y-105483207D02*
X185363247Y-105445112D01*
X185363247Y-105445112D02*
X185401342Y-105368922D01*
X185401342Y-105368922D02*
X185401342Y-105064160D01*
X185706104Y-106321303D02*
X185744200Y-106283207D01*
X185744200Y-106283207D02*
X185782295Y-106168922D01*
X185782295Y-106168922D02*
X185782295Y-106092731D01*
X185782295Y-106092731D02*
X185744200Y-105978445D01*
X185744200Y-105978445D02*
X185668009Y-105902255D01*
X185668009Y-105902255D02*
X185591819Y-105864160D01*
X185591819Y-105864160D02*
X185439438Y-105826064D01*
X185439438Y-105826064D02*
X185325152Y-105826064D01*
X185325152Y-105826064D02*
X185172771Y-105864160D01*
X185172771Y-105864160D02*
X185096580Y-105902255D01*
X185096580Y-105902255D02*
X185020390Y-105978445D01*
X185020390Y-105978445D02*
X184982295Y-106092731D01*
X184982295Y-106092731D02*
X184982295Y-106168922D01*
X184982295Y-106168922D02*
X185020390Y-106283207D01*
X185020390Y-106283207D02*
X185058485Y-106321303D01*
X185782295Y-107083207D02*
X185782295Y-106626064D01*
X185782295Y-106854636D02*
X184982295Y-106854636D01*
X184982295Y-106854636D02*
X185096580Y-106778445D01*
X185096580Y-106778445D02*
X185172771Y-106702255D01*
X185172771Y-106702255D02*
X185210866Y-106626064D01*
X185782295Y-107845112D02*
X185782295Y-107387969D01*
X185782295Y-107616541D02*
X184982295Y-107616541D01*
X184982295Y-107616541D02*
X185096580Y-107540350D01*
X185096580Y-107540350D02*
X185172771Y-107464160D01*
X185172771Y-107464160D02*
X185210866Y-107387969D01*
X165462295Y-143164160D02*
X164662295Y-143164160D01*
X164662295Y-143164160D02*
X164662295Y-143468922D01*
X164662295Y-143468922D02*
X164700390Y-143545112D01*
X164700390Y-143545112D02*
X164738485Y-143583207D01*
X164738485Y-143583207D02*
X164814676Y-143621303D01*
X164814676Y-143621303D02*
X164928961Y-143621303D01*
X164928961Y-143621303D02*
X165005152Y-143583207D01*
X165005152Y-143583207D02*
X165043247Y-143545112D01*
X165043247Y-143545112D02*
X165081342Y-143468922D01*
X165081342Y-143468922D02*
X165081342Y-143164160D01*
X165386104Y-144421303D02*
X165424200Y-144383207D01*
X165424200Y-144383207D02*
X165462295Y-144268922D01*
X165462295Y-144268922D02*
X165462295Y-144192731D01*
X165462295Y-144192731D02*
X165424200Y-144078445D01*
X165424200Y-144078445D02*
X165348009Y-144002255D01*
X165348009Y-144002255D02*
X165271819Y-143964160D01*
X165271819Y-143964160D02*
X165119438Y-143926064D01*
X165119438Y-143926064D02*
X165005152Y-143926064D01*
X165005152Y-143926064D02*
X164852771Y-143964160D01*
X164852771Y-143964160D02*
X164776580Y-144002255D01*
X164776580Y-144002255D02*
X164700390Y-144078445D01*
X164700390Y-144078445D02*
X164662295Y-144192731D01*
X164662295Y-144192731D02*
X164662295Y-144268922D01*
X164662295Y-144268922D02*
X164700390Y-144383207D01*
X164700390Y-144383207D02*
X164738485Y-144421303D01*
X164662295Y-144916541D02*
X164662295Y-144992731D01*
X164662295Y-144992731D02*
X164700390Y-145068922D01*
X164700390Y-145068922D02*
X164738485Y-145107017D01*
X164738485Y-145107017D02*
X164814676Y-145145112D01*
X164814676Y-145145112D02*
X164967057Y-145183207D01*
X164967057Y-145183207D02*
X165157533Y-145183207D01*
X165157533Y-145183207D02*
X165309914Y-145145112D01*
X165309914Y-145145112D02*
X165386104Y-145107017D01*
X165386104Y-145107017D02*
X165424200Y-145068922D01*
X165424200Y-145068922D02*
X165462295Y-144992731D01*
X165462295Y-144992731D02*
X165462295Y-144916541D01*
X165462295Y-144916541D02*
X165424200Y-144840350D01*
X165424200Y-144840350D02*
X165386104Y-144802255D01*
X165386104Y-144802255D02*
X165309914Y-144764160D01*
X165309914Y-144764160D02*
X165157533Y-144726064D01*
X165157533Y-144726064D02*
X164967057Y-144726064D01*
X164967057Y-144726064D02*
X164814676Y-144764160D01*
X164814676Y-144764160D02*
X164738485Y-144802255D01*
X164738485Y-144802255D02*
X164700390Y-144840350D01*
X164700390Y-144840350D02*
X164662295Y-144916541D01*
X195942295Y-143164160D02*
X195142295Y-143164160D01*
X195142295Y-143164160D02*
X195142295Y-143468922D01*
X195142295Y-143468922D02*
X195180390Y-143545112D01*
X195180390Y-143545112D02*
X195218485Y-143583207D01*
X195218485Y-143583207D02*
X195294676Y-143621303D01*
X195294676Y-143621303D02*
X195408961Y-143621303D01*
X195408961Y-143621303D02*
X195485152Y-143583207D01*
X195485152Y-143583207D02*
X195523247Y-143545112D01*
X195523247Y-143545112D02*
X195561342Y-143468922D01*
X195561342Y-143468922D02*
X195561342Y-143164160D01*
X195866104Y-144421303D02*
X195904200Y-144383207D01*
X195904200Y-144383207D02*
X195942295Y-144268922D01*
X195942295Y-144268922D02*
X195942295Y-144192731D01*
X195942295Y-144192731D02*
X195904200Y-144078445D01*
X195904200Y-144078445D02*
X195828009Y-144002255D01*
X195828009Y-144002255D02*
X195751819Y-143964160D01*
X195751819Y-143964160D02*
X195599438Y-143926064D01*
X195599438Y-143926064D02*
X195485152Y-143926064D01*
X195485152Y-143926064D02*
X195332771Y-143964160D01*
X195332771Y-143964160D02*
X195256580Y-144002255D01*
X195256580Y-144002255D02*
X195180390Y-144078445D01*
X195180390Y-144078445D02*
X195142295Y-144192731D01*
X195142295Y-144192731D02*
X195142295Y-144268922D01*
X195142295Y-144268922D02*
X195180390Y-144383207D01*
X195180390Y-144383207D02*
X195218485Y-144421303D01*
X195142295Y-145107017D02*
X195142295Y-144954636D01*
X195142295Y-144954636D02*
X195180390Y-144878445D01*
X195180390Y-144878445D02*
X195218485Y-144840350D01*
X195218485Y-144840350D02*
X195332771Y-144764160D01*
X195332771Y-144764160D02*
X195485152Y-144726064D01*
X195485152Y-144726064D02*
X195789914Y-144726064D01*
X195789914Y-144726064D02*
X195866104Y-144764160D01*
X195866104Y-144764160D02*
X195904200Y-144802255D01*
X195904200Y-144802255D02*
X195942295Y-144878445D01*
X195942295Y-144878445D02*
X195942295Y-145030826D01*
X195942295Y-145030826D02*
X195904200Y-145107017D01*
X195904200Y-145107017D02*
X195866104Y-145145112D01*
X195866104Y-145145112D02*
X195789914Y-145183207D01*
X195789914Y-145183207D02*
X195599438Y-145183207D01*
X195599438Y-145183207D02*
X195523247Y-145145112D01*
X195523247Y-145145112D02*
X195485152Y-145107017D01*
X195485152Y-145107017D02*
X195447057Y-145030826D01*
X195447057Y-145030826D02*
X195447057Y-144878445D01*
X195447057Y-144878445D02*
X195485152Y-144802255D01*
X195485152Y-144802255D02*
X195523247Y-144764160D01*
X195523247Y-144764160D02*
X195599438Y-144726064D01*
X162922295Y-133607268D02*
X162122295Y-133607268D01*
X162122295Y-133607268D02*
X162922295Y-134064411D01*
X162922295Y-134064411D02*
X162122295Y-134064411D01*
X162922295Y-134902506D02*
X162541342Y-134635839D01*
X162922295Y-134445363D02*
X162122295Y-134445363D01*
X162122295Y-134445363D02*
X162122295Y-134750125D01*
X162122295Y-134750125D02*
X162160390Y-134826315D01*
X162160390Y-134826315D02*
X162198485Y-134864410D01*
X162198485Y-134864410D02*
X162274676Y-134902506D01*
X162274676Y-134902506D02*
X162388961Y-134902506D01*
X162388961Y-134902506D02*
X162465152Y-134864410D01*
X162465152Y-134864410D02*
X162503247Y-134826315D01*
X162503247Y-134826315D02*
X162541342Y-134750125D01*
X162541342Y-134750125D02*
X162541342Y-134445363D01*
X162884200Y-135207267D02*
X162922295Y-135321553D01*
X162922295Y-135321553D02*
X162922295Y-135512029D01*
X162922295Y-135512029D02*
X162884200Y-135588220D01*
X162884200Y-135588220D02*
X162846104Y-135626315D01*
X162846104Y-135626315D02*
X162769914Y-135664410D01*
X162769914Y-135664410D02*
X162693723Y-135664410D01*
X162693723Y-135664410D02*
X162617533Y-135626315D01*
X162617533Y-135626315D02*
X162579438Y-135588220D01*
X162579438Y-135588220D02*
X162541342Y-135512029D01*
X162541342Y-135512029D02*
X162503247Y-135359648D01*
X162503247Y-135359648D02*
X162465152Y-135283458D01*
X162465152Y-135283458D02*
X162427057Y-135245363D01*
X162427057Y-135245363D02*
X162350866Y-135207267D01*
X162350866Y-135207267D02*
X162274676Y-135207267D01*
X162274676Y-135207267D02*
X162198485Y-135245363D01*
X162198485Y-135245363D02*
X162160390Y-135283458D01*
X162160390Y-135283458D02*
X162122295Y-135359648D01*
X162122295Y-135359648D02*
X162122295Y-135550125D01*
X162122295Y-135550125D02*
X162160390Y-135664410D01*
X162122295Y-135892982D02*
X162122295Y-136350125D01*
X162922295Y-136121553D02*
X162122295Y-136121553D01*
X184982295Y-135016792D02*
X185629914Y-135016792D01*
X185629914Y-135016792D02*
X185706104Y-135054887D01*
X185706104Y-135054887D02*
X185744200Y-135092982D01*
X185744200Y-135092982D02*
X185782295Y-135169173D01*
X185782295Y-135169173D02*
X185782295Y-135321554D01*
X185782295Y-135321554D02*
X185744200Y-135397744D01*
X185744200Y-135397744D02*
X185706104Y-135435839D01*
X185706104Y-135435839D02*
X185629914Y-135473935D01*
X185629914Y-135473935D02*
X184982295Y-135473935D01*
X184982295Y-136007268D02*
X184982295Y-136083458D01*
X184982295Y-136083458D02*
X185020390Y-136159649D01*
X185020390Y-136159649D02*
X185058485Y-136197744D01*
X185058485Y-136197744D02*
X185134676Y-136235839D01*
X185134676Y-136235839D02*
X185287057Y-136273934D01*
X185287057Y-136273934D02*
X185477533Y-136273934D01*
X185477533Y-136273934D02*
X185629914Y-136235839D01*
X185629914Y-136235839D02*
X185706104Y-136197744D01*
X185706104Y-136197744D02*
X185744200Y-136159649D01*
X185744200Y-136159649D02*
X185782295Y-136083458D01*
X185782295Y-136083458D02*
X185782295Y-136007268D01*
X185782295Y-136007268D02*
X185744200Y-135931077D01*
X185744200Y-135931077D02*
X185706104Y-135892982D01*
X185706104Y-135892982D02*
X185629914Y-135854887D01*
X185629914Y-135854887D02*
X185477533Y-135816791D01*
X185477533Y-135816791D02*
X185287057Y-135816791D01*
X185287057Y-135816791D02*
X185134676Y-135854887D01*
X185134676Y-135854887D02*
X185058485Y-135892982D01*
X185058485Y-135892982D02*
X185020390Y-135931077D01*
X185020390Y-135931077D02*
X184982295Y-136007268D01*
X175622295Y-96154887D02*
X174822295Y-96154887D01*
X174822295Y-96154887D02*
X174822295Y-96459649D01*
X174822295Y-96459649D02*
X174860390Y-96535839D01*
X174860390Y-96535839D02*
X174898485Y-96573934D01*
X174898485Y-96573934D02*
X174974676Y-96612030D01*
X174974676Y-96612030D02*
X175088961Y-96612030D01*
X175088961Y-96612030D02*
X175165152Y-96573934D01*
X175165152Y-96573934D02*
X175203247Y-96535839D01*
X175203247Y-96535839D02*
X175241342Y-96459649D01*
X175241342Y-96459649D02*
X175241342Y-96154887D01*
X175203247Y-97221553D02*
X175241342Y-97335839D01*
X175241342Y-97335839D02*
X175279438Y-97373934D01*
X175279438Y-97373934D02*
X175355628Y-97412030D01*
X175355628Y-97412030D02*
X175469914Y-97412030D01*
X175469914Y-97412030D02*
X175546104Y-97373934D01*
X175546104Y-97373934D02*
X175584200Y-97335839D01*
X175584200Y-97335839D02*
X175622295Y-97259649D01*
X175622295Y-97259649D02*
X175622295Y-96954887D01*
X175622295Y-96954887D02*
X174822295Y-96954887D01*
X174822295Y-96954887D02*
X174822295Y-97221553D01*
X174822295Y-97221553D02*
X174860390Y-97297744D01*
X174860390Y-97297744D02*
X174898485Y-97335839D01*
X174898485Y-97335839D02*
X174974676Y-97373934D01*
X174974676Y-97373934D02*
X175050866Y-97373934D01*
X175050866Y-97373934D02*
X175127057Y-97335839D01*
X175127057Y-97335839D02*
X175165152Y-97297744D01*
X175165152Y-97297744D02*
X175203247Y-97221553D01*
X175203247Y-97221553D02*
X175203247Y-96954887D01*
X174822295Y-98097744D02*
X174822295Y-97945363D01*
X174822295Y-97945363D02*
X174860390Y-97869172D01*
X174860390Y-97869172D02*
X174898485Y-97831077D01*
X174898485Y-97831077D02*
X175012771Y-97754887D01*
X175012771Y-97754887D02*
X175165152Y-97716791D01*
X175165152Y-97716791D02*
X175469914Y-97716791D01*
X175469914Y-97716791D02*
X175546104Y-97754887D01*
X175546104Y-97754887D02*
X175584200Y-97792982D01*
X175584200Y-97792982D02*
X175622295Y-97869172D01*
X175622295Y-97869172D02*
X175622295Y-98021553D01*
X175622295Y-98021553D02*
X175584200Y-98097744D01*
X175584200Y-98097744D02*
X175546104Y-98135839D01*
X175546104Y-98135839D02*
X175469914Y-98173934D01*
X175469914Y-98173934D02*
X175279438Y-98173934D01*
X175279438Y-98173934D02*
X175203247Y-98135839D01*
X175203247Y-98135839D02*
X175165152Y-98097744D01*
X175165152Y-98097744D02*
X175127057Y-98021553D01*
X175127057Y-98021553D02*
X175127057Y-97869172D01*
X175127057Y-97869172D02*
X175165152Y-97792982D01*
X175165152Y-97792982D02*
X175203247Y-97754887D01*
X175203247Y-97754887D02*
X175279438Y-97716791D01*
X150314819Y-101936779D02*
X149314819Y-101936779D01*
X150314819Y-102365350D02*
X149791009Y-102365350D01*
X149791009Y-102365350D02*
X149695771Y-102317731D01*
X149695771Y-102317731D02*
X149648152Y-102222493D01*
X149648152Y-102222493D02*
X149648152Y-102079636D01*
X149648152Y-102079636D02*
X149695771Y-101984398D01*
X149695771Y-101984398D02*
X149743390Y-101936779D01*
X149648152Y-102698684D02*
X149648152Y-103079636D01*
X149314819Y-102841541D02*
X150171961Y-102841541D01*
X150171961Y-102841541D02*
X150267200Y-102889160D01*
X150267200Y-102889160D02*
X150314819Y-102984398D01*
X150314819Y-102984398D02*
X150314819Y-103079636D01*
X149648152Y-103270113D02*
X149648152Y-103651065D01*
X149314819Y-103412970D02*
X150171961Y-103412970D01*
X150171961Y-103412970D02*
X150267200Y-103460589D01*
X150267200Y-103460589D02*
X150314819Y-103555827D01*
X150314819Y-103555827D02*
X150314819Y-103651065D01*
X149648152Y-103984399D02*
X150648152Y-103984399D01*
X149695771Y-103984399D02*
X149648152Y-104079637D01*
X149648152Y-104079637D02*
X149648152Y-104270113D01*
X149648152Y-104270113D02*
X149695771Y-104365351D01*
X149695771Y-104365351D02*
X149743390Y-104412970D01*
X149743390Y-104412970D02*
X149838628Y-104460589D01*
X149838628Y-104460589D02*
X150124342Y-104460589D01*
X150124342Y-104460589D02*
X150219580Y-104412970D01*
X150219580Y-104412970D02*
X150267200Y-104365351D01*
X150267200Y-104365351D02*
X150314819Y-104270113D01*
X150314819Y-104270113D02*
X150314819Y-104079637D01*
X150314819Y-104079637D02*
X150267200Y-103984399D01*
X150267200Y-104841542D02*
X150314819Y-104936780D01*
X150314819Y-104936780D02*
X150314819Y-105127256D01*
X150314819Y-105127256D02*
X150267200Y-105222494D01*
X150267200Y-105222494D02*
X150171961Y-105270113D01*
X150171961Y-105270113D02*
X150124342Y-105270113D01*
X150124342Y-105270113D02*
X150029104Y-105222494D01*
X150029104Y-105222494D02*
X149981485Y-105127256D01*
X149981485Y-105127256D02*
X149981485Y-104984399D01*
X149981485Y-104984399D02*
X149933866Y-104889161D01*
X149933866Y-104889161D02*
X149838628Y-104841542D01*
X149838628Y-104841542D02*
X149791009Y-104841542D01*
X149791009Y-104841542D02*
X149695771Y-104889161D01*
X149695771Y-104889161D02*
X149648152Y-104984399D01*
X149648152Y-104984399D02*
X149648152Y-105127256D01*
X149648152Y-105127256D02*
X149695771Y-105222494D01*
X150219580Y-105698685D02*
X150267200Y-105746304D01*
X150267200Y-105746304D02*
X150314819Y-105698685D01*
X150314819Y-105698685D02*
X150267200Y-105651066D01*
X150267200Y-105651066D02*
X150219580Y-105698685D01*
X150219580Y-105698685D02*
X150314819Y-105698685D01*
X149695771Y-105698685D02*
X149743390Y-105746304D01*
X149743390Y-105746304D02*
X149791009Y-105698685D01*
X149791009Y-105698685D02*
X149743390Y-105651066D01*
X149743390Y-105651066D02*
X149695771Y-105698685D01*
X149695771Y-105698685D02*
X149791009Y-105698685D01*
X149267200Y-106889160D02*
X150552914Y-106032018D01*
X149267200Y-107936779D02*
X150552914Y-107079637D01*
X150267200Y-108222494D02*
X150314819Y-108317732D01*
X150314819Y-108317732D02*
X150314819Y-108508208D01*
X150314819Y-108508208D02*
X150267200Y-108603446D01*
X150267200Y-108603446D02*
X150171961Y-108651065D01*
X150171961Y-108651065D02*
X150124342Y-108651065D01*
X150124342Y-108651065D02*
X150029104Y-108603446D01*
X150029104Y-108603446D02*
X149981485Y-108508208D01*
X149981485Y-108508208D02*
X149981485Y-108365351D01*
X149981485Y-108365351D02*
X149933866Y-108270113D01*
X149933866Y-108270113D02*
X149838628Y-108222494D01*
X149838628Y-108222494D02*
X149791009Y-108222494D01*
X149791009Y-108222494D02*
X149695771Y-108270113D01*
X149695771Y-108270113D02*
X149648152Y-108365351D01*
X149648152Y-108365351D02*
X149648152Y-108508208D01*
X149648152Y-108508208D02*
X149695771Y-108603446D01*
X149648152Y-108936780D02*
X149648152Y-109317732D01*
X149314819Y-109079637D02*
X150171961Y-109079637D01*
X150171961Y-109079637D02*
X150267200Y-109127256D01*
X150267200Y-109127256D02*
X150314819Y-109222494D01*
X150314819Y-109222494D02*
X150314819Y-109317732D01*
X150314819Y-109651066D02*
X149648152Y-109651066D01*
X149743390Y-109651066D02*
X149695771Y-109698685D01*
X149695771Y-109698685D02*
X149648152Y-109793923D01*
X149648152Y-109793923D02*
X149648152Y-109936780D01*
X149648152Y-109936780D02*
X149695771Y-110032018D01*
X149695771Y-110032018D02*
X149791009Y-110079637D01*
X149791009Y-110079637D02*
X150314819Y-110079637D01*
X149791009Y-110079637D02*
X149695771Y-110127256D01*
X149695771Y-110127256D02*
X149648152Y-110222494D01*
X149648152Y-110222494D02*
X149648152Y-110365351D01*
X149648152Y-110365351D02*
X149695771Y-110460590D01*
X149695771Y-110460590D02*
X149791009Y-110508209D01*
X149791009Y-110508209D02*
X150314819Y-110508209D01*
X149314819Y-110889161D02*
X149314819Y-111508208D01*
X149314819Y-111508208D02*
X149695771Y-111174875D01*
X149695771Y-111174875D02*
X149695771Y-111317732D01*
X149695771Y-111317732D02*
X149743390Y-111412970D01*
X149743390Y-111412970D02*
X149791009Y-111460589D01*
X149791009Y-111460589D02*
X149886247Y-111508208D01*
X149886247Y-111508208D02*
X150124342Y-111508208D01*
X150124342Y-111508208D02*
X150219580Y-111460589D01*
X150219580Y-111460589D02*
X150267200Y-111412970D01*
X150267200Y-111412970D02*
X150314819Y-111317732D01*
X150314819Y-111317732D02*
X150314819Y-111032018D01*
X150314819Y-111032018D02*
X150267200Y-110936780D01*
X150267200Y-110936780D02*
X150219580Y-110889161D01*
X149410057Y-111889161D02*
X149362438Y-111936780D01*
X149362438Y-111936780D02*
X149314819Y-112032018D01*
X149314819Y-112032018D02*
X149314819Y-112270113D01*
X149314819Y-112270113D02*
X149362438Y-112365351D01*
X149362438Y-112365351D02*
X149410057Y-112412970D01*
X149410057Y-112412970D02*
X149505295Y-112460589D01*
X149505295Y-112460589D02*
X149600533Y-112460589D01*
X149600533Y-112460589D02*
X149743390Y-112412970D01*
X149743390Y-112412970D02*
X150314819Y-111841542D01*
X150314819Y-111841542D02*
X150314819Y-112460589D01*
X149648152Y-112793923D02*
X150314819Y-112984399D01*
X150314819Y-112984399D02*
X149838628Y-113174875D01*
X149838628Y-113174875D02*
X150314819Y-113365351D01*
X150314819Y-113365351D02*
X149648152Y-113555827D01*
X150314819Y-114079637D02*
X150267200Y-113984399D01*
X150267200Y-113984399D02*
X150219580Y-113936780D01*
X150219580Y-113936780D02*
X150124342Y-113889161D01*
X150124342Y-113889161D02*
X149838628Y-113889161D01*
X149838628Y-113889161D02*
X149743390Y-113936780D01*
X149743390Y-113936780D02*
X149695771Y-113984399D01*
X149695771Y-113984399D02*
X149648152Y-114079637D01*
X149648152Y-114079637D02*
X149648152Y-114222494D01*
X149648152Y-114222494D02*
X149695771Y-114317732D01*
X149695771Y-114317732D02*
X149743390Y-114365351D01*
X149743390Y-114365351D02*
X149838628Y-114412970D01*
X149838628Y-114412970D02*
X150124342Y-114412970D01*
X150124342Y-114412970D02*
X150219580Y-114365351D01*
X150219580Y-114365351D02*
X150267200Y-114317732D01*
X150267200Y-114317732D02*
X150314819Y-114222494D01*
X150314819Y-114222494D02*
X150314819Y-114079637D01*
X150314819Y-114841542D02*
X149648152Y-114841542D01*
X149838628Y-114841542D02*
X149743390Y-114889161D01*
X149743390Y-114889161D02*
X149695771Y-114936780D01*
X149695771Y-114936780D02*
X149648152Y-115032018D01*
X149648152Y-115032018D02*
X149648152Y-115127256D01*
X150314819Y-115603447D02*
X150267200Y-115508209D01*
X150267200Y-115508209D02*
X150171961Y-115460590D01*
X150171961Y-115460590D02*
X149314819Y-115460590D01*
X150314819Y-116412971D02*
X149314819Y-116412971D01*
X150267200Y-116412971D02*
X150314819Y-116317733D01*
X150314819Y-116317733D02*
X150314819Y-116127257D01*
X150314819Y-116127257D02*
X150267200Y-116032019D01*
X150267200Y-116032019D02*
X150219580Y-115984400D01*
X150219580Y-115984400D02*
X150124342Y-115936781D01*
X150124342Y-115936781D02*
X149838628Y-115936781D01*
X149838628Y-115936781D02*
X149743390Y-115984400D01*
X149743390Y-115984400D02*
X149695771Y-116032019D01*
X149695771Y-116032019D02*
X149648152Y-116127257D01*
X149648152Y-116127257D02*
X149648152Y-116317733D01*
X149648152Y-116317733D02*
X149695771Y-116412971D01*
X150219580Y-116889162D02*
X150267200Y-116936781D01*
X150267200Y-116936781D02*
X150314819Y-116889162D01*
X150314819Y-116889162D02*
X150267200Y-116841543D01*
X150267200Y-116841543D02*
X150219580Y-116889162D01*
X150219580Y-116889162D02*
X150314819Y-116889162D01*
X150267200Y-117793923D02*
X150314819Y-117698685D01*
X150314819Y-117698685D02*
X150314819Y-117508209D01*
X150314819Y-117508209D02*
X150267200Y-117412971D01*
X150267200Y-117412971D02*
X150219580Y-117365352D01*
X150219580Y-117365352D02*
X150124342Y-117317733D01*
X150124342Y-117317733D02*
X149838628Y-117317733D01*
X149838628Y-117317733D02*
X149743390Y-117365352D01*
X149743390Y-117365352D02*
X149695771Y-117412971D01*
X149695771Y-117412971D02*
X149648152Y-117508209D01*
X149648152Y-117508209D02*
X149648152Y-117698685D01*
X149648152Y-117698685D02*
X149695771Y-117793923D01*
X150314819Y-118365352D02*
X150267200Y-118270114D01*
X150267200Y-118270114D02*
X150219580Y-118222495D01*
X150219580Y-118222495D02*
X150124342Y-118174876D01*
X150124342Y-118174876D02*
X149838628Y-118174876D01*
X149838628Y-118174876D02*
X149743390Y-118222495D01*
X149743390Y-118222495D02*
X149695771Y-118270114D01*
X149695771Y-118270114D02*
X149648152Y-118365352D01*
X149648152Y-118365352D02*
X149648152Y-118508209D01*
X149648152Y-118508209D02*
X149695771Y-118603447D01*
X149695771Y-118603447D02*
X149743390Y-118651066D01*
X149743390Y-118651066D02*
X149838628Y-118698685D01*
X149838628Y-118698685D02*
X150124342Y-118698685D01*
X150124342Y-118698685D02*
X150219580Y-118651066D01*
X150219580Y-118651066D02*
X150267200Y-118603447D01*
X150267200Y-118603447D02*
X150314819Y-118508209D01*
X150314819Y-118508209D02*
X150314819Y-118365352D01*
X150314819Y-119127257D02*
X149648152Y-119127257D01*
X149743390Y-119127257D02*
X149695771Y-119174876D01*
X149695771Y-119174876D02*
X149648152Y-119270114D01*
X149648152Y-119270114D02*
X149648152Y-119412971D01*
X149648152Y-119412971D02*
X149695771Y-119508209D01*
X149695771Y-119508209D02*
X149791009Y-119555828D01*
X149791009Y-119555828D02*
X150314819Y-119555828D01*
X149791009Y-119555828D02*
X149695771Y-119603447D01*
X149695771Y-119603447D02*
X149648152Y-119698685D01*
X149648152Y-119698685D02*
X149648152Y-119841542D01*
X149648152Y-119841542D02*
X149695771Y-119936781D01*
X149695771Y-119936781D02*
X149791009Y-119984400D01*
X149791009Y-119984400D02*
X150314819Y-119984400D01*
X149267200Y-121174875D02*
X150552914Y-120317733D01*
X149648152Y-121412971D02*
X150314819Y-121603447D01*
X150314819Y-121603447D02*
X149838628Y-121793923D01*
X149838628Y-121793923D02*
X150314819Y-121984399D01*
X150314819Y-121984399D02*
X149648152Y-122174875D01*
X150314819Y-122555828D02*
X149648152Y-122555828D01*
X149314819Y-122555828D02*
X149362438Y-122508209D01*
X149362438Y-122508209D02*
X149410057Y-122555828D01*
X149410057Y-122555828D02*
X149362438Y-122603447D01*
X149362438Y-122603447D02*
X149314819Y-122555828D01*
X149314819Y-122555828D02*
X149410057Y-122555828D01*
X150314819Y-123032018D02*
X149314819Y-123032018D01*
X149933866Y-123127256D02*
X150314819Y-123412970D01*
X149648152Y-123412970D02*
X150029104Y-123032018D01*
X150314819Y-123841542D02*
X149648152Y-123841542D01*
X149314819Y-123841542D02*
X149362438Y-123793923D01*
X149362438Y-123793923D02*
X149410057Y-123841542D01*
X149410057Y-123841542D02*
X149362438Y-123889161D01*
X149362438Y-123889161D02*
X149314819Y-123841542D01*
X149314819Y-123841542D02*
X149410057Y-123841542D01*
X149267200Y-125032017D02*
X150552914Y-124174875D01*
X150314819Y-125365351D02*
X149314819Y-125365351D01*
X149314819Y-125365351D02*
X150029104Y-125698684D01*
X150029104Y-125698684D02*
X149314819Y-126032017D01*
X149314819Y-126032017D02*
X150314819Y-126032017D01*
X149791009Y-126508208D02*
X149791009Y-126841541D01*
X150314819Y-126984398D02*
X150314819Y-126508208D01*
X150314819Y-126508208D02*
X149314819Y-126508208D01*
X149314819Y-126508208D02*
X149314819Y-126984398D01*
X150314819Y-127412970D02*
X149314819Y-127412970D01*
X149314819Y-127412970D02*
X150029104Y-127746303D01*
X150029104Y-127746303D02*
X149314819Y-128079636D01*
X149314819Y-128079636D02*
X150314819Y-128079636D01*
X149410057Y-128508208D02*
X149362438Y-128555827D01*
X149362438Y-128555827D02*
X149314819Y-128651065D01*
X149314819Y-128651065D02*
X149314819Y-128889160D01*
X149314819Y-128889160D02*
X149362438Y-128984398D01*
X149362438Y-128984398D02*
X149410057Y-129032017D01*
X149410057Y-129032017D02*
X149505295Y-129079636D01*
X149505295Y-129079636D02*
X149600533Y-129079636D01*
X149600533Y-129079636D02*
X149743390Y-129032017D01*
X149743390Y-129032017D02*
X150314819Y-128460589D01*
X150314819Y-128460589D02*
X150314819Y-129079636D01*
X149648152Y-129936779D02*
X150314819Y-129936779D01*
X149267200Y-129698684D02*
X149981485Y-129460589D01*
X149981485Y-129460589D02*
X149981485Y-130079636D01*
X150219580Y-131032017D02*
X150267200Y-130984398D01*
X150267200Y-130984398D02*
X150314819Y-130841541D01*
X150314819Y-130841541D02*
X150314819Y-130746303D01*
X150314819Y-130746303D02*
X150267200Y-130603446D01*
X150267200Y-130603446D02*
X150171961Y-130508208D01*
X150171961Y-130508208D02*
X150076723Y-130460589D01*
X150076723Y-130460589D02*
X149886247Y-130412970D01*
X149886247Y-130412970D02*
X149743390Y-130412970D01*
X149743390Y-130412970D02*
X149552914Y-130460589D01*
X149552914Y-130460589D02*
X149457676Y-130508208D01*
X149457676Y-130508208D02*
X149362438Y-130603446D01*
X149362438Y-130603446D02*
X149314819Y-130746303D01*
X149314819Y-130746303D02*
X149314819Y-130841541D01*
X149314819Y-130841541D02*
X149362438Y-130984398D01*
X149362438Y-130984398D02*
X149410057Y-131032017D01*
X149314819Y-131365351D02*
X150314819Y-132032017D01*
X149314819Y-132032017D02*
X150314819Y-131365351D01*
X149314819Y-132317732D02*
X150314819Y-132984398D01*
X149314819Y-132984398D02*
X150314819Y-132317732D01*
X159582295Y-143049874D02*
X160382295Y-143316541D01*
X160382295Y-143316541D02*
X159582295Y-143583207D01*
X160153723Y-143811778D02*
X160153723Y-144192731D01*
X160382295Y-143735588D02*
X159582295Y-144002255D01*
X159582295Y-144002255D02*
X160382295Y-144268921D01*
X200222295Y-96154887D02*
X200869914Y-96154887D01*
X200869914Y-96154887D02*
X200946104Y-96192982D01*
X200946104Y-96192982D02*
X200984200Y-96231077D01*
X200984200Y-96231077D02*
X201022295Y-96307268D01*
X201022295Y-96307268D02*
X201022295Y-96459649D01*
X201022295Y-96459649D02*
X200984200Y-96535839D01*
X200984200Y-96535839D02*
X200946104Y-96573934D01*
X200946104Y-96573934D02*
X200869914Y-96612030D01*
X200869914Y-96612030D02*
X200222295Y-96612030D01*
X201022295Y-97412029D02*
X201022295Y-96954886D01*
X201022295Y-97183458D02*
X200222295Y-97183458D01*
X200222295Y-97183458D02*
X200336580Y-97107267D01*
X200336580Y-97107267D02*
X200412771Y-97031077D01*
X200412771Y-97031077D02*
X200450866Y-96954886D01*
X200222295Y-97678696D02*
X200222295Y-98173934D01*
X200222295Y-98173934D02*
X200527057Y-97907268D01*
X200527057Y-97907268D02*
X200527057Y-98021553D01*
X200527057Y-98021553D02*
X200565152Y-98097744D01*
X200565152Y-98097744D02*
X200603247Y-98135839D01*
X200603247Y-98135839D02*
X200679438Y-98173934D01*
X200679438Y-98173934D02*
X200869914Y-98173934D01*
X200869914Y-98173934D02*
X200946104Y-98135839D01*
X200946104Y-98135839D02*
X200984200Y-98097744D01*
X200984200Y-98097744D02*
X201022295Y-98021553D01*
X201022295Y-98021553D02*
X201022295Y-97792982D01*
X201022295Y-97792982D02*
X200984200Y-97716791D01*
X200984200Y-97716791D02*
X200946104Y-97678696D01*
X164662295Y-96916792D02*
X165309914Y-96916792D01*
X165309914Y-96916792D02*
X165386104Y-96954887D01*
X165386104Y-96954887D02*
X165424200Y-96992982D01*
X165424200Y-96992982D02*
X165462295Y-97069173D01*
X165462295Y-97069173D02*
X165462295Y-97221554D01*
X165462295Y-97221554D02*
X165424200Y-97297744D01*
X165424200Y-97297744D02*
X165386104Y-97335839D01*
X165386104Y-97335839D02*
X165309914Y-97373935D01*
X165309914Y-97373935D02*
X164662295Y-97373935D01*
X164662295Y-97678696D02*
X164662295Y-98212030D01*
X164662295Y-98212030D02*
X165462295Y-97869172D01*
X185782295Y-143164160D02*
X184982295Y-143164160D01*
X184982295Y-143164160D02*
X184982295Y-143468922D01*
X184982295Y-143468922D02*
X185020390Y-143545112D01*
X185020390Y-143545112D02*
X185058485Y-143583207D01*
X185058485Y-143583207D02*
X185134676Y-143621303D01*
X185134676Y-143621303D02*
X185248961Y-143621303D01*
X185248961Y-143621303D02*
X185325152Y-143583207D01*
X185325152Y-143583207D02*
X185363247Y-143545112D01*
X185363247Y-143545112D02*
X185401342Y-143468922D01*
X185401342Y-143468922D02*
X185401342Y-143164160D01*
X185363247Y-144230826D02*
X185401342Y-144345112D01*
X185401342Y-144345112D02*
X185439438Y-144383207D01*
X185439438Y-144383207D02*
X185515628Y-144421303D01*
X185515628Y-144421303D02*
X185629914Y-144421303D01*
X185629914Y-144421303D02*
X185706104Y-144383207D01*
X185706104Y-144383207D02*
X185744200Y-144345112D01*
X185744200Y-144345112D02*
X185782295Y-144268922D01*
X185782295Y-144268922D02*
X185782295Y-143964160D01*
X185782295Y-143964160D02*
X184982295Y-143964160D01*
X184982295Y-143964160D02*
X184982295Y-144230826D01*
X184982295Y-144230826D02*
X185020390Y-144307017D01*
X185020390Y-144307017D02*
X185058485Y-144345112D01*
X185058485Y-144345112D02*
X185134676Y-144383207D01*
X185134676Y-144383207D02*
X185210866Y-144383207D01*
X185210866Y-144383207D02*
X185287057Y-144345112D01*
X185287057Y-144345112D02*
X185325152Y-144307017D01*
X185325152Y-144307017D02*
X185363247Y-144230826D01*
X185363247Y-144230826D02*
X185363247Y-143964160D01*
X185058485Y-144726064D02*
X185020390Y-144764160D01*
X185020390Y-144764160D02*
X184982295Y-144840350D01*
X184982295Y-144840350D02*
X184982295Y-145030826D01*
X184982295Y-145030826D02*
X185020390Y-145107017D01*
X185020390Y-145107017D02*
X185058485Y-145145112D01*
X185058485Y-145145112D02*
X185134676Y-145183207D01*
X185134676Y-145183207D02*
X185210866Y-145183207D01*
X185210866Y-145183207D02*
X185325152Y-145145112D01*
X185325152Y-145145112D02*
X185782295Y-144687969D01*
X185782295Y-144687969D02*
X185782295Y-145183207D01*
X170542295Y-134369173D02*
X169742295Y-134369173D01*
X169742295Y-134369173D02*
X169742295Y-134673935D01*
X169742295Y-134673935D02*
X169780390Y-134750125D01*
X169780390Y-134750125D02*
X169818485Y-134788220D01*
X169818485Y-134788220D02*
X169894676Y-134826316D01*
X169894676Y-134826316D02*
X170008961Y-134826316D01*
X170008961Y-134826316D02*
X170085152Y-134788220D01*
X170085152Y-134788220D02*
X170123247Y-134750125D01*
X170123247Y-134750125D02*
X170161342Y-134673935D01*
X170161342Y-134673935D02*
X170161342Y-134369173D01*
X170313723Y-135131077D02*
X170313723Y-135512030D01*
X170542295Y-135054887D02*
X169742295Y-135321554D01*
X169742295Y-135321554D02*
X170542295Y-135588220D01*
X170542295Y-136273934D02*
X170542295Y-135816791D01*
X170542295Y-136045363D02*
X169742295Y-136045363D01*
X169742295Y-136045363D02*
X169856580Y-135969172D01*
X169856580Y-135969172D02*
X169932771Y-135892982D01*
X169932771Y-135892982D02*
X169970866Y-135816791D01*
X183242295Y-95392982D02*
X182442295Y-95392982D01*
X182442295Y-95392982D02*
X182442295Y-95697744D01*
X182442295Y-95697744D02*
X182480390Y-95773934D01*
X182480390Y-95773934D02*
X182518485Y-95812029D01*
X182518485Y-95812029D02*
X182594676Y-95850125D01*
X182594676Y-95850125D02*
X182708961Y-95850125D01*
X182708961Y-95850125D02*
X182785152Y-95812029D01*
X182785152Y-95812029D02*
X182823247Y-95773934D01*
X182823247Y-95773934D02*
X182861342Y-95697744D01*
X182861342Y-95697744D02*
X182861342Y-95392982D01*
X183166104Y-96650125D02*
X183204200Y-96612029D01*
X183204200Y-96612029D02*
X183242295Y-96497744D01*
X183242295Y-96497744D02*
X183242295Y-96421553D01*
X183242295Y-96421553D02*
X183204200Y-96307267D01*
X183204200Y-96307267D02*
X183128009Y-96231077D01*
X183128009Y-96231077D02*
X183051819Y-96192982D01*
X183051819Y-96192982D02*
X182899438Y-96154886D01*
X182899438Y-96154886D02*
X182785152Y-96154886D01*
X182785152Y-96154886D02*
X182632771Y-96192982D01*
X182632771Y-96192982D02*
X182556580Y-96231077D01*
X182556580Y-96231077D02*
X182480390Y-96307267D01*
X182480390Y-96307267D02*
X182442295Y-96421553D01*
X182442295Y-96421553D02*
X182442295Y-96497744D01*
X182442295Y-96497744D02*
X182480390Y-96612029D01*
X182480390Y-96612029D02*
X182518485Y-96650125D01*
X183242295Y-97412029D02*
X183242295Y-96954886D01*
X183242295Y-97183458D02*
X182442295Y-97183458D01*
X182442295Y-97183458D02*
X182556580Y-97107267D01*
X182556580Y-97107267D02*
X182632771Y-97031077D01*
X182632771Y-97031077D02*
X182670866Y-96954886D01*
X182518485Y-97716791D02*
X182480390Y-97754887D01*
X182480390Y-97754887D02*
X182442295Y-97831077D01*
X182442295Y-97831077D02*
X182442295Y-98021553D01*
X182442295Y-98021553D02*
X182480390Y-98097744D01*
X182480390Y-98097744D02*
X182518485Y-98135839D01*
X182518485Y-98135839D02*
X182594676Y-98173934D01*
X182594676Y-98173934D02*
X182670866Y-98173934D01*
X182670866Y-98173934D02*
X182785152Y-98135839D01*
X182785152Y-98135839D02*
X183242295Y-97678696D01*
X183242295Y-97678696D02*
X183242295Y-98173934D01*
X207880390Y-105483207D02*
X207842295Y-105407017D01*
X207842295Y-105407017D02*
X207842295Y-105292731D01*
X207842295Y-105292731D02*
X207880390Y-105178445D01*
X207880390Y-105178445D02*
X207956580Y-105102255D01*
X207956580Y-105102255D02*
X208032771Y-105064160D01*
X208032771Y-105064160D02*
X208185152Y-105026064D01*
X208185152Y-105026064D02*
X208299438Y-105026064D01*
X208299438Y-105026064D02*
X208451819Y-105064160D01*
X208451819Y-105064160D02*
X208528009Y-105102255D01*
X208528009Y-105102255D02*
X208604200Y-105178445D01*
X208604200Y-105178445D02*
X208642295Y-105292731D01*
X208642295Y-105292731D02*
X208642295Y-105368922D01*
X208642295Y-105368922D02*
X208604200Y-105483207D01*
X208604200Y-105483207D02*
X208566104Y-105521303D01*
X208566104Y-105521303D02*
X208299438Y-105521303D01*
X208299438Y-105521303D02*
X208299438Y-105368922D01*
X208642295Y-105864160D02*
X207842295Y-105864160D01*
X207842295Y-105864160D02*
X208642295Y-106321303D01*
X208642295Y-106321303D02*
X207842295Y-106321303D01*
X208642295Y-106702255D02*
X207842295Y-106702255D01*
X207842295Y-106702255D02*
X207842295Y-106892731D01*
X207842295Y-106892731D02*
X207880390Y-107007017D01*
X207880390Y-107007017D02*
X207956580Y-107083207D01*
X207956580Y-107083207D02*
X208032771Y-107121302D01*
X208032771Y-107121302D02*
X208185152Y-107159398D01*
X208185152Y-107159398D02*
X208299438Y-107159398D01*
X208299438Y-107159398D02*
X208451819Y-107121302D01*
X208451819Y-107121302D02*
X208528009Y-107083207D01*
X208528009Y-107083207D02*
X208604200Y-107007017D01*
X208604200Y-107007017D02*
X208642295Y-106892731D01*
X208642295Y-106892731D02*
X208642295Y-106702255D01*
X200222295Y-135016792D02*
X200869914Y-135016792D01*
X200869914Y-135016792D02*
X200946104Y-135054887D01*
X200946104Y-135054887D02*
X200984200Y-135092982D01*
X200984200Y-135092982D02*
X201022295Y-135169173D01*
X201022295Y-135169173D02*
X201022295Y-135321554D01*
X201022295Y-135321554D02*
X200984200Y-135397744D01*
X200984200Y-135397744D02*
X200946104Y-135435839D01*
X200946104Y-135435839D02*
X200869914Y-135473935D01*
X200869914Y-135473935D02*
X200222295Y-135473935D01*
X200298485Y-135816791D02*
X200260390Y-135854887D01*
X200260390Y-135854887D02*
X200222295Y-135931077D01*
X200222295Y-135931077D02*
X200222295Y-136121553D01*
X200222295Y-136121553D02*
X200260390Y-136197744D01*
X200260390Y-136197744D02*
X200298485Y-136235839D01*
X200298485Y-136235839D02*
X200374676Y-136273934D01*
X200374676Y-136273934D02*
X200450866Y-136273934D01*
X200450866Y-136273934D02*
X200565152Y-136235839D01*
X200565152Y-136235839D02*
X201022295Y-135778696D01*
X201022295Y-135778696D02*
X201022295Y-136273934D01*
X207842295Y-143545112D02*
X207842295Y-143164160D01*
X207842295Y-143164160D02*
X208223247Y-143126064D01*
X208223247Y-143126064D02*
X208185152Y-143164160D01*
X208185152Y-143164160D02*
X208147057Y-143240350D01*
X208147057Y-143240350D02*
X208147057Y-143430826D01*
X208147057Y-143430826D02*
X208185152Y-143507017D01*
X208185152Y-143507017D02*
X208223247Y-143545112D01*
X208223247Y-143545112D02*
X208299438Y-143583207D01*
X208299438Y-143583207D02*
X208489914Y-143583207D01*
X208489914Y-143583207D02*
X208566104Y-143545112D01*
X208566104Y-143545112D02*
X208604200Y-143507017D01*
X208604200Y-143507017D02*
X208642295Y-143430826D01*
X208642295Y-143430826D02*
X208642295Y-143240350D01*
X208642295Y-143240350D02*
X208604200Y-143164160D01*
X208604200Y-143164160D02*
X208566104Y-143126064D01*
X207842295Y-143811779D02*
X208642295Y-144078446D01*
X208642295Y-144078446D02*
X207842295Y-144345112D01*
X165462295Y-134254887D02*
X164662295Y-134254887D01*
X164662295Y-134254887D02*
X164662295Y-134559649D01*
X164662295Y-134559649D02*
X164700390Y-134635839D01*
X164700390Y-134635839D02*
X164738485Y-134673934D01*
X164738485Y-134673934D02*
X164814676Y-134712030D01*
X164814676Y-134712030D02*
X164928961Y-134712030D01*
X164928961Y-134712030D02*
X165005152Y-134673934D01*
X165005152Y-134673934D02*
X165043247Y-134635839D01*
X165043247Y-134635839D02*
X165081342Y-134559649D01*
X165081342Y-134559649D02*
X165081342Y-134254887D01*
X165386104Y-135512030D02*
X165424200Y-135473934D01*
X165424200Y-135473934D02*
X165462295Y-135359649D01*
X165462295Y-135359649D02*
X165462295Y-135283458D01*
X165462295Y-135283458D02*
X165424200Y-135169172D01*
X165424200Y-135169172D02*
X165348009Y-135092982D01*
X165348009Y-135092982D02*
X165271819Y-135054887D01*
X165271819Y-135054887D02*
X165119438Y-135016791D01*
X165119438Y-135016791D02*
X165005152Y-135016791D01*
X165005152Y-135016791D02*
X164852771Y-135054887D01*
X164852771Y-135054887D02*
X164776580Y-135092982D01*
X164776580Y-135092982D02*
X164700390Y-135169172D01*
X164700390Y-135169172D02*
X164662295Y-135283458D01*
X164662295Y-135283458D02*
X164662295Y-135359649D01*
X164662295Y-135359649D02*
X164700390Y-135473934D01*
X164700390Y-135473934D02*
X164738485Y-135512030D01*
X165462295Y-136273934D02*
X165462295Y-135816791D01*
X165462295Y-136045363D02*
X164662295Y-136045363D01*
X164662295Y-136045363D02*
X164776580Y-135969172D01*
X164776580Y-135969172D02*
X164852771Y-135892982D01*
X164852771Y-135892982D02*
X164890866Y-135816791D01*
X180702295Y-143164160D02*
X179902295Y-143164160D01*
X179902295Y-143164160D02*
X179902295Y-143468922D01*
X179902295Y-143468922D02*
X179940390Y-143545112D01*
X179940390Y-143545112D02*
X179978485Y-143583207D01*
X179978485Y-143583207D02*
X180054676Y-143621303D01*
X180054676Y-143621303D02*
X180168961Y-143621303D01*
X180168961Y-143621303D02*
X180245152Y-143583207D01*
X180245152Y-143583207D02*
X180283247Y-143545112D01*
X180283247Y-143545112D02*
X180321342Y-143468922D01*
X180321342Y-143468922D02*
X180321342Y-143164160D01*
X180626104Y-144421303D02*
X180664200Y-144383207D01*
X180664200Y-144383207D02*
X180702295Y-144268922D01*
X180702295Y-144268922D02*
X180702295Y-144192731D01*
X180702295Y-144192731D02*
X180664200Y-144078445D01*
X180664200Y-144078445D02*
X180588009Y-144002255D01*
X180588009Y-144002255D02*
X180511819Y-143964160D01*
X180511819Y-143964160D02*
X180359438Y-143926064D01*
X180359438Y-143926064D02*
X180245152Y-143926064D01*
X180245152Y-143926064D02*
X180092771Y-143964160D01*
X180092771Y-143964160D02*
X180016580Y-144002255D01*
X180016580Y-144002255D02*
X179940390Y-144078445D01*
X179940390Y-144078445D02*
X179902295Y-144192731D01*
X179902295Y-144192731D02*
X179902295Y-144268922D01*
X179902295Y-144268922D02*
X179940390Y-144383207D01*
X179940390Y-144383207D02*
X179978485Y-144421303D01*
X180168961Y-145107017D02*
X180702295Y-145107017D01*
X179864200Y-144916541D02*
X180435628Y-144726064D01*
X180435628Y-144726064D02*
X180435628Y-145221303D01*
X193402295Y-95507268D02*
X192602295Y-95507268D01*
X192602295Y-95507268D02*
X192602295Y-95812030D01*
X192602295Y-95812030D02*
X192640390Y-95888220D01*
X192640390Y-95888220D02*
X192678485Y-95926315D01*
X192678485Y-95926315D02*
X192754676Y-95964411D01*
X192754676Y-95964411D02*
X192868961Y-95964411D01*
X192868961Y-95964411D02*
X192945152Y-95926315D01*
X192945152Y-95926315D02*
X192983247Y-95888220D01*
X192983247Y-95888220D02*
X193021342Y-95812030D01*
X193021342Y-95812030D02*
X193021342Y-95507268D01*
X193173723Y-96269172D02*
X193173723Y-96650125D01*
X193402295Y-96192982D02*
X192602295Y-96459649D01*
X192602295Y-96459649D02*
X193402295Y-96726315D01*
X193402295Y-97412029D02*
X193402295Y-96954886D01*
X193402295Y-97183458D02*
X192602295Y-97183458D01*
X192602295Y-97183458D02*
X192716580Y-97107267D01*
X192716580Y-97107267D02*
X192792771Y-97031077D01*
X192792771Y-97031077D02*
X192830866Y-96954886D01*
X192678485Y-97716791D02*
X192640390Y-97754887D01*
X192640390Y-97754887D02*
X192602295Y-97831077D01*
X192602295Y-97831077D02*
X192602295Y-98021553D01*
X192602295Y-98021553D02*
X192640390Y-98097744D01*
X192640390Y-98097744D02*
X192678485Y-98135839D01*
X192678485Y-98135839D02*
X192754676Y-98173934D01*
X192754676Y-98173934D02*
X192830866Y-98173934D01*
X192830866Y-98173934D02*
X192945152Y-98135839D01*
X192945152Y-98135839D02*
X193402295Y-97678696D01*
X193402295Y-97678696D02*
X193402295Y-98173934D01*
X195942295Y-105064160D02*
X195142295Y-105064160D01*
X195142295Y-105064160D02*
X195142295Y-105368922D01*
X195142295Y-105368922D02*
X195180390Y-105445112D01*
X195180390Y-105445112D02*
X195218485Y-105483207D01*
X195218485Y-105483207D02*
X195294676Y-105521303D01*
X195294676Y-105521303D02*
X195408961Y-105521303D01*
X195408961Y-105521303D02*
X195485152Y-105483207D01*
X195485152Y-105483207D02*
X195523247Y-105445112D01*
X195523247Y-105445112D02*
X195561342Y-105368922D01*
X195561342Y-105368922D02*
X195561342Y-105064160D01*
X195713723Y-105826064D02*
X195713723Y-106207017D01*
X195942295Y-105749874D02*
X195142295Y-106016541D01*
X195142295Y-106016541D02*
X195942295Y-106283207D01*
X195942295Y-106968921D02*
X195942295Y-106511778D01*
X195942295Y-106740350D02*
X195142295Y-106740350D01*
X195142295Y-106740350D02*
X195256580Y-106664159D01*
X195256580Y-106664159D02*
X195332771Y-106587969D01*
X195332771Y-106587969D02*
X195370866Y-106511778D01*
X195942295Y-107730826D02*
X195942295Y-107273683D01*
X195942295Y-107502255D02*
X195142295Y-107502255D01*
X195142295Y-107502255D02*
X195256580Y-107426064D01*
X195256580Y-107426064D02*
X195332771Y-107349874D01*
X195332771Y-107349874D02*
X195370866Y-107273683D01*
X178162295Y-143164160D02*
X177362295Y-143164160D01*
X177362295Y-143164160D02*
X177362295Y-143468922D01*
X177362295Y-143468922D02*
X177400390Y-143545112D01*
X177400390Y-143545112D02*
X177438485Y-143583207D01*
X177438485Y-143583207D02*
X177514676Y-143621303D01*
X177514676Y-143621303D02*
X177628961Y-143621303D01*
X177628961Y-143621303D02*
X177705152Y-143583207D01*
X177705152Y-143583207D02*
X177743247Y-143545112D01*
X177743247Y-143545112D02*
X177781342Y-143468922D01*
X177781342Y-143468922D02*
X177781342Y-143164160D01*
X177933723Y-143926064D02*
X177933723Y-144307017D01*
X178162295Y-143849874D02*
X177362295Y-144116541D01*
X177362295Y-144116541D02*
X178162295Y-144383207D01*
X177362295Y-144992731D02*
X177362295Y-144840350D01*
X177362295Y-144840350D02*
X177400390Y-144764159D01*
X177400390Y-144764159D02*
X177438485Y-144726064D01*
X177438485Y-144726064D02*
X177552771Y-144649874D01*
X177552771Y-144649874D02*
X177705152Y-144611778D01*
X177705152Y-144611778D02*
X178009914Y-144611778D01*
X178009914Y-144611778D02*
X178086104Y-144649874D01*
X178086104Y-144649874D02*
X178124200Y-144687969D01*
X178124200Y-144687969D02*
X178162295Y-144764159D01*
X178162295Y-144764159D02*
X178162295Y-144916540D01*
X178162295Y-144916540D02*
X178124200Y-144992731D01*
X178124200Y-144992731D02*
X178086104Y-145030826D01*
X178086104Y-145030826D02*
X178009914Y-145068921D01*
X178009914Y-145068921D02*
X177819438Y-145068921D01*
X177819438Y-145068921D02*
X177743247Y-145030826D01*
X177743247Y-145030826D02*
X177705152Y-144992731D01*
X177705152Y-144992731D02*
X177667057Y-144916540D01*
X177667057Y-144916540D02*
X177667057Y-144764159D01*
X177667057Y-144764159D02*
X177705152Y-144687969D01*
X177705152Y-144687969D02*
X177743247Y-144649874D01*
X177743247Y-144649874D02*
X177819438Y-144611778D01*
X159620390Y-134597744D02*
X159582295Y-134521554D01*
X159582295Y-134521554D02*
X159582295Y-134407268D01*
X159582295Y-134407268D02*
X159620390Y-134292982D01*
X159620390Y-134292982D02*
X159696580Y-134216792D01*
X159696580Y-134216792D02*
X159772771Y-134178697D01*
X159772771Y-134178697D02*
X159925152Y-134140601D01*
X159925152Y-134140601D02*
X160039438Y-134140601D01*
X160039438Y-134140601D02*
X160191819Y-134178697D01*
X160191819Y-134178697D02*
X160268009Y-134216792D01*
X160268009Y-134216792D02*
X160344200Y-134292982D01*
X160344200Y-134292982D02*
X160382295Y-134407268D01*
X160382295Y-134407268D02*
X160382295Y-134483459D01*
X160382295Y-134483459D02*
X160344200Y-134597744D01*
X160344200Y-134597744D02*
X160306104Y-134635840D01*
X160306104Y-134635840D02*
X160039438Y-134635840D01*
X160039438Y-134635840D02*
X160039438Y-134483459D01*
X160382295Y-134978697D02*
X159582295Y-134978697D01*
X159582295Y-134978697D02*
X160382295Y-135435840D01*
X160382295Y-135435840D02*
X159582295Y-135435840D01*
X160382295Y-135816792D02*
X159582295Y-135816792D01*
X159582295Y-135816792D02*
X159582295Y-136007268D01*
X159582295Y-136007268D02*
X159620390Y-136121554D01*
X159620390Y-136121554D02*
X159696580Y-136197744D01*
X159696580Y-136197744D02*
X159772771Y-136235839D01*
X159772771Y-136235839D02*
X159925152Y-136273935D01*
X159925152Y-136273935D02*
X160039438Y-136273935D01*
X160039438Y-136273935D02*
X160191819Y-136235839D01*
X160191819Y-136235839D02*
X160268009Y-136197744D01*
X160268009Y-136197744D02*
X160344200Y-136121554D01*
X160344200Y-136121554D02*
X160382295Y-136007268D01*
X160382295Y-136007268D02*
X160382295Y-135816792D01*
X200222295Y-105064160D02*
X200869914Y-105064160D01*
X200869914Y-105064160D02*
X200946104Y-105102255D01*
X200946104Y-105102255D02*
X200984200Y-105140350D01*
X200984200Y-105140350D02*
X201022295Y-105216541D01*
X201022295Y-105216541D02*
X201022295Y-105368922D01*
X201022295Y-105368922D02*
X200984200Y-105445112D01*
X200984200Y-105445112D02*
X200946104Y-105483207D01*
X200946104Y-105483207D02*
X200869914Y-105521303D01*
X200869914Y-105521303D02*
X200222295Y-105521303D01*
X201022295Y-106321302D02*
X201022295Y-105864159D01*
X201022295Y-106092731D02*
X200222295Y-106092731D01*
X200222295Y-106092731D02*
X200336580Y-106016540D01*
X200336580Y-106016540D02*
X200412771Y-105940350D01*
X200412771Y-105940350D02*
X200450866Y-105864159D01*
X200488961Y-107007017D02*
X201022295Y-107007017D01*
X200184200Y-106816541D02*
X200755628Y-106626064D01*
X200755628Y-106626064D02*
X200755628Y-107121303D01*
X175622295Y-143164160D02*
X174822295Y-143164160D01*
X174822295Y-143164160D02*
X174822295Y-143468922D01*
X174822295Y-143468922D02*
X174860390Y-143545112D01*
X174860390Y-143545112D02*
X174898485Y-143583207D01*
X174898485Y-143583207D02*
X174974676Y-143621303D01*
X174974676Y-143621303D02*
X175088961Y-143621303D01*
X175088961Y-143621303D02*
X175165152Y-143583207D01*
X175165152Y-143583207D02*
X175203247Y-143545112D01*
X175203247Y-143545112D02*
X175241342Y-143468922D01*
X175241342Y-143468922D02*
X175241342Y-143164160D01*
X175393723Y-143926064D02*
X175393723Y-144307017D01*
X175622295Y-143849874D02*
X174822295Y-144116541D01*
X174822295Y-144116541D02*
X175622295Y-144383207D01*
X175088961Y-144992731D02*
X175622295Y-144992731D01*
X174784200Y-144802255D02*
X175355628Y-144611778D01*
X175355628Y-144611778D02*
X175355628Y-145107017D01*
X178162295Y-134369173D02*
X177362295Y-134369173D01*
X177362295Y-134369173D02*
X177362295Y-134673935D01*
X177362295Y-134673935D02*
X177400390Y-134750125D01*
X177400390Y-134750125D02*
X177438485Y-134788220D01*
X177438485Y-134788220D02*
X177514676Y-134826316D01*
X177514676Y-134826316D02*
X177628961Y-134826316D01*
X177628961Y-134826316D02*
X177705152Y-134788220D01*
X177705152Y-134788220D02*
X177743247Y-134750125D01*
X177743247Y-134750125D02*
X177781342Y-134673935D01*
X177781342Y-134673935D02*
X177781342Y-134369173D01*
X177933723Y-135131077D02*
X177933723Y-135512030D01*
X178162295Y-135054887D02*
X177362295Y-135321554D01*
X177362295Y-135321554D02*
X178162295Y-135588220D01*
X177362295Y-135778696D02*
X177362295Y-136312030D01*
X177362295Y-136312030D02*
X178162295Y-135969172D01*
X205340390Y-105483207D02*
X205302295Y-105407017D01*
X205302295Y-105407017D02*
X205302295Y-105292731D01*
X205302295Y-105292731D02*
X205340390Y-105178445D01*
X205340390Y-105178445D02*
X205416580Y-105102255D01*
X205416580Y-105102255D02*
X205492771Y-105064160D01*
X205492771Y-105064160D02*
X205645152Y-105026064D01*
X205645152Y-105026064D02*
X205759438Y-105026064D01*
X205759438Y-105026064D02*
X205911819Y-105064160D01*
X205911819Y-105064160D02*
X205988009Y-105102255D01*
X205988009Y-105102255D02*
X206064200Y-105178445D01*
X206064200Y-105178445D02*
X206102295Y-105292731D01*
X206102295Y-105292731D02*
X206102295Y-105368922D01*
X206102295Y-105368922D02*
X206064200Y-105483207D01*
X206064200Y-105483207D02*
X206026104Y-105521303D01*
X206026104Y-105521303D02*
X205759438Y-105521303D01*
X205759438Y-105521303D02*
X205759438Y-105368922D01*
X206102295Y-105864160D02*
X205302295Y-105864160D01*
X205302295Y-105864160D02*
X206102295Y-106321303D01*
X206102295Y-106321303D02*
X205302295Y-106321303D01*
X206102295Y-106702255D02*
X205302295Y-106702255D01*
X205302295Y-106702255D02*
X205302295Y-106892731D01*
X205302295Y-106892731D02*
X205340390Y-107007017D01*
X205340390Y-107007017D02*
X205416580Y-107083207D01*
X205416580Y-107083207D02*
X205492771Y-107121302D01*
X205492771Y-107121302D02*
X205645152Y-107159398D01*
X205645152Y-107159398D02*
X205759438Y-107159398D01*
X205759438Y-107159398D02*
X205911819Y-107121302D01*
X205911819Y-107121302D02*
X205988009Y-107083207D01*
X205988009Y-107083207D02*
X206064200Y-107007017D01*
X206064200Y-107007017D02*
X206102295Y-106892731D01*
X206102295Y-106892731D02*
X206102295Y-106702255D01*
X200222295Y-143164160D02*
X200869914Y-143164160D01*
X200869914Y-143164160D02*
X200946104Y-143202255D01*
X200946104Y-143202255D02*
X200984200Y-143240350D01*
X200984200Y-143240350D02*
X201022295Y-143316541D01*
X201022295Y-143316541D02*
X201022295Y-143468922D01*
X201022295Y-143468922D02*
X200984200Y-143545112D01*
X200984200Y-143545112D02*
X200946104Y-143583207D01*
X200946104Y-143583207D02*
X200869914Y-143621303D01*
X200869914Y-143621303D02*
X200222295Y-143621303D01*
X201022295Y-144421302D02*
X201022295Y-143964159D01*
X201022295Y-144192731D02*
X200222295Y-144192731D01*
X200222295Y-144192731D02*
X200336580Y-144116540D01*
X200336580Y-144116540D02*
X200412771Y-144040350D01*
X200412771Y-144040350D02*
X200450866Y-143964159D01*
X202762295Y-135016792D02*
X203409914Y-135016792D01*
X203409914Y-135016792D02*
X203486104Y-135054887D01*
X203486104Y-135054887D02*
X203524200Y-135092982D01*
X203524200Y-135092982D02*
X203562295Y-135169173D01*
X203562295Y-135169173D02*
X203562295Y-135321554D01*
X203562295Y-135321554D02*
X203524200Y-135397744D01*
X203524200Y-135397744D02*
X203486104Y-135435839D01*
X203486104Y-135435839D02*
X203409914Y-135473935D01*
X203409914Y-135473935D02*
X202762295Y-135473935D01*
X203028961Y-136197744D02*
X203562295Y-136197744D01*
X202724200Y-136007268D02*
X203295628Y-135816791D01*
X203295628Y-135816791D02*
X203295628Y-136312030D01*
X180702295Y-105064160D02*
X179902295Y-105064160D01*
X179902295Y-105064160D02*
X179902295Y-105368922D01*
X179902295Y-105368922D02*
X179940390Y-105445112D01*
X179940390Y-105445112D02*
X179978485Y-105483207D01*
X179978485Y-105483207D02*
X180054676Y-105521303D01*
X180054676Y-105521303D02*
X180168961Y-105521303D01*
X180168961Y-105521303D02*
X180245152Y-105483207D01*
X180245152Y-105483207D02*
X180283247Y-105445112D01*
X180283247Y-105445112D02*
X180321342Y-105368922D01*
X180321342Y-105368922D02*
X180321342Y-105064160D01*
X180283247Y-106130826D02*
X180321342Y-106245112D01*
X180321342Y-106245112D02*
X180359438Y-106283207D01*
X180359438Y-106283207D02*
X180435628Y-106321303D01*
X180435628Y-106321303D02*
X180549914Y-106321303D01*
X180549914Y-106321303D02*
X180626104Y-106283207D01*
X180626104Y-106283207D02*
X180664200Y-106245112D01*
X180664200Y-106245112D02*
X180702295Y-106168922D01*
X180702295Y-106168922D02*
X180702295Y-105864160D01*
X180702295Y-105864160D02*
X179902295Y-105864160D01*
X179902295Y-105864160D02*
X179902295Y-106130826D01*
X179902295Y-106130826D02*
X179940390Y-106207017D01*
X179940390Y-106207017D02*
X179978485Y-106245112D01*
X179978485Y-106245112D02*
X180054676Y-106283207D01*
X180054676Y-106283207D02*
X180130866Y-106283207D01*
X180130866Y-106283207D02*
X180207057Y-106245112D01*
X180207057Y-106245112D02*
X180245152Y-106207017D01*
X180245152Y-106207017D02*
X180283247Y-106130826D01*
X180283247Y-106130826D02*
X180283247Y-105864160D01*
X179902295Y-106587969D02*
X179902295Y-107083207D01*
X179902295Y-107083207D02*
X180207057Y-106816541D01*
X180207057Y-106816541D02*
X180207057Y-106930826D01*
X180207057Y-106930826D02*
X180245152Y-107007017D01*
X180245152Y-107007017D02*
X180283247Y-107045112D01*
X180283247Y-107045112D02*
X180359438Y-107083207D01*
X180359438Y-107083207D02*
X180549914Y-107083207D01*
X180549914Y-107083207D02*
X180626104Y-107045112D01*
X180626104Y-107045112D02*
X180664200Y-107007017D01*
X180664200Y-107007017D02*
X180702295Y-106930826D01*
X180702295Y-106930826D02*
X180702295Y-106702255D01*
X180702295Y-106702255D02*
X180664200Y-106626064D01*
X180664200Y-106626064D02*
X180626104Y-106587969D01*
M02*
