G04 #@! TF.GenerationSoftware,KiCad,Pcbnew,7.0.6+dfsg-1*
G04 #@! TF.CreationDate,2023-08-25T11:52:39+08:00*
G04 #@! TF.ProjectId,mem24cxx,6d656d32-3463-4787-982e-6b696361645f,rev?*
G04 #@! TF.SameCoordinates,Original*
G04 #@! TF.FileFunction,Soldermask,Bot*
G04 #@! TF.FilePolarity,Negative*
%FSLAX46Y46*%
G04 Gerber Fmt 4.6, Leading zero omitted, Abs format (unit mm)*
G04 Created by KiCad (PCBNEW 7.0.6+dfsg-1) date 2023-08-25 11:52:39*
%MOMM*%
%LPD*%
G01*
G04 APERTURE LIST*
%ADD10C,3.200000*%
%ADD11R,1.700000X1.700000*%
%ADD12O,1.700000X1.700000*%
G04 APERTURE END LIST*
D10*
G04 #@! TO.C,J3*
X149860000Y-99060000D03*
X149860000Y-142240000D03*
X218440000Y-99060000D03*
X218440000Y-142240000D03*
G04 #@! TD*
D11*
G04 #@! TO.C,J2*
X208280000Y-102870000D03*
D12*
X208280000Y-100330000D03*
X205740000Y-102870000D03*
X205740000Y-100330000D03*
X203200000Y-102870000D03*
X203200000Y-100330000D03*
X200660000Y-102870000D03*
X200660000Y-100330000D03*
X198120000Y-102870000D03*
X198120000Y-100330000D03*
X195580000Y-102870000D03*
X195580000Y-100330000D03*
X193040000Y-102870000D03*
X193040000Y-100330000D03*
X190500000Y-102870000D03*
X190500000Y-100330000D03*
X187960000Y-102870000D03*
X187960000Y-100330000D03*
X185420000Y-102870000D03*
X185420000Y-100330000D03*
X182880000Y-102870000D03*
X182880000Y-100330000D03*
X180340000Y-102870000D03*
X180340000Y-100330000D03*
X177800000Y-102870000D03*
X177800000Y-100330000D03*
X175260000Y-102870000D03*
X175260000Y-100330000D03*
X172720000Y-102870000D03*
X172720000Y-100330000D03*
X170180000Y-102870000D03*
X170180000Y-100330000D03*
X167640000Y-102870000D03*
X167640000Y-100330000D03*
X165100000Y-102870000D03*
X165100000Y-100330000D03*
X162560000Y-102870000D03*
X162560000Y-100330000D03*
X160020000Y-102870000D03*
X160020000Y-100330000D03*
G04 #@! TD*
D11*
G04 #@! TO.C,J1*
X160020000Y-138430000D03*
D12*
X160020000Y-140970000D03*
X162560000Y-138430000D03*
X162560000Y-140970000D03*
X165100000Y-138430000D03*
X165100000Y-140970000D03*
X167640000Y-138430000D03*
X167640000Y-140970000D03*
X170180000Y-138430000D03*
X170180000Y-140970000D03*
X172720000Y-138430000D03*
X172720000Y-140970000D03*
X175260000Y-138430000D03*
X175260000Y-140970000D03*
X177800000Y-138430000D03*
X177800000Y-140970000D03*
X180340000Y-138430000D03*
X180340000Y-140970000D03*
X182880000Y-138430000D03*
X182880000Y-140970000D03*
X185420000Y-138430000D03*
X185420000Y-140970000D03*
X187960000Y-138430000D03*
X187960000Y-140970000D03*
X190500000Y-138430000D03*
X190500000Y-140970000D03*
X193040000Y-138430000D03*
X193040000Y-140970000D03*
X195580000Y-138430000D03*
X195580000Y-140970000D03*
X198120000Y-138430000D03*
X198120000Y-140970000D03*
X200660000Y-138430000D03*
X200660000Y-140970000D03*
X203200000Y-138430000D03*
X203200000Y-140970000D03*
X205740000Y-138430000D03*
X205740000Y-140970000D03*
X208280000Y-138430000D03*
X208280000Y-140970000D03*
G04 #@! TD*
M02*
