%TF.GenerationSoftware,KiCad,Pcbnew,9.0.2+dfsg-1*%
%TF.CreationDate,2025-07-10T18:44:12+08:00*%
%TF.ProjectId,bp,62702e6b-6963-4616-945f-706362585858,rev?*%
%TF.SameCoordinates,Original*%
%TF.FileFunction,Soldermask,Bot*%
%TF.FilePolarity,Negative*%
%FSLAX46Y46*%
G04 Gerber Fmt 4.6, Leading zero omitted, Abs format (unit mm)*
G04 Created by KiCad (PCBNEW 9.0.2+dfsg-1) date 2025-07-10 18:44:12*
%MOMM*%
%LPD*%
G01*
G04 APERTURE LIST*
%ADD10C,1.200000*%
%ADD11R,1.700000X1.700000*%
%ADD12C,1.700000*%
G04 APERTURE END LIST*
D10*
%TO.C,U6*%
X169500000Y-86850000D03*
X169500000Y-46700000D03*
%TD*%
%TO.C,U3*%
X133500000Y-86850000D03*
X133500000Y-46700000D03*
%TD*%
%TO.C,U5*%
X157500000Y-86850000D03*
X157500000Y-46700000D03*
%TD*%
%TO.C,U1*%
X109500000Y-86850000D03*
X109500000Y-46700000D03*
%TD*%
D11*
%TO.C,J2*%
X182000000Y-43000000D03*
D12*
X184540000Y-43000000D03*
X182000000Y-45540000D03*
X184540000Y-45540000D03*
X182000000Y-48080000D03*
X184540000Y-48080000D03*
X182000000Y-50620000D03*
X184540000Y-50620000D03*
X182000000Y-53160000D03*
X184540000Y-53160000D03*
X182000000Y-55700000D03*
X184540000Y-55700000D03*
X182000000Y-58240000D03*
X184540000Y-58240000D03*
X182000000Y-60780000D03*
X184540000Y-60780000D03*
X182000000Y-63320000D03*
X184540000Y-63320000D03*
X182000000Y-65860000D03*
X184540000Y-65860000D03*
X182000000Y-68400000D03*
X184540000Y-68400000D03*
X182000000Y-70940000D03*
X184540000Y-70940000D03*
X182000000Y-73480000D03*
X184540000Y-73480000D03*
X182000000Y-76020000D03*
X184540000Y-76020000D03*
X182000000Y-78560000D03*
X184540000Y-78560000D03*
X182000000Y-81100000D03*
X184540000Y-81100000D03*
X182000000Y-83640000D03*
X184540000Y-83640000D03*
X182000000Y-86180000D03*
X184540000Y-86180000D03*
X182000000Y-88720000D03*
X184540000Y-88720000D03*
X182000000Y-91260000D03*
X184540000Y-91260000D03*
X182000000Y-93800000D03*
X184540000Y-93800000D03*
X182000000Y-96340000D03*
X184540000Y-96340000D03*
X182000000Y-98880000D03*
X184540000Y-98880000D03*
X182000000Y-101420000D03*
X184540000Y-101420000D03*
X182000000Y-103960000D03*
X184540000Y-103960000D03*
%TD*%
D10*
%TO.C,U2*%
X121500000Y-86850000D03*
X121500000Y-46700000D03*
%TD*%
%TO.C,U4*%
X145500000Y-86850000D03*
X145500000Y-46700000D03*
%TD*%
D11*
%TO.C,J1*%
X96000000Y-43000000D03*
D12*
X98540000Y-43000000D03*
X96000000Y-45540000D03*
X98540000Y-45540000D03*
X96000000Y-48080000D03*
X98540000Y-48080000D03*
X96000000Y-50620000D03*
X98540000Y-50620000D03*
X96000000Y-53160000D03*
X98540000Y-53160000D03*
X96000000Y-55700000D03*
X98540000Y-55700000D03*
X96000000Y-58240000D03*
X98540000Y-58240000D03*
X96000000Y-60780000D03*
X98540000Y-60780000D03*
X96000000Y-63320000D03*
X98540000Y-63320000D03*
X96000000Y-65860000D03*
X98540000Y-65860000D03*
X96000000Y-68400000D03*
X98540000Y-68400000D03*
X96000000Y-70940000D03*
X98540000Y-70940000D03*
X96000000Y-73480000D03*
X98540000Y-73480000D03*
X96000000Y-76020000D03*
X98540000Y-76020000D03*
X96000000Y-78560000D03*
X98540000Y-78560000D03*
X96000000Y-81100000D03*
X98540000Y-81100000D03*
X96000000Y-83640000D03*
X98540000Y-83640000D03*
X96000000Y-86180000D03*
X98540000Y-86180000D03*
X96000000Y-88720000D03*
X98540000Y-88720000D03*
X96000000Y-91260000D03*
X98540000Y-91260000D03*
X96000000Y-93800000D03*
X98540000Y-93800000D03*
X96000000Y-96340000D03*
X98540000Y-96340000D03*
X96000000Y-98880000D03*
X98540000Y-98880000D03*
X96000000Y-101420000D03*
X98540000Y-101420000D03*
X96000000Y-103960000D03*
X98540000Y-103960000D03*
%TD*%
M02*
