M48
; DRILL file {KiCad 9.0.2+dfsg-1} date 2025-07-10T18:44:32+0800
; FORMAT={-:-/ absolute / metric / decimal}
; #@! TF.CreationDate,2025-07-10T18:44:32+08:00
; #@! TF.GenerationSoftware,Kicad,Pcbnew,9.0.2+dfsg-1
; #@! TF.FileFunction,Plated,1,2,PTH
FMAT,2
METRIC
; #@! TA.AperFunction,Plated,PTH,ViaDrill
T1C0.300
; #@! TA.AperFunction,Plated,PTH,ComponentDrill
T2C1.000
%
G90
G05
T1
X107.5Y-49.5
X107.5Y-51.5
X107.5Y-53.5
X107.5Y-55.5
X107.5Y-57.5
X107.5Y-59.5
X107.5Y-61.5
X107.5Y-63.5
X107.5Y-65.5
X107.5Y-67.5
X107.5Y-69.5
X107.5Y-71.5
X107.5Y-73.5
X107.5Y-75.5
X107.5Y-77.5
X107.5Y-79.5
X107.5Y-81.5
X107.5Y-83.5
X107.5Y-85.5
X107.5Y-89.5
X107.5Y-91.5
X107.5Y-93.5
X107.5Y-95.5
X107.5Y-97.5
X108.5Y-48.5
X108.5Y-50.5
X108.5Y-52.5
X108.5Y-54.5
X108.5Y-56.5
X108.5Y-58.5
X108.5Y-60.5
X108.5Y-62.5
X108.5Y-64.5
X108.5Y-66.5
X108.5Y-68.5
X108.5Y-70.5
X108.5Y-72.5
X108.5Y-74.5
X108.5Y-76.5
X108.5Y-78.5
X108.5Y-80.5
X108.5Y-82.5
X108.5Y-84.5
X108.5Y-88.5
X108.5Y-90.5
X108.5Y-92.5
X108.5Y-94.5
X108.5Y-96.5
X108.5Y-98.5
X109.5Y-43.0
X109.5Y-104.0
X110.5Y-49.5
X110.5Y-51.5
X110.5Y-53.5
X110.5Y-55.5
X110.5Y-57.5
X110.5Y-59.5
X110.5Y-61.5
X110.5Y-63.5
X110.5Y-65.5
X110.5Y-67.5
X110.5Y-69.5
X110.5Y-71.5
X110.5Y-73.5
X110.5Y-75.5
X110.5Y-77.5
X110.5Y-79.5
X110.5Y-81.5
X110.5Y-83.5
X110.5Y-85.5
X110.5Y-89.5
X110.5Y-91.5
X110.5Y-93.5
X110.5Y-95.5
X110.5Y-98.0
X111.5Y-48.5
X111.5Y-50.5
X111.5Y-52.5
X111.5Y-54.5
X111.5Y-56.5
X111.5Y-58.5
X111.5Y-60.5
X111.5Y-62.5
X111.5Y-64.5
X111.5Y-66.5
X111.5Y-68.5
X111.5Y-70.5
X111.5Y-72.5
X111.5Y-74.5
X111.5Y-76.5
X111.5Y-78.5
X111.5Y-80.5
X111.5Y-82.5
X111.5Y-84.5
X111.5Y-88.5
X111.5Y-90.5
X111.5Y-92.5
X111.5Y-94.5
X111.5Y-97.0
X111.5Y-99.0
X119.5Y-49.5
X119.5Y-51.5
X119.5Y-53.5
X119.5Y-55.5
X119.5Y-57.5
X119.5Y-59.5
X119.5Y-61.5
X119.5Y-63.5
X119.5Y-65.5
X119.5Y-67.5
X119.5Y-69.5
X119.5Y-71.5
X119.5Y-73.5
X119.5Y-75.5
X119.5Y-77.5
X119.5Y-79.5
X119.5Y-81.5
X119.5Y-83.5
X119.5Y-85.5
X119.5Y-89.5
X119.5Y-91.5
X119.5Y-93.5
X119.5Y-95.5
X119.5Y-97.5
X120.5Y-48.5
X120.5Y-50.5
X120.5Y-52.5
X120.5Y-54.5
X120.5Y-56.5
X120.5Y-58.5
X120.5Y-60.5
X120.5Y-62.5
X120.5Y-64.5
X120.5Y-66.5
X120.5Y-68.5
X120.5Y-70.5
X120.5Y-72.5
X120.5Y-74.5
X120.5Y-76.5
X120.5Y-78.5
X120.5Y-80.5
X120.5Y-82.5
X120.5Y-84.5
X120.5Y-88.5
X120.5Y-90.5
X120.5Y-92.5
X120.5Y-94.5
X120.5Y-96.5
X120.5Y-98.5
X121.5Y-43.0
X121.5Y-104.0
X122.5Y-49.5
X122.5Y-51.5
X122.5Y-53.5
X122.5Y-55.5
X122.5Y-57.5
X122.5Y-59.5
X122.5Y-61.5
X122.5Y-63.5
X122.5Y-65.5
X122.5Y-67.5
X122.5Y-69.5
X122.5Y-71.5
X122.5Y-73.5
X122.5Y-75.5
X122.5Y-77.5
X122.5Y-79.5
X122.5Y-81.5
X122.5Y-83.5
X122.5Y-85.5
X122.5Y-89.5
X122.5Y-91.5
X122.5Y-93.5
X122.5Y-95.5
X122.5Y-97.5
X123.5Y-48.5
X123.5Y-50.5
X123.5Y-52.5
X123.5Y-54.5
X123.5Y-56.5
X123.5Y-58.5
X123.5Y-60.5
X123.5Y-62.5
X123.5Y-64.5
X123.5Y-66.5
X123.5Y-68.5
X123.5Y-70.5
X123.5Y-72.5
X123.5Y-74.5
X123.5Y-76.5
X123.5Y-78.5
X123.5Y-80.5
X123.5Y-82.5
X123.5Y-84.5
X123.5Y-88.5
X123.5Y-90.5
X123.5Y-92.5
X123.5Y-94.5
X123.5Y-96.5
X123.5Y-98.5
X131.5Y-49.5
X131.5Y-51.5
X131.5Y-53.5
X131.5Y-55.5
X131.5Y-57.5
X131.5Y-59.5
X131.5Y-61.5
X131.5Y-63.5
X131.5Y-65.5
X131.5Y-67.5
X131.5Y-69.5
X131.5Y-71.5
X131.5Y-73.5
X131.5Y-75.5
X131.5Y-77.5
X131.5Y-79.5
X131.5Y-81.5
X131.5Y-83.5
X131.5Y-85.5
X131.5Y-89.5
X131.5Y-91.5
X131.5Y-93.5
X131.5Y-95.5
X131.5Y-97.5
X132.5Y-48.5
X132.5Y-50.5
X132.5Y-52.5
X132.5Y-54.5
X132.5Y-56.5
X132.5Y-58.5
X132.5Y-60.5
X132.5Y-62.5
X132.5Y-64.5
X132.5Y-66.5
X132.5Y-68.5
X132.5Y-70.5
X132.5Y-72.5
X132.5Y-74.5
X132.5Y-76.5
X132.5Y-78.5
X132.5Y-80.5
X132.5Y-82.5
X132.5Y-84.5
X132.5Y-88.5
X132.5Y-90.5
X132.5Y-92.5
X132.5Y-94.5
X132.5Y-96.5
X132.5Y-98.5
X133.5Y-43.0
X133.5Y-104.0
X134.5Y-49.5
X134.5Y-51.5
X134.5Y-53.5
X134.5Y-55.5
X134.5Y-57.5
X134.5Y-59.5
X134.5Y-61.5
X134.5Y-63.5
X134.5Y-65.5
X134.5Y-67.5
X134.5Y-69.5
X134.5Y-71.5
X134.5Y-73.5
X134.5Y-75.5
X134.5Y-77.5
X134.5Y-79.5
X134.5Y-81.5
X134.5Y-83.5
X134.5Y-85.5
X134.5Y-89.5
X134.5Y-91.5
X134.5Y-93.5
X134.5Y-95.5
X134.5Y-97.5
X135.5Y-48.5
X135.5Y-50.5
X135.5Y-52.5
X135.5Y-54.5
X135.5Y-56.5
X135.5Y-58.5
X135.5Y-60.5
X135.5Y-62.5
X135.5Y-64.5
X135.5Y-66.5
X135.5Y-68.5
X135.5Y-70.5
X135.5Y-72.5
X135.5Y-74.5
X135.5Y-76.5
X135.5Y-78.5
X135.5Y-80.5
X135.5Y-82.5
X135.5Y-84.5
X135.5Y-88.5
X135.5Y-90.5
X135.5Y-92.5
X135.5Y-94.5
X135.5Y-96.5
X135.5Y-98.5
X143.5Y-49.5
X143.5Y-51.5
X143.5Y-53.5
X143.5Y-55.5
X143.5Y-57.5
X143.5Y-59.5
X143.5Y-61.5
X143.5Y-63.5
X143.5Y-65.5
X143.5Y-67.5
X143.5Y-69.5
X143.5Y-71.5
X143.5Y-73.5
X143.5Y-75.5
X143.5Y-77.5
X143.5Y-79.5
X143.5Y-81.5
X143.5Y-83.5
X143.5Y-85.5
X143.5Y-89.5
X143.5Y-91.5
X143.5Y-93.5
X143.5Y-95.5
X143.5Y-97.5
X144.5Y-48.5
X144.5Y-50.5
X144.5Y-52.5
X144.5Y-54.5
X144.5Y-56.5
X144.5Y-58.5
X144.5Y-60.5
X144.5Y-62.5
X144.5Y-64.5
X144.5Y-66.5
X144.5Y-68.5
X144.5Y-70.5
X144.5Y-72.5
X144.5Y-74.5
X144.5Y-76.5
X144.5Y-78.5
X144.5Y-80.5
X144.5Y-82.5
X144.5Y-84.5
X144.5Y-88.5
X144.5Y-90.5
X144.5Y-92.5
X144.5Y-94.5
X144.5Y-96.5
X144.5Y-98.5
X145.5Y-43.0
X145.5Y-104.0
X146.5Y-49.5
X146.5Y-51.5
X146.5Y-53.5
X146.5Y-55.5
X146.5Y-57.5
X146.5Y-59.5
X146.5Y-61.5
X146.5Y-63.5
X146.5Y-65.5
X146.5Y-67.5
X146.5Y-69.5
X146.5Y-71.5
X146.5Y-73.5
X146.5Y-75.5
X146.5Y-77.5
X146.5Y-79.5
X146.5Y-81.5
X146.5Y-83.5
X146.5Y-85.5
X146.5Y-89.5
X146.5Y-91.5
X146.5Y-93.5
X146.5Y-95.5
X146.5Y-97.5
X147.5Y-48.5
X147.5Y-50.5
X147.5Y-52.5
X147.5Y-54.5
X147.5Y-56.5
X147.5Y-58.5
X147.5Y-60.5
X147.5Y-62.5
X147.5Y-64.5
X147.5Y-66.5
X147.5Y-68.5
X147.5Y-70.5
X147.5Y-72.5
X147.5Y-74.5
X147.5Y-76.5
X147.5Y-78.5
X147.5Y-80.5
X147.5Y-82.5
X147.5Y-84.5
X147.5Y-88.5
X147.5Y-90.5
X147.5Y-92.5
X147.5Y-94.5
X147.5Y-96.5
X147.5Y-98.5
X155.5Y-49.5
X155.5Y-51.5
X155.5Y-53.5
X155.5Y-55.5
X155.5Y-57.5
X155.5Y-59.5
X155.5Y-61.5
X155.5Y-63.5
X155.5Y-65.5
X155.5Y-67.5
X155.5Y-69.5
X155.5Y-71.5
X155.5Y-73.5
X155.5Y-75.5
X155.5Y-77.5
X155.5Y-79.5
X155.5Y-81.5
X155.5Y-83.5
X155.5Y-85.5
X155.5Y-89.5
X155.5Y-91.5
X155.5Y-93.5
X155.5Y-95.5
X155.5Y-97.5
X156.5Y-48.5
X156.5Y-50.5
X156.5Y-52.5
X156.5Y-54.5
X156.5Y-56.5
X156.5Y-58.5
X156.5Y-60.5
X156.5Y-62.5
X156.5Y-64.5
X156.5Y-66.5
X156.5Y-68.5
X156.5Y-70.5
X156.5Y-72.5
X156.5Y-74.5
X156.5Y-76.5
X156.5Y-78.5
X156.5Y-80.5
X156.5Y-82.5
X156.5Y-84.5
X156.5Y-88.5
X156.5Y-90.5
X156.5Y-92.5
X156.5Y-94.5
X156.5Y-96.5
X156.5Y-98.5
X157.5Y-43.0
X157.5Y-104.0
X158.5Y-49.5
X158.5Y-51.5
X158.5Y-53.5
X158.5Y-55.5
X158.5Y-57.5
X158.5Y-59.5
X158.5Y-61.5
X158.5Y-63.5
X158.5Y-65.5
X158.5Y-67.5
X158.5Y-69.5
X158.5Y-71.5
X158.5Y-73.5
X158.5Y-75.5
X158.5Y-77.5
X158.5Y-79.5
X158.5Y-81.5
X158.5Y-83.5
X158.5Y-85.5
X158.5Y-89.5
X158.5Y-91.5
X158.5Y-93.5
X158.5Y-95.5
X158.5Y-97.5
X159.5Y-48.5
X159.5Y-50.5
X159.5Y-52.5
X159.5Y-54.5
X159.5Y-56.5
X159.5Y-58.5
X159.5Y-60.5
X159.5Y-62.5
X159.5Y-64.5
X159.5Y-66.5
X159.5Y-68.5
X159.5Y-70.5
X159.5Y-72.5
X159.5Y-74.5
X159.5Y-76.5
X159.5Y-78.5
X159.5Y-80.5
X159.5Y-82.5
X159.5Y-84.5
X159.5Y-88.5
X159.5Y-90.5
X159.5Y-92.5
X159.5Y-94.5
X159.5Y-96.5
X159.5Y-98.5
X167.5Y-49.5
X167.5Y-51.5
X167.5Y-53.5
X167.5Y-55.5
X167.5Y-57.5
X167.5Y-59.5
X167.5Y-61.5
X167.5Y-63.5
X167.5Y-65.5
X167.5Y-67.5
X167.5Y-69.5
X167.5Y-71.5
X167.5Y-73.5
X167.5Y-75.5
X167.5Y-77.5
X167.5Y-79.5
X167.5Y-81.5
X167.5Y-83.5
X167.5Y-85.5
X167.5Y-89.5
X167.5Y-91.5
X167.5Y-93.5
X167.5Y-95.5
X167.5Y-97.5
X168.5Y-48.5
X168.5Y-50.5
X168.5Y-52.5
X168.5Y-54.5
X168.5Y-56.5
X168.5Y-58.5
X168.5Y-60.5
X168.5Y-62.5
X168.5Y-64.5
X168.5Y-66.5
X168.5Y-68.5
X168.5Y-70.5
X168.5Y-72.5
X168.5Y-74.5
X168.5Y-76.5
X168.5Y-78.5
X168.5Y-80.5
X168.5Y-82.5
X168.5Y-84.5
X168.5Y-88.5
X168.5Y-90.5
X168.5Y-92.5
X168.5Y-94.5
X168.5Y-96.5
X168.5Y-98.5
X169.5Y-43.0
X169.5Y-104.0
X170.5Y-49.5
X170.5Y-51.5
X170.5Y-53.5
X170.5Y-55.5
X170.5Y-57.5
X170.5Y-59.5
X170.5Y-61.5
X170.5Y-63.5
X170.5Y-65.5
X170.5Y-67.5
X170.5Y-69.5
X170.5Y-71.5
X170.5Y-73.5
X170.5Y-75.5
X170.5Y-77.5
X170.5Y-79.5
X170.5Y-81.5
X170.5Y-83.5
X170.5Y-85.5
X170.5Y-89.5
X170.5Y-91.5
X170.5Y-93.5
X170.5Y-95.5
X170.5Y-97.5
X171.5Y-48.5
X171.5Y-50.5
X171.5Y-52.5
X171.5Y-54.5
X171.5Y-56.5
X171.5Y-58.5
X171.5Y-60.5
X171.5Y-62.5
X171.5Y-64.5
X171.5Y-66.5
X171.5Y-68.5
X171.5Y-70.5
X171.5Y-72.5
X171.5Y-74.5
X171.5Y-76.5
X171.5Y-78.5
X171.5Y-80.5
X171.5Y-82.5
X171.5Y-84.5
X171.5Y-88.5
X171.5Y-90.5
X171.5Y-92.5
X171.5Y-94.5
X171.5Y-96.5
X171.5Y-98.5
T2
X96.0Y-43.0
X96.0Y-45.54
X96.0Y-48.08
X96.0Y-50.62
X96.0Y-53.16
X96.0Y-55.7
X96.0Y-58.24
X96.0Y-60.78
X96.0Y-63.32
X96.0Y-65.86
X96.0Y-68.4
X96.0Y-70.94
X96.0Y-73.48
X96.0Y-76.02
X96.0Y-78.56
X96.0Y-81.1
X96.0Y-83.64
X96.0Y-86.18
X96.0Y-88.72
X96.0Y-91.26
X96.0Y-93.8
X96.0Y-96.34
X96.0Y-98.88
X96.0Y-101.42
X96.0Y-103.96
X98.54Y-43.0
X98.54Y-45.54
X98.54Y-48.08
X98.54Y-50.62
X98.54Y-53.16
X98.54Y-55.7
X98.54Y-58.24
X98.54Y-60.78
X98.54Y-63.32
X98.54Y-65.86
X98.54Y-68.4
X98.54Y-70.94
X98.54Y-73.48
X98.54Y-76.02
X98.54Y-78.56
X98.54Y-81.1
X98.54Y-83.64
X98.54Y-86.18
X98.54Y-88.72
X98.54Y-91.26
X98.54Y-93.8
X98.54Y-96.34
X98.54Y-98.88
X98.54Y-101.42
X98.54Y-103.96
X182.0Y-43.0
X182.0Y-45.54
X182.0Y-48.08
X182.0Y-50.62
X182.0Y-53.16
X182.0Y-55.7
X182.0Y-58.24
X182.0Y-60.78
X182.0Y-63.32
X182.0Y-65.86
X182.0Y-68.4
X182.0Y-70.94
X182.0Y-73.48
X182.0Y-76.02
X182.0Y-78.56
X182.0Y-81.1
X182.0Y-83.64
X182.0Y-86.18
X182.0Y-88.72
X182.0Y-91.26
X182.0Y-93.8
X182.0Y-96.34
X182.0Y-98.88
X182.0Y-101.42
X182.0Y-103.96
X184.54Y-43.0
X184.54Y-45.54
X184.54Y-48.08
X184.54Y-50.62
X184.54Y-53.16
X184.54Y-55.7
X184.54Y-58.24
X184.54Y-60.78
X184.54Y-63.32
X184.54Y-65.86
X184.54Y-68.4
X184.54Y-70.94
X184.54Y-73.48
X184.54Y-76.02
X184.54Y-78.56
X184.54Y-81.1
X184.54Y-83.64
X184.54Y-86.18
X184.54Y-88.72
X184.54Y-91.26
X184.54Y-93.8
X184.54Y-96.34
X184.54Y-98.88
X184.54Y-101.42
X184.54Y-103.96
M30
