G04 #@! TF.GenerationSoftware,KiCad,Pcbnew,7.0.6+dfsg-1*
G04 #@! TF.CreationDate,2023-07-25T09:51:38+08:00*
G04 #@! TF.ProjectId,proto,70726f74-6f2e-46b6-9963-61645f706362,a*
G04 #@! TF.SameCoordinates,Original*
G04 #@! TF.FileFunction,Soldermask,Top*
G04 #@! TF.FilePolarity,Negative*
%FSLAX46Y46*%
G04 Gerber Fmt 4.6, Leading zero omitted, Abs format (unit mm)*
G04 Created by KiCad (PCBNEW 7.0.6+dfsg-1) date 2023-07-25 09:51:38*
%MOMM*%
%LPD*%
G01*
G04 APERTURE LIST*
%ADD10C,1.800000*%
%ADD11C,3.200000*%
%ADD12R,1.700000X1.700000*%
%ADD13O,1.700000X1.700000*%
G04 APERTURE END LIST*
D10*
G04 #@! TO.C,TP187*
X144780000Y-96520000D03*
G04 #@! TD*
G04 #@! TO.C,TP20*
X137160000Y-86360000D03*
G04 #@! TD*
G04 #@! TO.C,TP31*
X127000000Y-88900000D03*
G04 #@! TD*
G04 #@! TO.C,TP42*
X116840000Y-81280000D03*
G04 #@! TD*
G04 #@! TO.C,TP257*
X170180000Y-91440000D03*
G04 #@! TD*
G04 #@! TO.C,TP90*
X180340000Y-83820000D03*
G04 #@! TD*
G04 #@! TO.C,TP39*
X127000000Y-83820000D03*
G04 #@! TD*
G04 #@! TO.C,TP241*
X144780000Y-104140000D03*
G04 #@! TD*
G04 #@! TO.C,TP36*
X119380000Y-88900000D03*
G04 #@! TD*
G04 #@! TO.C,TP166*
X134620000Y-101600000D03*
G04 #@! TD*
G04 #@! TO.C,TP263*
X167640000Y-101600000D03*
G04 #@! TD*
G04 #@! TO.C,TP245*
X147320000Y-104140000D03*
G04 #@! TD*
G04 #@! TO.C,TP48*
X165100000Y-86360000D03*
G04 #@! TD*
G04 #@! TO.C,TP47*
X142240000Y-83820000D03*
G04 #@! TD*
G04 #@! TO.C,TP32*
X124460000Y-86360000D03*
G04 #@! TD*
G04 #@! TO.C,TP93*
X167640000Y-83820000D03*
G04 #@! TD*
G04 #@! TO.C,TP96*
X175260000Y-88900000D03*
G04 #@! TD*
G04 #@! TO.C,TP266*
X177800000Y-99060000D03*
G04 #@! TD*
G04 #@! TO.C,TP2*
X114300000Y-83820000D03*
G04 #@! TD*
G04 #@! TO.C,TP115*
X116840000Y-91440000D03*
G04 #@! TD*
G04 #@! TO.C,TP95*
X167640000Y-86360000D03*
G04 #@! TD*
G04 #@! TO.C,TP68*
X152400000Y-88760000D03*
G04 #@! TD*
G04 #@! TO.C,TP35*
X121920000Y-86360000D03*
G04 #@! TD*
G04 #@! TO.C,TP133*
X139700000Y-101600000D03*
G04 #@! TD*
G04 #@! TO.C,TP131*
X129540000Y-96520000D03*
G04 #@! TD*
G04 #@! TO.C,TP250*
X154940000Y-91440000D03*
G04 #@! TD*
G04 #@! TO.C,TP130*
X137160000Y-101600000D03*
G04 #@! TD*
G04 #@! TO.C,TP40*
X129540000Y-83820000D03*
G04 #@! TD*
G04 #@! TO.C,TP256*
X149860000Y-104140000D03*
G04 #@! TD*
G04 #@! TO.C,TP72*
X152400000Y-86360000D03*
G04 #@! TD*
G04 #@! TO.C,TP238*
X162560000Y-104140000D03*
G04 #@! TD*
G04 #@! TO.C,TP127*
X116840000Y-104140000D03*
G04 #@! TD*
G04 #@! TO.C,TP258*
X172720000Y-91440000D03*
G04 #@! TD*
G04 #@! TO.C,TP129*
X116840000Y-96520000D03*
G04 #@! TD*
G04 #@! TO.C,TP63*
X160020000Y-83820000D03*
G04 #@! TD*
G04 #@! TO.C,TP215*
X165100000Y-99060000D03*
G04 #@! TD*
G04 #@! TO.C,TP109*
X114300000Y-109220000D03*
G04 #@! TD*
G04 #@! TO.C,TP216*
X149860000Y-101600000D03*
G04 #@! TD*
G04 #@! TO.C,TP262*
X172720000Y-106680000D03*
G04 #@! TD*
G04 #@! TO.C,TP91*
X167640000Y-88900000D03*
G04 #@! TD*
G04 #@! TO.C,TP105*
X111760000Y-93980000D03*
G04 #@! TD*
G04 #@! TO.C,TP117*
X124460000Y-101600000D03*
G04 #@! TD*
G04 #@! TO.C,TP89*
X175260000Y-86360000D03*
G04 #@! TD*
G04 #@! TO.C,TP61*
X157480000Y-86360000D03*
G04 #@! TD*
G04 #@! TO.C,TP143*
X129540000Y-101600000D03*
G04 #@! TD*
G04 #@! TO.C,TP94*
X175260000Y-78740000D03*
G04 #@! TD*
G04 #@! TO.C,TP264*
X167640000Y-104140000D03*
G04 #@! TD*
G04 #@! TO.C,TP97*
X111760000Y-96520000D03*
G04 #@! TD*
G04 #@! TO.C,TP118*
X129540000Y-91440000D03*
G04 #@! TD*
G04 #@! TO.C,TP119*
X137160000Y-93980000D03*
G04 #@! TD*
G04 #@! TO.C,TP120*
X124460000Y-91440000D03*
G04 #@! TD*
G04 #@! TO.C,TP219*
X144780000Y-91440000D03*
G04 #@! TD*
G04 #@! TO.C,TP269*
X175260000Y-101600000D03*
G04 #@! TD*
G04 #@! TO.C,TP273*
X170180000Y-106680000D03*
G04 #@! TD*
G04 #@! TO.C,TP146*
X132080000Y-99060000D03*
G04 #@! TD*
G04 #@! TO.C,TP106*
X114300000Y-93980000D03*
G04 #@! TD*
G04 #@! TO.C,TP167*
X137160000Y-104140000D03*
G04 #@! TD*
G04 #@! TO.C,TP222*
X162560000Y-101600000D03*
G04 #@! TD*
G04 #@! TO.C,TP171*
X116840000Y-109220000D03*
G04 #@! TD*
G04 #@! TO.C,TP12*
X132080000Y-83820000D03*
G04 #@! TD*
G04 #@! TO.C,TP21*
X139700000Y-86360000D03*
G04 #@! TD*
G04 #@! TO.C,TP177*
X119380000Y-104140000D03*
G04 #@! TD*
G04 #@! TO.C,TP180*
X124460000Y-104140000D03*
G04 #@! TD*
G04 #@! TO.C,TP270*
X180340000Y-96520000D03*
G04 #@! TD*
G04 #@! TO.C,TP24*
X134620000Y-88900000D03*
G04 #@! TD*
G04 #@! TO.C,TP223*
X157480000Y-104140000D03*
G04 #@! TD*
G04 #@! TO.C,TP101*
X114300000Y-96520000D03*
G04 #@! TD*
G04 #@! TO.C,TP186*
X132080000Y-93980000D03*
G04 #@! TD*
G04 #@! TO.C,TP175*
X137160000Y-96520000D03*
G04 #@! TD*
G04 #@! TO.C,TP6*
X111760000Y-78740000D03*
G04 #@! TD*
G04 #@! TO.C,TP227*
X165100000Y-101600000D03*
G04 #@! TD*
G04 #@! TO.C,TP265*
X175260000Y-99060000D03*
G04 #@! TD*
G04 #@! TO.C,TP150*
X124460000Y-96520000D03*
G04 #@! TD*
G04 #@! TO.C,TP153*
X121920000Y-93980000D03*
G04 #@! TD*
G04 #@! TO.C,TP261*
X175260000Y-109220000D03*
G04 #@! TD*
G04 #@! TO.C,TP145*
X132080000Y-106680000D03*
G04 #@! TD*
G04 #@! TO.C,TP234*
X165100000Y-96520000D03*
G04 #@! TD*
G04 #@! TO.C,TP235*
X142240000Y-93980000D03*
G04 #@! TD*
G04 #@! TO.C,TP259*
X172720000Y-93980000D03*
G04 #@! TD*
G04 #@! TO.C,TP159*
X121920000Y-91440000D03*
G04 #@! TD*
G04 #@! TO.C,TP160*
X127000000Y-96520000D03*
G04 #@! TD*
G04 #@! TO.C,TP236*
X152400000Y-104140000D03*
G04 #@! TD*
G04 #@! TO.C,TP161*
X139700000Y-96520000D03*
G04 #@! TD*
G04 #@! TO.C,TP46*
X157480000Y-88900000D03*
G04 #@! TD*
G04 #@! TO.C,TP237*
X152400000Y-101600000D03*
G04 #@! TD*
G04 #@! TO.C,TP290*
X180340000Y-111760000D03*
G04 #@! TD*
G04 #@! TO.C,TP165*
X116840000Y-111760000D03*
G04 #@! TD*
G04 #@! TO.C,TP30*
X129540000Y-86360000D03*
G04 #@! TD*
G04 #@! TO.C,TP29*
X121920000Y-88900000D03*
G04 #@! TD*
G04 #@! TO.C,TP304*
X180340000Y-99060000D03*
G04 #@! TD*
G04 #@! TO.C,TP73*
X172720000Y-86360000D03*
G04 #@! TD*
G04 #@! TO.C,TP303*
X177800000Y-91440000D03*
G04 #@! TD*
G04 #@! TO.C,TP302*
X175260000Y-111760000D03*
G04 #@! TD*
G04 #@! TO.C,TP301*
X172720000Y-104140000D03*
G04 #@! TD*
G04 #@! TO.C,TP28*
X127000000Y-86360000D03*
G04 #@! TD*
G04 #@! TO.C,TP233*
X144780000Y-106680000D03*
G04 #@! TD*
G04 #@! TO.C,TP54*
X147320000Y-86360000D03*
G04 #@! TD*
G04 #@! TO.C,TP75*
X180340000Y-88900000D03*
G04 #@! TD*
G04 #@! TO.C,TP76*
X177800000Y-78740000D03*
G04 #@! TD*
G04 #@! TO.C,TP26*
X132080000Y-86360000D03*
G04 #@! TD*
G04 #@! TO.C,TP79*
X180340000Y-86360000D03*
G04 #@! TD*
G04 #@! TO.C,TP155*
X124460000Y-99060000D03*
G04 #@! TD*
G04 #@! TO.C,TP56*
X144780000Y-86360000D03*
G04 #@! TD*
G04 #@! TO.C,TP81*
X177800000Y-83820000D03*
G04 #@! TD*
G04 #@! TO.C,TP232*
X160020000Y-96520000D03*
G04 #@! TD*
G04 #@! TO.C,TP231*
X149860000Y-99060000D03*
G04 #@! TD*
G04 #@! TO.C,TP55*
X149860000Y-83820000D03*
G04 #@! TD*
G04 #@! TO.C,TP230*
X144780000Y-99060000D03*
G04 #@! TD*
G04 #@! TO.C,TP229*
X165100000Y-91440000D03*
G04 #@! TD*
G04 #@! TO.C,TP228*
X149860000Y-91440000D03*
G04 #@! TD*
G04 #@! TO.C,TP147*
X124460000Y-93980000D03*
G04 #@! TD*
G04 #@! TO.C,TP299*
X170180000Y-104140000D03*
G04 #@! TD*
G04 #@! TO.C,TP214*
X160020000Y-101600000D03*
G04 #@! TD*
G04 #@! TO.C,TP102*
X114300000Y-106680000D03*
G04 #@! TD*
G04 #@! TO.C,TP82*
X177800000Y-81280000D03*
G04 #@! TD*
G04 #@! TO.C,TP100*
X114300000Y-99060000D03*
G04 #@! TD*
G04 #@! TO.C,TP1*
X114300000Y-88900000D03*
G04 #@! TD*
G04 #@! TO.C,TP51*
X142240000Y-88900000D03*
G04 #@! TD*
G04 #@! TO.C,TP225*
X142240000Y-104140000D03*
G04 #@! TD*
G04 #@! TO.C,TP224*
X157480000Y-99060000D03*
G04 #@! TD*
G04 #@! TO.C,TP297*
X175260000Y-96520000D03*
G04 #@! TD*
G04 #@! TO.C,TP296*
X180340000Y-101600000D03*
G04 #@! TD*
G04 #@! TO.C,TP49*
X154940000Y-83820000D03*
G04 #@! TD*
G04 #@! TO.C,TP295*
X170180000Y-93980000D03*
G04 #@! TD*
G04 #@! TO.C,TP23*
X119380000Y-83820000D03*
G04 #@! TD*
G04 #@! TO.C,TP294*
X175260000Y-104140000D03*
G04 #@! TD*
G04 #@! TO.C,TP221*
X157480000Y-91440000D03*
G04 #@! TD*
G04 #@! TO.C,TP293*
X172720000Y-101600000D03*
G04 #@! TD*
G04 #@! TO.C,TP220*
X165100000Y-93980000D03*
G04 #@! TD*
D11*
G04 #@! TO.C,J3*
X111760000Y-73660000D03*
X111760000Y-116840000D03*
X180340000Y-73660000D03*
X180340000Y-116840000D03*
G04 #@! TD*
D10*
G04 #@! TO.C,TP274*
X167640000Y-96520000D03*
G04 #@! TD*
G04 #@! TO.C,TP289*
X180340000Y-104140000D03*
G04 #@! TD*
G04 #@! TO.C,TP288*
X175260000Y-93980000D03*
G04 #@! TD*
G04 #@! TO.C,TP108*
X111760000Y-109220000D03*
G04 #@! TD*
G04 #@! TO.C,TP218*
X149860000Y-96520000D03*
G04 #@! TD*
G04 #@! TO.C,TP217*
X144780000Y-101600000D03*
G04 #@! TD*
G04 #@! TO.C,TP44*
X162560000Y-83820000D03*
G04 #@! TD*
G04 #@! TO.C,TP170*
X134620000Y-96520000D03*
G04 #@! TD*
G04 #@! TO.C,TP4*
X114300000Y-86360000D03*
G04 #@! TD*
G04 #@! TO.C,TP287*
X177800000Y-104140000D03*
G04 #@! TD*
G04 #@! TO.C,TP286*
X172720000Y-96520000D03*
G04 #@! TD*
G04 #@! TO.C,TP87*
X172720000Y-88900000D03*
G04 #@! TD*
G04 #@! TO.C,TP285*
X167640000Y-93980000D03*
G04 #@! TD*
G04 #@! TO.C,TP17*
X116840000Y-86360000D03*
G04 #@! TD*
G04 #@! TO.C,TP253*
X149860000Y-93980000D03*
G04 #@! TD*
G04 #@! TO.C,TP125*
X129540000Y-93980000D03*
G04 #@! TD*
G04 #@! TO.C,TP254*
X157480000Y-106680000D03*
G04 #@! TD*
G04 #@! TO.C,TP282*
X180340000Y-93980000D03*
G04 #@! TD*
G04 #@! TO.C,TP255*
X160020000Y-93980000D03*
G04 #@! TD*
G04 #@! TO.C,TP122*
X121920000Y-99060000D03*
G04 #@! TD*
G04 #@! TO.C,TP111*
X114300000Y-101600000D03*
G04 #@! TD*
G04 #@! TO.C,TP121*
X134620000Y-99060000D03*
G04 #@! TD*
G04 #@! TO.C,TP16*
X116840000Y-83820000D03*
G04 #@! TD*
G04 #@! TO.C,TP252*
X147320000Y-96520000D03*
G04 #@! TD*
G04 #@! TO.C,TP67*
X154940000Y-88900000D03*
G04 #@! TD*
G04 #@! TO.C,TP14*
X137160000Y-83820000D03*
G04 #@! TD*
G04 #@! TO.C,TP66*
X162560000Y-86360000D03*
G04 #@! TD*
G04 #@! TO.C,TP251*
X157480000Y-101600000D03*
G04 #@! TD*
G04 #@! TO.C,TP65*
X154940000Y-86360000D03*
G04 #@! TD*
G04 #@! TO.C,TP136*
X116840000Y-106680000D03*
G04 #@! TD*
G04 #@! TO.C,TP281*
X177800000Y-109220000D03*
G04 #@! TD*
G04 #@! TO.C,TP249*
X157480000Y-93980000D03*
G04 #@! TD*
G04 #@! TO.C,TP248*
X154940000Y-96520000D03*
G04 #@! TD*
G04 #@! TO.C,TP110*
X111760000Y-104140000D03*
G04 #@! TD*
G04 #@! TO.C,TP83*
X170180000Y-83820000D03*
G04 #@! TD*
G04 #@! TO.C,TP99*
X111760000Y-106680000D03*
G04 #@! TD*
G04 #@! TO.C,TP60*
X144780000Y-88900000D03*
G04 #@! TD*
G04 #@! TO.C,TP13*
X139700000Y-88900000D03*
G04 #@! TD*
G04 #@! TO.C,TP247*
X147320000Y-101600000D03*
G04 #@! TD*
G04 #@! TO.C,TP140*
X137160000Y-99060000D03*
G04 #@! TD*
G04 #@! TO.C,TP246*
X160020000Y-104140000D03*
G04 #@! TD*
G04 #@! TO.C,TP78*
X177800000Y-88900000D03*
G04 #@! TD*
G04 #@! TO.C,TP139*
X121920000Y-106680000D03*
G04 #@! TD*
G04 #@! TO.C,TP138*
X127000000Y-91440000D03*
G04 #@! TD*
G04 #@! TO.C,TP137*
X119380000Y-106680000D03*
G04 #@! TD*
G04 #@! TO.C,TP279*
X167640000Y-106680000D03*
G04 #@! TD*
G04 #@! TO.C,TP11*
X139700000Y-83820000D03*
G04 #@! TD*
G04 #@! TO.C,TP135*
X129540000Y-99060000D03*
G04 #@! TD*
G04 #@! TO.C,TP244*
X160020000Y-99060000D03*
G04 #@! TD*
G04 #@! TO.C,TP77*
X172720000Y-83820000D03*
G04 #@! TD*
G04 #@! TO.C,TP277*
X177800000Y-106680000D03*
G04 #@! TD*
G04 #@! TO.C,TP132*
X127000000Y-101600000D03*
G04 #@! TD*
G04 #@! TO.C,TP114*
X111760000Y-111760000D03*
G04 #@! TD*
G04 #@! TO.C,TP243*
X152400000Y-96520000D03*
G04 #@! TD*
G04 #@! TO.C,TP113*
X114300000Y-104140000D03*
G04 #@! TD*
G04 #@! TO.C,TP59*
X160020000Y-88900000D03*
G04 #@! TD*
G04 #@! TO.C,TP62*
X165100000Y-88900000D03*
G04 #@! TD*
G04 #@! TO.C,TP18*
X124460000Y-83820000D03*
G04 #@! TD*
G04 #@! TO.C,TP242*
X154940000Y-99060000D03*
G04 #@! TD*
G04 #@! TO.C,TP10*
X114300000Y-78740000D03*
G04 #@! TD*
G04 #@! TO.C,TP45*
X142240000Y-86360000D03*
G04 #@! TD*
G04 #@! TO.C,TP19*
X129540000Y-88900000D03*
G04 #@! TD*
G04 #@! TO.C,TP276*
X167640000Y-99060000D03*
G04 #@! TD*
G04 #@! TO.C,TP41*
X121920000Y-83820000D03*
G04 #@! TD*
G04 #@! TO.C,TP240*
X142240000Y-99060000D03*
G04 #@! TD*
G04 #@! TO.C,TP80*
X175260000Y-81280000D03*
G04 #@! TD*
G04 #@! TO.C,TP112*
X114300000Y-111760000D03*
G04 #@! TD*
G04 #@! TO.C,TP34*
X119380000Y-86360000D03*
G04 #@! TD*
G04 #@! TO.C,TP33*
X116840000Y-78740000D03*
G04 #@! TD*
G04 #@! TO.C,TP3*
X111760000Y-83820000D03*
G04 #@! TD*
G04 #@! TO.C,TP58*
X149860000Y-86360000D03*
G04 #@! TD*
G04 #@! TO.C,TP124*
X139700000Y-93980000D03*
G04 #@! TD*
G04 #@! TO.C,TP86*
X170180000Y-88900000D03*
G04 #@! TD*
G04 #@! TO.C,TP43*
X160020000Y-86360000D03*
G04 #@! TD*
G04 #@! TO.C,TP239*
X154940000Y-106680000D03*
G04 #@! TD*
G04 #@! TO.C,TP275*
X175260000Y-106680000D03*
G04 #@! TD*
G04 #@! TO.C,TP226*
X165100000Y-106680000D03*
G04 #@! TD*
G04 #@! TO.C,TP183*
X119380000Y-101600000D03*
G04 #@! TD*
G04 #@! TO.C,TP184*
X134620000Y-106680000D03*
G04 #@! TD*
G04 #@! TO.C,TP37*
X134620000Y-86360000D03*
G04 #@! TD*
G04 #@! TO.C,TP53*
X157480000Y-83820000D03*
G04 #@! TD*
G04 #@! TO.C,TP107*
X114300000Y-91440000D03*
G04 #@! TD*
G04 #@! TO.C,TP9*
X114300000Y-81280000D03*
G04 #@! TD*
G04 #@! TO.C,TP162*
X119380000Y-96520000D03*
G04 #@! TD*
G04 #@! TO.C,TP74*
X177800000Y-86360000D03*
G04 #@! TD*
G04 #@! TO.C,TP182*
X132080000Y-101600000D03*
G04 #@! TD*
G04 #@! TO.C,TP178*
X119380000Y-93980000D03*
G04 #@! TD*
G04 #@! TO.C,TP52*
X147320000Y-83820000D03*
G04 #@! TD*
G04 #@! TO.C,TP7*
X111760000Y-86360000D03*
G04 #@! TD*
G04 #@! TO.C,TP64*
X144780000Y-83820000D03*
G04 #@! TD*
G04 #@! TO.C,TP213*
X142240000Y-101600000D03*
G04 #@! TD*
G04 #@! TO.C,TP211*
X152400000Y-99060000D03*
G04 #@! TD*
G04 #@! TO.C,TP210*
X152400000Y-106680000D03*
G04 #@! TD*
G04 #@! TO.C,TP134*
X132080000Y-104140000D03*
G04 #@! TD*
G04 #@! TO.C,TP278*
X177800000Y-96520000D03*
G04 #@! TD*
G04 #@! TO.C,TP126*
X119380000Y-91440000D03*
G04 #@! TD*
G04 #@! TO.C,TP8*
X111760000Y-88900000D03*
G04 #@! TD*
G04 #@! TO.C,TP141*
X119380000Y-99060000D03*
G04 #@! TD*
G04 #@! TO.C,TP280*
X170180000Y-96520000D03*
G04 #@! TD*
G04 #@! TO.C,TP84*
X180340000Y-81280000D03*
G04 #@! TD*
G04 #@! TO.C,TP208*
X165100000Y-104140000D03*
G04 #@! TD*
G04 #@! TO.C,TP144*
X116840000Y-93980000D03*
G04 #@! TD*
G04 #@! TO.C,TP207*
X142240000Y-106680000D03*
G04 #@! TD*
G04 #@! TO.C,TP15*
X137160000Y-88900000D03*
G04 #@! TD*
G04 #@! TO.C,TP206*
X154940000Y-93980000D03*
G04 #@! TD*
G04 #@! TO.C,TP205*
X157480000Y-96520000D03*
G04 #@! TD*
G04 #@! TO.C,TP70*
X162560000Y-88900000D03*
G04 #@! TD*
G04 #@! TO.C,TP98*
X111760000Y-101600000D03*
G04 #@! TD*
G04 #@! TO.C,TP283*
X177800000Y-111760000D03*
G04 #@! TD*
G04 #@! TO.C,TP284*
X180340000Y-91440000D03*
G04 #@! TD*
G04 #@! TO.C,TP71*
X147320000Y-88900000D03*
G04 #@! TD*
G04 #@! TO.C,TP168*
X134620000Y-104140000D03*
G04 #@! TD*
G04 #@! TO.C,TP142*
X129540000Y-104140000D03*
G04 #@! TD*
G04 #@! TO.C,TP203*
X160020000Y-91440000D03*
G04 #@! TD*
G04 #@! TO.C,TP172*
X139700000Y-91440000D03*
G04 #@! TD*
G04 #@! TO.C,TP190*
X162560000Y-96520000D03*
G04 #@! TD*
G04 #@! TO.C,TP104*
X111760000Y-99060000D03*
G04 #@! TD*
G04 #@! TO.C,TP174*
X127000000Y-104140000D03*
G04 #@! TD*
G04 #@! TO.C,TP201*
X147320000Y-106680000D03*
G04 #@! TD*
G04 #@! TO.C,TP291*
X167640000Y-91440000D03*
G04 #@! TD*
G04 #@! TO.C,TP292*
X175260000Y-91440000D03*
G04 #@! TD*
G04 #@! TO.C,TP176*
X127000000Y-93980000D03*
G04 #@! TD*
G04 #@! TO.C,TP22*
X134620000Y-83820000D03*
G04 #@! TD*
G04 #@! TO.C,TP200*
X162560000Y-91440000D03*
G04 #@! TD*
G04 #@! TO.C,TP179*
X132080000Y-91440000D03*
G04 #@! TD*
G04 #@! TO.C,TP181*
X127000000Y-106680000D03*
G04 #@! TD*
G04 #@! TO.C,TP5*
X111760000Y-81280000D03*
G04 #@! TD*
G04 #@! TO.C,TP197*
X147320000Y-99060000D03*
G04 #@! TD*
G04 #@! TO.C,TP298*
X180340000Y-106680000D03*
G04 #@! TD*
G04 #@! TO.C,TP85*
X180340000Y-78740000D03*
G04 #@! TD*
G04 #@! TO.C,TP185*
X137160000Y-91440000D03*
G04 #@! TD*
G04 #@! TO.C,TP195*
X162560000Y-106680000D03*
G04 #@! TD*
G04 #@! TO.C,TP103*
X111760000Y-91440000D03*
G04 #@! TD*
G04 #@! TO.C,TP25*
X124460000Y-88760000D03*
G04 #@! TD*
G04 #@! TO.C,TP149*
X134620000Y-91440000D03*
G04 #@! TD*
G04 #@! TO.C,TP300*
X170180000Y-99060000D03*
G04 #@! TD*
G04 #@! TO.C,TP194*
X144780000Y-93980000D03*
G04 #@! TD*
G04 #@! TO.C,TP151*
X139700000Y-99060000D03*
G04 #@! TD*
G04 #@! TO.C,TP152*
X139700000Y-104140000D03*
G04 #@! TD*
G04 #@! TO.C,TP27*
X116840000Y-88900000D03*
G04 #@! TD*
G04 #@! TO.C,TP193*
X147320000Y-93980000D03*
G04 #@! TD*
D12*
G04 #@! TO.C,J2*
X121920000Y-113030000D03*
D13*
X121920000Y-115570000D03*
X124460000Y-113030000D03*
X124460000Y-115570000D03*
X127000000Y-113030000D03*
X127000000Y-115570000D03*
X129540000Y-113030000D03*
X129540000Y-115570000D03*
X132080000Y-113030000D03*
X132080000Y-115570000D03*
X134620000Y-113030000D03*
X134620000Y-115570000D03*
X137160000Y-113030000D03*
X137160000Y-115570000D03*
X139700000Y-113030000D03*
X139700000Y-115570000D03*
X142240000Y-113030000D03*
X142240000Y-115570000D03*
X144780000Y-113030000D03*
X144780000Y-115570000D03*
X147320000Y-113030000D03*
X147320000Y-115570000D03*
X149860000Y-113030000D03*
X149860000Y-115570000D03*
X152400000Y-113030000D03*
X152400000Y-115570000D03*
X154940000Y-113030000D03*
X154940000Y-115570000D03*
X157480000Y-113030000D03*
X157480000Y-115570000D03*
X160020000Y-113030000D03*
X160020000Y-115570000D03*
X162560000Y-113030000D03*
X162560000Y-115570000D03*
X165100000Y-113030000D03*
X165100000Y-115570000D03*
X167640000Y-113030000D03*
X167640000Y-115570000D03*
X170180000Y-113030000D03*
X170180000Y-115570000D03*
G04 #@! TD*
D10*
G04 #@! TO.C,TP192*
X162560000Y-99060000D03*
G04 #@! TD*
G04 #@! TO.C,TP164*
X127000000Y-99060000D03*
G04 #@! TD*
G04 #@! TO.C,TP191*
X147320000Y-91440000D03*
G04 #@! TD*
G04 #@! TO.C,TP163*
X137160000Y-106680000D03*
G04 #@! TD*
D12*
G04 #@! TO.C,J1*
X170180000Y-77470000D03*
D13*
X170180000Y-74930000D03*
X167640000Y-77470000D03*
X167640000Y-74930000D03*
X165100000Y-77470000D03*
X165100000Y-74930000D03*
X162560000Y-77470000D03*
X162560000Y-74930000D03*
X160020000Y-77470000D03*
X160020000Y-74930000D03*
X157480000Y-77470000D03*
X157480000Y-74930000D03*
X154940000Y-77470000D03*
X154940000Y-74930000D03*
X152400000Y-77470000D03*
X152400000Y-74930000D03*
X149860000Y-77470000D03*
X149860000Y-74930000D03*
X147320000Y-77470000D03*
X147320000Y-74930000D03*
X144780000Y-77470000D03*
X144780000Y-74930000D03*
X142240000Y-77470000D03*
X142240000Y-74930000D03*
X139700000Y-77470000D03*
X139700000Y-74930000D03*
X137160000Y-77470000D03*
X137160000Y-74930000D03*
X134620000Y-77470000D03*
X134620000Y-74930000D03*
X132080000Y-77470000D03*
X132080000Y-74930000D03*
X129540000Y-77470000D03*
X129540000Y-74930000D03*
X127000000Y-77470000D03*
X127000000Y-74930000D03*
X124460000Y-77470000D03*
X124460000Y-74930000D03*
X121920000Y-77470000D03*
X121920000Y-74930000D03*
G04 #@! TD*
D10*
G04 #@! TO.C,TP158*
X132080000Y-96520000D03*
G04 #@! TD*
G04 #@! TO.C,TP157*
X121920000Y-104140000D03*
G04 #@! TD*
G04 #@! TO.C,TP57*
X149860000Y-88900000D03*
G04 #@! TD*
G04 #@! TO.C,TP154*
X116840000Y-101600000D03*
G04 #@! TD*
G04 #@! TO.C,TP148*
X121920000Y-96520000D03*
G04 #@! TD*
G04 #@! TO.C,TP196*
X152400000Y-93980000D03*
G04 #@! TD*
G04 #@! TO.C,TP198*
X154940000Y-101600000D03*
G04 #@! TD*
G04 #@! TO.C,TP199*
X152400000Y-91440000D03*
G04 #@! TD*
G04 #@! TO.C,TP271*
X177800000Y-101600000D03*
G04 #@! TD*
G04 #@! TO.C,TP272*
X177800000Y-93980000D03*
G04 #@! TD*
G04 #@! TO.C,TP169*
X124460000Y-106680000D03*
G04 #@! TD*
G04 #@! TO.C,TP204*
X149860000Y-106680000D03*
G04 #@! TD*
G04 #@! TO.C,TP92*
X170180000Y-86360000D03*
G04 #@! TD*
G04 #@! TO.C,TP267*
X172720000Y-99060000D03*
G04 #@! TD*
G04 #@! TO.C,TP69*
X165100000Y-83820000D03*
G04 #@! TD*
G04 #@! TO.C,TP116*
X129540000Y-106680000D03*
G04 #@! TD*
G04 #@! TO.C,TP88*
X175260000Y-83820000D03*
G04 #@! TD*
G04 #@! TO.C,TP260*
X180340000Y-109220000D03*
G04 #@! TD*
G04 #@! TO.C,TP209*
X154940000Y-104140000D03*
G04 #@! TD*
G04 #@! TO.C,TP212*
X162560000Y-93980000D03*
G04 #@! TD*
G04 #@! TO.C,TP128*
X139700000Y-106680000D03*
G04 #@! TD*
G04 #@! TO.C,TP202*
X142240000Y-96520000D03*
G04 #@! TD*
G04 #@! TO.C,TP189*
X160020000Y-106680000D03*
G04 #@! TD*
G04 #@! TO.C,TP38*
X132080000Y-88900000D03*
G04 #@! TD*
G04 #@! TO.C,TP268*
X170180000Y-101600000D03*
G04 #@! TD*
G04 #@! TO.C,TP123*
X116840000Y-99060000D03*
G04 #@! TD*
G04 #@! TO.C,TP50*
X152400000Y-83820000D03*
G04 #@! TD*
G04 #@! TO.C,TP173*
X134620000Y-93980000D03*
G04 #@! TD*
G04 #@! TO.C,TP156*
X121920000Y-101600000D03*
G04 #@! TD*
G04 #@! TO.C,TP188*
X142240000Y-91440000D03*
G04 #@! TD*
M02*
