M48
; DRILL file {KiCad 5.1.9+dfsg1-1} date Wed Jul 14 19:59:08 2021
; FORMAT={-:-/ absolute / inch / decimal}
; #@! TF.CreationDate,2021-07-14T19:59:08+08:00
; #@! TF.GenerationSoftware,Kicad,Pcbnew,5.1.9+dfsg1-1
; #@! TF.FileFunction,Plated,1,2,PTH
FMAT,2
INCH
T1C0.0138
T2C0.0394
%
G90
G05
T1
X4.775Y-3.475
X4.775Y-3.625
X4.775Y-3.775
X4.775Y-3.925
X4.775Y-4.075
X4.775Y-4.225
X4.775Y-4.375
X4.775Y-4.525
X4.785Y-3.58
X4.785Y-3.72
X4.85Y-3.425
X4.85Y-3.575
X4.85Y-3.725
X4.85Y-3.875
X4.85Y-4.025
X4.85Y-4.175
X4.85Y-4.325
X4.85Y-4.475
X4.95Y-3.475
X4.95Y-3.625
X4.95Y-3.775
X4.95Y-3.925
X4.95Y-4.075
X4.95Y-4.225
X4.95Y-4.375
X4.95Y-4.525
X5.025Y-3.425
X5.025Y-3.575
X5.025Y-3.725
X5.025Y-3.875
X5.025Y-4.025
X5.025Y-4.175
X5.025Y-4.325
X5.025Y-4.475
X5.125Y-3.475
X5.125Y-3.625
X5.125Y-3.775
X5.125Y-3.925
X5.125Y-4.075
X5.125Y-4.225
X5.125Y-4.375
X5.125Y-4.525
X5.2Y-3.425
X5.2Y-3.575
X5.2Y-3.725
X5.2Y-3.875
X5.2Y-4.025
X5.2Y-4.175
X5.2Y-4.325
X5.2Y-4.475
X5.3Y-3.475
X5.3Y-3.625
X5.3Y-3.775
X5.3Y-3.925
X5.3Y-4.075
X5.3Y-4.225
X5.3Y-4.375
X5.3Y-4.525
X5.375Y-3.425
X5.375Y-3.575
X5.375Y-3.725
X5.375Y-3.875
X5.375Y-4.025
X5.375Y-4.175
X5.375Y-4.325
X5.375Y-4.475
X5.475Y-3.475
X5.475Y-3.625
X5.475Y-3.775
X5.475Y-3.925
X5.475Y-4.075
X5.475Y-4.225
X5.475Y-4.375
X5.475Y-4.525
X5.55Y-3.425
X5.55Y-3.575
X5.55Y-3.725
X5.55Y-3.875
X5.55Y-4.025
X5.55Y-4.175
X5.55Y-4.325
X5.55Y-4.475
X5.65Y-3.475
X5.65Y-3.625
X5.65Y-3.775
X5.65Y-3.925
X5.65Y-4.075
X5.65Y-4.225
X5.65Y-4.375
X5.65Y-4.525
X5.725Y-3.425
X5.725Y-3.575
X5.725Y-3.725
X5.725Y-3.875
X5.725Y-4.025
X5.725Y-4.175
X5.725Y-4.325
X5.725Y-4.475
X5.825Y-3.475
X5.825Y-3.625
X5.825Y-3.775
X5.825Y-3.925
X5.825Y-4.075
X5.825Y-4.225
X5.825Y-4.375
X5.825Y-4.525
X5.9Y-3.425
X5.9Y-3.575
X5.9Y-3.725
X5.9Y-3.875
X5.9Y-4.025
X5.9Y-4.175
X5.9Y-4.325
X5.9Y-4.475
X6.0Y-3.475
X6.0Y-3.625
X6.0Y-3.775
X6.0Y-3.925
X6.0Y-4.075
X6.0Y-4.225
X6.0Y-4.375
X6.0Y-4.525
X6.075Y-3.425
X6.075Y-3.575
X6.075Y-3.725
X6.075Y-3.875
X6.075Y-4.025
X6.075Y-4.175
X6.075Y-4.325
X6.075Y-4.475
X6.105Y-3.54
X6.105Y-3.68
T2
X4.975Y-3.2
X4.975Y-3.3
X4.975Y-4.7
X4.975Y-4.8
X5.075Y-3.2
X5.075Y-3.3
X5.075Y-4.7
X5.075Y-4.8
X5.175Y-3.2
X5.175Y-3.3
X5.175Y-4.7
X5.175Y-4.8
X5.275Y-3.2
X5.275Y-3.3
X5.275Y-4.7
X5.275Y-4.8
X5.375Y-3.2
X5.375Y-3.3
X5.375Y-4.7
X5.375Y-4.8
X5.475Y-3.2
X5.475Y-3.3
X5.475Y-4.7
X5.475Y-4.8
X5.575Y-3.2
X5.575Y-3.3
X5.575Y-4.7
X5.575Y-4.8
X5.675Y-3.2
X5.675Y-3.3
X5.675Y-4.7
X5.675Y-4.8
X5.775Y-3.2
X5.775Y-3.3
X5.775Y-4.7
X5.775Y-4.8
X5.875Y-3.2
X5.875Y-3.3
X5.875Y-4.7
X5.875Y-4.8
X5.975Y-3.2
X5.975Y-3.3
X5.975Y-4.7
X5.975Y-4.8
X6.075Y-3.2
X6.075Y-3.3
X6.075Y-4.7
X6.075Y-4.8
X6.175Y-3.2
X6.175Y-3.3
X6.175Y-4.7
X6.175Y-4.8
X6.275Y-3.2
X6.275Y-3.3
X6.275Y-4.7
X6.275Y-4.8
X6.375Y-3.2
X6.375Y-3.3
X6.375Y-4.7
X6.375Y-4.8
X6.475Y-3.2
X6.475Y-3.3
X6.475Y-4.7
X6.475Y-4.8
X6.575Y-3.2
X6.575Y-3.3
X6.575Y-4.7
X6.575Y-4.8
X6.675Y-3.2
X6.675Y-3.3
X6.675Y-4.7
X6.675Y-4.8
X6.775Y-3.2
X6.775Y-3.3
X6.775Y-4.7
X6.775Y-4.8
X6.875Y-3.2
X6.875Y-3.3
X6.875Y-4.7
X6.875Y-4.8
T0
M30
