G04 #@! TF.GenerationSoftware,KiCad,Pcbnew,7.0.9+dfsg-1*
G04 #@! TF.CreationDate,2023-12-12T22:55:21+08:00*
G04 #@! TF.ProjectId,can,63616e2e-6b69-4636-9164-5f7063625858,a*
G04 #@! TF.SameCoordinates,Original*
G04 #@! TF.FileFunction,Soldermask,Bot*
G04 #@! TF.FilePolarity,Negative*
%FSLAX46Y46*%
G04 Gerber Fmt 4.6, Leading zero omitted, Abs format (unit mm)*
G04 Created by KiCad (PCBNEW 7.0.9+dfsg-1) date 2023-12-12 22:55:21*
%MOMM*%
%LPD*%
G01*
G04 APERTURE LIST*
%ADD10C,3.200000*%
%ADD11R,2.600000X2.600000*%
%ADD12C,2.600000*%
%ADD13R,1.700000X1.700000*%
%ADD14O,1.700000X1.700000*%
G04 APERTURE END LIST*
D10*
G04 #@! TO.C,J1*
X115570000Y-77470000D03*
X115570000Y-120650000D03*
X184150000Y-77470000D03*
X184150000Y-120650000D03*
G04 #@! TD*
D11*
G04 #@! TO.C,J5*
X181610000Y-109775000D03*
D12*
X181610000Y-104775000D03*
G04 #@! TD*
D13*
G04 #@! TO.C,J2*
X125730000Y-116840000D03*
D14*
X125730000Y-119380000D03*
X128270000Y-116840000D03*
X128270000Y-119380000D03*
X130810000Y-116840000D03*
X130810000Y-119380000D03*
X133350000Y-116840000D03*
X133350000Y-119380000D03*
X135890000Y-116840000D03*
X135890000Y-119380000D03*
X138430000Y-116840000D03*
X138430000Y-119380000D03*
X140970000Y-116840000D03*
X140970000Y-119380000D03*
X143510000Y-116840000D03*
X143510000Y-119380000D03*
X146050000Y-116840000D03*
X146050000Y-119380000D03*
X148590000Y-116840000D03*
X148590000Y-119380000D03*
X151130000Y-116840000D03*
X151130000Y-119380000D03*
X153670000Y-116840000D03*
X153670000Y-119380000D03*
X156210000Y-116840000D03*
X156210000Y-119380000D03*
X158750000Y-116840000D03*
X158750000Y-119380000D03*
X161290000Y-116840000D03*
X161290000Y-119380000D03*
X163830000Y-116840000D03*
X163830000Y-119380000D03*
X166370000Y-116840000D03*
X166370000Y-119380000D03*
X168910000Y-116840000D03*
X168910000Y-119380000D03*
X171450000Y-116840000D03*
X171450000Y-119380000D03*
X173990000Y-116840000D03*
X173990000Y-119380000D03*
G04 #@! TD*
D13*
G04 #@! TO.C,J3*
X173990000Y-81280000D03*
D14*
X173990000Y-78740000D03*
X171450000Y-81280000D03*
X171450000Y-78740000D03*
X168910000Y-81280000D03*
X168910000Y-78740000D03*
X166370000Y-81280000D03*
X166370000Y-78740000D03*
X163830000Y-81280000D03*
X163830000Y-78740000D03*
X161290000Y-81280000D03*
X161290000Y-78740000D03*
X158750000Y-81280000D03*
X158750000Y-78740000D03*
X156210000Y-81280000D03*
X156210000Y-78740000D03*
X153670000Y-81280000D03*
X153670000Y-78740000D03*
X151130000Y-81280000D03*
X151130000Y-78740000D03*
X148590000Y-81280000D03*
X148590000Y-78740000D03*
X146050000Y-81280000D03*
X146050000Y-78740000D03*
X143510000Y-81280000D03*
X143510000Y-78740000D03*
X140970000Y-81280000D03*
X140970000Y-78740000D03*
X138430000Y-81280000D03*
X138430000Y-78740000D03*
X135890000Y-81280000D03*
X135890000Y-78740000D03*
X133350000Y-81280000D03*
X133350000Y-78740000D03*
X130810000Y-81280000D03*
X130810000Y-78740000D03*
X128270000Y-81280000D03*
X128270000Y-78740000D03*
X125730000Y-81280000D03*
X125730000Y-78740000D03*
G04 #@! TD*
D11*
G04 #@! TO.C,J4*
X181745000Y-93940000D03*
D12*
X181745000Y-88940000D03*
G04 #@! TD*
M02*
