G04 #@! TF.GenerationSoftware,KiCad,Pcbnew,7.0.9+dfsg-1*
G04 #@! TF.CreationDate,2023-12-12T22:55:20+08:00*
G04 #@! TF.ProjectId,can,63616e2e-6b69-4636-9164-5f7063625858,a*
G04 #@! TF.SameCoordinates,Original*
G04 #@! TF.FileFunction,Legend,Top*
G04 #@! TF.FilePolarity,Positive*
%FSLAX46Y46*%
G04 Gerber Fmt 4.6, Leading zero omitted, Abs format (unit mm)*
G04 Created by KiCad (PCBNEW 7.0.9+dfsg-1) date 2023-12-12 22:55:20*
%MOMM*%
%LPD*%
G01*
G04 APERTURE LIST*
%ADD10C,0.150000*%
%ADD11C,0.120000*%
G04 APERTURE END LIST*
D10*
X136525000Y-100965000D02*
X153670000Y-100965000D01*
X153670000Y-109855000D01*
X136525000Y-109855000D01*
X136525000Y-100965000D01*
X136525000Y-86995000D02*
X153670000Y-86995000D01*
X153670000Y-95885000D01*
X136525000Y-95885000D01*
X136525000Y-86995000D01*
X176939580Y-92559047D02*
X176987200Y-92606666D01*
X176987200Y-92606666D02*
X177034819Y-92749523D01*
X177034819Y-92749523D02*
X177034819Y-92844761D01*
X177034819Y-92844761D02*
X176987200Y-92987618D01*
X176987200Y-92987618D02*
X176891961Y-93082856D01*
X176891961Y-93082856D02*
X176796723Y-93130475D01*
X176796723Y-93130475D02*
X176606247Y-93178094D01*
X176606247Y-93178094D02*
X176463390Y-93178094D01*
X176463390Y-93178094D02*
X176272914Y-93130475D01*
X176272914Y-93130475D02*
X176177676Y-93082856D01*
X176177676Y-93082856D02*
X176082438Y-92987618D01*
X176082438Y-92987618D02*
X176034819Y-92844761D01*
X176034819Y-92844761D02*
X176034819Y-92749523D01*
X176034819Y-92749523D02*
X176082438Y-92606666D01*
X176082438Y-92606666D02*
X176130057Y-92559047D01*
X176749104Y-92178094D02*
X176749104Y-91701904D01*
X177034819Y-92273332D02*
X176034819Y-91939999D01*
X176034819Y-91939999D02*
X177034819Y-91606666D01*
X177034819Y-91273332D02*
X176034819Y-91273332D01*
X176034819Y-91273332D02*
X177034819Y-90701904D01*
X177034819Y-90701904D02*
X176034819Y-90701904D01*
X177034819Y-89701904D02*
X177034819Y-90273332D01*
X177034819Y-89987618D02*
X176034819Y-89987618D01*
X176034819Y-89987618D02*
X176177676Y-90082856D01*
X176177676Y-90082856D02*
X176272914Y-90178094D01*
X176272914Y-90178094D02*
X176320533Y-90273332D01*
X176939580Y-108434047D02*
X176987200Y-108481666D01*
X176987200Y-108481666D02*
X177034819Y-108624523D01*
X177034819Y-108624523D02*
X177034819Y-108719761D01*
X177034819Y-108719761D02*
X176987200Y-108862618D01*
X176987200Y-108862618D02*
X176891961Y-108957856D01*
X176891961Y-108957856D02*
X176796723Y-109005475D01*
X176796723Y-109005475D02*
X176606247Y-109053094D01*
X176606247Y-109053094D02*
X176463390Y-109053094D01*
X176463390Y-109053094D02*
X176272914Y-109005475D01*
X176272914Y-109005475D02*
X176177676Y-108957856D01*
X176177676Y-108957856D02*
X176082438Y-108862618D01*
X176082438Y-108862618D02*
X176034819Y-108719761D01*
X176034819Y-108719761D02*
X176034819Y-108624523D01*
X176034819Y-108624523D02*
X176082438Y-108481666D01*
X176082438Y-108481666D02*
X176130057Y-108434047D01*
X176749104Y-108053094D02*
X176749104Y-107576904D01*
X177034819Y-108148332D02*
X176034819Y-107814999D01*
X176034819Y-107814999D02*
X177034819Y-107481666D01*
X177034819Y-107148332D02*
X176034819Y-107148332D01*
X176034819Y-107148332D02*
X177034819Y-106576904D01*
X177034819Y-106576904D02*
X176034819Y-106576904D01*
X176130057Y-106148332D02*
X176082438Y-106100713D01*
X176082438Y-106100713D02*
X176034819Y-106005475D01*
X176034819Y-106005475D02*
X176034819Y-105767380D01*
X176034819Y-105767380D02*
X176082438Y-105672142D01*
X176082438Y-105672142D02*
X176130057Y-105624523D01*
X176130057Y-105624523D02*
X176225295Y-105576904D01*
X176225295Y-105576904D02*
X176320533Y-105576904D01*
X176320533Y-105576904D02*
X176463390Y-105624523D01*
X176463390Y-105624523D02*
X177034819Y-106195951D01*
X177034819Y-106195951D02*
X177034819Y-105576904D01*
X141173220Y-106899104D02*
X141649410Y-106899104D01*
X141077982Y-107184819D02*
X141411315Y-106184819D01*
X141411315Y-106184819D02*
X141744648Y-107184819D01*
X142554172Y-107184819D02*
X142077982Y-107184819D01*
X142077982Y-107184819D02*
X142077982Y-106184819D01*
X142744649Y-106184819D02*
X143316077Y-106184819D01*
X143030363Y-107184819D02*
X143030363Y-106184819D01*
X140363696Y-104549580D02*
X140316077Y-104597200D01*
X140316077Y-104597200D02*
X140173220Y-104644819D01*
X140173220Y-104644819D02*
X140077982Y-104644819D01*
X140077982Y-104644819D02*
X139935125Y-104597200D01*
X139935125Y-104597200D02*
X139839887Y-104501961D01*
X139839887Y-104501961D02*
X139792268Y-104406723D01*
X139792268Y-104406723D02*
X139744649Y-104216247D01*
X139744649Y-104216247D02*
X139744649Y-104073390D01*
X139744649Y-104073390D02*
X139792268Y-103882914D01*
X139792268Y-103882914D02*
X139839887Y-103787676D01*
X139839887Y-103787676D02*
X139935125Y-103692438D01*
X139935125Y-103692438D02*
X140077982Y-103644819D01*
X140077982Y-103644819D02*
X140173220Y-103644819D01*
X140173220Y-103644819D02*
X140316077Y-103692438D01*
X140316077Y-103692438D02*
X140363696Y-103740057D01*
X140744649Y-104359104D02*
X141220839Y-104359104D01*
X140649411Y-104644819D02*
X140982744Y-103644819D01*
X140982744Y-103644819D02*
X141316077Y-104644819D01*
X141649411Y-104644819D02*
X141649411Y-103644819D01*
X141649411Y-103644819D02*
X142220839Y-104644819D01*
X142220839Y-104644819D02*
X142220839Y-103644819D01*
X142649411Y-103740057D02*
X142697030Y-103692438D01*
X142697030Y-103692438D02*
X142792268Y-103644819D01*
X142792268Y-103644819D02*
X143030363Y-103644819D01*
X143030363Y-103644819D02*
X143125601Y-103692438D01*
X143125601Y-103692438D02*
X143173220Y-103740057D01*
X143173220Y-103740057D02*
X143220839Y-103835295D01*
X143220839Y-103835295D02*
X143220839Y-103930533D01*
X143220839Y-103930533D02*
X143173220Y-104073390D01*
X143173220Y-104073390D02*
X142601792Y-104644819D01*
X142601792Y-104644819D02*
X143220839Y-104644819D01*
X140363696Y-90579580D02*
X140316077Y-90627200D01*
X140316077Y-90627200D02*
X140173220Y-90674819D01*
X140173220Y-90674819D02*
X140077982Y-90674819D01*
X140077982Y-90674819D02*
X139935125Y-90627200D01*
X139935125Y-90627200D02*
X139839887Y-90531961D01*
X139839887Y-90531961D02*
X139792268Y-90436723D01*
X139792268Y-90436723D02*
X139744649Y-90246247D01*
X139744649Y-90246247D02*
X139744649Y-90103390D01*
X139744649Y-90103390D02*
X139792268Y-89912914D01*
X139792268Y-89912914D02*
X139839887Y-89817676D01*
X139839887Y-89817676D02*
X139935125Y-89722438D01*
X139935125Y-89722438D02*
X140077982Y-89674819D01*
X140077982Y-89674819D02*
X140173220Y-89674819D01*
X140173220Y-89674819D02*
X140316077Y-89722438D01*
X140316077Y-89722438D02*
X140363696Y-89770057D01*
X140744649Y-90389104D02*
X141220839Y-90389104D01*
X140649411Y-90674819D02*
X140982744Y-89674819D01*
X140982744Y-89674819D02*
X141316077Y-90674819D01*
X141649411Y-90674819D02*
X141649411Y-89674819D01*
X141649411Y-89674819D02*
X142220839Y-90674819D01*
X142220839Y-90674819D02*
X142220839Y-89674819D01*
X143220839Y-90674819D02*
X142649411Y-90674819D01*
X142935125Y-90674819D02*
X142935125Y-89674819D01*
X142935125Y-89674819D02*
X142839887Y-89817676D01*
X142839887Y-89817676D02*
X142744649Y-89912914D01*
X142744649Y-89912914D02*
X142649411Y-89960533D01*
X141173220Y-92929104D02*
X141649410Y-92929104D01*
X141077982Y-93214819D02*
X141411315Y-92214819D01*
X141411315Y-92214819D02*
X141744648Y-93214819D01*
X142554172Y-93214819D02*
X142077982Y-93214819D01*
X142077982Y-93214819D02*
X142077982Y-92214819D01*
X142744649Y-92214819D02*
X143316077Y-92214819D01*
X143030363Y-93214819D02*
X143030363Y-92214819D01*
X164192295Y-114645839D02*
X163392295Y-114645839D01*
X163392295Y-114645839D02*
X163392295Y-114341077D01*
X163392295Y-114341077D02*
X163430390Y-114264887D01*
X163430390Y-114264887D02*
X163468485Y-114226792D01*
X163468485Y-114226792D02*
X163544676Y-114188696D01*
X163544676Y-114188696D02*
X163658961Y-114188696D01*
X163658961Y-114188696D02*
X163735152Y-114226792D01*
X163735152Y-114226792D02*
X163773247Y-114264887D01*
X163773247Y-114264887D02*
X163811342Y-114341077D01*
X163811342Y-114341077D02*
X163811342Y-114645839D01*
X164116104Y-113388696D02*
X164154200Y-113426792D01*
X164154200Y-113426792D02*
X164192295Y-113541077D01*
X164192295Y-113541077D02*
X164192295Y-113617268D01*
X164192295Y-113617268D02*
X164154200Y-113731554D01*
X164154200Y-113731554D02*
X164078009Y-113807744D01*
X164078009Y-113807744D02*
X164001819Y-113845839D01*
X164001819Y-113845839D02*
X163849438Y-113883935D01*
X163849438Y-113883935D02*
X163735152Y-113883935D01*
X163735152Y-113883935D02*
X163582771Y-113845839D01*
X163582771Y-113845839D02*
X163506580Y-113807744D01*
X163506580Y-113807744D02*
X163430390Y-113731554D01*
X163430390Y-113731554D02*
X163392295Y-113617268D01*
X163392295Y-113617268D02*
X163392295Y-113541077D01*
X163392295Y-113541077D02*
X163430390Y-113426792D01*
X163430390Y-113426792D02*
X163468485Y-113388696D01*
X164192295Y-113007744D02*
X164192295Y-112855363D01*
X164192295Y-112855363D02*
X164154200Y-112779173D01*
X164154200Y-112779173D02*
X164116104Y-112741077D01*
X164116104Y-112741077D02*
X164001819Y-112664887D01*
X164001819Y-112664887D02*
X163849438Y-112626792D01*
X163849438Y-112626792D02*
X163544676Y-112626792D01*
X163544676Y-112626792D02*
X163468485Y-112664887D01*
X163468485Y-112664887D02*
X163430390Y-112702982D01*
X163430390Y-112702982D02*
X163392295Y-112779173D01*
X163392295Y-112779173D02*
X163392295Y-112931554D01*
X163392295Y-112931554D02*
X163430390Y-113007744D01*
X163430390Y-113007744D02*
X163468485Y-113045839D01*
X163468485Y-113045839D02*
X163544676Y-113083935D01*
X163544676Y-113083935D02*
X163735152Y-113083935D01*
X163735152Y-113083935D02*
X163811342Y-113045839D01*
X163811342Y-113045839D02*
X163849438Y-113007744D01*
X163849438Y-113007744D02*
X163887533Y-112931554D01*
X163887533Y-112931554D02*
X163887533Y-112779173D01*
X163887533Y-112779173D02*
X163849438Y-112702982D01*
X163849438Y-112702982D02*
X163811342Y-112664887D01*
X163811342Y-112664887D02*
X163735152Y-112626792D01*
X154032295Y-124317017D02*
X153232295Y-124317017D01*
X153232295Y-124317017D02*
X153232295Y-124012255D01*
X153232295Y-124012255D02*
X153270390Y-123936065D01*
X153270390Y-123936065D02*
X153308485Y-123897970D01*
X153308485Y-123897970D02*
X153384676Y-123859874D01*
X153384676Y-123859874D02*
X153498961Y-123859874D01*
X153498961Y-123859874D02*
X153575152Y-123897970D01*
X153575152Y-123897970D02*
X153613247Y-123936065D01*
X153613247Y-123936065D02*
X153651342Y-124012255D01*
X153651342Y-124012255D02*
X153651342Y-124317017D01*
X153613247Y-123250351D02*
X153651342Y-123136065D01*
X153651342Y-123136065D02*
X153689438Y-123097970D01*
X153689438Y-123097970D02*
X153765628Y-123059874D01*
X153765628Y-123059874D02*
X153879914Y-123059874D01*
X153879914Y-123059874D02*
X153956104Y-123097970D01*
X153956104Y-123097970D02*
X153994200Y-123136065D01*
X153994200Y-123136065D02*
X154032295Y-123212255D01*
X154032295Y-123212255D02*
X154032295Y-123517017D01*
X154032295Y-123517017D02*
X153232295Y-123517017D01*
X153232295Y-123517017D02*
X153232295Y-123250351D01*
X153232295Y-123250351D02*
X153270390Y-123174160D01*
X153270390Y-123174160D02*
X153308485Y-123136065D01*
X153308485Y-123136065D02*
X153384676Y-123097970D01*
X153384676Y-123097970D02*
X153460866Y-123097970D01*
X153460866Y-123097970D02*
X153537057Y-123136065D01*
X153537057Y-123136065D02*
X153575152Y-123174160D01*
X153575152Y-123174160D02*
X153613247Y-123250351D01*
X153613247Y-123250351D02*
X153613247Y-123517017D01*
X154032295Y-122297970D02*
X154032295Y-122755113D01*
X154032295Y-122526541D02*
X153232295Y-122526541D01*
X153232295Y-122526541D02*
X153346580Y-122602732D01*
X153346580Y-122602732D02*
X153422771Y-122678922D01*
X153422771Y-122678922D02*
X153460866Y-122755113D01*
X153232295Y-121802731D02*
X153232295Y-121726541D01*
X153232295Y-121726541D02*
X153270390Y-121650350D01*
X153270390Y-121650350D02*
X153308485Y-121612255D01*
X153308485Y-121612255D02*
X153384676Y-121574160D01*
X153384676Y-121574160D02*
X153537057Y-121536065D01*
X153537057Y-121536065D02*
X153727533Y-121536065D01*
X153727533Y-121536065D02*
X153879914Y-121574160D01*
X153879914Y-121574160D02*
X153956104Y-121612255D01*
X153956104Y-121612255D02*
X153994200Y-121650350D01*
X153994200Y-121650350D02*
X154032295Y-121726541D01*
X154032295Y-121726541D02*
X154032295Y-121802731D01*
X154032295Y-121802731D02*
X153994200Y-121878922D01*
X153994200Y-121878922D02*
X153956104Y-121917017D01*
X153956104Y-121917017D02*
X153879914Y-121955112D01*
X153879914Y-121955112D02*
X153727533Y-121993208D01*
X153727533Y-121993208D02*
X153537057Y-121993208D01*
X153537057Y-121993208D02*
X153384676Y-121955112D01*
X153384676Y-121955112D02*
X153308485Y-121917017D01*
X153308485Y-121917017D02*
X153270390Y-121878922D01*
X153270390Y-121878922D02*
X153232295Y-121802731D01*
X159112295Y-114645839D02*
X158312295Y-114645839D01*
X158312295Y-114645839D02*
X158312295Y-114341077D01*
X158312295Y-114341077D02*
X158350390Y-114264887D01*
X158350390Y-114264887D02*
X158388485Y-114226792D01*
X158388485Y-114226792D02*
X158464676Y-114188696D01*
X158464676Y-114188696D02*
X158578961Y-114188696D01*
X158578961Y-114188696D02*
X158655152Y-114226792D01*
X158655152Y-114226792D02*
X158693247Y-114264887D01*
X158693247Y-114264887D02*
X158731342Y-114341077D01*
X158731342Y-114341077D02*
X158731342Y-114645839D01*
X158693247Y-113579173D02*
X158731342Y-113464887D01*
X158731342Y-113464887D02*
X158769438Y-113426792D01*
X158769438Y-113426792D02*
X158845628Y-113388696D01*
X158845628Y-113388696D02*
X158959914Y-113388696D01*
X158959914Y-113388696D02*
X159036104Y-113426792D01*
X159036104Y-113426792D02*
X159074200Y-113464887D01*
X159074200Y-113464887D02*
X159112295Y-113541077D01*
X159112295Y-113541077D02*
X159112295Y-113845839D01*
X159112295Y-113845839D02*
X158312295Y-113845839D01*
X158312295Y-113845839D02*
X158312295Y-113579173D01*
X158312295Y-113579173D02*
X158350390Y-113502982D01*
X158350390Y-113502982D02*
X158388485Y-113464887D01*
X158388485Y-113464887D02*
X158464676Y-113426792D01*
X158464676Y-113426792D02*
X158540866Y-113426792D01*
X158540866Y-113426792D02*
X158617057Y-113464887D01*
X158617057Y-113464887D02*
X158655152Y-113502982D01*
X158655152Y-113502982D02*
X158693247Y-113579173D01*
X158693247Y-113579173D02*
X158693247Y-113845839D01*
X159112295Y-112626792D02*
X159112295Y-113083935D01*
X159112295Y-112855363D02*
X158312295Y-112855363D01*
X158312295Y-112855363D02*
X158426580Y-112931554D01*
X158426580Y-112931554D02*
X158502771Y-113007744D01*
X158502771Y-113007744D02*
X158540866Y-113083935D01*
X158312295Y-111902982D02*
X158312295Y-112283934D01*
X158312295Y-112283934D02*
X158693247Y-112322030D01*
X158693247Y-112322030D02*
X158655152Y-112283934D01*
X158655152Y-112283934D02*
X158617057Y-112207744D01*
X158617057Y-112207744D02*
X158617057Y-112017268D01*
X158617057Y-112017268D02*
X158655152Y-111941077D01*
X158655152Y-111941077D02*
X158693247Y-111902982D01*
X158693247Y-111902982D02*
X158769438Y-111864887D01*
X158769438Y-111864887D02*
X158959914Y-111864887D01*
X158959914Y-111864887D02*
X159036104Y-111902982D01*
X159036104Y-111902982D02*
X159074200Y-111941077D01*
X159074200Y-111941077D02*
X159112295Y-112017268D01*
X159112295Y-112017268D02*
X159112295Y-112207744D01*
X159112295Y-112207744D02*
X159074200Y-112283934D01*
X159074200Y-112283934D02*
X159036104Y-112322030D01*
X161652295Y-86102731D02*
X160852295Y-86102731D01*
X160852295Y-86102731D02*
X160852295Y-85797969D01*
X160852295Y-85797969D02*
X160890390Y-85721779D01*
X160890390Y-85721779D02*
X160928485Y-85683684D01*
X160928485Y-85683684D02*
X161004676Y-85645588D01*
X161004676Y-85645588D02*
X161118961Y-85645588D01*
X161118961Y-85645588D02*
X161195152Y-85683684D01*
X161195152Y-85683684D02*
X161233247Y-85721779D01*
X161233247Y-85721779D02*
X161271342Y-85797969D01*
X161271342Y-85797969D02*
X161271342Y-86102731D01*
X161423723Y-85340827D02*
X161423723Y-84959874D01*
X161652295Y-85417017D02*
X160852295Y-85150350D01*
X160852295Y-85150350D02*
X161652295Y-84883684D01*
X161652295Y-84197970D02*
X161652295Y-84655113D01*
X161652295Y-84426541D02*
X160852295Y-84426541D01*
X160852295Y-84426541D02*
X160966580Y-84502732D01*
X160966580Y-84502732D02*
X161042771Y-84578922D01*
X161042771Y-84578922D02*
X161080866Y-84655113D01*
X161652295Y-83436065D02*
X161652295Y-83893208D01*
X161652295Y-83664636D02*
X160852295Y-83664636D01*
X160852295Y-83664636D02*
X160966580Y-83740827D01*
X160966580Y-83740827D02*
X161042771Y-83817017D01*
X161042771Y-83817017D02*
X161080866Y-83893208D01*
X130372295Y-76545839D02*
X131019914Y-76545839D01*
X131019914Y-76545839D02*
X131096104Y-76507744D01*
X131096104Y-76507744D02*
X131134200Y-76469649D01*
X131134200Y-76469649D02*
X131172295Y-76393458D01*
X131172295Y-76393458D02*
X131172295Y-76241077D01*
X131172295Y-76241077D02*
X131134200Y-76164887D01*
X131134200Y-76164887D02*
X131096104Y-76126792D01*
X131096104Y-76126792D02*
X131019914Y-76088696D01*
X131019914Y-76088696D02*
X130372295Y-76088696D01*
X130372295Y-75783935D02*
X130372295Y-75250601D01*
X130372295Y-75250601D02*
X131172295Y-75593459D01*
X161652295Y-114645839D02*
X160852295Y-114645839D01*
X160852295Y-114645839D02*
X160852295Y-114341077D01*
X160852295Y-114341077D02*
X160890390Y-114264887D01*
X160890390Y-114264887D02*
X160928485Y-114226792D01*
X160928485Y-114226792D02*
X161004676Y-114188696D01*
X161004676Y-114188696D02*
X161118961Y-114188696D01*
X161118961Y-114188696D02*
X161195152Y-114226792D01*
X161195152Y-114226792D02*
X161233247Y-114264887D01*
X161233247Y-114264887D02*
X161271342Y-114341077D01*
X161271342Y-114341077D02*
X161271342Y-114645839D01*
X161576104Y-113388696D02*
X161614200Y-113426792D01*
X161614200Y-113426792D02*
X161652295Y-113541077D01*
X161652295Y-113541077D02*
X161652295Y-113617268D01*
X161652295Y-113617268D02*
X161614200Y-113731554D01*
X161614200Y-113731554D02*
X161538009Y-113807744D01*
X161538009Y-113807744D02*
X161461819Y-113845839D01*
X161461819Y-113845839D02*
X161309438Y-113883935D01*
X161309438Y-113883935D02*
X161195152Y-113883935D01*
X161195152Y-113883935D02*
X161042771Y-113845839D01*
X161042771Y-113845839D02*
X160966580Y-113807744D01*
X160966580Y-113807744D02*
X160890390Y-113731554D01*
X160890390Y-113731554D02*
X160852295Y-113617268D01*
X160852295Y-113617268D02*
X160852295Y-113541077D01*
X160852295Y-113541077D02*
X160890390Y-113426792D01*
X160890390Y-113426792D02*
X160928485Y-113388696D01*
X160852295Y-113122030D02*
X160852295Y-112588696D01*
X160852295Y-112588696D02*
X161652295Y-112931554D01*
X159112295Y-76545839D02*
X158312295Y-76545839D01*
X158312295Y-76545839D02*
X158312295Y-76241077D01*
X158312295Y-76241077D02*
X158350390Y-76164887D01*
X158350390Y-76164887D02*
X158388485Y-76126792D01*
X158388485Y-76126792D02*
X158464676Y-76088696D01*
X158464676Y-76088696D02*
X158578961Y-76088696D01*
X158578961Y-76088696D02*
X158655152Y-76126792D01*
X158655152Y-76126792D02*
X158693247Y-76164887D01*
X158693247Y-76164887D02*
X158731342Y-76241077D01*
X158731342Y-76241077D02*
X158731342Y-76545839D01*
X158883723Y-75783935D02*
X158883723Y-75402982D01*
X159112295Y-75860125D02*
X158312295Y-75593458D01*
X158312295Y-75593458D02*
X159112295Y-75326792D01*
X159112295Y-74641078D02*
X159112295Y-75098221D01*
X159112295Y-74869649D02*
X158312295Y-74869649D01*
X158312295Y-74869649D02*
X158426580Y-74945840D01*
X158426580Y-74945840D02*
X158502771Y-75022030D01*
X158502771Y-75022030D02*
X158540866Y-75098221D01*
X158388485Y-74336316D02*
X158350390Y-74298220D01*
X158350390Y-74298220D02*
X158312295Y-74222030D01*
X158312295Y-74222030D02*
X158312295Y-74031554D01*
X158312295Y-74031554D02*
X158350390Y-73955363D01*
X158350390Y-73955363D02*
X158388485Y-73917268D01*
X158388485Y-73917268D02*
X158464676Y-73879173D01*
X158464676Y-73879173D02*
X158540866Y-73879173D01*
X158540866Y-73879173D02*
X158655152Y-73917268D01*
X158655152Y-73917268D02*
X159112295Y-74374411D01*
X159112295Y-74374411D02*
X159112295Y-73879173D01*
X156572295Y-114645839D02*
X155772295Y-114645839D01*
X155772295Y-114645839D02*
X155772295Y-114341077D01*
X155772295Y-114341077D02*
X155810390Y-114264887D01*
X155810390Y-114264887D02*
X155848485Y-114226792D01*
X155848485Y-114226792D02*
X155924676Y-114188696D01*
X155924676Y-114188696D02*
X156038961Y-114188696D01*
X156038961Y-114188696D02*
X156115152Y-114226792D01*
X156115152Y-114226792D02*
X156153247Y-114264887D01*
X156153247Y-114264887D02*
X156191342Y-114341077D01*
X156191342Y-114341077D02*
X156191342Y-114645839D01*
X156153247Y-113579173D02*
X156191342Y-113464887D01*
X156191342Y-113464887D02*
X156229438Y-113426792D01*
X156229438Y-113426792D02*
X156305628Y-113388696D01*
X156305628Y-113388696D02*
X156419914Y-113388696D01*
X156419914Y-113388696D02*
X156496104Y-113426792D01*
X156496104Y-113426792D02*
X156534200Y-113464887D01*
X156534200Y-113464887D02*
X156572295Y-113541077D01*
X156572295Y-113541077D02*
X156572295Y-113845839D01*
X156572295Y-113845839D02*
X155772295Y-113845839D01*
X155772295Y-113845839D02*
X155772295Y-113579173D01*
X155772295Y-113579173D02*
X155810390Y-113502982D01*
X155810390Y-113502982D02*
X155848485Y-113464887D01*
X155848485Y-113464887D02*
X155924676Y-113426792D01*
X155924676Y-113426792D02*
X156000866Y-113426792D01*
X156000866Y-113426792D02*
X156077057Y-113464887D01*
X156077057Y-113464887D02*
X156115152Y-113502982D01*
X156115152Y-113502982D02*
X156153247Y-113579173D01*
X156153247Y-113579173D02*
X156153247Y-113845839D01*
X156572295Y-112626792D02*
X156572295Y-113083935D01*
X156572295Y-112855363D02*
X155772295Y-112855363D01*
X155772295Y-112855363D02*
X155886580Y-112931554D01*
X155886580Y-112931554D02*
X155962771Y-113007744D01*
X155962771Y-113007744D02*
X156000866Y-113083935D01*
X155772295Y-112360125D02*
X155772295Y-111864887D01*
X155772295Y-111864887D02*
X156077057Y-112131553D01*
X156077057Y-112131553D02*
X156077057Y-112017268D01*
X156077057Y-112017268D02*
X156115152Y-111941077D01*
X156115152Y-111941077D02*
X156153247Y-111902982D01*
X156153247Y-111902982D02*
X156229438Y-111864887D01*
X156229438Y-111864887D02*
X156419914Y-111864887D01*
X156419914Y-111864887D02*
X156496104Y-111902982D01*
X156496104Y-111902982D02*
X156534200Y-111941077D01*
X156534200Y-111941077D02*
X156572295Y-112017268D01*
X156572295Y-112017268D02*
X156572295Y-112245839D01*
X156572295Y-112245839D02*
X156534200Y-112322030D01*
X156534200Y-112322030D02*
X156496104Y-112360125D01*
X143872295Y-85455112D02*
X143072295Y-85455112D01*
X143072295Y-85455112D02*
X143072295Y-85150350D01*
X143072295Y-85150350D02*
X143110390Y-85074160D01*
X143110390Y-85074160D02*
X143148485Y-85036065D01*
X143148485Y-85036065D02*
X143224676Y-84997969D01*
X143224676Y-84997969D02*
X143338961Y-84997969D01*
X143338961Y-84997969D02*
X143415152Y-85036065D01*
X143415152Y-85036065D02*
X143453247Y-85074160D01*
X143453247Y-85074160D02*
X143491342Y-85150350D01*
X143491342Y-85150350D02*
X143491342Y-85455112D01*
X143453247Y-84388446D02*
X143491342Y-84274160D01*
X143491342Y-84274160D02*
X143529438Y-84236065D01*
X143529438Y-84236065D02*
X143605628Y-84197969D01*
X143605628Y-84197969D02*
X143719914Y-84197969D01*
X143719914Y-84197969D02*
X143796104Y-84236065D01*
X143796104Y-84236065D02*
X143834200Y-84274160D01*
X143834200Y-84274160D02*
X143872295Y-84350350D01*
X143872295Y-84350350D02*
X143872295Y-84655112D01*
X143872295Y-84655112D02*
X143072295Y-84655112D01*
X143072295Y-84655112D02*
X143072295Y-84388446D01*
X143072295Y-84388446D02*
X143110390Y-84312255D01*
X143110390Y-84312255D02*
X143148485Y-84274160D01*
X143148485Y-84274160D02*
X143224676Y-84236065D01*
X143224676Y-84236065D02*
X143300866Y-84236065D01*
X143300866Y-84236065D02*
X143377057Y-84274160D01*
X143377057Y-84274160D02*
X143415152Y-84312255D01*
X143415152Y-84312255D02*
X143453247Y-84388446D01*
X143453247Y-84388446D02*
X143453247Y-84655112D01*
X143072295Y-83474160D02*
X143072295Y-83855112D01*
X143072295Y-83855112D02*
X143453247Y-83893208D01*
X143453247Y-83893208D02*
X143415152Y-83855112D01*
X143415152Y-83855112D02*
X143377057Y-83778922D01*
X143377057Y-83778922D02*
X143377057Y-83588446D01*
X143377057Y-83588446D02*
X143415152Y-83512255D01*
X143415152Y-83512255D02*
X143453247Y-83474160D01*
X143453247Y-83474160D02*
X143529438Y-83436065D01*
X143529438Y-83436065D02*
X143719914Y-83436065D01*
X143719914Y-83436065D02*
X143796104Y-83474160D01*
X143796104Y-83474160D02*
X143834200Y-83512255D01*
X143834200Y-83512255D02*
X143872295Y-83588446D01*
X143872295Y-83588446D02*
X143872295Y-83778922D01*
X143872295Y-83778922D02*
X143834200Y-83855112D01*
X143834200Y-83855112D02*
X143796104Y-83893208D01*
X156572295Y-124317017D02*
X155772295Y-124317017D01*
X155772295Y-124317017D02*
X155772295Y-124012255D01*
X155772295Y-124012255D02*
X155810390Y-123936065D01*
X155810390Y-123936065D02*
X155848485Y-123897970D01*
X155848485Y-123897970D02*
X155924676Y-123859874D01*
X155924676Y-123859874D02*
X156038961Y-123859874D01*
X156038961Y-123859874D02*
X156115152Y-123897970D01*
X156115152Y-123897970D02*
X156153247Y-123936065D01*
X156153247Y-123936065D02*
X156191342Y-124012255D01*
X156191342Y-124012255D02*
X156191342Y-124317017D01*
X156153247Y-123250351D02*
X156191342Y-123136065D01*
X156191342Y-123136065D02*
X156229438Y-123097970D01*
X156229438Y-123097970D02*
X156305628Y-123059874D01*
X156305628Y-123059874D02*
X156419914Y-123059874D01*
X156419914Y-123059874D02*
X156496104Y-123097970D01*
X156496104Y-123097970D02*
X156534200Y-123136065D01*
X156534200Y-123136065D02*
X156572295Y-123212255D01*
X156572295Y-123212255D02*
X156572295Y-123517017D01*
X156572295Y-123517017D02*
X155772295Y-123517017D01*
X155772295Y-123517017D02*
X155772295Y-123250351D01*
X155772295Y-123250351D02*
X155810390Y-123174160D01*
X155810390Y-123174160D02*
X155848485Y-123136065D01*
X155848485Y-123136065D02*
X155924676Y-123097970D01*
X155924676Y-123097970D02*
X156000866Y-123097970D01*
X156000866Y-123097970D02*
X156077057Y-123136065D01*
X156077057Y-123136065D02*
X156115152Y-123174160D01*
X156115152Y-123174160D02*
X156153247Y-123250351D01*
X156153247Y-123250351D02*
X156153247Y-123517017D01*
X156572295Y-122297970D02*
X156572295Y-122755113D01*
X156572295Y-122526541D02*
X155772295Y-122526541D01*
X155772295Y-122526541D02*
X155886580Y-122602732D01*
X155886580Y-122602732D02*
X155962771Y-122678922D01*
X155962771Y-122678922D02*
X156000866Y-122755113D01*
X155848485Y-121993208D02*
X155810390Y-121955112D01*
X155810390Y-121955112D02*
X155772295Y-121878922D01*
X155772295Y-121878922D02*
X155772295Y-121688446D01*
X155772295Y-121688446D02*
X155810390Y-121612255D01*
X155810390Y-121612255D02*
X155848485Y-121574160D01*
X155848485Y-121574160D02*
X155924676Y-121536065D01*
X155924676Y-121536065D02*
X156000866Y-121536065D01*
X156000866Y-121536065D02*
X156115152Y-121574160D01*
X156115152Y-121574160D02*
X156572295Y-122031303D01*
X156572295Y-122031303D02*
X156572295Y-121536065D01*
X164192295Y-123555112D02*
X163392295Y-123555112D01*
X163392295Y-123555112D02*
X163392295Y-123250350D01*
X163392295Y-123250350D02*
X163430390Y-123174160D01*
X163430390Y-123174160D02*
X163468485Y-123136065D01*
X163468485Y-123136065D02*
X163544676Y-123097969D01*
X163544676Y-123097969D02*
X163658961Y-123097969D01*
X163658961Y-123097969D02*
X163735152Y-123136065D01*
X163735152Y-123136065D02*
X163773247Y-123174160D01*
X163773247Y-123174160D02*
X163811342Y-123250350D01*
X163811342Y-123250350D02*
X163811342Y-123555112D01*
X164116104Y-122297969D02*
X164154200Y-122336065D01*
X164154200Y-122336065D02*
X164192295Y-122450350D01*
X164192295Y-122450350D02*
X164192295Y-122526541D01*
X164192295Y-122526541D02*
X164154200Y-122640827D01*
X164154200Y-122640827D02*
X164078009Y-122717017D01*
X164078009Y-122717017D02*
X164001819Y-122755112D01*
X164001819Y-122755112D02*
X163849438Y-122793208D01*
X163849438Y-122793208D02*
X163735152Y-122793208D01*
X163735152Y-122793208D02*
X163582771Y-122755112D01*
X163582771Y-122755112D02*
X163506580Y-122717017D01*
X163506580Y-122717017D02*
X163430390Y-122640827D01*
X163430390Y-122640827D02*
X163392295Y-122526541D01*
X163392295Y-122526541D02*
X163392295Y-122450350D01*
X163392295Y-122450350D02*
X163430390Y-122336065D01*
X163430390Y-122336065D02*
X163468485Y-122297969D01*
X163735152Y-121840827D02*
X163697057Y-121917017D01*
X163697057Y-121917017D02*
X163658961Y-121955112D01*
X163658961Y-121955112D02*
X163582771Y-121993208D01*
X163582771Y-121993208D02*
X163544676Y-121993208D01*
X163544676Y-121993208D02*
X163468485Y-121955112D01*
X163468485Y-121955112D02*
X163430390Y-121917017D01*
X163430390Y-121917017D02*
X163392295Y-121840827D01*
X163392295Y-121840827D02*
X163392295Y-121688446D01*
X163392295Y-121688446D02*
X163430390Y-121612255D01*
X163430390Y-121612255D02*
X163468485Y-121574160D01*
X163468485Y-121574160D02*
X163544676Y-121536065D01*
X163544676Y-121536065D02*
X163582771Y-121536065D01*
X163582771Y-121536065D02*
X163658961Y-121574160D01*
X163658961Y-121574160D02*
X163697057Y-121612255D01*
X163697057Y-121612255D02*
X163735152Y-121688446D01*
X163735152Y-121688446D02*
X163735152Y-121840827D01*
X163735152Y-121840827D02*
X163773247Y-121917017D01*
X163773247Y-121917017D02*
X163811342Y-121955112D01*
X163811342Y-121955112D02*
X163887533Y-121993208D01*
X163887533Y-121993208D02*
X164039914Y-121993208D01*
X164039914Y-121993208D02*
X164116104Y-121955112D01*
X164116104Y-121955112D02*
X164154200Y-121917017D01*
X164154200Y-121917017D02*
X164192295Y-121840827D01*
X164192295Y-121840827D02*
X164192295Y-121688446D01*
X164192295Y-121688446D02*
X164154200Y-121612255D01*
X164154200Y-121612255D02*
X164116104Y-121574160D01*
X164116104Y-121574160D02*
X164039914Y-121536065D01*
X164039914Y-121536065D02*
X163887533Y-121536065D01*
X163887533Y-121536065D02*
X163811342Y-121574160D01*
X163811342Y-121574160D02*
X163773247Y-121612255D01*
X163773247Y-121612255D02*
X163735152Y-121688446D01*
X171050390Y-114226792D02*
X171012295Y-114302982D01*
X171012295Y-114302982D02*
X171012295Y-114417268D01*
X171012295Y-114417268D02*
X171050390Y-114531554D01*
X171050390Y-114531554D02*
X171126580Y-114607744D01*
X171126580Y-114607744D02*
X171202771Y-114645839D01*
X171202771Y-114645839D02*
X171355152Y-114683935D01*
X171355152Y-114683935D02*
X171469438Y-114683935D01*
X171469438Y-114683935D02*
X171621819Y-114645839D01*
X171621819Y-114645839D02*
X171698009Y-114607744D01*
X171698009Y-114607744D02*
X171774200Y-114531554D01*
X171774200Y-114531554D02*
X171812295Y-114417268D01*
X171812295Y-114417268D02*
X171812295Y-114341077D01*
X171812295Y-114341077D02*
X171774200Y-114226792D01*
X171774200Y-114226792D02*
X171736104Y-114188696D01*
X171736104Y-114188696D02*
X171469438Y-114188696D01*
X171469438Y-114188696D02*
X171469438Y-114341077D01*
X171812295Y-113845839D02*
X171012295Y-113845839D01*
X171012295Y-113845839D02*
X171812295Y-113388696D01*
X171812295Y-113388696D02*
X171012295Y-113388696D01*
X171812295Y-113007744D02*
X171012295Y-113007744D01*
X171012295Y-113007744D02*
X171012295Y-112817268D01*
X171012295Y-112817268D02*
X171050390Y-112702982D01*
X171050390Y-112702982D02*
X171126580Y-112626792D01*
X171126580Y-112626792D02*
X171202771Y-112588697D01*
X171202771Y-112588697D02*
X171355152Y-112550601D01*
X171355152Y-112550601D02*
X171469438Y-112550601D01*
X171469438Y-112550601D02*
X171621819Y-112588697D01*
X171621819Y-112588697D02*
X171698009Y-112626792D01*
X171698009Y-112626792D02*
X171774200Y-112702982D01*
X171774200Y-112702982D02*
X171812295Y-112817268D01*
X171812295Y-112817268D02*
X171812295Y-113007744D01*
X173552295Y-76164887D02*
X173552295Y-76545839D01*
X173552295Y-76545839D02*
X173933247Y-76583935D01*
X173933247Y-76583935D02*
X173895152Y-76545839D01*
X173895152Y-76545839D02*
X173857057Y-76469649D01*
X173857057Y-76469649D02*
X173857057Y-76279173D01*
X173857057Y-76279173D02*
X173895152Y-76202982D01*
X173895152Y-76202982D02*
X173933247Y-76164887D01*
X173933247Y-76164887D02*
X174009438Y-76126792D01*
X174009438Y-76126792D02*
X174199914Y-76126792D01*
X174199914Y-76126792D02*
X174276104Y-76164887D01*
X174276104Y-76164887D02*
X174314200Y-76202982D01*
X174314200Y-76202982D02*
X174352295Y-76279173D01*
X174352295Y-76279173D02*
X174352295Y-76469649D01*
X174352295Y-76469649D02*
X174314200Y-76545839D01*
X174314200Y-76545839D02*
X174276104Y-76583935D01*
X173552295Y-75898220D02*
X174352295Y-75631553D01*
X174352295Y-75631553D02*
X173552295Y-75364887D01*
X125330390Y-114226792D02*
X125292295Y-114302982D01*
X125292295Y-114302982D02*
X125292295Y-114417268D01*
X125292295Y-114417268D02*
X125330390Y-114531554D01*
X125330390Y-114531554D02*
X125406580Y-114607744D01*
X125406580Y-114607744D02*
X125482771Y-114645839D01*
X125482771Y-114645839D02*
X125635152Y-114683935D01*
X125635152Y-114683935D02*
X125749438Y-114683935D01*
X125749438Y-114683935D02*
X125901819Y-114645839D01*
X125901819Y-114645839D02*
X125978009Y-114607744D01*
X125978009Y-114607744D02*
X126054200Y-114531554D01*
X126054200Y-114531554D02*
X126092295Y-114417268D01*
X126092295Y-114417268D02*
X126092295Y-114341077D01*
X126092295Y-114341077D02*
X126054200Y-114226792D01*
X126054200Y-114226792D02*
X126016104Y-114188696D01*
X126016104Y-114188696D02*
X125749438Y-114188696D01*
X125749438Y-114188696D02*
X125749438Y-114341077D01*
X126092295Y-113845839D02*
X125292295Y-113845839D01*
X125292295Y-113845839D02*
X126092295Y-113388696D01*
X126092295Y-113388696D02*
X125292295Y-113388696D01*
X126092295Y-113007744D02*
X125292295Y-113007744D01*
X125292295Y-113007744D02*
X125292295Y-112817268D01*
X125292295Y-112817268D02*
X125330390Y-112702982D01*
X125330390Y-112702982D02*
X125406580Y-112626792D01*
X125406580Y-112626792D02*
X125482771Y-112588697D01*
X125482771Y-112588697D02*
X125635152Y-112550601D01*
X125635152Y-112550601D02*
X125749438Y-112550601D01*
X125749438Y-112550601D02*
X125901819Y-112588697D01*
X125901819Y-112588697D02*
X125978009Y-112626792D01*
X125978009Y-112626792D02*
X126054200Y-112702982D01*
X126054200Y-112702982D02*
X126092295Y-112817268D01*
X126092295Y-112817268D02*
X126092295Y-113007744D01*
X165932295Y-122793207D02*
X166579914Y-122793207D01*
X166579914Y-122793207D02*
X166656104Y-122755112D01*
X166656104Y-122755112D02*
X166694200Y-122717017D01*
X166694200Y-122717017D02*
X166732295Y-122640826D01*
X166732295Y-122640826D02*
X166732295Y-122488445D01*
X166732295Y-122488445D02*
X166694200Y-122412255D01*
X166694200Y-122412255D02*
X166656104Y-122374160D01*
X166656104Y-122374160D02*
X166579914Y-122336064D01*
X166579914Y-122336064D02*
X165932295Y-122336064D01*
X166732295Y-121536065D02*
X166732295Y-121993208D01*
X166732295Y-121764636D02*
X165932295Y-121764636D01*
X165932295Y-121764636D02*
X166046580Y-121840827D01*
X166046580Y-121840827D02*
X166122771Y-121917017D01*
X166122771Y-121917017D02*
X166160866Y-121993208D01*
X148152295Y-84693207D02*
X148799914Y-84693207D01*
X148799914Y-84693207D02*
X148876104Y-84655112D01*
X148876104Y-84655112D02*
X148914200Y-84617017D01*
X148914200Y-84617017D02*
X148952295Y-84540826D01*
X148952295Y-84540826D02*
X148952295Y-84388445D01*
X148952295Y-84388445D02*
X148914200Y-84312255D01*
X148914200Y-84312255D02*
X148876104Y-84274160D01*
X148876104Y-84274160D02*
X148799914Y-84236064D01*
X148799914Y-84236064D02*
X148152295Y-84236064D01*
X148495152Y-83740827D02*
X148457057Y-83817017D01*
X148457057Y-83817017D02*
X148418961Y-83855112D01*
X148418961Y-83855112D02*
X148342771Y-83893208D01*
X148342771Y-83893208D02*
X148304676Y-83893208D01*
X148304676Y-83893208D02*
X148228485Y-83855112D01*
X148228485Y-83855112D02*
X148190390Y-83817017D01*
X148190390Y-83817017D02*
X148152295Y-83740827D01*
X148152295Y-83740827D02*
X148152295Y-83588446D01*
X148152295Y-83588446D02*
X148190390Y-83512255D01*
X148190390Y-83512255D02*
X148228485Y-83474160D01*
X148228485Y-83474160D02*
X148304676Y-83436065D01*
X148304676Y-83436065D02*
X148342771Y-83436065D01*
X148342771Y-83436065D02*
X148418961Y-83474160D01*
X148418961Y-83474160D02*
X148457057Y-83512255D01*
X148457057Y-83512255D02*
X148495152Y-83588446D01*
X148495152Y-83588446D02*
X148495152Y-83740827D01*
X148495152Y-83740827D02*
X148533247Y-83817017D01*
X148533247Y-83817017D02*
X148571342Y-83855112D01*
X148571342Y-83855112D02*
X148647533Y-83893208D01*
X148647533Y-83893208D02*
X148799914Y-83893208D01*
X148799914Y-83893208D02*
X148876104Y-83855112D01*
X148876104Y-83855112D02*
X148914200Y-83817017D01*
X148914200Y-83817017D02*
X148952295Y-83740827D01*
X148952295Y-83740827D02*
X148952295Y-83588446D01*
X148952295Y-83588446D02*
X148914200Y-83512255D01*
X148914200Y-83512255D02*
X148876104Y-83474160D01*
X148876104Y-83474160D02*
X148799914Y-83436065D01*
X148799914Y-83436065D02*
X148647533Y-83436065D01*
X148647533Y-83436065D02*
X148571342Y-83474160D01*
X148571342Y-83474160D02*
X148533247Y-83512255D01*
X148533247Y-83512255D02*
X148495152Y-83588446D01*
X131172295Y-114645839D02*
X130372295Y-114645839D01*
X130372295Y-114645839D02*
X130372295Y-114341077D01*
X130372295Y-114341077D02*
X130410390Y-114264887D01*
X130410390Y-114264887D02*
X130448485Y-114226792D01*
X130448485Y-114226792D02*
X130524676Y-114188696D01*
X130524676Y-114188696D02*
X130638961Y-114188696D01*
X130638961Y-114188696D02*
X130715152Y-114226792D01*
X130715152Y-114226792D02*
X130753247Y-114264887D01*
X130753247Y-114264887D02*
X130791342Y-114341077D01*
X130791342Y-114341077D02*
X130791342Y-114645839D01*
X131096104Y-113388696D02*
X131134200Y-113426792D01*
X131134200Y-113426792D02*
X131172295Y-113541077D01*
X131172295Y-113541077D02*
X131172295Y-113617268D01*
X131172295Y-113617268D02*
X131134200Y-113731554D01*
X131134200Y-113731554D02*
X131058009Y-113807744D01*
X131058009Y-113807744D02*
X130981819Y-113845839D01*
X130981819Y-113845839D02*
X130829438Y-113883935D01*
X130829438Y-113883935D02*
X130715152Y-113883935D01*
X130715152Y-113883935D02*
X130562771Y-113845839D01*
X130562771Y-113845839D02*
X130486580Y-113807744D01*
X130486580Y-113807744D02*
X130410390Y-113731554D01*
X130410390Y-113731554D02*
X130372295Y-113617268D01*
X130372295Y-113617268D02*
X130372295Y-113541077D01*
X130372295Y-113541077D02*
X130410390Y-113426792D01*
X130410390Y-113426792D02*
X130448485Y-113388696D01*
X131172295Y-112626792D02*
X131172295Y-113083935D01*
X131172295Y-112855363D02*
X130372295Y-112855363D01*
X130372295Y-112855363D02*
X130486580Y-112931554D01*
X130486580Y-112931554D02*
X130562771Y-113007744D01*
X130562771Y-113007744D02*
X130600866Y-113083935D01*
X164192295Y-76545839D02*
X163392295Y-76545839D01*
X163392295Y-76545839D02*
X163392295Y-76241077D01*
X163392295Y-76241077D02*
X163430390Y-76164887D01*
X163430390Y-76164887D02*
X163468485Y-76126792D01*
X163468485Y-76126792D02*
X163544676Y-76088696D01*
X163544676Y-76088696D02*
X163658961Y-76088696D01*
X163658961Y-76088696D02*
X163735152Y-76126792D01*
X163735152Y-76126792D02*
X163773247Y-76164887D01*
X163773247Y-76164887D02*
X163811342Y-76241077D01*
X163811342Y-76241077D02*
X163811342Y-76545839D01*
X163963723Y-75783935D02*
X163963723Y-75402982D01*
X164192295Y-75860125D02*
X163392295Y-75593458D01*
X163392295Y-75593458D02*
X164192295Y-75326792D01*
X163735152Y-74945840D02*
X163697057Y-75022030D01*
X163697057Y-75022030D02*
X163658961Y-75060125D01*
X163658961Y-75060125D02*
X163582771Y-75098221D01*
X163582771Y-75098221D02*
X163544676Y-75098221D01*
X163544676Y-75098221D02*
X163468485Y-75060125D01*
X163468485Y-75060125D02*
X163430390Y-75022030D01*
X163430390Y-75022030D02*
X163392295Y-74945840D01*
X163392295Y-74945840D02*
X163392295Y-74793459D01*
X163392295Y-74793459D02*
X163430390Y-74717268D01*
X163430390Y-74717268D02*
X163468485Y-74679173D01*
X163468485Y-74679173D02*
X163544676Y-74641078D01*
X163544676Y-74641078D02*
X163582771Y-74641078D01*
X163582771Y-74641078D02*
X163658961Y-74679173D01*
X163658961Y-74679173D02*
X163697057Y-74717268D01*
X163697057Y-74717268D02*
X163735152Y-74793459D01*
X163735152Y-74793459D02*
X163735152Y-74945840D01*
X163735152Y-74945840D02*
X163773247Y-75022030D01*
X163773247Y-75022030D02*
X163811342Y-75060125D01*
X163811342Y-75060125D02*
X163887533Y-75098221D01*
X163887533Y-75098221D02*
X164039914Y-75098221D01*
X164039914Y-75098221D02*
X164116104Y-75060125D01*
X164116104Y-75060125D02*
X164154200Y-75022030D01*
X164154200Y-75022030D02*
X164192295Y-74945840D01*
X164192295Y-74945840D02*
X164192295Y-74793459D01*
X164192295Y-74793459D02*
X164154200Y-74717268D01*
X164154200Y-74717268D02*
X164116104Y-74679173D01*
X164116104Y-74679173D02*
X164039914Y-74641078D01*
X164039914Y-74641078D02*
X163887533Y-74641078D01*
X163887533Y-74641078D02*
X163811342Y-74679173D01*
X163811342Y-74679173D02*
X163773247Y-74717268D01*
X163773247Y-74717268D02*
X163735152Y-74793459D01*
X153232295Y-85455112D02*
X153879914Y-85455112D01*
X153879914Y-85455112D02*
X153956104Y-85417017D01*
X153956104Y-85417017D02*
X153994200Y-85378922D01*
X153994200Y-85378922D02*
X154032295Y-85302731D01*
X154032295Y-85302731D02*
X154032295Y-85150350D01*
X154032295Y-85150350D02*
X153994200Y-85074160D01*
X153994200Y-85074160D02*
X153956104Y-85036065D01*
X153956104Y-85036065D02*
X153879914Y-84997969D01*
X153879914Y-84997969D02*
X153232295Y-84997969D01*
X154032295Y-84197970D02*
X154032295Y-84655113D01*
X154032295Y-84426541D02*
X153232295Y-84426541D01*
X153232295Y-84426541D02*
X153346580Y-84502732D01*
X153346580Y-84502732D02*
X153422771Y-84578922D01*
X153422771Y-84578922D02*
X153460866Y-84655113D01*
X153308485Y-83893208D02*
X153270390Y-83855112D01*
X153270390Y-83855112D02*
X153232295Y-83778922D01*
X153232295Y-83778922D02*
X153232295Y-83588446D01*
X153232295Y-83588446D02*
X153270390Y-83512255D01*
X153270390Y-83512255D02*
X153308485Y-83474160D01*
X153308485Y-83474160D02*
X153384676Y-83436065D01*
X153384676Y-83436065D02*
X153460866Y-83436065D01*
X153460866Y-83436065D02*
X153575152Y-83474160D01*
X153575152Y-83474160D02*
X154032295Y-83931303D01*
X154032295Y-83931303D02*
X154032295Y-83436065D01*
X138792295Y-76545839D02*
X137992295Y-76545839D01*
X137992295Y-76545839D02*
X137992295Y-76241077D01*
X137992295Y-76241077D02*
X138030390Y-76164887D01*
X138030390Y-76164887D02*
X138068485Y-76126792D01*
X138068485Y-76126792D02*
X138144676Y-76088696D01*
X138144676Y-76088696D02*
X138258961Y-76088696D01*
X138258961Y-76088696D02*
X138335152Y-76126792D01*
X138335152Y-76126792D02*
X138373247Y-76164887D01*
X138373247Y-76164887D02*
X138411342Y-76241077D01*
X138411342Y-76241077D02*
X138411342Y-76545839D01*
X138373247Y-75479173D02*
X138411342Y-75364887D01*
X138411342Y-75364887D02*
X138449438Y-75326792D01*
X138449438Y-75326792D02*
X138525628Y-75288696D01*
X138525628Y-75288696D02*
X138639914Y-75288696D01*
X138639914Y-75288696D02*
X138716104Y-75326792D01*
X138716104Y-75326792D02*
X138754200Y-75364887D01*
X138754200Y-75364887D02*
X138792295Y-75441077D01*
X138792295Y-75441077D02*
X138792295Y-75745839D01*
X138792295Y-75745839D02*
X137992295Y-75745839D01*
X137992295Y-75745839D02*
X137992295Y-75479173D01*
X137992295Y-75479173D02*
X138030390Y-75402982D01*
X138030390Y-75402982D02*
X138068485Y-75364887D01*
X138068485Y-75364887D02*
X138144676Y-75326792D01*
X138144676Y-75326792D02*
X138220866Y-75326792D01*
X138220866Y-75326792D02*
X138297057Y-75364887D01*
X138297057Y-75364887D02*
X138335152Y-75402982D01*
X138335152Y-75402982D02*
X138373247Y-75479173D01*
X138373247Y-75479173D02*
X138373247Y-75745839D01*
X138335152Y-74831554D02*
X138297057Y-74907744D01*
X138297057Y-74907744D02*
X138258961Y-74945839D01*
X138258961Y-74945839D02*
X138182771Y-74983935D01*
X138182771Y-74983935D02*
X138144676Y-74983935D01*
X138144676Y-74983935D02*
X138068485Y-74945839D01*
X138068485Y-74945839D02*
X138030390Y-74907744D01*
X138030390Y-74907744D02*
X137992295Y-74831554D01*
X137992295Y-74831554D02*
X137992295Y-74679173D01*
X137992295Y-74679173D02*
X138030390Y-74602982D01*
X138030390Y-74602982D02*
X138068485Y-74564887D01*
X138068485Y-74564887D02*
X138144676Y-74526792D01*
X138144676Y-74526792D02*
X138182771Y-74526792D01*
X138182771Y-74526792D02*
X138258961Y-74564887D01*
X138258961Y-74564887D02*
X138297057Y-74602982D01*
X138297057Y-74602982D02*
X138335152Y-74679173D01*
X138335152Y-74679173D02*
X138335152Y-74831554D01*
X138335152Y-74831554D02*
X138373247Y-74907744D01*
X138373247Y-74907744D02*
X138411342Y-74945839D01*
X138411342Y-74945839D02*
X138487533Y-74983935D01*
X138487533Y-74983935D02*
X138639914Y-74983935D01*
X138639914Y-74983935D02*
X138716104Y-74945839D01*
X138716104Y-74945839D02*
X138754200Y-74907744D01*
X138754200Y-74907744D02*
X138792295Y-74831554D01*
X138792295Y-74831554D02*
X138792295Y-74679173D01*
X138792295Y-74679173D02*
X138754200Y-74602982D01*
X138754200Y-74602982D02*
X138716104Y-74564887D01*
X138716104Y-74564887D02*
X138639914Y-74526792D01*
X138639914Y-74526792D02*
X138487533Y-74526792D01*
X138487533Y-74526792D02*
X138411342Y-74564887D01*
X138411342Y-74564887D02*
X138373247Y-74602982D01*
X138373247Y-74602982D02*
X138335152Y-74679173D01*
X138792295Y-85455112D02*
X137992295Y-85455112D01*
X137992295Y-85455112D02*
X137992295Y-85150350D01*
X137992295Y-85150350D02*
X138030390Y-85074160D01*
X138030390Y-85074160D02*
X138068485Y-85036065D01*
X138068485Y-85036065D02*
X138144676Y-84997969D01*
X138144676Y-84997969D02*
X138258961Y-84997969D01*
X138258961Y-84997969D02*
X138335152Y-85036065D01*
X138335152Y-85036065D02*
X138373247Y-85074160D01*
X138373247Y-85074160D02*
X138411342Y-85150350D01*
X138411342Y-85150350D02*
X138411342Y-85455112D01*
X138373247Y-84388446D02*
X138411342Y-84274160D01*
X138411342Y-84274160D02*
X138449438Y-84236065D01*
X138449438Y-84236065D02*
X138525628Y-84197969D01*
X138525628Y-84197969D02*
X138639914Y-84197969D01*
X138639914Y-84197969D02*
X138716104Y-84236065D01*
X138716104Y-84236065D02*
X138754200Y-84274160D01*
X138754200Y-84274160D02*
X138792295Y-84350350D01*
X138792295Y-84350350D02*
X138792295Y-84655112D01*
X138792295Y-84655112D02*
X137992295Y-84655112D01*
X137992295Y-84655112D02*
X137992295Y-84388446D01*
X137992295Y-84388446D02*
X138030390Y-84312255D01*
X138030390Y-84312255D02*
X138068485Y-84274160D01*
X138068485Y-84274160D02*
X138144676Y-84236065D01*
X138144676Y-84236065D02*
X138220866Y-84236065D01*
X138220866Y-84236065D02*
X138297057Y-84274160D01*
X138297057Y-84274160D02*
X138335152Y-84312255D01*
X138335152Y-84312255D02*
X138373247Y-84388446D01*
X138373247Y-84388446D02*
X138373247Y-84655112D01*
X138792295Y-83817017D02*
X138792295Y-83664636D01*
X138792295Y-83664636D02*
X138754200Y-83588446D01*
X138754200Y-83588446D02*
X138716104Y-83550350D01*
X138716104Y-83550350D02*
X138601819Y-83474160D01*
X138601819Y-83474160D02*
X138449438Y-83436065D01*
X138449438Y-83436065D02*
X138144676Y-83436065D01*
X138144676Y-83436065D02*
X138068485Y-83474160D01*
X138068485Y-83474160D02*
X138030390Y-83512255D01*
X138030390Y-83512255D02*
X137992295Y-83588446D01*
X137992295Y-83588446D02*
X137992295Y-83740827D01*
X137992295Y-83740827D02*
X138030390Y-83817017D01*
X138030390Y-83817017D02*
X138068485Y-83855112D01*
X138068485Y-83855112D02*
X138144676Y-83893208D01*
X138144676Y-83893208D02*
X138335152Y-83893208D01*
X138335152Y-83893208D02*
X138411342Y-83855112D01*
X138411342Y-83855112D02*
X138449438Y-83817017D01*
X138449438Y-83817017D02*
X138487533Y-83740827D01*
X138487533Y-83740827D02*
X138487533Y-83588446D01*
X138487533Y-83588446D02*
X138449438Y-83512255D01*
X138449438Y-83512255D02*
X138411342Y-83474160D01*
X138411342Y-83474160D02*
X138335152Y-83436065D01*
X148952295Y-123555112D02*
X148152295Y-123555112D01*
X148152295Y-123555112D02*
X148152295Y-123250350D01*
X148152295Y-123250350D02*
X148190390Y-123174160D01*
X148190390Y-123174160D02*
X148228485Y-123136065D01*
X148228485Y-123136065D02*
X148304676Y-123097969D01*
X148304676Y-123097969D02*
X148418961Y-123097969D01*
X148418961Y-123097969D02*
X148495152Y-123136065D01*
X148495152Y-123136065D02*
X148533247Y-123174160D01*
X148533247Y-123174160D02*
X148571342Y-123250350D01*
X148571342Y-123250350D02*
X148571342Y-123555112D01*
X148533247Y-122488446D02*
X148571342Y-122374160D01*
X148571342Y-122374160D02*
X148609438Y-122336065D01*
X148609438Y-122336065D02*
X148685628Y-122297969D01*
X148685628Y-122297969D02*
X148799914Y-122297969D01*
X148799914Y-122297969D02*
X148876104Y-122336065D01*
X148876104Y-122336065D02*
X148914200Y-122374160D01*
X148914200Y-122374160D02*
X148952295Y-122450350D01*
X148952295Y-122450350D02*
X148952295Y-122755112D01*
X148952295Y-122755112D02*
X148152295Y-122755112D01*
X148152295Y-122755112D02*
X148152295Y-122488446D01*
X148152295Y-122488446D02*
X148190390Y-122412255D01*
X148190390Y-122412255D02*
X148228485Y-122374160D01*
X148228485Y-122374160D02*
X148304676Y-122336065D01*
X148304676Y-122336065D02*
X148380866Y-122336065D01*
X148380866Y-122336065D02*
X148457057Y-122374160D01*
X148457057Y-122374160D02*
X148495152Y-122412255D01*
X148495152Y-122412255D02*
X148533247Y-122488446D01*
X148533247Y-122488446D02*
X148533247Y-122755112D01*
X148152295Y-121802731D02*
X148152295Y-121726541D01*
X148152295Y-121726541D02*
X148190390Y-121650350D01*
X148190390Y-121650350D02*
X148228485Y-121612255D01*
X148228485Y-121612255D02*
X148304676Y-121574160D01*
X148304676Y-121574160D02*
X148457057Y-121536065D01*
X148457057Y-121536065D02*
X148647533Y-121536065D01*
X148647533Y-121536065D02*
X148799914Y-121574160D01*
X148799914Y-121574160D02*
X148876104Y-121612255D01*
X148876104Y-121612255D02*
X148914200Y-121650350D01*
X148914200Y-121650350D02*
X148952295Y-121726541D01*
X148952295Y-121726541D02*
X148952295Y-121802731D01*
X148952295Y-121802731D02*
X148914200Y-121878922D01*
X148914200Y-121878922D02*
X148876104Y-121917017D01*
X148876104Y-121917017D02*
X148799914Y-121955112D01*
X148799914Y-121955112D02*
X148647533Y-121993208D01*
X148647533Y-121993208D02*
X148457057Y-121993208D01*
X148457057Y-121993208D02*
X148304676Y-121955112D01*
X148304676Y-121955112D02*
X148228485Y-121917017D01*
X148228485Y-121917017D02*
X148190390Y-121878922D01*
X148190390Y-121878922D02*
X148152295Y-121802731D01*
X148952295Y-76545839D02*
X148152295Y-76545839D01*
X148152295Y-76545839D02*
X148152295Y-76241077D01*
X148152295Y-76241077D02*
X148190390Y-76164887D01*
X148190390Y-76164887D02*
X148228485Y-76126792D01*
X148228485Y-76126792D02*
X148304676Y-76088696D01*
X148304676Y-76088696D02*
X148418961Y-76088696D01*
X148418961Y-76088696D02*
X148495152Y-76126792D01*
X148495152Y-76126792D02*
X148533247Y-76164887D01*
X148533247Y-76164887D02*
X148571342Y-76241077D01*
X148571342Y-76241077D02*
X148571342Y-76545839D01*
X148876104Y-75288696D02*
X148914200Y-75326792D01*
X148914200Y-75326792D02*
X148952295Y-75441077D01*
X148952295Y-75441077D02*
X148952295Y-75517268D01*
X148952295Y-75517268D02*
X148914200Y-75631554D01*
X148914200Y-75631554D02*
X148838009Y-75707744D01*
X148838009Y-75707744D02*
X148761819Y-75745839D01*
X148761819Y-75745839D02*
X148609438Y-75783935D01*
X148609438Y-75783935D02*
X148495152Y-75783935D01*
X148495152Y-75783935D02*
X148342771Y-75745839D01*
X148342771Y-75745839D02*
X148266580Y-75707744D01*
X148266580Y-75707744D02*
X148190390Y-75631554D01*
X148190390Y-75631554D02*
X148152295Y-75517268D01*
X148152295Y-75517268D02*
X148152295Y-75441077D01*
X148152295Y-75441077D02*
X148190390Y-75326792D01*
X148190390Y-75326792D02*
X148228485Y-75288696D01*
X148952295Y-74526792D02*
X148952295Y-74983935D01*
X148952295Y-74755363D02*
X148152295Y-74755363D01*
X148152295Y-74755363D02*
X148266580Y-74831554D01*
X148266580Y-74831554D02*
X148342771Y-74907744D01*
X148342771Y-74907744D02*
X148380866Y-74983935D01*
X148228485Y-74222030D02*
X148190390Y-74183934D01*
X148190390Y-74183934D02*
X148152295Y-74107744D01*
X148152295Y-74107744D02*
X148152295Y-73917268D01*
X148152295Y-73917268D02*
X148190390Y-73841077D01*
X148190390Y-73841077D02*
X148228485Y-73802982D01*
X148228485Y-73802982D02*
X148304676Y-73764887D01*
X148304676Y-73764887D02*
X148380866Y-73764887D01*
X148380866Y-73764887D02*
X148495152Y-73802982D01*
X148495152Y-73802982D02*
X148952295Y-74260125D01*
X148952295Y-74260125D02*
X148952295Y-73764887D01*
X125330390Y-85112255D02*
X125292295Y-85188445D01*
X125292295Y-85188445D02*
X125292295Y-85302731D01*
X125292295Y-85302731D02*
X125330390Y-85417017D01*
X125330390Y-85417017D02*
X125406580Y-85493207D01*
X125406580Y-85493207D02*
X125482771Y-85531302D01*
X125482771Y-85531302D02*
X125635152Y-85569398D01*
X125635152Y-85569398D02*
X125749438Y-85569398D01*
X125749438Y-85569398D02*
X125901819Y-85531302D01*
X125901819Y-85531302D02*
X125978009Y-85493207D01*
X125978009Y-85493207D02*
X126054200Y-85417017D01*
X126054200Y-85417017D02*
X126092295Y-85302731D01*
X126092295Y-85302731D02*
X126092295Y-85226540D01*
X126092295Y-85226540D02*
X126054200Y-85112255D01*
X126054200Y-85112255D02*
X126016104Y-85074159D01*
X126016104Y-85074159D02*
X125749438Y-85074159D01*
X125749438Y-85074159D02*
X125749438Y-85226540D01*
X126092295Y-84731302D02*
X125292295Y-84731302D01*
X125292295Y-84731302D02*
X126092295Y-84274159D01*
X126092295Y-84274159D02*
X125292295Y-84274159D01*
X126092295Y-83893207D02*
X125292295Y-83893207D01*
X125292295Y-83893207D02*
X125292295Y-83702731D01*
X125292295Y-83702731D02*
X125330390Y-83588445D01*
X125330390Y-83588445D02*
X125406580Y-83512255D01*
X125406580Y-83512255D02*
X125482771Y-83474160D01*
X125482771Y-83474160D02*
X125635152Y-83436064D01*
X125635152Y-83436064D02*
X125749438Y-83436064D01*
X125749438Y-83436064D02*
X125901819Y-83474160D01*
X125901819Y-83474160D02*
X125978009Y-83512255D01*
X125978009Y-83512255D02*
X126054200Y-83588445D01*
X126054200Y-83588445D02*
X126092295Y-83702731D01*
X126092295Y-83702731D02*
X126092295Y-83893207D01*
X146412295Y-85455112D02*
X145612295Y-85455112D01*
X145612295Y-85455112D02*
X145612295Y-85150350D01*
X145612295Y-85150350D02*
X145650390Y-85074160D01*
X145650390Y-85074160D02*
X145688485Y-85036065D01*
X145688485Y-85036065D02*
X145764676Y-84997969D01*
X145764676Y-84997969D02*
X145878961Y-84997969D01*
X145878961Y-84997969D02*
X145955152Y-85036065D01*
X145955152Y-85036065D02*
X145993247Y-85074160D01*
X145993247Y-85074160D02*
X146031342Y-85150350D01*
X146031342Y-85150350D02*
X146031342Y-85455112D01*
X145993247Y-84388446D02*
X146031342Y-84274160D01*
X146031342Y-84274160D02*
X146069438Y-84236065D01*
X146069438Y-84236065D02*
X146145628Y-84197969D01*
X146145628Y-84197969D02*
X146259914Y-84197969D01*
X146259914Y-84197969D02*
X146336104Y-84236065D01*
X146336104Y-84236065D02*
X146374200Y-84274160D01*
X146374200Y-84274160D02*
X146412295Y-84350350D01*
X146412295Y-84350350D02*
X146412295Y-84655112D01*
X146412295Y-84655112D02*
X145612295Y-84655112D01*
X145612295Y-84655112D02*
X145612295Y-84388446D01*
X145612295Y-84388446D02*
X145650390Y-84312255D01*
X145650390Y-84312255D02*
X145688485Y-84274160D01*
X145688485Y-84274160D02*
X145764676Y-84236065D01*
X145764676Y-84236065D02*
X145840866Y-84236065D01*
X145840866Y-84236065D02*
X145917057Y-84274160D01*
X145917057Y-84274160D02*
X145955152Y-84312255D01*
X145955152Y-84312255D02*
X145993247Y-84388446D01*
X145993247Y-84388446D02*
X145993247Y-84655112D01*
X145612295Y-83931303D02*
X145612295Y-83436065D01*
X145612295Y-83436065D02*
X145917057Y-83702731D01*
X145917057Y-83702731D02*
X145917057Y-83588446D01*
X145917057Y-83588446D02*
X145955152Y-83512255D01*
X145955152Y-83512255D02*
X145993247Y-83474160D01*
X145993247Y-83474160D02*
X146069438Y-83436065D01*
X146069438Y-83436065D02*
X146259914Y-83436065D01*
X146259914Y-83436065D02*
X146336104Y-83474160D01*
X146336104Y-83474160D02*
X146374200Y-83512255D01*
X146374200Y-83512255D02*
X146412295Y-83588446D01*
X146412295Y-83588446D02*
X146412295Y-83817017D01*
X146412295Y-83817017D02*
X146374200Y-83893208D01*
X146374200Y-83893208D02*
X146336104Y-83931303D01*
X138792295Y-123440826D02*
X137992295Y-123440826D01*
X137992295Y-123440826D02*
X137992295Y-123136064D01*
X137992295Y-123136064D02*
X138030390Y-123059874D01*
X138030390Y-123059874D02*
X138068485Y-123021779D01*
X138068485Y-123021779D02*
X138144676Y-122983683D01*
X138144676Y-122983683D02*
X138258961Y-122983683D01*
X138258961Y-122983683D02*
X138335152Y-123021779D01*
X138335152Y-123021779D02*
X138373247Y-123059874D01*
X138373247Y-123059874D02*
X138411342Y-123136064D01*
X138411342Y-123136064D02*
X138411342Y-123440826D01*
X138563723Y-122678922D02*
X138563723Y-122297969D01*
X138792295Y-122755112D02*
X137992295Y-122488445D01*
X137992295Y-122488445D02*
X138792295Y-122221779D01*
X138068485Y-121993208D02*
X138030390Y-121955112D01*
X138030390Y-121955112D02*
X137992295Y-121878922D01*
X137992295Y-121878922D02*
X137992295Y-121688446D01*
X137992295Y-121688446D02*
X138030390Y-121612255D01*
X138030390Y-121612255D02*
X138068485Y-121574160D01*
X138068485Y-121574160D02*
X138144676Y-121536065D01*
X138144676Y-121536065D02*
X138220866Y-121536065D01*
X138220866Y-121536065D02*
X138335152Y-121574160D01*
X138335152Y-121574160D02*
X138792295Y-122031303D01*
X138792295Y-122031303D02*
X138792295Y-121536065D01*
X127832295Y-76545839D02*
X128479914Y-76545839D01*
X128479914Y-76545839D02*
X128556104Y-76507744D01*
X128556104Y-76507744D02*
X128594200Y-76469649D01*
X128594200Y-76469649D02*
X128632295Y-76393458D01*
X128632295Y-76393458D02*
X128632295Y-76241077D01*
X128632295Y-76241077D02*
X128594200Y-76164887D01*
X128594200Y-76164887D02*
X128556104Y-76126792D01*
X128556104Y-76126792D02*
X128479914Y-76088696D01*
X128479914Y-76088696D02*
X127832295Y-76088696D01*
X127832295Y-75326792D02*
X127832295Y-75707744D01*
X127832295Y-75707744D02*
X128213247Y-75745840D01*
X128213247Y-75745840D02*
X128175152Y-75707744D01*
X128175152Y-75707744D02*
X128137057Y-75631554D01*
X128137057Y-75631554D02*
X128137057Y-75441078D01*
X128137057Y-75441078D02*
X128175152Y-75364887D01*
X128175152Y-75364887D02*
X128213247Y-75326792D01*
X128213247Y-75326792D02*
X128289438Y-75288697D01*
X128289438Y-75288697D02*
X128479914Y-75288697D01*
X128479914Y-75288697D02*
X128556104Y-75326792D01*
X128556104Y-75326792D02*
X128594200Y-75364887D01*
X128594200Y-75364887D02*
X128632295Y-75441078D01*
X128632295Y-75441078D02*
X128632295Y-75631554D01*
X128632295Y-75631554D02*
X128594200Y-75707744D01*
X128594200Y-75707744D02*
X128556104Y-75745840D01*
X165932295Y-114645839D02*
X166579914Y-114645839D01*
X166579914Y-114645839D02*
X166656104Y-114607744D01*
X166656104Y-114607744D02*
X166694200Y-114569649D01*
X166694200Y-114569649D02*
X166732295Y-114493458D01*
X166732295Y-114493458D02*
X166732295Y-114341077D01*
X166732295Y-114341077D02*
X166694200Y-114264887D01*
X166694200Y-114264887D02*
X166656104Y-114226792D01*
X166656104Y-114226792D02*
X166579914Y-114188696D01*
X166579914Y-114188696D02*
X165932295Y-114188696D01*
X166008485Y-113845840D02*
X165970390Y-113807744D01*
X165970390Y-113807744D02*
X165932295Y-113731554D01*
X165932295Y-113731554D02*
X165932295Y-113541078D01*
X165932295Y-113541078D02*
X165970390Y-113464887D01*
X165970390Y-113464887D02*
X166008485Y-113426792D01*
X166008485Y-113426792D02*
X166084676Y-113388697D01*
X166084676Y-113388697D02*
X166160866Y-113388697D01*
X166160866Y-113388697D02*
X166275152Y-113426792D01*
X166275152Y-113426792D02*
X166732295Y-113883935D01*
X166732295Y-113883935D02*
X166732295Y-113388697D01*
X131172295Y-86217017D02*
X130372295Y-86217017D01*
X130372295Y-86217017D02*
X130372295Y-85912255D01*
X130372295Y-85912255D02*
X130410390Y-85836065D01*
X130410390Y-85836065D02*
X130448485Y-85797970D01*
X130448485Y-85797970D02*
X130524676Y-85759874D01*
X130524676Y-85759874D02*
X130638961Y-85759874D01*
X130638961Y-85759874D02*
X130715152Y-85797970D01*
X130715152Y-85797970D02*
X130753247Y-85836065D01*
X130753247Y-85836065D02*
X130791342Y-85912255D01*
X130791342Y-85912255D02*
X130791342Y-86217017D01*
X131096104Y-84959874D02*
X131134200Y-84997970D01*
X131134200Y-84997970D02*
X131172295Y-85112255D01*
X131172295Y-85112255D02*
X131172295Y-85188446D01*
X131172295Y-85188446D02*
X131134200Y-85302732D01*
X131134200Y-85302732D02*
X131058009Y-85378922D01*
X131058009Y-85378922D02*
X130981819Y-85417017D01*
X130981819Y-85417017D02*
X130829438Y-85455113D01*
X130829438Y-85455113D02*
X130715152Y-85455113D01*
X130715152Y-85455113D02*
X130562771Y-85417017D01*
X130562771Y-85417017D02*
X130486580Y-85378922D01*
X130486580Y-85378922D02*
X130410390Y-85302732D01*
X130410390Y-85302732D02*
X130372295Y-85188446D01*
X130372295Y-85188446D02*
X130372295Y-85112255D01*
X130372295Y-85112255D02*
X130410390Y-84997970D01*
X130410390Y-84997970D02*
X130448485Y-84959874D01*
X131172295Y-84197970D02*
X131172295Y-84655113D01*
X131172295Y-84426541D02*
X130372295Y-84426541D01*
X130372295Y-84426541D02*
X130486580Y-84502732D01*
X130486580Y-84502732D02*
X130562771Y-84578922D01*
X130562771Y-84578922D02*
X130600866Y-84655113D01*
X130372295Y-83474160D02*
X130372295Y-83855112D01*
X130372295Y-83855112D02*
X130753247Y-83893208D01*
X130753247Y-83893208D02*
X130715152Y-83855112D01*
X130715152Y-83855112D02*
X130677057Y-83778922D01*
X130677057Y-83778922D02*
X130677057Y-83588446D01*
X130677057Y-83588446D02*
X130715152Y-83512255D01*
X130715152Y-83512255D02*
X130753247Y-83474160D01*
X130753247Y-83474160D02*
X130829438Y-83436065D01*
X130829438Y-83436065D02*
X131019914Y-83436065D01*
X131019914Y-83436065D02*
X131096104Y-83474160D01*
X131096104Y-83474160D02*
X131134200Y-83512255D01*
X131134200Y-83512255D02*
X131172295Y-83588446D01*
X131172295Y-83588446D02*
X131172295Y-83778922D01*
X131172295Y-83778922D02*
X131134200Y-83855112D01*
X131134200Y-83855112D02*
X131096104Y-83893208D01*
X136252295Y-114645839D02*
X135452295Y-114645839D01*
X135452295Y-114645839D02*
X135452295Y-114341077D01*
X135452295Y-114341077D02*
X135490390Y-114264887D01*
X135490390Y-114264887D02*
X135528485Y-114226792D01*
X135528485Y-114226792D02*
X135604676Y-114188696D01*
X135604676Y-114188696D02*
X135718961Y-114188696D01*
X135718961Y-114188696D02*
X135795152Y-114226792D01*
X135795152Y-114226792D02*
X135833247Y-114264887D01*
X135833247Y-114264887D02*
X135871342Y-114341077D01*
X135871342Y-114341077D02*
X135871342Y-114645839D01*
X136023723Y-113883935D02*
X136023723Y-113502982D01*
X136252295Y-113960125D02*
X135452295Y-113693458D01*
X135452295Y-113693458D02*
X136252295Y-113426792D01*
X136252295Y-112741078D02*
X136252295Y-113198221D01*
X136252295Y-112969649D02*
X135452295Y-112969649D01*
X135452295Y-112969649D02*
X135566580Y-113045840D01*
X135566580Y-113045840D02*
X135642771Y-113122030D01*
X135642771Y-113122030D02*
X135680866Y-113198221D01*
X141332295Y-114645839D02*
X140532295Y-114645839D01*
X140532295Y-114645839D02*
X140532295Y-114341077D01*
X140532295Y-114341077D02*
X140570390Y-114264887D01*
X140570390Y-114264887D02*
X140608485Y-114226792D01*
X140608485Y-114226792D02*
X140684676Y-114188696D01*
X140684676Y-114188696D02*
X140798961Y-114188696D01*
X140798961Y-114188696D02*
X140875152Y-114226792D01*
X140875152Y-114226792D02*
X140913247Y-114264887D01*
X140913247Y-114264887D02*
X140951342Y-114341077D01*
X140951342Y-114341077D02*
X140951342Y-114645839D01*
X141103723Y-113883935D02*
X141103723Y-113502982D01*
X141332295Y-113960125D02*
X140532295Y-113693458D01*
X140532295Y-113693458D02*
X141332295Y-113426792D01*
X140532295Y-112779173D02*
X140532295Y-113160125D01*
X140532295Y-113160125D02*
X140913247Y-113198221D01*
X140913247Y-113198221D02*
X140875152Y-113160125D01*
X140875152Y-113160125D02*
X140837057Y-113083935D01*
X140837057Y-113083935D02*
X140837057Y-112893459D01*
X140837057Y-112893459D02*
X140875152Y-112817268D01*
X140875152Y-112817268D02*
X140913247Y-112779173D01*
X140913247Y-112779173D02*
X140989438Y-112741078D01*
X140989438Y-112741078D02*
X141179914Y-112741078D01*
X141179914Y-112741078D02*
X141256104Y-112779173D01*
X141256104Y-112779173D02*
X141294200Y-112817268D01*
X141294200Y-112817268D02*
X141332295Y-112893459D01*
X141332295Y-112893459D02*
X141332295Y-113083935D01*
X141332295Y-113083935D02*
X141294200Y-113160125D01*
X141294200Y-113160125D02*
X141256104Y-113198221D01*
X135452295Y-76545839D02*
X136099914Y-76545839D01*
X136099914Y-76545839D02*
X136176104Y-76507744D01*
X136176104Y-76507744D02*
X136214200Y-76469649D01*
X136214200Y-76469649D02*
X136252295Y-76393458D01*
X136252295Y-76393458D02*
X136252295Y-76241077D01*
X136252295Y-76241077D02*
X136214200Y-76164887D01*
X136214200Y-76164887D02*
X136176104Y-76126792D01*
X136176104Y-76126792D02*
X136099914Y-76088696D01*
X136099914Y-76088696D02*
X135452295Y-76088696D01*
X136252295Y-75669649D02*
X136252295Y-75517268D01*
X136252295Y-75517268D02*
X136214200Y-75441078D01*
X136214200Y-75441078D02*
X136176104Y-75402982D01*
X136176104Y-75402982D02*
X136061819Y-75326792D01*
X136061819Y-75326792D02*
X135909438Y-75288697D01*
X135909438Y-75288697D02*
X135604676Y-75288697D01*
X135604676Y-75288697D02*
X135528485Y-75326792D01*
X135528485Y-75326792D02*
X135490390Y-75364887D01*
X135490390Y-75364887D02*
X135452295Y-75441078D01*
X135452295Y-75441078D02*
X135452295Y-75593459D01*
X135452295Y-75593459D02*
X135490390Y-75669649D01*
X135490390Y-75669649D02*
X135528485Y-75707744D01*
X135528485Y-75707744D02*
X135604676Y-75745840D01*
X135604676Y-75745840D02*
X135795152Y-75745840D01*
X135795152Y-75745840D02*
X135871342Y-75707744D01*
X135871342Y-75707744D02*
X135909438Y-75669649D01*
X135909438Y-75669649D02*
X135947533Y-75593459D01*
X135947533Y-75593459D02*
X135947533Y-75441078D01*
X135947533Y-75441078D02*
X135909438Y-75364887D01*
X135909438Y-75364887D02*
X135871342Y-75326792D01*
X135871342Y-75326792D02*
X135795152Y-75288697D01*
X146412295Y-76545839D02*
X145612295Y-76545839D01*
X145612295Y-76545839D02*
X145612295Y-76241077D01*
X145612295Y-76241077D02*
X145650390Y-76164887D01*
X145650390Y-76164887D02*
X145688485Y-76126792D01*
X145688485Y-76126792D02*
X145764676Y-76088696D01*
X145764676Y-76088696D02*
X145878961Y-76088696D01*
X145878961Y-76088696D02*
X145955152Y-76126792D01*
X145955152Y-76126792D02*
X145993247Y-76164887D01*
X145993247Y-76164887D02*
X146031342Y-76241077D01*
X146031342Y-76241077D02*
X146031342Y-76545839D01*
X146412295Y-75745839D02*
X145612295Y-75745839D01*
X145612295Y-75745839D02*
X145612295Y-75555363D01*
X145612295Y-75555363D02*
X145650390Y-75441077D01*
X145650390Y-75441077D02*
X145726580Y-75364887D01*
X145726580Y-75364887D02*
X145802771Y-75326792D01*
X145802771Y-75326792D02*
X145955152Y-75288696D01*
X145955152Y-75288696D02*
X146069438Y-75288696D01*
X146069438Y-75288696D02*
X146221819Y-75326792D01*
X146221819Y-75326792D02*
X146298009Y-75364887D01*
X146298009Y-75364887D02*
X146374200Y-75441077D01*
X146374200Y-75441077D02*
X146412295Y-75555363D01*
X146412295Y-75555363D02*
X146412295Y-75745839D01*
X145688485Y-74983935D02*
X145650390Y-74945839D01*
X145650390Y-74945839D02*
X145612295Y-74869649D01*
X145612295Y-74869649D02*
X145612295Y-74679173D01*
X145612295Y-74679173D02*
X145650390Y-74602982D01*
X145650390Y-74602982D02*
X145688485Y-74564887D01*
X145688485Y-74564887D02*
X145764676Y-74526792D01*
X145764676Y-74526792D02*
X145840866Y-74526792D01*
X145840866Y-74526792D02*
X145955152Y-74564887D01*
X145955152Y-74564887D02*
X146412295Y-75022030D01*
X146412295Y-75022030D02*
X146412295Y-74526792D01*
X151492295Y-86217017D02*
X150692295Y-86217017D01*
X150692295Y-86217017D02*
X150692295Y-85912255D01*
X150692295Y-85912255D02*
X150730390Y-85836065D01*
X150730390Y-85836065D02*
X150768485Y-85797970D01*
X150768485Y-85797970D02*
X150844676Y-85759874D01*
X150844676Y-85759874D02*
X150958961Y-85759874D01*
X150958961Y-85759874D02*
X151035152Y-85797970D01*
X151035152Y-85797970D02*
X151073247Y-85836065D01*
X151073247Y-85836065D02*
X151111342Y-85912255D01*
X151111342Y-85912255D02*
X151111342Y-86217017D01*
X151416104Y-84959874D02*
X151454200Y-84997970D01*
X151454200Y-84997970D02*
X151492295Y-85112255D01*
X151492295Y-85112255D02*
X151492295Y-85188446D01*
X151492295Y-85188446D02*
X151454200Y-85302732D01*
X151454200Y-85302732D02*
X151378009Y-85378922D01*
X151378009Y-85378922D02*
X151301819Y-85417017D01*
X151301819Y-85417017D02*
X151149438Y-85455113D01*
X151149438Y-85455113D02*
X151035152Y-85455113D01*
X151035152Y-85455113D02*
X150882771Y-85417017D01*
X150882771Y-85417017D02*
X150806580Y-85378922D01*
X150806580Y-85378922D02*
X150730390Y-85302732D01*
X150730390Y-85302732D02*
X150692295Y-85188446D01*
X150692295Y-85188446D02*
X150692295Y-85112255D01*
X150692295Y-85112255D02*
X150730390Y-84997970D01*
X150730390Y-84997970D02*
X150768485Y-84959874D01*
X151492295Y-84197970D02*
X151492295Y-84655113D01*
X151492295Y-84426541D02*
X150692295Y-84426541D01*
X150692295Y-84426541D02*
X150806580Y-84502732D01*
X150806580Y-84502732D02*
X150882771Y-84578922D01*
X150882771Y-84578922D02*
X150920866Y-84655113D01*
X151492295Y-83436065D02*
X151492295Y-83893208D01*
X151492295Y-83664636D02*
X150692295Y-83664636D01*
X150692295Y-83664636D02*
X150806580Y-83740827D01*
X150806580Y-83740827D02*
X150882771Y-83817017D01*
X150882771Y-83817017D02*
X150920866Y-83893208D01*
X159112295Y-124317017D02*
X158312295Y-124317017D01*
X158312295Y-124317017D02*
X158312295Y-124012255D01*
X158312295Y-124012255D02*
X158350390Y-123936065D01*
X158350390Y-123936065D02*
X158388485Y-123897970D01*
X158388485Y-123897970D02*
X158464676Y-123859874D01*
X158464676Y-123859874D02*
X158578961Y-123859874D01*
X158578961Y-123859874D02*
X158655152Y-123897970D01*
X158655152Y-123897970D02*
X158693247Y-123936065D01*
X158693247Y-123936065D02*
X158731342Y-124012255D01*
X158731342Y-124012255D02*
X158731342Y-124317017D01*
X158693247Y-123250351D02*
X158731342Y-123136065D01*
X158731342Y-123136065D02*
X158769438Y-123097970D01*
X158769438Y-123097970D02*
X158845628Y-123059874D01*
X158845628Y-123059874D02*
X158959914Y-123059874D01*
X158959914Y-123059874D02*
X159036104Y-123097970D01*
X159036104Y-123097970D02*
X159074200Y-123136065D01*
X159074200Y-123136065D02*
X159112295Y-123212255D01*
X159112295Y-123212255D02*
X159112295Y-123517017D01*
X159112295Y-123517017D02*
X158312295Y-123517017D01*
X158312295Y-123517017D02*
X158312295Y-123250351D01*
X158312295Y-123250351D02*
X158350390Y-123174160D01*
X158350390Y-123174160D02*
X158388485Y-123136065D01*
X158388485Y-123136065D02*
X158464676Y-123097970D01*
X158464676Y-123097970D02*
X158540866Y-123097970D01*
X158540866Y-123097970D02*
X158617057Y-123136065D01*
X158617057Y-123136065D02*
X158655152Y-123174160D01*
X158655152Y-123174160D02*
X158693247Y-123250351D01*
X158693247Y-123250351D02*
X158693247Y-123517017D01*
X159112295Y-122297970D02*
X159112295Y-122755113D01*
X159112295Y-122526541D02*
X158312295Y-122526541D01*
X158312295Y-122526541D02*
X158426580Y-122602732D01*
X158426580Y-122602732D02*
X158502771Y-122678922D01*
X158502771Y-122678922D02*
X158540866Y-122755113D01*
X158578961Y-121612255D02*
X159112295Y-121612255D01*
X158274200Y-121802731D02*
X158845628Y-121993208D01*
X158845628Y-121993208D02*
X158845628Y-121497969D01*
X143872295Y-76545839D02*
X143072295Y-76545839D01*
X143072295Y-76545839D02*
X143072295Y-76241077D01*
X143072295Y-76241077D02*
X143110390Y-76164887D01*
X143110390Y-76164887D02*
X143148485Y-76126792D01*
X143148485Y-76126792D02*
X143224676Y-76088696D01*
X143224676Y-76088696D02*
X143338961Y-76088696D01*
X143338961Y-76088696D02*
X143415152Y-76126792D01*
X143415152Y-76126792D02*
X143453247Y-76164887D01*
X143453247Y-76164887D02*
X143491342Y-76241077D01*
X143491342Y-76241077D02*
X143491342Y-76545839D01*
X143453247Y-75479173D02*
X143491342Y-75364887D01*
X143491342Y-75364887D02*
X143529438Y-75326792D01*
X143529438Y-75326792D02*
X143605628Y-75288696D01*
X143605628Y-75288696D02*
X143719914Y-75288696D01*
X143719914Y-75288696D02*
X143796104Y-75326792D01*
X143796104Y-75326792D02*
X143834200Y-75364887D01*
X143834200Y-75364887D02*
X143872295Y-75441077D01*
X143872295Y-75441077D02*
X143872295Y-75745839D01*
X143872295Y-75745839D02*
X143072295Y-75745839D01*
X143072295Y-75745839D02*
X143072295Y-75479173D01*
X143072295Y-75479173D02*
X143110390Y-75402982D01*
X143110390Y-75402982D02*
X143148485Y-75364887D01*
X143148485Y-75364887D02*
X143224676Y-75326792D01*
X143224676Y-75326792D02*
X143300866Y-75326792D01*
X143300866Y-75326792D02*
X143377057Y-75364887D01*
X143377057Y-75364887D02*
X143415152Y-75402982D01*
X143415152Y-75402982D02*
X143453247Y-75479173D01*
X143453247Y-75479173D02*
X143453247Y-75745839D01*
X143338961Y-74602982D02*
X143872295Y-74602982D01*
X143034200Y-74793458D02*
X143605628Y-74983935D01*
X143605628Y-74983935D02*
X143605628Y-74488696D01*
X165932295Y-76545839D02*
X166579914Y-76545839D01*
X166579914Y-76545839D02*
X166656104Y-76507744D01*
X166656104Y-76507744D02*
X166694200Y-76469649D01*
X166694200Y-76469649D02*
X166732295Y-76393458D01*
X166732295Y-76393458D02*
X166732295Y-76241077D01*
X166732295Y-76241077D02*
X166694200Y-76164887D01*
X166694200Y-76164887D02*
X166656104Y-76126792D01*
X166656104Y-76126792D02*
X166579914Y-76088696D01*
X166579914Y-76088696D02*
X165932295Y-76088696D01*
X166732295Y-75288697D02*
X166732295Y-75745840D01*
X166732295Y-75517268D02*
X165932295Y-75517268D01*
X165932295Y-75517268D02*
X166046580Y-75593459D01*
X166046580Y-75593459D02*
X166122771Y-75669649D01*
X166122771Y-75669649D02*
X166160866Y-75745840D01*
X165932295Y-75022030D02*
X165932295Y-74526792D01*
X165932295Y-74526792D02*
X166237057Y-74793458D01*
X166237057Y-74793458D02*
X166237057Y-74679173D01*
X166237057Y-74679173D02*
X166275152Y-74602982D01*
X166275152Y-74602982D02*
X166313247Y-74564887D01*
X166313247Y-74564887D02*
X166389438Y-74526792D01*
X166389438Y-74526792D02*
X166579914Y-74526792D01*
X166579914Y-74526792D02*
X166656104Y-74564887D01*
X166656104Y-74564887D02*
X166694200Y-74602982D01*
X166694200Y-74602982D02*
X166732295Y-74679173D01*
X166732295Y-74679173D02*
X166732295Y-74907744D01*
X166732295Y-74907744D02*
X166694200Y-74983935D01*
X166694200Y-74983935D02*
X166656104Y-75022030D01*
X173590390Y-114226792D02*
X173552295Y-114302982D01*
X173552295Y-114302982D02*
X173552295Y-114417268D01*
X173552295Y-114417268D02*
X173590390Y-114531554D01*
X173590390Y-114531554D02*
X173666580Y-114607744D01*
X173666580Y-114607744D02*
X173742771Y-114645839D01*
X173742771Y-114645839D02*
X173895152Y-114683935D01*
X173895152Y-114683935D02*
X174009438Y-114683935D01*
X174009438Y-114683935D02*
X174161819Y-114645839D01*
X174161819Y-114645839D02*
X174238009Y-114607744D01*
X174238009Y-114607744D02*
X174314200Y-114531554D01*
X174314200Y-114531554D02*
X174352295Y-114417268D01*
X174352295Y-114417268D02*
X174352295Y-114341077D01*
X174352295Y-114341077D02*
X174314200Y-114226792D01*
X174314200Y-114226792D02*
X174276104Y-114188696D01*
X174276104Y-114188696D02*
X174009438Y-114188696D01*
X174009438Y-114188696D02*
X174009438Y-114341077D01*
X174352295Y-113845839D02*
X173552295Y-113845839D01*
X173552295Y-113845839D02*
X174352295Y-113388696D01*
X174352295Y-113388696D02*
X173552295Y-113388696D01*
X174352295Y-113007744D02*
X173552295Y-113007744D01*
X173552295Y-113007744D02*
X173552295Y-112817268D01*
X173552295Y-112817268D02*
X173590390Y-112702982D01*
X173590390Y-112702982D02*
X173666580Y-112626792D01*
X173666580Y-112626792D02*
X173742771Y-112588697D01*
X173742771Y-112588697D02*
X173895152Y-112550601D01*
X173895152Y-112550601D02*
X174009438Y-112550601D01*
X174009438Y-112550601D02*
X174161819Y-112588697D01*
X174161819Y-112588697D02*
X174238009Y-112626792D01*
X174238009Y-112626792D02*
X174314200Y-112702982D01*
X174314200Y-112702982D02*
X174352295Y-112817268D01*
X174352295Y-112817268D02*
X174352295Y-113007744D01*
X173552295Y-122259874D02*
X173552295Y-122640826D01*
X173552295Y-122640826D02*
X173933247Y-122678922D01*
X173933247Y-122678922D02*
X173895152Y-122640826D01*
X173895152Y-122640826D02*
X173857057Y-122564636D01*
X173857057Y-122564636D02*
X173857057Y-122374160D01*
X173857057Y-122374160D02*
X173895152Y-122297969D01*
X173895152Y-122297969D02*
X173933247Y-122259874D01*
X173933247Y-122259874D02*
X174009438Y-122221779D01*
X174009438Y-122221779D02*
X174199914Y-122221779D01*
X174199914Y-122221779D02*
X174276104Y-122259874D01*
X174276104Y-122259874D02*
X174314200Y-122297969D01*
X174314200Y-122297969D02*
X174352295Y-122374160D01*
X174352295Y-122374160D02*
X174352295Y-122564636D01*
X174352295Y-122564636D02*
X174314200Y-122640826D01*
X174314200Y-122640826D02*
X174276104Y-122678922D01*
X173552295Y-121993207D02*
X174352295Y-121726540D01*
X174352295Y-121726540D02*
X173552295Y-121459874D01*
X143872295Y-114645839D02*
X143072295Y-114645839D01*
X143072295Y-114645839D02*
X143072295Y-114341077D01*
X143072295Y-114341077D02*
X143110390Y-114264887D01*
X143110390Y-114264887D02*
X143148485Y-114226792D01*
X143148485Y-114226792D02*
X143224676Y-114188696D01*
X143224676Y-114188696D02*
X143338961Y-114188696D01*
X143338961Y-114188696D02*
X143415152Y-114226792D01*
X143415152Y-114226792D02*
X143453247Y-114264887D01*
X143453247Y-114264887D02*
X143491342Y-114341077D01*
X143491342Y-114341077D02*
X143491342Y-114645839D01*
X143643723Y-113883935D02*
X143643723Y-113502982D01*
X143872295Y-113960125D02*
X143072295Y-113693458D01*
X143072295Y-113693458D02*
X143872295Y-113426792D01*
X143072295Y-113236316D02*
X143072295Y-112702982D01*
X143072295Y-112702982D02*
X143872295Y-113045840D01*
X133712295Y-123555112D02*
X132912295Y-123555112D01*
X132912295Y-123555112D02*
X132912295Y-123250350D01*
X132912295Y-123250350D02*
X132950390Y-123174160D01*
X132950390Y-123174160D02*
X132988485Y-123136065D01*
X132988485Y-123136065D02*
X133064676Y-123097969D01*
X133064676Y-123097969D02*
X133178961Y-123097969D01*
X133178961Y-123097969D02*
X133255152Y-123136065D01*
X133255152Y-123136065D02*
X133293247Y-123174160D01*
X133293247Y-123174160D02*
X133331342Y-123250350D01*
X133331342Y-123250350D02*
X133331342Y-123555112D01*
X133636104Y-122297969D02*
X133674200Y-122336065D01*
X133674200Y-122336065D02*
X133712295Y-122450350D01*
X133712295Y-122450350D02*
X133712295Y-122526541D01*
X133712295Y-122526541D02*
X133674200Y-122640827D01*
X133674200Y-122640827D02*
X133598009Y-122717017D01*
X133598009Y-122717017D02*
X133521819Y-122755112D01*
X133521819Y-122755112D02*
X133369438Y-122793208D01*
X133369438Y-122793208D02*
X133255152Y-122793208D01*
X133255152Y-122793208D02*
X133102771Y-122755112D01*
X133102771Y-122755112D02*
X133026580Y-122717017D01*
X133026580Y-122717017D02*
X132950390Y-122640827D01*
X132950390Y-122640827D02*
X132912295Y-122526541D01*
X132912295Y-122526541D02*
X132912295Y-122450350D01*
X132912295Y-122450350D02*
X132950390Y-122336065D01*
X132950390Y-122336065D02*
X132988485Y-122297969D01*
X132988485Y-121993208D02*
X132950390Y-121955112D01*
X132950390Y-121955112D02*
X132912295Y-121878922D01*
X132912295Y-121878922D02*
X132912295Y-121688446D01*
X132912295Y-121688446D02*
X132950390Y-121612255D01*
X132950390Y-121612255D02*
X132988485Y-121574160D01*
X132988485Y-121574160D02*
X133064676Y-121536065D01*
X133064676Y-121536065D02*
X133140866Y-121536065D01*
X133140866Y-121536065D02*
X133255152Y-121574160D01*
X133255152Y-121574160D02*
X133712295Y-122031303D01*
X133712295Y-122031303D02*
X133712295Y-121536065D01*
X148952295Y-114645839D02*
X148152295Y-114645839D01*
X148152295Y-114645839D02*
X148152295Y-114341077D01*
X148152295Y-114341077D02*
X148190390Y-114264887D01*
X148190390Y-114264887D02*
X148228485Y-114226792D01*
X148228485Y-114226792D02*
X148304676Y-114188696D01*
X148304676Y-114188696D02*
X148418961Y-114188696D01*
X148418961Y-114188696D02*
X148495152Y-114226792D01*
X148495152Y-114226792D02*
X148533247Y-114264887D01*
X148533247Y-114264887D02*
X148571342Y-114341077D01*
X148571342Y-114341077D02*
X148571342Y-114645839D01*
X148533247Y-113579173D02*
X148571342Y-113464887D01*
X148571342Y-113464887D02*
X148609438Y-113426792D01*
X148609438Y-113426792D02*
X148685628Y-113388696D01*
X148685628Y-113388696D02*
X148799914Y-113388696D01*
X148799914Y-113388696D02*
X148876104Y-113426792D01*
X148876104Y-113426792D02*
X148914200Y-113464887D01*
X148914200Y-113464887D02*
X148952295Y-113541077D01*
X148952295Y-113541077D02*
X148952295Y-113845839D01*
X148952295Y-113845839D02*
X148152295Y-113845839D01*
X148152295Y-113845839D02*
X148152295Y-113579173D01*
X148152295Y-113579173D02*
X148190390Y-113502982D01*
X148190390Y-113502982D02*
X148228485Y-113464887D01*
X148228485Y-113464887D02*
X148304676Y-113426792D01*
X148304676Y-113426792D02*
X148380866Y-113426792D01*
X148380866Y-113426792D02*
X148457057Y-113464887D01*
X148457057Y-113464887D02*
X148495152Y-113502982D01*
X148495152Y-113502982D02*
X148533247Y-113579173D01*
X148533247Y-113579173D02*
X148533247Y-113845839D01*
X148952295Y-112626792D02*
X148952295Y-113083935D01*
X148952295Y-112855363D02*
X148152295Y-112855363D01*
X148152295Y-112855363D02*
X148266580Y-112931554D01*
X148266580Y-112931554D02*
X148342771Y-113007744D01*
X148342771Y-113007744D02*
X148380866Y-113083935D01*
X135452295Y-85455112D02*
X136099914Y-85455112D01*
X136099914Y-85455112D02*
X136176104Y-85417017D01*
X136176104Y-85417017D02*
X136214200Y-85378922D01*
X136214200Y-85378922D02*
X136252295Y-85302731D01*
X136252295Y-85302731D02*
X136252295Y-85150350D01*
X136252295Y-85150350D02*
X136214200Y-85074160D01*
X136214200Y-85074160D02*
X136176104Y-85036065D01*
X136176104Y-85036065D02*
X136099914Y-84997969D01*
X136099914Y-84997969D02*
X135452295Y-84997969D01*
X136252295Y-84197970D02*
X136252295Y-84655113D01*
X136252295Y-84426541D02*
X135452295Y-84426541D01*
X135452295Y-84426541D02*
X135566580Y-84502732D01*
X135566580Y-84502732D02*
X135642771Y-84578922D01*
X135642771Y-84578922D02*
X135680866Y-84655113D01*
X135452295Y-83702731D02*
X135452295Y-83626541D01*
X135452295Y-83626541D02*
X135490390Y-83550350D01*
X135490390Y-83550350D02*
X135528485Y-83512255D01*
X135528485Y-83512255D02*
X135604676Y-83474160D01*
X135604676Y-83474160D02*
X135757057Y-83436065D01*
X135757057Y-83436065D02*
X135947533Y-83436065D01*
X135947533Y-83436065D02*
X136099914Y-83474160D01*
X136099914Y-83474160D02*
X136176104Y-83512255D01*
X136176104Y-83512255D02*
X136214200Y-83550350D01*
X136214200Y-83550350D02*
X136252295Y-83626541D01*
X136252295Y-83626541D02*
X136252295Y-83702731D01*
X136252295Y-83702731D02*
X136214200Y-83778922D01*
X136214200Y-83778922D02*
X136176104Y-83817017D01*
X136176104Y-83817017D02*
X136099914Y-83855112D01*
X136099914Y-83855112D02*
X135947533Y-83893208D01*
X135947533Y-83893208D02*
X135757057Y-83893208D01*
X135757057Y-83893208D02*
X135604676Y-83855112D01*
X135604676Y-83855112D02*
X135528485Y-83817017D01*
X135528485Y-83817017D02*
X135490390Y-83778922D01*
X135490390Y-83778922D02*
X135452295Y-83702731D01*
X151492295Y-123555112D02*
X150692295Y-123555112D01*
X150692295Y-123555112D02*
X150692295Y-123250350D01*
X150692295Y-123250350D02*
X150730390Y-123174160D01*
X150730390Y-123174160D02*
X150768485Y-123136065D01*
X150768485Y-123136065D02*
X150844676Y-123097969D01*
X150844676Y-123097969D02*
X150958961Y-123097969D01*
X150958961Y-123097969D02*
X151035152Y-123136065D01*
X151035152Y-123136065D02*
X151073247Y-123174160D01*
X151073247Y-123174160D02*
X151111342Y-123250350D01*
X151111342Y-123250350D02*
X151111342Y-123555112D01*
X151073247Y-122488446D02*
X151111342Y-122374160D01*
X151111342Y-122374160D02*
X151149438Y-122336065D01*
X151149438Y-122336065D02*
X151225628Y-122297969D01*
X151225628Y-122297969D02*
X151339914Y-122297969D01*
X151339914Y-122297969D02*
X151416104Y-122336065D01*
X151416104Y-122336065D02*
X151454200Y-122374160D01*
X151454200Y-122374160D02*
X151492295Y-122450350D01*
X151492295Y-122450350D02*
X151492295Y-122755112D01*
X151492295Y-122755112D02*
X150692295Y-122755112D01*
X150692295Y-122755112D02*
X150692295Y-122488446D01*
X150692295Y-122488446D02*
X150730390Y-122412255D01*
X150730390Y-122412255D02*
X150768485Y-122374160D01*
X150768485Y-122374160D02*
X150844676Y-122336065D01*
X150844676Y-122336065D02*
X150920866Y-122336065D01*
X150920866Y-122336065D02*
X150997057Y-122374160D01*
X150997057Y-122374160D02*
X151035152Y-122412255D01*
X151035152Y-122412255D02*
X151073247Y-122488446D01*
X151073247Y-122488446D02*
X151073247Y-122755112D01*
X150768485Y-121993208D02*
X150730390Y-121955112D01*
X150730390Y-121955112D02*
X150692295Y-121878922D01*
X150692295Y-121878922D02*
X150692295Y-121688446D01*
X150692295Y-121688446D02*
X150730390Y-121612255D01*
X150730390Y-121612255D02*
X150768485Y-121574160D01*
X150768485Y-121574160D02*
X150844676Y-121536065D01*
X150844676Y-121536065D02*
X150920866Y-121536065D01*
X150920866Y-121536065D02*
X151035152Y-121574160D01*
X151035152Y-121574160D02*
X151492295Y-122031303D01*
X151492295Y-122031303D02*
X151492295Y-121536065D01*
X131172295Y-123555112D02*
X130372295Y-123555112D01*
X130372295Y-123555112D02*
X130372295Y-123250350D01*
X130372295Y-123250350D02*
X130410390Y-123174160D01*
X130410390Y-123174160D02*
X130448485Y-123136065D01*
X130448485Y-123136065D02*
X130524676Y-123097969D01*
X130524676Y-123097969D02*
X130638961Y-123097969D01*
X130638961Y-123097969D02*
X130715152Y-123136065D01*
X130715152Y-123136065D02*
X130753247Y-123174160D01*
X130753247Y-123174160D02*
X130791342Y-123250350D01*
X130791342Y-123250350D02*
X130791342Y-123555112D01*
X131096104Y-122297969D02*
X131134200Y-122336065D01*
X131134200Y-122336065D02*
X131172295Y-122450350D01*
X131172295Y-122450350D02*
X131172295Y-122526541D01*
X131172295Y-122526541D02*
X131134200Y-122640827D01*
X131134200Y-122640827D02*
X131058009Y-122717017D01*
X131058009Y-122717017D02*
X130981819Y-122755112D01*
X130981819Y-122755112D02*
X130829438Y-122793208D01*
X130829438Y-122793208D02*
X130715152Y-122793208D01*
X130715152Y-122793208D02*
X130562771Y-122755112D01*
X130562771Y-122755112D02*
X130486580Y-122717017D01*
X130486580Y-122717017D02*
X130410390Y-122640827D01*
X130410390Y-122640827D02*
X130372295Y-122526541D01*
X130372295Y-122526541D02*
X130372295Y-122450350D01*
X130372295Y-122450350D02*
X130410390Y-122336065D01*
X130410390Y-122336065D02*
X130448485Y-122297969D01*
X130372295Y-121802731D02*
X130372295Y-121726541D01*
X130372295Y-121726541D02*
X130410390Y-121650350D01*
X130410390Y-121650350D02*
X130448485Y-121612255D01*
X130448485Y-121612255D02*
X130524676Y-121574160D01*
X130524676Y-121574160D02*
X130677057Y-121536065D01*
X130677057Y-121536065D02*
X130867533Y-121536065D01*
X130867533Y-121536065D02*
X131019914Y-121574160D01*
X131019914Y-121574160D02*
X131096104Y-121612255D01*
X131096104Y-121612255D02*
X131134200Y-121650350D01*
X131134200Y-121650350D02*
X131172295Y-121726541D01*
X131172295Y-121726541D02*
X131172295Y-121802731D01*
X131172295Y-121802731D02*
X131134200Y-121878922D01*
X131134200Y-121878922D02*
X131096104Y-121917017D01*
X131096104Y-121917017D02*
X131019914Y-121955112D01*
X131019914Y-121955112D02*
X130867533Y-121993208D01*
X130867533Y-121993208D02*
X130677057Y-121993208D01*
X130677057Y-121993208D02*
X130524676Y-121955112D01*
X130524676Y-121955112D02*
X130448485Y-121917017D01*
X130448485Y-121917017D02*
X130410390Y-121878922D01*
X130410390Y-121878922D02*
X130372295Y-121802731D01*
X151492295Y-76545839D02*
X150692295Y-76545839D01*
X150692295Y-76545839D02*
X150692295Y-76241077D01*
X150692295Y-76241077D02*
X150730390Y-76164887D01*
X150730390Y-76164887D02*
X150768485Y-76126792D01*
X150768485Y-76126792D02*
X150844676Y-76088696D01*
X150844676Y-76088696D02*
X150958961Y-76088696D01*
X150958961Y-76088696D02*
X151035152Y-76126792D01*
X151035152Y-76126792D02*
X151073247Y-76164887D01*
X151073247Y-76164887D02*
X151111342Y-76241077D01*
X151111342Y-76241077D02*
X151111342Y-76545839D01*
X151416104Y-75288696D02*
X151454200Y-75326792D01*
X151454200Y-75326792D02*
X151492295Y-75441077D01*
X151492295Y-75441077D02*
X151492295Y-75517268D01*
X151492295Y-75517268D02*
X151454200Y-75631554D01*
X151454200Y-75631554D02*
X151378009Y-75707744D01*
X151378009Y-75707744D02*
X151301819Y-75745839D01*
X151301819Y-75745839D02*
X151149438Y-75783935D01*
X151149438Y-75783935D02*
X151035152Y-75783935D01*
X151035152Y-75783935D02*
X150882771Y-75745839D01*
X150882771Y-75745839D02*
X150806580Y-75707744D01*
X150806580Y-75707744D02*
X150730390Y-75631554D01*
X150730390Y-75631554D02*
X150692295Y-75517268D01*
X150692295Y-75517268D02*
X150692295Y-75441077D01*
X150692295Y-75441077D02*
X150730390Y-75326792D01*
X150730390Y-75326792D02*
X150768485Y-75288696D01*
X151492295Y-74526792D02*
X151492295Y-74983935D01*
X151492295Y-74755363D02*
X150692295Y-74755363D01*
X150692295Y-74755363D02*
X150806580Y-74831554D01*
X150806580Y-74831554D02*
X150882771Y-74907744D01*
X150882771Y-74907744D02*
X150920866Y-74983935D01*
X150692295Y-74031553D02*
X150692295Y-73955363D01*
X150692295Y-73955363D02*
X150730390Y-73879172D01*
X150730390Y-73879172D02*
X150768485Y-73841077D01*
X150768485Y-73841077D02*
X150844676Y-73802982D01*
X150844676Y-73802982D02*
X150997057Y-73764887D01*
X150997057Y-73764887D02*
X151187533Y-73764887D01*
X151187533Y-73764887D02*
X151339914Y-73802982D01*
X151339914Y-73802982D02*
X151416104Y-73841077D01*
X151416104Y-73841077D02*
X151454200Y-73879172D01*
X151454200Y-73879172D02*
X151492295Y-73955363D01*
X151492295Y-73955363D02*
X151492295Y-74031553D01*
X151492295Y-74031553D02*
X151454200Y-74107744D01*
X151454200Y-74107744D02*
X151416104Y-74145839D01*
X151416104Y-74145839D02*
X151339914Y-74183934D01*
X151339914Y-74183934D02*
X151187533Y-74222030D01*
X151187533Y-74222030D02*
X150997057Y-74222030D01*
X150997057Y-74222030D02*
X150844676Y-74183934D01*
X150844676Y-74183934D02*
X150768485Y-74145839D01*
X150768485Y-74145839D02*
X150730390Y-74107744D01*
X150730390Y-74107744D02*
X150692295Y-74031553D01*
X141332295Y-76545839D02*
X140532295Y-76545839D01*
X140532295Y-76545839D02*
X140532295Y-76241077D01*
X140532295Y-76241077D02*
X140570390Y-76164887D01*
X140570390Y-76164887D02*
X140608485Y-76126792D01*
X140608485Y-76126792D02*
X140684676Y-76088696D01*
X140684676Y-76088696D02*
X140798961Y-76088696D01*
X140798961Y-76088696D02*
X140875152Y-76126792D01*
X140875152Y-76126792D02*
X140913247Y-76164887D01*
X140913247Y-76164887D02*
X140951342Y-76241077D01*
X140951342Y-76241077D02*
X140951342Y-76545839D01*
X140913247Y-75479173D02*
X140951342Y-75364887D01*
X140951342Y-75364887D02*
X140989438Y-75326792D01*
X140989438Y-75326792D02*
X141065628Y-75288696D01*
X141065628Y-75288696D02*
X141179914Y-75288696D01*
X141179914Y-75288696D02*
X141256104Y-75326792D01*
X141256104Y-75326792D02*
X141294200Y-75364887D01*
X141294200Y-75364887D02*
X141332295Y-75441077D01*
X141332295Y-75441077D02*
X141332295Y-75745839D01*
X141332295Y-75745839D02*
X140532295Y-75745839D01*
X140532295Y-75745839D02*
X140532295Y-75479173D01*
X140532295Y-75479173D02*
X140570390Y-75402982D01*
X140570390Y-75402982D02*
X140608485Y-75364887D01*
X140608485Y-75364887D02*
X140684676Y-75326792D01*
X140684676Y-75326792D02*
X140760866Y-75326792D01*
X140760866Y-75326792D02*
X140837057Y-75364887D01*
X140837057Y-75364887D02*
X140875152Y-75402982D01*
X140875152Y-75402982D02*
X140913247Y-75479173D01*
X140913247Y-75479173D02*
X140913247Y-75745839D01*
X140532295Y-74602982D02*
X140532295Y-74755363D01*
X140532295Y-74755363D02*
X140570390Y-74831554D01*
X140570390Y-74831554D02*
X140608485Y-74869649D01*
X140608485Y-74869649D02*
X140722771Y-74945839D01*
X140722771Y-74945839D02*
X140875152Y-74983935D01*
X140875152Y-74983935D02*
X141179914Y-74983935D01*
X141179914Y-74983935D02*
X141256104Y-74945839D01*
X141256104Y-74945839D02*
X141294200Y-74907744D01*
X141294200Y-74907744D02*
X141332295Y-74831554D01*
X141332295Y-74831554D02*
X141332295Y-74679173D01*
X141332295Y-74679173D02*
X141294200Y-74602982D01*
X141294200Y-74602982D02*
X141256104Y-74564887D01*
X141256104Y-74564887D02*
X141179914Y-74526792D01*
X141179914Y-74526792D02*
X140989438Y-74526792D01*
X140989438Y-74526792D02*
X140913247Y-74564887D01*
X140913247Y-74564887D02*
X140875152Y-74602982D01*
X140875152Y-74602982D02*
X140837057Y-74679173D01*
X140837057Y-74679173D02*
X140837057Y-74831554D01*
X140837057Y-74831554D02*
X140875152Y-74907744D01*
X140875152Y-74907744D02*
X140913247Y-74945839D01*
X140913247Y-74945839D02*
X140989438Y-74983935D01*
X161652295Y-123555112D02*
X160852295Y-123555112D01*
X160852295Y-123555112D02*
X160852295Y-123250350D01*
X160852295Y-123250350D02*
X160890390Y-123174160D01*
X160890390Y-123174160D02*
X160928485Y-123136065D01*
X160928485Y-123136065D02*
X161004676Y-123097969D01*
X161004676Y-123097969D02*
X161118961Y-123097969D01*
X161118961Y-123097969D02*
X161195152Y-123136065D01*
X161195152Y-123136065D02*
X161233247Y-123174160D01*
X161233247Y-123174160D02*
X161271342Y-123250350D01*
X161271342Y-123250350D02*
X161271342Y-123555112D01*
X161576104Y-122297969D02*
X161614200Y-122336065D01*
X161614200Y-122336065D02*
X161652295Y-122450350D01*
X161652295Y-122450350D02*
X161652295Y-122526541D01*
X161652295Y-122526541D02*
X161614200Y-122640827D01*
X161614200Y-122640827D02*
X161538009Y-122717017D01*
X161538009Y-122717017D02*
X161461819Y-122755112D01*
X161461819Y-122755112D02*
X161309438Y-122793208D01*
X161309438Y-122793208D02*
X161195152Y-122793208D01*
X161195152Y-122793208D02*
X161042771Y-122755112D01*
X161042771Y-122755112D02*
X160966580Y-122717017D01*
X160966580Y-122717017D02*
X160890390Y-122640827D01*
X160890390Y-122640827D02*
X160852295Y-122526541D01*
X160852295Y-122526541D02*
X160852295Y-122450350D01*
X160852295Y-122450350D02*
X160890390Y-122336065D01*
X160890390Y-122336065D02*
X160928485Y-122297969D01*
X160852295Y-121612255D02*
X160852295Y-121764636D01*
X160852295Y-121764636D02*
X160890390Y-121840827D01*
X160890390Y-121840827D02*
X160928485Y-121878922D01*
X160928485Y-121878922D02*
X161042771Y-121955112D01*
X161042771Y-121955112D02*
X161195152Y-121993208D01*
X161195152Y-121993208D02*
X161499914Y-121993208D01*
X161499914Y-121993208D02*
X161576104Y-121955112D01*
X161576104Y-121955112D02*
X161614200Y-121917017D01*
X161614200Y-121917017D02*
X161652295Y-121840827D01*
X161652295Y-121840827D02*
X161652295Y-121688446D01*
X161652295Y-121688446D02*
X161614200Y-121612255D01*
X161614200Y-121612255D02*
X161576104Y-121574160D01*
X161576104Y-121574160D02*
X161499914Y-121536065D01*
X161499914Y-121536065D02*
X161309438Y-121536065D01*
X161309438Y-121536065D02*
X161233247Y-121574160D01*
X161233247Y-121574160D02*
X161195152Y-121612255D01*
X161195152Y-121612255D02*
X161157057Y-121688446D01*
X161157057Y-121688446D02*
X161157057Y-121840827D01*
X161157057Y-121840827D02*
X161195152Y-121917017D01*
X161195152Y-121917017D02*
X161233247Y-121955112D01*
X161233247Y-121955112D02*
X161309438Y-121993208D01*
X133712295Y-76545839D02*
X132912295Y-76545839D01*
X132912295Y-76545839D02*
X132912295Y-76241077D01*
X132912295Y-76241077D02*
X132950390Y-76164887D01*
X132950390Y-76164887D02*
X132988485Y-76126792D01*
X132988485Y-76126792D02*
X133064676Y-76088696D01*
X133064676Y-76088696D02*
X133178961Y-76088696D01*
X133178961Y-76088696D02*
X133255152Y-76126792D01*
X133255152Y-76126792D02*
X133293247Y-76164887D01*
X133293247Y-76164887D02*
X133331342Y-76241077D01*
X133331342Y-76241077D02*
X133331342Y-76545839D01*
X133636104Y-75288696D02*
X133674200Y-75326792D01*
X133674200Y-75326792D02*
X133712295Y-75441077D01*
X133712295Y-75441077D02*
X133712295Y-75517268D01*
X133712295Y-75517268D02*
X133674200Y-75631554D01*
X133674200Y-75631554D02*
X133598009Y-75707744D01*
X133598009Y-75707744D02*
X133521819Y-75745839D01*
X133521819Y-75745839D02*
X133369438Y-75783935D01*
X133369438Y-75783935D02*
X133255152Y-75783935D01*
X133255152Y-75783935D02*
X133102771Y-75745839D01*
X133102771Y-75745839D02*
X133026580Y-75707744D01*
X133026580Y-75707744D02*
X132950390Y-75631554D01*
X132950390Y-75631554D02*
X132912295Y-75517268D01*
X132912295Y-75517268D02*
X132912295Y-75441077D01*
X132912295Y-75441077D02*
X132950390Y-75326792D01*
X132950390Y-75326792D02*
X132988485Y-75288696D01*
X133712295Y-74526792D02*
X133712295Y-74983935D01*
X133712295Y-74755363D02*
X132912295Y-74755363D01*
X132912295Y-74755363D02*
X133026580Y-74831554D01*
X133026580Y-74831554D02*
X133102771Y-74907744D01*
X133102771Y-74907744D02*
X133140866Y-74983935D01*
X133178961Y-73841077D02*
X133712295Y-73841077D01*
X132874200Y-74031553D02*
X133445628Y-74222030D01*
X133445628Y-74222030D02*
X133445628Y-73726791D01*
X138792295Y-114645839D02*
X137992295Y-114645839D01*
X137992295Y-114645839D02*
X137992295Y-114341077D01*
X137992295Y-114341077D02*
X138030390Y-114264887D01*
X138030390Y-114264887D02*
X138068485Y-114226792D01*
X138068485Y-114226792D02*
X138144676Y-114188696D01*
X138144676Y-114188696D02*
X138258961Y-114188696D01*
X138258961Y-114188696D02*
X138335152Y-114226792D01*
X138335152Y-114226792D02*
X138373247Y-114264887D01*
X138373247Y-114264887D02*
X138411342Y-114341077D01*
X138411342Y-114341077D02*
X138411342Y-114645839D01*
X138563723Y-113883935D02*
X138563723Y-113502982D01*
X138792295Y-113960125D02*
X137992295Y-113693458D01*
X137992295Y-113693458D02*
X138792295Y-113426792D01*
X137992295Y-113236316D02*
X137992295Y-112741078D01*
X137992295Y-112741078D02*
X138297057Y-113007744D01*
X138297057Y-113007744D02*
X138297057Y-112893459D01*
X138297057Y-112893459D02*
X138335152Y-112817268D01*
X138335152Y-112817268D02*
X138373247Y-112779173D01*
X138373247Y-112779173D02*
X138449438Y-112741078D01*
X138449438Y-112741078D02*
X138639914Y-112741078D01*
X138639914Y-112741078D02*
X138716104Y-112779173D01*
X138716104Y-112779173D02*
X138754200Y-112817268D01*
X138754200Y-112817268D02*
X138792295Y-112893459D01*
X138792295Y-112893459D02*
X138792295Y-113122030D01*
X138792295Y-113122030D02*
X138754200Y-113198221D01*
X138754200Y-113198221D02*
X138716104Y-113236316D01*
X173590390Y-85112255D02*
X173552295Y-85188445D01*
X173552295Y-85188445D02*
X173552295Y-85302731D01*
X173552295Y-85302731D02*
X173590390Y-85417017D01*
X173590390Y-85417017D02*
X173666580Y-85493207D01*
X173666580Y-85493207D02*
X173742771Y-85531302D01*
X173742771Y-85531302D02*
X173895152Y-85569398D01*
X173895152Y-85569398D02*
X174009438Y-85569398D01*
X174009438Y-85569398D02*
X174161819Y-85531302D01*
X174161819Y-85531302D02*
X174238009Y-85493207D01*
X174238009Y-85493207D02*
X174314200Y-85417017D01*
X174314200Y-85417017D02*
X174352295Y-85302731D01*
X174352295Y-85302731D02*
X174352295Y-85226540D01*
X174352295Y-85226540D02*
X174314200Y-85112255D01*
X174314200Y-85112255D02*
X174276104Y-85074159D01*
X174276104Y-85074159D02*
X174009438Y-85074159D01*
X174009438Y-85074159D02*
X174009438Y-85226540D01*
X174352295Y-84731302D02*
X173552295Y-84731302D01*
X173552295Y-84731302D02*
X174352295Y-84274159D01*
X174352295Y-84274159D02*
X173552295Y-84274159D01*
X174352295Y-83893207D02*
X173552295Y-83893207D01*
X173552295Y-83893207D02*
X173552295Y-83702731D01*
X173552295Y-83702731D02*
X173590390Y-83588445D01*
X173590390Y-83588445D02*
X173666580Y-83512255D01*
X173666580Y-83512255D02*
X173742771Y-83474160D01*
X173742771Y-83474160D02*
X173895152Y-83436064D01*
X173895152Y-83436064D02*
X174009438Y-83436064D01*
X174009438Y-83436064D02*
X174161819Y-83474160D01*
X174161819Y-83474160D02*
X174238009Y-83512255D01*
X174238009Y-83512255D02*
X174314200Y-83588445D01*
X174314200Y-83588445D02*
X174352295Y-83702731D01*
X174352295Y-83702731D02*
X174352295Y-83893207D01*
X161652295Y-76545839D02*
X160852295Y-76545839D01*
X160852295Y-76545839D02*
X160852295Y-76241077D01*
X160852295Y-76241077D02*
X160890390Y-76164887D01*
X160890390Y-76164887D02*
X160928485Y-76126792D01*
X160928485Y-76126792D02*
X161004676Y-76088696D01*
X161004676Y-76088696D02*
X161118961Y-76088696D01*
X161118961Y-76088696D02*
X161195152Y-76126792D01*
X161195152Y-76126792D02*
X161233247Y-76164887D01*
X161233247Y-76164887D02*
X161271342Y-76241077D01*
X161271342Y-76241077D02*
X161271342Y-76545839D01*
X161423723Y-75783935D02*
X161423723Y-75402982D01*
X161652295Y-75860125D02*
X160852295Y-75593458D01*
X160852295Y-75593458D02*
X161652295Y-75326792D01*
X161652295Y-74641078D02*
X161652295Y-75098221D01*
X161652295Y-74869649D02*
X160852295Y-74869649D01*
X160852295Y-74869649D02*
X160966580Y-74945840D01*
X160966580Y-74945840D02*
X161042771Y-75022030D01*
X161042771Y-75022030D02*
X161080866Y-75098221D01*
X160852295Y-74145839D02*
X160852295Y-74069649D01*
X160852295Y-74069649D02*
X160890390Y-73993458D01*
X160890390Y-73993458D02*
X160928485Y-73955363D01*
X160928485Y-73955363D02*
X161004676Y-73917268D01*
X161004676Y-73917268D02*
X161157057Y-73879173D01*
X161157057Y-73879173D02*
X161347533Y-73879173D01*
X161347533Y-73879173D02*
X161499914Y-73917268D01*
X161499914Y-73917268D02*
X161576104Y-73955363D01*
X161576104Y-73955363D02*
X161614200Y-73993458D01*
X161614200Y-73993458D02*
X161652295Y-74069649D01*
X161652295Y-74069649D02*
X161652295Y-74145839D01*
X161652295Y-74145839D02*
X161614200Y-74222030D01*
X161614200Y-74222030D02*
X161576104Y-74260125D01*
X161576104Y-74260125D02*
X161499914Y-74298220D01*
X161499914Y-74298220D02*
X161347533Y-74336316D01*
X161347533Y-74336316D02*
X161157057Y-74336316D01*
X161157057Y-74336316D02*
X161004676Y-74298220D01*
X161004676Y-74298220D02*
X160928485Y-74260125D01*
X160928485Y-74260125D02*
X160890390Y-74222030D01*
X160890390Y-74222030D02*
X160852295Y-74145839D01*
X168472295Y-122793207D02*
X169119914Y-122793207D01*
X169119914Y-122793207D02*
X169196104Y-122755112D01*
X169196104Y-122755112D02*
X169234200Y-122717017D01*
X169234200Y-122717017D02*
X169272295Y-122640826D01*
X169272295Y-122640826D02*
X169272295Y-122488445D01*
X169272295Y-122488445D02*
X169234200Y-122412255D01*
X169234200Y-122412255D02*
X169196104Y-122374160D01*
X169196104Y-122374160D02*
X169119914Y-122336064D01*
X169119914Y-122336064D02*
X168472295Y-122336064D01*
X168472295Y-122031303D02*
X168472295Y-121536065D01*
X168472295Y-121536065D02*
X168777057Y-121802731D01*
X168777057Y-121802731D02*
X168777057Y-121688446D01*
X168777057Y-121688446D02*
X168815152Y-121612255D01*
X168815152Y-121612255D02*
X168853247Y-121574160D01*
X168853247Y-121574160D02*
X168929438Y-121536065D01*
X168929438Y-121536065D02*
X169119914Y-121536065D01*
X169119914Y-121536065D02*
X169196104Y-121574160D01*
X169196104Y-121574160D02*
X169234200Y-121612255D01*
X169234200Y-121612255D02*
X169272295Y-121688446D01*
X169272295Y-121688446D02*
X169272295Y-121917017D01*
X169272295Y-121917017D02*
X169234200Y-121993208D01*
X169234200Y-121993208D02*
X169196104Y-122031303D01*
X136252295Y-123440826D02*
X135452295Y-123440826D01*
X135452295Y-123440826D02*
X135452295Y-123136064D01*
X135452295Y-123136064D02*
X135490390Y-123059874D01*
X135490390Y-123059874D02*
X135528485Y-123021779D01*
X135528485Y-123021779D02*
X135604676Y-122983683D01*
X135604676Y-122983683D02*
X135718961Y-122983683D01*
X135718961Y-122983683D02*
X135795152Y-123021779D01*
X135795152Y-123021779D02*
X135833247Y-123059874D01*
X135833247Y-123059874D02*
X135871342Y-123136064D01*
X135871342Y-123136064D02*
X135871342Y-123440826D01*
X136023723Y-122678922D02*
X136023723Y-122297969D01*
X136252295Y-122755112D02*
X135452295Y-122488445D01*
X135452295Y-122488445D02*
X136252295Y-122221779D01*
X135452295Y-121802731D02*
X135452295Y-121726541D01*
X135452295Y-121726541D02*
X135490390Y-121650350D01*
X135490390Y-121650350D02*
X135528485Y-121612255D01*
X135528485Y-121612255D02*
X135604676Y-121574160D01*
X135604676Y-121574160D02*
X135757057Y-121536065D01*
X135757057Y-121536065D02*
X135947533Y-121536065D01*
X135947533Y-121536065D02*
X136099914Y-121574160D01*
X136099914Y-121574160D02*
X136176104Y-121612255D01*
X136176104Y-121612255D02*
X136214200Y-121650350D01*
X136214200Y-121650350D02*
X136252295Y-121726541D01*
X136252295Y-121726541D02*
X136252295Y-121802731D01*
X136252295Y-121802731D02*
X136214200Y-121878922D01*
X136214200Y-121878922D02*
X136176104Y-121917017D01*
X136176104Y-121917017D02*
X136099914Y-121955112D01*
X136099914Y-121955112D02*
X135947533Y-121993208D01*
X135947533Y-121993208D02*
X135757057Y-121993208D01*
X135757057Y-121993208D02*
X135604676Y-121955112D01*
X135604676Y-121955112D02*
X135528485Y-121917017D01*
X135528485Y-121917017D02*
X135490390Y-121878922D01*
X135490390Y-121878922D02*
X135452295Y-121802731D01*
X141332295Y-85455112D02*
X140532295Y-85455112D01*
X140532295Y-85455112D02*
X140532295Y-85150350D01*
X140532295Y-85150350D02*
X140570390Y-85074160D01*
X140570390Y-85074160D02*
X140608485Y-85036065D01*
X140608485Y-85036065D02*
X140684676Y-84997969D01*
X140684676Y-84997969D02*
X140798961Y-84997969D01*
X140798961Y-84997969D02*
X140875152Y-85036065D01*
X140875152Y-85036065D02*
X140913247Y-85074160D01*
X140913247Y-85074160D02*
X140951342Y-85150350D01*
X140951342Y-85150350D02*
X140951342Y-85455112D01*
X140913247Y-84388446D02*
X140951342Y-84274160D01*
X140951342Y-84274160D02*
X140989438Y-84236065D01*
X140989438Y-84236065D02*
X141065628Y-84197969D01*
X141065628Y-84197969D02*
X141179914Y-84197969D01*
X141179914Y-84197969D02*
X141256104Y-84236065D01*
X141256104Y-84236065D02*
X141294200Y-84274160D01*
X141294200Y-84274160D02*
X141332295Y-84350350D01*
X141332295Y-84350350D02*
X141332295Y-84655112D01*
X141332295Y-84655112D02*
X140532295Y-84655112D01*
X140532295Y-84655112D02*
X140532295Y-84388446D01*
X140532295Y-84388446D02*
X140570390Y-84312255D01*
X140570390Y-84312255D02*
X140608485Y-84274160D01*
X140608485Y-84274160D02*
X140684676Y-84236065D01*
X140684676Y-84236065D02*
X140760866Y-84236065D01*
X140760866Y-84236065D02*
X140837057Y-84274160D01*
X140837057Y-84274160D02*
X140875152Y-84312255D01*
X140875152Y-84312255D02*
X140913247Y-84388446D01*
X140913247Y-84388446D02*
X140913247Y-84655112D01*
X140532295Y-83931303D02*
X140532295Y-83397969D01*
X140532295Y-83397969D02*
X141332295Y-83740827D01*
X146412295Y-123555112D02*
X145612295Y-123555112D01*
X145612295Y-123555112D02*
X145612295Y-123250350D01*
X145612295Y-123250350D02*
X145650390Y-123174160D01*
X145650390Y-123174160D02*
X145688485Y-123136065D01*
X145688485Y-123136065D02*
X145764676Y-123097969D01*
X145764676Y-123097969D02*
X145878961Y-123097969D01*
X145878961Y-123097969D02*
X145955152Y-123136065D01*
X145955152Y-123136065D02*
X145993247Y-123174160D01*
X145993247Y-123174160D02*
X146031342Y-123250350D01*
X146031342Y-123250350D02*
X146031342Y-123555112D01*
X146336104Y-122297969D02*
X146374200Y-122336065D01*
X146374200Y-122336065D02*
X146412295Y-122450350D01*
X146412295Y-122450350D02*
X146412295Y-122526541D01*
X146412295Y-122526541D02*
X146374200Y-122640827D01*
X146374200Y-122640827D02*
X146298009Y-122717017D01*
X146298009Y-122717017D02*
X146221819Y-122755112D01*
X146221819Y-122755112D02*
X146069438Y-122793208D01*
X146069438Y-122793208D02*
X145955152Y-122793208D01*
X145955152Y-122793208D02*
X145802771Y-122755112D01*
X145802771Y-122755112D02*
X145726580Y-122717017D01*
X145726580Y-122717017D02*
X145650390Y-122640827D01*
X145650390Y-122640827D02*
X145612295Y-122526541D01*
X145612295Y-122526541D02*
X145612295Y-122450350D01*
X145612295Y-122450350D02*
X145650390Y-122336065D01*
X145650390Y-122336065D02*
X145688485Y-122297969D01*
X145878961Y-121612255D02*
X146412295Y-121612255D01*
X145574200Y-121802731D02*
X146145628Y-121993208D01*
X146145628Y-121993208D02*
X146145628Y-121497969D01*
X156572295Y-86102731D02*
X155772295Y-86102731D01*
X155772295Y-86102731D02*
X155772295Y-85797969D01*
X155772295Y-85797969D02*
X155810390Y-85721779D01*
X155810390Y-85721779D02*
X155848485Y-85683684D01*
X155848485Y-85683684D02*
X155924676Y-85645588D01*
X155924676Y-85645588D02*
X156038961Y-85645588D01*
X156038961Y-85645588D02*
X156115152Y-85683684D01*
X156115152Y-85683684D02*
X156153247Y-85721779D01*
X156153247Y-85721779D02*
X156191342Y-85797969D01*
X156191342Y-85797969D02*
X156191342Y-86102731D01*
X156343723Y-85340827D02*
X156343723Y-84959874D01*
X156572295Y-85417017D02*
X155772295Y-85150350D01*
X155772295Y-85150350D02*
X156572295Y-84883684D01*
X156572295Y-84197970D02*
X156572295Y-84655113D01*
X156572295Y-84426541D02*
X155772295Y-84426541D01*
X155772295Y-84426541D02*
X155886580Y-84502732D01*
X155886580Y-84502732D02*
X155962771Y-84578922D01*
X155962771Y-84578922D02*
X156000866Y-84655113D01*
X155772295Y-83474160D02*
X155772295Y-83855112D01*
X155772295Y-83855112D02*
X156153247Y-83893208D01*
X156153247Y-83893208D02*
X156115152Y-83855112D01*
X156115152Y-83855112D02*
X156077057Y-83778922D01*
X156077057Y-83778922D02*
X156077057Y-83588446D01*
X156077057Y-83588446D02*
X156115152Y-83512255D01*
X156115152Y-83512255D02*
X156153247Y-83474160D01*
X156153247Y-83474160D02*
X156229438Y-83436065D01*
X156229438Y-83436065D02*
X156419914Y-83436065D01*
X156419914Y-83436065D02*
X156496104Y-83474160D01*
X156496104Y-83474160D02*
X156534200Y-83512255D01*
X156534200Y-83512255D02*
X156572295Y-83588446D01*
X156572295Y-83588446D02*
X156572295Y-83778922D01*
X156572295Y-83778922D02*
X156534200Y-83855112D01*
X156534200Y-83855112D02*
X156496104Y-83893208D01*
X125292295Y-122678921D02*
X126092295Y-122412254D01*
X126092295Y-122412254D02*
X125292295Y-122145588D01*
X125863723Y-121917017D02*
X125863723Y-121536064D01*
X126092295Y-121993207D02*
X125292295Y-121726540D01*
X125292295Y-121726540D02*
X126092295Y-121459874D01*
X153232295Y-76545839D02*
X153879914Y-76545839D01*
X153879914Y-76545839D02*
X153956104Y-76507744D01*
X153956104Y-76507744D02*
X153994200Y-76469649D01*
X153994200Y-76469649D02*
X154032295Y-76393458D01*
X154032295Y-76393458D02*
X154032295Y-76241077D01*
X154032295Y-76241077D02*
X153994200Y-76164887D01*
X153994200Y-76164887D02*
X153956104Y-76126792D01*
X153956104Y-76126792D02*
X153879914Y-76088696D01*
X153879914Y-76088696D02*
X153232295Y-76088696D01*
X154032295Y-75288697D02*
X154032295Y-75745840D01*
X154032295Y-75517268D02*
X153232295Y-75517268D01*
X153232295Y-75517268D02*
X153346580Y-75593459D01*
X153346580Y-75593459D02*
X153422771Y-75669649D01*
X153422771Y-75669649D02*
X153460866Y-75745840D01*
X154032295Y-74526792D02*
X154032295Y-74983935D01*
X154032295Y-74755363D02*
X153232295Y-74755363D01*
X153232295Y-74755363D02*
X153346580Y-74831554D01*
X153346580Y-74831554D02*
X153422771Y-74907744D01*
X153422771Y-74907744D02*
X153460866Y-74983935D01*
X127832295Y-84693207D02*
X128479914Y-84693207D01*
X128479914Y-84693207D02*
X128556104Y-84655112D01*
X128556104Y-84655112D02*
X128594200Y-84617017D01*
X128594200Y-84617017D02*
X128632295Y-84540826D01*
X128632295Y-84540826D02*
X128632295Y-84388445D01*
X128632295Y-84388445D02*
X128594200Y-84312255D01*
X128594200Y-84312255D02*
X128556104Y-84274160D01*
X128556104Y-84274160D02*
X128479914Y-84236064D01*
X128479914Y-84236064D02*
X127832295Y-84236064D01*
X127832295Y-83512255D02*
X127832295Y-83664636D01*
X127832295Y-83664636D02*
X127870390Y-83740827D01*
X127870390Y-83740827D02*
X127908485Y-83778922D01*
X127908485Y-83778922D02*
X128022771Y-83855112D01*
X128022771Y-83855112D02*
X128175152Y-83893208D01*
X128175152Y-83893208D02*
X128479914Y-83893208D01*
X128479914Y-83893208D02*
X128556104Y-83855112D01*
X128556104Y-83855112D02*
X128594200Y-83817017D01*
X128594200Y-83817017D02*
X128632295Y-83740827D01*
X128632295Y-83740827D02*
X128632295Y-83588446D01*
X128632295Y-83588446D02*
X128594200Y-83512255D01*
X128594200Y-83512255D02*
X128556104Y-83474160D01*
X128556104Y-83474160D02*
X128479914Y-83436065D01*
X128479914Y-83436065D02*
X128289438Y-83436065D01*
X128289438Y-83436065D02*
X128213247Y-83474160D01*
X128213247Y-83474160D02*
X128175152Y-83512255D01*
X128175152Y-83512255D02*
X128137057Y-83588446D01*
X128137057Y-83588446D02*
X128137057Y-83740827D01*
X128137057Y-83740827D02*
X128175152Y-83817017D01*
X128175152Y-83817017D02*
X128213247Y-83855112D01*
X128213247Y-83855112D02*
X128289438Y-83893208D01*
X141332295Y-123440826D02*
X140532295Y-123440826D01*
X140532295Y-123440826D02*
X140532295Y-123136064D01*
X140532295Y-123136064D02*
X140570390Y-123059874D01*
X140570390Y-123059874D02*
X140608485Y-123021779D01*
X140608485Y-123021779D02*
X140684676Y-122983683D01*
X140684676Y-122983683D02*
X140798961Y-122983683D01*
X140798961Y-122983683D02*
X140875152Y-123021779D01*
X140875152Y-123021779D02*
X140913247Y-123059874D01*
X140913247Y-123059874D02*
X140951342Y-123136064D01*
X140951342Y-123136064D02*
X140951342Y-123440826D01*
X141103723Y-122678922D02*
X141103723Y-122297969D01*
X141332295Y-122755112D02*
X140532295Y-122488445D01*
X140532295Y-122488445D02*
X141332295Y-122221779D01*
X140798961Y-121612255D02*
X141332295Y-121612255D01*
X140494200Y-121802731D02*
X141065628Y-121993208D01*
X141065628Y-121993208D02*
X141065628Y-121497969D01*
X168472295Y-114645839D02*
X169119914Y-114645839D01*
X169119914Y-114645839D02*
X169196104Y-114607744D01*
X169196104Y-114607744D02*
X169234200Y-114569649D01*
X169234200Y-114569649D02*
X169272295Y-114493458D01*
X169272295Y-114493458D02*
X169272295Y-114341077D01*
X169272295Y-114341077D02*
X169234200Y-114264887D01*
X169234200Y-114264887D02*
X169196104Y-114226792D01*
X169196104Y-114226792D02*
X169119914Y-114188696D01*
X169119914Y-114188696D02*
X168472295Y-114188696D01*
X168738961Y-113464887D02*
X169272295Y-113464887D01*
X168434200Y-113655363D02*
X169005628Y-113845840D01*
X169005628Y-113845840D02*
X169005628Y-113350601D01*
X171050390Y-85112255D02*
X171012295Y-85188445D01*
X171012295Y-85188445D02*
X171012295Y-85302731D01*
X171012295Y-85302731D02*
X171050390Y-85417017D01*
X171050390Y-85417017D02*
X171126580Y-85493207D01*
X171126580Y-85493207D02*
X171202771Y-85531302D01*
X171202771Y-85531302D02*
X171355152Y-85569398D01*
X171355152Y-85569398D02*
X171469438Y-85569398D01*
X171469438Y-85569398D02*
X171621819Y-85531302D01*
X171621819Y-85531302D02*
X171698009Y-85493207D01*
X171698009Y-85493207D02*
X171774200Y-85417017D01*
X171774200Y-85417017D02*
X171812295Y-85302731D01*
X171812295Y-85302731D02*
X171812295Y-85226540D01*
X171812295Y-85226540D02*
X171774200Y-85112255D01*
X171774200Y-85112255D02*
X171736104Y-85074159D01*
X171736104Y-85074159D02*
X171469438Y-85074159D01*
X171469438Y-85074159D02*
X171469438Y-85226540D01*
X171812295Y-84731302D02*
X171012295Y-84731302D01*
X171012295Y-84731302D02*
X171812295Y-84274159D01*
X171812295Y-84274159D02*
X171012295Y-84274159D01*
X171812295Y-83893207D02*
X171012295Y-83893207D01*
X171012295Y-83893207D02*
X171012295Y-83702731D01*
X171012295Y-83702731D02*
X171050390Y-83588445D01*
X171050390Y-83588445D02*
X171126580Y-83512255D01*
X171126580Y-83512255D02*
X171202771Y-83474160D01*
X171202771Y-83474160D02*
X171355152Y-83436064D01*
X171355152Y-83436064D02*
X171469438Y-83436064D01*
X171469438Y-83436064D02*
X171621819Y-83474160D01*
X171621819Y-83474160D02*
X171698009Y-83512255D01*
X171698009Y-83512255D02*
X171774200Y-83588445D01*
X171774200Y-83588445D02*
X171812295Y-83702731D01*
X171812295Y-83702731D02*
X171812295Y-83893207D01*
X133712295Y-114645839D02*
X132912295Y-114645839D01*
X132912295Y-114645839D02*
X132912295Y-114341077D01*
X132912295Y-114341077D02*
X132950390Y-114264887D01*
X132950390Y-114264887D02*
X132988485Y-114226792D01*
X132988485Y-114226792D02*
X133064676Y-114188696D01*
X133064676Y-114188696D02*
X133178961Y-114188696D01*
X133178961Y-114188696D02*
X133255152Y-114226792D01*
X133255152Y-114226792D02*
X133293247Y-114264887D01*
X133293247Y-114264887D02*
X133331342Y-114341077D01*
X133331342Y-114341077D02*
X133331342Y-114645839D01*
X133636104Y-113388696D02*
X133674200Y-113426792D01*
X133674200Y-113426792D02*
X133712295Y-113541077D01*
X133712295Y-113541077D02*
X133712295Y-113617268D01*
X133712295Y-113617268D02*
X133674200Y-113731554D01*
X133674200Y-113731554D02*
X133598009Y-113807744D01*
X133598009Y-113807744D02*
X133521819Y-113845839D01*
X133521819Y-113845839D02*
X133369438Y-113883935D01*
X133369438Y-113883935D02*
X133255152Y-113883935D01*
X133255152Y-113883935D02*
X133102771Y-113845839D01*
X133102771Y-113845839D02*
X133026580Y-113807744D01*
X133026580Y-113807744D02*
X132950390Y-113731554D01*
X132950390Y-113731554D02*
X132912295Y-113617268D01*
X132912295Y-113617268D02*
X132912295Y-113541077D01*
X132912295Y-113541077D02*
X132950390Y-113426792D01*
X132950390Y-113426792D02*
X132988485Y-113388696D01*
X132912295Y-113122030D02*
X132912295Y-112626792D01*
X132912295Y-112626792D02*
X133217057Y-112893458D01*
X133217057Y-112893458D02*
X133217057Y-112779173D01*
X133217057Y-112779173D02*
X133255152Y-112702982D01*
X133255152Y-112702982D02*
X133293247Y-112664887D01*
X133293247Y-112664887D02*
X133369438Y-112626792D01*
X133369438Y-112626792D02*
X133559914Y-112626792D01*
X133559914Y-112626792D02*
X133636104Y-112664887D01*
X133636104Y-112664887D02*
X133674200Y-112702982D01*
X133674200Y-112702982D02*
X133712295Y-112779173D01*
X133712295Y-112779173D02*
X133712295Y-113007744D01*
X133712295Y-113007744D02*
X133674200Y-113083935D01*
X133674200Y-113083935D02*
X133636104Y-113122030D01*
X143872295Y-123440826D02*
X143072295Y-123440826D01*
X143072295Y-123440826D02*
X143072295Y-123136064D01*
X143072295Y-123136064D02*
X143110390Y-123059874D01*
X143110390Y-123059874D02*
X143148485Y-123021779D01*
X143148485Y-123021779D02*
X143224676Y-122983683D01*
X143224676Y-122983683D02*
X143338961Y-122983683D01*
X143338961Y-122983683D02*
X143415152Y-123021779D01*
X143415152Y-123021779D02*
X143453247Y-123059874D01*
X143453247Y-123059874D02*
X143491342Y-123136064D01*
X143491342Y-123136064D02*
X143491342Y-123440826D01*
X143643723Y-122678922D02*
X143643723Y-122297969D01*
X143872295Y-122755112D02*
X143072295Y-122488445D01*
X143072295Y-122488445D02*
X143872295Y-122221779D01*
X143072295Y-121612255D02*
X143072295Y-121764636D01*
X143072295Y-121764636D02*
X143110390Y-121840827D01*
X143110390Y-121840827D02*
X143148485Y-121878922D01*
X143148485Y-121878922D02*
X143262771Y-121955112D01*
X143262771Y-121955112D02*
X143415152Y-121993208D01*
X143415152Y-121993208D02*
X143719914Y-121993208D01*
X143719914Y-121993208D02*
X143796104Y-121955112D01*
X143796104Y-121955112D02*
X143834200Y-121917017D01*
X143834200Y-121917017D02*
X143872295Y-121840827D01*
X143872295Y-121840827D02*
X143872295Y-121688446D01*
X143872295Y-121688446D02*
X143834200Y-121612255D01*
X143834200Y-121612255D02*
X143796104Y-121574160D01*
X143796104Y-121574160D02*
X143719914Y-121536065D01*
X143719914Y-121536065D02*
X143529438Y-121536065D01*
X143529438Y-121536065D02*
X143453247Y-121574160D01*
X143453247Y-121574160D02*
X143415152Y-121612255D01*
X143415152Y-121612255D02*
X143377057Y-121688446D01*
X143377057Y-121688446D02*
X143377057Y-121840827D01*
X143377057Y-121840827D02*
X143415152Y-121917017D01*
X143415152Y-121917017D02*
X143453247Y-121955112D01*
X143453247Y-121955112D02*
X143529438Y-121993208D01*
X128632295Y-114645839D02*
X127832295Y-114645839D01*
X127832295Y-114645839D02*
X128632295Y-114188696D01*
X128632295Y-114188696D02*
X127832295Y-114188696D01*
X128632295Y-113350601D02*
X128251342Y-113617268D01*
X128632295Y-113807744D02*
X127832295Y-113807744D01*
X127832295Y-113807744D02*
X127832295Y-113502982D01*
X127832295Y-113502982D02*
X127870390Y-113426792D01*
X127870390Y-113426792D02*
X127908485Y-113388697D01*
X127908485Y-113388697D02*
X127984676Y-113350601D01*
X127984676Y-113350601D02*
X128098961Y-113350601D01*
X128098961Y-113350601D02*
X128175152Y-113388697D01*
X128175152Y-113388697D02*
X128213247Y-113426792D01*
X128213247Y-113426792D02*
X128251342Y-113502982D01*
X128251342Y-113502982D02*
X128251342Y-113807744D01*
X128594200Y-113045840D02*
X128632295Y-112931554D01*
X128632295Y-112931554D02*
X128632295Y-112741078D01*
X128632295Y-112741078D02*
X128594200Y-112664887D01*
X128594200Y-112664887D02*
X128556104Y-112626792D01*
X128556104Y-112626792D02*
X128479914Y-112588697D01*
X128479914Y-112588697D02*
X128403723Y-112588697D01*
X128403723Y-112588697D02*
X128327533Y-112626792D01*
X128327533Y-112626792D02*
X128289438Y-112664887D01*
X128289438Y-112664887D02*
X128251342Y-112741078D01*
X128251342Y-112741078D02*
X128213247Y-112893459D01*
X128213247Y-112893459D02*
X128175152Y-112969649D01*
X128175152Y-112969649D02*
X128137057Y-113007744D01*
X128137057Y-113007744D02*
X128060866Y-113045840D01*
X128060866Y-113045840D02*
X127984676Y-113045840D01*
X127984676Y-113045840D02*
X127908485Y-113007744D01*
X127908485Y-113007744D02*
X127870390Y-112969649D01*
X127870390Y-112969649D02*
X127832295Y-112893459D01*
X127832295Y-112893459D02*
X127832295Y-112702982D01*
X127832295Y-112702982D02*
X127870390Y-112588697D01*
X127832295Y-112360125D02*
X127832295Y-111902982D01*
X128632295Y-112131554D02*
X127832295Y-112131554D01*
X171012295Y-123859874D02*
X171012295Y-123364636D01*
X171012295Y-123364636D02*
X171317057Y-123631302D01*
X171317057Y-123631302D02*
X171317057Y-123517017D01*
X171317057Y-123517017D02*
X171355152Y-123440826D01*
X171355152Y-123440826D02*
X171393247Y-123402731D01*
X171393247Y-123402731D02*
X171469438Y-123364636D01*
X171469438Y-123364636D02*
X171659914Y-123364636D01*
X171659914Y-123364636D02*
X171736104Y-123402731D01*
X171736104Y-123402731D02*
X171774200Y-123440826D01*
X171774200Y-123440826D02*
X171812295Y-123517017D01*
X171812295Y-123517017D02*
X171812295Y-123745588D01*
X171812295Y-123745588D02*
X171774200Y-123821779D01*
X171774200Y-123821779D02*
X171736104Y-123859874D01*
X171736104Y-123021778D02*
X171774200Y-122983683D01*
X171774200Y-122983683D02*
X171812295Y-123021778D01*
X171812295Y-123021778D02*
X171774200Y-123059874D01*
X171774200Y-123059874D02*
X171736104Y-123021778D01*
X171736104Y-123021778D02*
X171812295Y-123021778D01*
X171012295Y-122717017D02*
X171012295Y-122221779D01*
X171012295Y-122221779D02*
X171317057Y-122488445D01*
X171317057Y-122488445D02*
X171317057Y-122374160D01*
X171317057Y-122374160D02*
X171355152Y-122297969D01*
X171355152Y-122297969D02*
X171393247Y-122259874D01*
X171393247Y-122259874D02*
X171469438Y-122221779D01*
X171469438Y-122221779D02*
X171659914Y-122221779D01*
X171659914Y-122221779D02*
X171736104Y-122259874D01*
X171736104Y-122259874D02*
X171774200Y-122297969D01*
X171774200Y-122297969D02*
X171812295Y-122374160D01*
X171812295Y-122374160D02*
X171812295Y-122602731D01*
X171812295Y-122602731D02*
X171774200Y-122678922D01*
X171774200Y-122678922D02*
X171736104Y-122717017D01*
X171012295Y-121993207D02*
X171812295Y-121726540D01*
X171812295Y-121726540D02*
X171012295Y-121459874D01*
X156572295Y-76545839D02*
X155772295Y-76545839D01*
X155772295Y-76545839D02*
X155772295Y-76241077D01*
X155772295Y-76241077D02*
X155810390Y-76164887D01*
X155810390Y-76164887D02*
X155848485Y-76126792D01*
X155848485Y-76126792D02*
X155924676Y-76088696D01*
X155924676Y-76088696D02*
X156038961Y-76088696D01*
X156038961Y-76088696D02*
X156115152Y-76126792D01*
X156115152Y-76126792D02*
X156153247Y-76164887D01*
X156153247Y-76164887D02*
X156191342Y-76241077D01*
X156191342Y-76241077D02*
X156191342Y-76545839D01*
X156343723Y-75783935D02*
X156343723Y-75402982D01*
X156572295Y-75860125D02*
X155772295Y-75593458D01*
X155772295Y-75593458D02*
X156572295Y-75326792D01*
X156572295Y-74641078D02*
X156572295Y-75098221D01*
X156572295Y-74869649D02*
X155772295Y-74869649D01*
X155772295Y-74869649D02*
X155886580Y-74945840D01*
X155886580Y-74945840D02*
X155962771Y-75022030D01*
X155962771Y-75022030D02*
X156000866Y-75098221D01*
X156038961Y-73955363D02*
X156572295Y-73955363D01*
X155734200Y-74145839D02*
X156305628Y-74336316D01*
X156305628Y-74336316D02*
X156305628Y-73841077D01*
X164192295Y-85340826D02*
X163392295Y-85340826D01*
X163392295Y-85340826D02*
X163392295Y-85036064D01*
X163392295Y-85036064D02*
X163430390Y-84959874D01*
X163430390Y-84959874D02*
X163468485Y-84921779D01*
X163468485Y-84921779D02*
X163544676Y-84883683D01*
X163544676Y-84883683D02*
X163658961Y-84883683D01*
X163658961Y-84883683D02*
X163735152Y-84921779D01*
X163735152Y-84921779D02*
X163773247Y-84959874D01*
X163773247Y-84959874D02*
X163811342Y-85036064D01*
X163811342Y-85036064D02*
X163811342Y-85340826D01*
X163963723Y-84578922D02*
X163963723Y-84197969D01*
X164192295Y-84655112D02*
X163392295Y-84388445D01*
X163392295Y-84388445D02*
X164192295Y-84121779D01*
X164192295Y-83817017D02*
X164192295Y-83664636D01*
X164192295Y-83664636D02*
X164154200Y-83588446D01*
X164154200Y-83588446D02*
X164116104Y-83550350D01*
X164116104Y-83550350D02*
X164001819Y-83474160D01*
X164001819Y-83474160D02*
X163849438Y-83436065D01*
X163849438Y-83436065D02*
X163544676Y-83436065D01*
X163544676Y-83436065D02*
X163468485Y-83474160D01*
X163468485Y-83474160D02*
X163430390Y-83512255D01*
X163430390Y-83512255D02*
X163392295Y-83588446D01*
X163392295Y-83588446D02*
X163392295Y-83740827D01*
X163392295Y-83740827D02*
X163430390Y-83817017D01*
X163430390Y-83817017D02*
X163468485Y-83855112D01*
X163468485Y-83855112D02*
X163544676Y-83893208D01*
X163544676Y-83893208D02*
X163735152Y-83893208D01*
X163735152Y-83893208D02*
X163811342Y-83855112D01*
X163811342Y-83855112D02*
X163849438Y-83817017D01*
X163849438Y-83817017D02*
X163887533Y-83740827D01*
X163887533Y-83740827D02*
X163887533Y-83588446D01*
X163887533Y-83588446D02*
X163849438Y-83512255D01*
X163849438Y-83512255D02*
X163811342Y-83474160D01*
X163811342Y-83474160D02*
X163735152Y-83436065D01*
X168472295Y-85455112D02*
X169119914Y-85455112D01*
X169119914Y-85455112D02*
X169196104Y-85417017D01*
X169196104Y-85417017D02*
X169234200Y-85378922D01*
X169234200Y-85378922D02*
X169272295Y-85302731D01*
X169272295Y-85302731D02*
X169272295Y-85150350D01*
X169272295Y-85150350D02*
X169234200Y-85074160D01*
X169234200Y-85074160D02*
X169196104Y-85036065D01*
X169196104Y-85036065D02*
X169119914Y-84997969D01*
X169119914Y-84997969D02*
X168472295Y-84997969D01*
X169272295Y-84197970D02*
X169272295Y-84655113D01*
X169272295Y-84426541D02*
X168472295Y-84426541D01*
X168472295Y-84426541D02*
X168586580Y-84502732D01*
X168586580Y-84502732D02*
X168662771Y-84578922D01*
X168662771Y-84578922D02*
X168700866Y-84655113D01*
X168472295Y-83512255D02*
X168472295Y-83664636D01*
X168472295Y-83664636D02*
X168510390Y-83740827D01*
X168510390Y-83740827D02*
X168548485Y-83778922D01*
X168548485Y-83778922D02*
X168662771Y-83855112D01*
X168662771Y-83855112D02*
X168815152Y-83893208D01*
X168815152Y-83893208D02*
X169119914Y-83893208D01*
X169119914Y-83893208D02*
X169196104Y-83855112D01*
X169196104Y-83855112D02*
X169234200Y-83817017D01*
X169234200Y-83817017D02*
X169272295Y-83740827D01*
X169272295Y-83740827D02*
X169272295Y-83588446D01*
X169272295Y-83588446D02*
X169234200Y-83512255D01*
X169234200Y-83512255D02*
X169196104Y-83474160D01*
X169196104Y-83474160D02*
X169119914Y-83436065D01*
X169119914Y-83436065D02*
X168929438Y-83436065D01*
X168929438Y-83436065D02*
X168853247Y-83474160D01*
X168853247Y-83474160D02*
X168815152Y-83512255D01*
X168815152Y-83512255D02*
X168777057Y-83588446D01*
X168777057Y-83588446D02*
X168777057Y-83740827D01*
X168777057Y-83740827D02*
X168815152Y-83817017D01*
X168815152Y-83817017D02*
X168853247Y-83855112D01*
X168853247Y-83855112D02*
X168929438Y-83893208D01*
X146412295Y-114645839D02*
X145612295Y-114645839D01*
X145612295Y-114645839D02*
X145612295Y-114341077D01*
X145612295Y-114341077D02*
X145650390Y-114264887D01*
X145650390Y-114264887D02*
X145688485Y-114226792D01*
X145688485Y-114226792D02*
X145764676Y-114188696D01*
X145764676Y-114188696D02*
X145878961Y-114188696D01*
X145878961Y-114188696D02*
X145955152Y-114226792D01*
X145955152Y-114226792D02*
X145993247Y-114264887D01*
X145993247Y-114264887D02*
X146031342Y-114341077D01*
X146031342Y-114341077D02*
X146031342Y-114645839D01*
X146336104Y-113388696D02*
X146374200Y-113426792D01*
X146374200Y-113426792D02*
X146412295Y-113541077D01*
X146412295Y-113541077D02*
X146412295Y-113617268D01*
X146412295Y-113617268D02*
X146374200Y-113731554D01*
X146374200Y-113731554D02*
X146298009Y-113807744D01*
X146298009Y-113807744D02*
X146221819Y-113845839D01*
X146221819Y-113845839D02*
X146069438Y-113883935D01*
X146069438Y-113883935D02*
X145955152Y-113883935D01*
X145955152Y-113883935D02*
X145802771Y-113845839D01*
X145802771Y-113845839D02*
X145726580Y-113807744D01*
X145726580Y-113807744D02*
X145650390Y-113731554D01*
X145650390Y-113731554D02*
X145612295Y-113617268D01*
X145612295Y-113617268D02*
X145612295Y-113541077D01*
X145612295Y-113541077D02*
X145650390Y-113426792D01*
X145650390Y-113426792D02*
X145688485Y-113388696D01*
X145612295Y-112664887D02*
X145612295Y-113045839D01*
X145612295Y-113045839D02*
X145993247Y-113083935D01*
X145993247Y-113083935D02*
X145955152Y-113045839D01*
X145955152Y-113045839D02*
X145917057Y-112969649D01*
X145917057Y-112969649D02*
X145917057Y-112779173D01*
X145917057Y-112779173D02*
X145955152Y-112702982D01*
X145955152Y-112702982D02*
X145993247Y-112664887D01*
X145993247Y-112664887D02*
X146069438Y-112626792D01*
X146069438Y-112626792D02*
X146259914Y-112626792D01*
X146259914Y-112626792D02*
X146336104Y-112664887D01*
X146336104Y-112664887D02*
X146374200Y-112702982D01*
X146374200Y-112702982D02*
X146412295Y-112779173D01*
X146412295Y-112779173D02*
X146412295Y-112969649D01*
X146412295Y-112969649D02*
X146374200Y-113045839D01*
X146374200Y-113045839D02*
X146336104Y-113083935D01*
X125292295Y-76660125D02*
X126092295Y-76393458D01*
X126092295Y-76393458D02*
X125292295Y-76126792D01*
X125673247Y-75593459D02*
X125711342Y-75479173D01*
X125711342Y-75479173D02*
X125749438Y-75441078D01*
X125749438Y-75441078D02*
X125825628Y-75402982D01*
X125825628Y-75402982D02*
X125939914Y-75402982D01*
X125939914Y-75402982D02*
X126016104Y-75441078D01*
X126016104Y-75441078D02*
X126054200Y-75479173D01*
X126054200Y-75479173D02*
X126092295Y-75555363D01*
X126092295Y-75555363D02*
X126092295Y-75860125D01*
X126092295Y-75860125D02*
X125292295Y-75860125D01*
X125292295Y-75860125D02*
X125292295Y-75593459D01*
X125292295Y-75593459D02*
X125330390Y-75517268D01*
X125330390Y-75517268D02*
X125368485Y-75479173D01*
X125368485Y-75479173D02*
X125444676Y-75441078D01*
X125444676Y-75441078D02*
X125520866Y-75441078D01*
X125520866Y-75441078D02*
X125597057Y-75479173D01*
X125597057Y-75479173D02*
X125635152Y-75517268D01*
X125635152Y-75517268D02*
X125673247Y-75593459D01*
X125673247Y-75593459D02*
X125673247Y-75860125D01*
X168472295Y-76545839D02*
X169119914Y-76545839D01*
X169119914Y-76545839D02*
X169196104Y-76507744D01*
X169196104Y-76507744D02*
X169234200Y-76469649D01*
X169234200Y-76469649D02*
X169272295Y-76393458D01*
X169272295Y-76393458D02*
X169272295Y-76241077D01*
X169272295Y-76241077D02*
X169234200Y-76164887D01*
X169234200Y-76164887D02*
X169196104Y-76126792D01*
X169196104Y-76126792D02*
X169119914Y-76088696D01*
X169119914Y-76088696D02*
X168472295Y-76088696D01*
X169272295Y-75288697D02*
X169272295Y-75745840D01*
X169272295Y-75517268D02*
X168472295Y-75517268D01*
X168472295Y-75517268D02*
X168586580Y-75593459D01*
X168586580Y-75593459D02*
X168662771Y-75669649D01*
X168662771Y-75669649D02*
X168700866Y-75745840D01*
X168472295Y-74564887D02*
X168472295Y-74945839D01*
X168472295Y-74945839D02*
X168853247Y-74983935D01*
X168853247Y-74983935D02*
X168815152Y-74945839D01*
X168815152Y-74945839D02*
X168777057Y-74869649D01*
X168777057Y-74869649D02*
X168777057Y-74679173D01*
X168777057Y-74679173D02*
X168815152Y-74602982D01*
X168815152Y-74602982D02*
X168853247Y-74564887D01*
X168853247Y-74564887D02*
X168929438Y-74526792D01*
X168929438Y-74526792D02*
X169119914Y-74526792D01*
X169119914Y-74526792D02*
X169196104Y-74564887D01*
X169196104Y-74564887D02*
X169234200Y-74602982D01*
X169234200Y-74602982D02*
X169272295Y-74679173D01*
X169272295Y-74679173D02*
X169272295Y-74869649D01*
X169272295Y-74869649D02*
X169234200Y-74945839D01*
X169234200Y-74945839D02*
X169196104Y-74983935D01*
X171012295Y-76622030D02*
X171012295Y-76126792D01*
X171012295Y-76126792D02*
X171317057Y-76393458D01*
X171317057Y-76393458D02*
X171317057Y-76279173D01*
X171317057Y-76279173D02*
X171355152Y-76202982D01*
X171355152Y-76202982D02*
X171393247Y-76164887D01*
X171393247Y-76164887D02*
X171469438Y-76126792D01*
X171469438Y-76126792D02*
X171659914Y-76126792D01*
X171659914Y-76126792D02*
X171736104Y-76164887D01*
X171736104Y-76164887D02*
X171774200Y-76202982D01*
X171774200Y-76202982D02*
X171812295Y-76279173D01*
X171812295Y-76279173D02*
X171812295Y-76507744D01*
X171812295Y-76507744D02*
X171774200Y-76583935D01*
X171774200Y-76583935D02*
X171736104Y-76622030D01*
X171736104Y-75783934D02*
X171774200Y-75745839D01*
X171774200Y-75745839D02*
X171812295Y-75783934D01*
X171812295Y-75783934D02*
X171774200Y-75822030D01*
X171774200Y-75822030D02*
X171736104Y-75783934D01*
X171736104Y-75783934D02*
X171812295Y-75783934D01*
X171012295Y-75479173D02*
X171012295Y-74983935D01*
X171012295Y-74983935D02*
X171317057Y-75250601D01*
X171317057Y-75250601D02*
X171317057Y-75136316D01*
X171317057Y-75136316D02*
X171355152Y-75060125D01*
X171355152Y-75060125D02*
X171393247Y-75022030D01*
X171393247Y-75022030D02*
X171469438Y-74983935D01*
X171469438Y-74983935D02*
X171659914Y-74983935D01*
X171659914Y-74983935D02*
X171736104Y-75022030D01*
X171736104Y-75022030D02*
X171774200Y-75060125D01*
X171774200Y-75060125D02*
X171812295Y-75136316D01*
X171812295Y-75136316D02*
X171812295Y-75364887D01*
X171812295Y-75364887D02*
X171774200Y-75441078D01*
X171774200Y-75441078D02*
X171736104Y-75479173D01*
X171012295Y-74755363D02*
X171812295Y-74488696D01*
X171812295Y-74488696D02*
X171012295Y-74222030D01*
X154032295Y-114645839D02*
X153232295Y-114645839D01*
X153232295Y-114645839D02*
X153232295Y-114341077D01*
X153232295Y-114341077D02*
X153270390Y-114264887D01*
X153270390Y-114264887D02*
X153308485Y-114226792D01*
X153308485Y-114226792D02*
X153384676Y-114188696D01*
X153384676Y-114188696D02*
X153498961Y-114188696D01*
X153498961Y-114188696D02*
X153575152Y-114226792D01*
X153575152Y-114226792D02*
X153613247Y-114264887D01*
X153613247Y-114264887D02*
X153651342Y-114341077D01*
X153651342Y-114341077D02*
X153651342Y-114645839D01*
X153613247Y-113579173D02*
X153651342Y-113464887D01*
X153651342Y-113464887D02*
X153689438Y-113426792D01*
X153689438Y-113426792D02*
X153765628Y-113388696D01*
X153765628Y-113388696D02*
X153879914Y-113388696D01*
X153879914Y-113388696D02*
X153956104Y-113426792D01*
X153956104Y-113426792D02*
X153994200Y-113464887D01*
X153994200Y-113464887D02*
X154032295Y-113541077D01*
X154032295Y-113541077D02*
X154032295Y-113845839D01*
X154032295Y-113845839D02*
X153232295Y-113845839D01*
X153232295Y-113845839D02*
X153232295Y-113579173D01*
X153232295Y-113579173D02*
X153270390Y-113502982D01*
X153270390Y-113502982D02*
X153308485Y-113464887D01*
X153308485Y-113464887D02*
X153384676Y-113426792D01*
X153384676Y-113426792D02*
X153460866Y-113426792D01*
X153460866Y-113426792D02*
X153537057Y-113464887D01*
X153537057Y-113464887D02*
X153575152Y-113502982D01*
X153575152Y-113502982D02*
X153613247Y-113579173D01*
X153613247Y-113579173D02*
X153613247Y-113845839D01*
X154032295Y-112626792D02*
X154032295Y-113083935D01*
X154032295Y-112855363D02*
X153232295Y-112855363D01*
X153232295Y-112855363D02*
X153346580Y-112931554D01*
X153346580Y-112931554D02*
X153422771Y-113007744D01*
X153422771Y-113007744D02*
X153460866Y-113083935D01*
X154032295Y-111864887D02*
X154032295Y-112322030D01*
X154032295Y-112093458D02*
X153232295Y-112093458D01*
X153232295Y-112093458D02*
X153346580Y-112169649D01*
X153346580Y-112169649D02*
X153422771Y-112245839D01*
X153422771Y-112245839D02*
X153460866Y-112322030D01*
X165932295Y-85455112D02*
X166579914Y-85455112D01*
X166579914Y-85455112D02*
X166656104Y-85417017D01*
X166656104Y-85417017D02*
X166694200Y-85378922D01*
X166694200Y-85378922D02*
X166732295Y-85302731D01*
X166732295Y-85302731D02*
X166732295Y-85150350D01*
X166732295Y-85150350D02*
X166694200Y-85074160D01*
X166694200Y-85074160D02*
X166656104Y-85036065D01*
X166656104Y-85036065D02*
X166579914Y-84997969D01*
X166579914Y-84997969D02*
X165932295Y-84997969D01*
X166732295Y-84197970D02*
X166732295Y-84655113D01*
X166732295Y-84426541D02*
X165932295Y-84426541D01*
X165932295Y-84426541D02*
X166046580Y-84502732D01*
X166046580Y-84502732D02*
X166122771Y-84578922D01*
X166122771Y-84578922D02*
X166160866Y-84655113D01*
X166198961Y-83512255D02*
X166732295Y-83512255D01*
X165894200Y-83702731D02*
X166465628Y-83893208D01*
X166465628Y-83893208D02*
X166465628Y-83397969D01*
X159112295Y-86102731D02*
X158312295Y-86102731D01*
X158312295Y-86102731D02*
X158312295Y-85797969D01*
X158312295Y-85797969D02*
X158350390Y-85721779D01*
X158350390Y-85721779D02*
X158388485Y-85683684D01*
X158388485Y-85683684D02*
X158464676Y-85645588D01*
X158464676Y-85645588D02*
X158578961Y-85645588D01*
X158578961Y-85645588D02*
X158655152Y-85683684D01*
X158655152Y-85683684D02*
X158693247Y-85721779D01*
X158693247Y-85721779D02*
X158731342Y-85797969D01*
X158731342Y-85797969D02*
X158731342Y-86102731D01*
X158883723Y-85340827D02*
X158883723Y-84959874D01*
X159112295Y-85417017D02*
X158312295Y-85150350D01*
X158312295Y-85150350D02*
X159112295Y-84883684D01*
X159112295Y-84197970D02*
X159112295Y-84655113D01*
X159112295Y-84426541D02*
X158312295Y-84426541D01*
X158312295Y-84426541D02*
X158426580Y-84502732D01*
X158426580Y-84502732D02*
X158502771Y-84578922D01*
X158502771Y-84578922D02*
X158540866Y-84655113D01*
X158312295Y-83931303D02*
X158312295Y-83436065D01*
X158312295Y-83436065D02*
X158617057Y-83702731D01*
X158617057Y-83702731D02*
X158617057Y-83588446D01*
X158617057Y-83588446D02*
X158655152Y-83512255D01*
X158655152Y-83512255D02*
X158693247Y-83474160D01*
X158693247Y-83474160D02*
X158769438Y-83436065D01*
X158769438Y-83436065D02*
X158959914Y-83436065D01*
X158959914Y-83436065D02*
X159036104Y-83474160D01*
X159036104Y-83474160D02*
X159074200Y-83512255D01*
X159074200Y-83512255D02*
X159112295Y-83588446D01*
X159112295Y-83588446D02*
X159112295Y-83817017D01*
X159112295Y-83817017D02*
X159074200Y-83893208D01*
X159074200Y-83893208D02*
X159036104Y-83931303D01*
X150692295Y-114645839D02*
X151339914Y-114645839D01*
X151339914Y-114645839D02*
X151416104Y-114607744D01*
X151416104Y-114607744D02*
X151454200Y-114569649D01*
X151454200Y-114569649D02*
X151492295Y-114493458D01*
X151492295Y-114493458D02*
X151492295Y-114341077D01*
X151492295Y-114341077D02*
X151454200Y-114264887D01*
X151454200Y-114264887D02*
X151416104Y-114226792D01*
X151416104Y-114226792D02*
X151339914Y-114188696D01*
X151339914Y-114188696D02*
X150692295Y-114188696D01*
X150692295Y-113655363D02*
X150692295Y-113579173D01*
X150692295Y-113579173D02*
X150730390Y-113502982D01*
X150730390Y-113502982D02*
X150768485Y-113464887D01*
X150768485Y-113464887D02*
X150844676Y-113426792D01*
X150844676Y-113426792D02*
X150997057Y-113388697D01*
X150997057Y-113388697D02*
X151187533Y-113388697D01*
X151187533Y-113388697D02*
X151339914Y-113426792D01*
X151339914Y-113426792D02*
X151416104Y-113464887D01*
X151416104Y-113464887D02*
X151454200Y-113502982D01*
X151454200Y-113502982D02*
X151492295Y-113579173D01*
X151492295Y-113579173D02*
X151492295Y-113655363D01*
X151492295Y-113655363D02*
X151454200Y-113731554D01*
X151454200Y-113731554D02*
X151416104Y-113769649D01*
X151416104Y-113769649D02*
X151339914Y-113807744D01*
X151339914Y-113807744D02*
X151187533Y-113845840D01*
X151187533Y-113845840D02*
X150997057Y-113845840D01*
X150997057Y-113845840D02*
X150844676Y-113807744D01*
X150844676Y-113807744D02*
X150768485Y-113769649D01*
X150768485Y-113769649D02*
X150730390Y-113731554D01*
X150730390Y-113731554D02*
X150692295Y-113655363D01*
X128213247Y-123326541D02*
X128251342Y-123212255D01*
X128251342Y-123212255D02*
X128289438Y-123174160D01*
X128289438Y-123174160D02*
X128365628Y-123136064D01*
X128365628Y-123136064D02*
X128479914Y-123136064D01*
X128479914Y-123136064D02*
X128556104Y-123174160D01*
X128556104Y-123174160D02*
X128594200Y-123212255D01*
X128594200Y-123212255D02*
X128632295Y-123288445D01*
X128632295Y-123288445D02*
X128632295Y-123593207D01*
X128632295Y-123593207D02*
X127832295Y-123593207D01*
X127832295Y-123593207D02*
X127832295Y-123326541D01*
X127832295Y-123326541D02*
X127870390Y-123250350D01*
X127870390Y-123250350D02*
X127908485Y-123212255D01*
X127908485Y-123212255D02*
X127984676Y-123174160D01*
X127984676Y-123174160D02*
X128060866Y-123174160D01*
X128060866Y-123174160D02*
X128137057Y-123212255D01*
X128137057Y-123212255D02*
X128175152Y-123250350D01*
X128175152Y-123250350D02*
X128213247Y-123326541D01*
X128213247Y-123326541D02*
X128213247Y-123593207D01*
X127832295Y-122640826D02*
X127832295Y-122488445D01*
X127832295Y-122488445D02*
X127870390Y-122412255D01*
X127870390Y-122412255D02*
X127946580Y-122336064D01*
X127946580Y-122336064D02*
X128098961Y-122297969D01*
X128098961Y-122297969D02*
X128365628Y-122297969D01*
X128365628Y-122297969D02*
X128518009Y-122336064D01*
X128518009Y-122336064D02*
X128594200Y-122412255D01*
X128594200Y-122412255D02*
X128632295Y-122488445D01*
X128632295Y-122488445D02*
X128632295Y-122640826D01*
X128632295Y-122640826D02*
X128594200Y-122717017D01*
X128594200Y-122717017D02*
X128518009Y-122793207D01*
X128518009Y-122793207D02*
X128365628Y-122831303D01*
X128365628Y-122831303D02*
X128098961Y-122831303D01*
X128098961Y-122831303D02*
X127946580Y-122793207D01*
X127946580Y-122793207D02*
X127870390Y-122717017D01*
X127870390Y-122717017D02*
X127832295Y-122640826D01*
X127832295Y-121802731D02*
X127832295Y-121726541D01*
X127832295Y-121726541D02*
X127870390Y-121650350D01*
X127870390Y-121650350D02*
X127908485Y-121612255D01*
X127908485Y-121612255D02*
X127984676Y-121574160D01*
X127984676Y-121574160D02*
X128137057Y-121536065D01*
X128137057Y-121536065D02*
X128327533Y-121536065D01*
X128327533Y-121536065D02*
X128479914Y-121574160D01*
X128479914Y-121574160D02*
X128556104Y-121612255D01*
X128556104Y-121612255D02*
X128594200Y-121650350D01*
X128594200Y-121650350D02*
X128632295Y-121726541D01*
X128632295Y-121726541D02*
X128632295Y-121802731D01*
X128632295Y-121802731D02*
X128594200Y-121878922D01*
X128594200Y-121878922D02*
X128556104Y-121917017D01*
X128556104Y-121917017D02*
X128479914Y-121955112D01*
X128479914Y-121955112D02*
X128327533Y-121993208D01*
X128327533Y-121993208D02*
X128137057Y-121993208D01*
X128137057Y-121993208D02*
X127984676Y-121955112D01*
X127984676Y-121955112D02*
X127908485Y-121917017D01*
X127908485Y-121917017D02*
X127870390Y-121878922D01*
X127870390Y-121878922D02*
X127832295Y-121802731D01*
X133712295Y-86217017D02*
X132912295Y-86217017D01*
X132912295Y-86217017D02*
X132912295Y-85912255D01*
X132912295Y-85912255D02*
X132950390Y-85836065D01*
X132950390Y-85836065D02*
X132988485Y-85797970D01*
X132988485Y-85797970D02*
X133064676Y-85759874D01*
X133064676Y-85759874D02*
X133178961Y-85759874D01*
X133178961Y-85759874D02*
X133255152Y-85797970D01*
X133255152Y-85797970D02*
X133293247Y-85836065D01*
X133293247Y-85836065D02*
X133331342Y-85912255D01*
X133331342Y-85912255D02*
X133331342Y-86217017D01*
X133636104Y-84959874D02*
X133674200Y-84997970D01*
X133674200Y-84997970D02*
X133712295Y-85112255D01*
X133712295Y-85112255D02*
X133712295Y-85188446D01*
X133712295Y-85188446D02*
X133674200Y-85302732D01*
X133674200Y-85302732D02*
X133598009Y-85378922D01*
X133598009Y-85378922D02*
X133521819Y-85417017D01*
X133521819Y-85417017D02*
X133369438Y-85455113D01*
X133369438Y-85455113D02*
X133255152Y-85455113D01*
X133255152Y-85455113D02*
X133102771Y-85417017D01*
X133102771Y-85417017D02*
X133026580Y-85378922D01*
X133026580Y-85378922D02*
X132950390Y-85302732D01*
X132950390Y-85302732D02*
X132912295Y-85188446D01*
X132912295Y-85188446D02*
X132912295Y-85112255D01*
X132912295Y-85112255D02*
X132950390Y-84997970D01*
X132950390Y-84997970D02*
X132988485Y-84959874D01*
X133712295Y-84197970D02*
X133712295Y-84655113D01*
X133712295Y-84426541D02*
X132912295Y-84426541D01*
X132912295Y-84426541D02*
X133026580Y-84502732D01*
X133026580Y-84502732D02*
X133102771Y-84578922D01*
X133102771Y-84578922D02*
X133140866Y-84655113D01*
X132912295Y-83931303D02*
X132912295Y-83436065D01*
X132912295Y-83436065D02*
X133217057Y-83702731D01*
X133217057Y-83702731D02*
X133217057Y-83588446D01*
X133217057Y-83588446D02*
X133255152Y-83512255D01*
X133255152Y-83512255D02*
X133293247Y-83474160D01*
X133293247Y-83474160D02*
X133369438Y-83436065D01*
X133369438Y-83436065D02*
X133559914Y-83436065D01*
X133559914Y-83436065D02*
X133636104Y-83474160D01*
X133636104Y-83474160D02*
X133674200Y-83512255D01*
X133674200Y-83512255D02*
X133712295Y-83588446D01*
X133712295Y-83588446D02*
X133712295Y-83817017D01*
X133712295Y-83817017D02*
X133674200Y-83893208D01*
X133674200Y-83893208D02*
X133636104Y-83931303D01*
X172553333Y-108404819D02*
X172220000Y-107928628D01*
X171981905Y-108404819D02*
X171981905Y-107404819D01*
X171981905Y-107404819D02*
X172362857Y-107404819D01*
X172362857Y-107404819D02*
X172458095Y-107452438D01*
X172458095Y-107452438D02*
X172505714Y-107500057D01*
X172505714Y-107500057D02*
X172553333Y-107595295D01*
X172553333Y-107595295D02*
X172553333Y-107738152D01*
X172553333Y-107738152D02*
X172505714Y-107833390D01*
X172505714Y-107833390D02*
X172458095Y-107881009D01*
X172458095Y-107881009D02*
X172362857Y-107928628D01*
X172362857Y-107928628D02*
X171981905Y-107928628D01*
X172934286Y-107500057D02*
X172981905Y-107452438D01*
X172981905Y-107452438D02*
X173077143Y-107404819D01*
X173077143Y-107404819D02*
X173315238Y-107404819D01*
X173315238Y-107404819D02*
X173410476Y-107452438D01*
X173410476Y-107452438D02*
X173458095Y-107500057D01*
X173458095Y-107500057D02*
X173505714Y-107595295D01*
X173505714Y-107595295D02*
X173505714Y-107690533D01*
X173505714Y-107690533D02*
X173458095Y-107833390D01*
X173458095Y-107833390D02*
X172886667Y-108404819D01*
X172886667Y-108404819D02*
X173505714Y-108404819D01*
X178524819Y-107648333D02*
X179239104Y-107648333D01*
X179239104Y-107648333D02*
X179381961Y-107695952D01*
X179381961Y-107695952D02*
X179477200Y-107791190D01*
X179477200Y-107791190D02*
X179524819Y-107934047D01*
X179524819Y-107934047D02*
X179524819Y-108029285D01*
X178524819Y-106695952D02*
X178524819Y-107172142D01*
X178524819Y-107172142D02*
X179001009Y-107219761D01*
X179001009Y-107219761D02*
X178953390Y-107172142D01*
X178953390Y-107172142D02*
X178905771Y-107076904D01*
X178905771Y-107076904D02*
X178905771Y-106838809D01*
X178905771Y-106838809D02*
X178953390Y-106743571D01*
X178953390Y-106743571D02*
X179001009Y-106695952D01*
X179001009Y-106695952D02*
X179096247Y-106648333D01*
X179096247Y-106648333D02*
X179334342Y-106648333D01*
X179334342Y-106648333D02*
X179429580Y-106695952D01*
X179429580Y-106695952D02*
X179477200Y-106743571D01*
X179477200Y-106743571D02*
X179524819Y-106838809D01*
X179524819Y-106838809D02*
X179524819Y-107076904D01*
X179524819Y-107076904D02*
X179477200Y-107172142D01*
X179477200Y-107172142D02*
X179429580Y-107219761D01*
X172553333Y-94434819D02*
X172220000Y-93958628D01*
X171981905Y-94434819D02*
X171981905Y-93434819D01*
X171981905Y-93434819D02*
X172362857Y-93434819D01*
X172362857Y-93434819D02*
X172458095Y-93482438D01*
X172458095Y-93482438D02*
X172505714Y-93530057D01*
X172505714Y-93530057D02*
X172553333Y-93625295D01*
X172553333Y-93625295D02*
X172553333Y-93768152D01*
X172553333Y-93768152D02*
X172505714Y-93863390D01*
X172505714Y-93863390D02*
X172458095Y-93911009D01*
X172458095Y-93911009D02*
X172362857Y-93958628D01*
X172362857Y-93958628D02*
X171981905Y-93958628D01*
X173505714Y-94434819D02*
X172934286Y-94434819D01*
X173220000Y-94434819D02*
X173220000Y-93434819D01*
X173220000Y-93434819D02*
X173124762Y-93577676D01*
X173124762Y-93577676D02*
X173029524Y-93672914D01*
X173029524Y-93672914D02*
X172934286Y-93720533D01*
X159584580Y-91606666D02*
X159632200Y-91654285D01*
X159632200Y-91654285D02*
X159679819Y-91797142D01*
X159679819Y-91797142D02*
X159679819Y-91892380D01*
X159679819Y-91892380D02*
X159632200Y-92035237D01*
X159632200Y-92035237D02*
X159536961Y-92130475D01*
X159536961Y-92130475D02*
X159441723Y-92178094D01*
X159441723Y-92178094D02*
X159251247Y-92225713D01*
X159251247Y-92225713D02*
X159108390Y-92225713D01*
X159108390Y-92225713D02*
X158917914Y-92178094D01*
X158917914Y-92178094D02*
X158822676Y-92130475D01*
X158822676Y-92130475D02*
X158727438Y-92035237D01*
X158727438Y-92035237D02*
X158679819Y-91892380D01*
X158679819Y-91892380D02*
X158679819Y-91797142D01*
X158679819Y-91797142D02*
X158727438Y-91654285D01*
X158727438Y-91654285D02*
X158775057Y-91606666D01*
X159679819Y-90654285D02*
X159679819Y-91225713D01*
X159679819Y-90939999D02*
X158679819Y-90939999D01*
X158679819Y-90939999D02*
X158822676Y-91035237D01*
X158822676Y-91035237D02*
X158917914Y-91130475D01*
X158917914Y-91130475D02*
X158965533Y-91225713D01*
X144581666Y-107934819D02*
X144581666Y-108649104D01*
X144581666Y-108649104D02*
X144534047Y-108791961D01*
X144534047Y-108791961D02*
X144438809Y-108887200D01*
X144438809Y-108887200D02*
X144295952Y-108934819D01*
X144295952Y-108934819D02*
X144200714Y-108934819D01*
X145057857Y-108934819D02*
X145057857Y-107934819D01*
X145057857Y-107934819D02*
X145438809Y-107934819D01*
X145438809Y-107934819D02*
X145534047Y-107982438D01*
X145534047Y-107982438D02*
X145581666Y-108030057D01*
X145581666Y-108030057D02*
X145629285Y-108125295D01*
X145629285Y-108125295D02*
X145629285Y-108268152D01*
X145629285Y-108268152D02*
X145581666Y-108363390D01*
X145581666Y-108363390D02*
X145534047Y-108411009D01*
X145534047Y-108411009D02*
X145438809Y-108458628D01*
X145438809Y-108458628D02*
X145057857Y-108458628D01*
X145962619Y-107934819D02*
X146629285Y-107934819D01*
X146629285Y-107934819D02*
X146200714Y-108934819D01*
X164973095Y-101464819D02*
X164973095Y-102274342D01*
X164973095Y-102274342D02*
X165020714Y-102369580D01*
X165020714Y-102369580D02*
X165068333Y-102417200D01*
X165068333Y-102417200D02*
X165163571Y-102464819D01*
X165163571Y-102464819D02*
X165354047Y-102464819D01*
X165354047Y-102464819D02*
X165449285Y-102417200D01*
X165449285Y-102417200D02*
X165496904Y-102369580D01*
X165496904Y-102369580D02*
X165544523Y-102274342D01*
X165544523Y-102274342D02*
X165544523Y-101464819D01*
X165973095Y-101560057D02*
X166020714Y-101512438D01*
X166020714Y-101512438D02*
X166115952Y-101464819D01*
X166115952Y-101464819D02*
X166354047Y-101464819D01*
X166354047Y-101464819D02*
X166449285Y-101512438D01*
X166449285Y-101512438D02*
X166496904Y-101560057D01*
X166496904Y-101560057D02*
X166544523Y-101655295D01*
X166544523Y-101655295D02*
X166544523Y-101750533D01*
X166544523Y-101750533D02*
X166496904Y-101893390D01*
X166496904Y-101893390D02*
X165925476Y-102464819D01*
X165925476Y-102464819D02*
X166544523Y-102464819D01*
X164973095Y-87494819D02*
X164973095Y-88304342D01*
X164973095Y-88304342D02*
X165020714Y-88399580D01*
X165020714Y-88399580D02*
X165068333Y-88447200D01*
X165068333Y-88447200D02*
X165163571Y-88494819D01*
X165163571Y-88494819D02*
X165354047Y-88494819D01*
X165354047Y-88494819D02*
X165449285Y-88447200D01*
X165449285Y-88447200D02*
X165496904Y-88399580D01*
X165496904Y-88399580D02*
X165544523Y-88304342D01*
X165544523Y-88304342D02*
X165544523Y-87494819D01*
X166544523Y-88494819D02*
X165973095Y-88494819D01*
X166258809Y-88494819D02*
X166258809Y-87494819D01*
X166258809Y-87494819D02*
X166163571Y-87637676D01*
X166163571Y-87637676D02*
X166068333Y-87732914D01*
X166068333Y-87732914D02*
X165973095Y-87780533D01*
X149026666Y-101689819D02*
X149026666Y-102404104D01*
X149026666Y-102404104D02*
X148979047Y-102546961D01*
X148979047Y-102546961D02*
X148883809Y-102642200D01*
X148883809Y-102642200D02*
X148740952Y-102689819D01*
X148740952Y-102689819D02*
X148645714Y-102689819D01*
X149502857Y-102689819D02*
X149502857Y-101689819D01*
X149502857Y-101689819D02*
X149883809Y-101689819D01*
X149883809Y-101689819D02*
X149979047Y-101737438D01*
X149979047Y-101737438D02*
X150026666Y-101785057D01*
X150026666Y-101785057D02*
X150074285Y-101880295D01*
X150074285Y-101880295D02*
X150074285Y-102023152D01*
X150074285Y-102023152D02*
X150026666Y-102118390D01*
X150026666Y-102118390D02*
X149979047Y-102166009D01*
X149979047Y-102166009D02*
X149883809Y-102213628D01*
X149883809Y-102213628D02*
X149502857Y-102213628D01*
X150645714Y-102118390D02*
X150550476Y-102070771D01*
X150550476Y-102070771D02*
X150502857Y-102023152D01*
X150502857Y-102023152D02*
X150455238Y-101927914D01*
X150455238Y-101927914D02*
X150455238Y-101880295D01*
X150455238Y-101880295D02*
X150502857Y-101785057D01*
X150502857Y-101785057D02*
X150550476Y-101737438D01*
X150550476Y-101737438D02*
X150645714Y-101689819D01*
X150645714Y-101689819D02*
X150836190Y-101689819D01*
X150836190Y-101689819D02*
X150931428Y-101737438D01*
X150931428Y-101737438D02*
X150979047Y-101785057D01*
X150979047Y-101785057D02*
X151026666Y-101880295D01*
X151026666Y-101880295D02*
X151026666Y-101927914D01*
X151026666Y-101927914D02*
X150979047Y-102023152D01*
X150979047Y-102023152D02*
X150931428Y-102070771D01*
X150931428Y-102070771D02*
X150836190Y-102118390D01*
X150836190Y-102118390D02*
X150645714Y-102118390D01*
X150645714Y-102118390D02*
X150550476Y-102166009D01*
X150550476Y-102166009D02*
X150502857Y-102213628D01*
X150502857Y-102213628D02*
X150455238Y-102308866D01*
X150455238Y-102308866D02*
X150455238Y-102499342D01*
X150455238Y-102499342D02*
X150502857Y-102594580D01*
X150502857Y-102594580D02*
X150550476Y-102642200D01*
X150550476Y-102642200D02*
X150645714Y-102689819D01*
X150645714Y-102689819D02*
X150836190Y-102689819D01*
X150836190Y-102689819D02*
X150931428Y-102642200D01*
X150931428Y-102642200D02*
X150979047Y-102594580D01*
X150979047Y-102594580D02*
X151026666Y-102499342D01*
X151026666Y-102499342D02*
X151026666Y-102308866D01*
X151026666Y-102308866D02*
X150979047Y-102213628D01*
X150979047Y-102213628D02*
X150931428Y-102166009D01*
X150931428Y-102166009D02*
X150836190Y-102118390D01*
X171410476Y-101689819D02*
X171410476Y-102404104D01*
X171410476Y-102404104D02*
X171362857Y-102546961D01*
X171362857Y-102546961D02*
X171267619Y-102642200D01*
X171267619Y-102642200D02*
X171124762Y-102689819D01*
X171124762Y-102689819D02*
X171029524Y-102689819D01*
X171886667Y-102689819D02*
X171886667Y-101689819D01*
X171886667Y-101689819D02*
X172267619Y-101689819D01*
X172267619Y-101689819D02*
X172362857Y-101737438D01*
X172362857Y-101737438D02*
X172410476Y-101785057D01*
X172410476Y-101785057D02*
X172458095Y-101880295D01*
X172458095Y-101880295D02*
X172458095Y-102023152D01*
X172458095Y-102023152D02*
X172410476Y-102118390D01*
X172410476Y-102118390D02*
X172362857Y-102166009D01*
X172362857Y-102166009D02*
X172267619Y-102213628D01*
X172267619Y-102213628D02*
X171886667Y-102213628D01*
X173410476Y-102689819D02*
X172839048Y-102689819D01*
X173124762Y-102689819D02*
X173124762Y-101689819D01*
X173124762Y-101689819D02*
X173029524Y-101832676D01*
X173029524Y-101832676D02*
X172934286Y-101927914D01*
X172934286Y-101927914D02*
X172839048Y-101975533D01*
X174029524Y-101689819D02*
X174124762Y-101689819D01*
X174124762Y-101689819D02*
X174220000Y-101737438D01*
X174220000Y-101737438D02*
X174267619Y-101785057D01*
X174267619Y-101785057D02*
X174315238Y-101880295D01*
X174315238Y-101880295D02*
X174362857Y-102070771D01*
X174362857Y-102070771D02*
X174362857Y-102308866D01*
X174362857Y-102308866D02*
X174315238Y-102499342D01*
X174315238Y-102499342D02*
X174267619Y-102594580D01*
X174267619Y-102594580D02*
X174220000Y-102642200D01*
X174220000Y-102642200D02*
X174124762Y-102689819D01*
X174124762Y-102689819D02*
X174029524Y-102689819D01*
X174029524Y-102689819D02*
X173934286Y-102642200D01*
X173934286Y-102642200D02*
X173886667Y-102594580D01*
X173886667Y-102594580D02*
X173839048Y-102499342D01*
X173839048Y-102499342D02*
X173791429Y-102308866D01*
X173791429Y-102308866D02*
X173791429Y-102070771D01*
X173791429Y-102070771D02*
X173839048Y-101880295D01*
X173839048Y-101880295D02*
X173886667Y-101785057D01*
X173886667Y-101785057D02*
X173934286Y-101737438D01*
X173934286Y-101737438D02*
X174029524Y-101689819D01*
X149026666Y-93964819D02*
X149026666Y-94679104D01*
X149026666Y-94679104D02*
X148979047Y-94821961D01*
X148979047Y-94821961D02*
X148883809Y-94917200D01*
X148883809Y-94917200D02*
X148740952Y-94964819D01*
X148740952Y-94964819D02*
X148645714Y-94964819D01*
X149502857Y-94964819D02*
X149502857Y-93964819D01*
X149502857Y-93964819D02*
X149883809Y-93964819D01*
X149883809Y-93964819D02*
X149979047Y-94012438D01*
X149979047Y-94012438D02*
X150026666Y-94060057D01*
X150026666Y-94060057D02*
X150074285Y-94155295D01*
X150074285Y-94155295D02*
X150074285Y-94298152D01*
X150074285Y-94298152D02*
X150026666Y-94393390D01*
X150026666Y-94393390D02*
X149979047Y-94441009D01*
X149979047Y-94441009D02*
X149883809Y-94488628D01*
X149883809Y-94488628D02*
X149502857Y-94488628D01*
X150931428Y-94298152D02*
X150931428Y-94964819D01*
X150693333Y-93917200D02*
X150455238Y-94631485D01*
X150455238Y-94631485D02*
X151074285Y-94631485D01*
X144581666Y-93964819D02*
X144581666Y-94679104D01*
X144581666Y-94679104D02*
X144534047Y-94821961D01*
X144534047Y-94821961D02*
X144438809Y-94917200D01*
X144438809Y-94917200D02*
X144295952Y-94964819D01*
X144295952Y-94964819D02*
X144200714Y-94964819D01*
X145057857Y-94964819D02*
X145057857Y-93964819D01*
X145057857Y-93964819D02*
X145438809Y-93964819D01*
X145438809Y-93964819D02*
X145534047Y-94012438D01*
X145534047Y-94012438D02*
X145581666Y-94060057D01*
X145581666Y-94060057D02*
X145629285Y-94155295D01*
X145629285Y-94155295D02*
X145629285Y-94298152D01*
X145629285Y-94298152D02*
X145581666Y-94393390D01*
X145581666Y-94393390D02*
X145534047Y-94441009D01*
X145534047Y-94441009D02*
X145438809Y-94488628D01*
X145438809Y-94488628D02*
X145057857Y-94488628D01*
X145962619Y-93964819D02*
X146581666Y-93964819D01*
X146581666Y-93964819D02*
X146248333Y-94345771D01*
X146248333Y-94345771D02*
X146391190Y-94345771D01*
X146391190Y-94345771D02*
X146486428Y-94393390D01*
X146486428Y-94393390D02*
X146534047Y-94441009D01*
X146534047Y-94441009D02*
X146581666Y-94536247D01*
X146581666Y-94536247D02*
X146581666Y-94774342D01*
X146581666Y-94774342D02*
X146534047Y-94869580D01*
X146534047Y-94869580D02*
X146486428Y-94917200D01*
X146486428Y-94917200D02*
X146391190Y-94964819D01*
X146391190Y-94964819D02*
X146105476Y-94964819D01*
X146105476Y-94964819D02*
X146010238Y-94917200D01*
X146010238Y-94917200D02*
X145962619Y-94869580D01*
X178524819Y-91773333D02*
X179239104Y-91773333D01*
X179239104Y-91773333D02*
X179381961Y-91820952D01*
X179381961Y-91820952D02*
X179477200Y-91916190D01*
X179477200Y-91916190D02*
X179524819Y-92059047D01*
X179524819Y-92059047D02*
X179524819Y-92154285D01*
X178858152Y-90868571D02*
X179524819Y-90868571D01*
X178477200Y-91106666D02*
X179191485Y-91344761D01*
X179191485Y-91344761D02*
X179191485Y-90725714D01*
X171886666Y-87719819D02*
X171886666Y-88434104D01*
X171886666Y-88434104D02*
X171839047Y-88576961D01*
X171839047Y-88576961D02*
X171743809Y-88672200D01*
X171743809Y-88672200D02*
X171600952Y-88719819D01*
X171600952Y-88719819D02*
X171505714Y-88719819D01*
X172362857Y-88719819D02*
X172362857Y-87719819D01*
X172362857Y-87719819D02*
X172743809Y-87719819D01*
X172743809Y-87719819D02*
X172839047Y-87767438D01*
X172839047Y-87767438D02*
X172886666Y-87815057D01*
X172886666Y-87815057D02*
X172934285Y-87910295D01*
X172934285Y-87910295D02*
X172934285Y-88053152D01*
X172934285Y-88053152D02*
X172886666Y-88148390D01*
X172886666Y-88148390D02*
X172839047Y-88196009D01*
X172839047Y-88196009D02*
X172743809Y-88243628D01*
X172743809Y-88243628D02*
X172362857Y-88243628D01*
X173410476Y-88719819D02*
X173600952Y-88719819D01*
X173600952Y-88719819D02*
X173696190Y-88672200D01*
X173696190Y-88672200D02*
X173743809Y-88624580D01*
X173743809Y-88624580D02*
X173839047Y-88481723D01*
X173839047Y-88481723D02*
X173886666Y-88291247D01*
X173886666Y-88291247D02*
X173886666Y-87910295D01*
X173886666Y-87910295D02*
X173839047Y-87815057D01*
X173839047Y-87815057D02*
X173791428Y-87767438D01*
X173791428Y-87767438D02*
X173696190Y-87719819D01*
X173696190Y-87719819D02*
X173505714Y-87719819D01*
X173505714Y-87719819D02*
X173410476Y-87767438D01*
X173410476Y-87767438D02*
X173362857Y-87815057D01*
X173362857Y-87815057D02*
X173315238Y-87910295D01*
X173315238Y-87910295D02*
X173315238Y-88148390D01*
X173315238Y-88148390D02*
X173362857Y-88243628D01*
X173362857Y-88243628D02*
X173410476Y-88291247D01*
X173410476Y-88291247D02*
X173505714Y-88338866D01*
X173505714Y-88338866D02*
X173696190Y-88338866D01*
X173696190Y-88338866D02*
X173791428Y-88291247D01*
X173791428Y-88291247D02*
X173839047Y-88243628D01*
X173839047Y-88243628D02*
X173886666Y-88148390D01*
X159584580Y-105576666D02*
X159632200Y-105624285D01*
X159632200Y-105624285D02*
X159679819Y-105767142D01*
X159679819Y-105767142D02*
X159679819Y-105862380D01*
X159679819Y-105862380D02*
X159632200Y-106005237D01*
X159632200Y-106005237D02*
X159536961Y-106100475D01*
X159536961Y-106100475D02*
X159441723Y-106148094D01*
X159441723Y-106148094D02*
X159251247Y-106195713D01*
X159251247Y-106195713D02*
X159108390Y-106195713D01*
X159108390Y-106195713D02*
X158917914Y-106148094D01*
X158917914Y-106148094D02*
X158822676Y-106100475D01*
X158822676Y-106100475D02*
X158727438Y-106005237D01*
X158727438Y-106005237D02*
X158679819Y-105862380D01*
X158679819Y-105862380D02*
X158679819Y-105767142D01*
X158679819Y-105767142D02*
X158727438Y-105624285D01*
X158727438Y-105624285D02*
X158775057Y-105576666D01*
X158775057Y-105195713D02*
X158727438Y-105148094D01*
X158727438Y-105148094D02*
X158679819Y-105052856D01*
X158679819Y-105052856D02*
X158679819Y-104814761D01*
X158679819Y-104814761D02*
X158727438Y-104719523D01*
X158727438Y-104719523D02*
X158775057Y-104671904D01*
X158775057Y-104671904D02*
X158870295Y-104624285D01*
X158870295Y-104624285D02*
X158965533Y-104624285D01*
X158965533Y-104624285D02*
X159108390Y-104671904D01*
X159108390Y-104671904D02*
X159679819Y-105243332D01*
X159679819Y-105243332D02*
X159679819Y-104624285D01*
X149026666Y-107934819D02*
X149026666Y-108649104D01*
X149026666Y-108649104D02*
X148979047Y-108791961D01*
X148979047Y-108791961D02*
X148883809Y-108887200D01*
X148883809Y-108887200D02*
X148740952Y-108934819D01*
X148740952Y-108934819D02*
X148645714Y-108934819D01*
X149502857Y-108934819D02*
X149502857Y-107934819D01*
X149502857Y-107934819D02*
X149883809Y-107934819D01*
X149883809Y-107934819D02*
X149979047Y-107982438D01*
X149979047Y-107982438D02*
X150026666Y-108030057D01*
X150026666Y-108030057D02*
X150074285Y-108125295D01*
X150074285Y-108125295D02*
X150074285Y-108268152D01*
X150074285Y-108268152D02*
X150026666Y-108363390D01*
X150026666Y-108363390D02*
X149979047Y-108411009D01*
X149979047Y-108411009D02*
X149883809Y-108458628D01*
X149883809Y-108458628D02*
X149502857Y-108458628D01*
X150931428Y-107934819D02*
X150740952Y-107934819D01*
X150740952Y-107934819D02*
X150645714Y-107982438D01*
X150645714Y-107982438D02*
X150598095Y-108030057D01*
X150598095Y-108030057D02*
X150502857Y-108172914D01*
X150502857Y-108172914D02*
X150455238Y-108363390D01*
X150455238Y-108363390D02*
X150455238Y-108744342D01*
X150455238Y-108744342D02*
X150502857Y-108839580D01*
X150502857Y-108839580D02*
X150550476Y-108887200D01*
X150550476Y-108887200D02*
X150645714Y-108934819D01*
X150645714Y-108934819D02*
X150836190Y-108934819D01*
X150836190Y-108934819D02*
X150931428Y-108887200D01*
X150931428Y-108887200D02*
X150979047Y-108839580D01*
X150979047Y-108839580D02*
X151026666Y-108744342D01*
X151026666Y-108744342D02*
X151026666Y-108506247D01*
X151026666Y-108506247D02*
X150979047Y-108411009D01*
X150979047Y-108411009D02*
X150931428Y-108363390D01*
X150931428Y-108363390D02*
X150836190Y-108315771D01*
X150836190Y-108315771D02*
X150645714Y-108315771D01*
X150645714Y-108315771D02*
X150550476Y-108363390D01*
X150550476Y-108363390D02*
X150502857Y-108411009D01*
X150502857Y-108411009D02*
X150455238Y-108506247D01*
X149026666Y-87719819D02*
X149026666Y-88434104D01*
X149026666Y-88434104D02*
X148979047Y-88576961D01*
X148979047Y-88576961D02*
X148883809Y-88672200D01*
X148883809Y-88672200D02*
X148740952Y-88719819D01*
X148740952Y-88719819D02*
X148645714Y-88719819D01*
X149502857Y-88719819D02*
X149502857Y-87719819D01*
X149502857Y-87719819D02*
X149883809Y-87719819D01*
X149883809Y-87719819D02*
X149979047Y-87767438D01*
X149979047Y-87767438D02*
X150026666Y-87815057D01*
X150026666Y-87815057D02*
X150074285Y-87910295D01*
X150074285Y-87910295D02*
X150074285Y-88053152D01*
X150074285Y-88053152D02*
X150026666Y-88148390D01*
X150026666Y-88148390D02*
X149979047Y-88196009D01*
X149979047Y-88196009D02*
X149883809Y-88243628D01*
X149883809Y-88243628D02*
X149502857Y-88243628D01*
X150455238Y-87815057D02*
X150502857Y-87767438D01*
X150502857Y-87767438D02*
X150598095Y-87719819D01*
X150598095Y-87719819D02*
X150836190Y-87719819D01*
X150836190Y-87719819D02*
X150931428Y-87767438D01*
X150931428Y-87767438D02*
X150979047Y-87815057D01*
X150979047Y-87815057D02*
X151026666Y-87910295D01*
X151026666Y-87910295D02*
X151026666Y-88005533D01*
X151026666Y-88005533D02*
X150979047Y-88148390D01*
X150979047Y-88148390D02*
X150407619Y-88719819D01*
X150407619Y-88719819D02*
X151026666Y-88719819D01*
X144581666Y-101689819D02*
X144581666Y-102404104D01*
X144581666Y-102404104D02*
X144534047Y-102546961D01*
X144534047Y-102546961D02*
X144438809Y-102642200D01*
X144438809Y-102642200D02*
X144295952Y-102689819D01*
X144295952Y-102689819D02*
X144200714Y-102689819D01*
X145057857Y-102689819D02*
X145057857Y-101689819D01*
X145057857Y-101689819D02*
X145438809Y-101689819D01*
X145438809Y-101689819D02*
X145534047Y-101737438D01*
X145534047Y-101737438D02*
X145581666Y-101785057D01*
X145581666Y-101785057D02*
X145629285Y-101880295D01*
X145629285Y-101880295D02*
X145629285Y-102023152D01*
X145629285Y-102023152D02*
X145581666Y-102118390D01*
X145581666Y-102118390D02*
X145534047Y-102166009D01*
X145534047Y-102166009D02*
X145438809Y-102213628D01*
X145438809Y-102213628D02*
X145057857Y-102213628D01*
X146534047Y-101689819D02*
X146057857Y-101689819D01*
X146057857Y-101689819D02*
X146010238Y-102166009D01*
X146010238Y-102166009D02*
X146057857Y-102118390D01*
X146057857Y-102118390D02*
X146153095Y-102070771D01*
X146153095Y-102070771D02*
X146391190Y-102070771D01*
X146391190Y-102070771D02*
X146486428Y-102118390D01*
X146486428Y-102118390D02*
X146534047Y-102166009D01*
X146534047Y-102166009D02*
X146581666Y-102261247D01*
X146581666Y-102261247D02*
X146581666Y-102499342D01*
X146581666Y-102499342D02*
X146534047Y-102594580D01*
X146534047Y-102594580D02*
X146486428Y-102642200D01*
X146486428Y-102642200D02*
X146391190Y-102689819D01*
X146391190Y-102689819D02*
X146153095Y-102689819D01*
X146153095Y-102689819D02*
X146057857Y-102642200D01*
X146057857Y-102642200D02*
X146010238Y-102594580D01*
X144581666Y-87719819D02*
X144581666Y-88434104D01*
X144581666Y-88434104D02*
X144534047Y-88576961D01*
X144534047Y-88576961D02*
X144438809Y-88672200D01*
X144438809Y-88672200D02*
X144295952Y-88719819D01*
X144295952Y-88719819D02*
X144200714Y-88719819D01*
X145057857Y-88719819D02*
X145057857Y-87719819D01*
X145057857Y-87719819D02*
X145438809Y-87719819D01*
X145438809Y-87719819D02*
X145534047Y-87767438D01*
X145534047Y-87767438D02*
X145581666Y-87815057D01*
X145581666Y-87815057D02*
X145629285Y-87910295D01*
X145629285Y-87910295D02*
X145629285Y-88053152D01*
X145629285Y-88053152D02*
X145581666Y-88148390D01*
X145581666Y-88148390D02*
X145534047Y-88196009D01*
X145534047Y-88196009D02*
X145438809Y-88243628D01*
X145438809Y-88243628D02*
X145057857Y-88243628D01*
X146581666Y-88719819D02*
X146010238Y-88719819D01*
X146295952Y-88719819D02*
X146295952Y-87719819D01*
X146295952Y-87719819D02*
X146200714Y-87862676D01*
X146200714Y-87862676D02*
X146105476Y-87957914D01*
X146105476Y-87957914D02*
X146010238Y-88005533D01*
D11*
G04 #@! TO.C,R2*
X172482742Y-106157500D02*
X172957258Y-106157500D01*
X172482742Y-107202500D02*
X172957258Y-107202500D01*
G04 #@! TO.C,J5*
X186270000Y-112575000D02*
X186910000Y-112575000D01*
X186910000Y-112575000D02*
X186910000Y-112175000D01*
X177550000Y-112335000D02*
X186670000Y-112335000D01*
X177550000Y-112335000D02*
X177550000Y-102215000D01*
X185110000Y-112335000D02*
X185110000Y-102215000D01*
X186210000Y-112335000D02*
X186210000Y-102215000D01*
X186670000Y-112335000D02*
X186670000Y-102215000D01*
X182891000Y-111323000D02*
X182998000Y-111429000D01*
X183157000Y-111057000D02*
X183264000Y-111163000D01*
X179956000Y-108387000D02*
X180063000Y-108494000D01*
X180222000Y-108121000D02*
X180329000Y-108228000D01*
X182602000Y-106033000D02*
X182998000Y-106428000D01*
X182884000Y-105782000D02*
X183264000Y-106162000D01*
X179956000Y-103387000D02*
X180336000Y-103767000D01*
X180222000Y-103121000D02*
X180618000Y-103516000D01*
X177550000Y-102215000D02*
X186670000Y-102215000D01*
X183790000Y-109775000D02*
G75*
G03*
X183790000Y-109775000I-2180000J0D01*
G01*
X183790000Y-104775000D02*
G75*
G03*
X183790000Y-104775000I-2180000J0D01*
G01*
G04 #@! TO.C,R1*
X172482742Y-92187500D02*
X172957258Y-92187500D01*
X172482742Y-93232500D02*
X172957258Y-93232500D01*
G04 #@! TO.C,C1*
X160145000Y-91580580D02*
X160145000Y-91299420D01*
X161165000Y-91580580D02*
X161165000Y-91299420D01*
G04 #@! TO.C,JP7*
X146815000Y-107680000D02*
X144015000Y-107680000D01*
X146815000Y-105680000D02*
X146815000Y-107680000D01*
X144015000Y-107680000D02*
X144015000Y-105680000D01*
X144015000Y-105680000D02*
X146815000Y-105680000D01*
G04 #@! TO.C,J2*
X124400000Y-120710000D02*
X175320000Y-120710000D01*
X124400000Y-120710000D02*
X124400000Y-118110000D01*
X175320000Y-120710000D02*
X175320000Y-115510000D01*
X124400000Y-118110000D02*
X127000000Y-118110000D01*
X127000000Y-118110000D02*
X127000000Y-115510000D01*
X124400000Y-116840000D02*
X124400000Y-115510000D01*
X124400000Y-115510000D02*
X125730000Y-115510000D01*
X127000000Y-115510000D02*
X175320000Y-115510000D01*
G04 #@! TO.C,U2*
X165735000Y-102850000D02*
X162285000Y-102850000D01*
X165735000Y-102850000D02*
X167685000Y-102850000D01*
X165735000Y-107970000D02*
X163785000Y-107970000D01*
X165735000Y-107970000D02*
X167685000Y-107970000D01*
G04 #@! TO.C,U1*
X165735000Y-88880000D02*
X162285000Y-88880000D01*
X165735000Y-88880000D02*
X167685000Y-88880000D01*
X165735000Y-94000000D02*
X163785000Y-94000000D01*
X165735000Y-94000000D02*
X167685000Y-94000000D01*
G04 #@! TO.C,JP8*
X151260000Y-105140000D02*
X148460000Y-105140000D01*
X151260000Y-103140000D02*
X151260000Y-105140000D01*
X148460000Y-105140000D02*
X148460000Y-103140000D01*
X148460000Y-103140000D02*
X151260000Y-103140000D01*
G04 #@! TO.C,JP10*
X171320000Y-103140000D02*
X174120000Y-103140000D01*
X171320000Y-105140000D02*
X171320000Y-103140000D01*
X174120000Y-103140000D02*
X174120000Y-105140000D01*
X174120000Y-105140000D02*
X171320000Y-105140000D01*
G04 #@! TO.C,JP4*
X151260000Y-93710000D02*
X148460000Y-93710000D01*
X151260000Y-91710000D02*
X151260000Y-93710000D01*
X148460000Y-93710000D02*
X148460000Y-91710000D01*
X148460000Y-91710000D02*
X151260000Y-91710000D01*
G04 #@! TO.C,JP3*
X146815000Y-93710000D02*
X144015000Y-93710000D01*
X146815000Y-91710000D02*
X146815000Y-93710000D01*
X144015000Y-93710000D02*
X144015000Y-91710000D01*
X144015000Y-91710000D02*
X146815000Y-91710000D01*
G04 #@! TO.C,J3*
X175320000Y-77410000D02*
X124400000Y-77410000D01*
X175320000Y-77410000D02*
X175320000Y-80010000D01*
X124400000Y-77410000D02*
X124400000Y-82610000D01*
X175320000Y-80010000D02*
X172720000Y-80010000D01*
X172720000Y-80010000D02*
X172720000Y-82610000D01*
X175320000Y-81280000D02*
X175320000Y-82610000D01*
X175320000Y-82610000D02*
X173990000Y-82610000D01*
X172720000Y-82610000D02*
X124400000Y-82610000D01*
G04 #@! TO.C,J4*
X186405000Y-96740000D02*
X187045000Y-96740000D01*
X187045000Y-96740000D02*
X187045000Y-96340000D01*
X177685000Y-96500000D02*
X186805000Y-96500000D01*
X177685000Y-96500000D02*
X177685000Y-86380000D01*
X185245000Y-96500000D02*
X185245000Y-86380000D01*
X186345000Y-96500000D02*
X186345000Y-86380000D01*
X186805000Y-96500000D02*
X186805000Y-86380000D01*
X183026000Y-95488000D02*
X183133000Y-95594000D01*
X183292000Y-95222000D02*
X183399000Y-95328000D01*
X180091000Y-92552000D02*
X180198000Y-92659000D01*
X180357000Y-92286000D02*
X180464000Y-92393000D01*
X182737000Y-90198000D02*
X183133000Y-90593000D01*
X183019000Y-89947000D02*
X183399000Y-90327000D01*
X180091000Y-87552000D02*
X180471000Y-87932000D01*
X180357000Y-87286000D02*
X180753000Y-87681000D01*
X177685000Y-86380000D02*
X186805000Y-86380000D01*
X183925000Y-93940000D02*
G75*
G03*
X183925000Y-93940000I-2180000J0D01*
G01*
X183925000Y-88940000D02*
G75*
G03*
X183925000Y-88940000I-2180000J0D01*
G01*
G04 #@! TO.C,JP9*
X171320000Y-89170000D02*
X174120000Y-89170000D01*
X171320000Y-91170000D02*
X171320000Y-89170000D01*
X174120000Y-89170000D02*
X174120000Y-91170000D01*
X174120000Y-91170000D02*
X171320000Y-91170000D01*
G04 #@! TO.C,C2*
X160145000Y-105550580D02*
X160145000Y-105269420D01*
X161165000Y-105550580D02*
X161165000Y-105269420D01*
G04 #@! TO.C,JP6*
X151260000Y-107680000D02*
X148460000Y-107680000D01*
X151260000Y-105680000D02*
X151260000Y-107680000D01*
X148460000Y-107680000D02*
X148460000Y-105680000D01*
X148460000Y-105680000D02*
X151260000Y-105680000D01*
G04 #@! TO.C,JP2*
X151260000Y-91170000D02*
X148460000Y-91170000D01*
X151260000Y-89170000D02*
X151260000Y-91170000D01*
X148460000Y-91170000D02*
X148460000Y-89170000D01*
X148460000Y-89170000D02*
X151260000Y-89170000D01*
G04 #@! TO.C,JP5*
X146815000Y-105140000D02*
X144015000Y-105140000D01*
X146815000Y-103140000D02*
X146815000Y-105140000D01*
X144015000Y-105140000D02*
X144015000Y-103140000D01*
X144015000Y-103140000D02*
X146815000Y-103140000D01*
G04 #@! TO.C,JP1*
X146815000Y-91170000D02*
X144015000Y-91170000D01*
X146815000Y-89170000D02*
X146815000Y-91170000D01*
X144015000Y-91170000D02*
X144015000Y-89170000D01*
X144015000Y-89170000D02*
X146815000Y-89170000D01*
G04 #@! TD*
M02*
