M48
; DRILL file {KiCad 6.0.2+dfsg-1} date Sat 05 Mar 2022 11:59:19 +08
; FORMAT={-:-/ absolute / inch / decimal}
; #@! TF.CreationDate,2022-03-05T11:59:19+08:00
; #@! TF.GenerationSoftware,Kicad,Pcbnew,6.0.2+dfsg-1
; #@! TF.FileFunction,Plated,1,2,PTH
FMAT,2
INCH
; #@! TA.AperFunction,Plated,PTH,ViaDrill
T1C0.0138
; #@! TA.AperFunction,Plated,PTH,ComponentDrill
T2C0.0236
; #@! TA.AperFunction,Plated,PTH,ComponentDrill
T3C0.0394
%
G90
G05
T1
X4.8Y-3.6
X4.85Y-4.575
X5.4Y-3.65
X5.525Y-4.25
X5.675Y-3.775
X5.675Y-3.85
X5.775Y-4.05
X5.8Y-4.2
X5.85Y-3.825
X5.9Y-3.6
X5.9Y-3.65
X5.95Y-3.95
X5.95Y-4.05
X6.05Y-3.95
X6.05Y-4.05
X6.15Y-3.825
X6.15Y-4.175
X6.15Y-4.5
X6.1969Y-3.5866
X6.2Y-3.45
X6.25Y-3.825
X6.25Y-4.175
X6.35Y-4.5
X6.375Y-3.925
X6.4Y-3.95
X6.425Y-3.975
X6.45Y-4.0
X6.475Y-4.025
X6.675Y-4.0
X6.8Y-4.12
X6.925Y-4.325
X6.925Y-4.4
X6.925Y-4.475
X6.9319Y-4.0131
X6.975Y-4.325
X6.975Y-4.4
X6.975Y-4.475
X7.025Y-4.325
X7.025Y-4.4
X7.025Y-4.475
X7.125Y-4.0
T3
X5.05Y-3.2
X5.05Y-3.3
X5.05Y-4.7
X5.05Y-4.8
X5.15Y-3.2
X5.15Y-3.3
X5.15Y-4.7
X5.15Y-4.8
X5.25Y-3.2
X5.25Y-3.3
X5.25Y-4.7
X5.25Y-4.8
X5.35Y-3.2
X5.35Y-3.3
X5.35Y-4.7
X5.35Y-4.8
X5.45Y-3.2
X5.45Y-3.3
X5.45Y-4.7
X5.45Y-4.8
X5.55Y-3.2
X5.55Y-3.3
X5.55Y-4.7
X5.55Y-4.8
X5.65Y-3.2
X5.65Y-3.3
X5.65Y-4.7
X5.65Y-4.8
X5.75Y-3.2
X5.75Y-3.3
X5.75Y-4.7
X5.75Y-4.8
X5.85Y-3.2
X5.85Y-3.3
X5.85Y-4.7
X5.85Y-4.8
X5.95Y-3.2
X5.95Y-3.3
X5.95Y-4.7
X5.95Y-4.8
X6.05Y-3.2
X6.05Y-3.3
X6.05Y-4.7
X6.05Y-4.8
X6.15Y-3.2
X6.15Y-3.3
X6.15Y-4.7
X6.15Y-4.8
X6.25Y-3.2
X6.25Y-3.3
X6.25Y-4.7
X6.25Y-4.8
X6.35Y-3.2
X6.35Y-3.3
X6.35Y-4.7
X6.35Y-4.8
X6.45Y-3.2
X6.45Y-3.3
X6.45Y-4.7
X6.45Y-4.8
X6.55Y-3.2
X6.55Y-3.3
X6.55Y-4.7
X6.55Y-4.8
X6.65Y-3.2
X6.65Y-3.3
X6.65Y-4.7
X6.65Y-4.8
X6.75Y-3.2
X6.75Y-3.3
X6.75Y-4.7
X6.75Y-4.8
X6.85Y-3.2
X6.85Y-3.3
X6.85Y-4.7
X6.85Y-4.8
X6.95Y-3.2
X6.95Y-3.3
X6.95Y-4.7
X6.95Y-4.8
T2
G00X7.2051Y-3.8299
M15
G01X7.2484Y-3.8299
M16
G05
G00X7.2051Y-4.1701
M15
G01X7.2484Y-4.1701
M16
G05
G00X7.3795Y-3.8299
M15
G01X7.4031Y-3.8299
M16
G05
G00X7.3795Y-4.1701
M15
G01X7.4031Y-4.1701
M16
G05
T0
M30
