G04 #@! TF.GenerationSoftware,KiCad,Pcbnew,6.0.7+dfsg-1+b1*
G04 #@! TF.CreationDate,2022-09-18T10:43:20+08:00*
G04 #@! TF.ProjectId,mcustm32f405,6d637573-746d-4333-9266-3430352e6b69,a*
G04 #@! TF.SameCoordinates,PX57cf3f8PY8841978*
G04 #@! TF.FileFunction,Legend,Bot*
G04 #@! TF.FilePolarity,Positive*
%FSLAX46Y46*%
G04 Gerber Fmt 4.6, Leading zero omitted, Abs format (unit mm)*
G04 Created by KiCad (PCBNEW 6.0.7+dfsg-1+b1) date 2022-09-18 10:43:20*
%MOMM*%
%LPD*%
G01*
G04 APERTURE LIST*
%ADD10C,0.150000*%
%ADD11C,0.120000*%
G04 APERTURE END LIST*
D10*
X50656904Y38647620D02*
X50323571Y37647620D01*
X49990238Y38647620D01*
X49656904Y37647620D02*
X49656904Y38647620D01*
X49418809Y38647620D01*
X49275952Y38600000D01*
X49180714Y38504762D01*
X49133095Y38409524D01*
X49085476Y38219048D01*
X49085476Y38076191D01*
X49133095Y37885715D01*
X49180714Y37790477D01*
X49275952Y37695239D01*
X49418809Y37647620D01*
X49656904Y37647620D01*
X48656904Y37647620D02*
X48656904Y38647620D01*
X48418809Y38647620D01*
X48275952Y38600000D01*
X48180714Y38504762D01*
X48133095Y38409524D01*
X48085476Y38219048D01*
X48085476Y38076191D01*
X48133095Y37885715D01*
X48180714Y37790477D01*
X48275952Y37695239D01*
X48418809Y37647620D01*
X48656904Y37647620D01*
X47704523Y37933334D02*
X47228333Y37933334D01*
X47799761Y37647620D02*
X47466428Y38647620D01*
X47133095Y37647620D01*
X50537857Y43727620D02*
X50204523Y42727620D01*
X49871190Y43727620D01*
X49204523Y43251429D02*
X49061666Y43203810D01*
X49014047Y43156191D01*
X48966428Y43060953D01*
X48966428Y42918096D01*
X49014047Y42822858D01*
X49061666Y42775239D01*
X49156904Y42727620D01*
X49537857Y42727620D01*
X49537857Y43727620D01*
X49204523Y43727620D01*
X49109285Y43680000D01*
X49061666Y43632381D01*
X49014047Y43537143D01*
X49014047Y43441905D01*
X49061666Y43346667D01*
X49109285Y43299048D01*
X49204523Y43251429D01*
X49537857Y43251429D01*
X48585476Y43013334D02*
X48109285Y43013334D01*
X48680714Y42727620D02*
X48347380Y43727620D01*
X48014047Y42727620D01*
X47823571Y43727620D02*
X47252142Y43727620D01*
X47537857Y42727620D02*
X47537857Y43727620D01*
G04 #@! TO.C,J4*
X54336904Y56862024D02*
X53536904Y56862024D01*
X53536904Y56557262D01*
X53575000Y56481072D01*
X53613095Y56442977D01*
X53689285Y56404881D01*
X53803571Y56404881D01*
X53879761Y56442977D01*
X53917857Y56481072D01*
X53955952Y56557262D01*
X53955952Y56862024D01*
X53917857Y55795358D02*
X53955952Y55681072D01*
X53994047Y55642977D01*
X54070238Y55604881D01*
X54184523Y55604881D01*
X54260714Y55642977D01*
X54298809Y55681072D01*
X54336904Y55757262D01*
X54336904Y56062024D01*
X53536904Y56062024D01*
X53536904Y55795358D01*
X53575000Y55719167D01*
X53613095Y55681072D01*
X53689285Y55642977D01*
X53765476Y55642977D01*
X53841666Y55681072D01*
X53879761Y55719167D01*
X53917857Y55795358D01*
X53917857Y56062024D01*
X53536904Y54881072D02*
X53536904Y55262024D01*
X53917857Y55300120D01*
X53879761Y55262024D01*
X53841666Y55185834D01*
X53841666Y54995358D01*
X53879761Y54919167D01*
X53917857Y54881072D01*
X53994047Y54842977D01*
X54184523Y54842977D01*
X54260714Y54881072D01*
X54298809Y54919167D01*
X54336904Y54995358D01*
X54336904Y55185834D01*
X54298809Y55262024D01*
X54260714Y55300120D01*
X74656904Y27668929D02*
X73856904Y27668929D01*
X73856904Y27364167D01*
X73895000Y27287977D01*
X73933095Y27249881D01*
X74009285Y27211786D01*
X74123571Y27211786D01*
X74199761Y27249881D01*
X74237857Y27287977D01*
X74275952Y27364167D01*
X74275952Y27668929D01*
X74580714Y26411786D02*
X74618809Y26449881D01*
X74656904Y26564167D01*
X74656904Y26640358D01*
X74618809Y26754643D01*
X74542619Y26830834D01*
X74466428Y26868929D01*
X74314047Y26907024D01*
X74199761Y26907024D01*
X74047380Y26868929D01*
X73971190Y26830834D01*
X73895000Y26754643D01*
X73856904Y26640358D01*
X73856904Y26564167D01*
X73895000Y26449881D01*
X73933095Y26411786D01*
X74656904Y26030834D02*
X74656904Y25878453D01*
X74618809Y25802262D01*
X74580714Y25764167D01*
X74466428Y25687977D01*
X74314047Y25649881D01*
X74009285Y25649881D01*
X73933095Y25687977D01*
X73895000Y25726072D01*
X73856904Y25802262D01*
X73856904Y25954643D01*
X73895000Y26030834D01*
X73933095Y26068929D01*
X74009285Y26107024D01*
X74199761Y26107024D01*
X74275952Y26068929D01*
X74314047Y26030834D01*
X74352142Y25954643D01*
X74352142Y25802262D01*
X74314047Y25726072D01*
X74275952Y25687977D01*
X74199761Y25649881D01*
X76396904Y26907024D02*
X77044523Y26907024D01*
X77120714Y26868929D01*
X77158809Y26830834D01*
X77196904Y26754643D01*
X77196904Y26602262D01*
X77158809Y26526072D01*
X77120714Y26487977D01*
X77044523Y26449881D01*
X76396904Y26449881D01*
X76473095Y26107024D02*
X76435000Y26068929D01*
X76396904Y25992739D01*
X76396904Y25802262D01*
X76435000Y25726072D01*
X76473095Y25687977D01*
X76549285Y25649881D01*
X76625476Y25649881D01*
X76739761Y25687977D01*
X77196904Y26145120D01*
X77196904Y25649881D01*
X51796904Y27554643D02*
X50996904Y27554643D01*
X50996904Y27249881D01*
X51035000Y27173691D01*
X51073095Y27135596D01*
X51149285Y27097500D01*
X51263571Y27097500D01*
X51339761Y27135596D01*
X51377857Y27173691D01*
X51415952Y27249881D01*
X51415952Y27554643D01*
X51568333Y26792739D02*
X51568333Y26411786D01*
X51796904Y26868929D02*
X50996904Y26602262D01*
X51796904Y26335596D01*
X50996904Y25687977D02*
X50996904Y26068929D01*
X51377857Y26107024D01*
X51339761Y26068929D01*
X51301666Y25992739D01*
X51301666Y25802262D01*
X51339761Y25726072D01*
X51377857Y25687977D01*
X51454047Y25649881D01*
X51644523Y25649881D01*
X51720714Y25687977D01*
X51758809Y25726072D01*
X51796904Y25802262D01*
X51796904Y25992739D01*
X51758809Y26068929D01*
X51720714Y26107024D01*
X56876904Y18762024D02*
X56076904Y18762024D01*
X56076904Y18457262D01*
X56115000Y18381072D01*
X56153095Y18342977D01*
X56229285Y18304881D01*
X56343571Y18304881D01*
X56419761Y18342977D01*
X56457857Y18381072D01*
X56495952Y18457262D01*
X56495952Y18762024D01*
X56800714Y17504881D02*
X56838809Y17542977D01*
X56876904Y17657262D01*
X56876904Y17733453D01*
X56838809Y17847739D01*
X56762619Y17923929D01*
X56686428Y17962024D01*
X56534047Y18000120D01*
X56419761Y18000120D01*
X56267380Y17962024D01*
X56191190Y17923929D01*
X56115000Y17847739D01*
X56076904Y17733453D01*
X56076904Y17657262D01*
X56115000Y17542977D01*
X56153095Y17504881D01*
X56343571Y16819167D02*
X56876904Y16819167D01*
X56038809Y17009643D02*
X56610238Y17200120D01*
X56610238Y16704881D01*
X38296904Y56862024D02*
X38944523Y56862024D01*
X39020714Y56823929D01*
X39058809Y56785834D01*
X39096904Y56709643D01*
X39096904Y56557262D01*
X39058809Y56481072D01*
X39020714Y56442977D01*
X38944523Y56404881D01*
X38296904Y56404881D01*
X38296904Y55681072D02*
X38296904Y55833453D01*
X38335000Y55909643D01*
X38373095Y55947739D01*
X38487380Y56023929D01*
X38639761Y56062024D01*
X38944523Y56062024D01*
X39020714Y56023929D01*
X39058809Y55985834D01*
X39096904Y55909643D01*
X39096904Y55757262D01*
X39058809Y55681072D01*
X39020714Y55642977D01*
X38944523Y55604881D01*
X38754047Y55604881D01*
X38677857Y55642977D01*
X38639761Y55681072D01*
X38601666Y55757262D01*
X38601666Y55909643D01*
X38639761Y55985834D01*
X38677857Y56023929D01*
X38754047Y56062024D01*
X72116904Y56862024D02*
X71316904Y56862024D01*
X71316904Y56557262D01*
X71355000Y56481072D01*
X71393095Y56442977D01*
X71469285Y56404881D01*
X71583571Y56404881D01*
X71659761Y56442977D01*
X71697857Y56481072D01*
X71735952Y56557262D01*
X71735952Y56862024D01*
X71888333Y56100120D02*
X71888333Y55719167D01*
X72116904Y56176310D02*
X71316904Y55909643D01*
X72116904Y55642977D01*
X72116904Y54957262D02*
X72116904Y55414405D01*
X72116904Y55185834D02*
X71316904Y55185834D01*
X71431190Y55262024D01*
X71507380Y55338215D01*
X71545476Y55414405D01*
X72116904Y54195358D02*
X72116904Y54652500D01*
X72116904Y54423929D02*
X71316904Y54423929D01*
X71431190Y54500120D01*
X71507380Y54576310D01*
X71545476Y54652500D01*
X35795000Y27326072D02*
X35756904Y27402262D01*
X35756904Y27516548D01*
X35795000Y27630834D01*
X35871190Y27707024D01*
X35947380Y27745120D01*
X36099761Y27783215D01*
X36214047Y27783215D01*
X36366428Y27745120D01*
X36442619Y27707024D01*
X36518809Y27630834D01*
X36556904Y27516548D01*
X36556904Y27440358D01*
X36518809Y27326072D01*
X36480714Y27287977D01*
X36214047Y27287977D01*
X36214047Y27440358D01*
X36556904Y26945120D02*
X35756904Y26945120D01*
X36556904Y26487977D01*
X35756904Y26487977D01*
X36556904Y26107024D02*
X35756904Y26107024D01*
X35756904Y25916548D01*
X35795000Y25802262D01*
X35871190Y25726072D01*
X35947380Y25687977D01*
X36099761Y25649881D01*
X36214047Y25649881D01*
X36366428Y25687977D01*
X36442619Y25726072D01*
X36518809Y25802262D01*
X36556904Y25916548D01*
X36556904Y26107024D01*
X44176904Y27668929D02*
X43376904Y27668929D01*
X43376904Y27364167D01*
X43415000Y27287977D01*
X43453095Y27249881D01*
X43529285Y27211786D01*
X43643571Y27211786D01*
X43719761Y27249881D01*
X43757857Y27287977D01*
X43795952Y27364167D01*
X43795952Y27668929D01*
X44100714Y26411786D02*
X44138809Y26449881D01*
X44176904Y26564167D01*
X44176904Y26640358D01*
X44138809Y26754643D01*
X44062619Y26830834D01*
X43986428Y26868929D01*
X43834047Y26907024D01*
X43719761Y26907024D01*
X43567380Y26868929D01*
X43491190Y26830834D01*
X43415000Y26754643D01*
X43376904Y26640358D01*
X43376904Y26564167D01*
X43415000Y26449881D01*
X43453095Y26411786D01*
X43376904Y26145120D02*
X43376904Y25649881D01*
X43681666Y25916548D01*
X43681666Y25802262D01*
X43719761Y25726072D01*
X43757857Y25687977D01*
X43834047Y25649881D01*
X44024523Y25649881D01*
X44100714Y25687977D01*
X44138809Y25726072D01*
X44176904Y25802262D01*
X44176904Y26030834D01*
X44138809Y26107024D01*
X44100714Y26145120D01*
X38296904Y65007024D02*
X38944523Y65007024D01*
X39020714Y64968929D01*
X39058809Y64930834D01*
X39096904Y64854643D01*
X39096904Y64702262D01*
X39058809Y64626072D01*
X39020714Y64587977D01*
X38944523Y64549881D01*
X38296904Y64549881D01*
X38296904Y63787977D02*
X38296904Y64168929D01*
X38677857Y64207024D01*
X38639761Y64168929D01*
X38601666Y64092739D01*
X38601666Y63902262D01*
X38639761Y63826072D01*
X38677857Y63787977D01*
X38754047Y63749881D01*
X38944523Y63749881D01*
X39020714Y63787977D01*
X39058809Y63826072D01*
X39096904Y63902262D01*
X39096904Y64092739D01*
X39058809Y64168929D01*
X39020714Y64207024D01*
X67036904Y56862024D02*
X66236904Y56862024D01*
X66236904Y56557262D01*
X66275000Y56481072D01*
X66313095Y56442977D01*
X66389285Y56404881D01*
X66503571Y56404881D01*
X66579761Y56442977D01*
X66617857Y56481072D01*
X66655952Y56557262D01*
X66655952Y56862024D01*
X66808333Y56100120D02*
X66808333Y55719167D01*
X67036904Y56176310D02*
X66236904Y55909643D01*
X67036904Y55642977D01*
X67036904Y54957262D02*
X67036904Y55414405D01*
X67036904Y55185834D02*
X66236904Y55185834D01*
X66351190Y55262024D01*
X66427380Y55338215D01*
X66465476Y55414405D01*
X66236904Y54233453D02*
X66236904Y54614405D01*
X66617857Y54652500D01*
X66579761Y54614405D01*
X66541666Y54538215D01*
X66541666Y54347739D01*
X66579761Y54271548D01*
X66617857Y54233453D01*
X66694047Y54195358D01*
X66884523Y54195358D01*
X66960714Y54233453D01*
X66998809Y54271548D01*
X67036904Y54347739D01*
X67036904Y54538215D01*
X66998809Y54614405D01*
X66960714Y54652500D01*
X45916904Y65007024D02*
X46564523Y65007024D01*
X46640714Y64968929D01*
X46678809Y64930834D01*
X46716904Y64854643D01*
X46716904Y64702262D01*
X46678809Y64626072D01*
X46640714Y64587977D01*
X46564523Y64549881D01*
X45916904Y64549881D01*
X46716904Y64130834D02*
X46716904Y63978453D01*
X46678809Y63902262D01*
X46640714Y63864167D01*
X46526428Y63787977D01*
X46374047Y63749881D01*
X46069285Y63749881D01*
X45993095Y63787977D01*
X45955000Y63826072D01*
X45916904Y63902262D01*
X45916904Y64054643D01*
X45955000Y64130834D01*
X45993095Y64168929D01*
X46069285Y64207024D01*
X46259761Y64207024D01*
X46335952Y64168929D01*
X46374047Y64130834D01*
X46412142Y64054643D01*
X46412142Y63902262D01*
X46374047Y63826072D01*
X46335952Y63787977D01*
X46259761Y63749881D01*
X67036904Y28430834D02*
X66236904Y28430834D01*
X66236904Y28126072D01*
X66275000Y28049881D01*
X66313095Y28011786D01*
X66389285Y27973691D01*
X66503571Y27973691D01*
X66579761Y28011786D01*
X66617857Y28049881D01*
X66655952Y28126072D01*
X66655952Y28430834D01*
X66617857Y27364167D02*
X66655952Y27249881D01*
X66694047Y27211786D01*
X66770238Y27173691D01*
X66884523Y27173691D01*
X66960714Y27211786D01*
X66998809Y27249881D01*
X67036904Y27326072D01*
X67036904Y27630834D01*
X66236904Y27630834D01*
X66236904Y27364167D01*
X66275000Y27287977D01*
X66313095Y27249881D01*
X66389285Y27211786D01*
X66465476Y27211786D01*
X66541666Y27249881D01*
X66579761Y27287977D01*
X66617857Y27364167D01*
X66617857Y27630834D01*
X67036904Y26411786D02*
X67036904Y26868929D01*
X67036904Y26640358D02*
X66236904Y26640358D01*
X66351190Y26716548D01*
X66427380Y26792739D01*
X66465476Y26868929D01*
X66236904Y26145120D02*
X66236904Y25649881D01*
X66541666Y25916548D01*
X66541666Y25802262D01*
X66579761Y25726072D01*
X66617857Y25687977D01*
X66694047Y25649881D01*
X66884523Y25649881D01*
X66960714Y25687977D01*
X66998809Y25726072D01*
X67036904Y25802262D01*
X67036904Y26030834D01*
X66998809Y26107024D01*
X66960714Y26145120D01*
X59416904Y66530834D02*
X58616904Y66530834D01*
X58616904Y66226072D01*
X58655000Y66149881D01*
X58693095Y66111786D01*
X58769285Y66073691D01*
X58883571Y66073691D01*
X58959761Y66111786D01*
X58997857Y66149881D01*
X59035952Y66226072D01*
X59035952Y66530834D01*
X59340714Y65273691D02*
X59378809Y65311786D01*
X59416904Y65426072D01*
X59416904Y65502262D01*
X59378809Y65616548D01*
X59302619Y65692739D01*
X59226428Y65730834D01*
X59074047Y65768929D01*
X58959761Y65768929D01*
X58807380Y65730834D01*
X58731190Y65692739D01*
X58655000Y65616548D01*
X58616904Y65502262D01*
X58616904Y65426072D01*
X58655000Y65311786D01*
X58693095Y65273691D01*
X59416904Y64511786D02*
X59416904Y64968929D01*
X59416904Y64740358D02*
X58616904Y64740358D01*
X58731190Y64816548D01*
X58807380Y64892739D01*
X58845476Y64968929D01*
X58693095Y64207024D02*
X58655000Y64168929D01*
X58616904Y64092739D01*
X58616904Y63902262D01*
X58655000Y63826072D01*
X58693095Y63787977D01*
X58769285Y63749881D01*
X58845476Y63749881D01*
X58959761Y63787977D01*
X59416904Y64245120D01*
X59416904Y63749881D01*
X78936904Y65768929D02*
X79584523Y65768929D01*
X79660714Y65730834D01*
X79698809Y65692739D01*
X79736904Y65616548D01*
X79736904Y65464167D01*
X79698809Y65387977D01*
X79660714Y65349881D01*
X79584523Y65311786D01*
X78936904Y65311786D01*
X79736904Y64511786D02*
X79736904Y64968929D01*
X79736904Y64740358D02*
X78936904Y64740358D01*
X79051190Y64816548D01*
X79127380Y64892739D01*
X79165476Y64968929D01*
X78936904Y63787977D02*
X78936904Y64168929D01*
X79317857Y64207024D01*
X79279761Y64168929D01*
X79241666Y64092739D01*
X79241666Y63902262D01*
X79279761Y63826072D01*
X79317857Y63787977D01*
X79394047Y63749881D01*
X79584523Y63749881D01*
X79660714Y63787977D01*
X79698809Y63826072D01*
X79736904Y63902262D01*
X79736904Y64092739D01*
X79698809Y64168929D01*
X79660714Y64207024D01*
X54336904Y18762024D02*
X53536904Y18762024D01*
X53536904Y18457262D01*
X53575000Y18381072D01*
X53613095Y18342977D01*
X53689285Y18304881D01*
X53803571Y18304881D01*
X53879761Y18342977D01*
X53917857Y18381072D01*
X53955952Y18457262D01*
X53955952Y18762024D01*
X54108333Y18000120D02*
X54108333Y17619167D01*
X54336904Y18076310D02*
X53536904Y17809643D01*
X54336904Y17542977D01*
X53536904Y16933453D02*
X53536904Y17085834D01*
X53575000Y17162024D01*
X53613095Y17200120D01*
X53727380Y17276310D01*
X53879761Y17314405D01*
X54184523Y17314405D01*
X54260714Y17276310D01*
X54298809Y17238215D01*
X54336904Y17162024D01*
X54336904Y17009643D01*
X54298809Y16933453D01*
X54260714Y16895358D01*
X54184523Y16857262D01*
X53994047Y16857262D01*
X53917857Y16895358D01*
X53879761Y16933453D01*
X53841666Y17009643D01*
X53841666Y17162024D01*
X53879761Y17238215D01*
X53917857Y17276310D01*
X53994047Y17314405D01*
X56876904Y65768929D02*
X56076904Y65768929D01*
X56076904Y65464167D01*
X56115000Y65387977D01*
X56153095Y65349881D01*
X56229285Y65311786D01*
X56343571Y65311786D01*
X56419761Y65349881D01*
X56457857Y65387977D01*
X56495952Y65464167D01*
X56495952Y65768929D01*
X56876904Y64968929D02*
X56076904Y64968929D01*
X56076904Y64778453D01*
X56115000Y64664167D01*
X56191190Y64587977D01*
X56267380Y64549881D01*
X56419761Y64511786D01*
X56534047Y64511786D01*
X56686428Y64549881D01*
X56762619Y64587977D01*
X56838809Y64664167D01*
X56876904Y64778453D01*
X56876904Y64968929D01*
X56153095Y64207024D02*
X56115000Y64168929D01*
X56076904Y64092739D01*
X56076904Y63902262D01*
X56115000Y63826072D01*
X56153095Y63787977D01*
X56229285Y63749881D01*
X56305476Y63749881D01*
X56419761Y63787977D01*
X56876904Y64245120D01*
X56876904Y63749881D01*
X49256904Y65768929D02*
X48456904Y65768929D01*
X48456904Y65464167D01*
X48495000Y65387977D01*
X48533095Y65349881D01*
X48609285Y65311786D01*
X48723571Y65311786D01*
X48799761Y65349881D01*
X48837857Y65387977D01*
X48875952Y65464167D01*
X48875952Y65768929D01*
X48837857Y64702262D02*
X48875952Y64587977D01*
X48914047Y64549881D01*
X48990238Y64511786D01*
X49104523Y64511786D01*
X49180714Y64549881D01*
X49218809Y64587977D01*
X49256904Y64664167D01*
X49256904Y64968929D01*
X48456904Y64968929D01*
X48456904Y64702262D01*
X48495000Y64626072D01*
X48533095Y64587977D01*
X48609285Y64549881D01*
X48685476Y64549881D01*
X48761666Y64587977D01*
X48799761Y64626072D01*
X48837857Y64702262D01*
X48837857Y64968929D01*
X48799761Y64054643D02*
X48761666Y64130834D01*
X48723571Y64168929D01*
X48647380Y64207024D01*
X48609285Y64207024D01*
X48533095Y64168929D01*
X48495000Y64130834D01*
X48456904Y64054643D01*
X48456904Y63902262D01*
X48495000Y63826072D01*
X48533095Y63787977D01*
X48609285Y63749881D01*
X48647380Y63749881D01*
X48723571Y63787977D01*
X48761666Y63826072D01*
X48799761Y63902262D01*
X48799761Y64054643D01*
X48837857Y64130834D01*
X48875952Y64168929D01*
X48952142Y64207024D01*
X49104523Y64207024D01*
X49180714Y64168929D01*
X49218809Y64130834D01*
X49256904Y64054643D01*
X49256904Y63902262D01*
X49218809Y63826072D01*
X49180714Y63787977D01*
X49104523Y63749881D01*
X48952142Y63749881D01*
X48875952Y63787977D01*
X48837857Y63826072D01*
X48799761Y63902262D01*
X51796904Y65768929D02*
X50996904Y65768929D01*
X50996904Y65464167D01*
X51035000Y65387977D01*
X51073095Y65349881D01*
X51149285Y65311786D01*
X51263571Y65311786D01*
X51339761Y65349881D01*
X51377857Y65387977D01*
X51415952Y65464167D01*
X51415952Y65768929D01*
X51377857Y64702262D02*
X51415952Y64587977D01*
X51454047Y64549881D01*
X51530238Y64511786D01*
X51644523Y64511786D01*
X51720714Y64549881D01*
X51758809Y64587977D01*
X51796904Y64664167D01*
X51796904Y64968929D01*
X50996904Y64968929D01*
X50996904Y64702262D01*
X51035000Y64626072D01*
X51073095Y64587977D01*
X51149285Y64549881D01*
X51225476Y64549881D01*
X51301666Y64587977D01*
X51339761Y64626072D01*
X51377857Y64702262D01*
X51377857Y64968929D01*
X50996904Y63826072D02*
X50996904Y63978453D01*
X51035000Y64054643D01*
X51073095Y64092739D01*
X51187380Y64168929D01*
X51339761Y64207024D01*
X51644523Y64207024D01*
X51720714Y64168929D01*
X51758809Y64130834D01*
X51796904Y64054643D01*
X51796904Y63902262D01*
X51758809Y63826072D01*
X51720714Y63787977D01*
X51644523Y63749881D01*
X51454047Y63749881D01*
X51377857Y63787977D01*
X51339761Y63826072D01*
X51301666Y63902262D01*
X51301666Y64054643D01*
X51339761Y64130834D01*
X51377857Y64168929D01*
X51454047Y64207024D01*
X64496904Y28430834D02*
X63696904Y28430834D01*
X63696904Y28126072D01*
X63735000Y28049881D01*
X63773095Y28011786D01*
X63849285Y27973691D01*
X63963571Y27973691D01*
X64039761Y28011786D01*
X64077857Y28049881D01*
X64115952Y28126072D01*
X64115952Y28430834D01*
X64077857Y27364167D02*
X64115952Y27249881D01*
X64154047Y27211786D01*
X64230238Y27173691D01*
X64344523Y27173691D01*
X64420714Y27211786D01*
X64458809Y27249881D01*
X64496904Y27326072D01*
X64496904Y27630834D01*
X63696904Y27630834D01*
X63696904Y27364167D01*
X63735000Y27287977D01*
X63773095Y27249881D01*
X63849285Y27211786D01*
X63925476Y27211786D01*
X64001666Y27249881D01*
X64039761Y27287977D01*
X64077857Y27364167D01*
X64077857Y27630834D01*
X64496904Y26411786D02*
X64496904Y26868929D01*
X64496904Y26640358D02*
X63696904Y26640358D01*
X63811190Y26716548D01*
X63887380Y26792739D01*
X63925476Y26868929D01*
X64496904Y25649881D02*
X64496904Y26107024D01*
X64496904Y25878453D02*
X63696904Y25878453D01*
X63811190Y25954643D01*
X63887380Y26030834D01*
X63925476Y26107024D01*
X69576904Y28430834D02*
X68776904Y28430834D01*
X68776904Y28126072D01*
X68815000Y28049881D01*
X68853095Y28011786D01*
X68929285Y27973691D01*
X69043571Y27973691D01*
X69119761Y28011786D01*
X69157857Y28049881D01*
X69195952Y28126072D01*
X69195952Y28430834D01*
X69157857Y27364167D02*
X69195952Y27249881D01*
X69234047Y27211786D01*
X69310238Y27173691D01*
X69424523Y27173691D01*
X69500714Y27211786D01*
X69538809Y27249881D01*
X69576904Y27326072D01*
X69576904Y27630834D01*
X68776904Y27630834D01*
X68776904Y27364167D01*
X68815000Y27287977D01*
X68853095Y27249881D01*
X68929285Y27211786D01*
X69005476Y27211786D01*
X69081666Y27249881D01*
X69119761Y27287977D01*
X69157857Y27364167D01*
X69157857Y27630834D01*
X69576904Y26411786D02*
X69576904Y26868929D01*
X69576904Y26640358D02*
X68776904Y26640358D01*
X68891190Y26716548D01*
X68967380Y26792739D01*
X69005476Y26868929D01*
X68776904Y25687977D02*
X68776904Y26068929D01*
X69157857Y26107024D01*
X69119761Y26068929D01*
X69081666Y25992739D01*
X69081666Y25802262D01*
X69119761Y25726072D01*
X69157857Y25687977D01*
X69234047Y25649881D01*
X69424523Y25649881D01*
X69500714Y25687977D01*
X69538809Y25726072D01*
X69576904Y25802262D01*
X69576904Y25992739D01*
X69538809Y26068929D01*
X69500714Y26107024D01*
X84016904Y64473691D02*
X84016904Y64854643D01*
X84397857Y64892739D01*
X84359761Y64854643D01*
X84321666Y64778453D01*
X84321666Y64587977D01*
X84359761Y64511786D01*
X84397857Y64473691D01*
X84474047Y64435596D01*
X84664523Y64435596D01*
X84740714Y64473691D01*
X84778809Y64511786D01*
X84816904Y64587977D01*
X84816904Y64778453D01*
X84778809Y64854643D01*
X84740714Y64892739D01*
X84016904Y64207024D02*
X84816904Y63940358D01*
X84016904Y63673691D01*
X74656904Y65654643D02*
X73856904Y65654643D01*
X73856904Y65349881D01*
X73895000Y65273691D01*
X73933095Y65235596D01*
X74009285Y65197500D01*
X74123571Y65197500D01*
X74199761Y65235596D01*
X74237857Y65273691D01*
X74275952Y65349881D01*
X74275952Y65654643D01*
X74428333Y64892739D02*
X74428333Y64511786D01*
X74656904Y64968929D02*
X73856904Y64702262D01*
X74656904Y64435596D01*
X74199761Y64054643D02*
X74161666Y64130834D01*
X74123571Y64168929D01*
X74047380Y64207024D01*
X74009285Y64207024D01*
X73933095Y64168929D01*
X73895000Y64130834D01*
X73856904Y64054643D01*
X73856904Y63902262D01*
X73895000Y63826072D01*
X73933095Y63787977D01*
X74009285Y63749881D01*
X74047380Y63749881D01*
X74123571Y63787977D01*
X74161666Y63826072D01*
X74199761Y63902262D01*
X74199761Y64054643D01*
X74237857Y64130834D01*
X74275952Y64168929D01*
X74352142Y64207024D01*
X74504523Y64207024D01*
X74580714Y64168929D01*
X74618809Y64130834D01*
X74656904Y64054643D01*
X74656904Y63902262D01*
X74618809Y63826072D01*
X74580714Y63787977D01*
X74504523Y63749881D01*
X74352142Y63749881D01*
X74275952Y63787977D01*
X74237857Y63826072D01*
X74199761Y63902262D01*
X54336904Y27554643D02*
X53536904Y27554643D01*
X53536904Y27249881D01*
X53575000Y27173691D01*
X53613095Y27135596D01*
X53689285Y27097500D01*
X53803571Y27097500D01*
X53879761Y27135596D01*
X53917857Y27173691D01*
X53955952Y27249881D01*
X53955952Y27554643D01*
X54108333Y26792739D02*
X54108333Y26411786D01*
X54336904Y26868929D02*
X53536904Y26602262D01*
X54336904Y26335596D01*
X53536904Y26145120D02*
X53536904Y25611786D01*
X54336904Y25954643D01*
X38677857Y18495358D02*
X38715952Y18381072D01*
X38754047Y18342977D01*
X38830238Y18304881D01*
X38944523Y18304881D01*
X39020714Y18342977D01*
X39058809Y18381072D01*
X39096904Y18457262D01*
X39096904Y18762024D01*
X38296904Y18762024D01*
X38296904Y18495358D01*
X38335000Y18419167D01*
X38373095Y18381072D01*
X38449285Y18342977D01*
X38525476Y18342977D01*
X38601666Y18381072D01*
X38639761Y18419167D01*
X38677857Y18495358D01*
X38677857Y18762024D01*
X38296904Y17809643D02*
X38296904Y17657262D01*
X38335000Y17581072D01*
X38411190Y17504881D01*
X38563571Y17466786D01*
X38830238Y17466786D01*
X38982619Y17504881D01*
X39058809Y17581072D01*
X39096904Y17657262D01*
X39096904Y17809643D01*
X39058809Y17885834D01*
X38982619Y17962024D01*
X38830238Y18000120D01*
X38563571Y18000120D01*
X38411190Y17962024D01*
X38335000Y17885834D01*
X38296904Y17809643D01*
X38296904Y16971548D02*
X38296904Y16895358D01*
X38335000Y16819167D01*
X38373095Y16781072D01*
X38449285Y16742977D01*
X38601666Y16704881D01*
X38792142Y16704881D01*
X38944523Y16742977D01*
X39020714Y16781072D01*
X39058809Y16819167D01*
X39096904Y16895358D01*
X39096904Y16971548D01*
X39058809Y17047739D01*
X39020714Y17085834D01*
X38944523Y17123929D01*
X38792142Y17162024D01*
X38601666Y17162024D01*
X38449285Y17123929D01*
X38373095Y17085834D01*
X38335000Y17047739D01*
X38296904Y16971548D01*
X61156904Y26907024D02*
X61804523Y26907024D01*
X61880714Y26868929D01*
X61918809Y26830834D01*
X61956904Y26754643D01*
X61956904Y26602262D01*
X61918809Y26526072D01*
X61880714Y26487977D01*
X61804523Y26449881D01*
X61156904Y26449881D01*
X61156904Y25916548D02*
X61156904Y25840358D01*
X61195000Y25764167D01*
X61233095Y25726072D01*
X61309285Y25687977D01*
X61461666Y25649881D01*
X61652142Y25649881D01*
X61804523Y25687977D01*
X61880714Y25726072D01*
X61918809Y25764167D01*
X61956904Y25840358D01*
X61956904Y25916548D01*
X61918809Y25992739D01*
X61880714Y26030834D01*
X61804523Y26068929D01*
X61652142Y26107024D01*
X61461666Y26107024D01*
X61309285Y26068929D01*
X61233095Y26030834D01*
X61195000Y25992739D01*
X61156904Y25916548D01*
X49256904Y56862024D02*
X48456904Y56862024D01*
X48456904Y56557262D01*
X48495000Y56481072D01*
X48533095Y56442977D01*
X48609285Y56404881D01*
X48723571Y56404881D01*
X48799761Y56442977D01*
X48837857Y56481072D01*
X48875952Y56557262D01*
X48875952Y56862024D01*
X48837857Y55795358D02*
X48875952Y55681072D01*
X48914047Y55642977D01*
X48990238Y55604881D01*
X49104523Y55604881D01*
X49180714Y55642977D01*
X49218809Y55681072D01*
X49256904Y55757262D01*
X49256904Y56062024D01*
X48456904Y56062024D01*
X48456904Y55795358D01*
X48495000Y55719167D01*
X48533095Y55681072D01*
X48609285Y55642977D01*
X48685476Y55642977D01*
X48761666Y55681072D01*
X48799761Y55719167D01*
X48837857Y55795358D01*
X48837857Y56062024D01*
X49256904Y55223929D02*
X49256904Y55071548D01*
X49218809Y54995358D01*
X49180714Y54957262D01*
X49066428Y54881072D01*
X48914047Y54842977D01*
X48609285Y54842977D01*
X48533095Y54881072D01*
X48495000Y54919167D01*
X48456904Y54995358D01*
X48456904Y55147739D01*
X48495000Y55223929D01*
X48533095Y55262024D01*
X48609285Y55300120D01*
X48799761Y55300120D01*
X48875952Y55262024D01*
X48914047Y55223929D01*
X48952142Y55147739D01*
X48952142Y54995358D01*
X48914047Y54919167D01*
X48875952Y54881072D01*
X48799761Y54842977D01*
X84055000Y56442977D02*
X84016904Y56519167D01*
X84016904Y56633453D01*
X84055000Y56747739D01*
X84131190Y56823929D01*
X84207380Y56862024D01*
X84359761Y56900120D01*
X84474047Y56900120D01*
X84626428Y56862024D01*
X84702619Y56823929D01*
X84778809Y56747739D01*
X84816904Y56633453D01*
X84816904Y56557262D01*
X84778809Y56442977D01*
X84740714Y56404881D01*
X84474047Y56404881D01*
X84474047Y56557262D01*
X84816904Y56062024D02*
X84016904Y56062024D01*
X84816904Y55604881D01*
X84016904Y55604881D01*
X84816904Y55223929D02*
X84016904Y55223929D01*
X84016904Y55033453D01*
X84055000Y54919167D01*
X84131190Y54842977D01*
X84207380Y54804881D01*
X84359761Y54766786D01*
X84474047Y54766786D01*
X84626428Y54804881D01*
X84702619Y54842977D01*
X84778809Y54919167D01*
X84816904Y55033453D01*
X84816904Y55223929D01*
X23947380Y59989405D02*
X22947380Y59989405D01*
X23661666Y59656072D01*
X22947380Y59322739D01*
X23947380Y59322739D01*
X23852142Y58275120D02*
X23899761Y58322739D01*
X23947380Y58465596D01*
X23947380Y58560834D01*
X23899761Y58703691D01*
X23804523Y58798929D01*
X23709285Y58846548D01*
X23518809Y58894167D01*
X23375952Y58894167D01*
X23185476Y58846548D01*
X23090238Y58798929D01*
X22995000Y58703691D01*
X22947380Y58560834D01*
X22947380Y58465596D01*
X22995000Y58322739D01*
X23042619Y58275120D01*
X22947380Y57846548D02*
X23756904Y57846548D01*
X23852142Y57798929D01*
X23899761Y57751310D01*
X23947380Y57656072D01*
X23947380Y57465596D01*
X23899761Y57370358D01*
X23852142Y57322739D01*
X23756904Y57275120D01*
X22947380Y57275120D01*
X23899761Y56846548D02*
X23947380Y56703691D01*
X23947380Y56465596D01*
X23899761Y56370358D01*
X23852142Y56322739D01*
X23756904Y56275120D01*
X23661666Y56275120D01*
X23566428Y56322739D01*
X23518809Y56370358D01*
X23471190Y56465596D01*
X23423571Y56656072D01*
X23375952Y56751310D01*
X23328333Y56798929D01*
X23233095Y56846548D01*
X23137857Y56846548D01*
X23042619Y56798929D01*
X22995000Y56751310D01*
X22947380Y56656072D01*
X22947380Y56417977D01*
X22995000Y56275120D01*
X22947380Y55989405D02*
X22947380Y55417977D01*
X23947380Y55703691D02*
X22947380Y55703691D01*
X23947380Y55084643D02*
X22947380Y55084643D01*
X23661666Y54751310D01*
X22947380Y54417977D01*
X23947380Y54417977D01*
X22947380Y54037024D02*
X22947380Y53417977D01*
X23328333Y53751310D01*
X23328333Y53608453D01*
X23375952Y53513215D01*
X23423571Y53465596D01*
X23518809Y53417977D01*
X23756904Y53417977D01*
X23852142Y53465596D01*
X23899761Y53513215D01*
X23947380Y53608453D01*
X23947380Y53894167D01*
X23899761Y53989405D01*
X23852142Y54037024D01*
X23042619Y53037024D02*
X22995000Y52989405D01*
X22947380Y52894167D01*
X22947380Y52656072D01*
X22995000Y52560834D01*
X23042619Y52513215D01*
X23137857Y52465596D01*
X23233095Y52465596D01*
X23375952Y52513215D01*
X23947380Y53084643D01*
X23947380Y52465596D01*
X23423571Y51703691D02*
X23423571Y52037024D01*
X23947380Y52037024D02*
X22947380Y52037024D01*
X22947380Y51560834D01*
X23280714Y50751310D02*
X23947380Y50751310D01*
X22899761Y50989405D02*
X23614047Y51227501D01*
X23614047Y50608453D01*
X22947380Y50037024D02*
X22947380Y49941786D01*
X22995000Y49846548D01*
X23042619Y49798929D01*
X23137857Y49751310D01*
X23328333Y49703691D01*
X23566428Y49703691D01*
X23756904Y49751310D01*
X23852142Y49798929D01*
X23899761Y49846548D01*
X23947380Y49941786D01*
X23947380Y50037024D01*
X23899761Y50132262D01*
X23852142Y50179881D01*
X23756904Y50227501D01*
X23566428Y50275120D01*
X23328333Y50275120D01*
X23137857Y50227501D01*
X23042619Y50179881D01*
X22995000Y50132262D01*
X22947380Y50037024D01*
X22947380Y48798929D02*
X22947380Y49275120D01*
X23423571Y49322739D01*
X23375952Y49275120D01*
X23328333Y49179881D01*
X23328333Y48941786D01*
X23375952Y48846548D01*
X23423571Y48798929D01*
X23518809Y48751310D01*
X23756904Y48751310D01*
X23852142Y48798929D01*
X23899761Y48846548D01*
X23947380Y48941786D01*
X23947380Y49179881D01*
X23899761Y49275120D01*
X23852142Y49322739D01*
X23947380Y47560834D02*
X23280714Y47560834D01*
X23471190Y47560834D02*
X23375952Y47513215D01*
X23328333Y47465596D01*
X23280714Y47370358D01*
X23280714Y47275120D01*
X23899761Y46560834D02*
X23947380Y46656072D01*
X23947380Y46846548D01*
X23899761Y46941786D01*
X23804523Y46989405D01*
X23423571Y46989405D01*
X23328333Y46941786D01*
X23280714Y46846548D01*
X23280714Y46656072D01*
X23328333Y46560834D01*
X23423571Y46513215D01*
X23518809Y46513215D01*
X23614047Y46989405D01*
X23280714Y46179881D02*
X23947380Y45941786D01*
X23280714Y45703691D01*
X23852142Y45322739D02*
X23899761Y45275120D01*
X23947380Y45322739D01*
X23899761Y45370358D01*
X23852142Y45322739D01*
X23947380Y45322739D01*
X23947380Y43656072D02*
X23423571Y43656072D01*
X23328333Y43703691D01*
X23280714Y43798929D01*
X23280714Y43989405D01*
X23328333Y44084643D01*
X23899761Y43656072D02*
X23947380Y43751310D01*
X23947380Y43989405D01*
X23899761Y44084643D01*
X23804523Y44132262D01*
X23709285Y44132262D01*
X23614047Y44084643D01*
X23566428Y43989405D01*
X23566428Y43751310D01*
X23518809Y43656072D01*
X67036904Y66416548D02*
X66236904Y66416548D01*
X66236904Y66111786D01*
X66275000Y66035596D01*
X66313095Y65997500D01*
X66389285Y65959405D01*
X66503571Y65959405D01*
X66579761Y65997500D01*
X66617857Y66035596D01*
X66655952Y66111786D01*
X66655952Y66416548D01*
X66808333Y65654643D02*
X66808333Y65273691D01*
X67036904Y65730834D02*
X66236904Y65464167D01*
X67036904Y65197500D01*
X67036904Y64511786D02*
X67036904Y64968929D01*
X67036904Y64740358D02*
X66236904Y64740358D01*
X66351190Y64816548D01*
X66427380Y64892739D01*
X66465476Y64968929D01*
X66503571Y63826072D02*
X67036904Y63826072D01*
X66198809Y64016548D02*
X66770238Y64207024D01*
X66770238Y63711786D01*
X41636904Y27668929D02*
X40836904Y27668929D01*
X40836904Y27364167D01*
X40875000Y27287977D01*
X40913095Y27249881D01*
X40989285Y27211786D01*
X41103571Y27211786D01*
X41179761Y27249881D01*
X41217857Y27287977D01*
X41255952Y27364167D01*
X41255952Y27668929D01*
X41560714Y26411786D02*
X41598809Y26449881D01*
X41636904Y26564167D01*
X41636904Y26640358D01*
X41598809Y26754643D01*
X41522619Y26830834D01*
X41446428Y26868929D01*
X41294047Y26907024D01*
X41179761Y26907024D01*
X41027380Y26868929D01*
X40951190Y26830834D01*
X40875000Y26754643D01*
X40836904Y26640358D01*
X40836904Y26564167D01*
X40875000Y26449881D01*
X40913095Y26411786D01*
X41636904Y25649881D02*
X41636904Y26107024D01*
X41636904Y25878453D02*
X40836904Y25878453D01*
X40951190Y25954643D01*
X41027380Y26030834D01*
X41065476Y26107024D01*
X76396904Y65768929D02*
X77044523Y65768929D01*
X77120714Y65730834D01*
X77158809Y65692739D01*
X77196904Y65616548D01*
X77196904Y65464167D01*
X77158809Y65387977D01*
X77120714Y65349881D01*
X77044523Y65311786D01*
X76396904Y65311786D01*
X77196904Y64511786D02*
X77196904Y64968929D01*
X77196904Y64740358D02*
X76396904Y64740358D01*
X76511190Y64816548D01*
X76587380Y64892739D01*
X76625476Y64968929D01*
X76396904Y64245120D02*
X76396904Y63749881D01*
X76701666Y64016548D01*
X76701666Y63902262D01*
X76739761Y63826072D01*
X76777857Y63787977D01*
X76854047Y63749881D01*
X77044523Y63749881D01*
X77120714Y63787977D01*
X77158809Y63826072D01*
X77196904Y63902262D01*
X77196904Y64130834D01*
X77158809Y64207024D01*
X77120714Y64245120D01*
X58616904Y56862024D02*
X59264523Y56862024D01*
X59340714Y56823929D01*
X59378809Y56785834D01*
X59416904Y56709643D01*
X59416904Y56557262D01*
X59378809Y56481072D01*
X59340714Y56442977D01*
X59264523Y56404881D01*
X58616904Y56404881D01*
X58959761Y55909643D02*
X58921666Y55985834D01*
X58883571Y56023929D01*
X58807380Y56062024D01*
X58769285Y56062024D01*
X58693095Y56023929D01*
X58655000Y55985834D01*
X58616904Y55909643D01*
X58616904Y55757262D01*
X58655000Y55681072D01*
X58693095Y55642977D01*
X58769285Y55604881D01*
X58807380Y55604881D01*
X58883571Y55642977D01*
X58921666Y55681072D01*
X58959761Y55757262D01*
X58959761Y55909643D01*
X58997857Y55985834D01*
X59035952Y56023929D01*
X59112142Y56062024D01*
X59264523Y56062024D01*
X59340714Y56023929D01*
X59378809Y55985834D01*
X59416904Y55909643D01*
X59416904Y55757262D01*
X59378809Y55681072D01*
X59340714Y55642977D01*
X59264523Y55604881D01*
X59112142Y55604881D01*
X59035952Y55642977D01*
X58997857Y55681072D01*
X58959761Y55757262D01*
X78936904Y26907024D02*
X79584523Y26907024D01*
X79660714Y26868929D01*
X79698809Y26830834D01*
X79736904Y26754643D01*
X79736904Y26602262D01*
X79698809Y26526072D01*
X79660714Y26487977D01*
X79584523Y26449881D01*
X78936904Y26449881D01*
X79203571Y25726072D02*
X79736904Y25726072D01*
X78898809Y25916548D02*
X79470238Y26107024D01*
X79470238Y25611786D01*
X78936904Y56862024D02*
X79584523Y56862024D01*
X79660714Y56823929D01*
X79698809Y56785834D01*
X79736904Y56709643D01*
X79736904Y56557262D01*
X79698809Y56481072D01*
X79660714Y56442977D01*
X79584523Y56404881D01*
X78936904Y56404881D01*
X79736904Y55604881D02*
X79736904Y56062024D01*
X79736904Y55833453D02*
X78936904Y55833453D01*
X79051190Y55909643D01*
X79127380Y55985834D01*
X79165476Y56062024D01*
X78936904Y54919167D02*
X78936904Y55071548D01*
X78975000Y55147739D01*
X79013095Y55185834D01*
X79127380Y55262024D01*
X79279761Y55300120D01*
X79584523Y55300120D01*
X79660714Y55262024D01*
X79698809Y55223929D01*
X79736904Y55147739D01*
X79736904Y54995358D01*
X79698809Y54919167D01*
X79660714Y54881072D01*
X79584523Y54842977D01*
X79394047Y54842977D01*
X79317857Y54881072D01*
X79279761Y54919167D01*
X79241666Y54995358D01*
X79241666Y55147739D01*
X79279761Y55223929D01*
X79317857Y55262024D01*
X79394047Y55300120D01*
X78936904Y18762024D02*
X79584523Y18762024D01*
X79660714Y18723929D01*
X79698809Y18685834D01*
X79736904Y18609643D01*
X79736904Y18457262D01*
X79698809Y18381072D01*
X79660714Y18342977D01*
X79584523Y18304881D01*
X78936904Y18304881D01*
X78936904Y18000120D02*
X78936904Y17504881D01*
X79241666Y17771548D01*
X79241666Y17657262D01*
X79279761Y17581072D01*
X79317857Y17542977D01*
X79394047Y17504881D01*
X79584523Y17504881D01*
X79660714Y17542977D01*
X79698809Y17581072D01*
X79736904Y17657262D01*
X79736904Y17885834D01*
X79698809Y17962024D01*
X79660714Y18000120D01*
X51796904Y56862024D02*
X50996904Y56862024D01*
X50996904Y56557262D01*
X51035000Y56481072D01*
X51073095Y56442977D01*
X51149285Y56404881D01*
X51263571Y56404881D01*
X51339761Y56442977D01*
X51377857Y56481072D01*
X51415952Y56557262D01*
X51415952Y56862024D01*
X51377857Y55795358D02*
X51415952Y55681072D01*
X51454047Y55642977D01*
X51530238Y55604881D01*
X51644523Y55604881D01*
X51720714Y55642977D01*
X51758809Y55681072D01*
X51796904Y55757262D01*
X51796904Y56062024D01*
X50996904Y56062024D01*
X50996904Y55795358D01*
X51035000Y55719167D01*
X51073095Y55681072D01*
X51149285Y55642977D01*
X51225476Y55642977D01*
X51301666Y55681072D01*
X51339761Y55719167D01*
X51377857Y55795358D01*
X51377857Y56062024D01*
X50996904Y55338215D02*
X50996904Y54804881D01*
X51796904Y55147739D01*
X64496904Y18762024D02*
X63696904Y18762024D01*
X63696904Y18457262D01*
X63735000Y18381072D01*
X63773095Y18342977D01*
X63849285Y18304881D01*
X63963571Y18304881D01*
X64039761Y18342977D01*
X64077857Y18381072D01*
X64115952Y18457262D01*
X64115952Y18762024D01*
X64077857Y17695358D02*
X64115952Y17581072D01*
X64154047Y17542977D01*
X64230238Y17504881D01*
X64344523Y17504881D01*
X64420714Y17542977D01*
X64458809Y17581072D01*
X64496904Y17657262D01*
X64496904Y17962024D01*
X63696904Y17962024D01*
X63696904Y17695358D01*
X63735000Y17619167D01*
X63773095Y17581072D01*
X63849285Y17542977D01*
X63925476Y17542977D01*
X64001666Y17581072D01*
X64039761Y17619167D01*
X64077857Y17695358D01*
X64077857Y17962024D01*
X64496904Y16742977D02*
X64496904Y17200120D01*
X64496904Y16971548D02*
X63696904Y16971548D01*
X63811190Y17047739D01*
X63887380Y17123929D01*
X63925476Y17200120D01*
X63696904Y16247739D02*
X63696904Y16171548D01*
X63735000Y16095358D01*
X63773095Y16057262D01*
X63849285Y16019167D01*
X64001666Y15981072D01*
X64192142Y15981072D01*
X64344523Y16019167D01*
X64420714Y16057262D01*
X64458809Y16095358D01*
X64496904Y16171548D01*
X64496904Y16247739D01*
X64458809Y16323929D01*
X64420714Y16362024D01*
X64344523Y16400120D01*
X64192142Y16438215D01*
X64001666Y16438215D01*
X63849285Y16400120D01*
X63773095Y16362024D01*
X63735000Y16323929D01*
X63696904Y16247739D01*
X44176904Y66530834D02*
X43376904Y66530834D01*
X43376904Y66226072D01*
X43415000Y66149881D01*
X43453095Y66111786D01*
X43529285Y66073691D01*
X43643571Y66073691D01*
X43719761Y66111786D01*
X43757857Y66149881D01*
X43795952Y66226072D01*
X43795952Y66530834D01*
X44100714Y65273691D02*
X44138809Y65311786D01*
X44176904Y65426072D01*
X44176904Y65502262D01*
X44138809Y65616548D01*
X44062619Y65692739D01*
X43986428Y65730834D01*
X43834047Y65768929D01*
X43719761Y65768929D01*
X43567380Y65730834D01*
X43491190Y65692739D01*
X43415000Y65616548D01*
X43376904Y65502262D01*
X43376904Y65426072D01*
X43415000Y65311786D01*
X43453095Y65273691D01*
X44176904Y64511786D02*
X44176904Y64968929D01*
X44176904Y64740358D02*
X43376904Y64740358D01*
X43491190Y64816548D01*
X43567380Y64892739D01*
X43605476Y64968929D01*
X43643571Y63826072D02*
X44176904Y63826072D01*
X43338809Y64016548D02*
X43910238Y64207024D01*
X43910238Y63711786D01*
X26487380Y59989405D02*
X25487380Y59989405D01*
X26487380Y59560834D02*
X25963571Y59560834D01*
X25868333Y59608453D01*
X25820714Y59703691D01*
X25820714Y59846548D01*
X25868333Y59941786D01*
X25915952Y59989405D01*
X25820714Y59227500D02*
X25820714Y58846548D01*
X25487380Y59084643D02*
X26344523Y59084643D01*
X26439761Y59037024D01*
X26487380Y58941786D01*
X26487380Y58846548D01*
X25820714Y58656072D02*
X25820714Y58275120D01*
X25487380Y58513215D02*
X26344523Y58513215D01*
X26439761Y58465596D01*
X26487380Y58370358D01*
X26487380Y58275120D01*
X25820714Y57941786D02*
X26820714Y57941786D01*
X25868333Y57941786D02*
X25820714Y57846548D01*
X25820714Y57656072D01*
X25868333Y57560834D01*
X25915952Y57513215D01*
X26011190Y57465596D01*
X26296904Y57465596D01*
X26392142Y57513215D01*
X26439761Y57560834D01*
X26487380Y57656072D01*
X26487380Y57846548D01*
X26439761Y57941786D01*
X26439761Y57084643D02*
X26487380Y56989405D01*
X26487380Y56798929D01*
X26439761Y56703691D01*
X26344523Y56656072D01*
X26296904Y56656072D01*
X26201666Y56703691D01*
X26154047Y56798929D01*
X26154047Y56941786D01*
X26106428Y57037024D01*
X26011190Y57084643D01*
X25963571Y57084643D01*
X25868333Y57037024D01*
X25820714Y56941786D01*
X25820714Y56798929D01*
X25868333Y56703691D01*
X26392142Y56227500D02*
X26439761Y56179881D01*
X26487380Y56227500D01*
X26439761Y56275120D01*
X26392142Y56227500D01*
X26487380Y56227500D01*
X25868333Y56227500D02*
X25915952Y56179881D01*
X25963571Y56227500D01*
X25915952Y56275120D01*
X25868333Y56227500D01*
X25963571Y56227500D01*
X25439761Y55037024D02*
X26725476Y55894167D01*
X25439761Y53989405D02*
X26725476Y54846548D01*
X26439761Y53703691D02*
X26487380Y53608453D01*
X26487380Y53417977D01*
X26439761Y53322739D01*
X26344523Y53275120D01*
X26296904Y53275120D01*
X26201666Y53322739D01*
X26154047Y53417977D01*
X26154047Y53560834D01*
X26106428Y53656072D01*
X26011190Y53703691D01*
X25963571Y53703691D01*
X25868333Y53656072D01*
X25820714Y53560834D01*
X25820714Y53417977D01*
X25868333Y53322739D01*
X25820714Y52989405D02*
X25820714Y52608453D01*
X25487380Y52846548D02*
X26344523Y52846548D01*
X26439761Y52798929D01*
X26487380Y52703691D01*
X26487380Y52608453D01*
X26487380Y52275120D02*
X25820714Y52275120D01*
X25915952Y52275120D02*
X25868333Y52227500D01*
X25820714Y52132262D01*
X25820714Y51989405D01*
X25868333Y51894167D01*
X25963571Y51846548D01*
X26487380Y51846548D01*
X25963571Y51846548D02*
X25868333Y51798929D01*
X25820714Y51703691D01*
X25820714Y51560834D01*
X25868333Y51465596D01*
X25963571Y51417977D01*
X26487380Y51417977D01*
X25487380Y51037024D02*
X25487380Y50417977D01*
X25868333Y50751310D01*
X25868333Y50608453D01*
X25915952Y50513215D01*
X25963571Y50465596D01*
X26058809Y50417977D01*
X26296904Y50417977D01*
X26392142Y50465596D01*
X26439761Y50513215D01*
X26487380Y50608453D01*
X26487380Y50894167D01*
X26439761Y50989405D01*
X26392142Y51037024D01*
X25582619Y50037024D02*
X25535000Y49989405D01*
X25487380Y49894167D01*
X25487380Y49656072D01*
X25535000Y49560834D01*
X25582619Y49513215D01*
X25677857Y49465596D01*
X25773095Y49465596D01*
X25915952Y49513215D01*
X26487380Y50084643D01*
X26487380Y49465596D01*
X25820714Y49132262D02*
X26487380Y48941786D01*
X26011190Y48751310D01*
X26487380Y48560834D01*
X25820714Y48370358D01*
X26487380Y47846548D02*
X26439761Y47941786D01*
X26392142Y47989405D01*
X26296904Y48037024D01*
X26011190Y48037024D01*
X25915952Y47989405D01*
X25868333Y47941786D01*
X25820714Y47846548D01*
X25820714Y47703691D01*
X25868333Y47608453D01*
X25915952Y47560834D01*
X26011190Y47513215D01*
X26296904Y47513215D01*
X26392142Y47560834D01*
X26439761Y47608453D01*
X26487380Y47703691D01*
X26487380Y47846548D01*
X26487380Y47084643D02*
X25820714Y47084643D01*
X26011190Y47084643D02*
X25915952Y47037024D01*
X25868333Y46989405D01*
X25820714Y46894167D01*
X25820714Y46798929D01*
X26487380Y46322739D02*
X26439761Y46417977D01*
X26344523Y46465596D01*
X25487380Y46465596D01*
X26487380Y45513215D02*
X25487380Y45513215D01*
X26439761Y45513215D02*
X26487380Y45608453D01*
X26487380Y45798929D01*
X26439761Y45894167D01*
X26392142Y45941786D01*
X26296904Y45989405D01*
X26011190Y45989405D01*
X25915952Y45941786D01*
X25868333Y45894167D01*
X25820714Y45798929D01*
X25820714Y45608453D01*
X25868333Y45513215D01*
X26392142Y45037024D02*
X26439761Y44989405D01*
X26487380Y45037024D01*
X26439761Y45084643D01*
X26392142Y45037024D01*
X26487380Y45037024D01*
X26439761Y44132262D02*
X26487380Y44227500D01*
X26487380Y44417977D01*
X26439761Y44513215D01*
X26392142Y44560834D01*
X26296904Y44608453D01*
X26011190Y44608453D01*
X25915952Y44560834D01*
X25868333Y44513215D01*
X25820714Y44417977D01*
X25820714Y44227500D01*
X25868333Y44132262D01*
X26487380Y43560834D02*
X26439761Y43656072D01*
X26392142Y43703691D01*
X26296904Y43751310D01*
X26011190Y43751310D01*
X25915952Y43703691D01*
X25868333Y43656072D01*
X25820714Y43560834D01*
X25820714Y43417977D01*
X25868333Y43322739D01*
X25915952Y43275120D01*
X26011190Y43227500D01*
X26296904Y43227500D01*
X26392142Y43275120D01*
X26439761Y43322739D01*
X26487380Y43417977D01*
X26487380Y43560834D01*
X26487380Y42798929D02*
X25820714Y42798929D01*
X25915952Y42798929D02*
X25868333Y42751310D01*
X25820714Y42656072D01*
X25820714Y42513215D01*
X25868333Y42417977D01*
X25963571Y42370358D01*
X26487380Y42370358D01*
X25963571Y42370358D02*
X25868333Y42322739D01*
X25820714Y42227500D01*
X25820714Y42084643D01*
X25868333Y41989405D01*
X25963571Y41941786D01*
X26487380Y41941786D01*
X25439761Y40751310D02*
X26725476Y41608453D01*
X25820714Y40513215D02*
X26487380Y40322739D01*
X26011190Y40132262D01*
X26487380Y39941786D01*
X25820714Y39751310D01*
X26487380Y39370358D02*
X25820714Y39370358D01*
X25487380Y39370358D02*
X25535000Y39417977D01*
X25582619Y39370358D01*
X25535000Y39322739D01*
X25487380Y39370358D01*
X25582619Y39370358D01*
X26487380Y38894167D02*
X25487380Y38894167D01*
X26106428Y38798929D02*
X26487380Y38513215D01*
X25820714Y38513215D02*
X26201666Y38894167D01*
X26487380Y38084643D02*
X25820714Y38084643D01*
X25487380Y38084643D02*
X25535000Y38132262D01*
X25582619Y38084643D01*
X25535000Y38037024D01*
X25487380Y38084643D01*
X25582619Y38084643D01*
X25439761Y36894167D02*
X26725476Y37751310D01*
X26487380Y36560834D02*
X25487380Y36560834D01*
X26201666Y36227500D01*
X25487380Y35894167D01*
X26487380Y35894167D01*
X26392142Y34846548D02*
X26439761Y34894167D01*
X26487380Y35037024D01*
X26487380Y35132262D01*
X26439761Y35275120D01*
X26344523Y35370358D01*
X26249285Y35417977D01*
X26058809Y35465596D01*
X25915952Y35465596D01*
X25725476Y35417977D01*
X25630238Y35370358D01*
X25535000Y35275120D01*
X25487380Y35132262D01*
X25487380Y35037024D01*
X25535000Y34894167D01*
X25582619Y34846548D01*
X25487380Y34417977D02*
X26296904Y34417977D01*
X26392142Y34370358D01*
X26439761Y34322739D01*
X26487380Y34227500D01*
X26487380Y34037024D01*
X26439761Y33941786D01*
X26392142Y33894167D01*
X26296904Y33846548D01*
X25487380Y33846548D01*
X26439761Y33417977D02*
X26487380Y33275120D01*
X26487380Y33037024D01*
X26439761Y32941786D01*
X26392142Y32894167D01*
X26296904Y32846548D01*
X26201666Y32846548D01*
X26106428Y32894167D01*
X26058809Y32941786D01*
X26011190Y33037024D01*
X25963571Y33227500D01*
X25915952Y33322739D01*
X25868333Y33370358D01*
X25773095Y33417977D01*
X25677857Y33417977D01*
X25582619Y33370358D01*
X25535000Y33322739D01*
X25487380Y33227500D01*
X25487380Y32989405D01*
X25535000Y32846548D01*
X25487380Y32560834D02*
X25487380Y31989405D01*
X26487380Y32275120D02*
X25487380Y32275120D01*
X26487380Y31656072D02*
X25487380Y31656072D01*
X26201666Y31322739D01*
X25487380Y30989405D01*
X26487380Y30989405D01*
X25487380Y30608453D02*
X25487380Y29989405D01*
X25868333Y30322739D01*
X25868333Y30179881D01*
X25915952Y30084643D01*
X25963571Y30037024D01*
X26058809Y29989405D01*
X26296904Y29989405D01*
X26392142Y30037024D01*
X26439761Y30084643D01*
X26487380Y30179881D01*
X26487380Y30465596D01*
X26439761Y30560834D01*
X26392142Y30608453D01*
X25582619Y29608453D02*
X25535000Y29560834D01*
X25487380Y29465596D01*
X25487380Y29227500D01*
X25535000Y29132262D01*
X25582619Y29084643D01*
X25677857Y29037024D01*
X25773095Y29037024D01*
X25915952Y29084643D01*
X26487380Y29656072D01*
X26487380Y29037024D01*
X25963571Y28275120D02*
X25963571Y28608453D01*
X26487380Y28608453D02*
X25487380Y28608453D01*
X25487380Y28132262D01*
X25820714Y27322739D02*
X26487380Y27322739D01*
X25439761Y27560834D02*
X26154047Y27798929D01*
X26154047Y27179881D01*
X25487380Y26608453D02*
X25487380Y26513215D01*
X25535000Y26417977D01*
X25582619Y26370358D01*
X25677857Y26322739D01*
X25868333Y26275120D01*
X26106428Y26275120D01*
X26296904Y26322739D01*
X26392142Y26370358D01*
X26439761Y26417977D01*
X26487380Y26513215D01*
X26487380Y26608453D01*
X26439761Y26703691D01*
X26392142Y26751310D01*
X26296904Y26798929D01*
X26106428Y26846548D01*
X25868333Y26846548D01*
X25677857Y26798929D01*
X25582619Y26751310D01*
X25535000Y26703691D01*
X25487380Y26608453D01*
X25487380Y25370358D02*
X25487380Y25846548D01*
X25963571Y25894167D01*
X25915952Y25846548D01*
X25868333Y25751310D01*
X25868333Y25513215D01*
X25915952Y25417977D01*
X25963571Y25370358D01*
X26058809Y25322739D01*
X26296904Y25322739D01*
X26392142Y25370358D01*
X26439761Y25417977D01*
X26487380Y25513215D01*
X26487380Y25751310D01*
X26439761Y25846548D01*
X26392142Y25894167D01*
X59416904Y18762024D02*
X58616904Y18762024D01*
X58616904Y18457262D01*
X58655000Y18381072D01*
X58693095Y18342977D01*
X58769285Y18304881D01*
X58883571Y18304881D01*
X58959761Y18342977D01*
X58997857Y18381072D01*
X59035952Y18457262D01*
X59035952Y18762024D01*
X58997857Y17695358D02*
X59035952Y17581072D01*
X59074047Y17542977D01*
X59150238Y17504881D01*
X59264523Y17504881D01*
X59340714Y17542977D01*
X59378809Y17581072D01*
X59416904Y17657262D01*
X59416904Y17962024D01*
X58616904Y17962024D01*
X58616904Y17695358D01*
X58655000Y17619167D01*
X58693095Y17581072D01*
X58769285Y17542977D01*
X58845476Y17542977D01*
X58921666Y17581072D01*
X58959761Y17619167D01*
X58997857Y17695358D01*
X58997857Y17962024D01*
X58616904Y17009643D02*
X58616904Y16933453D01*
X58655000Y16857262D01*
X58693095Y16819167D01*
X58769285Y16781072D01*
X58921666Y16742977D01*
X59112142Y16742977D01*
X59264523Y16781072D01*
X59340714Y16819167D01*
X59378809Y16857262D01*
X59416904Y16933453D01*
X59416904Y17009643D01*
X59378809Y17085834D01*
X59340714Y17123929D01*
X59264523Y17162024D01*
X59112142Y17200120D01*
X58921666Y17200120D01*
X58769285Y17162024D01*
X58693095Y17123929D01*
X58655000Y17085834D01*
X58616904Y17009643D01*
X35756904Y18876310D02*
X36556904Y18609643D01*
X35756904Y18342977D01*
X36328333Y18114405D02*
X36328333Y17733453D01*
X36556904Y18190596D02*
X35756904Y17923929D01*
X36556904Y17657262D01*
X84055000Y27326072D02*
X84016904Y27402262D01*
X84016904Y27516548D01*
X84055000Y27630834D01*
X84131190Y27707024D01*
X84207380Y27745120D01*
X84359761Y27783215D01*
X84474047Y27783215D01*
X84626428Y27745120D01*
X84702619Y27707024D01*
X84778809Y27630834D01*
X84816904Y27516548D01*
X84816904Y27440358D01*
X84778809Y27326072D01*
X84740714Y27287977D01*
X84474047Y27287977D01*
X84474047Y27440358D01*
X84816904Y26945120D02*
X84016904Y26945120D01*
X84816904Y26487977D01*
X84016904Y26487977D01*
X84816904Y26107024D02*
X84016904Y26107024D01*
X84016904Y25916548D01*
X84055000Y25802262D01*
X84131190Y25726072D01*
X84207380Y25687977D01*
X84359761Y25649881D01*
X84474047Y25649881D01*
X84626428Y25687977D01*
X84702619Y25726072D01*
X84778809Y25802262D01*
X84816904Y25916548D01*
X84816904Y26107024D01*
X69576904Y18762024D02*
X68776904Y18762024D01*
X68776904Y18457262D01*
X68815000Y18381072D01*
X68853095Y18342977D01*
X68929285Y18304881D01*
X69043571Y18304881D01*
X69119761Y18342977D01*
X69157857Y18381072D01*
X69195952Y18457262D01*
X69195952Y18762024D01*
X69157857Y17695358D02*
X69195952Y17581072D01*
X69234047Y17542977D01*
X69310238Y17504881D01*
X69424523Y17504881D01*
X69500714Y17542977D01*
X69538809Y17581072D01*
X69576904Y17657262D01*
X69576904Y17962024D01*
X68776904Y17962024D01*
X68776904Y17695358D01*
X68815000Y17619167D01*
X68853095Y17581072D01*
X68929285Y17542977D01*
X69005476Y17542977D01*
X69081666Y17581072D01*
X69119761Y17619167D01*
X69157857Y17695358D01*
X69157857Y17962024D01*
X69576904Y16742977D02*
X69576904Y17200120D01*
X69576904Y16971548D02*
X68776904Y16971548D01*
X68891190Y17047739D01*
X68967380Y17123929D01*
X69005476Y17200120D01*
X69043571Y16057262D02*
X69576904Y16057262D01*
X68738809Y16247739D02*
X69310238Y16438215D01*
X69310238Y15942977D01*
X61956904Y56862024D02*
X61156904Y56862024D01*
X61156904Y56557262D01*
X61195000Y56481072D01*
X61233095Y56442977D01*
X61309285Y56404881D01*
X61423571Y56404881D01*
X61499761Y56442977D01*
X61537857Y56481072D01*
X61575952Y56557262D01*
X61575952Y56862024D01*
X61880714Y55604881D02*
X61918809Y55642977D01*
X61956904Y55757262D01*
X61956904Y55833453D01*
X61918809Y55947739D01*
X61842619Y56023929D01*
X61766428Y56062024D01*
X61614047Y56100120D01*
X61499761Y56100120D01*
X61347380Y56062024D01*
X61271190Y56023929D01*
X61195000Y55947739D01*
X61156904Y55833453D01*
X61156904Y55757262D01*
X61195000Y55642977D01*
X61233095Y55604881D01*
X61956904Y54842977D02*
X61956904Y55300120D01*
X61956904Y55071548D02*
X61156904Y55071548D01*
X61271190Y55147739D01*
X61347380Y55223929D01*
X61385476Y55300120D01*
X61956904Y54081072D02*
X61956904Y54538215D01*
X61956904Y54309643D02*
X61156904Y54309643D01*
X61271190Y54385834D01*
X61347380Y54462024D01*
X61385476Y54538215D01*
X44176904Y18762024D02*
X43376904Y18762024D01*
X43376904Y18457262D01*
X43415000Y18381072D01*
X43453095Y18342977D01*
X43529285Y18304881D01*
X43643571Y18304881D01*
X43719761Y18342977D01*
X43757857Y18381072D01*
X43795952Y18457262D01*
X43795952Y18762024D01*
X44100714Y17504881D02*
X44138809Y17542977D01*
X44176904Y17657262D01*
X44176904Y17733453D01*
X44138809Y17847739D01*
X44062619Y17923929D01*
X43986428Y17962024D01*
X43834047Y18000120D01*
X43719761Y18000120D01*
X43567380Y17962024D01*
X43491190Y17923929D01*
X43415000Y17847739D01*
X43376904Y17733453D01*
X43376904Y17657262D01*
X43415000Y17542977D01*
X43453095Y17504881D01*
X43453095Y17200120D02*
X43415000Y17162024D01*
X43376904Y17085834D01*
X43376904Y16895358D01*
X43415000Y16819167D01*
X43453095Y16781072D01*
X43529285Y16742977D01*
X43605476Y16742977D01*
X43719761Y16781072D01*
X44176904Y17238215D01*
X44176904Y16742977D01*
X74656904Y56862024D02*
X73856904Y56862024D01*
X73856904Y56557262D01*
X73895000Y56481072D01*
X73933095Y56442977D01*
X74009285Y56404881D01*
X74123571Y56404881D01*
X74199761Y56442977D01*
X74237857Y56481072D01*
X74275952Y56557262D01*
X74275952Y56862024D01*
X74428333Y56100120D02*
X74428333Y55719167D01*
X74656904Y56176310D02*
X73856904Y55909643D01*
X74656904Y55642977D01*
X74656904Y55338215D02*
X74656904Y55185834D01*
X74618809Y55109643D01*
X74580714Y55071548D01*
X74466428Y54995358D01*
X74314047Y54957262D01*
X74009285Y54957262D01*
X73933095Y54995358D01*
X73895000Y55033453D01*
X73856904Y55109643D01*
X73856904Y55262024D01*
X73895000Y55338215D01*
X73933095Y55376310D01*
X74009285Y55414405D01*
X74199761Y55414405D01*
X74275952Y55376310D01*
X74314047Y55338215D01*
X74352142Y55262024D01*
X74352142Y55109643D01*
X74314047Y55033453D01*
X74275952Y54995358D01*
X74199761Y54957262D01*
X84016904Y18381072D02*
X84016904Y18762024D01*
X84397857Y18800120D01*
X84359761Y18762024D01*
X84321666Y18685834D01*
X84321666Y18495358D01*
X84359761Y18419167D01*
X84397857Y18381072D01*
X84474047Y18342977D01*
X84664523Y18342977D01*
X84740714Y18381072D01*
X84778809Y18419167D01*
X84816904Y18495358D01*
X84816904Y18685834D01*
X84778809Y18762024D01*
X84740714Y18800120D01*
X84016904Y18114405D02*
X84816904Y17847739D01*
X84016904Y17581072D01*
X46716904Y18762024D02*
X45916904Y18762024D01*
X45916904Y18457262D01*
X45955000Y18381072D01*
X45993095Y18342977D01*
X46069285Y18304881D01*
X46183571Y18304881D01*
X46259761Y18342977D01*
X46297857Y18381072D01*
X46335952Y18457262D01*
X46335952Y18762024D01*
X46488333Y18000120D02*
X46488333Y17619167D01*
X46716904Y18076310D02*
X45916904Y17809643D01*
X46716904Y17542977D01*
X45916904Y17123929D02*
X45916904Y17047739D01*
X45955000Y16971548D01*
X45993095Y16933453D01*
X46069285Y16895358D01*
X46221666Y16857262D01*
X46412142Y16857262D01*
X46564523Y16895358D01*
X46640714Y16933453D01*
X46678809Y16971548D01*
X46716904Y17047739D01*
X46716904Y17123929D01*
X46678809Y17200120D01*
X46640714Y17238215D01*
X46564523Y17276310D01*
X46412142Y17314405D01*
X46221666Y17314405D01*
X46069285Y17276310D01*
X45993095Y17238215D01*
X45955000Y17200120D01*
X45916904Y17123929D01*
X56876904Y56862024D02*
X56076904Y56862024D01*
X56076904Y56557262D01*
X56115000Y56481072D01*
X56153095Y56442977D01*
X56229285Y56404881D01*
X56343571Y56404881D01*
X56419761Y56442977D01*
X56457857Y56481072D01*
X56495952Y56557262D01*
X56495952Y56862024D01*
X56457857Y55795358D02*
X56495952Y55681072D01*
X56534047Y55642977D01*
X56610238Y55604881D01*
X56724523Y55604881D01*
X56800714Y55642977D01*
X56838809Y55681072D01*
X56876904Y55757262D01*
X56876904Y56062024D01*
X56076904Y56062024D01*
X56076904Y55795358D01*
X56115000Y55719167D01*
X56153095Y55681072D01*
X56229285Y55642977D01*
X56305476Y55642977D01*
X56381666Y55681072D01*
X56419761Y55719167D01*
X56457857Y55795358D01*
X56457857Y56062024D01*
X56076904Y55338215D02*
X56076904Y54842977D01*
X56381666Y55109643D01*
X56381666Y54995358D01*
X56419761Y54919167D01*
X56457857Y54881072D01*
X56534047Y54842977D01*
X56724523Y54842977D01*
X56800714Y54881072D01*
X56838809Y54919167D01*
X56876904Y54995358D01*
X56876904Y55223929D01*
X56838809Y55300120D01*
X56800714Y55338215D01*
X61956904Y66530834D02*
X61156904Y66530834D01*
X61156904Y66226072D01*
X61195000Y66149881D01*
X61233095Y66111786D01*
X61309285Y66073691D01*
X61423571Y66073691D01*
X61499761Y66111786D01*
X61537857Y66149881D01*
X61575952Y66226072D01*
X61575952Y66530834D01*
X61880714Y65273691D02*
X61918809Y65311786D01*
X61956904Y65426072D01*
X61956904Y65502262D01*
X61918809Y65616548D01*
X61842619Y65692739D01*
X61766428Y65730834D01*
X61614047Y65768929D01*
X61499761Y65768929D01*
X61347380Y65730834D01*
X61271190Y65692739D01*
X61195000Y65616548D01*
X61156904Y65502262D01*
X61156904Y65426072D01*
X61195000Y65311786D01*
X61233095Y65273691D01*
X61956904Y64511786D02*
X61956904Y64968929D01*
X61956904Y64740358D02*
X61156904Y64740358D01*
X61271190Y64816548D01*
X61347380Y64892739D01*
X61385476Y64968929D01*
X61156904Y64016548D02*
X61156904Y63940358D01*
X61195000Y63864167D01*
X61233095Y63826072D01*
X61309285Y63787977D01*
X61461666Y63749881D01*
X61652142Y63749881D01*
X61804523Y63787977D01*
X61880714Y63826072D01*
X61918809Y63864167D01*
X61956904Y63940358D01*
X61956904Y64016548D01*
X61918809Y64092739D01*
X61880714Y64130834D01*
X61804523Y64168929D01*
X61652142Y64207024D01*
X61461666Y64207024D01*
X61309285Y64168929D01*
X61233095Y64130834D01*
X61195000Y64092739D01*
X61156904Y64016548D01*
X81515000Y27326072D02*
X81476904Y27402262D01*
X81476904Y27516548D01*
X81515000Y27630834D01*
X81591190Y27707024D01*
X81667380Y27745120D01*
X81819761Y27783215D01*
X81934047Y27783215D01*
X82086428Y27745120D01*
X82162619Y27707024D01*
X82238809Y27630834D01*
X82276904Y27516548D01*
X82276904Y27440358D01*
X82238809Y27326072D01*
X82200714Y27287977D01*
X81934047Y27287977D01*
X81934047Y27440358D01*
X82276904Y26945120D02*
X81476904Y26945120D01*
X82276904Y26487977D01*
X81476904Y26487977D01*
X82276904Y26107024D02*
X81476904Y26107024D01*
X81476904Y25916548D01*
X81515000Y25802262D01*
X81591190Y25726072D01*
X81667380Y25687977D01*
X81819761Y25649881D01*
X81934047Y25649881D01*
X82086428Y25687977D01*
X82162619Y25726072D01*
X82238809Y25802262D01*
X82276904Y25916548D01*
X82276904Y26107024D01*
X44176904Y56862024D02*
X43376904Y56862024D01*
X43376904Y56557262D01*
X43415000Y56481072D01*
X43453095Y56442977D01*
X43529285Y56404881D01*
X43643571Y56404881D01*
X43719761Y56442977D01*
X43757857Y56481072D01*
X43795952Y56557262D01*
X43795952Y56862024D01*
X44100714Y55604881D02*
X44138809Y55642977D01*
X44176904Y55757262D01*
X44176904Y55833453D01*
X44138809Y55947739D01*
X44062619Y56023929D01*
X43986428Y56062024D01*
X43834047Y56100120D01*
X43719761Y56100120D01*
X43567380Y56062024D01*
X43491190Y56023929D01*
X43415000Y55947739D01*
X43376904Y55833453D01*
X43376904Y55757262D01*
X43415000Y55642977D01*
X43453095Y55604881D01*
X44176904Y54842977D02*
X44176904Y55300120D01*
X44176904Y55071548D02*
X43376904Y55071548D01*
X43491190Y55147739D01*
X43567380Y55223929D01*
X43605476Y55300120D01*
X43376904Y54576310D02*
X43376904Y54081072D01*
X43681666Y54347739D01*
X43681666Y54233453D01*
X43719761Y54157262D01*
X43757857Y54119167D01*
X43834047Y54081072D01*
X44024523Y54081072D01*
X44100714Y54119167D01*
X44138809Y54157262D01*
X44176904Y54233453D01*
X44176904Y54462024D01*
X44138809Y54538215D01*
X44100714Y54576310D01*
X35756904Y65007024D02*
X36556904Y64740358D01*
X35756904Y64473691D01*
X36137857Y63940358D02*
X36175952Y63826072D01*
X36214047Y63787977D01*
X36290238Y63749881D01*
X36404523Y63749881D01*
X36480714Y63787977D01*
X36518809Y63826072D01*
X36556904Y63902262D01*
X36556904Y64207024D01*
X35756904Y64207024D01*
X35756904Y63940358D01*
X35795000Y63864167D01*
X35833095Y63826072D01*
X35909285Y63787977D01*
X35985476Y63787977D01*
X36061666Y63826072D01*
X36099761Y63864167D01*
X36137857Y63940358D01*
X36137857Y64207024D01*
X41636904Y18762024D02*
X40836904Y18762024D01*
X40836904Y18457262D01*
X40875000Y18381072D01*
X40913095Y18342977D01*
X40989285Y18304881D01*
X41103571Y18304881D01*
X41179761Y18342977D01*
X41217857Y18381072D01*
X41255952Y18457262D01*
X41255952Y18762024D01*
X41560714Y17504881D02*
X41598809Y17542977D01*
X41636904Y17657262D01*
X41636904Y17733453D01*
X41598809Y17847739D01*
X41522619Y17923929D01*
X41446428Y17962024D01*
X41294047Y18000120D01*
X41179761Y18000120D01*
X41027380Y17962024D01*
X40951190Y17923929D01*
X40875000Y17847739D01*
X40836904Y17733453D01*
X40836904Y17657262D01*
X40875000Y17542977D01*
X40913095Y17504881D01*
X40836904Y17009643D02*
X40836904Y16933453D01*
X40875000Y16857262D01*
X40913095Y16819167D01*
X40989285Y16781072D01*
X41141666Y16742977D01*
X41332142Y16742977D01*
X41484523Y16781072D01*
X41560714Y16819167D01*
X41598809Y16857262D01*
X41636904Y16933453D01*
X41636904Y17009643D01*
X41598809Y17085834D01*
X41560714Y17123929D01*
X41484523Y17162024D01*
X41332142Y17200120D01*
X41141666Y17200120D01*
X40989285Y17162024D01*
X40913095Y17123929D01*
X40875000Y17085834D01*
X40836904Y17009643D01*
X81515000Y56442977D02*
X81476904Y56519167D01*
X81476904Y56633453D01*
X81515000Y56747739D01*
X81591190Y56823929D01*
X81667380Y56862024D01*
X81819761Y56900120D01*
X81934047Y56900120D01*
X82086428Y56862024D01*
X82162619Y56823929D01*
X82238809Y56747739D01*
X82276904Y56633453D01*
X82276904Y56557262D01*
X82238809Y56442977D01*
X82200714Y56404881D01*
X81934047Y56404881D01*
X81934047Y56557262D01*
X82276904Y56062024D02*
X81476904Y56062024D01*
X82276904Y55604881D01*
X81476904Y55604881D01*
X82276904Y55223929D02*
X81476904Y55223929D01*
X81476904Y55033453D01*
X81515000Y54919167D01*
X81591190Y54842977D01*
X81667380Y54804881D01*
X81819761Y54766786D01*
X81934047Y54766786D01*
X82086428Y54804881D01*
X82162619Y54842977D01*
X82238809Y54919167D01*
X82276904Y55033453D01*
X82276904Y55223929D01*
X72116904Y66416548D02*
X71316904Y66416548D01*
X71316904Y66111786D01*
X71355000Y66035596D01*
X71393095Y65997500D01*
X71469285Y65959405D01*
X71583571Y65959405D01*
X71659761Y65997500D01*
X71697857Y66035596D01*
X71735952Y66111786D01*
X71735952Y66416548D01*
X71888333Y65654643D02*
X71888333Y65273691D01*
X72116904Y65730834D02*
X71316904Y65464167D01*
X72116904Y65197500D01*
X72116904Y64511786D02*
X72116904Y64968929D01*
X72116904Y64740358D02*
X71316904Y64740358D01*
X71431190Y64816548D01*
X71507380Y64892739D01*
X71545476Y64968929D01*
X71316904Y64016548D02*
X71316904Y63940358D01*
X71355000Y63864167D01*
X71393095Y63826072D01*
X71469285Y63787977D01*
X71621666Y63749881D01*
X71812142Y63749881D01*
X71964523Y63787977D01*
X72040714Y63826072D01*
X72078809Y63864167D01*
X72116904Y63940358D01*
X72116904Y64016548D01*
X72078809Y64092739D01*
X72040714Y64130834D01*
X71964523Y64168929D01*
X71812142Y64207024D01*
X71621666Y64207024D01*
X71469285Y64168929D01*
X71393095Y64130834D01*
X71355000Y64092739D01*
X71316904Y64016548D01*
X46716904Y27554643D02*
X45916904Y27554643D01*
X45916904Y27249881D01*
X45955000Y27173691D01*
X45993095Y27135596D01*
X46069285Y27097500D01*
X46183571Y27097500D01*
X46259761Y27135596D01*
X46297857Y27173691D01*
X46335952Y27249881D01*
X46335952Y27554643D01*
X46488333Y26792739D02*
X46488333Y26411786D01*
X46716904Y26868929D02*
X45916904Y26602262D01*
X46716904Y26335596D01*
X46716904Y25649881D02*
X46716904Y26107024D01*
X46716904Y25878453D02*
X45916904Y25878453D01*
X46031190Y25954643D01*
X46107380Y26030834D01*
X46145476Y26107024D01*
X74656904Y18762024D02*
X73856904Y18762024D01*
X73856904Y18457262D01*
X73895000Y18381072D01*
X73933095Y18342977D01*
X74009285Y18304881D01*
X74123571Y18304881D01*
X74199761Y18342977D01*
X74237857Y18381072D01*
X74275952Y18457262D01*
X74275952Y18762024D01*
X74580714Y17504881D02*
X74618809Y17542977D01*
X74656904Y17657262D01*
X74656904Y17733453D01*
X74618809Y17847739D01*
X74542619Y17923929D01*
X74466428Y17962024D01*
X74314047Y18000120D01*
X74199761Y18000120D01*
X74047380Y17962024D01*
X73971190Y17923929D01*
X73895000Y17847739D01*
X73856904Y17733453D01*
X73856904Y17657262D01*
X73895000Y17542977D01*
X73933095Y17504881D01*
X74199761Y17047739D02*
X74161666Y17123929D01*
X74123571Y17162024D01*
X74047380Y17200120D01*
X74009285Y17200120D01*
X73933095Y17162024D01*
X73895000Y17123929D01*
X73856904Y17047739D01*
X73856904Y16895358D01*
X73895000Y16819167D01*
X73933095Y16781072D01*
X74009285Y16742977D01*
X74047380Y16742977D01*
X74123571Y16781072D01*
X74161666Y16819167D01*
X74199761Y16895358D01*
X74199761Y17047739D01*
X74237857Y17123929D01*
X74275952Y17162024D01*
X74352142Y17200120D01*
X74504523Y17200120D01*
X74580714Y17162024D01*
X74618809Y17123929D01*
X74656904Y17047739D01*
X74656904Y16895358D01*
X74618809Y16819167D01*
X74580714Y16781072D01*
X74504523Y16742977D01*
X74352142Y16742977D01*
X74275952Y16781072D01*
X74237857Y16819167D01*
X74199761Y16895358D01*
X69576904Y66416548D02*
X68776904Y66416548D01*
X68776904Y66111786D01*
X68815000Y66035596D01*
X68853095Y65997500D01*
X68929285Y65959405D01*
X69043571Y65959405D01*
X69119761Y65997500D01*
X69157857Y66035596D01*
X69195952Y66111786D01*
X69195952Y66416548D01*
X69348333Y65654643D02*
X69348333Y65273691D01*
X69576904Y65730834D02*
X68776904Y65464167D01*
X69576904Y65197500D01*
X69576904Y64511786D02*
X69576904Y64968929D01*
X69576904Y64740358D02*
X68776904Y64740358D01*
X68891190Y64816548D01*
X68967380Y64892739D01*
X69005476Y64968929D01*
X68853095Y64207024D02*
X68815000Y64168929D01*
X68776904Y64092739D01*
X68776904Y63902262D01*
X68815000Y63826072D01*
X68853095Y63787977D01*
X68929285Y63749881D01*
X69005476Y63749881D01*
X69119761Y63787977D01*
X69576904Y64245120D01*
X69576904Y63749881D01*
X49256904Y27554643D02*
X48456904Y27554643D01*
X48456904Y27249881D01*
X48495000Y27173691D01*
X48533095Y27135596D01*
X48609285Y27097500D01*
X48723571Y27097500D01*
X48799761Y27135596D01*
X48837857Y27173691D01*
X48875952Y27249881D01*
X48875952Y27554643D01*
X49028333Y26792739D02*
X49028333Y26411786D01*
X49256904Y26868929D02*
X48456904Y26602262D01*
X49256904Y26335596D01*
X48456904Y26145120D02*
X48456904Y25649881D01*
X48761666Y25916548D01*
X48761666Y25802262D01*
X48799761Y25726072D01*
X48837857Y25687977D01*
X48914047Y25649881D01*
X49104523Y25649881D01*
X49180714Y25687977D01*
X49218809Y25726072D01*
X49256904Y25802262D01*
X49256904Y26030834D01*
X49218809Y26107024D01*
X49180714Y26145120D01*
X49256904Y18762024D02*
X48456904Y18762024D01*
X48456904Y18457262D01*
X48495000Y18381072D01*
X48533095Y18342977D01*
X48609285Y18304881D01*
X48723571Y18304881D01*
X48799761Y18342977D01*
X48837857Y18381072D01*
X48875952Y18457262D01*
X48875952Y18762024D01*
X49028333Y18000120D02*
X49028333Y17619167D01*
X49256904Y18076310D02*
X48456904Y17809643D01*
X49256904Y17542977D01*
X48533095Y17314405D02*
X48495000Y17276310D01*
X48456904Y17200120D01*
X48456904Y17009643D01*
X48495000Y16933453D01*
X48533095Y16895358D01*
X48609285Y16857262D01*
X48685476Y16857262D01*
X48799761Y16895358D01*
X49256904Y17352500D01*
X49256904Y16857262D01*
X56876904Y27668929D02*
X56076904Y27668929D01*
X56076904Y27364167D01*
X56115000Y27287977D01*
X56153095Y27249881D01*
X56229285Y27211786D01*
X56343571Y27211786D01*
X56419761Y27249881D01*
X56457857Y27287977D01*
X56495952Y27364167D01*
X56495952Y27668929D01*
X56800714Y26411786D02*
X56838809Y26449881D01*
X56876904Y26564167D01*
X56876904Y26640358D01*
X56838809Y26754643D01*
X56762619Y26830834D01*
X56686428Y26868929D01*
X56534047Y26907024D01*
X56419761Y26907024D01*
X56267380Y26868929D01*
X56191190Y26830834D01*
X56115000Y26754643D01*
X56076904Y26640358D01*
X56076904Y26564167D01*
X56115000Y26449881D01*
X56153095Y26411786D01*
X56076904Y25687977D02*
X56076904Y26068929D01*
X56457857Y26107024D01*
X56419761Y26068929D01*
X56381666Y25992739D01*
X56381666Y25802262D01*
X56419761Y25726072D01*
X56457857Y25687977D01*
X56534047Y25649881D01*
X56724523Y25649881D01*
X56800714Y25687977D01*
X56838809Y25726072D01*
X56876904Y25802262D01*
X56876904Y25992739D01*
X56838809Y26068929D01*
X56800714Y26107024D01*
X63696904Y65768929D02*
X64344523Y65768929D01*
X64420714Y65730834D01*
X64458809Y65692739D01*
X64496904Y65616548D01*
X64496904Y65464167D01*
X64458809Y65387977D01*
X64420714Y65349881D01*
X64344523Y65311786D01*
X63696904Y65311786D01*
X64496904Y64511786D02*
X64496904Y64968929D01*
X64496904Y64740358D02*
X63696904Y64740358D01*
X63811190Y64816548D01*
X63887380Y64892739D01*
X63925476Y64968929D01*
X64496904Y63749881D02*
X64496904Y64207024D01*
X64496904Y63978453D02*
X63696904Y63978453D01*
X63811190Y64054643D01*
X63887380Y64130834D01*
X63925476Y64207024D01*
X59416904Y27668929D02*
X58616904Y27668929D01*
X58616904Y27364167D01*
X58655000Y27287977D01*
X58693095Y27249881D01*
X58769285Y27211786D01*
X58883571Y27211786D01*
X58959761Y27249881D01*
X58997857Y27287977D01*
X59035952Y27364167D01*
X59035952Y27668929D01*
X58997857Y26602262D02*
X59035952Y26487977D01*
X59074047Y26449881D01*
X59150238Y26411786D01*
X59264523Y26411786D01*
X59340714Y26449881D01*
X59378809Y26487977D01*
X59416904Y26564167D01*
X59416904Y26868929D01*
X58616904Y26868929D01*
X58616904Y26602262D01*
X58655000Y26526072D01*
X58693095Y26487977D01*
X58769285Y26449881D01*
X58845476Y26449881D01*
X58921666Y26487977D01*
X58959761Y26526072D01*
X58997857Y26602262D01*
X58997857Y26868929D01*
X59416904Y25649881D02*
X59416904Y26107024D01*
X59416904Y25878453D02*
X58616904Y25878453D01*
X58731190Y25954643D01*
X58807380Y26030834D01*
X58845476Y26107024D01*
X81476904Y18838215D02*
X81476904Y18342977D01*
X81781666Y18609643D01*
X81781666Y18495358D01*
X81819761Y18419167D01*
X81857857Y18381072D01*
X81934047Y18342977D01*
X82124523Y18342977D01*
X82200714Y18381072D01*
X82238809Y18419167D01*
X82276904Y18495358D01*
X82276904Y18723929D01*
X82238809Y18800120D01*
X82200714Y18838215D01*
X82200714Y18000120D02*
X82238809Y17962024D01*
X82276904Y18000120D01*
X82238809Y18038215D01*
X82200714Y18000120D01*
X82276904Y18000120D01*
X81476904Y17695358D02*
X81476904Y17200120D01*
X81781666Y17466786D01*
X81781666Y17352500D01*
X81819761Y17276310D01*
X81857857Y17238215D01*
X81934047Y17200120D01*
X82124523Y17200120D01*
X82200714Y17238215D01*
X82238809Y17276310D01*
X82276904Y17352500D01*
X82276904Y17581072D01*
X82238809Y17657262D01*
X82200714Y17695358D01*
X81476904Y16971548D02*
X82276904Y16704881D01*
X81476904Y16438215D01*
X41636904Y56862024D02*
X40836904Y56862024D01*
X40836904Y56557262D01*
X40875000Y56481072D01*
X40913095Y56442977D01*
X40989285Y56404881D01*
X41103571Y56404881D01*
X41179761Y56442977D01*
X41217857Y56481072D01*
X41255952Y56557262D01*
X41255952Y56862024D01*
X41560714Y55604881D02*
X41598809Y55642977D01*
X41636904Y55757262D01*
X41636904Y55833453D01*
X41598809Y55947739D01*
X41522619Y56023929D01*
X41446428Y56062024D01*
X41294047Y56100120D01*
X41179761Y56100120D01*
X41027380Y56062024D01*
X40951190Y56023929D01*
X40875000Y55947739D01*
X40836904Y55833453D01*
X40836904Y55757262D01*
X40875000Y55642977D01*
X40913095Y55604881D01*
X41636904Y54842977D02*
X41636904Y55300120D01*
X41636904Y55071548D02*
X40836904Y55071548D01*
X40951190Y55147739D01*
X41027380Y55223929D01*
X41065476Y55300120D01*
X40836904Y54119167D02*
X40836904Y54500120D01*
X41217857Y54538215D01*
X41179761Y54500120D01*
X41141666Y54423929D01*
X41141666Y54233453D01*
X41179761Y54157262D01*
X41217857Y54119167D01*
X41294047Y54081072D01*
X41484523Y54081072D01*
X41560714Y54119167D01*
X41598809Y54157262D01*
X41636904Y54233453D01*
X41636904Y54423929D01*
X41598809Y54500120D01*
X41560714Y54538215D01*
X63696904Y56862024D02*
X64344523Y56862024D01*
X64420714Y56823929D01*
X64458809Y56785834D01*
X64496904Y56709643D01*
X64496904Y56557262D01*
X64458809Y56481072D01*
X64420714Y56442977D01*
X64344523Y56404881D01*
X63696904Y56404881D01*
X64496904Y55604881D02*
X64496904Y56062024D01*
X64496904Y55833453D02*
X63696904Y55833453D01*
X63811190Y55909643D01*
X63887380Y55985834D01*
X63925476Y56062024D01*
X63773095Y55300120D02*
X63735000Y55262024D01*
X63696904Y55185834D01*
X63696904Y54995358D01*
X63735000Y54919167D01*
X63773095Y54881072D01*
X63849285Y54842977D01*
X63925476Y54842977D01*
X64039761Y54881072D01*
X64496904Y55338215D01*
X64496904Y54842977D01*
X95337380Y59703691D02*
X96051666Y59703691D01*
X96194523Y59751310D01*
X96289761Y59846548D01*
X96337380Y59989405D01*
X96337380Y60084643D01*
X96337380Y58751310D02*
X96337380Y59227500D01*
X95337380Y59227500D01*
X96242142Y57846548D02*
X96289761Y57894167D01*
X96337380Y58037024D01*
X96337380Y58132262D01*
X96289761Y58275120D01*
X96194523Y58370358D01*
X96099285Y58417977D01*
X95908809Y58465596D01*
X95765952Y58465596D01*
X95575476Y58417977D01*
X95480238Y58370358D01*
X95385000Y58275120D01*
X95337380Y58132262D01*
X95337380Y58037024D01*
X95385000Y57894167D01*
X95432619Y57846548D01*
X95337380Y57132262D02*
X96051666Y57132262D01*
X96194523Y57179881D01*
X96289761Y57275120D01*
X96337380Y57417977D01*
X96337380Y57513215D01*
X96337380Y56179881D02*
X96337380Y56656072D01*
X95337380Y56656072D01*
X96242142Y55275120D02*
X96289761Y55322739D01*
X96337380Y55465596D01*
X96337380Y55560834D01*
X96289761Y55703691D01*
X96194523Y55798929D01*
X96099285Y55846548D01*
X95908809Y55894167D01*
X95765952Y55894167D01*
X95575476Y55846548D01*
X95480238Y55798929D01*
X95385000Y55703691D01*
X95337380Y55560834D01*
X95337380Y55465596D01*
X95385000Y55322739D01*
X95432619Y55275120D01*
X95337380Y54560834D02*
X96051666Y54560834D01*
X96194523Y54608453D01*
X96289761Y54703691D01*
X96337380Y54846548D01*
X96337380Y54941786D01*
X96337380Y53608453D02*
X96337380Y54084643D01*
X95337380Y54084643D01*
X96242142Y52703691D02*
X96289761Y52751310D01*
X96337380Y52894167D01*
X96337380Y52989405D01*
X96289761Y53132262D01*
X96194523Y53227500D01*
X96099285Y53275120D01*
X95908809Y53322739D01*
X95765952Y53322739D01*
X95575476Y53275120D01*
X95480238Y53227500D01*
X95385000Y53132262D01*
X95337380Y52989405D01*
X95337380Y52894167D01*
X95385000Y52751310D01*
X95432619Y52703691D01*
X95337380Y51989405D02*
X96051666Y51989405D01*
X96194523Y52037024D01*
X96289761Y52132262D01*
X96337380Y52275120D01*
X96337380Y52370358D01*
X96337380Y51037024D02*
X96337380Y51513215D01*
X95337380Y51513215D01*
X96242142Y50132262D02*
X96289761Y50179881D01*
X96337380Y50322739D01*
X96337380Y50417977D01*
X96289761Y50560834D01*
X96194523Y50656072D01*
X96099285Y50703691D01*
X95908809Y50751310D01*
X95765952Y50751310D01*
X95575476Y50703691D01*
X95480238Y50656072D01*
X95385000Y50560834D01*
X95337380Y50417977D01*
X95337380Y50322739D01*
X95385000Y50179881D01*
X95432619Y50132262D01*
X54336904Y65768929D02*
X53536904Y65768929D01*
X53536904Y65464167D01*
X53575000Y65387977D01*
X53613095Y65349881D01*
X53689285Y65311786D01*
X53803571Y65311786D01*
X53879761Y65349881D01*
X53917857Y65387977D01*
X53955952Y65464167D01*
X53955952Y65768929D01*
X53917857Y64702262D02*
X53955952Y64587977D01*
X53994047Y64549881D01*
X54070238Y64511786D01*
X54184523Y64511786D01*
X54260714Y64549881D01*
X54298809Y64587977D01*
X54336904Y64664167D01*
X54336904Y64968929D01*
X53536904Y64968929D01*
X53536904Y64702262D01*
X53575000Y64626072D01*
X53613095Y64587977D01*
X53689285Y64549881D01*
X53765476Y64549881D01*
X53841666Y64587977D01*
X53879761Y64626072D01*
X53917857Y64702262D01*
X53917857Y64968929D01*
X53803571Y63826072D02*
X54336904Y63826072D01*
X53498809Y64016548D02*
X54070238Y64207024D01*
X54070238Y63711786D01*
X72116904Y27668929D02*
X71316904Y27668929D01*
X71316904Y27364167D01*
X71355000Y27287977D01*
X71393095Y27249881D01*
X71469285Y27211786D01*
X71583571Y27211786D01*
X71659761Y27249881D01*
X71697857Y27287977D01*
X71735952Y27364167D01*
X71735952Y27668929D01*
X72040714Y26411786D02*
X72078809Y26449881D01*
X72116904Y26564167D01*
X72116904Y26640358D01*
X72078809Y26754643D01*
X72002619Y26830834D01*
X71926428Y26868929D01*
X71774047Y26907024D01*
X71659761Y26907024D01*
X71507380Y26868929D01*
X71431190Y26830834D01*
X71355000Y26754643D01*
X71316904Y26640358D01*
X71316904Y26564167D01*
X71355000Y26449881D01*
X71393095Y26411786D01*
X71316904Y26145120D02*
X71316904Y25611786D01*
X72116904Y25954643D01*
X76396904Y56862024D02*
X77044523Y56862024D01*
X77120714Y56823929D01*
X77158809Y56785834D01*
X77196904Y56709643D01*
X77196904Y56557262D01*
X77158809Y56481072D01*
X77120714Y56442977D01*
X77044523Y56404881D01*
X76396904Y56404881D01*
X77196904Y55604881D02*
X77196904Y56062024D01*
X77196904Y55833453D02*
X76396904Y55833453D01*
X76511190Y55909643D01*
X76587380Y55985834D01*
X76625476Y56062024D01*
X76663571Y54919167D02*
X77196904Y54919167D01*
X76358809Y55109643D02*
X76930238Y55300120D01*
X76930238Y54804881D01*
X39096904Y28316548D02*
X38296904Y28316548D01*
X39096904Y27859405D01*
X38296904Y27859405D01*
X39096904Y27021310D02*
X38715952Y27287977D01*
X39096904Y27478453D02*
X38296904Y27478453D01*
X38296904Y27173691D01*
X38335000Y27097500D01*
X38373095Y27059405D01*
X38449285Y27021310D01*
X38563571Y27021310D01*
X38639761Y27059405D01*
X38677857Y27097500D01*
X38715952Y27173691D01*
X38715952Y27478453D01*
X39058809Y26716548D02*
X39096904Y26602262D01*
X39096904Y26411786D01*
X39058809Y26335596D01*
X39020714Y26297500D01*
X38944523Y26259405D01*
X38868333Y26259405D01*
X38792142Y26297500D01*
X38754047Y26335596D01*
X38715952Y26411786D01*
X38677857Y26564167D01*
X38639761Y26640358D01*
X38601666Y26678453D01*
X38525476Y26716548D01*
X38449285Y26716548D01*
X38373095Y26678453D01*
X38335000Y26640358D01*
X38296904Y26564167D01*
X38296904Y26373691D01*
X38335000Y26259405D01*
X38296904Y26030834D02*
X38296904Y25573691D01*
X39096904Y25802262D02*
X38296904Y25802262D01*
X35795000Y56442977D02*
X35756904Y56519167D01*
X35756904Y56633453D01*
X35795000Y56747739D01*
X35871190Y56823929D01*
X35947380Y56862024D01*
X36099761Y56900120D01*
X36214047Y56900120D01*
X36366428Y56862024D01*
X36442619Y56823929D01*
X36518809Y56747739D01*
X36556904Y56633453D01*
X36556904Y56557262D01*
X36518809Y56442977D01*
X36480714Y56404881D01*
X36214047Y56404881D01*
X36214047Y56557262D01*
X36556904Y56062024D02*
X35756904Y56062024D01*
X36556904Y55604881D01*
X35756904Y55604881D01*
X36556904Y55223929D02*
X35756904Y55223929D01*
X35756904Y55033453D01*
X35795000Y54919167D01*
X35871190Y54842977D01*
X35947380Y54804881D01*
X36099761Y54766786D01*
X36214047Y54766786D01*
X36366428Y54804881D01*
X36442619Y54842977D01*
X36518809Y54919167D01*
X36556904Y55033453D01*
X36556904Y55223929D01*
X69576904Y56862024D02*
X68776904Y56862024D01*
X68776904Y56557262D01*
X68815000Y56481072D01*
X68853095Y56442977D01*
X68929285Y56404881D01*
X69043571Y56404881D01*
X69119761Y56442977D01*
X69157857Y56481072D01*
X69195952Y56557262D01*
X69195952Y56862024D01*
X69348333Y56100120D02*
X69348333Y55719167D01*
X69576904Y56176310D02*
X68776904Y55909643D01*
X69576904Y55642977D01*
X69576904Y54957262D02*
X69576904Y55414405D01*
X69576904Y55185834D02*
X68776904Y55185834D01*
X68891190Y55262024D01*
X68967380Y55338215D01*
X69005476Y55414405D01*
X68776904Y54690596D02*
X68776904Y54195358D01*
X69081666Y54462024D01*
X69081666Y54347739D01*
X69119761Y54271548D01*
X69157857Y54233453D01*
X69234047Y54195358D01*
X69424523Y54195358D01*
X69500714Y54233453D01*
X69538809Y54271548D01*
X69576904Y54347739D01*
X69576904Y54576310D01*
X69538809Y54652500D01*
X69500714Y54690596D01*
X51796904Y18762024D02*
X50996904Y18762024D01*
X50996904Y18457262D01*
X51035000Y18381072D01*
X51073095Y18342977D01*
X51149285Y18304881D01*
X51263571Y18304881D01*
X51339761Y18342977D01*
X51377857Y18381072D01*
X51415952Y18457262D01*
X51415952Y18762024D01*
X51568333Y18000120D02*
X51568333Y17619167D01*
X51796904Y18076310D02*
X50996904Y17809643D01*
X51796904Y17542977D01*
X51263571Y16933453D02*
X51796904Y16933453D01*
X50958809Y17123929D02*
X51530238Y17314405D01*
X51530238Y16819167D01*
X81476904Y66073691D02*
X81476904Y65578453D01*
X81781666Y65845120D01*
X81781666Y65730834D01*
X81819761Y65654643D01*
X81857857Y65616548D01*
X81934047Y65578453D01*
X82124523Y65578453D01*
X82200714Y65616548D01*
X82238809Y65654643D01*
X82276904Y65730834D01*
X82276904Y65959405D01*
X82238809Y66035596D01*
X82200714Y66073691D01*
X82200714Y65235596D02*
X82238809Y65197500D01*
X82276904Y65235596D01*
X82238809Y65273691D01*
X82200714Y65235596D01*
X82276904Y65235596D01*
X81476904Y64930834D02*
X81476904Y64435596D01*
X81781666Y64702262D01*
X81781666Y64587977D01*
X81819761Y64511786D01*
X81857857Y64473691D01*
X81934047Y64435596D01*
X82124523Y64435596D01*
X82200714Y64473691D01*
X82238809Y64511786D01*
X82276904Y64587977D01*
X82276904Y64816548D01*
X82238809Y64892739D01*
X82200714Y64930834D01*
X81476904Y64207024D02*
X82276904Y63940358D01*
X81476904Y63673691D01*
X67036904Y18762024D02*
X66236904Y18762024D01*
X66236904Y18457262D01*
X66275000Y18381072D01*
X66313095Y18342977D01*
X66389285Y18304881D01*
X66503571Y18304881D01*
X66579761Y18342977D01*
X66617857Y18381072D01*
X66655952Y18457262D01*
X66655952Y18762024D01*
X66617857Y17695358D02*
X66655952Y17581072D01*
X66694047Y17542977D01*
X66770238Y17504881D01*
X66884523Y17504881D01*
X66960714Y17542977D01*
X66998809Y17581072D01*
X67036904Y17657262D01*
X67036904Y17962024D01*
X66236904Y17962024D01*
X66236904Y17695358D01*
X66275000Y17619167D01*
X66313095Y17581072D01*
X66389285Y17542977D01*
X66465476Y17542977D01*
X66541666Y17581072D01*
X66579761Y17619167D01*
X66617857Y17695358D01*
X66617857Y17962024D01*
X67036904Y16742977D02*
X67036904Y17200120D01*
X67036904Y16971548D02*
X66236904Y16971548D01*
X66351190Y17047739D01*
X66427380Y17123929D01*
X66465476Y17200120D01*
X66313095Y16438215D02*
X66275000Y16400120D01*
X66236904Y16323929D01*
X66236904Y16133453D01*
X66275000Y16057262D01*
X66313095Y16019167D01*
X66389285Y15981072D01*
X66465476Y15981072D01*
X66579761Y16019167D01*
X67036904Y16476310D01*
X67036904Y15981072D01*
X72116904Y18762024D02*
X71316904Y18762024D01*
X71316904Y18457262D01*
X71355000Y18381072D01*
X71393095Y18342977D01*
X71469285Y18304881D01*
X71583571Y18304881D01*
X71659761Y18342977D01*
X71697857Y18381072D01*
X71735952Y18457262D01*
X71735952Y18762024D01*
X72040714Y17504881D02*
X72078809Y17542977D01*
X72116904Y17657262D01*
X72116904Y17733453D01*
X72078809Y17847739D01*
X72002619Y17923929D01*
X71926428Y17962024D01*
X71774047Y18000120D01*
X71659761Y18000120D01*
X71507380Y17962024D01*
X71431190Y17923929D01*
X71355000Y17847739D01*
X71316904Y17733453D01*
X71316904Y17657262D01*
X71355000Y17542977D01*
X71393095Y17504881D01*
X71316904Y16819167D02*
X71316904Y16971548D01*
X71355000Y17047739D01*
X71393095Y17085834D01*
X71507380Y17162024D01*
X71659761Y17200120D01*
X71964523Y17200120D01*
X72040714Y17162024D01*
X72078809Y17123929D01*
X72116904Y17047739D01*
X72116904Y16895358D01*
X72078809Y16819167D01*
X72040714Y16781072D01*
X71964523Y16742977D01*
X71774047Y16742977D01*
X71697857Y16781072D01*
X71659761Y16819167D01*
X71621666Y16895358D01*
X71621666Y17047739D01*
X71659761Y17123929D01*
X71697857Y17162024D01*
X71774047Y17200120D01*
X76396904Y18762024D02*
X77044523Y18762024D01*
X77120714Y18723929D01*
X77158809Y18685834D01*
X77196904Y18609643D01*
X77196904Y18457262D01*
X77158809Y18381072D01*
X77120714Y18342977D01*
X77044523Y18304881D01*
X76396904Y18304881D01*
X77196904Y17504881D02*
X77196904Y17962024D01*
X77196904Y17733453D02*
X76396904Y17733453D01*
X76511190Y17809643D01*
X76587380Y17885834D01*
X76625476Y17962024D01*
X40836904Y65007024D02*
X41484523Y65007024D01*
X41560714Y64968929D01*
X41598809Y64930834D01*
X41636904Y64854643D01*
X41636904Y64702262D01*
X41598809Y64626072D01*
X41560714Y64587977D01*
X41484523Y64549881D01*
X40836904Y64549881D01*
X40836904Y64245120D02*
X40836904Y63711786D01*
X41636904Y64054643D01*
X61956904Y18762024D02*
X61156904Y18762024D01*
X61156904Y18457262D01*
X61195000Y18381072D01*
X61233095Y18342977D01*
X61309285Y18304881D01*
X61423571Y18304881D01*
X61499761Y18342977D01*
X61537857Y18381072D01*
X61575952Y18457262D01*
X61575952Y18762024D01*
X61537857Y17695358D02*
X61575952Y17581072D01*
X61614047Y17542977D01*
X61690238Y17504881D01*
X61804523Y17504881D01*
X61880714Y17542977D01*
X61918809Y17581072D01*
X61956904Y17657262D01*
X61956904Y17962024D01*
X61156904Y17962024D01*
X61156904Y17695358D01*
X61195000Y17619167D01*
X61233095Y17581072D01*
X61309285Y17542977D01*
X61385476Y17542977D01*
X61461666Y17581072D01*
X61499761Y17619167D01*
X61537857Y17695358D01*
X61537857Y17962024D01*
X61233095Y17200120D02*
X61195000Y17162024D01*
X61156904Y17085834D01*
X61156904Y16895358D01*
X61195000Y16819167D01*
X61233095Y16781072D01*
X61309285Y16742977D01*
X61385476Y16742977D01*
X61499761Y16781072D01*
X61956904Y17238215D01*
X61956904Y16742977D01*
X45916904Y56862024D02*
X46564523Y56862024D01*
X46640714Y56823929D01*
X46678809Y56785834D01*
X46716904Y56709643D01*
X46716904Y56557262D01*
X46678809Y56481072D01*
X46640714Y56442977D01*
X46564523Y56404881D01*
X45916904Y56404881D01*
X46716904Y55604881D02*
X46716904Y56062024D01*
X46716904Y55833453D02*
X45916904Y55833453D01*
X46031190Y55909643D01*
X46107380Y55985834D01*
X46145476Y56062024D01*
X45916904Y55109643D02*
X45916904Y55033453D01*
X45955000Y54957262D01*
X45993095Y54919167D01*
X46069285Y54881072D01*
X46221666Y54842977D01*
X46412142Y54842977D01*
X46564523Y54881072D01*
X46640714Y54919167D01*
X46678809Y54957262D01*
X46716904Y55033453D01*
X46716904Y55109643D01*
X46678809Y55185834D01*
X46640714Y55223929D01*
X46564523Y55262024D01*
X46412142Y55300120D01*
X46221666Y55300120D01*
X46069285Y55262024D01*
X45993095Y55223929D01*
X45955000Y55185834D01*
X45916904Y55109643D01*
D11*
G04 #@! TO.C,JP2*
X54105000Y37800000D02*
X54105000Y38400000D01*
X53405000Y39100000D02*
X52005000Y39100000D01*
X51305000Y38400000D02*
X51305000Y37800000D01*
X52005000Y37100000D02*
X53405000Y37100000D01*
X52005000Y39100000D02*
G75*
G03*
X51305000Y38400000I0J-700000D01*
G01*
X53405000Y37100000D02*
G75*
G03*
X54105000Y37800000I1J699999D01*
G01*
X51305000Y37800000D02*
G75*
G03*
X52005000Y37100000I700000J0D01*
G01*
X54105000Y38400000D02*
G75*
G03*
X53405000Y39100000I-699999J1D01*
G01*
G04 #@! TO.C,JP1*
X52005000Y42180000D02*
X53405000Y42180000D01*
X53405000Y44180000D02*
X52005000Y44180000D01*
X54105000Y42880000D02*
X54105000Y43480000D01*
X51305000Y43480000D02*
X51305000Y42880000D01*
X53405000Y42180000D02*
G75*
G03*
X54105000Y42880000I0J700000D01*
G01*
X54105000Y43480000D02*
G75*
G03*
X53405000Y44180000I-700000J0D01*
G01*
X51305000Y42880000D02*
G75*
G03*
X52005000Y42180000I699999J-1D01*
G01*
X52005000Y44180000D02*
G75*
G03*
X51305000Y43480000I-1J-699999D01*
G01*
G04 #@! TD*
M02*
