%TF.GenerationSoftware,KiCad,Pcbnew,6.0.7+dfsg-1+b1*%
%TF.CreationDate,2022-09-14T16:01:16+08:00*%
%TF.ProjectId,mcustm32f405,6d637573-746d-4333-9266-3430352e6b69,a*%
%TF.SameCoordinates,PX5ddd8a8PY82334c8*%
%TF.FileFunction,Soldermask,Bot*%
%TF.FilePolarity,Negative*%
%FSLAX46Y46*%
G04 Gerber Fmt 4.6, Leading zero omitted, Abs format (unit mm)*
G04 Created by KiCad (PCBNEW 6.0.7+dfsg-1+b1) date 2022-09-14 16:01:16*
%MOMM*%
%LPD*%
G01*
G04 APERTURE LIST*
G04 Aperture macros list*
%AMFreePoly0*
4,1,22,0.500000,-0.750000,0.000000,-0.750000,0.000000,-0.745033,-0.079941,-0.743568,-0.215256,-0.701293,-0.333266,-0.622738,-0.424486,-0.514219,-0.481581,-0.384460,-0.499164,-0.250000,-0.500000,-0.250000,-0.500000,0.250000,-0.499164,0.250000,-0.499963,0.256109,-0.478152,0.396186,-0.417904,0.524511,-0.324060,0.630769,-0.204165,0.706417,-0.067858,0.745374,0.000000,0.744959,0.000000,0.750000,
0.500000,0.750000,0.500000,-0.750000,0.500000,-0.750000,$1*%
%AMFreePoly1*
4,1,20,0.000000,0.744959,0.073905,0.744508,0.209726,0.703889,0.328688,0.626782,0.421226,0.519385,0.479903,0.390333,0.500000,0.250000,0.500000,-0.250000,0.499851,-0.262216,0.476331,-0.402017,0.414519,-0.529596,0.319384,-0.634700,0.198574,-0.708877,0.061801,-0.746166,0.000000,-0.745033,0.000000,-0.750000,-0.500000,-0.750000,-0.500000,0.750000,0.000000,0.750000,0.000000,0.744959,
0.000000,0.744959,$1*%
G04 Aperture macros list end*
%ADD10C,0.650000*%
%ADD11O,2.100000X1.000000*%
%ADD12O,1.600000X1.000000*%
%ADD13C,3.200000*%
%ADD14R,1.700000X1.700000*%
%ADD15C,1.700000*%
%ADD16FreePoly0,180.000000*%
%ADD17FreePoly1,180.000000*%
G04 APERTURE END LIST*
D10*
%TO.C,J1*%
X85665000Y37815000D03*
X85665000Y32035000D03*
D11*
X85135000Y30605000D03*
X85135000Y39245000D03*
D12*
X89315000Y30605000D03*
X89315000Y39245000D03*
%TD*%
D13*
%TO.C,J2*%
X19685000Y56515000D03*
X88265000Y56515000D03*
X88265000Y13335000D03*
X19685000Y13335000D03*
D14*
X29845000Y14605000D03*
D15*
X29845000Y17145000D03*
X32385000Y14605000D03*
X32385000Y17145000D03*
X34925000Y14605000D03*
X34925000Y17145000D03*
X37465000Y14605000D03*
X37465000Y17145000D03*
X40005000Y14605000D03*
X40005000Y17145000D03*
X42545000Y14605000D03*
X42545000Y17145000D03*
X45085000Y14605000D03*
X45085000Y17145000D03*
X47625000Y14605000D03*
X47625000Y17145000D03*
X50165000Y14605000D03*
X50165000Y17145000D03*
X52705000Y14605000D03*
X52705000Y17145000D03*
X55245000Y14605000D03*
X55245000Y17145000D03*
X57785000Y14605000D03*
X57785000Y17145000D03*
X60325000Y14605000D03*
X60325000Y17145000D03*
X62865000Y14605000D03*
X62865000Y17145000D03*
X65405000Y14605000D03*
X65405000Y17145000D03*
X67945000Y14605000D03*
X67945000Y17145000D03*
X70485000Y14605000D03*
X70485000Y17145000D03*
X73025000Y14605000D03*
X73025000Y17145000D03*
X75565000Y14605000D03*
X75565000Y17145000D03*
X78105000Y14605000D03*
X78105000Y17145000D03*
D14*
X78105000Y55245000D03*
D15*
X78105000Y52705000D03*
X75565000Y55245000D03*
X75565000Y52705000D03*
X73025000Y55245000D03*
X73025000Y52705000D03*
X70485000Y55245000D03*
X70485000Y52705000D03*
X67945000Y55245000D03*
X67945000Y52705000D03*
X65405000Y55245000D03*
X65405000Y52705000D03*
X62865000Y55245000D03*
X62865000Y52705000D03*
X60325000Y55245000D03*
X60325000Y52705000D03*
X57785000Y55245000D03*
X57785000Y52705000D03*
X55245000Y55245000D03*
X55245000Y52705000D03*
X52705000Y55245000D03*
X52705000Y52705000D03*
X50165000Y55245000D03*
X50165000Y52705000D03*
X47625000Y55245000D03*
X47625000Y52705000D03*
X45085000Y55245000D03*
X45085000Y52705000D03*
X42545000Y55245000D03*
X42545000Y52705000D03*
X40005000Y55245000D03*
X40005000Y52705000D03*
X37465000Y55245000D03*
X37465000Y52705000D03*
X34925000Y55245000D03*
X34925000Y52705000D03*
X32385000Y55245000D03*
X32385000Y52705000D03*
X29845000Y55245000D03*
X29845000Y52705000D03*
%TD*%
D16*
%TO.C,JP2*%
X47005000Y31750000D03*
D17*
X45705000Y31750000D03*
%TD*%
D16*
%TO.C,JP1*%
X47005000Y36830000D03*
D17*
X45705000Y36830000D03*
%TD*%
M02*
