G04 #@! TF.GenerationSoftware,KiCad,Pcbnew,6.0.7+dfsg-1+b1*
G04 #@! TF.CreationDate,2022-09-09T23:58:58+08:00*
G04 #@! TF.ProjectId,prgstl,70726773-746c-42e6-9b69-6361645f7063,a*
G04 #@! TF.SameCoordinates,Original*
G04 #@! TF.FileFunction,Legend,Top*
G04 #@! TF.FilePolarity,Positive*
%FSLAX46Y46*%
G04 Gerber Fmt 4.6, Leading zero omitted, Abs format (unit mm)*
G04 Created by KiCad (PCBNEW 6.0.7+dfsg-1+b1) date 2022-09-09 23:58:58*
%MOMM*%
%LPD*%
G01*
G04 APERTURE LIST*
%ADD10C,0.150000*%
%ADD11C,0.120000*%
G04 APERTURE END LIST*
D10*
X124961904Y-99891904D02*
X124961904Y-100539523D01*
X125000000Y-100615714D01*
X125038095Y-100653809D01*
X125114285Y-100691904D01*
X125266666Y-100691904D01*
X125342857Y-100653809D01*
X125380952Y-100615714D01*
X125419047Y-100539523D01*
X125419047Y-99891904D01*
X125761904Y-100653809D02*
X125876190Y-100691904D01*
X126066666Y-100691904D01*
X126142857Y-100653809D01*
X126180952Y-100615714D01*
X126219047Y-100539523D01*
X126219047Y-100463333D01*
X126180952Y-100387142D01*
X126142857Y-100349047D01*
X126066666Y-100310952D01*
X125914285Y-100272857D01*
X125838095Y-100234761D01*
X125800000Y-100196666D01*
X125761904Y-100120476D01*
X125761904Y-100044285D01*
X125800000Y-99968095D01*
X125838095Y-99930000D01*
X125914285Y-99891904D01*
X126104761Y-99891904D01*
X126219047Y-99930000D01*
X126523809Y-100463333D02*
X126904761Y-100463333D01*
X126447619Y-100691904D02*
X126714285Y-99891904D01*
X126980952Y-100691904D01*
X127704761Y-100691904D02*
X127438095Y-100310952D01*
X127247619Y-100691904D02*
X127247619Y-99891904D01*
X127552380Y-99891904D01*
X127628571Y-99930000D01*
X127666666Y-99968095D01*
X127704761Y-100044285D01*
X127704761Y-100158571D01*
X127666666Y-100234761D01*
X127628571Y-100272857D01*
X127552380Y-100310952D01*
X127247619Y-100310952D01*
X127933333Y-99891904D02*
X128390476Y-99891904D01*
X128161904Y-100691904D02*
X128161904Y-99891904D01*
X129076190Y-100691904D02*
X128619047Y-100691904D01*
X128847619Y-100691904D02*
X128847619Y-99891904D01*
X128771428Y-100006190D01*
X128695238Y-100082380D01*
X128619047Y-100120476D01*
X124961904Y-104971904D02*
X124961904Y-105619523D01*
X125000000Y-105695714D01*
X125038095Y-105733809D01*
X125114285Y-105771904D01*
X125266666Y-105771904D01*
X125342857Y-105733809D01*
X125380952Y-105695714D01*
X125419047Y-105619523D01*
X125419047Y-104971904D01*
X125761904Y-105733809D02*
X125876190Y-105771904D01*
X126066666Y-105771904D01*
X126142857Y-105733809D01*
X126180952Y-105695714D01*
X126219047Y-105619523D01*
X126219047Y-105543333D01*
X126180952Y-105467142D01*
X126142857Y-105429047D01*
X126066666Y-105390952D01*
X125914285Y-105352857D01*
X125838095Y-105314761D01*
X125800000Y-105276666D01*
X125761904Y-105200476D01*
X125761904Y-105124285D01*
X125800000Y-105048095D01*
X125838095Y-105010000D01*
X125914285Y-104971904D01*
X126104761Y-104971904D01*
X126219047Y-105010000D01*
X126523809Y-105543333D02*
X126904761Y-105543333D01*
X126447619Y-105771904D02*
X126714285Y-104971904D01*
X126980952Y-105771904D01*
X127704761Y-105771904D02*
X127438095Y-105390952D01*
X127247619Y-105771904D02*
X127247619Y-104971904D01*
X127552380Y-104971904D01*
X127628571Y-105010000D01*
X127666666Y-105048095D01*
X127704761Y-105124285D01*
X127704761Y-105238571D01*
X127666666Y-105314761D01*
X127628571Y-105352857D01*
X127552380Y-105390952D01*
X127247619Y-105390952D01*
X127933333Y-104971904D02*
X128390476Y-104971904D01*
X128161904Y-105771904D02*
X128161904Y-104971904D01*
X128619047Y-105048095D02*
X128657142Y-105010000D01*
X128733333Y-104971904D01*
X128923809Y-104971904D01*
X129000000Y-105010000D01*
X129038095Y-105048095D01*
X129076190Y-105124285D01*
X129076190Y-105200476D01*
X129038095Y-105314761D01*
X128580952Y-105771904D01*
X129076190Y-105771904D01*
X124961904Y-107511904D02*
X124961904Y-108159523D01*
X125000000Y-108235714D01*
X125038095Y-108273809D01*
X125114285Y-108311904D01*
X125266666Y-108311904D01*
X125342857Y-108273809D01*
X125380952Y-108235714D01*
X125419047Y-108159523D01*
X125419047Y-107511904D01*
X125761904Y-108273809D02*
X125876190Y-108311904D01*
X126066666Y-108311904D01*
X126142857Y-108273809D01*
X126180952Y-108235714D01*
X126219047Y-108159523D01*
X126219047Y-108083333D01*
X126180952Y-108007142D01*
X126142857Y-107969047D01*
X126066666Y-107930952D01*
X125914285Y-107892857D01*
X125838095Y-107854761D01*
X125800000Y-107816666D01*
X125761904Y-107740476D01*
X125761904Y-107664285D01*
X125800000Y-107588095D01*
X125838095Y-107550000D01*
X125914285Y-107511904D01*
X126104761Y-107511904D01*
X126219047Y-107550000D01*
X126523809Y-108083333D02*
X126904761Y-108083333D01*
X126447619Y-108311904D02*
X126714285Y-107511904D01*
X126980952Y-108311904D01*
X127704761Y-108311904D02*
X127438095Y-107930952D01*
X127247619Y-108311904D02*
X127247619Y-107511904D01*
X127552380Y-107511904D01*
X127628571Y-107550000D01*
X127666666Y-107588095D01*
X127704761Y-107664285D01*
X127704761Y-107778571D01*
X127666666Y-107854761D01*
X127628571Y-107892857D01*
X127552380Y-107930952D01*
X127247619Y-107930952D01*
X127933333Y-107511904D02*
X128390476Y-107511904D01*
X128161904Y-108311904D02*
X128161904Y-107511904D01*
X128580952Y-107511904D02*
X129076190Y-107511904D01*
X128809523Y-107816666D01*
X128923809Y-107816666D01*
X129000000Y-107854761D01*
X129038095Y-107892857D01*
X129076190Y-107969047D01*
X129076190Y-108159523D01*
X129038095Y-108235714D01*
X129000000Y-108273809D01*
X128923809Y-108311904D01*
X128695238Y-108311904D01*
X128619047Y-108273809D01*
X128580952Y-108235714D01*
X123685714Y-102431904D02*
X123685714Y-103079523D01*
X123723809Y-103155714D01*
X123761904Y-103193809D01*
X123838095Y-103231904D01*
X123990476Y-103231904D01*
X124066666Y-103193809D01*
X124104761Y-103155714D01*
X124142857Y-103079523D01*
X124142857Y-102431904D01*
X124485714Y-103193809D02*
X124600000Y-103231904D01*
X124790476Y-103231904D01*
X124866666Y-103193809D01*
X124904761Y-103155714D01*
X124942857Y-103079523D01*
X124942857Y-103003333D01*
X124904761Y-102927142D01*
X124866666Y-102889047D01*
X124790476Y-102850952D01*
X124638095Y-102812857D01*
X124561904Y-102774761D01*
X124523809Y-102736666D01*
X124485714Y-102660476D01*
X124485714Y-102584285D01*
X124523809Y-102508095D01*
X124561904Y-102470000D01*
X124638095Y-102431904D01*
X124828571Y-102431904D01*
X124942857Y-102470000D01*
X125247619Y-103003333D02*
X125628571Y-103003333D01*
X125171428Y-103231904D02*
X125438095Y-102431904D01*
X125704761Y-103231904D01*
X126428571Y-103231904D02*
X126161904Y-102850952D01*
X125971428Y-103231904D02*
X125971428Y-102431904D01*
X126276190Y-102431904D01*
X126352380Y-102470000D01*
X126390476Y-102508095D01*
X126428571Y-102584285D01*
X126428571Y-102698571D01*
X126390476Y-102774761D01*
X126352380Y-102812857D01*
X126276190Y-102850952D01*
X125971428Y-102850952D01*
X126657142Y-102431904D02*
X127114285Y-102431904D01*
X126885714Y-103231904D02*
X126885714Y-102431904D01*
X127800000Y-103231904D02*
X127342857Y-103231904D01*
X127571428Y-103231904D02*
X127571428Y-102431904D01*
X127495238Y-102546190D01*
X127419047Y-102622380D01*
X127342857Y-102660476D01*
X127952380Y-103308095D02*
X128561904Y-103308095D01*
X128714285Y-103003333D02*
X129095238Y-103003333D01*
X128638095Y-103231904D02*
X128904761Y-102431904D01*
X129171428Y-103231904D01*
X129819047Y-103231904D02*
X129438095Y-103231904D01*
X129438095Y-102431904D01*
X129971428Y-102431904D02*
X130428571Y-102431904D01*
X130200000Y-103231904D02*
X130200000Y-102431904D01*
X131946666Y-98786904D02*
X131680000Y-98405952D01*
X131489523Y-98786904D02*
X131489523Y-97986904D01*
X131794285Y-97986904D01*
X131870476Y-98025000D01*
X131908571Y-98063095D01*
X131946666Y-98139285D01*
X131946666Y-98253571D01*
X131908571Y-98329761D01*
X131870476Y-98367857D01*
X131794285Y-98405952D01*
X131489523Y-98405952D01*
X132213333Y-97986904D02*
X132746666Y-98786904D01*
X132746666Y-97986904D02*
X132213333Y-98786904D01*
X121310476Y-97986904D02*
X121767619Y-97986904D01*
X121539047Y-98786904D02*
X121539047Y-97986904D01*
X121958095Y-97986904D02*
X122491428Y-98786904D01*
X122491428Y-97986904D02*
X121958095Y-98786904D01*
G04 #@! TO.C,D4*
X186586904Y-109672380D02*
X186586904Y-108672380D01*
X186825000Y-108672380D01*
X186967857Y-108720000D01*
X187063095Y-108815238D01*
X187110714Y-108910476D01*
X187158333Y-109100952D01*
X187158333Y-109243809D01*
X187110714Y-109434285D01*
X187063095Y-109529523D01*
X186967857Y-109624761D01*
X186825000Y-109672380D01*
X186586904Y-109672380D01*
X188015476Y-109005714D02*
X188015476Y-109672380D01*
X187777380Y-108624761D02*
X187539285Y-109339047D01*
X188158333Y-109339047D01*
G04 #@! TO.C,J1*
X186777380Y-101933333D02*
X187491666Y-101933333D01*
X187634523Y-101980952D01*
X187729761Y-102076190D01*
X187777380Y-102219047D01*
X187777380Y-102314285D01*
X187777380Y-100933333D02*
X187777380Y-101504761D01*
X187777380Y-101219047D02*
X186777380Y-101219047D01*
X186920238Y-101314285D01*
X187015476Y-101409523D01*
X187063095Y-101504761D01*
G04 #@! TO.C,C3*
X155932142Y-92241666D02*
X155979761Y-92289285D01*
X156027380Y-92432142D01*
X156027380Y-92527380D01*
X155979761Y-92670238D01*
X155884523Y-92765476D01*
X155789285Y-92813095D01*
X155598809Y-92860714D01*
X155455952Y-92860714D01*
X155265476Y-92813095D01*
X155170238Y-92765476D01*
X155075000Y-92670238D01*
X155027380Y-92527380D01*
X155027380Y-92432142D01*
X155075000Y-92289285D01*
X155122619Y-92241666D01*
X155027380Y-91908333D02*
X155027380Y-91289285D01*
X155408333Y-91622619D01*
X155408333Y-91479761D01*
X155455952Y-91384523D01*
X155503571Y-91336904D01*
X155598809Y-91289285D01*
X155836904Y-91289285D01*
X155932142Y-91336904D01*
X155979761Y-91384523D01*
X156027380Y-91479761D01*
X156027380Y-91765476D01*
X155979761Y-91860714D01*
X155932142Y-91908333D01*
G04 #@! TO.C,C4*
X164222142Y-92486666D02*
X164269761Y-92534285D01*
X164317380Y-92677142D01*
X164317380Y-92772380D01*
X164269761Y-92915238D01*
X164174523Y-93010476D01*
X164079285Y-93058095D01*
X163888809Y-93105714D01*
X163745952Y-93105714D01*
X163555476Y-93058095D01*
X163460238Y-93010476D01*
X163365000Y-92915238D01*
X163317380Y-92772380D01*
X163317380Y-92677142D01*
X163365000Y-92534285D01*
X163412619Y-92486666D01*
X163650714Y-91629523D02*
X164317380Y-91629523D01*
X163269761Y-91867619D02*
X163984047Y-92105714D01*
X163984047Y-91486666D01*
G04 #@! TO.C,C5*
X152122142Y-111291666D02*
X152169761Y-111339285D01*
X152217380Y-111482142D01*
X152217380Y-111577380D01*
X152169761Y-111720238D01*
X152074523Y-111815476D01*
X151979285Y-111863095D01*
X151788809Y-111910714D01*
X151645952Y-111910714D01*
X151455476Y-111863095D01*
X151360238Y-111815476D01*
X151265000Y-111720238D01*
X151217380Y-111577380D01*
X151217380Y-111482142D01*
X151265000Y-111339285D01*
X151312619Y-111291666D01*
X151217380Y-110386904D02*
X151217380Y-110863095D01*
X151693571Y-110910714D01*
X151645952Y-110863095D01*
X151598333Y-110767857D01*
X151598333Y-110529761D01*
X151645952Y-110434523D01*
X151693571Y-110386904D01*
X151788809Y-110339285D01*
X152026904Y-110339285D01*
X152122142Y-110386904D01*
X152169761Y-110434523D01*
X152217380Y-110529761D01*
X152217380Y-110767857D01*
X152169761Y-110863095D01*
X152122142Y-110910714D01*
G04 #@! TO.C,C7*
X163552142Y-111291666D02*
X163599761Y-111339285D01*
X163647380Y-111482142D01*
X163647380Y-111577380D01*
X163599761Y-111720238D01*
X163504523Y-111815476D01*
X163409285Y-111863095D01*
X163218809Y-111910714D01*
X163075952Y-111910714D01*
X162885476Y-111863095D01*
X162790238Y-111815476D01*
X162695000Y-111720238D01*
X162647380Y-111577380D01*
X162647380Y-111482142D01*
X162695000Y-111339285D01*
X162742619Y-111291666D01*
X162647380Y-110958333D02*
X162647380Y-110291666D01*
X163647380Y-110720238D01*
G04 #@! TO.C,U1*
X176403095Y-106767380D02*
X176403095Y-107576904D01*
X176450714Y-107672142D01*
X176498333Y-107719761D01*
X176593571Y-107767380D01*
X176784047Y-107767380D01*
X176879285Y-107719761D01*
X176926904Y-107672142D01*
X176974523Y-107576904D01*
X176974523Y-106767380D01*
X177974523Y-107767380D02*
X177403095Y-107767380D01*
X177688809Y-107767380D02*
X177688809Y-106767380D01*
X177593571Y-106910238D01*
X177498333Y-107005476D01*
X177403095Y-107053095D01*
G04 #@! TO.C,C1*
X183237142Y-115736666D02*
X183284761Y-115784285D01*
X183332380Y-115927142D01*
X183332380Y-116022380D01*
X183284761Y-116165238D01*
X183189523Y-116260476D01*
X183094285Y-116308095D01*
X182903809Y-116355714D01*
X182760952Y-116355714D01*
X182570476Y-116308095D01*
X182475238Y-116260476D01*
X182380000Y-116165238D01*
X182332380Y-116022380D01*
X182332380Y-115927142D01*
X182380000Y-115784285D01*
X182427619Y-115736666D01*
X183332380Y-114784285D02*
X183332380Y-115355714D01*
X183332380Y-115070000D02*
X182332380Y-115070000D01*
X182475238Y-115165238D01*
X182570476Y-115260476D01*
X182618095Y-115355714D01*
G04 #@! TO.C,D1*
X114831904Y-89987380D02*
X114831904Y-88987380D01*
X115070000Y-88987380D01*
X115212857Y-89035000D01*
X115308095Y-89130238D01*
X115355714Y-89225476D01*
X115403333Y-89415952D01*
X115403333Y-89558809D01*
X115355714Y-89749285D01*
X115308095Y-89844523D01*
X115212857Y-89939761D01*
X115070000Y-89987380D01*
X114831904Y-89987380D01*
X116355714Y-89987380D02*
X115784285Y-89987380D01*
X116070000Y-89987380D02*
X116070000Y-88987380D01*
X115974761Y-89130238D01*
X115879523Y-89225476D01*
X115784285Y-89273095D01*
G04 #@! TO.C,R1*
X123658333Y-89987380D02*
X123325000Y-89511190D01*
X123086904Y-89987380D02*
X123086904Y-88987380D01*
X123467857Y-88987380D01*
X123563095Y-89035000D01*
X123610714Y-89082619D01*
X123658333Y-89177857D01*
X123658333Y-89320714D01*
X123610714Y-89415952D01*
X123563095Y-89463571D01*
X123467857Y-89511190D01*
X123086904Y-89511190D01*
X124610714Y-89987380D02*
X124039285Y-89987380D01*
X124325000Y-89987380D02*
X124325000Y-88987380D01*
X124229761Y-89130238D01*
X124134523Y-89225476D01*
X124039285Y-89273095D01*
G04 #@! TO.C,C9*
X145772142Y-99861666D02*
X145819761Y-99909285D01*
X145867380Y-100052142D01*
X145867380Y-100147380D01*
X145819761Y-100290238D01*
X145724523Y-100385476D01*
X145629285Y-100433095D01*
X145438809Y-100480714D01*
X145295952Y-100480714D01*
X145105476Y-100433095D01*
X145010238Y-100385476D01*
X144915000Y-100290238D01*
X144867380Y-100147380D01*
X144867380Y-100052142D01*
X144915000Y-99909285D01*
X144962619Y-99861666D01*
X145867380Y-99385476D02*
X145867380Y-99195000D01*
X145819761Y-99099761D01*
X145772142Y-99052142D01*
X145629285Y-98956904D01*
X145438809Y-98909285D01*
X145057857Y-98909285D01*
X144962619Y-98956904D01*
X144915000Y-99004523D01*
X144867380Y-99099761D01*
X144867380Y-99290238D01*
X144915000Y-99385476D01*
X144962619Y-99433095D01*
X145057857Y-99480714D01*
X145295952Y-99480714D01*
X145391190Y-99433095D01*
X145438809Y-99385476D01*
X145486428Y-99290238D01*
X145486428Y-99099761D01*
X145438809Y-99004523D01*
X145391190Y-98956904D01*
X145295952Y-98909285D01*
G04 #@! TO.C,C10*
X145772142Y-103512857D02*
X145819761Y-103560476D01*
X145867380Y-103703333D01*
X145867380Y-103798571D01*
X145819761Y-103941428D01*
X145724523Y-104036666D01*
X145629285Y-104084285D01*
X145438809Y-104131904D01*
X145295952Y-104131904D01*
X145105476Y-104084285D01*
X145010238Y-104036666D01*
X144915000Y-103941428D01*
X144867380Y-103798571D01*
X144867380Y-103703333D01*
X144915000Y-103560476D01*
X144962619Y-103512857D01*
X145867380Y-102560476D02*
X145867380Y-103131904D01*
X145867380Y-102846190D02*
X144867380Y-102846190D01*
X145010238Y-102941428D01*
X145105476Y-103036666D01*
X145153095Y-103131904D01*
X144867380Y-101941428D02*
X144867380Y-101846190D01*
X144915000Y-101750952D01*
X144962619Y-101703333D01*
X145057857Y-101655714D01*
X145248333Y-101608095D01*
X145486428Y-101608095D01*
X145676904Y-101655714D01*
X145772142Y-101703333D01*
X145819761Y-101750952D01*
X145867380Y-101846190D01*
X145867380Y-101941428D01*
X145819761Y-102036666D01*
X145772142Y-102084285D01*
X145676904Y-102131904D01*
X145486428Y-102179523D01*
X145248333Y-102179523D01*
X145057857Y-102131904D01*
X144962619Y-102084285D01*
X144915000Y-102036666D01*
X144867380Y-101941428D01*
G04 #@! TO.C,J2*
X146411904Y-87993928D02*
X145611904Y-87993928D01*
X145611904Y-87689166D01*
X145650000Y-87612976D01*
X145688095Y-87574880D01*
X145764285Y-87536785D01*
X145878571Y-87536785D01*
X145954761Y-87574880D01*
X145992857Y-87612976D01*
X146030952Y-87689166D01*
X146030952Y-87993928D01*
X145992857Y-86927261D02*
X146030952Y-86812976D01*
X146069047Y-86774880D01*
X146145238Y-86736785D01*
X146259523Y-86736785D01*
X146335714Y-86774880D01*
X146373809Y-86812976D01*
X146411904Y-86889166D01*
X146411904Y-87193928D01*
X145611904Y-87193928D01*
X145611904Y-86927261D01*
X145650000Y-86851071D01*
X145688095Y-86812976D01*
X145764285Y-86774880D01*
X145840476Y-86774880D01*
X145916666Y-86812976D01*
X145954761Y-86851071D01*
X145992857Y-86927261D01*
X145992857Y-87193928D01*
X145611904Y-86012976D02*
X145611904Y-86393928D01*
X145992857Y-86432023D01*
X145954761Y-86393928D01*
X145916666Y-86317738D01*
X145916666Y-86127261D01*
X145954761Y-86051071D01*
X145992857Y-86012976D01*
X146069047Y-85974880D01*
X146259523Y-85974880D01*
X146335714Y-86012976D01*
X146373809Y-86051071D01*
X146411904Y-86127261D01*
X146411904Y-86317738D01*
X146373809Y-86393928D01*
X146335714Y-86432023D01*
X176091904Y-124798690D02*
X176091904Y-125179642D01*
X176472857Y-125217738D01*
X176434761Y-125179642D01*
X176396666Y-125103452D01*
X176396666Y-124912976D01*
X176434761Y-124836785D01*
X176472857Y-124798690D01*
X176549047Y-124760595D01*
X176739523Y-124760595D01*
X176815714Y-124798690D01*
X176853809Y-124836785D01*
X176891904Y-124912976D01*
X176891904Y-125103452D01*
X176853809Y-125179642D01*
X176815714Y-125217738D01*
X176091904Y-124532023D02*
X176891904Y-124265357D01*
X176091904Y-123998690D01*
X166731904Y-79087023D02*
X165931904Y-79087023D01*
X165931904Y-78782261D01*
X165970000Y-78706071D01*
X166008095Y-78667976D01*
X166084285Y-78629880D01*
X166198571Y-78629880D01*
X166274761Y-78667976D01*
X166312857Y-78706071D01*
X166350952Y-78782261D01*
X166350952Y-79087023D01*
X166503333Y-78325119D02*
X166503333Y-77944166D01*
X166731904Y-78401309D02*
X165931904Y-78134642D01*
X166731904Y-77867976D01*
X166274761Y-77487023D02*
X166236666Y-77563214D01*
X166198571Y-77601309D01*
X166122380Y-77639404D01*
X166084285Y-77639404D01*
X166008095Y-77601309D01*
X165970000Y-77563214D01*
X165931904Y-77487023D01*
X165931904Y-77334642D01*
X165970000Y-77258452D01*
X166008095Y-77220357D01*
X166084285Y-77182261D01*
X166122380Y-77182261D01*
X166198571Y-77220357D01*
X166236666Y-77258452D01*
X166274761Y-77334642D01*
X166274761Y-77487023D01*
X166312857Y-77563214D01*
X166350952Y-77601309D01*
X166427142Y-77639404D01*
X166579523Y-77639404D01*
X166655714Y-77601309D01*
X166693809Y-77563214D01*
X166731904Y-77487023D01*
X166731904Y-77334642D01*
X166693809Y-77258452D01*
X166655714Y-77220357D01*
X166579523Y-77182261D01*
X166427142Y-77182261D01*
X166350952Y-77220357D01*
X166312857Y-77258452D01*
X166274761Y-77334642D01*
X176091904Y-78706071D02*
X176091904Y-79087023D01*
X176472857Y-79125119D01*
X176434761Y-79087023D01*
X176396666Y-79010833D01*
X176396666Y-78820357D01*
X176434761Y-78744166D01*
X176472857Y-78706071D01*
X176549047Y-78667976D01*
X176739523Y-78667976D01*
X176815714Y-78706071D01*
X176853809Y-78744166D01*
X176891904Y-78820357D01*
X176891904Y-79010833D01*
X176853809Y-79087023D01*
X176815714Y-79125119D01*
X176091904Y-78439404D02*
X176891904Y-78172738D01*
X176091904Y-77906071D01*
X141331904Y-125979642D02*
X140531904Y-125979642D01*
X140531904Y-125674880D01*
X140570000Y-125598690D01*
X140608095Y-125560595D01*
X140684285Y-125522500D01*
X140798571Y-125522500D01*
X140874761Y-125560595D01*
X140912857Y-125598690D01*
X140950952Y-125674880D01*
X140950952Y-125979642D01*
X141103333Y-125217738D02*
X141103333Y-124836785D01*
X141331904Y-125293928D02*
X140531904Y-125027261D01*
X141331904Y-124760595D01*
X140608095Y-124532023D02*
X140570000Y-124493928D01*
X140531904Y-124417738D01*
X140531904Y-124227261D01*
X140570000Y-124151071D01*
X140608095Y-124112976D01*
X140684285Y-124074880D01*
X140760476Y-124074880D01*
X140874761Y-124112976D01*
X141331904Y-124570119D01*
X141331904Y-124074880D01*
X141331904Y-117822023D02*
X140531904Y-117822023D01*
X140531904Y-117517261D01*
X140570000Y-117441071D01*
X140608095Y-117402976D01*
X140684285Y-117364880D01*
X140798571Y-117364880D01*
X140874761Y-117402976D01*
X140912857Y-117441071D01*
X140950952Y-117517261D01*
X140950952Y-117822023D01*
X141103333Y-117060119D02*
X141103333Y-116679166D01*
X141331904Y-117136309D02*
X140531904Y-116869642D01*
X141331904Y-116602976D01*
X140531904Y-116412500D02*
X140531904Y-115917261D01*
X140836666Y-116183928D01*
X140836666Y-116069642D01*
X140874761Y-115993452D01*
X140912857Y-115955357D01*
X140989047Y-115917261D01*
X141179523Y-115917261D01*
X141255714Y-115955357D01*
X141293809Y-115993452D01*
X141331904Y-116069642D01*
X141331904Y-116298214D01*
X141293809Y-116374404D01*
X141255714Y-116412500D01*
X155771904Y-87993928D02*
X156419523Y-87993928D01*
X156495714Y-87955833D01*
X156533809Y-87917738D01*
X156571904Y-87841547D01*
X156571904Y-87689166D01*
X156533809Y-87612976D01*
X156495714Y-87574880D01*
X156419523Y-87536785D01*
X155771904Y-87536785D01*
X156571904Y-86736785D02*
X156571904Y-87193928D01*
X156571904Y-86965357D02*
X155771904Y-86965357D01*
X155886190Y-87041547D01*
X155962380Y-87117738D01*
X156000476Y-87193928D01*
X155848095Y-86432023D02*
X155810000Y-86393928D01*
X155771904Y-86317738D01*
X155771904Y-86127261D01*
X155810000Y-86051071D01*
X155848095Y-86012976D01*
X155924285Y-85974880D01*
X156000476Y-85974880D01*
X156114761Y-86012976D01*
X156571904Y-86470119D01*
X156571904Y-85974880D01*
X176130000Y-117402976D02*
X176091904Y-117479166D01*
X176091904Y-117593452D01*
X176130000Y-117707738D01*
X176206190Y-117783928D01*
X176282380Y-117822023D01*
X176434761Y-117860119D01*
X176549047Y-117860119D01*
X176701428Y-117822023D01*
X176777619Y-117783928D01*
X176853809Y-117707738D01*
X176891904Y-117593452D01*
X176891904Y-117517261D01*
X176853809Y-117402976D01*
X176815714Y-117364880D01*
X176549047Y-117364880D01*
X176549047Y-117517261D01*
X176891904Y-117022023D02*
X176091904Y-117022023D01*
X176891904Y-116564880D01*
X176091904Y-116564880D01*
X176891904Y-116183928D02*
X176091904Y-116183928D01*
X176091904Y-115993452D01*
X176130000Y-115879166D01*
X176206190Y-115802976D01*
X176282380Y-115764880D01*
X176434761Y-115726785D01*
X176549047Y-115726785D01*
X176701428Y-115764880D01*
X176777619Y-115802976D01*
X176853809Y-115879166D01*
X176891904Y-115993452D01*
X176891904Y-116183928D01*
X166731904Y-126093928D02*
X165931904Y-126093928D01*
X165931904Y-125789166D01*
X165970000Y-125712976D01*
X166008095Y-125674880D01*
X166084285Y-125636785D01*
X166198571Y-125636785D01*
X166274761Y-125674880D01*
X166312857Y-125712976D01*
X166350952Y-125789166D01*
X166350952Y-126093928D01*
X166655714Y-124836785D02*
X166693809Y-124874880D01*
X166731904Y-124989166D01*
X166731904Y-125065357D01*
X166693809Y-125179642D01*
X166617619Y-125255833D01*
X166541428Y-125293928D01*
X166389047Y-125332023D01*
X166274761Y-125332023D01*
X166122380Y-125293928D01*
X166046190Y-125255833D01*
X165970000Y-125179642D01*
X165931904Y-125065357D01*
X165931904Y-124989166D01*
X165970000Y-124874880D01*
X166008095Y-124836785D01*
X166274761Y-124379642D02*
X166236666Y-124455833D01*
X166198571Y-124493928D01*
X166122380Y-124532023D01*
X166084285Y-124532023D01*
X166008095Y-124493928D01*
X165970000Y-124455833D01*
X165931904Y-124379642D01*
X165931904Y-124227261D01*
X165970000Y-124151071D01*
X166008095Y-124112976D01*
X166084285Y-124074880D01*
X166122380Y-124074880D01*
X166198571Y-124112976D01*
X166236666Y-124151071D01*
X166274761Y-124227261D01*
X166274761Y-124379642D01*
X166312857Y-124455833D01*
X166350952Y-124493928D01*
X166427142Y-124532023D01*
X166579523Y-124532023D01*
X166655714Y-124493928D01*
X166693809Y-124455833D01*
X166731904Y-124379642D01*
X166731904Y-124227261D01*
X166693809Y-124151071D01*
X166655714Y-124112976D01*
X166579523Y-124074880D01*
X166427142Y-124074880D01*
X166350952Y-124112976D01*
X166312857Y-124151071D01*
X166274761Y-124227261D01*
X168471904Y-125332023D02*
X169119523Y-125332023D01*
X169195714Y-125293928D01*
X169233809Y-125255833D01*
X169271904Y-125179642D01*
X169271904Y-125027261D01*
X169233809Y-124951071D01*
X169195714Y-124912976D01*
X169119523Y-124874880D01*
X168471904Y-124874880D01*
X169271904Y-124074880D02*
X169271904Y-124532023D01*
X169271904Y-124303452D02*
X168471904Y-124303452D01*
X168586190Y-124379642D01*
X168662380Y-124455833D01*
X168700476Y-124532023D01*
X159111904Y-126855833D02*
X158311904Y-126855833D01*
X158311904Y-126551071D01*
X158350000Y-126474880D01*
X158388095Y-126436785D01*
X158464285Y-126398690D01*
X158578571Y-126398690D01*
X158654761Y-126436785D01*
X158692857Y-126474880D01*
X158730952Y-126551071D01*
X158730952Y-126855833D01*
X158692857Y-125789166D02*
X158730952Y-125674880D01*
X158769047Y-125636785D01*
X158845238Y-125598690D01*
X158959523Y-125598690D01*
X159035714Y-125636785D01*
X159073809Y-125674880D01*
X159111904Y-125751071D01*
X159111904Y-126055833D01*
X158311904Y-126055833D01*
X158311904Y-125789166D01*
X158350000Y-125712976D01*
X158388095Y-125674880D01*
X158464285Y-125636785D01*
X158540476Y-125636785D01*
X158616666Y-125674880D01*
X158654761Y-125712976D01*
X158692857Y-125789166D01*
X158692857Y-126055833D01*
X159111904Y-124836785D02*
X159111904Y-125293928D01*
X159111904Y-125065357D02*
X158311904Y-125065357D01*
X158426190Y-125141547D01*
X158502380Y-125217738D01*
X158540476Y-125293928D01*
X158388095Y-124532023D02*
X158350000Y-124493928D01*
X158311904Y-124417738D01*
X158311904Y-124227261D01*
X158350000Y-124151071D01*
X158388095Y-124112976D01*
X158464285Y-124074880D01*
X158540476Y-124074880D01*
X158654761Y-124112976D01*
X159111904Y-124570119D01*
X159111904Y-124074880D01*
X166731904Y-117822023D02*
X165931904Y-117822023D01*
X165931904Y-117517261D01*
X165970000Y-117441071D01*
X166008095Y-117402976D01*
X166084285Y-117364880D01*
X166198571Y-117364880D01*
X166274761Y-117402976D01*
X166312857Y-117441071D01*
X166350952Y-117517261D01*
X166350952Y-117822023D01*
X166655714Y-116564880D02*
X166693809Y-116602976D01*
X166731904Y-116717261D01*
X166731904Y-116793452D01*
X166693809Y-116907738D01*
X166617619Y-116983928D01*
X166541428Y-117022023D01*
X166389047Y-117060119D01*
X166274761Y-117060119D01*
X166122380Y-117022023D01*
X166046190Y-116983928D01*
X165970000Y-116907738D01*
X165931904Y-116793452D01*
X165931904Y-116717261D01*
X165970000Y-116602976D01*
X166008095Y-116564880D01*
X166731904Y-116183928D02*
X166731904Y-116031547D01*
X166693809Y-115955357D01*
X166655714Y-115917261D01*
X166541428Y-115841071D01*
X166389047Y-115802976D01*
X166084285Y-115802976D01*
X166008095Y-115841071D01*
X165970000Y-115879166D01*
X165931904Y-115955357D01*
X165931904Y-116107738D01*
X165970000Y-116183928D01*
X166008095Y-116222023D01*
X166084285Y-116260119D01*
X166274761Y-116260119D01*
X166350952Y-116222023D01*
X166389047Y-116183928D01*
X166427142Y-116107738D01*
X166427142Y-115955357D01*
X166389047Y-115879166D01*
X166350952Y-115841071D01*
X166274761Y-115802976D01*
X155771904Y-79087023D02*
X156419523Y-79087023D01*
X156495714Y-79048928D01*
X156533809Y-79010833D01*
X156571904Y-78934642D01*
X156571904Y-78782261D01*
X156533809Y-78706071D01*
X156495714Y-78667976D01*
X156419523Y-78629880D01*
X155771904Y-78629880D01*
X156571904Y-77829880D02*
X156571904Y-78287023D01*
X156571904Y-78058452D02*
X155771904Y-78058452D01*
X155886190Y-78134642D01*
X155962380Y-78210833D01*
X156000476Y-78287023D01*
X156571904Y-77067976D02*
X156571904Y-77525119D01*
X156571904Y-77296547D02*
X155771904Y-77296547D01*
X155886190Y-77372738D01*
X155962380Y-77448928D01*
X156000476Y-77525119D01*
X176130000Y-87651071D02*
X176091904Y-87727261D01*
X176091904Y-87841547D01*
X176130000Y-87955833D01*
X176206190Y-88032023D01*
X176282380Y-88070119D01*
X176434761Y-88108214D01*
X176549047Y-88108214D01*
X176701428Y-88070119D01*
X176777619Y-88032023D01*
X176853809Y-87955833D01*
X176891904Y-87841547D01*
X176891904Y-87765357D01*
X176853809Y-87651071D01*
X176815714Y-87612976D01*
X176549047Y-87612976D01*
X176549047Y-87765357D01*
X176891904Y-87270119D02*
X176091904Y-87270119D01*
X176891904Y-86812976D01*
X176091904Y-86812976D01*
X176891904Y-86432023D02*
X176091904Y-86432023D01*
X176091904Y-86241547D01*
X176130000Y-86127261D01*
X176206190Y-86051071D01*
X176282380Y-86012976D01*
X176434761Y-85974880D01*
X176549047Y-85974880D01*
X176701428Y-86012976D01*
X176777619Y-86051071D01*
X176853809Y-86127261D01*
X176891904Y-86241547D01*
X176891904Y-86432023D01*
X148951904Y-87993928D02*
X148151904Y-87993928D01*
X148151904Y-87689166D01*
X148190000Y-87612976D01*
X148228095Y-87574880D01*
X148304285Y-87536785D01*
X148418571Y-87536785D01*
X148494761Y-87574880D01*
X148532857Y-87612976D01*
X148570952Y-87689166D01*
X148570952Y-87993928D01*
X148532857Y-86927261D02*
X148570952Y-86812976D01*
X148609047Y-86774880D01*
X148685238Y-86736785D01*
X148799523Y-86736785D01*
X148875714Y-86774880D01*
X148913809Y-86812976D01*
X148951904Y-86889166D01*
X148951904Y-87193928D01*
X148151904Y-87193928D01*
X148151904Y-86927261D01*
X148190000Y-86851071D01*
X148228095Y-86812976D01*
X148304285Y-86774880D01*
X148380476Y-86774880D01*
X148456666Y-86812976D01*
X148494761Y-86851071D01*
X148532857Y-86927261D01*
X148532857Y-87193928D01*
X148151904Y-86470119D02*
X148151904Y-85974880D01*
X148456666Y-86241547D01*
X148456666Y-86127261D01*
X148494761Y-86051071D01*
X148532857Y-86012976D01*
X148609047Y-85974880D01*
X148799523Y-85974880D01*
X148875714Y-86012976D01*
X148913809Y-86051071D01*
X148951904Y-86127261D01*
X148951904Y-86355833D01*
X148913809Y-86432023D01*
X148875714Y-86470119D01*
X161651904Y-117822023D02*
X160851904Y-117822023D01*
X160851904Y-117517261D01*
X160890000Y-117441071D01*
X160928095Y-117402976D01*
X161004285Y-117364880D01*
X161118571Y-117364880D01*
X161194761Y-117402976D01*
X161232857Y-117441071D01*
X161270952Y-117517261D01*
X161270952Y-117822023D01*
X161232857Y-116755357D02*
X161270952Y-116641071D01*
X161309047Y-116602976D01*
X161385238Y-116564880D01*
X161499523Y-116564880D01*
X161575714Y-116602976D01*
X161613809Y-116641071D01*
X161651904Y-116717261D01*
X161651904Y-117022023D01*
X160851904Y-117022023D01*
X160851904Y-116755357D01*
X160890000Y-116679166D01*
X160928095Y-116641071D01*
X161004285Y-116602976D01*
X161080476Y-116602976D01*
X161156666Y-116641071D01*
X161194761Y-116679166D01*
X161232857Y-116755357D01*
X161232857Y-117022023D01*
X161651904Y-115802976D02*
X161651904Y-116260119D01*
X161651904Y-116031547D02*
X160851904Y-116031547D01*
X160966190Y-116107738D01*
X161042380Y-116183928D01*
X161080476Y-116260119D01*
X160851904Y-115079166D02*
X160851904Y-115460119D01*
X161232857Y-115498214D01*
X161194761Y-115460119D01*
X161156666Y-115383928D01*
X161156666Y-115193452D01*
X161194761Y-115117261D01*
X161232857Y-115079166D01*
X161309047Y-115041071D01*
X161499523Y-115041071D01*
X161575714Y-115079166D01*
X161613809Y-115117261D01*
X161651904Y-115193452D01*
X161651904Y-115383928D01*
X161613809Y-115460119D01*
X161575714Y-115498214D01*
X137991904Y-79087023D02*
X138639523Y-79087023D01*
X138715714Y-79048928D01*
X138753809Y-79010833D01*
X138791904Y-78934642D01*
X138791904Y-78782261D01*
X138753809Y-78706071D01*
X138715714Y-78667976D01*
X138639523Y-78629880D01*
X137991904Y-78629880D01*
X138791904Y-78210833D02*
X138791904Y-78058452D01*
X138753809Y-77982261D01*
X138715714Y-77944166D01*
X138601428Y-77867976D01*
X138449047Y-77829880D01*
X138144285Y-77829880D01*
X138068095Y-77867976D01*
X138030000Y-77906071D01*
X137991904Y-77982261D01*
X137991904Y-78134642D01*
X138030000Y-78210833D01*
X138068095Y-78248928D01*
X138144285Y-78287023D01*
X138334761Y-78287023D01*
X138410952Y-78248928D01*
X138449047Y-78210833D01*
X138487142Y-78134642D01*
X138487142Y-77982261D01*
X138449047Y-77906071D01*
X138410952Y-77867976D01*
X138334761Y-77829880D01*
X148951904Y-79087023D02*
X148151904Y-79087023D01*
X148151904Y-78782261D01*
X148190000Y-78706071D01*
X148228095Y-78667976D01*
X148304285Y-78629880D01*
X148418571Y-78629880D01*
X148494761Y-78667976D01*
X148532857Y-78706071D01*
X148570952Y-78782261D01*
X148570952Y-79087023D01*
X148951904Y-78287023D02*
X148151904Y-78287023D01*
X148151904Y-78096547D01*
X148190000Y-77982261D01*
X148266190Y-77906071D01*
X148342380Y-77867976D01*
X148494761Y-77829880D01*
X148609047Y-77829880D01*
X148761428Y-77867976D01*
X148837619Y-77906071D01*
X148913809Y-77982261D01*
X148951904Y-78096547D01*
X148951904Y-78287023D01*
X148228095Y-77525119D02*
X148190000Y-77487023D01*
X148151904Y-77410833D01*
X148151904Y-77220357D01*
X148190000Y-77144166D01*
X148228095Y-77106071D01*
X148304285Y-77067976D01*
X148380476Y-77067976D01*
X148494761Y-77106071D01*
X148951904Y-77563214D01*
X148951904Y-77067976D01*
X141331904Y-87993928D02*
X140531904Y-87993928D01*
X140531904Y-87689166D01*
X140570000Y-87612976D01*
X140608095Y-87574880D01*
X140684285Y-87536785D01*
X140798571Y-87536785D01*
X140874761Y-87574880D01*
X140912857Y-87612976D01*
X140950952Y-87689166D01*
X140950952Y-87993928D01*
X140912857Y-86927261D02*
X140950952Y-86812976D01*
X140989047Y-86774880D01*
X141065238Y-86736785D01*
X141179523Y-86736785D01*
X141255714Y-86774880D01*
X141293809Y-86812976D01*
X141331904Y-86889166D01*
X141331904Y-87193928D01*
X140531904Y-87193928D01*
X140531904Y-86927261D01*
X140570000Y-86851071D01*
X140608095Y-86812976D01*
X140684285Y-86774880D01*
X140760476Y-86774880D01*
X140836666Y-86812976D01*
X140874761Y-86851071D01*
X140912857Y-86927261D01*
X140912857Y-87193928D01*
X141331904Y-86355833D02*
X141331904Y-86203452D01*
X141293809Y-86127261D01*
X141255714Y-86089166D01*
X141141428Y-86012976D01*
X140989047Y-85974880D01*
X140684285Y-85974880D01*
X140608095Y-86012976D01*
X140570000Y-86051071D01*
X140531904Y-86127261D01*
X140531904Y-86279642D01*
X140570000Y-86355833D01*
X140608095Y-86393928D01*
X140684285Y-86432023D01*
X140874761Y-86432023D01*
X140950952Y-86393928D01*
X140989047Y-86355833D01*
X141027142Y-86279642D01*
X141027142Y-86127261D01*
X140989047Y-86051071D01*
X140950952Y-86012976D01*
X140874761Y-85974880D01*
X131171904Y-117822023D02*
X130371904Y-117822023D01*
X131171904Y-117364880D01*
X130371904Y-117364880D01*
X131171904Y-116526785D02*
X130790952Y-116793452D01*
X131171904Y-116983928D02*
X130371904Y-116983928D01*
X130371904Y-116679166D01*
X130410000Y-116602976D01*
X130448095Y-116564880D01*
X130524285Y-116526785D01*
X130638571Y-116526785D01*
X130714761Y-116564880D01*
X130752857Y-116602976D01*
X130790952Y-116679166D01*
X130790952Y-116983928D01*
X131133809Y-116222023D02*
X131171904Y-116107738D01*
X131171904Y-115917261D01*
X131133809Y-115841071D01*
X131095714Y-115802976D01*
X131019523Y-115764880D01*
X130943333Y-115764880D01*
X130867142Y-115802976D01*
X130829047Y-115841071D01*
X130790952Y-115917261D01*
X130752857Y-116069642D01*
X130714761Y-116145833D01*
X130676666Y-116183928D01*
X130600476Y-116222023D01*
X130524285Y-116222023D01*
X130448095Y-116183928D01*
X130410000Y-116145833D01*
X130371904Y-116069642D01*
X130371904Y-115879166D01*
X130410000Y-115764880D01*
X130371904Y-115536309D02*
X130371904Y-115079166D01*
X131171904Y-115307738D02*
X130371904Y-115307738D01*
X171011904Y-125332023D02*
X171659523Y-125332023D01*
X171735714Y-125293928D01*
X171773809Y-125255833D01*
X171811904Y-125179642D01*
X171811904Y-125027261D01*
X171773809Y-124951071D01*
X171735714Y-124912976D01*
X171659523Y-124874880D01*
X171011904Y-124874880D01*
X171011904Y-124570119D02*
X171011904Y-124074880D01*
X171316666Y-124341547D01*
X171316666Y-124227261D01*
X171354761Y-124151071D01*
X171392857Y-124112976D01*
X171469047Y-124074880D01*
X171659523Y-124074880D01*
X171735714Y-124112976D01*
X171773809Y-124151071D01*
X171811904Y-124227261D01*
X171811904Y-124455833D01*
X171773809Y-124532023D01*
X171735714Y-124570119D01*
X148951904Y-117822023D02*
X148151904Y-117822023D01*
X148151904Y-117517261D01*
X148190000Y-117441071D01*
X148228095Y-117402976D01*
X148304285Y-117364880D01*
X148418571Y-117364880D01*
X148494761Y-117402976D01*
X148532857Y-117441071D01*
X148570952Y-117517261D01*
X148570952Y-117822023D01*
X148875714Y-116564880D02*
X148913809Y-116602976D01*
X148951904Y-116717261D01*
X148951904Y-116793452D01*
X148913809Y-116907738D01*
X148837619Y-116983928D01*
X148761428Y-117022023D01*
X148609047Y-117060119D01*
X148494761Y-117060119D01*
X148342380Y-117022023D01*
X148266190Y-116983928D01*
X148190000Y-116907738D01*
X148151904Y-116793452D01*
X148151904Y-116717261D01*
X148190000Y-116602976D01*
X148228095Y-116564880D01*
X148151904Y-115841071D02*
X148151904Y-116222023D01*
X148532857Y-116260119D01*
X148494761Y-116222023D01*
X148456666Y-116145833D01*
X148456666Y-115955357D01*
X148494761Y-115879166D01*
X148532857Y-115841071D01*
X148609047Y-115802976D01*
X148799523Y-115802976D01*
X148875714Y-115841071D01*
X148913809Y-115879166D01*
X148951904Y-115955357D01*
X148951904Y-116145833D01*
X148913809Y-116222023D01*
X148875714Y-116260119D01*
X166731904Y-87879642D02*
X165931904Y-87879642D01*
X165931904Y-87574880D01*
X165970000Y-87498690D01*
X166008095Y-87460595D01*
X166084285Y-87422500D01*
X166198571Y-87422500D01*
X166274761Y-87460595D01*
X166312857Y-87498690D01*
X166350952Y-87574880D01*
X166350952Y-87879642D01*
X166503333Y-87117738D02*
X166503333Y-86736785D01*
X166731904Y-87193928D02*
X165931904Y-86927261D01*
X166731904Y-86660595D01*
X166731904Y-86355833D02*
X166731904Y-86203452D01*
X166693809Y-86127261D01*
X166655714Y-86089166D01*
X166541428Y-86012976D01*
X166389047Y-85974880D01*
X166084285Y-85974880D01*
X166008095Y-86012976D01*
X165970000Y-86051071D01*
X165931904Y-86127261D01*
X165931904Y-86279642D01*
X165970000Y-86355833D01*
X166008095Y-86393928D01*
X166084285Y-86432023D01*
X166274761Y-86432023D01*
X166350952Y-86393928D01*
X166389047Y-86355833D01*
X166427142Y-86279642D01*
X166427142Y-86127261D01*
X166389047Y-86051071D01*
X166350952Y-86012976D01*
X166274761Y-85974880D01*
X154031904Y-126093928D02*
X153231904Y-126093928D01*
X153231904Y-125789166D01*
X153270000Y-125712976D01*
X153308095Y-125674880D01*
X153384285Y-125636785D01*
X153498571Y-125636785D01*
X153574761Y-125674880D01*
X153612857Y-125712976D01*
X153650952Y-125789166D01*
X153650952Y-126093928D01*
X153612857Y-125027261D02*
X153650952Y-124912976D01*
X153689047Y-124874880D01*
X153765238Y-124836785D01*
X153879523Y-124836785D01*
X153955714Y-124874880D01*
X153993809Y-124912976D01*
X154031904Y-124989166D01*
X154031904Y-125293928D01*
X153231904Y-125293928D01*
X153231904Y-125027261D01*
X153270000Y-124951071D01*
X153308095Y-124912976D01*
X153384285Y-124874880D01*
X153460476Y-124874880D01*
X153536666Y-124912976D01*
X153574761Y-124951071D01*
X153612857Y-125027261D01*
X153612857Y-125293928D01*
X153308095Y-124532023D02*
X153270000Y-124493928D01*
X153231904Y-124417738D01*
X153231904Y-124227261D01*
X153270000Y-124151071D01*
X153308095Y-124112976D01*
X153384285Y-124074880D01*
X153460476Y-124074880D01*
X153574761Y-124112976D01*
X154031904Y-124570119D01*
X154031904Y-124074880D01*
X154031904Y-79087023D02*
X153231904Y-79087023D01*
X153231904Y-78782261D01*
X153270000Y-78706071D01*
X153308095Y-78667976D01*
X153384285Y-78629880D01*
X153498571Y-78629880D01*
X153574761Y-78667976D01*
X153612857Y-78706071D01*
X153650952Y-78782261D01*
X153650952Y-79087023D01*
X153955714Y-77829880D02*
X153993809Y-77867976D01*
X154031904Y-77982261D01*
X154031904Y-78058452D01*
X153993809Y-78172738D01*
X153917619Y-78248928D01*
X153841428Y-78287023D01*
X153689047Y-78325119D01*
X153574761Y-78325119D01*
X153422380Y-78287023D01*
X153346190Y-78248928D01*
X153270000Y-78172738D01*
X153231904Y-78058452D01*
X153231904Y-77982261D01*
X153270000Y-77867976D01*
X153308095Y-77829880D01*
X154031904Y-77067976D02*
X154031904Y-77525119D01*
X154031904Y-77296547D02*
X153231904Y-77296547D01*
X153346190Y-77372738D01*
X153422380Y-77448928D01*
X153460476Y-77525119D01*
X153231904Y-76572738D02*
X153231904Y-76496547D01*
X153270000Y-76420357D01*
X153308095Y-76382261D01*
X153384285Y-76344166D01*
X153536666Y-76306071D01*
X153727142Y-76306071D01*
X153879523Y-76344166D01*
X153955714Y-76382261D01*
X153993809Y-76420357D01*
X154031904Y-76496547D01*
X154031904Y-76572738D01*
X153993809Y-76648928D01*
X153955714Y-76687023D01*
X153879523Y-76725119D01*
X153727142Y-76763214D01*
X153536666Y-76763214D01*
X153384285Y-76725119D01*
X153308095Y-76687023D01*
X153270000Y-76648928D01*
X153231904Y-76572738D01*
X133711904Y-88755833D02*
X132911904Y-88755833D01*
X132911904Y-88451071D01*
X132950000Y-88374880D01*
X132988095Y-88336785D01*
X133064285Y-88298690D01*
X133178571Y-88298690D01*
X133254761Y-88336785D01*
X133292857Y-88374880D01*
X133330952Y-88451071D01*
X133330952Y-88755833D01*
X133635714Y-87498690D02*
X133673809Y-87536785D01*
X133711904Y-87651071D01*
X133711904Y-87727261D01*
X133673809Y-87841547D01*
X133597619Y-87917738D01*
X133521428Y-87955833D01*
X133369047Y-87993928D01*
X133254761Y-87993928D01*
X133102380Y-87955833D01*
X133026190Y-87917738D01*
X132950000Y-87841547D01*
X132911904Y-87727261D01*
X132911904Y-87651071D01*
X132950000Y-87536785D01*
X132988095Y-87498690D01*
X133711904Y-86736785D02*
X133711904Y-87193928D01*
X133711904Y-86965357D02*
X132911904Y-86965357D01*
X133026190Y-87041547D01*
X133102380Y-87117738D01*
X133140476Y-87193928D01*
X132911904Y-86012976D02*
X132911904Y-86393928D01*
X133292857Y-86432023D01*
X133254761Y-86393928D01*
X133216666Y-86317738D01*
X133216666Y-86127261D01*
X133254761Y-86051071D01*
X133292857Y-86012976D01*
X133369047Y-85974880D01*
X133559523Y-85974880D01*
X133635714Y-86012976D01*
X133673809Y-86051071D01*
X133711904Y-86127261D01*
X133711904Y-86317738D01*
X133673809Y-86393928D01*
X133635714Y-86432023D01*
X150691904Y-87232023D02*
X151339523Y-87232023D01*
X151415714Y-87193928D01*
X151453809Y-87155833D01*
X151491904Y-87079642D01*
X151491904Y-86927261D01*
X151453809Y-86851071D01*
X151415714Y-86812976D01*
X151339523Y-86774880D01*
X150691904Y-86774880D01*
X151034761Y-86279642D02*
X150996666Y-86355833D01*
X150958571Y-86393928D01*
X150882380Y-86432023D01*
X150844285Y-86432023D01*
X150768095Y-86393928D01*
X150730000Y-86355833D01*
X150691904Y-86279642D01*
X150691904Y-86127261D01*
X150730000Y-86051071D01*
X150768095Y-86012976D01*
X150844285Y-85974880D01*
X150882380Y-85974880D01*
X150958571Y-86012976D01*
X150996666Y-86051071D01*
X151034761Y-86127261D01*
X151034761Y-86279642D01*
X151072857Y-86355833D01*
X151110952Y-86393928D01*
X151187142Y-86432023D01*
X151339523Y-86432023D01*
X151415714Y-86393928D01*
X151453809Y-86355833D01*
X151491904Y-86279642D01*
X151491904Y-86127261D01*
X151453809Y-86051071D01*
X151415714Y-86012976D01*
X151339523Y-85974880D01*
X151187142Y-85974880D01*
X151110952Y-86012976D01*
X151072857Y-86051071D01*
X151034761Y-86127261D01*
X130752857Y-125865357D02*
X130790952Y-125751071D01*
X130829047Y-125712976D01*
X130905238Y-125674880D01*
X131019523Y-125674880D01*
X131095714Y-125712976D01*
X131133809Y-125751071D01*
X131171904Y-125827261D01*
X131171904Y-126132023D01*
X130371904Y-126132023D01*
X130371904Y-125865357D01*
X130410000Y-125789166D01*
X130448095Y-125751071D01*
X130524285Y-125712976D01*
X130600476Y-125712976D01*
X130676666Y-125751071D01*
X130714761Y-125789166D01*
X130752857Y-125865357D01*
X130752857Y-126132023D01*
X130371904Y-125179642D02*
X130371904Y-125027261D01*
X130410000Y-124951071D01*
X130486190Y-124874880D01*
X130638571Y-124836785D01*
X130905238Y-124836785D01*
X131057619Y-124874880D01*
X131133809Y-124951071D01*
X131171904Y-125027261D01*
X131171904Y-125179642D01*
X131133809Y-125255833D01*
X131057619Y-125332023D01*
X130905238Y-125370119D01*
X130638571Y-125370119D01*
X130486190Y-125332023D01*
X130410000Y-125255833D01*
X130371904Y-125179642D01*
X130371904Y-124341547D02*
X130371904Y-124265357D01*
X130410000Y-124189166D01*
X130448095Y-124151071D01*
X130524285Y-124112976D01*
X130676666Y-124074880D01*
X130867142Y-124074880D01*
X131019523Y-124112976D01*
X131095714Y-124151071D01*
X131133809Y-124189166D01*
X131171904Y-124265357D01*
X131171904Y-124341547D01*
X131133809Y-124417738D01*
X131095714Y-124455833D01*
X131019523Y-124493928D01*
X130867142Y-124532023D01*
X130676666Y-124532023D01*
X130524285Y-124493928D01*
X130448095Y-124455833D01*
X130410000Y-124417738D01*
X130371904Y-124341547D01*
X171011904Y-87993928D02*
X171659523Y-87993928D01*
X171735714Y-87955833D01*
X171773809Y-87917738D01*
X171811904Y-87841547D01*
X171811904Y-87689166D01*
X171773809Y-87612976D01*
X171735714Y-87574880D01*
X171659523Y-87536785D01*
X171011904Y-87536785D01*
X171811904Y-86736785D02*
X171811904Y-87193928D01*
X171811904Y-86965357D02*
X171011904Y-86965357D01*
X171126190Y-87041547D01*
X171202380Y-87117738D01*
X171240476Y-87193928D01*
X171011904Y-86051071D02*
X171011904Y-86203452D01*
X171050000Y-86279642D01*
X171088095Y-86317738D01*
X171202380Y-86393928D01*
X171354761Y-86432023D01*
X171659523Y-86432023D01*
X171735714Y-86393928D01*
X171773809Y-86355833D01*
X171811904Y-86279642D01*
X171811904Y-86127261D01*
X171773809Y-86051071D01*
X171735714Y-86012976D01*
X171659523Y-85974880D01*
X171469047Y-85974880D01*
X171392857Y-86012976D01*
X171354761Y-86051071D01*
X171316666Y-86127261D01*
X171316666Y-86279642D01*
X171354761Y-86355833D01*
X171392857Y-86393928D01*
X171469047Y-86432023D01*
X151491904Y-117822023D02*
X150691904Y-117822023D01*
X150691904Y-117517261D01*
X150730000Y-117441071D01*
X150768095Y-117402976D01*
X150844285Y-117364880D01*
X150958571Y-117364880D01*
X151034761Y-117402976D01*
X151072857Y-117441071D01*
X151110952Y-117517261D01*
X151110952Y-117822023D01*
X151072857Y-116755357D02*
X151110952Y-116641071D01*
X151149047Y-116602976D01*
X151225238Y-116564880D01*
X151339523Y-116564880D01*
X151415714Y-116602976D01*
X151453809Y-116641071D01*
X151491904Y-116717261D01*
X151491904Y-117022023D01*
X150691904Y-117022023D01*
X150691904Y-116755357D01*
X150730000Y-116679166D01*
X150768095Y-116641071D01*
X150844285Y-116602976D01*
X150920476Y-116602976D01*
X150996666Y-116641071D01*
X151034761Y-116679166D01*
X151072857Y-116755357D01*
X151072857Y-117022023D01*
X151491904Y-115802976D02*
X151491904Y-116260119D01*
X151491904Y-116031547D02*
X150691904Y-116031547D01*
X150806190Y-116107738D01*
X150882380Y-116183928D01*
X150920476Y-116260119D01*
X156571904Y-117822023D02*
X155771904Y-117822023D01*
X155771904Y-117517261D01*
X155810000Y-117441071D01*
X155848095Y-117402976D01*
X155924285Y-117364880D01*
X156038571Y-117364880D01*
X156114761Y-117402976D01*
X156152857Y-117441071D01*
X156190952Y-117517261D01*
X156190952Y-117822023D01*
X156152857Y-116755357D02*
X156190952Y-116641071D01*
X156229047Y-116602976D01*
X156305238Y-116564880D01*
X156419523Y-116564880D01*
X156495714Y-116602976D01*
X156533809Y-116641071D01*
X156571904Y-116717261D01*
X156571904Y-117022023D01*
X155771904Y-117022023D01*
X155771904Y-116755357D01*
X155810000Y-116679166D01*
X155848095Y-116641071D01*
X155924285Y-116602976D01*
X156000476Y-116602976D01*
X156076666Y-116641071D01*
X156114761Y-116679166D01*
X156152857Y-116755357D01*
X156152857Y-117022023D01*
X156571904Y-115802976D02*
X156571904Y-116260119D01*
X156571904Y-116031547D02*
X155771904Y-116031547D01*
X155886190Y-116107738D01*
X155962380Y-116183928D01*
X156000476Y-116260119D01*
X156571904Y-115041071D02*
X156571904Y-115498214D01*
X156571904Y-115269642D02*
X155771904Y-115269642D01*
X155886190Y-115345833D01*
X155962380Y-115422023D01*
X156000476Y-115498214D01*
X164191904Y-126093928D02*
X163391904Y-126093928D01*
X163391904Y-125789166D01*
X163430000Y-125712976D01*
X163468095Y-125674880D01*
X163544285Y-125636785D01*
X163658571Y-125636785D01*
X163734761Y-125674880D01*
X163772857Y-125712976D01*
X163810952Y-125789166D01*
X163810952Y-126093928D01*
X164115714Y-124836785D02*
X164153809Y-124874880D01*
X164191904Y-124989166D01*
X164191904Y-125065357D01*
X164153809Y-125179642D01*
X164077619Y-125255833D01*
X164001428Y-125293928D01*
X163849047Y-125332023D01*
X163734761Y-125332023D01*
X163582380Y-125293928D01*
X163506190Y-125255833D01*
X163430000Y-125179642D01*
X163391904Y-125065357D01*
X163391904Y-124989166D01*
X163430000Y-124874880D01*
X163468095Y-124836785D01*
X163391904Y-124151071D02*
X163391904Y-124303452D01*
X163430000Y-124379642D01*
X163468095Y-124417738D01*
X163582380Y-124493928D01*
X163734761Y-124532023D01*
X164039523Y-124532023D01*
X164115714Y-124493928D01*
X164153809Y-124455833D01*
X164191904Y-124379642D01*
X164191904Y-124227261D01*
X164153809Y-124151071D01*
X164115714Y-124112976D01*
X164039523Y-124074880D01*
X163849047Y-124074880D01*
X163772857Y-124112976D01*
X163734761Y-124151071D01*
X163696666Y-124227261D01*
X163696666Y-124379642D01*
X163734761Y-124455833D01*
X163772857Y-124493928D01*
X163849047Y-124532023D01*
X130371904Y-79087023D02*
X131019523Y-79087023D01*
X131095714Y-79048928D01*
X131133809Y-79010833D01*
X131171904Y-78934642D01*
X131171904Y-78782261D01*
X131133809Y-78706071D01*
X131095714Y-78667976D01*
X131019523Y-78629880D01*
X130371904Y-78629880D01*
X130371904Y-77867976D02*
X130371904Y-78248928D01*
X130752857Y-78287023D01*
X130714761Y-78248928D01*
X130676666Y-78172738D01*
X130676666Y-77982261D01*
X130714761Y-77906071D01*
X130752857Y-77867976D01*
X130829047Y-77829880D01*
X131019523Y-77829880D01*
X131095714Y-77867976D01*
X131133809Y-77906071D01*
X131171904Y-77982261D01*
X131171904Y-78172738D01*
X131133809Y-78248928D01*
X131095714Y-78287023D01*
X136251904Y-126093928D02*
X135451904Y-126093928D01*
X135451904Y-125789166D01*
X135490000Y-125712976D01*
X135528095Y-125674880D01*
X135604285Y-125636785D01*
X135718571Y-125636785D01*
X135794761Y-125674880D01*
X135832857Y-125712976D01*
X135870952Y-125789166D01*
X135870952Y-126093928D01*
X136175714Y-124836785D02*
X136213809Y-124874880D01*
X136251904Y-124989166D01*
X136251904Y-125065357D01*
X136213809Y-125179642D01*
X136137619Y-125255833D01*
X136061428Y-125293928D01*
X135909047Y-125332023D01*
X135794761Y-125332023D01*
X135642380Y-125293928D01*
X135566190Y-125255833D01*
X135490000Y-125179642D01*
X135451904Y-125065357D01*
X135451904Y-124989166D01*
X135490000Y-124874880D01*
X135528095Y-124836785D01*
X135528095Y-124532023D02*
X135490000Y-124493928D01*
X135451904Y-124417738D01*
X135451904Y-124227261D01*
X135490000Y-124151071D01*
X135528095Y-124112976D01*
X135604285Y-124074880D01*
X135680476Y-124074880D01*
X135794761Y-124112976D01*
X136251904Y-124570119D01*
X136251904Y-124074880D01*
X132911904Y-79087023D02*
X133559523Y-79087023D01*
X133635714Y-79048928D01*
X133673809Y-79010833D01*
X133711904Y-78934642D01*
X133711904Y-78782261D01*
X133673809Y-78706071D01*
X133635714Y-78667976D01*
X133559523Y-78629880D01*
X132911904Y-78629880D01*
X132911904Y-78325119D02*
X132911904Y-77791785D01*
X133711904Y-78134642D01*
X138791904Y-125979642D02*
X137991904Y-125979642D01*
X137991904Y-125674880D01*
X138030000Y-125598690D01*
X138068095Y-125560595D01*
X138144285Y-125522500D01*
X138258571Y-125522500D01*
X138334761Y-125560595D01*
X138372857Y-125598690D01*
X138410952Y-125674880D01*
X138410952Y-125979642D01*
X138563333Y-125217738D02*
X138563333Y-124836785D01*
X138791904Y-125293928D02*
X137991904Y-125027261D01*
X138791904Y-124760595D01*
X137991904Y-124341547D02*
X137991904Y-124265357D01*
X138030000Y-124189166D01*
X138068095Y-124151071D01*
X138144285Y-124112976D01*
X138296666Y-124074880D01*
X138487142Y-124074880D01*
X138639523Y-124112976D01*
X138715714Y-124151071D01*
X138753809Y-124189166D01*
X138791904Y-124265357D01*
X138791904Y-124341547D01*
X138753809Y-124417738D01*
X138715714Y-124455833D01*
X138639523Y-124493928D01*
X138487142Y-124532023D01*
X138296666Y-124532023D01*
X138144285Y-124493928D01*
X138068095Y-124455833D01*
X138030000Y-124417738D01*
X137991904Y-124341547D01*
X127831904Y-126398690D02*
X127831904Y-125903452D01*
X128136666Y-126170119D01*
X128136666Y-126055833D01*
X128174761Y-125979642D01*
X128212857Y-125941547D01*
X128289047Y-125903452D01*
X128479523Y-125903452D01*
X128555714Y-125941547D01*
X128593809Y-125979642D01*
X128631904Y-126055833D01*
X128631904Y-126284404D01*
X128593809Y-126360595D01*
X128555714Y-126398690D01*
X128555714Y-125560595D02*
X128593809Y-125522500D01*
X128631904Y-125560595D01*
X128593809Y-125598690D01*
X128555714Y-125560595D01*
X128631904Y-125560595D01*
X127831904Y-125255833D02*
X127831904Y-124760595D01*
X128136666Y-125027261D01*
X128136666Y-124912976D01*
X128174761Y-124836785D01*
X128212857Y-124798690D01*
X128289047Y-124760595D01*
X128479523Y-124760595D01*
X128555714Y-124798690D01*
X128593809Y-124836785D01*
X128631904Y-124912976D01*
X128631904Y-125141547D01*
X128593809Y-125217738D01*
X128555714Y-125255833D01*
X127831904Y-124532023D02*
X128631904Y-124265357D01*
X127831904Y-123998690D01*
X138791904Y-117822023D02*
X137991904Y-117822023D01*
X137991904Y-117517261D01*
X138030000Y-117441071D01*
X138068095Y-117402976D01*
X138144285Y-117364880D01*
X138258571Y-117364880D01*
X138334761Y-117402976D01*
X138372857Y-117441071D01*
X138410952Y-117517261D01*
X138410952Y-117822023D01*
X138563333Y-117060119D02*
X138563333Y-116679166D01*
X138791904Y-117136309D02*
X137991904Y-116869642D01*
X138791904Y-116602976D01*
X138791904Y-115917261D02*
X138791904Y-116374404D01*
X138791904Y-116145833D02*
X137991904Y-116145833D01*
X138106190Y-116222023D01*
X138182380Y-116298214D01*
X138220476Y-116374404D01*
X168471904Y-87993928D02*
X169119523Y-87993928D01*
X169195714Y-87955833D01*
X169233809Y-87917738D01*
X169271904Y-87841547D01*
X169271904Y-87689166D01*
X169233809Y-87612976D01*
X169195714Y-87574880D01*
X169119523Y-87536785D01*
X168471904Y-87536785D01*
X169271904Y-86736785D02*
X169271904Y-87193928D01*
X169271904Y-86965357D02*
X168471904Y-86965357D01*
X168586190Y-87041547D01*
X168662380Y-87117738D01*
X168700476Y-87193928D01*
X168738571Y-86051071D02*
X169271904Y-86051071D01*
X168433809Y-86241547D02*
X169005238Y-86432023D01*
X169005238Y-85936785D01*
X154031904Y-88755833D02*
X153231904Y-88755833D01*
X153231904Y-88451071D01*
X153270000Y-88374880D01*
X153308095Y-88336785D01*
X153384285Y-88298690D01*
X153498571Y-88298690D01*
X153574761Y-88336785D01*
X153612857Y-88374880D01*
X153650952Y-88451071D01*
X153650952Y-88755833D01*
X153955714Y-87498690D02*
X153993809Y-87536785D01*
X154031904Y-87651071D01*
X154031904Y-87727261D01*
X153993809Y-87841547D01*
X153917619Y-87917738D01*
X153841428Y-87955833D01*
X153689047Y-87993928D01*
X153574761Y-87993928D01*
X153422380Y-87955833D01*
X153346190Y-87917738D01*
X153270000Y-87841547D01*
X153231904Y-87727261D01*
X153231904Y-87651071D01*
X153270000Y-87536785D01*
X153308095Y-87498690D01*
X154031904Y-86736785D02*
X154031904Y-87193928D01*
X154031904Y-86965357D02*
X153231904Y-86965357D01*
X153346190Y-87041547D01*
X153422380Y-87117738D01*
X153460476Y-87193928D01*
X154031904Y-85974880D02*
X154031904Y-86432023D01*
X154031904Y-86203452D02*
X153231904Y-86203452D01*
X153346190Y-86279642D01*
X153422380Y-86355833D01*
X153460476Y-86432023D01*
X151491904Y-126093928D02*
X150691904Y-126093928D01*
X150691904Y-125789166D01*
X150730000Y-125712976D01*
X150768095Y-125674880D01*
X150844285Y-125636785D01*
X150958571Y-125636785D01*
X151034761Y-125674880D01*
X151072857Y-125712976D01*
X151110952Y-125789166D01*
X151110952Y-126093928D01*
X151072857Y-125027261D02*
X151110952Y-124912976D01*
X151149047Y-124874880D01*
X151225238Y-124836785D01*
X151339523Y-124836785D01*
X151415714Y-124874880D01*
X151453809Y-124912976D01*
X151491904Y-124989166D01*
X151491904Y-125293928D01*
X150691904Y-125293928D01*
X150691904Y-125027261D01*
X150730000Y-124951071D01*
X150768095Y-124912976D01*
X150844285Y-124874880D01*
X150920476Y-124874880D01*
X150996666Y-124912976D01*
X151034761Y-124951071D01*
X151072857Y-125027261D01*
X151072857Y-125293928D01*
X150691904Y-124341547D02*
X150691904Y-124265357D01*
X150730000Y-124189166D01*
X150768095Y-124151071D01*
X150844285Y-124112976D01*
X150996666Y-124074880D01*
X151187142Y-124074880D01*
X151339523Y-124112976D01*
X151415714Y-124151071D01*
X151453809Y-124189166D01*
X151491904Y-124265357D01*
X151491904Y-124341547D01*
X151453809Y-124417738D01*
X151415714Y-124455833D01*
X151339523Y-124493928D01*
X151187142Y-124532023D01*
X150996666Y-124532023D01*
X150844285Y-124493928D01*
X150768095Y-124455833D01*
X150730000Y-124417738D01*
X150691904Y-124341547D01*
X164191904Y-117822023D02*
X163391904Y-117822023D01*
X163391904Y-117517261D01*
X163430000Y-117441071D01*
X163468095Y-117402976D01*
X163544285Y-117364880D01*
X163658571Y-117364880D01*
X163734761Y-117402976D01*
X163772857Y-117441071D01*
X163810952Y-117517261D01*
X163810952Y-117822023D01*
X164115714Y-116564880D02*
X164153809Y-116602976D01*
X164191904Y-116717261D01*
X164191904Y-116793452D01*
X164153809Y-116907738D01*
X164077619Y-116983928D01*
X164001428Y-117022023D01*
X163849047Y-117060119D01*
X163734761Y-117060119D01*
X163582380Y-117022023D01*
X163506190Y-116983928D01*
X163430000Y-116907738D01*
X163391904Y-116793452D01*
X163391904Y-116717261D01*
X163430000Y-116602976D01*
X163468095Y-116564880D01*
X163391904Y-116298214D02*
X163391904Y-115764880D01*
X164191904Y-116107738D01*
X161651904Y-88641547D02*
X160851904Y-88641547D01*
X160851904Y-88336785D01*
X160890000Y-88260595D01*
X160928095Y-88222500D01*
X161004285Y-88184404D01*
X161118571Y-88184404D01*
X161194761Y-88222500D01*
X161232857Y-88260595D01*
X161270952Y-88336785D01*
X161270952Y-88641547D01*
X161423333Y-87879642D02*
X161423333Y-87498690D01*
X161651904Y-87955833D02*
X160851904Y-87689166D01*
X161651904Y-87422500D01*
X161651904Y-86736785D02*
X161651904Y-87193928D01*
X161651904Y-86965357D02*
X160851904Y-86965357D01*
X160966190Y-87041547D01*
X161042380Y-87117738D01*
X161080476Y-87193928D01*
X160851904Y-86470119D02*
X160851904Y-85974880D01*
X161156666Y-86241547D01*
X161156666Y-86127261D01*
X161194761Y-86051071D01*
X161232857Y-86012976D01*
X161309047Y-85974880D01*
X161499523Y-85974880D01*
X161575714Y-86012976D01*
X161613809Y-86051071D01*
X161651904Y-86127261D01*
X161651904Y-86355833D01*
X161613809Y-86432023D01*
X161575714Y-86470119D01*
X133711904Y-126093928D02*
X132911904Y-126093928D01*
X132911904Y-125789166D01*
X132950000Y-125712976D01*
X132988095Y-125674880D01*
X133064285Y-125636785D01*
X133178571Y-125636785D01*
X133254761Y-125674880D01*
X133292857Y-125712976D01*
X133330952Y-125789166D01*
X133330952Y-126093928D01*
X133635714Y-124836785D02*
X133673809Y-124874880D01*
X133711904Y-124989166D01*
X133711904Y-125065357D01*
X133673809Y-125179642D01*
X133597619Y-125255833D01*
X133521428Y-125293928D01*
X133369047Y-125332023D01*
X133254761Y-125332023D01*
X133102380Y-125293928D01*
X133026190Y-125255833D01*
X132950000Y-125179642D01*
X132911904Y-125065357D01*
X132911904Y-124989166D01*
X132950000Y-124874880D01*
X132988095Y-124836785D01*
X132911904Y-124341547D02*
X132911904Y-124265357D01*
X132950000Y-124189166D01*
X132988095Y-124151071D01*
X133064285Y-124112976D01*
X133216666Y-124074880D01*
X133407142Y-124074880D01*
X133559523Y-124112976D01*
X133635714Y-124151071D01*
X133673809Y-124189166D01*
X133711904Y-124265357D01*
X133711904Y-124341547D01*
X133673809Y-124417738D01*
X133635714Y-124455833D01*
X133559523Y-124493928D01*
X133407142Y-124532023D01*
X133216666Y-124532023D01*
X133064285Y-124493928D01*
X132988095Y-124455833D01*
X132950000Y-124417738D01*
X132911904Y-124341547D01*
X141331904Y-79087023D02*
X140531904Y-79087023D01*
X140531904Y-78782261D01*
X140570000Y-78706071D01*
X140608095Y-78667976D01*
X140684285Y-78629880D01*
X140798571Y-78629880D01*
X140874761Y-78667976D01*
X140912857Y-78706071D01*
X140950952Y-78782261D01*
X140950952Y-79087023D01*
X140912857Y-78020357D02*
X140950952Y-77906071D01*
X140989047Y-77867976D01*
X141065238Y-77829880D01*
X141179523Y-77829880D01*
X141255714Y-77867976D01*
X141293809Y-77906071D01*
X141331904Y-77982261D01*
X141331904Y-78287023D01*
X140531904Y-78287023D01*
X140531904Y-78020357D01*
X140570000Y-77944166D01*
X140608095Y-77906071D01*
X140684285Y-77867976D01*
X140760476Y-77867976D01*
X140836666Y-77906071D01*
X140874761Y-77944166D01*
X140912857Y-78020357D01*
X140912857Y-78287023D01*
X140874761Y-77372738D02*
X140836666Y-77448928D01*
X140798571Y-77487023D01*
X140722380Y-77525119D01*
X140684285Y-77525119D01*
X140608095Y-77487023D01*
X140570000Y-77448928D01*
X140531904Y-77372738D01*
X140531904Y-77220357D01*
X140570000Y-77144166D01*
X140608095Y-77106071D01*
X140684285Y-77067976D01*
X140722380Y-77067976D01*
X140798571Y-77106071D01*
X140836666Y-77144166D01*
X140874761Y-77220357D01*
X140874761Y-77372738D01*
X140912857Y-77448928D01*
X140950952Y-77487023D01*
X141027142Y-77525119D01*
X141179523Y-77525119D01*
X141255714Y-77487023D01*
X141293809Y-77448928D01*
X141331904Y-77372738D01*
X141331904Y-77220357D01*
X141293809Y-77144166D01*
X141255714Y-77106071D01*
X141179523Y-77067976D01*
X141027142Y-77067976D01*
X140950952Y-77106071D01*
X140912857Y-77144166D01*
X140874761Y-77220357D01*
X173551904Y-126398690D02*
X173551904Y-125903452D01*
X173856666Y-126170119D01*
X173856666Y-126055833D01*
X173894761Y-125979642D01*
X173932857Y-125941547D01*
X174009047Y-125903452D01*
X174199523Y-125903452D01*
X174275714Y-125941547D01*
X174313809Y-125979642D01*
X174351904Y-126055833D01*
X174351904Y-126284404D01*
X174313809Y-126360595D01*
X174275714Y-126398690D01*
X174275714Y-125560595D02*
X174313809Y-125522500D01*
X174351904Y-125560595D01*
X174313809Y-125598690D01*
X174275714Y-125560595D01*
X174351904Y-125560595D01*
X173551904Y-125255833D02*
X173551904Y-124760595D01*
X173856666Y-125027261D01*
X173856666Y-124912976D01*
X173894761Y-124836785D01*
X173932857Y-124798690D01*
X174009047Y-124760595D01*
X174199523Y-124760595D01*
X174275714Y-124798690D01*
X174313809Y-124836785D01*
X174351904Y-124912976D01*
X174351904Y-125141547D01*
X174313809Y-125217738D01*
X174275714Y-125255833D01*
X173551904Y-124532023D02*
X174351904Y-124265357D01*
X173551904Y-123998690D01*
X143871904Y-125979642D02*
X143071904Y-125979642D01*
X143071904Y-125674880D01*
X143110000Y-125598690D01*
X143148095Y-125560595D01*
X143224285Y-125522500D01*
X143338571Y-125522500D01*
X143414761Y-125560595D01*
X143452857Y-125598690D01*
X143490952Y-125674880D01*
X143490952Y-125979642D01*
X143643333Y-125217738D02*
X143643333Y-124836785D01*
X143871904Y-125293928D02*
X143071904Y-125027261D01*
X143871904Y-124760595D01*
X143338571Y-124151071D02*
X143871904Y-124151071D01*
X143033809Y-124341547D02*
X143605238Y-124532023D01*
X143605238Y-124036785D01*
X171011904Y-79087023D02*
X171659523Y-79087023D01*
X171735714Y-79048928D01*
X171773809Y-79010833D01*
X171811904Y-78934642D01*
X171811904Y-78782261D01*
X171773809Y-78706071D01*
X171735714Y-78667976D01*
X171659523Y-78629880D01*
X171011904Y-78629880D01*
X171811904Y-77829880D02*
X171811904Y-78287023D01*
X171811904Y-78058452D02*
X171011904Y-78058452D01*
X171126190Y-78134642D01*
X171202380Y-78210833D01*
X171240476Y-78287023D01*
X171011904Y-77106071D02*
X171011904Y-77487023D01*
X171392857Y-77525119D01*
X171354761Y-77487023D01*
X171316666Y-77410833D01*
X171316666Y-77220357D01*
X171354761Y-77144166D01*
X171392857Y-77106071D01*
X171469047Y-77067976D01*
X171659523Y-77067976D01*
X171735714Y-77106071D01*
X171773809Y-77144166D01*
X171811904Y-77220357D01*
X171811904Y-77410833D01*
X171773809Y-77487023D01*
X171735714Y-77525119D01*
X137991904Y-87993928D02*
X138639523Y-87993928D01*
X138715714Y-87955833D01*
X138753809Y-87917738D01*
X138791904Y-87841547D01*
X138791904Y-87689166D01*
X138753809Y-87612976D01*
X138715714Y-87574880D01*
X138639523Y-87536785D01*
X137991904Y-87536785D01*
X138791904Y-86736785D02*
X138791904Y-87193928D01*
X138791904Y-86965357D02*
X137991904Y-86965357D01*
X138106190Y-87041547D01*
X138182380Y-87117738D01*
X138220476Y-87193928D01*
X137991904Y-86241547D02*
X137991904Y-86165357D01*
X138030000Y-86089166D01*
X138068095Y-86051071D01*
X138144285Y-86012976D01*
X138296666Y-85974880D01*
X138487142Y-85974880D01*
X138639523Y-86012976D01*
X138715714Y-86051071D01*
X138753809Y-86089166D01*
X138791904Y-86165357D01*
X138791904Y-86241547D01*
X138753809Y-86317738D01*
X138715714Y-86355833D01*
X138639523Y-86393928D01*
X138487142Y-86432023D01*
X138296666Y-86432023D01*
X138144285Y-86393928D01*
X138068095Y-86355833D01*
X138030000Y-86317738D01*
X137991904Y-86241547D01*
X136251904Y-88755833D02*
X135451904Y-88755833D01*
X135451904Y-88451071D01*
X135490000Y-88374880D01*
X135528095Y-88336785D01*
X135604285Y-88298690D01*
X135718571Y-88298690D01*
X135794761Y-88336785D01*
X135832857Y-88374880D01*
X135870952Y-88451071D01*
X135870952Y-88755833D01*
X136175714Y-87498690D02*
X136213809Y-87536785D01*
X136251904Y-87651071D01*
X136251904Y-87727261D01*
X136213809Y-87841547D01*
X136137619Y-87917738D01*
X136061428Y-87955833D01*
X135909047Y-87993928D01*
X135794761Y-87993928D01*
X135642380Y-87955833D01*
X135566190Y-87917738D01*
X135490000Y-87841547D01*
X135451904Y-87727261D01*
X135451904Y-87651071D01*
X135490000Y-87536785D01*
X135528095Y-87498690D01*
X136251904Y-86736785D02*
X136251904Y-87193928D01*
X136251904Y-86965357D02*
X135451904Y-86965357D01*
X135566190Y-87041547D01*
X135642380Y-87117738D01*
X135680476Y-87193928D01*
X135451904Y-86470119D02*
X135451904Y-85974880D01*
X135756666Y-86241547D01*
X135756666Y-86127261D01*
X135794761Y-86051071D01*
X135832857Y-86012976D01*
X135909047Y-85974880D01*
X136099523Y-85974880D01*
X136175714Y-86012976D01*
X136213809Y-86051071D01*
X136251904Y-86127261D01*
X136251904Y-86355833D01*
X136213809Y-86432023D01*
X136175714Y-86470119D01*
X173590000Y-87651071D02*
X173551904Y-87727261D01*
X173551904Y-87841547D01*
X173590000Y-87955833D01*
X173666190Y-88032023D01*
X173742380Y-88070119D01*
X173894761Y-88108214D01*
X174009047Y-88108214D01*
X174161428Y-88070119D01*
X174237619Y-88032023D01*
X174313809Y-87955833D01*
X174351904Y-87841547D01*
X174351904Y-87765357D01*
X174313809Y-87651071D01*
X174275714Y-87612976D01*
X174009047Y-87612976D01*
X174009047Y-87765357D01*
X174351904Y-87270119D02*
X173551904Y-87270119D01*
X174351904Y-86812976D01*
X173551904Y-86812976D01*
X174351904Y-86432023D02*
X173551904Y-86432023D01*
X173551904Y-86241547D01*
X173590000Y-86127261D01*
X173666190Y-86051071D01*
X173742380Y-86012976D01*
X173894761Y-85974880D01*
X174009047Y-85974880D01*
X174161428Y-86012976D01*
X174237619Y-86051071D01*
X174313809Y-86127261D01*
X174351904Y-86241547D01*
X174351904Y-86432023D01*
X173590000Y-117402976D02*
X173551904Y-117479166D01*
X173551904Y-117593452D01*
X173590000Y-117707738D01*
X173666190Y-117783928D01*
X173742380Y-117822023D01*
X173894761Y-117860119D01*
X174009047Y-117860119D01*
X174161428Y-117822023D01*
X174237619Y-117783928D01*
X174313809Y-117707738D01*
X174351904Y-117593452D01*
X174351904Y-117517261D01*
X174313809Y-117402976D01*
X174275714Y-117364880D01*
X174009047Y-117364880D01*
X174009047Y-117517261D01*
X174351904Y-117022023D02*
X173551904Y-117022023D01*
X174351904Y-116564880D01*
X173551904Y-116564880D01*
X174351904Y-116183928D02*
X173551904Y-116183928D01*
X173551904Y-115993452D01*
X173590000Y-115879166D01*
X173666190Y-115802976D01*
X173742380Y-115764880D01*
X173894761Y-115726785D01*
X174009047Y-115726785D01*
X174161428Y-115764880D01*
X174237619Y-115802976D01*
X174313809Y-115879166D01*
X174351904Y-115993452D01*
X174351904Y-116183928D01*
X136251904Y-117822023D02*
X135451904Y-117822023D01*
X135451904Y-117517261D01*
X135490000Y-117441071D01*
X135528095Y-117402976D01*
X135604285Y-117364880D01*
X135718571Y-117364880D01*
X135794761Y-117402976D01*
X135832857Y-117441071D01*
X135870952Y-117517261D01*
X135870952Y-117822023D01*
X136175714Y-116564880D02*
X136213809Y-116602976D01*
X136251904Y-116717261D01*
X136251904Y-116793452D01*
X136213809Y-116907738D01*
X136137619Y-116983928D01*
X136061428Y-117022023D01*
X135909047Y-117060119D01*
X135794761Y-117060119D01*
X135642380Y-117022023D01*
X135566190Y-116983928D01*
X135490000Y-116907738D01*
X135451904Y-116793452D01*
X135451904Y-116717261D01*
X135490000Y-116602976D01*
X135528095Y-116564880D01*
X135451904Y-116298214D02*
X135451904Y-115802976D01*
X135756666Y-116069642D01*
X135756666Y-115955357D01*
X135794761Y-115879166D01*
X135832857Y-115841071D01*
X135909047Y-115802976D01*
X136099523Y-115802976D01*
X136175714Y-115841071D01*
X136213809Y-115879166D01*
X136251904Y-115955357D01*
X136251904Y-116183928D01*
X136213809Y-116260119D01*
X136175714Y-116298214D01*
X173551904Y-79163214D02*
X173551904Y-78667976D01*
X173856666Y-78934642D01*
X173856666Y-78820357D01*
X173894761Y-78744166D01*
X173932857Y-78706071D01*
X174009047Y-78667976D01*
X174199523Y-78667976D01*
X174275714Y-78706071D01*
X174313809Y-78744166D01*
X174351904Y-78820357D01*
X174351904Y-79048928D01*
X174313809Y-79125119D01*
X174275714Y-79163214D01*
X174275714Y-78325119D02*
X174313809Y-78287023D01*
X174351904Y-78325119D01*
X174313809Y-78363214D01*
X174275714Y-78325119D01*
X174351904Y-78325119D01*
X173551904Y-78020357D02*
X173551904Y-77525119D01*
X173856666Y-77791785D01*
X173856666Y-77677500D01*
X173894761Y-77601309D01*
X173932857Y-77563214D01*
X174009047Y-77525119D01*
X174199523Y-77525119D01*
X174275714Y-77563214D01*
X174313809Y-77601309D01*
X174351904Y-77677500D01*
X174351904Y-77906071D01*
X174313809Y-77982261D01*
X174275714Y-78020357D01*
X173551904Y-77296547D02*
X174351904Y-77029880D01*
X173551904Y-76763214D01*
X168471904Y-79087023D02*
X169119523Y-79087023D01*
X169195714Y-79048928D01*
X169233809Y-79010833D01*
X169271904Y-78934642D01*
X169271904Y-78782261D01*
X169233809Y-78706071D01*
X169195714Y-78667976D01*
X169119523Y-78629880D01*
X168471904Y-78629880D01*
X169271904Y-77829880D02*
X169271904Y-78287023D01*
X169271904Y-78058452D02*
X168471904Y-78058452D01*
X168586190Y-78134642D01*
X168662380Y-78210833D01*
X168700476Y-78287023D01*
X168471904Y-77563214D02*
X168471904Y-77067976D01*
X168776666Y-77334642D01*
X168776666Y-77220357D01*
X168814761Y-77144166D01*
X168852857Y-77106071D01*
X168929047Y-77067976D01*
X169119523Y-77067976D01*
X169195714Y-77106071D01*
X169233809Y-77144166D01*
X169271904Y-77220357D01*
X169271904Y-77448928D01*
X169233809Y-77525119D01*
X169195714Y-77563214D01*
X146411904Y-117822023D02*
X145611904Y-117822023D01*
X145611904Y-117517261D01*
X145650000Y-117441071D01*
X145688095Y-117402976D01*
X145764285Y-117364880D01*
X145878571Y-117364880D01*
X145954761Y-117402976D01*
X145992857Y-117441071D01*
X146030952Y-117517261D01*
X146030952Y-117822023D01*
X146183333Y-117060119D02*
X146183333Y-116679166D01*
X146411904Y-117136309D02*
X145611904Y-116869642D01*
X146411904Y-116602976D01*
X145611904Y-116412500D02*
X145611904Y-115879166D01*
X146411904Y-116222023D01*
X146411904Y-79087023D02*
X145611904Y-79087023D01*
X145611904Y-78782261D01*
X145650000Y-78706071D01*
X145688095Y-78667976D01*
X145764285Y-78629880D01*
X145878571Y-78629880D01*
X145954761Y-78667976D01*
X145992857Y-78706071D01*
X146030952Y-78782261D01*
X146030952Y-79087023D01*
X145992857Y-78020357D02*
X146030952Y-77906071D01*
X146069047Y-77867976D01*
X146145238Y-77829880D01*
X146259523Y-77829880D01*
X146335714Y-77867976D01*
X146373809Y-77906071D01*
X146411904Y-77982261D01*
X146411904Y-78287023D01*
X145611904Y-78287023D01*
X145611904Y-78020357D01*
X145650000Y-77944166D01*
X145688095Y-77906071D01*
X145764285Y-77867976D01*
X145840476Y-77867976D01*
X145916666Y-77906071D01*
X145954761Y-77944166D01*
X145992857Y-78020357D01*
X145992857Y-78287023D01*
X145878571Y-77144166D02*
X146411904Y-77144166D01*
X145573809Y-77334642D02*
X146145238Y-77525119D01*
X146145238Y-77029880D01*
X127870000Y-87651071D02*
X127831904Y-87727261D01*
X127831904Y-87841547D01*
X127870000Y-87955833D01*
X127946190Y-88032023D01*
X128022380Y-88070119D01*
X128174761Y-88108214D01*
X128289047Y-88108214D01*
X128441428Y-88070119D01*
X128517619Y-88032023D01*
X128593809Y-87955833D01*
X128631904Y-87841547D01*
X128631904Y-87765357D01*
X128593809Y-87651071D01*
X128555714Y-87612976D01*
X128289047Y-87612976D01*
X128289047Y-87765357D01*
X128631904Y-87270119D02*
X127831904Y-87270119D01*
X128631904Y-86812976D01*
X127831904Y-86812976D01*
X128631904Y-86432023D02*
X127831904Y-86432023D01*
X127831904Y-86241547D01*
X127870000Y-86127261D01*
X127946190Y-86051071D01*
X128022380Y-86012976D01*
X128174761Y-85974880D01*
X128289047Y-85974880D01*
X128441428Y-86012976D01*
X128517619Y-86051071D01*
X128593809Y-86127261D01*
X128631904Y-86241547D01*
X128631904Y-86432023D01*
X143871904Y-117822023D02*
X143071904Y-117822023D01*
X143071904Y-117517261D01*
X143110000Y-117441071D01*
X143148095Y-117402976D01*
X143224285Y-117364880D01*
X143338571Y-117364880D01*
X143414761Y-117402976D01*
X143452857Y-117441071D01*
X143490952Y-117517261D01*
X143490952Y-117822023D01*
X143643333Y-117060119D02*
X143643333Y-116679166D01*
X143871904Y-117136309D02*
X143071904Y-116869642D01*
X143871904Y-116602976D01*
X143071904Y-115955357D02*
X143071904Y-116336309D01*
X143452857Y-116374404D01*
X143414761Y-116336309D01*
X143376666Y-116260119D01*
X143376666Y-116069642D01*
X143414761Y-115993452D01*
X143452857Y-115955357D01*
X143529047Y-115917261D01*
X143719523Y-115917261D01*
X143795714Y-115955357D01*
X143833809Y-115993452D01*
X143871904Y-116069642D01*
X143871904Y-116260119D01*
X143833809Y-116336309D01*
X143795714Y-116374404D01*
X159111904Y-88641547D02*
X158311904Y-88641547D01*
X158311904Y-88336785D01*
X158350000Y-88260595D01*
X158388095Y-88222500D01*
X158464285Y-88184404D01*
X158578571Y-88184404D01*
X158654761Y-88222500D01*
X158692857Y-88260595D01*
X158730952Y-88336785D01*
X158730952Y-88641547D01*
X158883333Y-87879642D02*
X158883333Y-87498690D01*
X159111904Y-87955833D02*
X158311904Y-87689166D01*
X159111904Y-87422500D01*
X159111904Y-86736785D02*
X159111904Y-87193928D01*
X159111904Y-86965357D02*
X158311904Y-86965357D01*
X158426190Y-87041547D01*
X158502380Y-87117738D01*
X158540476Y-87193928D01*
X158311904Y-86012976D02*
X158311904Y-86393928D01*
X158692857Y-86432023D01*
X158654761Y-86393928D01*
X158616666Y-86317738D01*
X158616666Y-86127261D01*
X158654761Y-86051071D01*
X158692857Y-86012976D01*
X158769047Y-85974880D01*
X158959523Y-85974880D01*
X159035714Y-86012976D01*
X159073809Y-86051071D01*
X159111904Y-86127261D01*
X159111904Y-86317738D01*
X159073809Y-86393928D01*
X159035714Y-86432023D01*
X159111904Y-79087023D02*
X158311904Y-79087023D01*
X158311904Y-78782261D01*
X158350000Y-78706071D01*
X158388095Y-78667976D01*
X158464285Y-78629880D01*
X158578571Y-78629880D01*
X158654761Y-78667976D01*
X158692857Y-78706071D01*
X158730952Y-78782261D01*
X158730952Y-79087023D01*
X158883333Y-78325119D02*
X158883333Y-77944166D01*
X159111904Y-78401309D02*
X158311904Y-78134642D01*
X159111904Y-77867976D01*
X159111904Y-77182261D02*
X159111904Y-77639404D01*
X159111904Y-77410833D02*
X158311904Y-77410833D01*
X158426190Y-77487023D01*
X158502380Y-77563214D01*
X158540476Y-77639404D01*
X158578571Y-76496547D02*
X159111904Y-76496547D01*
X158273809Y-76687023D02*
X158845238Y-76877500D01*
X158845238Y-76382261D01*
X148951904Y-126093928D02*
X148151904Y-126093928D01*
X148151904Y-125789166D01*
X148190000Y-125712976D01*
X148228095Y-125674880D01*
X148304285Y-125636785D01*
X148418571Y-125636785D01*
X148494761Y-125674880D01*
X148532857Y-125712976D01*
X148570952Y-125789166D01*
X148570952Y-126093928D01*
X148875714Y-124836785D02*
X148913809Y-124874880D01*
X148951904Y-124989166D01*
X148951904Y-125065357D01*
X148913809Y-125179642D01*
X148837619Y-125255833D01*
X148761428Y-125293928D01*
X148609047Y-125332023D01*
X148494761Y-125332023D01*
X148342380Y-125293928D01*
X148266190Y-125255833D01*
X148190000Y-125179642D01*
X148151904Y-125065357D01*
X148151904Y-124989166D01*
X148190000Y-124874880D01*
X148228095Y-124836785D01*
X148418571Y-124151071D02*
X148951904Y-124151071D01*
X148113809Y-124341547D02*
X148685238Y-124532023D01*
X148685238Y-124036785D01*
X161651904Y-79087023D02*
X160851904Y-79087023D01*
X160851904Y-78782261D01*
X160890000Y-78706071D01*
X160928095Y-78667976D01*
X161004285Y-78629880D01*
X161118571Y-78629880D01*
X161194761Y-78667976D01*
X161232857Y-78706071D01*
X161270952Y-78782261D01*
X161270952Y-79087023D01*
X161423333Y-78325119D02*
X161423333Y-77944166D01*
X161651904Y-78401309D02*
X160851904Y-78134642D01*
X161651904Y-77867976D01*
X161651904Y-77182261D02*
X161651904Y-77639404D01*
X161651904Y-77410833D02*
X160851904Y-77410833D01*
X160966190Y-77487023D01*
X161042380Y-77563214D01*
X161080476Y-77639404D01*
X160928095Y-76877500D02*
X160890000Y-76839404D01*
X160851904Y-76763214D01*
X160851904Y-76572738D01*
X160890000Y-76496547D01*
X160928095Y-76458452D01*
X161004285Y-76420357D01*
X161080476Y-76420357D01*
X161194761Y-76458452D01*
X161651904Y-76915595D01*
X161651904Y-76420357D01*
X164191904Y-88641547D02*
X163391904Y-88641547D01*
X163391904Y-88336785D01*
X163430000Y-88260595D01*
X163468095Y-88222500D01*
X163544285Y-88184404D01*
X163658571Y-88184404D01*
X163734761Y-88222500D01*
X163772857Y-88260595D01*
X163810952Y-88336785D01*
X163810952Y-88641547D01*
X163963333Y-87879642D02*
X163963333Y-87498690D01*
X164191904Y-87955833D02*
X163391904Y-87689166D01*
X164191904Y-87422500D01*
X164191904Y-86736785D02*
X164191904Y-87193928D01*
X164191904Y-86965357D02*
X163391904Y-86965357D01*
X163506190Y-87041547D01*
X163582380Y-87117738D01*
X163620476Y-87193928D01*
X164191904Y-85974880D02*
X164191904Y-86432023D01*
X164191904Y-86203452D02*
X163391904Y-86203452D01*
X163506190Y-86279642D01*
X163582380Y-86355833D01*
X163620476Y-86432023D01*
X168471904Y-117822023D02*
X169119523Y-117822023D01*
X169195714Y-117783928D01*
X169233809Y-117745833D01*
X169271904Y-117669642D01*
X169271904Y-117517261D01*
X169233809Y-117441071D01*
X169195714Y-117402976D01*
X169119523Y-117364880D01*
X168471904Y-117364880D01*
X168548095Y-117022023D02*
X168510000Y-116983928D01*
X168471904Y-116907738D01*
X168471904Y-116717261D01*
X168510000Y-116641071D01*
X168548095Y-116602976D01*
X168624285Y-116564880D01*
X168700476Y-116564880D01*
X168814761Y-116602976D01*
X169271904Y-117060119D01*
X169271904Y-116564880D01*
X136251904Y-79087023D02*
X135451904Y-79087023D01*
X135451904Y-78782261D01*
X135490000Y-78706071D01*
X135528095Y-78667976D01*
X135604285Y-78629880D01*
X135718571Y-78629880D01*
X135794761Y-78667976D01*
X135832857Y-78706071D01*
X135870952Y-78782261D01*
X135870952Y-79087023D01*
X136175714Y-77829880D02*
X136213809Y-77867976D01*
X136251904Y-77982261D01*
X136251904Y-78058452D01*
X136213809Y-78172738D01*
X136137619Y-78248928D01*
X136061428Y-78287023D01*
X135909047Y-78325119D01*
X135794761Y-78325119D01*
X135642380Y-78287023D01*
X135566190Y-78248928D01*
X135490000Y-78172738D01*
X135451904Y-78058452D01*
X135451904Y-77982261D01*
X135490000Y-77867976D01*
X135528095Y-77829880D01*
X136251904Y-77067976D02*
X136251904Y-77525119D01*
X136251904Y-77296547D02*
X135451904Y-77296547D01*
X135566190Y-77372738D01*
X135642380Y-77448928D01*
X135680476Y-77525119D01*
X135718571Y-76382261D02*
X136251904Y-76382261D01*
X135413809Y-76572738D02*
X135985238Y-76763214D01*
X135985238Y-76267976D01*
X143871904Y-79087023D02*
X143071904Y-79087023D01*
X143071904Y-78782261D01*
X143110000Y-78706071D01*
X143148095Y-78667976D01*
X143224285Y-78629880D01*
X143338571Y-78629880D01*
X143414761Y-78667976D01*
X143452857Y-78706071D01*
X143490952Y-78782261D01*
X143490952Y-79087023D01*
X143452857Y-78020357D02*
X143490952Y-77906071D01*
X143529047Y-77867976D01*
X143605238Y-77829880D01*
X143719523Y-77829880D01*
X143795714Y-77867976D01*
X143833809Y-77906071D01*
X143871904Y-77982261D01*
X143871904Y-78287023D01*
X143071904Y-78287023D01*
X143071904Y-78020357D01*
X143110000Y-77944166D01*
X143148095Y-77906071D01*
X143224285Y-77867976D01*
X143300476Y-77867976D01*
X143376666Y-77906071D01*
X143414761Y-77944166D01*
X143452857Y-78020357D01*
X143452857Y-78287023D01*
X143071904Y-77144166D02*
X143071904Y-77296547D01*
X143110000Y-77372738D01*
X143148095Y-77410833D01*
X143262380Y-77487023D01*
X143414761Y-77525119D01*
X143719523Y-77525119D01*
X143795714Y-77487023D01*
X143833809Y-77448928D01*
X143871904Y-77372738D01*
X143871904Y-77220357D01*
X143833809Y-77144166D01*
X143795714Y-77106071D01*
X143719523Y-77067976D01*
X143529047Y-77067976D01*
X143452857Y-77106071D01*
X143414761Y-77144166D01*
X143376666Y-77220357D01*
X143376666Y-77372738D01*
X143414761Y-77448928D01*
X143452857Y-77487023D01*
X143529047Y-77525119D01*
X171011904Y-117822023D02*
X171659523Y-117822023D01*
X171735714Y-117783928D01*
X171773809Y-117745833D01*
X171811904Y-117669642D01*
X171811904Y-117517261D01*
X171773809Y-117441071D01*
X171735714Y-117402976D01*
X171659523Y-117364880D01*
X171011904Y-117364880D01*
X171278571Y-116641071D02*
X171811904Y-116641071D01*
X170973809Y-116831547D02*
X171545238Y-117022023D01*
X171545238Y-116526785D01*
X161651904Y-126855833D02*
X160851904Y-126855833D01*
X160851904Y-126551071D01*
X160890000Y-126474880D01*
X160928095Y-126436785D01*
X161004285Y-126398690D01*
X161118571Y-126398690D01*
X161194761Y-126436785D01*
X161232857Y-126474880D01*
X161270952Y-126551071D01*
X161270952Y-126855833D01*
X161232857Y-125789166D02*
X161270952Y-125674880D01*
X161309047Y-125636785D01*
X161385238Y-125598690D01*
X161499523Y-125598690D01*
X161575714Y-125636785D01*
X161613809Y-125674880D01*
X161651904Y-125751071D01*
X161651904Y-126055833D01*
X160851904Y-126055833D01*
X160851904Y-125789166D01*
X160890000Y-125712976D01*
X160928095Y-125674880D01*
X161004285Y-125636785D01*
X161080476Y-125636785D01*
X161156666Y-125674880D01*
X161194761Y-125712976D01*
X161232857Y-125789166D01*
X161232857Y-126055833D01*
X161651904Y-124836785D02*
X161651904Y-125293928D01*
X161651904Y-125065357D02*
X160851904Y-125065357D01*
X160966190Y-125141547D01*
X161042380Y-125217738D01*
X161080476Y-125293928D01*
X161118571Y-124151071D02*
X161651904Y-124151071D01*
X160813809Y-124341547D02*
X161385238Y-124532023D01*
X161385238Y-124036785D01*
X146411904Y-125979642D02*
X145611904Y-125979642D01*
X145611904Y-125674880D01*
X145650000Y-125598690D01*
X145688095Y-125560595D01*
X145764285Y-125522500D01*
X145878571Y-125522500D01*
X145954761Y-125560595D01*
X145992857Y-125598690D01*
X146030952Y-125674880D01*
X146030952Y-125979642D01*
X146183333Y-125217738D02*
X146183333Y-124836785D01*
X146411904Y-125293928D02*
X145611904Y-125027261D01*
X146411904Y-124760595D01*
X145611904Y-124151071D02*
X145611904Y-124303452D01*
X145650000Y-124379642D01*
X145688095Y-124417738D01*
X145802380Y-124493928D01*
X145954761Y-124532023D01*
X146259523Y-124532023D01*
X146335714Y-124493928D01*
X146373809Y-124455833D01*
X146411904Y-124379642D01*
X146411904Y-124227261D01*
X146373809Y-124151071D01*
X146335714Y-124112976D01*
X146259523Y-124074880D01*
X146069047Y-124074880D01*
X145992857Y-124112976D01*
X145954761Y-124151071D01*
X145916666Y-124227261D01*
X145916666Y-124379642D01*
X145954761Y-124455833D01*
X145992857Y-124493928D01*
X146069047Y-124532023D01*
X153231904Y-117822023D02*
X153879523Y-117822023D01*
X153955714Y-117783928D01*
X153993809Y-117745833D01*
X154031904Y-117669642D01*
X154031904Y-117517261D01*
X153993809Y-117441071D01*
X153955714Y-117402976D01*
X153879523Y-117364880D01*
X153231904Y-117364880D01*
X153231904Y-116831547D02*
X153231904Y-116755357D01*
X153270000Y-116679166D01*
X153308095Y-116641071D01*
X153384285Y-116602976D01*
X153536666Y-116564880D01*
X153727142Y-116564880D01*
X153879523Y-116602976D01*
X153955714Y-116641071D01*
X153993809Y-116679166D01*
X154031904Y-116755357D01*
X154031904Y-116831547D01*
X153993809Y-116907738D01*
X153955714Y-116945833D01*
X153879523Y-116983928D01*
X153727142Y-117022023D01*
X153536666Y-117022023D01*
X153384285Y-116983928D01*
X153308095Y-116945833D01*
X153270000Y-116907738D01*
X153231904Y-116831547D01*
X156571904Y-126855833D02*
X155771904Y-126855833D01*
X155771904Y-126551071D01*
X155810000Y-126474880D01*
X155848095Y-126436785D01*
X155924285Y-126398690D01*
X156038571Y-126398690D01*
X156114761Y-126436785D01*
X156152857Y-126474880D01*
X156190952Y-126551071D01*
X156190952Y-126855833D01*
X156152857Y-125789166D02*
X156190952Y-125674880D01*
X156229047Y-125636785D01*
X156305238Y-125598690D01*
X156419523Y-125598690D01*
X156495714Y-125636785D01*
X156533809Y-125674880D01*
X156571904Y-125751071D01*
X156571904Y-126055833D01*
X155771904Y-126055833D01*
X155771904Y-125789166D01*
X155810000Y-125712976D01*
X155848095Y-125674880D01*
X155924285Y-125636785D01*
X156000476Y-125636785D01*
X156076666Y-125674880D01*
X156114761Y-125712976D01*
X156152857Y-125789166D01*
X156152857Y-126055833D01*
X156571904Y-124836785D02*
X156571904Y-125293928D01*
X156571904Y-125065357D02*
X155771904Y-125065357D01*
X155886190Y-125141547D01*
X155962380Y-125217738D01*
X156000476Y-125293928D01*
X155771904Y-124341547D02*
X155771904Y-124265357D01*
X155810000Y-124189166D01*
X155848095Y-124151071D01*
X155924285Y-124112976D01*
X156076666Y-124074880D01*
X156267142Y-124074880D01*
X156419523Y-124112976D01*
X156495714Y-124151071D01*
X156533809Y-124189166D01*
X156571904Y-124265357D01*
X156571904Y-124341547D01*
X156533809Y-124417738D01*
X156495714Y-124455833D01*
X156419523Y-124493928D01*
X156267142Y-124532023D01*
X156076666Y-124532023D01*
X155924285Y-124493928D01*
X155848095Y-124455833D01*
X155810000Y-124417738D01*
X155771904Y-124341547D01*
X127831904Y-79163214D02*
X127831904Y-78667976D01*
X128136666Y-78934642D01*
X128136666Y-78820357D01*
X128174761Y-78744166D01*
X128212857Y-78706071D01*
X128289047Y-78667976D01*
X128479523Y-78667976D01*
X128555714Y-78706071D01*
X128593809Y-78744166D01*
X128631904Y-78820357D01*
X128631904Y-79048928D01*
X128593809Y-79125119D01*
X128555714Y-79163214D01*
X128555714Y-78325119D02*
X128593809Y-78287023D01*
X128631904Y-78325119D01*
X128593809Y-78363214D01*
X128555714Y-78325119D01*
X128631904Y-78325119D01*
X127831904Y-78020357D02*
X127831904Y-77525119D01*
X128136666Y-77791785D01*
X128136666Y-77677500D01*
X128174761Y-77601309D01*
X128212857Y-77563214D01*
X128289047Y-77525119D01*
X128479523Y-77525119D01*
X128555714Y-77563214D01*
X128593809Y-77601309D01*
X128631904Y-77677500D01*
X128631904Y-77906071D01*
X128593809Y-77982261D01*
X128555714Y-78020357D01*
X127831904Y-77296547D02*
X128631904Y-77029880D01*
X127831904Y-76763214D01*
X151491904Y-79087023D02*
X150691904Y-79087023D01*
X150691904Y-78782261D01*
X150730000Y-78706071D01*
X150768095Y-78667976D01*
X150844285Y-78629880D01*
X150958571Y-78629880D01*
X151034761Y-78667976D01*
X151072857Y-78706071D01*
X151110952Y-78782261D01*
X151110952Y-79087023D01*
X151415714Y-77829880D02*
X151453809Y-77867976D01*
X151491904Y-77982261D01*
X151491904Y-78058452D01*
X151453809Y-78172738D01*
X151377619Y-78248928D01*
X151301428Y-78287023D01*
X151149047Y-78325119D01*
X151034761Y-78325119D01*
X150882380Y-78287023D01*
X150806190Y-78248928D01*
X150730000Y-78172738D01*
X150691904Y-78058452D01*
X150691904Y-77982261D01*
X150730000Y-77867976D01*
X150768095Y-77829880D01*
X151491904Y-77067976D02*
X151491904Y-77525119D01*
X151491904Y-77296547D02*
X150691904Y-77296547D01*
X150806190Y-77372738D01*
X150882380Y-77448928D01*
X150920476Y-77525119D01*
X150768095Y-76763214D02*
X150730000Y-76725119D01*
X150691904Y-76648928D01*
X150691904Y-76458452D01*
X150730000Y-76382261D01*
X150768095Y-76344166D01*
X150844285Y-76306071D01*
X150920476Y-76306071D01*
X151034761Y-76344166D01*
X151491904Y-76801309D01*
X151491904Y-76306071D01*
X133711904Y-117822023D02*
X132911904Y-117822023D01*
X132911904Y-117517261D01*
X132950000Y-117441071D01*
X132988095Y-117402976D01*
X133064285Y-117364880D01*
X133178571Y-117364880D01*
X133254761Y-117402976D01*
X133292857Y-117441071D01*
X133330952Y-117517261D01*
X133330952Y-117822023D01*
X133635714Y-116564880D02*
X133673809Y-116602976D01*
X133711904Y-116717261D01*
X133711904Y-116793452D01*
X133673809Y-116907738D01*
X133597619Y-116983928D01*
X133521428Y-117022023D01*
X133369047Y-117060119D01*
X133254761Y-117060119D01*
X133102380Y-117022023D01*
X133026190Y-116983928D01*
X132950000Y-116907738D01*
X132911904Y-116793452D01*
X132911904Y-116717261D01*
X132950000Y-116602976D01*
X132988095Y-116564880D01*
X133711904Y-115802976D02*
X133711904Y-116260119D01*
X133711904Y-116031547D02*
X132911904Y-116031547D01*
X133026190Y-116107738D01*
X133102380Y-116183928D01*
X133140476Y-116260119D01*
X143871904Y-87993928D02*
X143071904Y-87993928D01*
X143071904Y-87689166D01*
X143110000Y-87612976D01*
X143148095Y-87574880D01*
X143224285Y-87536785D01*
X143338571Y-87536785D01*
X143414761Y-87574880D01*
X143452857Y-87612976D01*
X143490952Y-87689166D01*
X143490952Y-87993928D01*
X143452857Y-86927261D02*
X143490952Y-86812976D01*
X143529047Y-86774880D01*
X143605238Y-86736785D01*
X143719523Y-86736785D01*
X143795714Y-86774880D01*
X143833809Y-86812976D01*
X143871904Y-86889166D01*
X143871904Y-87193928D01*
X143071904Y-87193928D01*
X143071904Y-86927261D01*
X143110000Y-86851071D01*
X143148095Y-86812976D01*
X143224285Y-86774880D01*
X143300476Y-86774880D01*
X143376666Y-86812976D01*
X143414761Y-86851071D01*
X143452857Y-86927261D01*
X143452857Y-87193928D01*
X143071904Y-86470119D02*
X143071904Y-85936785D01*
X143871904Y-86279642D01*
X164191904Y-79087023D02*
X163391904Y-79087023D01*
X163391904Y-78782261D01*
X163430000Y-78706071D01*
X163468095Y-78667976D01*
X163544285Y-78629880D01*
X163658571Y-78629880D01*
X163734761Y-78667976D01*
X163772857Y-78706071D01*
X163810952Y-78782261D01*
X163810952Y-79087023D01*
X163963333Y-78325119D02*
X163963333Y-77944166D01*
X164191904Y-78401309D02*
X163391904Y-78134642D01*
X164191904Y-77867976D01*
X164191904Y-77182261D02*
X164191904Y-77639404D01*
X164191904Y-77410833D02*
X163391904Y-77410833D01*
X163506190Y-77487023D01*
X163582380Y-77563214D01*
X163620476Y-77639404D01*
X163391904Y-76687023D02*
X163391904Y-76610833D01*
X163430000Y-76534642D01*
X163468095Y-76496547D01*
X163544285Y-76458452D01*
X163696666Y-76420357D01*
X163887142Y-76420357D01*
X164039523Y-76458452D01*
X164115714Y-76496547D01*
X164153809Y-76534642D01*
X164191904Y-76610833D01*
X164191904Y-76687023D01*
X164153809Y-76763214D01*
X164115714Y-76801309D01*
X164039523Y-76839404D01*
X163887142Y-76877500D01*
X163696666Y-76877500D01*
X163544285Y-76839404D01*
X163468095Y-76801309D01*
X163430000Y-76763214D01*
X163391904Y-76687023D01*
X127870000Y-117402976D02*
X127831904Y-117479166D01*
X127831904Y-117593452D01*
X127870000Y-117707738D01*
X127946190Y-117783928D01*
X128022380Y-117822023D01*
X128174761Y-117860119D01*
X128289047Y-117860119D01*
X128441428Y-117822023D01*
X128517619Y-117783928D01*
X128593809Y-117707738D01*
X128631904Y-117593452D01*
X128631904Y-117517261D01*
X128593809Y-117402976D01*
X128555714Y-117364880D01*
X128289047Y-117364880D01*
X128289047Y-117517261D01*
X128631904Y-117022023D02*
X127831904Y-117022023D01*
X128631904Y-116564880D01*
X127831904Y-116564880D01*
X128631904Y-116183928D02*
X127831904Y-116183928D01*
X127831904Y-115993452D01*
X127870000Y-115879166D01*
X127946190Y-115802976D01*
X128022380Y-115764880D01*
X128174761Y-115726785D01*
X128289047Y-115726785D01*
X128441428Y-115764880D01*
X128517619Y-115802976D01*
X128593809Y-115879166D01*
X128631904Y-115993452D01*
X128631904Y-116183928D01*
X130371904Y-87232023D02*
X131019523Y-87232023D01*
X131095714Y-87193928D01*
X131133809Y-87155833D01*
X131171904Y-87079642D01*
X131171904Y-86927261D01*
X131133809Y-86851071D01*
X131095714Y-86812976D01*
X131019523Y-86774880D01*
X130371904Y-86774880D01*
X130371904Y-86051071D02*
X130371904Y-86203452D01*
X130410000Y-86279642D01*
X130448095Y-86317738D01*
X130562380Y-86393928D01*
X130714761Y-86432023D01*
X131019523Y-86432023D01*
X131095714Y-86393928D01*
X131133809Y-86355833D01*
X131171904Y-86279642D01*
X131171904Y-86127261D01*
X131133809Y-86051071D01*
X131095714Y-86012976D01*
X131019523Y-85974880D01*
X130829047Y-85974880D01*
X130752857Y-86012976D01*
X130714761Y-86051071D01*
X130676666Y-86127261D01*
X130676666Y-86279642D01*
X130714761Y-86355833D01*
X130752857Y-86393928D01*
X130829047Y-86432023D01*
X159111904Y-117822023D02*
X158311904Y-117822023D01*
X158311904Y-117517261D01*
X158350000Y-117441071D01*
X158388095Y-117402976D01*
X158464285Y-117364880D01*
X158578571Y-117364880D01*
X158654761Y-117402976D01*
X158692857Y-117441071D01*
X158730952Y-117517261D01*
X158730952Y-117822023D01*
X158692857Y-116755357D02*
X158730952Y-116641071D01*
X158769047Y-116602976D01*
X158845238Y-116564880D01*
X158959523Y-116564880D01*
X159035714Y-116602976D01*
X159073809Y-116641071D01*
X159111904Y-116717261D01*
X159111904Y-117022023D01*
X158311904Y-117022023D01*
X158311904Y-116755357D01*
X158350000Y-116679166D01*
X158388095Y-116641071D01*
X158464285Y-116602976D01*
X158540476Y-116602976D01*
X158616666Y-116641071D01*
X158654761Y-116679166D01*
X158692857Y-116755357D01*
X158692857Y-117022023D01*
X159111904Y-115802976D02*
X159111904Y-116260119D01*
X159111904Y-116031547D02*
X158311904Y-116031547D01*
X158426190Y-116107738D01*
X158502380Y-116183928D01*
X158540476Y-116260119D01*
X158311904Y-115536309D02*
X158311904Y-115041071D01*
X158616666Y-115307738D01*
X158616666Y-115193452D01*
X158654761Y-115117261D01*
X158692857Y-115079166D01*
X158769047Y-115041071D01*
X158959523Y-115041071D01*
X159035714Y-115079166D01*
X159073809Y-115117261D01*
X159111904Y-115193452D01*
X159111904Y-115422023D01*
X159073809Y-115498214D01*
X159035714Y-115536309D01*
G04 #@! TO.C,C2*
X169902142Y-115736666D02*
X169949761Y-115784285D01*
X169997380Y-115927142D01*
X169997380Y-116022380D01*
X169949761Y-116165238D01*
X169854523Y-116260476D01*
X169759285Y-116308095D01*
X169568809Y-116355714D01*
X169425952Y-116355714D01*
X169235476Y-116308095D01*
X169140238Y-116260476D01*
X169045000Y-116165238D01*
X168997380Y-116022380D01*
X168997380Y-115927142D01*
X169045000Y-115784285D01*
X169092619Y-115736666D01*
X169092619Y-115355714D02*
X169045000Y-115308095D01*
X168997380Y-115212857D01*
X168997380Y-114974761D01*
X169045000Y-114879523D01*
X169092619Y-114831904D01*
X169187857Y-114784285D01*
X169283095Y-114784285D01*
X169425952Y-114831904D01*
X169997380Y-115403333D01*
X169997380Y-114784285D01*
G04 #@! TO.C,C6*
X171807142Y-115736666D02*
X171854761Y-115784285D01*
X171902380Y-115927142D01*
X171902380Y-116022380D01*
X171854761Y-116165238D01*
X171759523Y-116260476D01*
X171664285Y-116308095D01*
X171473809Y-116355714D01*
X171330952Y-116355714D01*
X171140476Y-116308095D01*
X171045238Y-116260476D01*
X170950000Y-116165238D01*
X170902380Y-116022380D01*
X170902380Y-115927142D01*
X170950000Y-115784285D01*
X170997619Y-115736666D01*
X170902380Y-114879523D02*
X170902380Y-115070000D01*
X170950000Y-115165238D01*
X170997619Y-115212857D01*
X171140476Y-115308095D01*
X171330952Y-115355714D01*
X171711904Y-115355714D01*
X171807142Y-115308095D01*
X171854761Y-115260476D01*
X171902380Y-115165238D01*
X171902380Y-114974761D01*
X171854761Y-114879523D01*
X171807142Y-114831904D01*
X171711904Y-114784285D01*
X171473809Y-114784285D01*
X171378571Y-114831904D01*
X171330952Y-114879523D01*
X171283333Y-114974761D01*
X171283333Y-115165238D01*
X171330952Y-115260476D01*
X171378571Y-115308095D01*
X171473809Y-115355714D01*
G04 #@! TO.C,D3*
X114831904Y-91892380D02*
X114831904Y-90892380D01*
X115070000Y-90892380D01*
X115212857Y-90940000D01*
X115308095Y-91035238D01*
X115355714Y-91130476D01*
X115403333Y-91320952D01*
X115403333Y-91463809D01*
X115355714Y-91654285D01*
X115308095Y-91749523D01*
X115212857Y-91844761D01*
X115070000Y-91892380D01*
X114831904Y-91892380D01*
X115736666Y-90892380D02*
X116355714Y-90892380D01*
X116022380Y-91273333D01*
X116165238Y-91273333D01*
X116260476Y-91320952D01*
X116308095Y-91368571D01*
X116355714Y-91463809D01*
X116355714Y-91701904D01*
X116308095Y-91797142D01*
X116260476Y-91844761D01*
X116165238Y-91892380D01*
X115879523Y-91892380D01*
X115784285Y-91844761D01*
X115736666Y-91797142D01*
G04 #@! TO.C,Q1*
X182784761Y-90122619D02*
X182689523Y-90075000D01*
X182594285Y-89979761D01*
X182451428Y-89836904D01*
X182356190Y-89789285D01*
X182260952Y-89789285D01*
X182308571Y-90027380D02*
X182213333Y-89979761D01*
X182118095Y-89884523D01*
X182070476Y-89694047D01*
X182070476Y-89360714D01*
X182118095Y-89170238D01*
X182213333Y-89075000D01*
X182308571Y-89027380D01*
X182499047Y-89027380D01*
X182594285Y-89075000D01*
X182689523Y-89170238D01*
X182737142Y-89360714D01*
X182737142Y-89694047D01*
X182689523Y-89884523D01*
X182594285Y-89979761D01*
X182499047Y-90027380D01*
X182308571Y-90027380D01*
X183689523Y-90027380D02*
X183118095Y-90027380D01*
X183403809Y-90027380D02*
X183403809Y-89027380D01*
X183308571Y-89170238D01*
X183213333Y-89265476D01*
X183118095Y-89313095D01*
G04 #@! TO.C,R16*
X165552380Y-112402857D02*
X165076190Y-112736190D01*
X165552380Y-112974285D02*
X164552380Y-112974285D01*
X164552380Y-112593333D01*
X164600000Y-112498095D01*
X164647619Y-112450476D01*
X164742857Y-112402857D01*
X164885714Y-112402857D01*
X164980952Y-112450476D01*
X165028571Y-112498095D01*
X165076190Y-112593333D01*
X165076190Y-112974285D01*
X165552380Y-111450476D02*
X165552380Y-112021904D01*
X165552380Y-111736190D02*
X164552380Y-111736190D01*
X164695238Y-111831428D01*
X164790476Y-111926666D01*
X164838095Y-112021904D01*
X164552380Y-110593333D02*
X164552380Y-110783809D01*
X164600000Y-110879047D01*
X164647619Y-110926666D01*
X164790476Y-111021904D01*
X164980952Y-111069523D01*
X165361904Y-111069523D01*
X165457142Y-111021904D01*
X165504761Y-110974285D01*
X165552380Y-110879047D01*
X165552380Y-110688571D01*
X165504761Y-110593333D01*
X165457142Y-110545714D01*
X165361904Y-110498095D01*
X165123809Y-110498095D01*
X165028571Y-110545714D01*
X164980952Y-110593333D01*
X164933333Y-110688571D01*
X164933333Y-110879047D01*
X164980952Y-110974285D01*
X165028571Y-111021904D01*
X165123809Y-111069523D01*
G04 #@! TO.C,R2*
X123658333Y-93797380D02*
X123325000Y-93321190D01*
X123086904Y-93797380D02*
X123086904Y-92797380D01*
X123467857Y-92797380D01*
X123563095Y-92845000D01*
X123610714Y-92892619D01*
X123658333Y-92987857D01*
X123658333Y-93130714D01*
X123610714Y-93225952D01*
X123563095Y-93273571D01*
X123467857Y-93321190D01*
X123086904Y-93321190D01*
X124039285Y-92892619D02*
X124086904Y-92845000D01*
X124182142Y-92797380D01*
X124420238Y-92797380D01*
X124515476Y-92845000D01*
X124563095Y-92892619D01*
X124610714Y-92987857D01*
X124610714Y-93083095D01*
X124563095Y-93225952D01*
X123991666Y-93797380D01*
X124610714Y-93797380D01*
G04 #@! TO.C,R3*
X123658333Y-91892380D02*
X123325000Y-91416190D01*
X123086904Y-91892380D02*
X123086904Y-90892380D01*
X123467857Y-90892380D01*
X123563095Y-90940000D01*
X123610714Y-90987619D01*
X123658333Y-91082857D01*
X123658333Y-91225714D01*
X123610714Y-91320952D01*
X123563095Y-91368571D01*
X123467857Y-91416190D01*
X123086904Y-91416190D01*
X123991666Y-90892380D02*
X124610714Y-90892380D01*
X124277380Y-91273333D01*
X124420238Y-91273333D01*
X124515476Y-91320952D01*
X124563095Y-91368571D01*
X124610714Y-91463809D01*
X124610714Y-91701904D01*
X124563095Y-91797142D01*
X124515476Y-91844761D01*
X124420238Y-91892380D01*
X124134523Y-91892380D01*
X124039285Y-91844761D01*
X123991666Y-91797142D01*
G04 #@! TO.C,D2*
X114831904Y-93797380D02*
X114831904Y-92797380D01*
X115070000Y-92797380D01*
X115212857Y-92845000D01*
X115308095Y-92940238D01*
X115355714Y-93035476D01*
X115403333Y-93225952D01*
X115403333Y-93368809D01*
X115355714Y-93559285D01*
X115308095Y-93654523D01*
X115212857Y-93749761D01*
X115070000Y-93797380D01*
X114831904Y-93797380D01*
X115784285Y-92892619D02*
X115831904Y-92845000D01*
X115927142Y-92797380D01*
X116165238Y-92797380D01*
X116260476Y-92845000D01*
X116308095Y-92892619D01*
X116355714Y-92987857D01*
X116355714Y-93083095D01*
X116308095Y-93225952D01*
X115736666Y-93797380D01*
X116355714Y-93797380D01*
G04 #@! TO.C,R15*
X152217380Y-92082857D02*
X151741190Y-92416190D01*
X152217380Y-92654285D02*
X151217380Y-92654285D01*
X151217380Y-92273333D01*
X151265000Y-92178095D01*
X151312619Y-92130476D01*
X151407857Y-92082857D01*
X151550714Y-92082857D01*
X151645952Y-92130476D01*
X151693571Y-92178095D01*
X151741190Y-92273333D01*
X151741190Y-92654285D01*
X152217380Y-91130476D02*
X152217380Y-91701904D01*
X152217380Y-91416190D02*
X151217380Y-91416190D01*
X151360238Y-91511428D01*
X151455476Y-91606666D01*
X151503095Y-91701904D01*
X151217380Y-90225714D02*
X151217380Y-90701904D01*
X151693571Y-90749523D01*
X151645952Y-90701904D01*
X151598333Y-90606666D01*
X151598333Y-90368571D01*
X151645952Y-90273333D01*
X151693571Y-90225714D01*
X151788809Y-90178095D01*
X152026904Y-90178095D01*
X152122142Y-90225714D01*
X152169761Y-90273333D01*
X152217380Y-90368571D01*
X152217380Y-90606666D01*
X152169761Y-90701904D01*
X152122142Y-90749523D01*
G04 #@! TO.C,Y1*
X152636190Y-101441190D02*
X153112380Y-101441190D01*
X152112380Y-101774523D02*
X152636190Y-101441190D01*
X152112380Y-101107857D01*
X153112380Y-100250714D02*
X153112380Y-100822142D01*
X153112380Y-100536428D02*
X152112380Y-100536428D01*
X152255238Y-100631666D01*
X152350476Y-100726904D01*
X152398095Y-100822142D01*
G04 #@! TO.C,U2*
X158623095Y-95202380D02*
X158623095Y-96011904D01*
X158670714Y-96107142D01*
X158718333Y-96154761D01*
X158813571Y-96202380D01*
X159004047Y-96202380D01*
X159099285Y-96154761D01*
X159146904Y-96107142D01*
X159194523Y-96011904D01*
X159194523Y-95202380D01*
X159623095Y-95297619D02*
X159670714Y-95250000D01*
X159765952Y-95202380D01*
X160004047Y-95202380D01*
X160099285Y-95250000D01*
X160146904Y-95297619D01*
X160194523Y-95392857D01*
X160194523Y-95488095D01*
X160146904Y-95630952D01*
X159575476Y-96202380D01*
X160194523Y-96202380D01*
G04 #@! TO.C,C8*
X148312142Y-111291666D02*
X148359761Y-111339285D01*
X148407380Y-111482142D01*
X148407380Y-111577380D01*
X148359761Y-111720238D01*
X148264523Y-111815476D01*
X148169285Y-111863095D01*
X147978809Y-111910714D01*
X147835952Y-111910714D01*
X147645476Y-111863095D01*
X147550238Y-111815476D01*
X147455000Y-111720238D01*
X147407380Y-111577380D01*
X147407380Y-111482142D01*
X147455000Y-111339285D01*
X147502619Y-111291666D01*
X147835952Y-110720238D02*
X147788333Y-110815476D01*
X147740714Y-110863095D01*
X147645476Y-110910714D01*
X147597857Y-110910714D01*
X147502619Y-110863095D01*
X147455000Y-110815476D01*
X147407380Y-110720238D01*
X147407380Y-110529761D01*
X147455000Y-110434523D01*
X147502619Y-110386904D01*
X147597857Y-110339285D01*
X147645476Y-110339285D01*
X147740714Y-110386904D01*
X147788333Y-110434523D01*
X147835952Y-110529761D01*
X147835952Y-110720238D01*
X147883571Y-110815476D01*
X147931190Y-110863095D01*
X148026428Y-110910714D01*
X148216904Y-110910714D01*
X148312142Y-110863095D01*
X148359761Y-110815476D01*
X148407380Y-110720238D01*
X148407380Y-110529761D01*
X148359761Y-110434523D01*
X148312142Y-110386904D01*
X148216904Y-110339285D01*
X148026428Y-110339285D01*
X147931190Y-110386904D01*
X147883571Y-110434523D01*
X147835952Y-110529761D01*
G04 #@! TO.C,R11*
X150312380Y-111767857D02*
X149836190Y-112101190D01*
X150312380Y-112339285D02*
X149312380Y-112339285D01*
X149312380Y-111958333D01*
X149360000Y-111863095D01*
X149407619Y-111815476D01*
X149502857Y-111767857D01*
X149645714Y-111767857D01*
X149740952Y-111815476D01*
X149788571Y-111863095D01*
X149836190Y-111958333D01*
X149836190Y-112339285D01*
X150312380Y-110815476D02*
X150312380Y-111386904D01*
X150312380Y-111101190D02*
X149312380Y-111101190D01*
X149455238Y-111196428D01*
X149550476Y-111291666D01*
X149598095Y-111386904D01*
X150312380Y-109863095D02*
X150312380Y-110434523D01*
X150312380Y-110148809D02*
X149312380Y-110148809D01*
X149455238Y-110244047D01*
X149550476Y-110339285D01*
X149598095Y-110434523D01*
G04 #@! TO.C,R7*
X180157380Y-89701666D02*
X179681190Y-90035000D01*
X180157380Y-90273095D02*
X179157380Y-90273095D01*
X179157380Y-89892142D01*
X179205000Y-89796904D01*
X179252619Y-89749285D01*
X179347857Y-89701666D01*
X179490714Y-89701666D01*
X179585952Y-89749285D01*
X179633571Y-89796904D01*
X179681190Y-89892142D01*
X179681190Y-90273095D01*
X179157380Y-89368333D02*
X179157380Y-88701666D01*
X180157380Y-89130238D01*
G04 #@! TO.C,R8*
X178252380Y-89701666D02*
X177776190Y-90035000D01*
X178252380Y-90273095D02*
X177252380Y-90273095D01*
X177252380Y-89892142D01*
X177300000Y-89796904D01*
X177347619Y-89749285D01*
X177442857Y-89701666D01*
X177585714Y-89701666D01*
X177680952Y-89749285D01*
X177728571Y-89796904D01*
X177776190Y-89892142D01*
X177776190Y-90273095D01*
X177680952Y-89130238D02*
X177633333Y-89225476D01*
X177585714Y-89273095D01*
X177490476Y-89320714D01*
X177442857Y-89320714D01*
X177347619Y-89273095D01*
X177300000Y-89225476D01*
X177252380Y-89130238D01*
X177252380Y-88939761D01*
X177300000Y-88844523D01*
X177347619Y-88796904D01*
X177442857Y-88749285D01*
X177490476Y-88749285D01*
X177585714Y-88796904D01*
X177633333Y-88844523D01*
X177680952Y-88939761D01*
X177680952Y-89130238D01*
X177728571Y-89225476D01*
X177776190Y-89273095D01*
X177871428Y-89320714D01*
X178061904Y-89320714D01*
X178157142Y-89273095D01*
X178204761Y-89225476D01*
X178252380Y-89130238D01*
X178252380Y-88939761D01*
X178204761Y-88844523D01*
X178157142Y-88796904D01*
X178061904Y-88749285D01*
X177871428Y-88749285D01*
X177776190Y-88796904D01*
X177728571Y-88844523D01*
X177680952Y-88939761D01*
G04 #@! TO.C,R13*
X157932380Y-92082857D02*
X157456190Y-92416190D01*
X157932380Y-92654285D02*
X156932380Y-92654285D01*
X156932380Y-92273333D01*
X156980000Y-92178095D01*
X157027619Y-92130476D01*
X157122857Y-92082857D01*
X157265714Y-92082857D01*
X157360952Y-92130476D01*
X157408571Y-92178095D01*
X157456190Y-92273333D01*
X157456190Y-92654285D01*
X157932380Y-91130476D02*
X157932380Y-91701904D01*
X157932380Y-91416190D02*
X156932380Y-91416190D01*
X157075238Y-91511428D01*
X157170476Y-91606666D01*
X157218095Y-91701904D01*
X156932380Y-90797142D02*
X156932380Y-90178095D01*
X157313333Y-90511428D01*
X157313333Y-90368571D01*
X157360952Y-90273333D01*
X157408571Y-90225714D01*
X157503809Y-90178095D01*
X157741904Y-90178095D01*
X157837142Y-90225714D01*
X157884761Y-90273333D01*
X157932380Y-90368571D01*
X157932380Y-90654285D01*
X157884761Y-90749523D01*
X157837142Y-90797142D01*
G04 #@! TO.C,R12*
X176347380Y-90177857D02*
X175871190Y-90511190D01*
X176347380Y-90749285D02*
X175347380Y-90749285D01*
X175347380Y-90368333D01*
X175395000Y-90273095D01*
X175442619Y-90225476D01*
X175537857Y-90177857D01*
X175680714Y-90177857D01*
X175775952Y-90225476D01*
X175823571Y-90273095D01*
X175871190Y-90368333D01*
X175871190Y-90749285D01*
X176347380Y-89225476D02*
X176347380Y-89796904D01*
X176347380Y-89511190D02*
X175347380Y-89511190D01*
X175490238Y-89606428D01*
X175585476Y-89701666D01*
X175633095Y-89796904D01*
X175442619Y-88844523D02*
X175395000Y-88796904D01*
X175347380Y-88701666D01*
X175347380Y-88463571D01*
X175395000Y-88368333D01*
X175442619Y-88320714D01*
X175537857Y-88273095D01*
X175633095Y-88273095D01*
X175775952Y-88320714D01*
X176347380Y-88892142D01*
X176347380Y-88273095D01*
G04 #@! TO.C,R14*
X154122380Y-92082857D02*
X153646190Y-92416190D01*
X154122380Y-92654285D02*
X153122380Y-92654285D01*
X153122380Y-92273333D01*
X153170000Y-92178095D01*
X153217619Y-92130476D01*
X153312857Y-92082857D01*
X153455714Y-92082857D01*
X153550952Y-92130476D01*
X153598571Y-92178095D01*
X153646190Y-92273333D01*
X153646190Y-92654285D01*
X154122380Y-91130476D02*
X154122380Y-91701904D01*
X154122380Y-91416190D02*
X153122380Y-91416190D01*
X153265238Y-91511428D01*
X153360476Y-91606666D01*
X153408095Y-91701904D01*
X153455714Y-90273333D02*
X154122380Y-90273333D01*
X153074761Y-90511428D02*
X153789047Y-90749523D01*
X153789047Y-90130476D01*
G04 #@! TO.C,R17*
X154122380Y-112402857D02*
X153646190Y-112736190D01*
X154122380Y-112974285D02*
X153122380Y-112974285D01*
X153122380Y-112593333D01*
X153170000Y-112498095D01*
X153217619Y-112450476D01*
X153312857Y-112402857D01*
X153455714Y-112402857D01*
X153550952Y-112450476D01*
X153598571Y-112498095D01*
X153646190Y-112593333D01*
X153646190Y-112974285D01*
X154122380Y-111450476D02*
X154122380Y-112021904D01*
X154122380Y-111736190D02*
X153122380Y-111736190D01*
X153265238Y-111831428D01*
X153360476Y-111926666D01*
X153408095Y-112021904D01*
X153122380Y-111117142D02*
X153122380Y-110450476D01*
X154122380Y-110879047D01*
G04 #@! TO.C,R18*
X156027380Y-112402857D02*
X155551190Y-112736190D01*
X156027380Y-112974285D02*
X155027380Y-112974285D01*
X155027380Y-112593333D01*
X155075000Y-112498095D01*
X155122619Y-112450476D01*
X155217857Y-112402857D01*
X155360714Y-112402857D01*
X155455952Y-112450476D01*
X155503571Y-112498095D01*
X155551190Y-112593333D01*
X155551190Y-112974285D01*
X156027380Y-111450476D02*
X156027380Y-112021904D01*
X156027380Y-111736190D02*
X155027380Y-111736190D01*
X155170238Y-111831428D01*
X155265476Y-111926666D01*
X155313095Y-112021904D01*
X155455952Y-110879047D02*
X155408333Y-110974285D01*
X155360714Y-111021904D01*
X155265476Y-111069523D01*
X155217857Y-111069523D01*
X155122619Y-111021904D01*
X155075000Y-110974285D01*
X155027380Y-110879047D01*
X155027380Y-110688571D01*
X155075000Y-110593333D01*
X155122619Y-110545714D01*
X155217857Y-110498095D01*
X155265476Y-110498095D01*
X155360714Y-110545714D01*
X155408333Y-110593333D01*
X155455952Y-110688571D01*
X155455952Y-110879047D01*
X155503571Y-110974285D01*
X155551190Y-111021904D01*
X155646428Y-111069523D01*
X155836904Y-111069523D01*
X155932142Y-111021904D01*
X155979761Y-110974285D01*
X156027380Y-110879047D01*
X156027380Y-110688571D01*
X155979761Y-110593333D01*
X155932142Y-110545714D01*
X155836904Y-110498095D01*
X155646428Y-110498095D01*
X155551190Y-110545714D01*
X155503571Y-110593333D01*
X155455952Y-110688571D01*
G04 #@! TO.C,U3*
X177546095Y-104460380D02*
X177546095Y-105269904D01*
X177593714Y-105365142D01*
X177641333Y-105412761D01*
X177736571Y-105460380D01*
X177927047Y-105460380D01*
X178022285Y-105412761D01*
X178069904Y-105365142D01*
X178117523Y-105269904D01*
X178117523Y-104460380D01*
X178498476Y-104460380D02*
X179117523Y-104460380D01*
X178784190Y-104841333D01*
X178927047Y-104841333D01*
X179022285Y-104888952D01*
X179069904Y-104936571D01*
X179117523Y-105031809D01*
X179117523Y-105269904D01*
X179069904Y-105365142D01*
X179022285Y-105412761D01*
X178927047Y-105460380D01*
X178641333Y-105460380D01*
X178546095Y-105412761D01*
X178498476Y-105365142D01*
G04 #@! TO.C,R4*
X171798333Y-105287380D02*
X171465000Y-104811190D01*
X171226904Y-105287380D02*
X171226904Y-104287380D01*
X171607857Y-104287380D01*
X171703095Y-104335000D01*
X171750714Y-104382619D01*
X171798333Y-104477857D01*
X171798333Y-104620714D01*
X171750714Y-104715952D01*
X171703095Y-104763571D01*
X171607857Y-104811190D01*
X171226904Y-104811190D01*
X172655476Y-104620714D02*
X172655476Y-105287380D01*
X172417380Y-104239761D02*
X172179285Y-104954047D01*
X172798333Y-104954047D01*
G04 #@! TO.C,R10*
X171162261Y-101417380D02*
X170828928Y-100941190D01*
X170590833Y-101417380D02*
X170590833Y-100417380D01*
X170971785Y-100417380D01*
X171067023Y-100465000D01*
X171114642Y-100512619D01*
X171162261Y-100607857D01*
X171162261Y-100750714D01*
X171114642Y-100845952D01*
X171067023Y-100893571D01*
X170971785Y-100941190D01*
X170590833Y-100941190D01*
X172114642Y-101417380D02*
X171543214Y-101417380D01*
X171828928Y-101417380D02*
X171828928Y-100417380D01*
X171733690Y-100560238D01*
X171638452Y-100655476D01*
X171543214Y-100703095D01*
X172733690Y-100417380D02*
X172828928Y-100417380D01*
X172924166Y-100465000D01*
X172971785Y-100512619D01*
X173019404Y-100607857D01*
X173067023Y-100798333D01*
X173067023Y-101036428D01*
X173019404Y-101226904D01*
X172971785Y-101322142D01*
X172924166Y-101369761D01*
X172828928Y-101417380D01*
X172733690Y-101417380D01*
X172638452Y-101369761D01*
X172590833Y-101322142D01*
X172543214Y-101226904D01*
X172495595Y-101036428D01*
X172495595Y-100798333D01*
X172543214Y-100607857D01*
X172590833Y-100512619D01*
X172638452Y-100465000D01*
X172733690Y-100417380D01*
G04 #@! TO.C,R9*
X171918333Y-103322380D02*
X171585000Y-102846190D01*
X171346904Y-103322380D02*
X171346904Y-102322380D01*
X171727857Y-102322380D01*
X171823095Y-102370000D01*
X171870714Y-102417619D01*
X171918333Y-102512857D01*
X171918333Y-102655714D01*
X171870714Y-102750952D01*
X171823095Y-102798571D01*
X171727857Y-102846190D01*
X171346904Y-102846190D01*
X172394523Y-103322380D02*
X172585000Y-103322380D01*
X172680238Y-103274761D01*
X172727857Y-103227142D01*
X172823095Y-103084285D01*
X172870714Y-102893809D01*
X172870714Y-102512857D01*
X172823095Y-102417619D01*
X172775476Y-102370000D01*
X172680238Y-102322380D01*
X172489761Y-102322380D01*
X172394523Y-102370000D01*
X172346904Y-102417619D01*
X172299285Y-102512857D01*
X172299285Y-102750952D01*
X172346904Y-102846190D01*
X172394523Y-102893809D01*
X172489761Y-102941428D01*
X172680238Y-102941428D01*
X172775476Y-102893809D01*
X172823095Y-102846190D01*
X172870714Y-102750952D01*
G04 #@! TO.C,R6*
X171918333Y-97607380D02*
X171585000Y-97131190D01*
X171346904Y-97607380D02*
X171346904Y-96607380D01*
X171727857Y-96607380D01*
X171823095Y-96655000D01*
X171870714Y-96702619D01*
X171918333Y-96797857D01*
X171918333Y-96940714D01*
X171870714Y-97035952D01*
X171823095Y-97083571D01*
X171727857Y-97131190D01*
X171346904Y-97131190D01*
X172775476Y-96607380D02*
X172585000Y-96607380D01*
X172489761Y-96655000D01*
X172442142Y-96702619D01*
X172346904Y-96845476D01*
X172299285Y-97035952D01*
X172299285Y-97416904D01*
X172346904Y-97512142D01*
X172394523Y-97559761D01*
X172489761Y-97607380D01*
X172680238Y-97607380D01*
X172775476Y-97559761D01*
X172823095Y-97512142D01*
X172870714Y-97416904D01*
X172870714Y-97178809D01*
X172823095Y-97083571D01*
X172775476Y-97035952D01*
X172680238Y-96988333D01*
X172489761Y-96988333D01*
X172394523Y-97035952D01*
X172346904Y-97083571D01*
X172299285Y-97178809D01*
G04 #@! TO.C,R5*
X171798333Y-99452380D02*
X171465000Y-98976190D01*
X171226904Y-99452380D02*
X171226904Y-98452380D01*
X171607857Y-98452380D01*
X171703095Y-98500000D01*
X171750714Y-98547619D01*
X171798333Y-98642857D01*
X171798333Y-98785714D01*
X171750714Y-98880952D01*
X171703095Y-98928571D01*
X171607857Y-98976190D01*
X171226904Y-98976190D01*
X172703095Y-98452380D02*
X172226904Y-98452380D01*
X172179285Y-98928571D01*
X172226904Y-98880952D01*
X172322142Y-98833333D01*
X172560238Y-98833333D01*
X172655476Y-98880952D01*
X172703095Y-98928571D01*
X172750714Y-99023809D01*
X172750714Y-99261904D01*
X172703095Y-99357142D01*
X172655476Y-99404761D01*
X172560238Y-99452380D01*
X172322142Y-99452380D01*
X172226904Y-99404761D01*
X172179285Y-99357142D01*
D11*
G04 #@! TO.C,D4*
X181900000Y-108220000D02*
X181900000Y-110220000D01*
X181900000Y-110220000D02*
X185800000Y-110220000D01*
X181900000Y-108220000D02*
X185800000Y-108220000D01*
G04 #@! TO.C,J1*
X190590000Y-106300000D02*
X190590000Y-96900000D01*
X188690000Y-96900000D02*
X190590000Y-96900000D01*
X188690000Y-106300000D02*
X190590000Y-106300000D01*
X184790000Y-106300000D02*
X186790000Y-106300000D01*
X184790000Y-96900000D02*
X186790000Y-96900000D01*
G04 #@! TO.C,C3*
X155065000Y-94755580D02*
X155065000Y-94474420D01*
X156085000Y-94755580D02*
X156085000Y-94474420D01*
G04 #@! TO.C,C4*
X163320000Y-94755580D02*
X163320000Y-94474420D01*
X164340000Y-94755580D02*
X164340000Y-94474420D01*
G04 #@! TO.C,C5*
X151255000Y-108444420D02*
X151255000Y-108725580D01*
X152275000Y-108444420D02*
X152275000Y-108725580D01*
G04 #@! TO.C,C7*
X163705000Y-108444420D02*
X163705000Y-108725580D01*
X162685000Y-108444420D02*
X162685000Y-108725580D01*
G04 #@! TO.C,U1*
X175255000Y-115170000D02*
X175255000Y-113910000D01*
X179015000Y-108350000D02*
X175255000Y-108350000D01*
X181265000Y-115170000D02*
X175255000Y-115170000D01*
X175255000Y-108350000D02*
X175255000Y-109610000D01*
G04 #@! TO.C,C1*
X183615000Y-112768748D02*
X183615000Y-113291252D01*
X182145000Y-112768748D02*
X182145000Y-113291252D01*
G04 #@! TO.C,D1*
X119595000Y-88800000D02*
X117310000Y-88800000D01*
X119595000Y-90270000D02*
X119595000Y-88800000D01*
X117310000Y-90270000D02*
X119595000Y-90270000D01*
G04 #@! TO.C,R1*
X121047742Y-89012500D02*
X121522258Y-89012500D01*
X121047742Y-90057500D02*
X121522258Y-90057500D01*
G04 #@! TO.C,C9*
X147195000Y-99835580D02*
X147195000Y-99554420D01*
X146175000Y-99835580D02*
X146175000Y-99554420D01*
G04 #@! TO.C,C10*
X147195000Y-102729420D02*
X147195000Y-103010580D01*
X146175000Y-102729420D02*
X146175000Y-103010580D01*
G04 #@! TO.C,C2*
X170055000Y-112889420D02*
X170055000Y-113170580D01*
X169035000Y-112889420D02*
X169035000Y-113170580D01*
G04 #@! TO.C,C6*
X170715000Y-112768748D02*
X170715000Y-113291252D01*
X172185000Y-112768748D02*
X172185000Y-113291252D01*
G04 #@! TO.C,D3*
X119595000Y-90705000D02*
X117310000Y-90705000D01*
X117310000Y-92175000D02*
X119595000Y-92175000D01*
X119595000Y-92175000D02*
X119595000Y-90705000D01*
G04 #@! TO.C,Q1*
X182880000Y-90515000D02*
X181205000Y-90515000D01*
X182880000Y-93635000D02*
X182230000Y-93635000D01*
X182880000Y-93635000D02*
X183530000Y-93635000D01*
X182880000Y-90515000D02*
X183530000Y-90515000D01*
G04 #@! TO.C,R16*
X165622500Y-108347742D02*
X165622500Y-108822258D01*
X164577500Y-108347742D02*
X164577500Y-108822258D01*
G04 #@! TO.C,R2*
X121522258Y-92822500D02*
X121047742Y-92822500D01*
X121522258Y-93867500D02*
X121047742Y-93867500D01*
G04 #@! TO.C,R3*
X121047742Y-90917500D02*
X121522258Y-90917500D01*
X121047742Y-91962500D02*
X121522258Y-91962500D01*
G04 #@! TO.C,JP1*
X120520000Y-101330000D02*
X120520000Y-99330000D01*
X120520000Y-99330000D02*
X123320000Y-99330000D01*
X123320000Y-99330000D02*
X123320000Y-101330000D01*
X123320000Y-101330000D02*
X120520000Y-101330000D01*
G04 #@! TO.C,JP2*
X120520000Y-103870000D02*
X120520000Y-101870000D01*
X123320000Y-101870000D02*
X123320000Y-103870000D01*
X120520000Y-101870000D02*
X123320000Y-101870000D01*
X123320000Y-103870000D02*
X120520000Y-103870000D01*
G04 #@! TO.C,JP3*
X120520000Y-106410000D02*
X120520000Y-104410000D01*
X120520000Y-104410000D02*
X123320000Y-104410000D01*
X123320000Y-106410000D02*
X120520000Y-106410000D01*
X123320000Y-104410000D02*
X123320000Y-106410000D01*
G04 #@! TO.C,JP4*
X123320000Y-108950000D02*
X120520000Y-108950000D01*
X120520000Y-106950000D02*
X123320000Y-106950000D01*
X123320000Y-106950000D02*
X123320000Y-108950000D01*
X120520000Y-108950000D02*
X120520000Y-106950000D01*
G04 #@! TO.C,JP5*
X133480000Y-99330000D02*
X133480000Y-101330000D01*
X133480000Y-101330000D02*
X130680000Y-101330000D01*
X130680000Y-99330000D02*
X133480000Y-99330000D01*
X130680000Y-101330000D02*
X130680000Y-99330000D01*
G04 #@! TO.C,JP6*
X133480000Y-103870000D02*
X130680000Y-103870000D01*
X130680000Y-103870000D02*
X130680000Y-101870000D01*
X130680000Y-101870000D02*
X133480000Y-101870000D01*
X133480000Y-101870000D02*
X133480000Y-103870000D01*
G04 #@! TO.C,JP7*
X130680000Y-106410000D02*
X130680000Y-104410000D01*
X133480000Y-106410000D02*
X130680000Y-106410000D01*
X133480000Y-104410000D02*
X133480000Y-106410000D01*
X130680000Y-104410000D02*
X133480000Y-104410000D01*
G04 #@! TO.C,JP8*
X130680000Y-108950000D02*
X130680000Y-106950000D01*
X133480000Y-108950000D02*
X130680000Y-108950000D01*
X133480000Y-106950000D02*
X133480000Y-108950000D01*
X130680000Y-106950000D02*
X133480000Y-106950000D01*
G04 #@! TO.C,D2*
X119595000Y-94080000D02*
X119595000Y-92610000D01*
X119595000Y-92610000D02*
X117310000Y-92610000D01*
X117310000Y-94080000D02*
X119595000Y-94080000D01*
G04 #@! TO.C,R15*
X152287500Y-94377742D02*
X152287500Y-94852258D01*
X151242500Y-94377742D02*
X151242500Y-94852258D01*
G04 #@! TO.C,Y1*
X151660000Y-97915000D02*
X148060000Y-97915000D01*
X151660000Y-103665000D02*
X151660000Y-97915000D01*
X148060000Y-97915000D02*
X148060000Y-103665000D01*
G04 #@! TO.C,U2*
X155775000Y-97990000D02*
X155775000Y-98440000D01*
X162545000Y-97990000D02*
X162995000Y-97990000D01*
X162995000Y-97990000D02*
X162995000Y-98440000D01*
X162995000Y-105210000D02*
X162995000Y-104760000D01*
X162545000Y-105210000D02*
X162995000Y-105210000D01*
X155775000Y-98440000D02*
X154485000Y-98440000D01*
X155775000Y-105210000D02*
X155775000Y-104760000D01*
X156225000Y-97990000D02*
X155775000Y-97990000D01*
X156225000Y-105210000D02*
X155775000Y-105210000D01*
G04 #@! TO.C,C8*
X147445000Y-108444420D02*
X147445000Y-108725580D01*
X148465000Y-108444420D02*
X148465000Y-108725580D01*
G04 #@! TO.C,R11*
X149337500Y-108822258D02*
X149337500Y-108347742D01*
X150382500Y-108822258D02*
X150382500Y-108347742D01*
G04 #@! TO.C,R7*
X179182500Y-91837742D02*
X179182500Y-92312258D01*
X180227500Y-91837742D02*
X180227500Y-92312258D01*
G04 #@! TO.C,R8*
X178322500Y-92312258D02*
X178322500Y-91837742D01*
X177277500Y-92312258D02*
X177277500Y-91837742D01*
G04 #@! TO.C,R13*
X156957500Y-94852258D02*
X156957500Y-94377742D01*
X158002500Y-94852258D02*
X158002500Y-94377742D01*
G04 #@! TO.C,R12*
X175372500Y-91837742D02*
X175372500Y-92312258D01*
X176417500Y-91837742D02*
X176417500Y-92312258D01*
G04 #@! TO.C,R14*
X153147500Y-94852258D02*
X153147500Y-94377742D01*
X154192500Y-94852258D02*
X154192500Y-94377742D01*
G04 #@! TO.C,R17*
X154192500Y-108822258D02*
X154192500Y-108347742D01*
X153147500Y-108822258D02*
X153147500Y-108347742D01*
G04 #@! TO.C,R18*
X155052500Y-108347742D02*
X155052500Y-108822258D01*
X156097500Y-108347742D02*
X156097500Y-108822258D01*
G04 #@! TO.C,U3*
X178308000Y-100548000D02*
X179108000Y-100548000D01*
X178308000Y-100548000D02*
X177508000Y-100548000D01*
X178308000Y-103668000D02*
X180108000Y-103668000D01*
X178308000Y-103668000D02*
X177508000Y-103668000D01*
G04 #@! TO.C,R4*
X174387742Y-105297500D02*
X174862258Y-105297500D01*
X174387742Y-104252500D02*
X174862258Y-104252500D01*
G04 #@! TO.C,R10*
X174387742Y-101487500D02*
X174862258Y-101487500D01*
X174387742Y-100442500D02*
X174862258Y-100442500D01*
G04 #@! TO.C,R9*
X174387742Y-102347500D02*
X174862258Y-102347500D01*
X174387742Y-103392500D02*
X174862258Y-103392500D01*
G04 #@! TO.C,R6*
X174387742Y-97677500D02*
X174862258Y-97677500D01*
X174387742Y-96632500D02*
X174862258Y-96632500D01*
G04 #@! TO.C,R5*
X174387742Y-99582500D02*
X174862258Y-99582500D01*
X174387742Y-98537500D02*
X174862258Y-98537500D01*
G04 #@! TO.C,JP9*
X169040000Y-93710000D02*
X166240000Y-93710000D01*
X166240000Y-93710000D02*
X166240000Y-91710000D01*
X169040000Y-91710000D02*
X169040000Y-93710000D01*
X166240000Y-91710000D02*
X169040000Y-91710000D01*
G04 #@! TO.C,JP10*
X169040000Y-94250000D02*
X169040000Y-96250000D01*
X166240000Y-96250000D02*
X166240000Y-94250000D01*
X166240000Y-94250000D02*
X169040000Y-94250000D01*
X169040000Y-96250000D02*
X166240000Y-96250000D01*
G04 #@! TD*
M02*
