<?xml version="1.0" standalone="no"?>
 <!DOCTYPE svg PUBLIC "-//W3C//DTD SVG 1.1//EN" 
 "http://www.w3.org/Graphics/SVG/1.1/DTD/svg11.dtd"> 
<svg
  xmlns:svg="http://www.w3.org/2000/svg"
  xmlns="http://www.w3.org/2000/svg"
  xmlns:xlink="http://www.w3.org/1999/xlink"
  version="1.1"
  width="29.700220cm" height="21.000720cm" viewBox="0 0 116930 82680">
<title>SVG Picture created as blank-F_SilkS.svg date 2021/07/16 11:13:18 </title>
  <desc>Picture generated by PCBNEW </desc>
<g style="fill:#000000; fill-opacity:1;stroke:#000000; stroke-opacity:1;
stroke-linecap:round; stroke-linejoin:round;"
 transform="translate(0 0) scale(1 1)">
</g>
<g style="fill:#000000; fill-opacity:0.0; 
stroke:#000000; stroke-width:-0.000393701; stroke-opacity:1; 
stroke-linecap:round; stroke-linejoin:round;">
</g>
<g style="fill:#000000; fill-opacity:0.0; 
stroke:#000000; stroke-width:59.0551; stroke-opacity:1; 
stroke-linecap:round; stroke-linejoin:round;">
<g transform="rotate(-90 67500 33750)">
<text x="67500" y="33907.5"
textLength="929.884" font-size="419.947" lengthAdjust="spacingAndGlyphs"
text-anchor="end" opacity="0">U16</text>
</g>
<path d="M67327 34643
L67582 34643
L67612 34628
L67627 34613
L67642 34583
L67642 34523
L67627 34493
L67612 34478
L67582 34463
L67327 34463
" />
<path d="M67642 34148
L67642 34328
" />
<path d="M67642 34238
L67327 34238
L67372 34268
L67402 34298
L67417 34328
" />
<path d="M67327 33878
L67327 33938
L67342 33968
L67357 33983
L67402 34013
L67462 34028
L67582 34028
L67612 34013
L67627 33998
L67642 33968
L67642 33908
L67627 33878
L67612 33863
L67582 33848
L67507 33848
L67477 33863
L67462 33878
L67447 33908
L67447 33968
L67462 33998
L67477 34013
L67507 34028
" />
<g transform="rotate(-90 66500 33750)">
<text x="66500" y="33907.5"
textLength="1006.66" font-size="419.947" lengthAdjust="spacingAndGlyphs"
text-anchor="end" opacity="0">U14</text>
</g>
<path d="M66327 34643
L66582 34643
L66612 34628
L66627 34613
L66642 34583
L66642 34523
L66627 34493
L66612 34478
L66582 34463
L66327 34463
" />
<path d="M66642 34148
L66642 34328
" />
<path d="M66642 34238
L66327 34238
L66372 34268
L66402 34298
L66417 34328
" />
<path d="M66432 33878
L66642 33878
" />
<path d="M66312 33953
L66537 34028
L66537 33833
" />
<g transform="rotate(-90 67500 31250)">
<text x="67500" y="31407.5"
textLength="1006.66" font-size="419.947" lengthAdjust="spacingAndGlyphs"
text-anchor="start" opacity="0">U15</text>
</g>
<path d="M67327 31136
L67582 31136
L67612 31121
L67627 31106
L67642 31076
L67642 31016
L67627 30986
L67612 30971
L67582 30956
L67327 30956
" />
<path d="M67642 30641
L67642 30821
" />
<path d="M67642 30731
L67327 30731
L67372 30761
L67402 30791
L67417 30821
" />
<path d="M67327 30356
L67327 30506
L67477 30521
L67462 30506
L67447 30476
L67447 30401
L67462 30371
L67477 30356
L67507 30341
L67582 30341
L67612 30356
L67627 30371
L67642 30401
L67642 30476
L67627 30506
L67612 30521
" />
<g transform="rotate(-90 66500 31250)">
<text x="66500" y="31407.5"
textLength="1006.66" font-size="419.947" lengthAdjust="spacingAndGlyphs"
text-anchor="start" opacity="0">U13</text>
</g>
<path d="M66327 31136
L66582 31136
L66612 31121
L66627 31106
L66642 31076
L66642 31016
L66627 30986
L66612 30971
L66582 30956
L66327 30956
" />
<path d="M66642 30641
L66642 30821
" />
<path d="M66642 30731
L66327 30731
L66372 30761
L66402 30791
L66417 30821
" />
<path d="M66327 30536
L66327 30341
L66447 30446
L66447 30401
L66462 30371
L66477 30356
L66507 30341
L66582 30341
L66612 30356
L66627 30371
L66642 30401
L66642 30491
L66627 30521
L66612 30536
" />
<g transform="rotate(-90 61500 31250)">
<text x="61500" y="31407.5"
textLength="1006.66" font-size="419.947" lengthAdjust="spacingAndGlyphs"
text-anchor="start" opacity="0">U11</text>
</g>
<path d="M61327 31136
L61582 31136
L61612 31121
L61627 31106
L61642 31076
L61642 31016
L61627 30986
L61612 30971
L61582 30956
L61327 30956
" />
<path d="M61642 30641
L61642 30821
" />
<path d="M61642 30731
L61327 30731
L61372 30761
L61402 30791
L61417 30821
" />
<path d="M61642 30341
L61642 30521
" />
<path d="M61642 30431
L61327 30431
L61372 30461
L61402 30491
L61417 30521
" />
<g transform="rotate(-90 61500 33750)">
<text x="61500" y="33907.5"
textLength="1006.66" font-size="419.947" lengthAdjust="spacingAndGlyphs"
text-anchor="end" opacity="0">U12</text>
</g>
<path d="M61327 34643
L61582 34643
L61612 34628
L61627 34613
L61642 34583
L61642 34523
L61627 34493
L61612 34478
L61582 34463
L61327 34463
" />
<path d="M61642 34148
L61642 34328
" />
<path d="M61642 34238
L61327 34238
L61372 34268
L61402 34298
L61417 34328
" />
<path d="M61357 34028
L61342 34013
L61327 33983
L61327 33908
L61342 33878
L61357 33863
L61387 33848
L61417 33848
L61462 33863
L61642 34043
L61642 33848
" />
<g transform="rotate(-90 59500 33750)">
<text x="59500" y="33907.5"
textLength="706.693" font-size="419.947" lengthAdjust="spacingAndGlyphs"
text-anchor="end" opacity="0">U8</text>
</g>
<path d="M59327 34343
L59582 34343
L59612 34328
L59627 34313
L59642 34283
L59642 34223
L59627 34193
L59612 34178
L59582 34163
L59327 34163
" />
<path d="M59462 33968
L59447 33998
L59432 34013
L59402 34028
L59387 34028
L59357 34013
L59342 33998
L59327 33968
L59327 33908
L59342 33878
L59357 33863
L59387 33848
L59402 33848
L59432 33863
L59447 33878
L59462 33908
L59462 33968
L59477 33998
L59492 34013
L59522 34028
L59582 34028
L59612 34013
L59627 33998
L59642 33968
L59642 33908
L59627 33878
L59612 33863
L59582 33848
L59522 33848
L59492 33863
L59477 33878
L59462 33908
" />
<g transform="rotate(-90 54500 33750)">
<text x="54500" y="33907.5"
textLength="1006.66" font-size="419.947" lengthAdjust="spacingAndGlyphs"
text-anchor="end" opacity="0">U10</text>
</g>
<path d="M54327 34643
L54582 34643
L54612 34628
L54627 34613
L54642 34583
L54642 34523
L54627 34493
L54612 34478
L54582 34463
L54327 34463
" />
<path d="M54642 34148
L54642 34328
" />
<path d="M54642 34238
L54327 34238
L54372 34268
L54402 34298
L54417 34328
" />
<path d="M54327 33953
L54327 33923
L54342 33893
L54357 33878
L54387 33863
L54447 33848
L54522 33848
L54582 33863
L54612 33878
L54627 33893
L54642 33923
L54642 33953
L54627 33983
L54612 33998
L54582 34013
L54522 34028
L54447 34028
L54387 34013
L54357 33998
L54342 33983
L54327 33953
" />
<g transform="rotate(-90 54500 31250)">
<text x="54500" y="31407.5"
textLength="706.693" font-size="419.947" lengthAdjust="spacingAndGlyphs"
text-anchor="start" opacity="0">U9</text>
</g>
<path d="M54327 31136
L54582 31136
L54612 31121
L54627 31106
L54642 31076
L54642 31016
L54627 30986
L54612 30971
L54582 30956
L54327 30956
" />
<path d="M54642 30791
L54642 30731
L54627 30701
L54612 30686
L54567 30656
L54507 30641
L54387 30641
L54357 30656
L54342 30671
L54327 30701
L54327 30761
L54342 30791
L54357 30806
L54387 30821
L54462 30821
L54492 30806
L54507 30791
L54522 30761
L54522 30701
L54507 30671
L54492 30656
L54462 30641
" />
<g transform="rotate(-90 52500 31250)">
<text x="52500" y="31407.5"
textLength="706.693" font-size="419.947" lengthAdjust="spacingAndGlyphs"
text-anchor="start" opacity="0">U7</text>
</g>
<path d="M52327 31136
L52582 31136
L52612 31121
L52627 31106
L52642 31076
L52642 31016
L52627 30986
L52612 30971
L52582 30956
L52327 30956
" />
<path d="M52327 30836
L52327 30626
L52642 30761
" />
<g transform="rotate(-90 51500 33750)">
<text x="51500" y="33907.5"
textLength="706.693" font-size="419.947" lengthAdjust="spacingAndGlyphs"
text-anchor="end" opacity="0">U6</text>
</g>
<path d="M51327 34343
L51582 34343
L51612 34328
L51627 34313
L51642 34283
L51642 34223
L51627 34193
L51612 34178
L51582 34163
L51327 34163
" />
<path d="M51327 33878
L51327 33938
L51342 33968
L51357 33983
L51402 34013
L51462 34028
L51582 34028
L51612 34013
L51627 33998
L51642 33968
L51642 33908
L51627 33878
L51612 33863
L51582 33848
L51507 33848
L51477 33863
L51462 33878
L51447 33908
L51447 33968
L51462 33998
L51477 34013
L51507 34028
" />
<g transform="rotate(-90 51500 31250)">
<text x="51500" y="31407.5"
textLength="706.693" font-size="419.947" lengthAdjust="spacingAndGlyphs"
text-anchor="start" opacity="0">U5</text>
</g>
<path d="M51327 31136
L51582 31136
L51612 31121
L51627 31106
L51642 31076
L51642 31016
L51627 30986
L51612 30971
L51582 30956
L51327 30956
" />
<path d="M51327 30656
L51327 30806
L51477 30821
L51462 30806
L51447 30776
L51447 30701
L51462 30671
L51477 30656
L51507 30641
L51582 30641
L51612 30656
L51627 30671
L51642 30701
L51642 30776
L51627 30806
L51612 30821
" />
<g transform="rotate(-90 67500 46500)">
<text x="67500" y="46657.5"
textLength="706.693" font-size="419.947" lengthAdjust="spacingAndGlyphs"
text-anchor="start" opacity="0">U4</text>
</g>
<path d="M67327 46386
L67582 46386
L67612 46371
L67627 46356
L67642 46326
L67642 46266
L67627 46236
L67612 46221
L67582 46206
L67327 46206
" />
<path d="M67432 45921
L67642 45921
" />
<path d="M67312 45996
L67537 46071
L67537 45876
" />
<g transform="rotate(-90 66500 46500)">
<text x="66500" y="46657.5"
textLength="706.693" font-size="419.947" lengthAdjust="spacingAndGlyphs"
text-anchor="start" opacity="0">U2</text>
</g>
<path d="M66327 46386
L66582 46386
L66612 46371
L66627 46356
L66642 46326
L66642 46266
L66627 46236
L66612 46221
L66582 46206
L66327 46206
" />
<path d="M66357 46071
L66342 46056
L66327 46026
L66327 45951
L66342 45921
L66357 45906
L66387 45891
L66417 45891
L66462 45906
L66642 46086
L66642 45891
" />
<g transform="rotate(-90 67500 48750)">
<text x="67500" y="48907.5"
textLength="706.693" font-size="419.947" lengthAdjust="spacingAndGlyphs"
text-anchor="end" opacity="0">U3</text>
</g>
<path d="M67327 49343
L67582 49343
L67612 49328
L67627 49313
L67642 49283
L67642 49223
L67627 49193
L67612 49178
L67582 49163
L67327 49163
" />
<path d="M67327 49043
L67327 48848
L67447 48953
L67447 48908
L67462 48878
L67477 48863
L67507 48848
L67582 48848
L67612 48863
L67627 48878
L67642 48908
L67642 48998
L67627 49028
L67612 49043
" />
<g transform="rotate(-90 66500 48750)">
<text x="66500" y="48907.5"
textLength="706.693" font-size="419.947" lengthAdjust="spacingAndGlyphs"
text-anchor="end" opacity="0">U1</text>
</g>
<path d="M66327 49343
L66582 49343
L66612 49328
L66627 49313
L66642 49283
L66642 49223
L66627 49193
L66612 49178
L66582 49163
L66327 49163
" />
<path d="M66642 48848
L66642 49028
" />
<path d="M66642 48938
L66327 48938
L66372 48968
L66402 48998
L66417 49028
" />
<g transform="rotate(-90 60500 46500)">
<text x="60500" y="46657.5"
textLength="706.693" font-size="419.947" lengthAdjust="spacingAndGlyphs"
text-anchor="start" opacity="0">U0</text>
</g>
<path d="M60327 46386
L60582 46386
L60612 46371
L60627 46356
L60642 46326
L60642 46266
L60627 46236
L60612 46221
L60582 46206
L60327 46206
" />
<path d="M60327 45996
L60327 45966
L60342 45936
L60357 45921
L60387 45906
L60447 45891
L60522 45891
L60582 45906
L60612 45921
L60627 45936
L60642 45966
L60642 45996
L60627 46026
L60612 46041
L60582 46056
L60522 46071
L60447 46071
L60387 46056
L60357 46041
L60342 46026
L60327 45996
" />
<g transform="rotate(-90 68500 31250)">
<text x="68500" y="31407.5"
textLength="1096.64" font-size="419.947" lengthAdjust="spacingAndGlyphs"
text-anchor="start" opacity="0">3.3V</text>
</g>
<path d="M68327 31166
L68327 30971
L68447 31076
L68447 31031
L68462 31001
L68477 30986
L68507 30971
L68582 30971
L68612 30986
L68627 31001
L68642 31031
L68642 31121
L68627 31151
L68612 31166
" />
<path d="M68612 30836
L68627 30821
L68642 30836
L68627 30851
L68612 30836
L68642 30836
" />
<path d="M68327 30716
L68327 30521
L68447 30626
L68447 30581
L68462 30551
L68477 30536
L68507 30521
L68582 30521
L68612 30536
L68627 30551
L68642 30581
L68642 30671
L68627 30701
L68612 30716
" />
<path d="M68327 30431
L68642 30326
L68327 30221
" />
<g transform="rotate(-90 68500 33750)">
<text x="68500" y="33907.5"
textLength="1036.65" font-size="419.947" lengthAdjust="spacingAndGlyphs"
text-anchor="end" opacity="0">GND</text>
</g>
<path d="M68342 34508
L68327 34538
L68327 34583
L68342 34628
L68372 34658
L68402 34673
L68462 34688
L68507 34688
L68567 34673
L68597 34658
L68627 34628
L68642 34583
L68642 34553
L68627 34508
L68612 34493
L68507 34493
L68507 34553
" />
<path d="M68642 34358
L68327 34358
L68642 34178
L68327 34178
" />
<path d="M68642 34028
L68327 34028
L68327 33953
L68342 33908
L68372 33878
L68402 33863
L68462 33848
L68507 33848
L68567 33863
L68597 33878
L68627 33908
L68642 33953
L68642 34028
" />
<g transform="rotate(-90 69500 48750)">
<text x="69500" y="48907.5"
textLength="646.7" font-size="419.947" lengthAdjust="spacingAndGlyphs"
text-anchor="end" opacity="0">5V</text>
</g>
<path d="M69327 49133
L69327 49283
L69477 49298
L69462 49283
L69447 49253
L69447 49178
L69462 49148
L69477 49133
L69507 49118
L69582 49118
L69612 49133
L69627 49148
L69642 49178
L69642 49253
L69627 49283
L69612 49298
" />
<path d="M69327 49028
L69642 48923
L69327 48818
" />
<g transform="rotate(-90 68500 46500)">
<text x="68500" y="46657.5"
textLength="1036.65" font-size="419.947" lengthAdjust="spacingAndGlyphs"
text-anchor="start" opacity="0">GND</text>
</g>
<path d="M68342 46221
L68327 46251
L68327 46296
L68342 46341
L68372 46371
L68402 46386
L68462 46401
L68507 46401
L68567 46386
L68597 46371
L68627 46341
L68642 46296
L68642 46266
L68627 46221
L68612 46206
L68507 46206
L68507 46266
" />
<path d="M68642 46071
L68327 46071
L68642 45891
L68327 45891
" />
<path d="M68642 45741
L68327 45741
L68327 45666
L68342 45621
L68372 45591
L68402 45576
L68462 45561
L68507 45561
L68567 45576
L68597 45591
L68627 45621
L68642 45666
L68642 45741
" />
<g transform="rotate(-90 50500 33750)">
<text x="50500" y="33907.5"
textLength="1036.65" font-size="419.947" lengthAdjust="spacingAndGlyphs"
text-anchor="end" opacity="0">GND</text>
</g>
<path d="M50342 34508
L50327 34538
L50327 34583
L50342 34628
L50372 34658
L50402 34673
L50462 34688
L50507 34688
L50567 34673
L50597 34658
L50627 34628
L50642 34583
L50642 34553
L50627 34508
L50612 34493
L50507 34493
L50507 34553
" />
<path d="M50642 34358
L50327 34358
L50642 34178
L50327 34178
" />
<path d="M50642 34028
L50327 34028
L50327 33953
L50342 33908
L50372 33878
L50402 33863
L50462 33848
L50507 33848
L50567 33863
L50597 33878
L50627 33908
L50642 33953
L50642 34028
" />
<g transform="rotate(-90 52500 33750)">
<text x="52500" y="33907.5"
textLength="1306.62" font-size="419.947" lengthAdjust="spacingAndGlyphs"
text-anchor="end" opacity="0">PC15</text>
</g>
<path d="M52642 34943
L52327 34943
L52327 34823
L52342 34793
L52357 34778
L52387 34763
L52432 34763
L52462 34778
L52477 34793
L52492 34823
L52492 34943
" />
<path d="M52612 34448
L52627 34463
L52642 34508
L52642 34538
L52627 34583
L52597 34613
L52567 34628
L52507 34643
L52462 34643
L52402 34628
L52372 34613
L52342 34583
L52327 34538
L52327 34508
L52342 34463
L52357 34448
" />
<path d="M52642 34148
L52642 34328
" />
<path d="M52642 34238
L52327 34238
L52372 34268
L52402 34298
L52417 34328
" />
<path d="M52327 33863
L52327 34013
L52477 34028
L52462 34013
L52447 33983
L52447 33908
L52462 33878
L52477 33863
L52507 33848
L52582 33848
L52612 33863
L52627 33878
L52642 33908
L52642 33983
L52627 34013
L52612 34028
" />
<g transform="rotate(-90 53500 33750)">
<text x="53500" y="33907.5"
textLength="1306.62" font-size="419.947" lengthAdjust="spacingAndGlyphs"
text-anchor="end" opacity="0">PC13</text>
</g>
<path d="M53642 34943
L53327 34943
L53327 34823
L53342 34793
L53357 34778
L53387 34763
L53432 34763
L53462 34778
L53477 34793
L53492 34823
L53492 34943
" />
<path d="M53612 34448
L53627 34463
L53642 34508
L53642 34538
L53627 34583
L53597 34613
L53567 34628
L53507 34643
L53462 34643
L53402 34628
L53372 34613
L53342 34583
L53327 34538
L53327 34508
L53342 34463
L53357 34448
" />
<path d="M53642 34148
L53642 34328
" />
<path d="M53642 34238
L53327 34238
L53372 34268
L53402 34298
L53417 34328
" />
<path d="M53327 34043
L53327 33848
L53447 33953
L53447 33908
L53462 33878
L53477 33863
L53507 33848
L53582 33848
L53612 33863
L53627 33878
L53642 33908
L53642 33998
L53627 34028
L53612 34043
" />
<g transform="rotate(-90 55500 33750)">
<text x="55500" y="33907.5"
textLength="1006.66" font-size="419.947" lengthAdjust="spacingAndGlyphs"
text-anchor="end" opacity="0">PB9</text>
</g>
<path d="M55642 34643
L55327 34643
L55327 34523
L55342 34493
L55357 34478
L55387 34463
L55432 34463
L55462 34478
L55477 34493
L55492 34523
L55492 34643
" />
<path d="M55477 34223
L55492 34178
L55507 34163
L55537 34148
L55582 34148
L55612 34163
L55627 34178
L55642 34208
L55642 34328
L55327 34328
L55327 34223
L55342 34193
L55357 34178
L55387 34163
L55417 34163
L55447 34178
L55462 34193
L55477 34223
L55477 34328
" />
<path d="M55642 33998
L55642 33938
L55627 33908
L55612 33893
L55567 33863
L55507 33848
L55387 33848
L55357 33863
L55342 33878
L55327 33908
L55327 33968
L55342 33998
L55357 34013
L55387 34028
L55462 34028
L55492 34013
L55507 33998
L55522 33968
L55522 33908
L55507 33878
L55492 33863
L55462 33848
" />
<g transform="rotate(-90 56500 33750)">
<text x="56500" y="33907.5"
textLength="1006.66" font-size="419.947" lengthAdjust="spacingAndGlyphs"
text-anchor="end" opacity="0">PB7</text>
</g>
<path d="M56642 34643
L56327 34643
L56327 34523
L56342 34493
L56357 34478
L56387 34463
L56432 34463
L56462 34478
L56477 34493
L56492 34523
L56492 34643
" />
<path d="M56477 34223
L56492 34178
L56507 34163
L56537 34148
L56582 34148
L56612 34163
L56627 34178
L56642 34208
L56642 34328
L56327 34328
L56327 34223
L56342 34193
L56357 34178
L56387 34163
L56417 34163
L56447 34178
L56462 34193
L56477 34223
L56477 34328
" />
<path d="M56327 34043
L56327 33833
L56642 33968
" />
<g transform="rotate(-90 57500 33750)">
<text x="57500" y="33907.5"
textLength="1006.66" font-size="419.947" lengthAdjust="spacingAndGlyphs"
text-anchor="end" opacity="0">PB5</text>
</g>
<path d="M57642 34643
L57327 34643
L57327 34523
L57342 34493
L57357 34478
L57387 34463
L57432 34463
L57462 34478
L57477 34493
L57492 34523
L57492 34643
" />
<path d="M57477 34223
L57492 34178
L57507 34163
L57537 34148
L57582 34148
L57612 34163
L57627 34178
L57642 34208
L57642 34328
L57327 34328
L57327 34223
L57342 34193
L57357 34178
L57387 34163
L57417 34163
L57447 34178
L57462 34193
L57477 34223
L57477 34328
" />
<path d="M57327 33863
L57327 34013
L57477 34028
L57462 34013
L57447 33983
L57447 33908
L57462 33878
L57477 33863
L57507 33848
L57582 33848
L57612 33863
L57627 33878
L57642 33908
L57642 33983
L57627 34013
L57612 34028
" />
<g transform="rotate(-90 58500 33750)">
<text x="58500" y="33907.5"
textLength="1006.66" font-size="419.947" lengthAdjust="spacingAndGlyphs"
text-anchor="end" opacity="0">PB3</text>
</g>
<path d="M58642 34643
L58327 34643
L58327 34523
L58342 34493
L58357 34478
L58387 34463
L58432 34463
L58462 34478
L58477 34493
L58492 34523
L58492 34643
" />
<path d="M58477 34223
L58492 34178
L58507 34163
L58537 34148
L58582 34148
L58612 34163
L58627 34178
L58642 34208
L58642 34328
L58327 34328
L58327 34223
L58342 34193
L58357 34178
L58387 34163
L58417 34163
L58447 34178
L58462 34193
L58477 34223
L58477 34328
" />
<path d="M58327 34043
L58327 33848
L58447 33953
L58447 33908
L58462 33878
L58477 33863
L58507 33848
L58582 33848
L58612 33863
L58627 33878
L58642 33908
L58642 33998
L58627 34028
L58612 34043
" />
<g transform="rotate(-90 60500 33750)">
<text x="60500" y="33907.5"
textLength="1306.62" font-size="419.947" lengthAdjust="spacingAndGlyphs"
text-anchor="end" opacity="0">PC11</text>
</g>
<path d="M60642 34943
L60327 34943
L60327 34823
L60342 34793
L60357 34778
L60387 34763
L60432 34763
L60462 34778
L60477 34793
L60492 34823
L60492 34943
" />
<path d="M60612 34448
L60627 34463
L60642 34508
L60642 34538
L60627 34583
L60597 34613
L60567 34628
L60507 34643
L60462 34643
L60402 34628
L60372 34613
L60342 34583
L60327 34538
L60327 34508
L60342 34463
L60357 34448
" />
<path d="M60642 34148
L60642 34328
" />
<path d="M60642 34238
L60327 34238
L60372 34268
L60402 34298
L60417 34328
" />
<path d="M60642 33848
L60642 34028
" />
<path d="M60642 33938
L60327 33938
L60372 33968
L60402 33998
L60417 34028
" />
<g transform="rotate(-90 62500 33750)">
<text x="62500" y="33907.5"
textLength="1261.62" font-size="419.947" lengthAdjust="spacingAndGlyphs"
text-anchor="end" opacity="0">PA15</text>
</g>
<path d="M62642 34898
L62327 34898
L62327 34778
L62342 34748
L62357 34733
L62387 34718
L62432 34718
L62462 34733
L62477 34748
L62492 34778
L62492 34898
" />
<path d="M62552 34598
L62552 34448
" />
<path d="M62642 34628
L62327 34523
L62642 34418
" />
<path d="M62642 34148
L62642 34328
" />
<path d="M62642 34238
L62327 34238
L62372 34268
L62402 34298
L62417 34328
" />
<path d="M62327 33863
L62327 34013
L62477 34028
L62462 34013
L62447 33983
L62447 33908
L62462 33878
L62477 33863
L62507 33848
L62582 33848
L62612 33863
L62627 33878
L62642 33908
L62642 33983
L62627 34013
L62612 34028
" />
<g transform="rotate(-90 63500 33750)">
<text x="63500" y="33907.5"
textLength="1261.62" font-size="419.947" lengthAdjust="spacingAndGlyphs"
text-anchor="end" opacity="0">PA13</text>
</g>
<path d="M63642 34898
L63327 34898
L63327 34778
L63342 34748
L63357 34733
L63387 34718
L63432 34718
L63462 34733
L63477 34748
L63492 34778
L63492 34898
" />
<path d="M63552 34598
L63552 34448
" />
<path d="M63642 34628
L63327 34523
L63642 34418
" />
<path d="M63642 34148
L63642 34328
" />
<path d="M63642 34238
L63327 34238
L63372 34268
L63402 34298
L63417 34328
" />
<path d="M63327 34043
L63327 33848
L63447 33953
L63447 33908
L63462 33878
L63477 33863
L63507 33848
L63582 33848
L63612 33863
L63627 33878
L63642 33908
L63642 33998
L63627 34028
L63612 34043
" />
<g transform="rotate(-90 64500 33750)">
<text x="64500" y="33907.5"
textLength="1261.62" font-size="419.947" lengthAdjust="spacingAndGlyphs"
text-anchor="end" opacity="0">PA11</text>
</g>
<path d="M64642 34898
L64327 34898
L64327 34778
L64342 34748
L64357 34733
L64387 34718
L64432 34718
L64462 34733
L64477 34748
L64492 34778
L64492 34898
" />
<path d="M64552 34598
L64552 34448
" />
<path d="M64642 34628
L64327 34523
L64642 34418
" />
<path d="M64642 34148
L64642 34328
" />
<path d="M64642 34238
L64327 34238
L64372 34268
L64402 34298
L64417 34328
" />
<path d="M64642 33848
L64642 34028
" />
<path d="M64642 33938
L64327 33938
L64372 33968
L64402 33998
L64417 34028
" />
<g transform="rotate(-90 65500 33750)">
<text x="65500" y="33907.5"
textLength="961.661" font-size="419.947" lengthAdjust="spacingAndGlyphs"
text-anchor="end" opacity="0">PA9</text>
</g>
<path d="M65642 34598
L65327 34598
L65327 34478
L65342 34448
L65357 34433
L65387 34418
L65432 34418
L65462 34433
L65477 34448
L65492 34478
L65492 34598
" />
<path d="M65552 34298
L65552 34148
" />
<path d="M65642 34328
L65327 34223
L65642 34118
" />
<path d="M65642 33998
L65642 33938
L65627 33908
L65612 33893
L65567 33863
L65507 33848
L65387 33848
L65357 33863
L65342 33878
L65327 33908
L65327 33968
L65342 33998
L65357 34013
L65387 34028
L65462 34028
L65492 34013
L65507 33998
L65522 33968
L65522 33908
L65507 33878
L65492 33863
L65462 33848
" />
<g transform="rotate(-90 50500 31250)">
<text x="50500" y="31407.5"
textLength="1096.64" font-size="419.947" lengthAdjust="spacingAndGlyphs"
text-anchor="start" opacity="0">3.3V</text>
</g>
<path d="M50327 31166
L50327 30971
L50447 31076
L50447 31031
L50462 31001
L50477 30986
L50507 30971
L50582 30971
L50612 30986
L50627 31001
L50642 31031
L50642 31121
L50627 31151
L50612 31166
" />
<path d="M50612 30836
L50627 30821
L50642 30836
L50627 30851
L50612 30836
L50642 30836
" />
<path d="M50327 30716
L50327 30521
L50447 30626
L50447 30581
L50462 30551
L50477 30536
L50507 30521
L50582 30521
L50612 30536
L50627 30551
L50642 30581
L50642 30671
L50627 30701
L50612 30716
" />
<path d="M50327 30431
L50642 30326
L50327 30221
" />
<g transform="rotate(-90 53500 31250)">
<text x="53500" y="31407.5"
textLength="1306.62" font-size="419.947" lengthAdjust="spacingAndGlyphs"
text-anchor="start" opacity="0">PC14</text>
</g>
<path d="M53642 31136
L53327 31136
L53327 31016
L53342 30986
L53357 30971
L53387 30956
L53432 30956
L53462 30971
L53477 30986
L53492 31016
L53492 31136
" />
<path d="M53612 30641
L53627 30656
L53642 30701
L53642 30731
L53627 30776
L53597 30806
L53567 30821
L53507 30836
L53462 30836
L53402 30821
L53372 30806
L53342 30776
L53327 30731
L53327 30701
L53342 30656
L53357 30641
" />
<path d="M53642 30341
L53642 30521
" />
<path d="M53642 30431
L53327 30431
L53372 30461
L53402 30491
L53417 30521
" />
<path d="M53432 30071
L53642 30071
" />
<path d="M53312 30146
L53537 30221
L53537 30026
" />
<g transform="rotate(-90 55500 31250)">
<text x="55500" y="31407.5"
textLength="1006.66" font-size="419.947" lengthAdjust="spacingAndGlyphs"
text-anchor="start" opacity="0">PB8</text>
</g>
<path d="M55642 31136
L55327 31136
L55327 31016
L55342 30986
L55357 30971
L55387 30956
L55432 30956
L55462 30971
L55477 30986
L55492 31016
L55492 31136
" />
<path d="M55477 30716
L55492 30671
L55507 30656
L55537 30641
L55582 30641
L55612 30656
L55627 30671
L55642 30701
L55642 30821
L55327 30821
L55327 30716
L55342 30686
L55357 30671
L55387 30656
L55417 30656
L55447 30671
L55462 30686
L55477 30716
L55477 30821
" />
<path d="M55462 30461
L55447 30491
L55432 30506
L55402 30521
L55387 30521
L55357 30506
L55342 30491
L55327 30461
L55327 30401
L55342 30371
L55357 30356
L55387 30341
L55402 30341
L55432 30356
L55447 30371
L55462 30401
L55462 30461
L55477 30491
L55492 30506
L55522 30521
L55582 30521
L55612 30506
L55627 30491
L55642 30461
L55642 30401
L55627 30371
L55612 30356
L55582 30341
L55522 30341
L55492 30356
L55477 30371
L55462 30401
" />
<g transform="rotate(-90 56500 31250)">
<text x="56500" y="31407.5"
textLength="1006.66" font-size="419.947" lengthAdjust="spacingAndGlyphs"
text-anchor="start" opacity="0">PB6</text>
</g>
<path d="M56642 31136
L56327 31136
L56327 31016
L56342 30986
L56357 30971
L56387 30956
L56432 30956
L56462 30971
L56477 30986
L56492 31016
L56492 31136
" />
<path d="M56477 30716
L56492 30671
L56507 30656
L56537 30641
L56582 30641
L56612 30656
L56627 30671
L56642 30701
L56642 30821
L56327 30821
L56327 30716
L56342 30686
L56357 30671
L56387 30656
L56417 30656
L56447 30671
L56462 30686
L56477 30716
L56477 30821
" />
<path d="M56327 30371
L56327 30431
L56342 30461
L56357 30476
L56402 30506
L56462 30521
L56582 30521
L56612 30506
L56627 30491
L56642 30461
L56642 30401
L56627 30371
L56612 30356
L56582 30341
L56507 30341
L56477 30356
L56462 30371
L56447 30401
L56447 30461
L56462 30491
L56477 30506
L56507 30521
" />
<g transform="rotate(-90 57500 31250)">
<text x="57500" y="31407.5"
textLength="1006.66" font-size="419.947" lengthAdjust="spacingAndGlyphs"
text-anchor="start" opacity="0">PB4</text>
</g>
<path d="M57642 31136
L57327 31136
L57327 31016
L57342 30986
L57357 30971
L57387 30956
L57432 30956
L57462 30971
L57477 30986
L57492 31016
L57492 31136
" />
<path d="M57477 30716
L57492 30671
L57507 30656
L57537 30641
L57582 30641
L57612 30656
L57627 30671
L57642 30701
L57642 30821
L57327 30821
L57327 30716
L57342 30686
L57357 30671
L57387 30656
L57417 30656
L57447 30671
L57462 30686
L57477 30716
L57477 30821
" />
<path d="M57432 30371
L57642 30371
" />
<path d="M57312 30446
L57537 30521
L57537 30326
" />
<g transform="rotate(-90 58500 31250)">
<text x="58500" y="31407.5"
textLength="1006.66" font-size="419.947" lengthAdjust="spacingAndGlyphs"
text-anchor="start" opacity="0">PD2</text>
</g>
<path d="M58642 31136
L58327 31136
L58327 31016
L58342 30986
L58357 30971
L58387 30956
L58432 30956
L58462 30971
L58477 30986
L58492 31016
L58492 31136
" />
<path d="M58642 30821
L58327 30821
L58327 30746
L58342 30701
L58372 30671
L58402 30656
L58462 30641
L58507 30641
L58567 30656
L58597 30671
L58627 30701
L58642 30746
L58642 30821
" />
<path d="M58357 30521
L58342 30506
L58327 30476
L58327 30401
L58342 30371
L58357 30356
L58387 30341
L58417 30341
L58462 30356
L58642 30536
L58642 30341
" />
<g transform="rotate(-90 59500 31250)">
<text x="59500" y="31407.5"
textLength="1306.62" font-size="419.947" lengthAdjust="spacingAndGlyphs"
text-anchor="start" opacity="0">PC12</text>
</g>
<path d="M59642 31136
L59327 31136
L59327 31016
L59342 30986
L59357 30971
L59387 30956
L59432 30956
L59462 30971
L59477 30986
L59492 31016
L59492 31136
" />
<path d="M59612 30641
L59627 30656
L59642 30701
L59642 30731
L59627 30776
L59597 30806
L59567 30821
L59507 30836
L59462 30836
L59402 30821
L59372 30806
L59342 30776
L59327 30731
L59327 30701
L59342 30656
L59357 30641
" />
<path d="M59642 30341
L59642 30521
" />
<path d="M59642 30431
L59327 30431
L59372 30461
L59402 30491
L59417 30521
" />
<path d="M59357 30221
L59342 30206
L59327 30176
L59327 30101
L59342 30071
L59357 30056
L59387 30041
L59417 30041
L59462 30056
L59642 30236
L59642 30041
" />
<g transform="rotate(-90 60500 31250)">
<text x="60500" y="31407.5"
textLength="1306.62" font-size="419.947" lengthAdjust="spacingAndGlyphs"
text-anchor="start" opacity="0">PC10</text>
</g>
<path d="M60642 31136
L60327 31136
L60327 31016
L60342 30986
L60357 30971
L60387 30956
L60432 30956
L60462 30971
L60477 30986
L60492 31016
L60492 31136
" />
<path d="M60612 30641
L60627 30656
L60642 30701
L60642 30731
L60627 30776
L60597 30806
L60567 30821
L60507 30836
L60462 30836
L60402 30821
L60372 30806
L60342 30776
L60327 30731
L60327 30701
L60342 30656
L60357 30641
" />
<path d="M60642 30341
L60642 30521
" />
<path d="M60642 30431
L60327 30431
L60372 30461
L60402 30491
L60417 30521
" />
<path d="M60327 30146
L60327 30116
L60342 30086
L60357 30071
L60387 30056
L60447 30041
L60522 30041
L60582 30056
L60612 30071
L60627 30086
L60642 30116
L60642 30146
L60627 30176
L60612 30191
L60582 30206
L60522 30221
L60447 30221
L60387 30206
L60357 30191
L60342 30176
L60327 30146
" />
<g transform="rotate(-90 62500 31250)">
<text x="62500" y="31407.5"
textLength="1261.62" font-size="419.947" lengthAdjust="spacingAndGlyphs"
text-anchor="start" opacity="0">PA14</text>
</g>
<path d="M62642 31136
L62327 31136
L62327 31016
L62342 30986
L62357 30971
L62387 30956
L62432 30956
L62462 30971
L62477 30986
L62492 31016
L62492 31136
" />
<path d="M62552 30836
L62552 30686
" />
<path d="M62642 30866
L62327 30761
L62642 30656
" />
<path d="M62642 30386
L62642 30566
" />
<path d="M62642 30476
L62327 30476
L62372 30506
L62402 30536
L62417 30566
" />
<path d="M62432 30116
L62642 30116
" />
<path d="M62312 30191
L62537 30266
L62537 30071
" />
<g transform="rotate(-90 63500 31250)">
<text x="63500" y="31407.5"
textLength="1261.62" font-size="419.947" lengthAdjust="spacingAndGlyphs"
text-anchor="start" opacity="0">PA12</text>
</g>
<path d="M63642 31136
L63327 31136
L63327 31016
L63342 30986
L63357 30971
L63387 30956
L63432 30956
L63462 30971
L63477 30986
L63492 31016
L63492 31136
" />
<path d="M63552 30836
L63552 30686
" />
<path d="M63642 30866
L63327 30761
L63642 30656
" />
<path d="M63642 30386
L63642 30566
" />
<path d="M63642 30476
L63327 30476
L63372 30506
L63402 30536
L63417 30566
" />
<path d="M63357 30266
L63342 30251
L63327 30221
L63327 30146
L63342 30116
L63357 30101
L63387 30086
L63417 30086
L63462 30101
L63642 30281
L63642 30086
" />
<g transform="rotate(-90 64500 31250)">
<text x="64500" y="31407.5"
textLength="1261.62" font-size="419.947" lengthAdjust="spacingAndGlyphs"
text-anchor="start" opacity="0">PA10</text>
</g>
<path d="M64642 31136
L64327 31136
L64327 31016
L64342 30986
L64357 30971
L64387 30956
L64432 30956
L64462 30971
L64477 30986
L64492 31016
L64492 31136
" />
<path d="M64552 30836
L64552 30686
" />
<path d="M64642 30866
L64327 30761
L64642 30656
" />
<path d="M64642 30386
L64642 30566
" />
<path d="M64642 30476
L64327 30476
L64372 30506
L64402 30536
L64417 30566
" />
<path d="M64327 30191
L64327 30161
L64342 30131
L64357 30116
L64387 30101
L64447 30086
L64522 30086
L64582 30101
L64612 30116
L64627 30131
L64642 30161
L64642 30191
L64627 30221
L64612 30236
L64582 30251
L64522 30266
L64447 30266
L64387 30251
L64357 30236
L64342 30221
L64327 30191
" />
<g transform="rotate(-90 65500 31250)">
<text x="65500" y="31407.5"
textLength="961.661" font-size="419.947" lengthAdjust="spacingAndGlyphs"
text-anchor="start" opacity="0">PA8</text>
</g>
<path d="M65642 31136
L65327 31136
L65327 31016
L65342 30986
L65357 30971
L65387 30956
L65432 30956
L65462 30971
L65477 30986
L65492 31016
L65492 31136
" />
<path d="M65552 30836
L65552 30686
" />
<path d="M65642 30866
L65327 30761
L65642 30656
" />
<path d="M65462 30506
L65447 30536
L65432 30551
L65402 30566
L65387 30566
L65357 30551
L65342 30536
L65327 30506
L65327 30446
L65342 30416
L65357 30401
L65387 30386
L65402 30386
L65432 30401
L65447 30416
L65462 30446
L65462 30506
L65477 30536
L65492 30551
L65522 30566
L65582 30566
L65612 30551
L65627 30536
L65642 30506
L65642 30446
L65627 30416
L65612 30401
L65582 30386
L65522 30386
L65492 30401
L65477 30416
L65462 30446
" />
<g transform="rotate(-90 69500 33750)">
<text x="69500" y="33907.5"
textLength="1036.65" font-size="419.947" lengthAdjust="spacingAndGlyphs"
text-anchor="end" opacity="0">GND</text>
</g>
<path d="M69342 34508
L69327 34538
L69327 34583
L69342 34628
L69372 34658
L69402 34673
L69462 34688
L69507 34688
L69567 34673
L69597 34658
L69627 34628
L69642 34583
L69642 34553
L69627 34508
L69612 34493
L69507 34493
L69507 34553
" />
<path d="M69642 34358
L69327 34358
L69642 34178
L69327 34178
" />
<path d="M69642 34028
L69327 34028
L69327 33953
L69342 33908
L69372 33878
L69402 33863
L69462 33848
L69507 33848
L69567 33863
L69597 33878
L69627 33908
L69642 33953
L69642 34028
" />
<g transform="rotate(-90 69500 31250)">
<text x="69500" y="31407.5"
textLength="646.7" font-size="419.947" lengthAdjust="spacingAndGlyphs"
text-anchor="start" opacity="0">5V</text>
</g>
<path d="M69327 30986
L69327 31136
L69477 31151
L69462 31136
L69447 31106
L69447 31031
L69462 31001
L69477 30986
L69507 30971
L69582 30971
L69612 30986
L69627 31001
L69642 31031
L69642 31106
L69627 31136
L69612 31151
" />
<path d="M69327 30881
L69642 30776
L69327 30671
" />
<g transform="rotate(-90 69500 46500)">
<text x="69500" y="46657.5"
textLength="1036.65" font-size="419.947" lengthAdjust="spacingAndGlyphs"
text-anchor="start" opacity="0">GND</text>
</g>
<path d="M69342 46221
L69327 46251
L69327 46296
L69342 46341
L69372 46371
L69402 46386
L69462 46401
L69507 46401
L69567 46386
L69597 46371
L69627 46341
L69642 46296
L69642 46266
L69627 46221
L69612 46206
L69507 46206
L69507 46266
" />
<path d="M69642 46071
L69327 46071
L69642 45891
L69327 45891
" />
<path d="M69642 45741
L69327 45741
L69327 45666
L69342 45621
L69372 45591
L69402 45576
L69462 45561
L69507 45561
L69567 45576
L69597 45591
L69627 45621
L69642 45666
L69642 45741
" />
<g transform="rotate(-90 65500 46500)">
<text x="65500" y="46657.5"
textLength="1006.66" font-size="419.947" lengthAdjust="spacingAndGlyphs"
text-anchor="start" opacity="0">PC9</text>
</g>
<path d="M65642 46386
L65327 46386
L65327 46266
L65342 46236
L65357 46221
L65387 46206
L65432 46206
L65462 46221
L65477 46236
L65492 46266
L65492 46386
" />
<path d="M65612 45891
L65627 45906
L65642 45951
L65642 45981
L65627 46026
L65597 46056
L65567 46071
L65507 46086
L65462 46086
L65402 46071
L65372 46056
L65342 46026
L65327 45981
L65327 45951
L65342 45906
L65357 45891
" />
<path d="M65642 45741
L65642 45681
L65627 45651
L65612 45636
L65567 45606
L65507 45591
L65387 45591
L65357 45606
L65342 45621
L65327 45651
L65327 45711
L65342 45741
L65357 45756
L65387 45771
L65462 45771
L65492 45756
L65507 45741
L65522 45711
L65522 45651
L65507 45621
L65492 45606
L65462 45591
" />
<g transform="rotate(-90 64500 46500)">
<text x="64500" y="46657.5"
textLength="1006.66" font-size="419.947" lengthAdjust="spacingAndGlyphs"
text-anchor="start" opacity="0">PC7</text>
</g>
<path d="M64642 46386
L64327 46386
L64327 46266
L64342 46236
L64357 46221
L64387 46206
L64432 46206
L64462 46221
L64477 46236
L64492 46266
L64492 46386
" />
<path d="M64612 45891
L64627 45906
L64642 45951
L64642 45981
L64627 46026
L64597 46056
L64567 46071
L64507 46086
L64462 46086
L64402 46071
L64372 46056
L64342 46026
L64327 45981
L64327 45951
L64342 45906
L64357 45891
" />
<path d="M64327 45786
L64327 45576
L64642 45711
" />
<g transform="rotate(-90 63500 46500)">
<text x="63500" y="46657.5"
textLength="1306.62" font-size="419.947" lengthAdjust="spacingAndGlyphs"
text-anchor="start" opacity="0">PB15</text>
</g>
<path d="M63642 46386
L63327 46386
L63327 46266
L63342 46236
L63357 46221
L63387 46206
L63432 46206
L63462 46221
L63477 46236
L63492 46266
L63492 46386
" />
<path d="M63477 45966
L63492 45921
L63507 45906
L63537 45891
L63582 45891
L63612 45906
L63627 45921
L63642 45951
L63642 46071
L63327 46071
L63327 45966
L63342 45936
L63357 45921
L63387 45906
L63417 45906
L63447 45921
L63462 45936
L63477 45966
L63477 46071
" />
<path d="M63642 45591
L63642 45771
" />
<path d="M63642 45681
L63327 45681
L63372 45711
L63402 45741
L63417 45771
" />
<path d="M63327 45306
L63327 45456
L63477 45471
L63462 45456
L63447 45426
L63447 45351
L63462 45321
L63477 45306
L63507 45291
L63582 45291
L63612 45306
L63627 45321
L63642 45351
L63642 45426
L63627 45456
L63612 45471
" />
<g transform="rotate(-90 62500 46500)">
<text x="62500" y="46657.5"
textLength="1306.62" font-size="419.947" lengthAdjust="spacingAndGlyphs"
text-anchor="start" opacity="0">PB13</text>
</g>
<path d="M62642 46386
L62327 46386
L62327 46266
L62342 46236
L62357 46221
L62387 46206
L62432 46206
L62462 46221
L62477 46236
L62492 46266
L62492 46386
" />
<path d="M62477 45966
L62492 45921
L62507 45906
L62537 45891
L62582 45891
L62612 45906
L62627 45921
L62642 45951
L62642 46071
L62327 46071
L62327 45966
L62342 45936
L62357 45921
L62387 45906
L62417 45906
L62447 45921
L62462 45936
L62477 45966
L62477 46071
" />
<path d="M62642 45591
L62642 45771
" />
<path d="M62642 45681
L62327 45681
L62372 45711
L62402 45741
L62417 45771
" />
<path d="M62327 45486
L62327 45291
L62447 45396
L62447 45351
L62462 45321
L62477 45306
L62507 45291
L62582 45291
L62612 45306
L62627 45321
L62642 45351
L62642 45441
L62627 45471
L62612 45486
" />
<g transform="rotate(-90 61500 46500)">
<text x="61500" y="46657.5"
textLength="1306.62" font-size="419.947" lengthAdjust="spacingAndGlyphs"
text-anchor="start" opacity="0">PB11</text>
</g>
<path d="M61642 46386
L61327 46386
L61327 46266
L61342 46236
L61357 46221
L61387 46206
L61432 46206
L61462 46221
L61477 46236
L61492 46266
L61492 46386
" />
<path d="M61477 45966
L61492 45921
L61507 45906
L61537 45891
L61582 45891
L61612 45906
L61627 45921
L61642 45951
L61642 46071
L61327 46071
L61327 45966
L61342 45936
L61357 45921
L61387 45906
L61417 45906
L61447 45921
L61462 45936
L61477 45966
L61477 46071
" />
<path d="M61642 45591
L61642 45771
" />
<path d="M61642 45681
L61327 45681
L61372 45711
L61402 45741
L61417 45771
" />
<path d="M61642 45291
L61642 45471
" />
<path d="M61642 45381
L61327 45381
L61372 45411
L61402 45441
L61417 45471
" />
<g transform="rotate(-90 59500 46500)">
<text x="59500" y="46657.5"
textLength="1006.66" font-size="419.947" lengthAdjust="spacingAndGlyphs"
text-anchor="start" opacity="0">PB1</text>
</g>
<path d="M59642 46386
L59327 46386
L59327 46266
L59342 46236
L59357 46221
L59387 46206
L59432 46206
L59462 46221
L59477 46236
L59492 46266
L59492 46386
" />
<path d="M59477 45966
L59492 45921
L59507 45906
L59537 45891
L59582 45891
L59612 45906
L59627 45921
L59642 45951
L59642 46071
L59327 46071
L59327 45966
L59342 45936
L59357 45921
L59387 45906
L59417 45906
L59447 45921
L59462 45936
L59477 45966
L59477 46071
" />
<path d="M59642 45591
L59642 45771
" />
<path d="M59642 45681
L59327 45681
L59372 45711
L59402 45741
L59417 45771
" />
<g transform="rotate(-90 58500 46500)">
<text x="58500" y="46657.5"
textLength="1006.66" font-size="419.947" lengthAdjust="spacingAndGlyphs"
text-anchor="start" opacity="0">PC5</text>
</g>
<path d="M58642 46386
L58327 46386
L58327 46266
L58342 46236
L58357 46221
L58387 46206
L58432 46206
L58462 46221
L58477 46236
L58492 46266
L58492 46386
" />
<path d="M58612 45891
L58627 45906
L58642 45951
L58642 45981
L58627 46026
L58597 46056
L58567 46071
L58507 46086
L58462 46086
L58402 46071
L58372 46056
L58342 46026
L58327 45981
L58327 45951
L58342 45906
L58357 45891
" />
<path d="M58327 45606
L58327 45756
L58477 45771
L58462 45756
L58447 45726
L58447 45651
L58462 45621
L58477 45606
L58507 45591
L58582 45591
L58612 45606
L58627 45621
L58642 45651
L58642 45726
L58627 45756
L58612 45771
" />
<g transform="rotate(-90 57500 46500)">
<text x="57500" y="46657.5"
textLength="961.661" font-size="419.947" lengthAdjust="spacingAndGlyphs"
text-anchor="start" opacity="0">PA7</text>
</g>
<path d="M57642 46386
L57327 46386
L57327 46266
L57342 46236
L57357 46221
L57387 46206
L57432 46206
L57462 46221
L57477 46236
L57492 46266
L57492 46386
" />
<path d="M57552 46086
L57552 45936
" />
<path d="M57642 46116
L57327 46011
L57642 45906
" />
<path d="M57327 45831
L57327 45621
L57642 45756
" />
<g transform="rotate(-90 56500 46500)">
<text x="56500" y="46657.5"
textLength="961.661" font-size="419.947" lengthAdjust="spacingAndGlyphs"
text-anchor="start" opacity="0">PA5</text>
</g>
<path d="M56642 46386
L56327 46386
L56327 46266
L56342 46236
L56357 46221
L56387 46206
L56432 46206
L56462 46221
L56477 46236
L56492 46266
L56492 46386
" />
<path d="M56552 46086
L56552 45936
" />
<path d="M56642 46116
L56327 46011
L56642 45906
" />
<path d="M56327 45651
L56327 45801
L56477 45816
L56462 45801
L56447 45771
L56447 45696
L56462 45666
L56477 45651
L56507 45636
L56582 45636
L56612 45651
L56627 45666
L56642 45696
L56642 45771
L56627 45801
L56612 45816
" />
<g transform="rotate(-90 55500 46500)">
<text x="55500" y="46657.5"
textLength="961.661" font-size="419.947" lengthAdjust="spacingAndGlyphs"
text-anchor="start" opacity="0">PA3</text>
</g>
<path d="M55642 46386
L55327 46386
L55327 46266
L55342 46236
L55357 46221
L55387 46206
L55432 46206
L55462 46221
L55477 46236
L55492 46266
L55492 46386
" />
<path d="M55552 46086
L55552 45936
" />
<path d="M55642 46116
L55327 46011
L55642 45906
" />
<path d="M55327 45831
L55327 45636
L55447 45741
L55447 45696
L55462 45666
L55477 45651
L55507 45636
L55582 45636
L55612 45651
L55627 45666
L55642 45696
L55642 45786
L55627 45816
L55612 45831
" />
<g transform="rotate(-90 54500 46500)">
<text x="54500" y="46657.5"
textLength="961.661" font-size="419.947" lengthAdjust="spacingAndGlyphs"
text-anchor="start" opacity="0">PA1</text>
</g>
<path d="M54642 46386
L54327 46386
L54327 46266
L54342 46236
L54357 46221
L54387 46206
L54432 46206
L54462 46221
L54477 46236
L54492 46266
L54492 46386
" />
<path d="M54552 46086
L54552 45936
" />
<path d="M54642 46116
L54327 46011
L54642 45906
" />
<path d="M54642 45636
L54642 45816
" />
<path d="M54642 45726
L54327 45726
L54372 45756
L54402 45786
L54417 45816
" />
<g transform="rotate(-90 53500 46500)">
<text x="53500" y="46657.5"
textLength="1006.66" font-size="419.947" lengthAdjust="spacingAndGlyphs"
text-anchor="start" opacity="0">PC3</text>
</g>
<path d="M53642 46386
L53327 46386
L53327 46266
L53342 46236
L53357 46221
L53387 46206
L53432 46206
L53462 46221
L53477 46236
L53492 46266
L53492 46386
" />
<path d="M53612 45891
L53627 45906
L53642 45951
L53642 45981
L53627 46026
L53597 46056
L53567 46071
L53507 46086
L53462 46086
L53402 46071
L53372 46056
L53342 46026
L53327 45981
L53327 45951
L53342 45906
L53357 45891
" />
<path d="M53327 45786
L53327 45591
L53447 45696
L53447 45651
L53462 45621
L53477 45606
L53507 45591
L53582 45591
L53612 45606
L53627 45621
L53642 45651
L53642 45741
L53627 45771
L53612 45786
" />
<g transform="rotate(-90 52500 46500)">
<text x="52500" y="46657.5"
textLength="1006.66" font-size="419.947" lengthAdjust="spacingAndGlyphs"
text-anchor="start" opacity="0">PC1</text>
</g>
<path d="M52642 46386
L52327 46386
L52327 46266
L52342 46236
L52357 46221
L52387 46206
L52432 46206
L52462 46221
L52477 46236
L52492 46266
L52492 46386
" />
<path d="M52612 45891
L52627 45906
L52642 45951
L52642 45981
L52627 46026
L52597 46056
L52567 46071
L52507 46086
L52462 46086
L52402 46071
L52372 46056
L52342 46026
L52327 45981
L52327 45951
L52342 45906
L52357 45891
" />
<path d="M52642 45591
L52642 45771
" />
<path d="M52642 45681
L52327 45681
L52372 45711
L52402 45741
L52417 45771
" />
<g transform="rotate(-90 51500 46500)">
<text x="51500" y="46657.5"
textLength="1261.62" font-size="419.947" lengthAdjust="spacingAndGlyphs"
text-anchor="start" opacity="0">NRST</text>
</g>
<path d="M51642 46386
L51327 46386
L51642 46206
L51327 46206
" />
<path d="M51642 45876
L51492 45981
" />
<path d="M51642 46056
L51327 46056
L51327 45936
L51342 45906
L51357 45891
L51387 45876
L51432 45876
L51462 45891
L51477 45906
L51492 45936
L51492 46056
" />
<path d="M51627 45756
L51642 45711
L51642 45636
L51627 45606
L51612 45591
L51582 45576
L51552 45576
L51522 45591
L51507 45606
L51492 45636
L51477 45696
L51462 45726
L51447 45741
L51417 45756
L51387 45756
L51357 45741
L51342 45726
L51327 45696
L51327 45621
L51342 45576
" />
<path d="M51327 45486
L51327 45306
" />
<path d="M51642 45396
L51327 45396
" />
<g transform="rotate(-90 68500 48750)">
<text x="68500" y="48907.5"
textLength="1096.64" font-size="419.947" lengthAdjust="spacingAndGlyphs"
text-anchor="end" opacity="0">3.3V</text>
</g>
<path d="M68327 49763
L68327 49568
L68447 49673
L68447 49628
L68462 49598
L68477 49583
L68507 49568
L68582 49568
L68612 49583
L68627 49598
L68642 49628
L68642 49718
L68627 49748
L68612 49763
" />
<path d="M68612 49433
L68627 49418
L68642 49433
L68627 49448
L68612 49433
L68642 49433
" />
<path d="M68327 49313
L68327 49118
L68447 49223
L68447 49178
L68462 49148
L68477 49133
L68507 49118
L68582 49118
L68612 49133
L68627 49148
L68642 49178
L68642 49268
L68627 49298
L68612 49313
" />
<path d="M68327 49028
L68642 48923
L68327 48818
" />
<g transform="rotate(-90 65500 48750)">
<text x="65500" y="48907.5"
textLength="1006.66" font-size="419.947" lengthAdjust="spacingAndGlyphs"
text-anchor="end" opacity="0">PC8</text>
</g>
<path d="M65642 49643
L65327 49643
L65327 49523
L65342 49493
L65357 49478
L65387 49463
L65432 49463
L65462 49478
L65477 49493
L65492 49523
L65492 49643
" />
<path d="M65612 49148
L65627 49163
L65642 49208
L65642 49238
L65627 49283
L65597 49313
L65567 49328
L65507 49343
L65462 49343
L65402 49328
L65372 49313
L65342 49283
L65327 49238
L65327 49208
L65342 49163
L65357 49148
" />
<path d="M65462 48968
L65447 48998
L65432 49013
L65402 49028
L65387 49028
L65357 49013
L65342 48998
L65327 48968
L65327 48908
L65342 48878
L65357 48863
L65387 48848
L65402 48848
L65432 48863
L65447 48878
L65462 48908
L65462 48968
L65477 48998
L65492 49013
L65522 49028
L65582 49028
L65612 49013
L65627 48998
L65642 48968
L65642 48908
L65627 48878
L65612 48863
L65582 48848
L65522 48848
L65492 48863
L65477 48878
L65462 48908
" />
<g transform="rotate(-90 64500 48750)">
<text x="64500" y="48907.5"
textLength="1006.66" font-size="419.947" lengthAdjust="spacingAndGlyphs"
text-anchor="end" opacity="0">PC6</text>
</g>
<path d="M64642 49643
L64327 49643
L64327 49523
L64342 49493
L64357 49478
L64387 49463
L64432 49463
L64462 49478
L64477 49493
L64492 49523
L64492 49643
" />
<path d="M64612 49148
L64627 49163
L64642 49208
L64642 49238
L64627 49283
L64597 49313
L64567 49328
L64507 49343
L64462 49343
L64402 49328
L64372 49313
L64342 49283
L64327 49238
L64327 49208
L64342 49163
L64357 49148
" />
<path d="M64327 48878
L64327 48938
L64342 48968
L64357 48983
L64402 49013
L64462 49028
L64582 49028
L64612 49013
L64627 48998
L64642 48968
L64642 48908
L64627 48878
L64612 48863
L64582 48848
L64507 48848
L64477 48863
L64462 48878
L64447 48908
L64447 48968
L64462 48998
L64477 49013
L64507 49028
" />
<g transform="rotate(-90 63500 48750)">
<text x="63500" y="48907.5"
textLength="1306.62" font-size="419.947" lengthAdjust="spacingAndGlyphs"
text-anchor="end" opacity="0">PB14</text>
</g>
<path d="M63642 49943
L63327 49943
L63327 49823
L63342 49793
L63357 49778
L63387 49763
L63432 49763
L63462 49778
L63477 49793
L63492 49823
L63492 49943
" />
<path d="M63477 49523
L63492 49478
L63507 49463
L63537 49448
L63582 49448
L63612 49463
L63627 49478
L63642 49508
L63642 49628
L63327 49628
L63327 49523
L63342 49493
L63357 49478
L63387 49463
L63417 49463
L63447 49478
L63462 49493
L63477 49523
L63477 49628
" />
<path d="M63642 49148
L63642 49328
" />
<path d="M63642 49238
L63327 49238
L63372 49268
L63402 49298
L63417 49328
" />
<path d="M63432 48878
L63642 48878
" />
<path d="M63312 48953
L63537 49028
L63537 48833
" />
<g transform="rotate(-90 62500 48750)">
<text x="62500" y="48907.5"
textLength="1306.62" font-size="419.947" lengthAdjust="spacingAndGlyphs"
text-anchor="end" opacity="0">PB12</text>
</g>
<path d="M62642 49943
L62327 49943
L62327 49823
L62342 49793
L62357 49778
L62387 49763
L62432 49763
L62462 49778
L62477 49793
L62492 49823
L62492 49943
" />
<path d="M62477 49523
L62492 49478
L62507 49463
L62537 49448
L62582 49448
L62612 49463
L62627 49478
L62642 49508
L62642 49628
L62327 49628
L62327 49523
L62342 49493
L62357 49478
L62387 49463
L62417 49463
L62447 49478
L62462 49493
L62477 49523
L62477 49628
" />
<path d="M62642 49148
L62642 49328
" />
<path d="M62642 49238
L62327 49238
L62372 49268
L62402 49298
L62417 49328
" />
<path d="M62357 49028
L62342 49013
L62327 48983
L62327 48908
L62342 48878
L62357 48863
L62387 48848
L62417 48848
L62462 48863
L62642 49043
L62642 48848
" />
<g transform="rotate(-90 61500 48750)">
<text x="61500" y="48907.5"
textLength="1306.62" font-size="419.947" lengthAdjust="spacingAndGlyphs"
text-anchor="end" opacity="0">PB10</text>
</g>
<path d="M61642 49943
L61327 49943
L61327 49823
L61342 49793
L61357 49778
L61387 49763
L61432 49763
L61462 49778
L61477 49793
L61492 49823
L61492 49943
" />
<path d="M61477 49523
L61492 49478
L61507 49463
L61537 49448
L61582 49448
L61612 49463
L61627 49478
L61642 49508
L61642 49628
L61327 49628
L61327 49523
L61342 49493
L61357 49478
L61387 49463
L61417 49463
L61447 49478
L61462 49493
L61477 49523
L61477 49628
" />
<path d="M61642 49148
L61642 49328
" />
<path d="M61642 49238
L61327 49238
L61372 49268
L61402 49298
L61417 49328
" />
<path d="M61327 48953
L61327 48923
L61342 48893
L61357 48878
L61387 48863
L61447 48848
L61522 48848
L61582 48863
L61612 48878
L61627 48893
L61642 48923
L61642 48953
L61627 48983
L61612 48998
L61582 49013
L61522 49028
L61447 49028
L61387 49013
L61357 48998
L61342 48983
L61327 48953
" />
<g transform="rotate(-90 60500 48750)">
<text x="60500" y="48907.5"
textLength="1006.66" font-size="419.947" lengthAdjust="spacingAndGlyphs"
text-anchor="end" opacity="0">PB2</text>
</g>
<path d="M60642 49643
L60327 49643
L60327 49523
L60342 49493
L60357 49478
L60387 49463
L60432 49463
L60462 49478
L60477 49493
L60492 49523
L60492 49643
" />
<path d="M60477 49223
L60492 49178
L60507 49163
L60537 49148
L60582 49148
L60612 49163
L60627 49178
L60642 49208
L60642 49328
L60327 49328
L60327 49223
L60342 49193
L60357 49178
L60387 49163
L60417 49163
L60447 49178
L60462 49193
L60477 49223
L60477 49328
" />
<path d="M60357 49028
L60342 49013
L60327 48983
L60327 48908
L60342 48878
L60357 48863
L60387 48848
L60417 48848
L60462 48863
L60642 49043
L60642 48848
" />
<g transform="rotate(-90 59500 48750)">
<text x="59500" y="48907.5"
textLength="1006.66" font-size="419.947" lengthAdjust="spacingAndGlyphs"
text-anchor="end" opacity="0">PB0</text>
</g>
<path d="M59642 49643
L59327 49643
L59327 49523
L59342 49493
L59357 49478
L59387 49463
L59432 49463
L59462 49478
L59477 49493
L59492 49523
L59492 49643
" />
<path d="M59477 49223
L59492 49178
L59507 49163
L59537 49148
L59582 49148
L59612 49163
L59627 49178
L59642 49208
L59642 49328
L59327 49328
L59327 49223
L59342 49193
L59357 49178
L59387 49163
L59417 49163
L59447 49178
L59462 49193
L59477 49223
L59477 49328
" />
<path d="M59327 48953
L59327 48923
L59342 48893
L59357 48878
L59387 48863
L59447 48848
L59522 48848
L59582 48863
L59612 48878
L59627 48893
L59642 48923
L59642 48953
L59627 48983
L59612 48998
L59582 49013
L59522 49028
L59447 49028
L59387 49013
L59357 48998
L59342 48983
L59327 48953
" />
<g transform="rotate(-90 58500 48750)">
<text x="58500" y="48907.5"
textLength="1006.66" font-size="419.947" lengthAdjust="spacingAndGlyphs"
text-anchor="end" opacity="0">PC4</text>
</g>
<path d="M58642 49643
L58327 49643
L58327 49523
L58342 49493
L58357 49478
L58387 49463
L58432 49463
L58462 49478
L58477 49493
L58492 49523
L58492 49643
" />
<path d="M58612 49148
L58627 49163
L58642 49208
L58642 49238
L58627 49283
L58597 49313
L58567 49328
L58507 49343
L58462 49343
L58402 49328
L58372 49313
L58342 49283
L58327 49238
L58327 49208
L58342 49163
L58357 49148
" />
<path d="M58432 48878
L58642 48878
" />
<path d="M58312 48953
L58537 49028
L58537 48833
" />
<g transform="rotate(-90 57500 48750)">
<text x="57500" y="48907.5"
textLength="961.661" font-size="419.947" lengthAdjust="spacingAndGlyphs"
text-anchor="end" opacity="0">PA6</text>
</g>
<path d="M57642 49598
L57327 49598
L57327 49478
L57342 49448
L57357 49433
L57387 49418
L57432 49418
L57462 49433
L57477 49448
L57492 49478
L57492 49598
" />
<path d="M57552 49298
L57552 49148
" />
<path d="M57642 49328
L57327 49223
L57642 49118
" />
<path d="M57327 48878
L57327 48938
L57342 48968
L57357 48983
L57402 49013
L57462 49028
L57582 49028
L57612 49013
L57627 48998
L57642 48968
L57642 48908
L57627 48878
L57612 48863
L57582 48848
L57507 48848
L57477 48863
L57462 48878
L57447 48908
L57447 48968
L57462 48998
L57477 49013
L57507 49028
" />
<g transform="rotate(-90 56500 48750)">
<text x="56500" y="48907.5"
textLength="961.661" font-size="419.947" lengthAdjust="spacingAndGlyphs"
text-anchor="end" opacity="0">PA4</text>
</g>
<path d="M56642 49598
L56327 49598
L56327 49478
L56342 49448
L56357 49433
L56387 49418
L56432 49418
L56462 49433
L56477 49448
L56492 49478
L56492 49598
" />
<path d="M56552 49298
L56552 49148
" />
<path d="M56642 49328
L56327 49223
L56642 49118
" />
<path d="M56432 48878
L56642 48878
" />
<path d="M56312 48953
L56537 49028
L56537 48833
" />
<g transform="rotate(-90 55500 48750)">
<text x="55500" y="48907.5"
textLength="961.661" font-size="419.947" lengthAdjust="spacingAndGlyphs"
text-anchor="end" opacity="0">PA2</text>
</g>
<path d="M55642 49598
L55327 49598
L55327 49478
L55342 49448
L55357 49433
L55387 49418
L55432 49418
L55462 49433
L55477 49448
L55492 49478
L55492 49598
" />
<path d="M55552 49298
L55552 49148
" />
<path d="M55642 49328
L55327 49223
L55642 49118
" />
<path d="M55357 49028
L55342 49013
L55327 48983
L55327 48908
L55342 48878
L55357 48863
L55387 48848
L55417 48848
L55462 48863
L55642 49043
L55642 48848
" />
<g transform="rotate(-90 54500 48750)">
<text x="54500" y="48907.5"
textLength="961.661" font-size="419.947" lengthAdjust="spacingAndGlyphs"
text-anchor="end" opacity="0">PA0</text>
</g>
<path d="M54642 49598
L54327 49598
L54327 49478
L54342 49448
L54357 49433
L54387 49418
L54432 49418
L54462 49433
L54477 49448
L54492 49478
L54492 49598
" />
<path d="M54552 49298
L54552 49148
" />
<path d="M54642 49328
L54327 49223
L54642 49118
" />
<path d="M54327 48953
L54327 48923
L54342 48893
L54357 48878
L54387 48863
L54447 48848
L54522 48848
L54582 48863
L54612 48878
L54627 48893
L54642 48923
L54642 48953
L54627 48983
L54612 48998
L54582 49013
L54522 49028
L54447 49028
L54387 49013
L54357 48998
L54342 48983
L54327 48953
" />
<g transform="rotate(-90 53500 48750)">
<text x="53500" y="48907.5"
textLength="1006.66" font-size="419.947" lengthAdjust="spacingAndGlyphs"
text-anchor="end" opacity="0">PC2</text>
</g>
<path d="M53642 49643
L53327 49643
L53327 49523
L53342 49493
L53357 49478
L53387 49463
L53432 49463
L53462 49478
L53477 49493
L53492 49523
L53492 49643
" />
<path d="M53612 49148
L53627 49163
L53642 49208
L53642 49238
L53627 49283
L53597 49313
L53567 49328
L53507 49343
L53462 49343
L53402 49328
L53372 49313
L53342 49283
L53327 49238
L53327 49208
L53342 49163
L53357 49148
" />
<path d="M53357 49028
L53342 49013
L53327 48983
L53327 48908
L53342 48878
L53357 48863
L53387 48848
L53417 48848
L53462 48863
L53642 49043
L53642 48848
" />
<g transform="rotate(-90 52500 48750)">
<text x="52500" y="48907.5"
textLength="1006.66" font-size="419.947" lengthAdjust="spacingAndGlyphs"
text-anchor="end" opacity="0">PC0</text>
</g>
<path d="M52642 49643
L52327 49643
L52327 49523
L52342 49493
L52357 49478
L52387 49463
L52432 49463
L52462 49478
L52477 49493
L52492 49523
L52492 49643
" />
<path d="M52612 49148
L52627 49163
L52642 49208
L52642 49238
L52627 49283
L52597 49313
L52567 49328
L52507 49343
L52462 49343
L52402 49328
L52372 49313
L52342 49283
L52327 49238
L52327 49208
L52342 49163
L52357 49148
" />
<path d="M52327 48953
L52327 48923
L52342 48893
L52357 48878
L52387 48863
L52447 48848
L52522 48848
L52582 48863
L52612 48878
L52627 48893
L52642 48923
L52642 48953
L52627 48983
L52612 48998
L52582 49013
L52522 49028
L52447 49028
L52387 49013
L52357 48998
L52342 48983
L52327 48953
" />
<g transform="rotate(-90 51500 48750)">
<text x="51500" y="48907.5"
textLength="1021.65" font-size="419.947" lengthAdjust="spacingAndGlyphs"
text-anchor="end" opacity="0">BO0</text>
</g>
<path d="M51477 49553
L51492 49508
L51507 49493
L51537 49478
L51582 49478
L51612 49493
L51627 49508
L51642 49538
L51642 49658
L51327 49658
L51327 49553
L51342 49523
L51357 49508
L51387 49493
L51417 49493
L51447 49508
L51462 49523
L51477 49553
L51477 49658
" />
<path d="M51327 49283
L51327 49223
L51342 49193
L51372 49163
L51432 49148
L51537 49148
L51597 49163
L51627 49193
L51642 49223
L51642 49283
L51627 49313
L51597 49343
L51537 49358
L51432 49358
L51372 49343
L51342 49313
L51327 49283
" />
<path d="M51327 48953
L51327 48923
L51342 48893
L51357 48878
L51387 48863
L51447 48848
L51522 48848
L51582 48863
L51612 48878
L51627 48893
L51642 48923
L51642 48953
L51627 48983
L51612 48998
L51582 49013
L51522 49028
L51447 49028
L51387 49013
L51357 48998
L51342 48983
L51327 48953
" />
<g transform="rotate(-90 50500 46500)">
<text x="50500" y="46657.5"
textLength="1036.65" font-size="419.947" lengthAdjust="spacingAndGlyphs"
text-anchor="start" opacity="0">GND</text>
</g>
<path d="M50342 46221
L50327 46251
L50327 46296
L50342 46341
L50372 46371
L50402 46386
L50462 46401
L50507 46401
L50567 46386
L50597 46371
L50627 46341
L50642 46296
L50642 46266
L50627 46221
L50612 46206
L50507 46206
L50507 46266
" />
<path d="M50642 46071
L50327 46071
L50642 45891
L50327 45891
" />
<path d="M50642 45741
L50327 45741
L50327 45666
L50342 45621
L50372 45591
L50402 45576
L50462 45561
L50507 45561
L50567 45576
L50597 45591
L50627 45621
L50642 45666
L50642 45741
" />
<g transform="rotate(-90 50500 48750)">
<text x="50500" y="48907.5"
textLength="1096.64" font-size="419.947" lengthAdjust="spacingAndGlyphs"
text-anchor="end" opacity="0">3.3V</text>
</g>
<path d="M50327 49763
L50327 49568
L50447 49673
L50447 49628
L50462 49598
L50477 49583
L50507 49568
L50582 49568
L50612 49583
L50627 49598
L50642 49628
L50642 49718
L50627 49748
L50612 49763
" />
<path d="M50612 49433
L50627 49418
L50642 49433
L50627 49448
L50612 49433
L50642 49433
" />
<path d="M50327 49313
L50327 49118
L50447 49223
L50447 49178
L50462 49148
L50477 49133
L50507 49118
L50582 49118
L50612 49133
L50627 49148
L50642 49178
L50642 49268
L50627 49298
L50612 49313
" />
<path d="M50327 49028
L50642 48923
L50327 48818
" />
<g >
</g>
</g> 
</svg>
