<?xml version="1.0" standalone="no"?>
 <!DOCTYPE svg PUBLIC "-//W3C//DTD SVG 1.1//EN" 
 "http://www.w3.org/Graphics/SVG/1.1/DTD/svg11.dtd"> 
<svg
  xmlns:svg="http://www.w3.org/2000/svg"
  xmlns="http://www.w3.org/2000/svg"
  xmlns:xlink="http://www.w3.org/1999/xlink"
  version="1.1"
  width="29.700220cm" height="21.000720cm" viewBox="0 0 116930 82680">
<title>SVG Picture created as blank-B_SilkS.svg date 2021/07/16 11:13:18 </title>
  <desc>Picture generated by PCBNEW </desc>
<g style="fill:#000000; fill-opacity:1;stroke:#000000; stroke-opacity:1;
stroke-linecap:round; stroke-linejoin:round;"
 transform="translate(0 0) scale(1 1)">
</g>
<g style="fill:#000000; fill-opacity:0.0; 
stroke:#000000; stroke-width:-0.000393701; stroke-opacity:1; 
stroke-linecap:round; stroke-linejoin:round;">
</g>
<g style="fill:#000000; fill-opacity:0.0; 
stroke:#000000; stroke-width:59.0551; stroke-opacity:1; 
stroke-linecap:round; stroke-linejoin:round;">
<g transform="rotate(-90 69500 48750)">
<text x="69500" y="48907.5"
transform="scale(-1 1) translate(-139000.000000 0)"
textLength="493.157" font-size="419.947" lengthAdjust="spacingAndGlyphs"
text-anchor="start" opacity="0">5V</text>
</g>
<path d="M69327 49013
L69327 48863
L69477 48848
L69462 48863
L69447 48893
L69447 48968
L69462 48998
L69477 49013
L69507 49028
L69582 49028
L69612 49013
L69627 48998
L69642 48968
L69642 48893
L69627 48863
L69612 48848
" />
<path d="M69327 49118
L69642 49223
L69327 49328
" />
<g transform="rotate(-90 68500 48750)">
<text x="68500" y="48907.5"
transform="scale(-1 1) translate(-137000.000000 0)"
textLength="943.101" font-size="419.947" lengthAdjust="spacingAndGlyphs"
text-anchor="start" opacity="0">3.3V</text>
</g>
<path d="M68327 48833
L68327 49028
L68447 48923
L68447 48968
L68462 48998
L68477 49013
L68507 49028
L68582 49028
L68612 49013
L68627 48998
L68642 48968
L68642 48878
L68627 48848
L68612 48833
" />
<path d="M68612 49163
L68627 49178
L68642 49163
L68627 49148
L68612 49163
L68642 49163
" />
<path d="M68327 49283
L68327 49478
L68447 49373
L68447 49418
L68462 49448
L68477 49463
L68507 49478
L68582 49478
L68612 49463
L68627 49448
L68642 49418
L68642 49328
L68627 49298
L68612 49283
" />
<path d="M68327 49568
L68642 49673
L68327 49778
" />
<g transform="rotate(-90 67500 48750)">
<text x="67500" y="48907.5"
transform="scale(-1 1) translate(-135000.000000 0)"
textLength="553.15" font-size="419.947" lengthAdjust="spacingAndGlyphs"
text-anchor="start" opacity="0">U3</text>
</g>
<path d="M67327 48863
L67582 48863
L67612 48878
L67627 48893
L67642 48923
L67642 48983
L67627 49013
L67612 49028
L67582 49043
L67327 49043
" />
<path d="M67327 49163
L67327 49358
L67447 49253
L67447 49298
L67462 49328
L67477 49343
L67507 49358
L67582 49358
L67612 49343
L67627 49328
L67642 49298
L67642 49208
L67627 49178
L67612 49163
" />
<g transform="rotate(-90 66500 48750)">
<text x="66500" y="48907.5"
transform="scale(-1 1) translate(-133000.000000 0)"
textLength="553.15" font-size="419.947" lengthAdjust="spacingAndGlyphs"
text-anchor="start" opacity="0">U1</text>
</g>
<path d="M66327 48863
L66582 48863
L66612 48878
L66627 48893
L66642 48923
L66642 48983
L66627 49013
L66612 49028
L66582 49043
L66327 49043
" />
<path d="M66642 49358
L66642 49178
" />
<path d="M66642 49268
L66327 49268
L66372 49238
L66402 49208
L66417 49178
" />
<g transform="rotate(-90 65500 48750)">
<text x="65500" y="48907.5"
transform="scale(-1 1) translate(-131000.000000 0)"
textLength="853.112" font-size="419.947" lengthAdjust="spacingAndGlyphs"
text-anchor="start" opacity="0">PC8</text>
</g>
<path d="M65642 48863
L65327 48863
L65327 48983
L65342 49013
L65357 49028
L65387 49043
L65432 49043
L65462 49028
L65477 49013
L65492 48983
L65492 48863
" />
<path d="M65612 49358
L65627 49343
L65642 49298
L65642 49268
L65627 49223
L65597 49193
L65567 49178
L65507 49163
L65462 49163
L65402 49178
L65372 49193
L65342 49223
L65327 49268
L65327 49298
L65342 49343
L65357 49358
" />
<path d="M65462 49538
L65447 49508
L65432 49493
L65402 49478
L65387 49478
L65357 49493
L65342 49508
L65327 49538
L65327 49598
L65342 49628
L65357 49643
L65387 49658
L65402 49658
L65432 49643
L65447 49628
L65462 49598
L65462 49538
L65477 49508
L65492 49493
L65522 49478
L65582 49478
L65612 49493
L65627 49508
L65642 49538
L65642 49598
L65627 49628
L65612 49643
L65582 49658
L65522 49658
L65492 49643
L65477 49628
L65462 49598
" />
<g transform="rotate(-90 64500 48750)">
<text x="64500" y="48907.5"
transform="scale(-1 1) translate(-129000.000000 0)"
textLength="853.112" font-size="419.947" lengthAdjust="spacingAndGlyphs"
text-anchor="start" opacity="0">PC6</text>
</g>
<path d="M64642 48863
L64327 48863
L64327 48983
L64342 49013
L64357 49028
L64387 49043
L64432 49043
L64462 49028
L64477 49013
L64492 48983
L64492 48863
" />
<path d="M64612 49358
L64627 49343
L64642 49298
L64642 49268
L64627 49223
L64597 49193
L64567 49178
L64507 49163
L64462 49163
L64402 49178
L64372 49193
L64342 49223
L64327 49268
L64327 49298
L64342 49343
L64357 49358
" />
<path d="M64327 49628
L64327 49568
L64342 49538
L64357 49523
L64402 49493
L64462 49478
L64582 49478
L64612 49493
L64627 49508
L64642 49538
L64642 49598
L64627 49628
L64612 49643
L64582 49658
L64507 49658
L64477 49643
L64462 49628
L64447 49598
L64447 49538
L64462 49508
L64477 49493
L64507 49478
" />
<g transform="rotate(-90 63500 48750)">
<text x="63500" y="48907.5"
transform="scale(-1 1) translate(-127000.000000 0)"
textLength="1153.07" font-size="419.947" lengthAdjust="spacingAndGlyphs"
text-anchor="start" opacity="0">PB14</text>
</g>
<path d="M63642 48863
L63327 48863
L63327 48983
L63342 49013
L63357 49028
L63387 49043
L63432 49043
L63462 49028
L63477 49013
L63492 48983
L63492 48863
" />
<path d="M63477 49283
L63492 49328
L63507 49343
L63537 49358
L63582 49358
L63612 49343
L63627 49328
L63642 49298
L63642 49178
L63327 49178
L63327 49283
L63342 49313
L63357 49328
L63387 49343
L63417 49343
L63447 49328
L63462 49313
L63477 49283
L63477 49178
" />
<path d="M63642 49658
L63642 49478
" />
<path d="M63642 49568
L63327 49568
L63372 49538
L63402 49508
L63417 49478
" />
<path d="M63432 49928
L63642 49928
" />
<path d="M63312 49853
L63537 49778
L63537 49973
" />
<g transform="rotate(-90 62500 48750)">
<text x="62500" y="48907.5"
transform="scale(-1 1) translate(-125000.000000 0)"
textLength="1153.07" font-size="419.947" lengthAdjust="spacingAndGlyphs"
text-anchor="start" opacity="0">PB12</text>
</g>
<path d="M62642 48863
L62327 48863
L62327 48983
L62342 49013
L62357 49028
L62387 49043
L62432 49043
L62462 49028
L62477 49013
L62492 48983
L62492 48863
" />
<path d="M62477 49283
L62492 49328
L62507 49343
L62537 49358
L62582 49358
L62612 49343
L62627 49328
L62642 49298
L62642 49178
L62327 49178
L62327 49283
L62342 49313
L62357 49328
L62387 49343
L62417 49343
L62447 49328
L62462 49313
L62477 49283
L62477 49178
" />
<path d="M62642 49658
L62642 49478
" />
<path d="M62642 49568
L62327 49568
L62372 49538
L62402 49508
L62417 49478
" />
<path d="M62357 49778
L62342 49793
L62327 49823
L62327 49898
L62342 49928
L62357 49943
L62387 49958
L62417 49958
L62462 49943
L62642 49763
L62642 49958
" />
<g transform="rotate(-90 61500 48750)">
<text x="61500" y="48907.5"
transform="scale(-1 1) translate(-123000.000000 0)"
textLength="1153.07" font-size="419.947" lengthAdjust="spacingAndGlyphs"
text-anchor="start" opacity="0">PB10</text>
</g>
<path d="M61642 48863
L61327 48863
L61327 48983
L61342 49013
L61357 49028
L61387 49043
L61432 49043
L61462 49028
L61477 49013
L61492 48983
L61492 48863
" />
<path d="M61477 49283
L61492 49328
L61507 49343
L61537 49358
L61582 49358
L61612 49343
L61627 49328
L61642 49298
L61642 49178
L61327 49178
L61327 49283
L61342 49313
L61357 49328
L61387 49343
L61417 49343
L61447 49328
L61462 49313
L61477 49283
L61477 49178
" />
<path d="M61642 49658
L61642 49478
" />
<path d="M61642 49568
L61327 49568
L61372 49538
L61402 49508
L61417 49478
" />
<path d="M61327 49853
L61327 49883
L61342 49913
L61357 49928
L61387 49943
L61447 49958
L61522 49958
L61582 49943
L61612 49928
L61627 49913
L61642 49883
L61642 49853
L61627 49823
L61612 49808
L61582 49793
L61522 49778
L61447 49778
L61387 49793
L61357 49808
L61342 49823
L61327 49853
" />
<g transform="rotate(-90 60500 48750)">
<text x="60500" y="48907.5"
transform="scale(-1 1) translate(-121000.000000 0)"
textLength="853.112" font-size="419.947" lengthAdjust="spacingAndGlyphs"
text-anchor="start" opacity="0">PB2</text>
</g>
<path d="M60642 48863
L60327 48863
L60327 48983
L60342 49013
L60357 49028
L60387 49043
L60432 49043
L60462 49028
L60477 49013
L60492 48983
L60492 48863
" />
<path d="M60477 49283
L60492 49328
L60507 49343
L60537 49358
L60582 49358
L60612 49343
L60627 49328
L60642 49298
L60642 49178
L60327 49178
L60327 49283
L60342 49313
L60357 49328
L60387 49343
L60417 49343
L60447 49328
L60462 49313
L60477 49283
L60477 49178
" />
<path d="M60357 49478
L60342 49493
L60327 49523
L60327 49598
L60342 49628
L60357 49643
L60387 49658
L60417 49658
L60462 49643
L60642 49463
L60642 49658
" />
<g transform="rotate(-90 59500 48750)">
<text x="59500" y="48907.5"
transform="scale(-1 1) translate(-119000.000000 0)"
textLength="853.112" font-size="419.947" lengthAdjust="spacingAndGlyphs"
text-anchor="start" opacity="0">PB0</text>
</g>
<path d="M59642 48863
L59327 48863
L59327 48983
L59342 49013
L59357 49028
L59387 49043
L59432 49043
L59462 49028
L59477 49013
L59492 48983
L59492 48863
" />
<path d="M59477 49283
L59492 49328
L59507 49343
L59537 49358
L59582 49358
L59612 49343
L59627 49328
L59642 49298
L59642 49178
L59327 49178
L59327 49283
L59342 49313
L59357 49328
L59387 49343
L59417 49343
L59447 49328
L59462 49313
L59477 49283
L59477 49178
" />
<path d="M59327 49553
L59327 49583
L59342 49613
L59357 49628
L59387 49643
L59447 49658
L59522 49658
L59582 49643
L59612 49628
L59627 49613
L59642 49583
L59642 49553
L59627 49523
L59612 49508
L59582 49493
L59522 49478
L59447 49478
L59387 49493
L59357 49508
L59342 49523
L59327 49553
" />
<g transform="rotate(-90 58500 48750)">
<text x="58500" y="48907.5"
transform="scale(-1 1) translate(-117000.000000 0)"
textLength="853.112" font-size="419.947" lengthAdjust="spacingAndGlyphs"
text-anchor="start" opacity="0">PC4</text>
</g>
<path d="M58642 48863
L58327 48863
L58327 48983
L58342 49013
L58357 49028
L58387 49043
L58432 49043
L58462 49028
L58477 49013
L58492 48983
L58492 48863
" />
<path d="M58612 49358
L58627 49343
L58642 49298
L58642 49268
L58627 49223
L58597 49193
L58567 49178
L58507 49163
L58462 49163
L58402 49178
L58372 49193
L58342 49223
L58327 49268
L58327 49298
L58342 49343
L58357 49358
" />
<path d="M58432 49628
L58642 49628
" />
<path d="M58312 49553
L58537 49478
L58537 49673
" />
<g transform="rotate(-90 57500 48750)">
<text x="57500" y="48907.5"
transform="scale(-1 1) translate(-115000.000000 0)"
textLength="808.118" font-size="419.947" lengthAdjust="spacingAndGlyphs"
text-anchor="start" opacity="0">PA6</text>
</g>
<path d="M57642 48863
L57327 48863
L57327 48983
L57342 49013
L57357 49028
L57387 49043
L57432 49043
L57462 49028
L57477 49013
L57492 48983
L57492 48863
" />
<path d="M57552 49163
L57552 49313
" />
<path d="M57642 49133
L57327 49238
L57642 49343
" />
<path d="M57327 49583
L57327 49523
L57342 49493
L57357 49478
L57402 49448
L57462 49433
L57582 49433
L57612 49448
L57627 49463
L57642 49493
L57642 49553
L57627 49583
L57612 49598
L57582 49613
L57507 49613
L57477 49598
L57462 49583
L57447 49553
L57447 49493
L57462 49463
L57477 49448
L57507 49433
" />
<g transform="rotate(-90 56500 48750)">
<text x="56500" y="48907.5"
transform="scale(-1 1) translate(-113000.000000 0)"
textLength="808.118" font-size="419.947" lengthAdjust="spacingAndGlyphs"
text-anchor="start" opacity="0">PA4</text>
</g>
<path d="M56642 48863
L56327 48863
L56327 48983
L56342 49013
L56357 49028
L56387 49043
L56432 49043
L56462 49028
L56477 49013
L56492 48983
L56492 48863
" />
<path d="M56552 49163
L56552 49313
" />
<path d="M56642 49133
L56327 49238
L56642 49343
" />
<path d="M56432 49583
L56642 49583
" />
<path d="M56312 49508
L56537 49433
L56537 49628
" />
<g transform="rotate(-90 55500 48750)">
<text x="55500" y="48907.5"
transform="scale(-1 1) translate(-111000.000000 0)"
textLength="808.118" font-size="419.947" lengthAdjust="spacingAndGlyphs"
text-anchor="start" opacity="0">PA2</text>
</g>
<path d="M55642 48863
L55327 48863
L55327 48983
L55342 49013
L55357 49028
L55387 49043
L55432 49043
L55462 49028
L55477 49013
L55492 48983
L55492 48863
" />
<path d="M55552 49163
L55552 49313
" />
<path d="M55642 49133
L55327 49238
L55642 49343
" />
<path d="M55357 49433
L55342 49448
L55327 49478
L55327 49553
L55342 49583
L55357 49598
L55387 49613
L55417 49613
L55462 49598
L55642 49418
L55642 49613
" />
<g transform="rotate(-90 54500 48750)">
<text x="54500" y="48907.5"
transform="scale(-1 1) translate(-109000.000000 0)"
textLength="808.118" font-size="419.947" lengthAdjust="spacingAndGlyphs"
text-anchor="start" opacity="0">PA0</text>
</g>
<path d="M54642 48863
L54327 48863
L54327 48983
L54342 49013
L54357 49028
L54387 49043
L54432 49043
L54462 49028
L54477 49013
L54492 48983
L54492 48863
" />
<path d="M54552 49163
L54552 49313
" />
<path d="M54642 49133
L54327 49238
L54642 49343
" />
<path d="M54327 49508
L54327 49538
L54342 49568
L54357 49583
L54387 49598
L54447 49613
L54522 49613
L54582 49598
L54612 49583
L54627 49568
L54642 49538
L54642 49508
L54627 49478
L54612 49463
L54582 49448
L54522 49433
L54447 49433
L54387 49448
L54357 49463
L54342 49478
L54327 49508
" />
<g transform="rotate(-90 53500 48750)">
<text x="53500" y="48907.5"
transform="scale(-1 1) translate(-107000.000000 0)"
textLength="853.112" font-size="419.947" lengthAdjust="spacingAndGlyphs"
text-anchor="start" opacity="0">PC2</text>
</g>
<path d="M53642 48863
L53327 48863
L53327 48983
L53342 49013
L53357 49028
L53387 49043
L53432 49043
L53462 49028
L53477 49013
L53492 48983
L53492 48863
" />
<path d="M53612 49358
L53627 49343
L53642 49298
L53642 49268
L53627 49223
L53597 49193
L53567 49178
L53507 49163
L53462 49163
L53402 49178
L53372 49193
L53342 49223
L53327 49268
L53327 49298
L53342 49343
L53357 49358
" />
<path d="M53357 49478
L53342 49493
L53327 49523
L53327 49598
L53342 49628
L53357 49643
L53387 49658
L53417 49658
L53462 49643
L53642 49463
L53642 49658
" />
<g transform="rotate(-90 52500 48750)">
<text x="52500" y="48907.5"
transform="scale(-1 1) translate(-105000.000000 0)"
textLength="853.112" font-size="419.947" lengthAdjust="spacingAndGlyphs"
text-anchor="start" opacity="0">PC0</text>
</g>
<path d="M52642 48863
L52327 48863
L52327 48983
L52342 49013
L52357 49028
L52387 49043
L52432 49043
L52462 49028
L52477 49013
L52492 48983
L52492 48863
" />
<path d="M52612 49358
L52627 49343
L52642 49298
L52642 49268
L52627 49223
L52597 49193
L52567 49178
L52507 49163
L52462 49163
L52402 49178
L52372 49193
L52342 49223
L52327 49268
L52327 49298
L52342 49343
L52357 49358
" />
<path d="M52327 49553
L52327 49583
L52342 49613
L52357 49628
L52387 49643
L52447 49658
L52522 49658
L52582 49643
L52612 49628
L52627 49613
L52642 49583
L52642 49553
L52627 49523
L52612 49508
L52582 49493
L52522 49478
L52447 49478
L52387 49493
L52357 49508
L52342 49523
L52327 49553
" />
<g transform="rotate(-90 51500 48750)">
<text x="51500" y="48907.5"
transform="scale(-1 1) translate(-103000.000000 0)"
textLength="868.11" font-size="419.947" lengthAdjust="spacingAndGlyphs"
text-anchor="start" opacity="0">BO0</text>
</g>
<path d="M51477 48968
L51492 49013
L51507 49028
L51537 49043
L51582 49043
L51612 49028
L51627 49013
L51642 48983
L51642 48863
L51327 48863
L51327 48968
L51342 48998
L51357 49013
L51387 49028
L51417 49028
L51447 49013
L51462 48998
L51477 48968
L51477 48863
" />
<path d="M51327 49238
L51327 49298
L51342 49328
L51372 49358
L51432 49373
L51537 49373
L51597 49358
L51627 49328
L51642 49298
L51642 49238
L51627 49208
L51597 49178
L51537 49163
L51432 49163
L51372 49178
L51342 49208
L51327 49238
" />
<path d="M51327 49568
L51327 49598
L51342 49628
L51357 49643
L51387 49658
L51447 49673
L51522 49673
L51582 49658
L51612 49643
L51627 49628
L51642 49598
L51642 49568
L51627 49538
L51612 49523
L51582 49508
L51522 49493
L51447 49493
L51387 49508
L51357 49523
L51342 49538
L51327 49568
" />
<g transform="rotate(-90 50500 48750)">
<text x="50500" y="48907.5"
transform="scale(-1 1) translate(-101000.000000 0)"
textLength="943.101" font-size="419.947" lengthAdjust="spacingAndGlyphs"
text-anchor="start" opacity="0">3.3V</text>
</g>
<path d="M50327 48833
L50327 49028
L50447 48923
L50447 48968
L50462 48998
L50477 49013
L50507 49028
L50582 49028
L50612 49013
L50627 48998
L50642 48968
L50642 48878
L50627 48848
L50612 48833
" />
<path d="M50612 49163
L50627 49178
L50642 49163
L50627 49148
L50612 49163
L50642 49163
" />
<path d="M50327 49283
L50327 49478
L50447 49373
L50447 49418
L50462 49448
L50477 49463
L50507 49478
L50582 49478
L50612 49463
L50627 49448
L50642 49418
L50642 49328
L50627 49298
L50612 49283
" />
<path d="M50327 49568
L50642 49673
L50327 49778
" />
<g transform="rotate(-90 69500 46500)">
<text x="69500" y="46657.5"
transform="scale(-1 1) translate(-139000.000000 0)"
textLength="883.108" font-size="419.947" lengthAdjust="spacingAndGlyphs"
text-anchor="end" opacity="0">GND</text>
</g>
<path d="M69342 45741
L69327 45711
L69327 45666
L69342 45621
L69372 45591
L69402 45576
L69462 45561
L69507 45561
L69567 45576
L69597 45591
L69627 45621
L69642 45666
L69642 45696
L69627 45741
L69612 45756
L69507 45756
L69507 45696
" />
<path d="M69642 45891
L69327 45891
L69642 46071
L69327 46071
" />
<path d="M69642 46221
L69327 46221
L69327 46296
L69342 46341
L69372 46371
L69402 46386
L69462 46401
L69507 46401
L69567 46386
L69597 46371
L69627 46341
L69642 46296
L69642 46221
" />
<g transform="rotate(-90 68500 46500)">
<text x="68500" y="46657.5"
transform="scale(-1 1) translate(-137000.000000 0)"
textLength="883.108" font-size="419.947" lengthAdjust="spacingAndGlyphs"
text-anchor="end" opacity="0">GND</text>
</g>
<path d="M68342 45741
L68327 45711
L68327 45666
L68342 45621
L68372 45591
L68402 45576
L68462 45561
L68507 45561
L68567 45576
L68597 45591
L68627 45621
L68642 45666
L68642 45696
L68627 45741
L68612 45756
L68507 45756
L68507 45696
" />
<path d="M68642 45891
L68327 45891
L68642 46071
L68327 46071
" />
<path d="M68642 46221
L68327 46221
L68327 46296
L68342 46341
L68372 46371
L68402 46386
L68462 46401
L68507 46401
L68567 46386
L68597 46371
L68627 46341
L68642 46296
L68642 46221
" />
<g transform="rotate(-90 67500 46500)">
<text x="67500" y="46657.5"
transform="scale(-1 1) translate(-135000.000000 0)"
textLength="553.15" font-size="419.947" lengthAdjust="spacingAndGlyphs"
text-anchor="end" opacity="0">U4</text>
</g>
<path d="M67327 45906
L67582 45906
L67612 45921
L67627 45936
L67642 45966
L67642 46026
L67627 46056
L67612 46071
L67582 46086
L67327 46086
" />
<path d="M67432 46371
L67642 46371
" />
<path d="M67312 46296
L67537 46221
L67537 46416
" />
<g transform="rotate(-90 66500 46500)">
<text x="66500" y="46657.5"
transform="scale(-1 1) translate(-133000.000000 0)"
textLength="553.15" font-size="419.947" lengthAdjust="spacingAndGlyphs"
text-anchor="end" opacity="0">U2</text>
</g>
<path d="M66327 45906
L66582 45906
L66612 45921
L66627 45936
L66642 45966
L66642 46026
L66627 46056
L66612 46071
L66582 46086
L66327 46086
" />
<path d="M66357 46221
L66342 46236
L66327 46266
L66327 46341
L66342 46371
L66357 46386
L66387 46401
L66417 46401
L66462 46386
L66642 46206
L66642 46401
" />
<g transform="rotate(-90 65500 46500)">
<text x="65500" y="46657.5"
transform="scale(-1 1) translate(-131000.000000 0)"
textLength="853.112" font-size="419.947" lengthAdjust="spacingAndGlyphs"
text-anchor="end" opacity="0">PC9</text>
</g>
<path d="M65642 45606
L65327 45606
L65327 45726
L65342 45756
L65357 45771
L65387 45786
L65432 45786
L65462 45771
L65477 45756
L65492 45726
L65492 45606
" />
<path d="M65612 46101
L65627 46086
L65642 46041
L65642 46011
L65627 45966
L65597 45936
L65567 45921
L65507 45906
L65462 45906
L65402 45921
L65372 45936
L65342 45966
L65327 46011
L65327 46041
L65342 46086
L65357 46101
" />
<path d="M65642 46251
L65642 46311
L65627 46341
L65612 46356
L65567 46386
L65507 46401
L65387 46401
L65357 46386
L65342 46371
L65327 46341
L65327 46281
L65342 46251
L65357 46236
L65387 46221
L65462 46221
L65492 46236
L65507 46251
L65522 46281
L65522 46341
L65507 46371
L65492 46386
L65462 46401
" />
<g transform="rotate(-90 64500 46500)">
<text x="64500" y="46657.5"
transform="scale(-1 1) translate(-129000.000000 0)"
textLength="853.112" font-size="419.947" lengthAdjust="spacingAndGlyphs"
text-anchor="end" opacity="0">PC7</text>
</g>
<path d="M64642 45606
L64327 45606
L64327 45726
L64342 45756
L64357 45771
L64387 45786
L64432 45786
L64462 45771
L64477 45756
L64492 45726
L64492 45606
" />
<path d="M64612 46101
L64627 46086
L64642 46041
L64642 46011
L64627 45966
L64597 45936
L64567 45921
L64507 45906
L64462 45906
L64402 45921
L64372 45936
L64342 45966
L64327 46011
L64327 46041
L64342 46086
L64357 46101
" />
<path d="M64327 46206
L64327 46416
L64642 46281
" />
<g transform="rotate(-90 63500 46500)">
<text x="63500" y="46657.5"
transform="scale(-1 1) translate(-127000.000000 0)"
textLength="1153.07" font-size="419.947" lengthAdjust="spacingAndGlyphs"
text-anchor="end" opacity="0">PB15</text>
</g>
<path d="M63642 45306
L63327 45306
L63327 45426
L63342 45456
L63357 45471
L63387 45486
L63432 45486
L63462 45471
L63477 45456
L63492 45426
L63492 45306
" />
<path d="M63477 45726
L63492 45771
L63507 45786
L63537 45801
L63582 45801
L63612 45786
L63627 45771
L63642 45741
L63642 45621
L63327 45621
L63327 45726
L63342 45756
L63357 45771
L63387 45786
L63417 45786
L63447 45771
L63462 45756
L63477 45726
L63477 45621
" />
<path d="M63642 46101
L63642 45921
" />
<path d="M63642 46011
L63327 46011
L63372 45981
L63402 45951
L63417 45921
" />
<path d="M63327 46386
L63327 46236
L63477 46221
L63462 46236
L63447 46266
L63447 46341
L63462 46371
L63477 46386
L63507 46401
L63582 46401
L63612 46386
L63627 46371
L63642 46341
L63642 46266
L63627 46236
L63612 46221
" />
<g transform="rotate(-90 62500 46500)">
<text x="62500" y="46657.5"
transform="scale(-1 1) translate(-125000.000000 0)"
textLength="1153.07" font-size="419.947" lengthAdjust="spacingAndGlyphs"
text-anchor="end" opacity="0">PB13</text>
</g>
<path d="M62642 45306
L62327 45306
L62327 45426
L62342 45456
L62357 45471
L62387 45486
L62432 45486
L62462 45471
L62477 45456
L62492 45426
L62492 45306
" />
<path d="M62477 45726
L62492 45771
L62507 45786
L62537 45801
L62582 45801
L62612 45786
L62627 45771
L62642 45741
L62642 45621
L62327 45621
L62327 45726
L62342 45756
L62357 45771
L62387 45786
L62417 45786
L62447 45771
L62462 45756
L62477 45726
L62477 45621
" />
<path d="M62642 46101
L62642 45921
" />
<path d="M62642 46011
L62327 46011
L62372 45981
L62402 45951
L62417 45921
" />
<path d="M62327 46206
L62327 46401
L62447 46296
L62447 46341
L62462 46371
L62477 46386
L62507 46401
L62582 46401
L62612 46386
L62627 46371
L62642 46341
L62642 46251
L62627 46221
L62612 46206
" />
<g transform="rotate(-90 61500 46500)">
<text x="61500" y="46657.5"
transform="scale(-1 1) translate(-123000.000000 0)"
textLength="1153.07" font-size="419.947" lengthAdjust="spacingAndGlyphs"
text-anchor="end" opacity="0">PB11</text>
</g>
<path d="M61642 45306
L61327 45306
L61327 45426
L61342 45456
L61357 45471
L61387 45486
L61432 45486
L61462 45471
L61477 45456
L61492 45426
L61492 45306
" />
<path d="M61477 45726
L61492 45771
L61507 45786
L61537 45801
L61582 45801
L61612 45786
L61627 45771
L61642 45741
L61642 45621
L61327 45621
L61327 45726
L61342 45756
L61357 45771
L61387 45786
L61417 45786
L61447 45771
L61462 45756
L61477 45726
L61477 45621
" />
<path d="M61642 46101
L61642 45921
" />
<path d="M61642 46011
L61327 46011
L61372 45981
L61402 45951
L61417 45921
" />
<path d="M61642 46401
L61642 46221
" />
<path d="M61642 46311
L61327 46311
L61372 46281
L61402 46251
L61417 46221
" />
<g transform="rotate(-90 60500 46500)">
<text x="60500" y="46657.5"
transform="scale(-1 1) translate(-121000.000000 0)"
textLength="553.15" font-size="419.947" lengthAdjust="spacingAndGlyphs"
text-anchor="end" opacity="0">U0</text>
</g>
<path d="M60327 45906
L60582 45906
L60612 45921
L60627 45936
L60642 45966
L60642 46026
L60627 46056
L60612 46071
L60582 46086
L60327 46086
" />
<path d="M60327 46296
L60327 46326
L60342 46356
L60357 46371
L60387 46386
L60447 46401
L60522 46401
L60582 46386
L60612 46371
L60627 46356
L60642 46326
L60642 46296
L60627 46266
L60612 46251
L60582 46236
L60522 46221
L60447 46221
L60387 46236
L60357 46251
L60342 46266
L60327 46296
" />
<g transform="rotate(-90 59500 46500)">
<text x="59500" y="46657.5"
transform="scale(-1 1) translate(-119000.000000 0)"
textLength="853.112" font-size="419.947" lengthAdjust="spacingAndGlyphs"
text-anchor="end" opacity="0">PB1</text>
</g>
<path d="M59642 45606
L59327 45606
L59327 45726
L59342 45756
L59357 45771
L59387 45786
L59432 45786
L59462 45771
L59477 45756
L59492 45726
L59492 45606
" />
<path d="M59477 46026
L59492 46071
L59507 46086
L59537 46101
L59582 46101
L59612 46086
L59627 46071
L59642 46041
L59642 45921
L59327 45921
L59327 46026
L59342 46056
L59357 46071
L59387 46086
L59417 46086
L59447 46071
L59462 46056
L59477 46026
L59477 45921
" />
<path d="M59642 46401
L59642 46221
" />
<path d="M59642 46311
L59327 46311
L59372 46281
L59402 46251
L59417 46221
" />
<g transform="rotate(-90 58500 46500)">
<text x="58500" y="46657.5"
transform="scale(-1 1) translate(-117000.000000 0)"
textLength="853.112" font-size="419.947" lengthAdjust="spacingAndGlyphs"
text-anchor="end" opacity="0">PC5</text>
</g>
<path d="M58642 45606
L58327 45606
L58327 45726
L58342 45756
L58357 45771
L58387 45786
L58432 45786
L58462 45771
L58477 45756
L58492 45726
L58492 45606
" />
<path d="M58612 46101
L58627 46086
L58642 46041
L58642 46011
L58627 45966
L58597 45936
L58567 45921
L58507 45906
L58462 45906
L58402 45921
L58372 45936
L58342 45966
L58327 46011
L58327 46041
L58342 46086
L58357 46101
" />
<path d="M58327 46386
L58327 46236
L58477 46221
L58462 46236
L58447 46266
L58447 46341
L58462 46371
L58477 46386
L58507 46401
L58582 46401
L58612 46386
L58627 46371
L58642 46341
L58642 46266
L58627 46236
L58612 46221
" />
<g transform="rotate(-90 57500 46500)">
<text x="57500" y="46657.5"
transform="scale(-1 1) translate(-115000.000000 0)"
textLength="808.118" font-size="419.947" lengthAdjust="spacingAndGlyphs"
text-anchor="end" opacity="0">PA7</text>
</g>
<path d="M57642 45651
L57327 45651
L57327 45771
L57342 45801
L57357 45816
L57387 45831
L57432 45831
L57462 45816
L57477 45801
L57492 45771
L57492 45651
" />
<path d="M57552 45951
L57552 46101
" />
<path d="M57642 45921
L57327 46026
L57642 46131
" />
<path d="M57327 46206
L57327 46416
L57642 46281
" />
<g transform="rotate(-90 56500 46500)">
<text x="56500" y="46657.5"
transform="scale(-1 1) translate(-113000.000000 0)"
textLength="808.118" font-size="419.947" lengthAdjust="spacingAndGlyphs"
text-anchor="end" opacity="0">PA5</text>
</g>
<path d="M56642 45651
L56327 45651
L56327 45771
L56342 45801
L56357 45816
L56387 45831
L56432 45831
L56462 45816
L56477 45801
L56492 45771
L56492 45651
" />
<path d="M56552 45951
L56552 46101
" />
<path d="M56642 45921
L56327 46026
L56642 46131
" />
<path d="M56327 46386
L56327 46236
L56477 46221
L56462 46236
L56447 46266
L56447 46341
L56462 46371
L56477 46386
L56507 46401
L56582 46401
L56612 46386
L56627 46371
L56642 46341
L56642 46266
L56627 46236
L56612 46221
" />
<g transform="rotate(-90 55500 46500)">
<text x="55500" y="46657.5"
transform="scale(-1 1) translate(-111000.000000 0)"
textLength="808.118" font-size="419.947" lengthAdjust="spacingAndGlyphs"
text-anchor="end" opacity="0">PA3</text>
</g>
<path d="M55642 45651
L55327 45651
L55327 45771
L55342 45801
L55357 45816
L55387 45831
L55432 45831
L55462 45816
L55477 45801
L55492 45771
L55492 45651
" />
<path d="M55552 45951
L55552 46101
" />
<path d="M55642 45921
L55327 46026
L55642 46131
" />
<path d="M55327 46206
L55327 46401
L55447 46296
L55447 46341
L55462 46371
L55477 46386
L55507 46401
L55582 46401
L55612 46386
L55627 46371
L55642 46341
L55642 46251
L55627 46221
L55612 46206
" />
<g transform="rotate(-90 54500 46500)">
<text x="54500" y="46657.5"
transform="scale(-1 1) translate(-109000.000000 0)"
textLength="808.118" font-size="419.947" lengthAdjust="spacingAndGlyphs"
text-anchor="end" opacity="0">PA1</text>
</g>
<path d="M54642 45651
L54327 45651
L54327 45771
L54342 45801
L54357 45816
L54387 45831
L54432 45831
L54462 45816
L54477 45801
L54492 45771
L54492 45651
" />
<path d="M54552 45951
L54552 46101
" />
<path d="M54642 45921
L54327 46026
L54642 46131
" />
<path d="M54642 46401
L54642 46221
" />
<path d="M54642 46311
L54327 46311
L54372 46281
L54402 46251
L54417 46221
" />
<g transform="rotate(-90 53500 46500)">
<text x="53500" y="46657.5"
transform="scale(-1 1) translate(-107000.000000 0)"
textLength="853.112" font-size="419.947" lengthAdjust="spacingAndGlyphs"
text-anchor="end" opacity="0">PC3</text>
</g>
<path d="M53642 45606
L53327 45606
L53327 45726
L53342 45756
L53357 45771
L53387 45786
L53432 45786
L53462 45771
L53477 45756
L53492 45726
L53492 45606
" />
<path d="M53612 46101
L53627 46086
L53642 46041
L53642 46011
L53627 45966
L53597 45936
L53567 45921
L53507 45906
L53462 45906
L53402 45921
L53372 45936
L53342 45966
L53327 46011
L53327 46041
L53342 46086
L53357 46101
" />
<path d="M53327 46206
L53327 46401
L53447 46296
L53447 46341
L53462 46371
L53477 46386
L53507 46401
L53582 46401
L53612 46386
L53627 46371
L53642 46341
L53642 46251
L53627 46221
L53612 46206
" />
<g transform="rotate(-90 52500 46500)">
<text x="52500" y="46657.5"
transform="scale(-1 1) translate(-105000.000000 0)"
textLength="853.112" font-size="419.947" lengthAdjust="spacingAndGlyphs"
text-anchor="end" opacity="0">PC1</text>
</g>
<path d="M52642 45606
L52327 45606
L52327 45726
L52342 45756
L52357 45771
L52387 45786
L52432 45786
L52462 45771
L52477 45756
L52492 45726
L52492 45606
" />
<path d="M52612 46101
L52627 46086
L52642 46041
L52642 46011
L52627 45966
L52597 45936
L52567 45921
L52507 45906
L52462 45906
L52402 45921
L52372 45936
L52342 45966
L52327 46011
L52327 46041
L52342 46086
L52357 46101
" />
<path d="M52642 46401
L52642 46221
" />
<path d="M52642 46311
L52327 46311
L52372 46281
L52402 46251
L52417 46221
" />
<g transform="rotate(-90 51500 46500)">
<text x="51500" y="46657.5"
transform="scale(-1 1) translate(-103000.000000 0)"
textLength="1108.08" font-size="419.947" lengthAdjust="spacingAndGlyphs"
text-anchor="end" opacity="0">NRST</text>
</g>
<path d="M51642 45351
L51327 45351
L51642 45531
L51327 45531
" />
<path d="M51642 45861
L51492 45756
" />
<path d="M51642 45681
L51327 45681
L51327 45801
L51342 45831
L51357 45846
L51387 45861
L51432 45861
L51462 45846
L51477 45831
L51492 45801
L51492 45681
" />
<path d="M51627 45981
L51642 46026
L51642 46101
L51627 46131
L51612 46146
L51582 46161
L51552 46161
L51522 46146
L51507 46131
L51492 46101
L51477 46041
L51462 46011
L51447 45996
L51417 45981
L51387 45981
L51357 45996
L51342 46011
L51327 46041
L51327 46116
L51342 46161
" />
<path d="M51327 46251
L51327 46431
" />
<path d="M51642 46341
L51327 46341
" />
<g transform="rotate(-90 50500 46500)">
<text x="50500" y="46657.5"
transform="scale(-1 1) translate(-101000.000000 0)"
textLength="883.108" font-size="419.947" lengthAdjust="spacingAndGlyphs"
text-anchor="end" opacity="0">GND</text>
</g>
<path d="M50342 45741
L50327 45711
L50327 45666
L50342 45621
L50372 45591
L50402 45576
L50462 45561
L50507 45561
L50567 45576
L50597 45591
L50627 45621
L50642 45666
L50642 45696
L50627 45741
L50612 45756
L50507 45756
L50507 45696
" />
<path d="M50642 45891
L50327 45891
L50642 46071
L50327 46071
" />
<path d="M50642 46221
L50327 46221
L50327 46296
L50342 46341
L50372 46371
L50402 46386
L50462 46401
L50507 46401
L50567 46386
L50597 46371
L50627 46341
L50642 46296
L50642 46221
" />
<g transform="rotate(-90 50500 31250)">
<text x="50500" y="31407.5"
transform="scale(-1 1) translate(-101000.000000 0)"
textLength="943.101" font-size="419.947" lengthAdjust="spacingAndGlyphs"
text-anchor="end" opacity="0">3.3V</text>
</g>
<path d="M50327 30236
L50327 30431
L50447 30326
L50447 30371
L50462 30401
L50477 30416
L50507 30431
L50582 30431
L50612 30416
L50627 30401
L50642 30371
L50642 30281
L50627 30251
L50612 30236
" />
<path d="M50612 30566
L50627 30581
L50642 30566
L50627 30551
L50612 30566
L50642 30566
" />
<path d="M50327 30686
L50327 30881
L50447 30776
L50447 30821
L50462 30851
L50477 30866
L50507 30881
L50582 30881
L50612 30866
L50627 30851
L50642 30821
L50642 30731
L50627 30701
L50612 30686
" />
<path d="M50327 30971
L50642 31076
L50327 31181
" />
<g transform="rotate(-90 51500 31250)">
<text x="51500" y="31407.5"
transform="scale(-1 1) translate(-103000.000000 0)"
textLength="553.15" font-size="419.947" lengthAdjust="spacingAndGlyphs"
text-anchor="end" opacity="0">U5</text>
</g>
<path d="M51327 30656
L51582 30656
L51612 30671
L51627 30686
L51642 30716
L51642 30776
L51627 30806
L51612 30821
L51582 30836
L51327 30836
" />
<path d="M51327 31136
L51327 30986
L51477 30971
L51462 30986
L51447 31016
L51447 31091
L51462 31121
L51477 31136
L51507 31151
L51582 31151
L51612 31136
L51627 31121
L51642 31091
L51642 31016
L51627 30986
L51612 30971
" />
<g transform="rotate(-90 52500 31250)">
<text x="52500" y="31407.5"
transform="scale(-1 1) translate(-105000.000000 0)"
textLength="553.15" font-size="419.947" lengthAdjust="spacingAndGlyphs"
text-anchor="end" opacity="0">U7</text>
</g>
<path d="M52327 30656
L52582 30656
L52612 30671
L52627 30686
L52642 30716
L52642 30776
L52627 30806
L52612 30821
L52582 30836
L52327 30836
" />
<path d="M52327 30956
L52327 31166
L52642 31031
" />
<g transform="rotate(-90 53500 31250)">
<text x="53500" y="31407.5"
transform="scale(-1 1) translate(-107000.000000 0)"
textLength="1153.07" font-size="419.947" lengthAdjust="spacingAndGlyphs"
text-anchor="end" opacity="0">PC14</text>
</g>
<path d="M53642 30056
L53327 30056
L53327 30176
L53342 30206
L53357 30221
L53387 30236
L53432 30236
L53462 30221
L53477 30206
L53492 30176
L53492 30056
" />
<path d="M53612 30551
L53627 30536
L53642 30491
L53642 30461
L53627 30416
L53597 30386
L53567 30371
L53507 30356
L53462 30356
L53402 30371
L53372 30386
L53342 30416
L53327 30461
L53327 30491
L53342 30536
L53357 30551
" />
<path d="M53642 30851
L53642 30671
" />
<path d="M53642 30761
L53327 30761
L53372 30731
L53402 30701
L53417 30671
" />
<path d="M53432 31121
L53642 31121
" />
<path d="M53312 31046
L53537 30971
L53537 31166
" />
<g transform="rotate(-90 54500 31250)">
<text x="54500" y="31407.5"
transform="scale(-1 1) translate(-109000.000000 0)"
textLength="553.15" font-size="419.947" lengthAdjust="spacingAndGlyphs"
text-anchor="end" opacity="0">U9</text>
</g>
<path d="M54327 30656
L54582 30656
L54612 30671
L54627 30686
L54642 30716
L54642 30776
L54627 30806
L54612 30821
L54582 30836
L54327 30836
" />
<path d="M54642 31001
L54642 31061
L54627 31091
L54612 31106
L54567 31136
L54507 31151
L54387 31151
L54357 31136
L54342 31121
L54327 31091
L54327 31031
L54342 31001
L54357 30986
L54387 30971
L54462 30971
L54492 30986
L54507 31001
L54522 31031
L54522 31091
L54507 31121
L54492 31136
L54462 31151
" />
<g transform="rotate(-90 55500 31250)">
<text x="55500" y="31407.5"
transform="scale(-1 1) translate(-111000.000000 0)"
textLength="853.112" font-size="419.947" lengthAdjust="spacingAndGlyphs"
text-anchor="end" opacity="0">PB8</text>
</g>
<path d="M55642 30356
L55327 30356
L55327 30476
L55342 30506
L55357 30521
L55387 30536
L55432 30536
L55462 30521
L55477 30506
L55492 30476
L55492 30356
" />
<path d="M55477 30776
L55492 30821
L55507 30836
L55537 30851
L55582 30851
L55612 30836
L55627 30821
L55642 30791
L55642 30671
L55327 30671
L55327 30776
L55342 30806
L55357 30821
L55387 30836
L55417 30836
L55447 30821
L55462 30806
L55477 30776
L55477 30671
" />
<path d="M55462 31031
L55447 31001
L55432 30986
L55402 30971
L55387 30971
L55357 30986
L55342 31001
L55327 31031
L55327 31091
L55342 31121
L55357 31136
L55387 31151
L55402 31151
L55432 31136
L55447 31121
L55462 31091
L55462 31031
L55477 31001
L55492 30986
L55522 30971
L55582 30971
L55612 30986
L55627 31001
L55642 31031
L55642 31091
L55627 31121
L55612 31136
L55582 31151
L55522 31151
L55492 31136
L55477 31121
L55462 31091
" />
<g transform="rotate(-90 56500 31250)">
<text x="56500" y="31407.5"
transform="scale(-1 1) translate(-113000.000000 0)"
textLength="853.112" font-size="419.947" lengthAdjust="spacingAndGlyphs"
text-anchor="end" opacity="0">PB6</text>
</g>
<path d="M56642 30356
L56327 30356
L56327 30476
L56342 30506
L56357 30521
L56387 30536
L56432 30536
L56462 30521
L56477 30506
L56492 30476
L56492 30356
" />
<path d="M56477 30776
L56492 30821
L56507 30836
L56537 30851
L56582 30851
L56612 30836
L56627 30821
L56642 30791
L56642 30671
L56327 30671
L56327 30776
L56342 30806
L56357 30821
L56387 30836
L56417 30836
L56447 30821
L56462 30806
L56477 30776
L56477 30671
" />
<path d="M56327 31121
L56327 31061
L56342 31031
L56357 31016
L56402 30986
L56462 30971
L56582 30971
L56612 30986
L56627 31001
L56642 31031
L56642 31091
L56627 31121
L56612 31136
L56582 31151
L56507 31151
L56477 31136
L56462 31121
L56447 31091
L56447 31031
L56462 31001
L56477 30986
L56507 30971
" />
<g transform="rotate(-90 57500 31250)">
<text x="57500" y="31407.5"
transform="scale(-1 1) translate(-115000.000000 0)"
textLength="853.112" font-size="419.947" lengthAdjust="spacingAndGlyphs"
text-anchor="end" opacity="0">PB4</text>
</g>
<path d="M57642 30356
L57327 30356
L57327 30476
L57342 30506
L57357 30521
L57387 30536
L57432 30536
L57462 30521
L57477 30506
L57492 30476
L57492 30356
" />
<path d="M57477 30776
L57492 30821
L57507 30836
L57537 30851
L57582 30851
L57612 30836
L57627 30821
L57642 30791
L57642 30671
L57327 30671
L57327 30776
L57342 30806
L57357 30821
L57387 30836
L57417 30836
L57447 30821
L57462 30806
L57477 30776
L57477 30671
" />
<path d="M57432 31121
L57642 31121
" />
<path d="M57312 31046
L57537 30971
L57537 31166
" />
<g transform="rotate(-90 58500 31250)">
<text x="58500" y="31407.5"
transform="scale(-1 1) translate(-117000.000000 0)"
textLength="853.112" font-size="419.947" lengthAdjust="spacingAndGlyphs"
text-anchor="end" opacity="0">PD2</text>
</g>
<path d="M58642 30356
L58327 30356
L58327 30476
L58342 30506
L58357 30521
L58387 30536
L58432 30536
L58462 30521
L58477 30506
L58492 30476
L58492 30356
" />
<path d="M58642 30671
L58327 30671
L58327 30746
L58342 30791
L58372 30821
L58402 30836
L58462 30851
L58507 30851
L58567 30836
L58597 30821
L58627 30791
L58642 30746
L58642 30671
" />
<path d="M58357 30971
L58342 30986
L58327 31016
L58327 31091
L58342 31121
L58357 31136
L58387 31151
L58417 31151
L58462 31136
L58642 30956
L58642 31151
" />
<g transform="rotate(-90 59500 31250)">
<text x="59500" y="31407.5"
transform="scale(-1 1) translate(-119000.000000 0)"
textLength="1153.07" font-size="419.947" lengthAdjust="spacingAndGlyphs"
text-anchor="end" opacity="0">PC12</text>
</g>
<path d="M59642 30056
L59327 30056
L59327 30176
L59342 30206
L59357 30221
L59387 30236
L59432 30236
L59462 30221
L59477 30206
L59492 30176
L59492 30056
" />
<path d="M59612 30551
L59627 30536
L59642 30491
L59642 30461
L59627 30416
L59597 30386
L59567 30371
L59507 30356
L59462 30356
L59402 30371
L59372 30386
L59342 30416
L59327 30461
L59327 30491
L59342 30536
L59357 30551
" />
<path d="M59642 30851
L59642 30671
" />
<path d="M59642 30761
L59327 30761
L59372 30731
L59402 30701
L59417 30671
" />
<path d="M59357 30971
L59342 30986
L59327 31016
L59327 31091
L59342 31121
L59357 31136
L59387 31151
L59417 31151
L59462 31136
L59642 30956
L59642 31151
" />
<g transform="rotate(-90 60500 31250)">
<text x="60500" y="31407.5"
transform="scale(-1 1) translate(-121000.000000 0)"
textLength="1153.07" font-size="419.947" lengthAdjust="spacingAndGlyphs"
text-anchor="end" opacity="0">PC10</text>
</g>
<path d="M60642 30056
L60327 30056
L60327 30176
L60342 30206
L60357 30221
L60387 30236
L60432 30236
L60462 30221
L60477 30206
L60492 30176
L60492 30056
" />
<path d="M60612 30551
L60627 30536
L60642 30491
L60642 30461
L60627 30416
L60597 30386
L60567 30371
L60507 30356
L60462 30356
L60402 30371
L60372 30386
L60342 30416
L60327 30461
L60327 30491
L60342 30536
L60357 30551
" />
<path d="M60642 30851
L60642 30671
" />
<path d="M60642 30761
L60327 30761
L60372 30731
L60402 30701
L60417 30671
" />
<path d="M60327 31046
L60327 31076
L60342 31106
L60357 31121
L60387 31136
L60447 31151
L60522 31151
L60582 31136
L60612 31121
L60627 31106
L60642 31076
L60642 31046
L60627 31016
L60612 31001
L60582 30986
L60522 30971
L60447 30971
L60387 30986
L60357 31001
L60342 31016
L60327 31046
" />
<g transform="rotate(-90 61500 31250)">
<text x="61500" y="31407.5"
transform="scale(-1 1) translate(-123000.000000 0)"
textLength="853.112" font-size="419.947" lengthAdjust="spacingAndGlyphs"
text-anchor="end" opacity="0">U11</text>
</g>
<path d="M61327 30356
L61582 30356
L61612 30371
L61627 30386
L61642 30416
L61642 30476
L61627 30506
L61612 30521
L61582 30536
L61327 30536
" />
<path d="M61642 30851
L61642 30671
" />
<path d="M61642 30761
L61327 30761
L61372 30731
L61402 30701
L61417 30671
" />
<path d="M61642 31151
L61642 30971
" />
<path d="M61642 31061
L61327 31061
L61372 31031
L61402 31001
L61417 30971
" />
<g transform="rotate(-90 62500 31250)">
<text x="62500" y="31407.5"
transform="scale(-1 1) translate(-125000.000000 0)"
textLength="1108.08" font-size="419.947" lengthAdjust="spacingAndGlyphs"
text-anchor="end" opacity="0">PA14</text>
</g>
<path d="M62642 30101
L62327 30101
L62327 30221
L62342 30251
L62357 30266
L62387 30281
L62432 30281
L62462 30266
L62477 30251
L62492 30221
L62492 30101
" />
<path d="M62552 30401
L62552 30551
" />
<path d="M62642 30371
L62327 30476
L62642 30581
" />
<path d="M62642 30851
L62642 30671
" />
<path d="M62642 30761
L62327 30761
L62372 30731
L62402 30701
L62417 30671
" />
<path d="M62432 31121
L62642 31121
" />
<path d="M62312 31046
L62537 30971
L62537 31166
" />
<g transform="rotate(-90 63500 31250)">
<text x="63500" y="31407.5"
transform="scale(-1 1) translate(-127000.000000 0)"
textLength="1108.08" font-size="419.947" lengthAdjust="spacingAndGlyphs"
text-anchor="end" opacity="0">PA12</text>
</g>
<path d="M63642 30101
L63327 30101
L63327 30221
L63342 30251
L63357 30266
L63387 30281
L63432 30281
L63462 30266
L63477 30251
L63492 30221
L63492 30101
" />
<path d="M63552 30401
L63552 30551
" />
<path d="M63642 30371
L63327 30476
L63642 30581
" />
<path d="M63642 30851
L63642 30671
" />
<path d="M63642 30761
L63327 30761
L63372 30731
L63402 30701
L63417 30671
" />
<path d="M63357 30971
L63342 30986
L63327 31016
L63327 31091
L63342 31121
L63357 31136
L63387 31151
L63417 31151
L63462 31136
L63642 30956
L63642 31151
" />
<g transform="rotate(-90 64500 31250)">
<text x="64500" y="31407.5"
transform="scale(-1 1) translate(-129000.000000 0)"
textLength="1108.08" font-size="419.947" lengthAdjust="spacingAndGlyphs"
text-anchor="end" opacity="0">PA10</text>
</g>
<path d="M64642 30101
L64327 30101
L64327 30221
L64342 30251
L64357 30266
L64387 30281
L64432 30281
L64462 30266
L64477 30251
L64492 30221
L64492 30101
" />
<path d="M64552 30401
L64552 30551
" />
<path d="M64642 30371
L64327 30476
L64642 30581
" />
<path d="M64642 30851
L64642 30671
" />
<path d="M64642 30761
L64327 30761
L64372 30731
L64402 30701
L64417 30671
" />
<path d="M64327 31046
L64327 31076
L64342 31106
L64357 31121
L64387 31136
L64447 31151
L64522 31151
L64582 31136
L64612 31121
L64627 31106
L64642 31076
L64642 31046
L64627 31016
L64612 31001
L64582 30986
L64522 30971
L64447 30971
L64387 30986
L64357 31001
L64342 31016
L64327 31046
" />
<g transform="rotate(-90 65500 31250)">
<text x="65500" y="31407.5"
transform="scale(-1 1) translate(-131000.000000 0)"
textLength="808.118" font-size="419.947" lengthAdjust="spacingAndGlyphs"
text-anchor="end" opacity="0">PA8</text>
</g>
<path d="M65642 30401
L65327 30401
L65327 30521
L65342 30551
L65357 30566
L65387 30581
L65432 30581
L65462 30566
L65477 30551
L65492 30521
L65492 30401
" />
<path d="M65552 30701
L65552 30851
" />
<path d="M65642 30671
L65327 30776
L65642 30881
" />
<path d="M65462 31031
L65447 31001
L65432 30986
L65402 30971
L65387 30971
L65357 30986
L65342 31001
L65327 31031
L65327 31091
L65342 31121
L65357 31136
L65387 31151
L65402 31151
L65432 31136
L65447 31121
L65462 31091
L65462 31031
L65477 31001
L65492 30986
L65522 30971
L65582 30971
L65612 30986
L65627 31001
L65642 31031
L65642 31091
L65627 31121
L65612 31136
L65582 31151
L65522 31151
L65492 31136
L65477 31121
L65462 31091
" />
<g transform="rotate(-90 66500 31250)">
<text x="66500" y="31407.5"
transform="scale(-1 1) translate(-133000.000000 0)"
textLength="853.112" font-size="419.947" lengthAdjust="spacingAndGlyphs"
text-anchor="end" opacity="0">U13</text>
</g>
<path d="M66327 30356
L66582 30356
L66612 30371
L66627 30386
L66642 30416
L66642 30476
L66627 30506
L66612 30521
L66582 30536
L66327 30536
" />
<path d="M66642 30851
L66642 30671
" />
<path d="M66642 30761
L66327 30761
L66372 30731
L66402 30701
L66417 30671
" />
<path d="M66327 30956
L66327 31151
L66447 31046
L66447 31091
L66462 31121
L66477 31136
L66507 31151
L66582 31151
L66612 31136
L66627 31121
L66642 31091
L66642 31001
L66627 30971
L66612 30956
" />
<g transform="rotate(-90 67500 31250)">
<text x="67500" y="31407.5"
transform="scale(-1 1) translate(-135000.000000 0)"
textLength="853.112" font-size="419.947" lengthAdjust="spacingAndGlyphs"
text-anchor="end" opacity="0">U15</text>
</g>
<path d="M67327 30356
L67582 30356
L67612 30371
L67627 30386
L67642 30416
L67642 30476
L67627 30506
L67612 30521
L67582 30536
L67327 30536
" />
<path d="M67642 30851
L67642 30671
" />
<path d="M67642 30761
L67327 30761
L67372 30731
L67402 30701
L67417 30671
" />
<path d="M67327 31136
L67327 30986
L67477 30971
L67462 30986
L67447 31016
L67447 31091
L67462 31121
L67477 31136
L67507 31151
L67582 31151
L67612 31136
L67627 31121
L67642 31091
L67642 31016
L67627 30986
L67612 30971
" />
<g transform="rotate(-90 68500 31250)">
<text x="68500" y="31407.5"
transform="scale(-1 1) translate(-137000.000000 0)"
textLength="943.101" font-size="419.947" lengthAdjust="spacingAndGlyphs"
text-anchor="end" opacity="0">3.3V</text>
</g>
<path d="M68327 30236
L68327 30431
L68447 30326
L68447 30371
L68462 30401
L68477 30416
L68507 30431
L68582 30431
L68612 30416
L68627 30401
L68642 30371
L68642 30281
L68627 30251
L68612 30236
" />
<path d="M68612 30566
L68627 30581
L68642 30566
L68627 30551
L68612 30566
L68642 30566
" />
<path d="M68327 30686
L68327 30881
L68447 30776
L68447 30821
L68462 30851
L68477 30866
L68507 30881
L68582 30881
L68612 30866
L68627 30851
L68642 30821
L68642 30731
L68627 30701
L68612 30686
" />
<path d="M68327 30971
L68642 31076
L68327 31181
" />
<g transform="rotate(-90 69500 31250)">
<text x="69500" y="31407.5"
transform="scale(-1 1) translate(-139000.000000 0)"
textLength="493.157" font-size="419.947" lengthAdjust="spacingAndGlyphs"
text-anchor="end" opacity="0">5V</text>
</g>
<path d="M69327 30866
L69327 30716
L69477 30701
L69462 30716
L69447 30746
L69447 30821
L69462 30851
L69477 30866
L69507 30881
L69582 30881
L69612 30866
L69627 30851
L69642 30821
L69642 30746
L69627 30716
L69612 30701
" />
<path d="M69327 30971
L69642 31076
L69327 31181
" />
<g transform="rotate(-90 69500 33750)">
<text x="69500" y="33907.5"
transform="scale(-1 1) translate(-139000.000000 0)"
textLength="883.108" font-size="419.947" lengthAdjust="spacingAndGlyphs"
text-anchor="start" opacity="0">GND</text>
</g>
<path d="M69342 34028
L69327 33998
L69327 33953
L69342 33908
L69372 33878
L69402 33863
L69462 33848
L69507 33848
L69567 33863
L69597 33878
L69627 33908
L69642 33953
L69642 33983
L69627 34028
L69612 34043
L69507 34043
L69507 33983
" />
<path d="M69642 34178
L69327 34178
L69642 34358
L69327 34358
" />
<path d="M69642 34508
L69327 34508
L69327 34583
L69342 34628
L69372 34658
L69402 34673
L69462 34688
L69507 34688
L69567 34673
L69597 34658
L69627 34628
L69642 34583
L69642 34508
" />
<g transform="rotate(-90 68500 33750)">
<text x="68500" y="33907.5"
transform="scale(-1 1) translate(-137000.000000 0)"
textLength="883.108" font-size="419.947" lengthAdjust="spacingAndGlyphs"
text-anchor="start" opacity="0">GND</text>
</g>
<path d="M68342 34028
L68327 33998
L68327 33953
L68342 33908
L68372 33878
L68402 33863
L68462 33848
L68507 33848
L68567 33863
L68597 33878
L68627 33908
L68642 33953
L68642 33983
L68627 34028
L68612 34043
L68507 34043
L68507 33983
" />
<path d="M68642 34178
L68327 34178
L68642 34358
L68327 34358
" />
<path d="M68642 34508
L68327 34508
L68327 34583
L68342 34628
L68372 34658
L68402 34673
L68462 34688
L68507 34688
L68567 34673
L68597 34658
L68627 34628
L68642 34583
L68642 34508
" />
<g transform="rotate(-90 67500 33750)">
<text x="67500" y="33907.5"
transform="scale(-1 1) translate(-135000.000000 0)"
textLength="853.112" font-size="419.947" lengthAdjust="spacingAndGlyphs"
text-anchor="start" opacity="0">U16</text>
</g>
<path d="M67327 33863
L67582 33863
L67612 33878
L67627 33893
L67642 33923
L67642 33983
L67627 34013
L67612 34028
L67582 34043
L67327 34043
" />
<path d="M67642 34358
L67642 34178
" />
<path d="M67642 34268
L67327 34268
L67372 34238
L67402 34208
L67417 34178
" />
<path d="M67327 34628
L67327 34568
L67342 34538
L67357 34523
L67402 34493
L67462 34478
L67582 34478
L67612 34493
L67627 34508
L67642 34538
L67642 34598
L67627 34628
L67612 34643
L67582 34658
L67507 34658
L67477 34643
L67462 34628
L67447 34598
L67447 34538
L67462 34508
L67477 34493
L67507 34478
" />
<g transform="rotate(-90 66500 33750)">
<text x="66500" y="33907.5"
transform="scale(-1 1) translate(-133000.000000 0)"
textLength="853.112" font-size="419.947" lengthAdjust="spacingAndGlyphs"
text-anchor="start" opacity="0">U14</text>
</g>
<path d="M66327 33863
L66582 33863
L66612 33878
L66627 33893
L66642 33923
L66642 33983
L66627 34013
L66612 34028
L66582 34043
L66327 34043
" />
<path d="M66642 34358
L66642 34178
" />
<path d="M66642 34268
L66327 34268
L66372 34238
L66402 34208
L66417 34178
" />
<path d="M66432 34628
L66642 34628
" />
<path d="M66312 34553
L66537 34478
L66537 34673
" />
<g transform="rotate(-90 65500 33750)">
<text x="65500" y="33907.5"
transform="scale(-1 1) translate(-131000.000000 0)"
textLength="808.118" font-size="419.947" lengthAdjust="spacingAndGlyphs"
text-anchor="start" opacity="0">PA9</text>
</g>
<path d="M65642 33863
L65327 33863
L65327 33983
L65342 34013
L65357 34028
L65387 34043
L65432 34043
L65462 34028
L65477 34013
L65492 33983
L65492 33863
" />
<path d="M65552 34163
L65552 34313
" />
<path d="M65642 34133
L65327 34238
L65642 34343
" />
<path d="M65642 34463
L65642 34523
L65627 34553
L65612 34568
L65567 34598
L65507 34613
L65387 34613
L65357 34598
L65342 34583
L65327 34553
L65327 34493
L65342 34463
L65357 34448
L65387 34433
L65462 34433
L65492 34448
L65507 34463
L65522 34493
L65522 34553
L65507 34583
L65492 34598
L65462 34613
" />
<g transform="rotate(-90 64500 33750)">
<text x="64500" y="33907.5"
transform="scale(-1 1) translate(-129000.000000 0)"
textLength="1108.08" font-size="419.947" lengthAdjust="spacingAndGlyphs"
text-anchor="start" opacity="0">PA11</text>
</g>
<path d="M64642 33863
L64327 33863
L64327 33983
L64342 34013
L64357 34028
L64387 34043
L64432 34043
L64462 34028
L64477 34013
L64492 33983
L64492 33863
" />
<path d="M64552 34163
L64552 34313
" />
<path d="M64642 34133
L64327 34238
L64642 34343
" />
<path d="M64642 34613
L64642 34433
" />
<path d="M64642 34523
L64327 34523
L64372 34493
L64402 34463
L64417 34433
" />
<path d="M64642 34913
L64642 34733
" />
<path d="M64642 34823
L64327 34823
L64372 34793
L64402 34763
L64417 34733
" />
<g transform="rotate(-90 63500 33750)">
<text x="63500" y="33907.5"
transform="scale(-1 1) translate(-127000.000000 0)"
textLength="1108.08" font-size="419.947" lengthAdjust="spacingAndGlyphs"
text-anchor="start" opacity="0">PA13</text>
</g>
<path d="M63642 33863
L63327 33863
L63327 33983
L63342 34013
L63357 34028
L63387 34043
L63432 34043
L63462 34028
L63477 34013
L63492 33983
L63492 33863
" />
<path d="M63552 34163
L63552 34313
" />
<path d="M63642 34133
L63327 34238
L63642 34343
" />
<path d="M63642 34613
L63642 34433
" />
<path d="M63642 34523
L63327 34523
L63372 34493
L63402 34463
L63417 34433
" />
<path d="M63327 34718
L63327 34913
L63447 34808
L63447 34853
L63462 34883
L63477 34898
L63507 34913
L63582 34913
L63612 34898
L63627 34883
L63642 34853
L63642 34763
L63627 34733
L63612 34718
" />
<g transform="rotate(-90 62500 33750)">
<text x="62500" y="33907.5"
transform="scale(-1 1) translate(-125000.000000 0)"
textLength="1108.08" font-size="419.947" lengthAdjust="spacingAndGlyphs"
text-anchor="start" opacity="0">PA15</text>
</g>
<path d="M62642 33863
L62327 33863
L62327 33983
L62342 34013
L62357 34028
L62387 34043
L62432 34043
L62462 34028
L62477 34013
L62492 33983
L62492 33863
" />
<path d="M62552 34163
L62552 34313
" />
<path d="M62642 34133
L62327 34238
L62642 34343
" />
<path d="M62642 34613
L62642 34433
" />
<path d="M62642 34523
L62327 34523
L62372 34493
L62402 34463
L62417 34433
" />
<path d="M62327 34898
L62327 34748
L62477 34733
L62462 34748
L62447 34778
L62447 34853
L62462 34883
L62477 34898
L62507 34913
L62582 34913
L62612 34898
L62627 34883
L62642 34853
L62642 34778
L62627 34748
L62612 34733
" />
<g transform="rotate(-90 61500 33750)">
<text x="61500" y="33907.5"
transform="scale(-1 1) translate(-123000.000000 0)"
textLength="853.112" font-size="419.947" lengthAdjust="spacingAndGlyphs"
text-anchor="start" opacity="0">U12</text>
</g>
<path d="M61327 33863
L61582 33863
L61612 33878
L61627 33893
L61642 33923
L61642 33983
L61627 34013
L61612 34028
L61582 34043
L61327 34043
" />
<path d="M61642 34358
L61642 34178
" />
<path d="M61642 34268
L61327 34268
L61372 34238
L61402 34208
L61417 34178
" />
<path d="M61357 34478
L61342 34493
L61327 34523
L61327 34598
L61342 34628
L61357 34643
L61387 34658
L61417 34658
L61462 34643
L61642 34463
L61642 34658
" />
<g transform="rotate(-90 60500 33750)">
<text x="60500" y="33907.5"
transform="scale(-1 1) translate(-121000.000000 0)"
textLength="1153.07" font-size="419.947" lengthAdjust="spacingAndGlyphs"
text-anchor="start" opacity="0">PC11</text>
</g>
<path d="M60642 33863
L60327 33863
L60327 33983
L60342 34013
L60357 34028
L60387 34043
L60432 34043
L60462 34028
L60477 34013
L60492 33983
L60492 33863
" />
<path d="M60612 34358
L60627 34343
L60642 34298
L60642 34268
L60627 34223
L60597 34193
L60567 34178
L60507 34163
L60462 34163
L60402 34178
L60372 34193
L60342 34223
L60327 34268
L60327 34298
L60342 34343
L60357 34358
" />
<path d="M60642 34658
L60642 34478
" />
<path d="M60642 34568
L60327 34568
L60372 34538
L60402 34508
L60417 34478
" />
<path d="M60642 34958
L60642 34778
" />
<path d="M60642 34868
L60327 34868
L60372 34838
L60402 34808
L60417 34778
" />
<g transform="rotate(-90 59500 33750)">
<text x="59500" y="33907.5"
transform="scale(-1 1) translate(-119000.000000 0)"
textLength="553.15" font-size="419.947" lengthAdjust="spacingAndGlyphs"
text-anchor="start" opacity="0">U8</text>
</g>
<path d="M59327 33863
L59582 33863
L59612 33878
L59627 33893
L59642 33923
L59642 33983
L59627 34013
L59612 34028
L59582 34043
L59327 34043
" />
<path d="M59462 34238
L59447 34208
L59432 34193
L59402 34178
L59387 34178
L59357 34193
L59342 34208
L59327 34238
L59327 34298
L59342 34328
L59357 34343
L59387 34358
L59402 34358
L59432 34343
L59447 34328
L59462 34298
L59462 34238
L59477 34208
L59492 34193
L59522 34178
L59582 34178
L59612 34193
L59627 34208
L59642 34238
L59642 34298
L59627 34328
L59612 34343
L59582 34358
L59522 34358
L59492 34343
L59477 34328
L59462 34298
" />
<g transform="rotate(-90 58500 33750)">
<text x="58500" y="33907.5"
transform="scale(-1 1) translate(-117000.000000 0)"
textLength="853.112" font-size="419.947" lengthAdjust="spacingAndGlyphs"
text-anchor="start" opacity="0">PB3</text>
</g>
<path d="M58642 33863
L58327 33863
L58327 33983
L58342 34013
L58357 34028
L58387 34043
L58432 34043
L58462 34028
L58477 34013
L58492 33983
L58492 33863
" />
<path d="M58477 34283
L58492 34328
L58507 34343
L58537 34358
L58582 34358
L58612 34343
L58627 34328
L58642 34298
L58642 34178
L58327 34178
L58327 34283
L58342 34313
L58357 34328
L58387 34343
L58417 34343
L58447 34328
L58462 34313
L58477 34283
L58477 34178
" />
<path d="M58327 34463
L58327 34658
L58447 34553
L58447 34598
L58462 34628
L58477 34643
L58507 34658
L58582 34658
L58612 34643
L58627 34628
L58642 34598
L58642 34508
L58627 34478
L58612 34463
" />
<g transform="rotate(-90 57500 33750)">
<text x="57500" y="33907.5"
transform="scale(-1 1) translate(-115000.000000 0)"
textLength="853.112" font-size="419.947" lengthAdjust="spacingAndGlyphs"
text-anchor="start" opacity="0">PB5</text>
</g>
<path d="M57642 33863
L57327 33863
L57327 33983
L57342 34013
L57357 34028
L57387 34043
L57432 34043
L57462 34028
L57477 34013
L57492 33983
L57492 33863
" />
<path d="M57477 34283
L57492 34328
L57507 34343
L57537 34358
L57582 34358
L57612 34343
L57627 34328
L57642 34298
L57642 34178
L57327 34178
L57327 34283
L57342 34313
L57357 34328
L57387 34343
L57417 34343
L57447 34328
L57462 34313
L57477 34283
L57477 34178
" />
<path d="M57327 34643
L57327 34493
L57477 34478
L57462 34493
L57447 34523
L57447 34598
L57462 34628
L57477 34643
L57507 34658
L57582 34658
L57612 34643
L57627 34628
L57642 34598
L57642 34523
L57627 34493
L57612 34478
" />
<g transform="rotate(-90 56500 33750)">
<text x="56500" y="33907.5"
transform="scale(-1 1) translate(-113000.000000 0)"
textLength="853.112" font-size="419.947" lengthAdjust="spacingAndGlyphs"
text-anchor="start" opacity="0">PB7</text>
</g>
<path d="M56642 33863
L56327 33863
L56327 33983
L56342 34013
L56357 34028
L56387 34043
L56432 34043
L56462 34028
L56477 34013
L56492 33983
L56492 33863
" />
<path d="M56477 34283
L56492 34328
L56507 34343
L56537 34358
L56582 34358
L56612 34343
L56627 34328
L56642 34298
L56642 34178
L56327 34178
L56327 34283
L56342 34313
L56357 34328
L56387 34343
L56417 34343
L56447 34328
L56462 34313
L56477 34283
L56477 34178
" />
<path d="M56327 34463
L56327 34673
L56642 34538
" />
<g transform="rotate(-90 55500 33750)">
<text x="55500" y="33907.5"
transform="scale(-1 1) translate(-111000.000000 0)"
textLength="853.112" font-size="419.947" lengthAdjust="spacingAndGlyphs"
text-anchor="start" opacity="0">PB9</text>
</g>
<path d="M55642 33863
L55327 33863
L55327 33983
L55342 34013
L55357 34028
L55387 34043
L55432 34043
L55462 34028
L55477 34013
L55492 33983
L55492 33863
" />
<path d="M55477 34283
L55492 34328
L55507 34343
L55537 34358
L55582 34358
L55612 34343
L55627 34328
L55642 34298
L55642 34178
L55327 34178
L55327 34283
L55342 34313
L55357 34328
L55387 34343
L55417 34343
L55447 34328
L55462 34313
L55477 34283
L55477 34178
" />
<path d="M55642 34508
L55642 34568
L55627 34598
L55612 34613
L55567 34643
L55507 34658
L55387 34658
L55357 34643
L55342 34628
L55327 34598
L55327 34538
L55342 34508
L55357 34493
L55387 34478
L55462 34478
L55492 34493
L55507 34508
L55522 34538
L55522 34598
L55507 34628
L55492 34643
L55462 34658
" />
<g transform="rotate(-90 54500 33750)">
<text x="54500" y="33907.5"
transform="scale(-1 1) translate(-109000.000000 0)"
textLength="853.112" font-size="419.947" lengthAdjust="spacingAndGlyphs"
text-anchor="start" opacity="0">U10</text>
</g>
<path d="M54327 33863
L54582 33863
L54612 33878
L54627 33893
L54642 33923
L54642 33983
L54627 34013
L54612 34028
L54582 34043
L54327 34043
" />
<path d="M54642 34358
L54642 34178
" />
<path d="M54642 34268
L54327 34268
L54372 34238
L54402 34208
L54417 34178
" />
<path d="M54327 34553
L54327 34583
L54342 34613
L54357 34628
L54387 34643
L54447 34658
L54522 34658
L54582 34643
L54612 34628
L54627 34613
L54642 34583
L54642 34553
L54627 34523
L54612 34508
L54582 34493
L54522 34478
L54447 34478
L54387 34493
L54357 34508
L54342 34523
L54327 34553
" />
<g transform="rotate(-90 53500 33750)">
<text x="53500" y="33907.5"
transform="scale(-1 1) translate(-107000.000000 0)"
textLength="1153.07" font-size="419.947" lengthAdjust="spacingAndGlyphs"
text-anchor="start" opacity="0">PC13</text>
</g>
<path d="M53642 33863
L53327 33863
L53327 33983
L53342 34013
L53357 34028
L53387 34043
L53432 34043
L53462 34028
L53477 34013
L53492 33983
L53492 33863
" />
<path d="M53612 34358
L53627 34343
L53642 34298
L53642 34268
L53627 34223
L53597 34193
L53567 34178
L53507 34163
L53462 34163
L53402 34178
L53372 34193
L53342 34223
L53327 34268
L53327 34298
L53342 34343
L53357 34358
" />
<path d="M53642 34658
L53642 34478
" />
<path d="M53642 34568
L53327 34568
L53372 34538
L53402 34508
L53417 34478
" />
<path d="M53327 34763
L53327 34958
L53447 34853
L53447 34898
L53462 34928
L53477 34943
L53507 34958
L53582 34958
L53612 34943
L53627 34928
L53642 34898
L53642 34808
L53627 34778
L53612 34763
" />
<g transform="rotate(-90 52500 33750)">
<text x="52500" y="33907.5"
transform="scale(-1 1) translate(-105000.000000 0)"
textLength="1153.07" font-size="419.947" lengthAdjust="spacingAndGlyphs"
text-anchor="start" opacity="0">PC15</text>
</g>
<path d="M52642 33863
L52327 33863
L52327 33983
L52342 34013
L52357 34028
L52387 34043
L52432 34043
L52462 34028
L52477 34013
L52492 33983
L52492 33863
" />
<path d="M52612 34358
L52627 34343
L52642 34298
L52642 34268
L52627 34223
L52597 34193
L52567 34178
L52507 34163
L52462 34163
L52402 34178
L52372 34193
L52342 34223
L52327 34268
L52327 34298
L52342 34343
L52357 34358
" />
<path d="M52642 34658
L52642 34478
" />
<path d="M52642 34568
L52327 34568
L52372 34538
L52402 34508
L52417 34478
" />
<path d="M52327 34943
L52327 34793
L52477 34778
L52462 34793
L52447 34823
L52447 34898
L52462 34928
L52477 34943
L52507 34958
L52582 34958
L52612 34943
L52627 34928
L52642 34898
L52642 34823
L52627 34793
L52612 34778
" />
<g transform="rotate(-90 51500 33750)">
<text x="51500" y="33907.5"
transform="scale(-1 1) translate(-103000.000000 0)"
textLength="553.15" font-size="419.947" lengthAdjust="spacingAndGlyphs"
text-anchor="start" opacity="0">U6</text>
</g>
<path d="M51327 33863
L51582 33863
L51612 33878
L51627 33893
L51642 33923
L51642 33983
L51627 34013
L51612 34028
L51582 34043
L51327 34043
" />
<path d="M51327 34328
L51327 34268
L51342 34238
L51357 34223
L51402 34193
L51462 34178
L51582 34178
L51612 34193
L51627 34208
L51642 34238
L51642 34298
L51627 34328
L51612 34343
L51582 34358
L51507 34358
L51477 34343
L51462 34328
L51447 34298
L51447 34238
L51462 34208
L51477 34193
L51507 34178
" />
<g transform="rotate(-90 50500 33750)">
<text x="50500" y="33907.5"
transform="scale(-1 1) translate(-101000.000000 0)"
textLength="883.108" font-size="419.947" lengthAdjust="spacingAndGlyphs"
text-anchor="start" opacity="0">GND</text>
</g>
<path d="M50342 34028
L50327 33998
L50327 33953
L50342 33908
L50372 33878
L50402 33863
L50462 33848
L50507 33848
L50567 33863
L50597 33878
L50627 33908
L50642 33953
L50642 33983
L50627 34028
L50612 34043
L50507 34043
L50507 33983
" />
<path d="M50642 34178
L50327 34178
L50642 34358
L50327 34358
" />
<path d="M50642 34508
L50327 34508
L50327 34583
L50342 34628
L50372 34658
L50402 34673
L50462 34688
L50507 34688
L50567 34673
L50597 34658
L50627 34628
L50642 34583
L50642 34508
" />
<g transform="rotate(-90 45750 32750)">
<text x="45750" y="32946.9"
transform="scale(-1 1) translate(-91500.000000 0)"
textLength="7216.07" font-size="524.934" lengthAdjust="spacingAndGlyphs"
text-anchor="start" opacity="0">https://stm32world.com</text>
</g>
<path d="M45928 32882
L45534 32882
" />
<path d="M45928 33050
L45721 33050
L45684 33032
L45665 32994
L45665 32938
L45684 32900
L45703 32882
" />
<path d="M45665 33182
L45665 33332
" />
<path d="M45534 33238
L45871 33238
L45909 33257
L45928 33294
L45928 33332
" />
<path d="M45665 33407
L45665 33557
" />
<path d="M45534 33463
L45871 33463
L45909 33482
L45928 33519
L45928 33557
" />
<path d="M45665 33688
L46059 33688
" />
<path d="M45684 33688
L45665 33725
L45665 33800
L45684 33838
L45703 33857
L45740 33875
L45853 33875
L45890 33857
L45909 33838
L45928 33800
L45928 33725
L45909 33688
" />
<path d="M45909 34025
L45928 34063
L45928 34138
L45909 34175
L45871 34194
L45853 34194
L45815 34175
L45796 34138
L45796 34081
L45778 34044
L45740 34025
L45721 34025
L45684 34044
L45665 34081
L45665 34138
L45684 34175
" />
<path d="M45890 34363
L45909 34381
L45928 34363
L45909 34344
L45890 34363
L45928 34363
" />
<path d="M45684 34363
L45703 34381
L45721 34363
L45703 34344
L45684 34363
L45721 34363
" />
<path d="M45515 34831
L46021 34494
" />
<path d="M45515 35244
L46021 34906
" />
<path d="M45909 35356
L45928 35394
L45928 35469
L45909 35506
L45871 35525
L45853 35525
L45815 35506
L45796 35469
L45796 35413
L45778 35375
L45740 35356
L45721 35356
L45684 35375
L45665 35413
L45665 35469
L45684 35506
" />
<path d="M45665 35638
L45665 35788
" />
<path d="M45534 35694
L45871 35694
L45909 35713
L45928 35750
L45928 35788
" />
<path d="M45928 35919
L45665 35919
" />
<path d="M45703 35919
L45684 35937
L45665 35975
L45665 36031
L45684 36069
L45721 36087
L45928 36087
" />
<path d="M45721 36087
L45684 36106
L45665 36144
L45665 36200
L45684 36237
L45721 36256
L45928 36256
" />
<path d="M45534 36406
L45534 36650
L45684 36519
L45684 36575
L45703 36612
L45721 36631
L45759 36650
L45853 36650
L45890 36631
L45909 36612
L45928 36575
L45928 36462
L45909 36425
L45890 36406
" />
<path d="M45571 36800
L45553 36819
L45534 36856
L45534 36950
L45553 36987
L45571 37006
L45609 37025
L45646 37025
L45703 37006
L45928 36781
L45928 37025
" />
<path d="M45665 37156
L45928 37231
L45740 37306
L45928 37381
L45665 37456
" />
<path d="M45928 37662
L45909 37625
L45890 37606
L45853 37587
L45740 37587
L45703 37606
L45684 37625
L45665 37662
L45665 37719
L45684 37756
L45703 37775
L45740 37794
L45853 37794
L45890 37775
L45909 37756
L45928 37719
L45928 37662
" />
<path d="M45928 37962
L45665 37962
" />
<path d="M45740 37962
L45703 37981
L45684 38000
L45665 38037
L45665 38075
" />
<path d="M45928 38262
L45909 38225
L45871 38206
L45534 38206
" />
<path d="M45928 38581
L45534 38581
" />
<path d="M45909 38581
L45928 38543
L45928 38468
L45909 38431
L45890 38412
L45853 38393
L45740 38393
L45703 38412
L45684 38431
L45665 38468
L45665 38543
L45684 38581
" />
<path d="M45890 38768
L45909 38787
L45928 38768
L45909 38750
L45890 38768
L45928 38768
" />
<path d="M45909 39125
L45928 39087
L45928 39012
L45909 38975
L45890 38956
L45853 38937
L45740 38937
L45703 38956
L45684 38975
L45665 39012
L45665 39087
L45684 39125
" />
<path d="M45928 39350
L45909 39312
L45890 39293
L45853 39275
L45740 39275
L45703 39293
L45684 39312
L45665 39350
L45665 39406
L45684 39443
L45703 39462
L45740 39481
L45853 39481
L45890 39462
L45909 39443
L45928 39406
L45928 39350
" />
<path d="M45928 39650
L45665 39650
" />
<path d="M45703 39650
L45684 39668
L45665 39706
L45665 39762
L45684 39800
L45721 39818
L45928 39818
" />
<path d="M45721 39818
L45684 39837
L45665 39875
L45665 39931
L45684 39968
L45721 39987
L45928 39987
" />
<g >
</g>
</g> 
</svg>
