%TF.GenerationSoftware,KiCad,Pcbnew,6.0.4+dfsg-1+b1*%
%TF.CreationDate,2022-05-05T09:05:32+08:00*%
%TF.ProjectId,memw25q128,6d656d77-3235-4713-9132-382e6b696361,rev?*%
%TF.SameCoordinates,Original*%
%TF.FileFunction,Soldermask,Bot*%
%TF.FilePolarity,Negative*%
%FSLAX46Y46*%
G04 Gerber Fmt 4.6, Leading zero omitted, Abs format (unit mm)*
G04 Created by KiCad (PCBNEW 6.0.4+dfsg-1+b1) date 2022-05-05 09:05:32*
%MOMM*%
%LPD*%
G01*
G04 APERTURE LIST*
%ADD10C,3.200000*%
%ADD11R,1.700000X1.700000*%
%ADD12C,1.700000*%
G04 APERTURE END LIST*
D10*
%TO.C,J1*%
X112395000Y-75565000D03*
X180975000Y-118745000D03*
X112395000Y-118745000D03*
X180975000Y-75565000D03*
D11*
X122555000Y-117475000D03*
D12*
X122555000Y-114935000D03*
X125095000Y-117475000D03*
X125095000Y-114935000D03*
X127635000Y-117475000D03*
X127635000Y-114935000D03*
X130175000Y-117475000D03*
X130175000Y-114935000D03*
X132715000Y-117475000D03*
X132715000Y-114935000D03*
X135255000Y-117475000D03*
X135255000Y-114935000D03*
X137795000Y-117475000D03*
X137795000Y-114935000D03*
X140335000Y-117475000D03*
X140335000Y-114935000D03*
X142875000Y-117475000D03*
X142875000Y-114935000D03*
X145415000Y-117475000D03*
X145415000Y-114935000D03*
X147955000Y-117475000D03*
X147955000Y-114935000D03*
X150495000Y-117475000D03*
X150495000Y-114935000D03*
X153035000Y-117475000D03*
X153035000Y-114935000D03*
X155575000Y-117475000D03*
X155575000Y-114935000D03*
X158115000Y-117475000D03*
X158115000Y-114935000D03*
X160655000Y-117475000D03*
X160655000Y-114935000D03*
X163195000Y-117475000D03*
X163195000Y-114935000D03*
X165735000Y-117475000D03*
X165735000Y-114935000D03*
X168275000Y-117475000D03*
X168275000Y-114935000D03*
X170815000Y-117475000D03*
X170815000Y-114935000D03*
D11*
X170815000Y-76835000D03*
D12*
X170815000Y-79375000D03*
X168275000Y-76835000D03*
X168275000Y-79375000D03*
X165735000Y-76835000D03*
X165735000Y-79375000D03*
X163195000Y-76835000D03*
X163195000Y-79375000D03*
X160655000Y-76835000D03*
X160655000Y-79375000D03*
X158115000Y-76835000D03*
X158115000Y-79375000D03*
X155575000Y-76835000D03*
X155575000Y-79375000D03*
X153035000Y-76835000D03*
X153035000Y-79375000D03*
X150495000Y-76835000D03*
X150495000Y-79375000D03*
X147955000Y-76835000D03*
X147955000Y-79375000D03*
X145415000Y-76835000D03*
X145415000Y-79375000D03*
X142875000Y-76835000D03*
X142875000Y-79375000D03*
X140335000Y-76835000D03*
X140335000Y-79375000D03*
X137795000Y-76835000D03*
X137795000Y-79375000D03*
X135255000Y-76835000D03*
X135255000Y-79375000D03*
X132715000Y-76835000D03*
X132715000Y-79375000D03*
X130175000Y-76835000D03*
X130175000Y-79375000D03*
X127635000Y-76835000D03*
X127635000Y-79375000D03*
X125095000Y-76835000D03*
X125095000Y-79375000D03*
X122555000Y-76835000D03*
X122555000Y-79375000D03*
%TD*%
M02*
