G04 #@! TF.GenerationSoftware,KiCad,Pcbnew,9.0.1+dfsg-1*
G04 #@! TF.CreationDate,2025-05-28T08:47:52+08:00*
G04 #@! TF.ProjectId,mcustm32f402,6d637573-746d-4333-9266-3430322e6b69,a*
G04 #@! TF.SameCoordinates,PX57cf3f8PY8841978*
G04 #@! TF.FileFunction,Copper,L2,Bot*
G04 #@! TF.FilePolarity,Positive*
%FSLAX46Y46*%
G04 Gerber Fmt 4.6, Leading zero omitted, Abs format (unit mm)*
G04 Created by KiCad (PCBNEW 9.0.1+dfsg-1) date 2025-05-28 08:47:52*
%MOMM*%
%LPD*%
G01*
G04 APERTURE LIST*
G04 Aperture macros list*
%AMFreePoly0*
4,1,23,0.500000,-0.750000,0.000000,-0.750000,0.000000,-0.745722,-0.065263,-0.745722,-0.191342,-0.711940,-0.304381,-0.646677,-0.396677,-0.554381,-0.461940,-0.441342,-0.495722,-0.315263,-0.495722,-0.250000,-0.500000,-0.250000,-0.500000,0.250000,-0.495722,0.250000,-0.495722,0.315263,-0.461940,0.441342,-0.396677,0.554381,-0.304381,0.646677,-0.191342,0.711940,-0.065263,0.745722,0.000000,0.745722,
0.000000,0.750000,0.500000,0.750000,0.500000,-0.750000,0.500000,-0.750000,$1*%
%AMFreePoly1*
4,1,23,0.000000,0.745722,0.065263,0.745722,0.191342,0.711940,0.304381,0.646677,0.396677,0.554381,0.461940,0.441342,0.495722,0.315263,0.495722,0.250000,0.500000,0.250000,0.500000,-0.250000,0.495722,-0.250000,0.495722,-0.315263,0.461940,-0.441342,0.396677,-0.554381,0.304381,-0.646677,0.191342,-0.711940,0.065263,-0.745722,0.000000,-0.745722,0.000000,-0.750000,-0.500000,-0.750000,
-0.500000,0.750000,0.000000,0.750000,0.000000,0.745722,0.000000,0.745722,$1*%
G04 Aperture macros list end*
G04 #@! TA.AperFunction,EtchedComponent*
%ADD10C,0.000000*%
G04 #@! TD*
G04 #@! TA.AperFunction,ComponentPad*
%ADD11O,2.100000X1.000000*%
G04 #@! TD*
G04 #@! TA.AperFunction,ComponentPad*
%ADD12O,1.600000X1.000000*%
G04 #@! TD*
G04 #@! TA.AperFunction,ComponentPad*
%ADD13R,1.700000X1.700000*%
G04 #@! TD*
G04 #@! TA.AperFunction,ComponentPad*
%ADD14O,1.700000X1.700000*%
G04 #@! TD*
G04 #@! TA.AperFunction,SMDPad,CuDef*
%ADD15FreePoly0,180.000000*%
G04 #@! TD*
G04 #@! TA.AperFunction,SMDPad,CuDef*
%ADD16FreePoly1,180.000000*%
G04 #@! TD*
G04 #@! TA.AperFunction,SMDPad,CuDef*
%ADD17FreePoly0,0.000000*%
G04 #@! TD*
G04 #@! TA.AperFunction,SMDPad,CuDef*
%ADD18FreePoly1,0.000000*%
G04 #@! TD*
G04 #@! TA.AperFunction,ViaPad*
%ADD19C,0.700000*%
G04 #@! TD*
G04 #@! TA.AperFunction,Conductor*
%ADD20C,0.457200*%
G04 #@! TD*
G04 #@! TA.AperFunction,Conductor*
%ADD21C,0.228600*%
G04 #@! TD*
G04 #@! TA.AperFunction,Conductor*
%ADD22C,0.304800*%
G04 #@! TD*
G04 APERTURE END LIST*
D10*
G04 #@! TA.AperFunction,EtchedComponent*
G04 #@! TO.C,JP2*
G36*
X52955000Y37800000D02*
G01*
X52455000Y37800000D01*
X52455000Y38400000D01*
X52955000Y38400000D01*
X52955000Y37800000D01*
G37*
G04 #@! TD.AperFunction*
G04 #@! TA.AperFunction,EtchedComponent*
G04 #@! TO.C,JP1*
G36*
X52955000Y42880000D02*
G01*
X52455000Y42880000D01*
X52455000Y43480000D01*
X52955000Y43480000D01*
X52955000Y42880000D01*
G37*
G04 #@! TD.AperFunction*
G04 #@! TD*
D11*
G04 #@! TO.P,J1,S1,SHIELD*
G04 #@! TO.N,GND*
X91485000Y36955000D03*
D12*
X95665000Y36955000D03*
D11*
X91485000Y45595000D03*
D12*
X95665000Y45595000D03*
G04 #@! TD*
D13*
G04 #@! TO.P,J2,1,GND*
G04 #@! TO.N,GND*
X36195000Y23495000D03*
D14*
G04 #@! TO.P,J2,2,VA*
G04 #@! TO.N,VDDA*
X36195000Y20955000D03*
G04 #@! TO.P,J2,3,NRST*
G04 #@! TO.N,HNRST*
X38735000Y23495000D03*
G04 #@! TO.P,J2,4,BO0*
G04 #@! TO.N,HBO0*
X38735000Y20955000D03*
G04 #@! TO.P,J2,5,PC1*
G04 #@! TO.N,PC1*
X41275000Y23495000D03*
G04 #@! TO.P,J2,6,PC0*
G04 #@! TO.N,PC0*
X41275000Y20955000D03*
G04 #@! TO.P,J2,7,PC3*
G04 #@! TO.N,PC3*
X43815000Y23495000D03*
G04 #@! TO.P,J2,8,PC2*
G04 #@! TO.N,PC2*
X43815000Y20955000D03*
G04 #@! TO.P,J2,9,PA1*
G04 #@! TO.N,PA1*
X46355000Y23495000D03*
G04 #@! TO.P,J2,10,PA0*
G04 #@! TO.N,PA0*
X46355000Y20955000D03*
G04 #@! TO.P,J2,11,PA3*
G04 #@! TO.N,PA3*
X48895000Y23495000D03*
G04 #@! TO.P,J2,12,PA2*
G04 #@! TO.N,PA2*
X48895000Y20955000D03*
G04 #@! TO.P,J2,13,PA5*
G04 #@! TO.N,PA5*
X51435000Y23495000D03*
G04 #@! TO.P,J2,14,PA4*
G04 #@! TO.N,PA4*
X51435000Y20955000D03*
G04 #@! TO.P,J2,15,PA7*
G04 #@! TO.N,PA7*
X53975000Y23495000D03*
G04 #@! TO.P,J2,16,PA6*
G04 #@! TO.N,PA6*
X53975000Y20955000D03*
G04 #@! TO.P,J2,17,PC5*
G04 #@! TO.N,PC5*
X56515000Y23495000D03*
G04 #@! TO.P,J2,18,PC4*
G04 #@! TO.N,PC4*
X56515000Y20955000D03*
G04 #@! TO.P,J2,19,PB1*
G04 #@! TO.N,PB1*
X59055000Y23495000D03*
G04 #@! TO.P,J2,20,PB0*
G04 #@! TO.N,PB0*
X59055000Y20955000D03*
G04 #@! TO.P,J2,21,U0*
G04 #@! TO.N,unconnected-(J2-U0-Pad21)*
X61595000Y23495000D03*
G04 #@! TO.P,J2,22,PB2*
G04 #@! TO.N,PB2*
X61595000Y20955000D03*
G04 #@! TO.P,J2,23,PB11*
G04 #@! TO.N,unconnected-(J2-PB11-Pad23)*
X64135000Y23495000D03*
G04 #@! TO.P,J2,24,PB10*
G04 #@! TO.N,PB10*
X64135000Y20955000D03*
G04 #@! TO.P,J2,25,PB13*
G04 #@! TO.N,PB13*
X66675000Y23495000D03*
G04 #@! TO.P,J2,26,PB12*
G04 #@! TO.N,PB12*
X66675000Y20955000D03*
G04 #@! TO.P,J2,27,PB15*
G04 #@! TO.N,PB15*
X69215000Y23495000D03*
G04 #@! TO.P,J2,28,PB14*
G04 #@! TO.N,PB14*
X69215000Y20955000D03*
G04 #@! TO.P,J2,29,PC7*
G04 #@! TO.N,PC7*
X71755000Y23495000D03*
G04 #@! TO.P,J2,30,PC6*
G04 #@! TO.N,PC6*
X71755000Y20955000D03*
G04 #@! TO.P,J2,31,PC9*
G04 #@! TO.N,PC9*
X74295000Y23495000D03*
G04 #@! TO.P,J2,32,PC8*
G04 #@! TO.N,PC8*
X74295000Y20955000D03*
G04 #@! TO.P,J2,33,U2*
G04 #@! TO.N,unconnected-(J2-U2-Pad33)*
X76835000Y23495000D03*
G04 #@! TO.P,J2,34,U1*
G04 #@! TO.N,unconnected-(J2-U1-Pad34)*
X76835000Y20955000D03*
G04 #@! TO.P,J2,35,U4*
G04 #@! TO.N,unconnected-(J2-U4-Pad35)*
X79375000Y23495000D03*
G04 #@! TO.P,J2,36,U3*
G04 #@! TO.N,unconnected-(J2-U3-Pad36)*
X79375000Y20955000D03*
G04 #@! TO.P,J2,37,GND*
G04 #@! TO.N,GND*
X81915000Y23495000D03*
G04 #@! TO.P,J2,38,3.3V*
G04 #@! TO.N,+3V3*
X81915000Y20955000D03*
G04 #@! TO.P,J2,39,GND*
G04 #@! TO.N,GND*
X84455000Y23495000D03*
G04 #@! TO.P,J2,40,5V*
G04 #@! TO.N,+5V*
X84455000Y20955000D03*
G04 #@! TD*
D13*
G04 #@! TO.P,J3,1,GND*
G04 #@! TO.N,GND*
X84455000Y59055000D03*
D14*
G04 #@! TO.P,J3,2,5V*
G04 #@! TO.N,+5V*
X84455000Y61595000D03*
G04 #@! TO.P,J3,3,GND*
G04 #@! TO.N,GND*
X81915000Y59055000D03*
G04 #@! TO.P,J3,4,3.3V*
G04 #@! TO.N,+3V3*
X81915000Y61595000D03*
G04 #@! TO.P,J3,5,U16*
G04 #@! TO.N,unconnected-(J3-U16-Pad5)*
X79375000Y59055000D03*
G04 #@! TO.P,J3,6,U15*
G04 #@! TO.N,unconnected-(J3-U15-Pad6)*
X79375000Y61595000D03*
G04 #@! TO.P,J3,7,U14*
G04 #@! TO.N,unconnected-(J3-U14-Pad7)*
X76835000Y59055000D03*
G04 #@! TO.P,J3,8,U13*
G04 #@! TO.N,unconnected-(J3-U13-Pad8)*
X76835000Y61595000D03*
G04 #@! TO.P,J3,9,PA9*
G04 #@! TO.N,PA9*
X74295000Y59055000D03*
G04 #@! TO.P,J3,10,PA8*
G04 #@! TO.N,PA8*
X74295000Y61595000D03*
G04 #@! TO.P,J3,11,PA11*
G04 #@! TO.N,PA11*
X71755000Y59055000D03*
G04 #@! TO.P,J3,12,PA10*
G04 #@! TO.N,PA10*
X71755000Y61595000D03*
G04 #@! TO.P,J3,13,PA13*
G04 #@! TO.N,PA13*
X69215000Y59055000D03*
G04 #@! TO.P,J3,14,PA12*
G04 #@! TO.N,PA12*
X69215000Y61595000D03*
G04 #@! TO.P,J3,15,PA15*
G04 #@! TO.N,PA15*
X66675000Y59055000D03*
G04 #@! TO.P,J3,16,PA14*
G04 #@! TO.N,PA14*
X66675000Y61595000D03*
G04 #@! TO.P,J3,17,U12*
G04 #@! TO.N,unconnected-(J3-U12-Pad17)*
X64135000Y59055000D03*
G04 #@! TO.P,J3,18,U11*
G04 #@! TO.N,unconnected-(J3-U11-Pad18)*
X64135000Y61595000D03*
G04 #@! TO.P,J3,19,PC11*
G04 #@! TO.N,PC11*
X61595000Y59055000D03*
G04 #@! TO.P,J3,20,PC10*
G04 #@! TO.N,PC10*
X61595000Y61595000D03*
G04 #@! TO.P,J3,21,U8*
G04 #@! TO.N,unconnected-(J3-U8-Pad21)*
X59055000Y59055000D03*
G04 #@! TO.P,J3,22,PC12*
G04 #@! TO.N,PC12*
X59055000Y61595000D03*
G04 #@! TO.P,J3,23,23*
G04 #@! TO.N,PB3*
X56515000Y59055000D03*
G04 #@! TO.P,J3,24,PD2*
G04 #@! TO.N,PD2*
X56515000Y61595000D03*
G04 #@! TO.P,J3,25,PB5*
G04 #@! TO.N,PB5*
X53975000Y59055000D03*
G04 #@! TO.P,J3,26,PB4*
G04 #@! TO.N,PB4*
X53975000Y61595000D03*
G04 #@! TO.P,J3,27,PB7*
G04 #@! TO.N,PB7*
X51435000Y59055000D03*
G04 #@! TO.P,J3,28,PB6*
G04 #@! TO.N,PB6*
X51435000Y61595000D03*
G04 #@! TO.P,J3,29,PB9*
G04 #@! TO.N,PB9*
X48895000Y59055000D03*
G04 #@! TO.P,J3,30,PB8*
G04 #@! TO.N,PB8*
X48895000Y61595000D03*
G04 #@! TO.P,J3,31,U10*
G04 #@! TO.N,unconnected-(J3-U10-Pad31)*
X46355000Y59055000D03*
G04 #@! TO.P,J3,32,U9*
G04 #@! TO.N,unconnected-(J3-U9-Pad32)*
X46355000Y61595000D03*
G04 #@! TO.P,J3,33,PC13*
G04 #@! TO.N,PC13*
X43815000Y59055000D03*
G04 #@! TO.P,J3,34,PC14*
G04 #@! TO.N,PC14*
X43815000Y61595000D03*
G04 #@! TO.P,J3,35,PC15*
G04 #@! TO.N,BO0*
X41275000Y59055000D03*
G04 #@! TO.P,J3,36,U7*
G04 #@! TO.N,unconnected-(J3-U7-Pad36)*
X41275000Y61595000D03*
G04 #@! TO.P,J3,37,U6*
G04 #@! TO.N,unconnected-(J3-U6-Pad37)*
X38735000Y59055000D03*
G04 #@! TO.P,J3,38,U5*
G04 #@! TO.N,unconnected-(J3-U5-Pad38)*
X38735000Y61595000D03*
G04 #@! TO.P,J3,39,GND*
G04 #@! TO.N,GND*
X36195000Y59055000D03*
G04 #@! TO.P,J3,40,VB*
G04 #@! TO.N,VBAT*
X36195000Y61595000D03*
G04 #@! TD*
D15*
G04 #@! TO.P,JP2,1,A*
G04 #@! TO.N,+3V3*
X53355000Y38100000D03*
D16*
G04 #@! TO.P,JP2,2,B*
G04 #@! TO.N,VDDA*
X52055000Y38100000D03*
G04 #@! TD*
D17*
G04 #@! TO.P,JP1,1,A*
G04 #@! TO.N,+3V3*
X52055000Y43180000D03*
D18*
G04 #@! TO.P,JP1,2,B*
G04 #@! TO.N,VBAT*
X53355000Y43180000D03*
G04 #@! TD*
D17*
G04 #@! TO.P,JP3,1,A*
G04 #@! TO.N,NRST*
X36180000Y30480000D03*
D18*
G04 #@! TO.P,JP3,2,B*
G04 #@! TO.N,HNRST*
X37480000Y30480000D03*
G04 #@! TD*
D17*
G04 #@! TO.P,JP4,1,A*
G04 #@! TO.N,BO0*
X36180000Y33020000D03*
D18*
G04 #@! TO.P,JP4,2,B*
G04 #@! TO.N,HBO0*
X37480000Y33020000D03*
G04 #@! TD*
D19*
G04 #@! TO.N,+3V3*
X86360000Y33020000D03*
X85090000Y33020000D03*
X83820000Y33020000D03*
X83820000Y29210000D03*
X85090000Y29210000D03*
X86360000Y29210000D03*
X59690000Y41910000D03*
X83820000Y31115000D03*
X23977500Y39852500D03*
X60960000Y41910000D03*
X85090000Y31115000D03*
X59690000Y40640000D03*
X86360000Y31115000D03*
X60960000Y40640000D03*
G04 #@! TO.N,GND*
X67310000Y36195000D03*
X64135000Y28575000D03*
X69215000Y25400000D03*
X64135000Y43815000D03*
X61595000Y57150000D03*
X65325000Y51775000D03*
X64135000Y41275000D03*
X56515000Y38735000D03*
X88265000Y26035000D03*
X60325000Y37465000D03*
X60325000Y39370000D03*
X60325000Y45085000D03*
X83820000Y41275000D03*
X80645000Y43815000D03*
X55245000Y36195000D03*
X90805000Y26035000D03*
X62230000Y41275000D03*
X90805000Y27305000D03*
X65405000Y55245000D03*
X62230000Y37465000D03*
X58420000Y41275000D03*
X80645000Y38100000D03*
X50165000Y51435000D03*
X65405000Y46355000D03*
X64135000Y38735000D03*
X64135000Y33020000D03*
X86995000Y26035000D03*
X56515000Y43815000D03*
X56515000Y41275000D03*
X46990000Y36830000D03*
X57785000Y51435000D03*
X55880000Y31750000D03*
X77470000Y41275000D03*
X60325000Y43180000D03*
X53340000Y50800000D03*
X89535000Y26035000D03*
G04 #@! TO.N,PA12*
X69850000Y43180000D03*
G04 #@! TO.N,PA11*
X71120000Y42545000D03*
G04 #@! TO.N,PA10*
X72390000Y41910000D03*
G04 #@! TO.N,PA9*
X73660000Y41275000D03*
G04 #@! TO.N,PA8*
X74930000Y40640000D03*
G04 #@! TO.N,NRST*
X34925000Y30480000D03*
G04 #@! TO.N,+5V*
X92075000Y33655000D03*
G04 #@! TO.N,BO0*
X34925000Y33020000D03*
X57785000Y50165000D03*
X41275000Y50165000D03*
X49530000Y50165000D03*
G04 #@! TO.N,VBAT*
X55245000Y47625000D03*
G04 #@! TO.N,VDDA*
X46990000Y34925000D03*
G04 #@! TD*
D20*
G04 #@! TO.N,+3V3*
X52107500Y39852500D02*
X58902500Y39852500D01*
X53355000Y38100000D02*
X53355000Y39715000D01*
X85090000Y48750000D02*
X85090000Y33020000D01*
X60960000Y40640000D02*
X60960000Y41910000D01*
X83223999Y60286001D02*
X83223999Y50616001D01*
X52107500Y39852500D02*
X23977500Y39852500D01*
X81915000Y61595000D02*
X83223999Y60286001D01*
X83223999Y27343999D02*
X83223999Y22263999D01*
X59690000Y41910000D02*
X59690000Y40640000D01*
X83223999Y50616001D02*
X85090000Y48750000D01*
X85090000Y29210000D02*
X83223999Y27343999D01*
X83223999Y22263999D02*
X81915000Y20955000D01*
X59690000Y40640000D02*
X58902500Y39852500D01*
X85090000Y31115000D02*
X70485000Y31115000D01*
X60960000Y40640000D02*
X70485000Y31115000D01*
X59690000Y40640000D02*
X60960000Y40640000D01*
X52107500Y39852500D02*
X52107500Y43127500D01*
X60960000Y41910000D02*
X59690000Y41910000D01*
D21*
G04 #@! TO.N,PA12*
X69215000Y61595000D02*
X70638299Y60171701D01*
X70638299Y43968299D02*
X69850000Y43180000D01*
X70638299Y60171701D02*
X70638299Y43968299D01*
G04 #@! TO.N,PA11*
X71120000Y42545000D02*
X71755000Y43180000D01*
X71755000Y43180000D02*
X71755000Y59055000D01*
G04 #@! TO.N,PA10*
X73178299Y42698299D02*
X73178299Y60171701D01*
X72390000Y41910000D02*
X73178299Y42698299D01*
X73178299Y60171701D02*
X71755000Y61595000D01*
G04 #@! TO.N,PA9*
X73660000Y41275000D02*
X74295000Y41910000D01*
X74295000Y41910000D02*
X74295000Y59055000D01*
G04 #@! TO.N,PA8*
X75411701Y41121701D02*
X75411701Y60478299D01*
X74930000Y40640000D02*
X75411701Y41121701D01*
X75411701Y60478299D02*
X74295000Y61595000D01*
G04 #@! TO.N,NRST*
X36180000Y30480000D02*
X34925000Y30480000D01*
G04 #@! TO.N,BO0*
X57785000Y50165000D02*
X49530000Y50165000D01*
X36180000Y33020000D02*
X34925000Y33020000D01*
D22*
G04 #@! TO.N,VBAT*
X55245000Y47625000D02*
X55245000Y46355000D01*
X55245000Y47625000D02*
X41275000Y47625000D01*
X34925000Y61595000D02*
X36195000Y61595000D01*
X33655000Y60325000D02*
X34925000Y61595000D01*
X55245000Y46355000D02*
X53355000Y44465000D01*
X41275000Y47625000D02*
X33655000Y55245000D01*
X33655000Y55245000D02*
X33655000Y60325000D01*
X53355000Y44465000D02*
X53355000Y43180000D01*
G04 #@! TO.N,VDDA*
X41275000Y19050000D02*
X42545000Y20320000D01*
X46990000Y34925000D02*
X48880000Y34925000D01*
X48880000Y34925000D02*
X52055000Y38100000D01*
X36195000Y20955000D02*
X38100000Y19050000D01*
X38100000Y19050000D02*
X41275000Y19050000D01*
X42545000Y30480000D02*
X46990000Y34925000D01*
X42545000Y20320000D02*
X42545000Y30480000D01*
G04 #@! TO.N,HNRST*
X38735000Y29225000D02*
X38735000Y23495000D01*
X37480000Y30480000D02*
X38735000Y29225000D01*
G04 #@! TO.N,HBO0*
X37480000Y33020000D02*
X40005000Y30495000D01*
X40005000Y30495000D02*
X40005000Y22225000D01*
X40005000Y22225000D02*
X38735000Y20955000D01*
G04 #@! TD*
G04 #@! TA.AperFunction,Conductor*
G04 #@! TO.N,GND*
G36*
X95887264Y66664364D02*
G01*
X96185368Y66646332D01*
X96194367Y66645238D01*
X96485884Y66591816D01*
X96494679Y66589648D01*
X96777628Y66501478D01*
X96786119Y66498258D01*
X97056370Y66376628D01*
X97064408Y66372409D01*
X97318031Y66219089D01*
X97325504Y66213930D01*
X97558790Y66031162D01*
X97565587Y66025140D01*
X97775139Y65815588D01*
X97781161Y65808791D01*
X97963929Y65575505D01*
X97969088Y65568032D01*
X98122408Y65314409D01*
X98126628Y65306368D01*
X98248257Y65036120D01*
X98251477Y65027629D01*
X98339644Y64744691D01*
X98341817Y64735874D01*
X98395236Y64444376D01*
X98396331Y64435362D01*
X98414363Y64137266D01*
X98414500Y64132725D01*
X98414500Y18417276D01*
X98414363Y18412735D01*
X98396331Y18114639D01*
X98395236Y18105625D01*
X98341817Y17814127D01*
X98339644Y17805310D01*
X98251477Y17522372D01*
X98248257Y17513881D01*
X98126628Y17243633D01*
X98122408Y17235592D01*
X97969088Y16981969D01*
X97963929Y16974496D01*
X97781161Y16741210D01*
X97775139Y16734413D01*
X97565587Y16524861D01*
X97558790Y16518839D01*
X97325504Y16336071D01*
X97318031Y16330912D01*
X97064408Y16177592D01*
X97056367Y16173372D01*
X96786119Y16051743D01*
X96777628Y16048523D01*
X96494690Y15960356D01*
X96485873Y15958183D01*
X96194375Y15904764D01*
X96185361Y15903669D01*
X95927381Y15888064D01*
X95887263Y15885637D01*
X95882725Y15885500D01*
X24767275Y15885500D01*
X24762736Y15885637D01*
X24717186Y15888393D01*
X24464638Y15903669D01*
X24455624Y15904764D01*
X24164126Y15958183D01*
X24155309Y15960356D01*
X23872371Y16048523D01*
X23863880Y16051743D01*
X23593632Y16173372D01*
X23585591Y16177592D01*
X23331968Y16330912D01*
X23324495Y16336071D01*
X23091209Y16518839D01*
X23084412Y16524861D01*
X22874860Y16734413D01*
X22868838Y16741210D01*
X22686070Y16974496D01*
X22680911Y16981969D01*
X22527591Y17235592D01*
X22523371Y17243633D01*
X22401742Y17513881D01*
X22398522Y17522372D01*
X22340735Y17707818D01*
X22310352Y17805321D01*
X22308184Y17814116D01*
X22254762Y18105633D01*
X22253668Y18114632D01*
X22235637Y18412736D01*
X22235500Y18417276D01*
X22235500Y19806288D01*
X24184500Y19806288D01*
X24184500Y19563712D01*
X24216162Y19323211D01*
X24278946Y19088900D01*
X24278947Y19088896D01*
X24278948Y19088895D01*
X24371776Y18864787D01*
X24493065Y18654709D01*
X24640730Y18462268D01*
X24640742Y18462254D01*
X24812253Y18290743D01*
X24812267Y18290731D01*
X24836981Y18271767D01*
X25004711Y18143064D01*
X25214788Y18021776D01*
X25438900Y17928946D01*
X25673211Y17866162D01*
X25913712Y17834500D01*
X25913715Y17834500D01*
X26156285Y17834500D01*
X26156288Y17834500D01*
X26396789Y17866162D01*
X26631100Y17928946D01*
X26855212Y18021776D01*
X27065289Y18143064D01*
X27257738Y18290735D01*
X27429265Y18462262D01*
X27576936Y18654711D01*
X27698224Y18864788D01*
X27791054Y19088900D01*
X27853838Y19323211D01*
X27885500Y19563712D01*
X27885500Y19806288D01*
X27853838Y20046789D01*
X27791054Y20281100D01*
X27698224Y20505212D01*
X27576936Y20715289D01*
X27429265Y20907738D01*
X27429263Y20907740D01*
X27429257Y20907747D01*
X27257746Y21079258D01*
X27257732Y21079270D01*
X27065291Y21226935D01*
X26855213Y21348224D01*
X26631105Y21441052D01*
X26631104Y21441053D01*
X26631100Y21441054D01*
X26396789Y21503838D01*
X26156288Y21535500D01*
X25913712Y21535500D01*
X25673211Y21503838D01*
X25438900Y21441054D01*
X25438897Y21441053D01*
X25438894Y21441052D01*
X25214786Y21348224D01*
X25004708Y21226935D01*
X24812267Y21079270D01*
X24812253Y21079258D01*
X24640742Y20907747D01*
X24640730Y20907733D01*
X24493065Y20715292D01*
X24371776Y20505214D01*
X24278948Y20281106D01*
X24278946Y20281100D01*
X24216162Y20046789D01*
X24184500Y19806288D01*
X22235500Y19806288D01*
X22235500Y24360013D01*
X35192600Y24360013D01*
X35192600Y23647400D01*
X35718198Y23647400D01*
X35695000Y23560826D01*
X35695000Y23429174D01*
X35718198Y23342600D01*
X35192600Y23342600D01*
X35192600Y22629988D01*
X35201441Y22585538D01*
X35201442Y22585536D01*
X35235126Y22535127D01*
X35285535Y22501443D01*
X35285537Y22501442D01*
X35329987Y22492600D01*
X36042600Y22492600D01*
X36042600Y23018198D01*
X36129174Y22995000D01*
X36260826Y22995000D01*
X36347400Y23018198D01*
X36347400Y22492600D01*
X37060013Y22492600D01*
X37104462Y22501442D01*
X37104464Y22501443D01*
X37154873Y22535127D01*
X37188557Y22585536D01*
X37188558Y22585538D01*
X37197400Y22629988D01*
X37197400Y23342600D01*
X36671802Y23342600D01*
X36695000Y23429174D01*
X36695000Y23560826D01*
X36671802Y23647400D01*
X37197400Y23647400D01*
X37197400Y24360013D01*
X37188558Y24404463D01*
X37188557Y24404465D01*
X37154873Y24454874D01*
X37104464Y24488558D01*
X37104462Y24488559D01*
X37060013Y24497400D01*
X36347400Y24497400D01*
X36347400Y23971803D01*
X36260826Y23995000D01*
X36129174Y23995000D01*
X36042600Y23971803D01*
X36042600Y24497400D01*
X35329987Y24497400D01*
X35285537Y24488559D01*
X35285535Y24488558D01*
X35235126Y24454874D01*
X35201442Y24404465D01*
X35201441Y24404463D01*
X35192600Y24360013D01*
X22235500Y24360013D01*
X22235500Y39918708D01*
X23474600Y39918708D01*
X23474600Y39786292D01*
X23495162Y39709550D01*
X23508871Y39658386D01*
X23575078Y39543714D01*
X23575082Y39543708D01*
X23668707Y39450083D01*
X23668710Y39450081D01*
X23668712Y39450079D01*
X23719275Y39420887D01*
X23783385Y39383872D01*
X23783387Y39383872D01*
X23783388Y39383871D01*
X23911292Y39349600D01*
X23911294Y39349600D01*
X24043706Y39349600D01*
X24043708Y39349600D01*
X24171612Y39383871D01*
X24286288Y39450079D01*
X24286294Y39450086D01*
X24290199Y39453080D01*
X24291197Y39451779D01*
X24331804Y39470714D01*
X24338358Y39471000D01*
X52057275Y39471000D01*
X52157725Y39471000D01*
X52898300Y39471000D01*
X52946638Y39453407D01*
X52972358Y39408858D01*
X52973500Y39395800D01*
X52973500Y39083100D01*
X52955907Y39034762D01*
X52911358Y39009042D01*
X52898300Y39007900D01*
X52855000Y39007900D01*
X52776050Y38986745D01*
X52776049Y38986745D01*
X52776048Y38986744D01*
X52776046Y38986743D01*
X52758174Y38968870D01*
X52711554Y38947130D01*
X52661867Y38960444D01*
X52651826Y38968870D01*
X52633953Y38986743D01*
X52633951Y38986744D01*
X52633950Y38986745D01*
X52555000Y39007900D01*
X51989174Y39007900D01*
X51989167Y39007900D01*
X51948314Y39002521D01*
X51948290Y39002516D01*
X51821146Y38968447D01*
X51821129Y38968441D01*
X51783058Y38952671D01*
X51669040Y38886843D01*
X51636346Y38861756D01*
X51636332Y38861744D01*
X51543256Y38768668D01*
X51543244Y38768654D01*
X51518157Y38735960D01*
X51452329Y38621942D01*
X51436559Y38583871D01*
X51436553Y38583854D01*
X51402484Y38456710D01*
X51402479Y38456686D01*
X51397100Y38415833D01*
X51397100Y37905007D01*
X51379507Y37856669D01*
X51375074Y37851833D01*
X48775567Y35252326D01*
X48728947Y35230586D01*
X48722393Y35230300D01*
X47427058Y35230300D01*
X47378720Y35247893D01*
X47373884Y35252326D01*
X47298792Y35327418D01*
X47298786Y35327422D01*
X47184114Y35393629D01*
X47120160Y35410765D01*
X47056208Y35427900D01*
X46923792Y35427900D01*
X46872630Y35414192D01*
X46795885Y35393629D01*
X46681213Y35327422D01*
X46681207Y35327418D01*
X46587582Y35233793D01*
X46587578Y35233787D01*
X46521371Y35119115D01*
X46516382Y35100493D01*
X46487100Y34991208D01*
X46487100Y34991206D01*
X46487100Y34885008D01*
X46469507Y34836670D01*
X46465074Y34831834D01*
X42300699Y30667460D01*
X42260509Y30597849D01*
X42260506Y30597841D01*
X42239700Y30520193D01*
X42239700Y30520191D01*
X42239700Y24104299D01*
X42222107Y24055961D01*
X42177558Y24030241D01*
X42126900Y24039174D01*
X42101974Y24062520D01*
X42074058Y24104299D01*
X42054004Y24134312D01*
X42054001Y24134315D01*
X42053998Y24134319D01*
X41914317Y24274000D01*
X41914313Y24274003D01*
X41914312Y24274004D01*
X41750051Y24383759D01*
X41626720Y24434844D01*
X41567538Y24459358D01*
X41567537Y24459359D01*
X41373778Y24497900D01*
X41373777Y24497900D01*
X41176223Y24497900D01*
X41176222Y24497900D01*
X40982462Y24459359D01*
X40982461Y24459358D01*
X40799950Y24383760D01*
X40635682Y24274000D01*
X40496001Y24134319D01*
X40495995Y24134311D01*
X40448026Y24062520D01*
X40406543Y24032103D01*
X40355213Y24035468D01*
X40318055Y24071039D01*
X40310300Y24104299D01*
X40310300Y30535191D01*
X40310300Y30535193D01*
X40289494Y30612841D01*
X40289494Y30612842D01*
X40249300Y30682459D01*
X40249299Y30682460D01*
X40249298Y30682462D01*
X38159926Y32771834D01*
X38138186Y32818454D01*
X38137900Y32825008D01*
X38137900Y33335828D01*
X38137899Y33335833D01*
X38132520Y33376686D01*
X38132519Y33376694D01*
X38109959Y33460886D01*
X38098446Y33503854D01*
X38098440Y33503871D01*
X38082670Y33541942D01*
X38082670Y33541943D01*
X38016844Y33655957D01*
X37991751Y33688659D01*
X37991749Y33688661D01*
X37991743Y33688668D01*
X37898667Y33781744D01*
X37898653Y33781756D01*
X37865959Y33806843D01*
X37792741Y33849115D01*
X37751943Y33872670D01*
X37751941Y33872671D01*
X37713870Y33888441D01*
X37713853Y33888447D01*
X37586709Y33922516D01*
X37586685Y33922521D01*
X37545832Y33927900D01*
X37545826Y33927900D01*
X36980000Y33927900D01*
X36901050Y33906745D01*
X36901049Y33906745D01*
X36901048Y33906744D01*
X36901046Y33906743D01*
X36883174Y33888870D01*
X36836554Y33867130D01*
X36786867Y33880444D01*
X36776826Y33888870D01*
X36758953Y33906743D01*
X36758951Y33906744D01*
X36758950Y33906745D01*
X36680000Y33927900D01*
X36114174Y33927900D01*
X36114167Y33927900D01*
X36073314Y33922521D01*
X36073290Y33922516D01*
X35946146Y33888447D01*
X35946129Y33888441D01*
X35908058Y33872671D01*
X35794040Y33806843D01*
X35761346Y33781756D01*
X35761332Y33781744D01*
X35668256Y33688668D01*
X35668244Y33688654D01*
X35643157Y33655960D01*
X35577329Y33541942D01*
X35561559Y33503871D01*
X35561553Y33503854D01*
X35527484Y33376710D01*
X35527479Y33376686D01*
X35524306Y33352583D01*
X35517452Y33339419D01*
X35514875Y33324800D01*
X35505938Y33317302D01*
X35500553Y33306956D01*
X35486841Y33301277D01*
X35475470Y33291735D01*
X35455156Y33288154D01*
X35453029Y33287272D01*
X35449750Y33287200D01*
X35394849Y33287200D01*
X35346511Y33304793D01*
X35329723Y33324801D01*
X35327420Y33328790D01*
X35233792Y33422418D01*
X35233786Y33422422D01*
X35119114Y33488629D01*
X35055160Y33505765D01*
X34991208Y33522900D01*
X34858792Y33522900D01*
X34807630Y33509192D01*
X34730885Y33488629D01*
X34616213Y33422422D01*
X34616207Y33422418D01*
X34522582Y33328793D01*
X34522578Y33328787D01*
X34456371Y33214115D01*
X34439755Y33152100D01*
X34422100Y33086208D01*
X34422100Y32953792D01*
X34442662Y32877050D01*
X34456371Y32825886D01*
X34522578Y32711214D01*
X34522582Y32711208D01*
X34616207Y32617583D01*
X34616210Y32617581D01*
X34616212Y32617579D01*
X34666775Y32588387D01*
X34730885Y32551372D01*
X34730887Y32551372D01*
X34730888Y32551371D01*
X34858792Y32517100D01*
X34858794Y32517100D01*
X34991206Y32517100D01*
X34991208Y32517100D01*
X35119112Y32551371D01*
X35233788Y32617579D01*
X35327421Y32711212D01*
X35329723Y32715199D01*
X35369128Y32748264D01*
X35369129Y32748265D01*
X35394849Y32752800D01*
X35449750Y32752800D01*
X35498088Y32735207D01*
X35523808Y32690658D01*
X35524306Y32687417D01*
X35527479Y32663315D01*
X35527484Y32663291D01*
X35561553Y32536147D01*
X35561559Y32536130D01*
X35577329Y32498059D01*
X35643157Y32384041D01*
X35668244Y32351347D01*
X35668256Y32351333D01*
X35761332Y32258257D01*
X35761346Y32258245D01*
X35784448Y32240518D01*
X35794043Y32233156D01*
X35908057Y32167330D01*
X35946139Y32151556D01*
X35946144Y32151555D01*
X35946146Y32151554D01*
X36073290Y32117485D01*
X36073294Y32117484D01*
X36073306Y32117481D01*
X36114168Y32112101D01*
X36114172Y32112100D01*
X36114174Y32112100D01*
X36679997Y32112100D01*
X36680000Y32112100D01*
X36758950Y32133255D01*
X36758953Y32133258D01*
X36776826Y32151130D01*
X36823446Y32172870D01*
X36873133Y32159556D01*
X36883174Y32151130D01*
X36901046Y32133258D01*
X36901048Y32133257D01*
X36901050Y32133255D01*
X36980000Y32112100D01*
X36980003Y32112100D01*
X37545828Y32112100D01*
X37545830Y32112101D01*
X37586694Y32117481D01*
X37713861Y32151556D01*
X37751943Y32167330D01*
X37796412Y32193006D01*
X37847070Y32201938D01*
X37887187Y32181054D01*
X39677674Y30390567D01*
X39699414Y30343947D01*
X39699700Y30337393D01*
X39699700Y24104299D01*
X39682107Y24055961D01*
X39637558Y24030241D01*
X39586900Y24039174D01*
X39561974Y24062520D01*
X39534058Y24104299D01*
X39514004Y24134312D01*
X39514001Y24134315D01*
X39513998Y24134319D01*
X39374317Y24274000D01*
X39374313Y24274003D01*
X39374312Y24274004D01*
X39210051Y24383759D01*
X39210049Y24383760D01*
X39086722Y24434844D01*
X39048797Y24469597D01*
X39040300Y24504320D01*
X39040300Y29265191D01*
X39040300Y29265193D01*
X39019494Y29342841D01*
X38984119Y29404112D01*
X38979300Y29412459D01*
X38979298Y29412461D01*
X38979296Y29412464D01*
X38159926Y30231834D01*
X38138186Y30278454D01*
X38137900Y30285008D01*
X38137900Y30795828D01*
X38137899Y30795833D01*
X38132520Y30836686D01*
X38132519Y30836694D01*
X38102525Y30948629D01*
X38098446Y30963854D01*
X38098440Y30963871D01*
X38082670Y31001942D01*
X38082670Y31001943D01*
X38016844Y31115957D01*
X37991751Y31148659D01*
X37991749Y31148661D01*
X37991743Y31148668D01*
X37898667Y31241744D01*
X37898653Y31241756D01*
X37865959Y31266843D01*
X37793027Y31308950D01*
X37751943Y31332670D01*
X37751941Y31332671D01*
X37713870Y31348441D01*
X37713853Y31348447D01*
X37586709Y31382516D01*
X37586685Y31382521D01*
X37545832Y31387900D01*
X37545826Y31387900D01*
X36980000Y31387900D01*
X36901050Y31366745D01*
X36901049Y31366745D01*
X36901048Y31366744D01*
X36901046Y31366743D01*
X36883174Y31348870D01*
X36836554Y31327130D01*
X36786867Y31340444D01*
X36776826Y31348870D01*
X36758953Y31366743D01*
X36758951Y31366744D01*
X36758950Y31366745D01*
X36680000Y31387900D01*
X36114174Y31387900D01*
X36114167Y31387900D01*
X36073314Y31382521D01*
X36073290Y31382516D01*
X35946146Y31348447D01*
X35946129Y31348441D01*
X35908058Y31332671D01*
X35794040Y31266843D01*
X35761346Y31241756D01*
X35761332Y31241744D01*
X35668256Y31148668D01*
X35668244Y31148654D01*
X35643157Y31115960D01*
X35577329Y31001942D01*
X35561559Y30963871D01*
X35561553Y30963854D01*
X35527484Y30836710D01*
X35527479Y30836686D01*
X35524306Y30812583D01*
X35517452Y30799419D01*
X35514875Y30784800D01*
X35505938Y30777302D01*
X35500553Y30766956D01*
X35486841Y30761277D01*
X35475470Y30751735D01*
X35455156Y30748154D01*
X35453029Y30747272D01*
X35449750Y30747200D01*
X35394849Y30747200D01*
X35346511Y30764793D01*
X35329723Y30784801D01*
X35327420Y30788790D01*
X35233792Y30882418D01*
X35233786Y30882422D01*
X35119114Y30948629D01*
X35055160Y30965765D01*
X34991208Y30982900D01*
X34858792Y30982900D01*
X34807630Y30969192D01*
X34730885Y30948629D01*
X34616213Y30882422D01*
X34616207Y30882418D01*
X34522582Y30788793D01*
X34522578Y30788787D01*
X34456371Y30674115D01*
X34454588Y30667459D01*
X34422100Y30546208D01*
X34422100Y30413792D01*
X34442571Y30337393D01*
X34456371Y30285886D01*
X34522578Y30171214D01*
X34522582Y30171208D01*
X34616207Y30077583D01*
X34616210Y30077581D01*
X34616212Y30077579D01*
X34666775Y30048387D01*
X34730885Y30011372D01*
X34730887Y30011372D01*
X34730888Y30011371D01*
X34858792Y29977100D01*
X34858794Y29977100D01*
X34991206Y29977100D01*
X34991208Y29977100D01*
X35119112Y30011371D01*
X35233788Y30077579D01*
X35327421Y30171212D01*
X35329723Y30175199D01*
X35369128Y30208264D01*
X35369129Y30208265D01*
X35394849Y30212800D01*
X35449750Y30212800D01*
X35498088Y30195207D01*
X35523808Y30150658D01*
X35524306Y30147417D01*
X35527479Y30123315D01*
X35527484Y30123291D01*
X35561553Y29996147D01*
X35561559Y29996130D01*
X35577329Y29958059D01*
X35643157Y29844041D01*
X35668244Y29811347D01*
X35668256Y29811333D01*
X35761332Y29718257D01*
X35761346Y29718245D01*
X35784448Y29700518D01*
X35794043Y29693156D01*
X35908057Y29627330D01*
X35946139Y29611556D01*
X35946144Y29611555D01*
X35946146Y29611554D01*
X36073290Y29577485D01*
X36073294Y29577484D01*
X36073306Y29577481D01*
X36114168Y29572101D01*
X36114172Y29572100D01*
X36114174Y29572100D01*
X36679997Y29572100D01*
X36680000Y29572100D01*
X36758950Y29593255D01*
X36758953Y29593258D01*
X36776826Y29611130D01*
X36823446Y29632870D01*
X36873133Y29619556D01*
X36883174Y29611130D01*
X36901046Y29593258D01*
X36901048Y29593257D01*
X36901050Y29593255D01*
X36980000Y29572100D01*
X36980003Y29572100D01*
X37545828Y29572100D01*
X37545830Y29572101D01*
X37586694Y29577481D01*
X37713861Y29611556D01*
X37751943Y29627330D01*
X37796412Y29653006D01*
X37847070Y29661938D01*
X37887187Y29641054D01*
X38407674Y29120567D01*
X38429414Y29073947D01*
X38429700Y29067393D01*
X38429700Y24504320D01*
X38412107Y24455982D01*
X38383278Y24434844D01*
X38259950Y24383760D01*
X38095682Y24274000D01*
X37956000Y24134318D01*
X37846240Y23970050D01*
X37770642Y23787539D01*
X37770641Y23787538D01*
X37732100Y23593778D01*
X37732100Y23396223D01*
X37770641Y23202463D01*
X37770642Y23202462D01*
X37846241Y23019949D01*
X37955996Y22855688D01*
X37955997Y22855687D01*
X37956000Y22855683D01*
X38095682Y22716001D01*
X38095685Y22715999D01*
X38095688Y22715996D01*
X38259949Y22606241D01*
X38442461Y22530643D01*
X38442462Y22530642D01*
X38442463Y22530642D01*
X38442465Y22530641D01*
X38572218Y22504832D01*
X38636222Y22492100D01*
X38636223Y22492100D01*
X38833778Y22492100D01*
X38889967Y22503277D01*
X39027535Y22530641D01*
X39210051Y22606241D01*
X39374312Y22715996D01*
X39514004Y22855688D01*
X39561975Y22927483D01*
X39603457Y22957898D01*
X39654786Y22954534D01*
X39691945Y22918962D01*
X39699700Y22885702D01*
X39699700Y22382608D01*
X39682107Y22334270D01*
X39677674Y22329434D01*
X39232816Y21884577D01*
X39186196Y21862837D01*
X39150864Y21868275D01*
X39027538Y21919358D01*
X39027537Y21919359D01*
X38833778Y21957900D01*
X38833777Y21957900D01*
X38636223Y21957900D01*
X38636222Y21957900D01*
X38442462Y21919359D01*
X38442461Y21919358D01*
X38259950Y21843760D01*
X38095682Y21734000D01*
X37956000Y21594318D01*
X37846240Y21430050D01*
X37770642Y21247539D01*
X37770641Y21247538D01*
X37732100Y21053778D01*
X37732100Y20856223D01*
X37770641Y20662463D01*
X37770642Y20662462D01*
X37846240Y20479951D01*
X37846241Y20479949D01*
X37955996Y20315688D01*
X37955997Y20315687D01*
X37956000Y20315683D01*
X38095682Y20176001D01*
X38095685Y20175999D01*
X38095688Y20175996D01*
X38259949Y20066241D01*
X38442461Y19990643D01*
X38442462Y19990642D01*
X38442463Y19990642D01*
X38442465Y19990641D01*
X38572218Y19964832D01*
X38636222Y19952100D01*
X38636223Y19952100D01*
X38833778Y19952100D01*
X38881889Y19961671D01*
X39027535Y19990641D01*
X39210051Y20066241D01*
X39374312Y20175996D01*
X39514004Y20315688D01*
X39623759Y20479949D01*
X39699359Y20662465D01*
X39737900Y20856223D01*
X39737900Y21053777D01*
X39732831Y21079258D01*
X39728264Y21102217D01*
X39699359Y21247535D01*
X39648272Y21370867D01*
X39646029Y21422257D01*
X39664571Y21452814D01*
X40249300Y22037541D01*
X40289494Y22107158D01*
X40295068Y22127964D01*
X40310300Y22184807D01*
X40310300Y22885702D01*
X40327893Y22934040D01*
X40372442Y22959760D01*
X40423100Y22950827D01*
X40448023Y22927485D01*
X40495996Y22855688D01*
X40495997Y22855687D01*
X40496000Y22855683D01*
X40635682Y22716001D01*
X40635685Y22715999D01*
X40635688Y22715996D01*
X40799949Y22606241D01*
X40982461Y22530643D01*
X40982462Y22530642D01*
X40982463Y22530642D01*
X40982465Y22530641D01*
X41112218Y22504832D01*
X41176222Y22492100D01*
X41176223Y22492100D01*
X41373778Y22492100D01*
X41429967Y22503277D01*
X41567535Y22530641D01*
X41750051Y22606241D01*
X41914312Y22715996D01*
X42054004Y22855688D01*
X42101975Y22927483D01*
X42143457Y22957898D01*
X42194786Y22954534D01*
X42231945Y22918962D01*
X42239700Y22885702D01*
X42239700Y21564299D01*
X42222107Y21515961D01*
X42177558Y21490241D01*
X42126900Y21499174D01*
X42101974Y21522520D01*
X42074058Y21564299D01*
X42054004Y21594312D01*
X42054001Y21594315D01*
X42053998Y21594319D01*
X41914317Y21734000D01*
X41914313Y21734003D01*
X41914312Y21734004D01*
X41750051Y21843759D01*
X41737287Y21849046D01*
X41567538Y21919358D01*
X41567537Y21919359D01*
X41373778Y21957900D01*
X41373777Y21957900D01*
X41176223Y21957900D01*
X41176222Y21957900D01*
X40982462Y21919359D01*
X40982461Y21919358D01*
X40799950Y21843760D01*
X40635682Y21734000D01*
X40496000Y21594318D01*
X40386240Y21430050D01*
X40310642Y21247539D01*
X40310641Y21247538D01*
X40272100Y21053778D01*
X40272100Y20856223D01*
X40310641Y20662463D01*
X40310642Y20662462D01*
X40386240Y20479951D01*
X40386241Y20479949D01*
X40495996Y20315688D01*
X40495997Y20315687D01*
X40496000Y20315683D01*
X40635682Y20176001D01*
X40635685Y20175999D01*
X40635688Y20175996D01*
X40799949Y20066241D01*
X40982461Y19990643D01*
X40982462Y19990642D01*
X40982463Y19990642D01*
X40982465Y19990641D01*
X41112218Y19964832D01*
X41176222Y19952100D01*
X41176223Y19952100D01*
X41373778Y19952100D01*
X41421889Y19961671D01*
X41567535Y19990641D01*
X41587582Y19998946D01*
X41638973Y20001190D01*
X41679784Y19969877D01*
X41690919Y19919656D01*
X41669536Y19876296D01*
X41170567Y19377326D01*
X41123947Y19355586D01*
X41117393Y19355300D01*
X38257608Y19355300D01*
X38209270Y19372893D01*
X38204434Y19377326D01*
X37124576Y20457184D01*
X37102836Y20503804D01*
X37108273Y20539134D01*
X37159359Y20662465D01*
X37197900Y20856223D01*
X37197900Y21053777D01*
X37192831Y21079258D01*
X37185168Y21117782D01*
X37159359Y21247535D01*
X37083759Y21430051D01*
X36974004Y21594312D01*
X36974001Y21594315D01*
X36973999Y21594318D01*
X36834317Y21734000D01*
X36834313Y21734003D01*
X36834312Y21734004D01*
X36670051Y21843759D01*
X36657287Y21849046D01*
X36487538Y21919358D01*
X36487537Y21919359D01*
X36293778Y21957900D01*
X36293777Y21957900D01*
X36096223Y21957900D01*
X36096222Y21957900D01*
X35902462Y21919359D01*
X35902461Y21919358D01*
X35719950Y21843760D01*
X35555682Y21734000D01*
X35416000Y21594318D01*
X35306240Y21430050D01*
X35230642Y21247539D01*
X35230641Y21247538D01*
X35192100Y21053778D01*
X35192100Y20856223D01*
X35230641Y20662463D01*
X35230642Y20662462D01*
X35306240Y20479951D01*
X35306241Y20479949D01*
X35415996Y20315688D01*
X35415997Y20315687D01*
X35416000Y20315683D01*
X35555682Y20176001D01*
X35555685Y20175999D01*
X35555688Y20175996D01*
X35719949Y20066241D01*
X35902461Y19990643D01*
X35902462Y19990642D01*
X35902463Y19990642D01*
X35902465Y19990641D01*
X36032218Y19964832D01*
X36096222Y19952100D01*
X36096223Y19952100D01*
X36293778Y19952100D01*
X36341889Y19961671D01*
X36487535Y19990641D01*
X36610865Y20041727D01*
X36662255Y20043970D01*
X36692816Y20025424D01*
X37912536Y18805703D01*
X37912545Y18805696D01*
X37982155Y18765508D01*
X37982159Y18765506D01*
X38059807Y18744700D01*
X38059810Y18744700D01*
X41315190Y18744700D01*
X41315193Y18744700D01*
X41392841Y18765506D01*
X41462459Y18805700D01*
X41979970Y19323211D01*
X42463048Y19806288D01*
X92764500Y19806288D01*
X92764500Y19563712D01*
X92796162Y19323211D01*
X92858946Y19088900D01*
X92858947Y19088896D01*
X92858948Y19088895D01*
X92951776Y18864787D01*
X93073065Y18654709D01*
X93220730Y18462268D01*
X93220742Y18462254D01*
X93392253Y18290743D01*
X93392267Y18290731D01*
X93416981Y18271767D01*
X93584711Y18143064D01*
X93794788Y18021776D01*
X94018900Y17928946D01*
X94253211Y17866162D01*
X94493712Y17834500D01*
X94493715Y17834500D01*
X94736285Y17834500D01*
X94736288Y17834500D01*
X94976789Y17866162D01*
X95211100Y17928946D01*
X95435212Y18021776D01*
X95645289Y18143064D01*
X95837738Y18290735D01*
X96009265Y18462262D01*
X96156936Y18654711D01*
X96278224Y18864788D01*
X96371054Y19088900D01*
X96433838Y19323211D01*
X96465500Y19563712D01*
X96465500Y19806288D01*
X96433838Y20046789D01*
X96371054Y20281100D01*
X96278224Y20505212D01*
X96156936Y20715289D01*
X96009265Y20907738D01*
X96009263Y20907740D01*
X96009257Y20907747D01*
X95837746Y21079258D01*
X95837732Y21079270D01*
X95645291Y21226935D01*
X95435213Y21348224D01*
X95211105Y21441052D01*
X95211104Y21441053D01*
X95211100Y21441054D01*
X94976789Y21503838D01*
X94736288Y21535500D01*
X94493712Y21535500D01*
X94253211Y21503838D01*
X94018900Y21441054D01*
X94018897Y21441053D01*
X94018894Y21441052D01*
X93794786Y21348224D01*
X93584708Y21226935D01*
X93392267Y21079270D01*
X93392253Y21079258D01*
X93220742Y20907747D01*
X93220730Y20907733D01*
X93073065Y20715292D01*
X92951776Y20505214D01*
X92858948Y20281106D01*
X92858946Y20281100D01*
X92796162Y20046789D01*
X92764500Y19806288D01*
X42463048Y19806288D01*
X42518684Y19861924D01*
X42789296Y20132537D01*
X42789300Y20132541D01*
X42829494Y20202158D01*
X42835068Y20222964D01*
X42850300Y20279807D01*
X42850300Y20350390D01*
X42850882Y20355040D01*
X42860602Y20374010D01*
X42867893Y20394040D01*
X42872116Y20396479D01*
X42874341Y20400819D01*
X42893982Y20409103D01*
X42912442Y20419760D01*
X42917244Y20418914D01*
X42921738Y20420808D01*
X42942106Y20414529D01*
X42963100Y20410827D01*
X42967508Y20406699D01*
X42970896Y20405654D01*
X42974378Y20400264D01*
X42988023Y20387485D01*
X43035996Y20315688D01*
X43035997Y20315687D01*
X43036000Y20315683D01*
X43175682Y20176001D01*
X43175685Y20175999D01*
X43175688Y20175996D01*
X43339949Y20066241D01*
X43522461Y19990643D01*
X43522462Y19990642D01*
X43522463Y19990642D01*
X43522465Y19990641D01*
X43652218Y19964832D01*
X43716222Y19952100D01*
X43716223Y19952100D01*
X43913778Y19952100D01*
X43961889Y19961671D01*
X44107535Y19990641D01*
X44290051Y20066241D01*
X44454312Y20175996D01*
X44594004Y20315688D01*
X44703759Y20479949D01*
X44779359Y20662465D01*
X44817900Y20856223D01*
X44817900Y21053777D01*
X44817900Y21053778D01*
X45352100Y21053778D01*
X45352100Y20856223D01*
X45390641Y20662463D01*
X45390642Y20662462D01*
X45466240Y20479951D01*
X45466241Y20479949D01*
X45575996Y20315688D01*
X45575997Y20315687D01*
X45576000Y20315683D01*
X45715682Y20176001D01*
X45715685Y20175999D01*
X45715688Y20175996D01*
X45879949Y20066241D01*
X46062461Y19990643D01*
X46062462Y19990642D01*
X46062463Y19990642D01*
X46062465Y19990641D01*
X46192218Y19964832D01*
X46256222Y19952100D01*
X46256223Y19952100D01*
X46453778Y19952100D01*
X46501889Y19961671D01*
X46647535Y19990641D01*
X46830051Y20066241D01*
X46994312Y20175996D01*
X47134004Y20315688D01*
X47243759Y20479949D01*
X47319359Y20662465D01*
X47357900Y20856223D01*
X47357900Y21053777D01*
X47357900Y21053778D01*
X47892100Y21053778D01*
X47892100Y20856223D01*
X47930641Y20662463D01*
X47930642Y20662462D01*
X48006240Y20479951D01*
X48006241Y20479949D01*
X48115996Y20315688D01*
X48115997Y20315687D01*
X48116000Y20315683D01*
X48255682Y20176001D01*
X48255685Y20175999D01*
X48255688Y20175996D01*
X48419949Y20066241D01*
X48602461Y19990643D01*
X48602462Y19990642D01*
X48602463Y19990642D01*
X48602465Y19990641D01*
X48732218Y19964832D01*
X48796222Y19952100D01*
X48796223Y19952100D01*
X48993778Y19952100D01*
X49041889Y19961671D01*
X49187535Y19990641D01*
X49370051Y20066241D01*
X49534312Y20175996D01*
X49674004Y20315688D01*
X49783759Y20479949D01*
X49859359Y20662465D01*
X49897900Y20856223D01*
X49897900Y21053777D01*
X49897900Y21053778D01*
X50432100Y21053778D01*
X50432100Y20856223D01*
X50470641Y20662463D01*
X50470642Y20662462D01*
X50546240Y20479951D01*
X50546241Y20479949D01*
X50655996Y20315688D01*
X50655997Y20315687D01*
X50656000Y20315683D01*
X50795682Y20176001D01*
X50795685Y20175999D01*
X50795688Y20175996D01*
X50959949Y20066241D01*
X51142461Y19990643D01*
X51142462Y19990642D01*
X51142463Y19990642D01*
X51142465Y19990641D01*
X51272218Y19964832D01*
X51336222Y19952100D01*
X51336223Y19952100D01*
X51533778Y19952100D01*
X51581889Y19961671D01*
X51727535Y19990641D01*
X51910051Y20066241D01*
X52074312Y20175996D01*
X52214004Y20315688D01*
X52323759Y20479949D01*
X52399359Y20662465D01*
X52437900Y20856223D01*
X52437900Y21053777D01*
X52437900Y21053778D01*
X52972100Y21053778D01*
X52972100Y20856223D01*
X53010641Y20662463D01*
X53010642Y20662462D01*
X53086240Y20479951D01*
X53086241Y20479949D01*
X53195996Y20315688D01*
X53195997Y20315687D01*
X53196000Y20315683D01*
X53335682Y20176001D01*
X53335685Y20175999D01*
X53335688Y20175996D01*
X53499949Y20066241D01*
X53682461Y19990643D01*
X53682462Y19990642D01*
X53682463Y19990642D01*
X53682465Y19990641D01*
X53812218Y19964832D01*
X53876222Y19952100D01*
X53876223Y19952100D01*
X54073778Y19952100D01*
X54121889Y19961671D01*
X54267535Y19990641D01*
X54450051Y20066241D01*
X54614312Y20175996D01*
X54754004Y20315688D01*
X54863759Y20479949D01*
X54939359Y20662465D01*
X54977900Y20856223D01*
X54977900Y21053777D01*
X54977900Y21053778D01*
X55512100Y21053778D01*
X55512100Y20856223D01*
X55550641Y20662463D01*
X55550642Y20662462D01*
X55626240Y20479951D01*
X55626241Y20479949D01*
X55735996Y20315688D01*
X55735997Y20315687D01*
X55736000Y20315683D01*
X55875682Y20176001D01*
X55875685Y20175999D01*
X55875688Y20175996D01*
X56039949Y20066241D01*
X56222461Y19990643D01*
X56222462Y19990642D01*
X56222463Y19990642D01*
X56222465Y19990641D01*
X56352218Y19964832D01*
X56416222Y19952100D01*
X56416223Y19952100D01*
X56613778Y19952100D01*
X56661889Y19961671D01*
X56807535Y19990641D01*
X56990051Y20066241D01*
X57154312Y20175996D01*
X57294004Y20315688D01*
X57403759Y20479949D01*
X57479359Y20662465D01*
X57517900Y20856223D01*
X57517900Y21053777D01*
X57517900Y21053778D01*
X58052100Y21053778D01*
X58052100Y20856223D01*
X58090641Y20662463D01*
X58090642Y20662462D01*
X58166240Y20479951D01*
X58166241Y20479949D01*
X58275996Y20315688D01*
X58275997Y20315687D01*
X58276000Y20315683D01*
X58415682Y20176001D01*
X58415685Y20175999D01*
X58415688Y20175996D01*
X58579949Y20066241D01*
X58762461Y19990643D01*
X58762462Y19990642D01*
X58762463Y19990642D01*
X58762465Y19990641D01*
X58892218Y19964832D01*
X58956222Y19952100D01*
X58956223Y19952100D01*
X59153778Y19952100D01*
X59201889Y19961671D01*
X59347535Y19990641D01*
X59530051Y20066241D01*
X59694312Y20175996D01*
X59834004Y20315688D01*
X59943759Y20479949D01*
X60019359Y20662465D01*
X60057900Y20856223D01*
X60057900Y21053777D01*
X60057900Y21053778D01*
X60592100Y21053778D01*
X60592100Y20856223D01*
X60630641Y20662463D01*
X60630642Y20662462D01*
X60706240Y20479951D01*
X60706241Y20479949D01*
X60815996Y20315688D01*
X60815997Y20315687D01*
X60816000Y20315683D01*
X60955682Y20176001D01*
X60955685Y20175999D01*
X60955688Y20175996D01*
X61119949Y20066241D01*
X61302461Y19990643D01*
X61302462Y19990642D01*
X61302463Y19990642D01*
X61302465Y19990641D01*
X61432218Y19964832D01*
X61496222Y19952100D01*
X61496223Y19952100D01*
X61693778Y19952100D01*
X61741889Y19961671D01*
X61887535Y19990641D01*
X62070051Y20066241D01*
X62234312Y20175996D01*
X62374004Y20315688D01*
X62483759Y20479949D01*
X62559359Y20662465D01*
X62597900Y20856223D01*
X62597900Y21053777D01*
X62597900Y21053778D01*
X63132100Y21053778D01*
X63132100Y20856223D01*
X63170641Y20662463D01*
X63170642Y20662462D01*
X63246240Y20479951D01*
X63246241Y20479949D01*
X63355996Y20315688D01*
X63355997Y20315687D01*
X63356000Y20315683D01*
X63495682Y20176001D01*
X63495685Y20175999D01*
X63495688Y20175996D01*
X63659949Y20066241D01*
X63842461Y19990643D01*
X63842462Y19990642D01*
X63842463Y19990642D01*
X63842465Y19990641D01*
X63972218Y19964832D01*
X64036222Y19952100D01*
X64036223Y19952100D01*
X64233778Y19952100D01*
X64281889Y19961671D01*
X64427535Y19990641D01*
X64610051Y20066241D01*
X64774312Y20175996D01*
X64914004Y20315688D01*
X65023759Y20479949D01*
X65099359Y20662465D01*
X65137900Y20856223D01*
X65137900Y21053777D01*
X65137900Y21053778D01*
X65672100Y21053778D01*
X65672100Y20856223D01*
X65710641Y20662463D01*
X65710642Y20662462D01*
X65786240Y20479951D01*
X65786241Y20479949D01*
X65895996Y20315688D01*
X65895997Y20315687D01*
X65896000Y20315683D01*
X66035682Y20176001D01*
X66035685Y20175999D01*
X66035688Y20175996D01*
X66199949Y20066241D01*
X66382461Y19990643D01*
X66382462Y19990642D01*
X66382463Y19990642D01*
X66382465Y19990641D01*
X66512218Y19964832D01*
X66576222Y19952100D01*
X66576223Y19952100D01*
X66773778Y19952100D01*
X66821889Y19961671D01*
X66967535Y19990641D01*
X67150051Y20066241D01*
X67314312Y20175996D01*
X67454004Y20315688D01*
X67563759Y20479949D01*
X67639359Y20662465D01*
X67677900Y20856223D01*
X67677900Y21053777D01*
X67677900Y21053778D01*
X68212100Y21053778D01*
X68212100Y20856223D01*
X68250641Y20662463D01*
X68250642Y20662462D01*
X68326240Y20479951D01*
X68326241Y20479949D01*
X68435996Y20315688D01*
X68435997Y20315687D01*
X68436000Y20315683D01*
X68575682Y20176001D01*
X68575685Y20175999D01*
X68575688Y20175996D01*
X68739949Y20066241D01*
X68922461Y19990643D01*
X68922462Y19990642D01*
X68922463Y19990642D01*
X68922465Y19990641D01*
X69052218Y19964832D01*
X69116222Y19952100D01*
X69116223Y19952100D01*
X69313778Y19952100D01*
X69361889Y19961671D01*
X69507535Y19990641D01*
X69690051Y20066241D01*
X69854312Y20175996D01*
X69994004Y20315688D01*
X70103759Y20479949D01*
X70179359Y20662465D01*
X70217900Y20856223D01*
X70217900Y21053777D01*
X70217900Y21053778D01*
X70752100Y21053778D01*
X70752100Y20856223D01*
X70790641Y20662463D01*
X70790642Y20662462D01*
X70866240Y20479951D01*
X70866241Y20479949D01*
X70975996Y20315688D01*
X70975997Y20315687D01*
X70976000Y20315683D01*
X71115682Y20176001D01*
X71115685Y20175999D01*
X71115688Y20175996D01*
X71279949Y20066241D01*
X71462461Y19990643D01*
X71462462Y19990642D01*
X71462463Y19990642D01*
X71462465Y19990641D01*
X71592218Y19964832D01*
X71656222Y19952100D01*
X71656223Y19952100D01*
X71853778Y19952100D01*
X71901889Y19961671D01*
X72047535Y19990641D01*
X72230051Y20066241D01*
X72394312Y20175996D01*
X72534004Y20315688D01*
X72643759Y20479949D01*
X72719359Y20662465D01*
X72757900Y20856223D01*
X72757900Y21053777D01*
X72757900Y21053778D01*
X73292100Y21053778D01*
X73292100Y20856223D01*
X73330641Y20662463D01*
X73330642Y20662462D01*
X73406240Y20479951D01*
X73406241Y20479949D01*
X73515996Y20315688D01*
X73515997Y20315687D01*
X73516000Y20315683D01*
X73655682Y20176001D01*
X73655685Y20175999D01*
X73655688Y20175996D01*
X73819949Y20066241D01*
X74002461Y19990643D01*
X74002462Y19990642D01*
X74002463Y19990642D01*
X74002465Y19990641D01*
X74132218Y19964832D01*
X74196222Y19952100D01*
X74196223Y19952100D01*
X74393778Y19952100D01*
X74441889Y19961671D01*
X74587535Y19990641D01*
X74770051Y20066241D01*
X74934312Y20175996D01*
X75074004Y20315688D01*
X75183759Y20479949D01*
X75259359Y20662465D01*
X75297900Y20856223D01*
X75297900Y21053777D01*
X75297900Y21053778D01*
X75832100Y21053778D01*
X75832100Y20856223D01*
X75870641Y20662463D01*
X75870642Y20662462D01*
X75946240Y20479951D01*
X75946241Y20479949D01*
X76055996Y20315688D01*
X76055997Y20315687D01*
X76056000Y20315683D01*
X76195682Y20176001D01*
X76195685Y20175999D01*
X76195688Y20175996D01*
X76359949Y20066241D01*
X76542461Y19990643D01*
X76542462Y19990642D01*
X76542463Y19990642D01*
X76542465Y19990641D01*
X76672218Y19964832D01*
X76736222Y19952100D01*
X76736223Y19952100D01*
X76933778Y19952100D01*
X76981889Y19961671D01*
X77127535Y19990641D01*
X77310051Y20066241D01*
X77474312Y20175996D01*
X77614004Y20315688D01*
X77723759Y20479949D01*
X77799359Y20662465D01*
X77837900Y20856223D01*
X77837900Y21053777D01*
X77837900Y21053778D01*
X78372100Y21053778D01*
X78372100Y20856223D01*
X78410641Y20662463D01*
X78410642Y20662462D01*
X78486240Y20479951D01*
X78486241Y20479949D01*
X78595996Y20315688D01*
X78595997Y20315687D01*
X78596000Y20315683D01*
X78735682Y20176001D01*
X78735685Y20175999D01*
X78735688Y20175996D01*
X78899949Y20066241D01*
X79082461Y19990643D01*
X79082462Y19990642D01*
X79082463Y19990642D01*
X79082465Y19990641D01*
X79212218Y19964832D01*
X79276222Y19952100D01*
X79276223Y19952100D01*
X79473778Y19952100D01*
X79521889Y19961671D01*
X79667535Y19990641D01*
X79850051Y20066241D01*
X80014312Y20175996D01*
X80154004Y20315688D01*
X80263759Y20479949D01*
X80339359Y20662465D01*
X80377900Y20856223D01*
X80377900Y21053777D01*
X80372831Y21079258D01*
X80365168Y21117782D01*
X80339359Y21247535D01*
X80263759Y21430051D01*
X80154004Y21594312D01*
X80154001Y21594315D01*
X80153999Y21594318D01*
X80014317Y21734000D01*
X80014313Y21734003D01*
X80014312Y21734004D01*
X79850051Y21843759D01*
X79837287Y21849046D01*
X79667538Y21919358D01*
X79667537Y21919359D01*
X79473778Y21957900D01*
X79473777Y21957900D01*
X79276223Y21957900D01*
X79276222Y21957900D01*
X79082462Y21919359D01*
X79082461Y21919358D01*
X78899950Y21843760D01*
X78735682Y21734000D01*
X78596000Y21594318D01*
X78486240Y21430050D01*
X78410642Y21247539D01*
X78410641Y21247538D01*
X78372100Y21053778D01*
X77837900Y21053778D01*
X77832831Y21079258D01*
X77825168Y21117782D01*
X77799359Y21247535D01*
X77723759Y21430051D01*
X77614004Y21594312D01*
X77614001Y21594315D01*
X77613999Y21594318D01*
X77474317Y21734000D01*
X77474313Y21734003D01*
X77474312Y21734004D01*
X77310051Y21843759D01*
X77297287Y21849046D01*
X77127538Y21919358D01*
X77127537Y21919359D01*
X76933778Y21957900D01*
X76933777Y21957900D01*
X76736223Y21957900D01*
X76736222Y21957900D01*
X76542462Y21919359D01*
X76542461Y21919358D01*
X76359950Y21843760D01*
X76195682Y21734000D01*
X76056000Y21594318D01*
X75946240Y21430050D01*
X75870642Y21247539D01*
X75870641Y21247538D01*
X75832100Y21053778D01*
X75297900Y21053778D01*
X75292831Y21079258D01*
X75285168Y21117782D01*
X75259359Y21247535D01*
X75183759Y21430051D01*
X75074004Y21594312D01*
X75074001Y21594315D01*
X75073999Y21594318D01*
X74934317Y21734000D01*
X74934313Y21734003D01*
X74934312Y21734004D01*
X74770051Y21843759D01*
X74757287Y21849046D01*
X74587538Y21919358D01*
X74587537Y21919359D01*
X74393778Y21957900D01*
X74393777Y21957900D01*
X74196223Y21957900D01*
X74196222Y21957900D01*
X74002462Y21919359D01*
X74002461Y21919358D01*
X73819950Y21843760D01*
X73655682Y21734000D01*
X73516000Y21594318D01*
X73406240Y21430050D01*
X73330642Y21247539D01*
X73330641Y21247538D01*
X73292100Y21053778D01*
X72757900Y21053778D01*
X72752831Y21079258D01*
X72745168Y21117782D01*
X72719359Y21247535D01*
X72643759Y21430051D01*
X72534004Y21594312D01*
X72534001Y21594315D01*
X72533999Y21594318D01*
X72394317Y21734000D01*
X72394313Y21734003D01*
X72394312Y21734004D01*
X72230051Y21843759D01*
X72217287Y21849046D01*
X72047538Y21919358D01*
X72047537Y21919359D01*
X71853778Y21957900D01*
X71853777Y21957900D01*
X71656223Y21957900D01*
X71656222Y21957900D01*
X71462462Y21919359D01*
X71462461Y21919358D01*
X71279950Y21843760D01*
X71115682Y21734000D01*
X70976000Y21594318D01*
X70866240Y21430050D01*
X70790642Y21247539D01*
X70790641Y21247538D01*
X70752100Y21053778D01*
X70217900Y21053778D01*
X70212831Y21079258D01*
X70205168Y21117782D01*
X70179359Y21247535D01*
X70103759Y21430051D01*
X69994004Y21594312D01*
X69994001Y21594315D01*
X69993999Y21594318D01*
X69854317Y21734000D01*
X69854313Y21734003D01*
X69854312Y21734004D01*
X69690051Y21843759D01*
X69677287Y21849046D01*
X69507538Y21919358D01*
X69507537Y21919359D01*
X69313778Y21957900D01*
X69313777Y21957900D01*
X69116223Y21957900D01*
X69116222Y21957900D01*
X68922462Y21919359D01*
X68922461Y21919358D01*
X68739950Y21843760D01*
X68575682Y21734000D01*
X68436000Y21594318D01*
X68326240Y21430050D01*
X68250642Y21247539D01*
X68250641Y21247538D01*
X68212100Y21053778D01*
X67677900Y21053778D01*
X67672831Y21079258D01*
X67665168Y21117782D01*
X67639359Y21247535D01*
X67563759Y21430051D01*
X67454004Y21594312D01*
X67454001Y21594315D01*
X67453999Y21594318D01*
X67314317Y21734000D01*
X67314313Y21734003D01*
X67314312Y21734004D01*
X67150051Y21843759D01*
X67137287Y21849046D01*
X66967538Y21919358D01*
X66967537Y21919359D01*
X66773778Y21957900D01*
X66773777Y21957900D01*
X66576223Y21957900D01*
X66576222Y21957900D01*
X66382462Y21919359D01*
X66382461Y21919358D01*
X66199950Y21843760D01*
X66035682Y21734000D01*
X65896000Y21594318D01*
X65786240Y21430050D01*
X65710642Y21247539D01*
X65710641Y21247538D01*
X65672100Y21053778D01*
X65137900Y21053778D01*
X65132831Y21079258D01*
X65125168Y21117782D01*
X65099359Y21247535D01*
X65023759Y21430051D01*
X64914004Y21594312D01*
X64914001Y21594315D01*
X64913999Y21594318D01*
X64774317Y21734000D01*
X64774313Y21734003D01*
X64774312Y21734004D01*
X64610051Y21843759D01*
X64597287Y21849046D01*
X64427538Y21919358D01*
X64427537Y21919359D01*
X64233778Y21957900D01*
X64233777Y21957900D01*
X64036223Y21957900D01*
X64036222Y21957900D01*
X63842462Y21919359D01*
X63842461Y21919358D01*
X63659950Y21843760D01*
X63495682Y21734000D01*
X63356000Y21594318D01*
X63246240Y21430050D01*
X63170642Y21247539D01*
X63170641Y21247538D01*
X63132100Y21053778D01*
X62597900Y21053778D01*
X62592831Y21079258D01*
X62585168Y21117782D01*
X62559359Y21247535D01*
X62483759Y21430051D01*
X62374004Y21594312D01*
X62374001Y21594315D01*
X62373999Y21594318D01*
X62234317Y21734000D01*
X62234313Y21734003D01*
X62234312Y21734004D01*
X62070051Y21843759D01*
X62057287Y21849046D01*
X61887538Y21919358D01*
X61887537Y21919359D01*
X61693778Y21957900D01*
X61693777Y21957900D01*
X61496223Y21957900D01*
X61496222Y21957900D01*
X61302462Y21919359D01*
X61302461Y21919358D01*
X61119950Y21843760D01*
X60955682Y21734000D01*
X60816000Y21594318D01*
X60706240Y21430050D01*
X60630642Y21247539D01*
X60630641Y21247538D01*
X60592100Y21053778D01*
X60057900Y21053778D01*
X60052831Y21079258D01*
X60045168Y21117782D01*
X60019359Y21247535D01*
X59943759Y21430051D01*
X59834004Y21594312D01*
X59834001Y21594315D01*
X59833999Y21594318D01*
X59694317Y21734000D01*
X59694313Y21734003D01*
X59694312Y21734004D01*
X59530051Y21843759D01*
X59517287Y21849046D01*
X59347538Y21919358D01*
X59347537Y21919359D01*
X59153778Y21957900D01*
X59153777Y21957900D01*
X58956223Y21957900D01*
X58956222Y21957900D01*
X58762462Y21919359D01*
X58762461Y21919358D01*
X58579950Y21843760D01*
X58415682Y21734000D01*
X58276000Y21594318D01*
X58166240Y21430050D01*
X58090642Y21247539D01*
X58090641Y21247538D01*
X58052100Y21053778D01*
X57517900Y21053778D01*
X57512831Y21079258D01*
X57505168Y21117782D01*
X57479359Y21247535D01*
X57403759Y21430051D01*
X57294004Y21594312D01*
X57294001Y21594315D01*
X57293999Y21594318D01*
X57154317Y21734000D01*
X57154313Y21734003D01*
X57154312Y21734004D01*
X56990051Y21843759D01*
X56977287Y21849046D01*
X56807538Y21919358D01*
X56807537Y21919359D01*
X56613778Y21957900D01*
X56613777Y21957900D01*
X56416223Y21957900D01*
X56416222Y21957900D01*
X56222462Y21919359D01*
X56222461Y21919358D01*
X56039950Y21843760D01*
X55875682Y21734000D01*
X55736000Y21594318D01*
X55626240Y21430050D01*
X55550642Y21247539D01*
X55550641Y21247538D01*
X55512100Y21053778D01*
X54977900Y21053778D01*
X54972831Y21079258D01*
X54965168Y21117782D01*
X54939359Y21247535D01*
X54863759Y21430051D01*
X54754004Y21594312D01*
X54754001Y21594315D01*
X54753999Y21594318D01*
X54614317Y21734000D01*
X54614313Y21734003D01*
X54614312Y21734004D01*
X54450051Y21843759D01*
X54437287Y21849046D01*
X54267538Y21919358D01*
X54267537Y21919359D01*
X54073778Y21957900D01*
X54073777Y21957900D01*
X53876223Y21957900D01*
X53876222Y21957900D01*
X53682462Y21919359D01*
X53682461Y21919358D01*
X53499950Y21843760D01*
X53335682Y21734000D01*
X53196000Y21594318D01*
X53086240Y21430050D01*
X53010642Y21247539D01*
X53010641Y21247538D01*
X52972100Y21053778D01*
X52437900Y21053778D01*
X52432831Y21079258D01*
X52425168Y21117782D01*
X52399359Y21247535D01*
X52323759Y21430051D01*
X52214004Y21594312D01*
X52214001Y21594315D01*
X52213999Y21594318D01*
X52074317Y21734000D01*
X52074313Y21734003D01*
X52074312Y21734004D01*
X51910051Y21843759D01*
X51897287Y21849046D01*
X51727538Y21919358D01*
X51727537Y21919359D01*
X51533778Y21957900D01*
X51533777Y21957900D01*
X51336223Y21957900D01*
X51336222Y21957900D01*
X51142462Y21919359D01*
X51142461Y21919358D01*
X50959950Y21843760D01*
X50795682Y21734000D01*
X50656000Y21594318D01*
X50546240Y21430050D01*
X50470642Y21247539D01*
X50470641Y21247538D01*
X50432100Y21053778D01*
X49897900Y21053778D01*
X49892831Y21079258D01*
X49885168Y21117782D01*
X49859359Y21247535D01*
X49783759Y21430051D01*
X49674004Y21594312D01*
X49674001Y21594315D01*
X49673999Y21594318D01*
X49534317Y21734000D01*
X49534313Y21734003D01*
X49534312Y21734004D01*
X49370051Y21843759D01*
X49357287Y21849046D01*
X49187538Y21919358D01*
X49187537Y21919359D01*
X48993778Y21957900D01*
X48993777Y21957900D01*
X48796223Y21957900D01*
X48796222Y21957900D01*
X48602462Y21919359D01*
X48602461Y21919358D01*
X48419950Y21843760D01*
X48255682Y21734000D01*
X48116000Y21594318D01*
X48006240Y21430050D01*
X47930642Y21247539D01*
X47930641Y21247538D01*
X47892100Y21053778D01*
X47357900Y21053778D01*
X47352831Y21079258D01*
X47345168Y21117782D01*
X47319359Y21247535D01*
X47243759Y21430051D01*
X47134004Y21594312D01*
X47134001Y21594315D01*
X47133999Y21594318D01*
X46994317Y21734000D01*
X46994313Y21734003D01*
X46994312Y21734004D01*
X46830051Y21843759D01*
X46817287Y21849046D01*
X46647538Y21919358D01*
X46647537Y21919359D01*
X46453778Y21957900D01*
X46453777Y21957900D01*
X46256223Y21957900D01*
X46256222Y21957900D01*
X46062462Y21919359D01*
X46062461Y21919358D01*
X45879950Y21843760D01*
X45715682Y21734000D01*
X45576000Y21594318D01*
X45466240Y21430050D01*
X45390642Y21247539D01*
X45390641Y21247538D01*
X45352100Y21053778D01*
X44817900Y21053778D01*
X44812831Y21079258D01*
X44805168Y21117782D01*
X44779359Y21247535D01*
X44703759Y21430051D01*
X44594004Y21594312D01*
X44594001Y21594315D01*
X44593999Y21594318D01*
X44454317Y21734000D01*
X44454313Y21734003D01*
X44454312Y21734004D01*
X44290051Y21843759D01*
X44277287Y21849046D01*
X44107538Y21919358D01*
X44107537Y21919359D01*
X43913778Y21957900D01*
X43913777Y21957900D01*
X43716223Y21957900D01*
X43716222Y21957900D01*
X43522462Y21919359D01*
X43522461Y21919358D01*
X43339950Y21843760D01*
X43175682Y21734000D01*
X43036001Y21594319D01*
X43035995Y21594311D01*
X42988026Y21522520D01*
X42946543Y21492103D01*
X42895213Y21495468D01*
X42858055Y21531039D01*
X42850300Y21564299D01*
X42850300Y22885702D01*
X42867893Y22934040D01*
X42912442Y22959760D01*
X42963100Y22950827D01*
X42988023Y22927485D01*
X43035996Y22855688D01*
X43035997Y22855687D01*
X43036000Y22855683D01*
X43175682Y22716001D01*
X43175685Y22715999D01*
X43175688Y22715996D01*
X43339949Y22606241D01*
X43522461Y22530643D01*
X43522462Y22530642D01*
X43522463Y22530642D01*
X43522465Y22530641D01*
X43652218Y22504832D01*
X43716222Y22492100D01*
X43716223Y22492100D01*
X43913778Y22492100D01*
X43969967Y22503277D01*
X44107535Y22530641D01*
X44290051Y22606241D01*
X44454312Y22715996D01*
X44594004Y22855688D01*
X44703759Y23019949D01*
X44779359Y23202465D01*
X44817900Y23396223D01*
X44817900Y23593777D01*
X44817900Y23593778D01*
X45352100Y23593778D01*
X45352100Y23396223D01*
X45390641Y23202463D01*
X45390642Y23202462D01*
X45466241Y23019949D01*
X45575996Y22855688D01*
X45575997Y22855687D01*
X45576000Y22855683D01*
X45715682Y22716001D01*
X45715685Y22715999D01*
X45715688Y22715996D01*
X45879949Y22606241D01*
X46062461Y22530643D01*
X46062462Y22530642D01*
X46062463Y22530642D01*
X46062465Y22530641D01*
X46192218Y22504832D01*
X46256222Y22492100D01*
X46256223Y22492100D01*
X46453778Y22492100D01*
X46509967Y22503277D01*
X46647535Y22530641D01*
X46830051Y22606241D01*
X46994312Y22715996D01*
X47134004Y22855688D01*
X47243759Y23019949D01*
X47319359Y23202465D01*
X47357900Y23396223D01*
X47357900Y23593777D01*
X47357900Y23593778D01*
X47892100Y23593778D01*
X47892100Y23396223D01*
X47930641Y23202463D01*
X47930642Y23202462D01*
X48006241Y23019949D01*
X48115996Y22855688D01*
X48115997Y22855687D01*
X48116000Y22855683D01*
X48255682Y22716001D01*
X48255685Y22715999D01*
X48255688Y22715996D01*
X48419949Y22606241D01*
X48602461Y22530643D01*
X48602462Y22530642D01*
X48602463Y22530642D01*
X48602465Y22530641D01*
X48732218Y22504832D01*
X48796222Y22492100D01*
X48796223Y22492100D01*
X48993778Y22492100D01*
X49049967Y22503277D01*
X49187535Y22530641D01*
X49370051Y22606241D01*
X49534312Y22715996D01*
X49674004Y22855688D01*
X49783759Y23019949D01*
X49859359Y23202465D01*
X49897900Y23396223D01*
X49897900Y23593777D01*
X49897900Y23593778D01*
X50432100Y23593778D01*
X50432100Y23396223D01*
X50470641Y23202463D01*
X50470642Y23202462D01*
X50546241Y23019949D01*
X50655996Y22855688D01*
X50655997Y22855687D01*
X50656000Y22855683D01*
X50795682Y22716001D01*
X50795685Y22715999D01*
X50795688Y22715996D01*
X50959949Y22606241D01*
X51142461Y22530643D01*
X51142462Y22530642D01*
X51142463Y22530642D01*
X51142465Y22530641D01*
X51272218Y22504832D01*
X51336222Y22492100D01*
X51336223Y22492100D01*
X51533778Y22492100D01*
X51589967Y22503277D01*
X51727535Y22530641D01*
X51910051Y22606241D01*
X52074312Y22715996D01*
X52214004Y22855688D01*
X52323759Y23019949D01*
X52399359Y23202465D01*
X52437900Y23396223D01*
X52437900Y23593777D01*
X52437900Y23593778D01*
X52972100Y23593778D01*
X52972100Y23396223D01*
X53010641Y23202463D01*
X53010642Y23202462D01*
X53086241Y23019949D01*
X53195996Y22855688D01*
X53195997Y22855687D01*
X53196000Y22855683D01*
X53335682Y22716001D01*
X53335685Y22715999D01*
X53335688Y22715996D01*
X53499949Y22606241D01*
X53682461Y22530643D01*
X53682462Y22530642D01*
X53682463Y22530642D01*
X53682465Y22530641D01*
X53812218Y22504832D01*
X53876222Y22492100D01*
X53876223Y22492100D01*
X54073778Y22492100D01*
X54129967Y22503277D01*
X54267535Y22530641D01*
X54450051Y22606241D01*
X54614312Y22715996D01*
X54754004Y22855688D01*
X54863759Y23019949D01*
X54939359Y23202465D01*
X54977900Y23396223D01*
X54977900Y23593777D01*
X54977900Y23593778D01*
X55512100Y23593778D01*
X55512100Y23396223D01*
X55550641Y23202463D01*
X55550642Y23202462D01*
X55626241Y23019949D01*
X55735996Y22855688D01*
X55735997Y22855687D01*
X55736000Y22855683D01*
X55875682Y22716001D01*
X55875685Y22715999D01*
X55875688Y22715996D01*
X56039949Y22606241D01*
X56222461Y22530643D01*
X56222462Y22530642D01*
X56222463Y22530642D01*
X56222465Y22530641D01*
X56352218Y22504832D01*
X56416222Y22492100D01*
X56416223Y22492100D01*
X56613778Y22492100D01*
X56669967Y22503277D01*
X56807535Y22530641D01*
X56990051Y22606241D01*
X57154312Y22715996D01*
X57294004Y22855688D01*
X57403759Y23019949D01*
X57479359Y23202465D01*
X57517900Y23396223D01*
X57517900Y23593777D01*
X57517900Y23593778D01*
X58052100Y23593778D01*
X58052100Y23396223D01*
X58090641Y23202463D01*
X58090642Y23202462D01*
X58166241Y23019949D01*
X58275996Y22855688D01*
X58275997Y22855687D01*
X58276000Y22855683D01*
X58415682Y22716001D01*
X58415685Y22715999D01*
X58415688Y22715996D01*
X58579949Y22606241D01*
X58762461Y22530643D01*
X58762462Y22530642D01*
X58762463Y22530642D01*
X58762465Y22530641D01*
X58892218Y22504832D01*
X58956222Y22492100D01*
X58956223Y22492100D01*
X59153778Y22492100D01*
X59209967Y22503277D01*
X59347535Y22530641D01*
X59530051Y22606241D01*
X59694312Y22715996D01*
X59834004Y22855688D01*
X59943759Y23019949D01*
X60019359Y23202465D01*
X60057900Y23396223D01*
X60057900Y23593777D01*
X60057900Y23593778D01*
X60592100Y23593778D01*
X60592100Y23396223D01*
X60630641Y23202463D01*
X60630642Y23202462D01*
X60706241Y23019949D01*
X60815996Y22855688D01*
X60815997Y22855687D01*
X60816000Y22855683D01*
X60955682Y22716001D01*
X60955685Y22715999D01*
X60955688Y22715996D01*
X61119949Y22606241D01*
X61302461Y22530643D01*
X61302462Y22530642D01*
X61302463Y22530642D01*
X61302465Y22530641D01*
X61432218Y22504832D01*
X61496222Y22492100D01*
X61496223Y22492100D01*
X61693778Y22492100D01*
X61749967Y22503277D01*
X61887535Y22530641D01*
X62070051Y22606241D01*
X62234312Y22715996D01*
X62374004Y22855688D01*
X62483759Y23019949D01*
X62559359Y23202465D01*
X62597900Y23396223D01*
X62597900Y23593777D01*
X62597900Y23593778D01*
X63132100Y23593778D01*
X63132100Y23396223D01*
X63170641Y23202463D01*
X63170642Y23202462D01*
X63246241Y23019949D01*
X63355996Y22855688D01*
X63355997Y22855687D01*
X63356000Y22855683D01*
X63495682Y22716001D01*
X63495685Y22715999D01*
X63495688Y22715996D01*
X63659949Y22606241D01*
X63842461Y22530643D01*
X63842462Y22530642D01*
X63842463Y22530642D01*
X63842465Y22530641D01*
X63972218Y22504832D01*
X64036222Y22492100D01*
X64036223Y22492100D01*
X64233778Y22492100D01*
X64289967Y22503277D01*
X64427535Y22530641D01*
X64610051Y22606241D01*
X64774312Y22715996D01*
X64914004Y22855688D01*
X65023759Y23019949D01*
X65099359Y23202465D01*
X65137900Y23396223D01*
X65137900Y23593777D01*
X65137900Y23593778D01*
X65672100Y23593778D01*
X65672100Y23396223D01*
X65710641Y23202463D01*
X65710642Y23202462D01*
X65786241Y23019949D01*
X65895996Y22855688D01*
X65895997Y22855687D01*
X65896000Y22855683D01*
X66035682Y22716001D01*
X66035685Y22715999D01*
X66035688Y22715996D01*
X66199949Y22606241D01*
X66382461Y22530643D01*
X66382462Y22530642D01*
X66382463Y22530642D01*
X66382465Y22530641D01*
X66512218Y22504832D01*
X66576222Y22492100D01*
X66576223Y22492100D01*
X66773778Y22492100D01*
X66829967Y22503277D01*
X66967535Y22530641D01*
X67150051Y22606241D01*
X67314312Y22715996D01*
X67454004Y22855688D01*
X67563759Y23019949D01*
X67639359Y23202465D01*
X67677900Y23396223D01*
X67677900Y23593777D01*
X67677900Y23593778D01*
X68212100Y23593778D01*
X68212100Y23396223D01*
X68250641Y23202463D01*
X68250642Y23202462D01*
X68326241Y23019949D01*
X68435996Y22855688D01*
X68435997Y22855687D01*
X68436000Y22855683D01*
X68575682Y22716001D01*
X68575685Y22715999D01*
X68575688Y22715996D01*
X68739949Y22606241D01*
X68922461Y22530643D01*
X68922462Y22530642D01*
X68922463Y22530642D01*
X68922465Y22530641D01*
X69052218Y22504832D01*
X69116222Y22492100D01*
X69116223Y22492100D01*
X69313778Y22492100D01*
X69369967Y22503277D01*
X69507535Y22530641D01*
X69690051Y22606241D01*
X69854312Y22715996D01*
X69994004Y22855688D01*
X70103759Y23019949D01*
X70179359Y23202465D01*
X70217900Y23396223D01*
X70217900Y23593777D01*
X70217900Y23593778D01*
X70752100Y23593778D01*
X70752100Y23396223D01*
X70790641Y23202463D01*
X70790642Y23202462D01*
X70866241Y23019949D01*
X70975996Y22855688D01*
X70975997Y22855687D01*
X70976000Y22855683D01*
X71115682Y22716001D01*
X71115685Y22715999D01*
X71115688Y22715996D01*
X71279949Y22606241D01*
X71462461Y22530643D01*
X71462462Y22530642D01*
X71462463Y22530642D01*
X71462465Y22530641D01*
X71592218Y22504832D01*
X71656222Y22492100D01*
X71656223Y22492100D01*
X71853778Y22492100D01*
X71909967Y22503277D01*
X72047535Y22530641D01*
X72230051Y22606241D01*
X72394312Y22715996D01*
X72534004Y22855688D01*
X72643759Y23019949D01*
X72719359Y23202465D01*
X72757900Y23396223D01*
X72757900Y23593777D01*
X72757900Y23593778D01*
X73292100Y23593778D01*
X73292100Y23396223D01*
X73330641Y23202463D01*
X73330642Y23202462D01*
X73406241Y23019949D01*
X73515996Y22855688D01*
X73515997Y22855687D01*
X73516000Y22855683D01*
X73655682Y22716001D01*
X73655685Y22715999D01*
X73655688Y22715996D01*
X73819949Y22606241D01*
X74002461Y22530643D01*
X74002462Y22530642D01*
X74002463Y22530642D01*
X74002465Y22530641D01*
X74132218Y22504832D01*
X74196222Y22492100D01*
X74196223Y22492100D01*
X74393778Y22492100D01*
X74449967Y22503277D01*
X74587535Y22530641D01*
X74770051Y22606241D01*
X74934312Y22715996D01*
X75074004Y22855688D01*
X75183759Y23019949D01*
X75259359Y23202465D01*
X75297900Y23396223D01*
X75297900Y23593777D01*
X75297900Y23593778D01*
X75832100Y23593778D01*
X75832100Y23396223D01*
X75870641Y23202463D01*
X75870642Y23202462D01*
X75946241Y23019949D01*
X76055996Y22855688D01*
X76055997Y22855687D01*
X76056000Y22855683D01*
X76195682Y22716001D01*
X76195685Y22715999D01*
X76195688Y22715996D01*
X76359949Y22606241D01*
X76542461Y22530643D01*
X76542462Y22530642D01*
X76542463Y22530642D01*
X76542465Y22530641D01*
X76672218Y22504832D01*
X76736222Y22492100D01*
X76736223Y22492100D01*
X76933778Y22492100D01*
X76989967Y22503277D01*
X77127535Y22530641D01*
X77310051Y22606241D01*
X77474312Y22715996D01*
X77614004Y22855688D01*
X77723759Y23019949D01*
X77799359Y23202465D01*
X77837900Y23396223D01*
X77837900Y23593777D01*
X77837900Y23593778D01*
X78372100Y23593778D01*
X78372100Y23396223D01*
X78410641Y23202463D01*
X78410642Y23202462D01*
X78486241Y23019949D01*
X78595996Y22855688D01*
X78595997Y22855687D01*
X78596000Y22855683D01*
X78735682Y22716001D01*
X78735685Y22715999D01*
X78735688Y22715996D01*
X78899949Y22606241D01*
X79082461Y22530643D01*
X79082462Y22530642D01*
X79082463Y22530642D01*
X79082465Y22530641D01*
X79212218Y22504832D01*
X79276222Y22492100D01*
X79276223Y22492100D01*
X79473778Y22492100D01*
X79529967Y22503277D01*
X79667535Y22530641D01*
X79850051Y22606241D01*
X80014312Y22715996D01*
X80154004Y22855688D01*
X80263759Y23019949D01*
X80339359Y23202465D01*
X80377900Y23396223D01*
X80377900Y23593777D01*
X80376446Y23601086D01*
X80374173Y23612517D01*
X80356357Y23702078D01*
X80339359Y23787535D01*
X80263759Y23970051D01*
X80154004Y24134312D01*
X80154001Y24134315D01*
X80153999Y24134318D01*
X80014317Y24274000D01*
X80014313Y24274003D01*
X80014312Y24274004D01*
X79850051Y24383759D01*
X79726720Y24434844D01*
X79667538Y24459358D01*
X79667537Y24459359D01*
X79473778Y24497900D01*
X79473777Y24497900D01*
X79276223Y24497900D01*
X79276222Y24497900D01*
X79082462Y24459359D01*
X79082461Y24459358D01*
X78899950Y24383760D01*
X78735682Y24274000D01*
X78596000Y24134318D01*
X78486240Y23970050D01*
X78410642Y23787539D01*
X78410641Y23787538D01*
X78372100Y23593778D01*
X77837900Y23593778D01*
X77837899Y23593780D01*
X77799700Y23785821D01*
X77799359Y23787535D01*
X77723759Y23970051D01*
X77614004Y24134312D01*
X77614001Y24134315D01*
X77613999Y24134318D01*
X77474317Y24274000D01*
X77474313Y24274003D01*
X77474312Y24274004D01*
X77310051Y24383759D01*
X77186720Y24434844D01*
X77127538Y24459358D01*
X77127537Y24459359D01*
X76933778Y24497900D01*
X76933777Y24497900D01*
X76736223Y24497900D01*
X76736222Y24497900D01*
X76542462Y24459359D01*
X76542461Y24459358D01*
X76359950Y24383760D01*
X76195682Y24274000D01*
X76056000Y24134318D01*
X75946240Y23970050D01*
X75870642Y23787539D01*
X75870641Y23787538D01*
X75832100Y23593778D01*
X75297900Y23593778D01*
X75297899Y23593780D01*
X75259700Y23785821D01*
X75259359Y23787535D01*
X75183759Y23970051D01*
X75074004Y24134312D01*
X75074001Y24134315D01*
X75073999Y24134318D01*
X74934317Y24274000D01*
X74934313Y24274003D01*
X74934312Y24274004D01*
X74770051Y24383759D01*
X74646720Y24434844D01*
X74587538Y24459358D01*
X74587537Y24459359D01*
X74393778Y24497900D01*
X74393777Y24497900D01*
X74196223Y24497900D01*
X74196222Y24497900D01*
X74002462Y24459359D01*
X74002461Y24459358D01*
X73819950Y24383760D01*
X73655682Y24274000D01*
X73516000Y24134318D01*
X73406240Y23970050D01*
X73330642Y23787539D01*
X73330641Y23787538D01*
X73292100Y23593778D01*
X72757900Y23593778D01*
X72757899Y23593780D01*
X72719700Y23785821D01*
X72719359Y23787535D01*
X72643759Y23970051D01*
X72534004Y24134312D01*
X72534001Y24134315D01*
X72533999Y24134318D01*
X72394317Y24274000D01*
X72394313Y24274003D01*
X72394312Y24274004D01*
X72230051Y24383759D01*
X72106720Y24434844D01*
X72047538Y24459358D01*
X72047537Y24459359D01*
X71853778Y24497900D01*
X71853777Y24497900D01*
X71656223Y24497900D01*
X71656222Y24497900D01*
X71462462Y24459359D01*
X71462461Y24459358D01*
X71279950Y24383760D01*
X71115682Y24274000D01*
X70976000Y24134318D01*
X70866240Y23970050D01*
X70790642Y23787539D01*
X70790641Y23787538D01*
X70752100Y23593778D01*
X70217900Y23593778D01*
X70217899Y23593780D01*
X70179700Y23785821D01*
X70179359Y23787535D01*
X70103759Y23970051D01*
X69994004Y24134312D01*
X69994001Y24134315D01*
X69993999Y24134318D01*
X69854317Y24274000D01*
X69854313Y24274003D01*
X69854312Y24274004D01*
X69690051Y24383759D01*
X69566720Y24434844D01*
X69507538Y24459358D01*
X69507537Y24459359D01*
X69313778Y24497900D01*
X69313777Y24497900D01*
X69116223Y24497900D01*
X69116222Y24497900D01*
X68922462Y24459359D01*
X68922461Y24459358D01*
X68739950Y24383760D01*
X68575682Y24274000D01*
X68436000Y24134318D01*
X68326240Y23970050D01*
X68250642Y23787539D01*
X68250641Y23787538D01*
X68212100Y23593778D01*
X67677900Y23593778D01*
X67677899Y23593780D01*
X67639700Y23785821D01*
X67639359Y23787535D01*
X67563759Y23970051D01*
X67454004Y24134312D01*
X67454001Y24134315D01*
X67453999Y24134318D01*
X67314317Y24274000D01*
X67314313Y24274003D01*
X67314312Y24274004D01*
X67150051Y24383759D01*
X67026720Y24434844D01*
X66967538Y24459358D01*
X66967537Y24459359D01*
X66773778Y24497900D01*
X66773777Y24497900D01*
X66576223Y24497900D01*
X66576222Y24497900D01*
X66382462Y24459359D01*
X66382461Y24459358D01*
X66199950Y24383760D01*
X66035682Y24274000D01*
X65896000Y24134318D01*
X65786240Y23970050D01*
X65710642Y23787539D01*
X65710641Y23787538D01*
X65672100Y23593778D01*
X65137900Y23593778D01*
X65137899Y23593780D01*
X65099700Y23785821D01*
X65099359Y23787535D01*
X65023759Y23970051D01*
X64914004Y24134312D01*
X64914001Y24134315D01*
X64913999Y24134318D01*
X64774317Y24274000D01*
X64774313Y24274003D01*
X64774312Y24274004D01*
X64610051Y24383759D01*
X64486720Y24434844D01*
X64427538Y24459358D01*
X64427537Y24459359D01*
X64233778Y24497900D01*
X64233777Y24497900D01*
X64036223Y24497900D01*
X64036222Y24497900D01*
X63842462Y24459359D01*
X63842461Y24459358D01*
X63659950Y24383760D01*
X63495682Y24274000D01*
X63356000Y24134318D01*
X63246240Y23970050D01*
X63170642Y23787539D01*
X63170641Y23787538D01*
X63132100Y23593778D01*
X62597900Y23593778D01*
X62597899Y23593780D01*
X62559700Y23785821D01*
X62559359Y23787535D01*
X62483759Y23970051D01*
X62374004Y24134312D01*
X62374001Y24134315D01*
X62373999Y24134318D01*
X62234317Y24274000D01*
X62234313Y24274003D01*
X62234312Y24274004D01*
X62070051Y24383759D01*
X61946720Y24434844D01*
X61887538Y24459358D01*
X61887537Y24459359D01*
X61693778Y24497900D01*
X61693777Y24497900D01*
X61496223Y24497900D01*
X61496222Y24497900D01*
X61302462Y24459359D01*
X61302461Y24459358D01*
X61119950Y24383760D01*
X60955682Y24274000D01*
X60816000Y24134318D01*
X60706240Y23970050D01*
X60630642Y23787539D01*
X60630641Y23787538D01*
X60592100Y23593778D01*
X60057900Y23593778D01*
X60057899Y23593780D01*
X60019700Y23785821D01*
X60019359Y23787535D01*
X59943759Y23970051D01*
X59834004Y24134312D01*
X59834001Y24134315D01*
X59833999Y24134318D01*
X59694317Y24274000D01*
X59694313Y24274003D01*
X59694312Y24274004D01*
X59530051Y24383759D01*
X59406720Y24434844D01*
X59347538Y24459358D01*
X59347537Y24459359D01*
X59153778Y24497900D01*
X59153777Y24497900D01*
X58956223Y24497900D01*
X58956222Y24497900D01*
X58762462Y24459359D01*
X58762461Y24459358D01*
X58579950Y24383760D01*
X58415682Y24274000D01*
X58276000Y24134318D01*
X58166240Y23970050D01*
X58090642Y23787539D01*
X58090641Y23787538D01*
X58052100Y23593778D01*
X57517900Y23593778D01*
X57517899Y23593780D01*
X57479700Y23785821D01*
X57479359Y23787535D01*
X57403759Y23970051D01*
X57294004Y24134312D01*
X57294001Y24134315D01*
X57293999Y24134318D01*
X57154317Y24274000D01*
X57154313Y24274003D01*
X57154312Y24274004D01*
X56990051Y24383759D01*
X56866720Y24434844D01*
X56807538Y24459358D01*
X56807537Y24459359D01*
X56613778Y24497900D01*
X56613777Y24497900D01*
X56416223Y24497900D01*
X56416222Y24497900D01*
X56222462Y24459359D01*
X56222461Y24459358D01*
X56039950Y24383760D01*
X55875682Y24274000D01*
X55736000Y24134318D01*
X55626240Y23970050D01*
X55550642Y23787539D01*
X55550641Y23787538D01*
X55512100Y23593778D01*
X54977900Y23593778D01*
X54977899Y23593780D01*
X54939700Y23785821D01*
X54939359Y23787535D01*
X54863759Y23970051D01*
X54754004Y24134312D01*
X54754001Y24134315D01*
X54753999Y24134318D01*
X54614317Y24274000D01*
X54614313Y24274003D01*
X54614312Y24274004D01*
X54450051Y24383759D01*
X54326720Y24434844D01*
X54267538Y24459358D01*
X54267537Y24459359D01*
X54073778Y24497900D01*
X54073777Y24497900D01*
X53876223Y24497900D01*
X53876222Y24497900D01*
X53682462Y24459359D01*
X53682461Y24459358D01*
X53499950Y24383760D01*
X53335682Y24274000D01*
X53196000Y24134318D01*
X53086240Y23970050D01*
X53010642Y23787539D01*
X53010641Y23787538D01*
X52972100Y23593778D01*
X52437900Y23593778D01*
X52437899Y23593780D01*
X52399700Y23785821D01*
X52399359Y23787535D01*
X52323759Y23970051D01*
X52214004Y24134312D01*
X52214001Y24134315D01*
X52213999Y24134318D01*
X52074317Y24274000D01*
X52074313Y24274003D01*
X52074312Y24274004D01*
X51910051Y24383759D01*
X51786720Y24434844D01*
X51727538Y24459358D01*
X51727537Y24459359D01*
X51533778Y24497900D01*
X51533777Y24497900D01*
X51336223Y24497900D01*
X51336222Y24497900D01*
X51142462Y24459359D01*
X51142461Y24459358D01*
X50959950Y24383760D01*
X50795682Y24274000D01*
X50656000Y24134318D01*
X50546240Y23970050D01*
X50470642Y23787539D01*
X50470641Y23787538D01*
X50432100Y23593778D01*
X49897900Y23593778D01*
X49897899Y23593780D01*
X49859700Y23785821D01*
X49859359Y23787535D01*
X49783759Y23970051D01*
X49674004Y24134312D01*
X49674001Y24134315D01*
X49673999Y24134318D01*
X49534317Y24274000D01*
X49534313Y24274003D01*
X49534312Y24274004D01*
X49370051Y24383759D01*
X49246720Y24434844D01*
X49187538Y24459358D01*
X49187537Y24459359D01*
X48993778Y24497900D01*
X48993777Y24497900D01*
X48796223Y24497900D01*
X48796222Y24497900D01*
X48602462Y24459359D01*
X48602461Y24459358D01*
X48419950Y24383760D01*
X48255682Y24274000D01*
X48116000Y24134318D01*
X48006240Y23970050D01*
X47930642Y23787539D01*
X47930641Y23787538D01*
X47892100Y23593778D01*
X47357900Y23593778D01*
X47357899Y23593780D01*
X47319700Y23785821D01*
X47319359Y23787535D01*
X47243759Y23970051D01*
X47134004Y24134312D01*
X47134001Y24134315D01*
X47133999Y24134318D01*
X46994317Y24274000D01*
X46994313Y24274003D01*
X46994312Y24274004D01*
X46830051Y24383759D01*
X46706720Y24434844D01*
X46647538Y24459358D01*
X46647537Y24459359D01*
X46453778Y24497900D01*
X46453777Y24497900D01*
X46256223Y24497900D01*
X46256222Y24497900D01*
X46062462Y24459359D01*
X46062461Y24459358D01*
X45879950Y24383760D01*
X45715682Y24274000D01*
X45576000Y24134318D01*
X45466240Y23970050D01*
X45390642Y23787539D01*
X45390641Y23787538D01*
X45352100Y23593778D01*
X44817900Y23593778D01*
X44817899Y23593780D01*
X44779700Y23785821D01*
X44779359Y23787535D01*
X44703759Y23970051D01*
X44594004Y24134312D01*
X44594001Y24134315D01*
X44593999Y24134318D01*
X44454317Y24274000D01*
X44454313Y24274003D01*
X44454312Y24274004D01*
X44290051Y24383759D01*
X44166720Y24434844D01*
X44107538Y24459358D01*
X44107537Y24459359D01*
X43913778Y24497900D01*
X43913777Y24497900D01*
X43716223Y24497900D01*
X43716222Y24497900D01*
X43522462Y24459359D01*
X43522461Y24459358D01*
X43339950Y24383760D01*
X43175682Y24274000D01*
X43036001Y24134319D01*
X43035995Y24134311D01*
X42988026Y24062520D01*
X42946543Y24032103D01*
X42895213Y24035468D01*
X42858055Y24071039D01*
X42850300Y24104299D01*
X42850300Y30322394D01*
X42867893Y30370732D01*
X42872315Y30375557D01*
X46896832Y34400075D01*
X46943452Y34421814D01*
X46950006Y34422100D01*
X47056206Y34422100D01*
X47056208Y34422100D01*
X47184112Y34456371D01*
X47298788Y34522579D01*
X47298792Y34522583D01*
X47373884Y34597674D01*
X47420504Y34619414D01*
X47427058Y34619700D01*
X48920190Y34619700D01*
X48920193Y34619700D01*
X48997841Y34640506D01*
X49038078Y34663737D01*
X49067459Y34680700D01*
X51647813Y37261056D01*
X51694432Y37282795D01*
X51738584Y37273007D01*
X51783057Y37247330D01*
X51821139Y37231556D01*
X51821144Y37231555D01*
X51821146Y37231554D01*
X51948290Y37197485D01*
X51948294Y37197484D01*
X51948306Y37197481D01*
X51989168Y37192101D01*
X51989172Y37192100D01*
X51989174Y37192100D01*
X52554997Y37192100D01*
X52555000Y37192100D01*
X52633950Y37213255D01*
X52633953Y37213258D01*
X52651826Y37231130D01*
X52698446Y37252870D01*
X52748133Y37239556D01*
X52758174Y37231130D01*
X52776046Y37213258D01*
X52776048Y37213257D01*
X52776050Y37213255D01*
X52855000Y37192100D01*
X52855003Y37192100D01*
X53420828Y37192100D01*
X53420830Y37192101D01*
X53461694Y37197481D01*
X53588861Y37231556D01*
X53626943Y37247330D01*
X53740957Y37313156D01*
X53773659Y37338249D01*
X53866751Y37431341D01*
X53891844Y37464043D01*
X53957670Y37578057D01*
X53973444Y37616139D01*
X54007519Y37743306D01*
X54012900Y37784174D01*
X54012900Y38415826D01*
X54007519Y38456694D01*
X54006428Y38460764D01*
X53973446Y38583854D01*
X53973440Y38583871D01*
X53969411Y38593597D01*
X53957670Y38621943D01*
X53891844Y38735957D01*
X53889996Y38738365D01*
X53866755Y38768654D01*
X53866743Y38768668D01*
X53773667Y38861744D01*
X53773655Y38861754D01*
X53765922Y38867688D01*
X53738283Y38911072D01*
X53736500Y38927349D01*
X53736500Y39395800D01*
X53754093Y39444138D01*
X53798642Y39469858D01*
X53811700Y39471000D01*
X58952722Y39471000D01*
X58952725Y39471000D01*
X59049754Y39496999D01*
X59136747Y39547224D01*
X59207776Y39618253D01*
X59414597Y39825074D01*
X59461217Y39846814D01*
X59467771Y39847100D01*
X61182229Y39847100D01*
X61230567Y39829507D01*
X61235403Y39825074D01*
X70179724Y30880753D01*
X70250753Y30809724D01*
X70337746Y30759499D01*
X70434775Y30733500D01*
X70535225Y30733500D01*
X80411900Y30733500D01*
X80460238Y30715907D01*
X80485958Y30671358D01*
X80487100Y30658300D01*
X80487100Y27380200D01*
X80487447Y27372236D01*
X80487700Y27366435D01*
X80488613Y27355997D01*
X80488842Y27353385D01*
X80509396Y27288193D01*
X80535115Y27243645D01*
X80535118Y27243641D01*
X80550905Y27221096D01*
X80617856Y27174217D01*
X80617857Y27174217D01*
X80617859Y27174215D01*
X80666197Y27156622D01*
X80720195Y27147101D01*
X80720196Y27147100D01*
X80720200Y27147100D01*
X82767299Y27147100D01*
X82815637Y27129507D01*
X82841357Y27084958D01*
X82842499Y27071900D01*
X82842499Y24159073D01*
X82824906Y24110735D01*
X82780357Y24085015D01*
X82729699Y24093948D01*
X82704773Y24117294D01*
X82693615Y24133992D01*
X82693609Y24134000D01*
X82553998Y24273611D01*
X82389812Y24383316D01*
X82207388Y24458878D01*
X82207385Y24458879D01*
X82067400Y24486724D01*
X82067400Y23971803D01*
X81980826Y23995000D01*
X81849174Y23995000D01*
X81762600Y23971803D01*
X81762600Y24486724D01*
X81622614Y24458879D01*
X81622611Y24458878D01*
X81440187Y24383316D01*
X81276001Y24273611D01*
X81136389Y24133999D01*
X81026684Y23969813D01*
X80951122Y23787389D01*
X80951121Y23787386D01*
X80923276Y23647400D01*
X81438198Y23647400D01*
X81415000Y23560826D01*
X81415000Y23429174D01*
X81438198Y23342600D01*
X80923276Y23342600D01*
X80951121Y23202615D01*
X80951122Y23202612D01*
X81026684Y23020188D01*
X81136389Y22856002D01*
X81276001Y22716390D01*
X81440187Y22606685D01*
X81622607Y22531124D01*
X81622608Y22531123D01*
X81762599Y22503277D01*
X81762600Y22503277D01*
X81762600Y23018198D01*
X81849174Y22995000D01*
X81980826Y22995000D01*
X82067400Y23018198D01*
X82067400Y22503277D01*
X82207391Y22531123D01*
X82207392Y22531124D01*
X82389812Y22606685D01*
X82553998Y22716390D01*
X82693609Y22856001D01*
X82693613Y22856006D01*
X82704772Y22872706D01*
X82746254Y22903123D01*
X82797584Y22899760D01*
X82834743Y22864189D01*
X82842499Y22830928D01*
X82842499Y22453171D01*
X82824906Y22404833D01*
X82820473Y22399997D01*
X82336615Y21916140D01*
X82289995Y21894400D01*
X82254664Y21899838D01*
X82207535Y21919359D01*
X82207536Y21919359D01*
X82013778Y21957900D01*
X82013777Y21957900D01*
X81816223Y21957900D01*
X81816222Y21957900D01*
X81622462Y21919359D01*
X81622461Y21919358D01*
X81439950Y21843760D01*
X81275682Y21734000D01*
X81136000Y21594318D01*
X81026240Y21430050D01*
X80950642Y21247539D01*
X80950641Y21247538D01*
X80912100Y21053778D01*
X80912100Y20856223D01*
X80950641Y20662463D01*
X80950642Y20662462D01*
X81026240Y20479951D01*
X81026241Y20479949D01*
X81135996Y20315688D01*
X81135997Y20315687D01*
X81136000Y20315683D01*
X81275682Y20176001D01*
X81275685Y20175999D01*
X81275688Y20175996D01*
X81439949Y20066241D01*
X81622461Y19990643D01*
X81622462Y19990642D01*
X81622463Y19990642D01*
X81622465Y19990641D01*
X81752218Y19964832D01*
X81816222Y19952100D01*
X81816223Y19952100D01*
X82013778Y19952100D01*
X82061889Y19961671D01*
X82207535Y19990641D01*
X82390051Y20066241D01*
X82554312Y20175996D01*
X82694004Y20315688D01*
X82803759Y20479949D01*
X82879359Y20662465D01*
X82917900Y20856223D01*
X82917900Y21053777D01*
X82917900Y21053778D01*
X83452100Y21053778D01*
X83452100Y20856223D01*
X83490641Y20662463D01*
X83490642Y20662462D01*
X83566240Y20479951D01*
X83566241Y20479949D01*
X83675996Y20315688D01*
X83675997Y20315687D01*
X83676000Y20315683D01*
X83815682Y20176001D01*
X83815685Y20175999D01*
X83815688Y20175996D01*
X83979949Y20066241D01*
X84162461Y19990643D01*
X84162462Y19990642D01*
X84162463Y19990642D01*
X84162465Y19990641D01*
X84292218Y19964832D01*
X84356222Y19952100D01*
X84356223Y19952100D01*
X84553778Y19952100D01*
X84601889Y19961671D01*
X84747535Y19990641D01*
X84930051Y20066241D01*
X85094312Y20175996D01*
X85234004Y20315688D01*
X85343759Y20479949D01*
X85419359Y20662465D01*
X85457900Y20856223D01*
X85457900Y21053777D01*
X85452831Y21079258D01*
X85445168Y21117782D01*
X85419359Y21247535D01*
X85343759Y21430051D01*
X85234004Y21594312D01*
X85234001Y21594315D01*
X85233999Y21594318D01*
X85094317Y21734000D01*
X85094313Y21734003D01*
X85094312Y21734004D01*
X84930051Y21843759D01*
X84917287Y21849046D01*
X84747538Y21919358D01*
X84747537Y21919359D01*
X84553778Y21957900D01*
X84553777Y21957900D01*
X84356223Y21957900D01*
X84356222Y21957900D01*
X84162462Y21919359D01*
X84162461Y21919358D01*
X83979950Y21843760D01*
X83815682Y21734000D01*
X83676000Y21594318D01*
X83566240Y21430050D01*
X83490642Y21247539D01*
X83490641Y21247538D01*
X83452100Y21053778D01*
X82917900Y21053778D01*
X82912831Y21079258D01*
X82908329Y21101890D01*
X82879359Y21247535D01*
X82859837Y21294667D01*
X82857594Y21346058D01*
X82876135Y21376614D01*
X83529275Y22029752D01*
X83533772Y22037541D01*
X83579500Y22116745D01*
X83605499Y22213774D01*
X83605499Y22745344D01*
X83623092Y22793682D01*
X83667641Y22819402D01*
X83718299Y22810469D01*
X83733873Y22798518D01*
X83816001Y22716390D01*
X83980187Y22606685D01*
X84162607Y22531124D01*
X84162608Y22531123D01*
X84302599Y22503277D01*
X84302600Y22503277D01*
X84302600Y23018198D01*
X84389174Y22995000D01*
X84520826Y22995000D01*
X84607400Y23018198D01*
X84607400Y22503277D01*
X84747391Y22531123D01*
X84747392Y22531124D01*
X84929812Y22606685D01*
X85093998Y22716390D01*
X85233610Y22856002D01*
X85343315Y23020188D01*
X85418877Y23202612D01*
X85418878Y23202615D01*
X85446724Y23342600D01*
X84931802Y23342600D01*
X84955000Y23429174D01*
X84955000Y23560826D01*
X84931802Y23647400D01*
X85446723Y23647400D01*
X85418878Y23787386D01*
X85418877Y23787389D01*
X85343315Y23969813D01*
X85233610Y24133999D01*
X85093998Y24273611D01*
X84929812Y24383316D01*
X84747388Y24458878D01*
X84747385Y24458879D01*
X84607400Y24486724D01*
X84607400Y23971803D01*
X84520826Y23995000D01*
X84389174Y23995000D01*
X84302600Y23971803D01*
X84302600Y24486724D01*
X84162614Y24458879D01*
X84162611Y24458878D01*
X83980187Y24383316D01*
X83816001Y24273611D01*
X83816000Y24273610D01*
X83733873Y24191482D01*
X83687253Y24169742D01*
X83637566Y24183056D01*
X83608061Y24225193D01*
X83605499Y24244656D01*
X83605499Y27071900D01*
X83623092Y27120238D01*
X83667641Y27145958D01*
X83680699Y27147100D01*
X89459790Y27147100D01*
X89459800Y27147100D01*
X89473557Y27147700D01*
X89486615Y27148842D01*
X89551807Y27169396D01*
X89596356Y27195116D01*
X89618904Y27210905D01*
X89665785Y27277859D01*
X89683378Y27326197D01*
X89692899Y27380196D01*
X89692900Y27380196D01*
X89692900Y33721208D01*
X91572100Y33721208D01*
X91572100Y33588792D01*
X91584653Y33541943D01*
X91606371Y33460886D01*
X91672578Y33346214D01*
X91672582Y33346208D01*
X91766207Y33252583D01*
X91766210Y33252581D01*
X91766212Y33252579D01*
X91816775Y33223387D01*
X91880885Y33186372D01*
X91880887Y33186372D01*
X91880888Y33186371D01*
X92008792Y33152100D01*
X92008794Y33152100D01*
X92141206Y33152100D01*
X92141208Y33152100D01*
X92269112Y33186371D01*
X92383788Y33252579D01*
X92477421Y33346212D01*
X92543629Y33460888D01*
X92577900Y33588792D01*
X92577900Y33721208D01*
X92543629Y33849112D01*
X92543628Y33849113D01*
X92543628Y33849115D01*
X92501249Y33922516D01*
X92477421Y33963788D01*
X92477419Y33963790D01*
X92477417Y33963793D01*
X92383792Y34057418D01*
X92383786Y34057422D01*
X92269114Y34123629D01*
X92205160Y34140765D01*
X92141208Y34157900D01*
X92008792Y34157900D01*
X91957630Y34144192D01*
X91880885Y34123629D01*
X91766213Y34057422D01*
X91766207Y34057418D01*
X91672582Y33963793D01*
X91672578Y33963787D01*
X91606371Y33849115D01*
X91595045Y33806843D01*
X91572100Y33721208D01*
X89692900Y33721208D01*
X89692900Y34849790D01*
X89692900Y34849800D01*
X89692300Y34863557D01*
X89691158Y34876615D01*
X89670604Y34941807D01*
X89644884Y34986356D01*
X89629095Y35008904D01*
X89614541Y35019095D01*
X89562143Y35055784D01*
X89562144Y35055784D01*
X89513802Y35073379D01*
X89459804Y35082900D01*
X89459800Y35082900D01*
X85546700Y35082900D01*
X85498362Y35100493D01*
X85472642Y35145042D01*
X85471500Y35158100D01*
X85471500Y37107401D01*
X90300132Y37107401D01*
X90300133Y37107400D01*
X90676577Y37107400D01*
X90655444Y37070796D01*
X90635000Y36994496D01*
X90635000Y36915504D01*
X90655444Y36839204D01*
X90676577Y36802600D01*
X90300133Y36802600D01*
X90307671Y36764702D01*
X90356851Y36645971D01*
X90428244Y36539123D01*
X90428252Y36539114D01*
X90519113Y36448253D01*
X90519122Y36448245D01*
X90625970Y36376852D01*
X90744698Y36327673D01*
X90744699Y36327672D01*
X90870743Y36302600D01*
X91332600Y36302600D01*
X91332600Y36655000D01*
X91637400Y36655000D01*
X91637400Y36302600D01*
X92099257Y36302600D01*
X92225300Y36327672D01*
X92225301Y36327673D01*
X92344029Y36376852D01*
X92450877Y36448245D01*
X92450886Y36448253D01*
X92541747Y36539114D01*
X92541755Y36539123D01*
X92613148Y36645971D01*
X92662328Y36764702D01*
X92669867Y36802600D01*
X92293423Y36802600D01*
X92314556Y36839204D01*
X92335000Y36915504D01*
X92335000Y36994496D01*
X92314556Y37070796D01*
X92293423Y37107400D01*
X92669867Y37107400D01*
X92669867Y37107401D01*
X94730132Y37107401D01*
X94730133Y37107400D01*
X95106577Y37107400D01*
X95085444Y37070796D01*
X95065000Y36994496D01*
X95065000Y36915504D01*
X95085444Y36839204D01*
X95106577Y36802600D01*
X94730133Y36802600D01*
X94737671Y36764702D01*
X94786851Y36645971D01*
X94858244Y36539123D01*
X94858252Y36539114D01*
X94949113Y36448253D01*
X94949122Y36448245D01*
X95055970Y36376852D01*
X95174698Y36327673D01*
X95174699Y36327672D01*
X95300743Y36302600D01*
X95512600Y36302600D01*
X95512600Y36655000D01*
X95817400Y36655000D01*
X95817400Y36302600D01*
X96029257Y36302600D01*
X96155300Y36327672D01*
X96155301Y36327673D01*
X96274029Y36376852D01*
X96380877Y36448245D01*
X96380886Y36448253D01*
X96471747Y36539114D01*
X96471755Y36539123D01*
X96543148Y36645971D01*
X96592328Y36764702D01*
X96599867Y36802600D01*
X96223423Y36802600D01*
X96244556Y36839204D01*
X96265000Y36915504D01*
X96265000Y36994496D01*
X96244556Y37070796D01*
X96223423Y37107400D01*
X96599867Y37107400D01*
X96599867Y37107401D01*
X96592328Y37145299D01*
X96543148Y37264030D01*
X96471755Y37370878D01*
X96471747Y37370887D01*
X96380886Y37461748D01*
X96380877Y37461756D01*
X96274029Y37533149D01*
X96155301Y37582328D01*
X96155300Y37582329D01*
X96029257Y37607400D01*
X95817400Y37607400D01*
X95817400Y37255000D01*
X95512600Y37255000D01*
X95512600Y37607400D01*
X95300743Y37607400D01*
X95174699Y37582329D01*
X95174698Y37582328D01*
X95055970Y37533149D01*
X94949122Y37461756D01*
X94949113Y37461748D01*
X94858252Y37370887D01*
X94858244Y37370878D01*
X94786851Y37264030D01*
X94737671Y37145299D01*
X94730132Y37107401D01*
X92669867Y37107401D01*
X92662328Y37145299D01*
X92613148Y37264030D01*
X92541755Y37370878D01*
X92541747Y37370887D01*
X92450886Y37461748D01*
X92450877Y37461756D01*
X92344029Y37533149D01*
X92225301Y37582328D01*
X92225300Y37582329D01*
X92099257Y37607400D01*
X91637400Y37607400D01*
X91637400Y37255000D01*
X91332600Y37255000D01*
X91332600Y37607400D01*
X90870743Y37607400D01*
X90744699Y37582329D01*
X90744698Y37582328D01*
X90625970Y37533149D01*
X90519122Y37461756D01*
X90519113Y37461748D01*
X90428252Y37370887D01*
X90428244Y37370878D01*
X90356851Y37264030D01*
X90307671Y37145299D01*
X90300132Y37107401D01*
X85471500Y37107401D01*
X85471500Y38460766D01*
X91439500Y38460766D01*
X91439500Y38309234D01*
X91478719Y38162866D01*
X91478722Y38162858D01*
X91554484Y38031635D01*
X91661634Y37924485D01*
X91792857Y37848723D01*
X91792860Y37848722D01*
X91792865Y37848719D01*
X91939234Y37809500D01*
X91939237Y37809500D01*
X92090763Y37809500D01*
X92090766Y37809500D01*
X92237135Y37848719D01*
X92368365Y37924485D01*
X92475515Y38031635D01*
X92551281Y38162865D01*
X92590500Y38309234D01*
X92590500Y38460766D01*
X92551281Y38607135D01*
X92551278Y38607140D01*
X92551277Y38607143D01*
X92475515Y38738366D01*
X92368365Y38845516D01*
X92237142Y38921278D01*
X92237136Y38921280D01*
X92237135Y38921281D01*
X92090766Y38960500D01*
X91939234Y38960500D01*
X91792865Y38921281D01*
X91792857Y38921278D01*
X91661634Y38845516D01*
X91554484Y38738366D01*
X91478722Y38607143D01*
X91478719Y38607135D01*
X91439500Y38460766D01*
X85471500Y38460766D01*
X85471500Y44240766D01*
X91439500Y44240766D01*
X91439500Y44089234D01*
X91478719Y43942866D01*
X91478722Y43942858D01*
X91554484Y43811635D01*
X91661634Y43704485D01*
X91792857Y43628723D01*
X91792860Y43628722D01*
X91792865Y43628719D01*
X91939234Y43589500D01*
X91939237Y43589500D01*
X92090763Y43589500D01*
X92090766Y43589500D01*
X92237135Y43628719D01*
X92298003Y43663861D01*
X92368365Y43704485D01*
X92475515Y43811635D01*
X92551277Y43942858D01*
X92551277Y43942859D01*
X92551281Y43942865D01*
X92590500Y44089234D01*
X92590500Y44240766D01*
X92551281Y44387135D01*
X92551278Y44387140D01*
X92551277Y44387143D01*
X92475515Y44518366D01*
X92368365Y44625516D01*
X92237142Y44701278D01*
X92237136Y44701280D01*
X92237135Y44701281D01*
X92090766Y44740500D01*
X91939234Y44740500D01*
X91792865Y44701281D01*
X91792857Y44701278D01*
X91661634Y44625516D01*
X91554484Y44518366D01*
X91478722Y44387143D01*
X91478719Y44387135D01*
X91439500Y44240766D01*
X85471500Y44240766D01*
X85471500Y45747401D01*
X90300132Y45747401D01*
X90300133Y45747400D01*
X90676577Y45747400D01*
X90655444Y45710796D01*
X90635000Y45634496D01*
X90635000Y45555504D01*
X90655444Y45479204D01*
X90676577Y45442600D01*
X90300133Y45442600D01*
X90307671Y45404702D01*
X90356851Y45285971D01*
X90428244Y45179123D01*
X90428252Y45179114D01*
X90519113Y45088253D01*
X90519122Y45088245D01*
X90625970Y45016852D01*
X90744698Y44967673D01*
X90744699Y44967672D01*
X90870743Y44942600D01*
X91332600Y44942600D01*
X91332600Y45295000D01*
X91637400Y45295000D01*
X91637400Y44942600D01*
X92099257Y44942600D01*
X92225300Y44967672D01*
X92225301Y44967673D01*
X92344029Y45016852D01*
X92450877Y45088245D01*
X92450886Y45088253D01*
X92541747Y45179114D01*
X92541755Y45179123D01*
X92613148Y45285971D01*
X92662328Y45404702D01*
X92669867Y45442600D01*
X92293423Y45442600D01*
X92314556Y45479204D01*
X92335000Y45555504D01*
X92335000Y45634496D01*
X92314556Y45710796D01*
X92293423Y45747400D01*
X92669867Y45747400D01*
X92669867Y45747401D01*
X94730132Y45747401D01*
X94730133Y45747400D01*
X95106577Y45747400D01*
X95085444Y45710796D01*
X95065000Y45634496D01*
X95065000Y45555504D01*
X95085444Y45479204D01*
X95106577Y45442600D01*
X94730133Y45442600D01*
X94737671Y45404702D01*
X94786851Y45285971D01*
X94858244Y45179123D01*
X94858252Y45179114D01*
X94949113Y45088253D01*
X94949122Y45088245D01*
X95055970Y45016852D01*
X95174698Y44967673D01*
X95174699Y44967672D01*
X95300743Y44942600D01*
X95512600Y44942600D01*
X95512600Y45295000D01*
X95817400Y45295000D01*
X95817400Y44942600D01*
X96029257Y44942600D01*
X96155300Y44967672D01*
X96155301Y44967673D01*
X96274029Y45016852D01*
X96380877Y45088245D01*
X96380886Y45088253D01*
X96471747Y45179114D01*
X96471755Y45179123D01*
X96543148Y45285971D01*
X96592328Y45404702D01*
X96599867Y45442600D01*
X96223423Y45442600D01*
X96244556Y45479204D01*
X96265000Y45555504D01*
X96265000Y45634496D01*
X96244556Y45710796D01*
X96223423Y45747400D01*
X96599867Y45747400D01*
X96599867Y45747401D01*
X96592328Y45785299D01*
X96543148Y45904030D01*
X96471755Y46010878D01*
X96471747Y46010887D01*
X96380886Y46101748D01*
X96380877Y46101756D01*
X96274029Y46173149D01*
X96155301Y46222328D01*
X96155300Y46222329D01*
X96029257Y46247400D01*
X95817400Y46247400D01*
X95817400Y45895000D01*
X95512600Y45895000D01*
X95512600Y46247400D01*
X95300743Y46247400D01*
X95174699Y46222329D01*
X95174698Y46222328D01*
X95055970Y46173149D01*
X94949122Y46101756D01*
X94949113Y46101748D01*
X94858252Y46010887D01*
X94858244Y46010878D01*
X94786851Y45904030D01*
X94737671Y45785299D01*
X94730132Y45747401D01*
X92669867Y45747401D01*
X92662328Y45785299D01*
X92613148Y45904030D01*
X92541755Y46010878D01*
X92541747Y46010887D01*
X92450886Y46101748D01*
X92450877Y46101756D01*
X92344029Y46173149D01*
X92225301Y46222328D01*
X92225300Y46222329D01*
X92099257Y46247400D01*
X91637400Y46247400D01*
X91637400Y45895000D01*
X91332600Y45895000D01*
X91332600Y46247400D01*
X90870743Y46247400D01*
X90744699Y46222329D01*
X90744698Y46222328D01*
X90625970Y46173149D01*
X90519122Y46101756D01*
X90519113Y46101748D01*
X90428252Y46010887D01*
X90428244Y46010878D01*
X90356851Y45904030D01*
X90307671Y45785299D01*
X90300132Y45747401D01*
X85471500Y45747401D01*
X85471500Y48800223D01*
X85471500Y48800225D01*
X85445502Y48897253D01*
X85445501Y48897254D01*
X85445501Y48897256D01*
X85395276Y48984248D01*
X83627525Y50751999D01*
X83605785Y50798619D01*
X83605499Y50805173D01*
X83605499Y57977400D01*
X83623092Y58025738D01*
X83667641Y58051458D01*
X83680699Y58052600D01*
X84302600Y58052600D01*
X84302600Y58578198D01*
X84389174Y58555000D01*
X84520826Y58555000D01*
X84607400Y58578198D01*
X84607400Y58052600D01*
X85320013Y58052600D01*
X85364462Y58061442D01*
X85364464Y58061443D01*
X85414873Y58095127D01*
X85448557Y58145536D01*
X85448558Y58145538D01*
X85457400Y58189988D01*
X85457400Y58902600D01*
X84931802Y58902600D01*
X84955000Y58989174D01*
X84955000Y59120826D01*
X84931802Y59207400D01*
X85457400Y59207400D01*
X85457400Y59920013D01*
X85448558Y59964463D01*
X85448557Y59964465D01*
X85414873Y60014874D01*
X85364464Y60048558D01*
X85364462Y60048559D01*
X85320013Y60057400D01*
X84607400Y60057400D01*
X84607400Y59531803D01*
X84520826Y59555000D01*
X84389174Y59555000D01*
X84302600Y59531803D01*
X84302600Y60057400D01*
X83680699Y60057400D01*
X83632361Y60074993D01*
X83606641Y60119542D01*
X83605499Y60132600D01*
X83605499Y60336224D01*
X83605499Y60336226D01*
X83579500Y60433255D01*
X83529275Y60520248D01*
X83458246Y60591277D01*
X82876139Y61173384D01*
X82854399Y61220004D01*
X82859838Y61255337D01*
X82879356Y61302457D01*
X82879358Y61302463D01*
X82879357Y61302463D01*
X82879359Y61302465D01*
X82917900Y61496223D01*
X82917900Y61693777D01*
X82917900Y61693778D01*
X83452100Y61693778D01*
X83452100Y61496223D01*
X83490641Y61302463D01*
X83490642Y61302462D01*
X83566240Y61119951D01*
X83566241Y61119949D01*
X83675996Y60955688D01*
X83675997Y60955687D01*
X83676000Y60955683D01*
X83815682Y60816001D01*
X83815685Y60815999D01*
X83815688Y60815996D01*
X83979949Y60706241D01*
X84162461Y60630643D01*
X84162462Y60630642D01*
X84162463Y60630642D01*
X84162465Y60630641D01*
X84292218Y60604832D01*
X84356222Y60592100D01*
X84356223Y60592100D01*
X84553778Y60592100D01*
X84601889Y60601671D01*
X84747535Y60630641D01*
X84930051Y60706241D01*
X85094312Y60815996D01*
X85234004Y60955688D01*
X85343759Y61119949D01*
X85419359Y61302465D01*
X85457900Y61496223D01*
X85457900Y61693777D01*
X85419359Y61887535D01*
X85343759Y62070051D01*
X85234004Y62234312D01*
X85234001Y62234315D01*
X85233999Y62234318D01*
X85094317Y62374000D01*
X85094313Y62374003D01*
X85094312Y62374004D01*
X84930051Y62483759D01*
X84930049Y62483760D01*
X84747538Y62559358D01*
X84747537Y62559359D01*
X84553778Y62597900D01*
X84553777Y62597900D01*
X84356223Y62597900D01*
X84356222Y62597900D01*
X84162462Y62559359D01*
X84162461Y62559358D01*
X83979950Y62483760D01*
X83815682Y62374000D01*
X83676000Y62234318D01*
X83566240Y62070050D01*
X83490642Y61887539D01*
X83490641Y61887538D01*
X83452100Y61693778D01*
X82917900Y61693778D01*
X82879359Y61887535D01*
X82803759Y62070051D01*
X82694004Y62234312D01*
X82694001Y62234315D01*
X82693999Y62234318D01*
X82554317Y62374000D01*
X82554313Y62374003D01*
X82554312Y62374004D01*
X82390051Y62483759D01*
X82390049Y62483760D01*
X82207538Y62559358D01*
X82207537Y62559359D01*
X82013778Y62597900D01*
X82013777Y62597900D01*
X81816223Y62597900D01*
X81816222Y62597900D01*
X81622462Y62559359D01*
X81622461Y62559358D01*
X81439950Y62483760D01*
X81275682Y62374000D01*
X81136000Y62234318D01*
X81026240Y62070050D01*
X80950642Y61887539D01*
X80950641Y61887538D01*
X80912100Y61693778D01*
X80912100Y61496223D01*
X80950641Y61302463D01*
X80950642Y61302462D01*
X81026240Y61119951D01*
X81026241Y61119949D01*
X81135996Y60955688D01*
X81135997Y60955687D01*
X81136000Y60955683D01*
X81275682Y60816001D01*
X81275685Y60815999D01*
X81275688Y60815996D01*
X81439949Y60706241D01*
X81622461Y60630643D01*
X81622462Y60630642D01*
X81622463Y60630642D01*
X81622465Y60630641D01*
X81752218Y60604832D01*
X81816222Y60592100D01*
X81816223Y60592100D01*
X82013778Y60592100D01*
X82061889Y60601671D01*
X82207535Y60630641D01*
X82207539Y60630643D01*
X82207543Y60630644D01*
X82254663Y60650162D01*
X82306054Y60652407D01*
X82336616Y60633861D01*
X82820473Y60150004D01*
X82842213Y60103384D01*
X82842499Y60096830D01*
X82842499Y59719073D01*
X82824906Y59670735D01*
X82780357Y59645015D01*
X82729699Y59653948D01*
X82704773Y59677294D01*
X82693615Y59693992D01*
X82693609Y59694000D01*
X82553998Y59833611D01*
X82389812Y59943316D01*
X82207388Y60018878D01*
X82207385Y60018879D01*
X82067400Y60046724D01*
X82067400Y59531803D01*
X81980826Y59555000D01*
X81849174Y59555000D01*
X81762600Y59531803D01*
X81762600Y60046724D01*
X81622614Y60018879D01*
X81622611Y60018878D01*
X81440187Y59943316D01*
X81276001Y59833611D01*
X81136389Y59693999D01*
X81026684Y59529813D01*
X80951122Y59347389D01*
X80951121Y59347386D01*
X80923276Y59207400D01*
X81438198Y59207400D01*
X81415000Y59120826D01*
X81415000Y58989174D01*
X81438198Y58902600D01*
X80923276Y58902600D01*
X80951121Y58762615D01*
X80951122Y58762612D01*
X81026684Y58580188D01*
X81136389Y58416002D01*
X81276001Y58276390D01*
X81440187Y58166685D01*
X81622607Y58091124D01*
X81622608Y58091123D01*
X81762599Y58063277D01*
X81762600Y58063277D01*
X81762600Y58578198D01*
X81849174Y58555000D01*
X81980826Y58555000D01*
X82067400Y58578198D01*
X82067400Y58063277D01*
X82207391Y58091123D01*
X82207392Y58091124D01*
X82389812Y58166685D01*
X82553998Y58276390D01*
X82693609Y58416001D01*
X82693613Y58416006D01*
X82704772Y58432706D01*
X82746254Y58463123D01*
X82797584Y58459760D01*
X82834743Y58424189D01*
X82842499Y58390928D01*
X82842499Y50565776D01*
X82861998Y50493005D01*
X82868498Y50468746D01*
X82893026Y50426263D01*
X82918722Y50381756D01*
X82918726Y50381750D01*
X84686474Y48614003D01*
X84708214Y48567383D01*
X84708500Y48560829D01*
X84708500Y35158100D01*
X84690907Y35109762D01*
X84646358Y35084042D01*
X84633300Y35082900D01*
X80720200Y35082900D01*
X80712959Y35082585D01*
X80706434Y35082300D01*
X80694690Y35081273D01*
X80693385Y35081158D01*
X80628193Y35060604D01*
X80628192Y35060604D01*
X80583644Y35034885D01*
X80583640Y35034882D01*
X80561095Y35019095D01*
X80514216Y34952145D01*
X80496621Y34903803D01*
X80487100Y34849805D01*
X80487100Y31571700D01*
X80469507Y31523362D01*
X80424958Y31497642D01*
X80411900Y31496500D01*
X70674171Y31496500D01*
X70625833Y31514093D01*
X70620997Y31518526D01*
X61774926Y40364597D01*
X61753186Y40411217D01*
X61752900Y40417771D01*
X61752900Y42469790D01*
X61752900Y42469800D01*
X61752300Y42483557D01*
X61751158Y42496615D01*
X61730604Y42561807D01*
X61704884Y42606356D01*
X61689095Y42628904D01*
X61665893Y42645150D01*
X61622143Y42675784D01*
X61622144Y42675784D01*
X61573802Y42693379D01*
X61519804Y42702900D01*
X61519800Y42702900D01*
X59130200Y42702900D01*
X59122959Y42702585D01*
X59116434Y42702300D01*
X59104690Y42701273D01*
X59103385Y42701158D01*
X59038193Y42680604D01*
X59038192Y42680604D01*
X58993644Y42654885D01*
X58993640Y42654882D01*
X58971095Y42639095D01*
X58924216Y42572145D01*
X58906621Y42523803D01*
X58897100Y42469805D01*
X58897100Y40417771D01*
X58879507Y40369433D01*
X58875074Y40364597D01*
X58766503Y40256026D01*
X58719883Y40234286D01*
X58713329Y40234000D01*
X52564200Y40234000D01*
X52515862Y40251593D01*
X52490142Y40296142D01*
X52489000Y40309200D01*
X52489000Y42197463D01*
X52506593Y42245801D01*
X52551142Y42271521D01*
X52554391Y42272021D01*
X52554987Y42272100D01*
X52555000Y42272100D01*
X52633950Y42293255D01*
X52633953Y42293258D01*
X52651826Y42311130D01*
X52698446Y42332870D01*
X52748133Y42319556D01*
X52758174Y42311130D01*
X52776046Y42293258D01*
X52776048Y42293257D01*
X52776050Y42293255D01*
X52855000Y42272100D01*
X52855003Y42272100D01*
X53420828Y42272100D01*
X53420830Y42272101D01*
X53461694Y42277481D01*
X53588861Y42311556D01*
X53626943Y42327330D01*
X53740957Y42393156D01*
X53773659Y42418249D01*
X53866751Y42511341D01*
X53891844Y42544043D01*
X53957670Y42658057D01*
X53973444Y42696139D01*
X54007519Y42823306D01*
X54012900Y42864174D01*
X54012900Y43495826D01*
X54007519Y43536694D01*
X53993369Y43589500D01*
X53973446Y43663854D01*
X53973440Y43663871D01*
X53965558Y43682900D01*
X53957670Y43701943D01*
X53891844Y43815957D01*
X53866751Y43848659D01*
X53866749Y43848661D01*
X53866743Y43848668D01*
X53773667Y43941744D01*
X53773653Y43941756D01*
X53740957Y43966845D01*
X53697899Y43991705D01*
X53664835Y44031110D01*
X53660300Y44056829D01*
X53660300Y44307393D01*
X53677893Y44355731D01*
X53682326Y44360567D01*
X55489297Y46167537D01*
X55489297Y46167538D01*
X55489301Y46167541D01*
X55529494Y46237159D01*
X55550300Y46314807D01*
X55550300Y47187942D01*
X55567893Y47236280D01*
X55572326Y47241116D01*
X55647417Y47316208D01*
X55647421Y47316212D01*
X55713629Y47430888D01*
X55747900Y47558792D01*
X55747900Y47691208D01*
X55713629Y47819112D01*
X55713628Y47819113D01*
X55713628Y47819115D01*
X55676613Y47883225D01*
X55647421Y47933788D01*
X55647419Y47933790D01*
X55647417Y47933793D01*
X55553792Y48027418D01*
X55553786Y48027422D01*
X55439114Y48093629D01*
X55375160Y48110765D01*
X55311208Y48127900D01*
X55178792Y48127900D01*
X55127630Y48114192D01*
X55050885Y48093629D01*
X54936213Y48027422D01*
X54936207Y48027418D01*
X54861116Y47952326D01*
X54814496Y47930586D01*
X54807942Y47930300D01*
X41432607Y47930300D01*
X41384269Y47947893D01*
X41379433Y47952326D01*
X39100551Y50231208D01*
X40772100Y50231208D01*
X40772100Y50098792D01*
X40792662Y50022050D01*
X40806371Y49970886D01*
X40872578Y49856214D01*
X40872582Y49856208D01*
X40966207Y49762583D01*
X40966210Y49762581D01*
X40966212Y49762579D01*
X41016775Y49733387D01*
X41080885Y49696372D01*
X41080887Y49696372D01*
X41080888Y49696371D01*
X41208792Y49662100D01*
X41208794Y49662100D01*
X41341206Y49662100D01*
X41341208Y49662100D01*
X41469112Y49696371D01*
X41583788Y49762579D01*
X41677421Y49856212D01*
X41743629Y49970888D01*
X41777900Y50098792D01*
X41777900Y50231208D01*
X49027100Y50231208D01*
X49027100Y50098792D01*
X49047662Y50022050D01*
X49061371Y49970886D01*
X49127578Y49856214D01*
X49127582Y49856208D01*
X49221207Y49762583D01*
X49221210Y49762581D01*
X49221212Y49762579D01*
X49271775Y49733387D01*
X49335885Y49696372D01*
X49335887Y49696372D01*
X49335888Y49696371D01*
X49463792Y49662100D01*
X49463794Y49662100D01*
X49596206Y49662100D01*
X49596208Y49662100D01*
X49724112Y49696371D01*
X49838788Y49762579D01*
X49932421Y49856212D01*
X49934723Y49860199D01*
X49974128Y49893264D01*
X49999849Y49897800D01*
X57315151Y49897800D01*
X57363489Y49880207D01*
X57380277Y49860199D01*
X57382579Y49856211D01*
X57476207Y49762583D01*
X57476210Y49762581D01*
X57476212Y49762579D01*
X57526775Y49733387D01*
X57590885Y49696372D01*
X57590887Y49696372D01*
X57590888Y49696371D01*
X57718792Y49662100D01*
X57718794Y49662100D01*
X57851206Y49662100D01*
X57851208Y49662100D01*
X57979112Y49696371D01*
X58093788Y49762579D01*
X58187421Y49856212D01*
X58253629Y49970888D01*
X58287900Y50098792D01*
X58287900Y50231208D01*
X58253629Y50359112D01*
X58253628Y50359113D01*
X58253628Y50359115D01*
X58201274Y50449793D01*
X58187421Y50473788D01*
X58187419Y50473790D01*
X58187417Y50473793D01*
X58093792Y50567418D01*
X58093786Y50567422D01*
X57979114Y50633629D01*
X57915160Y50650765D01*
X57851208Y50667900D01*
X57718792Y50667900D01*
X57667630Y50654192D01*
X57590885Y50633629D01*
X57476213Y50567422D01*
X57476207Y50567418D01*
X57382579Y50473790D01*
X57380277Y50469801D01*
X57340872Y50436736D01*
X57315151Y50432200D01*
X49999849Y50432200D01*
X49951511Y50449793D01*
X49934723Y50469801D01*
X49932420Y50473790D01*
X49838792Y50567418D01*
X49838786Y50567422D01*
X49724114Y50633629D01*
X49660160Y50650765D01*
X49596208Y50667900D01*
X49463792Y50667900D01*
X49412630Y50654192D01*
X49335885Y50633629D01*
X49221213Y50567422D01*
X49221207Y50567418D01*
X49127582Y50473793D01*
X49127578Y50473787D01*
X49061371Y50359115D01*
X49040808Y50282370D01*
X49027100Y50231208D01*
X41777900Y50231208D01*
X41743629Y50359112D01*
X41743628Y50359113D01*
X41743628Y50359115D01*
X41691274Y50449793D01*
X41677421Y50473788D01*
X41677419Y50473790D01*
X41677417Y50473793D01*
X41583792Y50567418D01*
X41583786Y50567422D01*
X41469114Y50633629D01*
X41405160Y50650765D01*
X41341208Y50667900D01*
X41208792Y50667900D01*
X41157630Y50654192D01*
X41080885Y50633629D01*
X40966213Y50567422D01*
X40966207Y50567418D01*
X40872582Y50473793D01*
X40872578Y50473787D01*
X40806371Y50359115D01*
X40785808Y50282370D01*
X40772100Y50231208D01*
X39100551Y50231208D01*
X33982326Y55349433D01*
X33960586Y55396053D01*
X33960300Y55402607D01*
X33960300Y59207400D01*
X35203276Y59207400D01*
X35718198Y59207400D01*
X35695000Y59120826D01*
X35695000Y58989174D01*
X35718198Y58902600D01*
X35203276Y58902600D01*
X35231121Y58762615D01*
X35231122Y58762612D01*
X35306684Y58580188D01*
X35416389Y58416002D01*
X35556001Y58276390D01*
X35720187Y58166685D01*
X35902607Y58091124D01*
X35902608Y58091123D01*
X36042599Y58063277D01*
X36042600Y58063277D01*
X36042600Y58578198D01*
X36129174Y58555000D01*
X36260826Y58555000D01*
X36347400Y58578198D01*
X36347400Y58063277D01*
X36487391Y58091123D01*
X36487392Y58091124D01*
X36669812Y58166685D01*
X36833998Y58276390D01*
X36973610Y58416002D01*
X37083315Y58580188D01*
X37158877Y58762612D01*
X37158878Y58762615D01*
X37186724Y58902600D01*
X36671802Y58902600D01*
X36695000Y58989174D01*
X36695000Y59120826D01*
X36686170Y59153778D01*
X37732100Y59153778D01*
X37732100Y58956223D01*
X37770641Y58762463D01*
X37770642Y58762462D01*
X37846241Y58579949D01*
X37955996Y58415688D01*
X37955997Y58415687D01*
X37956000Y58415683D01*
X38095682Y58276001D01*
X38095685Y58275999D01*
X38095688Y58275996D01*
X38259949Y58166241D01*
X38442461Y58090643D01*
X38442462Y58090642D01*
X38442463Y58090642D01*
X38442465Y58090641D01*
X38572218Y58064832D01*
X38636222Y58052100D01*
X38636223Y58052100D01*
X38833778Y58052100D01*
X38896739Y58064624D01*
X39027535Y58090641D01*
X39210051Y58166241D01*
X39374312Y58275996D01*
X39514004Y58415688D01*
X39623759Y58579949D01*
X39699359Y58762465D01*
X39737900Y58956223D01*
X39737900Y59153777D01*
X39737900Y59153778D01*
X40272100Y59153778D01*
X40272100Y58956223D01*
X40310641Y58762463D01*
X40310642Y58762462D01*
X40386241Y58579949D01*
X40495996Y58415688D01*
X40495997Y58415687D01*
X40496000Y58415683D01*
X40635682Y58276001D01*
X40635685Y58275999D01*
X40635688Y58275996D01*
X40799949Y58166241D01*
X40982461Y58090643D01*
X40982462Y58090642D01*
X40982463Y58090642D01*
X40982465Y58090641D01*
X41112218Y58064832D01*
X41176222Y58052100D01*
X41176223Y58052100D01*
X41373778Y58052100D01*
X41436739Y58064624D01*
X41567535Y58090641D01*
X41750051Y58166241D01*
X41914312Y58275996D01*
X42054004Y58415688D01*
X42163759Y58579949D01*
X42239359Y58762465D01*
X42277900Y58956223D01*
X42277900Y59153777D01*
X42277900Y59153778D01*
X42812100Y59153778D01*
X42812100Y58956223D01*
X42850641Y58762463D01*
X42850642Y58762462D01*
X42926241Y58579949D01*
X43035996Y58415688D01*
X43035997Y58415687D01*
X43036000Y58415683D01*
X43175682Y58276001D01*
X43175685Y58275999D01*
X43175688Y58275996D01*
X43339949Y58166241D01*
X43522461Y58090643D01*
X43522462Y58090642D01*
X43522463Y58090642D01*
X43522465Y58090641D01*
X43652218Y58064832D01*
X43716222Y58052100D01*
X43716223Y58052100D01*
X43913778Y58052100D01*
X43976739Y58064624D01*
X44107535Y58090641D01*
X44290051Y58166241D01*
X44454312Y58275996D01*
X44594004Y58415688D01*
X44703759Y58579949D01*
X44779359Y58762465D01*
X44817900Y58956223D01*
X44817900Y59153777D01*
X44817900Y59153778D01*
X45352100Y59153778D01*
X45352100Y58956223D01*
X45390641Y58762463D01*
X45390642Y58762462D01*
X45466241Y58579949D01*
X45575996Y58415688D01*
X45575997Y58415687D01*
X45576000Y58415683D01*
X45715682Y58276001D01*
X45715685Y58275999D01*
X45715688Y58275996D01*
X45879949Y58166241D01*
X46062461Y58090643D01*
X46062462Y58090642D01*
X46062463Y58090642D01*
X46062465Y58090641D01*
X46192218Y58064832D01*
X46256222Y58052100D01*
X46256223Y58052100D01*
X46453778Y58052100D01*
X46516739Y58064624D01*
X46647535Y58090641D01*
X46830051Y58166241D01*
X46994312Y58275996D01*
X47134004Y58415688D01*
X47243759Y58579949D01*
X47319359Y58762465D01*
X47357900Y58956223D01*
X47357900Y59153777D01*
X47357900Y59153778D01*
X47892100Y59153778D01*
X47892100Y58956223D01*
X47930641Y58762463D01*
X47930642Y58762462D01*
X48006241Y58579949D01*
X48115996Y58415688D01*
X48115997Y58415687D01*
X48116000Y58415683D01*
X48255682Y58276001D01*
X48255685Y58275999D01*
X48255688Y58275996D01*
X48419949Y58166241D01*
X48602461Y58090643D01*
X48602462Y58090642D01*
X48602463Y58090642D01*
X48602465Y58090641D01*
X48732218Y58064832D01*
X48796222Y58052100D01*
X48796223Y58052100D01*
X48993778Y58052100D01*
X49056739Y58064624D01*
X49187535Y58090641D01*
X49370051Y58166241D01*
X49534312Y58275996D01*
X49674004Y58415688D01*
X49783759Y58579949D01*
X49859359Y58762465D01*
X49897900Y58956223D01*
X49897900Y59153777D01*
X49897900Y59153778D01*
X50432100Y59153778D01*
X50432100Y58956223D01*
X50470641Y58762463D01*
X50470642Y58762462D01*
X50546241Y58579949D01*
X50655996Y58415688D01*
X50655997Y58415687D01*
X50656000Y58415683D01*
X50795682Y58276001D01*
X50795685Y58275999D01*
X50795688Y58275996D01*
X50959949Y58166241D01*
X51142461Y58090643D01*
X51142462Y58090642D01*
X51142463Y58090642D01*
X51142465Y58090641D01*
X51272218Y58064832D01*
X51336222Y58052100D01*
X51336223Y58052100D01*
X51533778Y58052100D01*
X51596739Y58064624D01*
X51727535Y58090641D01*
X51910051Y58166241D01*
X52074312Y58275996D01*
X52214004Y58415688D01*
X52323759Y58579949D01*
X52399359Y58762465D01*
X52437900Y58956223D01*
X52437900Y59153777D01*
X52437900Y59153778D01*
X52972100Y59153778D01*
X52972100Y58956223D01*
X53010641Y58762463D01*
X53010642Y58762462D01*
X53086241Y58579949D01*
X53195996Y58415688D01*
X53195997Y58415687D01*
X53196000Y58415683D01*
X53335682Y58276001D01*
X53335685Y58275999D01*
X53335688Y58275996D01*
X53499949Y58166241D01*
X53682461Y58090643D01*
X53682462Y58090642D01*
X53682463Y58090642D01*
X53682465Y58090641D01*
X53812218Y58064832D01*
X53876222Y58052100D01*
X53876223Y58052100D01*
X54073778Y58052100D01*
X54136739Y58064624D01*
X54267535Y58090641D01*
X54450051Y58166241D01*
X54614312Y58275996D01*
X54754004Y58415688D01*
X54863759Y58579949D01*
X54939359Y58762465D01*
X54977900Y58956223D01*
X54977900Y59153777D01*
X54977900Y59153778D01*
X55512100Y59153778D01*
X55512100Y58956223D01*
X55550641Y58762463D01*
X55550642Y58762462D01*
X55626241Y58579949D01*
X55735996Y58415688D01*
X55735997Y58415687D01*
X55736000Y58415683D01*
X55875682Y58276001D01*
X55875685Y58275999D01*
X55875688Y58275996D01*
X56039949Y58166241D01*
X56222461Y58090643D01*
X56222462Y58090642D01*
X56222463Y58090642D01*
X56222465Y58090641D01*
X56352218Y58064832D01*
X56416222Y58052100D01*
X56416223Y58052100D01*
X56613778Y58052100D01*
X56676739Y58064624D01*
X56807535Y58090641D01*
X56990051Y58166241D01*
X57154312Y58275996D01*
X57294004Y58415688D01*
X57403759Y58579949D01*
X57479359Y58762465D01*
X57517900Y58956223D01*
X57517900Y59153777D01*
X57517900Y59153778D01*
X58052100Y59153778D01*
X58052100Y58956223D01*
X58090641Y58762463D01*
X58090642Y58762462D01*
X58166241Y58579949D01*
X58275996Y58415688D01*
X58275997Y58415687D01*
X58276000Y58415683D01*
X58415682Y58276001D01*
X58415685Y58275999D01*
X58415688Y58275996D01*
X58579949Y58166241D01*
X58762461Y58090643D01*
X58762462Y58090642D01*
X58762463Y58090642D01*
X58762465Y58090641D01*
X58892218Y58064832D01*
X58956222Y58052100D01*
X58956223Y58052100D01*
X59153778Y58052100D01*
X59216739Y58064624D01*
X59347535Y58090641D01*
X59530051Y58166241D01*
X59694312Y58275996D01*
X59834004Y58415688D01*
X59943759Y58579949D01*
X60019359Y58762465D01*
X60057900Y58956223D01*
X60057900Y59153777D01*
X60057900Y59153778D01*
X60592100Y59153778D01*
X60592100Y58956223D01*
X60630641Y58762463D01*
X60630642Y58762462D01*
X60706241Y58579949D01*
X60815996Y58415688D01*
X60815997Y58415687D01*
X60816000Y58415683D01*
X60955682Y58276001D01*
X60955685Y58275999D01*
X60955688Y58275996D01*
X61119949Y58166241D01*
X61302461Y58090643D01*
X61302462Y58090642D01*
X61302463Y58090642D01*
X61302465Y58090641D01*
X61432218Y58064832D01*
X61496222Y58052100D01*
X61496223Y58052100D01*
X61693778Y58052100D01*
X61756739Y58064624D01*
X61887535Y58090641D01*
X62070051Y58166241D01*
X62234312Y58275996D01*
X62374004Y58415688D01*
X62483759Y58579949D01*
X62559359Y58762465D01*
X62597900Y58956223D01*
X62597900Y59153777D01*
X62597900Y59153778D01*
X63132100Y59153778D01*
X63132100Y58956223D01*
X63170641Y58762463D01*
X63170642Y58762462D01*
X63246241Y58579949D01*
X63355996Y58415688D01*
X63355997Y58415687D01*
X63356000Y58415683D01*
X63495682Y58276001D01*
X63495685Y58275999D01*
X63495688Y58275996D01*
X63659949Y58166241D01*
X63842461Y58090643D01*
X63842462Y58090642D01*
X63842463Y58090642D01*
X63842465Y58090641D01*
X63972218Y58064832D01*
X64036222Y58052100D01*
X64036223Y58052100D01*
X64233778Y58052100D01*
X64296739Y58064624D01*
X64427535Y58090641D01*
X64610051Y58166241D01*
X64774312Y58275996D01*
X64914004Y58415688D01*
X65023759Y58579949D01*
X65099359Y58762465D01*
X65137900Y58956223D01*
X65137900Y59153777D01*
X65137900Y59153778D01*
X65672100Y59153778D01*
X65672100Y58956223D01*
X65710641Y58762463D01*
X65710642Y58762462D01*
X65786241Y58579949D01*
X65895996Y58415688D01*
X65895997Y58415687D01*
X65896000Y58415683D01*
X66035682Y58276001D01*
X66035685Y58275999D01*
X66035688Y58275996D01*
X66199949Y58166241D01*
X66382461Y58090643D01*
X66382462Y58090642D01*
X66382463Y58090642D01*
X66382465Y58090641D01*
X66512218Y58064832D01*
X66576222Y58052100D01*
X66576223Y58052100D01*
X66773778Y58052100D01*
X66836739Y58064624D01*
X66967535Y58090641D01*
X67150051Y58166241D01*
X67314312Y58275996D01*
X67454004Y58415688D01*
X67563759Y58579949D01*
X67639359Y58762465D01*
X67677900Y58956223D01*
X67677900Y59153777D01*
X67677900Y59153778D01*
X68212100Y59153778D01*
X68212100Y58956223D01*
X68250641Y58762463D01*
X68250642Y58762462D01*
X68326241Y58579949D01*
X68435996Y58415688D01*
X68435997Y58415687D01*
X68436000Y58415683D01*
X68575682Y58276001D01*
X68575685Y58275999D01*
X68575688Y58275996D01*
X68739949Y58166241D01*
X68922461Y58090643D01*
X68922462Y58090642D01*
X68922463Y58090642D01*
X68922465Y58090641D01*
X69052218Y58064832D01*
X69116222Y58052100D01*
X69116223Y58052100D01*
X69313778Y58052100D01*
X69376739Y58064624D01*
X69507535Y58090641D01*
X69690051Y58166241D01*
X69854312Y58275996D01*
X69994004Y58415688D01*
X70103759Y58579949D01*
X70179359Y58762465D01*
X70217900Y58956223D01*
X70217900Y59153777D01*
X70217899Y59153780D01*
X70199159Y59247993D01*
X70179359Y59347535D01*
X70103759Y59530051D01*
X69994004Y59694312D01*
X69994001Y59694315D01*
X69993999Y59694318D01*
X69854317Y59834000D01*
X69854313Y59834003D01*
X69854312Y59834004D01*
X69690051Y59943759D01*
X69518363Y60014874D01*
X69507538Y60019358D01*
X69507537Y60019359D01*
X69313778Y60057900D01*
X69313777Y60057900D01*
X69116223Y60057900D01*
X69116222Y60057900D01*
X68922462Y60019359D01*
X68922461Y60019358D01*
X68739950Y59943760D01*
X68575682Y59834000D01*
X68436000Y59694318D01*
X68326240Y59530050D01*
X68250642Y59347539D01*
X68250641Y59347538D01*
X68212100Y59153778D01*
X67677900Y59153778D01*
X67677899Y59153780D01*
X67659159Y59247993D01*
X67639359Y59347535D01*
X67563759Y59530051D01*
X67454004Y59694312D01*
X67454001Y59694315D01*
X67453999Y59694318D01*
X67314317Y59834000D01*
X67314313Y59834003D01*
X67314312Y59834004D01*
X67150051Y59943759D01*
X66978363Y60014874D01*
X66967538Y60019358D01*
X66967537Y60019359D01*
X66773778Y60057900D01*
X66773777Y60057900D01*
X66576223Y60057900D01*
X66576222Y60057900D01*
X66382462Y60019359D01*
X66382461Y60019358D01*
X66199950Y59943760D01*
X66035682Y59834000D01*
X65896000Y59694318D01*
X65786240Y59530050D01*
X65710642Y59347539D01*
X65710641Y59347538D01*
X65672100Y59153778D01*
X65137900Y59153778D01*
X65137899Y59153780D01*
X65119159Y59247993D01*
X65099359Y59347535D01*
X65023759Y59530051D01*
X64914004Y59694312D01*
X64914001Y59694315D01*
X64913999Y59694318D01*
X64774317Y59834000D01*
X64774313Y59834003D01*
X64774312Y59834004D01*
X64610051Y59943759D01*
X64438363Y60014874D01*
X64427538Y60019358D01*
X64427537Y60019359D01*
X64233778Y60057900D01*
X64233777Y60057900D01*
X64036223Y60057900D01*
X64036222Y60057900D01*
X63842462Y60019359D01*
X63842461Y60019358D01*
X63659950Y59943760D01*
X63495682Y59834000D01*
X63356000Y59694318D01*
X63246240Y59530050D01*
X63170642Y59347539D01*
X63170641Y59347538D01*
X63132100Y59153778D01*
X62597900Y59153778D01*
X62597899Y59153780D01*
X62579159Y59247993D01*
X62559359Y59347535D01*
X62483759Y59530051D01*
X62374004Y59694312D01*
X62374001Y59694315D01*
X62373999Y59694318D01*
X62234317Y59834000D01*
X62234313Y59834003D01*
X62234312Y59834004D01*
X62070051Y59943759D01*
X61898363Y60014874D01*
X61887538Y60019358D01*
X61887537Y60019359D01*
X61693778Y60057900D01*
X61693777Y60057900D01*
X61496223Y60057900D01*
X61496222Y60057900D01*
X61302462Y60019359D01*
X61302461Y60019358D01*
X61119950Y59943760D01*
X60955682Y59834000D01*
X60816000Y59694318D01*
X60706240Y59530050D01*
X60630642Y59347539D01*
X60630641Y59347538D01*
X60592100Y59153778D01*
X60057900Y59153778D01*
X60057899Y59153780D01*
X60039159Y59247993D01*
X60019359Y59347535D01*
X59943759Y59530051D01*
X59834004Y59694312D01*
X59834001Y59694315D01*
X59833999Y59694318D01*
X59694317Y59834000D01*
X59694313Y59834003D01*
X59694312Y59834004D01*
X59530051Y59943759D01*
X59358363Y60014874D01*
X59347538Y60019358D01*
X59347537Y60019359D01*
X59153778Y60057900D01*
X59153777Y60057900D01*
X58956223Y60057900D01*
X58956222Y60057900D01*
X58762462Y60019359D01*
X58762461Y60019358D01*
X58579950Y59943760D01*
X58415682Y59834000D01*
X58276000Y59694318D01*
X58166240Y59530050D01*
X58090642Y59347539D01*
X58090641Y59347538D01*
X58052100Y59153778D01*
X57517900Y59153778D01*
X57517899Y59153780D01*
X57499159Y59247993D01*
X57479359Y59347535D01*
X57403759Y59530051D01*
X57294004Y59694312D01*
X57294001Y59694315D01*
X57293999Y59694318D01*
X57154317Y59834000D01*
X57154313Y59834003D01*
X57154312Y59834004D01*
X56990051Y59943759D01*
X56818363Y60014874D01*
X56807538Y60019358D01*
X56807537Y60019359D01*
X56613778Y60057900D01*
X56613777Y60057900D01*
X56416223Y60057900D01*
X56416222Y60057900D01*
X56222462Y60019359D01*
X56222461Y60019358D01*
X56039950Y59943760D01*
X55875682Y59834000D01*
X55736000Y59694318D01*
X55626240Y59530050D01*
X55550642Y59347539D01*
X55550641Y59347538D01*
X55512100Y59153778D01*
X54977900Y59153778D01*
X54977899Y59153780D01*
X54959159Y59247993D01*
X54939359Y59347535D01*
X54863759Y59530051D01*
X54754004Y59694312D01*
X54754001Y59694315D01*
X54753999Y59694318D01*
X54614317Y59834000D01*
X54614313Y59834003D01*
X54614312Y59834004D01*
X54450051Y59943759D01*
X54278363Y60014874D01*
X54267538Y60019358D01*
X54267537Y60019359D01*
X54073778Y60057900D01*
X54073777Y60057900D01*
X53876223Y60057900D01*
X53876222Y60057900D01*
X53682462Y60019359D01*
X53682461Y60019358D01*
X53499950Y59943760D01*
X53335682Y59834000D01*
X53196000Y59694318D01*
X53086240Y59530050D01*
X53010642Y59347539D01*
X53010641Y59347538D01*
X52972100Y59153778D01*
X52437900Y59153778D01*
X52437899Y59153780D01*
X52419159Y59247993D01*
X52399359Y59347535D01*
X52323759Y59530051D01*
X52214004Y59694312D01*
X52214001Y59694315D01*
X52213999Y59694318D01*
X52074317Y59834000D01*
X52074313Y59834003D01*
X52074312Y59834004D01*
X51910051Y59943759D01*
X51738363Y60014874D01*
X51727538Y60019358D01*
X51727537Y60019359D01*
X51533778Y60057900D01*
X51533777Y60057900D01*
X51336223Y60057900D01*
X51336222Y60057900D01*
X51142462Y60019359D01*
X51142461Y60019358D01*
X50959950Y59943760D01*
X50795682Y59834000D01*
X50656000Y59694318D01*
X50546240Y59530050D01*
X50470642Y59347539D01*
X50470641Y59347538D01*
X50432100Y59153778D01*
X49897900Y59153778D01*
X49897899Y59153780D01*
X49879159Y59247993D01*
X49859359Y59347535D01*
X49783759Y59530051D01*
X49674004Y59694312D01*
X49674001Y59694315D01*
X49673999Y59694318D01*
X49534317Y59834000D01*
X49534313Y59834003D01*
X49534312Y59834004D01*
X49370051Y59943759D01*
X49198363Y60014874D01*
X49187538Y60019358D01*
X49187537Y60019359D01*
X48993778Y60057900D01*
X48993777Y60057900D01*
X48796223Y60057900D01*
X48796222Y60057900D01*
X48602462Y60019359D01*
X48602461Y60019358D01*
X48419950Y59943760D01*
X48255682Y59834000D01*
X48116000Y59694318D01*
X48006240Y59530050D01*
X47930642Y59347539D01*
X47930641Y59347538D01*
X47892100Y59153778D01*
X47357900Y59153778D01*
X47357899Y59153780D01*
X47339159Y59247993D01*
X47319359Y59347535D01*
X47243759Y59530051D01*
X47134004Y59694312D01*
X47134001Y59694315D01*
X47133999Y59694318D01*
X46994317Y59834000D01*
X46994313Y59834003D01*
X46994312Y59834004D01*
X46830051Y59943759D01*
X46658363Y60014874D01*
X46647538Y60019358D01*
X46647537Y60019359D01*
X46453778Y60057900D01*
X46453777Y60057900D01*
X46256223Y60057900D01*
X46256222Y60057900D01*
X46062462Y60019359D01*
X46062461Y60019358D01*
X45879950Y59943760D01*
X45715682Y59834000D01*
X45576000Y59694318D01*
X45466240Y59530050D01*
X45390642Y59347539D01*
X45390641Y59347538D01*
X45352100Y59153778D01*
X44817900Y59153778D01*
X44817899Y59153780D01*
X44799159Y59247993D01*
X44779359Y59347535D01*
X44703759Y59530051D01*
X44594004Y59694312D01*
X44594001Y59694315D01*
X44593999Y59694318D01*
X44454317Y59834000D01*
X44454313Y59834003D01*
X44454312Y59834004D01*
X44290051Y59943759D01*
X44118363Y60014874D01*
X44107538Y60019358D01*
X44107537Y60019359D01*
X43913778Y60057900D01*
X43913777Y60057900D01*
X43716223Y60057900D01*
X43716222Y60057900D01*
X43522462Y60019359D01*
X43522461Y60019358D01*
X43339950Y59943760D01*
X43175682Y59834000D01*
X43036000Y59694318D01*
X42926240Y59530050D01*
X42850642Y59347539D01*
X42850641Y59347538D01*
X42812100Y59153778D01*
X42277900Y59153778D01*
X42277899Y59153780D01*
X42259159Y59247993D01*
X42239359Y59347535D01*
X42163759Y59530051D01*
X42054004Y59694312D01*
X42054001Y59694315D01*
X42053999Y59694318D01*
X41914317Y59834000D01*
X41914313Y59834003D01*
X41914312Y59834004D01*
X41750051Y59943759D01*
X41578363Y60014874D01*
X41567538Y60019358D01*
X41567537Y60019359D01*
X41373778Y60057900D01*
X41373777Y60057900D01*
X41176223Y60057900D01*
X41176222Y60057900D01*
X40982462Y60019359D01*
X40982461Y60019358D01*
X40799950Y59943760D01*
X40635682Y59834000D01*
X40496000Y59694318D01*
X40386240Y59530050D01*
X40310642Y59347539D01*
X40310641Y59347538D01*
X40272100Y59153778D01*
X39737900Y59153778D01*
X39737899Y59153780D01*
X39719159Y59247993D01*
X39699359Y59347535D01*
X39623759Y59530051D01*
X39514004Y59694312D01*
X39514001Y59694315D01*
X39513999Y59694318D01*
X39374317Y59834000D01*
X39374313Y59834003D01*
X39374312Y59834004D01*
X39210051Y59943759D01*
X39038363Y60014874D01*
X39027538Y60019358D01*
X39027537Y60019359D01*
X38833778Y60057900D01*
X38833777Y60057900D01*
X38636223Y60057900D01*
X38636222Y60057900D01*
X38442462Y60019359D01*
X38442461Y60019358D01*
X38259950Y59943760D01*
X38095682Y59834000D01*
X37956000Y59694318D01*
X37846240Y59530050D01*
X37770642Y59347539D01*
X37770641Y59347538D01*
X37732100Y59153778D01*
X36686170Y59153778D01*
X36671802Y59207400D01*
X37186724Y59207400D01*
X37158878Y59347386D01*
X37158877Y59347389D01*
X37083315Y59529813D01*
X36973610Y59693999D01*
X36833998Y59833611D01*
X36669812Y59943316D01*
X36487388Y60018878D01*
X36487385Y60018879D01*
X36347400Y60046724D01*
X36347400Y59531803D01*
X36260826Y59555000D01*
X36129174Y59555000D01*
X36042600Y59531803D01*
X36042600Y60046724D01*
X35902614Y60018879D01*
X35902611Y60018878D01*
X35720187Y59943316D01*
X35556001Y59833611D01*
X35416389Y59693999D01*
X35306684Y59529813D01*
X35231122Y59347389D01*
X35231121Y59347386D01*
X35203276Y59207400D01*
X33960300Y59207400D01*
X33960300Y60167393D01*
X33977893Y60215731D01*
X33982326Y60220567D01*
X35029433Y61267674D01*
X35044309Y61274612D01*
X35056887Y61285165D01*
X35073054Y61288016D01*
X35076053Y61289414D01*
X35082607Y61289700D01*
X35185681Y61289700D01*
X35234019Y61272107D01*
X35255156Y61243280D01*
X35306241Y61119949D01*
X35415996Y60955688D01*
X35415997Y60955687D01*
X35416000Y60955683D01*
X35555682Y60816001D01*
X35555685Y60815999D01*
X35555688Y60815996D01*
X35719949Y60706241D01*
X35902461Y60630643D01*
X35902462Y60630642D01*
X35902463Y60630642D01*
X35902465Y60630641D01*
X36032218Y60604832D01*
X36096222Y60592100D01*
X36096223Y60592100D01*
X36293778Y60592100D01*
X36341889Y60601671D01*
X36487535Y60630641D01*
X36670051Y60706241D01*
X36834312Y60815996D01*
X36974004Y60955688D01*
X37083759Y61119949D01*
X37159359Y61302465D01*
X37197900Y61496223D01*
X37197900Y61693777D01*
X37197900Y61693778D01*
X37732100Y61693778D01*
X37732100Y61496223D01*
X37770641Y61302463D01*
X37770642Y61302462D01*
X37846240Y61119951D01*
X37846241Y61119949D01*
X37955996Y60955688D01*
X37955997Y60955687D01*
X37956000Y60955683D01*
X38095682Y60816001D01*
X38095685Y60815999D01*
X38095688Y60815996D01*
X38259949Y60706241D01*
X38442461Y60630643D01*
X38442462Y60630642D01*
X38442463Y60630642D01*
X38442465Y60630641D01*
X38572218Y60604832D01*
X38636222Y60592100D01*
X38636223Y60592100D01*
X38833778Y60592100D01*
X38881889Y60601671D01*
X39027535Y60630641D01*
X39210051Y60706241D01*
X39374312Y60815996D01*
X39514004Y60955688D01*
X39623759Y61119949D01*
X39699359Y61302465D01*
X39737900Y61496223D01*
X39737900Y61693777D01*
X39737900Y61693778D01*
X40272100Y61693778D01*
X40272100Y61496223D01*
X40310641Y61302463D01*
X40310642Y61302462D01*
X40386240Y61119951D01*
X40386241Y61119949D01*
X40495996Y60955688D01*
X40495997Y60955687D01*
X40496000Y60955683D01*
X40635682Y60816001D01*
X40635685Y60815999D01*
X40635688Y60815996D01*
X40799949Y60706241D01*
X40982461Y60630643D01*
X40982462Y60630642D01*
X40982463Y60630642D01*
X40982465Y60630641D01*
X41112218Y60604832D01*
X41176222Y60592100D01*
X41176223Y60592100D01*
X41373778Y60592100D01*
X41421889Y60601671D01*
X41567535Y60630641D01*
X41750051Y60706241D01*
X41914312Y60815996D01*
X42054004Y60955688D01*
X42163759Y61119949D01*
X42239359Y61302465D01*
X42277900Y61496223D01*
X42277900Y61693777D01*
X42277900Y61693778D01*
X42812100Y61693778D01*
X42812100Y61496223D01*
X42850641Y61302463D01*
X42850642Y61302462D01*
X42926240Y61119951D01*
X42926241Y61119949D01*
X43035996Y60955688D01*
X43035997Y60955687D01*
X43036000Y60955683D01*
X43175682Y60816001D01*
X43175685Y60815999D01*
X43175688Y60815996D01*
X43339949Y60706241D01*
X43522461Y60630643D01*
X43522462Y60630642D01*
X43522463Y60630642D01*
X43522465Y60630641D01*
X43652218Y60604832D01*
X43716222Y60592100D01*
X43716223Y60592100D01*
X43913778Y60592100D01*
X43961889Y60601671D01*
X44107535Y60630641D01*
X44290051Y60706241D01*
X44454312Y60815996D01*
X44594004Y60955688D01*
X44703759Y61119949D01*
X44779359Y61302465D01*
X44817900Y61496223D01*
X44817900Y61693777D01*
X44817900Y61693778D01*
X45352100Y61693778D01*
X45352100Y61496223D01*
X45390641Y61302463D01*
X45390642Y61302462D01*
X45466240Y61119951D01*
X45466241Y61119949D01*
X45575996Y60955688D01*
X45575997Y60955687D01*
X45576000Y60955683D01*
X45715682Y60816001D01*
X45715685Y60815999D01*
X45715688Y60815996D01*
X45879949Y60706241D01*
X46062461Y60630643D01*
X46062462Y60630642D01*
X46062463Y60630642D01*
X46062465Y60630641D01*
X46192218Y60604832D01*
X46256222Y60592100D01*
X46256223Y60592100D01*
X46453778Y60592100D01*
X46501889Y60601671D01*
X46647535Y60630641D01*
X46830051Y60706241D01*
X46994312Y60815996D01*
X47134004Y60955688D01*
X47243759Y61119949D01*
X47319359Y61302465D01*
X47357900Y61496223D01*
X47357900Y61693777D01*
X47357900Y61693778D01*
X47892100Y61693778D01*
X47892100Y61496223D01*
X47930641Y61302463D01*
X47930642Y61302462D01*
X48006240Y61119951D01*
X48006241Y61119949D01*
X48115996Y60955688D01*
X48115997Y60955687D01*
X48116000Y60955683D01*
X48255682Y60816001D01*
X48255685Y60815999D01*
X48255688Y60815996D01*
X48419949Y60706241D01*
X48602461Y60630643D01*
X48602462Y60630642D01*
X48602463Y60630642D01*
X48602465Y60630641D01*
X48732218Y60604832D01*
X48796222Y60592100D01*
X48796223Y60592100D01*
X48993778Y60592100D01*
X49041889Y60601671D01*
X49187535Y60630641D01*
X49370051Y60706241D01*
X49534312Y60815996D01*
X49674004Y60955688D01*
X49783759Y61119949D01*
X49859359Y61302465D01*
X49897900Y61496223D01*
X49897900Y61693777D01*
X49897900Y61693778D01*
X50432100Y61693778D01*
X50432100Y61496223D01*
X50470641Y61302463D01*
X50470642Y61302462D01*
X50546240Y61119951D01*
X50546241Y61119949D01*
X50655996Y60955688D01*
X50655997Y60955687D01*
X50656000Y60955683D01*
X50795682Y60816001D01*
X50795685Y60815999D01*
X50795688Y60815996D01*
X50959949Y60706241D01*
X51142461Y60630643D01*
X51142462Y60630642D01*
X51142463Y60630642D01*
X51142465Y60630641D01*
X51272218Y60604832D01*
X51336222Y60592100D01*
X51336223Y60592100D01*
X51533778Y60592100D01*
X51581889Y60601671D01*
X51727535Y60630641D01*
X51910051Y60706241D01*
X52074312Y60815996D01*
X52214004Y60955688D01*
X52323759Y61119949D01*
X52399359Y61302465D01*
X52437900Y61496223D01*
X52437900Y61693777D01*
X52437900Y61693778D01*
X52972100Y61693778D01*
X52972100Y61496223D01*
X53010641Y61302463D01*
X53010642Y61302462D01*
X53086240Y61119951D01*
X53086241Y61119949D01*
X53195996Y60955688D01*
X53195997Y60955687D01*
X53196000Y60955683D01*
X53335682Y60816001D01*
X53335685Y60815999D01*
X53335688Y60815996D01*
X53499949Y60706241D01*
X53682461Y60630643D01*
X53682462Y60630642D01*
X53682463Y60630642D01*
X53682465Y60630641D01*
X53812218Y60604832D01*
X53876222Y60592100D01*
X53876223Y60592100D01*
X54073778Y60592100D01*
X54121889Y60601671D01*
X54267535Y60630641D01*
X54450051Y60706241D01*
X54614312Y60815996D01*
X54754004Y60955688D01*
X54863759Y61119949D01*
X54939359Y61302465D01*
X54977900Y61496223D01*
X54977900Y61693777D01*
X54977900Y61693778D01*
X55512100Y61693778D01*
X55512100Y61496223D01*
X55550641Y61302463D01*
X55550642Y61302462D01*
X55626240Y61119951D01*
X55626241Y61119949D01*
X55735996Y60955688D01*
X55735997Y60955687D01*
X55736000Y60955683D01*
X55875682Y60816001D01*
X55875685Y60815999D01*
X55875688Y60815996D01*
X56039949Y60706241D01*
X56222461Y60630643D01*
X56222462Y60630642D01*
X56222463Y60630642D01*
X56222465Y60630641D01*
X56352218Y60604832D01*
X56416222Y60592100D01*
X56416223Y60592100D01*
X56613778Y60592100D01*
X56661889Y60601671D01*
X56807535Y60630641D01*
X56990051Y60706241D01*
X57154312Y60815996D01*
X57294004Y60955688D01*
X57403759Y61119949D01*
X57479359Y61302465D01*
X57517900Y61496223D01*
X57517900Y61693777D01*
X57517900Y61693778D01*
X58052100Y61693778D01*
X58052100Y61496223D01*
X58090641Y61302463D01*
X58090642Y61302462D01*
X58166240Y61119951D01*
X58166241Y61119949D01*
X58275996Y60955688D01*
X58275997Y60955687D01*
X58276000Y60955683D01*
X58415682Y60816001D01*
X58415685Y60815999D01*
X58415688Y60815996D01*
X58579949Y60706241D01*
X58762461Y60630643D01*
X58762462Y60630642D01*
X58762463Y60630642D01*
X58762465Y60630641D01*
X58892218Y60604832D01*
X58956222Y60592100D01*
X58956223Y60592100D01*
X59153778Y60592100D01*
X59201889Y60601671D01*
X59347535Y60630641D01*
X59530051Y60706241D01*
X59694312Y60815996D01*
X59834004Y60955688D01*
X59943759Y61119949D01*
X60019359Y61302465D01*
X60057900Y61496223D01*
X60057900Y61693777D01*
X60057900Y61693778D01*
X60592100Y61693778D01*
X60592100Y61496223D01*
X60630641Y61302463D01*
X60630642Y61302462D01*
X60706240Y61119951D01*
X60706241Y61119949D01*
X60815996Y60955688D01*
X60815997Y60955687D01*
X60816000Y60955683D01*
X60955682Y60816001D01*
X60955685Y60815999D01*
X60955688Y60815996D01*
X61119949Y60706241D01*
X61302461Y60630643D01*
X61302462Y60630642D01*
X61302463Y60630642D01*
X61302465Y60630641D01*
X61432218Y60604832D01*
X61496222Y60592100D01*
X61496223Y60592100D01*
X61693778Y60592100D01*
X61741889Y60601671D01*
X61887535Y60630641D01*
X62070051Y60706241D01*
X62234312Y60815996D01*
X62374004Y60955688D01*
X62483759Y61119949D01*
X62559359Y61302465D01*
X62597900Y61496223D01*
X62597900Y61693777D01*
X62597900Y61693778D01*
X63132100Y61693778D01*
X63132100Y61496223D01*
X63170641Y61302463D01*
X63170642Y61302462D01*
X63246240Y61119951D01*
X63246241Y61119949D01*
X63355996Y60955688D01*
X63355997Y60955687D01*
X63356000Y60955683D01*
X63495682Y60816001D01*
X63495685Y60815999D01*
X63495688Y60815996D01*
X63659949Y60706241D01*
X63842461Y60630643D01*
X63842462Y60630642D01*
X63842463Y60630642D01*
X63842465Y60630641D01*
X63972218Y60604832D01*
X64036222Y60592100D01*
X64036223Y60592100D01*
X64233778Y60592100D01*
X64281889Y60601671D01*
X64427535Y60630641D01*
X64610051Y60706241D01*
X64774312Y60815996D01*
X64914004Y60955688D01*
X65023759Y61119949D01*
X65099359Y61302465D01*
X65137900Y61496223D01*
X65137900Y61693777D01*
X65137900Y61693778D01*
X65672100Y61693778D01*
X65672100Y61496223D01*
X65710641Y61302463D01*
X65710642Y61302462D01*
X65786240Y61119951D01*
X65786241Y61119949D01*
X65895996Y60955688D01*
X65895997Y60955687D01*
X65896000Y60955683D01*
X66035682Y60816001D01*
X66035685Y60815999D01*
X66035688Y60815996D01*
X66199949Y60706241D01*
X66382461Y60630643D01*
X66382462Y60630642D01*
X66382463Y60630642D01*
X66382465Y60630641D01*
X66512218Y60604832D01*
X66576222Y60592100D01*
X66576223Y60592100D01*
X66773778Y60592100D01*
X66821889Y60601671D01*
X66967535Y60630641D01*
X67150051Y60706241D01*
X67314312Y60815996D01*
X67454004Y60955688D01*
X67563759Y61119949D01*
X67639359Y61302465D01*
X67677900Y61496223D01*
X67677900Y61693777D01*
X67677900Y61693778D01*
X68212100Y61693778D01*
X68212100Y61496223D01*
X68250641Y61302463D01*
X68250642Y61302462D01*
X68326240Y61119951D01*
X68326241Y61119949D01*
X68435996Y60955688D01*
X68435997Y60955687D01*
X68436000Y60955683D01*
X68575682Y60816001D01*
X68575685Y60815999D01*
X68575688Y60815996D01*
X68739949Y60706241D01*
X68922461Y60630643D01*
X68922462Y60630642D01*
X68922463Y60630642D01*
X68922465Y60630641D01*
X69052218Y60604832D01*
X69116222Y60592100D01*
X69116223Y60592100D01*
X69313778Y60592100D01*
X69361889Y60601671D01*
X69507535Y60630641D01*
X69668967Y60697509D01*
X69720355Y60699752D01*
X69750916Y60681206D01*
X70349073Y60083049D01*
X70370813Y60036429D01*
X70371099Y60029875D01*
X70371099Y44110126D01*
X70353506Y44061788D01*
X70349073Y44056951D01*
X69993292Y43701171D01*
X69946672Y43679432D01*
X69920661Y43681707D01*
X69916208Y43682900D01*
X69783792Y43682900D01*
X69737409Y43670472D01*
X69655885Y43648629D01*
X69541213Y43582422D01*
X69541207Y43582418D01*
X69447582Y43488793D01*
X69447578Y43488787D01*
X69381371Y43374115D01*
X69367755Y43323296D01*
X69347100Y43246208D01*
X69347100Y43113792D01*
X69359860Y43066171D01*
X69381371Y42985886D01*
X69447578Y42871214D01*
X69447582Y42871208D01*
X69541207Y42777583D01*
X69541210Y42777581D01*
X69541212Y42777579D01*
X69586472Y42751448D01*
X69655885Y42711372D01*
X69655887Y42711372D01*
X69655888Y42711371D01*
X69783792Y42677100D01*
X69783794Y42677100D01*
X69916206Y42677100D01*
X69916208Y42677100D01*
X70044112Y42711371D01*
X70158788Y42777579D01*
X70252421Y42871212D01*
X70318629Y42985888D01*
X70352900Y43113792D01*
X70352900Y43246208D01*
X70351707Y43250660D01*
X70356191Y43301902D01*
X70371166Y43323290D01*
X70864820Y43816942D01*
X70905499Y43915150D01*
X70905499Y44021448D01*
X70905499Y58304636D01*
X70923092Y58352974D01*
X70967641Y58378694D01*
X71018299Y58369761D01*
X71033873Y58357810D01*
X71115682Y58276001D01*
X71115685Y58275999D01*
X71115688Y58275996D01*
X71279949Y58166241D01*
X71441379Y58099375D01*
X71479303Y58064624D01*
X71487800Y58029900D01*
X71487800Y43321828D01*
X71470207Y43273490D01*
X71465774Y43268653D01*
X71263291Y43066171D01*
X71216671Y43044432D01*
X71190657Y43046708D01*
X71186208Y43047900D01*
X71053792Y43047900D01*
X71007409Y43035472D01*
X70925885Y43013629D01*
X70811213Y42947422D01*
X70811207Y42947418D01*
X70717582Y42853793D01*
X70717578Y42853787D01*
X70651371Y42739115D01*
X70639854Y42696130D01*
X70617100Y42611208D01*
X70617100Y42478792D01*
X70629860Y42431171D01*
X70651371Y42350886D01*
X70717578Y42236214D01*
X70717582Y42236208D01*
X70811207Y42142583D01*
X70811210Y42142581D01*
X70811212Y42142579D01*
X70861775Y42113387D01*
X70925885Y42076372D01*
X70925887Y42076372D01*
X70925888Y42076371D01*
X71053792Y42042100D01*
X71053794Y42042100D01*
X71186206Y42042100D01*
X71186208Y42042100D01*
X71314112Y42076371D01*
X71428788Y42142579D01*
X71522421Y42236212D01*
X71588629Y42350888D01*
X71622900Y42478792D01*
X71622900Y42611208D01*
X71621708Y42615657D01*
X71626190Y42666900D01*
X71641168Y42688292D01*
X71981521Y43028643D01*
X72022200Y43126851D01*
X72022200Y43233149D01*
X72022200Y58029900D01*
X72039793Y58078238D01*
X72068620Y58099375D01*
X72230051Y58166241D01*
X72394312Y58275996D01*
X72534004Y58415688D01*
X72643759Y58579949D01*
X72719359Y58762465D01*
X72757900Y58956223D01*
X72757900Y59153777D01*
X72757899Y59153780D01*
X72739159Y59247993D01*
X72719359Y59347535D01*
X72643759Y59530051D01*
X72534004Y59694312D01*
X72534001Y59694315D01*
X72533999Y59694318D01*
X72394317Y59834000D01*
X72394313Y59834003D01*
X72394312Y59834004D01*
X72230051Y59943759D01*
X72058363Y60014874D01*
X72047538Y60019358D01*
X72047537Y60019359D01*
X71853778Y60057900D01*
X71853777Y60057900D01*
X71656223Y60057900D01*
X71656222Y60057900D01*
X71462462Y60019359D01*
X71462461Y60019358D01*
X71279950Y59943760D01*
X71115682Y59834000D01*
X71115681Y59833999D01*
X71033873Y59752190D01*
X70987253Y59730450D01*
X70937566Y59743764D01*
X70908061Y59785901D01*
X70905499Y59805364D01*
X70905499Y60224849D01*
X70905499Y60224850D01*
X70864820Y60323058D01*
X70789656Y60398222D01*
X70128794Y61059084D01*
X70107054Y61105704D01*
X70112491Y61141031D01*
X70179359Y61302465D01*
X70217900Y61496223D01*
X70217900Y61693777D01*
X70217900Y61693778D01*
X70752100Y61693778D01*
X70752100Y61496223D01*
X70790641Y61302463D01*
X70790642Y61302462D01*
X70866240Y61119951D01*
X70866241Y61119949D01*
X70975996Y60955688D01*
X70975997Y60955687D01*
X70976000Y60955683D01*
X71115682Y60816001D01*
X71115685Y60815999D01*
X71115688Y60815996D01*
X71279949Y60706241D01*
X71462461Y60630643D01*
X71462462Y60630642D01*
X71462463Y60630642D01*
X71462465Y60630641D01*
X71592218Y60604832D01*
X71656222Y60592100D01*
X71656223Y60592100D01*
X71853778Y60592100D01*
X71901889Y60601671D01*
X72047535Y60630641D01*
X72208967Y60697509D01*
X72260355Y60699752D01*
X72290916Y60681206D01*
X72889073Y60083049D01*
X72910813Y60036429D01*
X72911099Y60029875D01*
X72911099Y42840126D01*
X72893506Y42791788D01*
X72889073Y42786951D01*
X72533292Y42431171D01*
X72486672Y42409432D01*
X72460661Y42411707D01*
X72456208Y42412900D01*
X72323792Y42412900D01*
X72277581Y42400518D01*
X72195885Y42378629D01*
X72081213Y42312422D01*
X72081207Y42312418D01*
X71987582Y42218793D01*
X71987578Y42218787D01*
X71921371Y42104115D01*
X71907755Y42053296D01*
X71887100Y41976208D01*
X71887100Y41843792D01*
X71899860Y41796171D01*
X71921371Y41715886D01*
X71987578Y41601214D01*
X71987582Y41601208D01*
X72081207Y41507583D01*
X72081210Y41507581D01*
X72081212Y41507579D01*
X72131775Y41478387D01*
X72195885Y41441372D01*
X72195887Y41441372D01*
X72195888Y41441371D01*
X72323792Y41407100D01*
X72323794Y41407100D01*
X72456206Y41407100D01*
X72456208Y41407100D01*
X72584112Y41441371D01*
X72698788Y41507579D01*
X72792421Y41601212D01*
X72858629Y41715888D01*
X72892900Y41843792D01*
X72892900Y41976208D01*
X72891707Y41980660D01*
X72896191Y42031902D01*
X72911166Y42053290D01*
X73404820Y42546942D01*
X73445499Y42645150D01*
X73445499Y42751448D01*
X73445499Y58304636D01*
X73463092Y58352974D01*
X73507641Y58378694D01*
X73558299Y58369761D01*
X73573873Y58357810D01*
X73655682Y58276001D01*
X73655685Y58275999D01*
X73655688Y58275996D01*
X73819949Y58166241D01*
X73981379Y58099375D01*
X74019303Y58064624D01*
X74027800Y58029900D01*
X74027800Y42051828D01*
X74010207Y42003490D01*
X74005774Y41998653D01*
X73803291Y41796171D01*
X73756671Y41774432D01*
X73730657Y41776708D01*
X73726208Y41777900D01*
X73593792Y41777900D01*
X73547409Y41765472D01*
X73465885Y41743629D01*
X73351213Y41677422D01*
X73351207Y41677418D01*
X73257582Y41583793D01*
X73257578Y41583787D01*
X73191371Y41469115D01*
X73177755Y41418295D01*
X73157100Y41341208D01*
X73157100Y41208792D01*
X73174755Y41142900D01*
X73191371Y41080886D01*
X73249756Y40979762D01*
X73255193Y40970344D01*
X73257578Y40966214D01*
X73257582Y40966208D01*
X73351207Y40872583D01*
X73351210Y40872581D01*
X73351212Y40872579D01*
X73401775Y40843387D01*
X73465885Y40806372D01*
X73465887Y40806372D01*
X73465888Y40806371D01*
X73593792Y40772100D01*
X73593794Y40772100D01*
X73726206Y40772100D01*
X73726208Y40772100D01*
X73854112Y40806371D01*
X73968788Y40872579D01*
X74062421Y40966212D01*
X74128629Y41080888D01*
X74162900Y41208792D01*
X74162900Y41341208D01*
X74161708Y41345657D01*
X74166190Y41396900D01*
X74181168Y41418292D01*
X74521521Y41758643D01*
X74562200Y41856851D01*
X74562200Y41963149D01*
X74562200Y58029900D01*
X74579793Y58078238D01*
X74608620Y58099375D01*
X74770051Y58166241D01*
X74934312Y58275996D01*
X74962952Y58304636D01*
X75016127Y58357810D01*
X75062747Y58379550D01*
X75112434Y58366236D01*
X75141939Y58324099D01*
X75144501Y58304636D01*
X75144501Y41263529D01*
X75138885Y41248102D01*
X75137455Y41231748D01*
X75128040Y41218304D01*
X75126908Y41215191D01*
X75122475Y41210355D01*
X75073292Y41161172D01*
X75026672Y41139432D01*
X75000661Y41141707D01*
X74996208Y41142900D01*
X74863792Y41142900D01*
X74817409Y41130472D01*
X74735885Y41108629D01*
X74621213Y41042422D01*
X74621207Y41042418D01*
X74527582Y40948793D01*
X74527578Y40948787D01*
X74461371Y40834115D01*
X74447755Y40783295D01*
X74427100Y40706208D01*
X74427100Y40573792D01*
X74447662Y40497050D01*
X74461371Y40445886D01*
X74527578Y40331214D01*
X74527582Y40331208D01*
X74621207Y40237583D01*
X74621210Y40237581D01*
X74621212Y40237579D01*
X74671775Y40208387D01*
X74735885Y40171372D01*
X74735887Y40171372D01*
X74735888Y40171371D01*
X74863792Y40137100D01*
X74863794Y40137100D01*
X74996206Y40137100D01*
X74996208Y40137100D01*
X75124112Y40171371D01*
X75238788Y40237579D01*
X75332421Y40331212D01*
X75398629Y40445888D01*
X75432900Y40573792D01*
X75432900Y40706208D01*
X75431708Y40710657D01*
X75436190Y40761900D01*
X75451168Y40783292D01*
X75638222Y40970344D01*
X75678901Y41068552D01*
X75678901Y41174850D01*
X75678901Y59153778D01*
X75832100Y59153778D01*
X75832100Y58956223D01*
X75870641Y58762463D01*
X75870642Y58762462D01*
X75946241Y58579949D01*
X76055996Y58415688D01*
X76055997Y58415687D01*
X76056000Y58415683D01*
X76195682Y58276001D01*
X76195685Y58275999D01*
X76195688Y58275996D01*
X76359949Y58166241D01*
X76542461Y58090643D01*
X76542462Y58090642D01*
X76542463Y58090642D01*
X76542465Y58090641D01*
X76672218Y58064832D01*
X76736222Y58052100D01*
X76736223Y58052100D01*
X76933778Y58052100D01*
X76996739Y58064624D01*
X77127535Y58090641D01*
X77310051Y58166241D01*
X77474312Y58275996D01*
X77614004Y58415688D01*
X77723759Y58579949D01*
X77799359Y58762465D01*
X77837900Y58956223D01*
X77837900Y59153777D01*
X77837900Y59153778D01*
X78372100Y59153778D01*
X78372100Y58956223D01*
X78410641Y58762463D01*
X78410642Y58762462D01*
X78486241Y58579949D01*
X78595996Y58415688D01*
X78595997Y58415687D01*
X78596000Y58415683D01*
X78735682Y58276001D01*
X78735685Y58275999D01*
X78735688Y58275996D01*
X78899949Y58166241D01*
X79082461Y58090643D01*
X79082462Y58090642D01*
X79082463Y58090642D01*
X79082465Y58090641D01*
X79212218Y58064832D01*
X79276222Y58052100D01*
X79276223Y58052100D01*
X79473778Y58052100D01*
X79536739Y58064624D01*
X79667535Y58090641D01*
X79850051Y58166241D01*
X80014312Y58275996D01*
X80154004Y58415688D01*
X80263759Y58579949D01*
X80339359Y58762465D01*
X80377900Y58956223D01*
X80377900Y59153777D01*
X80376446Y59161086D01*
X80374173Y59172517D01*
X80356357Y59262078D01*
X80339359Y59347535D01*
X80263759Y59530051D01*
X80154004Y59694312D01*
X80154001Y59694315D01*
X80153999Y59694318D01*
X80014317Y59834000D01*
X80014313Y59834003D01*
X80014312Y59834004D01*
X79850051Y59943759D01*
X79678363Y60014874D01*
X79667538Y60019358D01*
X79667537Y60019359D01*
X79473778Y60057900D01*
X79473777Y60057900D01*
X79276223Y60057900D01*
X79276222Y60057900D01*
X79082462Y60019359D01*
X79082461Y60019358D01*
X78899950Y59943760D01*
X78735682Y59834000D01*
X78596000Y59694318D01*
X78486240Y59530050D01*
X78410642Y59347539D01*
X78410641Y59347538D01*
X78372100Y59153778D01*
X77837900Y59153778D01*
X77837899Y59153780D01*
X77819159Y59247993D01*
X77799359Y59347535D01*
X77723759Y59530051D01*
X77614004Y59694312D01*
X77614001Y59694315D01*
X77613999Y59694318D01*
X77474317Y59834000D01*
X77474313Y59834003D01*
X77474312Y59834004D01*
X77310051Y59943759D01*
X77138363Y60014874D01*
X77127538Y60019358D01*
X77127537Y60019359D01*
X76933778Y60057900D01*
X76933777Y60057900D01*
X76736223Y60057900D01*
X76736222Y60057900D01*
X76542462Y60019359D01*
X76542461Y60019358D01*
X76359950Y59943760D01*
X76195682Y59834000D01*
X76056000Y59694318D01*
X75946240Y59530050D01*
X75870642Y59347539D01*
X75870641Y59347538D01*
X75832100Y59153778D01*
X75678901Y59153778D01*
X75678901Y60531448D01*
X75638222Y60629656D01*
X75563058Y60704820D01*
X75208794Y61059084D01*
X75187054Y61105704D01*
X75192491Y61141031D01*
X75259359Y61302465D01*
X75297900Y61496223D01*
X75297900Y61693777D01*
X75297900Y61693778D01*
X75832100Y61693778D01*
X75832100Y61496223D01*
X75870641Y61302463D01*
X75870642Y61302462D01*
X75946240Y61119951D01*
X75946241Y61119949D01*
X76055996Y60955688D01*
X76055997Y60955687D01*
X76056000Y60955683D01*
X76195682Y60816001D01*
X76195685Y60815999D01*
X76195688Y60815996D01*
X76359949Y60706241D01*
X76542461Y60630643D01*
X76542462Y60630642D01*
X76542463Y60630642D01*
X76542465Y60630641D01*
X76672218Y60604832D01*
X76736222Y60592100D01*
X76736223Y60592100D01*
X76933778Y60592100D01*
X76981889Y60601671D01*
X77127535Y60630641D01*
X77310051Y60706241D01*
X77474312Y60815996D01*
X77614004Y60955688D01*
X77723759Y61119949D01*
X77799359Y61302465D01*
X77837900Y61496223D01*
X77837900Y61693777D01*
X77837900Y61693778D01*
X78372100Y61693778D01*
X78372100Y61496223D01*
X78410641Y61302463D01*
X78410642Y61302462D01*
X78486240Y61119951D01*
X78486241Y61119949D01*
X78595996Y60955688D01*
X78595997Y60955687D01*
X78596000Y60955683D01*
X78735682Y60816001D01*
X78735685Y60815999D01*
X78735688Y60815996D01*
X78899949Y60706241D01*
X79082461Y60630643D01*
X79082462Y60630642D01*
X79082463Y60630642D01*
X79082465Y60630641D01*
X79212218Y60604832D01*
X79276222Y60592100D01*
X79276223Y60592100D01*
X79473778Y60592100D01*
X79521889Y60601671D01*
X79667535Y60630641D01*
X79850051Y60706241D01*
X80014312Y60815996D01*
X80154004Y60955688D01*
X80263759Y61119949D01*
X80339359Y61302465D01*
X80377900Y61496223D01*
X80377900Y61693777D01*
X80339359Y61887535D01*
X80263759Y62070051D01*
X80154004Y62234312D01*
X80154001Y62234315D01*
X80153999Y62234318D01*
X80014317Y62374000D01*
X80014313Y62374003D01*
X80014312Y62374004D01*
X79850051Y62483759D01*
X79850049Y62483760D01*
X79667538Y62559358D01*
X79667537Y62559359D01*
X79473778Y62597900D01*
X79473777Y62597900D01*
X79276223Y62597900D01*
X79276222Y62597900D01*
X79082462Y62559359D01*
X79082461Y62559358D01*
X78899950Y62483760D01*
X78735682Y62374000D01*
X78596000Y62234318D01*
X78486240Y62070050D01*
X78410642Y61887539D01*
X78410641Y61887538D01*
X78372100Y61693778D01*
X77837900Y61693778D01*
X77799359Y61887535D01*
X77723759Y62070051D01*
X77614004Y62234312D01*
X77614001Y62234315D01*
X77613999Y62234318D01*
X77474317Y62374000D01*
X77474313Y62374003D01*
X77474312Y62374004D01*
X77310051Y62483759D01*
X77310049Y62483760D01*
X77127538Y62559358D01*
X77127537Y62559359D01*
X76933778Y62597900D01*
X76933777Y62597900D01*
X76736223Y62597900D01*
X76736222Y62597900D01*
X76542462Y62559359D01*
X76542461Y62559358D01*
X76359950Y62483760D01*
X76195682Y62374000D01*
X76056000Y62234318D01*
X75946240Y62070050D01*
X75870642Y61887539D01*
X75870641Y61887538D01*
X75832100Y61693778D01*
X75297900Y61693778D01*
X75259359Y61887535D01*
X75183759Y62070051D01*
X75074004Y62234312D01*
X75074001Y62234315D01*
X75073999Y62234318D01*
X74934317Y62374000D01*
X74934313Y62374003D01*
X74934312Y62374004D01*
X74770051Y62483759D01*
X74770049Y62483760D01*
X74587538Y62559358D01*
X74587537Y62559359D01*
X74393778Y62597900D01*
X74393777Y62597900D01*
X74196223Y62597900D01*
X74196222Y62597900D01*
X74002462Y62559359D01*
X74002461Y62559358D01*
X73819950Y62483760D01*
X73655682Y62374000D01*
X73516000Y62234318D01*
X73406240Y62070050D01*
X73330642Y61887539D01*
X73330641Y61887538D01*
X73292100Y61693778D01*
X73292100Y61496223D01*
X73330641Y61302463D01*
X73330642Y61302462D01*
X73406240Y61119951D01*
X73406241Y61119949D01*
X73515996Y60955688D01*
X73515997Y60955687D01*
X73516000Y60955683D01*
X73655682Y60816001D01*
X73655685Y60815999D01*
X73655688Y60815996D01*
X73819949Y60706241D01*
X74002461Y60630643D01*
X74002462Y60630642D01*
X74002463Y60630642D01*
X74002465Y60630641D01*
X74132218Y60604832D01*
X74196222Y60592100D01*
X74196223Y60592100D01*
X74393778Y60592100D01*
X74441889Y60601671D01*
X74587535Y60630641D01*
X74748967Y60697509D01*
X74800355Y60699752D01*
X74830916Y60681206D01*
X75122475Y60389647D01*
X75144215Y60343027D01*
X75144501Y60336473D01*
X75144501Y59805364D01*
X75126908Y59757026D01*
X75082359Y59731306D01*
X75031701Y59740239D01*
X75016127Y59752190D01*
X74934317Y59834000D01*
X74934313Y59834003D01*
X74934312Y59834004D01*
X74770051Y59943759D01*
X74598363Y60014874D01*
X74587538Y60019358D01*
X74587537Y60019359D01*
X74393778Y60057900D01*
X74393777Y60057900D01*
X74196223Y60057900D01*
X74196222Y60057900D01*
X74002462Y60019359D01*
X74002461Y60019358D01*
X73819950Y59943760D01*
X73655682Y59834000D01*
X73655681Y59833999D01*
X73573873Y59752190D01*
X73527253Y59730450D01*
X73477566Y59743764D01*
X73448061Y59785901D01*
X73445499Y59805364D01*
X73445499Y60224849D01*
X73445499Y60224850D01*
X73404820Y60323058D01*
X73329656Y60398222D01*
X72668794Y61059084D01*
X72647054Y61105704D01*
X72652491Y61141031D01*
X72719359Y61302465D01*
X72757900Y61496223D01*
X72757900Y61693777D01*
X72719359Y61887535D01*
X72643759Y62070051D01*
X72534004Y62234312D01*
X72534001Y62234315D01*
X72533999Y62234318D01*
X72394317Y62374000D01*
X72394313Y62374003D01*
X72394312Y62374004D01*
X72230051Y62483759D01*
X72230049Y62483760D01*
X72047538Y62559358D01*
X72047537Y62559359D01*
X71853778Y62597900D01*
X71853777Y62597900D01*
X71656223Y62597900D01*
X71656222Y62597900D01*
X71462462Y62559359D01*
X71462461Y62559358D01*
X71279950Y62483760D01*
X71115682Y62374000D01*
X70976000Y62234318D01*
X70866240Y62070050D01*
X70790642Y61887539D01*
X70790641Y61887538D01*
X70752100Y61693778D01*
X70217900Y61693778D01*
X70179359Y61887535D01*
X70103759Y62070051D01*
X69994004Y62234312D01*
X69994001Y62234315D01*
X69993999Y62234318D01*
X69854317Y62374000D01*
X69854313Y62374003D01*
X69854312Y62374004D01*
X69690051Y62483759D01*
X69690049Y62483760D01*
X69507538Y62559358D01*
X69507537Y62559359D01*
X69313778Y62597900D01*
X69313777Y62597900D01*
X69116223Y62597900D01*
X69116222Y62597900D01*
X68922462Y62559359D01*
X68922461Y62559358D01*
X68739950Y62483760D01*
X68575682Y62374000D01*
X68436000Y62234318D01*
X68326240Y62070050D01*
X68250642Y61887539D01*
X68250641Y61887538D01*
X68212100Y61693778D01*
X67677900Y61693778D01*
X67639359Y61887535D01*
X67563759Y62070051D01*
X67454004Y62234312D01*
X67454001Y62234315D01*
X67453999Y62234318D01*
X67314317Y62374000D01*
X67314313Y62374003D01*
X67314312Y62374004D01*
X67150051Y62483759D01*
X67150049Y62483760D01*
X66967538Y62559358D01*
X66967537Y62559359D01*
X66773778Y62597900D01*
X66773777Y62597900D01*
X66576223Y62597900D01*
X66576222Y62597900D01*
X66382462Y62559359D01*
X66382461Y62559358D01*
X66199950Y62483760D01*
X66035682Y62374000D01*
X65896000Y62234318D01*
X65786240Y62070050D01*
X65710642Y61887539D01*
X65710641Y61887538D01*
X65672100Y61693778D01*
X65137900Y61693778D01*
X65099359Y61887535D01*
X65023759Y62070051D01*
X64914004Y62234312D01*
X64914001Y62234315D01*
X64913999Y62234318D01*
X64774317Y62374000D01*
X64774313Y62374003D01*
X64774312Y62374004D01*
X64610051Y62483759D01*
X64610049Y62483760D01*
X64427538Y62559358D01*
X64427537Y62559359D01*
X64233778Y62597900D01*
X64233777Y62597900D01*
X64036223Y62597900D01*
X64036222Y62597900D01*
X63842462Y62559359D01*
X63842461Y62559358D01*
X63659950Y62483760D01*
X63495682Y62374000D01*
X63356000Y62234318D01*
X63246240Y62070050D01*
X63170642Y61887539D01*
X63170641Y61887538D01*
X63132100Y61693778D01*
X62597900Y61693778D01*
X62559359Y61887535D01*
X62483759Y62070051D01*
X62374004Y62234312D01*
X62374001Y62234315D01*
X62373999Y62234318D01*
X62234317Y62374000D01*
X62234313Y62374003D01*
X62234312Y62374004D01*
X62070051Y62483759D01*
X62070049Y62483760D01*
X61887538Y62559358D01*
X61887537Y62559359D01*
X61693778Y62597900D01*
X61693777Y62597900D01*
X61496223Y62597900D01*
X61496222Y62597900D01*
X61302462Y62559359D01*
X61302461Y62559358D01*
X61119950Y62483760D01*
X60955682Y62374000D01*
X60816000Y62234318D01*
X60706240Y62070050D01*
X60630642Y61887539D01*
X60630641Y61887538D01*
X60592100Y61693778D01*
X60057900Y61693778D01*
X60019359Y61887535D01*
X59943759Y62070051D01*
X59834004Y62234312D01*
X59834001Y62234315D01*
X59833999Y62234318D01*
X59694317Y62374000D01*
X59694313Y62374003D01*
X59694312Y62374004D01*
X59530051Y62483759D01*
X59530049Y62483760D01*
X59347538Y62559358D01*
X59347537Y62559359D01*
X59153778Y62597900D01*
X59153777Y62597900D01*
X58956223Y62597900D01*
X58956222Y62597900D01*
X58762462Y62559359D01*
X58762461Y62559358D01*
X58579950Y62483760D01*
X58415682Y62374000D01*
X58276000Y62234318D01*
X58166240Y62070050D01*
X58090642Y61887539D01*
X58090641Y61887538D01*
X58052100Y61693778D01*
X57517900Y61693778D01*
X57479359Y61887535D01*
X57403759Y62070051D01*
X57294004Y62234312D01*
X57294001Y62234315D01*
X57293999Y62234318D01*
X57154317Y62374000D01*
X57154313Y62374003D01*
X57154312Y62374004D01*
X56990051Y62483759D01*
X56990049Y62483760D01*
X56807538Y62559358D01*
X56807537Y62559359D01*
X56613778Y62597900D01*
X56613777Y62597900D01*
X56416223Y62597900D01*
X56416222Y62597900D01*
X56222462Y62559359D01*
X56222461Y62559358D01*
X56039950Y62483760D01*
X55875682Y62374000D01*
X55736000Y62234318D01*
X55626240Y62070050D01*
X55550642Y61887539D01*
X55550641Y61887538D01*
X55512100Y61693778D01*
X54977900Y61693778D01*
X54939359Y61887535D01*
X54863759Y62070051D01*
X54754004Y62234312D01*
X54754001Y62234315D01*
X54753999Y62234318D01*
X54614317Y62374000D01*
X54614313Y62374003D01*
X54614312Y62374004D01*
X54450051Y62483759D01*
X54450049Y62483760D01*
X54267538Y62559358D01*
X54267537Y62559359D01*
X54073778Y62597900D01*
X54073777Y62597900D01*
X53876223Y62597900D01*
X53876222Y62597900D01*
X53682462Y62559359D01*
X53682461Y62559358D01*
X53499950Y62483760D01*
X53335682Y62374000D01*
X53196000Y62234318D01*
X53086240Y62070050D01*
X53010642Y61887539D01*
X53010641Y61887538D01*
X52972100Y61693778D01*
X52437900Y61693778D01*
X52399359Y61887535D01*
X52323759Y62070051D01*
X52214004Y62234312D01*
X52214001Y62234315D01*
X52213999Y62234318D01*
X52074317Y62374000D01*
X52074313Y62374003D01*
X52074312Y62374004D01*
X51910051Y62483759D01*
X51910049Y62483760D01*
X51727538Y62559358D01*
X51727537Y62559359D01*
X51533778Y62597900D01*
X51533777Y62597900D01*
X51336223Y62597900D01*
X51336222Y62597900D01*
X51142462Y62559359D01*
X51142461Y62559358D01*
X50959950Y62483760D01*
X50795682Y62374000D01*
X50656000Y62234318D01*
X50546240Y62070050D01*
X50470642Y61887539D01*
X50470641Y61887538D01*
X50432100Y61693778D01*
X49897900Y61693778D01*
X49859359Y61887535D01*
X49783759Y62070051D01*
X49674004Y62234312D01*
X49674001Y62234315D01*
X49673999Y62234318D01*
X49534317Y62374000D01*
X49534313Y62374003D01*
X49534312Y62374004D01*
X49370051Y62483759D01*
X49370049Y62483760D01*
X49187538Y62559358D01*
X49187537Y62559359D01*
X48993778Y62597900D01*
X48993777Y62597900D01*
X48796223Y62597900D01*
X48796222Y62597900D01*
X48602462Y62559359D01*
X48602461Y62559358D01*
X48419950Y62483760D01*
X48255682Y62374000D01*
X48116000Y62234318D01*
X48006240Y62070050D01*
X47930642Y61887539D01*
X47930641Y61887538D01*
X47892100Y61693778D01*
X47357900Y61693778D01*
X47319359Y61887535D01*
X47243759Y62070051D01*
X47134004Y62234312D01*
X47134001Y62234315D01*
X47133999Y62234318D01*
X46994317Y62374000D01*
X46994313Y62374003D01*
X46994312Y62374004D01*
X46830051Y62483759D01*
X46830049Y62483760D01*
X46647538Y62559358D01*
X46647537Y62559359D01*
X46453778Y62597900D01*
X46453777Y62597900D01*
X46256223Y62597900D01*
X46256222Y62597900D01*
X46062462Y62559359D01*
X46062461Y62559358D01*
X45879950Y62483760D01*
X45715682Y62374000D01*
X45576000Y62234318D01*
X45466240Y62070050D01*
X45390642Y61887539D01*
X45390641Y61887538D01*
X45352100Y61693778D01*
X44817900Y61693778D01*
X44779359Y61887535D01*
X44703759Y62070051D01*
X44594004Y62234312D01*
X44594001Y62234315D01*
X44593999Y62234318D01*
X44454317Y62374000D01*
X44454313Y62374003D01*
X44454312Y62374004D01*
X44290051Y62483759D01*
X44290049Y62483760D01*
X44107538Y62559358D01*
X44107537Y62559359D01*
X43913778Y62597900D01*
X43913777Y62597900D01*
X43716223Y62597900D01*
X43716222Y62597900D01*
X43522462Y62559359D01*
X43522461Y62559358D01*
X43339950Y62483760D01*
X43175682Y62374000D01*
X43036000Y62234318D01*
X42926240Y62070050D01*
X42850642Y61887539D01*
X42850641Y61887538D01*
X42812100Y61693778D01*
X42277900Y61693778D01*
X42239359Y61887535D01*
X42163759Y62070051D01*
X42054004Y62234312D01*
X42054001Y62234315D01*
X42053999Y62234318D01*
X41914317Y62374000D01*
X41914313Y62374003D01*
X41914312Y62374004D01*
X41750051Y62483759D01*
X41750049Y62483760D01*
X41567538Y62559358D01*
X41567537Y62559359D01*
X41373778Y62597900D01*
X41373777Y62597900D01*
X41176223Y62597900D01*
X41176222Y62597900D01*
X40982462Y62559359D01*
X40982461Y62559358D01*
X40799950Y62483760D01*
X40635682Y62374000D01*
X40496000Y62234318D01*
X40386240Y62070050D01*
X40310642Y61887539D01*
X40310641Y61887538D01*
X40272100Y61693778D01*
X39737900Y61693778D01*
X39699359Y61887535D01*
X39623759Y62070051D01*
X39514004Y62234312D01*
X39514001Y62234315D01*
X39513999Y62234318D01*
X39374317Y62374000D01*
X39374313Y62374003D01*
X39374312Y62374004D01*
X39210051Y62483759D01*
X39210049Y62483760D01*
X39027538Y62559358D01*
X39027537Y62559359D01*
X38833778Y62597900D01*
X38833777Y62597900D01*
X38636223Y62597900D01*
X38636222Y62597900D01*
X38442462Y62559359D01*
X38442461Y62559358D01*
X38259950Y62483760D01*
X38095682Y62374000D01*
X37956000Y62234318D01*
X37846240Y62070050D01*
X37770642Y61887539D01*
X37770641Y61887538D01*
X37732100Y61693778D01*
X37197900Y61693778D01*
X37159359Y61887535D01*
X37083759Y62070051D01*
X36974004Y62234312D01*
X36974001Y62234315D01*
X36973999Y62234318D01*
X36834317Y62374000D01*
X36834313Y62374003D01*
X36834312Y62374004D01*
X36670051Y62483759D01*
X36670049Y62483760D01*
X36487538Y62559358D01*
X36487537Y62559359D01*
X36293778Y62597900D01*
X36293777Y62597900D01*
X36096223Y62597900D01*
X36096222Y62597900D01*
X35902462Y62559359D01*
X35902461Y62559358D01*
X35719950Y62483760D01*
X35555682Y62374000D01*
X35416000Y62234318D01*
X35306240Y62070050D01*
X35255157Y61946722D01*
X35220405Y61908797D01*
X35185681Y61900300D01*
X34884807Y61900300D01*
X34876496Y61898074D01*
X34837167Y61887536D01*
X34837168Y61887535D01*
X34807158Y61879494D01*
X34807157Y61879494D01*
X34737538Y61839299D01*
X34737538Y61839298D01*
X33410699Y60512460D01*
X33370509Y60442849D01*
X33370506Y60442841D01*
X33349700Y60365193D01*
X33349700Y55204807D01*
X33370506Y55127160D01*
X33370509Y55127152D01*
X33410699Y55057541D01*
X41087536Y47380704D01*
X41087538Y47380703D01*
X41087541Y47380700D01*
X41157158Y47340506D01*
X41177961Y47334933D01*
X41177964Y47334931D01*
X41177964Y47334932D01*
X41234807Y47319700D01*
X54807942Y47319700D01*
X54823369Y47314085D01*
X54839723Y47312654D01*
X54853167Y47303240D01*
X54856280Y47302107D01*
X54861116Y47297674D01*
X54917674Y47241116D01*
X54939414Y47194496D01*
X54939700Y47187942D01*
X54939700Y46512608D01*
X54922107Y46464270D01*
X54917674Y46459434D01*
X53110703Y44652464D01*
X53110699Y44652458D01*
X53095144Y44625515D01*
X53070506Y44582843D01*
X53070506Y44582841D01*
X53049700Y44505193D01*
X53049700Y44505191D01*
X53049700Y44163100D01*
X53032107Y44114762D01*
X52987558Y44089042D01*
X52974500Y44087900D01*
X52855000Y44087900D01*
X52776050Y44066745D01*
X52776049Y44066745D01*
X52776048Y44066744D01*
X52776046Y44066743D01*
X52758174Y44048870D01*
X52711554Y44027130D01*
X52661867Y44040444D01*
X52651826Y44048870D01*
X52633953Y44066743D01*
X52633951Y44066744D01*
X52633950Y44066745D01*
X52555000Y44087900D01*
X51989174Y44087900D01*
X51989167Y44087900D01*
X51948314Y44082521D01*
X51948290Y44082516D01*
X51821146Y44048447D01*
X51821129Y44048441D01*
X51783058Y44032671D01*
X51669040Y43966843D01*
X51636346Y43941756D01*
X51636332Y43941744D01*
X51543256Y43848668D01*
X51543244Y43848654D01*
X51518157Y43815960D01*
X51452329Y43701942D01*
X51436559Y43663871D01*
X51436553Y43663854D01*
X51402484Y43536710D01*
X51402479Y43536686D01*
X51397100Y43495833D01*
X51397100Y42864168D01*
X51402479Y42823315D01*
X51402484Y42823291D01*
X51436553Y42696147D01*
X51436559Y42696130D01*
X51444987Y42675784D01*
X51452330Y42658057D01*
X51476811Y42615655D01*
X51518157Y42544041D01*
X51543244Y42511347D01*
X51543256Y42511333D01*
X51636332Y42418257D01*
X51636346Y42418245D01*
X51659508Y42400472D01*
X51669043Y42393156D01*
X51688398Y42381981D01*
X51721464Y42342578D01*
X51726000Y42316856D01*
X51726000Y40309200D01*
X51708407Y40260862D01*
X51663858Y40235142D01*
X51650800Y40234000D01*
X24338358Y40234000D01*
X24290020Y40251593D01*
X24286911Y40254443D01*
X24286290Y40254919D01*
X24286288Y40254921D01*
X24272738Y40262744D01*
X24171614Y40321129D01*
X24107660Y40338265D01*
X24043708Y40355400D01*
X23911292Y40355400D01*
X23860130Y40341692D01*
X23783385Y40321129D01*
X23668713Y40254922D01*
X23668707Y40254918D01*
X23575082Y40161293D01*
X23575078Y40161287D01*
X23508871Y40046615D01*
X23488308Y39969870D01*
X23474600Y39918708D01*
X22235500Y39918708D01*
X22235500Y62986288D01*
X24184500Y62986288D01*
X24184500Y62743712D01*
X24216162Y62503211D01*
X24278946Y62268900D01*
X24278947Y62268896D01*
X24278948Y62268895D01*
X24371776Y62044787D01*
X24493065Y61834709D01*
X24640730Y61642268D01*
X24640742Y61642254D01*
X24812253Y61470743D01*
X24812260Y61470737D01*
X24812262Y61470735D01*
X25004711Y61323064D01*
X25092971Y61272107D01*
X25202424Y61208914D01*
X25214788Y61201776D01*
X25438900Y61108946D01*
X25673211Y61046162D01*
X25913712Y61014500D01*
X25913715Y61014500D01*
X26156285Y61014500D01*
X26156288Y61014500D01*
X26396789Y61046162D01*
X26631100Y61108946D01*
X26855212Y61201776D01*
X27065289Y61323064D01*
X27257738Y61470735D01*
X27429265Y61642262D01*
X27576936Y61834711D01*
X27698224Y62044788D01*
X27791054Y62268900D01*
X27853838Y62503211D01*
X27885500Y62743712D01*
X27885500Y62986288D01*
X92764500Y62986288D01*
X92764500Y62743712D01*
X92796162Y62503211D01*
X92858946Y62268900D01*
X92858947Y62268896D01*
X92858948Y62268895D01*
X92951776Y62044787D01*
X93073065Y61834709D01*
X93220730Y61642268D01*
X93220742Y61642254D01*
X93392253Y61470743D01*
X93392260Y61470737D01*
X93392262Y61470735D01*
X93584711Y61323064D01*
X93672971Y61272107D01*
X93782424Y61208914D01*
X93794788Y61201776D01*
X94018900Y61108946D01*
X94253211Y61046162D01*
X94493712Y61014500D01*
X94493715Y61014500D01*
X94736285Y61014500D01*
X94736288Y61014500D01*
X94976789Y61046162D01*
X95211100Y61108946D01*
X95435212Y61201776D01*
X95645289Y61323064D01*
X95837738Y61470735D01*
X96009265Y61642262D01*
X96156936Y61834711D01*
X96278224Y62044788D01*
X96371054Y62268900D01*
X96433838Y62503211D01*
X96465500Y62743712D01*
X96465500Y62986288D01*
X96433838Y63226789D01*
X96371054Y63461100D01*
X96278224Y63685212D01*
X96156936Y63895289D01*
X96009265Y64087738D01*
X96009263Y64087740D01*
X96009257Y64087747D01*
X95837746Y64259258D01*
X95837732Y64259270D01*
X95645291Y64406935D01*
X95435213Y64528224D01*
X95211105Y64621052D01*
X95211104Y64621053D01*
X95211100Y64621054D01*
X94976789Y64683838D01*
X94736288Y64715500D01*
X94493712Y64715500D01*
X94253211Y64683838D01*
X94018900Y64621054D01*
X94018897Y64621053D01*
X94018894Y64621052D01*
X93794786Y64528224D01*
X93584708Y64406935D01*
X93392267Y64259270D01*
X93392253Y64259258D01*
X93220742Y64087747D01*
X93220730Y64087733D01*
X93073065Y63895292D01*
X92951776Y63685214D01*
X92858948Y63461106D01*
X92858946Y63461100D01*
X92796162Y63226789D01*
X92764500Y62986288D01*
X27885500Y62986288D01*
X27853838Y63226789D01*
X27791054Y63461100D01*
X27698224Y63685212D01*
X27576936Y63895289D01*
X27429265Y64087738D01*
X27429263Y64087740D01*
X27429257Y64087747D01*
X27257746Y64259258D01*
X27257732Y64259270D01*
X27065291Y64406935D01*
X26855213Y64528224D01*
X26631105Y64621052D01*
X26631104Y64621053D01*
X26631100Y64621054D01*
X26396789Y64683838D01*
X26156288Y64715500D01*
X25913712Y64715500D01*
X25673211Y64683838D01*
X25438900Y64621054D01*
X25438897Y64621053D01*
X25438894Y64621052D01*
X25214786Y64528224D01*
X25004708Y64406935D01*
X24812267Y64259270D01*
X24812253Y64259258D01*
X24640742Y64087747D01*
X24640730Y64087733D01*
X24493065Y63895292D01*
X24371776Y63685214D01*
X24278948Y63461106D01*
X24278946Y63461100D01*
X24216162Y63226789D01*
X24184500Y62986288D01*
X22235500Y62986288D01*
X22235500Y64132725D01*
X22235637Y64137265D01*
X22243016Y64259258D01*
X22253669Y64435371D01*
X22254761Y64444366D01*
X22308185Y64735889D01*
X22310351Y64744676D01*
X22398524Y65027635D01*
X22401742Y65036120D01*
X22523375Y65306378D01*
X22527585Y65314400D01*
X22680916Y65568040D01*
X22686065Y65575498D01*
X22868845Y65808799D01*
X22874852Y65815580D01*
X23084420Y66025148D01*
X23091201Y66031155D01*
X23324502Y66213935D01*
X23331960Y66219084D01*
X23585600Y66372415D01*
X23593622Y66376625D01*
X23863885Y66498261D01*
X23872365Y66501476D01*
X24155324Y66589649D01*
X24164111Y66591815D01*
X24455634Y66645239D01*
X24464629Y66646331D01*
X24762735Y66664364D01*
X24767275Y66664500D01*
X24768412Y66664500D01*
X95881588Y66664500D01*
X95882725Y66664500D01*
X95887264Y66664364D01*
G37*
G04 #@! TD.AperFunction*
G04 #@! TD*
G04 #@! TA.AperFunction,Conductor*
G04 #@! TO.N,+3V3*
G36*
X89508138Y34907407D02*
G01*
X89533858Y34862858D01*
X89535000Y34849800D01*
X89535000Y27380200D01*
X89517407Y27331862D01*
X89472858Y27306142D01*
X89459800Y27305000D01*
X80720200Y27305000D01*
X80671862Y27322593D01*
X80646142Y27367142D01*
X80645000Y27380200D01*
X80645000Y34849800D01*
X80662593Y34898138D01*
X80707142Y34923858D01*
X80720200Y34925000D01*
X89459800Y34925000D01*
X89508138Y34907407D01*
G37*
G04 #@! TD.AperFunction*
G04 #@! TD*
G04 #@! TA.AperFunction,Conductor*
G04 #@! TO.N,+3V3*
G36*
X61568138Y42527407D02*
G01*
X61593858Y42482858D01*
X61595000Y42469800D01*
X61595000Y40080200D01*
X61577407Y40031862D01*
X61532858Y40006142D01*
X61519800Y40005000D01*
X59130200Y40005000D01*
X59081862Y40022593D01*
X59056142Y40067142D01*
X59055000Y40080200D01*
X59055000Y42469800D01*
X59072593Y42518138D01*
X59117142Y42543858D01*
X59130200Y42545000D01*
X61519800Y42545000D01*
X61568138Y42527407D01*
G37*
G04 #@! TD.AperFunction*
G04 #@! TD*
M02*
