G04 #@! TF.GenerationSoftware,KiCad,Pcbnew,9.0.1+dfsg-1*
G04 #@! TF.CreationDate,2025-05-28T08:47:52+08:00*
G04 #@! TF.ProjectId,mcustm32f402,6d637573-746d-4333-9266-3430322e6b69,a*
G04 #@! TF.SameCoordinates,PX57cf3f8PY8841978*
G04 #@! TF.FileFunction,Soldermask,Top*
G04 #@! TF.FilePolarity,Negative*
%FSLAX46Y46*%
G04 Gerber Fmt 4.6, Leading zero omitted, Abs format (unit mm)*
G04 Created by KiCad (PCBNEW 9.0.1+dfsg-1) date 2025-05-28 08:47:52*
%MOMM*%
%LPD*%
G01*
G04 APERTURE LIST*
G04 Aperture macros list*
%AMRoundRect*
0 Rectangle with rounded corners*
0 $1 Rounding radius*
0 $2 $3 $4 $5 $6 $7 $8 $9 X,Y pos of 4 corners*
0 Add a 4 corners polygon primitive as box body*
4,1,4,$2,$3,$4,$5,$6,$7,$8,$9,$2,$3,0*
0 Add four circle primitives for the rounded corners*
1,1,$1+$1,$2,$3*
1,1,$1+$1,$4,$5*
1,1,$1+$1,$6,$7*
1,1,$1+$1,$8,$9*
0 Add four rect primitives between the rounded corners*
20,1,$1+$1,$2,$3,$4,$5,0*
20,1,$1+$1,$4,$5,$6,$7,0*
20,1,$1+$1,$6,$7,$8,$9,0*
20,1,$1+$1,$8,$9,$2,$3,0*%
G04 Aperture macros list end*
%ADD10RoundRect,0.225000X-0.225000X-0.375000X0.225000X-0.375000X0.225000X0.375000X-0.225000X0.375000X0*%
%ADD11C,0.650000*%
%ADD12R,1.450000X0.600000*%
%ADD13R,1.450000X0.300000*%
%ADD14O,2.100000X1.000000*%
%ADD15O,1.600000X1.000000*%
%ADD16RoundRect,0.225000X0.225000X0.250000X-0.225000X0.250000X-0.225000X-0.250000X0.225000X-0.250000X0*%
%ADD17RoundRect,0.225000X-0.225000X-0.250000X0.225000X-0.250000X0.225000X0.250000X-0.225000X0.250000X0*%
%ADD18RoundRect,0.375000X0.625000X0.375000X-0.625000X0.375000X-0.625000X-0.375000X0.625000X-0.375000X0*%
%ADD19RoundRect,0.500000X0.500000X1.400000X-0.500000X1.400000X-0.500000X-1.400000X0.500000X-1.400000X0*%
%ADD20RoundRect,0.250000X-0.475000X0.250000X-0.475000X-0.250000X0.475000X-0.250000X0.475000X0.250000X0*%
%ADD21RoundRect,0.218750X0.218750X0.256250X-0.218750X0.256250X-0.218750X-0.256250X0.218750X-0.256250X0*%
%ADD22RoundRect,0.200000X-0.200000X-0.275000X0.200000X-0.275000X0.200000X0.275000X-0.200000X0.275000X0*%
%ADD23RoundRect,0.200000X0.200000X0.275000X-0.200000X0.275000X-0.200000X-0.275000X0.200000X-0.275000X0*%
%ADD24R,1.200000X1.400000*%
%ADD25R,1.700000X1.700000*%
%ADD26O,1.700000X1.700000*%
%ADD27RoundRect,0.218750X-0.218750X-0.256250X0.218750X-0.256250X0.218750X0.256250X-0.218750X0.256250X0*%
%ADD28R,1.200000X2.000000*%
%ADD29RoundRect,0.075000X-0.700000X-0.075000X0.700000X-0.075000X0.700000X0.075000X-0.700000X0.075000X0*%
%ADD30RoundRect,0.075000X-0.075000X-0.700000X0.075000X-0.700000X0.075000X0.700000X-0.075000X0.700000X0*%
%ADD31C,3.200000*%
%ADD32RoundRect,0.150000X0.587500X0.150000X-0.587500X0.150000X-0.587500X-0.150000X0.587500X-0.150000X0*%
G04 APERTURE END LIST*
D10*
G04 #@! TO.C,D2*
X90425000Y33655000D03*
X93725000Y33655000D03*
G04 #@! TD*
D11*
G04 #@! TO.C,J1*
X92015000Y38385000D03*
X92015000Y44165000D03*
D12*
X90570000Y38025000D03*
X90570000Y38825000D03*
D13*
X90570000Y40025000D03*
X90570000Y41025000D03*
X90570000Y41525000D03*
X90570000Y42525000D03*
D12*
X90570000Y43725000D03*
X90570000Y44525000D03*
X90570000Y44525000D03*
X90570000Y43725000D03*
D13*
X90570000Y43025000D03*
X90570000Y42025000D03*
X90570000Y40525000D03*
X90570000Y39525000D03*
D12*
X90570000Y38825000D03*
X90570000Y38025000D03*
D14*
X91485000Y36955000D03*
D15*
X95665000Y36955000D03*
D14*
X91485000Y45595000D03*
D15*
X95665000Y45595000D03*
G04 #@! TD*
D16*
G04 #@! TO.C,C5*
X54115000Y49530000D03*
X52565000Y49530000D03*
G04 #@! TD*
D17*
G04 #@! TO.C,C7*
X67805000Y47625000D03*
X69355000Y47625000D03*
G04 #@! TD*
G04 #@! TO.C,C8*
X65265000Y33655000D03*
X66815000Y33655000D03*
G04 #@! TD*
D16*
G04 #@! TO.C,C10*
X57290000Y33020000D03*
X55740000Y33020000D03*
G04 #@! TD*
D18*
G04 #@! TO.C,U1*
X88240000Y28815000D03*
X88240000Y31115000D03*
D19*
X81940000Y31115000D03*
D18*
X88240000Y33415000D03*
G04 #@! TD*
D20*
G04 #@! TO.C,C1*
X90805000Y30795000D03*
X90805000Y28895000D03*
G04 #@! TD*
D17*
G04 #@! TO.C,C6*
X30300000Y27940000D03*
X31850000Y27940000D03*
G04 #@! TD*
D21*
G04 #@! TO.C,D3*
X25552500Y53340000D03*
X23977500Y53340000D03*
G04 #@! TD*
G04 #@! TO.C,D4*
X25552500Y51435000D03*
X23977500Y51435000D03*
G04 #@! TD*
D22*
G04 #@! TO.C,R1*
X85535000Y38100000D03*
X87185000Y38100000D03*
G04 #@! TD*
G04 #@! TO.C,R2*
X85535000Y44450000D03*
X87185000Y44450000D03*
G04 #@! TD*
G04 #@! TO.C,R5*
X27115000Y53340000D03*
X28765000Y53340000D03*
G04 #@! TD*
G04 #@! TO.C,R6*
X27115000Y51435000D03*
X28765000Y51435000D03*
G04 #@! TD*
D17*
G04 #@! TO.C,C11*
X48050000Y47625000D03*
X49600000Y47625000D03*
G04 #@! TD*
D16*
G04 #@! TO.C,C13*
X49670000Y41275000D03*
X48120000Y41275000D03*
G04 #@! TD*
D17*
G04 #@! TO.C,C4*
X65265000Y31750000D03*
X66815000Y31750000D03*
G04 #@! TD*
G04 #@! TO.C,C14*
X65265000Y29845000D03*
X66815000Y29845000D03*
G04 #@! TD*
D23*
G04 #@! TO.C,R3*
X31940000Y25400000D03*
X30290000Y25400000D03*
G04 #@! TD*
D22*
G04 #@! TO.C,R4*
X30290000Y32385000D03*
X31940000Y32385000D03*
G04 #@! TD*
D24*
G04 #@! TO.C,Y1*
X48045000Y45550000D03*
X48045000Y43350000D03*
X49745000Y43350000D03*
X49745000Y45550000D03*
G04 #@! TD*
D20*
G04 #@! TO.C,C3*
X79375000Y30795000D03*
X79375000Y28895000D03*
G04 #@! TD*
D16*
G04 #@! TO.C,C9*
X49670000Y36830000D03*
X48120000Y36830000D03*
G04 #@! TD*
D25*
G04 #@! TO.C,J2*
X36195000Y23495000D03*
D26*
X36195000Y20955000D03*
X38735000Y23495000D03*
X38735000Y20955000D03*
X41275000Y23495000D03*
X41275000Y20955000D03*
X43815000Y23495000D03*
X43815000Y20955000D03*
X46355000Y23495000D03*
X46355000Y20955000D03*
X48895000Y23495000D03*
X48895000Y20955000D03*
X51435000Y23495000D03*
X51435000Y20955000D03*
X53975000Y23495000D03*
X53975000Y20955000D03*
X56515000Y23495000D03*
X56515000Y20955000D03*
X59055000Y23495000D03*
X59055000Y20955000D03*
X61595000Y23495000D03*
X61595000Y20955000D03*
X64135000Y23495000D03*
X64135000Y20955000D03*
X66675000Y23495000D03*
X66675000Y20955000D03*
X69215000Y23495000D03*
X69215000Y20955000D03*
X71755000Y23495000D03*
X71755000Y20955000D03*
X74295000Y23495000D03*
X74295000Y20955000D03*
X76835000Y23495000D03*
X76835000Y20955000D03*
X79375000Y23495000D03*
X79375000Y20955000D03*
X81915000Y23495000D03*
X81915000Y20955000D03*
X84455000Y23495000D03*
X84455000Y20955000D03*
G04 #@! TD*
D27*
G04 #@! TO.C,FB1*
X48107500Y34925000D03*
X49682500Y34925000D03*
G04 #@! TD*
D28*
G04 #@! TO.C,SW1*
X23835000Y26720000D03*
X28235000Y26670000D03*
G04 #@! TD*
G04 #@! TO.C,SW2*
X28235000Y32335000D03*
X23835000Y32385000D03*
G04 #@! TD*
D25*
G04 #@! TO.C,J3*
X84455000Y59055000D03*
D26*
X84455000Y61595000D03*
X81915000Y59055000D03*
X81915000Y61595000D03*
X79375000Y59055000D03*
X79375000Y61595000D03*
X76835000Y59055000D03*
X76835000Y61595000D03*
X74295000Y59055000D03*
X74295000Y61595000D03*
X71755000Y59055000D03*
X71755000Y61595000D03*
X69215000Y59055000D03*
X69215000Y61595000D03*
X66675000Y59055000D03*
X66675000Y61595000D03*
X64135000Y59055000D03*
X64135000Y61595000D03*
X61595000Y59055000D03*
X61595000Y61595000D03*
X59055000Y59055000D03*
X59055000Y61595000D03*
X56515000Y59055000D03*
X56515000Y61595000D03*
X53975000Y59055000D03*
X53975000Y61595000D03*
X51435000Y59055000D03*
X51435000Y61595000D03*
X48895000Y59055000D03*
X48895000Y61595000D03*
X46355000Y59055000D03*
X46355000Y61595000D03*
X43815000Y59055000D03*
X43815000Y61595000D03*
X41275000Y59055000D03*
X41275000Y61595000D03*
X38735000Y59055000D03*
X38735000Y61595000D03*
X36195000Y59055000D03*
X36195000Y61595000D03*
G04 #@! TD*
D16*
G04 #@! TO.C,C2*
X54115000Y47625000D03*
X52565000Y47625000D03*
G04 #@! TD*
D29*
G04 #@! TO.C,U2*
X54650000Y45025000D03*
X54650000Y44525000D03*
X54650000Y44025000D03*
X54650000Y43525000D03*
X54650000Y43025000D03*
X54650000Y42525000D03*
X54650000Y42025000D03*
X54650000Y41525000D03*
X54650000Y41025000D03*
X54650000Y40525000D03*
X54650000Y40025000D03*
X54650000Y39525000D03*
X54650000Y39025000D03*
X54650000Y38525000D03*
X54650000Y38025000D03*
X54650000Y37525000D03*
D30*
X56575000Y35600000D03*
X57075000Y35600000D03*
X57575000Y35600000D03*
X58075000Y35600000D03*
X58575000Y35600000D03*
X59075000Y35600000D03*
X59575000Y35600000D03*
X60075000Y35600000D03*
X60575000Y35600000D03*
X61075000Y35600000D03*
X61575000Y35600000D03*
X62075000Y35600000D03*
X62575000Y35600000D03*
X63075000Y35600000D03*
X63575000Y35600000D03*
X64075000Y35600000D03*
D29*
X66000000Y37525000D03*
X66000000Y38025000D03*
X66000000Y38525000D03*
X66000000Y39025000D03*
X66000000Y39525000D03*
X66000000Y40025000D03*
X66000000Y40525000D03*
X66000000Y41025000D03*
X66000000Y41525000D03*
X66000000Y42025000D03*
X66000000Y42525000D03*
X66000000Y43025000D03*
X66000000Y43525000D03*
X66000000Y44025000D03*
X66000000Y44525000D03*
X66000000Y45025000D03*
D30*
X64075000Y46950000D03*
X63575000Y46950000D03*
X63075000Y46950000D03*
X62575000Y46950000D03*
X62075000Y46950000D03*
X61575000Y46950000D03*
X61075000Y46950000D03*
X60575000Y46950000D03*
X60075000Y46950000D03*
X59575000Y46950000D03*
X59075000Y46950000D03*
X58575000Y46950000D03*
X58075000Y46950000D03*
X57575000Y46950000D03*
X57075000Y46950000D03*
X56575000Y46950000D03*
G04 #@! TD*
D31*
G04 #@! TO.C,J4*
X26035000Y62865000D03*
X26035000Y19685000D03*
X94615000Y62865000D03*
X94615000Y19685000D03*
G04 #@! TD*
D32*
G04 #@! TO.C,D1*
X87600000Y40325000D03*
X87600000Y42225000D03*
X85725000Y41275000D03*
G04 #@! TD*
M02*
