M48
; DRILL file {KiCad 9.0.1+dfsg-1} date 2025-05-28T08:47:57+0800
; FORMAT={-:-/ absolute / metric / decimal}
; #@! TF.CreationDate,2025-05-28T08:47:57+08:00
; #@! TF.GenerationSoftware,Kicad,Pcbnew,9.0.1+dfsg-1
; #@! TF.FileFunction,Plated,1,2,PTH
FMAT,2
METRIC
; #@! TA.AperFunction,Plated,PTH,ViaDrill
T1C0.350
; #@! TA.AperFunction,Plated,PTH,ComponentDrill
T2C0.600
; #@! TA.AperFunction,Plated,PTH,ComponentDrill
T3C1.000
%
G90
G05
T1
X23.977Y39.852
X34.925Y33.02
X34.925Y30.48
X41.275Y50.165
X46.99Y36.83
X46.99Y34.925
X49.53Y50.165
X50.165Y51.435
X53.34Y50.8
X55.245Y47.625
X55.245Y36.195
X55.88Y31.75
X56.515Y43.815
X56.515Y41.275
X56.515Y38.735
X57.785Y51.435
X57.785Y50.165
X58.42Y41.275
X59.69Y41.91
X59.69Y40.64
X60.325Y45.085
X60.325Y43.18
X60.325Y39.37
X60.325Y37.465
X60.96Y41.91
X60.96Y40.64
X61.595Y57.15
X62.23Y41.275
X62.23Y37.465
X64.135Y43.815
X64.135Y41.275
X64.135Y38.735
X64.135Y33.02
X64.135Y28.575
X65.325Y51.775
X65.405Y55.245
X65.405Y46.355
X67.31Y36.195
X69.215Y25.4
X69.85Y43.18
X71.12Y42.545
X72.39Y41.91
X73.66Y41.275
X74.93Y40.64
X77.47Y41.275
X80.645Y43.815
X80.645Y38.1
X83.82Y41.275
X83.82Y33.02
X83.82Y31.115
X83.82Y29.21
X85.09Y33.02
X85.09Y31.115
X85.09Y29.21
X86.36Y33.02
X86.36Y31.115
X86.36Y29.21
X86.995Y26.035
X88.265Y26.035
X89.535Y26.035
X90.805Y27.305
X90.805Y26.035
X92.075Y33.655
T3
X36.195Y61.595
X36.195Y59.055
X36.195Y23.495
X36.195Y20.955
X38.735Y61.595
X38.735Y59.055
X38.735Y23.495
X38.735Y20.955
X41.275Y61.595
X41.275Y59.055
X41.275Y23.495
X41.275Y20.955
X43.815Y61.595
X43.815Y59.055
X43.815Y23.495
X43.815Y20.955
X46.355Y61.595
X46.355Y59.055
X46.355Y23.495
X46.355Y20.955
X48.895Y61.595
X48.895Y59.055
X48.895Y23.495
X48.895Y20.955
X51.435Y61.595
X51.435Y59.055
X51.435Y23.495
X51.435Y20.955
X53.975Y61.595
X53.975Y59.055
X53.975Y23.495
X53.975Y20.955
X56.515Y61.595
X56.515Y59.055
X56.515Y23.495
X56.515Y20.955
X59.055Y61.595
X59.055Y59.055
X59.055Y23.495
X59.055Y20.955
X61.595Y61.595
X61.595Y59.055
X61.595Y23.495
X61.595Y20.955
X64.135Y61.595
X64.135Y59.055
X64.135Y23.495
X64.135Y20.955
X66.675Y61.595
X66.675Y59.055
X66.675Y23.495
X66.675Y20.955
X69.215Y61.595
X69.215Y59.055
X69.215Y23.495
X69.215Y20.955
X71.755Y61.595
X71.755Y59.055
X71.755Y23.495
X71.755Y20.955
X74.295Y61.595
X74.295Y59.055
X74.295Y23.495
X74.295Y20.955
X76.835Y61.595
X76.835Y59.055
X76.835Y23.495
X76.835Y20.955
X79.375Y61.595
X79.375Y59.055
X79.375Y23.495
X79.375Y20.955
X81.915Y61.595
X81.915Y59.055
X81.915Y23.495
X81.915Y20.955
X84.455Y61.595
X84.455Y59.055
X84.455Y23.495
X84.455Y20.955
T2
G00X90.935Y45.595
M15
G01X92.035Y45.595
M16
G05
G00X90.935Y36.955
M15
G01X92.035Y36.955
M16
G05
G00X95.365Y45.595
M15
G01X95.965Y45.595
M16
G05
G00X95.365Y36.955
M15
G01X95.965Y36.955
M16
G05
M30
