G04 #@! TF.GenerationSoftware,KiCad,Pcbnew,9.0.1+dfsg-1*
G04 #@! TF.CreationDate,2025-05-28T08:47:52+08:00*
G04 #@! TF.ProjectId,mcustm32f402,6d637573-746d-4333-9266-3430322e6b69,a*
G04 #@! TF.SameCoordinates,PX57cf3f8PY8841978*
G04 #@! TF.FileFunction,Legend,Bot*
G04 #@! TF.FilePolarity,Positive*
%FSLAX46Y46*%
G04 Gerber Fmt 4.6, Leading zero omitted, Abs format (unit mm)*
G04 Created by KiCad (PCBNEW 9.0.1+dfsg-1) date 2025-05-28 08:47:52*
%MOMM*%
%LPD*%
G01*
G04 APERTURE LIST*
%ADD10C,0.150000*%
%ADD11C,0.120000*%
G04 APERTURE END LIST*
D10*
X50656904Y38645181D02*
X50323571Y37645181D01*
X50323571Y37645181D02*
X49990238Y38645181D01*
X49656904Y37645181D02*
X49656904Y38645181D01*
X49656904Y38645181D02*
X49418809Y38645181D01*
X49418809Y38645181D02*
X49275952Y38597562D01*
X49275952Y38597562D02*
X49180714Y38502324D01*
X49180714Y38502324D02*
X49133095Y38407086D01*
X49133095Y38407086D02*
X49085476Y38216610D01*
X49085476Y38216610D02*
X49085476Y38073753D01*
X49085476Y38073753D02*
X49133095Y37883277D01*
X49133095Y37883277D02*
X49180714Y37788039D01*
X49180714Y37788039D02*
X49275952Y37692800D01*
X49275952Y37692800D02*
X49418809Y37645181D01*
X49418809Y37645181D02*
X49656904Y37645181D01*
X48656904Y37645181D02*
X48656904Y38645181D01*
X48656904Y38645181D02*
X48418809Y38645181D01*
X48418809Y38645181D02*
X48275952Y38597562D01*
X48275952Y38597562D02*
X48180714Y38502324D01*
X48180714Y38502324D02*
X48133095Y38407086D01*
X48133095Y38407086D02*
X48085476Y38216610D01*
X48085476Y38216610D02*
X48085476Y38073753D01*
X48085476Y38073753D02*
X48133095Y37883277D01*
X48133095Y37883277D02*
X48180714Y37788039D01*
X48180714Y37788039D02*
X48275952Y37692800D01*
X48275952Y37692800D02*
X48418809Y37645181D01*
X48418809Y37645181D02*
X48656904Y37645181D01*
X47704523Y37930896D02*
X47228333Y37930896D01*
X47799761Y37645181D02*
X47466428Y38645181D01*
X47466428Y38645181D02*
X47133095Y37645181D01*
X50537856Y43725181D02*
X50204523Y42725181D01*
X50204523Y42725181D02*
X49871190Y43725181D01*
X49204523Y43248991D02*
X49061666Y43201372D01*
X49061666Y43201372D02*
X49014047Y43153753D01*
X49014047Y43153753D02*
X48966428Y43058515D01*
X48966428Y43058515D02*
X48966428Y42915658D01*
X48966428Y42915658D02*
X49014047Y42820420D01*
X49014047Y42820420D02*
X49061666Y42772800D01*
X49061666Y42772800D02*
X49156904Y42725181D01*
X49156904Y42725181D02*
X49537856Y42725181D01*
X49537856Y42725181D02*
X49537856Y43725181D01*
X49537856Y43725181D02*
X49204523Y43725181D01*
X49204523Y43725181D02*
X49109285Y43677562D01*
X49109285Y43677562D02*
X49061666Y43629943D01*
X49061666Y43629943D02*
X49014047Y43534705D01*
X49014047Y43534705D02*
X49014047Y43439467D01*
X49014047Y43439467D02*
X49061666Y43344229D01*
X49061666Y43344229D02*
X49109285Y43296610D01*
X49109285Y43296610D02*
X49204523Y43248991D01*
X49204523Y43248991D02*
X49537856Y43248991D01*
X48585475Y43010896D02*
X48109285Y43010896D01*
X48680713Y42725181D02*
X48347380Y43725181D01*
X48347380Y43725181D02*
X48014047Y42725181D01*
X47823570Y43725181D02*
X47252142Y43725181D01*
X47537856Y42725181D02*
X47537856Y43725181D01*
X61957295Y56860840D02*
X61157295Y56860840D01*
X61157295Y56860840D02*
X61157295Y56556078D01*
X61157295Y56556078D02*
X61195390Y56479888D01*
X61195390Y56479888D02*
X61233485Y56441793D01*
X61233485Y56441793D02*
X61309676Y56403697D01*
X61309676Y56403697D02*
X61423961Y56403697D01*
X61423961Y56403697D02*
X61500152Y56441793D01*
X61500152Y56441793D02*
X61538247Y56479888D01*
X61538247Y56479888D02*
X61576342Y56556078D01*
X61576342Y56556078D02*
X61576342Y56860840D01*
X61881104Y55603697D02*
X61919200Y55641793D01*
X61919200Y55641793D02*
X61957295Y55756078D01*
X61957295Y55756078D02*
X61957295Y55832269D01*
X61957295Y55832269D02*
X61919200Y55946555D01*
X61919200Y55946555D02*
X61843009Y56022745D01*
X61843009Y56022745D02*
X61766819Y56060840D01*
X61766819Y56060840D02*
X61614438Y56098936D01*
X61614438Y56098936D02*
X61500152Y56098936D01*
X61500152Y56098936D02*
X61347771Y56060840D01*
X61347771Y56060840D02*
X61271580Y56022745D01*
X61271580Y56022745D02*
X61195390Y55946555D01*
X61195390Y55946555D02*
X61157295Y55832269D01*
X61157295Y55832269D02*
X61157295Y55756078D01*
X61157295Y55756078D02*
X61195390Y55641793D01*
X61195390Y55641793D02*
X61233485Y55603697D01*
X61957295Y54841793D02*
X61957295Y55298936D01*
X61957295Y55070364D02*
X61157295Y55070364D01*
X61157295Y55070364D02*
X61271580Y55146555D01*
X61271580Y55146555D02*
X61347771Y55222745D01*
X61347771Y55222745D02*
X61385866Y55298936D01*
X61957295Y54079888D02*
X61957295Y54537031D01*
X61957295Y54308459D02*
X61157295Y54308459D01*
X61157295Y54308459D02*
X61271580Y54384650D01*
X61271580Y54384650D02*
X61347771Y54460840D01*
X61347771Y54460840D02*
X61385866Y54537031D01*
X38678247Y18494174D02*
X38716342Y18379888D01*
X38716342Y18379888D02*
X38754438Y18341793D01*
X38754438Y18341793D02*
X38830628Y18303697D01*
X38830628Y18303697D02*
X38944914Y18303697D01*
X38944914Y18303697D02*
X39021104Y18341793D01*
X39021104Y18341793D02*
X39059200Y18379888D01*
X39059200Y18379888D02*
X39097295Y18456078D01*
X39097295Y18456078D02*
X39097295Y18760840D01*
X39097295Y18760840D02*
X38297295Y18760840D01*
X38297295Y18760840D02*
X38297295Y18494174D01*
X38297295Y18494174D02*
X38335390Y18417983D01*
X38335390Y18417983D02*
X38373485Y18379888D01*
X38373485Y18379888D02*
X38449676Y18341793D01*
X38449676Y18341793D02*
X38525866Y18341793D01*
X38525866Y18341793D02*
X38602057Y18379888D01*
X38602057Y18379888D02*
X38640152Y18417983D01*
X38640152Y18417983D02*
X38678247Y18494174D01*
X38678247Y18494174D02*
X38678247Y18760840D01*
X38297295Y17808459D02*
X38297295Y17656078D01*
X38297295Y17656078D02*
X38335390Y17579888D01*
X38335390Y17579888D02*
X38411580Y17503697D01*
X38411580Y17503697D02*
X38563961Y17465602D01*
X38563961Y17465602D02*
X38830628Y17465602D01*
X38830628Y17465602D02*
X38983009Y17503697D01*
X38983009Y17503697D02*
X39059200Y17579888D01*
X39059200Y17579888D02*
X39097295Y17656078D01*
X39097295Y17656078D02*
X39097295Y17808459D01*
X39097295Y17808459D02*
X39059200Y17884650D01*
X39059200Y17884650D02*
X38983009Y17960840D01*
X38983009Y17960840D02*
X38830628Y17998936D01*
X38830628Y17998936D02*
X38563961Y17998936D01*
X38563961Y17998936D02*
X38411580Y17960840D01*
X38411580Y17960840D02*
X38335390Y17884650D01*
X38335390Y17884650D02*
X38297295Y17808459D01*
X38297295Y16970364D02*
X38297295Y16894174D01*
X38297295Y16894174D02*
X38335390Y16817983D01*
X38335390Y16817983D02*
X38373485Y16779888D01*
X38373485Y16779888D02*
X38449676Y16741793D01*
X38449676Y16741793D02*
X38602057Y16703698D01*
X38602057Y16703698D02*
X38792533Y16703698D01*
X38792533Y16703698D02*
X38944914Y16741793D01*
X38944914Y16741793D02*
X39021104Y16779888D01*
X39021104Y16779888D02*
X39059200Y16817983D01*
X39059200Y16817983D02*
X39097295Y16894174D01*
X39097295Y16894174D02*
X39097295Y16970364D01*
X39097295Y16970364D02*
X39059200Y17046555D01*
X39059200Y17046555D02*
X39021104Y17084650D01*
X39021104Y17084650D02*
X38944914Y17122745D01*
X38944914Y17122745D02*
X38792533Y17160841D01*
X38792533Y17160841D02*
X38602057Y17160841D01*
X38602057Y17160841D02*
X38449676Y17122745D01*
X38449676Y17122745D02*
X38373485Y17084650D01*
X38373485Y17084650D02*
X38335390Y17046555D01*
X38335390Y17046555D02*
X38297295Y16970364D01*
X69577295Y56860840D02*
X68777295Y56860840D01*
X68777295Y56860840D02*
X68777295Y56556078D01*
X68777295Y56556078D02*
X68815390Y56479888D01*
X68815390Y56479888D02*
X68853485Y56441793D01*
X68853485Y56441793D02*
X68929676Y56403697D01*
X68929676Y56403697D02*
X69043961Y56403697D01*
X69043961Y56403697D02*
X69120152Y56441793D01*
X69120152Y56441793D02*
X69158247Y56479888D01*
X69158247Y56479888D02*
X69196342Y56556078D01*
X69196342Y56556078D02*
X69196342Y56860840D01*
X69348723Y56098936D02*
X69348723Y55717983D01*
X69577295Y56175126D02*
X68777295Y55908459D01*
X68777295Y55908459D02*
X69577295Y55641793D01*
X69577295Y54956079D02*
X69577295Y55413222D01*
X69577295Y55184650D02*
X68777295Y55184650D01*
X68777295Y55184650D02*
X68891580Y55260841D01*
X68891580Y55260841D02*
X68967771Y55337031D01*
X68967771Y55337031D02*
X69005866Y55413222D01*
X68777295Y54689412D02*
X68777295Y54194174D01*
X68777295Y54194174D02*
X69082057Y54460840D01*
X69082057Y54460840D02*
X69082057Y54346555D01*
X69082057Y54346555D02*
X69120152Y54270364D01*
X69120152Y54270364D02*
X69158247Y54232269D01*
X69158247Y54232269D02*
X69234438Y54194174D01*
X69234438Y54194174D02*
X69424914Y54194174D01*
X69424914Y54194174D02*
X69501104Y54232269D01*
X69501104Y54232269D02*
X69539200Y54270364D01*
X69539200Y54270364D02*
X69577295Y54346555D01*
X69577295Y54346555D02*
X69577295Y54575126D01*
X69577295Y54575126D02*
X69539200Y54651317D01*
X69539200Y54651317D02*
X69501104Y54689412D01*
X74657295Y27670113D02*
X73857295Y27670113D01*
X73857295Y27670113D02*
X73857295Y27365351D01*
X73857295Y27365351D02*
X73895390Y27289161D01*
X73895390Y27289161D02*
X73933485Y27251066D01*
X73933485Y27251066D02*
X74009676Y27212970D01*
X74009676Y27212970D02*
X74123961Y27212970D01*
X74123961Y27212970D02*
X74200152Y27251066D01*
X74200152Y27251066D02*
X74238247Y27289161D01*
X74238247Y27289161D02*
X74276342Y27365351D01*
X74276342Y27365351D02*
X74276342Y27670113D01*
X74581104Y26412970D02*
X74619200Y26451066D01*
X74619200Y26451066D02*
X74657295Y26565351D01*
X74657295Y26565351D02*
X74657295Y26641542D01*
X74657295Y26641542D02*
X74619200Y26755828D01*
X74619200Y26755828D02*
X74543009Y26832018D01*
X74543009Y26832018D02*
X74466819Y26870113D01*
X74466819Y26870113D02*
X74314438Y26908209D01*
X74314438Y26908209D02*
X74200152Y26908209D01*
X74200152Y26908209D02*
X74047771Y26870113D01*
X74047771Y26870113D02*
X73971580Y26832018D01*
X73971580Y26832018D02*
X73895390Y26755828D01*
X73895390Y26755828D02*
X73857295Y26641542D01*
X73857295Y26641542D02*
X73857295Y26565351D01*
X73857295Y26565351D02*
X73895390Y26451066D01*
X73895390Y26451066D02*
X73933485Y26412970D01*
X74657295Y26032018D02*
X74657295Y25879637D01*
X74657295Y25879637D02*
X74619200Y25803447D01*
X74619200Y25803447D02*
X74581104Y25765351D01*
X74581104Y25765351D02*
X74466819Y25689161D01*
X74466819Y25689161D02*
X74314438Y25651066D01*
X74314438Y25651066D02*
X74009676Y25651066D01*
X74009676Y25651066D02*
X73933485Y25689161D01*
X73933485Y25689161D02*
X73895390Y25727256D01*
X73895390Y25727256D02*
X73857295Y25803447D01*
X73857295Y25803447D02*
X73857295Y25955828D01*
X73857295Y25955828D02*
X73895390Y26032018D01*
X73895390Y26032018D02*
X73933485Y26070113D01*
X73933485Y26070113D02*
X74009676Y26108209D01*
X74009676Y26108209D02*
X74200152Y26108209D01*
X74200152Y26108209D02*
X74276342Y26070113D01*
X74276342Y26070113D02*
X74314438Y26032018D01*
X74314438Y26032018D02*
X74352533Y25955828D01*
X74352533Y25955828D02*
X74352533Y25803447D01*
X74352533Y25803447D02*
X74314438Y25727256D01*
X74314438Y25727256D02*
X74276342Y25689161D01*
X74276342Y25689161D02*
X74200152Y25651066D01*
X54337295Y65770113D02*
X53537295Y65770113D01*
X53537295Y65770113D02*
X53537295Y65465351D01*
X53537295Y65465351D02*
X53575390Y65389161D01*
X53575390Y65389161D02*
X53613485Y65351066D01*
X53613485Y65351066D02*
X53689676Y65312970D01*
X53689676Y65312970D02*
X53803961Y65312970D01*
X53803961Y65312970D02*
X53880152Y65351066D01*
X53880152Y65351066D02*
X53918247Y65389161D01*
X53918247Y65389161D02*
X53956342Y65465351D01*
X53956342Y65465351D02*
X53956342Y65770113D01*
X53918247Y64703447D02*
X53956342Y64589161D01*
X53956342Y64589161D02*
X53994438Y64551066D01*
X53994438Y64551066D02*
X54070628Y64512970D01*
X54070628Y64512970D02*
X54184914Y64512970D01*
X54184914Y64512970D02*
X54261104Y64551066D01*
X54261104Y64551066D02*
X54299200Y64589161D01*
X54299200Y64589161D02*
X54337295Y64665351D01*
X54337295Y64665351D02*
X54337295Y64970113D01*
X54337295Y64970113D02*
X53537295Y64970113D01*
X53537295Y64970113D02*
X53537295Y64703447D01*
X53537295Y64703447D02*
X53575390Y64627256D01*
X53575390Y64627256D02*
X53613485Y64589161D01*
X53613485Y64589161D02*
X53689676Y64551066D01*
X53689676Y64551066D02*
X53765866Y64551066D01*
X53765866Y64551066D02*
X53842057Y64589161D01*
X53842057Y64589161D02*
X53880152Y64627256D01*
X53880152Y64627256D02*
X53918247Y64703447D01*
X53918247Y64703447D02*
X53918247Y64970113D01*
X53803961Y63827256D02*
X54337295Y63827256D01*
X53499200Y64017732D02*
X54070628Y64208209D01*
X54070628Y64208209D02*
X54070628Y63712970D01*
X51797295Y56860840D02*
X50997295Y56860840D01*
X50997295Y56860840D02*
X50997295Y56556078D01*
X50997295Y56556078D02*
X51035390Y56479888D01*
X51035390Y56479888D02*
X51073485Y56441793D01*
X51073485Y56441793D02*
X51149676Y56403697D01*
X51149676Y56403697D02*
X51263961Y56403697D01*
X51263961Y56403697D02*
X51340152Y56441793D01*
X51340152Y56441793D02*
X51378247Y56479888D01*
X51378247Y56479888D02*
X51416342Y56556078D01*
X51416342Y56556078D02*
X51416342Y56860840D01*
X51378247Y55794174D02*
X51416342Y55679888D01*
X51416342Y55679888D02*
X51454438Y55641793D01*
X51454438Y55641793D02*
X51530628Y55603697D01*
X51530628Y55603697D02*
X51644914Y55603697D01*
X51644914Y55603697D02*
X51721104Y55641793D01*
X51721104Y55641793D02*
X51759200Y55679888D01*
X51759200Y55679888D02*
X51797295Y55756078D01*
X51797295Y55756078D02*
X51797295Y56060840D01*
X51797295Y56060840D02*
X50997295Y56060840D01*
X50997295Y56060840D02*
X50997295Y55794174D01*
X50997295Y55794174D02*
X51035390Y55717983D01*
X51035390Y55717983D02*
X51073485Y55679888D01*
X51073485Y55679888D02*
X51149676Y55641793D01*
X51149676Y55641793D02*
X51225866Y55641793D01*
X51225866Y55641793D02*
X51302057Y55679888D01*
X51302057Y55679888D02*
X51340152Y55717983D01*
X51340152Y55717983D02*
X51378247Y55794174D01*
X51378247Y55794174D02*
X51378247Y56060840D01*
X50997295Y55337031D02*
X50997295Y54803697D01*
X50997295Y54803697D02*
X51797295Y55146555D01*
X69577295Y28432018D02*
X68777295Y28432018D01*
X68777295Y28432018D02*
X68777295Y28127256D01*
X68777295Y28127256D02*
X68815390Y28051066D01*
X68815390Y28051066D02*
X68853485Y28012971D01*
X68853485Y28012971D02*
X68929676Y27974875D01*
X68929676Y27974875D02*
X69043961Y27974875D01*
X69043961Y27974875D02*
X69120152Y28012971D01*
X69120152Y28012971D02*
X69158247Y28051066D01*
X69158247Y28051066D02*
X69196342Y28127256D01*
X69196342Y28127256D02*
X69196342Y28432018D01*
X69158247Y27365352D02*
X69196342Y27251066D01*
X69196342Y27251066D02*
X69234438Y27212971D01*
X69234438Y27212971D02*
X69310628Y27174875D01*
X69310628Y27174875D02*
X69424914Y27174875D01*
X69424914Y27174875D02*
X69501104Y27212971D01*
X69501104Y27212971D02*
X69539200Y27251066D01*
X69539200Y27251066D02*
X69577295Y27327256D01*
X69577295Y27327256D02*
X69577295Y27632018D01*
X69577295Y27632018D02*
X68777295Y27632018D01*
X68777295Y27632018D02*
X68777295Y27365352D01*
X68777295Y27365352D02*
X68815390Y27289161D01*
X68815390Y27289161D02*
X68853485Y27251066D01*
X68853485Y27251066D02*
X68929676Y27212971D01*
X68929676Y27212971D02*
X69005866Y27212971D01*
X69005866Y27212971D02*
X69082057Y27251066D01*
X69082057Y27251066D02*
X69120152Y27289161D01*
X69120152Y27289161D02*
X69158247Y27365352D01*
X69158247Y27365352D02*
X69158247Y27632018D01*
X69577295Y26412971D02*
X69577295Y26870114D01*
X69577295Y26641542D02*
X68777295Y26641542D01*
X68777295Y26641542D02*
X68891580Y26717733D01*
X68891580Y26717733D02*
X68967771Y26793923D01*
X68967771Y26793923D02*
X69005866Y26870114D01*
X68777295Y25689161D02*
X68777295Y26070113D01*
X68777295Y26070113D02*
X69158247Y26108209D01*
X69158247Y26108209D02*
X69120152Y26070113D01*
X69120152Y26070113D02*
X69082057Y25993923D01*
X69082057Y25993923D02*
X69082057Y25803447D01*
X69082057Y25803447D02*
X69120152Y25727256D01*
X69120152Y25727256D02*
X69158247Y25689161D01*
X69158247Y25689161D02*
X69234438Y25651066D01*
X69234438Y25651066D02*
X69424914Y25651066D01*
X69424914Y25651066D02*
X69501104Y25689161D01*
X69501104Y25689161D02*
X69539200Y25727256D01*
X69539200Y25727256D02*
X69577295Y25803447D01*
X69577295Y25803447D02*
X69577295Y25993923D01*
X69577295Y25993923D02*
X69539200Y26070113D01*
X69539200Y26070113D02*
X69501104Y26108209D01*
X44177295Y27670113D02*
X43377295Y27670113D01*
X43377295Y27670113D02*
X43377295Y27365351D01*
X43377295Y27365351D02*
X43415390Y27289161D01*
X43415390Y27289161D02*
X43453485Y27251066D01*
X43453485Y27251066D02*
X43529676Y27212970D01*
X43529676Y27212970D02*
X43643961Y27212970D01*
X43643961Y27212970D02*
X43720152Y27251066D01*
X43720152Y27251066D02*
X43758247Y27289161D01*
X43758247Y27289161D02*
X43796342Y27365351D01*
X43796342Y27365351D02*
X43796342Y27670113D01*
X44101104Y26412970D02*
X44139200Y26451066D01*
X44139200Y26451066D02*
X44177295Y26565351D01*
X44177295Y26565351D02*
X44177295Y26641542D01*
X44177295Y26641542D02*
X44139200Y26755828D01*
X44139200Y26755828D02*
X44063009Y26832018D01*
X44063009Y26832018D02*
X43986819Y26870113D01*
X43986819Y26870113D02*
X43834438Y26908209D01*
X43834438Y26908209D02*
X43720152Y26908209D01*
X43720152Y26908209D02*
X43567771Y26870113D01*
X43567771Y26870113D02*
X43491580Y26832018D01*
X43491580Y26832018D02*
X43415390Y26755828D01*
X43415390Y26755828D02*
X43377295Y26641542D01*
X43377295Y26641542D02*
X43377295Y26565351D01*
X43377295Y26565351D02*
X43415390Y26451066D01*
X43415390Y26451066D02*
X43453485Y26412970D01*
X43377295Y26146304D02*
X43377295Y25651066D01*
X43377295Y25651066D02*
X43682057Y25917732D01*
X43682057Y25917732D02*
X43682057Y25803447D01*
X43682057Y25803447D02*
X43720152Y25727256D01*
X43720152Y25727256D02*
X43758247Y25689161D01*
X43758247Y25689161D02*
X43834438Y25651066D01*
X43834438Y25651066D02*
X44024914Y25651066D01*
X44024914Y25651066D02*
X44101104Y25689161D01*
X44101104Y25689161D02*
X44139200Y25727256D01*
X44139200Y25727256D02*
X44177295Y25803447D01*
X44177295Y25803447D02*
X44177295Y26032018D01*
X44177295Y26032018D02*
X44139200Y26108209D01*
X44139200Y26108209D02*
X44101104Y26146304D01*
X41637295Y56860840D02*
X40837295Y56860840D01*
X40837295Y56860840D02*
X40837295Y56556078D01*
X40837295Y56556078D02*
X40875390Y56479888D01*
X40875390Y56479888D02*
X40913485Y56441793D01*
X40913485Y56441793D02*
X40989676Y56403697D01*
X40989676Y56403697D02*
X41103961Y56403697D01*
X41103961Y56403697D02*
X41180152Y56441793D01*
X41180152Y56441793D02*
X41218247Y56479888D01*
X41218247Y56479888D02*
X41256342Y56556078D01*
X41256342Y56556078D02*
X41256342Y56860840D01*
X41561104Y55603697D02*
X41599200Y55641793D01*
X41599200Y55641793D02*
X41637295Y55756078D01*
X41637295Y55756078D02*
X41637295Y55832269D01*
X41637295Y55832269D02*
X41599200Y55946555D01*
X41599200Y55946555D02*
X41523009Y56022745D01*
X41523009Y56022745D02*
X41446819Y56060840D01*
X41446819Y56060840D02*
X41294438Y56098936D01*
X41294438Y56098936D02*
X41180152Y56098936D01*
X41180152Y56098936D02*
X41027771Y56060840D01*
X41027771Y56060840D02*
X40951580Y56022745D01*
X40951580Y56022745D02*
X40875390Y55946555D01*
X40875390Y55946555D02*
X40837295Y55832269D01*
X40837295Y55832269D02*
X40837295Y55756078D01*
X40837295Y55756078D02*
X40875390Y55641793D01*
X40875390Y55641793D02*
X40913485Y55603697D01*
X41637295Y54841793D02*
X41637295Y55298936D01*
X41637295Y55070364D02*
X40837295Y55070364D01*
X40837295Y55070364D02*
X40951580Y55146555D01*
X40951580Y55146555D02*
X41027771Y55222745D01*
X41027771Y55222745D02*
X41065866Y55298936D01*
X40837295Y54117983D02*
X40837295Y54498935D01*
X40837295Y54498935D02*
X41218247Y54537031D01*
X41218247Y54537031D02*
X41180152Y54498935D01*
X41180152Y54498935D02*
X41142057Y54422745D01*
X41142057Y54422745D02*
X41142057Y54232269D01*
X41142057Y54232269D02*
X41180152Y54156078D01*
X41180152Y54156078D02*
X41218247Y54117983D01*
X41218247Y54117983D02*
X41294438Y54079888D01*
X41294438Y54079888D02*
X41484914Y54079888D01*
X41484914Y54079888D02*
X41561104Y54117983D01*
X41561104Y54117983D02*
X41599200Y54156078D01*
X41599200Y54156078D02*
X41637295Y54232269D01*
X41637295Y54232269D02*
X41637295Y54422745D01*
X41637295Y54422745D02*
X41599200Y54498935D01*
X41599200Y54498935D02*
X41561104Y54537031D01*
X72117295Y66417732D02*
X71317295Y66417732D01*
X71317295Y66417732D02*
X71317295Y66112970D01*
X71317295Y66112970D02*
X71355390Y66036780D01*
X71355390Y66036780D02*
X71393485Y65998685D01*
X71393485Y65998685D02*
X71469676Y65960589D01*
X71469676Y65960589D02*
X71583961Y65960589D01*
X71583961Y65960589D02*
X71660152Y65998685D01*
X71660152Y65998685D02*
X71698247Y66036780D01*
X71698247Y66036780D02*
X71736342Y66112970D01*
X71736342Y66112970D02*
X71736342Y66417732D01*
X71888723Y65655828D02*
X71888723Y65274875D01*
X72117295Y65732018D02*
X71317295Y65465351D01*
X71317295Y65465351D02*
X72117295Y65198685D01*
X72117295Y64512971D02*
X72117295Y64970114D01*
X72117295Y64741542D02*
X71317295Y64741542D01*
X71317295Y64741542D02*
X71431580Y64817733D01*
X71431580Y64817733D02*
X71507771Y64893923D01*
X71507771Y64893923D02*
X71545866Y64970114D01*
X71317295Y64017732D02*
X71317295Y63941542D01*
X71317295Y63941542D02*
X71355390Y63865351D01*
X71355390Y63865351D02*
X71393485Y63827256D01*
X71393485Y63827256D02*
X71469676Y63789161D01*
X71469676Y63789161D02*
X71622057Y63751066D01*
X71622057Y63751066D02*
X71812533Y63751066D01*
X71812533Y63751066D02*
X71964914Y63789161D01*
X71964914Y63789161D02*
X72041104Y63827256D01*
X72041104Y63827256D02*
X72079200Y63865351D01*
X72079200Y63865351D02*
X72117295Y63941542D01*
X72117295Y63941542D02*
X72117295Y64017732D01*
X72117295Y64017732D02*
X72079200Y64093923D01*
X72079200Y64093923D02*
X72041104Y64132018D01*
X72041104Y64132018D02*
X71964914Y64170113D01*
X71964914Y64170113D02*
X71812533Y64208209D01*
X71812533Y64208209D02*
X71622057Y64208209D01*
X71622057Y64208209D02*
X71469676Y64170113D01*
X71469676Y64170113D02*
X71393485Y64132018D01*
X71393485Y64132018D02*
X71355390Y64093923D01*
X71355390Y64093923D02*
X71317295Y64017732D01*
X74657295Y18760840D02*
X73857295Y18760840D01*
X73857295Y18760840D02*
X73857295Y18456078D01*
X73857295Y18456078D02*
X73895390Y18379888D01*
X73895390Y18379888D02*
X73933485Y18341793D01*
X73933485Y18341793D02*
X74009676Y18303697D01*
X74009676Y18303697D02*
X74123961Y18303697D01*
X74123961Y18303697D02*
X74200152Y18341793D01*
X74200152Y18341793D02*
X74238247Y18379888D01*
X74238247Y18379888D02*
X74276342Y18456078D01*
X74276342Y18456078D02*
X74276342Y18760840D01*
X74581104Y17503697D02*
X74619200Y17541793D01*
X74619200Y17541793D02*
X74657295Y17656078D01*
X74657295Y17656078D02*
X74657295Y17732269D01*
X74657295Y17732269D02*
X74619200Y17846555D01*
X74619200Y17846555D02*
X74543009Y17922745D01*
X74543009Y17922745D02*
X74466819Y17960840D01*
X74466819Y17960840D02*
X74314438Y17998936D01*
X74314438Y17998936D02*
X74200152Y17998936D01*
X74200152Y17998936D02*
X74047771Y17960840D01*
X74047771Y17960840D02*
X73971580Y17922745D01*
X73971580Y17922745D02*
X73895390Y17846555D01*
X73895390Y17846555D02*
X73857295Y17732269D01*
X73857295Y17732269D02*
X73857295Y17656078D01*
X73857295Y17656078D02*
X73895390Y17541793D01*
X73895390Y17541793D02*
X73933485Y17503697D01*
X74200152Y17046555D02*
X74162057Y17122745D01*
X74162057Y17122745D02*
X74123961Y17160840D01*
X74123961Y17160840D02*
X74047771Y17198936D01*
X74047771Y17198936D02*
X74009676Y17198936D01*
X74009676Y17198936D02*
X73933485Y17160840D01*
X73933485Y17160840D02*
X73895390Y17122745D01*
X73895390Y17122745D02*
X73857295Y17046555D01*
X73857295Y17046555D02*
X73857295Y16894174D01*
X73857295Y16894174D02*
X73895390Y16817983D01*
X73895390Y16817983D02*
X73933485Y16779888D01*
X73933485Y16779888D02*
X74009676Y16741793D01*
X74009676Y16741793D02*
X74047771Y16741793D01*
X74047771Y16741793D02*
X74123961Y16779888D01*
X74123961Y16779888D02*
X74162057Y16817983D01*
X74162057Y16817983D02*
X74200152Y16894174D01*
X74200152Y16894174D02*
X74200152Y17046555D01*
X74200152Y17046555D02*
X74238247Y17122745D01*
X74238247Y17122745D02*
X74276342Y17160840D01*
X74276342Y17160840D02*
X74352533Y17198936D01*
X74352533Y17198936D02*
X74504914Y17198936D01*
X74504914Y17198936D02*
X74581104Y17160840D01*
X74581104Y17160840D02*
X74619200Y17122745D01*
X74619200Y17122745D02*
X74657295Y17046555D01*
X74657295Y17046555D02*
X74657295Y16894174D01*
X74657295Y16894174D02*
X74619200Y16817983D01*
X74619200Y16817983D02*
X74581104Y16779888D01*
X74581104Y16779888D02*
X74504914Y16741793D01*
X74504914Y16741793D02*
X74352533Y16741793D01*
X74352533Y16741793D02*
X74276342Y16779888D01*
X74276342Y16779888D02*
X74238247Y16817983D01*
X74238247Y16817983D02*
X74200152Y16894174D01*
X44177295Y56860840D02*
X43377295Y56860840D01*
X43377295Y56860840D02*
X43377295Y56556078D01*
X43377295Y56556078D02*
X43415390Y56479888D01*
X43415390Y56479888D02*
X43453485Y56441793D01*
X43453485Y56441793D02*
X43529676Y56403697D01*
X43529676Y56403697D02*
X43643961Y56403697D01*
X43643961Y56403697D02*
X43720152Y56441793D01*
X43720152Y56441793D02*
X43758247Y56479888D01*
X43758247Y56479888D02*
X43796342Y56556078D01*
X43796342Y56556078D02*
X43796342Y56860840D01*
X44101104Y55603697D02*
X44139200Y55641793D01*
X44139200Y55641793D02*
X44177295Y55756078D01*
X44177295Y55756078D02*
X44177295Y55832269D01*
X44177295Y55832269D02*
X44139200Y55946555D01*
X44139200Y55946555D02*
X44063009Y56022745D01*
X44063009Y56022745D02*
X43986819Y56060840D01*
X43986819Y56060840D02*
X43834438Y56098936D01*
X43834438Y56098936D02*
X43720152Y56098936D01*
X43720152Y56098936D02*
X43567771Y56060840D01*
X43567771Y56060840D02*
X43491580Y56022745D01*
X43491580Y56022745D02*
X43415390Y55946555D01*
X43415390Y55946555D02*
X43377295Y55832269D01*
X43377295Y55832269D02*
X43377295Y55756078D01*
X43377295Y55756078D02*
X43415390Y55641793D01*
X43415390Y55641793D02*
X43453485Y55603697D01*
X44177295Y54841793D02*
X44177295Y55298936D01*
X44177295Y55070364D02*
X43377295Y55070364D01*
X43377295Y55070364D02*
X43491580Y55146555D01*
X43491580Y55146555D02*
X43567771Y55222745D01*
X43567771Y55222745D02*
X43605866Y55298936D01*
X43377295Y54575126D02*
X43377295Y54079888D01*
X43377295Y54079888D02*
X43682057Y54346554D01*
X43682057Y54346554D02*
X43682057Y54232269D01*
X43682057Y54232269D02*
X43720152Y54156078D01*
X43720152Y54156078D02*
X43758247Y54117983D01*
X43758247Y54117983D02*
X43834438Y54079888D01*
X43834438Y54079888D02*
X44024914Y54079888D01*
X44024914Y54079888D02*
X44101104Y54117983D01*
X44101104Y54117983D02*
X44139200Y54156078D01*
X44139200Y54156078D02*
X44177295Y54232269D01*
X44177295Y54232269D02*
X44177295Y54460840D01*
X44177295Y54460840D02*
X44139200Y54537031D01*
X44139200Y54537031D02*
X44101104Y54575126D01*
X67037295Y66417732D02*
X66237295Y66417732D01*
X66237295Y66417732D02*
X66237295Y66112970D01*
X66237295Y66112970D02*
X66275390Y66036780D01*
X66275390Y66036780D02*
X66313485Y65998685D01*
X66313485Y65998685D02*
X66389676Y65960589D01*
X66389676Y65960589D02*
X66503961Y65960589D01*
X66503961Y65960589D02*
X66580152Y65998685D01*
X66580152Y65998685D02*
X66618247Y66036780D01*
X66618247Y66036780D02*
X66656342Y66112970D01*
X66656342Y66112970D02*
X66656342Y66417732D01*
X66808723Y65655828D02*
X66808723Y65274875D01*
X67037295Y65732018D02*
X66237295Y65465351D01*
X66237295Y65465351D02*
X67037295Y65198685D01*
X67037295Y64512971D02*
X67037295Y64970114D01*
X67037295Y64741542D02*
X66237295Y64741542D01*
X66237295Y64741542D02*
X66351580Y64817733D01*
X66351580Y64817733D02*
X66427771Y64893923D01*
X66427771Y64893923D02*
X66465866Y64970114D01*
X66503961Y63827256D02*
X67037295Y63827256D01*
X66199200Y64017732D02*
X66770628Y64208209D01*
X66770628Y64208209D02*
X66770628Y63712970D01*
X58617295Y56860840D02*
X59264914Y56860840D01*
X59264914Y56860840D02*
X59341104Y56822745D01*
X59341104Y56822745D02*
X59379200Y56784650D01*
X59379200Y56784650D02*
X59417295Y56708459D01*
X59417295Y56708459D02*
X59417295Y56556078D01*
X59417295Y56556078D02*
X59379200Y56479888D01*
X59379200Y56479888D02*
X59341104Y56441793D01*
X59341104Y56441793D02*
X59264914Y56403697D01*
X59264914Y56403697D02*
X58617295Y56403697D01*
X58960152Y55908460D02*
X58922057Y55984650D01*
X58922057Y55984650D02*
X58883961Y56022745D01*
X58883961Y56022745D02*
X58807771Y56060841D01*
X58807771Y56060841D02*
X58769676Y56060841D01*
X58769676Y56060841D02*
X58693485Y56022745D01*
X58693485Y56022745D02*
X58655390Y55984650D01*
X58655390Y55984650D02*
X58617295Y55908460D01*
X58617295Y55908460D02*
X58617295Y55756079D01*
X58617295Y55756079D02*
X58655390Y55679888D01*
X58655390Y55679888D02*
X58693485Y55641793D01*
X58693485Y55641793D02*
X58769676Y55603698D01*
X58769676Y55603698D02*
X58807771Y55603698D01*
X58807771Y55603698D02*
X58883961Y55641793D01*
X58883961Y55641793D02*
X58922057Y55679888D01*
X58922057Y55679888D02*
X58960152Y55756079D01*
X58960152Y55756079D02*
X58960152Y55908460D01*
X58960152Y55908460D02*
X58998247Y55984650D01*
X58998247Y55984650D02*
X59036342Y56022745D01*
X59036342Y56022745D02*
X59112533Y56060841D01*
X59112533Y56060841D02*
X59264914Y56060841D01*
X59264914Y56060841D02*
X59341104Y56022745D01*
X59341104Y56022745D02*
X59379200Y55984650D01*
X59379200Y55984650D02*
X59417295Y55908460D01*
X59417295Y55908460D02*
X59417295Y55756079D01*
X59417295Y55756079D02*
X59379200Y55679888D01*
X59379200Y55679888D02*
X59341104Y55641793D01*
X59341104Y55641793D02*
X59264914Y55603698D01*
X59264914Y55603698D02*
X59112533Y55603698D01*
X59112533Y55603698D02*
X59036342Y55641793D01*
X59036342Y55641793D02*
X58998247Y55679888D01*
X58998247Y55679888D02*
X58960152Y55756079D01*
X81477295Y18837031D02*
X81477295Y18341793D01*
X81477295Y18341793D02*
X81782057Y18608459D01*
X81782057Y18608459D02*
X81782057Y18494174D01*
X81782057Y18494174D02*
X81820152Y18417983D01*
X81820152Y18417983D02*
X81858247Y18379888D01*
X81858247Y18379888D02*
X81934438Y18341793D01*
X81934438Y18341793D02*
X82124914Y18341793D01*
X82124914Y18341793D02*
X82201104Y18379888D01*
X82201104Y18379888D02*
X82239200Y18417983D01*
X82239200Y18417983D02*
X82277295Y18494174D01*
X82277295Y18494174D02*
X82277295Y18722745D01*
X82277295Y18722745D02*
X82239200Y18798936D01*
X82239200Y18798936D02*
X82201104Y18837031D01*
X82201104Y17998935D02*
X82239200Y17960840D01*
X82239200Y17960840D02*
X82277295Y17998935D01*
X82277295Y17998935D02*
X82239200Y18037031D01*
X82239200Y18037031D02*
X82201104Y17998935D01*
X82201104Y17998935D02*
X82277295Y17998935D01*
X81477295Y17694174D02*
X81477295Y17198936D01*
X81477295Y17198936D02*
X81782057Y17465602D01*
X81782057Y17465602D02*
X81782057Y17351317D01*
X81782057Y17351317D02*
X81820152Y17275126D01*
X81820152Y17275126D02*
X81858247Y17237031D01*
X81858247Y17237031D02*
X81934438Y17198936D01*
X81934438Y17198936D02*
X82124914Y17198936D01*
X82124914Y17198936D02*
X82201104Y17237031D01*
X82201104Y17237031D02*
X82239200Y17275126D01*
X82239200Y17275126D02*
X82277295Y17351317D01*
X82277295Y17351317D02*
X82277295Y17579888D01*
X82277295Y17579888D02*
X82239200Y17656079D01*
X82239200Y17656079D02*
X82201104Y17694174D01*
X81477295Y16970364D02*
X82277295Y16703697D01*
X82277295Y16703697D02*
X81477295Y16437031D01*
X67037295Y56860840D02*
X66237295Y56860840D01*
X66237295Y56860840D02*
X66237295Y56556078D01*
X66237295Y56556078D02*
X66275390Y56479888D01*
X66275390Y56479888D02*
X66313485Y56441793D01*
X66313485Y56441793D02*
X66389676Y56403697D01*
X66389676Y56403697D02*
X66503961Y56403697D01*
X66503961Y56403697D02*
X66580152Y56441793D01*
X66580152Y56441793D02*
X66618247Y56479888D01*
X66618247Y56479888D02*
X66656342Y56556078D01*
X66656342Y56556078D02*
X66656342Y56860840D01*
X66808723Y56098936D02*
X66808723Y55717983D01*
X67037295Y56175126D02*
X66237295Y55908459D01*
X66237295Y55908459D02*
X67037295Y55641793D01*
X67037295Y54956079D02*
X67037295Y55413222D01*
X67037295Y55184650D02*
X66237295Y55184650D01*
X66237295Y55184650D02*
X66351580Y55260841D01*
X66351580Y55260841D02*
X66427771Y55337031D01*
X66427771Y55337031D02*
X66465866Y55413222D01*
X66237295Y54232269D02*
X66237295Y54613221D01*
X66237295Y54613221D02*
X66618247Y54651317D01*
X66618247Y54651317D02*
X66580152Y54613221D01*
X66580152Y54613221D02*
X66542057Y54537031D01*
X66542057Y54537031D02*
X66542057Y54346555D01*
X66542057Y54346555D02*
X66580152Y54270364D01*
X66580152Y54270364D02*
X66618247Y54232269D01*
X66618247Y54232269D02*
X66694438Y54194174D01*
X66694438Y54194174D02*
X66884914Y54194174D01*
X66884914Y54194174D02*
X66961104Y54232269D01*
X66961104Y54232269D02*
X66999200Y54270364D01*
X66999200Y54270364D02*
X67037295Y54346555D01*
X67037295Y54346555D02*
X67037295Y54537031D01*
X67037295Y54537031D02*
X66999200Y54613221D01*
X66999200Y54613221D02*
X66961104Y54651317D01*
X81515390Y27327256D02*
X81477295Y27403446D01*
X81477295Y27403446D02*
X81477295Y27517732D01*
X81477295Y27517732D02*
X81515390Y27632018D01*
X81515390Y27632018D02*
X81591580Y27708208D01*
X81591580Y27708208D02*
X81667771Y27746303D01*
X81667771Y27746303D02*
X81820152Y27784399D01*
X81820152Y27784399D02*
X81934438Y27784399D01*
X81934438Y27784399D02*
X82086819Y27746303D01*
X82086819Y27746303D02*
X82163009Y27708208D01*
X82163009Y27708208D02*
X82239200Y27632018D01*
X82239200Y27632018D02*
X82277295Y27517732D01*
X82277295Y27517732D02*
X82277295Y27441541D01*
X82277295Y27441541D02*
X82239200Y27327256D01*
X82239200Y27327256D02*
X82201104Y27289160D01*
X82201104Y27289160D02*
X81934438Y27289160D01*
X81934438Y27289160D02*
X81934438Y27441541D01*
X82277295Y26946303D02*
X81477295Y26946303D01*
X81477295Y26946303D02*
X82277295Y26489160D01*
X82277295Y26489160D02*
X81477295Y26489160D01*
X82277295Y26108208D02*
X81477295Y26108208D01*
X81477295Y26108208D02*
X81477295Y25917732D01*
X81477295Y25917732D02*
X81515390Y25803446D01*
X81515390Y25803446D02*
X81591580Y25727256D01*
X81591580Y25727256D02*
X81667771Y25689161D01*
X81667771Y25689161D02*
X81820152Y25651065D01*
X81820152Y25651065D02*
X81934438Y25651065D01*
X81934438Y25651065D02*
X82086819Y25689161D01*
X82086819Y25689161D02*
X82163009Y25727256D01*
X82163009Y25727256D02*
X82239200Y25803446D01*
X82239200Y25803446D02*
X82277295Y25917732D01*
X82277295Y25917732D02*
X82277295Y26108208D01*
X41637295Y18760840D02*
X40837295Y18760840D01*
X40837295Y18760840D02*
X40837295Y18456078D01*
X40837295Y18456078D02*
X40875390Y18379888D01*
X40875390Y18379888D02*
X40913485Y18341793D01*
X40913485Y18341793D02*
X40989676Y18303697D01*
X40989676Y18303697D02*
X41103961Y18303697D01*
X41103961Y18303697D02*
X41180152Y18341793D01*
X41180152Y18341793D02*
X41218247Y18379888D01*
X41218247Y18379888D02*
X41256342Y18456078D01*
X41256342Y18456078D02*
X41256342Y18760840D01*
X41561104Y17503697D02*
X41599200Y17541793D01*
X41599200Y17541793D02*
X41637295Y17656078D01*
X41637295Y17656078D02*
X41637295Y17732269D01*
X41637295Y17732269D02*
X41599200Y17846555D01*
X41599200Y17846555D02*
X41523009Y17922745D01*
X41523009Y17922745D02*
X41446819Y17960840D01*
X41446819Y17960840D02*
X41294438Y17998936D01*
X41294438Y17998936D02*
X41180152Y17998936D01*
X41180152Y17998936D02*
X41027771Y17960840D01*
X41027771Y17960840D02*
X40951580Y17922745D01*
X40951580Y17922745D02*
X40875390Y17846555D01*
X40875390Y17846555D02*
X40837295Y17732269D01*
X40837295Y17732269D02*
X40837295Y17656078D01*
X40837295Y17656078D02*
X40875390Y17541793D01*
X40875390Y17541793D02*
X40913485Y17503697D01*
X40837295Y17008459D02*
X40837295Y16932269D01*
X40837295Y16932269D02*
X40875390Y16856078D01*
X40875390Y16856078D02*
X40913485Y16817983D01*
X40913485Y16817983D02*
X40989676Y16779888D01*
X40989676Y16779888D02*
X41142057Y16741793D01*
X41142057Y16741793D02*
X41332533Y16741793D01*
X41332533Y16741793D02*
X41484914Y16779888D01*
X41484914Y16779888D02*
X41561104Y16817983D01*
X41561104Y16817983D02*
X41599200Y16856078D01*
X41599200Y16856078D02*
X41637295Y16932269D01*
X41637295Y16932269D02*
X41637295Y17008459D01*
X41637295Y17008459D02*
X41599200Y17084650D01*
X41599200Y17084650D02*
X41561104Y17122745D01*
X41561104Y17122745D02*
X41484914Y17160840D01*
X41484914Y17160840D02*
X41332533Y17198936D01*
X41332533Y17198936D02*
X41142057Y17198936D01*
X41142057Y17198936D02*
X40989676Y17160840D01*
X40989676Y17160840D02*
X40913485Y17122745D01*
X40913485Y17122745D02*
X40875390Y17084650D01*
X40875390Y17084650D02*
X40837295Y17008459D01*
X78937295Y56860840D02*
X79584914Y56860840D01*
X79584914Y56860840D02*
X79661104Y56822745D01*
X79661104Y56822745D02*
X79699200Y56784650D01*
X79699200Y56784650D02*
X79737295Y56708459D01*
X79737295Y56708459D02*
X79737295Y56556078D01*
X79737295Y56556078D02*
X79699200Y56479888D01*
X79699200Y56479888D02*
X79661104Y56441793D01*
X79661104Y56441793D02*
X79584914Y56403697D01*
X79584914Y56403697D02*
X78937295Y56403697D01*
X79737295Y55603698D02*
X79737295Y56060841D01*
X79737295Y55832269D02*
X78937295Y55832269D01*
X78937295Y55832269D02*
X79051580Y55908460D01*
X79051580Y55908460D02*
X79127771Y55984650D01*
X79127771Y55984650D02*
X79165866Y56060841D01*
X78937295Y54917983D02*
X78937295Y55070364D01*
X78937295Y55070364D02*
X78975390Y55146555D01*
X78975390Y55146555D02*
X79013485Y55184650D01*
X79013485Y55184650D02*
X79127771Y55260840D01*
X79127771Y55260840D02*
X79280152Y55298936D01*
X79280152Y55298936D02*
X79584914Y55298936D01*
X79584914Y55298936D02*
X79661104Y55260840D01*
X79661104Y55260840D02*
X79699200Y55222745D01*
X79699200Y55222745D02*
X79737295Y55146555D01*
X79737295Y55146555D02*
X79737295Y54994174D01*
X79737295Y54994174D02*
X79699200Y54917983D01*
X79699200Y54917983D02*
X79661104Y54879888D01*
X79661104Y54879888D02*
X79584914Y54841793D01*
X79584914Y54841793D02*
X79394438Y54841793D01*
X79394438Y54841793D02*
X79318247Y54879888D01*
X79318247Y54879888D02*
X79280152Y54917983D01*
X79280152Y54917983D02*
X79242057Y54994174D01*
X79242057Y54994174D02*
X79242057Y55146555D01*
X79242057Y55146555D02*
X79280152Y55222745D01*
X79280152Y55222745D02*
X79318247Y55260840D01*
X79318247Y55260840D02*
X79394438Y55298936D01*
X46717295Y18760840D02*
X45917295Y18760840D01*
X45917295Y18760840D02*
X45917295Y18456078D01*
X45917295Y18456078D02*
X45955390Y18379888D01*
X45955390Y18379888D02*
X45993485Y18341793D01*
X45993485Y18341793D02*
X46069676Y18303697D01*
X46069676Y18303697D02*
X46183961Y18303697D01*
X46183961Y18303697D02*
X46260152Y18341793D01*
X46260152Y18341793D02*
X46298247Y18379888D01*
X46298247Y18379888D02*
X46336342Y18456078D01*
X46336342Y18456078D02*
X46336342Y18760840D01*
X46488723Y17998936D02*
X46488723Y17617983D01*
X46717295Y18075126D02*
X45917295Y17808459D01*
X45917295Y17808459D02*
X46717295Y17541793D01*
X45917295Y17122745D02*
X45917295Y17046555D01*
X45917295Y17046555D02*
X45955390Y16970364D01*
X45955390Y16970364D02*
X45993485Y16932269D01*
X45993485Y16932269D02*
X46069676Y16894174D01*
X46069676Y16894174D02*
X46222057Y16856079D01*
X46222057Y16856079D02*
X46412533Y16856079D01*
X46412533Y16856079D02*
X46564914Y16894174D01*
X46564914Y16894174D02*
X46641104Y16932269D01*
X46641104Y16932269D02*
X46679200Y16970364D01*
X46679200Y16970364D02*
X46717295Y17046555D01*
X46717295Y17046555D02*
X46717295Y17122745D01*
X46717295Y17122745D02*
X46679200Y17198936D01*
X46679200Y17198936D02*
X46641104Y17237031D01*
X46641104Y17237031D02*
X46564914Y17275126D01*
X46564914Y17275126D02*
X46412533Y17313222D01*
X46412533Y17313222D02*
X46222057Y17313222D01*
X46222057Y17313222D02*
X46069676Y17275126D01*
X46069676Y17275126D02*
X45993485Y17237031D01*
X45993485Y17237031D02*
X45955390Y17198936D01*
X45955390Y17198936D02*
X45917295Y17122745D01*
X46717295Y27555827D02*
X45917295Y27555827D01*
X45917295Y27555827D02*
X45917295Y27251065D01*
X45917295Y27251065D02*
X45955390Y27174875D01*
X45955390Y27174875D02*
X45993485Y27136780D01*
X45993485Y27136780D02*
X46069676Y27098684D01*
X46069676Y27098684D02*
X46183961Y27098684D01*
X46183961Y27098684D02*
X46260152Y27136780D01*
X46260152Y27136780D02*
X46298247Y27174875D01*
X46298247Y27174875D02*
X46336342Y27251065D01*
X46336342Y27251065D02*
X46336342Y27555827D01*
X46488723Y26793923D02*
X46488723Y26412970D01*
X46717295Y26870113D02*
X45917295Y26603446D01*
X45917295Y26603446D02*
X46717295Y26336780D01*
X46717295Y25651066D02*
X46717295Y26108209D01*
X46717295Y25879637D02*
X45917295Y25879637D01*
X45917295Y25879637D02*
X46031580Y25955828D01*
X46031580Y25955828D02*
X46107771Y26032018D01*
X46107771Y26032018D02*
X46145866Y26108209D01*
X78937295Y26908208D02*
X79584914Y26908208D01*
X79584914Y26908208D02*
X79661104Y26870113D01*
X79661104Y26870113D02*
X79699200Y26832018D01*
X79699200Y26832018D02*
X79737295Y26755827D01*
X79737295Y26755827D02*
X79737295Y26603446D01*
X79737295Y26603446D02*
X79699200Y26527256D01*
X79699200Y26527256D02*
X79661104Y26489161D01*
X79661104Y26489161D02*
X79584914Y26451065D01*
X79584914Y26451065D02*
X78937295Y26451065D01*
X79203961Y25727256D02*
X79737295Y25727256D01*
X78899200Y25917732D02*
X79470628Y26108209D01*
X79470628Y26108209D02*
X79470628Y25612970D01*
X72117295Y18760840D02*
X71317295Y18760840D01*
X71317295Y18760840D02*
X71317295Y18456078D01*
X71317295Y18456078D02*
X71355390Y18379888D01*
X71355390Y18379888D02*
X71393485Y18341793D01*
X71393485Y18341793D02*
X71469676Y18303697D01*
X71469676Y18303697D02*
X71583961Y18303697D01*
X71583961Y18303697D02*
X71660152Y18341793D01*
X71660152Y18341793D02*
X71698247Y18379888D01*
X71698247Y18379888D02*
X71736342Y18456078D01*
X71736342Y18456078D02*
X71736342Y18760840D01*
X72041104Y17503697D02*
X72079200Y17541793D01*
X72079200Y17541793D02*
X72117295Y17656078D01*
X72117295Y17656078D02*
X72117295Y17732269D01*
X72117295Y17732269D02*
X72079200Y17846555D01*
X72079200Y17846555D02*
X72003009Y17922745D01*
X72003009Y17922745D02*
X71926819Y17960840D01*
X71926819Y17960840D02*
X71774438Y17998936D01*
X71774438Y17998936D02*
X71660152Y17998936D01*
X71660152Y17998936D02*
X71507771Y17960840D01*
X71507771Y17960840D02*
X71431580Y17922745D01*
X71431580Y17922745D02*
X71355390Y17846555D01*
X71355390Y17846555D02*
X71317295Y17732269D01*
X71317295Y17732269D02*
X71317295Y17656078D01*
X71317295Y17656078D02*
X71355390Y17541793D01*
X71355390Y17541793D02*
X71393485Y17503697D01*
X71317295Y16817983D02*
X71317295Y16970364D01*
X71317295Y16970364D02*
X71355390Y17046555D01*
X71355390Y17046555D02*
X71393485Y17084650D01*
X71393485Y17084650D02*
X71507771Y17160840D01*
X71507771Y17160840D02*
X71660152Y17198936D01*
X71660152Y17198936D02*
X71964914Y17198936D01*
X71964914Y17198936D02*
X72041104Y17160840D01*
X72041104Y17160840D02*
X72079200Y17122745D01*
X72079200Y17122745D02*
X72117295Y17046555D01*
X72117295Y17046555D02*
X72117295Y16894174D01*
X72117295Y16894174D02*
X72079200Y16817983D01*
X72079200Y16817983D02*
X72041104Y16779888D01*
X72041104Y16779888D02*
X71964914Y16741793D01*
X71964914Y16741793D02*
X71774438Y16741793D01*
X71774438Y16741793D02*
X71698247Y16779888D01*
X71698247Y16779888D02*
X71660152Y16817983D01*
X71660152Y16817983D02*
X71622057Y16894174D01*
X71622057Y16894174D02*
X71622057Y17046555D01*
X71622057Y17046555D02*
X71660152Y17122745D01*
X71660152Y17122745D02*
X71698247Y17160840D01*
X71698247Y17160840D02*
X71774438Y17198936D01*
X67037295Y18760840D02*
X66237295Y18760840D01*
X66237295Y18760840D02*
X66237295Y18456078D01*
X66237295Y18456078D02*
X66275390Y18379888D01*
X66275390Y18379888D02*
X66313485Y18341793D01*
X66313485Y18341793D02*
X66389676Y18303697D01*
X66389676Y18303697D02*
X66503961Y18303697D01*
X66503961Y18303697D02*
X66580152Y18341793D01*
X66580152Y18341793D02*
X66618247Y18379888D01*
X66618247Y18379888D02*
X66656342Y18456078D01*
X66656342Y18456078D02*
X66656342Y18760840D01*
X66618247Y17694174D02*
X66656342Y17579888D01*
X66656342Y17579888D02*
X66694438Y17541793D01*
X66694438Y17541793D02*
X66770628Y17503697D01*
X66770628Y17503697D02*
X66884914Y17503697D01*
X66884914Y17503697D02*
X66961104Y17541793D01*
X66961104Y17541793D02*
X66999200Y17579888D01*
X66999200Y17579888D02*
X67037295Y17656078D01*
X67037295Y17656078D02*
X67037295Y17960840D01*
X67037295Y17960840D02*
X66237295Y17960840D01*
X66237295Y17960840D02*
X66237295Y17694174D01*
X66237295Y17694174D02*
X66275390Y17617983D01*
X66275390Y17617983D02*
X66313485Y17579888D01*
X66313485Y17579888D02*
X66389676Y17541793D01*
X66389676Y17541793D02*
X66465866Y17541793D01*
X66465866Y17541793D02*
X66542057Y17579888D01*
X66542057Y17579888D02*
X66580152Y17617983D01*
X66580152Y17617983D02*
X66618247Y17694174D01*
X66618247Y17694174D02*
X66618247Y17960840D01*
X67037295Y16741793D02*
X67037295Y17198936D01*
X67037295Y16970364D02*
X66237295Y16970364D01*
X66237295Y16970364D02*
X66351580Y17046555D01*
X66351580Y17046555D02*
X66427771Y17122745D01*
X66427771Y17122745D02*
X66465866Y17198936D01*
X66313485Y16437031D02*
X66275390Y16398935D01*
X66275390Y16398935D02*
X66237295Y16322745D01*
X66237295Y16322745D02*
X66237295Y16132269D01*
X66237295Y16132269D02*
X66275390Y16056078D01*
X66275390Y16056078D02*
X66313485Y16017983D01*
X66313485Y16017983D02*
X66389676Y15979888D01*
X66389676Y15979888D02*
X66465866Y15979888D01*
X66465866Y15979888D02*
X66580152Y16017983D01*
X66580152Y16017983D02*
X67037295Y16475126D01*
X67037295Y16475126D02*
X67037295Y15979888D01*
X72117295Y27670113D02*
X71317295Y27670113D01*
X71317295Y27670113D02*
X71317295Y27365351D01*
X71317295Y27365351D02*
X71355390Y27289161D01*
X71355390Y27289161D02*
X71393485Y27251066D01*
X71393485Y27251066D02*
X71469676Y27212970D01*
X71469676Y27212970D02*
X71583961Y27212970D01*
X71583961Y27212970D02*
X71660152Y27251066D01*
X71660152Y27251066D02*
X71698247Y27289161D01*
X71698247Y27289161D02*
X71736342Y27365351D01*
X71736342Y27365351D02*
X71736342Y27670113D01*
X72041104Y26412970D02*
X72079200Y26451066D01*
X72079200Y26451066D02*
X72117295Y26565351D01*
X72117295Y26565351D02*
X72117295Y26641542D01*
X72117295Y26641542D02*
X72079200Y26755828D01*
X72079200Y26755828D02*
X72003009Y26832018D01*
X72003009Y26832018D02*
X71926819Y26870113D01*
X71926819Y26870113D02*
X71774438Y26908209D01*
X71774438Y26908209D02*
X71660152Y26908209D01*
X71660152Y26908209D02*
X71507771Y26870113D01*
X71507771Y26870113D02*
X71431580Y26832018D01*
X71431580Y26832018D02*
X71355390Y26755828D01*
X71355390Y26755828D02*
X71317295Y26641542D01*
X71317295Y26641542D02*
X71317295Y26565351D01*
X71317295Y26565351D02*
X71355390Y26451066D01*
X71355390Y26451066D02*
X71393485Y26412970D01*
X71317295Y26146304D02*
X71317295Y25612970D01*
X71317295Y25612970D02*
X72117295Y25955828D01*
X61957295Y18760840D02*
X61157295Y18760840D01*
X61157295Y18760840D02*
X61157295Y18456078D01*
X61157295Y18456078D02*
X61195390Y18379888D01*
X61195390Y18379888D02*
X61233485Y18341793D01*
X61233485Y18341793D02*
X61309676Y18303697D01*
X61309676Y18303697D02*
X61423961Y18303697D01*
X61423961Y18303697D02*
X61500152Y18341793D01*
X61500152Y18341793D02*
X61538247Y18379888D01*
X61538247Y18379888D02*
X61576342Y18456078D01*
X61576342Y18456078D02*
X61576342Y18760840D01*
X61538247Y17694174D02*
X61576342Y17579888D01*
X61576342Y17579888D02*
X61614438Y17541793D01*
X61614438Y17541793D02*
X61690628Y17503697D01*
X61690628Y17503697D02*
X61804914Y17503697D01*
X61804914Y17503697D02*
X61881104Y17541793D01*
X61881104Y17541793D02*
X61919200Y17579888D01*
X61919200Y17579888D02*
X61957295Y17656078D01*
X61957295Y17656078D02*
X61957295Y17960840D01*
X61957295Y17960840D02*
X61157295Y17960840D01*
X61157295Y17960840D02*
X61157295Y17694174D01*
X61157295Y17694174D02*
X61195390Y17617983D01*
X61195390Y17617983D02*
X61233485Y17579888D01*
X61233485Y17579888D02*
X61309676Y17541793D01*
X61309676Y17541793D02*
X61385866Y17541793D01*
X61385866Y17541793D02*
X61462057Y17579888D01*
X61462057Y17579888D02*
X61500152Y17617983D01*
X61500152Y17617983D02*
X61538247Y17694174D01*
X61538247Y17694174D02*
X61538247Y17960840D01*
X61233485Y17198936D02*
X61195390Y17160840D01*
X61195390Y17160840D02*
X61157295Y17084650D01*
X61157295Y17084650D02*
X61157295Y16894174D01*
X61157295Y16894174D02*
X61195390Y16817983D01*
X61195390Y16817983D02*
X61233485Y16779888D01*
X61233485Y16779888D02*
X61309676Y16741793D01*
X61309676Y16741793D02*
X61385866Y16741793D01*
X61385866Y16741793D02*
X61500152Y16779888D01*
X61500152Y16779888D02*
X61957295Y17237031D01*
X61957295Y17237031D02*
X61957295Y16741793D01*
X74657295Y65655827D02*
X73857295Y65655827D01*
X73857295Y65655827D02*
X73857295Y65351065D01*
X73857295Y65351065D02*
X73895390Y65274875D01*
X73895390Y65274875D02*
X73933485Y65236780D01*
X73933485Y65236780D02*
X74009676Y65198684D01*
X74009676Y65198684D02*
X74123961Y65198684D01*
X74123961Y65198684D02*
X74200152Y65236780D01*
X74200152Y65236780D02*
X74238247Y65274875D01*
X74238247Y65274875D02*
X74276342Y65351065D01*
X74276342Y65351065D02*
X74276342Y65655827D01*
X74428723Y64893923D02*
X74428723Y64512970D01*
X74657295Y64970113D02*
X73857295Y64703446D01*
X73857295Y64703446D02*
X74657295Y64436780D01*
X74200152Y64055828D02*
X74162057Y64132018D01*
X74162057Y64132018D02*
X74123961Y64170113D01*
X74123961Y64170113D02*
X74047771Y64208209D01*
X74047771Y64208209D02*
X74009676Y64208209D01*
X74009676Y64208209D02*
X73933485Y64170113D01*
X73933485Y64170113D02*
X73895390Y64132018D01*
X73895390Y64132018D02*
X73857295Y64055828D01*
X73857295Y64055828D02*
X73857295Y63903447D01*
X73857295Y63903447D02*
X73895390Y63827256D01*
X73895390Y63827256D02*
X73933485Y63789161D01*
X73933485Y63789161D02*
X74009676Y63751066D01*
X74009676Y63751066D02*
X74047771Y63751066D01*
X74047771Y63751066D02*
X74123961Y63789161D01*
X74123961Y63789161D02*
X74162057Y63827256D01*
X74162057Y63827256D02*
X74200152Y63903447D01*
X74200152Y63903447D02*
X74200152Y64055828D01*
X74200152Y64055828D02*
X74238247Y64132018D01*
X74238247Y64132018D02*
X74276342Y64170113D01*
X74276342Y64170113D02*
X74352533Y64208209D01*
X74352533Y64208209D02*
X74504914Y64208209D01*
X74504914Y64208209D02*
X74581104Y64170113D01*
X74581104Y64170113D02*
X74619200Y64132018D01*
X74619200Y64132018D02*
X74657295Y64055828D01*
X74657295Y64055828D02*
X74657295Y63903447D01*
X74657295Y63903447D02*
X74619200Y63827256D01*
X74619200Y63827256D02*
X74581104Y63789161D01*
X74581104Y63789161D02*
X74504914Y63751066D01*
X74504914Y63751066D02*
X74352533Y63751066D01*
X74352533Y63751066D02*
X74276342Y63789161D01*
X74276342Y63789161D02*
X74238247Y63827256D01*
X74238247Y63827256D02*
X74200152Y63903447D01*
X67037295Y28432018D02*
X66237295Y28432018D01*
X66237295Y28432018D02*
X66237295Y28127256D01*
X66237295Y28127256D02*
X66275390Y28051066D01*
X66275390Y28051066D02*
X66313485Y28012971D01*
X66313485Y28012971D02*
X66389676Y27974875D01*
X66389676Y27974875D02*
X66503961Y27974875D01*
X66503961Y27974875D02*
X66580152Y28012971D01*
X66580152Y28012971D02*
X66618247Y28051066D01*
X66618247Y28051066D02*
X66656342Y28127256D01*
X66656342Y28127256D02*
X66656342Y28432018D01*
X66618247Y27365352D02*
X66656342Y27251066D01*
X66656342Y27251066D02*
X66694438Y27212971D01*
X66694438Y27212971D02*
X66770628Y27174875D01*
X66770628Y27174875D02*
X66884914Y27174875D01*
X66884914Y27174875D02*
X66961104Y27212971D01*
X66961104Y27212971D02*
X66999200Y27251066D01*
X66999200Y27251066D02*
X67037295Y27327256D01*
X67037295Y27327256D02*
X67037295Y27632018D01*
X67037295Y27632018D02*
X66237295Y27632018D01*
X66237295Y27632018D02*
X66237295Y27365352D01*
X66237295Y27365352D02*
X66275390Y27289161D01*
X66275390Y27289161D02*
X66313485Y27251066D01*
X66313485Y27251066D02*
X66389676Y27212971D01*
X66389676Y27212971D02*
X66465866Y27212971D01*
X66465866Y27212971D02*
X66542057Y27251066D01*
X66542057Y27251066D02*
X66580152Y27289161D01*
X66580152Y27289161D02*
X66618247Y27365352D01*
X66618247Y27365352D02*
X66618247Y27632018D01*
X67037295Y26412971D02*
X67037295Y26870114D01*
X67037295Y26641542D02*
X66237295Y26641542D01*
X66237295Y26641542D02*
X66351580Y26717733D01*
X66351580Y26717733D02*
X66427771Y26793923D01*
X66427771Y26793923D02*
X66465866Y26870114D01*
X66237295Y26146304D02*
X66237295Y25651066D01*
X66237295Y25651066D02*
X66542057Y25917732D01*
X66542057Y25917732D02*
X66542057Y25803447D01*
X66542057Y25803447D02*
X66580152Y25727256D01*
X66580152Y25727256D02*
X66618247Y25689161D01*
X66618247Y25689161D02*
X66694438Y25651066D01*
X66694438Y25651066D02*
X66884914Y25651066D01*
X66884914Y25651066D02*
X66961104Y25689161D01*
X66961104Y25689161D02*
X66999200Y25727256D01*
X66999200Y25727256D02*
X67037295Y25803447D01*
X67037295Y25803447D02*
X67037295Y26032018D01*
X67037295Y26032018D02*
X66999200Y26108209D01*
X66999200Y26108209D02*
X66961104Y26146304D01*
X95339819Y59702507D02*
X96054104Y59702507D01*
X96054104Y59702507D02*
X96196961Y59750126D01*
X96196961Y59750126D02*
X96292200Y59845364D01*
X96292200Y59845364D02*
X96339819Y59988221D01*
X96339819Y59988221D02*
X96339819Y60083459D01*
X96339819Y58750126D02*
X96339819Y59226316D01*
X96339819Y59226316D02*
X95339819Y59226316D01*
X96244580Y57845364D02*
X96292200Y57892983D01*
X96292200Y57892983D02*
X96339819Y58035840D01*
X96339819Y58035840D02*
X96339819Y58131078D01*
X96339819Y58131078D02*
X96292200Y58273935D01*
X96292200Y58273935D02*
X96196961Y58369173D01*
X96196961Y58369173D02*
X96101723Y58416792D01*
X96101723Y58416792D02*
X95911247Y58464411D01*
X95911247Y58464411D02*
X95768390Y58464411D01*
X95768390Y58464411D02*
X95577914Y58416792D01*
X95577914Y58416792D02*
X95482676Y58369173D01*
X95482676Y58369173D02*
X95387438Y58273935D01*
X95387438Y58273935D02*
X95339819Y58131078D01*
X95339819Y58131078D02*
X95339819Y58035840D01*
X95339819Y58035840D02*
X95387438Y57892983D01*
X95387438Y57892983D02*
X95435057Y57845364D01*
X95339819Y57131078D02*
X96054104Y57131078D01*
X96054104Y57131078D02*
X96196961Y57178697D01*
X96196961Y57178697D02*
X96292200Y57273935D01*
X96292200Y57273935D02*
X96339819Y57416792D01*
X96339819Y57416792D02*
X96339819Y57512030D01*
X96339819Y56178697D02*
X96339819Y56654887D01*
X96339819Y56654887D02*
X95339819Y56654887D01*
X96244580Y55273935D02*
X96292200Y55321554D01*
X96292200Y55321554D02*
X96339819Y55464411D01*
X96339819Y55464411D02*
X96339819Y55559649D01*
X96339819Y55559649D02*
X96292200Y55702506D01*
X96292200Y55702506D02*
X96196961Y55797744D01*
X96196961Y55797744D02*
X96101723Y55845363D01*
X96101723Y55845363D02*
X95911247Y55892982D01*
X95911247Y55892982D02*
X95768390Y55892982D01*
X95768390Y55892982D02*
X95577914Y55845363D01*
X95577914Y55845363D02*
X95482676Y55797744D01*
X95482676Y55797744D02*
X95387438Y55702506D01*
X95387438Y55702506D02*
X95339819Y55559649D01*
X95339819Y55559649D02*
X95339819Y55464411D01*
X95339819Y55464411D02*
X95387438Y55321554D01*
X95387438Y55321554D02*
X95435057Y55273935D01*
X95339819Y54559649D02*
X96054104Y54559649D01*
X96054104Y54559649D02*
X96196961Y54607268D01*
X96196961Y54607268D02*
X96292200Y54702506D01*
X96292200Y54702506D02*
X96339819Y54845363D01*
X96339819Y54845363D02*
X96339819Y54940601D01*
X96339819Y53607268D02*
X96339819Y54083458D01*
X96339819Y54083458D02*
X95339819Y54083458D01*
X96244580Y52702506D02*
X96292200Y52750125D01*
X96292200Y52750125D02*
X96339819Y52892982D01*
X96339819Y52892982D02*
X96339819Y52988220D01*
X96339819Y52988220D02*
X96292200Y53131077D01*
X96292200Y53131077D02*
X96196961Y53226315D01*
X96196961Y53226315D02*
X96101723Y53273934D01*
X96101723Y53273934D02*
X95911247Y53321553D01*
X95911247Y53321553D02*
X95768390Y53321553D01*
X95768390Y53321553D02*
X95577914Y53273934D01*
X95577914Y53273934D02*
X95482676Y53226315D01*
X95482676Y53226315D02*
X95387438Y53131077D01*
X95387438Y53131077D02*
X95339819Y52988220D01*
X95339819Y52988220D02*
X95339819Y52892982D01*
X95339819Y52892982D02*
X95387438Y52750125D01*
X95387438Y52750125D02*
X95435057Y52702506D01*
X95339819Y51988220D02*
X96054104Y51988220D01*
X96054104Y51988220D02*
X96196961Y52035839D01*
X96196961Y52035839D02*
X96292200Y52131077D01*
X96292200Y52131077D02*
X96339819Y52273934D01*
X96339819Y52273934D02*
X96339819Y52369172D01*
X96339819Y51035839D02*
X96339819Y51512029D01*
X96339819Y51512029D02*
X95339819Y51512029D01*
X96244580Y50131077D02*
X96292200Y50178696D01*
X96292200Y50178696D02*
X96339819Y50321553D01*
X96339819Y50321553D02*
X96339819Y50416791D01*
X96339819Y50416791D02*
X96292200Y50559648D01*
X96292200Y50559648D02*
X96196961Y50654886D01*
X96196961Y50654886D02*
X96101723Y50702505D01*
X96101723Y50702505D02*
X95911247Y50750124D01*
X95911247Y50750124D02*
X95768390Y50750124D01*
X95768390Y50750124D02*
X95577914Y50702505D01*
X95577914Y50702505D02*
X95482676Y50654886D01*
X95482676Y50654886D02*
X95387438Y50559648D01*
X95387438Y50559648D02*
X95339819Y50416791D01*
X95339819Y50416791D02*
X95339819Y50321553D01*
X95339819Y50321553D02*
X95387438Y50178696D01*
X95387438Y50178696D02*
X95435057Y50131077D01*
X40837295Y65008208D02*
X41484914Y65008208D01*
X41484914Y65008208D02*
X41561104Y64970113D01*
X41561104Y64970113D02*
X41599200Y64932018D01*
X41599200Y64932018D02*
X41637295Y64855827D01*
X41637295Y64855827D02*
X41637295Y64703446D01*
X41637295Y64703446D02*
X41599200Y64627256D01*
X41599200Y64627256D02*
X41561104Y64589161D01*
X41561104Y64589161D02*
X41484914Y64551065D01*
X41484914Y64551065D02*
X40837295Y64551065D01*
X40837295Y64246304D02*
X40837295Y63712970D01*
X40837295Y63712970D02*
X41637295Y64055828D01*
X84017295Y18379888D02*
X84017295Y18760840D01*
X84017295Y18760840D02*
X84398247Y18798936D01*
X84398247Y18798936D02*
X84360152Y18760840D01*
X84360152Y18760840D02*
X84322057Y18684650D01*
X84322057Y18684650D02*
X84322057Y18494174D01*
X84322057Y18494174D02*
X84360152Y18417983D01*
X84360152Y18417983D02*
X84398247Y18379888D01*
X84398247Y18379888D02*
X84474438Y18341793D01*
X84474438Y18341793D02*
X84664914Y18341793D01*
X84664914Y18341793D02*
X84741104Y18379888D01*
X84741104Y18379888D02*
X84779200Y18417983D01*
X84779200Y18417983D02*
X84817295Y18494174D01*
X84817295Y18494174D02*
X84817295Y18684650D01*
X84817295Y18684650D02*
X84779200Y18760840D01*
X84779200Y18760840D02*
X84741104Y18798936D01*
X84017295Y18113221D02*
X84817295Y17846554D01*
X84817295Y17846554D02*
X84017295Y17579888D01*
X35795390Y56441793D02*
X35757295Y56517983D01*
X35757295Y56517983D02*
X35757295Y56632269D01*
X35757295Y56632269D02*
X35795390Y56746555D01*
X35795390Y56746555D02*
X35871580Y56822745D01*
X35871580Y56822745D02*
X35947771Y56860840D01*
X35947771Y56860840D02*
X36100152Y56898936D01*
X36100152Y56898936D02*
X36214438Y56898936D01*
X36214438Y56898936D02*
X36366819Y56860840D01*
X36366819Y56860840D02*
X36443009Y56822745D01*
X36443009Y56822745D02*
X36519200Y56746555D01*
X36519200Y56746555D02*
X36557295Y56632269D01*
X36557295Y56632269D02*
X36557295Y56556078D01*
X36557295Y56556078D02*
X36519200Y56441793D01*
X36519200Y56441793D02*
X36481104Y56403697D01*
X36481104Y56403697D02*
X36214438Y56403697D01*
X36214438Y56403697D02*
X36214438Y56556078D01*
X36557295Y56060840D02*
X35757295Y56060840D01*
X35757295Y56060840D02*
X36557295Y55603697D01*
X36557295Y55603697D02*
X35757295Y55603697D01*
X36557295Y55222745D02*
X35757295Y55222745D01*
X35757295Y55222745D02*
X35757295Y55032269D01*
X35757295Y55032269D02*
X35795390Y54917983D01*
X35795390Y54917983D02*
X35871580Y54841793D01*
X35871580Y54841793D02*
X35947771Y54803698D01*
X35947771Y54803698D02*
X36100152Y54765602D01*
X36100152Y54765602D02*
X36214438Y54765602D01*
X36214438Y54765602D02*
X36366819Y54803698D01*
X36366819Y54803698D02*
X36443009Y54841793D01*
X36443009Y54841793D02*
X36519200Y54917983D01*
X36519200Y54917983D02*
X36557295Y55032269D01*
X36557295Y55032269D02*
X36557295Y55222745D01*
X69577295Y18760840D02*
X68777295Y18760840D01*
X68777295Y18760840D02*
X68777295Y18456078D01*
X68777295Y18456078D02*
X68815390Y18379888D01*
X68815390Y18379888D02*
X68853485Y18341793D01*
X68853485Y18341793D02*
X68929676Y18303697D01*
X68929676Y18303697D02*
X69043961Y18303697D01*
X69043961Y18303697D02*
X69120152Y18341793D01*
X69120152Y18341793D02*
X69158247Y18379888D01*
X69158247Y18379888D02*
X69196342Y18456078D01*
X69196342Y18456078D02*
X69196342Y18760840D01*
X69158247Y17694174D02*
X69196342Y17579888D01*
X69196342Y17579888D02*
X69234438Y17541793D01*
X69234438Y17541793D02*
X69310628Y17503697D01*
X69310628Y17503697D02*
X69424914Y17503697D01*
X69424914Y17503697D02*
X69501104Y17541793D01*
X69501104Y17541793D02*
X69539200Y17579888D01*
X69539200Y17579888D02*
X69577295Y17656078D01*
X69577295Y17656078D02*
X69577295Y17960840D01*
X69577295Y17960840D02*
X68777295Y17960840D01*
X68777295Y17960840D02*
X68777295Y17694174D01*
X68777295Y17694174D02*
X68815390Y17617983D01*
X68815390Y17617983D02*
X68853485Y17579888D01*
X68853485Y17579888D02*
X68929676Y17541793D01*
X68929676Y17541793D02*
X69005866Y17541793D01*
X69005866Y17541793D02*
X69082057Y17579888D01*
X69082057Y17579888D02*
X69120152Y17617983D01*
X69120152Y17617983D02*
X69158247Y17694174D01*
X69158247Y17694174D02*
X69158247Y17960840D01*
X69577295Y16741793D02*
X69577295Y17198936D01*
X69577295Y16970364D02*
X68777295Y16970364D01*
X68777295Y16970364D02*
X68891580Y17046555D01*
X68891580Y17046555D02*
X68967771Y17122745D01*
X68967771Y17122745D02*
X69005866Y17198936D01*
X69043961Y16056078D02*
X69577295Y16056078D01*
X68739200Y16246554D02*
X69310628Y16437031D01*
X69310628Y16437031D02*
X69310628Y15941792D01*
X26489819Y59988221D02*
X25489819Y59988221D01*
X26489819Y59559650D02*
X25966009Y59559650D01*
X25966009Y59559650D02*
X25870771Y59607269D01*
X25870771Y59607269D02*
X25823152Y59702507D01*
X25823152Y59702507D02*
X25823152Y59845364D01*
X25823152Y59845364D02*
X25870771Y59940602D01*
X25870771Y59940602D02*
X25918390Y59988221D01*
X25823152Y59226316D02*
X25823152Y58845364D01*
X25489819Y59083459D02*
X26346961Y59083459D01*
X26346961Y59083459D02*
X26442200Y59035840D01*
X26442200Y59035840D02*
X26489819Y58940602D01*
X26489819Y58940602D02*
X26489819Y58845364D01*
X25823152Y58654887D02*
X25823152Y58273935D01*
X25489819Y58512030D02*
X26346961Y58512030D01*
X26346961Y58512030D02*
X26442200Y58464411D01*
X26442200Y58464411D02*
X26489819Y58369173D01*
X26489819Y58369173D02*
X26489819Y58273935D01*
X25823152Y57940601D02*
X26823152Y57940601D01*
X25870771Y57940601D02*
X25823152Y57845363D01*
X25823152Y57845363D02*
X25823152Y57654887D01*
X25823152Y57654887D02*
X25870771Y57559649D01*
X25870771Y57559649D02*
X25918390Y57512030D01*
X25918390Y57512030D02*
X26013628Y57464411D01*
X26013628Y57464411D02*
X26299342Y57464411D01*
X26299342Y57464411D02*
X26394580Y57512030D01*
X26394580Y57512030D02*
X26442200Y57559649D01*
X26442200Y57559649D02*
X26489819Y57654887D01*
X26489819Y57654887D02*
X26489819Y57845363D01*
X26489819Y57845363D02*
X26442200Y57940601D01*
X26442200Y57083458D02*
X26489819Y56988220D01*
X26489819Y56988220D02*
X26489819Y56797744D01*
X26489819Y56797744D02*
X26442200Y56702506D01*
X26442200Y56702506D02*
X26346961Y56654887D01*
X26346961Y56654887D02*
X26299342Y56654887D01*
X26299342Y56654887D02*
X26204104Y56702506D01*
X26204104Y56702506D02*
X26156485Y56797744D01*
X26156485Y56797744D02*
X26156485Y56940601D01*
X26156485Y56940601D02*
X26108866Y57035839D01*
X26108866Y57035839D02*
X26013628Y57083458D01*
X26013628Y57083458D02*
X25966009Y57083458D01*
X25966009Y57083458D02*
X25870771Y57035839D01*
X25870771Y57035839D02*
X25823152Y56940601D01*
X25823152Y56940601D02*
X25823152Y56797744D01*
X25823152Y56797744D02*
X25870771Y56702506D01*
X26394580Y56226315D02*
X26442200Y56178696D01*
X26442200Y56178696D02*
X26489819Y56226315D01*
X26489819Y56226315D02*
X26442200Y56273934D01*
X26442200Y56273934D02*
X26394580Y56226315D01*
X26394580Y56226315D02*
X26489819Y56226315D01*
X25870771Y56226315D02*
X25918390Y56178696D01*
X25918390Y56178696D02*
X25966009Y56226315D01*
X25966009Y56226315D02*
X25918390Y56273934D01*
X25918390Y56273934D02*
X25870771Y56226315D01*
X25870771Y56226315D02*
X25966009Y56226315D01*
X25442200Y55035840D02*
X26727914Y55892982D01*
X25442200Y53988221D02*
X26727914Y54845363D01*
X26442200Y53702506D02*
X26489819Y53607268D01*
X26489819Y53607268D02*
X26489819Y53416792D01*
X26489819Y53416792D02*
X26442200Y53321554D01*
X26442200Y53321554D02*
X26346961Y53273935D01*
X26346961Y53273935D02*
X26299342Y53273935D01*
X26299342Y53273935D02*
X26204104Y53321554D01*
X26204104Y53321554D02*
X26156485Y53416792D01*
X26156485Y53416792D02*
X26156485Y53559649D01*
X26156485Y53559649D02*
X26108866Y53654887D01*
X26108866Y53654887D02*
X26013628Y53702506D01*
X26013628Y53702506D02*
X25966009Y53702506D01*
X25966009Y53702506D02*
X25870771Y53654887D01*
X25870771Y53654887D02*
X25823152Y53559649D01*
X25823152Y53559649D02*
X25823152Y53416792D01*
X25823152Y53416792D02*
X25870771Y53321554D01*
X25823152Y52988220D02*
X25823152Y52607268D01*
X25489819Y52845363D02*
X26346961Y52845363D01*
X26346961Y52845363D02*
X26442200Y52797744D01*
X26442200Y52797744D02*
X26489819Y52702506D01*
X26489819Y52702506D02*
X26489819Y52607268D01*
X26489819Y52273934D02*
X25823152Y52273934D01*
X25918390Y52273934D02*
X25870771Y52226315D01*
X25870771Y52226315D02*
X25823152Y52131077D01*
X25823152Y52131077D02*
X25823152Y51988220D01*
X25823152Y51988220D02*
X25870771Y51892982D01*
X25870771Y51892982D02*
X25966009Y51845363D01*
X25966009Y51845363D02*
X26489819Y51845363D01*
X25966009Y51845363D02*
X25870771Y51797744D01*
X25870771Y51797744D02*
X25823152Y51702506D01*
X25823152Y51702506D02*
X25823152Y51559649D01*
X25823152Y51559649D02*
X25870771Y51464410D01*
X25870771Y51464410D02*
X25966009Y51416791D01*
X25966009Y51416791D02*
X26489819Y51416791D01*
X25489819Y51035839D02*
X25489819Y50416792D01*
X25489819Y50416792D02*
X25870771Y50750125D01*
X25870771Y50750125D02*
X25870771Y50607268D01*
X25870771Y50607268D02*
X25918390Y50512030D01*
X25918390Y50512030D02*
X25966009Y50464411D01*
X25966009Y50464411D02*
X26061247Y50416792D01*
X26061247Y50416792D02*
X26299342Y50416792D01*
X26299342Y50416792D02*
X26394580Y50464411D01*
X26394580Y50464411D02*
X26442200Y50512030D01*
X26442200Y50512030D02*
X26489819Y50607268D01*
X26489819Y50607268D02*
X26489819Y50892982D01*
X26489819Y50892982D02*
X26442200Y50988220D01*
X26442200Y50988220D02*
X26394580Y51035839D01*
X25585057Y50035839D02*
X25537438Y49988220D01*
X25537438Y49988220D02*
X25489819Y49892982D01*
X25489819Y49892982D02*
X25489819Y49654887D01*
X25489819Y49654887D02*
X25537438Y49559649D01*
X25537438Y49559649D02*
X25585057Y49512030D01*
X25585057Y49512030D02*
X25680295Y49464411D01*
X25680295Y49464411D02*
X25775533Y49464411D01*
X25775533Y49464411D02*
X25918390Y49512030D01*
X25918390Y49512030D02*
X26489819Y50083458D01*
X26489819Y50083458D02*
X26489819Y49464411D01*
X25823152Y49131077D02*
X26489819Y48940601D01*
X26489819Y48940601D02*
X26013628Y48750125D01*
X26013628Y48750125D02*
X26489819Y48559649D01*
X26489819Y48559649D02*
X25823152Y48369173D01*
X26489819Y47845363D02*
X26442200Y47940601D01*
X26442200Y47940601D02*
X26394580Y47988220D01*
X26394580Y47988220D02*
X26299342Y48035839D01*
X26299342Y48035839D02*
X26013628Y48035839D01*
X26013628Y48035839D02*
X25918390Y47988220D01*
X25918390Y47988220D02*
X25870771Y47940601D01*
X25870771Y47940601D02*
X25823152Y47845363D01*
X25823152Y47845363D02*
X25823152Y47702506D01*
X25823152Y47702506D02*
X25870771Y47607268D01*
X25870771Y47607268D02*
X25918390Y47559649D01*
X25918390Y47559649D02*
X26013628Y47512030D01*
X26013628Y47512030D02*
X26299342Y47512030D01*
X26299342Y47512030D02*
X26394580Y47559649D01*
X26394580Y47559649D02*
X26442200Y47607268D01*
X26442200Y47607268D02*
X26489819Y47702506D01*
X26489819Y47702506D02*
X26489819Y47845363D01*
X26489819Y47083458D02*
X25823152Y47083458D01*
X26013628Y47083458D02*
X25918390Y47035839D01*
X25918390Y47035839D02*
X25870771Y46988220D01*
X25870771Y46988220D02*
X25823152Y46892982D01*
X25823152Y46892982D02*
X25823152Y46797744D01*
X26489819Y46321553D02*
X26442200Y46416791D01*
X26442200Y46416791D02*
X26346961Y46464410D01*
X26346961Y46464410D02*
X25489819Y46464410D01*
X26489819Y45512029D02*
X25489819Y45512029D01*
X26442200Y45512029D02*
X26489819Y45607267D01*
X26489819Y45607267D02*
X26489819Y45797743D01*
X26489819Y45797743D02*
X26442200Y45892981D01*
X26442200Y45892981D02*
X26394580Y45940600D01*
X26394580Y45940600D02*
X26299342Y45988219D01*
X26299342Y45988219D02*
X26013628Y45988219D01*
X26013628Y45988219D02*
X25918390Y45940600D01*
X25918390Y45940600D02*
X25870771Y45892981D01*
X25870771Y45892981D02*
X25823152Y45797743D01*
X25823152Y45797743D02*
X25823152Y45607267D01*
X25823152Y45607267D02*
X25870771Y45512029D01*
X26394580Y45035838D02*
X26442200Y44988219D01*
X26442200Y44988219D02*
X26489819Y45035838D01*
X26489819Y45035838D02*
X26442200Y45083457D01*
X26442200Y45083457D02*
X26394580Y45035838D01*
X26394580Y45035838D02*
X26489819Y45035838D01*
X26442200Y44131077D02*
X26489819Y44226315D01*
X26489819Y44226315D02*
X26489819Y44416791D01*
X26489819Y44416791D02*
X26442200Y44512029D01*
X26442200Y44512029D02*
X26394580Y44559648D01*
X26394580Y44559648D02*
X26299342Y44607267D01*
X26299342Y44607267D02*
X26013628Y44607267D01*
X26013628Y44607267D02*
X25918390Y44559648D01*
X25918390Y44559648D02*
X25870771Y44512029D01*
X25870771Y44512029D02*
X25823152Y44416791D01*
X25823152Y44416791D02*
X25823152Y44226315D01*
X25823152Y44226315D02*
X25870771Y44131077D01*
X26489819Y43559648D02*
X26442200Y43654886D01*
X26442200Y43654886D02*
X26394580Y43702505D01*
X26394580Y43702505D02*
X26299342Y43750124D01*
X26299342Y43750124D02*
X26013628Y43750124D01*
X26013628Y43750124D02*
X25918390Y43702505D01*
X25918390Y43702505D02*
X25870771Y43654886D01*
X25870771Y43654886D02*
X25823152Y43559648D01*
X25823152Y43559648D02*
X25823152Y43416791D01*
X25823152Y43416791D02*
X25870771Y43321553D01*
X25870771Y43321553D02*
X25918390Y43273934D01*
X25918390Y43273934D02*
X26013628Y43226315D01*
X26013628Y43226315D02*
X26299342Y43226315D01*
X26299342Y43226315D02*
X26394580Y43273934D01*
X26394580Y43273934D02*
X26442200Y43321553D01*
X26442200Y43321553D02*
X26489819Y43416791D01*
X26489819Y43416791D02*
X26489819Y43559648D01*
X26489819Y42797743D02*
X25823152Y42797743D01*
X25918390Y42797743D02*
X25870771Y42750124D01*
X25870771Y42750124D02*
X25823152Y42654886D01*
X25823152Y42654886D02*
X25823152Y42512029D01*
X25823152Y42512029D02*
X25870771Y42416791D01*
X25870771Y42416791D02*
X25966009Y42369172D01*
X25966009Y42369172D02*
X26489819Y42369172D01*
X25966009Y42369172D02*
X25870771Y42321553D01*
X25870771Y42321553D02*
X25823152Y42226315D01*
X25823152Y42226315D02*
X25823152Y42083458D01*
X25823152Y42083458D02*
X25870771Y41988219D01*
X25870771Y41988219D02*
X25966009Y41940600D01*
X25966009Y41940600D02*
X26489819Y41940600D01*
X25442200Y40750125D02*
X26727914Y41607267D01*
X25823152Y40512029D02*
X26489819Y40321553D01*
X26489819Y40321553D02*
X26013628Y40131077D01*
X26013628Y40131077D02*
X26489819Y39940601D01*
X26489819Y39940601D02*
X25823152Y39750125D01*
X26489819Y39369172D02*
X25823152Y39369172D01*
X25489819Y39369172D02*
X25537438Y39416791D01*
X25537438Y39416791D02*
X25585057Y39369172D01*
X25585057Y39369172D02*
X25537438Y39321553D01*
X25537438Y39321553D02*
X25489819Y39369172D01*
X25489819Y39369172D02*
X25585057Y39369172D01*
X26489819Y38892982D02*
X25489819Y38892982D01*
X26108866Y38797744D02*
X26489819Y38512030D01*
X25823152Y38512030D02*
X26204104Y38892982D01*
X26489819Y38083458D02*
X25823152Y38083458D01*
X25489819Y38083458D02*
X25537438Y38131077D01*
X25537438Y38131077D02*
X25585057Y38083458D01*
X25585057Y38083458D02*
X25537438Y38035839D01*
X25537438Y38035839D02*
X25489819Y38083458D01*
X25489819Y38083458D02*
X25585057Y38083458D01*
X25442200Y36892983D02*
X26727914Y37750125D01*
X26489819Y36559649D02*
X25489819Y36559649D01*
X25489819Y36559649D02*
X26204104Y36226316D01*
X26204104Y36226316D02*
X25489819Y35892983D01*
X25489819Y35892983D02*
X26489819Y35892983D01*
X26394580Y34845364D02*
X26442200Y34892983D01*
X26442200Y34892983D02*
X26489819Y35035840D01*
X26489819Y35035840D02*
X26489819Y35131078D01*
X26489819Y35131078D02*
X26442200Y35273935D01*
X26442200Y35273935D02*
X26346961Y35369173D01*
X26346961Y35369173D02*
X26251723Y35416792D01*
X26251723Y35416792D02*
X26061247Y35464411D01*
X26061247Y35464411D02*
X25918390Y35464411D01*
X25918390Y35464411D02*
X25727914Y35416792D01*
X25727914Y35416792D02*
X25632676Y35369173D01*
X25632676Y35369173D02*
X25537438Y35273935D01*
X25537438Y35273935D02*
X25489819Y35131078D01*
X25489819Y35131078D02*
X25489819Y35035840D01*
X25489819Y35035840D02*
X25537438Y34892983D01*
X25537438Y34892983D02*
X25585057Y34845364D01*
X25489819Y34416792D02*
X26299342Y34416792D01*
X26299342Y34416792D02*
X26394580Y34369173D01*
X26394580Y34369173D02*
X26442200Y34321554D01*
X26442200Y34321554D02*
X26489819Y34226316D01*
X26489819Y34226316D02*
X26489819Y34035840D01*
X26489819Y34035840D02*
X26442200Y33940602D01*
X26442200Y33940602D02*
X26394580Y33892983D01*
X26394580Y33892983D02*
X26299342Y33845364D01*
X26299342Y33845364D02*
X25489819Y33845364D01*
X26442200Y33416792D02*
X26489819Y33273935D01*
X26489819Y33273935D02*
X26489819Y33035840D01*
X26489819Y33035840D02*
X26442200Y32940602D01*
X26442200Y32940602D02*
X26394580Y32892983D01*
X26394580Y32892983D02*
X26299342Y32845364D01*
X26299342Y32845364D02*
X26204104Y32845364D01*
X26204104Y32845364D02*
X26108866Y32892983D01*
X26108866Y32892983D02*
X26061247Y32940602D01*
X26061247Y32940602D02*
X26013628Y33035840D01*
X26013628Y33035840D02*
X25966009Y33226316D01*
X25966009Y33226316D02*
X25918390Y33321554D01*
X25918390Y33321554D02*
X25870771Y33369173D01*
X25870771Y33369173D02*
X25775533Y33416792D01*
X25775533Y33416792D02*
X25680295Y33416792D01*
X25680295Y33416792D02*
X25585057Y33369173D01*
X25585057Y33369173D02*
X25537438Y33321554D01*
X25537438Y33321554D02*
X25489819Y33226316D01*
X25489819Y33226316D02*
X25489819Y32988221D01*
X25489819Y32988221D02*
X25537438Y32845364D01*
X25489819Y32559649D02*
X25489819Y31988221D01*
X26489819Y32273935D02*
X25489819Y32273935D01*
X26489819Y31654887D02*
X25489819Y31654887D01*
X25489819Y31654887D02*
X26204104Y31321554D01*
X26204104Y31321554D02*
X25489819Y30988221D01*
X25489819Y30988221D02*
X26489819Y30988221D01*
X25489819Y30607268D02*
X25489819Y29988221D01*
X25489819Y29988221D02*
X25870771Y30321554D01*
X25870771Y30321554D02*
X25870771Y30178697D01*
X25870771Y30178697D02*
X25918390Y30083459D01*
X25918390Y30083459D02*
X25966009Y30035840D01*
X25966009Y30035840D02*
X26061247Y29988221D01*
X26061247Y29988221D02*
X26299342Y29988221D01*
X26299342Y29988221D02*
X26394580Y30035840D01*
X26394580Y30035840D02*
X26442200Y30083459D01*
X26442200Y30083459D02*
X26489819Y30178697D01*
X26489819Y30178697D02*
X26489819Y30464411D01*
X26489819Y30464411D02*
X26442200Y30559649D01*
X26442200Y30559649D02*
X26394580Y30607268D01*
X25585057Y29607268D02*
X25537438Y29559649D01*
X25537438Y29559649D02*
X25489819Y29464411D01*
X25489819Y29464411D02*
X25489819Y29226316D01*
X25489819Y29226316D02*
X25537438Y29131078D01*
X25537438Y29131078D02*
X25585057Y29083459D01*
X25585057Y29083459D02*
X25680295Y29035840D01*
X25680295Y29035840D02*
X25775533Y29035840D01*
X25775533Y29035840D02*
X25918390Y29083459D01*
X25918390Y29083459D02*
X26489819Y29654887D01*
X26489819Y29654887D02*
X26489819Y29035840D01*
X25966009Y28273935D02*
X25966009Y28607268D01*
X26489819Y28607268D02*
X25489819Y28607268D01*
X25489819Y28607268D02*
X25489819Y28131078D01*
X25823152Y27321554D02*
X26489819Y27321554D01*
X25442200Y27559649D02*
X26156485Y27797744D01*
X26156485Y27797744D02*
X26156485Y27178697D01*
X25489819Y26607268D02*
X25489819Y26512030D01*
X25489819Y26512030D02*
X25537438Y26416792D01*
X25537438Y26416792D02*
X25585057Y26369173D01*
X25585057Y26369173D02*
X25680295Y26321554D01*
X25680295Y26321554D02*
X25870771Y26273935D01*
X25870771Y26273935D02*
X26108866Y26273935D01*
X26108866Y26273935D02*
X26299342Y26321554D01*
X26299342Y26321554D02*
X26394580Y26369173D01*
X26394580Y26369173D02*
X26442200Y26416792D01*
X26442200Y26416792D02*
X26489819Y26512030D01*
X26489819Y26512030D02*
X26489819Y26607268D01*
X26489819Y26607268D02*
X26442200Y26702506D01*
X26442200Y26702506D02*
X26394580Y26750125D01*
X26394580Y26750125D02*
X26299342Y26797744D01*
X26299342Y26797744D02*
X26108866Y26845363D01*
X26108866Y26845363D02*
X25870771Y26845363D01*
X25870771Y26845363D02*
X25680295Y26797744D01*
X25680295Y26797744D02*
X25585057Y26750125D01*
X25585057Y26750125D02*
X25537438Y26702506D01*
X25537438Y26702506D02*
X25489819Y26607268D01*
X25585057Y25892982D02*
X25537438Y25845363D01*
X25537438Y25845363D02*
X25489819Y25750125D01*
X25489819Y25750125D02*
X25489819Y25512030D01*
X25489819Y25512030D02*
X25537438Y25416792D01*
X25537438Y25416792D02*
X25585057Y25369173D01*
X25585057Y25369173D02*
X25680295Y25321554D01*
X25680295Y25321554D02*
X25775533Y25321554D01*
X25775533Y25321554D02*
X25918390Y25369173D01*
X25918390Y25369173D02*
X26489819Y25940601D01*
X26489819Y25940601D02*
X26489819Y25321554D01*
X56877295Y65770113D02*
X56077295Y65770113D01*
X56077295Y65770113D02*
X56077295Y65465351D01*
X56077295Y65465351D02*
X56115390Y65389161D01*
X56115390Y65389161D02*
X56153485Y65351066D01*
X56153485Y65351066D02*
X56229676Y65312970D01*
X56229676Y65312970D02*
X56343961Y65312970D01*
X56343961Y65312970D02*
X56420152Y65351066D01*
X56420152Y65351066D02*
X56458247Y65389161D01*
X56458247Y65389161D02*
X56496342Y65465351D01*
X56496342Y65465351D02*
X56496342Y65770113D01*
X56877295Y64970113D02*
X56077295Y64970113D01*
X56077295Y64970113D02*
X56077295Y64779637D01*
X56077295Y64779637D02*
X56115390Y64665351D01*
X56115390Y64665351D02*
X56191580Y64589161D01*
X56191580Y64589161D02*
X56267771Y64551066D01*
X56267771Y64551066D02*
X56420152Y64512970D01*
X56420152Y64512970D02*
X56534438Y64512970D01*
X56534438Y64512970D02*
X56686819Y64551066D01*
X56686819Y64551066D02*
X56763009Y64589161D01*
X56763009Y64589161D02*
X56839200Y64665351D01*
X56839200Y64665351D02*
X56877295Y64779637D01*
X56877295Y64779637D02*
X56877295Y64970113D01*
X56153485Y64208209D02*
X56115390Y64170113D01*
X56115390Y64170113D02*
X56077295Y64093923D01*
X56077295Y64093923D02*
X56077295Y63903447D01*
X56077295Y63903447D02*
X56115390Y63827256D01*
X56115390Y63827256D02*
X56153485Y63789161D01*
X56153485Y63789161D02*
X56229676Y63751066D01*
X56229676Y63751066D02*
X56305866Y63751066D01*
X56305866Y63751066D02*
X56420152Y63789161D01*
X56420152Y63789161D02*
X56877295Y64246304D01*
X56877295Y64246304D02*
X56877295Y63751066D01*
X81515390Y56441793D02*
X81477295Y56517983D01*
X81477295Y56517983D02*
X81477295Y56632269D01*
X81477295Y56632269D02*
X81515390Y56746555D01*
X81515390Y56746555D02*
X81591580Y56822745D01*
X81591580Y56822745D02*
X81667771Y56860840D01*
X81667771Y56860840D02*
X81820152Y56898936D01*
X81820152Y56898936D02*
X81934438Y56898936D01*
X81934438Y56898936D02*
X82086819Y56860840D01*
X82086819Y56860840D02*
X82163009Y56822745D01*
X82163009Y56822745D02*
X82239200Y56746555D01*
X82239200Y56746555D02*
X82277295Y56632269D01*
X82277295Y56632269D02*
X82277295Y56556078D01*
X82277295Y56556078D02*
X82239200Y56441793D01*
X82239200Y56441793D02*
X82201104Y56403697D01*
X82201104Y56403697D02*
X81934438Y56403697D01*
X81934438Y56403697D02*
X81934438Y56556078D01*
X82277295Y56060840D02*
X81477295Y56060840D01*
X81477295Y56060840D02*
X82277295Y55603697D01*
X82277295Y55603697D02*
X81477295Y55603697D01*
X82277295Y55222745D02*
X81477295Y55222745D01*
X81477295Y55222745D02*
X81477295Y55032269D01*
X81477295Y55032269D02*
X81515390Y54917983D01*
X81515390Y54917983D02*
X81591580Y54841793D01*
X81591580Y54841793D02*
X81667771Y54803698D01*
X81667771Y54803698D02*
X81820152Y54765602D01*
X81820152Y54765602D02*
X81934438Y54765602D01*
X81934438Y54765602D02*
X82086819Y54803698D01*
X82086819Y54803698D02*
X82163009Y54841793D01*
X82163009Y54841793D02*
X82239200Y54917983D01*
X82239200Y54917983D02*
X82277295Y55032269D01*
X82277295Y55032269D02*
X82277295Y55222745D01*
X49257295Y18760840D02*
X48457295Y18760840D01*
X48457295Y18760840D02*
X48457295Y18456078D01*
X48457295Y18456078D02*
X48495390Y18379888D01*
X48495390Y18379888D02*
X48533485Y18341793D01*
X48533485Y18341793D02*
X48609676Y18303697D01*
X48609676Y18303697D02*
X48723961Y18303697D01*
X48723961Y18303697D02*
X48800152Y18341793D01*
X48800152Y18341793D02*
X48838247Y18379888D01*
X48838247Y18379888D02*
X48876342Y18456078D01*
X48876342Y18456078D02*
X48876342Y18760840D01*
X49028723Y17998936D02*
X49028723Y17617983D01*
X49257295Y18075126D02*
X48457295Y17808459D01*
X48457295Y17808459D02*
X49257295Y17541793D01*
X48533485Y17313222D02*
X48495390Y17275126D01*
X48495390Y17275126D02*
X48457295Y17198936D01*
X48457295Y17198936D02*
X48457295Y17008460D01*
X48457295Y17008460D02*
X48495390Y16932269D01*
X48495390Y16932269D02*
X48533485Y16894174D01*
X48533485Y16894174D02*
X48609676Y16856079D01*
X48609676Y16856079D02*
X48685866Y16856079D01*
X48685866Y16856079D02*
X48800152Y16894174D01*
X48800152Y16894174D02*
X49257295Y17351317D01*
X49257295Y17351317D02*
X49257295Y16856079D01*
X84017295Y64474875D02*
X84017295Y64855827D01*
X84017295Y64855827D02*
X84398247Y64893923D01*
X84398247Y64893923D02*
X84360152Y64855827D01*
X84360152Y64855827D02*
X84322057Y64779637D01*
X84322057Y64779637D02*
X84322057Y64589161D01*
X84322057Y64589161D02*
X84360152Y64512970D01*
X84360152Y64512970D02*
X84398247Y64474875D01*
X84398247Y64474875D02*
X84474438Y64436780D01*
X84474438Y64436780D02*
X84664914Y64436780D01*
X84664914Y64436780D02*
X84741104Y64474875D01*
X84741104Y64474875D02*
X84779200Y64512970D01*
X84779200Y64512970D02*
X84817295Y64589161D01*
X84817295Y64589161D02*
X84817295Y64779637D01*
X84817295Y64779637D02*
X84779200Y64855827D01*
X84779200Y64855827D02*
X84741104Y64893923D01*
X84017295Y64208208D02*
X84817295Y63941541D01*
X84817295Y63941541D02*
X84017295Y63674875D01*
X49257295Y56860840D02*
X48457295Y56860840D01*
X48457295Y56860840D02*
X48457295Y56556078D01*
X48457295Y56556078D02*
X48495390Y56479888D01*
X48495390Y56479888D02*
X48533485Y56441793D01*
X48533485Y56441793D02*
X48609676Y56403697D01*
X48609676Y56403697D02*
X48723961Y56403697D01*
X48723961Y56403697D02*
X48800152Y56441793D01*
X48800152Y56441793D02*
X48838247Y56479888D01*
X48838247Y56479888D02*
X48876342Y56556078D01*
X48876342Y56556078D02*
X48876342Y56860840D01*
X48838247Y55794174D02*
X48876342Y55679888D01*
X48876342Y55679888D02*
X48914438Y55641793D01*
X48914438Y55641793D02*
X48990628Y55603697D01*
X48990628Y55603697D02*
X49104914Y55603697D01*
X49104914Y55603697D02*
X49181104Y55641793D01*
X49181104Y55641793D02*
X49219200Y55679888D01*
X49219200Y55679888D02*
X49257295Y55756078D01*
X49257295Y55756078D02*
X49257295Y56060840D01*
X49257295Y56060840D02*
X48457295Y56060840D01*
X48457295Y56060840D02*
X48457295Y55794174D01*
X48457295Y55794174D02*
X48495390Y55717983D01*
X48495390Y55717983D02*
X48533485Y55679888D01*
X48533485Y55679888D02*
X48609676Y55641793D01*
X48609676Y55641793D02*
X48685866Y55641793D01*
X48685866Y55641793D02*
X48762057Y55679888D01*
X48762057Y55679888D02*
X48800152Y55717983D01*
X48800152Y55717983D02*
X48838247Y55794174D01*
X48838247Y55794174D02*
X48838247Y56060840D01*
X49257295Y55222745D02*
X49257295Y55070364D01*
X49257295Y55070364D02*
X49219200Y54994174D01*
X49219200Y54994174D02*
X49181104Y54956078D01*
X49181104Y54956078D02*
X49066819Y54879888D01*
X49066819Y54879888D02*
X48914438Y54841793D01*
X48914438Y54841793D02*
X48609676Y54841793D01*
X48609676Y54841793D02*
X48533485Y54879888D01*
X48533485Y54879888D02*
X48495390Y54917983D01*
X48495390Y54917983D02*
X48457295Y54994174D01*
X48457295Y54994174D02*
X48457295Y55146555D01*
X48457295Y55146555D02*
X48495390Y55222745D01*
X48495390Y55222745D02*
X48533485Y55260840D01*
X48533485Y55260840D02*
X48609676Y55298936D01*
X48609676Y55298936D02*
X48800152Y55298936D01*
X48800152Y55298936D02*
X48876342Y55260840D01*
X48876342Y55260840D02*
X48914438Y55222745D01*
X48914438Y55222745D02*
X48952533Y55146555D01*
X48952533Y55146555D02*
X48952533Y54994174D01*
X48952533Y54994174D02*
X48914438Y54917983D01*
X48914438Y54917983D02*
X48876342Y54879888D01*
X48876342Y54879888D02*
X48800152Y54841793D01*
X51797295Y18760840D02*
X50997295Y18760840D01*
X50997295Y18760840D02*
X50997295Y18456078D01*
X50997295Y18456078D02*
X51035390Y18379888D01*
X51035390Y18379888D02*
X51073485Y18341793D01*
X51073485Y18341793D02*
X51149676Y18303697D01*
X51149676Y18303697D02*
X51263961Y18303697D01*
X51263961Y18303697D02*
X51340152Y18341793D01*
X51340152Y18341793D02*
X51378247Y18379888D01*
X51378247Y18379888D02*
X51416342Y18456078D01*
X51416342Y18456078D02*
X51416342Y18760840D01*
X51568723Y17998936D02*
X51568723Y17617983D01*
X51797295Y18075126D02*
X50997295Y17808459D01*
X50997295Y17808459D02*
X51797295Y17541793D01*
X51263961Y16932269D02*
X51797295Y16932269D01*
X50959200Y17122745D02*
X51530628Y17313222D01*
X51530628Y17313222D02*
X51530628Y16817983D01*
X44177295Y66532018D02*
X43377295Y66532018D01*
X43377295Y66532018D02*
X43377295Y66227256D01*
X43377295Y66227256D02*
X43415390Y66151066D01*
X43415390Y66151066D02*
X43453485Y66112971D01*
X43453485Y66112971D02*
X43529676Y66074875D01*
X43529676Y66074875D02*
X43643961Y66074875D01*
X43643961Y66074875D02*
X43720152Y66112971D01*
X43720152Y66112971D02*
X43758247Y66151066D01*
X43758247Y66151066D02*
X43796342Y66227256D01*
X43796342Y66227256D02*
X43796342Y66532018D01*
X44101104Y65274875D02*
X44139200Y65312971D01*
X44139200Y65312971D02*
X44177295Y65427256D01*
X44177295Y65427256D02*
X44177295Y65503447D01*
X44177295Y65503447D02*
X44139200Y65617733D01*
X44139200Y65617733D02*
X44063009Y65693923D01*
X44063009Y65693923D02*
X43986819Y65732018D01*
X43986819Y65732018D02*
X43834438Y65770114D01*
X43834438Y65770114D02*
X43720152Y65770114D01*
X43720152Y65770114D02*
X43567771Y65732018D01*
X43567771Y65732018D02*
X43491580Y65693923D01*
X43491580Y65693923D02*
X43415390Y65617733D01*
X43415390Y65617733D02*
X43377295Y65503447D01*
X43377295Y65503447D02*
X43377295Y65427256D01*
X43377295Y65427256D02*
X43415390Y65312971D01*
X43415390Y65312971D02*
X43453485Y65274875D01*
X44177295Y64512971D02*
X44177295Y64970114D01*
X44177295Y64741542D02*
X43377295Y64741542D01*
X43377295Y64741542D02*
X43491580Y64817733D01*
X43491580Y64817733D02*
X43567771Y64893923D01*
X43567771Y64893923D02*
X43605866Y64970114D01*
X43643961Y63827256D02*
X44177295Y63827256D01*
X43339200Y64017732D02*
X43910628Y64208209D01*
X43910628Y64208209D02*
X43910628Y63712970D01*
X78937295Y65770113D02*
X79584914Y65770113D01*
X79584914Y65770113D02*
X79661104Y65732018D01*
X79661104Y65732018D02*
X79699200Y65693923D01*
X79699200Y65693923D02*
X79737295Y65617732D01*
X79737295Y65617732D02*
X79737295Y65465351D01*
X79737295Y65465351D02*
X79699200Y65389161D01*
X79699200Y65389161D02*
X79661104Y65351066D01*
X79661104Y65351066D02*
X79584914Y65312970D01*
X79584914Y65312970D02*
X78937295Y65312970D01*
X79737295Y64512971D02*
X79737295Y64970114D01*
X79737295Y64741542D02*
X78937295Y64741542D01*
X78937295Y64741542D02*
X79051580Y64817733D01*
X79051580Y64817733D02*
X79127771Y64893923D01*
X79127771Y64893923D02*
X79165866Y64970114D01*
X78937295Y63789161D02*
X78937295Y64170113D01*
X78937295Y64170113D02*
X79318247Y64208209D01*
X79318247Y64208209D02*
X79280152Y64170113D01*
X79280152Y64170113D02*
X79242057Y64093923D01*
X79242057Y64093923D02*
X79242057Y63903447D01*
X79242057Y63903447D02*
X79280152Y63827256D01*
X79280152Y63827256D02*
X79318247Y63789161D01*
X79318247Y63789161D02*
X79394438Y63751066D01*
X79394438Y63751066D02*
X79584914Y63751066D01*
X79584914Y63751066D02*
X79661104Y63789161D01*
X79661104Y63789161D02*
X79699200Y63827256D01*
X79699200Y63827256D02*
X79737295Y63903447D01*
X79737295Y63903447D02*
X79737295Y64093923D01*
X79737295Y64093923D02*
X79699200Y64170113D01*
X79699200Y64170113D02*
X79661104Y64208209D01*
X76397295Y65770113D02*
X77044914Y65770113D01*
X77044914Y65770113D02*
X77121104Y65732018D01*
X77121104Y65732018D02*
X77159200Y65693923D01*
X77159200Y65693923D02*
X77197295Y65617732D01*
X77197295Y65617732D02*
X77197295Y65465351D01*
X77197295Y65465351D02*
X77159200Y65389161D01*
X77159200Y65389161D02*
X77121104Y65351066D01*
X77121104Y65351066D02*
X77044914Y65312970D01*
X77044914Y65312970D02*
X76397295Y65312970D01*
X77197295Y64512971D02*
X77197295Y64970114D01*
X77197295Y64741542D02*
X76397295Y64741542D01*
X76397295Y64741542D02*
X76511580Y64817733D01*
X76511580Y64817733D02*
X76587771Y64893923D01*
X76587771Y64893923D02*
X76625866Y64970114D01*
X76397295Y64246304D02*
X76397295Y63751066D01*
X76397295Y63751066D02*
X76702057Y64017732D01*
X76702057Y64017732D02*
X76702057Y63903447D01*
X76702057Y63903447D02*
X76740152Y63827256D01*
X76740152Y63827256D02*
X76778247Y63789161D01*
X76778247Y63789161D02*
X76854438Y63751066D01*
X76854438Y63751066D02*
X77044914Y63751066D01*
X77044914Y63751066D02*
X77121104Y63789161D01*
X77121104Y63789161D02*
X77159200Y63827256D01*
X77159200Y63827256D02*
X77197295Y63903447D01*
X77197295Y63903447D02*
X77197295Y64132018D01*
X77197295Y64132018D02*
X77159200Y64208209D01*
X77159200Y64208209D02*
X77121104Y64246304D01*
X59417295Y27670113D02*
X58617295Y27670113D01*
X58617295Y27670113D02*
X58617295Y27365351D01*
X58617295Y27365351D02*
X58655390Y27289161D01*
X58655390Y27289161D02*
X58693485Y27251066D01*
X58693485Y27251066D02*
X58769676Y27212970D01*
X58769676Y27212970D02*
X58883961Y27212970D01*
X58883961Y27212970D02*
X58960152Y27251066D01*
X58960152Y27251066D02*
X58998247Y27289161D01*
X58998247Y27289161D02*
X59036342Y27365351D01*
X59036342Y27365351D02*
X59036342Y27670113D01*
X58998247Y26603447D02*
X59036342Y26489161D01*
X59036342Y26489161D02*
X59074438Y26451066D01*
X59074438Y26451066D02*
X59150628Y26412970D01*
X59150628Y26412970D02*
X59264914Y26412970D01*
X59264914Y26412970D02*
X59341104Y26451066D01*
X59341104Y26451066D02*
X59379200Y26489161D01*
X59379200Y26489161D02*
X59417295Y26565351D01*
X59417295Y26565351D02*
X59417295Y26870113D01*
X59417295Y26870113D02*
X58617295Y26870113D01*
X58617295Y26870113D02*
X58617295Y26603447D01*
X58617295Y26603447D02*
X58655390Y26527256D01*
X58655390Y26527256D02*
X58693485Y26489161D01*
X58693485Y26489161D02*
X58769676Y26451066D01*
X58769676Y26451066D02*
X58845866Y26451066D01*
X58845866Y26451066D02*
X58922057Y26489161D01*
X58922057Y26489161D02*
X58960152Y26527256D01*
X58960152Y26527256D02*
X58998247Y26603447D01*
X58998247Y26603447D02*
X58998247Y26870113D01*
X59417295Y25651066D02*
X59417295Y26108209D01*
X59417295Y25879637D02*
X58617295Y25879637D01*
X58617295Y25879637D02*
X58731580Y25955828D01*
X58731580Y25955828D02*
X58807771Y26032018D01*
X58807771Y26032018D02*
X58845866Y26108209D01*
X35757295Y18875126D02*
X36557295Y18608459D01*
X36557295Y18608459D02*
X35757295Y18341793D01*
X36328723Y18113222D02*
X36328723Y17732269D01*
X36557295Y18189412D02*
X35757295Y17922745D01*
X35757295Y17922745D02*
X36557295Y17656079D01*
X45917295Y65008208D02*
X46564914Y65008208D01*
X46564914Y65008208D02*
X46641104Y64970113D01*
X46641104Y64970113D02*
X46679200Y64932018D01*
X46679200Y64932018D02*
X46717295Y64855827D01*
X46717295Y64855827D02*
X46717295Y64703446D01*
X46717295Y64703446D02*
X46679200Y64627256D01*
X46679200Y64627256D02*
X46641104Y64589161D01*
X46641104Y64589161D02*
X46564914Y64551065D01*
X46564914Y64551065D02*
X45917295Y64551065D01*
X46717295Y64132018D02*
X46717295Y63979637D01*
X46717295Y63979637D02*
X46679200Y63903447D01*
X46679200Y63903447D02*
X46641104Y63865351D01*
X46641104Y63865351D02*
X46526819Y63789161D01*
X46526819Y63789161D02*
X46374438Y63751066D01*
X46374438Y63751066D02*
X46069676Y63751066D01*
X46069676Y63751066D02*
X45993485Y63789161D01*
X45993485Y63789161D02*
X45955390Y63827256D01*
X45955390Y63827256D02*
X45917295Y63903447D01*
X45917295Y63903447D02*
X45917295Y64055828D01*
X45917295Y64055828D02*
X45955390Y64132018D01*
X45955390Y64132018D02*
X45993485Y64170113D01*
X45993485Y64170113D02*
X46069676Y64208209D01*
X46069676Y64208209D02*
X46260152Y64208209D01*
X46260152Y64208209D02*
X46336342Y64170113D01*
X46336342Y64170113D02*
X46374438Y64132018D01*
X46374438Y64132018D02*
X46412533Y64055828D01*
X46412533Y64055828D02*
X46412533Y63903447D01*
X46412533Y63903447D02*
X46374438Y63827256D01*
X46374438Y63827256D02*
X46336342Y63789161D01*
X46336342Y63789161D02*
X46260152Y63751066D01*
X84055390Y27327256D02*
X84017295Y27403446D01*
X84017295Y27403446D02*
X84017295Y27517732D01*
X84017295Y27517732D02*
X84055390Y27632018D01*
X84055390Y27632018D02*
X84131580Y27708208D01*
X84131580Y27708208D02*
X84207771Y27746303D01*
X84207771Y27746303D02*
X84360152Y27784399D01*
X84360152Y27784399D02*
X84474438Y27784399D01*
X84474438Y27784399D02*
X84626819Y27746303D01*
X84626819Y27746303D02*
X84703009Y27708208D01*
X84703009Y27708208D02*
X84779200Y27632018D01*
X84779200Y27632018D02*
X84817295Y27517732D01*
X84817295Y27517732D02*
X84817295Y27441541D01*
X84817295Y27441541D02*
X84779200Y27327256D01*
X84779200Y27327256D02*
X84741104Y27289160D01*
X84741104Y27289160D02*
X84474438Y27289160D01*
X84474438Y27289160D02*
X84474438Y27441541D01*
X84817295Y26946303D02*
X84017295Y26946303D01*
X84017295Y26946303D02*
X84817295Y26489160D01*
X84817295Y26489160D02*
X84017295Y26489160D01*
X84817295Y26108208D02*
X84017295Y26108208D01*
X84017295Y26108208D02*
X84017295Y25917732D01*
X84017295Y25917732D02*
X84055390Y25803446D01*
X84055390Y25803446D02*
X84131580Y25727256D01*
X84131580Y25727256D02*
X84207771Y25689161D01*
X84207771Y25689161D02*
X84360152Y25651065D01*
X84360152Y25651065D02*
X84474438Y25651065D01*
X84474438Y25651065D02*
X84626819Y25689161D01*
X84626819Y25689161D02*
X84703009Y25727256D01*
X84703009Y25727256D02*
X84779200Y25803446D01*
X84779200Y25803446D02*
X84817295Y25917732D01*
X84817295Y25917732D02*
X84817295Y26108208D01*
X39097295Y28317732D02*
X38297295Y28317732D01*
X38297295Y28317732D02*
X39097295Y27860589D01*
X39097295Y27860589D02*
X38297295Y27860589D01*
X39097295Y27022494D02*
X38716342Y27289161D01*
X39097295Y27479637D02*
X38297295Y27479637D01*
X38297295Y27479637D02*
X38297295Y27174875D01*
X38297295Y27174875D02*
X38335390Y27098685D01*
X38335390Y27098685D02*
X38373485Y27060590D01*
X38373485Y27060590D02*
X38449676Y27022494D01*
X38449676Y27022494D02*
X38563961Y27022494D01*
X38563961Y27022494D02*
X38640152Y27060590D01*
X38640152Y27060590D02*
X38678247Y27098685D01*
X38678247Y27098685D02*
X38716342Y27174875D01*
X38716342Y27174875D02*
X38716342Y27479637D01*
X39059200Y26717733D02*
X39097295Y26603447D01*
X39097295Y26603447D02*
X39097295Y26412971D01*
X39097295Y26412971D02*
X39059200Y26336780D01*
X39059200Y26336780D02*
X39021104Y26298685D01*
X39021104Y26298685D02*
X38944914Y26260590D01*
X38944914Y26260590D02*
X38868723Y26260590D01*
X38868723Y26260590D02*
X38792533Y26298685D01*
X38792533Y26298685D02*
X38754438Y26336780D01*
X38754438Y26336780D02*
X38716342Y26412971D01*
X38716342Y26412971D02*
X38678247Y26565352D01*
X38678247Y26565352D02*
X38640152Y26641542D01*
X38640152Y26641542D02*
X38602057Y26679637D01*
X38602057Y26679637D02*
X38525866Y26717733D01*
X38525866Y26717733D02*
X38449676Y26717733D01*
X38449676Y26717733D02*
X38373485Y26679637D01*
X38373485Y26679637D02*
X38335390Y26641542D01*
X38335390Y26641542D02*
X38297295Y26565352D01*
X38297295Y26565352D02*
X38297295Y26374875D01*
X38297295Y26374875D02*
X38335390Y26260590D01*
X38297295Y26032018D02*
X38297295Y25574875D01*
X39097295Y25803447D02*
X38297295Y25803447D01*
X59417295Y18760840D02*
X58617295Y18760840D01*
X58617295Y18760840D02*
X58617295Y18456078D01*
X58617295Y18456078D02*
X58655390Y18379888D01*
X58655390Y18379888D02*
X58693485Y18341793D01*
X58693485Y18341793D02*
X58769676Y18303697D01*
X58769676Y18303697D02*
X58883961Y18303697D01*
X58883961Y18303697D02*
X58960152Y18341793D01*
X58960152Y18341793D02*
X58998247Y18379888D01*
X58998247Y18379888D02*
X59036342Y18456078D01*
X59036342Y18456078D02*
X59036342Y18760840D01*
X58998247Y17694174D02*
X59036342Y17579888D01*
X59036342Y17579888D02*
X59074438Y17541793D01*
X59074438Y17541793D02*
X59150628Y17503697D01*
X59150628Y17503697D02*
X59264914Y17503697D01*
X59264914Y17503697D02*
X59341104Y17541793D01*
X59341104Y17541793D02*
X59379200Y17579888D01*
X59379200Y17579888D02*
X59417295Y17656078D01*
X59417295Y17656078D02*
X59417295Y17960840D01*
X59417295Y17960840D02*
X58617295Y17960840D01*
X58617295Y17960840D02*
X58617295Y17694174D01*
X58617295Y17694174D02*
X58655390Y17617983D01*
X58655390Y17617983D02*
X58693485Y17579888D01*
X58693485Y17579888D02*
X58769676Y17541793D01*
X58769676Y17541793D02*
X58845866Y17541793D01*
X58845866Y17541793D02*
X58922057Y17579888D01*
X58922057Y17579888D02*
X58960152Y17617983D01*
X58960152Y17617983D02*
X58998247Y17694174D01*
X58998247Y17694174D02*
X58998247Y17960840D01*
X58617295Y17008459D02*
X58617295Y16932269D01*
X58617295Y16932269D02*
X58655390Y16856078D01*
X58655390Y16856078D02*
X58693485Y16817983D01*
X58693485Y16817983D02*
X58769676Y16779888D01*
X58769676Y16779888D02*
X58922057Y16741793D01*
X58922057Y16741793D02*
X59112533Y16741793D01*
X59112533Y16741793D02*
X59264914Y16779888D01*
X59264914Y16779888D02*
X59341104Y16817983D01*
X59341104Y16817983D02*
X59379200Y16856078D01*
X59379200Y16856078D02*
X59417295Y16932269D01*
X59417295Y16932269D02*
X59417295Y17008459D01*
X59417295Y17008459D02*
X59379200Y17084650D01*
X59379200Y17084650D02*
X59341104Y17122745D01*
X59341104Y17122745D02*
X59264914Y17160840D01*
X59264914Y17160840D02*
X59112533Y17198936D01*
X59112533Y17198936D02*
X58922057Y17198936D01*
X58922057Y17198936D02*
X58769676Y17160840D01*
X58769676Y17160840D02*
X58693485Y17122745D01*
X58693485Y17122745D02*
X58655390Y17084650D01*
X58655390Y17084650D02*
X58617295Y17008459D01*
X38297295Y65008208D02*
X38944914Y65008208D01*
X38944914Y65008208D02*
X39021104Y64970113D01*
X39021104Y64970113D02*
X39059200Y64932018D01*
X39059200Y64932018D02*
X39097295Y64855827D01*
X39097295Y64855827D02*
X39097295Y64703446D01*
X39097295Y64703446D02*
X39059200Y64627256D01*
X39059200Y64627256D02*
X39021104Y64589161D01*
X39021104Y64589161D02*
X38944914Y64551065D01*
X38944914Y64551065D02*
X38297295Y64551065D01*
X38297295Y63789161D02*
X38297295Y64170113D01*
X38297295Y64170113D02*
X38678247Y64208209D01*
X38678247Y64208209D02*
X38640152Y64170113D01*
X38640152Y64170113D02*
X38602057Y64093923D01*
X38602057Y64093923D02*
X38602057Y63903447D01*
X38602057Y63903447D02*
X38640152Y63827256D01*
X38640152Y63827256D02*
X38678247Y63789161D01*
X38678247Y63789161D02*
X38754438Y63751066D01*
X38754438Y63751066D02*
X38944914Y63751066D01*
X38944914Y63751066D02*
X39021104Y63789161D01*
X39021104Y63789161D02*
X39059200Y63827256D01*
X39059200Y63827256D02*
X39097295Y63903447D01*
X39097295Y63903447D02*
X39097295Y64093923D01*
X39097295Y64093923D02*
X39059200Y64170113D01*
X39059200Y64170113D02*
X39021104Y64208209D01*
X76397295Y26908208D02*
X77044914Y26908208D01*
X77044914Y26908208D02*
X77121104Y26870113D01*
X77121104Y26870113D02*
X77159200Y26832018D01*
X77159200Y26832018D02*
X77197295Y26755827D01*
X77197295Y26755827D02*
X77197295Y26603446D01*
X77197295Y26603446D02*
X77159200Y26527256D01*
X77159200Y26527256D02*
X77121104Y26489161D01*
X77121104Y26489161D02*
X77044914Y26451065D01*
X77044914Y26451065D02*
X76397295Y26451065D01*
X76473485Y26108209D02*
X76435390Y26070113D01*
X76435390Y26070113D02*
X76397295Y25993923D01*
X76397295Y25993923D02*
X76397295Y25803447D01*
X76397295Y25803447D02*
X76435390Y25727256D01*
X76435390Y25727256D02*
X76473485Y25689161D01*
X76473485Y25689161D02*
X76549676Y25651066D01*
X76549676Y25651066D02*
X76625866Y25651066D01*
X76625866Y25651066D02*
X76740152Y25689161D01*
X76740152Y25689161D02*
X77197295Y26146304D01*
X77197295Y26146304D02*
X77197295Y25651066D01*
X51797295Y27555827D02*
X50997295Y27555827D01*
X50997295Y27555827D02*
X50997295Y27251065D01*
X50997295Y27251065D02*
X51035390Y27174875D01*
X51035390Y27174875D02*
X51073485Y27136780D01*
X51073485Y27136780D02*
X51149676Y27098684D01*
X51149676Y27098684D02*
X51263961Y27098684D01*
X51263961Y27098684D02*
X51340152Y27136780D01*
X51340152Y27136780D02*
X51378247Y27174875D01*
X51378247Y27174875D02*
X51416342Y27251065D01*
X51416342Y27251065D02*
X51416342Y27555827D01*
X51568723Y26793923D02*
X51568723Y26412970D01*
X51797295Y26870113D02*
X50997295Y26603446D01*
X50997295Y26603446D02*
X51797295Y26336780D01*
X50997295Y25689161D02*
X50997295Y26070113D01*
X50997295Y26070113D02*
X51378247Y26108209D01*
X51378247Y26108209D02*
X51340152Y26070113D01*
X51340152Y26070113D02*
X51302057Y25993923D01*
X51302057Y25993923D02*
X51302057Y25803447D01*
X51302057Y25803447D02*
X51340152Y25727256D01*
X51340152Y25727256D02*
X51378247Y25689161D01*
X51378247Y25689161D02*
X51454438Y25651066D01*
X51454438Y25651066D02*
X51644914Y25651066D01*
X51644914Y25651066D02*
X51721104Y25689161D01*
X51721104Y25689161D02*
X51759200Y25727256D01*
X51759200Y25727256D02*
X51797295Y25803447D01*
X51797295Y25803447D02*
X51797295Y25993923D01*
X51797295Y25993923D02*
X51759200Y26070113D01*
X51759200Y26070113D02*
X51721104Y26108209D01*
X81477295Y66074875D02*
X81477295Y65579637D01*
X81477295Y65579637D02*
X81782057Y65846303D01*
X81782057Y65846303D02*
X81782057Y65732018D01*
X81782057Y65732018D02*
X81820152Y65655827D01*
X81820152Y65655827D02*
X81858247Y65617732D01*
X81858247Y65617732D02*
X81934438Y65579637D01*
X81934438Y65579637D02*
X82124914Y65579637D01*
X82124914Y65579637D02*
X82201104Y65617732D01*
X82201104Y65617732D02*
X82239200Y65655827D01*
X82239200Y65655827D02*
X82277295Y65732018D01*
X82277295Y65732018D02*
X82277295Y65960589D01*
X82277295Y65960589D02*
X82239200Y66036780D01*
X82239200Y66036780D02*
X82201104Y66074875D01*
X82201104Y65236779D02*
X82239200Y65198684D01*
X82239200Y65198684D02*
X82277295Y65236779D01*
X82277295Y65236779D02*
X82239200Y65274875D01*
X82239200Y65274875D02*
X82201104Y65236779D01*
X82201104Y65236779D02*
X82277295Y65236779D01*
X81477295Y64932018D02*
X81477295Y64436780D01*
X81477295Y64436780D02*
X81782057Y64703446D01*
X81782057Y64703446D02*
X81782057Y64589161D01*
X81782057Y64589161D02*
X81820152Y64512970D01*
X81820152Y64512970D02*
X81858247Y64474875D01*
X81858247Y64474875D02*
X81934438Y64436780D01*
X81934438Y64436780D02*
X82124914Y64436780D01*
X82124914Y64436780D02*
X82201104Y64474875D01*
X82201104Y64474875D02*
X82239200Y64512970D01*
X82239200Y64512970D02*
X82277295Y64589161D01*
X82277295Y64589161D02*
X82277295Y64817732D01*
X82277295Y64817732D02*
X82239200Y64893923D01*
X82239200Y64893923D02*
X82201104Y64932018D01*
X81477295Y64208208D02*
X82277295Y63941541D01*
X82277295Y63941541D02*
X81477295Y63674875D01*
X84055390Y56441793D02*
X84017295Y56517983D01*
X84017295Y56517983D02*
X84017295Y56632269D01*
X84017295Y56632269D02*
X84055390Y56746555D01*
X84055390Y56746555D02*
X84131580Y56822745D01*
X84131580Y56822745D02*
X84207771Y56860840D01*
X84207771Y56860840D02*
X84360152Y56898936D01*
X84360152Y56898936D02*
X84474438Y56898936D01*
X84474438Y56898936D02*
X84626819Y56860840D01*
X84626819Y56860840D02*
X84703009Y56822745D01*
X84703009Y56822745D02*
X84779200Y56746555D01*
X84779200Y56746555D02*
X84817295Y56632269D01*
X84817295Y56632269D02*
X84817295Y56556078D01*
X84817295Y56556078D02*
X84779200Y56441793D01*
X84779200Y56441793D02*
X84741104Y56403697D01*
X84741104Y56403697D02*
X84474438Y56403697D01*
X84474438Y56403697D02*
X84474438Y56556078D01*
X84817295Y56060840D02*
X84017295Y56060840D01*
X84017295Y56060840D02*
X84817295Y55603697D01*
X84817295Y55603697D02*
X84017295Y55603697D01*
X84817295Y55222745D02*
X84017295Y55222745D01*
X84017295Y55222745D02*
X84017295Y55032269D01*
X84017295Y55032269D02*
X84055390Y54917983D01*
X84055390Y54917983D02*
X84131580Y54841793D01*
X84131580Y54841793D02*
X84207771Y54803698D01*
X84207771Y54803698D02*
X84360152Y54765602D01*
X84360152Y54765602D02*
X84474438Y54765602D01*
X84474438Y54765602D02*
X84626819Y54803698D01*
X84626819Y54803698D02*
X84703009Y54841793D01*
X84703009Y54841793D02*
X84779200Y54917983D01*
X84779200Y54917983D02*
X84817295Y55032269D01*
X84817295Y55032269D02*
X84817295Y55222745D01*
X45917295Y56860840D02*
X46564914Y56860840D01*
X46564914Y56860840D02*
X46641104Y56822745D01*
X46641104Y56822745D02*
X46679200Y56784650D01*
X46679200Y56784650D02*
X46717295Y56708459D01*
X46717295Y56708459D02*
X46717295Y56556078D01*
X46717295Y56556078D02*
X46679200Y56479888D01*
X46679200Y56479888D02*
X46641104Y56441793D01*
X46641104Y56441793D02*
X46564914Y56403697D01*
X46564914Y56403697D02*
X45917295Y56403697D01*
X46717295Y55603698D02*
X46717295Y56060841D01*
X46717295Y55832269D02*
X45917295Y55832269D01*
X45917295Y55832269D02*
X46031580Y55908460D01*
X46031580Y55908460D02*
X46107771Y55984650D01*
X46107771Y55984650D02*
X46145866Y56060841D01*
X45917295Y55108459D02*
X45917295Y55032269D01*
X45917295Y55032269D02*
X45955390Y54956078D01*
X45955390Y54956078D02*
X45993485Y54917983D01*
X45993485Y54917983D02*
X46069676Y54879888D01*
X46069676Y54879888D02*
X46222057Y54841793D01*
X46222057Y54841793D02*
X46412533Y54841793D01*
X46412533Y54841793D02*
X46564914Y54879888D01*
X46564914Y54879888D02*
X46641104Y54917983D01*
X46641104Y54917983D02*
X46679200Y54956078D01*
X46679200Y54956078D02*
X46717295Y55032269D01*
X46717295Y55032269D02*
X46717295Y55108459D01*
X46717295Y55108459D02*
X46679200Y55184650D01*
X46679200Y55184650D02*
X46641104Y55222745D01*
X46641104Y55222745D02*
X46564914Y55260840D01*
X46564914Y55260840D02*
X46412533Y55298936D01*
X46412533Y55298936D02*
X46222057Y55298936D01*
X46222057Y55298936D02*
X46069676Y55260840D01*
X46069676Y55260840D02*
X45993485Y55222745D01*
X45993485Y55222745D02*
X45955390Y55184650D01*
X45955390Y55184650D02*
X45917295Y55108459D01*
X23949819Y59988221D02*
X22949819Y59988221D01*
X22949819Y59988221D02*
X23664104Y59654888D01*
X23664104Y59654888D02*
X22949819Y59321555D01*
X22949819Y59321555D02*
X23949819Y59321555D01*
X23854580Y58273936D02*
X23902200Y58321555D01*
X23902200Y58321555D02*
X23949819Y58464412D01*
X23949819Y58464412D02*
X23949819Y58559650D01*
X23949819Y58559650D02*
X23902200Y58702507D01*
X23902200Y58702507D02*
X23806961Y58797745D01*
X23806961Y58797745D02*
X23711723Y58845364D01*
X23711723Y58845364D02*
X23521247Y58892983D01*
X23521247Y58892983D02*
X23378390Y58892983D01*
X23378390Y58892983D02*
X23187914Y58845364D01*
X23187914Y58845364D02*
X23092676Y58797745D01*
X23092676Y58797745D02*
X22997438Y58702507D01*
X22997438Y58702507D02*
X22949819Y58559650D01*
X22949819Y58559650D02*
X22949819Y58464412D01*
X22949819Y58464412D02*
X22997438Y58321555D01*
X22997438Y58321555D02*
X23045057Y58273936D01*
X22949819Y57845364D02*
X23759342Y57845364D01*
X23759342Y57845364D02*
X23854580Y57797745D01*
X23854580Y57797745D02*
X23902200Y57750126D01*
X23902200Y57750126D02*
X23949819Y57654888D01*
X23949819Y57654888D02*
X23949819Y57464412D01*
X23949819Y57464412D02*
X23902200Y57369174D01*
X23902200Y57369174D02*
X23854580Y57321555D01*
X23854580Y57321555D02*
X23759342Y57273936D01*
X23759342Y57273936D02*
X22949819Y57273936D01*
X23902200Y56845364D02*
X23949819Y56702507D01*
X23949819Y56702507D02*
X23949819Y56464412D01*
X23949819Y56464412D02*
X23902200Y56369174D01*
X23902200Y56369174D02*
X23854580Y56321555D01*
X23854580Y56321555D02*
X23759342Y56273936D01*
X23759342Y56273936D02*
X23664104Y56273936D01*
X23664104Y56273936D02*
X23568866Y56321555D01*
X23568866Y56321555D02*
X23521247Y56369174D01*
X23521247Y56369174D02*
X23473628Y56464412D01*
X23473628Y56464412D02*
X23426009Y56654888D01*
X23426009Y56654888D02*
X23378390Y56750126D01*
X23378390Y56750126D02*
X23330771Y56797745D01*
X23330771Y56797745D02*
X23235533Y56845364D01*
X23235533Y56845364D02*
X23140295Y56845364D01*
X23140295Y56845364D02*
X23045057Y56797745D01*
X23045057Y56797745D02*
X22997438Y56750126D01*
X22997438Y56750126D02*
X22949819Y56654888D01*
X22949819Y56654888D02*
X22949819Y56416793D01*
X22949819Y56416793D02*
X22997438Y56273936D01*
X22949819Y55988221D02*
X22949819Y55416793D01*
X23949819Y55702507D02*
X22949819Y55702507D01*
X23949819Y55083459D02*
X22949819Y55083459D01*
X22949819Y55083459D02*
X23664104Y54750126D01*
X23664104Y54750126D02*
X22949819Y54416793D01*
X22949819Y54416793D02*
X23949819Y54416793D01*
X22949819Y54035840D02*
X22949819Y53416793D01*
X22949819Y53416793D02*
X23330771Y53750126D01*
X23330771Y53750126D02*
X23330771Y53607269D01*
X23330771Y53607269D02*
X23378390Y53512031D01*
X23378390Y53512031D02*
X23426009Y53464412D01*
X23426009Y53464412D02*
X23521247Y53416793D01*
X23521247Y53416793D02*
X23759342Y53416793D01*
X23759342Y53416793D02*
X23854580Y53464412D01*
X23854580Y53464412D02*
X23902200Y53512031D01*
X23902200Y53512031D02*
X23949819Y53607269D01*
X23949819Y53607269D02*
X23949819Y53892983D01*
X23949819Y53892983D02*
X23902200Y53988221D01*
X23902200Y53988221D02*
X23854580Y54035840D01*
X23045057Y53035840D02*
X22997438Y52988221D01*
X22997438Y52988221D02*
X22949819Y52892983D01*
X22949819Y52892983D02*
X22949819Y52654888D01*
X22949819Y52654888D02*
X22997438Y52559650D01*
X22997438Y52559650D02*
X23045057Y52512031D01*
X23045057Y52512031D02*
X23140295Y52464412D01*
X23140295Y52464412D02*
X23235533Y52464412D01*
X23235533Y52464412D02*
X23378390Y52512031D01*
X23378390Y52512031D02*
X23949819Y53083459D01*
X23949819Y53083459D02*
X23949819Y52464412D01*
X23426009Y51702507D02*
X23426009Y52035840D01*
X23949819Y52035840D02*
X22949819Y52035840D01*
X22949819Y52035840D02*
X22949819Y51559650D01*
X23283152Y50750126D02*
X23949819Y50750126D01*
X22902200Y50988221D02*
X23616485Y51226316D01*
X23616485Y51226316D02*
X23616485Y50607269D01*
X22949819Y50035840D02*
X22949819Y49940602D01*
X22949819Y49940602D02*
X22997438Y49845364D01*
X22997438Y49845364D02*
X23045057Y49797745D01*
X23045057Y49797745D02*
X23140295Y49750126D01*
X23140295Y49750126D02*
X23330771Y49702507D01*
X23330771Y49702507D02*
X23568866Y49702507D01*
X23568866Y49702507D02*
X23759342Y49750126D01*
X23759342Y49750126D02*
X23854580Y49797745D01*
X23854580Y49797745D02*
X23902200Y49845364D01*
X23902200Y49845364D02*
X23949819Y49940602D01*
X23949819Y49940602D02*
X23949819Y50035840D01*
X23949819Y50035840D02*
X23902200Y50131078D01*
X23902200Y50131078D02*
X23854580Y50178697D01*
X23854580Y50178697D02*
X23759342Y50226316D01*
X23759342Y50226316D02*
X23568866Y50273935D01*
X23568866Y50273935D02*
X23330771Y50273935D01*
X23330771Y50273935D02*
X23140295Y50226316D01*
X23140295Y50226316D02*
X23045057Y50178697D01*
X23045057Y50178697D02*
X22997438Y50131078D01*
X22997438Y50131078D02*
X22949819Y50035840D01*
X23045057Y49321554D02*
X22997438Y49273935D01*
X22997438Y49273935D02*
X22949819Y49178697D01*
X22949819Y49178697D02*
X22949819Y48940602D01*
X22949819Y48940602D02*
X22997438Y48845364D01*
X22997438Y48845364D02*
X23045057Y48797745D01*
X23045057Y48797745D02*
X23140295Y48750126D01*
X23140295Y48750126D02*
X23235533Y48750126D01*
X23235533Y48750126D02*
X23378390Y48797745D01*
X23378390Y48797745D02*
X23949819Y49369173D01*
X23949819Y49369173D02*
X23949819Y48750126D01*
X23949819Y47559649D02*
X23283152Y47559649D01*
X23473628Y47559649D02*
X23378390Y47512030D01*
X23378390Y47512030D02*
X23330771Y47464411D01*
X23330771Y47464411D02*
X23283152Y47369173D01*
X23283152Y47369173D02*
X23283152Y47273935D01*
X23902200Y46559649D02*
X23949819Y46654887D01*
X23949819Y46654887D02*
X23949819Y46845363D01*
X23949819Y46845363D02*
X23902200Y46940601D01*
X23902200Y46940601D02*
X23806961Y46988220D01*
X23806961Y46988220D02*
X23426009Y46988220D01*
X23426009Y46988220D02*
X23330771Y46940601D01*
X23330771Y46940601D02*
X23283152Y46845363D01*
X23283152Y46845363D02*
X23283152Y46654887D01*
X23283152Y46654887D02*
X23330771Y46559649D01*
X23330771Y46559649D02*
X23426009Y46512030D01*
X23426009Y46512030D02*
X23521247Y46512030D01*
X23521247Y46512030D02*
X23616485Y46988220D01*
X23283152Y46178696D02*
X23949819Y45940601D01*
X23949819Y45940601D02*
X23283152Y45702506D01*
X23854580Y45321553D02*
X23902200Y45273934D01*
X23902200Y45273934D02*
X23949819Y45321553D01*
X23949819Y45321553D02*
X23902200Y45369172D01*
X23902200Y45369172D02*
X23854580Y45321553D01*
X23854580Y45321553D02*
X23949819Y45321553D01*
X23949819Y43654887D02*
X23426009Y43654887D01*
X23426009Y43654887D02*
X23330771Y43702506D01*
X23330771Y43702506D02*
X23283152Y43797744D01*
X23283152Y43797744D02*
X23283152Y43988220D01*
X23283152Y43988220D02*
X23330771Y44083458D01*
X23902200Y43654887D02*
X23949819Y43750125D01*
X23949819Y43750125D02*
X23949819Y43988220D01*
X23949819Y43988220D02*
X23902200Y44083458D01*
X23902200Y44083458D02*
X23806961Y44131077D01*
X23806961Y44131077D02*
X23711723Y44131077D01*
X23711723Y44131077D02*
X23616485Y44083458D01*
X23616485Y44083458D02*
X23568866Y43988220D01*
X23568866Y43988220D02*
X23568866Y43750125D01*
X23568866Y43750125D02*
X23521247Y43654887D01*
X56877295Y27670113D02*
X56077295Y27670113D01*
X56077295Y27670113D02*
X56077295Y27365351D01*
X56077295Y27365351D02*
X56115390Y27289161D01*
X56115390Y27289161D02*
X56153485Y27251066D01*
X56153485Y27251066D02*
X56229676Y27212970D01*
X56229676Y27212970D02*
X56343961Y27212970D01*
X56343961Y27212970D02*
X56420152Y27251066D01*
X56420152Y27251066D02*
X56458247Y27289161D01*
X56458247Y27289161D02*
X56496342Y27365351D01*
X56496342Y27365351D02*
X56496342Y27670113D01*
X56801104Y26412970D02*
X56839200Y26451066D01*
X56839200Y26451066D02*
X56877295Y26565351D01*
X56877295Y26565351D02*
X56877295Y26641542D01*
X56877295Y26641542D02*
X56839200Y26755828D01*
X56839200Y26755828D02*
X56763009Y26832018D01*
X56763009Y26832018D02*
X56686819Y26870113D01*
X56686819Y26870113D02*
X56534438Y26908209D01*
X56534438Y26908209D02*
X56420152Y26908209D01*
X56420152Y26908209D02*
X56267771Y26870113D01*
X56267771Y26870113D02*
X56191580Y26832018D01*
X56191580Y26832018D02*
X56115390Y26755828D01*
X56115390Y26755828D02*
X56077295Y26641542D01*
X56077295Y26641542D02*
X56077295Y26565351D01*
X56077295Y26565351D02*
X56115390Y26451066D01*
X56115390Y26451066D02*
X56153485Y26412970D01*
X56077295Y25689161D02*
X56077295Y26070113D01*
X56077295Y26070113D02*
X56458247Y26108209D01*
X56458247Y26108209D02*
X56420152Y26070113D01*
X56420152Y26070113D02*
X56382057Y25993923D01*
X56382057Y25993923D02*
X56382057Y25803447D01*
X56382057Y25803447D02*
X56420152Y25727256D01*
X56420152Y25727256D02*
X56458247Y25689161D01*
X56458247Y25689161D02*
X56534438Y25651066D01*
X56534438Y25651066D02*
X56724914Y25651066D01*
X56724914Y25651066D02*
X56801104Y25689161D01*
X56801104Y25689161D02*
X56839200Y25727256D01*
X56839200Y25727256D02*
X56877295Y25803447D01*
X56877295Y25803447D02*
X56877295Y25993923D01*
X56877295Y25993923D02*
X56839200Y26070113D01*
X56839200Y26070113D02*
X56801104Y26108209D01*
X69577295Y66417732D02*
X68777295Y66417732D01*
X68777295Y66417732D02*
X68777295Y66112970D01*
X68777295Y66112970D02*
X68815390Y66036780D01*
X68815390Y66036780D02*
X68853485Y65998685D01*
X68853485Y65998685D02*
X68929676Y65960589D01*
X68929676Y65960589D02*
X69043961Y65960589D01*
X69043961Y65960589D02*
X69120152Y65998685D01*
X69120152Y65998685D02*
X69158247Y66036780D01*
X69158247Y66036780D02*
X69196342Y66112970D01*
X69196342Y66112970D02*
X69196342Y66417732D01*
X69348723Y65655828D02*
X69348723Y65274875D01*
X69577295Y65732018D02*
X68777295Y65465351D01*
X68777295Y65465351D02*
X69577295Y65198685D01*
X69577295Y64512971D02*
X69577295Y64970114D01*
X69577295Y64741542D02*
X68777295Y64741542D01*
X68777295Y64741542D02*
X68891580Y64817733D01*
X68891580Y64817733D02*
X68967771Y64893923D01*
X68967771Y64893923D02*
X69005866Y64970114D01*
X68853485Y64208209D02*
X68815390Y64170113D01*
X68815390Y64170113D02*
X68777295Y64093923D01*
X68777295Y64093923D02*
X68777295Y63903447D01*
X68777295Y63903447D02*
X68815390Y63827256D01*
X68815390Y63827256D02*
X68853485Y63789161D01*
X68853485Y63789161D02*
X68929676Y63751066D01*
X68929676Y63751066D02*
X69005866Y63751066D01*
X69005866Y63751066D02*
X69120152Y63789161D01*
X69120152Y63789161D02*
X69577295Y64246304D01*
X69577295Y64246304D02*
X69577295Y63751066D01*
X76397295Y18760840D02*
X77044914Y18760840D01*
X77044914Y18760840D02*
X77121104Y18722745D01*
X77121104Y18722745D02*
X77159200Y18684650D01*
X77159200Y18684650D02*
X77197295Y18608459D01*
X77197295Y18608459D02*
X77197295Y18456078D01*
X77197295Y18456078D02*
X77159200Y18379888D01*
X77159200Y18379888D02*
X77121104Y18341793D01*
X77121104Y18341793D02*
X77044914Y18303697D01*
X77044914Y18303697D02*
X76397295Y18303697D01*
X77197295Y17503698D02*
X77197295Y17960841D01*
X77197295Y17732269D02*
X76397295Y17732269D01*
X76397295Y17732269D02*
X76511580Y17808460D01*
X76511580Y17808460D02*
X76587771Y17884650D01*
X76587771Y17884650D02*
X76625866Y17960841D01*
X76397295Y56860840D02*
X77044914Y56860840D01*
X77044914Y56860840D02*
X77121104Y56822745D01*
X77121104Y56822745D02*
X77159200Y56784650D01*
X77159200Y56784650D02*
X77197295Y56708459D01*
X77197295Y56708459D02*
X77197295Y56556078D01*
X77197295Y56556078D02*
X77159200Y56479888D01*
X77159200Y56479888D02*
X77121104Y56441793D01*
X77121104Y56441793D02*
X77044914Y56403697D01*
X77044914Y56403697D02*
X76397295Y56403697D01*
X77197295Y55603698D02*
X77197295Y56060841D01*
X77197295Y55832269D02*
X76397295Y55832269D01*
X76397295Y55832269D02*
X76511580Y55908460D01*
X76511580Y55908460D02*
X76587771Y55984650D01*
X76587771Y55984650D02*
X76625866Y56060841D01*
X76663961Y54917983D02*
X77197295Y54917983D01*
X76359200Y55108459D02*
X76930628Y55298936D01*
X76930628Y55298936D02*
X76930628Y54803697D01*
X56877295Y56860840D02*
X56077295Y56860840D01*
X56077295Y56860840D02*
X56077295Y56556078D01*
X56077295Y56556078D02*
X56115390Y56479888D01*
X56115390Y56479888D02*
X56153485Y56441793D01*
X56153485Y56441793D02*
X56229676Y56403697D01*
X56229676Y56403697D02*
X56343961Y56403697D01*
X56343961Y56403697D02*
X56420152Y56441793D01*
X56420152Y56441793D02*
X56458247Y56479888D01*
X56458247Y56479888D02*
X56496342Y56556078D01*
X56496342Y56556078D02*
X56496342Y56860840D01*
X56458247Y55794174D02*
X56496342Y55679888D01*
X56496342Y55679888D02*
X56534438Y55641793D01*
X56534438Y55641793D02*
X56610628Y55603697D01*
X56610628Y55603697D02*
X56724914Y55603697D01*
X56724914Y55603697D02*
X56801104Y55641793D01*
X56801104Y55641793D02*
X56839200Y55679888D01*
X56839200Y55679888D02*
X56877295Y55756078D01*
X56877295Y55756078D02*
X56877295Y56060840D01*
X56877295Y56060840D02*
X56077295Y56060840D01*
X56077295Y56060840D02*
X56077295Y55794174D01*
X56077295Y55794174D02*
X56115390Y55717983D01*
X56115390Y55717983D02*
X56153485Y55679888D01*
X56153485Y55679888D02*
X56229676Y55641793D01*
X56229676Y55641793D02*
X56305866Y55641793D01*
X56305866Y55641793D02*
X56382057Y55679888D01*
X56382057Y55679888D02*
X56420152Y55717983D01*
X56420152Y55717983D02*
X56458247Y55794174D01*
X56458247Y55794174D02*
X56458247Y56060840D01*
X56077295Y55337031D02*
X56077295Y54841793D01*
X56077295Y54841793D02*
X56382057Y55108459D01*
X56382057Y55108459D02*
X56382057Y54994174D01*
X56382057Y54994174D02*
X56420152Y54917983D01*
X56420152Y54917983D02*
X56458247Y54879888D01*
X56458247Y54879888D02*
X56534438Y54841793D01*
X56534438Y54841793D02*
X56724914Y54841793D01*
X56724914Y54841793D02*
X56801104Y54879888D01*
X56801104Y54879888D02*
X56839200Y54917983D01*
X56839200Y54917983D02*
X56877295Y54994174D01*
X56877295Y54994174D02*
X56877295Y55222745D01*
X56877295Y55222745D02*
X56839200Y55298936D01*
X56839200Y55298936D02*
X56801104Y55337031D01*
X38297295Y56860840D02*
X38944914Y56860840D01*
X38944914Y56860840D02*
X39021104Y56822745D01*
X39021104Y56822745D02*
X39059200Y56784650D01*
X39059200Y56784650D02*
X39097295Y56708459D01*
X39097295Y56708459D02*
X39097295Y56556078D01*
X39097295Y56556078D02*
X39059200Y56479888D01*
X39059200Y56479888D02*
X39021104Y56441793D01*
X39021104Y56441793D02*
X38944914Y56403697D01*
X38944914Y56403697D02*
X38297295Y56403697D01*
X38297295Y55679888D02*
X38297295Y55832269D01*
X38297295Y55832269D02*
X38335390Y55908460D01*
X38335390Y55908460D02*
X38373485Y55946555D01*
X38373485Y55946555D02*
X38487771Y56022745D01*
X38487771Y56022745D02*
X38640152Y56060841D01*
X38640152Y56060841D02*
X38944914Y56060841D01*
X38944914Y56060841D02*
X39021104Y56022745D01*
X39021104Y56022745D02*
X39059200Y55984650D01*
X39059200Y55984650D02*
X39097295Y55908460D01*
X39097295Y55908460D02*
X39097295Y55756079D01*
X39097295Y55756079D02*
X39059200Y55679888D01*
X39059200Y55679888D02*
X39021104Y55641793D01*
X39021104Y55641793D02*
X38944914Y55603698D01*
X38944914Y55603698D02*
X38754438Y55603698D01*
X38754438Y55603698D02*
X38678247Y55641793D01*
X38678247Y55641793D02*
X38640152Y55679888D01*
X38640152Y55679888D02*
X38602057Y55756079D01*
X38602057Y55756079D02*
X38602057Y55908460D01*
X38602057Y55908460D02*
X38640152Y55984650D01*
X38640152Y55984650D02*
X38678247Y56022745D01*
X38678247Y56022745D02*
X38754438Y56060841D01*
X49257295Y27555827D02*
X48457295Y27555827D01*
X48457295Y27555827D02*
X48457295Y27251065D01*
X48457295Y27251065D02*
X48495390Y27174875D01*
X48495390Y27174875D02*
X48533485Y27136780D01*
X48533485Y27136780D02*
X48609676Y27098684D01*
X48609676Y27098684D02*
X48723961Y27098684D01*
X48723961Y27098684D02*
X48800152Y27136780D01*
X48800152Y27136780D02*
X48838247Y27174875D01*
X48838247Y27174875D02*
X48876342Y27251065D01*
X48876342Y27251065D02*
X48876342Y27555827D01*
X49028723Y26793923D02*
X49028723Y26412970D01*
X49257295Y26870113D02*
X48457295Y26603446D01*
X48457295Y26603446D02*
X49257295Y26336780D01*
X48457295Y26146304D02*
X48457295Y25651066D01*
X48457295Y25651066D02*
X48762057Y25917732D01*
X48762057Y25917732D02*
X48762057Y25803447D01*
X48762057Y25803447D02*
X48800152Y25727256D01*
X48800152Y25727256D02*
X48838247Y25689161D01*
X48838247Y25689161D02*
X48914438Y25651066D01*
X48914438Y25651066D02*
X49104914Y25651066D01*
X49104914Y25651066D02*
X49181104Y25689161D01*
X49181104Y25689161D02*
X49219200Y25727256D01*
X49219200Y25727256D02*
X49257295Y25803447D01*
X49257295Y25803447D02*
X49257295Y26032018D01*
X49257295Y26032018D02*
X49219200Y26108209D01*
X49219200Y26108209D02*
X49181104Y26146304D01*
X41637295Y27670113D02*
X40837295Y27670113D01*
X40837295Y27670113D02*
X40837295Y27365351D01*
X40837295Y27365351D02*
X40875390Y27289161D01*
X40875390Y27289161D02*
X40913485Y27251066D01*
X40913485Y27251066D02*
X40989676Y27212970D01*
X40989676Y27212970D02*
X41103961Y27212970D01*
X41103961Y27212970D02*
X41180152Y27251066D01*
X41180152Y27251066D02*
X41218247Y27289161D01*
X41218247Y27289161D02*
X41256342Y27365351D01*
X41256342Y27365351D02*
X41256342Y27670113D01*
X41561104Y26412970D02*
X41599200Y26451066D01*
X41599200Y26451066D02*
X41637295Y26565351D01*
X41637295Y26565351D02*
X41637295Y26641542D01*
X41637295Y26641542D02*
X41599200Y26755828D01*
X41599200Y26755828D02*
X41523009Y26832018D01*
X41523009Y26832018D02*
X41446819Y26870113D01*
X41446819Y26870113D02*
X41294438Y26908209D01*
X41294438Y26908209D02*
X41180152Y26908209D01*
X41180152Y26908209D02*
X41027771Y26870113D01*
X41027771Y26870113D02*
X40951580Y26832018D01*
X40951580Y26832018D02*
X40875390Y26755828D01*
X40875390Y26755828D02*
X40837295Y26641542D01*
X40837295Y26641542D02*
X40837295Y26565351D01*
X40837295Y26565351D02*
X40875390Y26451066D01*
X40875390Y26451066D02*
X40913485Y26412970D01*
X41637295Y25651066D02*
X41637295Y26108209D01*
X41637295Y25879637D02*
X40837295Y25879637D01*
X40837295Y25879637D02*
X40951580Y25955828D01*
X40951580Y25955828D02*
X41027771Y26032018D01*
X41027771Y26032018D02*
X41065866Y26108209D01*
X35757295Y65008208D02*
X36557295Y64741541D01*
X36557295Y64741541D02*
X35757295Y64474875D01*
X36138247Y63941542D02*
X36176342Y63827256D01*
X36176342Y63827256D02*
X36214438Y63789161D01*
X36214438Y63789161D02*
X36290628Y63751065D01*
X36290628Y63751065D02*
X36404914Y63751065D01*
X36404914Y63751065D02*
X36481104Y63789161D01*
X36481104Y63789161D02*
X36519200Y63827256D01*
X36519200Y63827256D02*
X36557295Y63903446D01*
X36557295Y63903446D02*
X36557295Y64208208D01*
X36557295Y64208208D02*
X35757295Y64208208D01*
X35757295Y64208208D02*
X35757295Y63941542D01*
X35757295Y63941542D02*
X35795390Y63865351D01*
X35795390Y63865351D02*
X35833485Y63827256D01*
X35833485Y63827256D02*
X35909676Y63789161D01*
X35909676Y63789161D02*
X35985866Y63789161D01*
X35985866Y63789161D02*
X36062057Y63827256D01*
X36062057Y63827256D02*
X36100152Y63865351D01*
X36100152Y63865351D02*
X36138247Y63941542D01*
X36138247Y63941542D02*
X36138247Y64208208D01*
X56877295Y18760840D02*
X56077295Y18760840D01*
X56077295Y18760840D02*
X56077295Y18456078D01*
X56077295Y18456078D02*
X56115390Y18379888D01*
X56115390Y18379888D02*
X56153485Y18341793D01*
X56153485Y18341793D02*
X56229676Y18303697D01*
X56229676Y18303697D02*
X56343961Y18303697D01*
X56343961Y18303697D02*
X56420152Y18341793D01*
X56420152Y18341793D02*
X56458247Y18379888D01*
X56458247Y18379888D02*
X56496342Y18456078D01*
X56496342Y18456078D02*
X56496342Y18760840D01*
X56801104Y17503697D02*
X56839200Y17541793D01*
X56839200Y17541793D02*
X56877295Y17656078D01*
X56877295Y17656078D02*
X56877295Y17732269D01*
X56877295Y17732269D02*
X56839200Y17846555D01*
X56839200Y17846555D02*
X56763009Y17922745D01*
X56763009Y17922745D02*
X56686819Y17960840D01*
X56686819Y17960840D02*
X56534438Y17998936D01*
X56534438Y17998936D02*
X56420152Y17998936D01*
X56420152Y17998936D02*
X56267771Y17960840D01*
X56267771Y17960840D02*
X56191580Y17922745D01*
X56191580Y17922745D02*
X56115390Y17846555D01*
X56115390Y17846555D02*
X56077295Y17732269D01*
X56077295Y17732269D02*
X56077295Y17656078D01*
X56077295Y17656078D02*
X56115390Y17541793D01*
X56115390Y17541793D02*
X56153485Y17503697D01*
X56343961Y16817983D02*
X56877295Y16817983D01*
X56039200Y17008459D02*
X56610628Y17198936D01*
X56610628Y17198936D02*
X56610628Y16703697D01*
X63697295Y56860840D02*
X64344914Y56860840D01*
X64344914Y56860840D02*
X64421104Y56822745D01*
X64421104Y56822745D02*
X64459200Y56784650D01*
X64459200Y56784650D02*
X64497295Y56708459D01*
X64497295Y56708459D02*
X64497295Y56556078D01*
X64497295Y56556078D02*
X64459200Y56479888D01*
X64459200Y56479888D02*
X64421104Y56441793D01*
X64421104Y56441793D02*
X64344914Y56403697D01*
X64344914Y56403697D02*
X63697295Y56403697D01*
X64497295Y55603698D02*
X64497295Y56060841D01*
X64497295Y55832269D02*
X63697295Y55832269D01*
X63697295Y55832269D02*
X63811580Y55908460D01*
X63811580Y55908460D02*
X63887771Y55984650D01*
X63887771Y55984650D02*
X63925866Y56060841D01*
X63773485Y55298936D02*
X63735390Y55260840D01*
X63735390Y55260840D02*
X63697295Y55184650D01*
X63697295Y55184650D02*
X63697295Y54994174D01*
X63697295Y54994174D02*
X63735390Y54917983D01*
X63735390Y54917983D02*
X63773485Y54879888D01*
X63773485Y54879888D02*
X63849676Y54841793D01*
X63849676Y54841793D02*
X63925866Y54841793D01*
X63925866Y54841793D02*
X64040152Y54879888D01*
X64040152Y54879888D02*
X64497295Y55337031D01*
X64497295Y55337031D02*
X64497295Y54841793D01*
X64497295Y18760840D02*
X63697295Y18760840D01*
X63697295Y18760840D02*
X63697295Y18456078D01*
X63697295Y18456078D02*
X63735390Y18379888D01*
X63735390Y18379888D02*
X63773485Y18341793D01*
X63773485Y18341793D02*
X63849676Y18303697D01*
X63849676Y18303697D02*
X63963961Y18303697D01*
X63963961Y18303697D02*
X64040152Y18341793D01*
X64040152Y18341793D02*
X64078247Y18379888D01*
X64078247Y18379888D02*
X64116342Y18456078D01*
X64116342Y18456078D02*
X64116342Y18760840D01*
X64078247Y17694174D02*
X64116342Y17579888D01*
X64116342Y17579888D02*
X64154438Y17541793D01*
X64154438Y17541793D02*
X64230628Y17503697D01*
X64230628Y17503697D02*
X64344914Y17503697D01*
X64344914Y17503697D02*
X64421104Y17541793D01*
X64421104Y17541793D02*
X64459200Y17579888D01*
X64459200Y17579888D02*
X64497295Y17656078D01*
X64497295Y17656078D02*
X64497295Y17960840D01*
X64497295Y17960840D02*
X63697295Y17960840D01*
X63697295Y17960840D02*
X63697295Y17694174D01*
X63697295Y17694174D02*
X63735390Y17617983D01*
X63735390Y17617983D02*
X63773485Y17579888D01*
X63773485Y17579888D02*
X63849676Y17541793D01*
X63849676Y17541793D02*
X63925866Y17541793D01*
X63925866Y17541793D02*
X64002057Y17579888D01*
X64002057Y17579888D02*
X64040152Y17617983D01*
X64040152Y17617983D02*
X64078247Y17694174D01*
X64078247Y17694174D02*
X64078247Y17960840D01*
X64497295Y16741793D02*
X64497295Y17198936D01*
X64497295Y16970364D02*
X63697295Y16970364D01*
X63697295Y16970364D02*
X63811580Y17046555D01*
X63811580Y17046555D02*
X63887771Y17122745D01*
X63887771Y17122745D02*
X63925866Y17198936D01*
X63697295Y16246554D02*
X63697295Y16170364D01*
X63697295Y16170364D02*
X63735390Y16094173D01*
X63735390Y16094173D02*
X63773485Y16056078D01*
X63773485Y16056078D02*
X63849676Y16017983D01*
X63849676Y16017983D02*
X64002057Y15979888D01*
X64002057Y15979888D02*
X64192533Y15979888D01*
X64192533Y15979888D02*
X64344914Y16017983D01*
X64344914Y16017983D02*
X64421104Y16056078D01*
X64421104Y16056078D02*
X64459200Y16094173D01*
X64459200Y16094173D02*
X64497295Y16170364D01*
X64497295Y16170364D02*
X64497295Y16246554D01*
X64497295Y16246554D02*
X64459200Y16322745D01*
X64459200Y16322745D02*
X64421104Y16360840D01*
X64421104Y16360840D02*
X64344914Y16398935D01*
X64344914Y16398935D02*
X64192533Y16437031D01*
X64192533Y16437031D02*
X64002057Y16437031D01*
X64002057Y16437031D02*
X63849676Y16398935D01*
X63849676Y16398935D02*
X63773485Y16360840D01*
X63773485Y16360840D02*
X63735390Y16322745D01*
X63735390Y16322745D02*
X63697295Y16246554D01*
X59417295Y66532018D02*
X58617295Y66532018D01*
X58617295Y66532018D02*
X58617295Y66227256D01*
X58617295Y66227256D02*
X58655390Y66151066D01*
X58655390Y66151066D02*
X58693485Y66112971D01*
X58693485Y66112971D02*
X58769676Y66074875D01*
X58769676Y66074875D02*
X58883961Y66074875D01*
X58883961Y66074875D02*
X58960152Y66112971D01*
X58960152Y66112971D02*
X58998247Y66151066D01*
X58998247Y66151066D02*
X59036342Y66227256D01*
X59036342Y66227256D02*
X59036342Y66532018D01*
X59341104Y65274875D02*
X59379200Y65312971D01*
X59379200Y65312971D02*
X59417295Y65427256D01*
X59417295Y65427256D02*
X59417295Y65503447D01*
X59417295Y65503447D02*
X59379200Y65617733D01*
X59379200Y65617733D02*
X59303009Y65693923D01*
X59303009Y65693923D02*
X59226819Y65732018D01*
X59226819Y65732018D02*
X59074438Y65770114D01*
X59074438Y65770114D02*
X58960152Y65770114D01*
X58960152Y65770114D02*
X58807771Y65732018D01*
X58807771Y65732018D02*
X58731580Y65693923D01*
X58731580Y65693923D02*
X58655390Y65617733D01*
X58655390Y65617733D02*
X58617295Y65503447D01*
X58617295Y65503447D02*
X58617295Y65427256D01*
X58617295Y65427256D02*
X58655390Y65312971D01*
X58655390Y65312971D02*
X58693485Y65274875D01*
X59417295Y64512971D02*
X59417295Y64970114D01*
X59417295Y64741542D02*
X58617295Y64741542D01*
X58617295Y64741542D02*
X58731580Y64817733D01*
X58731580Y64817733D02*
X58807771Y64893923D01*
X58807771Y64893923D02*
X58845866Y64970114D01*
X58693485Y64208209D02*
X58655390Y64170113D01*
X58655390Y64170113D02*
X58617295Y64093923D01*
X58617295Y64093923D02*
X58617295Y63903447D01*
X58617295Y63903447D02*
X58655390Y63827256D01*
X58655390Y63827256D02*
X58693485Y63789161D01*
X58693485Y63789161D02*
X58769676Y63751066D01*
X58769676Y63751066D02*
X58845866Y63751066D01*
X58845866Y63751066D02*
X58960152Y63789161D01*
X58960152Y63789161D02*
X59417295Y64246304D01*
X59417295Y64246304D02*
X59417295Y63751066D01*
X61157295Y26908208D02*
X61804914Y26908208D01*
X61804914Y26908208D02*
X61881104Y26870113D01*
X61881104Y26870113D02*
X61919200Y26832018D01*
X61919200Y26832018D02*
X61957295Y26755827D01*
X61957295Y26755827D02*
X61957295Y26603446D01*
X61957295Y26603446D02*
X61919200Y26527256D01*
X61919200Y26527256D02*
X61881104Y26489161D01*
X61881104Y26489161D02*
X61804914Y26451065D01*
X61804914Y26451065D02*
X61157295Y26451065D01*
X61157295Y25917732D02*
X61157295Y25841542D01*
X61157295Y25841542D02*
X61195390Y25765351D01*
X61195390Y25765351D02*
X61233485Y25727256D01*
X61233485Y25727256D02*
X61309676Y25689161D01*
X61309676Y25689161D02*
X61462057Y25651066D01*
X61462057Y25651066D02*
X61652533Y25651066D01*
X61652533Y25651066D02*
X61804914Y25689161D01*
X61804914Y25689161D02*
X61881104Y25727256D01*
X61881104Y25727256D02*
X61919200Y25765351D01*
X61919200Y25765351D02*
X61957295Y25841542D01*
X61957295Y25841542D02*
X61957295Y25917732D01*
X61957295Y25917732D02*
X61919200Y25993923D01*
X61919200Y25993923D02*
X61881104Y26032018D01*
X61881104Y26032018D02*
X61804914Y26070113D01*
X61804914Y26070113D02*
X61652533Y26108209D01*
X61652533Y26108209D02*
X61462057Y26108209D01*
X61462057Y26108209D02*
X61309676Y26070113D01*
X61309676Y26070113D02*
X61233485Y26032018D01*
X61233485Y26032018D02*
X61195390Y25993923D01*
X61195390Y25993923D02*
X61157295Y25917732D01*
X44177295Y18760840D02*
X43377295Y18760840D01*
X43377295Y18760840D02*
X43377295Y18456078D01*
X43377295Y18456078D02*
X43415390Y18379888D01*
X43415390Y18379888D02*
X43453485Y18341793D01*
X43453485Y18341793D02*
X43529676Y18303697D01*
X43529676Y18303697D02*
X43643961Y18303697D01*
X43643961Y18303697D02*
X43720152Y18341793D01*
X43720152Y18341793D02*
X43758247Y18379888D01*
X43758247Y18379888D02*
X43796342Y18456078D01*
X43796342Y18456078D02*
X43796342Y18760840D01*
X44101104Y17503697D02*
X44139200Y17541793D01*
X44139200Y17541793D02*
X44177295Y17656078D01*
X44177295Y17656078D02*
X44177295Y17732269D01*
X44177295Y17732269D02*
X44139200Y17846555D01*
X44139200Y17846555D02*
X44063009Y17922745D01*
X44063009Y17922745D02*
X43986819Y17960840D01*
X43986819Y17960840D02*
X43834438Y17998936D01*
X43834438Y17998936D02*
X43720152Y17998936D01*
X43720152Y17998936D02*
X43567771Y17960840D01*
X43567771Y17960840D02*
X43491580Y17922745D01*
X43491580Y17922745D02*
X43415390Y17846555D01*
X43415390Y17846555D02*
X43377295Y17732269D01*
X43377295Y17732269D02*
X43377295Y17656078D01*
X43377295Y17656078D02*
X43415390Y17541793D01*
X43415390Y17541793D02*
X43453485Y17503697D01*
X43453485Y17198936D02*
X43415390Y17160840D01*
X43415390Y17160840D02*
X43377295Y17084650D01*
X43377295Y17084650D02*
X43377295Y16894174D01*
X43377295Y16894174D02*
X43415390Y16817983D01*
X43415390Y16817983D02*
X43453485Y16779888D01*
X43453485Y16779888D02*
X43529676Y16741793D01*
X43529676Y16741793D02*
X43605866Y16741793D01*
X43605866Y16741793D02*
X43720152Y16779888D01*
X43720152Y16779888D02*
X44177295Y17237031D01*
X44177295Y17237031D02*
X44177295Y16741793D01*
X54337295Y18760840D02*
X53537295Y18760840D01*
X53537295Y18760840D02*
X53537295Y18456078D01*
X53537295Y18456078D02*
X53575390Y18379888D01*
X53575390Y18379888D02*
X53613485Y18341793D01*
X53613485Y18341793D02*
X53689676Y18303697D01*
X53689676Y18303697D02*
X53803961Y18303697D01*
X53803961Y18303697D02*
X53880152Y18341793D01*
X53880152Y18341793D02*
X53918247Y18379888D01*
X53918247Y18379888D02*
X53956342Y18456078D01*
X53956342Y18456078D02*
X53956342Y18760840D01*
X54108723Y17998936D02*
X54108723Y17617983D01*
X54337295Y18075126D02*
X53537295Y17808459D01*
X53537295Y17808459D02*
X54337295Y17541793D01*
X53537295Y16932269D02*
X53537295Y17084650D01*
X53537295Y17084650D02*
X53575390Y17160841D01*
X53575390Y17160841D02*
X53613485Y17198936D01*
X53613485Y17198936D02*
X53727771Y17275126D01*
X53727771Y17275126D02*
X53880152Y17313222D01*
X53880152Y17313222D02*
X54184914Y17313222D01*
X54184914Y17313222D02*
X54261104Y17275126D01*
X54261104Y17275126D02*
X54299200Y17237031D01*
X54299200Y17237031D02*
X54337295Y17160841D01*
X54337295Y17160841D02*
X54337295Y17008460D01*
X54337295Y17008460D02*
X54299200Y16932269D01*
X54299200Y16932269D02*
X54261104Y16894174D01*
X54261104Y16894174D02*
X54184914Y16856079D01*
X54184914Y16856079D02*
X53994438Y16856079D01*
X53994438Y16856079D02*
X53918247Y16894174D01*
X53918247Y16894174D02*
X53880152Y16932269D01*
X53880152Y16932269D02*
X53842057Y17008460D01*
X53842057Y17008460D02*
X53842057Y17160841D01*
X53842057Y17160841D02*
X53880152Y17237031D01*
X53880152Y17237031D02*
X53918247Y17275126D01*
X53918247Y17275126D02*
X53994438Y17313222D01*
X54337295Y27555827D02*
X53537295Y27555827D01*
X53537295Y27555827D02*
X53537295Y27251065D01*
X53537295Y27251065D02*
X53575390Y27174875D01*
X53575390Y27174875D02*
X53613485Y27136780D01*
X53613485Y27136780D02*
X53689676Y27098684D01*
X53689676Y27098684D02*
X53803961Y27098684D01*
X53803961Y27098684D02*
X53880152Y27136780D01*
X53880152Y27136780D02*
X53918247Y27174875D01*
X53918247Y27174875D02*
X53956342Y27251065D01*
X53956342Y27251065D02*
X53956342Y27555827D01*
X54108723Y26793923D02*
X54108723Y26412970D01*
X54337295Y26870113D02*
X53537295Y26603446D01*
X53537295Y26603446D02*
X54337295Y26336780D01*
X53537295Y26146304D02*
X53537295Y25612970D01*
X53537295Y25612970D02*
X54337295Y25955828D01*
X35795390Y27327256D02*
X35757295Y27403446D01*
X35757295Y27403446D02*
X35757295Y27517732D01*
X35757295Y27517732D02*
X35795390Y27632018D01*
X35795390Y27632018D02*
X35871580Y27708208D01*
X35871580Y27708208D02*
X35947771Y27746303D01*
X35947771Y27746303D02*
X36100152Y27784399D01*
X36100152Y27784399D02*
X36214438Y27784399D01*
X36214438Y27784399D02*
X36366819Y27746303D01*
X36366819Y27746303D02*
X36443009Y27708208D01*
X36443009Y27708208D02*
X36519200Y27632018D01*
X36519200Y27632018D02*
X36557295Y27517732D01*
X36557295Y27517732D02*
X36557295Y27441541D01*
X36557295Y27441541D02*
X36519200Y27327256D01*
X36519200Y27327256D02*
X36481104Y27289160D01*
X36481104Y27289160D02*
X36214438Y27289160D01*
X36214438Y27289160D02*
X36214438Y27441541D01*
X36557295Y26946303D02*
X35757295Y26946303D01*
X35757295Y26946303D02*
X36557295Y26489160D01*
X36557295Y26489160D02*
X35757295Y26489160D01*
X36557295Y26108208D02*
X35757295Y26108208D01*
X35757295Y26108208D02*
X35757295Y25917732D01*
X35757295Y25917732D02*
X35795390Y25803446D01*
X35795390Y25803446D02*
X35871580Y25727256D01*
X35871580Y25727256D02*
X35947771Y25689161D01*
X35947771Y25689161D02*
X36100152Y25651065D01*
X36100152Y25651065D02*
X36214438Y25651065D01*
X36214438Y25651065D02*
X36366819Y25689161D01*
X36366819Y25689161D02*
X36443009Y25727256D01*
X36443009Y25727256D02*
X36519200Y25803446D01*
X36519200Y25803446D02*
X36557295Y25917732D01*
X36557295Y25917732D02*
X36557295Y26108208D01*
X74657295Y56860840D02*
X73857295Y56860840D01*
X73857295Y56860840D02*
X73857295Y56556078D01*
X73857295Y56556078D02*
X73895390Y56479888D01*
X73895390Y56479888D02*
X73933485Y56441793D01*
X73933485Y56441793D02*
X74009676Y56403697D01*
X74009676Y56403697D02*
X74123961Y56403697D01*
X74123961Y56403697D02*
X74200152Y56441793D01*
X74200152Y56441793D02*
X74238247Y56479888D01*
X74238247Y56479888D02*
X74276342Y56556078D01*
X74276342Y56556078D02*
X74276342Y56860840D01*
X74428723Y56098936D02*
X74428723Y55717983D01*
X74657295Y56175126D02*
X73857295Y55908459D01*
X73857295Y55908459D02*
X74657295Y55641793D01*
X74657295Y55337031D02*
X74657295Y55184650D01*
X74657295Y55184650D02*
X74619200Y55108460D01*
X74619200Y55108460D02*
X74581104Y55070364D01*
X74581104Y55070364D02*
X74466819Y54994174D01*
X74466819Y54994174D02*
X74314438Y54956079D01*
X74314438Y54956079D02*
X74009676Y54956079D01*
X74009676Y54956079D02*
X73933485Y54994174D01*
X73933485Y54994174D02*
X73895390Y55032269D01*
X73895390Y55032269D02*
X73857295Y55108460D01*
X73857295Y55108460D02*
X73857295Y55260841D01*
X73857295Y55260841D02*
X73895390Y55337031D01*
X73895390Y55337031D02*
X73933485Y55375126D01*
X73933485Y55375126D02*
X74009676Y55413222D01*
X74009676Y55413222D02*
X74200152Y55413222D01*
X74200152Y55413222D02*
X74276342Y55375126D01*
X74276342Y55375126D02*
X74314438Y55337031D01*
X74314438Y55337031D02*
X74352533Y55260841D01*
X74352533Y55260841D02*
X74352533Y55108460D01*
X74352533Y55108460D02*
X74314438Y55032269D01*
X74314438Y55032269D02*
X74276342Y54994174D01*
X74276342Y54994174D02*
X74200152Y54956079D01*
X63697295Y65770113D02*
X64344914Y65770113D01*
X64344914Y65770113D02*
X64421104Y65732018D01*
X64421104Y65732018D02*
X64459200Y65693923D01*
X64459200Y65693923D02*
X64497295Y65617732D01*
X64497295Y65617732D02*
X64497295Y65465351D01*
X64497295Y65465351D02*
X64459200Y65389161D01*
X64459200Y65389161D02*
X64421104Y65351066D01*
X64421104Y65351066D02*
X64344914Y65312970D01*
X64344914Y65312970D02*
X63697295Y65312970D01*
X64497295Y64512971D02*
X64497295Y64970114D01*
X64497295Y64741542D02*
X63697295Y64741542D01*
X63697295Y64741542D02*
X63811580Y64817733D01*
X63811580Y64817733D02*
X63887771Y64893923D01*
X63887771Y64893923D02*
X63925866Y64970114D01*
X64497295Y63751066D02*
X64497295Y64208209D01*
X64497295Y63979637D02*
X63697295Y63979637D01*
X63697295Y63979637D02*
X63811580Y64055828D01*
X63811580Y64055828D02*
X63887771Y64132018D01*
X63887771Y64132018D02*
X63925866Y64208209D01*
X72117295Y56860840D02*
X71317295Y56860840D01*
X71317295Y56860840D02*
X71317295Y56556078D01*
X71317295Y56556078D02*
X71355390Y56479888D01*
X71355390Y56479888D02*
X71393485Y56441793D01*
X71393485Y56441793D02*
X71469676Y56403697D01*
X71469676Y56403697D02*
X71583961Y56403697D01*
X71583961Y56403697D02*
X71660152Y56441793D01*
X71660152Y56441793D02*
X71698247Y56479888D01*
X71698247Y56479888D02*
X71736342Y56556078D01*
X71736342Y56556078D02*
X71736342Y56860840D01*
X71888723Y56098936D02*
X71888723Y55717983D01*
X72117295Y56175126D02*
X71317295Y55908459D01*
X71317295Y55908459D02*
X72117295Y55641793D01*
X72117295Y54956079D02*
X72117295Y55413222D01*
X72117295Y55184650D02*
X71317295Y55184650D01*
X71317295Y55184650D02*
X71431580Y55260841D01*
X71431580Y55260841D02*
X71507771Y55337031D01*
X71507771Y55337031D02*
X71545866Y55413222D01*
X72117295Y54194174D02*
X72117295Y54651317D01*
X72117295Y54422745D02*
X71317295Y54422745D01*
X71317295Y54422745D02*
X71431580Y54498936D01*
X71431580Y54498936D02*
X71507771Y54575126D01*
X71507771Y54575126D02*
X71545866Y54651317D01*
X54337295Y56860840D02*
X53537295Y56860840D01*
X53537295Y56860840D02*
X53537295Y56556078D01*
X53537295Y56556078D02*
X53575390Y56479888D01*
X53575390Y56479888D02*
X53613485Y56441793D01*
X53613485Y56441793D02*
X53689676Y56403697D01*
X53689676Y56403697D02*
X53803961Y56403697D01*
X53803961Y56403697D02*
X53880152Y56441793D01*
X53880152Y56441793D02*
X53918247Y56479888D01*
X53918247Y56479888D02*
X53956342Y56556078D01*
X53956342Y56556078D02*
X53956342Y56860840D01*
X53918247Y55794174D02*
X53956342Y55679888D01*
X53956342Y55679888D02*
X53994438Y55641793D01*
X53994438Y55641793D02*
X54070628Y55603697D01*
X54070628Y55603697D02*
X54184914Y55603697D01*
X54184914Y55603697D02*
X54261104Y55641793D01*
X54261104Y55641793D02*
X54299200Y55679888D01*
X54299200Y55679888D02*
X54337295Y55756078D01*
X54337295Y55756078D02*
X54337295Y56060840D01*
X54337295Y56060840D02*
X53537295Y56060840D01*
X53537295Y56060840D02*
X53537295Y55794174D01*
X53537295Y55794174D02*
X53575390Y55717983D01*
X53575390Y55717983D02*
X53613485Y55679888D01*
X53613485Y55679888D02*
X53689676Y55641793D01*
X53689676Y55641793D02*
X53765866Y55641793D01*
X53765866Y55641793D02*
X53842057Y55679888D01*
X53842057Y55679888D02*
X53880152Y55717983D01*
X53880152Y55717983D02*
X53918247Y55794174D01*
X53918247Y55794174D02*
X53918247Y56060840D01*
X53537295Y54879888D02*
X53537295Y55260840D01*
X53537295Y55260840D02*
X53918247Y55298936D01*
X53918247Y55298936D02*
X53880152Y55260840D01*
X53880152Y55260840D02*
X53842057Y55184650D01*
X53842057Y55184650D02*
X53842057Y54994174D01*
X53842057Y54994174D02*
X53880152Y54917983D01*
X53880152Y54917983D02*
X53918247Y54879888D01*
X53918247Y54879888D02*
X53994438Y54841793D01*
X53994438Y54841793D02*
X54184914Y54841793D01*
X54184914Y54841793D02*
X54261104Y54879888D01*
X54261104Y54879888D02*
X54299200Y54917983D01*
X54299200Y54917983D02*
X54337295Y54994174D01*
X54337295Y54994174D02*
X54337295Y55184650D01*
X54337295Y55184650D02*
X54299200Y55260840D01*
X54299200Y55260840D02*
X54261104Y55298936D01*
X51797295Y65770113D02*
X50997295Y65770113D01*
X50997295Y65770113D02*
X50997295Y65465351D01*
X50997295Y65465351D02*
X51035390Y65389161D01*
X51035390Y65389161D02*
X51073485Y65351066D01*
X51073485Y65351066D02*
X51149676Y65312970D01*
X51149676Y65312970D02*
X51263961Y65312970D01*
X51263961Y65312970D02*
X51340152Y65351066D01*
X51340152Y65351066D02*
X51378247Y65389161D01*
X51378247Y65389161D02*
X51416342Y65465351D01*
X51416342Y65465351D02*
X51416342Y65770113D01*
X51378247Y64703447D02*
X51416342Y64589161D01*
X51416342Y64589161D02*
X51454438Y64551066D01*
X51454438Y64551066D02*
X51530628Y64512970D01*
X51530628Y64512970D02*
X51644914Y64512970D01*
X51644914Y64512970D02*
X51721104Y64551066D01*
X51721104Y64551066D02*
X51759200Y64589161D01*
X51759200Y64589161D02*
X51797295Y64665351D01*
X51797295Y64665351D02*
X51797295Y64970113D01*
X51797295Y64970113D02*
X50997295Y64970113D01*
X50997295Y64970113D02*
X50997295Y64703447D01*
X50997295Y64703447D02*
X51035390Y64627256D01*
X51035390Y64627256D02*
X51073485Y64589161D01*
X51073485Y64589161D02*
X51149676Y64551066D01*
X51149676Y64551066D02*
X51225866Y64551066D01*
X51225866Y64551066D02*
X51302057Y64589161D01*
X51302057Y64589161D02*
X51340152Y64627256D01*
X51340152Y64627256D02*
X51378247Y64703447D01*
X51378247Y64703447D02*
X51378247Y64970113D01*
X50997295Y63827256D02*
X50997295Y63979637D01*
X50997295Y63979637D02*
X51035390Y64055828D01*
X51035390Y64055828D02*
X51073485Y64093923D01*
X51073485Y64093923D02*
X51187771Y64170113D01*
X51187771Y64170113D02*
X51340152Y64208209D01*
X51340152Y64208209D02*
X51644914Y64208209D01*
X51644914Y64208209D02*
X51721104Y64170113D01*
X51721104Y64170113D02*
X51759200Y64132018D01*
X51759200Y64132018D02*
X51797295Y64055828D01*
X51797295Y64055828D02*
X51797295Y63903447D01*
X51797295Y63903447D02*
X51759200Y63827256D01*
X51759200Y63827256D02*
X51721104Y63789161D01*
X51721104Y63789161D02*
X51644914Y63751066D01*
X51644914Y63751066D02*
X51454438Y63751066D01*
X51454438Y63751066D02*
X51378247Y63789161D01*
X51378247Y63789161D02*
X51340152Y63827256D01*
X51340152Y63827256D02*
X51302057Y63903447D01*
X51302057Y63903447D02*
X51302057Y64055828D01*
X51302057Y64055828D02*
X51340152Y64132018D01*
X51340152Y64132018D02*
X51378247Y64170113D01*
X51378247Y64170113D02*
X51454438Y64208209D01*
X64497295Y28432018D02*
X63697295Y28432018D01*
X63697295Y28432018D02*
X63697295Y28127256D01*
X63697295Y28127256D02*
X63735390Y28051066D01*
X63735390Y28051066D02*
X63773485Y28012971D01*
X63773485Y28012971D02*
X63849676Y27974875D01*
X63849676Y27974875D02*
X63963961Y27974875D01*
X63963961Y27974875D02*
X64040152Y28012971D01*
X64040152Y28012971D02*
X64078247Y28051066D01*
X64078247Y28051066D02*
X64116342Y28127256D01*
X64116342Y28127256D02*
X64116342Y28432018D01*
X64078247Y27365352D02*
X64116342Y27251066D01*
X64116342Y27251066D02*
X64154438Y27212971D01*
X64154438Y27212971D02*
X64230628Y27174875D01*
X64230628Y27174875D02*
X64344914Y27174875D01*
X64344914Y27174875D02*
X64421104Y27212971D01*
X64421104Y27212971D02*
X64459200Y27251066D01*
X64459200Y27251066D02*
X64497295Y27327256D01*
X64497295Y27327256D02*
X64497295Y27632018D01*
X64497295Y27632018D02*
X63697295Y27632018D01*
X63697295Y27632018D02*
X63697295Y27365352D01*
X63697295Y27365352D02*
X63735390Y27289161D01*
X63735390Y27289161D02*
X63773485Y27251066D01*
X63773485Y27251066D02*
X63849676Y27212971D01*
X63849676Y27212971D02*
X63925866Y27212971D01*
X63925866Y27212971D02*
X64002057Y27251066D01*
X64002057Y27251066D02*
X64040152Y27289161D01*
X64040152Y27289161D02*
X64078247Y27365352D01*
X64078247Y27365352D02*
X64078247Y27632018D01*
X64497295Y26412971D02*
X64497295Y26870114D01*
X64497295Y26641542D02*
X63697295Y26641542D01*
X63697295Y26641542D02*
X63811580Y26717733D01*
X63811580Y26717733D02*
X63887771Y26793923D01*
X63887771Y26793923D02*
X63925866Y26870114D01*
X64497295Y25651066D02*
X64497295Y26108209D01*
X64497295Y25879637D02*
X63697295Y25879637D01*
X63697295Y25879637D02*
X63811580Y25955828D01*
X63811580Y25955828D02*
X63887771Y26032018D01*
X63887771Y26032018D02*
X63925866Y26108209D01*
X61957295Y66532018D02*
X61157295Y66532018D01*
X61157295Y66532018D02*
X61157295Y66227256D01*
X61157295Y66227256D02*
X61195390Y66151066D01*
X61195390Y66151066D02*
X61233485Y66112971D01*
X61233485Y66112971D02*
X61309676Y66074875D01*
X61309676Y66074875D02*
X61423961Y66074875D01*
X61423961Y66074875D02*
X61500152Y66112971D01*
X61500152Y66112971D02*
X61538247Y66151066D01*
X61538247Y66151066D02*
X61576342Y66227256D01*
X61576342Y66227256D02*
X61576342Y66532018D01*
X61881104Y65274875D02*
X61919200Y65312971D01*
X61919200Y65312971D02*
X61957295Y65427256D01*
X61957295Y65427256D02*
X61957295Y65503447D01*
X61957295Y65503447D02*
X61919200Y65617733D01*
X61919200Y65617733D02*
X61843009Y65693923D01*
X61843009Y65693923D02*
X61766819Y65732018D01*
X61766819Y65732018D02*
X61614438Y65770114D01*
X61614438Y65770114D02*
X61500152Y65770114D01*
X61500152Y65770114D02*
X61347771Y65732018D01*
X61347771Y65732018D02*
X61271580Y65693923D01*
X61271580Y65693923D02*
X61195390Y65617733D01*
X61195390Y65617733D02*
X61157295Y65503447D01*
X61157295Y65503447D02*
X61157295Y65427256D01*
X61157295Y65427256D02*
X61195390Y65312971D01*
X61195390Y65312971D02*
X61233485Y65274875D01*
X61957295Y64512971D02*
X61957295Y64970114D01*
X61957295Y64741542D02*
X61157295Y64741542D01*
X61157295Y64741542D02*
X61271580Y64817733D01*
X61271580Y64817733D02*
X61347771Y64893923D01*
X61347771Y64893923D02*
X61385866Y64970114D01*
X61157295Y64017732D02*
X61157295Y63941542D01*
X61157295Y63941542D02*
X61195390Y63865351D01*
X61195390Y63865351D02*
X61233485Y63827256D01*
X61233485Y63827256D02*
X61309676Y63789161D01*
X61309676Y63789161D02*
X61462057Y63751066D01*
X61462057Y63751066D02*
X61652533Y63751066D01*
X61652533Y63751066D02*
X61804914Y63789161D01*
X61804914Y63789161D02*
X61881104Y63827256D01*
X61881104Y63827256D02*
X61919200Y63865351D01*
X61919200Y63865351D02*
X61957295Y63941542D01*
X61957295Y63941542D02*
X61957295Y64017732D01*
X61957295Y64017732D02*
X61919200Y64093923D01*
X61919200Y64093923D02*
X61881104Y64132018D01*
X61881104Y64132018D02*
X61804914Y64170113D01*
X61804914Y64170113D02*
X61652533Y64208209D01*
X61652533Y64208209D02*
X61462057Y64208209D01*
X61462057Y64208209D02*
X61309676Y64170113D01*
X61309676Y64170113D02*
X61233485Y64132018D01*
X61233485Y64132018D02*
X61195390Y64093923D01*
X61195390Y64093923D02*
X61157295Y64017732D01*
X78937295Y18760840D02*
X79584914Y18760840D01*
X79584914Y18760840D02*
X79661104Y18722745D01*
X79661104Y18722745D02*
X79699200Y18684650D01*
X79699200Y18684650D02*
X79737295Y18608459D01*
X79737295Y18608459D02*
X79737295Y18456078D01*
X79737295Y18456078D02*
X79699200Y18379888D01*
X79699200Y18379888D02*
X79661104Y18341793D01*
X79661104Y18341793D02*
X79584914Y18303697D01*
X79584914Y18303697D02*
X78937295Y18303697D01*
X78937295Y17998936D02*
X78937295Y17503698D01*
X78937295Y17503698D02*
X79242057Y17770364D01*
X79242057Y17770364D02*
X79242057Y17656079D01*
X79242057Y17656079D02*
X79280152Y17579888D01*
X79280152Y17579888D02*
X79318247Y17541793D01*
X79318247Y17541793D02*
X79394438Y17503698D01*
X79394438Y17503698D02*
X79584914Y17503698D01*
X79584914Y17503698D02*
X79661104Y17541793D01*
X79661104Y17541793D02*
X79699200Y17579888D01*
X79699200Y17579888D02*
X79737295Y17656079D01*
X79737295Y17656079D02*
X79737295Y17884650D01*
X79737295Y17884650D02*
X79699200Y17960841D01*
X79699200Y17960841D02*
X79661104Y17998936D01*
X49257295Y65770113D02*
X48457295Y65770113D01*
X48457295Y65770113D02*
X48457295Y65465351D01*
X48457295Y65465351D02*
X48495390Y65389161D01*
X48495390Y65389161D02*
X48533485Y65351066D01*
X48533485Y65351066D02*
X48609676Y65312970D01*
X48609676Y65312970D02*
X48723961Y65312970D01*
X48723961Y65312970D02*
X48800152Y65351066D01*
X48800152Y65351066D02*
X48838247Y65389161D01*
X48838247Y65389161D02*
X48876342Y65465351D01*
X48876342Y65465351D02*
X48876342Y65770113D01*
X48838247Y64703447D02*
X48876342Y64589161D01*
X48876342Y64589161D02*
X48914438Y64551066D01*
X48914438Y64551066D02*
X48990628Y64512970D01*
X48990628Y64512970D02*
X49104914Y64512970D01*
X49104914Y64512970D02*
X49181104Y64551066D01*
X49181104Y64551066D02*
X49219200Y64589161D01*
X49219200Y64589161D02*
X49257295Y64665351D01*
X49257295Y64665351D02*
X49257295Y64970113D01*
X49257295Y64970113D02*
X48457295Y64970113D01*
X48457295Y64970113D02*
X48457295Y64703447D01*
X48457295Y64703447D02*
X48495390Y64627256D01*
X48495390Y64627256D02*
X48533485Y64589161D01*
X48533485Y64589161D02*
X48609676Y64551066D01*
X48609676Y64551066D02*
X48685866Y64551066D01*
X48685866Y64551066D02*
X48762057Y64589161D01*
X48762057Y64589161D02*
X48800152Y64627256D01*
X48800152Y64627256D02*
X48838247Y64703447D01*
X48838247Y64703447D02*
X48838247Y64970113D01*
X48800152Y64055828D02*
X48762057Y64132018D01*
X48762057Y64132018D02*
X48723961Y64170113D01*
X48723961Y64170113D02*
X48647771Y64208209D01*
X48647771Y64208209D02*
X48609676Y64208209D01*
X48609676Y64208209D02*
X48533485Y64170113D01*
X48533485Y64170113D02*
X48495390Y64132018D01*
X48495390Y64132018D02*
X48457295Y64055828D01*
X48457295Y64055828D02*
X48457295Y63903447D01*
X48457295Y63903447D02*
X48495390Y63827256D01*
X48495390Y63827256D02*
X48533485Y63789161D01*
X48533485Y63789161D02*
X48609676Y63751066D01*
X48609676Y63751066D02*
X48647771Y63751066D01*
X48647771Y63751066D02*
X48723961Y63789161D01*
X48723961Y63789161D02*
X48762057Y63827256D01*
X48762057Y63827256D02*
X48800152Y63903447D01*
X48800152Y63903447D02*
X48800152Y64055828D01*
X48800152Y64055828D02*
X48838247Y64132018D01*
X48838247Y64132018D02*
X48876342Y64170113D01*
X48876342Y64170113D02*
X48952533Y64208209D01*
X48952533Y64208209D02*
X49104914Y64208209D01*
X49104914Y64208209D02*
X49181104Y64170113D01*
X49181104Y64170113D02*
X49219200Y64132018D01*
X49219200Y64132018D02*
X49257295Y64055828D01*
X49257295Y64055828D02*
X49257295Y63903447D01*
X49257295Y63903447D02*
X49219200Y63827256D01*
X49219200Y63827256D02*
X49181104Y63789161D01*
X49181104Y63789161D02*
X49104914Y63751066D01*
X49104914Y63751066D02*
X48952533Y63751066D01*
X48952533Y63751066D02*
X48876342Y63789161D01*
X48876342Y63789161D02*
X48838247Y63827256D01*
X48838247Y63827256D02*
X48800152Y63903447D01*
X34488333Y31025181D02*
X34488333Y30310896D01*
X34488333Y30310896D02*
X34535952Y30168039D01*
X34535952Y30168039D02*
X34631190Y30072800D01*
X34631190Y30072800D02*
X34774047Y30025181D01*
X34774047Y30025181D02*
X34869285Y30025181D01*
X34012142Y30025181D02*
X34012142Y31025181D01*
X34012142Y31025181D02*
X33631190Y31025181D01*
X33631190Y31025181D02*
X33535952Y30977562D01*
X33535952Y30977562D02*
X33488333Y30929943D01*
X33488333Y30929943D02*
X33440714Y30834705D01*
X33440714Y30834705D02*
X33440714Y30691848D01*
X33440714Y30691848D02*
X33488333Y30596610D01*
X33488333Y30596610D02*
X33535952Y30548991D01*
X33535952Y30548991D02*
X33631190Y30501372D01*
X33631190Y30501372D02*
X34012142Y30501372D01*
X33107380Y31025181D02*
X32488333Y31025181D01*
X32488333Y31025181D02*
X32821666Y30644229D01*
X32821666Y30644229D02*
X32678809Y30644229D01*
X32678809Y30644229D02*
X32583571Y30596610D01*
X32583571Y30596610D02*
X32535952Y30548991D01*
X32535952Y30548991D02*
X32488333Y30453753D01*
X32488333Y30453753D02*
X32488333Y30215658D01*
X32488333Y30215658D02*
X32535952Y30120420D01*
X32535952Y30120420D02*
X32583571Y30072800D01*
X32583571Y30072800D02*
X32678809Y30025181D01*
X32678809Y30025181D02*
X32964523Y30025181D01*
X32964523Y30025181D02*
X33059761Y30072800D01*
X33059761Y30072800D02*
X33107380Y30120420D01*
X34488333Y33565181D02*
X34488333Y32850896D01*
X34488333Y32850896D02*
X34535952Y32708039D01*
X34535952Y32708039D02*
X34631190Y32612800D01*
X34631190Y32612800D02*
X34774047Y32565181D01*
X34774047Y32565181D02*
X34869285Y32565181D01*
X34012142Y32565181D02*
X34012142Y33565181D01*
X34012142Y33565181D02*
X33631190Y33565181D01*
X33631190Y33565181D02*
X33535952Y33517562D01*
X33535952Y33517562D02*
X33488333Y33469943D01*
X33488333Y33469943D02*
X33440714Y33374705D01*
X33440714Y33374705D02*
X33440714Y33231848D01*
X33440714Y33231848D02*
X33488333Y33136610D01*
X33488333Y33136610D02*
X33535952Y33088991D01*
X33535952Y33088991D02*
X33631190Y33041372D01*
X33631190Y33041372D02*
X34012142Y33041372D01*
X32583571Y33231848D02*
X32583571Y32565181D01*
X32821666Y33612800D02*
X33059761Y32898515D01*
X33059761Y32898515D02*
X32440714Y32898515D01*
D11*
G04 #@! TO.C,JP2*
X51305000Y38400000D02*
X51305000Y37800000D01*
X52005000Y37100000D02*
X53405000Y37100000D01*
X53405000Y39100000D02*
X52005000Y39100000D01*
X54105000Y37800000D02*
X54105000Y38400000D01*
X51305000Y38400000D02*
G75*
G02*
X52005000Y39100000I700000J0D01*
G01*
X52005000Y37100000D02*
G75*
G02*
X51305000Y37800000I0J700000D01*
G01*
X53405000Y39100000D02*
G75*
G02*
X54105000Y38400000I1J-699999D01*
G01*
X54105000Y37800000D02*
G75*
G02*
X53405000Y37100000I-699999J-1D01*
G01*
G04 #@! TO.C,JP1*
X51305000Y43480000D02*
X51305000Y42880000D01*
X52005000Y42180000D02*
X53405000Y42180000D01*
X53405000Y44180000D02*
X52005000Y44180000D01*
X54105000Y42880000D02*
X54105000Y43480000D01*
X51305000Y43480000D02*
G75*
G02*
X52005000Y44180000I699999J1D01*
G01*
X52005000Y42180000D02*
G75*
G02*
X51305000Y42880000I-1J699999D01*
G01*
X53405000Y44180000D02*
G75*
G02*
X54105000Y43480000I0J-700000D01*
G01*
X54105000Y42880000D02*
G75*
G02*
X53405000Y42180000I-700000J0D01*
G01*
G04 #@! TO.C,JP3*
X35430000Y30780000D02*
X35430000Y30180000D01*
X36130000Y29480000D02*
X37530000Y29480000D01*
X37530000Y31480000D02*
X36130000Y31480000D01*
X38230000Y30180000D02*
X38230000Y30780000D01*
X35430000Y30780000D02*
G75*
G02*
X36130000Y31480000I699999J1D01*
G01*
X36130000Y29480000D02*
G75*
G02*
X35430000Y30180000I-1J699999D01*
G01*
X37530000Y31480000D02*
G75*
G02*
X38230000Y30780000I0J-700000D01*
G01*
X38230000Y30180000D02*
G75*
G02*
X37530000Y29480000I-700000J0D01*
G01*
G04 #@! TO.C,JP4*
X35430000Y33320000D02*
X35430000Y32720000D01*
X36130000Y32020000D02*
X37530000Y32020000D01*
X37530000Y34020000D02*
X36130000Y34020000D01*
X38230000Y32720000D02*
X38230000Y33320000D01*
X35430000Y33320000D02*
G75*
G02*
X36130000Y34020000I699999J1D01*
G01*
X36130000Y32020000D02*
G75*
G02*
X35430000Y32720000I-1J699999D01*
G01*
X37530000Y34020000D02*
G75*
G02*
X38230000Y33320000I0J-700000D01*
G01*
X38230000Y32720000D02*
G75*
G02*
X37530000Y32020000I-700000J0D01*
G01*
G04 #@! TD*
M02*
