G04 #@! TF.GenerationSoftware,KiCad,Pcbnew,8.0.2+dfsg-1*
G04 #@! TF.CreationDate,2024-06-11T15:29:42+08:00*
G04 #@! TF.ProjectId,sec01,73656330-312e-46b6-9963-61645f706362,a*
G04 #@! TF.SameCoordinates,Original*
G04 #@! TF.FileFunction,Copper,L1,Top*
G04 #@! TF.FilePolarity,Positive*
%FSLAX46Y46*%
G04 Gerber Fmt 4.6, Leading zero omitted, Abs format (unit mm)*
G04 Created by KiCad (PCBNEW 8.0.2+dfsg-1) date 2024-06-11 15:29:42*
%MOMM*%
%LPD*%
G01*
G04 APERTURE LIST*
G04 Aperture macros list*
%AMRoundRect*
0 Rectangle with rounded corners*
0 $1 Rounding radius*
0 $2 $3 $4 $5 $6 $7 $8 $9 X,Y pos of 4 corners*
0 Add a 4 corners polygon primitive as box body*
4,1,4,$2,$3,$4,$5,$6,$7,$8,$9,$2,$3,0*
0 Add four circle primitives for the rounded corners*
1,1,$1+$1,$2,$3*
1,1,$1+$1,$4,$5*
1,1,$1+$1,$6,$7*
1,1,$1+$1,$8,$9*
0 Add four rect primitives between the rounded corners*
20,1,$1+$1,$2,$3,$4,$5,0*
20,1,$1+$1,$4,$5,$6,$7,0*
20,1,$1+$1,$6,$7,$8,$9,0*
20,1,$1+$1,$8,$9,$2,$3,0*%
G04 Aperture macros list end*
G04 #@! TA.AperFunction,SMDPad,CuDef*
%ADD10RoundRect,0.200000X-0.200000X-0.275000X0.200000X-0.275000X0.200000X0.275000X-0.200000X0.275000X0*%
G04 #@! TD*
G04 #@! TA.AperFunction,SMDPad,CuDef*
%ADD11RoundRect,0.225000X0.225000X0.250000X-0.225000X0.250000X-0.225000X-0.250000X0.225000X-0.250000X0*%
G04 #@! TD*
G04 #@! TA.AperFunction,ComponentPad*
%ADD12R,1.700000X1.700000*%
G04 #@! TD*
G04 #@! TA.AperFunction,ComponentPad*
%ADD13O,1.700000X1.700000*%
G04 #@! TD*
G04 #@! TA.AperFunction,SMDPad,CuDef*
%ADD14R,0.750000X0.300000*%
G04 #@! TD*
G04 #@! TA.AperFunction,SMDPad,CuDef*
%ADD15R,1.300000X1.500000*%
G04 #@! TD*
G04 #@! TA.AperFunction,ViaPad*
%ADD16C,0.600000*%
G04 #@! TD*
G04 #@! TA.AperFunction,Conductor*
%ADD17C,0.228600*%
G04 #@! TD*
G04 #@! TA.AperFunction,Conductor*
%ADD18C,0.381000*%
G04 #@! TD*
G04 APERTURE END LIST*
D10*
G04 #@! TO.P,R4,1*
G04 #@! TO.N,+3V3*
X166815000Y-113030000D03*
G04 #@! TO.P,R4,2*
G04 #@! TO.N,B_SCL*
X168465000Y-113030000D03*
G04 #@! TD*
G04 #@! TO.P,R1,1*
G04 #@! TO.N,+3V3*
X166815000Y-99060000D03*
G04 #@! TO.P,R1,2*
G04 #@! TO.N,A_SDA*
X168465000Y-99060000D03*
G04 #@! TD*
D11*
G04 #@! TO.P,C2,1*
G04 #@! TO.N,+3V3*
X168415000Y-114935000D03*
G04 #@! TO.P,C2,2*
G04 #@! TO.N,GND*
X166865000Y-114935000D03*
G04 #@! TD*
D12*
G04 #@! TO.P,J3,1,GND*
G04 #@! TO.N,GND*
X180340000Y-87630000D03*
D13*
G04 #@! TO.P,J3,2,5V*
G04 #@! TO.N,unconnected-(J3-5V-Pad2)*
X180340000Y-85090000D03*
G04 #@! TO.P,J3,3,GND*
G04 #@! TO.N,GND*
X177800000Y-87630000D03*
G04 #@! TO.P,J3,4,3.3V*
G04 #@! TO.N,+3V3*
X177800000Y-85090000D03*
G04 #@! TO.P,J3,5,U16*
G04 #@! TO.N,unconnected-(J3-U16-Pad5)*
X175260000Y-87630000D03*
G04 #@! TO.P,J3,6,U15*
G04 #@! TO.N,unconnected-(J3-U15-Pad6)*
X175260000Y-85090000D03*
G04 #@! TO.P,J3,7,U14*
G04 #@! TO.N,unconnected-(J3-U14-Pad7)*
X172720000Y-87630000D03*
G04 #@! TO.P,J3,8,U13*
G04 #@! TO.N,unconnected-(J3-U13-Pad8)*
X172720000Y-85090000D03*
G04 #@! TO.P,J3,9,PA9*
G04 #@! TO.N,I2C3_SDA*
X170180000Y-87630000D03*
G04 #@! TO.P,J3,10,PA8*
G04 #@! TO.N,I2C3_SCL*
X170180000Y-85090000D03*
G04 #@! TO.P,J3,11,PA11*
G04 #@! TO.N,unconnected-(J3-PA11-Pad11)*
X167640000Y-87630000D03*
G04 #@! TO.P,J3,12,PA10*
G04 #@! TO.N,unconnected-(J3-PA10-Pad12)*
X167640000Y-85090000D03*
G04 #@! TO.P,J3,13,PA13*
G04 #@! TO.N,unconnected-(J3-PA13-Pad13)*
X165100000Y-87630000D03*
G04 #@! TO.P,J3,14,PA12*
G04 #@! TO.N,unconnected-(J3-PA12-Pad14)*
X165100000Y-85090000D03*
G04 #@! TO.P,J3,15,PA15*
G04 #@! TO.N,unconnected-(J3-PA15-Pad15)*
X162560000Y-87630000D03*
G04 #@! TO.P,J3,16,PA14*
G04 #@! TO.N,unconnected-(J3-PA14-Pad16)*
X162560000Y-85090000D03*
G04 #@! TO.P,J3,17,U12*
G04 #@! TO.N,unconnected-(J3-U12-Pad17)*
X160020000Y-87630000D03*
G04 #@! TO.P,J3,18,U11*
G04 #@! TO.N,unconnected-(J3-U11-Pad18)*
X160020000Y-85090000D03*
G04 #@! TO.P,J3,19,PC11*
G04 #@! TO.N,unconnected-(J3-PC11-Pad19)*
X157480000Y-87630000D03*
G04 #@! TO.P,J3,20,PC10*
G04 #@! TO.N,unconnected-(J3-PC10-Pad20)*
X157480000Y-85090000D03*
G04 #@! TO.P,J3,21,U8*
G04 #@! TO.N,unconnected-(J3-U8-Pad21)*
X154940000Y-87630000D03*
G04 #@! TO.P,J3,22,PC12*
G04 #@! TO.N,unconnected-(J3-PC12-Pad22)*
X154940000Y-85090000D03*
G04 #@! TO.P,J3,23,23*
G04 #@! TO.N,unconnected-(J3-Pad23)*
X152400000Y-87630000D03*
G04 #@! TO.P,J3,24,PD2*
G04 #@! TO.N,unconnected-(J3-PD2-Pad24)*
X152400000Y-85090000D03*
G04 #@! TO.P,J3,25,PB5*
G04 #@! TO.N,unconnected-(J3-PB5-Pad25)*
X149860000Y-87630000D03*
G04 #@! TO.P,J3,26,PB4*
G04 #@! TO.N,unconnected-(J3-PB4-Pad26)*
X149860000Y-85090000D03*
G04 #@! TO.P,J3,27,PB7*
G04 #@! TO.N,I2C1_SDA*
X147320000Y-87630000D03*
G04 #@! TO.P,J3,28,PB6*
G04 #@! TO.N,I2C1_SCL*
X147320000Y-85090000D03*
G04 #@! TO.P,J3,29,PB9*
G04 #@! TO.N,I2C1_A_SDA*
X144780000Y-87630000D03*
G04 #@! TO.P,J3,30,PB8*
G04 #@! TO.N,I2C1_A_SCL*
X144780000Y-85090000D03*
G04 #@! TO.P,J3,31,U10*
G04 #@! TO.N,unconnected-(J3-U10-Pad31)*
X142240000Y-87630000D03*
G04 #@! TO.P,J3,32,U9*
G04 #@! TO.N,unconnected-(J3-U9-Pad32)*
X142240000Y-85090000D03*
G04 #@! TO.P,J3,33,PC13*
G04 #@! TO.N,unconnected-(J3-PC13-Pad33)*
X139700000Y-87630000D03*
G04 #@! TO.P,J3,34,PC14*
G04 #@! TO.N,unconnected-(J3-PC14-Pad34)*
X139700000Y-85090000D03*
G04 #@! TO.P,J3,35,PC15*
G04 #@! TO.N,unconnected-(J3-PC15-Pad35)*
X137160000Y-87630000D03*
G04 #@! TO.P,J3,36,U7*
G04 #@! TO.N,unconnected-(J3-U7-Pad36)*
X137160000Y-85090000D03*
G04 #@! TO.P,J3,37,U6*
G04 #@! TO.N,unconnected-(J3-U6-Pad37)*
X134620000Y-87630000D03*
G04 #@! TO.P,J3,38,U5*
G04 #@! TO.N,unconnected-(J3-U5-Pad38)*
X134620000Y-85090000D03*
G04 #@! TO.P,J3,39,GND*
G04 #@! TO.N,unconnected-(J3-GND-Pad39)*
X132080000Y-87630000D03*
G04 #@! TO.P,J3,40,VB*
G04 #@! TO.N,unconnected-(J3-VB-Pad40)*
X132080000Y-85090000D03*
G04 #@! TD*
D11*
G04 #@! TO.P,C1,1*
G04 #@! TO.N,+3V3*
X168415000Y-102870000D03*
G04 #@! TO.P,C1,2*
G04 #@! TO.N,GND*
X166865000Y-102870000D03*
G04 #@! TD*
D14*
G04 #@! TO.P,U1,1,NC*
G04 #@! TO.N,unconnected-(U1-NC-Pad1)*
X173990000Y-101195000D03*
G04 #@! TO.P,U1,2,NC*
G04 #@! TO.N,unconnected-(U1-NC-Pad2)*
X173990000Y-100695000D03*
G04 #@! TO.P,U1,3,NC*
G04 #@! TO.N,unconnected-(U1-NC-Pad3)*
X173990000Y-100195000D03*
G04 #@! TO.P,U1,4,GND*
G04 #@! TO.N,GND*
X173990000Y-99695000D03*
G04 #@! TO.P,U1,5,SDA*
G04 #@! TO.N,A_SDA*
X171090000Y-99695000D03*
G04 #@! TO.P,U1,6,SCL*
G04 #@! TO.N,A_SCL*
X171090000Y-100195000D03*
G04 #@! TO.P,U1,7,NC*
G04 #@! TO.N,unconnected-(U1-NC-Pad7)*
X171090000Y-100695000D03*
G04 #@! TO.P,U1,8,VCC*
G04 #@! TO.N,+3V3*
X171090000Y-101195000D03*
D15*
G04 #@! TO.P,U1,9,EP*
G04 #@! TO.N,GND*
X172540000Y-100445000D03*
G04 #@! TD*
D10*
G04 #@! TO.P,R3,1*
G04 #@! TO.N,+3V3*
X166815000Y-111125000D03*
G04 #@! TO.P,R3,2*
G04 #@! TO.N,B_SDA*
X168465000Y-111125000D03*
G04 #@! TD*
D12*
G04 #@! TO.P,J2,1,GND*
G04 #@! TO.N,GND*
X132080000Y-123190000D03*
D13*
G04 #@! TO.P,J2,2,VA*
G04 #@! TO.N,unconnected-(J2-VA-Pad2)*
X132080000Y-125730000D03*
G04 #@! TO.P,J2,3,NRST*
G04 #@! TO.N,unconnected-(J2-NRST-Pad3)*
X134620000Y-123190000D03*
G04 #@! TO.P,J2,4,BO0*
G04 #@! TO.N,unconnected-(J2-BO0-Pad4)*
X134620000Y-125730000D03*
G04 #@! TO.P,J2,5,PC1*
G04 #@! TO.N,unconnected-(J2-PC1-Pad5)*
X137160000Y-123190000D03*
G04 #@! TO.P,J2,6,PC0*
G04 #@! TO.N,unconnected-(J2-PC0-Pad6)*
X137160000Y-125730000D03*
G04 #@! TO.P,J2,7,PC3*
G04 #@! TO.N,unconnected-(J2-PC3-Pad7)*
X139700000Y-123190000D03*
G04 #@! TO.P,J2,8,PC2*
G04 #@! TO.N,unconnected-(J2-PC2-Pad8)*
X139700000Y-125730000D03*
G04 #@! TO.P,J2,9,PA1*
G04 #@! TO.N,unconnected-(J2-PA1-Pad9)*
X142240000Y-123190000D03*
G04 #@! TO.P,J2,10,PA0*
G04 #@! TO.N,unconnected-(J2-PA0-Pad10)*
X142240000Y-125730000D03*
G04 #@! TO.P,J2,11,PA3*
G04 #@! TO.N,unconnected-(J2-PA3-Pad11)*
X144780000Y-123190000D03*
G04 #@! TO.P,J2,12,PA2*
G04 #@! TO.N,unconnected-(J2-PA2-Pad12)*
X144780000Y-125730000D03*
G04 #@! TO.P,J2,13,PA5*
G04 #@! TO.N,unconnected-(J2-PA5-Pad13)*
X147320000Y-123190000D03*
G04 #@! TO.P,J2,14,PA4*
G04 #@! TO.N,unconnected-(J2-PA4-Pad14)*
X147320000Y-125730000D03*
G04 #@! TO.P,J2,15,PA7*
G04 #@! TO.N,unconnected-(J2-PA7-Pad15)*
X149860000Y-123190000D03*
G04 #@! TO.P,J2,16,PA6*
G04 #@! TO.N,unconnected-(J2-PA6-Pad16)*
X149860000Y-125730000D03*
G04 #@! TO.P,J2,17,PC5*
G04 #@! TO.N,unconnected-(J2-PC5-Pad17)*
X152400000Y-123190000D03*
G04 #@! TO.P,J2,18,PC4*
G04 #@! TO.N,unconnected-(J2-PC4-Pad18)*
X152400000Y-125730000D03*
G04 #@! TO.P,J2,19,PB1*
G04 #@! TO.N,unconnected-(J2-PB1-Pad19)*
X154940000Y-123190000D03*
G04 #@! TO.P,J2,20,PB0*
G04 #@! TO.N,unconnected-(J2-PB0-Pad20)*
X154940000Y-125730000D03*
G04 #@! TO.P,J2,21,U0*
G04 #@! TO.N,unconnected-(J2-U0-Pad21)*
X157480000Y-123190000D03*
G04 #@! TO.P,J2,22,PB2*
G04 #@! TO.N,unconnected-(J2-PB2-Pad22)*
X157480000Y-125730000D03*
G04 #@! TO.P,J2,23,PB11*
G04 #@! TO.N,I2C2_SDA*
X160020000Y-123190000D03*
G04 #@! TO.P,J2,24,PB10*
G04 #@! TO.N,I2C2_SCL*
X160020000Y-125730000D03*
G04 #@! TO.P,J2,25,PB13*
G04 #@! TO.N,unconnected-(J2-PB13-Pad25)*
X162560000Y-123190000D03*
G04 #@! TO.P,J2,26,PB12*
G04 #@! TO.N,unconnected-(J2-PB12-Pad26)*
X162560000Y-125730000D03*
G04 #@! TO.P,J2,27,PB15*
G04 #@! TO.N,unconnected-(J2-PB15-Pad27)*
X165100000Y-123190000D03*
G04 #@! TO.P,J2,28,PB14*
G04 #@! TO.N,unconnected-(J2-PB14-Pad28)*
X165100000Y-125730000D03*
G04 #@! TO.P,J2,29,PC7*
G04 #@! TO.N,unconnected-(J2-PC7-Pad29)*
X167640000Y-123190000D03*
G04 #@! TO.P,J2,30,PC6*
G04 #@! TO.N,unconnected-(J2-PC6-Pad30)*
X167640000Y-125730000D03*
G04 #@! TO.P,J2,31,PC9*
G04 #@! TO.N,unconnected-(J2-PC9-Pad31)*
X170180000Y-123190000D03*
G04 #@! TO.P,J2,32,PC8*
G04 #@! TO.N,unconnected-(J2-PC8-Pad32)*
X170180000Y-125730000D03*
G04 #@! TO.P,J2,33,U2*
G04 #@! TO.N,unconnected-(J2-U2-Pad33)*
X172720000Y-123190000D03*
G04 #@! TO.P,J2,34,U1*
G04 #@! TO.N,unconnected-(J2-U1-Pad34)*
X172720000Y-125730000D03*
G04 #@! TO.P,J2,35,U4*
G04 #@! TO.N,unconnected-(J2-U4-Pad35)*
X175260000Y-123190000D03*
G04 #@! TO.P,J2,36,U3*
G04 #@! TO.N,unconnected-(J2-U3-Pad36)*
X175260000Y-125730000D03*
G04 #@! TO.P,J2,37,GND*
G04 #@! TO.N,GND*
X177800000Y-123190000D03*
G04 #@! TO.P,J2,38,3.3V*
G04 #@! TO.N,+3V3*
X177800000Y-125730000D03*
G04 #@! TO.P,J2,39,GND*
G04 #@! TO.N,GND*
X180340000Y-123190000D03*
G04 #@! TO.P,J2,40,5V*
G04 #@! TO.N,unconnected-(J2-5V-Pad40)*
X180340000Y-125730000D03*
G04 #@! TD*
D14*
G04 #@! TO.P,U2,1,NC*
G04 #@! TO.N,unconnected-(U2-NC-Pad1)*
X173990000Y-113260000D03*
G04 #@! TO.P,U2,2,NC*
G04 #@! TO.N,unconnected-(U2-NC-Pad2)*
X173990000Y-112760000D03*
G04 #@! TO.P,U2,3,NC*
G04 #@! TO.N,unconnected-(U2-NC-Pad3)*
X173990000Y-112260000D03*
G04 #@! TO.P,U2,4,GND*
G04 #@! TO.N,GND*
X173990000Y-111760000D03*
G04 #@! TO.P,U2,5,SDA*
G04 #@! TO.N,B_SDA*
X171090000Y-111760000D03*
G04 #@! TO.P,U2,6,SCL*
G04 #@! TO.N,B_SCL*
X171090000Y-112260000D03*
G04 #@! TO.P,U2,7,NC*
G04 #@! TO.N,unconnected-(U2-NC-Pad7)*
X171090000Y-112760000D03*
G04 #@! TO.P,U2,8,VCC*
G04 #@! TO.N,+3V3*
X171090000Y-113260000D03*
D15*
G04 #@! TO.P,U2,9,EP*
G04 #@! TO.N,GND*
X172540000Y-112510000D03*
G04 #@! TD*
D10*
G04 #@! TO.P,R2,1*
G04 #@! TO.N,+3V3*
X166815000Y-100965000D03*
G04 #@! TO.P,R2,2*
G04 #@! TO.N,A_SCL*
X168465000Y-100965000D03*
G04 #@! TD*
D16*
G04 #@! TO.N,GND*
X169545000Y-101600000D03*
X151130000Y-97790000D03*
X169545000Y-113665000D03*
X153035000Y-100330000D03*
X146685000Y-97790000D03*
X151130000Y-110490000D03*
X123825000Y-86360000D03*
X123825000Y-124460000D03*
X162560000Y-100330000D03*
X162560000Y-110490000D03*
X149225000Y-97790000D03*
X144780000Y-97790000D03*
G04 #@! TO.N,I2C2_SCL*
X155575000Y-114300000D03*
X155575000Y-104140000D03*
G04 #@! TO.N,I2C2_SDA*
X155575000Y-106680000D03*
X155575000Y-96520000D03*
G04 #@! TO.N,I2C3_SDA*
X153035000Y-106680000D03*
X153035000Y-96520000D03*
G04 #@! TO.N,I2C1_SDA*
X160655000Y-96520000D03*
X160655000Y-106680000D03*
G04 #@! TO.N,I2C1_SCL*
X160655000Y-114300000D03*
X160655000Y-104140000D03*
G04 #@! TO.N,I2C1_A_SDA*
X158115000Y-106680000D03*
X158115000Y-96520000D03*
G04 #@! TO.N,I2C3_SCL*
X153035000Y-114300000D03*
X153035000Y-104140000D03*
G04 #@! TO.N,I2C1_A_SCL*
X158115000Y-114300000D03*
X158115000Y-104140000D03*
G04 #@! TO.N,A_SDA*
X162560000Y-99060000D03*
G04 #@! TO.N,A_SCL*
X162560000Y-101600000D03*
G04 #@! TO.N,B_SDA*
X162560000Y-109220000D03*
G04 #@! TO.N,B_SCL*
X162560000Y-111760000D03*
G04 #@! TD*
D17*
G04 #@! TO.N,+3V3*
X171090000Y-113260000D02*
X171090000Y-114925000D01*
X171090000Y-102860000D02*
X171100000Y-102870000D01*
D18*
X177800000Y-85090000D02*
X179040500Y-86330500D01*
X168415000Y-102870000D02*
X168415000Y-102565000D01*
X171080000Y-114935000D02*
X179040500Y-114935000D01*
X179040500Y-102870000D02*
X179040500Y-114935000D01*
X179040500Y-124489500D02*
X177800000Y-125730000D01*
X171100000Y-102870000D02*
X179040500Y-102870000D01*
X168415000Y-114935000D02*
X171080000Y-114935000D01*
X166815000Y-100965000D02*
X166815000Y-99060000D01*
X168415000Y-102565000D02*
X166815000Y-100965000D01*
X166815000Y-113030000D02*
X166815000Y-111125000D01*
X168415000Y-114935000D02*
X168415000Y-114630000D01*
X179040500Y-86330500D02*
X179040500Y-102870000D01*
D17*
X171090000Y-101195000D02*
X171090000Y-102860000D01*
D18*
X168415000Y-102870000D02*
X171100000Y-102870000D01*
X168415000Y-114630000D02*
X166815000Y-113030000D01*
D17*
X171090000Y-114925000D02*
X171080000Y-114935000D01*
D18*
X179040500Y-114935000D02*
X179040500Y-124489500D01*
D17*
G04 #@! TO.N,I2C2_SCL*
X154960700Y-104754300D02*
X154960700Y-113685700D01*
X155575000Y-104140000D02*
X154960700Y-104754300D01*
X154960700Y-113685700D02*
X155575000Y-114300000D01*
G04 #@! TO.N,I2C2_SDA*
X156189300Y-119359300D02*
X160020000Y-123190000D01*
X156210000Y-97155000D02*
X155575000Y-96520000D01*
X156189300Y-107294300D02*
X156189300Y-119359300D01*
X155575000Y-106680000D02*
X156189300Y-106065700D01*
X156189300Y-97134300D02*
X155575000Y-96520000D01*
X155575000Y-106680000D02*
X156189300Y-107294300D01*
X156189300Y-106065700D02*
X156189300Y-97134300D01*
G04 #@! TO.N,I2C3_SDA*
X153035000Y-106680000D02*
X153649300Y-106065700D01*
X153649300Y-106065700D02*
X153649300Y-97134300D01*
X166348600Y-82048600D02*
X168820000Y-84520000D01*
X143615700Y-83324300D02*
X144891400Y-82048600D01*
X168820000Y-84520000D02*
X168820000Y-86270000D01*
X144351716Y-88848284D02*
X143615700Y-88112268D01*
X144891400Y-82048600D02*
X166348600Y-82048600D01*
X143615700Y-88112269D02*
X144351716Y-88848284D01*
X144351716Y-88848284D02*
X152023431Y-96520000D01*
X153649300Y-97134300D02*
X153035000Y-96520000D01*
X152023431Y-96520000D02*
X153035000Y-96520000D01*
X143615700Y-88112268D02*
X143615700Y-83324300D01*
X168820000Y-86270000D02*
X170180000Y-87630000D01*
G04 #@! TO.N,I2C1_SDA*
X160655000Y-106680000D02*
X161798000Y-105537000D01*
X155167100Y-95477100D02*
X147320000Y-87630000D01*
X159612100Y-95477100D02*
X155167100Y-95477100D01*
X161798000Y-105537000D02*
X161798000Y-97663000D01*
X161798000Y-97663000D02*
X160655000Y-96520000D01*
X160655000Y-96520000D02*
X159612100Y-95477100D01*
G04 #@! TO.N,I2C1_SCL*
X160655000Y-104140000D02*
X160040700Y-104754300D01*
X160040700Y-104754300D02*
X160040700Y-113685700D01*
X160040700Y-113685700D02*
X160655000Y-114300000D01*
G04 #@! TO.N,I2C1_A_SDA*
X157500700Y-95905700D02*
X153055700Y-95905700D01*
X158115000Y-96520000D02*
X157500700Y-95905700D01*
X153055700Y-95905700D02*
X144780000Y-87630000D01*
X158729300Y-97134300D02*
X158115000Y-96520000D01*
X158729300Y-106065700D02*
X158729300Y-97134300D01*
X158115000Y-106680000D02*
X158729300Y-106065700D01*
G04 #@! TO.N,I2C3_SCL*
X152420700Y-104754300D02*
X152420700Y-113685700D01*
X142800000Y-81620000D02*
X142760000Y-81580000D01*
X153035000Y-102870000D02*
X153035000Y-104140000D01*
X142760000Y-81580000D02*
X141075700Y-83264300D01*
X166710000Y-81620000D02*
X142800000Y-81620000D01*
X153035000Y-104140000D02*
X152420700Y-104754300D01*
X170180000Y-85090000D02*
X166710000Y-81620000D01*
X152420700Y-113685700D02*
X153035000Y-114300000D01*
X141075700Y-90910700D02*
X153035000Y-102870000D01*
X141075700Y-83264300D02*
X141075700Y-90910700D01*
G04 #@! TO.N,I2C1_A_SCL*
X157500700Y-113685700D02*
X158115000Y-114300000D01*
X158115000Y-104140000D02*
X157500700Y-104754300D01*
X157500700Y-104754300D02*
X157500700Y-113685700D01*
G04 #@! TO.N,A_SDA*
X162560000Y-99060000D02*
X164465000Y-97155000D01*
X168465000Y-99060000D02*
X168465000Y-98615000D01*
X171090000Y-99695000D02*
X169100000Y-99695000D01*
X167005000Y-97155000D02*
X164465000Y-97155000D01*
X168465000Y-98615000D02*
X167005000Y-97155000D01*
X169100000Y-99695000D02*
X168465000Y-99060000D01*
G04 #@! TO.N,A_SCL*
X167750700Y-98535700D02*
X167005000Y-97790000D01*
X164465000Y-99695000D02*
X164465000Y-98425000D01*
X167005000Y-97790000D02*
X165100000Y-97790000D01*
X171090000Y-100195000D02*
X169235000Y-100195000D01*
X169235000Y-100195000D02*
X168465000Y-100965000D01*
X165100000Y-97790000D02*
X164465000Y-98425000D01*
X167750700Y-100250700D02*
X167750700Y-98535700D01*
X162560000Y-101600000D02*
X164465000Y-99695000D01*
X168465000Y-100965000D02*
X167750700Y-100250700D01*
G04 #@! TO.N,B_SDA*
X162560000Y-109220000D02*
X167035000Y-109220000D01*
X169100000Y-111760000D02*
X168465000Y-111125000D01*
X168465000Y-110650000D02*
X168465000Y-111125000D01*
X167035000Y-109220000D02*
X168465000Y-110650000D01*
X171090000Y-111760000D02*
X169100000Y-111760000D01*
G04 #@! TO.N,B_SCL*
X171090000Y-112260000D02*
X169235000Y-112260000D01*
X167529300Y-112094300D02*
X167529300Y-110631428D01*
X166752872Y-109855000D02*
X165100000Y-109855000D01*
X163195000Y-111760000D02*
X162560000Y-111760000D01*
X165100000Y-109855000D02*
X163195000Y-111760000D01*
X169235000Y-112260000D02*
X168465000Y-113030000D01*
X168465000Y-113030000D02*
X167529300Y-112094300D01*
X167529300Y-110631428D02*
X166752872Y-109855000D01*
G04 #@! TD*
G04 #@! TA.AperFunction,Conductor*
G04 #@! TO.N,GND*
G36*
X170487638Y-112592393D02*
G01*
X170513358Y-112636942D01*
X170514500Y-112650000D01*
X170514500Y-112929750D01*
X170527544Y-112995330D01*
X170527544Y-113024670D01*
X170514500Y-113090249D01*
X170514500Y-113429748D01*
X170526132Y-113488229D01*
X170526133Y-113488231D01*
X170570448Y-113554552D01*
X170636769Y-113598867D01*
X170666010Y-113604683D01*
X170695251Y-113610500D01*
X170695252Y-113610500D01*
X170700000Y-113610500D01*
X170748338Y-113628093D01*
X170774058Y-113672642D01*
X170775200Y-113685700D01*
X170775200Y-114468800D01*
X170757607Y-114517138D01*
X170713058Y-114542858D01*
X170700000Y-114544000D01*
X169091790Y-114544000D01*
X169043452Y-114526407D01*
X169024786Y-114502940D01*
X169014044Y-114481858D01*
X168988528Y-114431780D01*
X168988527Y-114431779D01*
X168988526Y-114431777D01*
X168893222Y-114336473D01*
X168773126Y-114275281D01*
X168773128Y-114275281D01*
X168673490Y-114259500D01*
X168673488Y-114259500D01*
X168628606Y-114259500D01*
X168580268Y-114241907D01*
X168575432Y-114237474D01*
X168171350Y-113833392D01*
X168149610Y-113786772D01*
X168162924Y-113737085D01*
X168205061Y-113707580D01*
X168230458Y-113706296D01*
X168230539Y-113705268D01*
X168233465Y-113705497D01*
X168233481Y-113705500D01*
X168696518Y-113705499D01*
X168704646Y-113704211D01*
X168790301Y-113690647D01*
X168790302Y-113690646D01*
X168790304Y-113690646D01*
X168903342Y-113633050D01*
X168993050Y-113543342D01*
X169050646Y-113430304D01*
X169065500Y-113336519D01*
X169065499Y-112905841D01*
X169083092Y-112857505D01*
X169087503Y-112852690D01*
X169343369Y-112596824D01*
X169389988Y-112575086D01*
X169396542Y-112574800D01*
X170439300Y-112574800D01*
X170487638Y-112592393D01*
G37*
G04 #@! TD.AperFunction*
G04 #@! TA.AperFunction,Conductor*
G36*
X143291395Y-88130749D02*
G01*
X143300173Y-88150998D01*
X143300900Y-88153711D01*
X143300900Y-88153712D01*
X143313286Y-88199938D01*
X143317710Y-88216451D01*
X143322353Y-88233777D01*
X143322357Y-88233787D01*
X143346280Y-88275221D01*
X143346281Y-88275222D01*
X143363792Y-88305553D01*
X143363798Y-88305561D01*
X144099813Y-89041576D01*
X151830136Y-96771900D01*
X151830138Y-96771902D01*
X151901912Y-96813342D01*
X151901916Y-96813344D01*
X151901922Y-96813347D01*
X151918838Y-96817879D01*
X151918840Y-96817880D01*
X151918841Y-96817880D01*
X151981987Y-96834800D01*
X152611176Y-96834800D01*
X152659514Y-96852393D01*
X152668008Y-96860754D01*
X152668787Y-96861653D01*
X152703872Y-96902143D01*
X152824947Y-96979953D01*
X152963039Y-97020500D01*
X153059156Y-97020500D01*
X153107494Y-97038093D01*
X153112330Y-97042525D01*
X153312474Y-97242668D01*
X153334214Y-97289289D01*
X153334500Y-97295843D01*
X153334500Y-102542757D01*
X153316907Y-102591095D01*
X153272358Y-102616815D01*
X153221700Y-102607882D01*
X153206126Y-102595931D01*
X141412526Y-90802331D01*
X141390786Y-90755711D01*
X141390500Y-90749157D01*
X141390500Y-88450803D01*
X141408093Y-88402465D01*
X141452642Y-88376745D01*
X141503300Y-88385678D01*
X141513406Y-88392673D01*
X141653542Y-88507679D01*
X141653545Y-88507681D01*
X141653550Y-88507685D01*
X141653554Y-88507687D01*
X141827660Y-88600750D01*
X141836046Y-88605232D01*
X141836050Y-88605233D01*
X141836052Y-88605234D01*
X141877794Y-88617896D01*
X142034066Y-88665300D01*
X142240000Y-88685583D01*
X142445934Y-88665300D01*
X142643954Y-88605232D01*
X142826450Y-88507685D01*
X142986410Y-88376410D01*
X143117685Y-88216450D01*
X143161216Y-88135008D01*
X143199516Y-88100675D01*
X143250929Y-88098991D01*
X143291395Y-88130749D01*
G37*
G04 #@! TD.AperFunction*
G04 #@! TA.AperFunction,Conductor*
G36*
X170487638Y-100527393D02*
G01*
X170513358Y-100571942D01*
X170514500Y-100585000D01*
X170514500Y-100864750D01*
X170527544Y-100930330D01*
X170527544Y-100959670D01*
X170514500Y-101025249D01*
X170514500Y-101364748D01*
X170526132Y-101423229D01*
X170526133Y-101423231D01*
X170570448Y-101489552D01*
X170636769Y-101533867D01*
X170666010Y-101539683D01*
X170695251Y-101545500D01*
X170695252Y-101545500D01*
X170700000Y-101545500D01*
X170748338Y-101563093D01*
X170774058Y-101607642D01*
X170775200Y-101620700D01*
X170775200Y-102403800D01*
X170757607Y-102452138D01*
X170713058Y-102477858D01*
X170700000Y-102479000D01*
X169091790Y-102479000D01*
X169043452Y-102461407D01*
X169024786Y-102437940D01*
X169014044Y-102416858D01*
X168988528Y-102366780D01*
X168988527Y-102366779D01*
X168988526Y-102366777D01*
X168893222Y-102271473D01*
X168773126Y-102210281D01*
X168773128Y-102210281D01*
X168673490Y-102194500D01*
X168673488Y-102194500D01*
X168628606Y-102194500D01*
X168580268Y-102176907D01*
X168575432Y-102172474D01*
X168171350Y-101768392D01*
X168149610Y-101721772D01*
X168162924Y-101672085D01*
X168205061Y-101642580D01*
X168230458Y-101641296D01*
X168230539Y-101640268D01*
X168233465Y-101640497D01*
X168233481Y-101640500D01*
X168696518Y-101640499D01*
X168704646Y-101639211D01*
X168790301Y-101625647D01*
X168790302Y-101625646D01*
X168790304Y-101625646D01*
X168903342Y-101568050D01*
X168993050Y-101478342D01*
X169050646Y-101365304D01*
X169065500Y-101271519D01*
X169065499Y-100840841D01*
X169083092Y-100792505D01*
X169087503Y-100787690D01*
X169343369Y-100531824D01*
X169389988Y-100510086D01*
X169396542Y-100509800D01*
X170439300Y-100509800D01*
X170487638Y-100527393D01*
G37*
G04 #@! TD.AperFunction*
G04 #@! TA.AperFunction,Conductor*
G36*
X164841794Y-97487393D02*
G01*
X164867514Y-97531942D01*
X164858581Y-97582600D01*
X164846630Y-97598174D01*
X164213096Y-98231707D01*
X164171653Y-98303491D01*
X164171652Y-98303491D01*
X164171653Y-98303492D01*
X164150200Y-98383556D01*
X164150200Y-98383558D01*
X164150200Y-99533457D01*
X164132607Y-99581795D01*
X164128174Y-99586631D01*
X162637331Y-101077474D01*
X162590711Y-101099214D01*
X162584157Y-101099500D01*
X162488036Y-101099500D01*
X162349950Y-101140045D01*
X162228656Y-101217996D01*
X162178480Y-101229328D01*
X162132758Y-101205757D01*
X162112885Y-101158311D01*
X162112800Y-101154733D01*
X162112800Y-99505266D01*
X162130393Y-99456928D01*
X162174942Y-99431208D01*
X162225600Y-99440141D01*
X162228656Y-99442004D01*
X162228871Y-99442142D01*
X162228872Y-99442143D01*
X162349947Y-99519953D01*
X162488039Y-99560500D01*
X162488042Y-99560500D01*
X162631958Y-99560500D01*
X162631961Y-99560500D01*
X162770053Y-99519953D01*
X162891128Y-99442143D01*
X162985377Y-99333373D01*
X163045165Y-99202457D01*
X163065647Y-99060000D01*
X163063404Y-99044406D01*
X163073936Y-98994060D01*
X163084660Y-98980533D01*
X164573369Y-97491826D01*
X164619989Y-97470086D01*
X164626543Y-97469800D01*
X164793456Y-97469800D01*
X164841794Y-97487393D01*
G37*
G04 #@! TD.AperFunction*
G04 #@! TA.AperFunction,Conductor*
G36*
X191772456Y-80510661D02*
G01*
X192031298Y-80527626D01*
X192041033Y-80528907D01*
X192293037Y-80579034D01*
X192302520Y-80581575D01*
X192545822Y-80664166D01*
X192554892Y-80667922D01*
X192785335Y-80781563D01*
X192793837Y-80786472D01*
X193007483Y-80929226D01*
X193015273Y-80935204D01*
X193208438Y-81104606D01*
X193215393Y-81111561D01*
X193384795Y-81304726D01*
X193390775Y-81312518D01*
X193533524Y-81526157D01*
X193538437Y-81534667D01*
X193652073Y-81765098D01*
X193655837Y-81774186D01*
X193738421Y-82017470D01*
X193740967Y-82026971D01*
X193791090Y-82278957D01*
X193792374Y-82288710D01*
X193809339Y-82547543D01*
X193809500Y-82552461D01*
X193809500Y-128267538D01*
X193809339Y-128272456D01*
X193792374Y-128531289D01*
X193791090Y-128541042D01*
X193740967Y-128793028D01*
X193738421Y-128802529D01*
X193655837Y-129045813D01*
X193652073Y-129054901D01*
X193538437Y-129285332D01*
X193533519Y-129293851D01*
X193390784Y-129507469D01*
X193384795Y-129515273D01*
X193215393Y-129708438D01*
X193208438Y-129715393D01*
X193015273Y-129884795D01*
X193007473Y-129890780D01*
X192951400Y-129928248D01*
X192793851Y-130033519D01*
X192785332Y-130038437D01*
X192554901Y-130152073D01*
X192545813Y-130155837D01*
X192302529Y-130238421D01*
X192293028Y-130240967D01*
X192041042Y-130291090D01*
X192031289Y-130292374D01*
X191772456Y-130309339D01*
X191767538Y-130309500D01*
X120652462Y-130309500D01*
X120647544Y-130309339D01*
X120388710Y-130292374D01*
X120378957Y-130291090D01*
X120126971Y-130240967D01*
X120117470Y-130238421D01*
X119874186Y-130155837D01*
X119865098Y-130152073D01*
X119634667Y-130038437D01*
X119626157Y-130033524D01*
X119412518Y-129890775D01*
X119404726Y-129884795D01*
X119211561Y-129715393D01*
X119204606Y-129708438D01*
X119035204Y-129515273D01*
X119029226Y-129507483D01*
X118886472Y-129293837D01*
X118881562Y-129285332D01*
X118769464Y-129058019D01*
X118767922Y-129054892D01*
X118764166Y-129045822D01*
X118681575Y-128802520D01*
X118679034Y-128793037D01*
X118628907Y-128541033D01*
X118627626Y-128531298D01*
X118610661Y-128272456D01*
X118610500Y-128267538D01*
X118610500Y-126878712D01*
X120069500Y-126878712D01*
X120069500Y-127121288D01*
X120101162Y-127361789D01*
X120163946Y-127596100D01*
X120163947Y-127596104D01*
X120163948Y-127596105D01*
X120256776Y-127820213D01*
X120378065Y-128030291D01*
X120525730Y-128222732D01*
X120525742Y-128222746D01*
X120697253Y-128394257D01*
X120697267Y-128394269D01*
X120875835Y-128531289D01*
X120889711Y-128541936D01*
X121099788Y-128663224D01*
X121323900Y-128756054D01*
X121558211Y-128818838D01*
X121798712Y-128850500D01*
X121798715Y-128850500D01*
X122041285Y-128850500D01*
X122041288Y-128850500D01*
X122281789Y-128818838D01*
X122516100Y-128756054D01*
X122740212Y-128663224D01*
X122950289Y-128541936D01*
X123142738Y-128394265D01*
X123314265Y-128222738D01*
X123461936Y-128030289D01*
X123583224Y-127820212D01*
X123676054Y-127596100D01*
X123738838Y-127361789D01*
X123770500Y-127121288D01*
X123770500Y-126878712D01*
X188649500Y-126878712D01*
X188649500Y-127121288D01*
X188681162Y-127361789D01*
X188743946Y-127596100D01*
X188743947Y-127596104D01*
X188743948Y-127596105D01*
X188836776Y-127820213D01*
X188958065Y-128030291D01*
X189105730Y-128222732D01*
X189105742Y-128222746D01*
X189277253Y-128394257D01*
X189277267Y-128394269D01*
X189455835Y-128531289D01*
X189469711Y-128541936D01*
X189679788Y-128663224D01*
X189903900Y-128756054D01*
X190138211Y-128818838D01*
X190378712Y-128850500D01*
X190378715Y-128850500D01*
X190621285Y-128850500D01*
X190621288Y-128850500D01*
X190861789Y-128818838D01*
X191096100Y-128756054D01*
X191320212Y-128663224D01*
X191530289Y-128541936D01*
X191722738Y-128394265D01*
X191894265Y-128222738D01*
X192041936Y-128030289D01*
X192163224Y-127820212D01*
X192256054Y-127596100D01*
X192318838Y-127361789D01*
X192350500Y-127121288D01*
X192350500Y-126878712D01*
X192318838Y-126638211D01*
X192256054Y-126403900D01*
X192163224Y-126179788D01*
X192041936Y-125969711D01*
X191894265Y-125777262D01*
X191894263Y-125777260D01*
X191894257Y-125777253D01*
X191722746Y-125605742D01*
X191722732Y-125605730D01*
X191530291Y-125458065D01*
X191320213Y-125336776D01*
X191096105Y-125243948D01*
X191096104Y-125243947D01*
X191096100Y-125243946D01*
X190861789Y-125181162D01*
X190621288Y-125149500D01*
X190378712Y-125149500D01*
X190138211Y-125181162D01*
X189903900Y-125243946D01*
X189903897Y-125243947D01*
X189903894Y-125243948D01*
X189679786Y-125336776D01*
X189469708Y-125458065D01*
X189277267Y-125605730D01*
X189277253Y-125605742D01*
X189105742Y-125777253D01*
X189105730Y-125777267D01*
X188958065Y-125969708D01*
X188836776Y-126179786D01*
X188743948Y-126403894D01*
X188743946Y-126403900D01*
X188681162Y-126638211D01*
X188649500Y-126878712D01*
X123770500Y-126878712D01*
X123738838Y-126638211D01*
X123676054Y-126403900D01*
X123583224Y-126179788D01*
X123461936Y-125969711D01*
X123314265Y-125777262D01*
X123314263Y-125777260D01*
X123314257Y-125777253D01*
X123267004Y-125730000D01*
X131024417Y-125730000D01*
X131044699Y-125935932D01*
X131104765Y-126133947D01*
X131104770Y-126133959D01*
X131202312Y-126316445D01*
X131202315Y-126316450D01*
X131333590Y-126476410D01*
X131493550Y-126607685D01*
X131676046Y-126705232D01*
X131676050Y-126705233D01*
X131676052Y-126705234D01*
X131749778Y-126727598D01*
X131874066Y-126765300D01*
X132080000Y-126785583D01*
X132285934Y-126765300D01*
X132483954Y-126705232D01*
X132666450Y-126607685D01*
X132826410Y-126476410D01*
X132957685Y-126316450D01*
X133055232Y-126133954D01*
X133115300Y-125935934D01*
X133135583Y-125730000D01*
X133564417Y-125730000D01*
X133584699Y-125935932D01*
X133644765Y-126133947D01*
X133644770Y-126133959D01*
X133742312Y-126316445D01*
X133742315Y-126316450D01*
X133873590Y-126476410D01*
X134033550Y-126607685D01*
X134216046Y-126705232D01*
X134216050Y-126705233D01*
X134216052Y-126705234D01*
X134289778Y-126727598D01*
X134414066Y-126765300D01*
X134620000Y-126785583D01*
X134825934Y-126765300D01*
X135023954Y-126705232D01*
X135206450Y-126607685D01*
X135366410Y-126476410D01*
X135497685Y-126316450D01*
X135595232Y-126133954D01*
X135655300Y-125935934D01*
X135675583Y-125730000D01*
X136104417Y-125730000D01*
X136124699Y-125935932D01*
X136184765Y-126133947D01*
X136184770Y-126133959D01*
X136282312Y-126316445D01*
X136282315Y-126316450D01*
X136413590Y-126476410D01*
X136573550Y-126607685D01*
X136756046Y-126705232D01*
X136756050Y-126705233D01*
X136756052Y-126705234D01*
X136829778Y-126727598D01*
X136954066Y-126765300D01*
X137160000Y-126785583D01*
X137365934Y-126765300D01*
X137563954Y-126705232D01*
X137746450Y-126607685D01*
X137906410Y-126476410D01*
X138037685Y-126316450D01*
X138135232Y-126133954D01*
X138195300Y-125935934D01*
X138215583Y-125730000D01*
X138644417Y-125730000D01*
X138664699Y-125935932D01*
X138724765Y-126133947D01*
X138724770Y-126133959D01*
X138822312Y-126316445D01*
X138822315Y-126316450D01*
X138953590Y-126476410D01*
X139113550Y-126607685D01*
X139296046Y-126705232D01*
X139296050Y-126705233D01*
X139296052Y-126705234D01*
X139369778Y-126727598D01*
X139494066Y-126765300D01*
X139700000Y-126785583D01*
X139905934Y-126765300D01*
X140103954Y-126705232D01*
X140286450Y-126607685D01*
X140446410Y-126476410D01*
X140577685Y-126316450D01*
X140675232Y-126133954D01*
X140735300Y-125935934D01*
X140755583Y-125730000D01*
X141184417Y-125730000D01*
X141204699Y-125935932D01*
X141264765Y-126133947D01*
X141264770Y-126133959D01*
X141362312Y-126316445D01*
X141362315Y-126316450D01*
X141493590Y-126476410D01*
X141653550Y-126607685D01*
X141836046Y-126705232D01*
X141836050Y-126705233D01*
X141836052Y-126705234D01*
X141909778Y-126727598D01*
X142034066Y-126765300D01*
X142240000Y-126785583D01*
X142445934Y-126765300D01*
X142643954Y-126705232D01*
X142826450Y-126607685D01*
X142986410Y-126476410D01*
X143117685Y-126316450D01*
X143215232Y-126133954D01*
X143275300Y-125935934D01*
X143295583Y-125730000D01*
X143724417Y-125730000D01*
X143744699Y-125935932D01*
X143804765Y-126133947D01*
X143804770Y-126133959D01*
X143902312Y-126316445D01*
X143902315Y-126316450D01*
X144033590Y-126476410D01*
X144193550Y-126607685D01*
X144376046Y-126705232D01*
X144376050Y-126705233D01*
X144376052Y-126705234D01*
X144449778Y-126727598D01*
X144574066Y-126765300D01*
X144780000Y-126785583D01*
X144985934Y-126765300D01*
X145183954Y-126705232D01*
X145366450Y-126607685D01*
X145526410Y-126476410D01*
X145657685Y-126316450D01*
X145755232Y-126133954D01*
X145815300Y-125935934D01*
X145835583Y-125730000D01*
X146264417Y-125730000D01*
X146284699Y-125935932D01*
X146344765Y-126133947D01*
X146344770Y-126133959D01*
X146442312Y-126316445D01*
X146442315Y-126316450D01*
X146573590Y-126476410D01*
X146733550Y-126607685D01*
X146916046Y-126705232D01*
X146916050Y-126705233D01*
X146916052Y-126705234D01*
X146989778Y-126727598D01*
X147114066Y-126765300D01*
X147320000Y-126785583D01*
X147525934Y-126765300D01*
X147723954Y-126705232D01*
X147906450Y-126607685D01*
X148066410Y-126476410D01*
X148197685Y-126316450D01*
X148295232Y-126133954D01*
X148355300Y-125935934D01*
X148375583Y-125730000D01*
X148804417Y-125730000D01*
X148824699Y-125935932D01*
X148884765Y-126133947D01*
X148884770Y-126133959D01*
X148982312Y-126316445D01*
X148982315Y-126316450D01*
X149113590Y-126476410D01*
X149273550Y-126607685D01*
X149456046Y-126705232D01*
X149456050Y-126705233D01*
X149456052Y-126705234D01*
X149529778Y-126727598D01*
X149654066Y-126765300D01*
X149860000Y-126785583D01*
X150065934Y-126765300D01*
X150263954Y-126705232D01*
X150446450Y-126607685D01*
X150606410Y-126476410D01*
X150737685Y-126316450D01*
X150835232Y-126133954D01*
X150895300Y-125935934D01*
X150915583Y-125730000D01*
X151344417Y-125730000D01*
X151364699Y-125935932D01*
X151424765Y-126133947D01*
X151424770Y-126133959D01*
X151522312Y-126316445D01*
X151522315Y-126316450D01*
X151653590Y-126476410D01*
X151813550Y-126607685D01*
X151996046Y-126705232D01*
X151996050Y-126705233D01*
X151996052Y-126705234D01*
X152069778Y-126727598D01*
X152194066Y-126765300D01*
X152400000Y-126785583D01*
X152605934Y-126765300D01*
X152803954Y-126705232D01*
X152986450Y-126607685D01*
X153146410Y-126476410D01*
X153277685Y-126316450D01*
X153375232Y-126133954D01*
X153435300Y-125935934D01*
X153455583Y-125730000D01*
X153884417Y-125730000D01*
X153904699Y-125935932D01*
X153964765Y-126133947D01*
X153964770Y-126133959D01*
X154062312Y-126316445D01*
X154062315Y-126316450D01*
X154193590Y-126476410D01*
X154353550Y-126607685D01*
X154536046Y-126705232D01*
X154536050Y-126705233D01*
X154536052Y-126705234D01*
X154609778Y-126727598D01*
X154734066Y-126765300D01*
X154940000Y-126785583D01*
X155145934Y-126765300D01*
X155343954Y-126705232D01*
X155526450Y-126607685D01*
X155686410Y-126476410D01*
X155817685Y-126316450D01*
X155915232Y-126133954D01*
X155975300Y-125935934D01*
X155995583Y-125730000D01*
X156424417Y-125730000D01*
X156444699Y-125935932D01*
X156504765Y-126133947D01*
X156504770Y-126133959D01*
X156602312Y-126316445D01*
X156602315Y-126316450D01*
X156733590Y-126476410D01*
X156893550Y-126607685D01*
X157076046Y-126705232D01*
X157076050Y-126705233D01*
X157076052Y-126705234D01*
X157149778Y-126727598D01*
X157274066Y-126765300D01*
X157480000Y-126785583D01*
X157685934Y-126765300D01*
X157883954Y-126705232D01*
X158066450Y-126607685D01*
X158226410Y-126476410D01*
X158357685Y-126316450D01*
X158455232Y-126133954D01*
X158515300Y-125935934D01*
X158535583Y-125730000D01*
X158964417Y-125730000D01*
X158984699Y-125935932D01*
X159044765Y-126133947D01*
X159044770Y-126133959D01*
X159142312Y-126316445D01*
X159142315Y-126316450D01*
X159273590Y-126476410D01*
X159433550Y-126607685D01*
X159616046Y-126705232D01*
X159616050Y-126705233D01*
X159616052Y-126705234D01*
X159689778Y-126727598D01*
X159814066Y-126765300D01*
X160020000Y-126785583D01*
X160225934Y-126765300D01*
X160423954Y-126705232D01*
X160606450Y-126607685D01*
X160766410Y-126476410D01*
X160897685Y-126316450D01*
X160995232Y-126133954D01*
X161055300Y-125935934D01*
X161075583Y-125730000D01*
X161504417Y-125730000D01*
X161524699Y-125935932D01*
X161584765Y-126133947D01*
X161584770Y-126133959D01*
X161682312Y-126316445D01*
X161682315Y-126316450D01*
X161813590Y-126476410D01*
X161973550Y-126607685D01*
X162156046Y-126705232D01*
X162156050Y-126705233D01*
X162156052Y-126705234D01*
X162229778Y-126727598D01*
X162354066Y-126765300D01*
X162560000Y-126785583D01*
X162765934Y-126765300D01*
X162963954Y-126705232D01*
X163146450Y-126607685D01*
X163306410Y-126476410D01*
X163437685Y-126316450D01*
X163535232Y-126133954D01*
X163595300Y-125935934D01*
X163615583Y-125730000D01*
X164044417Y-125730000D01*
X164064699Y-125935932D01*
X164124765Y-126133947D01*
X164124770Y-126133959D01*
X164222312Y-126316445D01*
X164222315Y-126316450D01*
X164353590Y-126476410D01*
X164513550Y-126607685D01*
X164696046Y-126705232D01*
X164696050Y-126705233D01*
X164696052Y-126705234D01*
X164769778Y-126727598D01*
X164894066Y-126765300D01*
X165100000Y-126785583D01*
X165305934Y-126765300D01*
X165503954Y-126705232D01*
X165686450Y-126607685D01*
X165846410Y-126476410D01*
X165977685Y-126316450D01*
X166075232Y-126133954D01*
X166135300Y-125935934D01*
X166155583Y-125730000D01*
X166584417Y-125730000D01*
X166604699Y-125935932D01*
X166664765Y-126133947D01*
X166664770Y-126133959D01*
X166762312Y-126316445D01*
X166762315Y-126316450D01*
X166893590Y-126476410D01*
X167053550Y-126607685D01*
X167236046Y-126705232D01*
X167236050Y-126705233D01*
X167236052Y-126705234D01*
X167309778Y-126727598D01*
X167434066Y-126765300D01*
X167640000Y-126785583D01*
X167845934Y-126765300D01*
X168043954Y-126705232D01*
X168226450Y-126607685D01*
X168386410Y-126476410D01*
X168517685Y-126316450D01*
X168615232Y-126133954D01*
X168675300Y-125935934D01*
X168695583Y-125730000D01*
X169124417Y-125730000D01*
X169144699Y-125935932D01*
X169204765Y-126133947D01*
X169204770Y-126133959D01*
X169302312Y-126316445D01*
X169302315Y-126316450D01*
X169433590Y-126476410D01*
X169593550Y-126607685D01*
X169776046Y-126705232D01*
X169776050Y-126705233D01*
X169776052Y-126705234D01*
X169849778Y-126727598D01*
X169974066Y-126765300D01*
X170180000Y-126785583D01*
X170385934Y-126765300D01*
X170583954Y-126705232D01*
X170766450Y-126607685D01*
X170926410Y-126476410D01*
X171057685Y-126316450D01*
X171155232Y-126133954D01*
X171215300Y-125935934D01*
X171235583Y-125730000D01*
X171664417Y-125730000D01*
X171684699Y-125935932D01*
X171744765Y-126133947D01*
X171744770Y-126133959D01*
X171842312Y-126316445D01*
X171842315Y-126316450D01*
X171973590Y-126476410D01*
X172133550Y-126607685D01*
X172316046Y-126705232D01*
X172316050Y-126705233D01*
X172316052Y-126705234D01*
X172389778Y-126727598D01*
X172514066Y-126765300D01*
X172720000Y-126785583D01*
X172925934Y-126765300D01*
X173123954Y-126705232D01*
X173306450Y-126607685D01*
X173466410Y-126476410D01*
X173597685Y-126316450D01*
X173695232Y-126133954D01*
X173755300Y-125935934D01*
X173775583Y-125730000D01*
X174204417Y-125730000D01*
X174224699Y-125935932D01*
X174284765Y-126133947D01*
X174284770Y-126133959D01*
X174382312Y-126316445D01*
X174382315Y-126316450D01*
X174513590Y-126476410D01*
X174673550Y-126607685D01*
X174856046Y-126705232D01*
X174856050Y-126705233D01*
X174856052Y-126705234D01*
X174929778Y-126727598D01*
X175054066Y-126765300D01*
X175260000Y-126785583D01*
X175465934Y-126765300D01*
X175663954Y-126705232D01*
X175846450Y-126607685D01*
X176006410Y-126476410D01*
X176137685Y-126316450D01*
X176235232Y-126133954D01*
X176295300Y-125935934D01*
X176315583Y-125730000D01*
X176295300Y-125524066D01*
X176257598Y-125399778D01*
X176235234Y-125326052D01*
X176235229Y-125326040D01*
X176137687Y-125143554D01*
X176137684Y-125143549D01*
X176006410Y-124983590D01*
X175846450Y-124852315D01*
X175846445Y-124852312D01*
X175663959Y-124754770D01*
X175663947Y-124754765D01*
X175465932Y-124694699D01*
X175260000Y-124674417D01*
X175054067Y-124694699D01*
X174856052Y-124754765D01*
X174856040Y-124754770D01*
X174673554Y-124852312D01*
X174673549Y-124852315D01*
X174513590Y-124983590D01*
X174382315Y-125143549D01*
X174382312Y-125143554D01*
X174284770Y-125326040D01*
X174284765Y-125326052D01*
X174224699Y-125524067D01*
X174204417Y-125730000D01*
X173775583Y-125730000D01*
X173755300Y-125524066D01*
X173717598Y-125399778D01*
X173695234Y-125326052D01*
X173695229Y-125326040D01*
X173597687Y-125143554D01*
X173597684Y-125143549D01*
X173466410Y-124983590D01*
X173306450Y-124852315D01*
X173306445Y-124852312D01*
X173123959Y-124754770D01*
X173123947Y-124754765D01*
X172925932Y-124694699D01*
X172720000Y-124674417D01*
X172514067Y-124694699D01*
X172316052Y-124754765D01*
X172316040Y-124754770D01*
X172133554Y-124852312D01*
X172133549Y-124852315D01*
X171973590Y-124983590D01*
X171842315Y-125143549D01*
X171842312Y-125143554D01*
X171744770Y-125326040D01*
X171744765Y-125326052D01*
X171684699Y-125524067D01*
X171664417Y-125730000D01*
X171235583Y-125730000D01*
X171215300Y-125524066D01*
X171177598Y-125399778D01*
X171155234Y-125326052D01*
X171155229Y-125326040D01*
X171057687Y-125143554D01*
X171057684Y-125143549D01*
X170926410Y-124983590D01*
X170766450Y-124852315D01*
X170766445Y-124852312D01*
X170583959Y-124754770D01*
X170583947Y-124754765D01*
X170385932Y-124694699D01*
X170180000Y-124674417D01*
X169974067Y-124694699D01*
X169776052Y-124754765D01*
X169776040Y-124754770D01*
X169593554Y-124852312D01*
X169593549Y-124852315D01*
X169433590Y-124983590D01*
X169302315Y-125143549D01*
X169302312Y-125143554D01*
X169204770Y-125326040D01*
X169204765Y-125326052D01*
X169144699Y-125524067D01*
X169124417Y-125730000D01*
X168695583Y-125730000D01*
X168675300Y-125524066D01*
X168637598Y-125399778D01*
X168615234Y-125326052D01*
X168615229Y-125326040D01*
X168517687Y-125143554D01*
X168517684Y-125143549D01*
X168386410Y-124983590D01*
X168226450Y-124852315D01*
X168226445Y-124852312D01*
X168043959Y-124754770D01*
X168043947Y-124754765D01*
X167845932Y-124694699D01*
X167640000Y-124674417D01*
X167434067Y-124694699D01*
X167236052Y-124754765D01*
X167236040Y-124754770D01*
X167053554Y-124852312D01*
X167053549Y-124852315D01*
X166893590Y-124983590D01*
X166762315Y-125143549D01*
X166762312Y-125143554D01*
X166664770Y-125326040D01*
X166664765Y-125326052D01*
X166604699Y-125524067D01*
X166584417Y-125730000D01*
X166155583Y-125730000D01*
X166135300Y-125524066D01*
X166097598Y-125399778D01*
X166075234Y-125326052D01*
X166075229Y-125326040D01*
X165977687Y-125143554D01*
X165977684Y-125143549D01*
X165846410Y-124983590D01*
X165686450Y-124852315D01*
X165686445Y-124852312D01*
X165503959Y-124754770D01*
X165503947Y-124754765D01*
X165305932Y-124694699D01*
X165100000Y-124674417D01*
X164894067Y-124694699D01*
X164696052Y-124754765D01*
X164696040Y-124754770D01*
X164513554Y-124852312D01*
X164513549Y-124852315D01*
X164353590Y-124983590D01*
X164222315Y-125143549D01*
X164222312Y-125143554D01*
X164124770Y-125326040D01*
X164124765Y-125326052D01*
X164064699Y-125524067D01*
X164044417Y-125730000D01*
X163615583Y-125730000D01*
X163595300Y-125524066D01*
X163557598Y-125399778D01*
X163535234Y-125326052D01*
X163535229Y-125326040D01*
X163437687Y-125143554D01*
X163437684Y-125143549D01*
X163306410Y-124983590D01*
X163146450Y-124852315D01*
X163146445Y-124852312D01*
X162963959Y-124754770D01*
X162963947Y-124754765D01*
X162765932Y-124694699D01*
X162560000Y-124674417D01*
X162354067Y-124694699D01*
X162156052Y-124754765D01*
X162156040Y-124754770D01*
X161973554Y-124852312D01*
X161973549Y-124852315D01*
X161813590Y-124983590D01*
X161682315Y-125143549D01*
X161682312Y-125143554D01*
X161584770Y-125326040D01*
X161584765Y-125326052D01*
X161524699Y-125524067D01*
X161504417Y-125730000D01*
X161075583Y-125730000D01*
X161055300Y-125524066D01*
X161017598Y-125399778D01*
X160995234Y-125326052D01*
X160995229Y-125326040D01*
X160897687Y-125143554D01*
X160897684Y-125143549D01*
X160766410Y-124983590D01*
X160606450Y-124852315D01*
X160606445Y-124852312D01*
X160423959Y-124754770D01*
X160423947Y-124754765D01*
X160225932Y-124694699D01*
X160020000Y-124674417D01*
X159814067Y-124694699D01*
X159616052Y-124754765D01*
X159616040Y-124754770D01*
X159433554Y-124852312D01*
X159433549Y-124852315D01*
X159273590Y-124983590D01*
X159142315Y-125143549D01*
X159142312Y-125143554D01*
X159044770Y-125326040D01*
X159044765Y-125326052D01*
X158984699Y-125524067D01*
X158964417Y-125730000D01*
X158535583Y-125730000D01*
X158515300Y-125524066D01*
X158477598Y-125399778D01*
X158455234Y-125326052D01*
X158455229Y-125326040D01*
X158357687Y-125143554D01*
X158357684Y-125143549D01*
X158226410Y-124983590D01*
X158066450Y-124852315D01*
X158066445Y-124852312D01*
X157883959Y-124754770D01*
X157883947Y-124754765D01*
X157685932Y-124694699D01*
X157480000Y-124674417D01*
X157274067Y-124694699D01*
X157076052Y-124754765D01*
X157076040Y-124754770D01*
X156893554Y-124852312D01*
X156893549Y-124852315D01*
X156733590Y-124983590D01*
X156602315Y-125143549D01*
X156602312Y-125143554D01*
X156504770Y-125326040D01*
X156504765Y-125326052D01*
X156444699Y-125524067D01*
X156424417Y-125730000D01*
X155995583Y-125730000D01*
X155975300Y-125524066D01*
X155937598Y-125399778D01*
X155915234Y-125326052D01*
X155915229Y-125326040D01*
X155817687Y-125143554D01*
X155817684Y-125143549D01*
X155686410Y-124983590D01*
X155526450Y-124852315D01*
X155526445Y-124852312D01*
X155343959Y-124754770D01*
X155343947Y-124754765D01*
X155145932Y-124694699D01*
X154940000Y-124674417D01*
X154734067Y-124694699D01*
X154536052Y-124754765D01*
X154536040Y-124754770D01*
X154353554Y-124852312D01*
X154353549Y-124852315D01*
X154193590Y-124983590D01*
X154062315Y-125143549D01*
X154062312Y-125143554D01*
X153964770Y-125326040D01*
X153964765Y-125326052D01*
X153904699Y-125524067D01*
X153884417Y-125730000D01*
X153455583Y-125730000D01*
X153435300Y-125524066D01*
X153397598Y-125399778D01*
X153375234Y-125326052D01*
X153375229Y-125326040D01*
X153277687Y-125143554D01*
X153277684Y-125143549D01*
X153146410Y-124983590D01*
X152986450Y-124852315D01*
X152986445Y-124852312D01*
X152803959Y-124754770D01*
X152803947Y-124754765D01*
X152605932Y-124694699D01*
X152400000Y-124674417D01*
X152194067Y-124694699D01*
X151996052Y-124754765D01*
X151996040Y-124754770D01*
X151813554Y-124852312D01*
X151813549Y-124852315D01*
X151653590Y-124983590D01*
X151522315Y-125143549D01*
X151522312Y-125143554D01*
X151424770Y-125326040D01*
X151424765Y-125326052D01*
X151364699Y-125524067D01*
X151344417Y-125730000D01*
X150915583Y-125730000D01*
X150895300Y-125524066D01*
X150857598Y-125399778D01*
X150835234Y-125326052D01*
X150835229Y-125326040D01*
X150737687Y-125143554D01*
X150737684Y-125143549D01*
X150606410Y-124983590D01*
X150446450Y-124852315D01*
X150446445Y-124852312D01*
X150263959Y-124754770D01*
X150263947Y-124754765D01*
X150065932Y-124694699D01*
X149860000Y-124674417D01*
X149654067Y-124694699D01*
X149456052Y-124754765D01*
X149456040Y-124754770D01*
X149273554Y-124852312D01*
X149273549Y-124852315D01*
X149113590Y-124983590D01*
X148982315Y-125143549D01*
X148982312Y-125143554D01*
X148884770Y-125326040D01*
X148884765Y-125326052D01*
X148824699Y-125524067D01*
X148804417Y-125730000D01*
X148375583Y-125730000D01*
X148355300Y-125524066D01*
X148317598Y-125399778D01*
X148295234Y-125326052D01*
X148295229Y-125326040D01*
X148197687Y-125143554D01*
X148197684Y-125143549D01*
X148066410Y-124983590D01*
X147906450Y-124852315D01*
X147906445Y-124852312D01*
X147723959Y-124754770D01*
X147723947Y-124754765D01*
X147525932Y-124694699D01*
X147320000Y-124674417D01*
X147114067Y-124694699D01*
X146916052Y-124754765D01*
X146916040Y-124754770D01*
X146733554Y-124852312D01*
X146733549Y-124852315D01*
X146573590Y-124983590D01*
X146442315Y-125143549D01*
X146442312Y-125143554D01*
X146344770Y-125326040D01*
X146344765Y-125326052D01*
X146284699Y-125524067D01*
X146264417Y-125730000D01*
X145835583Y-125730000D01*
X145815300Y-125524066D01*
X145777598Y-125399778D01*
X145755234Y-125326052D01*
X145755229Y-125326040D01*
X145657687Y-125143554D01*
X145657684Y-125143549D01*
X145526410Y-124983590D01*
X145366450Y-124852315D01*
X145366445Y-124852312D01*
X145183959Y-124754770D01*
X145183947Y-124754765D01*
X144985932Y-124694699D01*
X144780000Y-124674417D01*
X144574067Y-124694699D01*
X144376052Y-124754765D01*
X144376040Y-124754770D01*
X144193554Y-124852312D01*
X144193549Y-124852315D01*
X144033590Y-124983590D01*
X143902315Y-125143549D01*
X143902312Y-125143554D01*
X143804770Y-125326040D01*
X143804765Y-125326052D01*
X143744699Y-125524067D01*
X143724417Y-125730000D01*
X143295583Y-125730000D01*
X143275300Y-125524066D01*
X143237598Y-125399778D01*
X143215234Y-125326052D01*
X143215229Y-125326040D01*
X143117687Y-125143554D01*
X143117684Y-125143549D01*
X142986410Y-124983590D01*
X142826450Y-124852315D01*
X142826445Y-124852312D01*
X142643959Y-124754770D01*
X142643947Y-124754765D01*
X142445932Y-124694699D01*
X142240000Y-124674417D01*
X142034067Y-124694699D01*
X141836052Y-124754765D01*
X141836040Y-124754770D01*
X141653554Y-124852312D01*
X141653549Y-124852315D01*
X141493590Y-124983590D01*
X141362315Y-125143549D01*
X141362312Y-125143554D01*
X141264770Y-125326040D01*
X141264765Y-125326052D01*
X141204699Y-125524067D01*
X141184417Y-125730000D01*
X140755583Y-125730000D01*
X140735300Y-125524066D01*
X140697598Y-125399778D01*
X140675234Y-125326052D01*
X140675229Y-125326040D01*
X140577687Y-125143554D01*
X140577684Y-125143549D01*
X140446410Y-124983590D01*
X140286450Y-124852315D01*
X140286445Y-124852312D01*
X140103959Y-124754770D01*
X140103947Y-124754765D01*
X139905932Y-124694699D01*
X139700000Y-124674417D01*
X139494067Y-124694699D01*
X139296052Y-124754765D01*
X139296040Y-124754770D01*
X139113554Y-124852312D01*
X139113549Y-124852315D01*
X138953590Y-124983590D01*
X138822315Y-125143549D01*
X138822312Y-125143554D01*
X138724770Y-125326040D01*
X138724765Y-125326052D01*
X138664699Y-125524067D01*
X138644417Y-125730000D01*
X138215583Y-125730000D01*
X138195300Y-125524066D01*
X138157598Y-125399778D01*
X138135234Y-125326052D01*
X138135229Y-125326040D01*
X138037687Y-125143554D01*
X138037684Y-125143549D01*
X137906410Y-124983590D01*
X137746450Y-124852315D01*
X137746445Y-124852312D01*
X137563959Y-124754770D01*
X137563947Y-124754765D01*
X137365932Y-124694699D01*
X137160000Y-124674417D01*
X136954067Y-124694699D01*
X136756052Y-124754765D01*
X136756040Y-124754770D01*
X136573554Y-124852312D01*
X136573549Y-124852315D01*
X136413590Y-124983590D01*
X136282315Y-125143549D01*
X136282312Y-125143554D01*
X136184770Y-125326040D01*
X136184765Y-125326052D01*
X136124699Y-125524067D01*
X136104417Y-125730000D01*
X135675583Y-125730000D01*
X135655300Y-125524066D01*
X135617598Y-125399778D01*
X135595234Y-125326052D01*
X135595229Y-125326040D01*
X135497687Y-125143554D01*
X135497684Y-125143549D01*
X135366410Y-124983590D01*
X135206450Y-124852315D01*
X135206445Y-124852312D01*
X135023959Y-124754770D01*
X135023947Y-124754765D01*
X134825932Y-124694699D01*
X134620000Y-124674417D01*
X134414067Y-124694699D01*
X134216052Y-124754765D01*
X134216040Y-124754770D01*
X134033554Y-124852312D01*
X134033549Y-124852315D01*
X133873590Y-124983590D01*
X133742315Y-125143549D01*
X133742312Y-125143554D01*
X133644770Y-125326040D01*
X133644765Y-125326052D01*
X133584699Y-125524067D01*
X133564417Y-125730000D01*
X133135583Y-125730000D01*
X133115300Y-125524066D01*
X133077598Y-125399778D01*
X133055234Y-125326052D01*
X133055229Y-125326040D01*
X132957687Y-125143554D01*
X132957684Y-125143549D01*
X132826410Y-124983590D01*
X132666450Y-124852315D01*
X132666445Y-124852312D01*
X132483959Y-124754770D01*
X132483947Y-124754765D01*
X132285932Y-124694699D01*
X132080000Y-124674417D01*
X131874067Y-124694699D01*
X131676052Y-124754765D01*
X131676040Y-124754770D01*
X131493554Y-124852312D01*
X131493549Y-124852315D01*
X131333590Y-124983590D01*
X131202315Y-125143549D01*
X131202312Y-125143554D01*
X131104770Y-125326040D01*
X131104765Y-125326052D01*
X131044699Y-125524067D01*
X131024417Y-125730000D01*
X123267004Y-125730000D01*
X123142746Y-125605742D01*
X123142732Y-125605730D01*
X122950291Y-125458065D01*
X122740213Y-125336776D01*
X122516105Y-125243948D01*
X122516104Y-125243947D01*
X122516100Y-125243946D01*
X122281789Y-125181162D01*
X122041288Y-125149500D01*
X121798712Y-125149500D01*
X121558211Y-125181162D01*
X121323900Y-125243946D01*
X121323897Y-125243947D01*
X121323894Y-125243948D01*
X121099786Y-125336776D01*
X120889708Y-125458065D01*
X120697267Y-125605730D01*
X120697253Y-125605742D01*
X120525742Y-125777253D01*
X120525730Y-125777267D01*
X120378065Y-125969708D01*
X120256776Y-126179786D01*
X120163948Y-126403894D01*
X120163946Y-126403900D01*
X120101162Y-126638211D01*
X120069500Y-126878712D01*
X118610500Y-126878712D01*
X118610500Y-122324987D01*
X131077600Y-122324987D01*
X131077600Y-123037600D01*
X131603198Y-123037600D01*
X131580000Y-123124174D01*
X131580000Y-123255826D01*
X131603198Y-123342400D01*
X131077600Y-123342400D01*
X131077600Y-124055012D01*
X131086441Y-124099462D01*
X131086442Y-124099464D01*
X131120126Y-124149873D01*
X131170535Y-124183557D01*
X131170537Y-124183558D01*
X131214987Y-124192400D01*
X131927600Y-124192400D01*
X131927600Y-123666802D01*
X132014174Y-123690000D01*
X132145826Y-123690000D01*
X132232400Y-123666802D01*
X132232400Y-124192400D01*
X132945013Y-124192400D01*
X132989462Y-124183558D01*
X132989464Y-124183557D01*
X133039873Y-124149873D01*
X133073557Y-124099464D01*
X133073558Y-124099462D01*
X133082400Y-124055012D01*
X133082400Y-123342400D01*
X132556802Y-123342400D01*
X132580000Y-123255826D01*
X132580000Y-123190000D01*
X133564417Y-123190000D01*
X133584699Y-123395932D01*
X133644765Y-123593947D01*
X133644770Y-123593959D01*
X133742312Y-123776445D01*
X133742315Y-123776450D01*
X133873590Y-123936410D01*
X134033550Y-124067685D01*
X134033554Y-124067687D01*
X134187311Y-124149873D01*
X134216046Y-124165232D01*
X134216050Y-124165233D01*
X134216052Y-124165234D01*
X134257794Y-124177896D01*
X134414066Y-124225300D01*
X134620000Y-124245583D01*
X134825934Y-124225300D01*
X135023954Y-124165232D01*
X135206450Y-124067685D01*
X135366410Y-123936410D01*
X135497685Y-123776450D01*
X135595232Y-123593954D01*
X135655300Y-123395934D01*
X135675583Y-123190000D01*
X136104417Y-123190000D01*
X136124699Y-123395932D01*
X136184765Y-123593947D01*
X136184770Y-123593959D01*
X136282312Y-123776445D01*
X136282315Y-123776450D01*
X136413590Y-123936410D01*
X136573550Y-124067685D01*
X136573554Y-124067687D01*
X136727311Y-124149873D01*
X136756046Y-124165232D01*
X136756050Y-124165233D01*
X136756052Y-124165234D01*
X136797794Y-124177896D01*
X136954066Y-124225300D01*
X137160000Y-124245583D01*
X137365934Y-124225300D01*
X137563954Y-124165232D01*
X137746450Y-124067685D01*
X137906410Y-123936410D01*
X138037685Y-123776450D01*
X138135232Y-123593954D01*
X138195300Y-123395934D01*
X138215583Y-123190000D01*
X138644417Y-123190000D01*
X138664699Y-123395932D01*
X138724765Y-123593947D01*
X138724770Y-123593959D01*
X138822312Y-123776445D01*
X138822315Y-123776450D01*
X138953590Y-123936410D01*
X139113550Y-124067685D01*
X139113554Y-124067687D01*
X139267311Y-124149873D01*
X139296046Y-124165232D01*
X139296050Y-124165233D01*
X139296052Y-124165234D01*
X139337794Y-124177896D01*
X139494066Y-124225300D01*
X139700000Y-124245583D01*
X139905934Y-124225300D01*
X140103954Y-124165232D01*
X140286450Y-124067685D01*
X140446410Y-123936410D01*
X140577685Y-123776450D01*
X140675232Y-123593954D01*
X140735300Y-123395934D01*
X140755583Y-123190000D01*
X141184417Y-123190000D01*
X141204699Y-123395932D01*
X141264765Y-123593947D01*
X141264770Y-123593959D01*
X141362312Y-123776445D01*
X141362315Y-123776450D01*
X141493590Y-123936410D01*
X141653550Y-124067685D01*
X141653554Y-124067687D01*
X141807311Y-124149873D01*
X141836046Y-124165232D01*
X141836050Y-124165233D01*
X141836052Y-124165234D01*
X141877794Y-124177896D01*
X142034066Y-124225300D01*
X142240000Y-124245583D01*
X142445934Y-124225300D01*
X142643954Y-124165232D01*
X142826450Y-124067685D01*
X142986410Y-123936410D01*
X143117685Y-123776450D01*
X143215232Y-123593954D01*
X143275300Y-123395934D01*
X143295583Y-123190000D01*
X143724417Y-123190000D01*
X143744699Y-123395932D01*
X143804765Y-123593947D01*
X143804770Y-123593959D01*
X143902312Y-123776445D01*
X143902315Y-123776450D01*
X144033590Y-123936410D01*
X144193550Y-124067685D01*
X144193554Y-124067687D01*
X144347311Y-124149873D01*
X144376046Y-124165232D01*
X144376050Y-124165233D01*
X144376052Y-124165234D01*
X144417794Y-124177896D01*
X144574066Y-124225300D01*
X144780000Y-124245583D01*
X144985934Y-124225300D01*
X145183954Y-124165232D01*
X145366450Y-124067685D01*
X145526410Y-123936410D01*
X145657685Y-123776450D01*
X145755232Y-123593954D01*
X145815300Y-123395934D01*
X145835583Y-123190000D01*
X146264417Y-123190000D01*
X146284699Y-123395932D01*
X146344765Y-123593947D01*
X146344770Y-123593959D01*
X146442312Y-123776445D01*
X146442315Y-123776450D01*
X146573590Y-123936410D01*
X146733550Y-124067685D01*
X146733554Y-124067687D01*
X146887311Y-124149873D01*
X146916046Y-124165232D01*
X146916050Y-124165233D01*
X146916052Y-124165234D01*
X146957794Y-124177896D01*
X147114066Y-124225300D01*
X147320000Y-124245583D01*
X147525934Y-124225300D01*
X147723954Y-124165232D01*
X147906450Y-124067685D01*
X148066410Y-123936410D01*
X148197685Y-123776450D01*
X148295232Y-123593954D01*
X148355300Y-123395934D01*
X148375583Y-123190000D01*
X148804417Y-123190000D01*
X148824699Y-123395932D01*
X148884765Y-123593947D01*
X148884770Y-123593959D01*
X148982312Y-123776445D01*
X148982315Y-123776450D01*
X149113590Y-123936410D01*
X149273550Y-124067685D01*
X149273554Y-124067687D01*
X149427311Y-124149873D01*
X149456046Y-124165232D01*
X149456050Y-124165233D01*
X149456052Y-124165234D01*
X149497794Y-124177896D01*
X149654066Y-124225300D01*
X149860000Y-124245583D01*
X150065934Y-124225300D01*
X150263954Y-124165232D01*
X150446450Y-124067685D01*
X150606410Y-123936410D01*
X150737685Y-123776450D01*
X150835232Y-123593954D01*
X150895300Y-123395934D01*
X150915583Y-123190000D01*
X151344417Y-123190000D01*
X151364699Y-123395932D01*
X151424765Y-123593947D01*
X151424770Y-123593959D01*
X151522312Y-123776445D01*
X151522315Y-123776450D01*
X151653590Y-123936410D01*
X151813550Y-124067685D01*
X151813554Y-124067687D01*
X151967311Y-124149873D01*
X151996046Y-124165232D01*
X151996050Y-124165233D01*
X151996052Y-124165234D01*
X152037794Y-124177896D01*
X152194066Y-124225300D01*
X152400000Y-124245583D01*
X152605934Y-124225300D01*
X152803954Y-124165232D01*
X152986450Y-124067685D01*
X153146410Y-123936410D01*
X153277685Y-123776450D01*
X153375232Y-123593954D01*
X153435300Y-123395934D01*
X153455583Y-123190000D01*
X153884417Y-123190000D01*
X153904699Y-123395932D01*
X153964765Y-123593947D01*
X153964770Y-123593959D01*
X154062312Y-123776445D01*
X154062315Y-123776450D01*
X154193590Y-123936410D01*
X154353550Y-124067685D01*
X154353554Y-124067687D01*
X154507311Y-124149873D01*
X154536046Y-124165232D01*
X154536050Y-124165233D01*
X154536052Y-124165234D01*
X154577794Y-124177896D01*
X154734066Y-124225300D01*
X154940000Y-124245583D01*
X155145934Y-124225300D01*
X155343954Y-124165232D01*
X155526450Y-124067685D01*
X155686410Y-123936410D01*
X155817685Y-123776450D01*
X155915232Y-123593954D01*
X155975300Y-123395934D01*
X155995583Y-123190000D01*
X156424417Y-123190000D01*
X156444699Y-123395932D01*
X156504765Y-123593947D01*
X156504770Y-123593959D01*
X156602312Y-123776445D01*
X156602315Y-123776450D01*
X156733590Y-123936410D01*
X156893550Y-124067685D01*
X156893554Y-124067687D01*
X157047311Y-124149873D01*
X157076046Y-124165232D01*
X157076050Y-124165233D01*
X157076052Y-124165234D01*
X157117794Y-124177896D01*
X157274066Y-124225300D01*
X157480000Y-124245583D01*
X157685934Y-124225300D01*
X157883954Y-124165232D01*
X158066450Y-124067685D01*
X158226410Y-123936410D01*
X158357685Y-123776450D01*
X158455232Y-123593954D01*
X158515300Y-123395934D01*
X158535583Y-123190000D01*
X158515300Y-122984066D01*
X158477598Y-122859778D01*
X158455234Y-122786052D01*
X158455233Y-122786050D01*
X158455232Y-122786046D01*
X158357685Y-122603550D01*
X158226410Y-122443590D01*
X158066450Y-122312315D01*
X158066445Y-122312312D01*
X157883959Y-122214770D01*
X157883947Y-122214765D01*
X157685932Y-122154699D01*
X157480000Y-122134417D01*
X157274067Y-122154699D01*
X157076052Y-122214765D01*
X157076040Y-122214770D01*
X156893554Y-122312312D01*
X156893549Y-122312315D01*
X156733590Y-122443590D01*
X156602315Y-122603549D01*
X156602312Y-122603554D01*
X156504770Y-122786040D01*
X156504765Y-122786052D01*
X156444699Y-122984067D01*
X156424417Y-123190000D01*
X155995583Y-123190000D01*
X155975300Y-122984066D01*
X155937598Y-122859778D01*
X155915234Y-122786052D01*
X155915233Y-122786050D01*
X155915232Y-122786046D01*
X155817685Y-122603550D01*
X155686410Y-122443590D01*
X155526450Y-122312315D01*
X155526445Y-122312312D01*
X155343959Y-122214770D01*
X155343947Y-122214765D01*
X155145932Y-122154699D01*
X154940000Y-122134417D01*
X154734067Y-122154699D01*
X154536052Y-122214765D01*
X154536040Y-122214770D01*
X154353554Y-122312312D01*
X154353549Y-122312315D01*
X154193590Y-122443590D01*
X154062315Y-122603549D01*
X154062312Y-122603554D01*
X153964770Y-122786040D01*
X153964765Y-122786052D01*
X153904699Y-122984067D01*
X153884417Y-123190000D01*
X153455583Y-123190000D01*
X153435300Y-122984066D01*
X153397598Y-122859778D01*
X153375234Y-122786052D01*
X153375233Y-122786050D01*
X153375232Y-122786046D01*
X153277685Y-122603550D01*
X153146410Y-122443590D01*
X152986450Y-122312315D01*
X152986445Y-122312312D01*
X152803959Y-122214770D01*
X152803947Y-122214765D01*
X152605932Y-122154699D01*
X152400000Y-122134417D01*
X152194067Y-122154699D01*
X151996052Y-122214765D01*
X151996040Y-122214770D01*
X151813554Y-122312312D01*
X151813549Y-122312315D01*
X151653590Y-122443590D01*
X151522315Y-122603549D01*
X151522312Y-122603554D01*
X151424770Y-122786040D01*
X151424765Y-122786052D01*
X151364699Y-122984067D01*
X151344417Y-123190000D01*
X150915583Y-123190000D01*
X150895300Y-122984066D01*
X150857598Y-122859778D01*
X150835234Y-122786052D01*
X150835233Y-122786050D01*
X150835232Y-122786046D01*
X150737685Y-122603550D01*
X150606410Y-122443590D01*
X150446450Y-122312315D01*
X150446445Y-122312312D01*
X150263959Y-122214770D01*
X150263947Y-122214765D01*
X150065932Y-122154699D01*
X149860000Y-122134417D01*
X149654067Y-122154699D01*
X149456052Y-122214765D01*
X149456040Y-122214770D01*
X149273554Y-122312312D01*
X149273549Y-122312315D01*
X149113590Y-122443590D01*
X148982315Y-122603549D01*
X148982312Y-122603554D01*
X148884770Y-122786040D01*
X148884765Y-122786052D01*
X148824699Y-122984067D01*
X148804417Y-123190000D01*
X148375583Y-123190000D01*
X148355300Y-122984066D01*
X148317598Y-122859778D01*
X148295234Y-122786052D01*
X148295233Y-122786050D01*
X148295232Y-122786046D01*
X148197685Y-122603550D01*
X148066410Y-122443590D01*
X147906450Y-122312315D01*
X147906445Y-122312312D01*
X147723959Y-122214770D01*
X147723947Y-122214765D01*
X147525932Y-122154699D01*
X147320000Y-122134417D01*
X147114067Y-122154699D01*
X146916052Y-122214765D01*
X146916040Y-122214770D01*
X146733554Y-122312312D01*
X146733549Y-122312315D01*
X146573590Y-122443590D01*
X146442315Y-122603549D01*
X146442312Y-122603554D01*
X146344770Y-122786040D01*
X146344765Y-122786052D01*
X146284699Y-122984067D01*
X146264417Y-123190000D01*
X145835583Y-123190000D01*
X145815300Y-122984066D01*
X145777598Y-122859778D01*
X145755234Y-122786052D01*
X145755233Y-122786050D01*
X145755232Y-122786046D01*
X145657685Y-122603550D01*
X145526410Y-122443590D01*
X145366450Y-122312315D01*
X145366445Y-122312312D01*
X145183959Y-122214770D01*
X145183947Y-122214765D01*
X144985932Y-122154699D01*
X144780000Y-122134417D01*
X144574067Y-122154699D01*
X144376052Y-122214765D01*
X144376040Y-122214770D01*
X144193554Y-122312312D01*
X144193549Y-122312315D01*
X144033590Y-122443590D01*
X143902315Y-122603549D01*
X143902312Y-122603554D01*
X143804770Y-122786040D01*
X143804765Y-122786052D01*
X143744699Y-122984067D01*
X143724417Y-123190000D01*
X143295583Y-123190000D01*
X143275300Y-122984066D01*
X143237598Y-122859778D01*
X143215234Y-122786052D01*
X143215233Y-122786050D01*
X143215232Y-122786046D01*
X143117685Y-122603550D01*
X142986410Y-122443590D01*
X142826450Y-122312315D01*
X142826445Y-122312312D01*
X142643959Y-122214770D01*
X142643947Y-122214765D01*
X142445932Y-122154699D01*
X142240000Y-122134417D01*
X142034067Y-122154699D01*
X141836052Y-122214765D01*
X141836040Y-122214770D01*
X141653554Y-122312312D01*
X141653549Y-122312315D01*
X141493590Y-122443590D01*
X141362315Y-122603549D01*
X141362312Y-122603554D01*
X141264770Y-122786040D01*
X141264765Y-122786052D01*
X141204699Y-122984067D01*
X141184417Y-123190000D01*
X140755583Y-123190000D01*
X140735300Y-122984066D01*
X140697598Y-122859778D01*
X140675234Y-122786052D01*
X140675233Y-122786050D01*
X140675232Y-122786046D01*
X140577685Y-122603550D01*
X140446410Y-122443590D01*
X140286450Y-122312315D01*
X140286445Y-122312312D01*
X140103959Y-122214770D01*
X140103947Y-122214765D01*
X139905932Y-122154699D01*
X139700000Y-122134417D01*
X139494067Y-122154699D01*
X139296052Y-122214765D01*
X139296040Y-122214770D01*
X139113554Y-122312312D01*
X139113549Y-122312315D01*
X138953590Y-122443590D01*
X138822315Y-122603549D01*
X138822312Y-122603554D01*
X138724770Y-122786040D01*
X138724765Y-122786052D01*
X138664699Y-122984067D01*
X138644417Y-123190000D01*
X138215583Y-123190000D01*
X138195300Y-122984066D01*
X138157598Y-122859778D01*
X138135234Y-122786052D01*
X138135233Y-122786050D01*
X138135232Y-122786046D01*
X138037685Y-122603550D01*
X137906410Y-122443590D01*
X137746450Y-122312315D01*
X137746445Y-122312312D01*
X137563959Y-122214770D01*
X137563947Y-122214765D01*
X137365932Y-122154699D01*
X137160000Y-122134417D01*
X136954067Y-122154699D01*
X136756052Y-122214765D01*
X136756040Y-122214770D01*
X136573554Y-122312312D01*
X136573549Y-122312315D01*
X136413590Y-122443590D01*
X136282315Y-122603549D01*
X136282312Y-122603554D01*
X136184770Y-122786040D01*
X136184765Y-122786052D01*
X136124699Y-122984067D01*
X136104417Y-123190000D01*
X135675583Y-123190000D01*
X135655300Y-122984066D01*
X135617598Y-122859778D01*
X135595234Y-122786052D01*
X135595233Y-122786050D01*
X135595232Y-122786046D01*
X135497685Y-122603550D01*
X135366410Y-122443590D01*
X135206450Y-122312315D01*
X135206445Y-122312312D01*
X135023959Y-122214770D01*
X135023947Y-122214765D01*
X134825932Y-122154699D01*
X134620000Y-122134417D01*
X134414067Y-122154699D01*
X134216052Y-122214765D01*
X134216040Y-122214770D01*
X134033554Y-122312312D01*
X134033549Y-122312315D01*
X133873590Y-122443590D01*
X133742315Y-122603549D01*
X133742312Y-122603554D01*
X133644770Y-122786040D01*
X133644765Y-122786052D01*
X133584699Y-122984067D01*
X133564417Y-123190000D01*
X132580000Y-123190000D01*
X132580000Y-123124174D01*
X132556802Y-123037600D01*
X133082400Y-123037600D01*
X133082400Y-122324987D01*
X133073558Y-122280537D01*
X133073557Y-122280535D01*
X133039873Y-122230126D01*
X132989464Y-122196442D01*
X132989462Y-122196441D01*
X132945013Y-122187600D01*
X132232400Y-122187600D01*
X132232400Y-122713197D01*
X132145826Y-122690000D01*
X132014174Y-122690000D01*
X131927600Y-122713197D01*
X131927600Y-122187600D01*
X131214987Y-122187600D01*
X131170537Y-122196441D01*
X131170535Y-122196442D01*
X131120126Y-122230126D01*
X131086442Y-122280535D01*
X131086441Y-122280537D01*
X131077600Y-122324987D01*
X118610500Y-122324987D01*
X118610500Y-87630000D01*
X131024417Y-87630000D01*
X131044699Y-87835932D01*
X131104765Y-88033947D01*
X131104770Y-88033959D01*
X131193489Y-88199938D01*
X131202315Y-88216450D01*
X131333590Y-88376410D01*
X131493550Y-88507685D01*
X131493554Y-88507687D01*
X131667660Y-88600750D01*
X131676046Y-88605232D01*
X131676050Y-88605233D01*
X131676052Y-88605234D01*
X131717794Y-88617896D01*
X131874066Y-88665300D01*
X132080000Y-88685583D01*
X132285934Y-88665300D01*
X132483954Y-88605232D01*
X132666450Y-88507685D01*
X132826410Y-88376410D01*
X132957685Y-88216450D01*
X133055232Y-88033954D01*
X133115300Y-87835934D01*
X133135583Y-87630000D01*
X133564417Y-87630000D01*
X133584699Y-87835932D01*
X133644765Y-88033947D01*
X133644770Y-88033959D01*
X133733489Y-88199938D01*
X133742315Y-88216450D01*
X133873590Y-88376410D01*
X134033550Y-88507685D01*
X134033554Y-88507687D01*
X134207660Y-88600750D01*
X134216046Y-88605232D01*
X134216050Y-88605233D01*
X134216052Y-88605234D01*
X134257794Y-88617896D01*
X134414066Y-88665300D01*
X134620000Y-88685583D01*
X134825934Y-88665300D01*
X135023954Y-88605232D01*
X135206450Y-88507685D01*
X135366410Y-88376410D01*
X135497685Y-88216450D01*
X135595232Y-88033954D01*
X135655300Y-87835934D01*
X135675583Y-87630000D01*
X136104417Y-87630000D01*
X136124699Y-87835932D01*
X136184765Y-88033947D01*
X136184770Y-88033959D01*
X136273489Y-88199938D01*
X136282315Y-88216450D01*
X136413590Y-88376410D01*
X136573550Y-88507685D01*
X136573554Y-88507687D01*
X136747660Y-88600750D01*
X136756046Y-88605232D01*
X136756050Y-88605233D01*
X136756052Y-88605234D01*
X136797794Y-88617896D01*
X136954066Y-88665300D01*
X137160000Y-88685583D01*
X137365934Y-88665300D01*
X137563954Y-88605232D01*
X137746450Y-88507685D01*
X137906410Y-88376410D01*
X138037685Y-88216450D01*
X138135232Y-88033954D01*
X138195300Y-87835934D01*
X138215583Y-87630000D01*
X138195300Y-87424066D01*
X138157598Y-87299778D01*
X138135234Y-87226052D01*
X138135233Y-87226050D01*
X138135232Y-87226046D01*
X138100016Y-87160163D01*
X138037687Y-87043554D01*
X138037684Y-87043549D01*
X137906410Y-86883590D01*
X137746450Y-86752315D01*
X137746445Y-86752312D01*
X137563959Y-86654770D01*
X137563947Y-86654765D01*
X137365932Y-86594699D01*
X137160000Y-86574417D01*
X136954067Y-86594699D01*
X136756052Y-86654765D01*
X136756040Y-86654770D01*
X136573554Y-86752312D01*
X136573549Y-86752315D01*
X136413590Y-86883590D01*
X136282315Y-87043549D01*
X136282312Y-87043554D01*
X136184770Y-87226040D01*
X136184765Y-87226052D01*
X136124699Y-87424067D01*
X136104417Y-87630000D01*
X135675583Y-87630000D01*
X135655300Y-87424066D01*
X135617598Y-87299778D01*
X135595234Y-87226052D01*
X135595233Y-87226050D01*
X135595232Y-87226046D01*
X135560016Y-87160163D01*
X135497687Y-87043554D01*
X135497684Y-87043549D01*
X135366410Y-86883590D01*
X135206450Y-86752315D01*
X135206445Y-86752312D01*
X135023959Y-86654770D01*
X135023947Y-86654765D01*
X134825932Y-86594699D01*
X134620000Y-86574417D01*
X134414067Y-86594699D01*
X134216052Y-86654765D01*
X134216040Y-86654770D01*
X134033554Y-86752312D01*
X134033549Y-86752315D01*
X133873590Y-86883590D01*
X133742315Y-87043549D01*
X133742312Y-87043554D01*
X133644770Y-87226040D01*
X133644765Y-87226052D01*
X133584699Y-87424067D01*
X133564417Y-87630000D01*
X133135583Y-87630000D01*
X133115300Y-87424066D01*
X133077598Y-87299778D01*
X133055234Y-87226052D01*
X133055233Y-87226050D01*
X133055232Y-87226046D01*
X133020016Y-87160163D01*
X132957687Y-87043554D01*
X132957684Y-87043549D01*
X132826410Y-86883590D01*
X132666450Y-86752315D01*
X132666445Y-86752312D01*
X132483959Y-86654770D01*
X132483947Y-86654765D01*
X132285932Y-86594699D01*
X132080000Y-86574417D01*
X131874067Y-86594699D01*
X131676052Y-86654765D01*
X131676040Y-86654770D01*
X131493554Y-86752312D01*
X131493549Y-86752315D01*
X131333590Y-86883590D01*
X131202315Y-87043549D01*
X131202312Y-87043554D01*
X131104770Y-87226040D01*
X131104765Y-87226052D01*
X131044699Y-87424067D01*
X131024417Y-87630000D01*
X118610500Y-87630000D01*
X118610500Y-83698712D01*
X120069500Y-83698712D01*
X120069500Y-83941288D01*
X120101162Y-84181789D01*
X120163946Y-84416100D01*
X120163947Y-84416104D01*
X120163948Y-84416105D01*
X120256776Y-84640213D01*
X120378065Y-84850291D01*
X120525730Y-85042732D01*
X120525742Y-85042746D01*
X120697253Y-85214257D01*
X120697267Y-85214269D01*
X120803692Y-85295932D01*
X120889711Y-85361936D01*
X121099788Y-85483224D01*
X121323900Y-85576054D01*
X121558211Y-85638838D01*
X121798712Y-85670500D01*
X121798715Y-85670500D01*
X122041285Y-85670500D01*
X122041288Y-85670500D01*
X122281789Y-85638838D01*
X122516100Y-85576054D01*
X122740212Y-85483224D01*
X122950289Y-85361936D01*
X123142738Y-85214265D01*
X123267003Y-85090000D01*
X131024417Y-85090000D01*
X131044699Y-85295932D01*
X131104765Y-85493947D01*
X131104770Y-85493959D01*
X131202312Y-85676445D01*
X131202315Y-85676450D01*
X131333590Y-85836410D01*
X131493550Y-85967685D01*
X131676046Y-86065232D01*
X131676050Y-86065233D01*
X131676052Y-86065234D01*
X131714362Y-86076855D01*
X131874066Y-86125300D01*
X132080000Y-86145583D01*
X132285934Y-86125300D01*
X132483954Y-86065232D01*
X132666450Y-85967685D01*
X132826410Y-85836410D01*
X132957685Y-85676450D01*
X133055232Y-85493954D01*
X133115300Y-85295934D01*
X133135583Y-85090000D01*
X133564417Y-85090000D01*
X133584699Y-85295932D01*
X133644765Y-85493947D01*
X133644770Y-85493959D01*
X133742312Y-85676445D01*
X133742315Y-85676450D01*
X133873590Y-85836410D01*
X134033550Y-85967685D01*
X134216046Y-86065232D01*
X134216050Y-86065233D01*
X134216052Y-86065234D01*
X134254362Y-86076855D01*
X134414066Y-86125300D01*
X134620000Y-86145583D01*
X134825934Y-86125300D01*
X135023954Y-86065232D01*
X135206450Y-85967685D01*
X135366410Y-85836410D01*
X135497685Y-85676450D01*
X135595232Y-85493954D01*
X135655300Y-85295934D01*
X135675583Y-85090000D01*
X136104417Y-85090000D01*
X136124699Y-85295932D01*
X136184765Y-85493947D01*
X136184770Y-85493959D01*
X136282312Y-85676445D01*
X136282315Y-85676450D01*
X136413590Y-85836410D01*
X136573550Y-85967685D01*
X136756046Y-86065232D01*
X136756050Y-86065233D01*
X136756052Y-86065234D01*
X136794362Y-86076855D01*
X136954066Y-86125300D01*
X137160000Y-86145583D01*
X137365934Y-86125300D01*
X137563954Y-86065232D01*
X137746450Y-85967685D01*
X137906410Y-85836410D01*
X138037685Y-85676450D01*
X138135232Y-85493954D01*
X138195300Y-85295934D01*
X138215583Y-85090000D01*
X138644417Y-85090000D01*
X138664699Y-85295932D01*
X138724765Y-85493947D01*
X138724770Y-85493959D01*
X138822312Y-85676445D01*
X138822315Y-85676450D01*
X138953590Y-85836410D01*
X139113550Y-85967685D01*
X139296046Y-86065232D01*
X139296050Y-86065233D01*
X139296052Y-86065234D01*
X139334362Y-86076855D01*
X139494066Y-86125300D01*
X139700000Y-86145583D01*
X139905934Y-86125300D01*
X140103954Y-86065232D01*
X140286450Y-85967685D01*
X140446410Y-85836410D01*
X140577685Y-85676450D01*
X140619380Y-85598445D01*
X140657682Y-85564108D01*
X140709094Y-85562425D01*
X140749560Y-85594183D01*
X140760900Y-85633894D01*
X140760900Y-87086105D01*
X140743307Y-87134443D01*
X140698758Y-87160163D01*
X140648100Y-87151230D01*
X140619380Y-87121554D01*
X140577687Y-87043554D01*
X140577684Y-87043549D01*
X140446410Y-86883590D01*
X140286450Y-86752315D01*
X140286445Y-86752312D01*
X140103959Y-86654770D01*
X140103947Y-86654765D01*
X139905932Y-86594699D01*
X139700000Y-86574417D01*
X139494067Y-86594699D01*
X139296052Y-86654765D01*
X139296040Y-86654770D01*
X139113554Y-86752312D01*
X139113549Y-86752315D01*
X138953590Y-86883590D01*
X138822315Y-87043549D01*
X138822312Y-87043554D01*
X138724770Y-87226040D01*
X138724765Y-87226052D01*
X138664699Y-87424067D01*
X138644417Y-87630000D01*
X138664699Y-87835932D01*
X138724765Y-88033947D01*
X138724770Y-88033959D01*
X138813489Y-88199938D01*
X138822315Y-88216450D01*
X138953590Y-88376410D01*
X139113550Y-88507685D01*
X139113554Y-88507687D01*
X139287660Y-88600750D01*
X139296046Y-88605232D01*
X139296050Y-88605233D01*
X139296052Y-88605234D01*
X139337794Y-88617896D01*
X139494066Y-88665300D01*
X139700000Y-88685583D01*
X139905934Y-88665300D01*
X140103954Y-88605232D01*
X140286450Y-88507685D01*
X140446410Y-88376410D01*
X140577685Y-88216450D01*
X140619380Y-88138445D01*
X140657682Y-88104108D01*
X140709094Y-88102425D01*
X140749560Y-88134183D01*
X140760900Y-88173894D01*
X140760900Y-90952144D01*
X140768050Y-90978829D01*
X140777818Y-91015288D01*
X140782350Y-91032201D01*
X140782352Y-91032205D01*
X140782353Y-91032209D01*
X140782354Y-91032210D01*
X140823796Y-91103992D01*
X152698174Y-102978368D01*
X152719914Y-103024988D01*
X152720200Y-103031542D01*
X152720200Y-103710964D01*
X152702607Y-103759302D01*
X152701833Y-103760209D01*
X152609624Y-103866624D01*
X152609622Y-103866627D01*
X152549835Y-103997540D01*
X152529353Y-104140001D01*
X152531595Y-104155596D01*
X152521058Y-104205945D01*
X152510334Y-104219470D01*
X152168796Y-104561007D01*
X152127353Y-104632791D01*
X152127352Y-104632791D01*
X152127353Y-104632792D01*
X152105900Y-104712856D01*
X152105900Y-113727144D01*
X152108564Y-113737085D01*
X152122818Y-113790288D01*
X152127350Y-113807201D01*
X152127352Y-113807205D01*
X152127353Y-113807209D01*
X152141167Y-113831136D01*
X152168795Y-113878990D01*
X152510334Y-114220528D01*
X152532074Y-114267149D01*
X152531595Y-114284403D01*
X152529353Y-114300000D01*
X152534597Y-114336472D01*
X152549835Y-114442459D01*
X152609622Y-114573372D01*
X152609624Y-114573375D01*
X152675304Y-114649174D01*
X152703872Y-114682143D01*
X152824947Y-114759953D01*
X152963039Y-114800500D01*
X152963042Y-114800500D01*
X153106958Y-114800500D01*
X153106961Y-114800500D01*
X153245053Y-114759953D01*
X153366128Y-114682143D01*
X153460377Y-114573373D01*
X153520165Y-114442457D01*
X153540647Y-114300000D01*
X153520165Y-114157543D01*
X153460377Y-114026627D01*
X153460375Y-114026624D01*
X153366127Y-113917856D01*
X153366125Y-113917855D01*
X153305653Y-113878992D01*
X153245053Y-113840047D01*
X153245052Y-113840046D01*
X153106963Y-113799500D01*
X153106961Y-113799500D01*
X153010843Y-113799500D01*
X152962505Y-113781907D01*
X152957668Y-113777474D01*
X152757525Y-113577330D01*
X152735786Y-113530710D01*
X152735500Y-113524156D01*
X152735500Y-107214144D01*
X152753093Y-107165806D01*
X152797642Y-107140086D01*
X152831884Y-107141989D01*
X152963039Y-107180500D01*
X152963042Y-107180500D01*
X153106958Y-107180500D01*
X153106961Y-107180500D01*
X153245053Y-107139953D01*
X153366128Y-107062143D01*
X153460377Y-106953373D01*
X153520165Y-106822457D01*
X153540647Y-106680000D01*
X153538404Y-106664406D01*
X153548936Y-106614060D01*
X153559659Y-106600533D01*
X153901202Y-106258992D01*
X153942647Y-106187209D01*
X153948395Y-106165756D01*
X153964100Y-106107144D01*
X153964100Y-97092856D01*
X153948193Y-97033491D01*
X153942647Y-97012791D01*
X153942643Y-97012785D01*
X153942642Y-97012781D01*
X153901202Y-96941008D01*
X153732094Y-96771900D01*
X153559663Y-96599469D01*
X153537924Y-96552850D01*
X153538403Y-96535601D01*
X153540647Y-96520000D01*
X153520165Y-96377543D01*
X153497054Y-96326939D01*
X153492978Y-96275662D01*
X153522815Y-96233760D01*
X153565459Y-96220500D01*
X155044541Y-96220500D01*
X155092879Y-96238093D01*
X155118599Y-96282642D01*
X155112945Y-96326940D01*
X155089835Y-96377540D01*
X155069353Y-96520000D01*
X155089835Y-96662459D01*
X155149622Y-96793372D01*
X155149624Y-96793375D01*
X155208785Y-96861650D01*
X155243872Y-96902143D01*
X155364947Y-96979953D01*
X155503039Y-97020500D01*
X155599157Y-97020500D01*
X155647495Y-97038093D01*
X155652331Y-97042526D01*
X155852474Y-97242669D01*
X155874214Y-97289289D01*
X155874500Y-97295843D01*
X155874500Y-103605855D01*
X155856907Y-103654193D01*
X155812358Y-103679913D01*
X155778114Y-103678009D01*
X155646963Y-103639500D01*
X155646961Y-103639500D01*
X155503039Y-103639500D01*
X155503036Y-103639500D01*
X155364948Y-103680046D01*
X155243874Y-103757855D01*
X155243872Y-103757856D01*
X155149624Y-103866624D01*
X155149622Y-103866627D01*
X155089835Y-103997540D01*
X155069353Y-104140001D01*
X155071595Y-104155596D01*
X155061058Y-104205945D01*
X155050334Y-104219470D01*
X154708796Y-104561007D01*
X154667353Y-104632791D01*
X154667352Y-104632791D01*
X154667353Y-104632792D01*
X154645900Y-104712856D01*
X154645900Y-113727144D01*
X154648564Y-113737085D01*
X154662818Y-113790288D01*
X154667350Y-113807201D01*
X154667352Y-113807205D01*
X154667353Y-113807209D01*
X154681167Y-113831136D01*
X154708795Y-113878990D01*
X155050334Y-114220528D01*
X155072074Y-114267149D01*
X155071595Y-114284403D01*
X155069353Y-114300000D01*
X155074597Y-114336472D01*
X155089835Y-114442459D01*
X155149622Y-114573372D01*
X155149624Y-114573375D01*
X155215304Y-114649174D01*
X155243872Y-114682143D01*
X155364947Y-114759953D01*
X155503039Y-114800500D01*
X155503042Y-114800500D01*
X155646958Y-114800500D01*
X155646961Y-114800500D01*
X155778115Y-114761990D01*
X155829450Y-114765253D01*
X155866679Y-114800750D01*
X155874500Y-114834144D01*
X155874500Y-119400744D01*
X155881650Y-119427429D01*
X155891418Y-119463888D01*
X155895950Y-119480801D01*
X155895952Y-119480805D01*
X155895953Y-119480809D01*
X155895954Y-119480810D01*
X155937396Y-119552592D01*
X159049248Y-122664443D01*
X159070988Y-122711063D01*
X159062396Y-122753064D01*
X159044766Y-122786048D01*
X158984699Y-122984067D01*
X158964417Y-123190000D01*
X158984699Y-123395932D01*
X159044765Y-123593947D01*
X159044770Y-123593959D01*
X159142312Y-123776445D01*
X159142315Y-123776450D01*
X159273590Y-123936410D01*
X159433550Y-124067685D01*
X159433554Y-124067687D01*
X159587311Y-124149873D01*
X159616046Y-124165232D01*
X159616050Y-124165233D01*
X159616052Y-124165234D01*
X159657794Y-124177896D01*
X159814066Y-124225300D01*
X160020000Y-124245583D01*
X160225934Y-124225300D01*
X160423954Y-124165232D01*
X160606450Y-124067685D01*
X160766410Y-123936410D01*
X160897685Y-123776450D01*
X160995232Y-123593954D01*
X161055300Y-123395934D01*
X161075583Y-123190000D01*
X161504417Y-123190000D01*
X161524699Y-123395932D01*
X161584765Y-123593947D01*
X161584770Y-123593959D01*
X161682312Y-123776445D01*
X161682315Y-123776450D01*
X161813590Y-123936410D01*
X161973550Y-124067685D01*
X161973554Y-124067687D01*
X162127311Y-124149873D01*
X162156046Y-124165232D01*
X162156050Y-124165233D01*
X162156052Y-124165234D01*
X162197794Y-124177896D01*
X162354066Y-124225300D01*
X162560000Y-124245583D01*
X162765934Y-124225300D01*
X162963954Y-124165232D01*
X163146450Y-124067685D01*
X163306410Y-123936410D01*
X163437685Y-123776450D01*
X163535232Y-123593954D01*
X163595300Y-123395934D01*
X163615583Y-123190000D01*
X164044417Y-123190000D01*
X164064699Y-123395932D01*
X164124765Y-123593947D01*
X164124770Y-123593959D01*
X164222312Y-123776445D01*
X164222315Y-123776450D01*
X164353590Y-123936410D01*
X164513550Y-124067685D01*
X164513554Y-124067687D01*
X164667311Y-124149873D01*
X164696046Y-124165232D01*
X164696050Y-124165233D01*
X164696052Y-124165234D01*
X164737794Y-124177896D01*
X164894066Y-124225300D01*
X165100000Y-124245583D01*
X165305934Y-124225300D01*
X165503954Y-124165232D01*
X165686450Y-124067685D01*
X165846410Y-123936410D01*
X165977685Y-123776450D01*
X166075232Y-123593954D01*
X166135300Y-123395934D01*
X166155583Y-123190000D01*
X166584417Y-123190000D01*
X166604699Y-123395932D01*
X166664765Y-123593947D01*
X166664770Y-123593959D01*
X166762312Y-123776445D01*
X166762315Y-123776450D01*
X166893590Y-123936410D01*
X167053550Y-124067685D01*
X167053554Y-124067687D01*
X167207311Y-124149873D01*
X167236046Y-124165232D01*
X167236050Y-124165233D01*
X167236052Y-124165234D01*
X167277794Y-124177896D01*
X167434066Y-124225300D01*
X167640000Y-124245583D01*
X167845934Y-124225300D01*
X168043954Y-124165232D01*
X168226450Y-124067685D01*
X168386410Y-123936410D01*
X168517685Y-123776450D01*
X168615232Y-123593954D01*
X168675300Y-123395934D01*
X168695583Y-123190000D01*
X169124417Y-123190000D01*
X169144699Y-123395932D01*
X169204765Y-123593947D01*
X169204770Y-123593959D01*
X169302312Y-123776445D01*
X169302315Y-123776450D01*
X169433590Y-123936410D01*
X169593550Y-124067685D01*
X169593554Y-124067687D01*
X169747311Y-124149873D01*
X169776046Y-124165232D01*
X169776050Y-124165233D01*
X169776052Y-124165234D01*
X169817794Y-124177896D01*
X169974066Y-124225300D01*
X170180000Y-124245583D01*
X170385934Y-124225300D01*
X170583954Y-124165232D01*
X170766450Y-124067685D01*
X170926410Y-123936410D01*
X171057685Y-123776450D01*
X171155232Y-123593954D01*
X171215300Y-123395934D01*
X171235583Y-123190000D01*
X171664417Y-123190000D01*
X171684699Y-123395932D01*
X171744765Y-123593947D01*
X171744770Y-123593959D01*
X171842312Y-123776445D01*
X171842315Y-123776450D01*
X171973590Y-123936410D01*
X172133550Y-124067685D01*
X172133554Y-124067687D01*
X172287311Y-124149873D01*
X172316046Y-124165232D01*
X172316050Y-124165233D01*
X172316052Y-124165234D01*
X172357794Y-124177896D01*
X172514066Y-124225300D01*
X172720000Y-124245583D01*
X172925934Y-124225300D01*
X173123954Y-124165232D01*
X173306450Y-124067685D01*
X173466410Y-123936410D01*
X173597685Y-123776450D01*
X173695232Y-123593954D01*
X173755300Y-123395934D01*
X173775583Y-123190000D01*
X174204417Y-123190000D01*
X174224699Y-123395932D01*
X174284765Y-123593947D01*
X174284770Y-123593959D01*
X174382312Y-123776445D01*
X174382315Y-123776450D01*
X174513590Y-123936410D01*
X174673550Y-124067685D01*
X174673554Y-124067687D01*
X174827311Y-124149873D01*
X174856046Y-124165232D01*
X174856050Y-124165233D01*
X174856052Y-124165234D01*
X174897794Y-124177896D01*
X175054066Y-124225300D01*
X175260000Y-124245583D01*
X175465934Y-124225300D01*
X175663954Y-124165232D01*
X175846450Y-124067685D01*
X176006410Y-123936410D01*
X176137685Y-123776450D01*
X176235232Y-123593954D01*
X176295300Y-123395934D01*
X176315583Y-123190000D01*
X176295300Y-122984066D01*
X176257598Y-122859778D01*
X176235234Y-122786052D01*
X176235233Y-122786050D01*
X176235232Y-122786046D01*
X176137685Y-122603550D01*
X176006410Y-122443590D01*
X175846450Y-122312315D01*
X175846445Y-122312312D01*
X175663959Y-122214770D01*
X175663947Y-122214765D01*
X175465932Y-122154699D01*
X175260000Y-122134417D01*
X175054067Y-122154699D01*
X174856052Y-122214765D01*
X174856040Y-122214770D01*
X174673554Y-122312312D01*
X174673549Y-122312315D01*
X174513590Y-122443590D01*
X174382315Y-122603549D01*
X174382312Y-122603554D01*
X174284770Y-122786040D01*
X174284765Y-122786052D01*
X174224699Y-122984067D01*
X174204417Y-123190000D01*
X173775583Y-123190000D01*
X173755300Y-122984066D01*
X173717598Y-122859778D01*
X173695234Y-122786052D01*
X173695233Y-122786050D01*
X173695232Y-122786046D01*
X173597685Y-122603550D01*
X173466410Y-122443590D01*
X173306450Y-122312315D01*
X173306445Y-122312312D01*
X173123959Y-122214770D01*
X173123947Y-122214765D01*
X172925932Y-122154699D01*
X172720000Y-122134417D01*
X172514067Y-122154699D01*
X172316052Y-122214765D01*
X172316040Y-122214770D01*
X172133554Y-122312312D01*
X172133549Y-122312315D01*
X171973590Y-122443590D01*
X171842315Y-122603549D01*
X171842312Y-122603554D01*
X171744770Y-122786040D01*
X171744765Y-122786052D01*
X171684699Y-122984067D01*
X171664417Y-123190000D01*
X171235583Y-123190000D01*
X171215300Y-122984066D01*
X171177598Y-122859778D01*
X171155234Y-122786052D01*
X171155233Y-122786050D01*
X171155232Y-122786046D01*
X171057685Y-122603550D01*
X170926410Y-122443590D01*
X170766450Y-122312315D01*
X170766445Y-122312312D01*
X170583959Y-122214770D01*
X170583947Y-122214765D01*
X170385932Y-122154699D01*
X170180000Y-122134417D01*
X169974067Y-122154699D01*
X169776052Y-122214765D01*
X169776040Y-122214770D01*
X169593554Y-122312312D01*
X169593549Y-122312315D01*
X169433590Y-122443590D01*
X169302315Y-122603549D01*
X169302312Y-122603554D01*
X169204770Y-122786040D01*
X169204765Y-122786052D01*
X169144699Y-122984067D01*
X169124417Y-123190000D01*
X168695583Y-123190000D01*
X168675300Y-122984066D01*
X168637598Y-122859778D01*
X168615234Y-122786052D01*
X168615233Y-122786050D01*
X168615232Y-122786046D01*
X168517685Y-122603550D01*
X168386410Y-122443590D01*
X168226450Y-122312315D01*
X168226445Y-122312312D01*
X168043959Y-122214770D01*
X168043947Y-122214765D01*
X167845932Y-122154699D01*
X167640000Y-122134417D01*
X167434067Y-122154699D01*
X167236052Y-122214765D01*
X167236040Y-122214770D01*
X167053554Y-122312312D01*
X167053549Y-122312315D01*
X166893590Y-122443590D01*
X166762315Y-122603549D01*
X166762312Y-122603554D01*
X166664770Y-122786040D01*
X166664765Y-122786052D01*
X166604699Y-122984067D01*
X166584417Y-123190000D01*
X166155583Y-123190000D01*
X166135300Y-122984066D01*
X166097598Y-122859778D01*
X166075234Y-122786052D01*
X166075233Y-122786050D01*
X166075232Y-122786046D01*
X165977685Y-122603550D01*
X165846410Y-122443590D01*
X165686450Y-122312315D01*
X165686445Y-122312312D01*
X165503959Y-122214770D01*
X165503947Y-122214765D01*
X165305932Y-122154699D01*
X165100000Y-122134417D01*
X164894067Y-122154699D01*
X164696052Y-122214765D01*
X164696040Y-122214770D01*
X164513554Y-122312312D01*
X164513549Y-122312315D01*
X164353590Y-122443590D01*
X164222315Y-122603549D01*
X164222312Y-122603554D01*
X164124770Y-122786040D01*
X164124765Y-122786052D01*
X164064699Y-122984067D01*
X164044417Y-123190000D01*
X163615583Y-123190000D01*
X163595300Y-122984066D01*
X163557598Y-122859778D01*
X163535234Y-122786052D01*
X163535233Y-122786050D01*
X163535232Y-122786046D01*
X163437685Y-122603550D01*
X163306410Y-122443590D01*
X163146450Y-122312315D01*
X163146445Y-122312312D01*
X162963959Y-122214770D01*
X162963947Y-122214765D01*
X162765932Y-122154699D01*
X162560000Y-122134417D01*
X162354067Y-122154699D01*
X162156052Y-122214765D01*
X162156040Y-122214770D01*
X161973554Y-122312312D01*
X161973549Y-122312315D01*
X161813590Y-122443590D01*
X161682315Y-122603549D01*
X161682312Y-122603554D01*
X161584770Y-122786040D01*
X161584765Y-122786052D01*
X161524699Y-122984067D01*
X161504417Y-123190000D01*
X161075583Y-123190000D01*
X161055300Y-122984066D01*
X161017598Y-122859778D01*
X160995234Y-122786052D01*
X160995233Y-122786050D01*
X160995232Y-122786046D01*
X160897685Y-122603550D01*
X160766410Y-122443590D01*
X160606450Y-122312315D01*
X160606445Y-122312312D01*
X160423959Y-122214770D01*
X160423947Y-122214765D01*
X160225932Y-122154699D01*
X160020000Y-122134417D01*
X159814067Y-122154699D01*
X159616048Y-122214766D01*
X159583064Y-122232396D01*
X159532140Y-122239664D01*
X159494443Y-122219248D01*
X156526126Y-119250931D01*
X156504386Y-119204311D01*
X156504100Y-119197757D01*
X156504100Y-115220815D01*
X166262601Y-115220815D01*
X166273287Y-115294173D01*
X166273288Y-115294175D01*
X166328608Y-115407332D01*
X166417667Y-115496391D01*
X166530825Y-115551712D01*
X166604180Y-115562399D01*
X166712600Y-115562399D01*
X167017400Y-115562399D01*
X167125811Y-115562399D01*
X167125815Y-115562398D01*
X167199173Y-115551712D01*
X167199175Y-115551711D01*
X167312332Y-115496391D01*
X167401391Y-115407332D01*
X167456712Y-115294174D01*
X167467399Y-115220825D01*
X167467400Y-115220813D01*
X167467400Y-115087400D01*
X167017400Y-115087400D01*
X167017400Y-115562399D01*
X166712600Y-115562399D01*
X166712600Y-115087400D01*
X166262601Y-115087400D01*
X166262601Y-115220815D01*
X156504100Y-115220815D01*
X156504100Y-107252857D01*
X156488395Y-107194244D01*
X156482647Y-107172791D01*
X156441202Y-107101008D01*
X156099663Y-106759469D01*
X156077924Y-106712850D01*
X156078403Y-106695601D01*
X156080647Y-106680000D01*
X156078404Y-106664406D01*
X156088936Y-106614060D01*
X156099659Y-106600533D01*
X156441202Y-106258992D01*
X156482647Y-106187209D01*
X156488395Y-106165756D01*
X156504100Y-106107144D01*
X156504100Y-97283597D01*
X156506662Y-97264135D01*
X156524799Y-97196445D01*
X156524799Y-97113556D01*
X156503347Y-97033492D01*
X156461903Y-96961708D01*
X156099664Y-96599469D01*
X156077925Y-96552850D01*
X156078405Y-96535591D01*
X156078405Y-96535588D01*
X156080647Y-96520000D01*
X156060165Y-96377543D01*
X156037054Y-96326939D01*
X156032978Y-96275662D01*
X156062815Y-96233760D01*
X156105459Y-96220500D01*
X157339156Y-96220500D01*
X157387494Y-96238093D01*
X157392330Y-96242525D01*
X157590334Y-96440528D01*
X157612074Y-96487149D01*
X157611595Y-96504403D01*
X157609353Y-96520000D01*
X157611594Y-96535588D01*
X157629835Y-96662459D01*
X157689622Y-96793372D01*
X157689624Y-96793375D01*
X157748785Y-96861650D01*
X157783872Y-96902143D01*
X157904947Y-96979953D01*
X158043039Y-97020500D01*
X158139156Y-97020500D01*
X158187494Y-97038093D01*
X158192330Y-97042525D01*
X158392474Y-97242668D01*
X158414214Y-97289289D01*
X158414500Y-97295843D01*
X158414500Y-103605855D01*
X158396907Y-103654193D01*
X158352358Y-103679913D01*
X158318114Y-103678009D01*
X158186963Y-103639500D01*
X158186961Y-103639500D01*
X158043039Y-103639500D01*
X158043036Y-103639500D01*
X157904948Y-103680046D01*
X157783874Y-103757855D01*
X157783872Y-103757856D01*
X157689624Y-103866624D01*
X157689622Y-103866627D01*
X157629835Y-103997540D01*
X157609353Y-104140001D01*
X157611595Y-104155596D01*
X157601058Y-104205945D01*
X157590334Y-104219470D01*
X157248796Y-104561007D01*
X157207353Y-104632791D01*
X157207352Y-104632791D01*
X157207353Y-104632792D01*
X157185900Y-104712856D01*
X157185900Y-113727144D01*
X157188564Y-113737085D01*
X157202818Y-113790288D01*
X157207350Y-113807201D01*
X157207352Y-113807205D01*
X157207353Y-113807209D01*
X157221167Y-113831136D01*
X157248795Y-113878990D01*
X157590334Y-114220528D01*
X157612074Y-114267149D01*
X157611595Y-114284403D01*
X157609353Y-114300000D01*
X157614597Y-114336472D01*
X157629835Y-114442459D01*
X157689622Y-114573372D01*
X157689624Y-114573375D01*
X157755304Y-114649174D01*
X157783872Y-114682143D01*
X157904947Y-114759953D01*
X158043039Y-114800500D01*
X158043042Y-114800500D01*
X158186958Y-114800500D01*
X158186961Y-114800500D01*
X158325053Y-114759953D01*
X158446128Y-114682143D01*
X158540377Y-114573373D01*
X158600165Y-114442457D01*
X158620647Y-114300000D01*
X158600165Y-114157543D01*
X158540377Y-114026627D01*
X158540375Y-114026624D01*
X158446127Y-113917856D01*
X158446125Y-113917855D01*
X158385653Y-113878992D01*
X158325053Y-113840047D01*
X158325052Y-113840046D01*
X158186963Y-113799500D01*
X158186961Y-113799500D01*
X158090843Y-113799500D01*
X158042505Y-113781907D01*
X158037668Y-113777474D01*
X157837525Y-113577330D01*
X157815786Y-113530710D01*
X157815500Y-113524156D01*
X157815500Y-107214144D01*
X157833093Y-107165806D01*
X157877642Y-107140086D01*
X157911884Y-107141989D01*
X158043039Y-107180500D01*
X158043042Y-107180500D01*
X158186958Y-107180500D01*
X158186961Y-107180500D01*
X158325053Y-107139953D01*
X158446128Y-107062143D01*
X158540377Y-106953373D01*
X158600165Y-106822457D01*
X158620647Y-106680000D01*
X158618404Y-106664406D01*
X158628936Y-106614060D01*
X158639659Y-106600533D01*
X158981202Y-106258992D01*
X159022647Y-106187209D01*
X159028395Y-106165756D01*
X159044100Y-106107144D01*
X159044100Y-97092856D01*
X159028193Y-97033491D01*
X159022647Y-97012791D01*
X159022643Y-97012785D01*
X159022642Y-97012781D01*
X158981202Y-96941008D01*
X158812094Y-96771900D01*
X158639663Y-96599469D01*
X158617924Y-96552850D01*
X158618403Y-96535601D01*
X158620647Y-96520000D01*
X158600165Y-96377543D01*
X158540377Y-96246627D01*
X158540375Y-96246624D01*
X158446127Y-96137856D01*
X158446125Y-96137855D01*
X158361635Y-96083557D01*
X158325053Y-96060047D01*
X158325052Y-96060046D01*
X158186963Y-96019500D01*
X158186961Y-96019500D01*
X158090843Y-96019500D01*
X158042505Y-96001907D01*
X158037669Y-95997474D01*
X157960469Y-95920274D01*
X157938729Y-95873654D01*
X157952043Y-95823967D01*
X157994180Y-95794462D01*
X158013643Y-95791900D01*
X159450557Y-95791900D01*
X159498895Y-95809493D01*
X159503731Y-95813926D01*
X160130334Y-96440528D01*
X160152074Y-96487148D01*
X160151595Y-96504401D01*
X160151595Y-96504403D01*
X160149353Y-96520000D01*
X160151595Y-96535591D01*
X160169835Y-96662459D01*
X160229622Y-96793372D01*
X160229624Y-96793375D01*
X160288785Y-96861650D01*
X160323872Y-96902143D01*
X160444947Y-96979953D01*
X160583039Y-97020500D01*
X160679157Y-97020500D01*
X160727495Y-97038093D01*
X160732331Y-97042526D01*
X161461174Y-97771368D01*
X161482914Y-97817988D01*
X161483200Y-97824542D01*
X161483200Y-105375457D01*
X161465607Y-105423795D01*
X161461174Y-105428631D01*
X160732331Y-106157474D01*
X160685711Y-106179214D01*
X160679157Y-106179500D01*
X160583036Y-106179500D01*
X160451886Y-106218009D01*
X160400550Y-106214746D01*
X160363321Y-106179248D01*
X160355500Y-106145855D01*
X160355500Y-104915842D01*
X160373093Y-104867504D01*
X160377526Y-104862668D01*
X160577668Y-104662526D01*
X160624288Y-104640786D01*
X160630842Y-104640500D01*
X160726958Y-104640500D01*
X160726961Y-104640500D01*
X160865053Y-104599953D01*
X160986128Y-104522143D01*
X161080377Y-104413373D01*
X161140165Y-104282457D01*
X161160647Y-104140000D01*
X161140165Y-103997543D01*
X161080377Y-103866627D01*
X161080375Y-103866624D01*
X160986127Y-103757856D01*
X160986125Y-103757855D01*
X160865051Y-103680046D01*
X160865052Y-103680046D01*
X160726963Y-103639500D01*
X160726961Y-103639500D01*
X160583039Y-103639500D01*
X160583036Y-103639500D01*
X160444948Y-103680046D01*
X160323874Y-103757855D01*
X160323872Y-103757856D01*
X160229624Y-103866624D01*
X160229622Y-103866627D01*
X160169835Y-103997540D01*
X160149353Y-104140001D01*
X160151595Y-104155596D01*
X160141058Y-104205945D01*
X160130334Y-104219470D01*
X159788796Y-104561007D01*
X159747353Y-104632791D01*
X159747352Y-104632791D01*
X159747353Y-104632792D01*
X159725900Y-104712856D01*
X159725900Y-113727144D01*
X159728564Y-113737085D01*
X159742818Y-113790288D01*
X159747350Y-113807201D01*
X159747352Y-113807205D01*
X159747353Y-113807209D01*
X159761167Y-113831136D01*
X159788795Y-113878990D01*
X160130334Y-114220528D01*
X160152074Y-114267149D01*
X160151595Y-114284403D01*
X160149353Y-114300000D01*
X160154597Y-114336472D01*
X160169835Y-114442459D01*
X160229622Y-114573372D01*
X160229624Y-114573375D01*
X160295304Y-114649174D01*
X160323872Y-114682143D01*
X160444947Y-114759953D01*
X160583039Y-114800500D01*
X160583042Y-114800500D01*
X160726958Y-114800500D01*
X160726961Y-114800500D01*
X160865053Y-114759953D01*
X160986128Y-114682143D01*
X161014696Y-114649174D01*
X166262600Y-114649174D01*
X166262600Y-114782600D01*
X166712600Y-114782600D01*
X167017400Y-114782600D01*
X167467399Y-114782600D01*
X167467399Y-114649189D01*
X167467398Y-114649184D01*
X167456712Y-114575826D01*
X167456711Y-114575824D01*
X167401391Y-114462667D01*
X167312332Y-114373608D01*
X167199174Y-114318287D01*
X167125825Y-114307600D01*
X167017400Y-114307600D01*
X167017400Y-114782600D01*
X166712600Y-114782600D01*
X166712600Y-114307600D01*
X166604189Y-114307600D01*
X166604184Y-114307601D01*
X166530826Y-114318287D01*
X166530824Y-114318288D01*
X166417667Y-114373608D01*
X166328608Y-114462667D01*
X166273287Y-114575825D01*
X166262600Y-114649174D01*
X161014696Y-114649174D01*
X161080377Y-114573373D01*
X161140165Y-114442457D01*
X161160647Y-114300000D01*
X161140165Y-114157543D01*
X161080377Y-114026627D01*
X161080375Y-114026624D01*
X160986127Y-113917856D01*
X160986125Y-113917855D01*
X160925653Y-113878992D01*
X160865053Y-113840047D01*
X160865052Y-113840046D01*
X160726963Y-113799500D01*
X160726961Y-113799500D01*
X160630843Y-113799500D01*
X160582505Y-113781907D01*
X160577668Y-113777474D01*
X160377525Y-113577330D01*
X160355786Y-113530710D01*
X160355500Y-113524156D01*
X160355500Y-107214144D01*
X160373093Y-107165806D01*
X160417642Y-107140086D01*
X160451884Y-107141989D01*
X160583039Y-107180500D01*
X160583042Y-107180500D01*
X160726958Y-107180500D01*
X160726961Y-107180500D01*
X160865053Y-107139953D01*
X160986128Y-107062143D01*
X161080377Y-106953373D01*
X161140165Y-106822457D01*
X161160647Y-106680000D01*
X161158404Y-106664405D01*
X161168936Y-106614059D01*
X161179660Y-106600532D01*
X162049902Y-105730292D01*
X162091347Y-105658509D01*
X162095878Y-105641593D01*
X162095881Y-105641590D01*
X162095880Y-105641590D01*
X162101520Y-105620540D01*
X162112800Y-105578444D01*
X162112800Y-103155815D01*
X166262601Y-103155815D01*
X166273287Y-103229173D01*
X166273288Y-103229175D01*
X166328608Y-103342332D01*
X166417667Y-103431391D01*
X166530825Y-103486712D01*
X166604180Y-103497399D01*
X166712600Y-103497399D01*
X167017400Y-103497399D01*
X167125811Y-103497399D01*
X167125815Y-103497398D01*
X167199173Y-103486712D01*
X167199175Y-103486711D01*
X167312332Y-103431391D01*
X167401391Y-103342332D01*
X167456712Y-103229174D01*
X167467399Y-103155825D01*
X167467400Y-103155813D01*
X167467400Y-103022400D01*
X167017400Y-103022400D01*
X167017400Y-103497399D01*
X166712600Y-103497399D01*
X166712600Y-103022400D01*
X166262601Y-103022400D01*
X166262601Y-103155815D01*
X162112800Y-103155815D01*
X162112800Y-102584174D01*
X166262600Y-102584174D01*
X166262600Y-102717600D01*
X166712600Y-102717600D01*
X167017400Y-102717600D01*
X167467399Y-102717600D01*
X167467399Y-102584189D01*
X167467398Y-102584184D01*
X167456712Y-102510826D01*
X167456711Y-102510824D01*
X167401391Y-102397667D01*
X167312332Y-102308608D01*
X167199174Y-102253287D01*
X167125825Y-102242600D01*
X167017400Y-102242600D01*
X167017400Y-102717600D01*
X166712600Y-102717600D01*
X166712600Y-102242600D01*
X166604189Y-102242600D01*
X166604184Y-102242601D01*
X166530826Y-102253287D01*
X166530824Y-102253288D01*
X166417667Y-102308608D01*
X166328608Y-102397667D01*
X166273287Y-102510825D01*
X166262600Y-102584174D01*
X162112800Y-102584174D01*
X162112800Y-102045266D01*
X162130393Y-101996928D01*
X162174942Y-101971208D01*
X162225600Y-101980141D01*
X162228656Y-101982004D01*
X162228871Y-101982142D01*
X162228872Y-101982143D01*
X162349947Y-102059953D01*
X162488039Y-102100500D01*
X162488042Y-102100500D01*
X162631958Y-102100500D01*
X162631961Y-102100500D01*
X162770053Y-102059953D01*
X162891128Y-101982143D01*
X162985377Y-101873373D01*
X163045165Y-101742457D01*
X163065647Y-101600000D01*
X163063404Y-101584406D01*
X163073936Y-101534060D01*
X163084660Y-101520533D01*
X164716903Y-99888292D01*
X164758347Y-99816508D01*
X164779800Y-99736444D01*
X164779800Y-98586543D01*
X164797393Y-98538205D01*
X164801826Y-98533369D01*
X165208369Y-98126826D01*
X165254989Y-98105086D01*
X165261543Y-98104800D01*
X166843457Y-98104800D01*
X166891795Y-98122393D01*
X166896631Y-98126826D01*
X167025931Y-98256126D01*
X167047671Y-98302746D01*
X167034357Y-98352433D01*
X166992220Y-98381938D01*
X166972757Y-98384500D01*
X166583487Y-98384500D01*
X166583475Y-98384501D01*
X166489698Y-98399352D01*
X166376655Y-98456951D01*
X166286951Y-98546655D01*
X166229354Y-98659694D01*
X166214500Y-98753478D01*
X166214500Y-99366512D01*
X166214501Y-99366524D01*
X166229352Y-99460301D01*
X166286951Y-99573344D01*
X166376656Y-99663049D01*
X166376658Y-99663050D01*
X166382937Y-99666249D01*
X166418021Y-99703868D01*
X166424000Y-99733254D01*
X166424000Y-100291745D01*
X166406407Y-100340083D01*
X166382944Y-100358747D01*
X166376656Y-100361951D01*
X166376654Y-100361952D01*
X166286951Y-100451655D01*
X166229354Y-100564694D01*
X166214500Y-100658478D01*
X166214500Y-101271512D01*
X166214501Y-101271524D01*
X166229352Y-101365301D01*
X166286951Y-101478344D01*
X166376655Y-101568048D01*
X166376657Y-101568049D01*
X166376658Y-101568050D01*
X166489694Y-101625645D01*
X166489696Y-101625646D01*
X166583481Y-101640500D01*
X166906393Y-101640499D01*
X166954730Y-101658092D01*
X166959567Y-101662525D01*
X167753684Y-102456642D01*
X167775424Y-102503262D01*
X167774784Y-102521579D01*
X167764500Y-102586507D01*
X167764500Y-103153490D01*
X167780281Y-103253127D01*
X167841473Y-103373222D01*
X167936777Y-103468526D01*
X167936779Y-103468527D01*
X167936780Y-103468528D01*
X168056872Y-103529718D01*
X168056874Y-103529719D01*
X168156512Y-103545500D01*
X168156516Y-103545500D01*
X168673484Y-103545500D01*
X168673488Y-103545500D01*
X168773126Y-103529719D01*
X168893220Y-103468528D01*
X168988528Y-103373220D01*
X169024786Y-103302060D01*
X169062407Y-103266978D01*
X169091790Y-103261000D01*
X171048524Y-103261000D01*
X178574300Y-103261000D01*
X178622638Y-103278593D01*
X178648358Y-103323142D01*
X178649500Y-103336200D01*
X178649500Y-114468800D01*
X178631907Y-114517138D01*
X178587358Y-114542858D01*
X178574300Y-114544000D01*
X171480000Y-114544000D01*
X171431662Y-114526407D01*
X171405942Y-114481858D01*
X171404800Y-114468800D01*
X171404800Y-113685700D01*
X171422393Y-113637362D01*
X171466942Y-113611642D01*
X171480000Y-113610500D01*
X171484749Y-113610500D01*
X171504242Y-113606622D01*
X171543231Y-113598867D01*
X171609552Y-113554552D01*
X171653867Y-113488231D01*
X171665500Y-113429748D01*
X171665500Y-113429740D01*
X171665811Y-113426582D01*
X171688049Y-113380197D01*
X171734900Y-113358959D01*
X171782430Y-113371413D01*
X171830535Y-113403557D01*
X171830537Y-113403558D01*
X171874987Y-113412400D01*
X172387600Y-113412400D01*
X172387600Y-111607600D01*
X172692400Y-111607600D01*
X172692400Y-113412400D01*
X173205013Y-113412400D01*
X173249462Y-113403558D01*
X173249467Y-113403555D01*
X173297569Y-113371414D01*
X173347534Y-113359186D01*
X173393669Y-113381936D01*
X173414187Y-113426571D01*
X173414499Y-113429747D01*
X173426132Y-113488229D01*
X173426133Y-113488231D01*
X173470448Y-113554552D01*
X173536769Y-113598867D01*
X173566010Y-113604683D01*
X173595251Y-113610500D01*
X173595252Y-113610500D01*
X174384749Y-113610500D01*
X174404242Y-113606622D01*
X174443231Y-113598867D01*
X174509552Y-113554552D01*
X174553867Y-113488231D01*
X174565500Y-113429748D01*
X174565500Y-113090252D01*
X174565499Y-113090249D01*
X174552455Y-113024671D01*
X174552455Y-112995329D01*
X174565500Y-112929748D01*
X174565500Y-112590251D01*
X174552455Y-112524671D01*
X174552455Y-112495329D01*
X174565500Y-112429748D01*
X174565500Y-112090251D01*
X174553867Y-112031770D01*
X174553866Y-112031768D01*
X174542597Y-112014903D01*
X174526706Y-111991121D01*
X174514480Y-111941157D01*
X174515479Y-111934667D01*
X174517400Y-111925013D01*
X174517400Y-111910000D01*
X174393519Y-111910000D01*
X174386149Y-111909638D01*
X174384748Y-111909500D01*
X173915200Y-111909500D01*
X173866862Y-111891907D01*
X173841142Y-111847358D01*
X173840000Y-111834300D01*
X173840000Y-111610000D01*
X174140000Y-111610000D01*
X174517400Y-111610000D01*
X174517400Y-111594987D01*
X174508558Y-111550537D01*
X174508557Y-111550535D01*
X174474873Y-111500126D01*
X174424464Y-111466442D01*
X174424462Y-111466441D01*
X174380013Y-111457600D01*
X174140000Y-111457600D01*
X174140000Y-111610000D01*
X173840000Y-111610000D01*
X173840000Y-111457600D01*
X173599987Y-111457600D01*
X173555537Y-111466441D01*
X173555535Y-111466442D01*
X173505126Y-111500126D01*
X173471442Y-111550535D01*
X173471441Y-111550537D01*
X173462600Y-111594987D01*
X173462600Y-111645760D01*
X173445007Y-111694098D01*
X173400458Y-111719818D01*
X173349800Y-111710885D01*
X173324874Y-111687540D01*
X173299873Y-111650126D01*
X173249464Y-111616442D01*
X173249462Y-111616441D01*
X173205013Y-111607600D01*
X172692400Y-111607600D01*
X172387600Y-111607600D01*
X171874987Y-111607600D01*
X171830537Y-111616441D01*
X171830532Y-111616443D01*
X171782429Y-111648586D01*
X171732463Y-111660813D01*
X171686328Y-111638062D01*
X171665811Y-111593418D01*
X171665500Y-111590257D01*
X171665500Y-111590252D01*
X171653867Y-111531769D01*
X171609552Y-111465448D01*
X171543231Y-111421133D01*
X171543229Y-111421132D01*
X171484749Y-111409500D01*
X171484748Y-111409500D01*
X170695252Y-111409500D01*
X170695251Y-111409500D01*
X170636770Y-111421132D01*
X170636765Y-111421134D01*
X170619718Y-111432526D01*
X170577939Y-111445200D01*
X169261543Y-111445200D01*
X169213205Y-111427607D01*
X169208369Y-111423174D01*
X169087525Y-111302330D01*
X169065785Y-111255710D01*
X169065499Y-111249156D01*
X169065499Y-110818487D01*
X169065498Y-110818475D01*
X169050647Y-110724698D01*
X168993048Y-110611655D01*
X168903344Y-110521951D01*
X168790307Y-110464355D01*
X168790302Y-110464353D01*
X168736305Y-110455801D01*
X168694895Y-110434701D01*
X167228292Y-108968096D01*
X167177835Y-108938965D01*
X167156509Y-108926653D01*
X167156505Y-108926652D01*
X167156501Y-108926650D01*
X167139590Y-108922118D01*
X167139590Y-108922119D01*
X167108016Y-108913659D01*
X167076444Y-108905200D01*
X167076443Y-108905200D01*
X162983824Y-108905200D01*
X162935486Y-108887607D01*
X162926992Y-108879246D01*
X162920448Y-108871694D01*
X162891128Y-108837857D01*
X162770053Y-108760047D01*
X162770051Y-108760046D01*
X162770049Y-108760045D01*
X162631963Y-108719500D01*
X162631961Y-108719500D01*
X162488039Y-108719500D01*
X162488036Y-108719500D01*
X162349948Y-108760046D01*
X162228874Y-108837855D01*
X162228872Y-108837856D01*
X162134624Y-108946624D01*
X162134622Y-108946627D01*
X162074835Y-109077540D01*
X162054353Y-109220000D01*
X162074835Y-109362459D01*
X162134622Y-109493372D01*
X162134624Y-109493375D01*
X162193787Y-109561653D01*
X162228872Y-109602143D01*
X162349947Y-109679953D01*
X162488039Y-109720500D01*
X162488042Y-109720500D01*
X162631958Y-109720500D01*
X162631961Y-109720500D01*
X162770053Y-109679953D01*
X162891128Y-109602143D01*
X162926992Y-109560754D01*
X162971943Y-109535744D01*
X162983824Y-109534800D01*
X164793456Y-109534800D01*
X164841794Y-109552393D01*
X164867514Y-109596942D01*
X164858581Y-109647600D01*
X164846630Y-109663174D01*
X163086631Y-111423174D01*
X163040011Y-111444914D01*
X163033457Y-111445200D01*
X162983824Y-111445200D01*
X162935486Y-111427607D01*
X162926992Y-111419246D01*
X162918547Y-111409500D01*
X162891128Y-111377857D01*
X162770053Y-111300047D01*
X162770051Y-111300046D01*
X162770049Y-111300045D01*
X162631963Y-111259500D01*
X162631961Y-111259500D01*
X162488039Y-111259500D01*
X162488036Y-111259500D01*
X162349948Y-111300046D01*
X162228874Y-111377855D01*
X162228872Y-111377856D01*
X162134624Y-111486624D01*
X162134622Y-111486627D01*
X162074835Y-111617540D01*
X162054353Y-111760000D01*
X162074835Y-111902459D01*
X162134622Y-112033372D01*
X162134624Y-112033375D01*
X162193883Y-112101763D01*
X162228872Y-112142143D01*
X162349947Y-112219953D01*
X162488039Y-112260500D01*
X162488042Y-112260500D01*
X162631958Y-112260500D01*
X162631961Y-112260500D01*
X162770053Y-112219953D01*
X162891128Y-112142143D01*
X162922965Y-112105401D01*
X162926992Y-112100754D01*
X162971943Y-112075744D01*
X162983824Y-112074800D01*
X163236442Y-112074800D01*
X163236444Y-112074800D01*
X163282667Y-112062414D01*
X163299586Y-112057881D01*
X163299586Y-112057880D01*
X163299589Y-112057880D01*
X163316509Y-112053347D01*
X163388292Y-112011903D01*
X165208369Y-110191826D01*
X165254989Y-110170086D01*
X165261543Y-110169800D01*
X166591329Y-110169800D01*
X166639667Y-110187393D01*
X166644503Y-110191826D01*
X166773803Y-110321126D01*
X166795543Y-110367746D01*
X166782229Y-110417433D01*
X166740092Y-110446938D01*
X166720630Y-110449500D01*
X166583488Y-110449500D01*
X166583475Y-110449501D01*
X166489698Y-110464352D01*
X166376655Y-110521951D01*
X166286951Y-110611655D01*
X166229354Y-110724694D01*
X166214500Y-110818478D01*
X166214500Y-111431512D01*
X166214501Y-111431524D01*
X166229352Y-111525301D01*
X166286951Y-111638344D01*
X166376656Y-111728049D01*
X166376658Y-111728050D01*
X166382937Y-111731249D01*
X166418021Y-111768868D01*
X166424000Y-111798254D01*
X166424000Y-112356745D01*
X166406407Y-112405083D01*
X166382944Y-112423747D01*
X166376656Y-112426951D01*
X166376654Y-112426952D01*
X166286951Y-112516655D01*
X166229354Y-112629694D01*
X166214500Y-112723478D01*
X166214500Y-113336512D01*
X166214501Y-113336524D01*
X166229352Y-113430301D01*
X166286951Y-113543344D01*
X166376655Y-113633048D01*
X166376657Y-113633049D01*
X166376658Y-113633050D01*
X166489694Y-113690645D01*
X166489696Y-113690646D01*
X166583481Y-113705500D01*
X166906393Y-113705499D01*
X166954730Y-113723092D01*
X166959567Y-113727525D01*
X167753684Y-114521642D01*
X167775424Y-114568262D01*
X167774784Y-114586579D01*
X167764500Y-114651507D01*
X167764500Y-115218490D01*
X167780281Y-115318127D01*
X167841473Y-115438222D01*
X167936777Y-115533526D01*
X167936779Y-115533527D01*
X167936780Y-115533528D01*
X168056872Y-115594718D01*
X168056874Y-115594719D01*
X168156512Y-115610500D01*
X168156516Y-115610500D01*
X168673484Y-115610500D01*
X168673488Y-115610500D01*
X168773126Y-115594719D01*
X168893220Y-115533528D01*
X168988528Y-115438220D01*
X169024786Y-115367060D01*
X169062407Y-115331978D01*
X169091790Y-115326000D01*
X171028524Y-115326000D01*
X178574300Y-115326000D01*
X178622638Y-115343593D01*
X178648358Y-115388142D01*
X178649500Y-115401200D01*
X178649500Y-122434857D01*
X178631907Y-122483195D01*
X178587358Y-122508915D01*
X178536700Y-122499982D01*
X178516170Y-122482564D01*
X178512233Y-122477767D01*
X178359599Y-122352503D01*
X178359593Y-122352499D01*
X178185463Y-122259424D01*
X178185451Y-122259419D01*
X177996502Y-122202103D01*
X177996503Y-122202103D01*
X177952400Y-122197760D01*
X177952400Y-122713197D01*
X177865826Y-122690000D01*
X177734174Y-122690000D01*
X177647600Y-122713197D01*
X177647600Y-122197760D01*
X177647599Y-122197760D01*
X177603496Y-122202103D01*
X177414548Y-122259419D01*
X177414536Y-122259424D01*
X177240406Y-122352499D01*
X177240400Y-122352503D01*
X177087766Y-122477766D01*
X176962503Y-122630400D01*
X176962499Y-122630406D01*
X176869424Y-122804536D01*
X176869419Y-122804548D01*
X176812103Y-122993496D01*
X176807760Y-123037599D01*
X176807760Y-123037600D01*
X177323198Y-123037600D01*
X177300000Y-123124174D01*
X177300000Y-123255826D01*
X177323198Y-123342400D01*
X176807760Y-123342400D01*
X176812103Y-123386503D01*
X176869419Y-123575451D01*
X176869424Y-123575463D01*
X176962499Y-123749593D01*
X176962503Y-123749599D01*
X177087766Y-123902233D01*
X177240400Y-124027496D01*
X177240406Y-124027500D01*
X177414536Y-124120575D01*
X177414548Y-124120580D01*
X177603490Y-124177894D01*
X177603502Y-124177896D01*
X177647600Y-124182239D01*
X177647600Y-123666802D01*
X177734174Y-123690000D01*
X177865826Y-123690000D01*
X177952400Y-123666802D01*
X177952400Y-124182239D01*
X177996497Y-124177896D01*
X177996509Y-124177894D01*
X178185451Y-124120580D01*
X178185463Y-124120575D01*
X178359593Y-124027500D01*
X178359599Y-124027496D01*
X178512233Y-123902232D01*
X178516167Y-123897439D01*
X178560431Y-123871232D01*
X178611184Y-123879609D01*
X178644679Y-123918649D01*
X178649500Y-123945142D01*
X178649500Y-124296393D01*
X178631907Y-124344731D01*
X178627474Y-124349568D01*
X178249881Y-124727160D01*
X178203261Y-124748899D01*
X178174878Y-124745947D01*
X178005932Y-124694699D01*
X177800000Y-124674417D01*
X177594067Y-124694699D01*
X177396052Y-124754765D01*
X177396040Y-124754770D01*
X177213554Y-124852312D01*
X177213549Y-124852315D01*
X177053590Y-124983590D01*
X176922315Y-125143549D01*
X176922312Y-125143554D01*
X176824770Y-125326040D01*
X176824765Y-125326052D01*
X176764699Y-125524067D01*
X176744417Y-125730000D01*
X176764699Y-125935932D01*
X176824765Y-126133947D01*
X176824770Y-126133959D01*
X176922312Y-126316445D01*
X176922315Y-126316450D01*
X177053590Y-126476410D01*
X177213550Y-126607685D01*
X177396046Y-126705232D01*
X177396050Y-126705233D01*
X177396052Y-126705234D01*
X177469778Y-126727598D01*
X177594066Y-126765300D01*
X177800000Y-126785583D01*
X178005934Y-126765300D01*
X178203954Y-126705232D01*
X178386450Y-126607685D01*
X178546410Y-126476410D01*
X178677685Y-126316450D01*
X178775232Y-126133954D01*
X178835300Y-125935934D01*
X178855583Y-125730000D01*
X179284417Y-125730000D01*
X179304699Y-125935932D01*
X179364765Y-126133947D01*
X179364770Y-126133959D01*
X179462312Y-126316445D01*
X179462315Y-126316450D01*
X179593590Y-126476410D01*
X179753550Y-126607685D01*
X179936046Y-126705232D01*
X179936050Y-126705233D01*
X179936052Y-126705234D01*
X180009778Y-126727598D01*
X180134066Y-126765300D01*
X180340000Y-126785583D01*
X180545934Y-126765300D01*
X180743954Y-126705232D01*
X180926450Y-126607685D01*
X181086410Y-126476410D01*
X181217685Y-126316450D01*
X181315232Y-126133954D01*
X181375300Y-125935934D01*
X181395583Y-125730000D01*
X181375300Y-125524066D01*
X181337598Y-125399778D01*
X181315234Y-125326052D01*
X181315229Y-125326040D01*
X181217687Y-125143554D01*
X181217684Y-125143549D01*
X181086410Y-124983590D01*
X180926450Y-124852315D01*
X180926445Y-124852312D01*
X180743959Y-124754770D01*
X180743947Y-124754765D01*
X180545932Y-124694699D01*
X180340000Y-124674417D01*
X180134067Y-124694699D01*
X179936052Y-124754765D01*
X179936040Y-124754770D01*
X179753554Y-124852312D01*
X179753549Y-124852315D01*
X179593590Y-124983590D01*
X179462315Y-125143549D01*
X179462312Y-125143554D01*
X179364770Y-125326040D01*
X179364765Y-125326052D01*
X179304699Y-125524067D01*
X179284417Y-125730000D01*
X178855583Y-125730000D01*
X178835300Y-125524066D01*
X178784051Y-125355118D01*
X178786855Y-125303757D01*
X178802834Y-125280122D01*
X179353378Y-124729580D01*
X179404854Y-124640421D01*
X179431500Y-124540976D01*
X179431500Y-124438024D01*
X179431500Y-123873251D01*
X179449093Y-123824913D01*
X179493642Y-123799193D01*
X179544300Y-123808126D01*
X179564830Y-123825545D01*
X179627764Y-123902231D01*
X179780400Y-124027496D01*
X179780406Y-124027500D01*
X179954536Y-124120575D01*
X179954548Y-124120580D01*
X180143490Y-124177894D01*
X180143502Y-124177896D01*
X180187599Y-124182239D01*
X180187600Y-124182239D01*
X180187600Y-123666802D01*
X180274174Y-123690000D01*
X180405826Y-123690000D01*
X180492400Y-123666802D01*
X180492400Y-124182239D01*
X180536497Y-124177896D01*
X180536509Y-124177894D01*
X180725451Y-124120580D01*
X180725463Y-124120575D01*
X180899593Y-124027500D01*
X180899599Y-124027496D01*
X181052233Y-123902233D01*
X181177496Y-123749599D01*
X181177500Y-123749593D01*
X181270575Y-123575463D01*
X181270580Y-123575451D01*
X181327896Y-123386503D01*
X181332239Y-123342400D01*
X180816802Y-123342400D01*
X180840000Y-123255826D01*
X180840000Y-123124174D01*
X180816802Y-123037600D01*
X181332240Y-123037600D01*
X181332239Y-123037599D01*
X181327896Y-122993496D01*
X181270580Y-122804548D01*
X181270575Y-122804536D01*
X181177500Y-122630406D01*
X181177496Y-122630400D01*
X181052233Y-122477766D01*
X180899599Y-122352503D01*
X180899593Y-122352499D01*
X180725463Y-122259424D01*
X180725451Y-122259419D01*
X180536502Y-122202103D01*
X180536503Y-122202103D01*
X180492400Y-122197760D01*
X180492400Y-122713197D01*
X180405826Y-122690000D01*
X180274174Y-122690000D01*
X180187600Y-122713197D01*
X180187600Y-122197760D01*
X180143496Y-122202103D01*
X179954548Y-122259419D01*
X179954536Y-122259424D01*
X179780406Y-122352499D01*
X179780400Y-122352503D01*
X179627766Y-122477767D01*
X179564830Y-122554455D01*
X179520565Y-122580659D01*
X179469812Y-122572279D01*
X179436320Y-122533237D01*
X179431500Y-122506748D01*
X179431500Y-88707600D01*
X179449093Y-88659262D01*
X179493642Y-88633542D01*
X179506700Y-88632400D01*
X180187600Y-88632400D01*
X180187600Y-88106802D01*
X180274174Y-88130000D01*
X180405826Y-88130000D01*
X180492400Y-88106802D01*
X180492400Y-88632400D01*
X181205013Y-88632400D01*
X181249462Y-88623558D01*
X181249464Y-88623557D01*
X181299873Y-88589873D01*
X181333557Y-88539464D01*
X181333558Y-88539462D01*
X181342400Y-88495012D01*
X181342400Y-87782400D01*
X180816802Y-87782400D01*
X180840000Y-87695826D01*
X180840000Y-87564174D01*
X180816802Y-87477600D01*
X181342400Y-87477600D01*
X181342400Y-86764987D01*
X181333558Y-86720537D01*
X181333557Y-86720535D01*
X181299873Y-86670126D01*
X181249464Y-86636442D01*
X181249462Y-86636441D01*
X181205013Y-86627600D01*
X180492400Y-86627600D01*
X180492400Y-87153197D01*
X180405826Y-87130000D01*
X180274174Y-87130000D01*
X180187600Y-87153197D01*
X180187600Y-86627600D01*
X179506700Y-86627600D01*
X179458362Y-86610007D01*
X179432642Y-86565458D01*
X179431500Y-86552400D01*
X179431500Y-86279026D01*
X179431500Y-86279024D01*
X179404854Y-86179580D01*
X179404854Y-86179579D01*
X179394492Y-86161631D01*
X179353378Y-86090419D01*
X178802839Y-85539881D01*
X178781099Y-85493261D01*
X178784050Y-85464883D01*
X178835300Y-85295934D01*
X178855583Y-85090000D01*
X179284417Y-85090000D01*
X179304699Y-85295932D01*
X179364765Y-85493947D01*
X179364770Y-85493959D01*
X179462312Y-85676445D01*
X179462315Y-85676450D01*
X179593590Y-85836410D01*
X179753550Y-85967685D01*
X179936046Y-86065232D01*
X179936050Y-86065233D01*
X179936052Y-86065234D01*
X179974362Y-86076855D01*
X180134066Y-86125300D01*
X180340000Y-86145583D01*
X180545934Y-86125300D01*
X180743954Y-86065232D01*
X180926450Y-85967685D01*
X181086410Y-85836410D01*
X181217685Y-85676450D01*
X181315232Y-85493954D01*
X181375300Y-85295934D01*
X181395583Y-85090000D01*
X181375300Y-84884066D01*
X181315232Y-84686046D01*
X181280016Y-84620163D01*
X181217687Y-84503554D01*
X181217684Y-84503549D01*
X181206561Y-84489995D01*
X181086410Y-84343590D01*
X180926450Y-84212315D01*
X180926445Y-84212312D01*
X180743959Y-84114770D01*
X180743947Y-84114765D01*
X180545932Y-84054699D01*
X180340000Y-84034417D01*
X180134067Y-84054699D01*
X179936052Y-84114765D01*
X179936040Y-84114770D01*
X179753554Y-84212312D01*
X179753549Y-84212315D01*
X179593590Y-84343590D01*
X179462315Y-84503549D01*
X179462312Y-84503554D01*
X179364770Y-84686040D01*
X179364765Y-84686052D01*
X179304699Y-84884067D01*
X179284417Y-85090000D01*
X178855583Y-85090000D01*
X178835300Y-84884066D01*
X178775232Y-84686046D01*
X178740016Y-84620163D01*
X178677687Y-84503554D01*
X178677684Y-84503549D01*
X178666561Y-84489995D01*
X178546410Y-84343590D01*
X178386450Y-84212315D01*
X178386445Y-84212312D01*
X178203959Y-84114770D01*
X178203947Y-84114765D01*
X178005932Y-84054699D01*
X177800000Y-84034417D01*
X177594067Y-84054699D01*
X177396052Y-84114765D01*
X177396040Y-84114770D01*
X177213554Y-84212312D01*
X177213549Y-84212315D01*
X177053590Y-84343590D01*
X176922315Y-84503549D01*
X176922312Y-84503554D01*
X176824770Y-84686040D01*
X176824765Y-84686052D01*
X176764699Y-84884067D01*
X176744417Y-85090000D01*
X176764699Y-85295932D01*
X176824765Y-85493947D01*
X176824770Y-85493959D01*
X176922312Y-85676445D01*
X176922315Y-85676450D01*
X177053590Y-85836410D01*
X177213550Y-85967685D01*
X177396046Y-86065232D01*
X177396050Y-86065233D01*
X177396052Y-86065234D01*
X177434362Y-86076855D01*
X177594066Y-86125300D01*
X177800000Y-86145583D01*
X178005934Y-86125300D01*
X178174880Y-86074051D01*
X178226241Y-86076855D01*
X178249881Y-86092839D01*
X178627474Y-86470432D01*
X178649214Y-86517052D01*
X178649500Y-86523606D01*
X178649500Y-86874857D01*
X178631907Y-86923195D01*
X178587358Y-86948915D01*
X178536700Y-86939982D01*
X178516170Y-86922564D01*
X178512233Y-86917767D01*
X178359599Y-86792503D01*
X178359593Y-86792499D01*
X178185463Y-86699424D01*
X178185451Y-86699419D01*
X177996502Y-86642103D01*
X177996503Y-86642103D01*
X177952400Y-86637760D01*
X177952400Y-87153197D01*
X177865826Y-87130000D01*
X177734174Y-87130000D01*
X177647600Y-87153197D01*
X177647600Y-86637760D01*
X177647599Y-86637760D01*
X177603496Y-86642103D01*
X177414548Y-86699419D01*
X177414536Y-86699424D01*
X177240406Y-86792499D01*
X177240400Y-86792503D01*
X177087766Y-86917766D01*
X176962503Y-87070400D01*
X176962499Y-87070406D01*
X176869424Y-87244536D01*
X176869419Y-87244548D01*
X176812103Y-87433496D01*
X176807760Y-87477599D01*
X176807760Y-87477600D01*
X177323198Y-87477600D01*
X177300000Y-87564174D01*
X177300000Y-87695826D01*
X177323198Y-87782400D01*
X176807760Y-87782400D01*
X176812103Y-87826503D01*
X176869419Y-88015451D01*
X176869424Y-88015463D01*
X176962499Y-88189593D01*
X176962503Y-88189599D01*
X177087766Y-88342233D01*
X177240400Y-88467496D01*
X177240406Y-88467500D01*
X177414536Y-88560575D01*
X177414548Y-88560580D01*
X177603490Y-88617894D01*
X177603502Y-88617896D01*
X177647599Y-88622239D01*
X177647600Y-88622239D01*
X177647600Y-88106802D01*
X177734174Y-88130000D01*
X177865826Y-88130000D01*
X177952400Y-88106802D01*
X177952400Y-88622239D01*
X177996497Y-88617896D01*
X177996509Y-88617894D01*
X178185451Y-88560580D01*
X178185463Y-88560575D01*
X178359593Y-88467500D01*
X178359599Y-88467496D01*
X178512233Y-88342232D01*
X178516167Y-88337439D01*
X178560431Y-88311232D01*
X178611184Y-88319609D01*
X178644679Y-88358649D01*
X178649500Y-88385142D01*
X178649500Y-102403800D01*
X178631907Y-102452138D01*
X178587358Y-102477858D01*
X178574300Y-102479000D01*
X171480000Y-102479000D01*
X171431662Y-102461407D01*
X171405942Y-102416858D01*
X171404800Y-102403800D01*
X171404800Y-101620700D01*
X171422393Y-101572362D01*
X171466942Y-101546642D01*
X171480000Y-101545500D01*
X171484749Y-101545500D01*
X171504242Y-101541622D01*
X171543231Y-101533867D01*
X171609552Y-101489552D01*
X171653867Y-101423231D01*
X171665500Y-101364748D01*
X171665500Y-101364740D01*
X171665811Y-101361582D01*
X171688049Y-101315197D01*
X171734900Y-101293959D01*
X171782430Y-101306413D01*
X171830535Y-101338557D01*
X171830537Y-101338558D01*
X171874987Y-101347400D01*
X172387600Y-101347400D01*
X172387600Y-99542600D01*
X172692400Y-99542600D01*
X172692400Y-101347400D01*
X173205013Y-101347400D01*
X173249462Y-101338558D01*
X173249467Y-101338555D01*
X173297569Y-101306414D01*
X173347534Y-101294186D01*
X173393669Y-101316936D01*
X173414187Y-101361571D01*
X173414499Y-101364747D01*
X173426132Y-101423229D01*
X173426133Y-101423231D01*
X173470448Y-101489552D01*
X173536769Y-101533867D01*
X173566010Y-101539683D01*
X173595251Y-101545500D01*
X173595252Y-101545500D01*
X174384749Y-101545500D01*
X174404242Y-101541622D01*
X174443231Y-101533867D01*
X174509552Y-101489552D01*
X174553867Y-101423231D01*
X174565500Y-101364748D01*
X174565500Y-101025252D01*
X174565499Y-101025249D01*
X174552455Y-100959671D01*
X174552455Y-100930329D01*
X174565500Y-100864748D01*
X174565500Y-100525251D01*
X174552455Y-100459671D01*
X174552455Y-100430329D01*
X174565500Y-100364748D01*
X174565500Y-100025251D01*
X174553867Y-99966770D01*
X174553866Y-99966768D01*
X174542597Y-99949903D01*
X174526706Y-99926121D01*
X174514480Y-99876157D01*
X174515479Y-99869667D01*
X174517400Y-99860013D01*
X174517400Y-99845000D01*
X174393519Y-99845000D01*
X174386149Y-99844638D01*
X174384748Y-99844500D01*
X173915200Y-99844500D01*
X173866862Y-99826907D01*
X173841142Y-99782358D01*
X173840000Y-99769300D01*
X173840000Y-99545000D01*
X174140000Y-99545000D01*
X174517400Y-99545000D01*
X174517400Y-99529987D01*
X174508558Y-99485537D01*
X174508557Y-99485535D01*
X174474873Y-99435126D01*
X174424464Y-99401442D01*
X174424462Y-99401441D01*
X174380013Y-99392600D01*
X174140000Y-99392600D01*
X174140000Y-99545000D01*
X173840000Y-99545000D01*
X173840000Y-99392600D01*
X173599987Y-99392600D01*
X173555537Y-99401441D01*
X173555535Y-99401442D01*
X173505126Y-99435126D01*
X173471442Y-99485535D01*
X173471441Y-99485537D01*
X173462600Y-99529987D01*
X173462600Y-99580760D01*
X173445007Y-99629098D01*
X173400458Y-99654818D01*
X173349800Y-99645885D01*
X173324874Y-99622540D01*
X173299873Y-99585126D01*
X173249464Y-99551442D01*
X173249462Y-99551441D01*
X173205013Y-99542600D01*
X172692400Y-99542600D01*
X172387600Y-99542600D01*
X171874987Y-99542600D01*
X171830537Y-99551441D01*
X171830532Y-99551443D01*
X171782429Y-99583586D01*
X171732463Y-99595813D01*
X171686328Y-99573062D01*
X171665811Y-99528418D01*
X171665500Y-99525257D01*
X171665500Y-99525252D01*
X171653867Y-99466769D01*
X171609552Y-99400448D01*
X171543231Y-99356133D01*
X171543229Y-99356132D01*
X171484749Y-99344500D01*
X171484748Y-99344500D01*
X170695252Y-99344500D01*
X170695251Y-99344500D01*
X170636770Y-99356132D01*
X170636765Y-99356134D01*
X170619718Y-99367526D01*
X170577939Y-99380200D01*
X169261543Y-99380200D01*
X169213205Y-99362607D01*
X169208369Y-99358174D01*
X169087525Y-99237330D01*
X169065785Y-99190710D01*
X169065499Y-99184156D01*
X169065499Y-98753487D01*
X169065498Y-98753475D01*
X169050647Y-98659698D01*
X169020252Y-98600045D01*
X168993050Y-98546658D01*
X168993049Y-98546657D01*
X168993048Y-98546655D01*
X168903344Y-98456951D01*
X168790304Y-98399354D01*
X168790306Y-98399354D01*
X168700661Y-98385156D01*
X168659251Y-98364056D01*
X167198292Y-96903096D01*
X167147835Y-96873965D01*
X167126509Y-96861653D01*
X167126505Y-96861652D01*
X167126501Y-96861650D01*
X167109590Y-96857118D01*
X167109590Y-96857119D01*
X167078016Y-96848659D01*
X167046444Y-96840200D01*
X164423556Y-96840200D01*
X164383524Y-96850926D01*
X164343489Y-96861653D01*
X164271709Y-96903096D01*
X164271703Y-96903100D01*
X162637331Y-98537474D01*
X162590711Y-98559214D01*
X162584157Y-98559500D01*
X162488036Y-98559500D01*
X162349950Y-98600045D01*
X162228656Y-98677996D01*
X162178480Y-98689328D01*
X162132758Y-98665757D01*
X162112885Y-98618311D01*
X162112800Y-98614733D01*
X162112800Y-97621558D01*
X162112800Y-97621556D01*
X162091347Y-97541492D01*
X162091347Y-97541491D01*
X162049902Y-97469708D01*
X162049899Y-97469705D01*
X162049898Y-97469703D01*
X161179664Y-96599470D01*
X161157924Y-96552850D01*
X161158403Y-96535601D01*
X161160647Y-96520000D01*
X161140165Y-96377543D01*
X161080377Y-96246627D01*
X161080375Y-96246624D01*
X160986127Y-96137856D01*
X160986125Y-96137855D01*
X160901635Y-96083557D01*
X160865053Y-96060047D01*
X160865052Y-96060046D01*
X160726963Y-96019500D01*
X160726961Y-96019500D01*
X160630842Y-96019500D01*
X160582504Y-96001907D01*
X160577668Y-95997474D01*
X159805392Y-95225196D01*
X159754935Y-95196065D01*
X159733609Y-95183753D01*
X159733605Y-95183752D01*
X159733601Y-95183750D01*
X159716690Y-95179218D01*
X159716690Y-95179219D01*
X159685116Y-95170759D01*
X159653544Y-95162300D01*
X159653543Y-95162300D01*
X155328642Y-95162300D01*
X155280304Y-95144707D01*
X155275468Y-95140274D01*
X148290750Y-88155555D01*
X148269010Y-88108935D01*
X148277604Y-88066931D01*
X148295232Y-88033954D01*
X148355300Y-87835934D01*
X148375583Y-87630000D01*
X148804417Y-87630000D01*
X148824699Y-87835932D01*
X148884765Y-88033947D01*
X148884770Y-88033959D01*
X148973489Y-88199938D01*
X148982315Y-88216450D01*
X149113590Y-88376410D01*
X149273550Y-88507685D01*
X149273554Y-88507687D01*
X149447660Y-88600750D01*
X149456046Y-88605232D01*
X149456050Y-88605233D01*
X149456052Y-88605234D01*
X149497794Y-88617896D01*
X149654066Y-88665300D01*
X149860000Y-88685583D01*
X150065934Y-88665300D01*
X150263954Y-88605232D01*
X150446450Y-88507685D01*
X150606410Y-88376410D01*
X150737685Y-88216450D01*
X150835232Y-88033954D01*
X150895300Y-87835934D01*
X150915583Y-87630000D01*
X151344417Y-87630000D01*
X151364699Y-87835932D01*
X151424765Y-88033947D01*
X151424770Y-88033959D01*
X151513489Y-88199938D01*
X151522315Y-88216450D01*
X151653590Y-88376410D01*
X151813550Y-88507685D01*
X151813554Y-88507687D01*
X151987660Y-88600750D01*
X151996046Y-88605232D01*
X151996050Y-88605233D01*
X151996052Y-88605234D01*
X152037794Y-88617896D01*
X152194066Y-88665300D01*
X152400000Y-88685583D01*
X152605934Y-88665300D01*
X152803954Y-88605232D01*
X152986450Y-88507685D01*
X153146410Y-88376410D01*
X153277685Y-88216450D01*
X153375232Y-88033954D01*
X153435300Y-87835934D01*
X153455583Y-87630000D01*
X153884417Y-87630000D01*
X153904699Y-87835932D01*
X153964765Y-88033947D01*
X153964770Y-88033959D01*
X154053489Y-88199938D01*
X154062315Y-88216450D01*
X154193590Y-88376410D01*
X154353550Y-88507685D01*
X154353554Y-88507687D01*
X154527660Y-88600750D01*
X154536046Y-88605232D01*
X154536050Y-88605233D01*
X154536052Y-88605234D01*
X154577794Y-88617896D01*
X154734066Y-88665300D01*
X154940000Y-88685583D01*
X155145934Y-88665300D01*
X155343954Y-88605232D01*
X155526450Y-88507685D01*
X155686410Y-88376410D01*
X155817685Y-88216450D01*
X155915232Y-88033954D01*
X155975300Y-87835934D01*
X155995583Y-87630000D01*
X156424417Y-87630000D01*
X156444699Y-87835932D01*
X156504765Y-88033947D01*
X156504770Y-88033959D01*
X156593489Y-88199938D01*
X156602315Y-88216450D01*
X156733590Y-88376410D01*
X156893550Y-88507685D01*
X156893554Y-88507687D01*
X157067660Y-88600750D01*
X157076046Y-88605232D01*
X157076050Y-88605233D01*
X157076052Y-88605234D01*
X157117794Y-88617896D01*
X157274066Y-88665300D01*
X157480000Y-88685583D01*
X157685934Y-88665300D01*
X157883954Y-88605232D01*
X158066450Y-88507685D01*
X158226410Y-88376410D01*
X158357685Y-88216450D01*
X158455232Y-88033954D01*
X158515300Y-87835934D01*
X158535583Y-87630000D01*
X158964417Y-87630000D01*
X158984699Y-87835932D01*
X159044765Y-88033947D01*
X159044770Y-88033959D01*
X159133489Y-88199938D01*
X159142315Y-88216450D01*
X159273590Y-88376410D01*
X159433550Y-88507685D01*
X159433554Y-88507687D01*
X159607660Y-88600750D01*
X159616046Y-88605232D01*
X159616050Y-88605233D01*
X159616052Y-88605234D01*
X159657794Y-88617896D01*
X159814066Y-88665300D01*
X160020000Y-88685583D01*
X160225934Y-88665300D01*
X160423954Y-88605232D01*
X160606450Y-88507685D01*
X160766410Y-88376410D01*
X160897685Y-88216450D01*
X160995232Y-88033954D01*
X161055300Y-87835934D01*
X161075583Y-87630000D01*
X161504417Y-87630000D01*
X161524699Y-87835932D01*
X161584765Y-88033947D01*
X161584770Y-88033959D01*
X161673489Y-88199938D01*
X161682315Y-88216450D01*
X161813590Y-88376410D01*
X161973550Y-88507685D01*
X161973554Y-88507687D01*
X162147660Y-88600750D01*
X162156046Y-88605232D01*
X162156050Y-88605233D01*
X162156052Y-88605234D01*
X162197794Y-88617896D01*
X162354066Y-88665300D01*
X162560000Y-88685583D01*
X162765934Y-88665300D01*
X162963954Y-88605232D01*
X163146450Y-88507685D01*
X163306410Y-88376410D01*
X163437685Y-88216450D01*
X163535232Y-88033954D01*
X163595300Y-87835934D01*
X163615583Y-87630000D01*
X164044417Y-87630000D01*
X164064699Y-87835932D01*
X164124765Y-88033947D01*
X164124770Y-88033959D01*
X164213489Y-88199938D01*
X164222315Y-88216450D01*
X164353590Y-88376410D01*
X164513550Y-88507685D01*
X164513554Y-88507687D01*
X164687660Y-88600750D01*
X164696046Y-88605232D01*
X164696050Y-88605233D01*
X164696052Y-88605234D01*
X164737794Y-88617896D01*
X164894066Y-88665300D01*
X165100000Y-88685583D01*
X165305934Y-88665300D01*
X165503954Y-88605232D01*
X165686450Y-88507685D01*
X165846410Y-88376410D01*
X165977685Y-88216450D01*
X166075232Y-88033954D01*
X166135300Y-87835934D01*
X166155583Y-87630000D01*
X166584417Y-87630000D01*
X166604699Y-87835932D01*
X166664765Y-88033947D01*
X166664770Y-88033959D01*
X166753489Y-88199938D01*
X166762315Y-88216450D01*
X166893590Y-88376410D01*
X167053550Y-88507685D01*
X167053554Y-88507687D01*
X167227660Y-88600750D01*
X167236046Y-88605232D01*
X167236050Y-88605233D01*
X167236052Y-88605234D01*
X167277794Y-88617896D01*
X167434066Y-88665300D01*
X167640000Y-88685583D01*
X167845934Y-88665300D01*
X168043954Y-88605232D01*
X168226450Y-88507685D01*
X168386410Y-88376410D01*
X168517685Y-88216450D01*
X168615232Y-88033954D01*
X168675300Y-87835934D01*
X168695583Y-87630000D01*
X168675300Y-87424066D01*
X168637598Y-87299778D01*
X168615234Y-87226052D01*
X168615233Y-87226050D01*
X168615232Y-87226046D01*
X168580016Y-87160163D01*
X168517687Y-87043554D01*
X168517684Y-87043549D01*
X168386410Y-86883590D01*
X168226450Y-86752315D01*
X168226445Y-86752312D01*
X168043959Y-86654770D01*
X168043947Y-86654765D01*
X167845932Y-86594699D01*
X167640000Y-86574417D01*
X167434067Y-86594699D01*
X167236052Y-86654765D01*
X167236040Y-86654770D01*
X167053554Y-86752312D01*
X167053549Y-86752315D01*
X166893590Y-86883590D01*
X166762315Y-87043549D01*
X166762312Y-87043554D01*
X166664770Y-87226040D01*
X166664765Y-87226052D01*
X166604699Y-87424067D01*
X166584417Y-87630000D01*
X166155583Y-87630000D01*
X166135300Y-87424066D01*
X166097598Y-87299778D01*
X166075234Y-87226052D01*
X166075233Y-87226050D01*
X166075232Y-87226046D01*
X166040016Y-87160163D01*
X165977687Y-87043554D01*
X165977684Y-87043549D01*
X165846410Y-86883590D01*
X165686450Y-86752315D01*
X165686445Y-86752312D01*
X165503959Y-86654770D01*
X165503947Y-86654765D01*
X165305932Y-86594699D01*
X165100000Y-86574417D01*
X164894067Y-86594699D01*
X164696052Y-86654765D01*
X164696040Y-86654770D01*
X164513554Y-86752312D01*
X164513549Y-86752315D01*
X164353590Y-86883590D01*
X164222315Y-87043549D01*
X164222312Y-87043554D01*
X164124770Y-87226040D01*
X164124765Y-87226052D01*
X164064699Y-87424067D01*
X164044417Y-87630000D01*
X163615583Y-87630000D01*
X163595300Y-87424066D01*
X163557598Y-87299778D01*
X163535234Y-87226052D01*
X163535233Y-87226050D01*
X163535232Y-87226046D01*
X163500016Y-87160163D01*
X163437687Y-87043554D01*
X163437684Y-87043549D01*
X163306410Y-86883590D01*
X163146450Y-86752315D01*
X163146445Y-86752312D01*
X162963959Y-86654770D01*
X162963947Y-86654765D01*
X162765932Y-86594699D01*
X162560000Y-86574417D01*
X162354067Y-86594699D01*
X162156052Y-86654765D01*
X162156040Y-86654770D01*
X161973554Y-86752312D01*
X161973549Y-86752315D01*
X161813590Y-86883590D01*
X161682315Y-87043549D01*
X161682312Y-87043554D01*
X161584770Y-87226040D01*
X161584765Y-87226052D01*
X161524699Y-87424067D01*
X161504417Y-87630000D01*
X161075583Y-87630000D01*
X161055300Y-87424066D01*
X161017598Y-87299778D01*
X160995234Y-87226052D01*
X160995233Y-87226050D01*
X160995232Y-87226046D01*
X160960016Y-87160163D01*
X160897687Y-87043554D01*
X160897684Y-87043549D01*
X160766410Y-86883590D01*
X160606450Y-86752315D01*
X160606445Y-86752312D01*
X160423959Y-86654770D01*
X160423947Y-86654765D01*
X160225932Y-86594699D01*
X160020000Y-86574417D01*
X159814067Y-86594699D01*
X159616052Y-86654765D01*
X159616040Y-86654770D01*
X159433554Y-86752312D01*
X159433549Y-86752315D01*
X159273590Y-86883590D01*
X159142315Y-87043549D01*
X159142312Y-87043554D01*
X159044770Y-87226040D01*
X159044765Y-87226052D01*
X158984699Y-87424067D01*
X158964417Y-87630000D01*
X158535583Y-87630000D01*
X158515300Y-87424066D01*
X158477598Y-87299778D01*
X158455234Y-87226052D01*
X158455233Y-87226050D01*
X158455232Y-87226046D01*
X158420016Y-87160163D01*
X158357687Y-87043554D01*
X158357684Y-87043549D01*
X158226410Y-86883590D01*
X158066450Y-86752315D01*
X158066445Y-86752312D01*
X157883959Y-86654770D01*
X157883947Y-86654765D01*
X157685932Y-86594699D01*
X157480000Y-86574417D01*
X157274067Y-86594699D01*
X157076052Y-86654765D01*
X157076040Y-86654770D01*
X156893554Y-86752312D01*
X156893549Y-86752315D01*
X156733590Y-86883590D01*
X156602315Y-87043549D01*
X156602312Y-87043554D01*
X156504770Y-87226040D01*
X156504765Y-87226052D01*
X156444699Y-87424067D01*
X156424417Y-87630000D01*
X155995583Y-87630000D01*
X155975300Y-87424066D01*
X155937598Y-87299778D01*
X155915234Y-87226052D01*
X155915233Y-87226050D01*
X155915232Y-87226046D01*
X155880016Y-87160163D01*
X155817687Y-87043554D01*
X155817684Y-87043549D01*
X155686410Y-86883590D01*
X155526450Y-86752315D01*
X155526445Y-86752312D01*
X155343959Y-86654770D01*
X155343947Y-86654765D01*
X155145932Y-86594699D01*
X154940000Y-86574417D01*
X154734067Y-86594699D01*
X154536052Y-86654765D01*
X154536040Y-86654770D01*
X154353554Y-86752312D01*
X154353549Y-86752315D01*
X154193590Y-86883590D01*
X154062315Y-87043549D01*
X154062312Y-87043554D01*
X153964770Y-87226040D01*
X153964765Y-87226052D01*
X153904699Y-87424067D01*
X153884417Y-87630000D01*
X153455583Y-87630000D01*
X153435300Y-87424066D01*
X153397598Y-87299778D01*
X153375234Y-87226052D01*
X153375233Y-87226050D01*
X153375232Y-87226046D01*
X153340016Y-87160163D01*
X153277687Y-87043554D01*
X153277684Y-87043549D01*
X153146410Y-86883590D01*
X152986450Y-86752315D01*
X152986445Y-86752312D01*
X152803959Y-86654770D01*
X152803947Y-86654765D01*
X152605932Y-86594699D01*
X152400000Y-86574417D01*
X152194067Y-86594699D01*
X151996052Y-86654765D01*
X151996040Y-86654770D01*
X151813554Y-86752312D01*
X151813549Y-86752315D01*
X151653590Y-86883590D01*
X151522315Y-87043549D01*
X151522312Y-87043554D01*
X151424770Y-87226040D01*
X151424765Y-87226052D01*
X151364699Y-87424067D01*
X151344417Y-87630000D01*
X150915583Y-87630000D01*
X150895300Y-87424066D01*
X150857598Y-87299778D01*
X150835234Y-87226052D01*
X150835233Y-87226050D01*
X150835232Y-87226046D01*
X150800016Y-87160163D01*
X150737687Y-87043554D01*
X150737684Y-87043549D01*
X150606410Y-86883590D01*
X150446450Y-86752315D01*
X150446445Y-86752312D01*
X150263959Y-86654770D01*
X150263947Y-86654765D01*
X150065932Y-86594699D01*
X149860000Y-86574417D01*
X149654067Y-86594699D01*
X149456052Y-86654765D01*
X149456040Y-86654770D01*
X149273554Y-86752312D01*
X149273549Y-86752315D01*
X149113590Y-86883590D01*
X148982315Y-87043549D01*
X148982312Y-87043554D01*
X148884770Y-87226040D01*
X148884765Y-87226052D01*
X148824699Y-87424067D01*
X148804417Y-87630000D01*
X148375583Y-87630000D01*
X148355300Y-87424066D01*
X148317598Y-87299778D01*
X148295234Y-87226052D01*
X148295233Y-87226050D01*
X148295232Y-87226046D01*
X148260016Y-87160163D01*
X148197687Y-87043554D01*
X148197684Y-87043549D01*
X148066410Y-86883590D01*
X147906450Y-86752315D01*
X147906445Y-86752312D01*
X147723959Y-86654770D01*
X147723947Y-86654765D01*
X147525932Y-86594699D01*
X147320000Y-86574417D01*
X147114067Y-86594699D01*
X146916052Y-86654765D01*
X146916040Y-86654770D01*
X146733554Y-86752312D01*
X146733549Y-86752315D01*
X146573590Y-86883590D01*
X146442315Y-87043549D01*
X146442312Y-87043554D01*
X146344770Y-87226040D01*
X146344765Y-87226052D01*
X146284699Y-87424067D01*
X146264417Y-87630000D01*
X146284699Y-87835932D01*
X146344765Y-88033947D01*
X146344770Y-88033959D01*
X146433489Y-88199938D01*
X146442315Y-88216450D01*
X146573590Y-88376410D01*
X146733550Y-88507685D01*
X146733554Y-88507687D01*
X146907660Y-88600750D01*
X146916046Y-88605232D01*
X146916050Y-88605233D01*
X146916052Y-88605234D01*
X146957794Y-88617896D01*
X147114066Y-88665300D01*
X147320000Y-88685583D01*
X147525934Y-88665300D01*
X147723954Y-88605232D01*
X147756931Y-88587604D01*
X147807852Y-88580333D01*
X147845555Y-88600750D01*
X154707332Y-95462526D01*
X154729072Y-95509146D01*
X154715758Y-95558833D01*
X154673621Y-95588338D01*
X154654158Y-95590900D01*
X153217242Y-95590900D01*
X153168904Y-95573307D01*
X153164068Y-95568874D01*
X145750750Y-88155555D01*
X145729010Y-88108935D01*
X145737604Y-88066931D01*
X145755232Y-88033954D01*
X145815300Y-87835934D01*
X145835583Y-87630000D01*
X145815300Y-87424066D01*
X145777598Y-87299778D01*
X145755234Y-87226052D01*
X145755233Y-87226050D01*
X145755232Y-87226046D01*
X145720016Y-87160163D01*
X145657687Y-87043554D01*
X145657684Y-87043549D01*
X145526410Y-86883590D01*
X145366450Y-86752315D01*
X145366445Y-86752312D01*
X145183959Y-86654770D01*
X145183947Y-86654765D01*
X144985932Y-86594699D01*
X144780000Y-86574417D01*
X144574067Y-86594699D01*
X144376052Y-86654765D01*
X144376040Y-86654770D01*
X144193554Y-86752312D01*
X144193549Y-86752315D01*
X144053406Y-86867327D01*
X144004879Y-86884392D01*
X143956737Y-86866272D01*
X143931504Y-86821445D01*
X143930500Y-86809196D01*
X143930500Y-85910803D01*
X143948093Y-85862465D01*
X143992642Y-85836745D01*
X144043300Y-85845678D01*
X144053406Y-85852673D01*
X144193542Y-85967679D01*
X144193545Y-85967681D01*
X144193550Y-85967685D01*
X144376046Y-86065232D01*
X144376050Y-86065233D01*
X144376052Y-86065234D01*
X144414362Y-86076855D01*
X144574066Y-86125300D01*
X144780000Y-86145583D01*
X144985934Y-86125300D01*
X145183954Y-86065232D01*
X145366450Y-85967685D01*
X145526410Y-85836410D01*
X145657685Y-85676450D01*
X145755232Y-85493954D01*
X145815300Y-85295934D01*
X145835583Y-85090000D01*
X146264417Y-85090000D01*
X146284699Y-85295932D01*
X146344765Y-85493947D01*
X146344770Y-85493959D01*
X146442312Y-85676445D01*
X146442315Y-85676450D01*
X146573590Y-85836410D01*
X146733550Y-85967685D01*
X146916046Y-86065232D01*
X146916050Y-86065233D01*
X146916052Y-86065234D01*
X146954362Y-86076855D01*
X147114066Y-86125300D01*
X147320000Y-86145583D01*
X147525934Y-86125300D01*
X147723954Y-86065232D01*
X147906450Y-85967685D01*
X148066410Y-85836410D01*
X148197685Y-85676450D01*
X148295232Y-85493954D01*
X148355300Y-85295934D01*
X148375583Y-85090000D01*
X148804417Y-85090000D01*
X148824699Y-85295932D01*
X148884765Y-85493947D01*
X148884770Y-85493959D01*
X148982312Y-85676445D01*
X148982315Y-85676450D01*
X149113590Y-85836410D01*
X149273550Y-85967685D01*
X149456046Y-86065232D01*
X149456050Y-86065233D01*
X149456052Y-86065234D01*
X149494362Y-86076855D01*
X149654066Y-86125300D01*
X149860000Y-86145583D01*
X150065934Y-86125300D01*
X150263954Y-86065232D01*
X150446450Y-85967685D01*
X150606410Y-85836410D01*
X150737685Y-85676450D01*
X150835232Y-85493954D01*
X150895300Y-85295934D01*
X150915583Y-85090000D01*
X151344417Y-85090000D01*
X151364699Y-85295932D01*
X151424765Y-85493947D01*
X151424770Y-85493959D01*
X151522312Y-85676445D01*
X151522315Y-85676450D01*
X151653590Y-85836410D01*
X151813550Y-85967685D01*
X151996046Y-86065232D01*
X151996050Y-86065233D01*
X151996052Y-86065234D01*
X152034362Y-86076855D01*
X152194066Y-86125300D01*
X152400000Y-86145583D01*
X152605934Y-86125300D01*
X152803954Y-86065232D01*
X152986450Y-85967685D01*
X153146410Y-85836410D01*
X153277685Y-85676450D01*
X153375232Y-85493954D01*
X153435300Y-85295934D01*
X153455583Y-85090000D01*
X153884417Y-85090000D01*
X153904699Y-85295932D01*
X153964765Y-85493947D01*
X153964770Y-85493959D01*
X154062312Y-85676445D01*
X154062315Y-85676450D01*
X154193590Y-85836410D01*
X154353550Y-85967685D01*
X154536046Y-86065232D01*
X154536050Y-86065233D01*
X154536052Y-86065234D01*
X154574362Y-86076855D01*
X154734066Y-86125300D01*
X154940000Y-86145583D01*
X155145934Y-86125300D01*
X155343954Y-86065232D01*
X155526450Y-85967685D01*
X155686410Y-85836410D01*
X155817685Y-85676450D01*
X155915232Y-85493954D01*
X155975300Y-85295934D01*
X155995583Y-85090000D01*
X156424417Y-85090000D01*
X156444699Y-85295932D01*
X156504765Y-85493947D01*
X156504770Y-85493959D01*
X156602312Y-85676445D01*
X156602315Y-85676450D01*
X156733590Y-85836410D01*
X156893550Y-85967685D01*
X157076046Y-86065232D01*
X157076050Y-86065233D01*
X157076052Y-86065234D01*
X157114362Y-86076855D01*
X157274066Y-86125300D01*
X157480000Y-86145583D01*
X157685934Y-86125300D01*
X157883954Y-86065232D01*
X158066450Y-85967685D01*
X158226410Y-85836410D01*
X158357685Y-85676450D01*
X158455232Y-85493954D01*
X158515300Y-85295934D01*
X158535583Y-85090000D01*
X158964417Y-85090000D01*
X158984699Y-85295932D01*
X159044765Y-85493947D01*
X159044770Y-85493959D01*
X159142312Y-85676445D01*
X159142315Y-85676450D01*
X159273590Y-85836410D01*
X159433550Y-85967685D01*
X159616046Y-86065232D01*
X159616050Y-86065233D01*
X159616052Y-86065234D01*
X159654362Y-86076855D01*
X159814066Y-86125300D01*
X160020000Y-86145583D01*
X160225934Y-86125300D01*
X160423954Y-86065232D01*
X160606450Y-85967685D01*
X160766410Y-85836410D01*
X160897685Y-85676450D01*
X160995232Y-85493954D01*
X161055300Y-85295934D01*
X161075583Y-85090000D01*
X161504417Y-85090000D01*
X161524699Y-85295932D01*
X161584765Y-85493947D01*
X161584770Y-85493959D01*
X161682312Y-85676445D01*
X161682315Y-85676450D01*
X161813590Y-85836410D01*
X161973550Y-85967685D01*
X162156046Y-86065232D01*
X162156050Y-86065233D01*
X162156052Y-86065234D01*
X162194362Y-86076855D01*
X162354066Y-86125300D01*
X162560000Y-86145583D01*
X162765934Y-86125300D01*
X162963954Y-86065232D01*
X163146450Y-85967685D01*
X163306410Y-85836410D01*
X163437685Y-85676450D01*
X163535232Y-85493954D01*
X163595300Y-85295934D01*
X163615583Y-85090000D01*
X164044417Y-85090000D01*
X164064699Y-85295932D01*
X164124765Y-85493947D01*
X164124770Y-85493959D01*
X164222312Y-85676445D01*
X164222315Y-85676450D01*
X164353590Y-85836410D01*
X164513550Y-85967685D01*
X164696046Y-86065232D01*
X164696050Y-86065233D01*
X164696052Y-86065234D01*
X164734362Y-86076855D01*
X164894066Y-86125300D01*
X165100000Y-86145583D01*
X165305934Y-86125300D01*
X165503954Y-86065232D01*
X165686450Y-85967685D01*
X165846410Y-85836410D01*
X165977685Y-85676450D01*
X166075232Y-85493954D01*
X166135300Y-85295934D01*
X166155583Y-85090000D01*
X166135300Y-84884066D01*
X166075232Y-84686046D01*
X166040016Y-84620163D01*
X165977687Y-84503554D01*
X165977684Y-84503549D01*
X165966561Y-84489995D01*
X165846410Y-84343590D01*
X165686450Y-84212315D01*
X165686445Y-84212312D01*
X165503959Y-84114770D01*
X165503947Y-84114765D01*
X165305932Y-84054699D01*
X165100000Y-84034417D01*
X164894067Y-84054699D01*
X164696052Y-84114765D01*
X164696040Y-84114770D01*
X164513554Y-84212312D01*
X164513549Y-84212315D01*
X164353590Y-84343590D01*
X164222315Y-84503549D01*
X164222312Y-84503554D01*
X164124770Y-84686040D01*
X164124765Y-84686052D01*
X164064699Y-84884067D01*
X164044417Y-85090000D01*
X163615583Y-85090000D01*
X163595300Y-84884066D01*
X163535232Y-84686046D01*
X163500016Y-84620163D01*
X163437687Y-84503554D01*
X163437684Y-84503549D01*
X163426561Y-84489995D01*
X163306410Y-84343590D01*
X163146450Y-84212315D01*
X163146445Y-84212312D01*
X162963959Y-84114770D01*
X162963947Y-84114765D01*
X162765932Y-84054699D01*
X162560000Y-84034417D01*
X162354067Y-84054699D01*
X162156052Y-84114765D01*
X162156040Y-84114770D01*
X161973554Y-84212312D01*
X161973549Y-84212315D01*
X161813590Y-84343590D01*
X161682315Y-84503549D01*
X161682312Y-84503554D01*
X161584770Y-84686040D01*
X161584765Y-84686052D01*
X161524699Y-84884067D01*
X161504417Y-85090000D01*
X161075583Y-85090000D01*
X161055300Y-84884066D01*
X160995232Y-84686046D01*
X160960016Y-84620163D01*
X160897687Y-84503554D01*
X160897684Y-84503549D01*
X160886561Y-84489995D01*
X160766410Y-84343590D01*
X160606450Y-84212315D01*
X160606445Y-84212312D01*
X160423959Y-84114770D01*
X160423947Y-84114765D01*
X160225932Y-84054699D01*
X160020000Y-84034417D01*
X159814067Y-84054699D01*
X159616052Y-84114765D01*
X159616040Y-84114770D01*
X159433554Y-84212312D01*
X159433549Y-84212315D01*
X159273590Y-84343590D01*
X159142315Y-84503549D01*
X159142312Y-84503554D01*
X159044770Y-84686040D01*
X159044765Y-84686052D01*
X158984699Y-84884067D01*
X158964417Y-85090000D01*
X158535583Y-85090000D01*
X158515300Y-84884066D01*
X158455232Y-84686046D01*
X158420016Y-84620163D01*
X158357687Y-84503554D01*
X158357684Y-84503549D01*
X158346561Y-84489995D01*
X158226410Y-84343590D01*
X158066450Y-84212315D01*
X158066445Y-84212312D01*
X157883959Y-84114770D01*
X157883947Y-84114765D01*
X157685932Y-84054699D01*
X157480000Y-84034417D01*
X157274067Y-84054699D01*
X157076052Y-84114765D01*
X157076040Y-84114770D01*
X156893554Y-84212312D01*
X156893549Y-84212315D01*
X156733590Y-84343590D01*
X156602315Y-84503549D01*
X156602312Y-84503554D01*
X156504770Y-84686040D01*
X156504765Y-84686052D01*
X156444699Y-84884067D01*
X156424417Y-85090000D01*
X155995583Y-85090000D01*
X155975300Y-84884066D01*
X155915232Y-84686046D01*
X155880016Y-84620163D01*
X155817687Y-84503554D01*
X155817684Y-84503549D01*
X155806561Y-84489995D01*
X155686410Y-84343590D01*
X155526450Y-84212315D01*
X155526445Y-84212312D01*
X155343959Y-84114770D01*
X155343947Y-84114765D01*
X155145932Y-84054699D01*
X154940000Y-84034417D01*
X154734067Y-84054699D01*
X154536052Y-84114765D01*
X154536040Y-84114770D01*
X154353554Y-84212312D01*
X154353549Y-84212315D01*
X154193590Y-84343590D01*
X154062315Y-84503549D01*
X154062312Y-84503554D01*
X153964770Y-84686040D01*
X153964765Y-84686052D01*
X153904699Y-84884067D01*
X153884417Y-85090000D01*
X153455583Y-85090000D01*
X153435300Y-84884066D01*
X153375232Y-84686046D01*
X153340016Y-84620163D01*
X153277687Y-84503554D01*
X153277684Y-84503549D01*
X153266561Y-84489995D01*
X153146410Y-84343590D01*
X152986450Y-84212315D01*
X152986445Y-84212312D01*
X152803959Y-84114770D01*
X152803947Y-84114765D01*
X152605932Y-84054699D01*
X152400000Y-84034417D01*
X152194067Y-84054699D01*
X151996052Y-84114765D01*
X151996040Y-84114770D01*
X151813554Y-84212312D01*
X151813549Y-84212315D01*
X151653590Y-84343590D01*
X151522315Y-84503549D01*
X151522312Y-84503554D01*
X151424770Y-84686040D01*
X151424765Y-84686052D01*
X151364699Y-84884067D01*
X151344417Y-85090000D01*
X150915583Y-85090000D01*
X150895300Y-84884066D01*
X150835232Y-84686046D01*
X150800016Y-84620163D01*
X150737687Y-84503554D01*
X150737684Y-84503549D01*
X150726561Y-84489995D01*
X150606410Y-84343590D01*
X150446450Y-84212315D01*
X150446445Y-84212312D01*
X150263959Y-84114770D01*
X150263947Y-84114765D01*
X150065932Y-84054699D01*
X149860000Y-84034417D01*
X149654067Y-84054699D01*
X149456052Y-84114765D01*
X149456040Y-84114770D01*
X149273554Y-84212312D01*
X149273549Y-84212315D01*
X149113590Y-84343590D01*
X148982315Y-84503549D01*
X148982312Y-84503554D01*
X148884770Y-84686040D01*
X148884765Y-84686052D01*
X148824699Y-84884067D01*
X148804417Y-85090000D01*
X148375583Y-85090000D01*
X148355300Y-84884066D01*
X148295232Y-84686046D01*
X148260016Y-84620163D01*
X148197687Y-84503554D01*
X148197684Y-84503549D01*
X148186561Y-84489995D01*
X148066410Y-84343590D01*
X147906450Y-84212315D01*
X147906445Y-84212312D01*
X147723959Y-84114770D01*
X147723947Y-84114765D01*
X147525932Y-84054699D01*
X147320000Y-84034417D01*
X147114067Y-84054699D01*
X146916052Y-84114765D01*
X146916040Y-84114770D01*
X146733554Y-84212312D01*
X146733549Y-84212315D01*
X146573590Y-84343590D01*
X146442315Y-84503549D01*
X146442312Y-84503554D01*
X146344770Y-84686040D01*
X146344765Y-84686052D01*
X146284699Y-84884067D01*
X146264417Y-85090000D01*
X145835583Y-85090000D01*
X145815300Y-84884066D01*
X145755232Y-84686046D01*
X145720016Y-84620163D01*
X145657687Y-84503554D01*
X145657684Y-84503549D01*
X145646561Y-84489995D01*
X145526410Y-84343590D01*
X145366450Y-84212315D01*
X145366445Y-84212312D01*
X145183959Y-84114770D01*
X145183947Y-84114765D01*
X144985932Y-84054699D01*
X144780000Y-84034417D01*
X144574067Y-84054699D01*
X144376052Y-84114765D01*
X144376040Y-84114770D01*
X144193554Y-84212312D01*
X144193549Y-84212315D01*
X144053406Y-84327327D01*
X144004879Y-84344392D01*
X143956737Y-84326272D01*
X143931504Y-84281445D01*
X143930500Y-84269196D01*
X143930500Y-83485842D01*
X143948093Y-83437504D01*
X143952526Y-83432668D01*
X144999768Y-82385426D01*
X145046388Y-82363686D01*
X145052942Y-82363400D01*
X166187057Y-82363400D01*
X166235395Y-82380993D01*
X166240231Y-82385426D01*
X167767838Y-83913033D01*
X167789578Y-83959653D01*
X167776264Y-84009340D01*
X167734127Y-84038845D01*
X167707293Y-84041044D01*
X167640000Y-84034417D01*
X167639999Y-84034417D01*
X167434067Y-84054699D01*
X167236052Y-84114765D01*
X167236040Y-84114770D01*
X167053554Y-84212312D01*
X167053549Y-84212315D01*
X166893590Y-84343590D01*
X166762315Y-84503549D01*
X166762312Y-84503554D01*
X166664770Y-84686040D01*
X166664765Y-84686052D01*
X166604699Y-84884067D01*
X166584417Y-85090000D01*
X166604699Y-85295932D01*
X166664765Y-85493947D01*
X166664770Y-85493959D01*
X166762312Y-85676445D01*
X166762315Y-85676450D01*
X166893590Y-85836410D01*
X167053550Y-85967685D01*
X167236046Y-86065232D01*
X167236050Y-86065233D01*
X167236052Y-86065234D01*
X167274362Y-86076855D01*
X167434066Y-86125300D01*
X167640000Y-86145583D01*
X167845934Y-86125300D01*
X168043954Y-86065232D01*
X168226450Y-85967685D01*
X168382294Y-85839788D01*
X168430820Y-85822722D01*
X168478963Y-85840842D01*
X168504196Y-85885668D01*
X168505200Y-85897918D01*
X168505200Y-86311444D01*
X168512350Y-86338129D01*
X168522118Y-86374588D01*
X168526650Y-86391501D01*
X168526652Y-86391505D01*
X168526653Y-86391509D01*
X168526654Y-86391510D01*
X168568096Y-86463292D01*
X169209248Y-87104443D01*
X169230988Y-87151063D01*
X169222396Y-87193064D01*
X169204766Y-87226048D01*
X169144699Y-87424067D01*
X169124417Y-87630000D01*
X169144699Y-87835932D01*
X169204765Y-88033947D01*
X169204770Y-88033959D01*
X169293489Y-88199938D01*
X169302315Y-88216450D01*
X169433590Y-88376410D01*
X169593550Y-88507685D01*
X169593554Y-88507687D01*
X169767660Y-88600750D01*
X169776046Y-88605232D01*
X169776050Y-88605233D01*
X169776052Y-88605234D01*
X169817794Y-88617896D01*
X169974066Y-88665300D01*
X170180000Y-88685583D01*
X170385934Y-88665300D01*
X170583954Y-88605232D01*
X170766450Y-88507685D01*
X170926410Y-88376410D01*
X171057685Y-88216450D01*
X171155232Y-88033954D01*
X171215300Y-87835934D01*
X171235583Y-87630000D01*
X171664417Y-87630000D01*
X171684699Y-87835932D01*
X171744765Y-88033947D01*
X171744770Y-88033959D01*
X171833489Y-88199938D01*
X171842315Y-88216450D01*
X171973590Y-88376410D01*
X172133550Y-88507685D01*
X172133554Y-88507687D01*
X172307660Y-88600750D01*
X172316046Y-88605232D01*
X172316050Y-88605233D01*
X172316052Y-88605234D01*
X172357794Y-88617896D01*
X172514066Y-88665300D01*
X172720000Y-88685583D01*
X172925934Y-88665300D01*
X173123954Y-88605232D01*
X173306450Y-88507685D01*
X173466410Y-88376410D01*
X173597685Y-88216450D01*
X173695232Y-88033954D01*
X173755300Y-87835934D01*
X173775583Y-87630000D01*
X174204417Y-87630000D01*
X174224699Y-87835932D01*
X174284765Y-88033947D01*
X174284770Y-88033959D01*
X174373489Y-88199938D01*
X174382315Y-88216450D01*
X174513590Y-88376410D01*
X174673550Y-88507685D01*
X174673554Y-88507687D01*
X174847660Y-88600750D01*
X174856046Y-88605232D01*
X174856050Y-88605233D01*
X174856052Y-88605234D01*
X174897794Y-88617896D01*
X175054066Y-88665300D01*
X175260000Y-88685583D01*
X175465934Y-88665300D01*
X175663954Y-88605232D01*
X175846450Y-88507685D01*
X176006410Y-88376410D01*
X176137685Y-88216450D01*
X176235232Y-88033954D01*
X176295300Y-87835934D01*
X176315583Y-87630000D01*
X176295300Y-87424066D01*
X176257598Y-87299778D01*
X176235234Y-87226052D01*
X176235233Y-87226050D01*
X176235232Y-87226046D01*
X176200016Y-87160163D01*
X176137687Y-87043554D01*
X176137684Y-87043549D01*
X176006410Y-86883590D01*
X175846450Y-86752315D01*
X175846445Y-86752312D01*
X175663959Y-86654770D01*
X175663947Y-86654765D01*
X175465932Y-86594699D01*
X175260000Y-86574417D01*
X175054067Y-86594699D01*
X174856052Y-86654765D01*
X174856040Y-86654770D01*
X174673554Y-86752312D01*
X174673549Y-86752315D01*
X174513590Y-86883590D01*
X174382315Y-87043549D01*
X174382312Y-87043554D01*
X174284770Y-87226040D01*
X174284765Y-87226052D01*
X174224699Y-87424067D01*
X174204417Y-87630000D01*
X173775583Y-87630000D01*
X173755300Y-87424066D01*
X173717598Y-87299778D01*
X173695234Y-87226052D01*
X173695233Y-87226050D01*
X173695232Y-87226046D01*
X173660016Y-87160163D01*
X173597687Y-87043554D01*
X173597684Y-87043549D01*
X173466410Y-86883590D01*
X173306450Y-86752315D01*
X173306445Y-86752312D01*
X173123959Y-86654770D01*
X173123947Y-86654765D01*
X172925932Y-86594699D01*
X172720000Y-86574417D01*
X172514067Y-86594699D01*
X172316052Y-86654765D01*
X172316040Y-86654770D01*
X172133554Y-86752312D01*
X172133549Y-86752315D01*
X171973590Y-86883590D01*
X171842315Y-87043549D01*
X171842312Y-87043554D01*
X171744770Y-87226040D01*
X171744765Y-87226052D01*
X171684699Y-87424067D01*
X171664417Y-87630000D01*
X171235583Y-87630000D01*
X171215300Y-87424066D01*
X171177598Y-87299778D01*
X171155234Y-87226052D01*
X171155233Y-87226050D01*
X171155232Y-87226046D01*
X171120016Y-87160163D01*
X171057687Y-87043554D01*
X171057684Y-87043549D01*
X170926410Y-86883590D01*
X170766450Y-86752315D01*
X170766445Y-86752312D01*
X170583959Y-86654770D01*
X170583947Y-86654765D01*
X170385932Y-86594699D01*
X170180000Y-86574417D01*
X169974067Y-86594699D01*
X169776048Y-86654766D01*
X169743064Y-86672396D01*
X169692140Y-86679664D01*
X169654443Y-86659248D01*
X169156826Y-86161631D01*
X169135086Y-86115011D01*
X169134800Y-86108457D01*
X169134800Y-85663267D01*
X169152393Y-85614929D01*
X169196942Y-85589209D01*
X169247600Y-85598142D01*
X169276320Y-85627818D01*
X169302312Y-85676445D01*
X169302315Y-85676450D01*
X169433590Y-85836410D01*
X169593550Y-85967685D01*
X169776046Y-86065232D01*
X169776050Y-86065233D01*
X169776052Y-86065234D01*
X169814362Y-86076855D01*
X169974066Y-86125300D01*
X170180000Y-86145583D01*
X170385934Y-86125300D01*
X170583954Y-86065232D01*
X170766450Y-85967685D01*
X170926410Y-85836410D01*
X171057685Y-85676450D01*
X171155232Y-85493954D01*
X171215300Y-85295934D01*
X171235583Y-85090000D01*
X171664417Y-85090000D01*
X171684699Y-85295932D01*
X171744765Y-85493947D01*
X171744770Y-85493959D01*
X171842312Y-85676445D01*
X171842315Y-85676450D01*
X171973590Y-85836410D01*
X172133550Y-85967685D01*
X172316046Y-86065232D01*
X172316050Y-86065233D01*
X172316052Y-86065234D01*
X172354362Y-86076855D01*
X172514066Y-86125300D01*
X172720000Y-86145583D01*
X172925934Y-86125300D01*
X173123954Y-86065232D01*
X173306450Y-85967685D01*
X173466410Y-85836410D01*
X173597685Y-85676450D01*
X173695232Y-85493954D01*
X173755300Y-85295934D01*
X173775583Y-85090000D01*
X174204417Y-85090000D01*
X174224699Y-85295932D01*
X174284765Y-85493947D01*
X174284770Y-85493959D01*
X174382312Y-85676445D01*
X174382315Y-85676450D01*
X174513590Y-85836410D01*
X174673550Y-85967685D01*
X174856046Y-86065232D01*
X174856050Y-86065233D01*
X174856052Y-86065234D01*
X174894362Y-86076855D01*
X175054066Y-86125300D01*
X175260000Y-86145583D01*
X175465934Y-86125300D01*
X175663954Y-86065232D01*
X175846450Y-85967685D01*
X176006410Y-85836410D01*
X176137685Y-85676450D01*
X176235232Y-85493954D01*
X176295300Y-85295934D01*
X176315583Y-85090000D01*
X176295300Y-84884066D01*
X176235232Y-84686046D01*
X176200016Y-84620163D01*
X176137687Y-84503554D01*
X176137684Y-84503549D01*
X176126561Y-84489995D01*
X176006410Y-84343590D01*
X175846450Y-84212315D01*
X175846445Y-84212312D01*
X175663959Y-84114770D01*
X175663947Y-84114765D01*
X175465932Y-84054699D01*
X175260000Y-84034417D01*
X175054067Y-84054699D01*
X174856052Y-84114765D01*
X174856040Y-84114770D01*
X174673554Y-84212312D01*
X174673549Y-84212315D01*
X174513590Y-84343590D01*
X174382315Y-84503549D01*
X174382312Y-84503554D01*
X174284770Y-84686040D01*
X174284765Y-84686052D01*
X174224699Y-84884067D01*
X174204417Y-85090000D01*
X173775583Y-85090000D01*
X173755300Y-84884066D01*
X173695232Y-84686046D01*
X173660016Y-84620163D01*
X173597687Y-84503554D01*
X173597684Y-84503549D01*
X173586561Y-84489995D01*
X173466410Y-84343590D01*
X173306450Y-84212315D01*
X173306445Y-84212312D01*
X173123959Y-84114770D01*
X173123947Y-84114765D01*
X172925932Y-84054699D01*
X172720000Y-84034417D01*
X172514067Y-84054699D01*
X172316052Y-84114765D01*
X172316040Y-84114770D01*
X172133554Y-84212312D01*
X172133549Y-84212315D01*
X171973590Y-84343590D01*
X171842315Y-84503549D01*
X171842312Y-84503554D01*
X171744770Y-84686040D01*
X171744765Y-84686052D01*
X171684699Y-84884067D01*
X171664417Y-85090000D01*
X171235583Y-85090000D01*
X171215300Y-84884066D01*
X171155232Y-84686046D01*
X171120016Y-84620163D01*
X171057687Y-84503554D01*
X171057684Y-84503549D01*
X171046561Y-84489995D01*
X170926410Y-84343590D01*
X170766450Y-84212315D01*
X170766445Y-84212312D01*
X170583959Y-84114770D01*
X170583947Y-84114765D01*
X170385932Y-84054699D01*
X170180000Y-84034417D01*
X169974067Y-84054699D01*
X169776048Y-84114766D01*
X169743064Y-84132396D01*
X169692140Y-84139664D01*
X169654443Y-84119248D01*
X169233907Y-83698712D01*
X188649500Y-83698712D01*
X188649500Y-83941288D01*
X188681162Y-84181789D01*
X188743946Y-84416100D01*
X188743947Y-84416104D01*
X188743948Y-84416105D01*
X188836776Y-84640213D01*
X188958065Y-84850291D01*
X189105730Y-85042732D01*
X189105742Y-85042746D01*
X189277253Y-85214257D01*
X189277267Y-85214269D01*
X189383692Y-85295932D01*
X189469711Y-85361936D01*
X189679788Y-85483224D01*
X189903900Y-85576054D01*
X190138211Y-85638838D01*
X190378712Y-85670500D01*
X190378715Y-85670500D01*
X190621285Y-85670500D01*
X190621288Y-85670500D01*
X190861789Y-85638838D01*
X191096100Y-85576054D01*
X191320212Y-85483224D01*
X191530289Y-85361936D01*
X191722738Y-85214265D01*
X191894265Y-85042738D01*
X192041936Y-84850289D01*
X192163224Y-84640212D01*
X192256054Y-84416100D01*
X192318838Y-84181789D01*
X192350500Y-83941288D01*
X192350500Y-83698712D01*
X192318838Y-83458211D01*
X192256054Y-83223900D01*
X192163224Y-82999788D01*
X192041936Y-82789711D01*
X191894265Y-82597262D01*
X191894263Y-82597260D01*
X191894257Y-82597253D01*
X191722746Y-82425742D01*
X191722732Y-82425730D01*
X191530291Y-82278065D01*
X191320213Y-82156776D01*
X191096105Y-82063948D01*
X191096104Y-82063947D01*
X191096100Y-82063946D01*
X190861789Y-82001162D01*
X190621288Y-81969500D01*
X190378712Y-81969500D01*
X190138211Y-82001162D01*
X189903900Y-82063946D01*
X189903897Y-82063947D01*
X189903894Y-82063948D01*
X189679786Y-82156776D01*
X189469708Y-82278065D01*
X189277267Y-82425730D01*
X189277253Y-82425742D01*
X189105742Y-82597253D01*
X189105730Y-82597267D01*
X188958065Y-82789708D01*
X188836776Y-82999786D01*
X188743948Y-83223894D01*
X188743946Y-83223900D01*
X188681162Y-83458211D01*
X188649500Y-83698712D01*
X169233907Y-83698712D01*
X166903292Y-81368096D01*
X166852835Y-81338965D01*
X166831509Y-81326653D01*
X166831505Y-81326652D01*
X166831501Y-81326650D01*
X166814590Y-81322118D01*
X166814590Y-81322119D01*
X166778801Y-81312530D01*
X166751444Y-81305200D01*
X166751443Y-81305200D01*
X142933783Y-81305200D01*
X142896183Y-81295125D01*
X142881509Y-81286653D01*
X142881507Y-81286652D01*
X142881506Y-81286652D01*
X142860047Y-81280902D01*
X142801444Y-81265201D01*
X142718556Y-81265201D01*
X142675654Y-81276695D01*
X142638493Y-81286652D01*
X142638484Y-81286656D01*
X142569210Y-81326651D01*
X142569209Y-81326653D01*
X142568681Y-81326957D01*
X142566707Y-81328097D01*
X140823796Y-83071007D01*
X140782353Y-83142791D01*
X140782352Y-83142791D01*
X140782353Y-83142792D01*
X140760900Y-83222856D01*
X140760900Y-83222858D01*
X140760900Y-84546105D01*
X140743307Y-84594443D01*
X140698758Y-84620163D01*
X140648100Y-84611230D01*
X140619380Y-84581554D01*
X140577687Y-84503554D01*
X140577684Y-84503549D01*
X140566561Y-84489995D01*
X140446410Y-84343590D01*
X140286450Y-84212315D01*
X140286445Y-84212312D01*
X140103959Y-84114770D01*
X140103947Y-84114765D01*
X139905932Y-84054699D01*
X139700000Y-84034417D01*
X139494067Y-84054699D01*
X139296052Y-84114765D01*
X139296040Y-84114770D01*
X139113554Y-84212312D01*
X139113549Y-84212315D01*
X138953590Y-84343590D01*
X138822315Y-84503549D01*
X138822312Y-84503554D01*
X138724770Y-84686040D01*
X138724765Y-84686052D01*
X138664699Y-84884067D01*
X138644417Y-85090000D01*
X138215583Y-85090000D01*
X138195300Y-84884066D01*
X138135232Y-84686046D01*
X138100016Y-84620163D01*
X138037687Y-84503554D01*
X138037684Y-84503549D01*
X138026561Y-84489995D01*
X137906410Y-84343590D01*
X137746450Y-84212315D01*
X137746445Y-84212312D01*
X137563959Y-84114770D01*
X137563947Y-84114765D01*
X137365932Y-84054699D01*
X137160000Y-84034417D01*
X136954067Y-84054699D01*
X136756052Y-84114765D01*
X136756040Y-84114770D01*
X136573554Y-84212312D01*
X136573549Y-84212315D01*
X136413590Y-84343590D01*
X136282315Y-84503549D01*
X136282312Y-84503554D01*
X136184770Y-84686040D01*
X136184765Y-84686052D01*
X136124699Y-84884067D01*
X136104417Y-85090000D01*
X135675583Y-85090000D01*
X135655300Y-84884066D01*
X135595232Y-84686046D01*
X135560016Y-84620163D01*
X135497687Y-84503554D01*
X135497684Y-84503549D01*
X135486561Y-84489995D01*
X135366410Y-84343590D01*
X135206450Y-84212315D01*
X135206445Y-84212312D01*
X135023959Y-84114770D01*
X135023947Y-84114765D01*
X134825932Y-84054699D01*
X134620000Y-84034417D01*
X134414067Y-84054699D01*
X134216052Y-84114765D01*
X134216040Y-84114770D01*
X134033554Y-84212312D01*
X134033549Y-84212315D01*
X133873590Y-84343590D01*
X133742315Y-84503549D01*
X133742312Y-84503554D01*
X133644770Y-84686040D01*
X133644765Y-84686052D01*
X133584699Y-84884067D01*
X133564417Y-85090000D01*
X133135583Y-85090000D01*
X133115300Y-84884066D01*
X133055232Y-84686046D01*
X133020016Y-84620163D01*
X132957687Y-84503554D01*
X132957684Y-84503549D01*
X132946561Y-84489995D01*
X132826410Y-84343590D01*
X132666450Y-84212315D01*
X132666445Y-84212312D01*
X132483959Y-84114770D01*
X132483947Y-84114765D01*
X132285932Y-84054699D01*
X132080000Y-84034417D01*
X131874067Y-84054699D01*
X131676052Y-84114765D01*
X131676040Y-84114770D01*
X131493554Y-84212312D01*
X131493549Y-84212315D01*
X131333590Y-84343590D01*
X131202315Y-84503549D01*
X131202312Y-84503554D01*
X131104770Y-84686040D01*
X131104765Y-84686052D01*
X131044699Y-84884067D01*
X131024417Y-85090000D01*
X123267003Y-85090000D01*
X123314265Y-85042738D01*
X123461936Y-84850289D01*
X123583224Y-84640212D01*
X123676054Y-84416100D01*
X123738838Y-84181789D01*
X123770500Y-83941288D01*
X123770500Y-83698712D01*
X123738838Y-83458211D01*
X123676054Y-83223900D01*
X123583224Y-82999788D01*
X123461936Y-82789711D01*
X123314265Y-82597262D01*
X123314263Y-82597260D01*
X123314257Y-82597253D01*
X123142746Y-82425742D01*
X123142732Y-82425730D01*
X122950291Y-82278065D01*
X122740213Y-82156776D01*
X122516105Y-82063948D01*
X122516104Y-82063947D01*
X122516100Y-82063946D01*
X122281789Y-82001162D01*
X122041288Y-81969500D01*
X121798712Y-81969500D01*
X121558211Y-82001162D01*
X121323900Y-82063946D01*
X121323897Y-82063947D01*
X121323894Y-82063948D01*
X121099786Y-82156776D01*
X120889708Y-82278065D01*
X120697267Y-82425730D01*
X120697253Y-82425742D01*
X120525742Y-82597253D01*
X120525730Y-82597267D01*
X120378065Y-82789708D01*
X120256776Y-82999786D01*
X120163948Y-83223894D01*
X120163946Y-83223900D01*
X120101162Y-83458211D01*
X120069500Y-83698712D01*
X118610500Y-83698712D01*
X118610500Y-82552461D01*
X118610661Y-82547543D01*
X118618644Y-82425742D01*
X118627626Y-82288700D01*
X118628907Y-82278968D01*
X118679035Y-82026958D01*
X118681574Y-82017482D01*
X118764167Y-81774171D01*
X118767919Y-81765113D01*
X118881567Y-81534657D01*
X118886468Y-81526168D01*
X119029231Y-81312508D01*
X119035195Y-81304737D01*
X119204612Y-81111554D01*
X119211554Y-81104612D01*
X119404737Y-80935195D01*
X119412508Y-80929231D01*
X119626168Y-80786468D01*
X119634657Y-80781567D01*
X119865113Y-80667919D01*
X119874171Y-80664167D01*
X120117482Y-80581574D01*
X120126958Y-80579035D01*
X120378968Y-80528907D01*
X120388700Y-80527626D01*
X120647544Y-80510661D01*
X120652462Y-80510500D01*
X120715892Y-80510500D01*
X191704108Y-80510500D01*
X191767538Y-80510500D01*
X191772456Y-80510661D01*
G37*
G04 #@! TD.AperFunction*
G04 #@! TD*
M02*
