G04 #@! TF.GenerationSoftware,KiCad,Pcbnew,8.0.2+dfsg-1*
G04 #@! TF.CreationDate,2024-06-11T15:29:42+08:00*
G04 #@! TF.ProjectId,sec01,73656330-312e-46b6-9963-61645f706362,a*
G04 #@! TF.SameCoordinates,Original*
G04 #@! TF.FileFunction,Copper,L2,Bot*
G04 #@! TF.FilePolarity,Positive*
%FSLAX46Y46*%
G04 Gerber Fmt 4.6, Leading zero omitted, Abs format (unit mm)*
G04 Created by KiCad (PCBNEW 8.0.2+dfsg-1) date 2024-06-11 15:29:42*
%MOMM*%
%LPD*%
G01*
G04 APERTURE LIST*
G04 Aperture macros list*
%AMFreePoly0*
4,1,19,0.500000,-0.750000,0.000000,-0.750000,0.000000,-0.744911,-0.071157,-0.744911,-0.207708,-0.704816,-0.327430,-0.627875,-0.420627,-0.520320,-0.479746,-0.390866,-0.500000,-0.250000,-0.500000,0.250000,-0.479746,0.390866,-0.420627,0.520320,-0.327430,0.627875,-0.207708,0.704816,-0.071157,0.744911,0.000000,0.744911,0.000000,0.750000,0.500000,0.750000,0.500000,-0.750000,0.500000,-0.750000,
$1*%
%AMFreePoly1*
4,1,19,0.000000,0.744911,0.071157,0.744911,0.207708,0.704816,0.327430,0.627875,0.420627,0.520320,0.479746,0.390866,0.500000,0.250000,0.500000,-0.250000,0.479746,-0.390866,0.420627,-0.520320,0.327430,-0.627875,0.207708,-0.704816,0.071157,-0.744911,0.000000,-0.744911,0.000000,-0.750000,-0.500000,-0.750000,-0.500000,0.750000,0.000000,0.750000,0.000000,0.744911,0.000000,0.744911,
$1*%
G04 Aperture macros list end*
G04 #@! TA.AperFunction,ComponentPad*
%ADD10R,1.700000X1.700000*%
G04 #@! TD*
G04 #@! TA.AperFunction,ComponentPad*
%ADD11O,1.700000X1.700000*%
G04 #@! TD*
G04 #@! TA.AperFunction,SMDPad,CuDef*
%ADD12FreePoly0,90.000000*%
G04 #@! TD*
G04 #@! TA.AperFunction,SMDPad,CuDef*
%ADD13FreePoly1,90.000000*%
G04 #@! TD*
G04 #@! TA.AperFunction,SMDPad,CuDef*
%ADD14FreePoly0,270.000000*%
G04 #@! TD*
G04 #@! TA.AperFunction,SMDPad,CuDef*
%ADD15FreePoly1,270.000000*%
G04 #@! TD*
G04 #@! TA.AperFunction,ViaPad*
%ADD16C,0.600000*%
G04 #@! TD*
G04 #@! TA.AperFunction,Conductor*
%ADD17C,0.228600*%
G04 #@! TD*
G04 APERTURE END LIST*
D10*
G04 #@! TO.P,J3,1,GND*
G04 #@! TO.N,GND*
X180340000Y-87630000D03*
D11*
G04 #@! TO.P,J3,2,5V*
G04 #@! TO.N,unconnected-(J3-5V-Pad2)*
X180340000Y-85090000D03*
G04 #@! TO.P,J3,3,GND*
G04 #@! TO.N,GND*
X177800000Y-87630000D03*
G04 #@! TO.P,J3,4,3.3V*
G04 #@! TO.N,+3V3*
X177800000Y-85090000D03*
G04 #@! TO.P,J3,5,U16*
G04 #@! TO.N,unconnected-(J3-U16-Pad5)*
X175260000Y-87630000D03*
G04 #@! TO.P,J3,6,U15*
G04 #@! TO.N,unconnected-(J3-U15-Pad6)*
X175260000Y-85090000D03*
G04 #@! TO.P,J3,7,U14*
G04 #@! TO.N,unconnected-(J3-U14-Pad7)*
X172720000Y-87630000D03*
G04 #@! TO.P,J3,8,U13*
G04 #@! TO.N,unconnected-(J3-U13-Pad8)*
X172720000Y-85090000D03*
G04 #@! TO.P,J3,9,PA9*
G04 #@! TO.N,I2C3_SDA*
X170180000Y-87630000D03*
G04 #@! TO.P,J3,10,PA8*
G04 #@! TO.N,I2C3_SCL*
X170180000Y-85090000D03*
G04 #@! TO.P,J3,11,PA11*
G04 #@! TO.N,unconnected-(J3-PA11-Pad11)*
X167640000Y-87630000D03*
G04 #@! TO.P,J3,12,PA10*
G04 #@! TO.N,unconnected-(J3-PA10-Pad12)*
X167640000Y-85090000D03*
G04 #@! TO.P,J3,13,PA13*
G04 #@! TO.N,unconnected-(J3-PA13-Pad13)*
X165100000Y-87630000D03*
G04 #@! TO.P,J3,14,PA12*
G04 #@! TO.N,unconnected-(J3-PA12-Pad14)*
X165100000Y-85090000D03*
G04 #@! TO.P,J3,15,PA15*
G04 #@! TO.N,unconnected-(J3-PA15-Pad15)*
X162560000Y-87630000D03*
G04 #@! TO.P,J3,16,PA14*
G04 #@! TO.N,unconnected-(J3-PA14-Pad16)*
X162560000Y-85090000D03*
G04 #@! TO.P,J3,17,U12*
G04 #@! TO.N,unconnected-(J3-U12-Pad17)*
X160020000Y-87630000D03*
G04 #@! TO.P,J3,18,U11*
G04 #@! TO.N,unconnected-(J3-U11-Pad18)*
X160020000Y-85090000D03*
G04 #@! TO.P,J3,19,PC11*
G04 #@! TO.N,unconnected-(J3-PC11-Pad19)*
X157480000Y-87630000D03*
G04 #@! TO.P,J3,20,PC10*
G04 #@! TO.N,unconnected-(J3-PC10-Pad20)*
X157480000Y-85090000D03*
G04 #@! TO.P,J3,21,U8*
G04 #@! TO.N,unconnected-(J3-U8-Pad21)*
X154940000Y-87630000D03*
G04 #@! TO.P,J3,22,PC12*
G04 #@! TO.N,unconnected-(J3-PC12-Pad22)*
X154940000Y-85090000D03*
G04 #@! TO.P,J3,23,23*
G04 #@! TO.N,unconnected-(J3-Pad23)*
X152400000Y-87630000D03*
G04 #@! TO.P,J3,24,PD2*
G04 #@! TO.N,unconnected-(J3-PD2-Pad24)*
X152400000Y-85090000D03*
G04 #@! TO.P,J3,25,PB5*
G04 #@! TO.N,unconnected-(J3-PB5-Pad25)*
X149860000Y-87630000D03*
G04 #@! TO.P,J3,26,PB4*
G04 #@! TO.N,unconnected-(J3-PB4-Pad26)*
X149860000Y-85090000D03*
G04 #@! TO.P,J3,27,PB7*
G04 #@! TO.N,I2C1_SDA*
X147320000Y-87630000D03*
G04 #@! TO.P,J3,28,PB6*
G04 #@! TO.N,I2C1_SCL*
X147320000Y-85090000D03*
G04 #@! TO.P,J3,29,PB9*
G04 #@! TO.N,I2C1_A_SDA*
X144780000Y-87630000D03*
G04 #@! TO.P,J3,30,PB8*
G04 #@! TO.N,I2C1_A_SCL*
X144780000Y-85090000D03*
G04 #@! TO.P,J3,31,U10*
G04 #@! TO.N,unconnected-(J3-U10-Pad31)*
X142240000Y-87630000D03*
G04 #@! TO.P,J3,32,U9*
G04 #@! TO.N,unconnected-(J3-U9-Pad32)*
X142240000Y-85090000D03*
G04 #@! TO.P,J3,33,PC13*
G04 #@! TO.N,unconnected-(J3-PC13-Pad33)*
X139700000Y-87630000D03*
G04 #@! TO.P,J3,34,PC14*
G04 #@! TO.N,unconnected-(J3-PC14-Pad34)*
X139700000Y-85090000D03*
G04 #@! TO.P,J3,35,PC15*
G04 #@! TO.N,unconnected-(J3-PC15-Pad35)*
X137160000Y-87630000D03*
G04 #@! TO.P,J3,36,U7*
G04 #@! TO.N,unconnected-(J3-U7-Pad36)*
X137160000Y-85090000D03*
G04 #@! TO.P,J3,37,U6*
G04 #@! TO.N,unconnected-(J3-U6-Pad37)*
X134620000Y-87630000D03*
G04 #@! TO.P,J3,38,U5*
G04 #@! TO.N,unconnected-(J3-U5-Pad38)*
X134620000Y-85090000D03*
G04 #@! TO.P,J3,39,GND*
G04 #@! TO.N,unconnected-(J3-GND-Pad39)*
X132080000Y-87630000D03*
G04 #@! TO.P,J3,40,VB*
G04 #@! TO.N,unconnected-(J3-VB-Pad40)*
X132080000Y-85090000D03*
G04 #@! TD*
D10*
G04 #@! TO.P,J2,1,GND*
G04 #@! TO.N,GND*
X132080000Y-123190000D03*
D11*
G04 #@! TO.P,J2,2,VA*
G04 #@! TO.N,unconnected-(J2-VA-Pad2)*
X132080000Y-125730000D03*
G04 #@! TO.P,J2,3,NRST*
G04 #@! TO.N,unconnected-(J2-NRST-Pad3)*
X134620000Y-123190000D03*
G04 #@! TO.P,J2,4,BO0*
G04 #@! TO.N,unconnected-(J2-BO0-Pad4)*
X134620000Y-125730000D03*
G04 #@! TO.P,J2,5,PC1*
G04 #@! TO.N,unconnected-(J2-PC1-Pad5)*
X137160000Y-123190000D03*
G04 #@! TO.P,J2,6,PC0*
G04 #@! TO.N,unconnected-(J2-PC0-Pad6)*
X137160000Y-125730000D03*
G04 #@! TO.P,J2,7,PC3*
G04 #@! TO.N,unconnected-(J2-PC3-Pad7)*
X139700000Y-123190000D03*
G04 #@! TO.P,J2,8,PC2*
G04 #@! TO.N,unconnected-(J2-PC2-Pad8)*
X139700000Y-125730000D03*
G04 #@! TO.P,J2,9,PA1*
G04 #@! TO.N,unconnected-(J2-PA1-Pad9)*
X142240000Y-123190000D03*
G04 #@! TO.P,J2,10,PA0*
G04 #@! TO.N,unconnected-(J2-PA0-Pad10)*
X142240000Y-125730000D03*
G04 #@! TO.P,J2,11,PA3*
G04 #@! TO.N,unconnected-(J2-PA3-Pad11)*
X144780000Y-123190000D03*
G04 #@! TO.P,J2,12,PA2*
G04 #@! TO.N,unconnected-(J2-PA2-Pad12)*
X144780000Y-125730000D03*
G04 #@! TO.P,J2,13,PA5*
G04 #@! TO.N,unconnected-(J2-PA5-Pad13)*
X147320000Y-123190000D03*
G04 #@! TO.P,J2,14,PA4*
G04 #@! TO.N,unconnected-(J2-PA4-Pad14)*
X147320000Y-125730000D03*
G04 #@! TO.P,J2,15,PA7*
G04 #@! TO.N,unconnected-(J2-PA7-Pad15)*
X149860000Y-123190000D03*
G04 #@! TO.P,J2,16,PA6*
G04 #@! TO.N,unconnected-(J2-PA6-Pad16)*
X149860000Y-125730000D03*
G04 #@! TO.P,J2,17,PC5*
G04 #@! TO.N,unconnected-(J2-PC5-Pad17)*
X152400000Y-123190000D03*
G04 #@! TO.P,J2,18,PC4*
G04 #@! TO.N,unconnected-(J2-PC4-Pad18)*
X152400000Y-125730000D03*
G04 #@! TO.P,J2,19,PB1*
G04 #@! TO.N,unconnected-(J2-PB1-Pad19)*
X154940000Y-123190000D03*
G04 #@! TO.P,J2,20,PB0*
G04 #@! TO.N,unconnected-(J2-PB0-Pad20)*
X154940000Y-125730000D03*
G04 #@! TO.P,J2,21,U0*
G04 #@! TO.N,unconnected-(J2-U0-Pad21)*
X157480000Y-123190000D03*
G04 #@! TO.P,J2,22,PB2*
G04 #@! TO.N,unconnected-(J2-PB2-Pad22)*
X157480000Y-125730000D03*
G04 #@! TO.P,J2,23,PB11*
G04 #@! TO.N,I2C2_SDA*
X160020000Y-123190000D03*
G04 #@! TO.P,J2,24,PB10*
G04 #@! TO.N,I2C2_SCL*
X160020000Y-125730000D03*
G04 #@! TO.P,J2,25,PB13*
G04 #@! TO.N,unconnected-(J2-PB13-Pad25)*
X162560000Y-123190000D03*
G04 #@! TO.P,J2,26,PB12*
G04 #@! TO.N,unconnected-(J2-PB12-Pad26)*
X162560000Y-125730000D03*
G04 #@! TO.P,J2,27,PB15*
G04 #@! TO.N,unconnected-(J2-PB15-Pad27)*
X165100000Y-123190000D03*
G04 #@! TO.P,J2,28,PB14*
G04 #@! TO.N,unconnected-(J2-PB14-Pad28)*
X165100000Y-125730000D03*
G04 #@! TO.P,J2,29,PC7*
G04 #@! TO.N,unconnected-(J2-PC7-Pad29)*
X167640000Y-123190000D03*
G04 #@! TO.P,J2,30,PC6*
G04 #@! TO.N,unconnected-(J2-PC6-Pad30)*
X167640000Y-125730000D03*
G04 #@! TO.P,J2,31,PC9*
G04 #@! TO.N,unconnected-(J2-PC9-Pad31)*
X170180000Y-123190000D03*
G04 #@! TO.P,J2,32,PC8*
G04 #@! TO.N,unconnected-(J2-PC8-Pad32)*
X170180000Y-125730000D03*
G04 #@! TO.P,J2,33,U2*
G04 #@! TO.N,unconnected-(J2-U2-Pad33)*
X172720000Y-123190000D03*
G04 #@! TO.P,J2,34,U1*
G04 #@! TO.N,unconnected-(J2-U1-Pad34)*
X172720000Y-125730000D03*
G04 #@! TO.P,J2,35,U4*
G04 #@! TO.N,unconnected-(J2-U4-Pad35)*
X175260000Y-123190000D03*
G04 #@! TO.P,J2,36,U3*
G04 #@! TO.N,unconnected-(J2-U3-Pad36)*
X175260000Y-125730000D03*
G04 #@! TO.P,J2,37,GND*
G04 #@! TO.N,GND*
X177800000Y-123190000D03*
G04 #@! TO.P,J2,38,3.3V*
G04 #@! TO.N,+3V3*
X177800000Y-125730000D03*
G04 #@! TO.P,J2,39,GND*
G04 #@! TO.N,GND*
X180340000Y-123190000D03*
G04 #@! TO.P,J2,40,5V*
G04 #@! TO.N,unconnected-(J2-5V-Pad40)*
X180340000Y-125730000D03*
G04 #@! TD*
D12*
G04 #@! TO.P,JP8,1,A*
G04 #@! TO.N,I2C3_SCL*
X153035000Y-102870000D03*
D13*
G04 #@! TO.P,JP8,2,B*
G04 #@! TO.N,A_SCL*
X153035000Y-101570000D03*
G04 #@! TD*
D12*
G04 #@! TO.P,JP16,1,A*
G04 #@! TO.N,I2C3_SCL*
X153035000Y-113030000D03*
D13*
G04 #@! TO.P,JP16,2,B*
G04 #@! TO.N,B_SCL*
X153035000Y-111730000D03*
G04 #@! TD*
D14*
G04 #@! TO.P,JP2,1,A*
G04 #@! TO.N,I2C1_A_SDA*
X158115000Y-97760000D03*
D15*
G04 #@! TO.P,JP2,2,B*
G04 #@! TO.N,A_SDA*
X158115000Y-99060000D03*
G04 #@! TD*
D12*
G04 #@! TO.P,JP14,1,A*
G04 #@! TO.N,I2C1_A_SCL*
X158115000Y-113030000D03*
D13*
G04 #@! TO.P,JP14,2,B*
G04 #@! TO.N,B_SCL*
X158115000Y-111730000D03*
G04 #@! TD*
D14*
G04 #@! TO.P,JP3,1,A*
G04 #@! TO.N,I2C2_SDA*
X155575000Y-97760000D03*
D15*
G04 #@! TO.P,JP3,2,B*
G04 #@! TO.N,A_SDA*
X155575000Y-99060000D03*
G04 #@! TD*
D12*
G04 #@! TO.P,JP15,1,A*
G04 #@! TO.N,I2C2_SCL*
X155575000Y-113030000D03*
D13*
G04 #@! TO.P,JP15,2,B*
G04 #@! TO.N,B_SCL*
X155575000Y-111730000D03*
G04 #@! TD*
D14*
G04 #@! TO.P,JP9,1,A*
G04 #@! TO.N,I2C1_SDA*
X160655000Y-107920000D03*
D15*
G04 #@! TO.P,JP9,2,B*
G04 #@! TO.N,B_SDA*
X160655000Y-109220000D03*
G04 #@! TD*
D14*
G04 #@! TO.P,JP12,1,A*
G04 #@! TO.N,I2C3_SDA*
X153035000Y-107920000D03*
D15*
G04 #@! TO.P,JP12,2,B*
G04 #@! TO.N,B_SDA*
X153035000Y-109220000D03*
G04 #@! TD*
D14*
G04 #@! TO.P,JP11,1,A*
G04 #@! TO.N,I2C2_SDA*
X155575000Y-107920000D03*
D15*
G04 #@! TO.P,JP11,2,B*
G04 #@! TO.N,B_SDA*
X155575000Y-109220000D03*
G04 #@! TD*
D14*
G04 #@! TO.P,JP1,1,A*
G04 #@! TO.N,I2C1_SDA*
X160655000Y-97760000D03*
D15*
G04 #@! TO.P,JP1,2,B*
G04 #@! TO.N,A_SDA*
X160655000Y-99060000D03*
G04 #@! TD*
D14*
G04 #@! TO.P,JP10,1,A*
G04 #@! TO.N,I2C1_A_SDA*
X158115000Y-107920000D03*
D15*
G04 #@! TO.P,JP10,2,B*
G04 #@! TO.N,B_SDA*
X158115000Y-109220000D03*
G04 #@! TD*
D12*
G04 #@! TO.P,JP7,1,A*
G04 #@! TO.N,I2C2_SCL*
X155575000Y-102870000D03*
D13*
G04 #@! TO.P,JP7,2,B*
G04 #@! TO.N,A_SCL*
X155575000Y-101570000D03*
G04 #@! TD*
D12*
G04 #@! TO.P,JP13,1,A*
G04 #@! TO.N,I2C1_SCL*
X160655000Y-113030000D03*
D13*
G04 #@! TO.P,JP13,2,B*
G04 #@! TO.N,B_SCL*
X160655000Y-111730000D03*
G04 #@! TD*
D12*
G04 #@! TO.P,JP6,1,A*
G04 #@! TO.N,I2C1_A_SCL*
X158115000Y-102870000D03*
D13*
G04 #@! TO.P,JP6,2,B*
G04 #@! TO.N,A_SCL*
X158115000Y-101570000D03*
G04 #@! TD*
D12*
G04 #@! TO.P,JP5,1,A*
G04 #@! TO.N,I2C1_SCL*
X160655000Y-102870000D03*
D13*
G04 #@! TO.P,JP5,2,B*
G04 #@! TO.N,A_SCL*
X160655000Y-101570000D03*
G04 #@! TD*
D14*
G04 #@! TO.P,JP4,1,A*
G04 #@! TO.N,I2C3_SDA*
X153035000Y-97760000D03*
D15*
G04 #@! TO.P,JP4,2,B*
G04 #@! TO.N,A_SDA*
X153035000Y-99060000D03*
G04 #@! TD*
D16*
G04 #@! TO.N,GND*
X169545000Y-101600000D03*
X151130000Y-97790000D03*
X169545000Y-113665000D03*
X153035000Y-100330000D03*
X146685000Y-97790000D03*
X151130000Y-110490000D03*
X123825000Y-86360000D03*
X123825000Y-124460000D03*
X162560000Y-100330000D03*
X162560000Y-110490000D03*
X149225000Y-97790000D03*
X144780000Y-97790000D03*
G04 #@! TO.N,I2C2_SCL*
X155575000Y-114300000D03*
X155575000Y-104140000D03*
G04 #@! TO.N,I2C2_SDA*
X155575000Y-106680000D03*
X155575000Y-96520000D03*
G04 #@! TO.N,I2C3_SDA*
X153035000Y-106680000D03*
X153035000Y-96520000D03*
G04 #@! TO.N,I2C1_SDA*
X160655000Y-96520000D03*
X160655000Y-106680000D03*
G04 #@! TO.N,I2C1_SCL*
X160655000Y-114300000D03*
X160655000Y-104140000D03*
G04 #@! TO.N,I2C1_A_SDA*
X158115000Y-106680000D03*
X158115000Y-96520000D03*
G04 #@! TO.N,I2C3_SCL*
X153035000Y-114300000D03*
X153035000Y-104140000D03*
G04 #@! TO.N,I2C1_A_SCL*
X158115000Y-114300000D03*
X158115000Y-104140000D03*
G04 #@! TO.N,A_SDA*
X162560000Y-99060000D03*
G04 #@! TO.N,A_SCL*
X162560000Y-101600000D03*
G04 #@! TO.N,B_SDA*
X162560000Y-109220000D03*
G04 #@! TO.N,B_SCL*
X162560000Y-111760000D03*
G04 #@! TD*
D17*
G04 #@! TO.N,I2C2_SCL*
X156315700Y-123672269D02*
X157153431Y-124510000D01*
X156315700Y-115040700D02*
X156315700Y-123672269D01*
X157153431Y-124510000D02*
X158800000Y-124510000D01*
X158800000Y-124510000D02*
X160020000Y-125730000D01*
X155575000Y-114300000D02*
X156315700Y-115040700D01*
X155575000Y-104140000D02*
X155575000Y-102870000D01*
X155575000Y-113030000D02*
X155575000Y-114300000D01*
G04 #@! TO.N,I2C2_SDA*
X155575000Y-97760000D02*
X155575000Y-96520000D01*
X155575000Y-107920000D02*
X155575000Y-106680000D01*
X155448000Y-97633000D02*
X155575000Y-97760000D01*
G04 #@! TO.N,I2C3_SDA*
X153035000Y-107920000D02*
X153035000Y-106680000D01*
X153035000Y-96520000D02*
X153035000Y-97760000D01*
G04 #@! TO.N,I2C1_SDA*
X160655000Y-97760000D02*
X160655000Y-96520000D01*
X160655000Y-107920000D02*
X160655000Y-106680000D01*
G04 #@! TO.N,I2C1_SCL*
X147320000Y-85090000D02*
X148484300Y-86254300D01*
X160655000Y-104140000D02*
X160655000Y-102870000D01*
X161417000Y-94488000D02*
X163174300Y-96245300D01*
X148484300Y-86254300D02*
X148484300Y-87900869D01*
X155071431Y-94488000D02*
X161417000Y-94488000D01*
X148484300Y-87900869D02*
X155071431Y-94488000D01*
X162306000Y-104140000D02*
X160655000Y-104140000D01*
X163174300Y-103271700D02*
X162306000Y-104140000D01*
X163174300Y-96245300D02*
X163174300Y-103271700D01*
X160655000Y-113030000D02*
X160655000Y-114300000D01*
G04 #@! TO.N,I2C1_A_SDA*
X158115000Y-107920000D02*
X158115000Y-106680000D01*
X158115000Y-97760000D02*
X158115000Y-96520000D01*
G04 #@! TO.N,I2C3_SCL*
X153035000Y-104140000D02*
X153035000Y-102870000D01*
X153035000Y-113030000D02*
X153035000Y-114300000D01*
G04 #@! TO.N,I2C1_A_SCL*
X158115000Y-113030000D02*
X158115000Y-114300000D01*
X151003000Y-105283000D02*
X156972000Y-105283000D01*
X145944300Y-86254300D02*
X145944300Y-100224300D01*
X145944300Y-100224300D02*
X151003000Y-105283000D01*
X144780000Y-85090000D02*
X145944300Y-86254300D01*
X158115000Y-104140000D02*
X158115000Y-102870000D01*
X156972000Y-105283000D02*
X158115000Y-104140000D01*
G04 #@! TO.N,A_SDA*
X155575000Y-99060000D02*
X153035000Y-99060000D01*
X160655000Y-99060000D02*
X158115000Y-99060000D01*
X158115000Y-99060000D02*
X155575000Y-99060000D01*
X160655000Y-99060000D02*
X162560000Y-99060000D01*
X160670000Y-99045000D02*
X160655000Y-99060000D01*
G04 #@! TO.N,A_SCL*
X160670000Y-101585000D02*
X160655000Y-101570000D01*
X162530000Y-101570000D02*
X162560000Y-101600000D01*
X160655000Y-101570000D02*
X158115000Y-101570000D01*
X158115000Y-101570000D02*
X155575000Y-101570000D01*
X155575000Y-101570000D02*
X153035000Y-101570000D01*
X160655000Y-101570000D02*
X162530000Y-101570000D01*
G04 #@! TO.N,B_SDA*
X160655000Y-109220000D02*
X158115000Y-109220000D01*
X155575000Y-109220000D02*
X153035000Y-109220000D01*
X160655000Y-109220000D02*
X162560000Y-109220000D01*
X158115000Y-109220000D02*
X155575000Y-109220000D01*
X160670000Y-109205000D02*
X160655000Y-109220000D01*
G04 #@! TO.N,B_SCL*
X160655000Y-111730000D02*
X162530000Y-111730000D01*
X158115000Y-111730000D02*
X155575000Y-111730000D01*
X160670000Y-111745000D02*
X160655000Y-111730000D01*
X162530000Y-111730000D02*
X162560000Y-111760000D01*
X160655000Y-111730000D02*
X158115000Y-111730000D01*
X155575000Y-111730000D02*
X153035000Y-111730000D01*
G04 #@! TD*
G04 #@! TA.AperFunction,Conductor*
G04 #@! TO.N,GND*
G36*
X146371900Y-88108769D02*
G01*
X146400620Y-88138445D01*
X146427962Y-88189599D01*
X146442315Y-88216450D01*
X146573590Y-88376410D01*
X146733550Y-88507685D01*
X146733554Y-88507687D01*
X146887311Y-88589873D01*
X146916046Y-88605232D01*
X146916050Y-88605233D01*
X146916052Y-88605234D01*
X146957794Y-88617896D01*
X147114066Y-88665300D01*
X147320000Y-88685583D01*
X147525934Y-88665300D01*
X147723954Y-88605232D01*
X147906450Y-88507685D01*
X148066410Y-88376410D01*
X148197685Y-88216450D01*
X148204575Y-88203559D01*
X148242872Y-88169223D01*
X148294284Y-88167537D01*
X148324069Y-88185833D01*
X154878138Y-94739903D01*
X154949915Y-94781343D01*
X154949922Y-94781347D01*
X154966838Y-94785879D01*
X154966840Y-94785880D01*
X154966841Y-94785880D01*
X155029987Y-94802800D01*
X161255457Y-94802800D01*
X161303795Y-94820393D01*
X161308631Y-94824826D01*
X162837474Y-96353668D01*
X162859214Y-96400288D01*
X162859500Y-96406842D01*
X162859500Y-98525855D01*
X162841907Y-98574193D01*
X162797358Y-98599913D01*
X162763114Y-98598009D01*
X162631963Y-98559500D01*
X162631961Y-98559500D01*
X162488039Y-98559500D01*
X162488036Y-98559500D01*
X162349950Y-98600045D01*
X162228873Y-98677856D01*
X162193008Y-98719246D01*
X162148057Y-98744256D01*
X162136176Y-98745200D01*
X161685700Y-98745200D01*
X161637362Y-98727607D01*
X161611642Y-98683058D01*
X161610500Y-98670000D01*
X161610500Y-98560001D01*
X161605348Y-98514274D01*
X161605348Y-98514272D01*
X161570550Y-98442016D01*
X161565428Y-98390834D01*
X161579509Y-98362504D01*
X161590149Y-98349163D01*
X161610500Y-98260000D01*
X161610500Y-97688111D01*
X161602176Y-97630215D01*
X161561669Y-97492260D01*
X161537371Y-97439055D01*
X161459639Y-97318101D01*
X161421334Y-97273895D01*
X161312673Y-97179741D01*
X161289529Y-97164867D01*
X161263469Y-97148119D01*
X161263460Y-97148115D01*
X161132693Y-97088395D01*
X161132687Y-97088392D01*
X161132683Y-97088391D01*
X161076561Y-97071912D01*
X161076557Y-97071911D01*
X161076555Y-97071911D01*
X161034296Y-97065834D01*
X160988955Y-97041540D01*
X160969838Y-96993784D01*
X160969800Y-96991400D01*
X160969800Y-96949034D01*
X160987393Y-96900696D01*
X160988128Y-96899834D01*
X161080377Y-96793373D01*
X161140165Y-96662457D01*
X161160647Y-96520000D01*
X161140165Y-96377543D01*
X161080377Y-96246627D01*
X161080375Y-96246624D01*
X160986127Y-96137856D01*
X160986125Y-96137855D01*
X160865051Y-96060046D01*
X160865052Y-96060046D01*
X160726963Y-96019500D01*
X160726961Y-96019500D01*
X160583039Y-96019500D01*
X160583036Y-96019500D01*
X160444948Y-96060046D01*
X160323874Y-96137855D01*
X160323872Y-96137856D01*
X160229624Y-96246624D01*
X160229622Y-96246627D01*
X160169835Y-96377540D01*
X160149353Y-96520000D01*
X160169835Y-96662459D01*
X160229622Y-96793372D01*
X160229624Y-96793375D01*
X160280211Y-96851755D01*
X160321832Y-96899789D01*
X160340191Y-96947841D01*
X160340200Y-96949034D01*
X160340200Y-96991400D01*
X160322607Y-97039738D01*
X160278058Y-97065458D01*
X160275704Y-97065834D01*
X160233444Y-97071911D01*
X160233439Y-97071912D01*
X160177320Y-97088390D01*
X160177306Y-97088395D01*
X160046539Y-97148115D01*
X160046530Y-97148119D01*
X159997330Y-97179739D01*
X159997327Y-97179741D01*
X159952893Y-97218242D01*
X159888665Y-97273895D01*
X159850359Y-97318102D01*
X159772630Y-97439052D01*
X159772625Y-97439062D01*
X159748335Y-97492249D01*
X159748330Y-97492263D01*
X159707825Y-97630207D01*
X159699500Y-97688110D01*
X159699500Y-98259998D01*
X159704651Y-98305725D01*
X159704652Y-98305728D01*
X159739448Y-98377981D01*
X159744570Y-98429165D01*
X159730491Y-98457493D01*
X159719852Y-98470834D01*
X159719851Y-98470836D01*
X159719851Y-98470837D01*
X159699500Y-98560000D01*
X159699500Y-98560001D01*
X159699500Y-98560003D01*
X159699500Y-98670000D01*
X159681907Y-98718338D01*
X159637358Y-98744058D01*
X159624300Y-98745200D01*
X159145700Y-98745200D01*
X159097362Y-98727607D01*
X159071642Y-98683058D01*
X159070500Y-98670000D01*
X159070500Y-98560001D01*
X159065348Y-98514274D01*
X159065348Y-98514272D01*
X159030550Y-98442016D01*
X159025428Y-98390834D01*
X159039509Y-98362504D01*
X159050149Y-98349163D01*
X159070500Y-98260000D01*
X159070500Y-97688111D01*
X159062176Y-97630215D01*
X159021669Y-97492260D01*
X158997371Y-97439055D01*
X158919639Y-97318101D01*
X158881334Y-97273895D01*
X158772673Y-97179741D01*
X158749529Y-97164867D01*
X158723469Y-97148119D01*
X158723460Y-97148115D01*
X158592693Y-97088395D01*
X158592687Y-97088392D01*
X158592683Y-97088391D01*
X158536561Y-97071912D01*
X158536557Y-97071911D01*
X158536555Y-97071911D01*
X158494296Y-97065834D01*
X158448955Y-97041540D01*
X158429838Y-96993784D01*
X158429800Y-96991400D01*
X158429800Y-96949034D01*
X158447393Y-96900696D01*
X158448128Y-96899834D01*
X158540377Y-96793373D01*
X158600165Y-96662457D01*
X158620647Y-96520000D01*
X158600165Y-96377543D01*
X158540377Y-96246627D01*
X158540375Y-96246624D01*
X158446127Y-96137856D01*
X158446125Y-96137855D01*
X158325051Y-96060046D01*
X158325052Y-96060046D01*
X158186963Y-96019500D01*
X158186961Y-96019500D01*
X158043039Y-96019500D01*
X158043036Y-96019500D01*
X157904948Y-96060046D01*
X157783874Y-96137855D01*
X157783872Y-96137856D01*
X157689624Y-96246624D01*
X157689622Y-96246627D01*
X157629835Y-96377540D01*
X157609353Y-96520000D01*
X157629835Y-96662459D01*
X157689622Y-96793372D01*
X157689624Y-96793375D01*
X157740211Y-96851755D01*
X157781832Y-96899789D01*
X157800191Y-96947841D01*
X157800200Y-96949034D01*
X157800200Y-96991400D01*
X157782607Y-97039738D01*
X157738058Y-97065458D01*
X157735704Y-97065834D01*
X157693444Y-97071911D01*
X157693439Y-97071912D01*
X157637320Y-97088390D01*
X157637306Y-97088395D01*
X157506539Y-97148115D01*
X157506530Y-97148119D01*
X157457330Y-97179739D01*
X157457327Y-97179741D01*
X157412893Y-97218242D01*
X157348665Y-97273895D01*
X157310359Y-97318102D01*
X157232630Y-97439052D01*
X157232625Y-97439062D01*
X157208335Y-97492249D01*
X157208330Y-97492263D01*
X157167825Y-97630207D01*
X157159500Y-97688110D01*
X157159500Y-98259998D01*
X157164651Y-98305725D01*
X157164652Y-98305728D01*
X157199448Y-98377981D01*
X157204570Y-98429165D01*
X157190491Y-98457493D01*
X157179852Y-98470834D01*
X157179851Y-98470836D01*
X157179851Y-98470837D01*
X157159500Y-98560000D01*
X157159500Y-98560001D01*
X157159500Y-98560003D01*
X157159500Y-98670000D01*
X157141907Y-98718338D01*
X157097358Y-98744058D01*
X157084300Y-98745200D01*
X156605700Y-98745200D01*
X156557362Y-98727607D01*
X156531642Y-98683058D01*
X156530500Y-98670000D01*
X156530500Y-98560001D01*
X156525348Y-98514274D01*
X156525348Y-98514272D01*
X156490550Y-98442016D01*
X156485428Y-98390834D01*
X156499509Y-98362504D01*
X156510149Y-98349163D01*
X156530500Y-98260000D01*
X156530500Y-97688111D01*
X156522176Y-97630215D01*
X156481669Y-97492260D01*
X156457371Y-97439055D01*
X156379639Y-97318101D01*
X156341334Y-97273895D01*
X156232673Y-97179741D01*
X156209529Y-97164867D01*
X156183469Y-97148119D01*
X156183460Y-97148115D01*
X156052693Y-97088395D01*
X156052687Y-97088392D01*
X156052683Y-97088391D01*
X155996561Y-97071912D01*
X155996557Y-97071911D01*
X155996555Y-97071911D01*
X155954296Y-97065834D01*
X155908955Y-97041540D01*
X155889838Y-96993784D01*
X155889800Y-96991400D01*
X155889800Y-96949034D01*
X155907393Y-96900696D01*
X155908128Y-96899834D01*
X156000377Y-96793373D01*
X156060165Y-96662457D01*
X156080647Y-96520000D01*
X156060165Y-96377543D01*
X156000377Y-96246627D01*
X156000375Y-96246624D01*
X155906127Y-96137856D01*
X155906125Y-96137855D01*
X155785051Y-96060046D01*
X155785052Y-96060046D01*
X155646963Y-96019500D01*
X155646961Y-96019500D01*
X155503039Y-96019500D01*
X155503036Y-96019500D01*
X155364948Y-96060046D01*
X155243874Y-96137855D01*
X155243872Y-96137856D01*
X155149624Y-96246624D01*
X155149622Y-96246627D01*
X155089835Y-96377540D01*
X155069353Y-96520000D01*
X155089835Y-96662459D01*
X155149622Y-96793372D01*
X155149624Y-96793375D01*
X155200211Y-96851755D01*
X155241832Y-96899789D01*
X155260191Y-96947841D01*
X155260200Y-96949034D01*
X155260200Y-96991400D01*
X155242607Y-97039738D01*
X155198058Y-97065458D01*
X155195704Y-97065834D01*
X155153444Y-97071911D01*
X155153439Y-97071912D01*
X155097320Y-97088390D01*
X155097306Y-97088395D01*
X154966539Y-97148115D01*
X154966530Y-97148119D01*
X154917330Y-97179739D01*
X154917327Y-97179741D01*
X154872893Y-97218242D01*
X154808665Y-97273895D01*
X154770359Y-97318102D01*
X154692630Y-97439052D01*
X154692625Y-97439062D01*
X154668335Y-97492249D01*
X154668330Y-97492263D01*
X154627825Y-97630207D01*
X154619500Y-97688110D01*
X154619500Y-98259998D01*
X154624651Y-98305725D01*
X154624652Y-98305728D01*
X154659448Y-98377981D01*
X154664570Y-98429165D01*
X154650491Y-98457493D01*
X154639852Y-98470834D01*
X154639851Y-98470836D01*
X154639851Y-98470837D01*
X154619500Y-98560000D01*
X154619500Y-98560001D01*
X154619500Y-98560003D01*
X154619500Y-98670000D01*
X154601907Y-98718338D01*
X154557358Y-98744058D01*
X154544300Y-98745200D01*
X154065700Y-98745200D01*
X154017362Y-98727607D01*
X153991642Y-98683058D01*
X153990500Y-98670000D01*
X153990500Y-98560001D01*
X153985348Y-98514274D01*
X153985348Y-98514272D01*
X153950550Y-98442016D01*
X153945428Y-98390834D01*
X153959509Y-98362504D01*
X153970149Y-98349163D01*
X153990500Y-98260000D01*
X153990500Y-97688111D01*
X153982176Y-97630215D01*
X153941669Y-97492260D01*
X153917371Y-97439055D01*
X153839639Y-97318101D01*
X153801334Y-97273895D01*
X153692673Y-97179741D01*
X153669529Y-97164867D01*
X153643469Y-97148119D01*
X153643460Y-97148115D01*
X153512693Y-97088395D01*
X153512687Y-97088392D01*
X153512683Y-97088391D01*
X153456561Y-97071912D01*
X153456557Y-97071911D01*
X153456555Y-97071911D01*
X153414296Y-97065834D01*
X153368955Y-97041540D01*
X153349838Y-96993784D01*
X153349800Y-96991400D01*
X153349800Y-96949034D01*
X153367393Y-96900696D01*
X153368128Y-96899834D01*
X153460377Y-96793373D01*
X153520165Y-96662457D01*
X153540647Y-96520000D01*
X153520165Y-96377543D01*
X153460377Y-96246627D01*
X153460375Y-96246624D01*
X153366127Y-96137856D01*
X153366125Y-96137855D01*
X153245051Y-96060046D01*
X153245052Y-96060046D01*
X153106963Y-96019500D01*
X153106961Y-96019500D01*
X152963039Y-96019500D01*
X152963036Y-96019500D01*
X152824948Y-96060046D01*
X152703874Y-96137855D01*
X152703872Y-96137856D01*
X152609624Y-96246624D01*
X152609622Y-96246627D01*
X152549835Y-96377540D01*
X152529353Y-96520000D01*
X152549835Y-96662459D01*
X152609622Y-96793372D01*
X152609624Y-96793375D01*
X152660211Y-96851755D01*
X152701832Y-96899789D01*
X152720191Y-96947841D01*
X152720200Y-96949034D01*
X152720200Y-96991400D01*
X152702607Y-97039738D01*
X152658058Y-97065458D01*
X152655704Y-97065834D01*
X152613444Y-97071911D01*
X152613439Y-97071912D01*
X152557320Y-97088390D01*
X152557306Y-97088395D01*
X152426539Y-97148115D01*
X152426530Y-97148119D01*
X152377330Y-97179739D01*
X152377327Y-97179741D01*
X152332893Y-97218242D01*
X152268665Y-97273895D01*
X152230359Y-97318102D01*
X152152630Y-97439052D01*
X152152625Y-97439062D01*
X152128335Y-97492249D01*
X152128330Y-97492263D01*
X152087825Y-97630207D01*
X152079500Y-97688110D01*
X152079500Y-98259998D01*
X152084651Y-98305725D01*
X152084652Y-98305728D01*
X152119448Y-98377981D01*
X152124570Y-98429165D01*
X152110491Y-98457493D01*
X152099852Y-98470834D01*
X152099851Y-98470836D01*
X152099851Y-98470837D01*
X152079500Y-98560000D01*
X152079500Y-98560001D01*
X152079500Y-98560003D01*
X152079500Y-99131889D01*
X152087825Y-99189792D01*
X152128330Y-99327736D01*
X152128335Y-99327750D01*
X152152625Y-99380937D01*
X152152630Y-99380947D01*
X152230359Y-99501897D01*
X152268665Y-99546104D01*
X152268666Y-99546105D01*
X152377327Y-99640259D01*
X152426532Y-99671881D01*
X152557317Y-99731609D01*
X152613439Y-99748088D01*
X152755754Y-99768550D01*
X152755758Y-99768550D01*
X152814240Y-99768550D01*
X152814245Y-99768550D01*
X152827224Y-99766683D01*
X152830139Y-99766265D01*
X152840840Y-99765500D01*
X153229160Y-99765500D01*
X153239861Y-99766265D01*
X153243533Y-99766792D01*
X153255755Y-99768550D01*
X153255760Y-99768550D01*
X153314242Y-99768550D01*
X153314246Y-99768550D01*
X153456561Y-99748088D01*
X153512683Y-99731609D01*
X153643468Y-99671881D01*
X153692673Y-99640259D01*
X153801334Y-99546105D01*
X153839639Y-99501899D01*
X153878042Y-99442143D01*
X153899121Y-99409344D01*
X153940055Y-99378191D01*
X153962383Y-99374800D01*
X154647617Y-99374800D01*
X154695955Y-99392393D01*
X154710879Y-99409344D01*
X154770359Y-99501897D01*
X154808665Y-99546104D01*
X154808666Y-99546105D01*
X154917327Y-99640259D01*
X154966532Y-99671881D01*
X155097317Y-99731609D01*
X155153439Y-99748088D01*
X155295754Y-99768550D01*
X155295758Y-99768550D01*
X155354240Y-99768550D01*
X155354245Y-99768550D01*
X155367224Y-99766683D01*
X155370139Y-99766265D01*
X155380840Y-99765500D01*
X155769160Y-99765500D01*
X155779861Y-99766265D01*
X155783533Y-99766792D01*
X155795755Y-99768550D01*
X155795760Y-99768550D01*
X155854242Y-99768550D01*
X155854246Y-99768550D01*
X155996561Y-99748088D01*
X156052683Y-99731609D01*
X156183468Y-99671881D01*
X156232673Y-99640259D01*
X156341334Y-99546105D01*
X156379639Y-99501899D01*
X156418042Y-99442143D01*
X156439121Y-99409344D01*
X156480055Y-99378191D01*
X156502383Y-99374800D01*
X157187617Y-99374800D01*
X157235955Y-99392393D01*
X157250879Y-99409344D01*
X157310359Y-99501897D01*
X157348665Y-99546104D01*
X157348666Y-99546105D01*
X157457327Y-99640259D01*
X157506532Y-99671881D01*
X157637317Y-99731609D01*
X157693439Y-99748088D01*
X157835754Y-99768550D01*
X157835758Y-99768550D01*
X157894240Y-99768550D01*
X157894245Y-99768550D01*
X157907224Y-99766683D01*
X157910139Y-99766265D01*
X157920840Y-99765500D01*
X158309160Y-99765500D01*
X158319861Y-99766265D01*
X158323533Y-99766792D01*
X158335755Y-99768550D01*
X158335760Y-99768550D01*
X158394242Y-99768550D01*
X158394246Y-99768550D01*
X158536561Y-99748088D01*
X158592683Y-99731609D01*
X158723468Y-99671881D01*
X158772673Y-99640259D01*
X158881334Y-99546105D01*
X158919639Y-99501899D01*
X158958042Y-99442143D01*
X158979121Y-99409344D01*
X159020055Y-99378191D01*
X159042383Y-99374800D01*
X159727617Y-99374800D01*
X159775955Y-99392393D01*
X159790879Y-99409344D01*
X159850359Y-99501897D01*
X159888665Y-99546104D01*
X159888666Y-99546105D01*
X159997327Y-99640259D01*
X160046532Y-99671881D01*
X160177317Y-99731609D01*
X160233439Y-99748088D01*
X160375754Y-99768550D01*
X160375758Y-99768550D01*
X160434240Y-99768550D01*
X160434245Y-99768550D01*
X160447224Y-99766683D01*
X160450139Y-99766265D01*
X160460840Y-99765500D01*
X160849160Y-99765500D01*
X160859861Y-99766265D01*
X160863533Y-99766792D01*
X160875755Y-99768550D01*
X160875760Y-99768550D01*
X160934242Y-99768550D01*
X160934246Y-99768550D01*
X161076561Y-99748088D01*
X161132683Y-99731609D01*
X161263468Y-99671881D01*
X161312673Y-99640259D01*
X161421334Y-99546105D01*
X161459639Y-99501899D01*
X161498042Y-99442143D01*
X161519121Y-99409344D01*
X161560055Y-99378191D01*
X161582383Y-99374800D01*
X162136176Y-99374800D01*
X162184514Y-99392393D01*
X162193008Y-99400754D01*
X162228872Y-99442143D01*
X162349947Y-99519953D01*
X162488039Y-99560500D01*
X162488042Y-99560500D01*
X162631958Y-99560500D01*
X162631961Y-99560500D01*
X162763115Y-99521990D01*
X162814450Y-99525253D01*
X162851679Y-99560750D01*
X162859500Y-99594144D01*
X162859500Y-101065855D01*
X162841907Y-101114193D01*
X162797358Y-101139913D01*
X162763114Y-101138009D01*
X162631963Y-101099500D01*
X162631961Y-101099500D01*
X162488039Y-101099500D01*
X162488036Y-101099500D01*
X162349950Y-101140045D01*
X162228873Y-101217856D01*
X162228872Y-101217856D01*
X162228872Y-101217857D01*
X162219003Y-101229245D01*
X162174054Y-101254255D01*
X162162172Y-101255200D01*
X161582383Y-101255200D01*
X161534045Y-101237607D01*
X161519121Y-101220656D01*
X161459640Y-101128102D01*
X161421334Y-101083895D01*
X161400514Y-101065855D01*
X161312673Y-100989741D01*
X161289529Y-100974867D01*
X161263469Y-100958119D01*
X161263460Y-100958115D01*
X161132693Y-100898395D01*
X161132683Y-100898391D01*
X161076565Y-100881913D01*
X161076563Y-100881912D01*
X161076561Y-100881912D01*
X160955459Y-100864500D01*
X160934247Y-100861450D01*
X160934246Y-100861450D01*
X160875755Y-100861450D01*
X160875751Y-100861450D01*
X160859861Y-100863735D01*
X160849160Y-100864500D01*
X160460840Y-100864500D01*
X160450139Y-100863735D01*
X160434248Y-100861450D01*
X160434245Y-100861450D01*
X160375754Y-100861450D01*
X160375752Y-100861450D01*
X160303784Y-100871797D01*
X160233439Y-100881912D01*
X160233437Y-100881912D01*
X160233434Y-100881913D01*
X160177316Y-100898391D01*
X160177306Y-100898395D01*
X160046539Y-100958115D01*
X160046530Y-100958119D01*
X159997330Y-100989739D01*
X159997327Y-100989741D01*
X159952893Y-101028242D01*
X159888665Y-101083895D01*
X159850359Y-101128102D01*
X159790879Y-101220656D01*
X159749945Y-101251809D01*
X159727617Y-101255200D01*
X159042383Y-101255200D01*
X158994045Y-101237607D01*
X158979121Y-101220656D01*
X158919640Y-101128102D01*
X158881334Y-101083895D01*
X158860514Y-101065855D01*
X158772673Y-100989741D01*
X158749529Y-100974867D01*
X158723469Y-100958119D01*
X158723460Y-100958115D01*
X158592693Y-100898395D01*
X158592683Y-100898391D01*
X158536565Y-100881913D01*
X158536563Y-100881912D01*
X158536561Y-100881912D01*
X158415459Y-100864500D01*
X158394247Y-100861450D01*
X158394246Y-100861450D01*
X158335755Y-100861450D01*
X158335751Y-100861450D01*
X158319861Y-100863735D01*
X158309160Y-100864500D01*
X157920840Y-100864500D01*
X157910139Y-100863735D01*
X157894248Y-100861450D01*
X157894245Y-100861450D01*
X157835754Y-100861450D01*
X157835752Y-100861450D01*
X157763784Y-100871797D01*
X157693439Y-100881912D01*
X157693437Y-100881912D01*
X157693434Y-100881913D01*
X157637316Y-100898391D01*
X157637306Y-100898395D01*
X157506539Y-100958115D01*
X157506530Y-100958119D01*
X157457330Y-100989739D01*
X157457327Y-100989741D01*
X157412893Y-101028242D01*
X157348665Y-101083895D01*
X157310359Y-101128102D01*
X157250879Y-101220656D01*
X157209945Y-101251809D01*
X157187617Y-101255200D01*
X156502383Y-101255200D01*
X156454045Y-101237607D01*
X156439121Y-101220656D01*
X156379640Y-101128102D01*
X156341334Y-101083895D01*
X156320514Y-101065855D01*
X156232673Y-100989741D01*
X156209529Y-100974867D01*
X156183469Y-100958119D01*
X156183460Y-100958115D01*
X156052693Y-100898395D01*
X156052683Y-100898391D01*
X155996565Y-100881913D01*
X155996563Y-100881912D01*
X155996561Y-100881912D01*
X155875459Y-100864500D01*
X155854247Y-100861450D01*
X155854246Y-100861450D01*
X155795755Y-100861450D01*
X155795751Y-100861450D01*
X155779861Y-100863735D01*
X155769160Y-100864500D01*
X155380840Y-100864500D01*
X155370139Y-100863735D01*
X155354248Y-100861450D01*
X155354245Y-100861450D01*
X155295754Y-100861450D01*
X155295752Y-100861450D01*
X155223784Y-100871797D01*
X155153439Y-100881912D01*
X155153437Y-100881912D01*
X155153434Y-100881913D01*
X155097316Y-100898391D01*
X155097306Y-100898395D01*
X154966539Y-100958115D01*
X154966530Y-100958119D01*
X154917330Y-100989739D01*
X154917327Y-100989741D01*
X154872893Y-101028242D01*
X154808665Y-101083895D01*
X154770359Y-101128102D01*
X154710879Y-101220656D01*
X154669945Y-101251809D01*
X154647617Y-101255200D01*
X153962383Y-101255200D01*
X153914045Y-101237607D01*
X153899121Y-101220656D01*
X153839640Y-101128102D01*
X153801334Y-101083895D01*
X153780514Y-101065855D01*
X153692673Y-100989741D01*
X153669529Y-100974867D01*
X153643469Y-100958119D01*
X153643460Y-100958115D01*
X153512693Y-100898395D01*
X153512683Y-100898391D01*
X153456565Y-100881913D01*
X153456563Y-100881912D01*
X153456561Y-100881912D01*
X153335459Y-100864500D01*
X153314247Y-100861450D01*
X153314246Y-100861450D01*
X153255755Y-100861450D01*
X153255751Y-100861450D01*
X153239861Y-100863735D01*
X153229160Y-100864500D01*
X152840840Y-100864500D01*
X152830139Y-100863735D01*
X152814248Y-100861450D01*
X152814245Y-100861450D01*
X152755754Y-100861450D01*
X152755752Y-100861450D01*
X152683784Y-100871797D01*
X152613439Y-100881912D01*
X152613437Y-100881912D01*
X152613434Y-100881913D01*
X152557316Y-100898391D01*
X152557306Y-100898395D01*
X152426539Y-100958115D01*
X152426530Y-100958119D01*
X152377330Y-100989739D01*
X152377327Y-100989741D01*
X152332893Y-101028242D01*
X152268665Y-101083895D01*
X152230359Y-101128102D01*
X152152630Y-101249052D01*
X152152625Y-101249062D01*
X152128335Y-101302249D01*
X152128330Y-101302263D01*
X152087825Y-101440207D01*
X152079500Y-101498110D01*
X152079500Y-102069998D01*
X152084651Y-102115725D01*
X152084652Y-102115728D01*
X152119448Y-102187981D01*
X152124570Y-102239165D01*
X152110491Y-102267493D01*
X152099852Y-102280834D01*
X152099851Y-102280836D01*
X152099851Y-102280837D01*
X152079500Y-102370000D01*
X152079500Y-102370001D01*
X152079500Y-102370003D01*
X152079500Y-102941889D01*
X152087825Y-102999792D01*
X152128330Y-103137736D01*
X152128335Y-103137750D01*
X152152625Y-103190937D01*
X152152630Y-103190947D01*
X152230359Y-103311897D01*
X152230361Y-103311899D01*
X152268666Y-103356105D01*
X152377327Y-103450259D01*
X152426532Y-103481881D01*
X152557317Y-103541609D01*
X152613439Y-103558088D01*
X152655703Y-103564164D01*
X152701044Y-103588458D01*
X152720162Y-103636213D01*
X152720200Y-103638599D01*
X152720200Y-103710964D01*
X152702607Y-103759302D01*
X152701833Y-103760209D01*
X152609624Y-103866624D01*
X152609622Y-103866627D01*
X152549835Y-103997540D01*
X152529353Y-104140000D01*
X152549835Y-104282459D01*
X152609622Y-104413372D01*
X152609624Y-104413375D01*
X152703872Y-104522143D01*
X152824947Y-104599953D01*
X152963039Y-104640500D01*
X152963042Y-104640500D01*
X153106958Y-104640500D01*
X153106961Y-104640500D01*
X153245053Y-104599953D01*
X153366128Y-104522143D01*
X153460377Y-104413373D01*
X153520165Y-104282457D01*
X153540647Y-104140000D01*
X153520165Y-103997543D01*
X153460377Y-103866627D01*
X153460375Y-103866624D01*
X153368167Y-103760209D01*
X153349809Y-103712157D01*
X153349800Y-103710964D01*
X153349800Y-103638599D01*
X153367393Y-103590261D01*
X153411942Y-103564541D01*
X153414264Y-103564169D01*
X153456561Y-103558088D01*
X153512683Y-103541609D01*
X153643468Y-103481881D01*
X153692673Y-103450259D01*
X153801334Y-103356105D01*
X153839639Y-103311899D01*
X153917371Y-103190945D01*
X153941669Y-103137740D01*
X153982176Y-102999785D01*
X153990500Y-102941889D01*
X153990500Y-102370000D01*
X153985348Y-102324272D01*
X153950550Y-102252016D01*
X153945428Y-102200834D01*
X153959509Y-102172504D01*
X153970149Y-102159163D01*
X153990500Y-102070000D01*
X153990500Y-101960000D01*
X154008093Y-101911662D01*
X154052642Y-101885942D01*
X154065700Y-101884800D01*
X154544300Y-101884800D01*
X154592638Y-101902393D01*
X154618358Y-101946942D01*
X154619500Y-101960000D01*
X154619500Y-102069998D01*
X154624651Y-102115725D01*
X154624652Y-102115728D01*
X154659448Y-102187981D01*
X154664570Y-102239165D01*
X154650491Y-102267493D01*
X154639852Y-102280834D01*
X154639851Y-102280836D01*
X154639851Y-102280837D01*
X154619500Y-102370000D01*
X154619500Y-102370001D01*
X154619500Y-102370003D01*
X154619500Y-102941889D01*
X154627825Y-102999792D01*
X154668330Y-103137736D01*
X154668335Y-103137750D01*
X154692625Y-103190937D01*
X154692630Y-103190947D01*
X154770359Y-103311897D01*
X154770361Y-103311899D01*
X154808666Y-103356105D01*
X154917327Y-103450259D01*
X154966532Y-103481881D01*
X155097317Y-103541609D01*
X155153439Y-103558088D01*
X155195703Y-103564164D01*
X155241044Y-103588458D01*
X155260162Y-103636213D01*
X155260200Y-103638599D01*
X155260200Y-103710964D01*
X155242607Y-103759302D01*
X155241833Y-103760209D01*
X155149624Y-103866624D01*
X155149622Y-103866627D01*
X155089835Y-103997540D01*
X155069353Y-104140000D01*
X155089835Y-104282459D01*
X155149622Y-104413372D01*
X155149624Y-104413375D01*
X155243872Y-104522143D01*
X155364947Y-104599953D01*
X155503039Y-104640500D01*
X155503042Y-104640500D01*
X155646958Y-104640500D01*
X155646961Y-104640500D01*
X155785053Y-104599953D01*
X155906128Y-104522143D01*
X156000377Y-104413373D01*
X156060165Y-104282457D01*
X156080647Y-104140000D01*
X156060165Y-103997543D01*
X156000377Y-103866627D01*
X156000375Y-103866624D01*
X155908167Y-103760209D01*
X155889809Y-103712157D01*
X155889800Y-103710964D01*
X155889800Y-103638599D01*
X155907393Y-103590261D01*
X155951942Y-103564541D01*
X155954264Y-103564169D01*
X155996561Y-103558088D01*
X156052683Y-103541609D01*
X156183468Y-103481881D01*
X156232673Y-103450259D01*
X156341334Y-103356105D01*
X156379639Y-103311899D01*
X156457371Y-103190945D01*
X156481669Y-103137740D01*
X156522176Y-102999785D01*
X156530500Y-102941889D01*
X156530500Y-102370000D01*
X156525348Y-102324272D01*
X156490550Y-102252016D01*
X156485428Y-102200834D01*
X156499509Y-102172504D01*
X156510149Y-102159163D01*
X156530500Y-102070000D01*
X156530500Y-101960000D01*
X156548093Y-101911662D01*
X156592642Y-101885942D01*
X156605700Y-101884800D01*
X157084300Y-101884800D01*
X157132638Y-101902393D01*
X157158358Y-101946942D01*
X157159500Y-101960000D01*
X157159500Y-102069998D01*
X157164651Y-102115725D01*
X157164652Y-102115728D01*
X157199448Y-102187981D01*
X157204570Y-102239165D01*
X157190491Y-102267493D01*
X157179852Y-102280834D01*
X157179851Y-102280836D01*
X157179851Y-102280837D01*
X157159500Y-102370000D01*
X157159500Y-102370001D01*
X157159500Y-102370003D01*
X157159500Y-102941889D01*
X157167825Y-102999792D01*
X157208330Y-103137736D01*
X157208335Y-103137750D01*
X157232625Y-103190937D01*
X157232630Y-103190947D01*
X157310359Y-103311897D01*
X157310361Y-103311899D01*
X157348666Y-103356105D01*
X157457327Y-103450259D01*
X157506532Y-103481881D01*
X157637317Y-103541609D01*
X157693439Y-103558088D01*
X157735703Y-103564164D01*
X157781044Y-103588458D01*
X157800162Y-103636213D01*
X157800200Y-103638599D01*
X157800200Y-103710964D01*
X157782607Y-103759302D01*
X157781833Y-103760209D01*
X157689624Y-103866624D01*
X157689622Y-103866627D01*
X157629835Y-103997540D01*
X157609353Y-104140001D01*
X157611595Y-104155596D01*
X157601058Y-104205945D01*
X157590334Y-104219470D01*
X156863631Y-104946174D01*
X156817011Y-104967914D01*
X156810457Y-104968200D01*
X151164542Y-104968200D01*
X151116204Y-104950607D01*
X151111368Y-104946174D01*
X146281126Y-100115931D01*
X146259386Y-100069311D01*
X146259100Y-100062757D01*
X146259100Y-88173894D01*
X146276693Y-88125556D01*
X146321242Y-88099836D01*
X146371900Y-88108769D01*
G37*
G04 #@! TD.AperFunction*
G04 #@! TA.AperFunction,Conductor*
G36*
X191772456Y-80510661D02*
G01*
X192031298Y-80527626D01*
X192041033Y-80528907D01*
X192293037Y-80579034D01*
X192302520Y-80581575D01*
X192545822Y-80664166D01*
X192554892Y-80667922D01*
X192785335Y-80781563D01*
X192793837Y-80786472D01*
X193007483Y-80929226D01*
X193015273Y-80935204D01*
X193208438Y-81104606D01*
X193215393Y-81111561D01*
X193384795Y-81304726D01*
X193390775Y-81312518D01*
X193533524Y-81526157D01*
X193538437Y-81534667D01*
X193652073Y-81765098D01*
X193655837Y-81774186D01*
X193738421Y-82017470D01*
X193740967Y-82026971D01*
X193791090Y-82278957D01*
X193792374Y-82288710D01*
X193809339Y-82547543D01*
X193809500Y-82552461D01*
X193809500Y-128267538D01*
X193809339Y-128272456D01*
X193792374Y-128531289D01*
X193791090Y-128541042D01*
X193740967Y-128793028D01*
X193738421Y-128802529D01*
X193655837Y-129045813D01*
X193652073Y-129054901D01*
X193538437Y-129285332D01*
X193533519Y-129293851D01*
X193390784Y-129507469D01*
X193384795Y-129515273D01*
X193215393Y-129708438D01*
X193208438Y-129715393D01*
X193015273Y-129884795D01*
X193007473Y-129890780D01*
X192951400Y-129928248D01*
X192793851Y-130033519D01*
X192785332Y-130038437D01*
X192554901Y-130152073D01*
X192545813Y-130155837D01*
X192302529Y-130238421D01*
X192293028Y-130240967D01*
X192041042Y-130291090D01*
X192031289Y-130292374D01*
X191772456Y-130309339D01*
X191767538Y-130309500D01*
X120652462Y-130309500D01*
X120647544Y-130309339D01*
X120388710Y-130292374D01*
X120378957Y-130291090D01*
X120126971Y-130240967D01*
X120117470Y-130238421D01*
X119874186Y-130155837D01*
X119865098Y-130152073D01*
X119634667Y-130038437D01*
X119626157Y-130033524D01*
X119412518Y-129890775D01*
X119404726Y-129884795D01*
X119211561Y-129715393D01*
X119204606Y-129708438D01*
X119035204Y-129515273D01*
X119029226Y-129507483D01*
X118886472Y-129293837D01*
X118881562Y-129285332D01*
X118769464Y-129058019D01*
X118767922Y-129054892D01*
X118764166Y-129045822D01*
X118681575Y-128802520D01*
X118679034Y-128793037D01*
X118628907Y-128541033D01*
X118627626Y-128531298D01*
X118610661Y-128272456D01*
X118610500Y-128267538D01*
X118610500Y-126878712D01*
X120069500Y-126878712D01*
X120069500Y-127121288D01*
X120101162Y-127361789D01*
X120163946Y-127596100D01*
X120163947Y-127596104D01*
X120163948Y-127596105D01*
X120256776Y-127820213D01*
X120378065Y-128030291D01*
X120525730Y-128222732D01*
X120525742Y-128222746D01*
X120697253Y-128394257D01*
X120697267Y-128394269D01*
X120875835Y-128531289D01*
X120889711Y-128541936D01*
X121099788Y-128663224D01*
X121323900Y-128756054D01*
X121558211Y-128818838D01*
X121798712Y-128850500D01*
X121798715Y-128850500D01*
X122041285Y-128850500D01*
X122041288Y-128850500D01*
X122281789Y-128818838D01*
X122516100Y-128756054D01*
X122740212Y-128663224D01*
X122950289Y-128541936D01*
X123142738Y-128394265D01*
X123314265Y-128222738D01*
X123461936Y-128030289D01*
X123583224Y-127820212D01*
X123676054Y-127596100D01*
X123738838Y-127361789D01*
X123770500Y-127121288D01*
X123770500Y-126878712D01*
X188649500Y-126878712D01*
X188649500Y-127121288D01*
X188681162Y-127361789D01*
X188743946Y-127596100D01*
X188743947Y-127596104D01*
X188743948Y-127596105D01*
X188836776Y-127820213D01*
X188958065Y-128030291D01*
X189105730Y-128222732D01*
X189105742Y-128222746D01*
X189277253Y-128394257D01*
X189277267Y-128394269D01*
X189455835Y-128531289D01*
X189469711Y-128541936D01*
X189679788Y-128663224D01*
X189903900Y-128756054D01*
X190138211Y-128818838D01*
X190378712Y-128850500D01*
X190378715Y-128850500D01*
X190621285Y-128850500D01*
X190621288Y-128850500D01*
X190861789Y-128818838D01*
X191096100Y-128756054D01*
X191320212Y-128663224D01*
X191530289Y-128541936D01*
X191722738Y-128394265D01*
X191894265Y-128222738D01*
X192041936Y-128030289D01*
X192163224Y-127820212D01*
X192256054Y-127596100D01*
X192318838Y-127361789D01*
X192350500Y-127121288D01*
X192350500Y-126878712D01*
X192318838Y-126638211D01*
X192256054Y-126403900D01*
X192163224Y-126179788D01*
X192041936Y-125969711D01*
X191894265Y-125777262D01*
X191894263Y-125777260D01*
X191894257Y-125777253D01*
X191722746Y-125605742D01*
X191722732Y-125605730D01*
X191530291Y-125458065D01*
X191320213Y-125336776D01*
X191096105Y-125243948D01*
X191096104Y-125243947D01*
X191096100Y-125243946D01*
X190861789Y-125181162D01*
X190621288Y-125149500D01*
X190378712Y-125149500D01*
X190138211Y-125181162D01*
X189903900Y-125243946D01*
X189903897Y-125243947D01*
X189903894Y-125243948D01*
X189679786Y-125336776D01*
X189469708Y-125458065D01*
X189277267Y-125605730D01*
X189277253Y-125605742D01*
X189105742Y-125777253D01*
X189105730Y-125777267D01*
X188958065Y-125969708D01*
X188836776Y-126179786D01*
X188743948Y-126403894D01*
X188743946Y-126403900D01*
X188681162Y-126638211D01*
X188649500Y-126878712D01*
X123770500Y-126878712D01*
X123738838Y-126638211D01*
X123676054Y-126403900D01*
X123583224Y-126179788D01*
X123461936Y-125969711D01*
X123314265Y-125777262D01*
X123314263Y-125777260D01*
X123314257Y-125777253D01*
X123267004Y-125730000D01*
X131024417Y-125730000D01*
X131044699Y-125935932D01*
X131104765Y-126133947D01*
X131104770Y-126133959D01*
X131202312Y-126316445D01*
X131202315Y-126316450D01*
X131333590Y-126476410D01*
X131493550Y-126607685D01*
X131676046Y-126705232D01*
X131676050Y-126705233D01*
X131676052Y-126705234D01*
X131749778Y-126727598D01*
X131874066Y-126765300D01*
X132080000Y-126785583D01*
X132285934Y-126765300D01*
X132483954Y-126705232D01*
X132666450Y-126607685D01*
X132826410Y-126476410D01*
X132957685Y-126316450D01*
X133055232Y-126133954D01*
X133115300Y-125935934D01*
X133135583Y-125730000D01*
X133564417Y-125730000D01*
X133584699Y-125935932D01*
X133644765Y-126133947D01*
X133644770Y-126133959D01*
X133742312Y-126316445D01*
X133742315Y-126316450D01*
X133873590Y-126476410D01*
X134033550Y-126607685D01*
X134216046Y-126705232D01*
X134216050Y-126705233D01*
X134216052Y-126705234D01*
X134289778Y-126727598D01*
X134414066Y-126765300D01*
X134620000Y-126785583D01*
X134825934Y-126765300D01*
X135023954Y-126705232D01*
X135206450Y-126607685D01*
X135366410Y-126476410D01*
X135497685Y-126316450D01*
X135595232Y-126133954D01*
X135655300Y-125935934D01*
X135675583Y-125730000D01*
X136104417Y-125730000D01*
X136124699Y-125935932D01*
X136184765Y-126133947D01*
X136184770Y-126133959D01*
X136282312Y-126316445D01*
X136282315Y-126316450D01*
X136413590Y-126476410D01*
X136573550Y-126607685D01*
X136756046Y-126705232D01*
X136756050Y-126705233D01*
X136756052Y-126705234D01*
X136829778Y-126727598D01*
X136954066Y-126765300D01*
X137160000Y-126785583D01*
X137365934Y-126765300D01*
X137563954Y-126705232D01*
X137746450Y-126607685D01*
X137906410Y-126476410D01*
X138037685Y-126316450D01*
X138135232Y-126133954D01*
X138195300Y-125935934D01*
X138215583Y-125730000D01*
X138644417Y-125730000D01*
X138664699Y-125935932D01*
X138724765Y-126133947D01*
X138724770Y-126133959D01*
X138822312Y-126316445D01*
X138822315Y-126316450D01*
X138953590Y-126476410D01*
X139113550Y-126607685D01*
X139296046Y-126705232D01*
X139296050Y-126705233D01*
X139296052Y-126705234D01*
X139369778Y-126727598D01*
X139494066Y-126765300D01*
X139700000Y-126785583D01*
X139905934Y-126765300D01*
X140103954Y-126705232D01*
X140286450Y-126607685D01*
X140446410Y-126476410D01*
X140577685Y-126316450D01*
X140675232Y-126133954D01*
X140735300Y-125935934D01*
X140755583Y-125730000D01*
X141184417Y-125730000D01*
X141204699Y-125935932D01*
X141264765Y-126133947D01*
X141264770Y-126133959D01*
X141362312Y-126316445D01*
X141362315Y-126316450D01*
X141493590Y-126476410D01*
X141653550Y-126607685D01*
X141836046Y-126705232D01*
X141836050Y-126705233D01*
X141836052Y-126705234D01*
X141909778Y-126727598D01*
X142034066Y-126765300D01*
X142240000Y-126785583D01*
X142445934Y-126765300D01*
X142643954Y-126705232D01*
X142826450Y-126607685D01*
X142986410Y-126476410D01*
X143117685Y-126316450D01*
X143215232Y-126133954D01*
X143275300Y-125935934D01*
X143295583Y-125730000D01*
X143724417Y-125730000D01*
X143744699Y-125935932D01*
X143804765Y-126133947D01*
X143804770Y-126133959D01*
X143902312Y-126316445D01*
X143902315Y-126316450D01*
X144033590Y-126476410D01*
X144193550Y-126607685D01*
X144376046Y-126705232D01*
X144376050Y-126705233D01*
X144376052Y-126705234D01*
X144449778Y-126727598D01*
X144574066Y-126765300D01*
X144780000Y-126785583D01*
X144985934Y-126765300D01*
X145183954Y-126705232D01*
X145366450Y-126607685D01*
X145526410Y-126476410D01*
X145657685Y-126316450D01*
X145755232Y-126133954D01*
X145815300Y-125935934D01*
X145835583Y-125730000D01*
X146264417Y-125730000D01*
X146284699Y-125935932D01*
X146344765Y-126133947D01*
X146344770Y-126133959D01*
X146442312Y-126316445D01*
X146442315Y-126316450D01*
X146573590Y-126476410D01*
X146733550Y-126607685D01*
X146916046Y-126705232D01*
X146916050Y-126705233D01*
X146916052Y-126705234D01*
X146989778Y-126727598D01*
X147114066Y-126765300D01*
X147320000Y-126785583D01*
X147525934Y-126765300D01*
X147723954Y-126705232D01*
X147906450Y-126607685D01*
X148066410Y-126476410D01*
X148197685Y-126316450D01*
X148295232Y-126133954D01*
X148355300Y-125935934D01*
X148375583Y-125730000D01*
X148804417Y-125730000D01*
X148824699Y-125935932D01*
X148884765Y-126133947D01*
X148884770Y-126133959D01*
X148982312Y-126316445D01*
X148982315Y-126316450D01*
X149113590Y-126476410D01*
X149273550Y-126607685D01*
X149456046Y-126705232D01*
X149456050Y-126705233D01*
X149456052Y-126705234D01*
X149529778Y-126727598D01*
X149654066Y-126765300D01*
X149860000Y-126785583D01*
X150065934Y-126765300D01*
X150263954Y-126705232D01*
X150446450Y-126607685D01*
X150606410Y-126476410D01*
X150737685Y-126316450D01*
X150835232Y-126133954D01*
X150895300Y-125935934D01*
X150915583Y-125730000D01*
X151344417Y-125730000D01*
X151364699Y-125935932D01*
X151424765Y-126133947D01*
X151424770Y-126133959D01*
X151522312Y-126316445D01*
X151522315Y-126316450D01*
X151653590Y-126476410D01*
X151813550Y-126607685D01*
X151996046Y-126705232D01*
X151996050Y-126705233D01*
X151996052Y-126705234D01*
X152069778Y-126727598D01*
X152194066Y-126765300D01*
X152400000Y-126785583D01*
X152605934Y-126765300D01*
X152803954Y-126705232D01*
X152986450Y-126607685D01*
X153146410Y-126476410D01*
X153277685Y-126316450D01*
X153375232Y-126133954D01*
X153435300Y-125935934D01*
X153455583Y-125730000D01*
X153884417Y-125730000D01*
X153904699Y-125935932D01*
X153964765Y-126133947D01*
X153964770Y-126133959D01*
X154062312Y-126316445D01*
X154062315Y-126316450D01*
X154193590Y-126476410D01*
X154353550Y-126607685D01*
X154536046Y-126705232D01*
X154536050Y-126705233D01*
X154536052Y-126705234D01*
X154609778Y-126727598D01*
X154734066Y-126765300D01*
X154940000Y-126785583D01*
X155145934Y-126765300D01*
X155343954Y-126705232D01*
X155526450Y-126607685D01*
X155686410Y-126476410D01*
X155817685Y-126316450D01*
X155915232Y-126133954D01*
X155975300Y-125935934D01*
X155995583Y-125730000D01*
X155975300Y-125524066D01*
X155915232Y-125326046D01*
X155817685Y-125143550D01*
X155686410Y-124983590D01*
X155526450Y-124852315D01*
X155526445Y-124852312D01*
X155343959Y-124754770D01*
X155343947Y-124754765D01*
X155145932Y-124694699D01*
X154940000Y-124674417D01*
X154734067Y-124694699D01*
X154536052Y-124754765D01*
X154536040Y-124754770D01*
X154353554Y-124852312D01*
X154353549Y-124852315D01*
X154193590Y-124983590D01*
X154062315Y-125143549D01*
X154062312Y-125143554D01*
X153964770Y-125326040D01*
X153964765Y-125326052D01*
X153904699Y-125524067D01*
X153884417Y-125730000D01*
X153455583Y-125730000D01*
X153435300Y-125524066D01*
X153375232Y-125326046D01*
X153277685Y-125143550D01*
X153146410Y-124983590D01*
X152986450Y-124852315D01*
X152986445Y-124852312D01*
X152803959Y-124754770D01*
X152803947Y-124754765D01*
X152605932Y-124694699D01*
X152400000Y-124674417D01*
X152194067Y-124694699D01*
X151996052Y-124754765D01*
X151996040Y-124754770D01*
X151813554Y-124852312D01*
X151813549Y-124852315D01*
X151653590Y-124983590D01*
X151522315Y-125143549D01*
X151522312Y-125143554D01*
X151424770Y-125326040D01*
X151424765Y-125326052D01*
X151364699Y-125524067D01*
X151344417Y-125730000D01*
X150915583Y-125730000D01*
X150895300Y-125524066D01*
X150835232Y-125326046D01*
X150737685Y-125143550D01*
X150606410Y-124983590D01*
X150446450Y-124852315D01*
X150446445Y-124852312D01*
X150263959Y-124754770D01*
X150263947Y-124754765D01*
X150065932Y-124694699D01*
X149860000Y-124674417D01*
X149654067Y-124694699D01*
X149456052Y-124754765D01*
X149456040Y-124754770D01*
X149273554Y-124852312D01*
X149273549Y-124852315D01*
X149113590Y-124983590D01*
X148982315Y-125143549D01*
X148982312Y-125143554D01*
X148884770Y-125326040D01*
X148884765Y-125326052D01*
X148824699Y-125524067D01*
X148804417Y-125730000D01*
X148375583Y-125730000D01*
X148355300Y-125524066D01*
X148295232Y-125326046D01*
X148197685Y-125143550D01*
X148066410Y-124983590D01*
X147906450Y-124852315D01*
X147906445Y-124852312D01*
X147723959Y-124754770D01*
X147723947Y-124754765D01*
X147525932Y-124694699D01*
X147320000Y-124674417D01*
X147114067Y-124694699D01*
X146916052Y-124754765D01*
X146916040Y-124754770D01*
X146733554Y-124852312D01*
X146733549Y-124852315D01*
X146573590Y-124983590D01*
X146442315Y-125143549D01*
X146442312Y-125143554D01*
X146344770Y-125326040D01*
X146344765Y-125326052D01*
X146284699Y-125524067D01*
X146264417Y-125730000D01*
X145835583Y-125730000D01*
X145815300Y-125524066D01*
X145755232Y-125326046D01*
X145657685Y-125143550D01*
X145526410Y-124983590D01*
X145366450Y-124852315D01*
X145366445Y-124852312D01*
X145183959Y-124754770D01*
X145183947Y-124754765D01*
X144985932Y-124694699D01*
X144780000Y-124674417D01*
X144574067Y-124694699D01*
X144376052Y-124754765D01*
X144376040Y-124754770D01*
X144193554Y-124852312D01*
X144193549Y-124852315D01*
X144033590Y-124983590D01*
X143902315Y-125143549D01*
X143902312Y-125143554D01*
X143804770Y-125326040D01*
X143804765Y-125326052D01*
X143744699Y-125524067D01*
X143724417Y-125730000D01*
X143295583Y-125730000D01*
X143275300Y-125524066D01*
X143215232Y-125326046D01*
X143117685Y-125143550D01*
X142986410Y-124983590D01*
X142826450Y-124852315D01*
X142826445Y-124852312D01*
X142643959Y-124754770D01*
X142643947Y-124754765D01*
X142445932Y-124694699D01*
X142240000Y-124674417D01*
X142034067Y-124694699D01*
X141836052Y-124754765D01*
X141836040Y-124754770D01*
X141653554Y-124852312D01*
X141653549Y-124852315D01*
X141493590Y-124983590D01*
X141362315Y-125143549D01*
X141362312Y-125143554D01*
X141264770Y-125326040D01*
X141264765Y-125326052D01*
X141204699Y-125524067D01*
X141184417Y-125730000D01*
X140755583Y-125730000D01*
X140735300Y-125524066D01*
X140675232Y-125326046D01*
X140577685Y-125143550D01*
X140446410Y-124983590D01*
X140286450Y-124852315D01*
X140286445Y-124852312D01*
X140103959Y-124754770D01*
X140103947Y-124754765D01*
X139905932Y-124694699D01*
X139700000Y-124674417D01*
X139494067Y-124694699D01*
X139296052Y-124754765D01*
X139296040Y-124754770D01*
X139113554Y-124852312D01*
X139113549Y-124852315D01*
X138953590Y-124983590D01*
X138822315Y-125143549D01*
X138822312Y-125143554D01*
X138724770Y-125326040D01*
X138724765Y-125326052D01*
X138664699Y-125524067D01*
X138644417Y-125730000D01*
X138215583Y-125730000D01*
X138195300Y-125524066D01*
X138135232Y-125326046D01*
X138037685Y-125143550D01*
X137906410Y-124983590D01*
X137746450Y-124852315D01*
X137746445Y-124852312D01*
X137563959Y-124754770D01*
X137563947Y-124754765D01*
X137365932Y-124694699D01*
X137160000Y-124674417D01*
X136954067Y-124694699D01*
X136756052Y-124754765D01*
X136756040Y-124754770D01*
X136573554Y-124852312D01*
X136573549Y-124852315D01*
X136413590Y-124983590D01*
X136282315Y-125143549D01*
X136282312Y-125143554D01*
X136184770Y-125326040D01*
X136184765Y-125326052D01*
X136124699Y-125524067D01*
X136104417Y-125730000D01*
X135675583Y-125730000D01*
X135655300Y-125524066D01*
X135595232Y-125326046D01*
X135497685Y-125143550D01*
X135366410Y-124983590D01*
X135206450Y-124852315D01*
X135206445Y-124852312D01*
X135023959Y-124754770D01*
X135023947Y-124754765D01*
X134825932Y-124694699D01*
X134620000Y-124674417D01*
X134414067Y-124694699D01*
X134216052Y-124754765D01*
X134216040Y-124754770D01*
X134033554Y-124852312D01*
X134033549Y-124852315D01*
X133873590Y-124983590D01*
X133742315Y-125143549D01*
X133742312Y-125143554D01*
X133644770Y-125326040D01*
X133644765Y-125326052D01*
X133584699Y-125524067D01*
X133564417Y-125730000D01*
X133135583Y-125730000D01*
X133115300Y-125524066D01*
X133055232Y-125326046D01*
X132957685Y-125143550D01*
X132826410Y-124983590D01*
X132666450Y-124852315D01*
X132666445Y-124852312D01*
X132483959Y-124754770D01*
X132483947Y-124754765D01*
X132285932Y-124694699D01*
X132080000Y-124674417D01*
X131874067Y-124694699D01*
X131676052Y-124754765D01*
X131676040Y-124754770D01*
X131493554Y-124852312D01*
X131493549Y-124852315D01*
X131333590Y-124983590D01*
X131202315Y-125143549D01*
X131202312Y-125143554D01*
X131104770Y-125326040D01*
X131104765Y-125326052D01*
X131044699Y-125524067D01*
X131024417Y-125730000D01*
X123267004Y-125730000D01*
X123142746Y-125605742D01*
X123142732Y-125605730D01*
X122950291Y-125458065D01*
X122740213Y-125336776D01*
X122516105Y-125243948D01*
X122516104Y-125243947D01*
X122516100Y-125243946D01*
X122281789Y-125181162D01*
X122041288Y-125149500D01*
X121798712Y-125149500D01*
X121558211Y-125181162D01*
X121323900Y-125243946D01*
X121323897Y-125243947D01*
X121323894Y-125243948D01*
X121099786Y-125336776D01*
X120889708Y-125458065D01*
X120697267Y-125605730D01*
X120697253Y-125605742D01*
X120525742Y-125777253D01*
X120525730Y-125777267D01*
X120378065Y-125969708D01*
X120256776Y-126179786D01*
X120163948Y-126403894D01*
X120163946Y-126403900D01*
X120101162Y-126638211D01*
X120069500Y-126878712D01*
X118610500Y-126878712D01*
X118610500Y-122324987D01*
X131077600Y-122324987D01*
X131077600Y-123037600D01*
X131603198Y-123037600D01*
X131580000Y-123124174D01*
X131580000Y-123255826D01*
X131603198Y-123342400D01*
X131077600Y-123342400D01*
X131077600Y-124055012D01*
X131086441Y-124099462D01*
X131086442Y-124099464D01*
X131120126Y-124149873D01*
X131170535Y-124183557D01*
X131170537Y-124183558D01*
X131214987Y-124192400D01*
X131927600Y-124192400D01*
X131927600Y-123666802D01*
X132014174Y-123690000D01*
X132145826Y-123690000D01*
X132232400Y-123666802D01*
X132232400Y-124192400D01*
X132945013Y-124192400D01*
X132989462Y-124183558D01*
X132989464Y-124183557D01*
X133039873Y-124149873D01*
X133073557Y-124099464D01*
X133073558Y-124099462D01*
X133082400Y-124055012D01*
X133082400Y-123342400D01*
X132556802Y-123342400D01*
X132580000Y-123255826D01*
X132580000Y-123190000D01*
X133564417Y-123190000D01*
X133584699Y-123395932D01*
X133644765Y-123593947D01*
X133644770Y-123593959D01*
X133742312Y-123776445D01*
X133742315Y-123776450D01*
X133873590Y-123936410D01*
X134033550Y-124067685D01*
X134033554Y-124067687D01*
X134187311Y-124149873D01*
X134216046Y-124165232D01*
X134216050Y-124165233D01*
X134216052Y-124165234D01*
X134257794Y-124177896D01*
X134414066Y-124225300D01*
X134620000Y-124245583D01*
X134825934Y-124225300D01*
X135023954Y-124165232D01*
X135206450Y-124067685D01*
X135366410Y-123936410D01*
X135497685Y-123776450D01*
X135595232Y-123593954D01*
X135655300Y-123395934D01*
X135675583Y-123190000D01*
X136104417Y-123190000D01*
X136124699Y-123395932D01*
X136184765Y-123593947D01*
X136184770Y-123593959D01*
X136282312Y-123776445D01*
X136282315Y-123776450D01*
X136413590Y-123936410D01*
X136573550Y-124067685D01*
X136573554Y-124067687D01*
X136727311Y-124149873D01*
X136756046Y-124165232D01*
X136756050Y-124165233D01*
X136756052Y-124165234D01*
X136797794Y-124177896D01*
X136954066Y-124225300D01*
X137160000Y-124245583D01*
X137365934Y-124225300D01*
X137563954Y-124165232D01*
X137746450Y-124067685D01*
X137906410Y-123936410D01*
X138037685Y-123776450D01*
X138135232Y-123593954D01*
X138195300Y-123395934D01*
X138215583Y-123190000D01*
X138644417Y-123190000D01*
X138664699Y-123395932D01*
X138724765Y-123593947D01*
X138724770Y-123593959D01*
X138822312Y-123776445D01*
X138822315Y-123776450D01*
X138953590Y-123936410D01*
X139113550Y-124067685D01*
X139113554Y-124067687D01*
X139267311Y-124149873D01*
X139296046Y-124165232D01*
X139296050Y-124165233D01*
X139296052Y-124165234D01*
X139337794Y-124177896D01*
X139494066Y-124225300D01*
X139700000Y-124245583D01*
X139905934Y-124225300D01*
X140103954Y-124165232D01*
X140286450Y-124067685D01*
X140446410Y-123936410D01*
X140577685Y-123776450D01*
X140675232Y-123593954D01*
X140735300Y-123395934D01*
X140755583Y-123190000D01*
X141184417Y-123190000D01*
X141204699Y-123395932D01*
X141264765Y-123593947D01*
X141264770Y-123593959D01*
X141362312Y-123776445D01*
X141362315Y-123776450D01*
X141493590Y-123936410D01*
X141653550Y-124067685D01*
X141653554Y-124067687D01*
X141807311Y-124149873D01*
X141836046Y-124165232D01*
X141836050Y-124165233D01*
X141836052Y-124165234D01*
X141877794Y-124177896D01*
X142034066Y-124225300D01*
X142240000Y-124245583D01*
X142445934Y-124225300D01*
X142643954Y-124165232D01*
X142826450Y-124067685D01*
X142986410Y-123936410D01*
X143117685Y-123776450D01*
X143215232Y-123593954D01*
X143275300Y-123395934D01*
X143295583Y-123190000D01*
X143724417Y-123190000D01*
X143744699Y-123395932D01*
X143804765Y-123593947D01*
X143804770Y-123593959D01*
X143902312Y-123776445D01*
X143902315Y-123776450D01*
X144033590Y-123936410D01*
X144193550Y-124067685D01*
X144193554Y-124067687D01*
X144347311Y-124149873D01*
X144376046Y-124165232D01*
X144376050Y-124165233D01*
X144376052Y-124165234D01*
X144417794Y-124177896D01*
X144574066Y-124225300D01*
X144780000Y-124245583D01*
X144985934Y-124225300D01*
X145183954Y-124165232D01*
X145366450Y-124067685D01*
X145526410Y-123936410D01*
X145657685Y-123776450D01*
X145755232Y-123593954D01*
X145815300Y-123395934D01*
X145835583Y-123190000D01*
X146264417Y-123190000D01*
X146284699Y-123395932D01*
X146344765Y-123593947D01*
X146344770Y-123593959D01*
X146442312Y-123776445D01*
X146442315Y-123776450D01*
X146573590Y-123936410D01*
X146733550Y-124067685D01*
X146733554Y-124067687D01*
X146887311Y-124149873D01*
X146916046Y-124165232D01*
X146916050Y-124165233D01*
X146916052Y-124165234D01*
X146957794Y-124177896D01*
X147114066Y-124225300D01*
X147320000Y-124245583D01*
X147525934Y-124225300D01*
X147723954Y-124165232D01*
X147906450Y-124067685D01*
X148066410Y-123936410D01*
X148197685Y-123776450D01*
X148295232Y-123593954D01*
X148355300Y-123395934D01*
X148375583Y-123190000D01*
X148804417Y-123190000D01*
X148824699Y-123395932D01*
X148884765Y-123593947D01*
X148884770Y-123593959D01*
X148982312Y-123776445D01*
X148982315Y-123776450D01*
X149113590Y-123936410D01*
X149273550Y-124067685D01*
X149273554Y-124067687D01*
X149427311Y-124149873D01*
X149456046Y-124165232D01*
X149456050Y-124165233D01*
X149456052Y-124165234D01*
X149497794Y-124177896D01*
X149654066Y-124225300D01*
X149860000Y-124245583D01*
X150065934Y-124225300D01*
X150263954Y-124165232D01*
X150446450Y-124067685D01*
X150606410Y-123936410D01*
X150737685Y-123776450D01*
X150835232Y-123593954D01*
X150895300Y-123395934D01*
X150915583Y-123190000D01*
X151344417Y-123190000D01*
X151364699Y-123395932D01*
X151424765Y-123593947D01*
X151424770Y-123593959D01*
X151522312Y-123776445D01*
X151522315Y-123776450D01*
X151653590Y-123936410D01*
X151813550Y-124067685D01*
X151813554Y-124067687D01*
X151967311Y-124149873D01*
X151996046Y-124165232D01*
X151996050Y-124165233D01*
X151996052Y-124165234D01*
X152037794Y-124177896D01*
X152194066Y-124225300D01*
X152400000Y-124245583D01*
X152605934Y-124225300D01*
X152803954Y-124165232D01*
X152986450Y-124067685D01*
X153146410Y-123936410D01*
X153277685Y-123776450D01*
X153375232Y-123593954D01*
X153435300Y-123395934D01*
X153455583Y-123190000D01*
X153435300Y-122984066D01*
X153397598Y-122859778D01*
X153375234Y-122786052D01*
X153375229Y-122786040D01*
X153277687Y-122603554D01*
X153277684Y-122603549D01*
X153146410Y-122443590D01*
X152986450Y-122312315D01*
X152986445Y-122312312D01*
X152803959Y-122214770D01*
X152803947Y-122214765D01*
X152605932Y-122154699D01*
X152400000Y-122134417D01*
X152194067Y-122154699D01*
X151996052Y-122214765D01*
X151996040Y-122214770D01*
X151813554Y-122312312D01*
X151813549Y-122312315D01*
X151653590Y-122443590D01*
X151522315Y-122603549D01*
X151522312Y-122603554D01*
X151424770Y-122786040D01*
X151424765Y-122786052D01*
X151364699Y-122984067D01*
X151344417Y-123190000D01*
X150915583Y-123190000D01*
X150895300Y-122984066D01*
X150857598Y-122859778D01*
X150835234Y-122786052D01*
X150835229Y-122786040D01*
X150737687Y-122603554D01*
X150737684Y-122603549D01*
X150606410Y-122443590D01*
X150446450Y-122312315D01*
X150446445Y-122312312D01*
X150263959Y-122214770D01*
X150263947Y-122214765D01*
X150065932Y-122154699D01*
X149860000Y-122134417D01*
X149654067Y-122154699D01*
X149456052Y-122214765D01*
X149456040Y-122214770D01*
X149273554Y-122312312D01*
X149273549Y-122312315D01*
X149113590Y-122443590D01*
X148982315Y-122603549D01*
X148982312Y-122603554D01*
X148884770Y-122786040D01*
X148884765Y-122786052D01*
X148824699Y-122984067D01*
X148804417Y-123190000D01*
X148375583Y-123190000D01*
X148355300Y-122984066D01*
X148317598Y-122859778D01*
X148295234Y-122786052D01*
X148295229Y-122786040D01*
X148197687Y-122603554D01*
X148197684Y-122603549D01*
X148066410Y-122443590D01*
X147906450Y-122312315D01*
X147906445Y-122312312D01*
X147723959Y-122214770D01*
X147723947Y-122214765D01*
X147525932Y-122154699D01*
X147320000Y-122134417D01*
X147114067Y-122154699D01*
X146916052Y-122214765D01*
X146916040Y-122214770D01*
X146733554Y-122312312D01*
X146733549Y-122312315D01*
X146573590Y-122443590D01*
X146442315Y-122603549D01*
X146442312Y-122603554D01*
X146344770Y-122786040D01*
X146344765Y-122786052D01*
X146284699Y-122984067D01*
X146264417Y-123190000D01*
X145835583Y-123190000D01*
X145815300Y-122984066D01*
X145777598Y-122859778D01*
X145755234Y-122786052D01*
X145755229Y-122786040D01*
X145657687Y-122603554D01*
X145657684Y-122603549D01*
X145526410Y-122443590D01*
X145366450Y-122312315D01*
X145366445Y-122312312D01*
X145183959Y-122214770D01*
X145183947Y-122214765D01*
X144985932Y-122154699D01*
X144780000Y-122134417D01*
X144574067Y-122154699D01*
X144376052Y-122214765D01*
X144376040Y-122214770D01*
X144193554Y-122312312D01*
X144193549Y-122312315D01*
X144033590Y-122443590D01*
X143902315Y-122603549D01*
X143902312Y-122603554D01*
X143804770Y-122786040D01*
X143804765Y-122786052D01*
X143744699Y-122984067D01*
X143724417Y-123190000D01*
X143295583Y-123190000D01*
X143275300Y-122984066D01*
X143237598Y-122859778D01*
X143215234Y-122786052D01*
X143215229Y-122786040D01*
X143117687Y-122603554D01*
X143117684Y-122603549D01*
X142986410Y-122443590D01*
X142826450Y-122312315D01*
X142826445Y-122312312D01*
X142643959Y-122214770D01*
X142643947Y-122214765D01*
X142445932Y-122154699D01*
X142240000Y-122134417D01*
X142034067Y-122154699D01*
X141836052Y-122214765D01*
X141836040Y-122214770D01*
X141653554Y-122312312D01*
X141653549Y-122312315D01*
X141493590Y-122443590D01*
X141362315Y-122603549D01*
X141362312Y-122603554D01*
X141264770Y-122786040D01*
X141264765Y-122786052D01*
X141204699Y-122984067D01*
X141184417Y-123190000D01*
X140755583Y-123190000D01*
X140735300Y-122984066D01*
X140697598Y-122859778D01*
X140675234Y-122786052D01*
X140675229Y-122786040D01*
X140577687Y-122603554D01*
X140577684Y-122603549D01*
X140446410Y-122443590D01*
X140286450Y-122312315D01*
X140286445Y-122312312D01*
X140103959Y-122214770D01*
X140103947Y-122214765D01*
X139905932Y-122154699D01*
X139700000Y-122134417D01*
X139494067Y-122154699D01*
X139296052Y-122214765D01*
X139296040Y-122214770D01*
X139113554Y-122312312D01*
X139113549Y-122312315D01*
X138953590Y-122443590D01*
X138822315Y-122603549D01*
X138822312Y-122603554D01*
X138724770Y-122786040D01*
X138724765Y-122786052D01*
X138664699Y-122984067D01*
X138644417Y-123190000D01*
X138215583Y-123190000D01*
X138195300Y-122984066D01*
X138157598Y-122859778D01*
X138135234Y-122786052D01*
X138135229Y-122786040D01*
X138037687Y-122603554D01*
X138037684Y-122603549D01*
X137906410Y-122443590D01*
X137746450Y-122312315D01*
X137746445Y-122312312D01*
X137563959Y-122214770D01*
X137563947Y-122214765D01*
X137365932Y-122154699D01*
X137160000Y-122134417D01*
X136954067Y-122154699D01*
X136756052Y-122214765D01*
X136756040Y-122214770D01*
X136573554Y-122312312D01*
X136573549Y-122312315D01*
X136413590Y-122443590D01*
X136282315Y-122603549D01*
X136282312Y-122603554D01*
X136184770Y-122786040D01*
X136184765Y-122786052D01*
X136124699Y-122984067D01*
X136104417Y-123190000D01*
X135675583Y-123190000D01*
X135655300Y-122984066D01*
X135617598Y-122859778D01*
X135595234Y-122786052D01*
X135595229Y-122786040D01*
X135497687Y-122603554D01*
X135497684Y-122603549D01*
X135366410Y-122443590D01*
X135206450Y-122312315D01*
X135206445Y-122312312D01*
X135023959Y-122214770D01*
X135023947Y-122214765D01*
X134825932Y-122154699D01*
X134620000Y-122134417D01*
X134414067Y-122154699D01*
X134216052Y-122214765D01*
X134216040Y-122214770D01*
X134033554Y-122312312D01*
X134033549Y-122312315D01*
X133873590Y-122443590D01*
X133742315Y-122603549D01*
X133742312Y-122603554D01*
X133644770Y-122786040D01*
X133644765Y-122786052D01*
X133584699Y-122984067D01*
X133564417Y-123190000D01*
X132580000Y-123190000D01*
X132580000Y-123124174D01*
X132556802Y-123037600D01*
X133082400Y-123037600D01*
X133082400Y-122324987D01*
X133073558Y-122280537D01*
X133073557Y-122280535D01*
X133039873Y-122230126D01*
X132989464Y-122196442D01*
X132989462Y-122196441D01*
X132945013Y-122187600D01*
X132232400Y-122187600D01*
X132232400Y-122713197D01*
X132145826Y-122690000D01*
X132014174Y-122690000D01*
X131927600Y-122713197D01*
X131927600Y-122187600D01*
X131214987Y-122187600D01*
X131170537Y-122196441D01*
X131170535Y-122196442D01*
X131120126Y-122230126D01*
X131086442Y-122280535D01*
X131086441Y-122280537D01*
X131077600Y-122324987D01*
X118610500Y-122324987D01*
X118610500Y-111658110D01*
X152079500Y-111658110D01*
X152079500Y-112229998D01*
X152084651Y-112275725D01*
X152084652Y-112275728D01*
X152119448Y-112347981D01*
X152124570Y-112399165D01*
X152110491Y-112427493D01*
X152099852Y-112440834D01*
X152099851Y-112440836D01*
X152099851Y-112440837D01*
X152079500Y-112530000D01*
X152079500Y-112530001D01*
X152079500Y-112530003D01*
X152079500Y-113101889D01*
X152087825Y-113159792D01*
X152128330Y-113297736D01*
X152128335Y-113297750D01*
X152152625Y-113350937D01*
X152152630Y-113350947D01*
X152230359Y-113471897D01*
X152230361Y-113471899D01*
X152268666Y-113516105D01*
X152377327Y-113610259D01*
X152426532Y-113641881D01*
X152557317Y-113701609D01*
X152613439Y-113718088D01*
X152655703Y-113724164D01*
X152701044Y-113748458D01*
X152720162Y-113796213D01*
X152720200Y-113798599D01*
X152720200Y-113870964D01*
X152702607Y-113919302D01*
X152701833Y-113920209D01*
X152609624Y-114026624D01*
X152609622Y-114026627D01*
X152549835Y-114157540D01*
X152529353Y-114300000D01*
X152549835Y-114442459D01*
X152609622Y-114573372D01*
X152609624Y-114573375D01*
X152703872Y-114682143D01*
X152824947Y-114759953D01*
X152963039Y-114800500D01*
X152963042Y-114800500D01*
X153106958Y-114800500D01*
X153106961Y-114800500D01*
X153245053Y-114759953D01*
X153366128Y-114682143D01*
X153460377Y-114573373D01*
X153520165Y-114442457D01*
X153540647Y-114300000D01*
X153520165Y-114157543D01*
X153460377Y-114026627D01*
X153460375Y-114026624D01*
X153368167Y-113920209D01*
X153349809Y-113872157D01*
X153349800Y-113870964D01*
X153349800Y-113798599D01*
X153367393Y-113750261D01*
X153411942Y-113724541D01*
X153414264Y-113724169D01*
X153456561Y-113718088D01*
X153512683Y-113701609D01*
X153643468Y-113641881D01*
X153692673Y-113610259D01*
X153801334Y-113516105D01*
X153839639Y-113471899D01*
X153917371Y-113350945D01*
X153941669Y-113297740D01*
X153982176Y-113159785D01*
X153990500Y-113101889D01*
X153990500Y-112530000D01*
X153985348Y-112484272D01*
X153950550Y-112412016D01*
X153945428Y-112360834D01*
X153959509Y-112332504D01*
X153970149Y-112319163D01*
X153990500Y-112230000D01*
X153990500Y-112120000D01*
X154008093Y-112071662D01*
X154052642Y-112045942D01*
X154065700Y-112044800D01*
X154544300Y-112044800D01*
X154592638Y-112062393D01*
X154618358Y-112106942D01*
X154619500Y-112120000D01*
X154619500Y-112229998D01*
X154624651Y-112275725D01*
X154624652Y-112275728D01*
X154659448Y-112347981D01*
X154664570Y-112399165D01*
X154650491Y-112427493D01*
X154639852Y-112440834D01*
X154639851Y-112440836D01*
X154639851Y-112440837D01*
X154619500Y-112530000D01*
X154619500Y-112530001D01*
X154619500Y-112530003D01*
X154619500Y-113101889D01*
X154627825Y-113159792D01*
X154668330Y-113297736D01*
X154668335Y-113297750D01*
X154692625Y-113350937D01*
X154692630Y-113350947D01*
X154770359Y-113471897D01*
X154770361Y-113471899D01*
X154808666Y-113516105D01*
X154917327Y-113610259D01*
X154966532Y-113641881D01*
X155097317Y-113701609D01*
X155153439Y-113718088D01*
X155195703Y-113724164D01*
X155241044Y-113748458D01*
X155260162Y-113796213D01*
X155260200Y-113798599D01*
X155260200Y-113870964D01*
X155242607Y-113919302D01*
X155241833Y-113920209D01*
X155149624Y-114026624D01*
X155149622Y-114026627D01*
X155089835Y-114157540D01*
X155069353Y-114300000D01*
X155089835Y-114442459D01*
X155149622Y-114573372D01*
X155149624Y-114573375D01*
X155243872Y-114682143D01*
X155364947Y-114759953D01*
X155503039Y-114800500D01*
X155599157Y-114800500D01*
X155647495Y-114818093D01*
X155652331Y-114822526D01*
X155978874Y-115149069D01*
X156000614Y-115195689D01*
X156000900Y-115202243D01*
X156000900Y-122646105D01*
X155983307Y-122694443D01*
X155938758Y-122720163D01*
X155888100Y-122711230D01*
X155859380Y-122681554D01*
X155817687Y-122603554D01*
X155817684Y-122603549D01*
X155686410Y-122443590D01*
X155526450Y-122312315D01*
X155526445Y-122312312D01*
X155343959Y-122214770D01*
X155343947Y-122214765D01*
X155145932Y-122154699D01*
X154940000Y-122134417D01*
X154734067Y-122154699D01*
X154536052Y-122214765D01*
X154536040Y-122214770D01*
X154353554Y-122312312D01*
X154353549Y-122312315D01*
X154193590Y-122443590D01*
X154062315Y-122603549D01*
X154062312Y-122603554D01*
X153964770Y-122786040D01*
X153964765Y-122786052D01*
X153904699Y-122984067D01*
X153884417Y-123190000D01*
X153904699Y-123395932D01*
X153964765Y-123593947D01*
X153964770Y-123593959D01*
X154062312Y-123776445D01*
X154062315Y-123776450D01*
X154193590Y-123936410D01*
X154353550Y-124067685D01*
X154353554Y-124067687D01*
X154507311Y-124149873D01*
X154536046Y-124165232D01*
X154536050Y-124165233D01*
X154536052Y-124165234D01*
X154577794Y-124177896D01*
X154734066Y-124225300D01*
X154940000Y-124245583D01*
X155145934Y-124225300D01*
X155343954Y-124165232D01*
X155526450Y-124067685D01*
X155686410Y-123936410D01*
X155817685Y-123776450D01*
X155861215Y-123695012D01*
X155899517Y-123660675D01*
X155950929Y-123658992D01*
X155991395Y-123690750D01*
X156000173Y-123710998D01*
X156016773Y-123772951D01*
X156022352Y-123793775D01*
X156022356Y-123793784D01*
X156063796Y-123865561D01*
X156924165Y-124725930D01*
X156945905Y-124772550D01*
X156932591Y-124822237D01*
X156906442Y-124845423D01*
X156893555Y-124852311D01*
X156893549Y-124852315D01*
X156733590Y-124983590D01*
X156602315Y-125143549D01*
X156602312Y-125143554D01*
X156504770Y-125326040D01*
X156504765Y-125326052D01*
X156444699Y-125524067D01*
X156424417Y-125730000D01*
X156444699Y-125935932D01*
X156504765Y-126133947D01*
X156504770Y-126133959D01*
X156602312Y-126316445D01*
X156602315Y-126316450D01*
X156733590Y-126476410D01*
X156893550Y-126607685D01*
X157076046Y-126705232D01*
X157076050Y-126705233D01*
X157076052Y-126705234D01*
X157149778Y-126727598D01*
X157274066Y-126765300D01*
X157480000Y-126785583D01*
X157685934Y-126765300D01*
X157883954Y-126705232D01*
X158066450Y-126607685D01*
X158226410Y-126476410D01*
X158357685Y-126316450D01*
X158455232Y-126133954D01*
X158515300Y-125935934D01*
X158535583Y-125730000D01*
X158515300Y-125524066D01*
X158455232Y-125326046D01*
X158357685Y-125143550D01*
X158226410Y-124983590D01*
X158226407Y-124983586D01*
X158195388Y-124958130D01*
X158169183Y-124913865D01*
X158177563Y-124863113D01*
X158216605Y-124829620D01*
X158243094Y-124824800D01*
X158638457Y-124824800D01*
X158686795Y-124842393D01*
X158691631Y-124846826D01*
X159049248Y-125204443D01*
X159070988Y-125251063D01*
X159062396Y-125293064D01*
X159044766Y-125326048D01*
X158984699Y-125524067D01*
X158964417Y-125730000D01*
X158984699Y-125935932D01*
X159044765Y-126133947D01*
X159044770Y-126133959D01*
X159142312Y-126316445D01*
X159142315Y-126316450D01*
X159273590Y-126476410D01*
X159433550Y-126607685D01*
X159616046Y-126705232D01*
X159616050Y-126705233D01*
X159616052Y-126705234D01*
X159689778Y-126727598D01*
X159814066Y-126765300D01*
X160020000Y-126785583D01*
X160225934Y-126765300D01*
X160423954Y-126705232D01*
X160606450Y-126607685D01*
X160766410Y-126476410D01*
X160897685Y-126316450D01*
X160995232Y-126133954D01*
X161055300Y-125935934D01*
X161075583Y-125730000D01*
X161504417Y-125730000D01*
X161524699Y-125935932D01*
X161584765Y-126133947D01*
X161584770Y-126133959D01*
X161682312Y-126316445D01*
X161682315Y-126316450D01*
X161813590Y-126476410D01*
X161973550Y-126607685D01*
X162156046Y-126705232D01*
X162156050Y-126705233D01*
X162156052Y-126705234D01*
X162229778Y-126727598D01*
X162354066Y-126765300D01*
X162560000Y-126785583D01*
X162765934Y-126765300D01*
X162963954Y-126705232D01*
X163146450Y-126607685D01*
X163306410Y-126476410D01*
X163437685Y-126316450D01*
X163535232Y-126133954D01*
X163595300Y-125935934D01*
X163615583Y-125730000D01*
X164044417Y-125730000D01*
X164064699Y-125935932D01*
X164124765Y-126133947D01*
X164124770Y-126133959D01*
X164222312Y-126316445D01*
X164222315Y-126316450D01*
X164353590Y-126476410D01*
X164513550Y-126607685D01*
X164696046Y-126705232D01*
X164696050Y-126705233D01*
X164696052Y-126705234D01*
X164769778Y-126727598D01*
X164894066Y-126765300D01*
X165100000Y-126785583D01*
X165305934Y-126765300D01*
X165503954Y-126705232D01*
X165686450Y-126607685D01*
X165846410Y-126476410D01*
X165977685Y-126316450D01*
X166075232Y-126133954D01*
X166135300Y-125935934D01*
X166155583Y-125730000D01*
X166584417Y-125730000D01*
X166604699Y-125935932D01*
X166664765Y-126133947D01*
X166664770Y-126133959D01*
X166762312Y-126316445D01*
X166762315Y-126316450D01*
X166893590Y-126476410D01*
X167053550Y-126607685D01*
X167236046Y-126705232D01*
X167236050Y-126705233D01*
X167236052Y-126705234D01*
X167309778Y-126727598D01*
X167434066Y-126765300D01*
X167640000Y-126785583D01*
X167845934Y-126765300D01*
X168043954Y-126705232D01*
X168226450Y-126607685D01*
X168386410Y-126476410D01*
X168517685Y-126316450D01*
X168615232Y-126133954D01*
X168675300Y-125935934D01*
X168695583Y-125730000D01*
X169124417Y-125730000D01*
X169144699Y-125935932D01*
X169204765Y-126133947D01*
X169204770Y-126133959D01*
X169302312Y-126316445D01*
X169302315Y-126316450D01*
X169433590Y-126476410D01*
X169593550Y-126607685D01*
X169776046Y-126705232D01*
X169776050Y-126705233D01*
X169776052Y-126705234D01*
X169849778Y-126727598D01*
X169974066Y-126765300D01*
X170180000Y-126785583D01*
X170385934Y-126765300D01*
X170583954Y-126705232D01*
X170766450Y-126607685D01*
X170926410Y-126476410D01*
X171057685Y-126316450D01*
X171155232Y-126133954D01*
X171215300Y-125935934D01*
X171235583Y-125730000D01*
X171664417Y-125730000D01*
X171684699Y-125935932D01*
X171744765Y-126133947D01*
X171744770Y-126133959D01*
X171842312Y-126316445D01*
X171842315Y-126316450D01*
X171973590Y-126476410D01*
X172133550Y-126607685D01*
X172316046Y-126705232D01*
X172316050Y-126705233D01*
X172316052Y-126705234D01*
X172389778Y-126727598D01*
X172514066Y-126765300D01*
X172720000Y-126785583D01*
X172925934Y-126765300D01*
X173123954Y-126705232D01*
X173306450Y-126607685D01*
X173466410Y-126476410D01*
X173597685Y-126316450D01*
X173695232Y-126133954D01*
X173755300Y-125935934D01*
X173775583Y-125730000D01*
X174204417Y-125730000D01*
X174224699Y-125935932D01*
X174284765Y-126133947D01*
X174284770Y-126133959D01*
X174382312Y-126316445D01*
X174382315Y-126316450D01*
X174513590Y-126476410D01*
X174673550Y-126607685D01*
X174856046Y-126705232D01*
X174856050Y-126705233D01*
X174856052Y-126705234D01*
X174929778Y-126727598D01*
X175054066Y-126765300D01*
X175260000Y-126785583D01*
X175465934Y-126765300D01*
X175663954Y-126705232D01*
X175846450Y-126607685D01*
X176006410Y-126476410D01*
X176137685Y-126316450D01*
X176235232Y-126133954D01*
X176295300Y-125935934D01*
X176315583Y-125730000D01*
X176744417Y-125730000D01*
X176764699Y-125935932D01*
X176824765Y-126133947D01*
X176824770Y-126133959D01*
X176922312Y-126316445D01*
X176922315Y-126316450D01*
X177053590Y-126476410D01*
X177213550Y-126607685D01*
X177396046Y-126705232D01*
X177396050Y-126705233D01*
X177396052Y-126705234D01*
X177469778Y-126727598D01*
X177594066Y-126765300D01*
X177800000Y-126785583D01*
X178005934Y-126765300D01*
X178203954Y-126705232D01*
X178386450Y-126607685D01*
X178546410Y-126476410D01*
X178677685Y-126316450D01*
X178775232Y-126133954D01*
X178835300Y-125935934D01*
X178855583Y-125730000D01*
X179284417Y-125730000D01*
X179304699Y-125935932D01*
X179364765Y-126133947D01*
X179364770Y-126133959D01*
X179462312Y-126316445D01*
X179462315Y-126316450D01*
X179593590Y-126476410D01*
X179753550Y-126607685D01*
X179936046Y-126705232D01*
X179936050Y-126705233D01*
X179936052Y-126705234D01*
X180009778Y-126727598D01*
X180134066Y-126765300D01*
X180340000Y-126785583D01*
X180545934Y-126765300D01*
X180743954Y-126705232D01*
X180926450Y-126607685D01*
X181086410Y-126476410D01*
X181217685Y-126316450D01*
X181315232Y-126133954D01*
X181375300Y-125935934D01*
X181395583Y-125730000D01*
X181375300Y-125524066D01*
X181315232Y-125326046D01*
X181217685Y-125143550D01*
X181086410Y-124983590D01*
X180926450Y-124852315D01*
X180926445Y-124852312D01*
X180743959Y-124754770D01*
X180743947Y-124754765D01*
X180545932Y-124694699D01*
X180340000Y-124674417D01*
X180134067Y-124694699D01*
X179936052Y-124754765D01*
X179936040Y-124754770D01*
X179753554Y-124852312D01*
X179753549Y-124852315D01*
X179593590Y-124983590D01*
X179462315Y-125143549D01*
X179462312Y-125143554D01*
X179364770Y-125326040D01*
X179364765Y-125326052D01*
X179304699Y-125524067D01*
X179284417Y-125730000D01*
X178855583Y-125730000D01*
X178835300Y-125524066D01*
X178775232Y-125326046D01*
X178677685Y-125143550D01*
X178546410Y-124983590D01*
X178386450Y-124852315D01*
X178386445Y-124852312D01*
X178203959Y-124754770D01*
X178203947Y-124754765D01*
X178005932Y-124694699D01*
X177800000Y-124674417D01*
X177594067Y-124694699D01*
X177396052Y-124754765D01*
X177396040Y-124754770D01*
X177213554Y-124852312D01*
X177213549Y-124852315D01*
X177053590Y-124983590D01*
X176922315Y-125143549D01*
X176922312Y-125143554D01*
X176824770Y-125326040D01*
X176824765Y-125326052D01*
X176764699Y-125524067D01*
X176744417Y-125730000D01*
X176315583Y-125730000D01*
X176295300Y-125524066D01*
X176235232Y-125326046D01*
X176137685Y-125143550D01*
X176006410Y-124983590D01*
X175846450Y-124852315D01*
X175846445Y-124852312D01*
X175663959Y-124754770D01*
X175663947Y-124754765D01*
X175465932Y-124694699D01*
X175260000Y-124674417D01*
X175054067Y-124694699D01*
X174856052Y-124754765D01*
X174856040Y-124754770D01*
X174673554Y-124852312D01*
X174673549Y-124852315D01*
X174513590Y-124983590D01*
X174382315Y-125143549D01*
X174382312Y-125143554D01*
X174284770Y-125326040D01*
X174284765Y-125326052D01*
X174224699Y-125524067D01*
X174204417Y-125730000D01*
X173775583Y-125730000D01*
X173755300Y-125524066D01*
X173695232Y-125326046D01*
X173597685Y-125143550D01*
X173466410Y-124983590D01*
X173306450Y-124852315D01*
X173306445Y-124852312D01*
X173123959Y-124754770D01*
X173123947Y-124754765D01*
X172925932Y-124694699D01*
X172720000Y-124674417D01*
X172514067Y-124694699D01*
X172316052Y-124754765D01*
X172316040Y-124754770D01*
X172133554Y-124852312D01*
X172133549Y-124852315D01*
X171973590Y-124983590D01*
X171842315Y-125143549D01*
X171842312Y-125143554D01*
X171744770Y-125326040D01*
X171744765Y-125326052D01*
X171684699Y-125524067D01*
X171664417Y-125730000D01*
X171235583Y-125730000D01*
X171215300Y-125524066D01*
X171155232Y-125326046D01*
X171057685Y-125143550D01*
X170926410Y-124983590D01*
X170766450Y-124852315D01*
X170766445Y-124852312D01*
X170583959Y-124754770D01*
X170583947Y-124754765D01*
X170385932Y-124694699D01*
X170180000Y-124674417D01*
X169974067Y-124694699D01*
X169776052Y-124754765D01*
X169776040Y-124754770D01*
X169593554Y-124852312D01*
X169593549Y-124852315D01*
X169433590Y-124983590D01*
X169302315Y-125143549D01*
X169302312Y-125143554D01*
X169204770Y-125326040D01*
X169204765Y-125326052D01*
X169144699Y-125524067D01*
X169124417Y-125730000D01*
X168695583Y-125730000D01*
X168675300Y-125524066D01*
X168615232Y-125326046D01*
X168517685Y-125143550D01*
X168386410Y-124983590D01*
X168226450Y-124852315D01*
X168226445Y-124852312D01*
X168043959Y-124754770D01*
X168043947Y-124754765D01*
X167845932Y-124694699D01*
X167640000Y-124674417D01*
X167434067Y-124694699D01*
X167236052Y-124754765D01*
X167236040Y-124754770D01*
X167053554Y-124852312D01*
X167053549Y-124852315D01*
X166893590Y-124983590D01*
X166762315Y-125143549D01*
X166762312Y-125143554D01*
X166664770Y-125326040D01*
X166664765Y-125326052D01*
X166604699Y-125524067D01*
X166584417Y-125730000D01*
X166155583Y-125730000D01*
X166135300Y-125524066D01*
X166075232Y-125326046D01*
X165977685Y-125143550D01*
X165846410Y-124983590D01*
X165686450Y-124852315D01*
X165686445Y-124852312D01*
X165503959Y-124754770D01*
X165503947Y-124754765D01*
X165305932Y-124694699D01*
X165100000Y-124674417D01*
X164894067Y-124694699D01*
X164696052Y-124754765D01*
X164696040Y-124754770D01*
X164513554Y-124852312D01*
X164513549Y-124852315D01*
X164353590Y-124983590D01*
X164222315Y-125143549D01*
X164222312Y-125143554D01*
X164124770Y-125326040D01*
X164124765Y-125326052D01*
X164064699Y-125524067D01*
X164044417Y-125730000D01*
X163615583Y-125730000D01*
X163595300Y-125524066D01*
X163535232Y-125326046D01*
X163437685Y-125143550D01*
X163306410Y-124983590D01*
X163146450Y-124852315D01*
X163146445Y-124852312D01*
X162963959Y-124754770D01*
X162963947Y-124754765D01*
X162765932Y-124694699D01*
X162560000Y-124674417D01*
X162354067Y-124694699D01*
X162156052Y-124754765D01*
X162156040Y-124754770D01*
X161973554Y-124852312D01*
X161973549Y-124852315D01*
X161813590Y-124983590D01*
X161682315Y-125143549D01*
X161682312Y-125143554D01*
X161584770Y-125326040D01*
X161584765Y-125326052D01*
X161524699Y-125524067D01*
X161504417Y-125730000D01*
X161075583Y-125730000D01*
X161055300Y-125524066D01*
X160995232Y-125326046D01*
X160897685Y-125143550D01*
X160766410Y-124983590D01*
X160606450Y-124852315D01*
X160606445Y-124852312D01*
X160423959Y-124754770D01*
X160423947Y-124754765D01*
X160225932Y-124694699D01*
X160020000Y-124674417D01*
X159814067Y-124694699D01*
X159616048Y-124754766D01*
X159583064Y-124772396D01*
X159532140Y-124779664D01*
X159494443Y-124759248D01*
X158993292Y-124258096D01*
X158936486Y-124225300D01*
X158921509Y-124216653D01*
X158921505Y-124216652D01*
X158921501Y-124216650D01*
X158904590Y-124212118D01*
X158904590Y-124212119D01*
X158873016Y-124203659D01*
X158841444Y-124195200D01*
X158841443Y-124195200D01*
X158121243Y-124195200D01*
X158072905Y-124177607D01*
X158047185Y-124133058D01*
X158056118Y-124082400D01*
X158073537Y-124061870D01*
X158181650Y-123973142D01*
X158226410Y-123936410D01*
X158357685Y-123776450D01*
X158455232Y-123593954D01*
X158515300Y-123395934D01*
X158535583Y-123190000D01*
X158964417Y-123190000D01*
X158984699Y-123395932D01*
X159044765Y-123593947D01*
X159044770Y-123593959D01*
X159142312Y-123776445D01*
X159142315Y-123776450D01*
X159273590Y-123936410D01*
X159433550Y-124067685D01*
X159433554Y-124067687D01*
X159587311Y-124149873D01*
X159616046Y-124165232D01*
X159616050Y-124165233D01*
X159616052Y-124165234D01*
X159657794Y-124177896D01*
X159814066Y-124225300D01*
X160020000Y-124245583D01*
X160225934Y-124225300D01*
X160423954Y-124165232D01*
X160606450Y-124067685D01*
X160766410Y-123936410D01*
X160897685Y-123776450D01*
X160995232Y-123593954D01*
X161055300Y-123395934D01*
X161075583Y-123190000D01*
X161504417Y-123190000D01*
X161524699Y-123395932D01*
X161584765Y-123593947D01*
X161584770Y-123593959D01*
X161682312Y-123776445D01*
X161682315Y-123776450D01*
X161813590Y-123936410D01*
X161973550Y-124067685D01*
X161973554Y-124067687D01*
X162127311Y-124149873D01*
X162156046Y-124165232D01*
X162156050Y-124165233D01*
X162156052Y-124165234D01*
X162197794Y-124177896D01*
X162354066Y-124225300D01*
X162560000Y-124245583D01*
X162765934Y-124225300D01*
X162963954Y-124165232D01*
X163146450Y-124067685D01*
X163306410Y-123936410D01*
X163437685Y-123776450D01*
X163535232Y-123593954D01*
X163595300Y-123395934D01*
X163615583Y-123190000D01*
X164044417Y-123190000D01*
X164064699Y-123395932D01*
X164124765Y-123593947D01*
X164124770Y-123593959D01*
X164222312Y-123776445D01*
X164222315Y-123776450D01*
X164353590Y-123936410D01*
X164513550Y-124067685D01*
X164513554Y-124067687D01*
X164667311Y-124149873D01*
X164696046Y-124165232D01*
X164696050Y-124165233D01*
X164696052Y-124165234D01*
X164737794Y-124177896D01*
X164894066Y-124225300D01*
X165100000Y-124245583D01*
X165305934Y-124225300D01*
X165503954Y-124165232D01*
X165686450Y-124067685D01*
X165846410Y-123936410D01*
X165977685Y-123776450D01*
X166075232Y-123593954D01*
X166135300Y-123395934D01*
X166155583Y-123190000D01*
X166584417Y-123190000D01*
X166604699Y-123395932D01*
X166664765Y-123593947D01*
X166664770Y-123593959D01*
X166762312Y-123776445D01*
X166762315Y-123776450D01*
X166893590Y-123936410D01*
X167053550Y-124067685D01*
X167053554Y-124067687D01*
X167207311Y-124149873D01*
X167236046Y-124165232D01*
X167236050Y-124165233D01*
X167236052Y-124165234D01*
X167277794Y-124177896D01*
X167434066Y-124225300D01*
X167640000Y-124245583D01*
X167845934Y-124225300D01*
X168043954Y-124165232D01*
X168226450Y-124067685D01*
X168386410Y-123936410D01*
X168517685Y-123776450D01*
X168615232Y-123593954D01*
X168675300Y-123395934D01*
X168695583Y-123190000D01*
X169124417Y-123190000D01*
X169144699Y-123395932D01*
X169204765Y-123593947D01*
X169204770Y-123593959D01*
X169302312Y-123776445D01*
X169302315Y-123776450D01*
X169433590Y-123936410D01*
X169593550Y-124067685D01*
X169593554Y-124067687D01*
X169747311Y-124149873D01*
X169776046Y-124165232D01*
X169776050Y-124165233D01*
X169776052Y-124165234D01*
X169817794Y-124177896D01*
X169974066Y-124225300D01*
X170180000Y-124245583D01*
X170385934Y-124225300D01*
X170583954Y-124165232D01*
X170766450Y-124067685D01*
X170926410Y-123936410D01*
X171057685Y-123776450D01*
X171155232Y-123593954D01*
X171215300Y-123395934D01*
X171235583Y-123190000D01*
X171664417Y-123190000D01*
X171684699Y-123395932D01*
X171744765Y-123593947D01*
X171744770Y-123593959D01*
X171842312Y-123776445D01*
X171842315Y-123776450D01*
X171973590Y-123936410D01*
X172133550Y-124067685D01*
X172133554Y-124067687D01*
X172287311Y-124149873D01*
X172316046Y-124165232D01*
X172316050Y-124165233D01*
X172316052Y-124165234D01*
X172357794Y-124177896D01*
X172514066Y-124225300D01*
X172720000Y-124245583D01*
X172925934Y-124225300D01*
X173123954Y-124165232D01*
X173306450Y-124067685D01*
X173466410Y-123936410D01*
X173597685Y-123776450D01*
X173695232Y-123593954D01*
X173755300Y-123395934D01*
X173775583Y-123190000D01*
X174204417Y-123190000D01*
X174224699Y-123395932D01*
X174284765Y-123593947D01*
X174284770Y-123593959D01*
X174382312Y-123776445D01*
X174382315Y-123776450D01*
X174513590Y-123936410D01*
X174673550Y-124067685D01*
X174673554Y-124067687D01*
X174827311Y-124149873D01*
X174856046Y-124165232D01*
X174856050Y-124165233D01*
X174856052Y-124165234D01*
X174897794Y-124177896D01*
X175054066Y-124225300D01*
X175260000Y-124245583D01*
X175465934Y-124225300D01*
X175663954Y-124165232D01*
X175846450Y-124067685D01*
X176006410Y-123936410D01*
X176137685Y-123776450D01*
X176235232Y-123593954D01*
X176295300Y-123395934D01*
X176315583Y-123190000D01*
X176300573Y-123037599D01*
X176807760Y-123037599D01*
X176807760Y-123037600D01*
X177323198Y-123037600D01*
X177300000Y-123124174D01*
X177300000Y-123255826D01*
X177323198Y-123342400D01*
X176807760Y-123342400D01*
X176812103Y-123386503D01*
X176869419Y-123575451D01*
X176869424Y-123575463D01*
X176962499Y-123749593D01*
X176962503Y-123749599D01*
X177087766Y-123902233D01*
X177240400Y-124027496D01*
X177240406Y-124027500D01*
X177414536Y-124120575D01*
X177414548Y-124120580D01*
X177603490Y-124177894D01*
X177603502Y-124177896D01*
X177647600Y-124182239D01*
X177647600Y-123666802D01*
X177734174Y-123690000D01*
X177865826Y-123690000D01*
X177952400Y-123666802D01*
X177952400Y-124182239D01*
X177996497Y-124177896D01*
X177996509Y-124177894D01*
X178185451Y-124120580D01*
X178185463Y-124120575D01*
X178359593Y-124027500D01*
X178359599Y-124027496D01*
X178512233Y-123902233D01*
X178637496Y-123749599D01*
X178637500Y-123749593D01*
X178730575Y-123575463D01*
X178730580Y-123575451D01*
X178787896Y-123386503D01*
X178792239Y-123342400D01*
X178276802Y-123342400D01*
X178300000Y-123255826D01*
X178300000Y-123124174D01*
X178276802Y-123037600D01*
X178792240Y-123037600D01*
X178792239Y-123037599D01*
X179347760Y-123037599D01*
X179347760Y-123037600D01*
X179863198Y-123037600D01*
X179840000Y-123124174D01*
X179840000Y-123255826D01*
X179863198Y-123342400D01*
X179347760Y-123342400D01*
X179352103Y-123386503D01*
X179409419Y-123575451D01*
X179409424Y-123575463D01*
X179502499Y-123749593D01*
X179502503Y-123749599D01*
X179627766Y-123902233D01*
X179780400Y-124027496D01*
X179780406Y-124027500D01*
X179954536Y-124120575D01*
X179954548Y-124120580D01*
X180143490Y-124177894D01*
X180143502Y-124177896D01*
X180187599Y-124182239D01*
X180187600Y-124182239D01*
X180187600Y-123666802D01*
X180274174Y-123690000D01*
X180405826Y-123690000D01*
X180492400Y-123666802D01*
X180492400Y-124182239D01*
X180536497Y-124177896D01*
X180536509Y-124177894D01*
X180725451Y-124120580D01*
X180725463Y-124120575D01*
X180899593Y-124027500D01*
X180899599Y-124027496D01*
X181052233Y-123902233D01*
X181177496Y-123749599D01*
X181177500Y-123749593D01*
X181270575Y-123575463D01*
X181270580Y-123575451D01*
X181327896Y-123386503D01*
X181332239Y-123342400D01*
X180816802Y-123342400D01*
X180840000Y-123255826D01*
X180840000Y-123124174D01*
X180816802Y-123037600D01*
X181332240Y-123037600D01*
X181332239Y-123037599D01*
X181327896Y-122993496D01*
X181270580Y-122804548D01*
X181270575Y-122804536D01*
X181177500Y-122630406D01*
X181177496Y-122630400D01*
X181052233Y-122477766D01*
X180899599Y-122352503D01*
X180899593Y-122352499D01*
X180725463Y-122259424D01*
X180725451Y-122259419D01*
X180536502Y-122202103D01*
X180536503Y-122202103D01*
X180492400Y-122197760D01*
X180492400Y-122713197D01*
X180405826Y-122690000D01*
X180274174Y-122690000D01*
X180187600Y-122713197D01*
X180187600Y-122197760D01*
X180187599Y-122197760D01*
X180143496Y-122202103D01*
X179954548Y-122259419D01*
X179954536Y-122259424D01*
X179780406Y-122352499D01*
X179780400Y-122352503D01*
X179627766Y-122477766D01*
X179502503Y-122630400D01*
X179502499Y-122630406D01*
X179409424Y-122804536D01*
X179409419Y-122804548D01*
X179352103Y-122993496D01*
X179347760Y-123037599D01*
X178792239Y-123037599D01*
X178787896Y-122993496D01*
X178730580Y-122804548D01*
X178730575Y-122804536D01*
X178637500Y-122630406D01*
X178637496Y-122630400D01*
X178512233Y-122477766D01*
X178359599Y-122352503D01*
X178359593Y-122352499D01*
X178185463Y-122259424D01*
X178185451Y-122259419D01*
X177996502Y-122202103D01*
X177996503Y-122202103D01*
X177952400Y-122197760D01*
X177952400Y-122713197D01*
X177865826Y-122690000D01*
X177734174Y-122690000D01*
X177647600Y-122713197D01*
X177647600Y-122197760D01*
X177647599Y-122197760D01*
X177603496Y-122202103D01*
X177414548Y-122259419D01*
X177414536Y-122259424D01*
X177240406Y-122352499D01*
X177240400Y-122352503D01*
X177087766Y-122477766D01*
X176962503Y-122630400D01*
X176962499Y-122630406D01*
X176869424Y-122804536D01*
X176869419Y-122804548D01*
X176812103Y-122993496D01*
X176807760Y-123037599D01*
X176300573Y-123037599D01*
X176295300Y-122984066D01*
X176257598Y-122859778D01*
X176235234Y-122786052D01*
X176235229Y-122786040D01*
X176137687Y-122603554D01*
X176137684Y-122603549D01*
X176006410Y-122443590D01*
X175846450Y-122312315D01*
X175846445Y-122312312D01*
X175663959Y-122214770D01*
X175663947Y-122214765D01*
X175465932Y-122154699D01*
X175260000Y-122134417D01*
X175054067Y-122154699D01*
X174856052Y-122214765D01*
X174856040Y-122214770D01*
X174673554Y-122312312D01*
X174673549Y-122312315D01*
X174513590Y-122443590D01*
X174382315Y-122603549D01*
X174382312Y-122603554D01*
X174284770Y-122786040D01*
X174284765Y-122786052D01*
X174224699Y-122984067D01*
X174204417Y-123190000D01*
X173775583Y-123190000D01*
X173755300Y-122984066D01*
X173717598Y-122859778D01*
X173695234Y-122786052D01*
X173695229Y-122786040D01*
X173597687Y-122603554D01*
X173597684Y-122603549D01*
X173466410Y-122443590D01*
X173306450Y-122312315D01*
X173306445Y-122312312D01*
X173123959Y-122214770D01*
X173123947Y-122214765D01*
X172925932Y-122154699D01*
X172720000Y-122134417D01*
X172514067Y-122154699D01*
X172316052Y-122214765D01*
X172316040Y-122214770D01*
X172133554Y-122312312D01*
X172133549Y-122312315D01*
X171973590Y-122443590D01*
X171842315Y-122603549D01*
X171842312Y-122603554D01*
X171744770Y-122786040D01*
X171744765Y-122786052D01*
X171684699Y-122984067D01*
X171664417Y-123190000D01*
X171235583Y-123190000D01*
X171215300Y-122984066D01*
X171177598Y-122859778D01*
X171155234Y-122786052D01*
X171155229Y-122786040D01*
X171057687Y-122603554D01*
X171057684Y-122603549D01*
X170926410Y-122443590D01*
X170766450Y-122312315D01*
X170766445Y-122312312D01*
X170583959Y-122214770D01*
X170583947Y-122214765D01*
X170385932Y-122154699D01*
X170180000Y-122134417D01*
X169974067Y-122154699D01*
X169776052Y-122214765D01*
X169776040Y-122214770D01*
X169593554Y-122312312D01*
X169593549Y-122312315D01*
X169433590Y-122443590D01*
X169302315Y-122603549D01*
X169302312Y-122603554D01*
X169204770Y-122786040D01*
X169204765Y-122786052D01*
X169144699Y-122984067D01*
X169124417Y-123190000D01*
X168695583Y-123190000D01*
X168675300Y-122984066D01*
X168637598Y-122859778D01*
X168615234Y-122786052D01*
X168615229Y-122786040D01*
X168517687Y-122603554D01*
X168517684Y-122603549D01*
X168386410Y-122443590D01*
X168226450Y-122312315D01*
X168226445Y-122312312D01*
X168043959Y-122214770D01*
X168043947Y-122214765D01*
X167845932Y-122154699D01*
X167640000Y-122134417D01*
X167434067Y-122154699D01*
X167236052Y-122214765D01*
X167236040Y-122214770D01*
X167053554Y-122312312D01*
X167053549Y-122312315D01*
X166893590Y-122443590D01*
X166762315Y-122603549D01*
X166762312Y-122603554D01*
X166664770Y-122786040D01*
X166664765Y-122786052D01*
X166604699Y-122984067D01*
X166584417Y-123190000D01*
X166155583Y-123190000D01*
X166135300Y-122984066D01*
X166097598Y-122859778D01*
X166075234Y-122786052D01*
X166075229Y-122786040D01*
X165977687Y-122603554D01*
X165977684Y-122603549D01*
X165846410Y-122443590D01*
X165686450Y-122312315D01*
X165686445Y-122312312D01*
X165503959Y-122214770D01*
X165503947Y-122214765D01*
X165305932Y-122154699D01*
X165100000Y-122134417D01*
X164894067Y-122154699D01*
X164696052Y-122214765D01*
X164696040Y-122214770D01*
X164513554Y-122312312D01*
X164513549Y-122312315D01*
X164353590Y-122443590D01*
X164222315Y-122603549D01*
X164222312Y-122603554D01*
X164124770Y-122786040D01*
X164124765Y-122786052D01*
X164064699Y-122984067D01*
X164044417Y-123190000D01*
X163615583Y-123190000D01*
X163595300Y-122984066D01*
X163557598Y-122859778D01*
X163535234Y-122786052D01*
X163535229Y-122786040D01*
X163437687Y-122603554D01*
X163437684Y-122603549D01*
X163306410Y-122443590D01*
X163146450Y-122312315D01*
X163146445Y-122312312D01*
X162963959Y-122214770D01*
X162963947Y-122214765D01*
X162765932Y-122154699D01*
X162560000Y-122134417D01*
X162354067Y-122154699D01*
X162156052Y-122214765D01*
X162156040Y-122214770D01*
X161973554Y-122312312D01*
X161973549Y-122312315D01*
X161813590Y-122443590D01*
X161682315Y-122603549D01*
X161682312Y-122603554D01*
X161584770Y-122786040D01*
X161584765Y-122786052D01*
X161524699Y-122984067D01*
X161504417Y-123190000D01*
X161075583Y-123190000D01*
X161055300Y-122984066D01*
X161017598Y-122859778D01*
X160995234Y-122786052D01*
X160995229Y-122786040D01*
X160897687Y-122603554D01*
X160897684Y-122603549D01*
X160766410Y-122443590D01*
X160606450Y-122312315D01*
X160606445Y-122312312D01*
X160423959Y-122214770D01*
X160423947Y-122214765D01*
X160225932Y-122154699D01*
X160020000Y-122134417D01*
X159814067Y-122154699D01*
X159616052Y-122214765D01*
X159616040Y-122214770D01*
X159433554Y-122312312D01*
X159433549Y-122312315D01*
X159273590Y-122443590D01*
X159142315Y-122603549D01*
X159142312Y-122603554D01*
X159044770Y-122786040D01*
X159044765Y-122786052D01*
X158984699Y-122984067D01*
X158964417Y-123190000D01*
X158535583Y-123190000D01*
X158515300Y-122984066D01*
X158477598Y-122859778D01*
X158455234Y-122786052D01*
X158455229Y-122786040D01*
X158357687Y-122603554D01*
X158357684Y-122603549D01*
X158226410Y-122443590D01*
X158066450Y-122312315D01*
X158066445Y-122312312D01*
X157883959Y-122214770D01*
X157883947Y-122214765D01*
X157685932Y-122154699D01*
X157480000Y-122134417D01*
X157274067Y-122154699D01*
X157076052Y-122214765D01*
X157076040Y-122214770D01*
X156893554Y-122312312D01*
X156893549Y-122312315D01*
X156753406Y-122427327D01*
X156704879Y-122444392D01*
X156656737Y-122426272D01*
X156631504Y-122381445D01*
X156630500Y-122369196D01*
X156630500Y-114999258D01*
X156630500Y-114999256D01*
X156609047Y-114919192D01*
X156609047Y-114919191D01*
X156567603Y-114847407D01*
X156099665Y-114379470D01*
X156077925Y-114332850D01*
X156078405Y-114315591D01*
X156080647Y-114300000D01*
X156060165Y-114157543D01*
X156000377Y-114026627D01*
X156000375Y-114026624D01*
X155908167Y-113920209D01*
X155889809Y-113872157D01*
X155889800Y-113870964D01*
X155889800Y-113798599D01*
X155907393Y-113750261D01*
X155951942Y-113724541D01*
X155954264Y-113724169D01*
X155996561Y-113718088D01*
X156052683Y-113701609D01*
X156183468Y-113641881D01*
X156232673Y-113610259D01*
X156341334Y-113516105D01*
X156379639Y-113471899D01*
X156457371Y-113350945D01*
X156481669Y-113297740D01*
X156522176Y-113159785D01*
X156530500Y-113101889D01*
X156530500Y-112530000D01*
X156525348Y-112484272D01*
X156490550Y-112412016D01*
X156485428Y-112360834D01*
X156499509Y-112332504D01*
X156510149Y-112319163D01*
X156530500Y-112230000D01*
X156530500Y-112120000D01*
X156548093Y-112071662D01*
X156592642Y-112045942D01*
X156605700Y-112044800D01*
X157084300Y-112044800D01*
X157132638Y-112062393D01*
X157158358Y-112106942D01*
X157159500Y-112120000D01*
X157159500Y-112229998D01*
X157164651Y-112275725D01*
X157164652Y-112275728D01*
X157199448Y-112347981D01*
X157204570Y-112399165D01*
X157190491Y-112427493D01*
X157179852Y-112440834D01*
X157179851Y-112440836D01*
X157179851Y-112440837D01*
X157159500Y-112530000D01*
X157159500Y-112530001D01*
X157159500Y-112530003D01*
X157159500Y-113101889D01*
X157167825Y-113159792D01*
X157208330Y-113297736D01*
X157208335Y-113297750D01*
X157232625Y-113350937D01*
X157232630Y-113350947D01*
X157310359Y-113471897D01*
X157310361Y-113471899D01*
X157348666Y-113516105D01*
X157457327Y-113610259D01*
X157506532Y-113641881D01*
X157637317Y-113701609D01*
X157693439Y-113718088D01*
X157735703Y-113724164D01*
X157781044Y-113748458D01*
X157800162Y-113796213D01*
X157800200Y-113798599D01*
X157800200Y-113870964D01*
X157782607Y-113919302D01*
X157781833Y-113920209D01*
X157689624Y-114026624D01*
X157689622Y-114026627D01*
X157629835Y-114157540D01*
X157609353Y-114300000D01*
X157629835Y-114442459D01*
X157689622Y-114573372D01*
X157689624Y-114573375D01*
X157783872Y-114682143D01*
X157904947Y-114759953D01*
X158043039Y-114800500D01*
X158043042Y-114800500D01*
X158186958Y-114800500D01*
X158186961Y-114800500D01*
X158325053Y-114759953D01*
X158446128Y-114682143D01*
X158540377Y-114573373D01*
X158600165Y-114442457D01*
X158620647Y-114300000D01*
X158600165Y-114157543D01*
X158540377Y-114026627D01*
X158540375Y-114026624D01*
X158448167Y-113920209D01*
X158429809Y-113872157D01*
X158429800Y-113870964D01*
X158429800Y-113798599D01*
X158447393Y-113750261D01*
X158491942Y-113724541D01*
X158494264Y-113724169D01*
X158536561Y-113718088D01*
X158592683Y-113701609D01*
X158723468Y-113641881D01*
X158772673Y-113610259D01*
X158881334Y-113516105D01*
X158919639Y-113471899D01*
X158997371Y-113350945D01*
X159021669Y-113297740D01*
X159062176Y-113159785D01*
X159070500Y-113101889D01*
X159070500Y-112530000D01*
X159065348Y-112484272D01*
X159030550Y-112412016D01*
X159025428Y-112360834D01*
X159039509Y-112332504D01*
X159050149Y-112319163D01*
X159070500Y-112230000D01*
X159070500Y-112120000D01*
X159088093Y-112071662D01*
X159132642Y-112045942D01*
X159145700Y-112044800D01*
X159624300Y-112044800D01*
X159672638Y-112062393D01*
X159698358Y-112106942D01*
X159699500Y-112120000D01*
X159699500Y-112229998D01*
X159704651Y-112275725D01*
X159704652Y-112275728D01*
X159739448Y-112347981D01*
X159744570Y-112399165D01*
X159730491Y-112427493D01*
X159719852Y-112440834D01*
X159719851Y-112440836D01*
X159719851Y-112440837D01*
X159699500Y-112530000D01*
X159699500Y-112530001D01*
X159699500Y-112530003D01*
X159699500Y-113101889D01*
X159707825Y-113159792D01*
X159748330Y-113297736D01*
X159748335Y-113297750D01*
X159772625Y-113350937D01*
X159772630Y-113350947D01*
X159850359Y-113471897D01*
X159850361Y-113471899D01*
X159888666Y-113516105D01*
X159997327Y-113610259D01*
X160046532Y-113641881D01*
X160177317Y-113701609D01*
X160233439Y-113718088D01*
X160275703Y-113724164D01*
X160321044Y-113748458D01*
X160340162Y-113796213D01*
X160340200Y-113798599D01*
X160340200Y-113870964D01*
X160322607Y-113919302D01*
X160321833Y-113920209D01*
X160229624Y-114026624D01*
X160229622Y-114026627D01*
X160169835Y-114157540D01*
X160149353Y-114300000D01*
X160169835Y-114442459D01*
X160229622Y-114573372D01*
X160229624Y-114573375D01*
X160323872Y-114682143D01*
X160444947Y-114759953D01*
X160583039Y-114800500D01*
X160583042Y-114800500D01*
X160726958Y-114800500D01*
X160726961Y-114800500D01*
X160865053Y-114759953D01*
X160986128Y-114682143D01*
X161080377Y-114573373D01*
X161140165Y-114442457D01*
X161160647Y-114300000D01*
X161140165Y-114157543D01*
X161080377Y-114026627D01*
X161080375Y-114026624D01*
X160988167Y-113920209D01*
X160969809Y-113872157D01*
X160969800Y-113870964D01*
X160969800Y-113798599D01*
X160987393Y-113750261D01*
X161031942Y-113724541D01*
X161034264Y-113724169D01*
X161076561Y-113718088D01*
X161132683Y-113701609D01*
X161263468Y-113641881D01*
X161312673Y-113610259D01*
X161421334Y-113516105D01*
X161459639Y-113471899D01*
X161537371Y-113350945D01*
X161561669Y-113297740D01*
X161602176Y-113159785D01*
X161610500Y-113101889D01*
X161610500Y-112530000D01*
X161605348Y-112484272D01*
X161570550Y-112412016D01*
X161565428Y-112360834D01*
X161579509Y-112332504D01*
X161590149Y-112319163D01*
X161610500Y-112230000D01*
X161610500Y-112120000D01*
X161628093Y-112071662D01*
X161672642Y-112045942D01*
X161685700Y-112044800D01*
X162110182Y-112044800D01*
X162158520Y-112062393D01*
X162167008Y-112070748D01*
X162228872Y-112142143D01*
X162349947Y-112219953D01*
X162349949Y-112219953D01*
X162349950Y-112219954D01*
X162384164Y-112230000D01*
X162488039Y-112260500D01*
X162488042Y-112260500D01*
X162631958Y-112260500D01*
X162631961Y-112260500D01*
X162770053Y-112219953D01*
X162891128Y-112142143D01*
X162985377Y-112033373D01*
X163045165Y-111902457D01*
X163065647Y-111760000D01*
X163045165Y-111617543D01*
X163037251Y-111600215D01*
X162985377Y-111486627D01*
X162985375Y-111486624D01*
X162891127Y-111377856D01*
X162891125Y-111377855D01*
X162770051Y-111300046D01*
X162770052Y-111300046D01*
X162631963Y-111259500D01*
X162631961Y-111259500D01*
X162488039Y-111259500D01*
X162488036Y-111259500D01*
X162349950Y-111300045D01*
X162228873Y-111377856D01*
X162228872Y-111377856D01*
X162228872Y-111377857D01*
X162219003Y-111389245D01*
X162174054Y-111414255D01*
X162162172Y-111415200D01*
X161582383Y-111415200D01*
X161534045Y-111397607D01*
X161519121Y-111380656D01*
X161459640Y-111288102D01*
X161421334Y-111243895D01*
X161312673Y-111149741D01*
X161289529Y-111134867D01*
X161263469Y-111118119D01*
X161263460Y-111118115D01*
X161132693Y-111058395D01*
X161132683Y-111058391D01*
X161076565Y-111041913D01*
X161076563Y-111041912D01*
X161076561Y-111041912D01*
X160955459Y-111024500D01*
X160934247Y-111021450D01*
X160934246Y-111021450D01*
X160875755Y-111021450D01*
X160875751Y-111021450D01*
X160859861Y-111023735D01*
X160849160Y-111024500D01*
X160460840Y-111024500D01*
X160450139Y-111023735D01*
X160434248Y-111021450D01*
X160434245Y-111021450D01*
X160375754Y-111021450D01*
X160375752Y-111021450D01*
X160303784Y-111031797D01*
X160233439Y-111041912D01*
X160233437Y-111041912D01*
X160233434Y-111041913D01*
X160177316Y-111058391D01*
X160177306Y-111058395D01*
X160046539Y-111118115D01*
X160046530Y-111118119D01*
X159997330Y-111149739D01*
X159997327Y-111149741D01*
X159952893Y-111188242D01*
X159888665Y-111243895D01*
X159850359Y-111288102D01*
X159790879Y-111380656D01*
X159749945Y-111411809D01*
X159727617Y-111415200D01*
X159042383Y-111415200D01*
X158994045Y-111397607D01*
X158979121Y-111380656D01*
X158919640Y-111288102D01*
X158881334Y-111243895D01*
X158772673Y-111149741D01*
X158749529Y-111134867D01*
X158723469Y-111118119D01*
X158723460Y-111118115D01*
X158592693Y-111058395D01*
X158592683Y-111058391D01*
X158536565Y-111041913D01*
X158536563Y-111041912D01*
X158536561Y-111041912D01*
X158415459Y-111024500D01*
X158394247Y-111021450D01*
X158394246Y-111021450D01*
X158335755Y-111021450D01*
X158335751Y-111021450D01*
X158319861Y-111023735D01*
X158309160Y-111024500D01*
X157920840Y-111024500D01*
X157910139Y-111023735D01*
X157894248Y-111021450D01*
X157894245Y-111021450D01*
X157835754Y-111021450D01*
X157835752Y-111021450D01*
X157763784Y-111031797D01*
X157693439Y-111041912D01*
X157693437Y-111041912D01*
X157693434Y-111041913D01*
X157637316Y-111058391D01*
X157637306Y-111058395D01*
X157506539Y-111118115D01*
X157506530Y-111118119D01*
X157457330Y-111149739D01*
X157457327Y-111149741D01*
X157412893Y-111188242D01*
X157348665Y-111243895D01*
X157310359Y-111288102D01*
X157250879Y-111380656D01*
X157209945Y-111411809D01*
X157187617Y-111415200D01*
X156502383Y-111415200D01*
X156454045Y-111397607D01*
X156439121Y-111380656D01*
X156379640Y-111288102D01*
X156341334Y-111243895D01*
X156232673Y-111149741D01*
X156209529Y-111134867D01*
X156183469Y-111118119D01*
X156183460Y-111118115D01*
X156052693Y-111058395D01*
X156052683Y-111058391D01*
X155996565Y-111041913D01*
X155996563Y-111041912D01*
X155996561Y-111041912D01*
X155875459Y-111024500D01*
X155854247Y-111021450D01*
X155854246Y-111021450D01*
X155795755Y-111021450D01*
X155795751Y-111021450D01*
X155779861Y-111023735D01*
X155769160Y-111024500D01*
X155380840Y-111024500D01*
X155370139Y-111023735D01*
X155354248Y-111021450D01*
X155354245Y-111021450D01*
X155295754Y-111021450D01*
X155295752Y-111021450D01*
X155223784Y-111031797D01*
X155153439Y-111041912D01*
X155153437Y-111041912D01*
X155153434Y-111041913D01*
X155097316Y-111058391D01*
X155097306Y-111058395D01*
X154966539Y-111118115D01*
X154966530Y-111118119D01*
X154917330Y-111149739D01*
X154917327Y-111149741D01*
X154872893Y-111188242D01*
X154808665Y-111243895D01*
X154770359Y-111288102D01*
X154710879Y-111380656D01*
X154669945Y-111411809D01*
X154647617Y-111415200D01*
X153962383Y-111415200D01*
X153914045Y-111397607D01*
X153899121Y-111380656D01*
X153839640Y-111288102D01*
X153801334Y-111243895D01*
X153692673Y-111149741D01*
X153669529Y-111134867D01*
X153643469Y-111118119D01*
X153643460Y-111118115D01*
X153512693Y-111058395D01*
X153512683Y-111058391D01*
X153456565Y-111041913D01*
X153456563Y-111041912D01*
X153456561Y-111041912D01*
X153335459Y-111024500D01*
X153314247Y-111021450D01*
X153314246Y-111021450D01*
X153255755Y-111021450D01*
X153255751Y-111021450D01*
X153239861Y-111023735D01*
X153229160Y-111024500D01*
X152840840Y-111024500D01*
X152830139Y-111023735D01*
X152814248Y-111021450D01*
X152814245Y-111021450D01*
X152755754Y-111021450D01*
X152755752Y-111021450D01*
X152683784Y-111031797D01*
X152613439Y-111041912D01*
X152613437Y-111041912D01*
X152613434Y-111041913D01*
X152557316Y-111058391D01*
X152557306Y-111058395D01*
X152426539Y-111118115D01*
X152426530Y-111118119D01*
X152377330Y-111149739D01*
X152377327Y-111149741D01*
X152332893Y-111188242D01*
X152268665Y-111243895D01*
X152230359Y-111288102D01*
X152152630Y-111409052D01*
X152152625Y-111409062D01*
X152128335Y-111462249D01*
X152128330Y-111462263D01*
X152087825Y-111600207D01*
X152079500Y-111658110D01*
X118610500Y-111658110D01*
X118610500Y-107848110D01*
X152079500Y-107848110D01*
X152079500Y-108419998D01*
X152084651Y-108465725D01*
X152084652Y-108465728D01*
X152119448Y-108537981D01*
X152124570Y-108589165D01*
X152110491Y-108617493D01*
X152099852Y-108630834D01*
X152099851Y-108630836D01*
X152099851Y-108630837D01*
X152079500Y-108720000D01*
X152079500Y-108720001D01*
X152079500Y-108720003D01*
X152079500Y-109291889D01*
X152087825Y-109349792D01*
X152128330Y-109487736D01*
X152128335Y-109487750D01*
X152152625Y-109540937D01*
X152152630Y-109540947D01*
X152230359Y-109661897D01*
X152230361Y-109661899D01*
X152268666Y-109706105D01*
X152377327Y-109800259D01*
X152426532Y-109831881D01*
X152557317Y-109891609D01*
X152613439Y-109908088D01*
X152755754Y-109928550D01*
X152755758Y-109928550D01*
X152814240Y-109928550D01*
X152814245Y-109928550D01*
X152827224Y-109926683D01*
X152830139Y-109926265D01*
X152840840Y-109925500D01*
X153229160Y-109925500D01*
X153239861Y-109926265D01*
X153243533Y-109926792D01*
X153255755Y-109928550D01*
X153255760Y-109928550D01*
X153314242Y-109928550D01*
X153314246Y-109928550D01*
X153456561Y-109908088D01*
X153512683Y-109891609D01*
X153643468Y-109831881D01*
X153692673Y-109800259D01*
X153801334Y-109706105D01*
X153839639Y-109661899D01*
X153878042Y-109602143D01*
X153899121Y-109569344D01*
X153940055Y-109538191D01*
X153962383Y-109534800D01*
X154647617Y-109534800D01*
X154695955Y-109552393D01*
X154710879Y-109569344D01*
X154770359Y-109661897D01*
X154770361Y-109661899D01*
X154808666Y-109706105D01*
X154917327Y-109800259D01*
X154966532Y-109831881D01*
X155097317Y-109891609D01*
X155153439Y-109908088D01*
X155295754Y-109928550D01*
X155295758Y-109928550D01*
X155354240Y-109928550D01*
X155354245Y-109928550D01*
X155367224Y-109926683D01*
X155370139Y-109926265D01*
X155380840Y-109925500D01*
X155769160Y-109925500D01*
X155779861Y-109926265D01*
X155783533Y-109926792D01*
X155795755Y-109928550D01*
X155795760Y-109928550D01*
X155854242Y-109928550D01*
X155854246Y-109928550D01*
X155996561Y-109908088D01*
X156052683Y-109891609D01*
X156183468Y-109831881D01*
X156232673Y-109800259D01*
X156341334Y-109706105D01*
X156379639Y-109661899D01*
X156418042Y-109602143D01*
X156439121Y-109569344D01*
X156480055Y-109538191D01*
X156502383Y-109534800D01*
X157187617Y-109534800D01*
X157235955Y-109552393D01*
X157250879Y-109569344D01*
X157310359Y-109661897D01*
X157310361Y-109661899D01*
X157348666Y-109706105D01*
X157457327Y-109800259D01*
X157506532Y-109831881D01*
X157637317Y-109891609D01*
X157693439Y-109908088D01*
X157835754Y-109928550D01*
X157835758Y-109928550D01*
X157894240Y-109928550D01*
X157894245Y-109928550D01*
X157907224Y-109926683D01*
X157910139Y-109926265D01*
X157920840Y-109925500D01*
X158309160Y-109925500D01*
X158319861Y-109926265D01*
X158323533Y-109926792D01*
X158335755Y-109928550D01*
X158335760Y-109928550D01*
X158394242Y-109928550D01*
X158394246Y-109928550D01*
X158536561Y-109908088D01*
X158592683Y-109891609D01*
X158723468Y-109831881D01*
X158772673Y-109800259D01*
X158881334Y-109706105D01*
X158919639Y-109661899D01*
X158958042Y-109602143D01*
X158979121Y-109569344D01*
X159020055Y-109538191D01*
X159042383Y-109534800D01*
X159727617Y-109534800D01*
X159775955Y-109552393D01*
X159790879Y-109569344D01*
X159850359Y-109661897D01*
X159850361Y-109661899D01*
X159888666Y-109706105D01*
X159997327Y-109800259D01*
X160046532Y-109831881D01*
X160177317Y-109891609D01*
X160233439Y-109908088D01*
X160375754Y-109928550D01*
X160375758Y-109928550D01*
X160434240Y-109928550D01*
X160434245Y-109928550D01*
X160447224Y-109926683D01*
X160450139Y-109926265D01*
X160460840Y-109925500D01*
X160849160Y-109925500D01*
X160859861Y-109926265D01*
X160863533Y-109926792D01*
X160875755Y-109928550D01*
X160875760Y-109928550D01*
X160934242Y-109928550D01*
X160934246Y-109928550D01*
X161076561Y-109908088D01*
X161132683Y-109891609D01*
X161263468Y-109831881D01*
X161312673Y-109800259D01*
X161421334Y-109706105D01*
X161459639Y-109661899D01*
X161498042Y-109602143D01*
X161519121Y-109569344D01*
X161560055Y-109538191D01*
X161582383Y-109534800D01*
X162136176Y-109534800D01*
X162184514Y-109552393D01*
X162193008Y-109560754D01*
X162228872Y-109602143D01*
X162349947Y-109679953D01*
X162488039Y-109720500D01*
X162488042Y-109720500D01*
X162631958Y-109720500D01*
X162631961Y-109720500D01*
X162770053Y-109679953D01*
X162891128Y-109602143D01*
X162985377Y-109493373D01*
X163045165Y-109362457D01*
X163065647Y-109220000D01*
X163045165Y-109077543D01*
X162985377Y-108946627D01*
X162985375Y-108946624D01*
X162891127Y-108837856D01*
X162891125Y-108837855D01*
X162770051Y-108760046D01*
X162770052Y-108760046D01*
X162631963Y-108719500D01*
X162631961Y-108719500D01*
X162488039Y-108719500D01*
X162488036Y-108719500D01*
X162349950Y-108760045D01*
X162228873Y-108837856D01*
X162193008Y-108879246D01*
X162148057Y-108904256D01*
X162136176Y-108905200D01*
X161685700Y-108905200D01*
X161637362Y-108887607D01*
X161611642Y-108843058D01*
X161610500Y-108830000D01*
X161610500Y-108720001D01*
X161605348Y-108674274D01*
X161605348Y-108674272D01*
X161570550Y-108602016D01*
X161565428Y-108550834D01*
X161579509Y-108522504D01*
X161590149Y-108509163D01*
X161610500Y-108420000D01*
X161610500Y-107848111D01*
X161602176Y-107790215D01*
X161561669Y-107652260D01*
X161537371Y-107599055D01*
X161459639Y-107478101D01*
X161421334Y-107433895D01*
X161312673Y-107339741D01*
X161289529Y-107324867D01*
X161263469Y-107308119D01*
X161263460Y-107308115D01*
X161132693Y-107248395D01*
X161132687Y-107248392D01*
X161132683Y-107248391D01*
X161076561Y-107231912D01*
X161076557Y-107231911D01*
X161076555Y-107231911D01*
X161034296Y-107225834D01*
X160988955Y-107201540D01*
X160969838Y-107153784D01*
X160969800Y-107151400D01*
X160969800Y-107109034D01*
X160987393Y-107060696D01*
X160988128Y-107059834D01*
X161080377Y-106953373D01*
X161140165Y-106822457D01*
X161160647Y-106680000D01*
X161140165Y-106537543D01*
X161080377Y-106406627D01*
X161080375Y-106406624D01*
X160986127Y-106297856D01*
X160986125Y-106297855D01*
X160865051Y-106220046D01*
X160865052Y-106220046D01*
X160726963Y-106179500D01*
X160726961Y-106179500D01*
X160583039Y-106179500D01*
X160583036Y-106179500D01*
X160444948Y-106220046D01*
X160323874Y-106297855D01*
X160323872Y-106297856D01*
X160229624Y-106406624D01*
X160229622Y-106406627D01*
X160169835Y-106537540D01*
X160149353Y-106680000D01*
X160169835Y-106822459D01*
X160229622Y-106953372D01*
X160229624Y-106953375D01*
X160280211Y-107011755D01*
X160321832Y-107059789D01*
X160340191Y-107107841D01*
X160340200Y-107109034D01*
X160340200Y-107151400D01*
X160322607Y-107199738D01*
X160278058Y-107225458D01*
X160275704Y-107225834D01*
X160233444Y-107231911D01*
X160233439Y-107231912D01*
X160177320Y-107248390D01*
X160177306Y-107248395D01*
X160046539Y-107308115D01*
X160046530Y-107308119D01*
X159997330Y-107339739D01*
X159997327Y-107339741D01*
X159952893Y-107378242D01*
X159888665Y-107433895D01*
X159850359Y-107478102D01*
X159772630Y-107599052D01*
X159772625Y-107599062D01*
X159748335Y-107652249D01*
X159748330Y-107652263D01*
X159707825Y-107790207D01*
X159699500Y-107848110D01*
X159699500Y-108419998D01*
X159704651Y-108465725D01*
X159704652Y-108465728D01*
X159739448Y-108537981D01*
X159744570Y-108589165D01*
X159730491Y-108617493D01*
X159719852Y-108630834D01*
X159719851Y-108630836D01*
X159719851Y-108630837D01*
X159699500Y-108720000D01*
X159699500Y-108720001D01*
X159699500Y-108720003D01*
X159699500Y-108830000D01*
X159681907Y-108878338D01*
X159637358Y-108904058D01*
X159624300Y-108905200D01*
X159145700Y-108905200D01*
X159097362Y-108887607D01*
X159071642Y-108843058D01*
X159070500Y-108830000D01*
X159070500Y-108720001D01*
X159065348Y-108674274D01*
X159065348Y-108674272D01*
X159030550Y-108602016D01*
X159025428Y-108550834D01*
X159039509Y-108522504D01*
X159050149Y-108509163D01*
X159070500Y-108420000D01*
X159070500Y-107848111D01*
X159062176Y-107790215D01*
X159021669Y-107652260D01*
X158997371Y-107599055D01*
X158919639Y-107478101D01*
X158881334Y-107433895D01*
X158772673Y-107339741D01*
X158749529Y-107324867D01*
X158723469Y-107308119D01*
X158723460Y-107308115D01*
X158592693Y-107248395D01*
X158592687Y-107248392D01*
X158592683Y-107248391D01*
X158536561Y-107231912D01*
X158536557Y-107231911D01*
X158536555Y-107231911D01*
X158494296Y-107225834D01*
X158448955Y-107201540D01*
X158429838Y-107153784D01*
X158429800Y-107151400D01*
X158429800Y-107109034D01*
X158447393Y-107060696D01*
X158448128Y-107059834D01*
X158540377Y-106953373D01*
X158600165Y-106822457D01*
X158620647Y-106680000D01*
X158600165Y-106537543D01*
X158540377Y-106406627D01*
X158540375Y-106406624D01*
X158446127Y-106297856D01*
X158446125Y-106297855D01*
X158325051Y-106220046D01*
X158325052Y-106220046D01*
X158186963Y-106179500D01*
X158186961Y-106179500D01*
X158043039Y-106179500D01*
X158043036Y-106179500D01*
X157904948Y-106220046D01*
X157783874Y-106297855D01*
X157783872Y-106297856D01*
X157689624Y-106406624D01*
X157689622Y-106406627D01*
X157629835Y-106537540D01*
X157609353Y-106680000D01*
X157629835Y-106822459D01*
X157689622Y-106953372D01*
X157689624Y-106953375D01*
X157740211Y-107011755D01*
X157781832Y-107059789D01*
X157800191Y-107107841D01*
X157800200Y-107109034D01*
X157800200Y-107151400D01*
X157782607Y-107199738D01*
X157738058Y-107225458D01*
X157735704Y-107225834D01*
X157693444Y-107231911D01*
X157693439Y-107231912D01*
X157637320Y-107248390D01*
X157637306Y-107248395D01*
X157506539Y-107308115D01*
X157506530Y-107308119D01*
X157457330Y-107339739D01*
X157457327Y-107339741D01*
X157412893Y-107378242D01*
X157348665Y-107433895D01*
X157310359Y-107478102D01*
X157232630Y-107599052D01*
X157232625Y-107599062D01*
X157208335Y-107652249D01*
X157208330Y-107652263D01*
X157167825Y-107790207D01*
X157159500Y-107848110D01*
X157159500Y-108419998D01*
X157164651Y-108465725D01*
X157164652Y-108465728D01*
X157199448Y-108537981D01*
X157204570Y-108589165D01*
X157190491Y-108617493D01*
X157179852Y-108630834D01*
X157179851Y-108630836D01*
X157179851Y-108630837D01*
X157159500Y-108720000D01*
X157159500Y-108720001D01*
X157159500Y-108720003D01*
X157159500Y-108830000D01*
X157141907Y-108878338D01*
X157097358Y-108904058D01*
X157084300Y-108905200D01*
X156605700Y-108905200D01*
X156557362Y-108887607D01*
X156531642Y-108843058D01*
X156530500Y-108830000D01*
X156530500Y-108720001D01*
X156525348Y-108674274D01*
X156525348Y-108674272D01*
X156490550Y-108602016D01*
X156485428Y-108550834D01*
X156499509Y-108522504D01*
X156510149Y-108509163D01*
X156530500Y-108420000D01*
X156530500Y-107848111D01*
X156522176Y-107790215D01*
X156481669Y-107652260D01*
X156457371Y-107599055D01*
X156379639Y-107478101D01*
X156341334Y-107433895D01*
X156232673Y-107339741D01*
X156209529Y-107324867D01*
X156183469Y-107308119D01*
X156183460Y-107308115D01*
X156052693Y-107248395D01*
X156052687Y-107248392D01*
X156052683Y-107248391D01*
X155996561Y-107231912D01*
X155996557Y-107231911D01*
X155996555Y-107231911D01*
X155954296Y-107225834D01*
X155908955Y-107201540D01*
X155889838Y-107153784D01*
X155889800Y-107151400D01*
X155889800Y-107109034D01*
X155907393Y-107060696D01*
X155908128Y-107059834D01*
X156000377Y-106953373D01*
X156060165Y-106822457D01*
X156080647Y-106680000D01*
X156060165Y-106537543D01*
X156000377Y-106406627D01*
X156000375Y-106406624D01*
X155906127Y-106297856D01*
X155906125Y-106297855D01*
X155785051Y-106220046D01*
X155785052Y-106220046D01*
X155646963Y-106179500D01*
X155646961Y-106179500D01*
X155503039Y-106179500D01*
X155503036Y-106179500D01*
X155364948Y-106220046D01*
X155243874Y-106297855D01*
X155243872Y-106297856D01*
X155149624Y-106406624D01*
X155149622Y-106406627D01*
X155089835Y-106537540D01*
X155069353Y-106680000D01*
X155089835Y-106822459D01*
X155149622Y-106953372D01*
X155149624Y-106953375D01*
X155200211Y-107011755D01*
X155241832Y-107059789D01*
X155260191Y-107107841D01*
X155260200Y-107109034D01*
X155260200Y-107151400D01*
X155242607Y-107199738D01*
X155198058Y-107225458D01*
X155195704Y-107225834D01*
X155153444Y-107231911D01*
X155153439Y-107231912D01*
X155097320Y-107248390D01*
X155097306Y-107248395D01*
X154966539Y-107308115D01*
X154966530Y-107308119D01*
X154917330Y-107339739D01*
X154917327Y-107339741D01*
X154872893Y-107378242D01*
X154808665Y-107433895D01*
X154770359Y-107478102D01*
X154692630Y-107599052D01*
X154692625Y-107599062D01*
X154668335Y-107652249D01*
X154668330Y-107652263D01*
X154627825Y-107790207D01*
X154619500Y-107848110D01*
X154619500Y-108419998D01*
X154624651Y-108465725D01*
X154624652Y-108465728D01*
X154659448Y-108537981D01*
X154664570Y-108589165D01*
X154650491Y-108617493D01*
X154639852Y-108630834D01*
X154639851Y-108630836D01*
X154639851Y-108630837D01*
X154619500Y-108720000D01*
X154619500Y-108720001D01*
X154619500Y-108720003D01*
X154619500Y-108830000D01*
X154601907Y-108878338D01*
X154557358Y-108904058D01*
X154544300Y-108905200D01*
X154065700Y-108905200D01*
X154017362Y-108887607D01*
X153991642Y-108843058D01*
X153990500Y-108830000D01*
X153990500Y-108720001D01*
X153985348Y-108674274D01*
X153985348Y-108674272D01*
X153950550Y-108602016D01*
X153945428Y-108550834D01*
X153959509Y-108522504D01*
X153970149Y-108509163D01*
X153990500Y-108420000D01*
X153990500Y-107848111D01*
X153982176Y-107790215D01*
X153941669Y-107652260D01*
X153917371Y-107599055D01*
X153839639Y-107478101D01*
X153801334Y-107433895D01*
X153692673Y-107339741D01*
X153669529Y-107324867D01*
X153643469Y-107308119D01*
X153643460Y-107308115D01*
X153512693Y-107248395D01*
X153512687Y-107248392D01*
X153512683Y-107248391D01*
X153456561Y-107231912D01*
X153456557Y-107231911D01*
X153456555Y-107231911D01*
X153414296Y-107225834D01*
X153368955Y-107201540D01*
X153349838Y-107153784D01*
X153349800Y-107151400D01*
X153349800Y-107109034D01*
X153367393Y-107060696D01*
X153368128Y-107059834D01*
X153460377Y-106953373D01*
X153520165Y-106822457D01*
X153540647Y-106680000D01*
X153520165Y-106537543D01*
X153460377Y-106406627D01*
X153460375Y-106406624D01*
X153366127Y-106297856D01*
X153366125Y-106297855D01*
X153245051Y-106220046D01*
X153245052Y-106220046D01*
X153106963Y-106179500D01*
X153106961Y-106179500D01*
X152963039Y-106179500D01*
X152963036Y-106179500D01*
X152824948Y-106220046D01*
X152703874Y-106297855D01*
X152703872Y-106297856D01*
X152609624Y-106406624D01*
X152609622Y-106406627D01*
X152549835Y-106537540D01*
X152529353Y-106680000D01*
X152549835Y-106822459D01*
X152609622Y-106953372D01*
X152609624Y-106953375D01*
X152660211Y-107011755D01*
X152701832Y-107059789D01*
X152720191Y-107107841D01*
X152720200Y-107109034D01*
X152720200Y-107151400D01*
X152702607Y-107199738D01*
X152658058Y-107225458D01*
X152655704Y-107225834D01*
X152613444Y-107231911D01*
X152613439Y-107231912D01*
X152557320Y-107248390D01*
X152557306Y-107248395D01*
X152426539Y-107308115D01*
X152426530Y-107308119D01*
X152377330Y-107339739D01*
X152377327Y-107339741D01*
X152332893Y-107378242D01*
X152268665Y-107433895D01*
X152230359Y-107478102D01*
X152152630Y-107599052D01*
X152152625Y-107599062D01*
X152128335Y-107652249D01*
X152128330Y-107652263D01*
X152087825Y-107790207D01*
X152079500Y-107848110D01*
X118610500Y-107848110D01*
X118610500Y-87630000D01*
X131024417Y-87630000D01*
X131044699Y-87835932D01*
X131104765Y-88033947D01*
X131104770Y-88033959D01*
X131195426Y-88203562D01*
X131202315Y-88216450D01*
X131333590Y-88376410D01*
X131493550Y-88507685D01*
X131493554Y-88507687D01*
X131647311Y-88589873D01*
X131676046Y-88605232D01*
X131676050Y-88605233D01*
X131676052Y-88605234D01*
X131717794Y-88617896D01*
X131874066Y-88665300D01*
X132080000Y-88685583D01*
X132285934Y-88665300D01*
X132483954Y-88605232D01*
X132666450Y-88507685D01*
X132826410Y-88376410D01*
X132957685Y-88216450D01*
X133055232Y-88033954D01*
X133115300Y-87835934D01*
X133135583Y-87630000D01*
X133564417Y-87630000D01*
X133584699Y-87835932D01*
X133644765Y-88033947D01*
X133644770Y-88033959D01*
X133735426Y-88203562D01*
X133742315Y-88216450D01*
X133873590Y-88376410D01*
X134033550Y-88507685D01*
X134033554Y-88507687D01*
X134187311Y-88589873D01*
X134216046Y-88605232D01*
X134216050Y-88605233D01*
X134216052Y-88605234D01*
X134257794Y-88617896D01*
X134414066Y-88665300D01*
X134620000Y-88685583D01*
X134825934Y-88665300D01*
X135023954Y-88605232D01*
X135206450Y-88507685D01*
X135366410Y-88376410D01*
X135497685Y-88216450D01*
X135595232Y-88033954D01*
X135655300Y-87835934D01*
X135675583Y-87630000D01*
X136104417Y-87630000D01*
X136124699Y-87835932D01*
X136184765Y-88033947D01*
X136184770Y-88033959D01*
X136275426Y-88203562D01*
X136282315Y-88216450D01*
X136413590Y-88376410D01*
X136573550Y-88507685D01*
X136573554Y-88507687D01*
X136727311Y-88589873D01*
X136756046Y-88605232D01*
X136756050Y-88605233D01*
X136756052Y-88605234D01*
X136797794Y-88617896D01*
X136954066Y-88665300D01*
X137160000Y-88685583D01*
X137365934Y-88665300D01*
X137563954Y-88605232D01*
X137746450Y-88507685D01*
X137906410Y-88376410D01*
X138037685Y-88216450D01*
X138135232Y-88033954D01*
X138195300Y-87835934D01*
X138215583Y-87630000D01*
X138644417Y-87630000D01*
X138664699Y-87835932D01*
X138724765Y-88033947D01*
X138724770Y-88033959D01*
X138815426Y-88203562D01*
X138822315Y-88216450D01*
X138953590Y-88376410D01*
X139113550Y-88507685D01*
X139113554Y-88507687D01*
X139267311Y-88589873D01*
X139296046Y-88605232D01*
X139296050Y-88605233D01*
X139296052Y-88605234D01*
X139337794Y-88617896D01*
X139494066Y-88665300D01*
X139700000Y-88685583D01*
X139905934Y-88665300D01*
X140103954Y-88605232D01*
X140286450Y-88507685D01*
X140446410Y-88376410D01*
X140577685Y-88216450D01*
X140675232Y-88033954D01*
X140735300Y-87835934D01*
X140755583Y-87630000D01*
X141184417Y-87630000D01*
X141204699Y-87835932D01*
X141264765Y-88033947D01*
X141264770Y-88033959D01*
X141355426Y-88203562D01*
X141362315Y-88216450D01*
X141493590Y-88376410D01*
X141653550Y-88507685D01*
X141653554Y-88507687D01*
X141807311Y-88589873D01*
X141836046Y-88605232D01*
X141836050Y-88605233D01*
X141836052Y-88605234D01*
X141877794Y-88617896D01*
X142034066Y-88665300D01*
X142240000Y-88685583D01*
X142445934Y-88665300D01*
X142643954Y-88605232D01*
X142826450Y-88507685D01*
X142986410Y-88376410D01*
X143117685Y-88216450D01*
X143215232Y-88033954D01*
X143275300Y-87835934D01*
X143295583Y-87630000D01*
X143275300Y-87424066D01*
X143237598Y-87299778D01*
X143215234Y-87226052D01*
X143215229Y-87226040D01*
X143117687Y-87043554D01*
X143117684Y-87043549D01*
X142986410Y-86883590D01*
X142826450Y-86752315D01*
X142826445Y-86752312D01*
X142643959Y-86654770D01*
X142643947Y-86654765D01*
X142445932Y-86594699D01*
X142240000Y-86574417D01*
X142034067Y-86594699D01*
X141836052Y-86654765D01*
X141836040Y-86654770D01*
X141653554Y-86752312D01*
X141653549Y-86752315D01*
X141493590Y-86883590D01*
X141362315Y-87043549D01*
X141362312Y-87043554D01*
X141264770Y-87226040D01*
X141264765Y-87226052D01*
X141204699Y-87424067D01*
X141184417Y-87630000D01*
X140755583Y-87630000D01*
X140735300Y-87424066D01*
X140697598Y-87299778D01*
X140675234Y-87226052D01*
X140675229Y-87226040D01*
X140577687Y-87043554D01*
X140577684Y-87043549D01*
X140446410Y-86883590D01*
X140286450Y-86752315D01*
X140286445Y-86752312D01*
X140103959Y-86654770D01*
X140103947Y-86654765D01*
X139905932Y-86594699D01*
X139700000Y-86574417D01*
X139494067Y-86594699D01*
X139296052Y-86654765D01*
X139296040Y-86654770D01*
X139113554Y-86752312D01*
X139113549Y-86752315D01*
X138953590Y-86883590D01*
X138822315Y-87043549D01*
X138822312Y-87043554D01*
X138724770Y-87226040D01*
X138724765Y-87226052D01*
X138664699Y-87424067D01*
X138644417Y-87630000D01*
X138215583Y-87630000D01*
X138195300Y-87424066D01*
X138157598Y-87299778D01*
X138135234Y-87226052D01*
X138135229Y-87226040D01*
X138037687Y-87043554D01*
X138037684Y-87043549D01*
X137906410Y-86883590D01*
X137746450Y-86752315D01*
X137746445Y-86752312D01*
X137563959Y-86654770D01*
X137563947Y-86654765D01*
X137365932Y-86594699D01*
X137160000Y-86574417D01*
X136954067Y-86594699D01*
X136756052Y-86654765D01*
X136756040Y-86654770D01*
X136573554Y-86752312D01*
X136573549Y-86752315D01*
X136413590Y-86883590D01*
X136282315Y-87043549D01*
X136282312Y-87043554D01*
X136184770Y-87226040D01*
X136184765Y-87226052D01*
X136124699Y-87424067D01*
X136104417Y-87630000D01*
X135675583Y-87630000D01*
X135655300Y-87424066D01*
X135617598Y-87299778D01*
X135595234Y-87226052D01*
X135595229Y-87226040D01*
X135497687Y-87043554D01*
X135497684Y-87043549D01*
X135366410Y-86883590D01*
X135206450Y-86752315D01*
X135206445Y-86752312D01*
X135023959Y-86654770D01*
X135023947Y-86654765D01*
X134825932Y-86594699D01*
X134620000Y-86574417D01*
X134414067Y-86594699D01*
X134216052Y-86654765D01*
X134216040Y-86654770D01*
X134033554Y-86752312D01*
X134033549Y-86752315D01*
X133873590Y-86883590D01*
X133742315Y-87043549D01*
X133742312Y-87043554D01*
X133644770Y-87226040D01*
X133644765Y-87226052D01*
X133584699Y-87424067D01*
X133564417Y-87630000D01*
X133135583Y-87630000D01*
X133115300Y-87424066D01*
X133077598Y-87299778D01*
X133055234Y-87226052D01*
X133055229Y-87226040D01*
X132957687Y-87043554D01*
X132957684Y-87043549D01*
X132826410Y-86883590D01*
X132666450Y-86752315D01*
X132666445Y-86752312D01*
X132483959Y-86654770D01*
X132483947Y-86654765D01*
X132285932Y-86594699D01*
X132080000Y-86574417D01*
X131874067Y-86594699D01*
X131676052Y-86654765D01*
X131676040Y-86654770D01*
X131493554Y-86752312D01*
X131493549Y-86752315D01*
X131333590Y-86883590D01*
X131202315Y-87043549D01*
X131202312Y-87043554D01*
X131104770Y-87226040D01*
X131104765Y-87226052D01*
X131044699Y-87424067D01*
X131024417Y-87630000D01*
X118610500Y-87630000D01*
X118610500Y-83698712D01*
X120069500Y-83698712D01*
X120069500Y-83941288D01*
X120101162Y-84181789D01*
X120163946Y-84416100D01*
X120163947Y-84416104D01*
X120163948Y-84416105D01*
X120256776Y-84640213D01*
X120378065Y-84850291D01*
X120525730Y-85042732D01*
X120525742Y-85042746D01*
X120697253Y-85214257D01*
X120697267Y-85214269D01*
X120803692Y-85295932D01*
X120889711Y-85361936D01*
X121099788Y-85483224D01*
X121323900Y-85576054D01*
X121558211Y-85638838D01*
X121798712Y-85670500D01*
X121798715Y-85670500D01*
X122041285Y-85670500D01*
X122041288Y-85670500D01*
X122281789Y-85638838D01*
X122516100Y-85576054D01*
X122740212Y-85483224D01*
X122950289Y-85361936D01*
X123142738Y-85214265D01*
X123267003Y-85090000D01*
X131024417Y-85090000D01*
X131044699Y-85295932D01*
X131104765Y-85493947D01*
X131104770Y-85493959D01*
X131202312Y-85676445D01*
X131202315Y-85676450D01*
X131333590Y-85836410D01*
X131493550Y-85967685D01*
X131493554Y-85967687D01*
X131668143Y-86061008D01*
X131676046Y-86065232D01*
X131676050Y-86065233D01*
X131676052Y-86065234D01*
X131749778Y-86087598D01*
X131874066Y-86125300D01*
X132080000Y-86145583D01*
X132285934Y-86125300D01*
X132483954Y-86065232D01*
X132666450Y-85967685D01*
X132826410Y-85836410D01*
X132957685Y-85676450D01*
X133055232Y-85493954D01*
X133115300Y-85295934D01*
X133135583Y-85090000D01*
X133564417Y-85090000D01*
X133584699Y-85295932D01*
X133644765Y-85493947D01*
X133644770Y-85493959D01*
X133742312Y-85676445D01*
X133742315Y-85676450D01*
X133873590Y-85836410D01*
X134033550Y-85967685D01*
X134033554Y-85967687D01*
X134208143Y-86061008D01*
X134216046Y-86065232D01*
X134216050Y-86065233D01*
X134216052Y-86065234D01*
X134289778Y-86087598D01*
X134414066Y-86125300D01*
X134620000Y-86145583D01*
X134825934Y-86125300D01*
X135023954Y-86065232D01*
X135206450Y-85967685D01*
X135366410Y-85836410D01*
X135497685Y-85676450D01*
X135595232Y-85493954D01*
X135655300Y-85295934D01*
X135675583Y-85090000D01*
X136104417Y-85090000D01*
X136124699Y-85295932D01*
X136184765Y-85493947D01*
X136184770Y-85493959D01*
X136282312Y-85676445D01*
X136282315Y-85676450D01*
X136413590Y-85836410D01*
X136573550Y-85967685D01*
X136573554Y-85967687D01*
X136748143Y-86061008D01*
X136756046Y-86065232D01*
X136756050Y-86065233D01*
X136756052Y-86065234D01*
X136829778Y-86087598D01*
X136954066Y-86125300D01*
X137160000Y-86145583D01*
X137365934Y-86125300D01*
X137563954Y-86065232D01*
X137746450Y-85967685D01*
X137906410Y-85836410D01*
X138037685Y-85676450D01*
X138135232Y-85493954D01*
X138195300Y-85295934D01*
X138215583Y-85090000D01*
X138644417Y-85090000D01*
X138664699Y-85295932D01*
X138724765Y-85493947D01*
X138724770Y-85493959D01*
X138822312Y-85676445D01*
X138822315Y-85676450D01*
X138953590Y-85836410D01*
X139113550Y-85967685D01*
X139113554Y-85967687D01*
X139288143Y-86061008D01*
X139296046Y-86065232D01*
X139296050Y-86065233D01*
X139296052Y-86065234D01*
X139369778Y-86087598D01*
X139494066Y-86125300D01*
X139700000Y-86145583D01*
X139905934Y-86125300D01*
X140103954Y-86065232D01*
X140286450Y-85967685D01*
X140446410Y-85836410D01*
X140577685Y-85676450D01*
X140675232Y-85493954D01*
X140735300Y-85295934D01*
X140755583Y-85090000D01*
X141184417Y-85090000D01*
X141204699Y-85295932D01*
X141264765Y-85493947D01*
X141264770Y-85493959D01*
X141362312Y-85676445D01*
X141362315Y-85676450D01*
X141493590Y-85836410D01*
X141653550Y-85967685D01*
X141653554Y-85967687D01*
X141828143Y-86061008D01*
X141836046Y-86065232D01*
X141836050Y-86065233D01*
X141836052Y-86065234D01*
X141909778Y-86087598D01*
X142034066Y-86125300D01*
X142240000Y-86145583D01*
X142445934Y-86125300D01*
X142643954Y-86065232D01*
X142826450Y-85967685D01*
X142986410Y-85836410D01*
X143117685Y-85676450D01*
X143215232Y-85493954D01*
X143275300Y-85295934D01*
X143295583Y-85090000D01*
X143724417Y-85090000D01*
X143744699Y-85295932D01*
X143804765Y-85493947D01*
X143804770Y-85493959D01*
X143902312Y-85676445D01*
X143902315Y-85676450D01*
X144033590Y-85836410D01*
X144193550Y-85967685D01*
X144193554Y-85967687D01*
X144368143Y-86061008D01*
X144376046Y-86065232D01*
X144376050Y-86065233D01*
X144376052Y-86065234D01*
X144449778Y-86087598D01*
X144574066Y-86125300D01*
X144780000Y-86145583D01*
X144985934Y-86125300D01*
X145183954Y-86065232D01*
X145216931Y-86047604D01*
X145267852Y-86040333D01*
X145305555Y-86060750D01*
X145607474Y-86362669D01*
X145629214Y-86409289D01*
X145629500Y-86415843D01*
X145629500Y-86809196D01*
X145611907Y-86857534D01*
X145567358Y-86883254D01*
X145516700Y-86874321D01*
X145506594Y-86867327D01*
X145366450Y-86752315D01*
X145366445Y-86752312D01*
X145183959Y-86654770D01*
X145183947Y-86654765D01*
X144985932Y-86594699D01*
X144780000Y-86574417D01*
X144574067Y-86594699D01*
X144376052Y-86654765D01*
X144376040Y-86654770D01*
X144193554Y-86752312D01*
X144193549Y-86752315D01*
X144033590Y-86883590D01*
X143902315Y-87043549D01*
X143902312Y-87043554D01*
X143804770Y-87226040D01*
X143804765Y-87226052D01*
X143744699Y-87424067D01*
X143724417Y-87630000D01*
X143744699Y-87835932D01*
X143804765Y-88033947D01*
X143804770Y-88033959D01*
X143895426Y-88203562D01*
X143902315Y-88216450D01*
X144033590Y-88376410D01*
X144193550Y-88507685D01*
X144193554Y-88507687D01*
X144347311Y-88589873D01*
X144376046Y-88605232D01*
X144376050Y-88605233D01*
X144376052Y-88605234D01*
X144417794Y-88617896D01*
X144574066Y-88665300D01*
X144780000Y-88685583D01*
X144985934Y-88665300D01*
X145183954Y-88605232D01*
X145366450Y-88507685D01*
X145450688Y-88438553D01*
X145506594Y-88392673D01*
X145555120Y-88375607D01*
X145603263Y-88393727D01*
X145628496Y-88438553D01*
X145629500Y-88450803D01*
X145629500Y-100265744D01*
X145636650Y-100292429D01*
X145646418Y-100328888D01*
X145650950Y-100345801D01*
X145650952Y-100345805D01*
X145650953Y-100345809D01*
X145650954Y-100345810D01*
X145692396Y-100417592D01*
X150809704Y-105534899D01*
X150809707Y-105534902D01*
X150881481Y-105576342D01*
X150881485Y-105576344D01*
X150881491Y-105576347D01*
X150898407Y-105580879D01*
X150898409Y-105580880D01*
X150898410Y-105580880D01*
X150961556Y-105597800D01*
X150961558Y-105597800D01*
X157013442Y-105597800D01*
X157013444Y-105597800D01*
X157059667Y-105585414D01*
X157076586Y-105580881D01*
X157076586Y-105580880D01*
X157076589Y-105580880D01*
X157093509Y-105576347D01*
X157165292Y-105534903D01*
X158037668Y-104662525D01*
X158084288Y-104640786D01*
X158090842Y-104640500D01*
X158186958Y-104640500D01*
X158186961Y-104640500D01*
X158325053Y-104599953D01*
X158446128Y-104522143D01*
X158540377Y-104413373D01*
X158600165Y-104282457D01*
X158620647Y-104140000D01*
X158600165Y-103997543D01*
X158540377Y-103866627D01*
X158540375Y-103866624D01*
X158448167Y-103760209D01*
X158429809Y-103712157D01*
X158429800Y-103710964D01*
X158429800Y-103638599D01*
X158447393Y-103590261D01*
X158491942Y-103564541D01*
X158494264Y-103564169D01*
X158536561Y-103558088D01*
X158592683Y-103541609D01*
X158723468Y-103481881D01*
X158772673Y-103450259D01*
X158881334Y-103356105D01*
X158919639Y-103311899D01*
X158997371Y-103190945D01*
X159021669Y-103137740D01*
X159062176Y-102999785D01*
X159070500Y-102941889D01*
X159070500Y-102370000D01*
X159065348Y-102324272D01*
X159030550Y-102252016D01*
X159025428Y-102200834D01*
X159039509Y-102172504D01*
X159050149Y-102159163D01*
X159070500Y-102070000D01*
X159070500Y-101960000D01*
X159088093Y-101911662D01*
X159132642Y-101885942D01*
X159145700Y-101884800D01*
X159624300Y-101884800D01*
X159672638Y-101902393D01*
X159698358Y-101946942D01*
X159699500Y-101960000D01*
X159699500Y-102069998D01*
X159704651Y-102115725D01*
X159704652Y-102115728D01*
X159739448Y-102187981D01*
X159744570Y-102239165D01*
X159730491Y-102267493D01*
X159719852Y-102280834D01*
X159719851Y-102280836D01*
X159719851Y-102280837D01*
X159699500Y-102370000D01*
X159699500Y-102370001D01*
X159699500Y-102370003D01*
X159699500Y-102941889D01*
X159707825Y-102999792D01*
X159748330Y-103137736D01*
X159748335Y-103137750D01*
X159772625Y-103190937D01*
X159772630Y-103190947D01*
X159850359Y-103311897D01*
X159850361Y-103311899D01*
X159888666Y-103356105D01*
X159997327Y-103450259D01*
X160046532Y-103481881D01*
X160177317Y-103541609D01*
X160233439Y-103558088D01*
X160275703Y-103564164D01*
X160321044Y-103588458D01*
X160340162Y-103636213D01*
X160340200Y-103638599D01*
X160340200Y-103710964D01*
X160322607Y-103759302D01*
X160321833Y-103760209D01*
X160229624Y-103866624D01*
X160229622Y-103866627D01*
X160169835Y-103997540D01*
X160149353Y-104140000D01*
X160169835Y-104282459D01*
X160229622Y-104413372D01*
X160229624Y-104413375D01*
X160323872Y-104522143D01*
X160444947Y-104599953D01*
X160583039Y-104640500D01*
X160583042Y-104640500D01*
X160726958Y-104640500D01*
X160726961Y-104640500D01*
X160865053Y-104599953D01*
X160986128Y-104522143D01*
X161021992Y-104480754D01*
X161066943Y-104455744D01*
X161078824Y-104454800D01*
X162347442Y-104454800D01*
X162347444Y-104454800D01*
X162393667Y-104442414D01*
X162410586Y-104437881D01*
X162410586Y-104437880D01*
X162410589Y-104437880D01*
X162427509Y-104433347D01*
X162499292Y-104391903D01*
X163426203Y-103464992D01*
X163467647Y-103393208D01*
X163489100Y-103313144D01*
X163489100Y-96203856D01*
X163467647Y-96123792D01*
X163467646Y-96123790D01*
X163430843Y-96060046D01*
X163430843Y-96060045D01*
X163430840Y-96060042D01*
X163426202Y-96052008D01*
X163426201Y-96052006D01*
X163426199Y-96052004D01*
X161610292Y-94236096D01*
X161559835Y-94206965D01*
X161538509Y-94194653D01*
X161538505Y-94194652D01*
X161538501Y-94194650D01*
X161521590Y-94190118D01*
X161521590Y-94190119D01*
X161490016Y-94181659D01*
X161458444Y-94173200D01*
X161458443Y-94173200D01*
X155232974Y-94173200D01*
X155184636Y-94155607D01*
X155179800Y-94151174D01*
X149839708Y-88811082D01*
X149817968Y-88764462D01*
X149831282Y-88714775D01*
X149873419Y-88685270D01*
X149885506Y-88683070D01*
X150065934Y-88665300D01*
X150263954Y-88605232D01*
X150446450Y-88507685D01*
X150606410Y-88376410D01*
X150737685Y-88216450D01*
X150835232Y-88033954D01*
X150895300Y-87835934D01*
X150915583Y-87630000D01*
X151344417Y-87630000D01*
X151364699Y-87835932D01*
X151424765Y-88033947D01*
X151424770Y-88033959D01*
X151515426Y-88203562D01*
X151522315Y-88216450D01*
X151653590Y-88376410D01*
X151813550Y-88507685D01*
X151813554Y-88507687D01*
X151967311Y-88589873D01*
X151996046Y-88605232D01*
X151996050Y-88605233D01*
X151996052Y-88605234D01*
X152037794Y-88617896D01*
X152194066Y-88665300D01*
X152400000Y-88685583D01*
X152605934Y-88665300D01*
X152803954Y-88605232D01*
X152986450Y-88507685D01*
X153146410Y-88376410D01*
X153277685Y-88216450D01*
X153375232Y-88033954D01*
X153435300Y-87835934D01*
X153455583Y-87630000D01*
X153884417Y-87630000D01*
X153904699Y-87835932D01*
X153964765Y-88033947D01*
X153964770Y-88033959D01*
X154055426Y-88203562D01*
X154062315Y-88216450D01*
X154193590Y-88376410D01*
X154353550Y-88507685D01*
X154353554Y-88507687D01*
X154507311Y-88589873D01*
X154536046Y-88605232D01*
X154536050Y-88605233D01*
X154536052Y-88605234D01*
X154577794Y-88617896D01*
X154734066Y-88665300D01*
X154940000Y-88685583D01*
X155145934Y-88665300D01*
X155343954Y-88605232D01*
X155526450Y-88507685D01*
X155686410Y-88376410D01*
X155817685Y-88216450D01*
X155915232Y-88033954D01*
X155975300Y-87835934D01*
X155995583Y-87630000D01*
X156424417Y-87630000D01*
X156444699Y-87835932D01*
X156504765Y-88033947D01*
X156504770Y-88033959D01*
X156595426Y-88203562D01*
X156602315Y-88216450D01*
X156733590Y-88376410D01*
X156893550Y-88507685D01*
X156893554Y-88507687D01*
X157047311Y-88589873D01*
X157076046Y-88605232D01*
X157076050Y-88605233D01*
X157076052Y-88605234D01*
X157117794Y-88617896D01*
X157274066Y-88665300D01*
X157480000Y-88685583D01*
X157685934Y-88665300D01*
X157883954Y-88605232D01*
X158066450Y-88507685D01*
X158226410Y-88376410D01*
X158357685Y-88216450D01*
X158455232Y-88033954D01*
X158515300Y-87835934D01*
X158535583Y-87630000D01*
X158964417Y-87630000D01*
X158984699Y-87835932D01*
X159044765Y-88033947D01*
X159044770Y-88033959D01*
X159135426Y-88203562D01*
X159142315Y-88216450D01*
X159273590Y-88376410D01*
X159433550Y-88507685D01*
X159433554Y-88507687D01*
X159587311Y-88589873D01*
X159616046Y-88605232D01*
X159616050Y-88605233D01*
X159616052Y-88605234D01*
X159657794Y-88617896D01*
X159814066Y-88665300D01*
X160020000Y-88685583D01*
X160225934Y-88665300D01*
X160423954Y-88605232D01*
X160606450Y-88507685D01*
X160766410Y-88376410D01*
X160897685Y-88216450D01*
X160995232Y-88033954D01*
X161055300Y-87835934D01*
X161075583Y-87630000D01*
X161504417Y-87630000D01*
X161524699Y-87835932D01*
X161584765Y-88033947D01*
X161584770Y-88033959D01*
X161675426Y-88203562D01*
X161682315Y-88216450D01*
X161813590Y-88376410D01*
X161973550Y-88507685D01*
X161973554Y-88507687D01*
X162127311Y-88589873D01*
X162156046Y-88605232D01*
X162156050Y-88605233D01*
X162156052Y-88605234D01*
X162197794Y-88617896D01*
X162354066Y-88665300D01*
X162560000Y-88685583D01*
X162765934Y-88665300D01*
X162963954Y-88605232D01*
X163146450Y-88507685D01*
X163306410Y-88376410D01*
X163437685Y-88216450D01*
X163535232Y-88033954D01*
X163595300Y-87835934D01*
X163615583Y-87630000D01*
X164044417Y-87630000D01*
X164064699Y-87835932D01*
X164124765Y-88033947D01*
X164124770Y-88033959D01*
X164215426Y-88203562D01*
X164222315Y-88216450D01*
X164353590Y-88376410D01*
X164513550Y-88507685D01*
X164513554Y-88507687D01*
X164667311Y-88589873D01*
X164696046Y-88605232D01*
X164696050Y-88605233D01*
X164696052Y-88605234D01*
X164737794Y-88617896D01*
X164894066Y-88665300D01*
X165100000Y-88685583D01*
X165305934Y-88665300D01*
X165503954Y-88605232D01*
X165686450Y-88507685D01*
X165846410Y-88376410D01*
X165977685Y-88216450D01*
X166075232Y-88033954D01*
X166135300Y-87835934D01*
X166155583Y-87630000D01*
X166584417Y-87630000D01*
X166604699Y-87835932D01*
X166664765Y-88033947D01*
X166664770Y-88033959D01*
X166755426Y-88203562D01*
X166762315Y-88216450D01*
X166893590Y-88376410D01*
X167053550Y-88507685D01*
X167053554Y-88507687D01*
X167207311Y-88589873D01*
X167236046Y-88605232D01*
X167236050Y-88605233D01*
X167236052Y-88605234D01*
X167277794Y-88617896D01*
X167434066Y-88665300D01*
X167640000Y-88685583D01*
X167845934Y-88665300D01*
X168043954Y-88605232D01*
X168226450Y-88507685D01*
X168386410Y-88376410D01*
X168517685Y-88216450D01*
X168615232Y-88033954D01*
X168675300Y-87835934D01*
X168695583Y-87630000D01*
X169124417Y-87630000D01*
X169144699Y-87835932D01*
X169204765Y-88033947D01*
X169204770Y-88033959D01*
X169295426Y-88203562D01*
X169302315Y-88216450D01*
X169433590Y-88376410D01*
X169593550Y-88507685D01*
X169593554Y-88507687D01*
X169747311Y-88589873D01*
X169776046Y-88605232D01*
X169776050Y-88605233D01*
X169776052Y-88605234D01*
X169817794Y-88617896D01*
X169974066Y-88665300D01*
X170180000Y-88685583D01*
X170385934Y-88665300D01*
X170583954Y-88605232D01*
X170766450Y-88507685D01*
X170926410Y-88376410D01*
X171057685Y-88216450D01*
X171155232Y-88033954D01*
X171215300Y-87835934D01*
X171235583Y-87630000D01*
X171664417Y-87630000D01*
X171684699Y-87835932D01*
X171744765Y-88033947D01*
X171744770Y-88033959D01*
X171835426Y-88203562D01*
X171842315Y-88216450D01*
X171973590Y-88376410D01*
X172133550Y-88507685D01*
X172133554Y-88507687D01*
X172287311Y-88589873D01*
X172316046Y-88605232D01*
X172316050Y-88605233D01*
X172316052Y-88605234D01*
X172357794Y-88617896D01*
X172514066Y-88665300D01*
X172720000Y-88685583D01*
X172925934Y-88665300D01*
X173123954Y-88605232D01*
X173306450Y-88507685D01*
X173466410Y-88376410D01*
X173597685Y-88216450D01*
X173695232Y-88033954D01*
X173755300Y-87835934D01*
X173775583Y-87630000D01*
X174204417Y-87630000D01*
X174224699Y-87835932D01*
X174284765Y-88033947D01*
X174284770Y-88033959D01*
X174375426Y-88203562D01*
X174382315Y-88216450D01*
X174513590Y-88376410D01*
X174673550Y-88507685D01*
X174673554Y-88507687D01*
X174827311Y-88589873D01*
X174856046Y-88605232D01*
X174856050Y-88605233D01*
X174856052Y-88605234D01*
X174897794Y-88617896D01*
X175054066Y-88665300D01*
X175260000Y-88685583D01*
X175465934Y-88665300D01*
X175663954Y-88605232D01*
X175846450Y-88507685D01*
X176006410Y-88376410D01*
X176137685Y-88216450D01*
X176235232Y-88033954D01*
X176295300Y-87835934D01*
X176315583Y-87630000D01*
X176300573Y-87477599D01*
X176807760Y-87477599D01*
X176807760Y-87477600D01*
X177323198Y-87477600D01*
X177300000Y-87564174D01*
X177300000Y-87695826D01*
X177323198Y-87782400D01*
X176807760Y-87782400D01*
X176812103Y-87826503D01*
X176869419Y-88015451D01*
X176869424Y-88015463D01*
X176962499Y-88189593D01*
X176962503Y-88189599D01*
X177087766Y-88342233D01*
X177240400Y-88467496D01*
X177240406Y-88467500D01*
X177414536Y-88560575D01*
X177414548Y-88560580D01*
X177603490Y-88617894D01*
X177603502Y-88617896D01*
X177647599Y-88622239D01*
X177647600Y-88622239D01*
X177647600Y-88106802D01*
X177734174Y-88130000D01*
X177865826Y-88130000D01*
X177952400Y-88106802D01*
X177952400Y-88622239D01*
X177996497Y-88617896D01*
X177996509Y-88617894D01*
X178185451Y-88560580D01*
X178185463Y-88560575D01*
X178359593Y-88467500D01*
X178359599Y-88467496D01*
X178512233Y-88342233D01*
X178637496Y-88189599D01*
X178637500Y-88189593D01*
X178730575Y-88015463D01*
X178730580Y-88015451D01*
X178787896Y-87826503D01*
X178792239Y-87782400D01*
X178276802Y-87782400D01*
X178300000Y-87695826D01*
X178300000Y-87564174D01*
X178276802Y-87477600D01*
X178792240Y-87477600D01*
X178792239Y-87477599D01*
X178787896Y-87433496D01*
X178730580Y-87244548D01*
X178730575Y-87244536D01*
X178637500Y-87070406D01*
X178637496Y-87070400D01*
X178512233Y-86917766D01*
X178359599Y-86792503D01*
X178359593Y-86792499D01*
X178308122Y-86764987D01*
X179337600Y-86764987D01*
X179337600Y-87477600D01*
X179863198Y-87477600D01*
X179840000Y-87564174D01*
X179840000Y-87695826D01*
X179863198Y-87782400D01*
X179337600Y-87782400D01*
X179337600Y-88495012D01*
X179346441Y-88539462D01*
X179346442Y-88539464D01*
X179380126Y-88589873D01*
X179430535Y-88623557D01*
X179430537Y-88623558D01*
X179474987Y-88632400D01*
X180187600Y-88632400D01*
X180187600Y-88106802D01*
X180274174Y-88130000D01*
X180405826Y-88130000D01*
X180492400Y-88106802D01*
X180492400Y-88632400D01*
X181205013Y-88632400D01*
X181249462Y-88623558D01*
X181249464Y-88623557D01*
X181299873Y-88589873D01*
X181333557Y-88539464D01*
X181333558Y-88539462D01*
X181342400Y-88495012D01*
X181342400Y-87782400D01*
X180816802Y-87782400D01*
X180840000Y-87695826D01*
X180840000Y-87564174D01*
X180816802Y-87477600D01*
X181342400Y-87477600D01*
X181342400Y-86764987D01*
X181333558Y-86720537D01*
X181333557Y-86720535D01*
X181299873Y-86670126D01*
X181249464Y-86636442D01*
X181249462Y-86636441D01*
X181205013Y-86627600D01*
X180492400Y-86627600D01*
X180492400Y-87153197D01*
X180405826Y-87130000D01*
X180274174Y-87130000D01*
X180187600Y-87153197D01*
X180187600Y-86627600D01*
X179474987Y-86627600D01*
X179430537Y-86636441D01*
X179430535Y-86636442D01*
X179380126Y-86670126D01*
X179346442Y-86720535D01*
X179346441Y-86720537D01*
X179337600Y-86764987D01*
X178308122Y-86764987D01*
X178185463Y-86699424D01*
X178185451Y-86699419D01*
X177996502Y-86642103D01*
X177996503Y-86642103D01*
X177952400Y-86637760D01*
X177952400Y-87153197D01*
X177865826Y-87130000D01*
X177734174Y-87130000D01*
X177647600Y-87153197D01*
X177647600Y-86637760D01*
X177647599Y-86637760D01*
X177603496Y-86642103D01*
X177414548Y-86699419D01*
X177414536Y-86699424D01*
X177240406Y-86792499D01*
X177240400Y-86792503D01*
X177087766Y-86917766D01*
X176962503Y-87070400D01*
X176962499Y-87070406D01*
X176869424Y-87244536D01*
X176869419Y-87244548D01*
X176812103Y-87433496D01*
X176807760Y-87477599D01*
X176300573Y-87477599D01*
X176295300Y-87424066D01*
X176257598Y-87299778D01*
X176235234Y-87226052D01*
X176235229Y-87226040D01*
X176137687Y-87043554D01*
X176137684Y-87043549D01*
X176006410Y-86883590D01*
X175846450Y-86752315D01*
X175846445Y-86752312D01*
X175663959Y-86654770D01*
X175663947Y-86654765D01*
X175465932Y-86594699D01*
X175260000Y-86574417D01*
X175054067Y-86594699D01*
X174856052Y-86654765D01*
X174856040Y-86654770D01*
X174673554Y-86752312D01*
X174673549Y-86752315D01*
X174513590Y-86883590D01*
X174382315Y-87043549D01*
X174382312Y-87043554D01*
X174284770Y-87226040D01*
X174284765Y-87226052D01*
X174224699Y-87424067D01*
X174204417Y-87630000D01*
X173775583Y-87630000D01*
X173755300Y-87424066D01*
X173717598Y-87299778D01*
X173695234Y-87226052D01*
X173695229Y-87226040D01*
X173597687Y-87043554D01*
X173597684Y-87043549D01*
X173466410Y-86883590D01*
X173306450Y-86752315D01*
X173306445Y-86752312D01*
X173123959Y-86654770D01*
X173123947Y-86654765D01*
X172925932Y-86594699D01*
X172720000Y-86574417D01*
X172514067Y-86594699D01*
X172316052Y-86654765D01*
X172316040Y-86654770D01*
X172133554Y-86752312D01*
X172133549Y-86752315D01*
X171973590Y-86883590D01*
X171842315Y-87043549D01*
X171842312Y-87043554D01*
X171744770Y-87226040D01*
X171744765Y-87226052D01*
X171684699Y-87424067D01*
X171664417Y-87630000D01*
X171235583Y-87630000D01*
X171215300Y-87424066D01*
X171177598Y-87299778D01*
X171155234Y-87226052D01*
X171155229Y-87226040D01*
X171057687Y-87043554D01*
X171057684Y-87043549D01*
X170926410Y-86883590D01*
X170766450Y-86752315D01*
X170766445Y-86752312D01*
X170583959Y-86654770D01*
X170583947Y-86654765D01*
X170385932Y-86594699D01*
X170180000Y-86574417D01*
X169974067Y-86594699D01*
X169776052Y-86654765D01*
X169776040Y-86654770D01*
X169593554Y-86752312D01*
X169593549Y-86752315D01*
X169433590Y-86883590D01*
X169302315Y-87043549D01*
X169302312Y-87043554D01*
X169204770Y-87226040D01*
X169204765Y-87226052D01*
X169144699Y-87424067D01*
X169124417Y-87630000D01*
X168695583Y-87630000D01*
X168675300Y-87424066D01*
X168637598Y-87299778D01*
X168615234Y-87226052D01*
X168615229Y-87226040D01*
X168517687Y-87043554D01*
X168517684Y-87043549D01*
X168386410Y-86883590D01*
X168226450Y-86752315D01*
X168226445Y-86752312D01*
X168043959Y-86654770D01*
X168043947Y-86654765D01*
X167845932Y-86594699D01*
X167640000Y-86574417D01*
X167434067Y-86594699D01*
X167236052Y-86654765D01*
X167236040Y-86654770D01*
X167053554Y-86752312D01*
X167053549Y-86752315D01*
X166893590Y-86883590D01*
X166762315Y-87043549D01*
X166762312Y-87043554D01*
X166664770Y-87226040D01*
X166664765Y-87226052D01*
X166604699Y-87424067D01*
X166584417Y-87630000D01*
X166155583Y-87630000D01*
X166135300Y-87424066D01*
X166097598Y-87299778D01*
X166075234Y-87226052D01*
X166075229Y-87226040D01*
X165977687Y-87043554D01*
X165977684Y-87043549D01*
X165846410Y-86883590D01*
X165686450Y-86752315D01*
X165686445Y-86752312D01*
X165503959Y-86654770D01*
X165503947Y-86654765D01*
X165305932Y-86594699D01*
X165100000Y-86574417D01*
X164894067Y-86594699D01*
X164696052Y-86654765D01*
X164696040Y-86654770D01*
X164513554Y-86752312D01*
X164513549Y-86752315D01*
X164353590Y-86883590D01*
X164222315Y-87043549D01*
X164222312Y-87043554D01*
X164124770Y-87226040D01*
X164124765Y-87226052D01*
X164064699Y-87424067D01*
X164044417Y-87630000D01*
X163615583Y-87630000D01*
X163595300Y-87424066D01*
X163557598Y-87299778D01*
X163535234Y-87226052D01*
X163535229Y-87226040D01*
X163437687Y-87043554D01*
X163437684Y-87043549D01*
X163306410Y-86883590D01*
X163146450Y-86752315D01*
X163146445Y-86752312D01*
X162963959Y-86654770D01*
X162963947Y-86654765D01*
X162765932Y-86594699D01*
X162560000Y-86574417D01*
X162354067Y-86594699D01*
X162156052Y-86654765D01*
X162156040Y-86654770D01*
X161973554Y-86752312D01*
X161973549Y-86752315D01*
X161813590Y-86883590D01*
X161682315Y-87043549D01*
X161682312Y-87043554D01*
X161584770Y-87226040D01*
X161584765Y-87226052D01*
X161524699Y-87424067D01*
X161504417Y-87630000D01*
X161075583Y-87630000D01*
X161055300Y-87424066D01*
X161017598Y-87299778D01*
X160995234Y-87226052D01*
X160995229Y-87226040D01*
X160897687Y-87043554D01*
X160897684Y-87043549D01*
X160766410Y-86883590D01*
X160606450Y-86752315D01*
X160606445Y-86752312D01*
X160423959Y-86654770D01*
X160423947Y-86654765D01*
X160225932Y-86594699D01*
X160020000Y-86574417D01*
X159814067Y-86594699D01*
X159616052Y-86654765D01*
X159616040Y-86654770D01*
X159433554Y-86752312D01*
X159433549Y-86752315D01*
X159273590Y-86883590D01*
X159142315Y-87043549D01*
X159142312Y-87043554D01*
X159044770Y-87226040D01*
X159044765Y-87226052D01*
X158984699Y-87424067D01*
X158964417Y-87630000D01*
X158535583Y-87630000D01*
X158515300Y-87424066D01*
X158477598Y-87299778D01*
X158455234Y-87226052D01*
X158455229Y-87226040D01*
X158357687Y-87043554D01*
X158357684Y-87043549D01*
X158226410Y-86883590D01*
X158066450Y-86752315D01*
X158066445Y-86752312D01*
X157883959Y-86654770D01*
X157883947Y-86654765D01*
X157685932Y-86594699D01*
X157480000Y-86574417D01*
X157274067Y-86594699D01*
X157076052Y-86654765D01*
X157076040Y-86654770D01*
X156893554Y-86752312D01*
X156893549Y-86752315D01*
X156733590Y-86883590D01*
X156602315Y-87043549D01*
X156602312Y-87043554D01*
X156504770Y-87226040D01*
X156504765Y-87226052D01*
X156444699Y-87424067D01*
X156424417Y-87630000D01*
X155995583Y-87630000D01*
X155975300Y-87424066D01*
X155937598Y-87299778D01*
X155915234Y-87226052D01*
X155915229Y-87226040D01*
X155817687Y-87043554D01*
X155817684Y-87043549D01*
X155686410Y-86883590D01*
X155526450Y-86752315D01*
X155526445Y-86752312D01*
X155343959Y-86654770D01*
X155343947Y-86654765D01*
X155145932Y-86594699D01*
X154940000Y-86574417D01*
X154734067Y-86594699D01*
X154536052Y-86654765D01*
X154536040Y-86654770D01*
X154353554Y-86752312D01*
X154353549Y-86752315D01*
X154193590Y-86883590D01*
X154062315Y-87043549D01*
X154062312Y-87043554D01*
X153964770Y-87226040D01*
X153964765Y-87226052D01*
X153904699Y-87424067D01*
X153884417Y-87630000D01*
X153455583Y-87630000D01*
X153435300Y-87424066D01*
X153397598Y-87299778D01*
X153375234Y-87226052D01*
X153375229Y-87226040D01*
X153277687Y-87043554D01*
X153277684Y-87043549D01*
X153146410Y-86883590D01*
X152986450Y-86752315D01*
X152986445Y-86752312D01*
X152803959Y-86654770D01*
X152803947Y-86654765D01*
X152605932Y-86594699D01*
X152400000Y-86574417D01*
X152194067Y-86594699D01*
X151996052Y-86654765D01*
X151996040Y-86654770D01*
X151813554Y-86752312D01*
X151813549Y-86752315D01*
X151653590Y-86883590D01*
X151522315Y-87043549D01*
X151522312Y-87043554D01*
X151424770Y-87226040D01*
X151424765Y-87226052D01*
X151364699Y-87424067D01*
X151344417Y-87630000D01*
X150915583Y-87630000D01*
X150895300Y-87424066D01*
X150857598Y-87299778D01*
X150835234Y-87226052D01*
X150835229Y-87226040D01*
X150737687Y-87043554D01*
X150737684Y-87043549D01*
X150606410Y-86883590D01*
X150446450Y-86752315D01*
X150446445Y-86752312D01*
X150263959Y-86654770D01*
X150263947Y-86654765D01*
X150065932Y-86594699D01*
X149860000Y-86574417D01*
X149654067Y-86594699D01*
X149456052Y-86654765D01*
X149456040Y-86654770D01*
X149273554Y-86752312D01*
X149273549Y-86752315D01*
X149113590Y-86883590D01*
X148982315Y-87043549D01*
X148982312Y-87043554D01*
X148940620Y-87121554D01*
X148902318Y-87155891D01*
X148850906Y-87157573D01*
X148810440Y-87125815D01*
X148799100Y-87086105D01*
X148799100Y-86212858D01*
X148799100Y-86212856D01*
X148777647Y-86132792D01*
X148777646Y-86132791D01*
X148777646Y-86132789D01*
X148754476Y-86092659D01*
X148736203Y-86061008D01*
X148736201Y-86061006D01*
X148736199Y-86061003D01*
X148290750Y-85615555D01*
X148269010Y-85568935D01*
X148277604Y-85526931D01*
X148295232Y-85493954D01*
X148355300Y-85295934D01*
X148375583Y-85090000D01*
X148804417Y-85090000D01*
X148824699Y-85295932D01*
X148884765Y-85493947D01*
X148884770Y-85493959D01*
X148982312Y-85676445D01*
X148982315Y-85676450D01*
X149113590Y-85836410D01*
X149273550Y-85967685D01*
X149273554Y-85967687D01*
X149448143Y-86061008D01*
X149456046Y-86065232D01*
X149456050Y-86065233D01*
X149456052Y-86065234D01*
X149529778Y-86087598D01*
X149654066Y-86125300D01*
X149860000Y-86145583D01*
X150065934Y-86125300D01*
X150263954Y-86065232D01*
X150446450Y-85967685D01*
X150606410Y-85836410D01*
X150737685Y-85676450D01*
X150835232Y-85493954D01*
X150895300Y-85295934D01*
X150915583Y-85090000D01*
X151344417Y-85090000D01*
X151364699Y-85295932D01*
X151424765Y-85493947D01*
X151424770Y-85493959D01*
X151522312Y-85676445D01*
X151522315Y-85676450D01*
X151653590Y-85836410D01*
X151813550Y-85967685D01*
X151813554Y-85967687D01*
X151988143Y-86061008D01*
X151996046Y-86065232D01*
X151996050Y-86065233D01*
X151996052Y-86065234D01*
X152069778Y-86087598D01*
X152194066Y-86125300D01*
X152400000Y-86145583D01*
X152605934Y-86125300D01*
X152803954Y-86065232D01*
X152986450Y-85967685D01*
X153146410Y-85836410D01*
X153277685Y-85676450D01*
X153375232Y-85493954D01*
X153435300Y-85295934D01*
X153455583Y-85090000D01*
X153884417Y-85090000D01*
X153904699Y-85295932D01*
X153964765Y-85493947D01*
X153964770Y-85493959D01*
X154062312Y-85676445D01*
X154062315Y-85676450D01*
X154193590Y-85836410D01*
X154353550Y-85967685D01*
X154353554Y-85967687D01*
X154528143Y-86061008D01*
X154536046Y-86065232D01*
X154536050Y-86065233D01*
X154536052Y-86065234D01*
X154609778Y-86087598D01*
X154734066Y-86125300D01*
X154940000Y-86145583D01*
X155145934Y-86125300D01*
X155343954Y-86065232D01*
X155526450Y-85967685D01*
X155686410Y-85836410D01*
X155817685Y-85676450D01*
X155915232Y-85493954D01*
X155975300Y-85295934D01*
X155995583Y-85090000D01*
X156424417Y-85090000D01*
X156444699Y-85295932D01*
X156504765Y-85493947D01*
X156504770Y-85493959D01*
X156602312Y-85676445D01*
X156602315Y-85676450D01*
X156733590Y-85836410D01*
X156893550Y-85967685D01*
X156893554Y-85967687D01*
X157068143Y-86061008D01*
X157076046Y-86065232D01*
X157076050Y-86065233D01*
X157076052Y-86065234D01*
X157149778Y-86087598D01*
X157274066Y-86125300D01*
X157480000Y-86145583D01*
X157685934Y-86125300D01*
X157883954Y-86065232D01*
X158066450Y-85967685D01*
X158226410Y-85836410D01*
X158357685Y-85676450D01*
X158455232Y-85493954D01*
X158515300Y-85295934D01*
X158535583Y-85090000D01*
X158964417Y-85090000D01*
X158984699Y-85295932D01*
X159044765Y-85493947D01*
X159044770Y-85493959D01*
X159142312Y-85676445D01*
X159142315Y-85676450D01*
X159273590Y-85836410D01*
X159433550Y-85967685D01*
X159433554Y-85967687D01*
X159608143Y-86061008D01*
X159616046Y-86065232D01*
X159616050Y-86065233D01*
X159616052Y-86065234D01*
X159689778Y-86087598D01*
X159814066Y-86125300D01*
X160020000Y-86145583D01*
X160225934Y-86125300D01*
X160423954Y-86065232D01*
X160606450Y-85967685D01*
X160766410Y-85836410D01*
X160897685Y-85676450D01*
X160995232Y-85493954D01*
X161055300Y-85295934D01*
X161075583Y-85090000D01*
X161504417Y-85090000D01*
X161524699Y-85295932D01*
X161584765Y-85493947D01*
X161584770Y-85493959D01*
X161682312Y-85676445D01*
X161682315Y-85676450D01*
X161813590Y-85836410D01*
X161973550Y-85967685D01*
X161973554Y-85967687D01*
X162148143Y-86061008D01*
X162156046Y-86065232D01*
X162156050Y-86065233D01*
X162156052Y-86065234D01*
X162229778Y-86087598D01*
X162354066Y-86125300D01*
X162560000Y-86145583D01*
X162765934Y-86125300D01*
X162963954Y-86065232D01*
X163146450Y-85967685D01*
X163306410Y-85836410D01*
X163437685Y-85676450D01*
X163535232Y-85493954D01*
X163595300Y-85295934D01*
X163615583Y-85090000D01*
X164044417Y-85090000D01*
X164064699Y-85295932D01*
X164124765Y-85493947D01*
X164124770Y-85493959D01*
X164222312Y-85676445D01*
X164222315Y-85676450D01*
X164353590Y-85836410D01*
X164513550Y-85967685D01*
X164513554Y-85967687D01*
X164688143Y-86061008D01*
X164696046Y-86065232D01*
X164696050Y-86065233D01*
X164696052Y-86065234D01*
X164769778Y-86087598D01*
X164894066Y-86125300D01*
X165100000Y-86145583D01*
X165305934Y-86125300D01*
X165503954Y-86065232D01*
X165686450Y-85967685D01*
X165846410Y-85836410D01*
X165977685Y-85676450D01*
X166075232Y-85493954D01*
X166135300Y-85295934D01*
X166155583Y-85090000D01*
X166584417Y-85090000D01*
X166604699Y-85295932D01*
X166664765Y-85493947D01*
X166664770Y-85493959D01*
X166762312Y-85676445D01*
X166762315Y-85676450D01*
X166893590Y-85836410D01*
X167053550Y-85967685D01*
X167053554Y-85967687D01*
X167228143Y-86061008D01*
X167236046Y-86065232D01*
X167236050Y-86065233D01*
X167236052Y-86065234D01*
X167309778Y-86087598D01*
X167434066Y-86125300D01*
X167640000Y-86145583D01*
X167845934Y-86125300D01*
X168043954Y-86065232D01*
X168226450Y-85967685D01*
X168386410Y-85836410D01*
X168517685Y-85676450D01*
X168615232Y-85493954D01*
X168675300Y-85295934D01*
X168695583Y-85090000D01*
X169124417Y-85090000D01*
X169144699Y-85295932D01*
X169204765Y-85493947D01*
X169204770Y-85493959D01*
X169302312Y-85676445D01*
X169302315Y-85676450D01*
X169433590Y-85836410D01*
X169593550Y-85967685D01*
X169593554Y-85967687D01*
X169768143Y-86061008D01*
X169776046Y-86065232D01*
X169776050Y-86065233D01*
X169776052Y-86065234D01*
X169849778Y-86087598D01*
X169974066Y-86125300D01*
X170180000Y-86145583D01*
X170385934Y-86125300D01*
X170583954Y-86065232D01*
X170766450Y-85967685D01*
X170926410Y-85836410D01*
X171057685Y-85676450D01*
X171155232Y-85493954D01*
X171215300Y-85295934D01*
X171235583Y-85090000D01*
X171664417Y-85090000D01*
X171684699Y-85295932D01*
X171744765Y-85493947D01*
X171744770Y-85493959D01*
X171842312Y-85676445D01*
X171842315Y-85676450D01*
X171973590Y-85836410D01*
X172133550Y-85967685D01*
X172133554Y-85967687D01*
X172308143Y-86061008D01*
X172316046Y-86065232D01*
X172316050Y-86065233D01*
X172316052Y-86065234D01*
X172389778Y-86087598D01*
X172514066Y-86125300D01*
X172720000Y-86145583D01*
X172925934Y-86125300D01*
X173123954Y-86065232D01*
X173306450Y-85967685D01*
X173466410Y-85836410D01*
X173597685Y-85676450D01*
X173695232Y-85493954D01*
X173755300Y-85295934D01*
X173775583Y-85090000D01*
X174204417Y-85090000D01*
X174224699Y-85295932D01*
X174284765Y-85493947D01*
X174284770Y-85493959D01*
X174382312Y-85676445D01*
X174382315Y-85676450D01*
X174513590Y-85836410D01*
X174673550Y-85967685D01*
X174673554Y-85967687D01*
X174848143Y-86061008D01*
X174856046Y-86065232D01*
X174856050Y-86065233D01*
X174856052Y-86065234D01*
X174929778Y-86087598D01*
X175054066Y-86125300D01*
X175260000Y-86145583D01*
X175465934Y-86125300D01*
X175663954Y-86065232D01*
X175846450Y-85967685D01*
X176006410Y-85836410D01*
X176137685Y-85676450D01*
X176235232Y-85493954D01*
X176295300Y-85295934D01*
X176315583Y-85090000D01*
X176744417Y-85090000D01*
X176764699Y-85295932D01*
X176824765Y-85493947D01*
X176824770Y-85493959D01*
X176922312Y-85676445D01*
X176922315Y-85676450D01*
X177053590Y-85836410D01*
X177213550Y-85967685D01*
X177213554Y-85967687D01*
X177388143Y-86061008D01*
X177396046Y-86065232D01*
X177396050Y-86065233D01*
X177396052Y-86065234D01*
X177469778Y-86087598D01*
X177594066Y-86125300D01*
X177800000Y-86145583D01*
X178005934Y-86125300D01*
X178203954Y-86065232D01*
X178386450Y-85967685D01*
X178546410Y-85836410D01*
X178677685Y-85676450D01*
X178775232Y-85493954D01*
X178835300Y-85295934D01*
X178855583Y-85090000D01*
X179284417Y-85090000D01*
X179304699Y-85295932D01*
X179364765Y-85493947D01*
X179364770Y-85493959D01*
X179462312Y-85676445D01*
X179462315Y-85676450D01*
X179593590Y-85836410D01*
X179753550Y-85967685D01*
X179753554Y-85967687D01*
X179928143Y-86061008D01*
X179936046Y-86065232D01*
X179936050Y-86065233D01*
X179936052Y-86065234D01*
X180009778Y-86087598D01*
X180134066Y-86125300D01*
X180340000Y-86145583D01*
X180545934Y-86125300D01*
X180743954Y-86065232D01*
X180926450Y-85967685D01*
X181086410Y-85836410D01*
X181217685Y-85676450D01*
X181315232Y-85493954D01*
X181375300Y-85295934D01*
X181395583Y-85090000D01*
X181375300Y-84884066D01*
X181315232Y-84686046D01*
X181217685Y-84503550D01*
X181086410Y-84343590D01*
X180926450Y-84212315D01*
X180926445Y-84212312D01*
X180743959Y-84114770D01*
X180743947Y-84114765D01*
X180545932Y-84054699D01*
X180340000Y-84034417D01*
X180134067Y-84054699D01*
X179936052Y-84114765D01*
X179936040Y-84114770D01*
X179753554Y-84212312D01*
X179753549Y-84212315D01*
X179593590Y-84343590D01*
X179462315Y-84503549D01*
X179462312Y-84503554D01*
X179364770Y-84686040D01*
X179364765Y-84686052D01*
X179304699Y-84884067D01*
X179284417Y-85090000D01*
X178855583Y-85090000D01*
X178835300Y-84884066D01*
X178775232Y-84686046D01*
X178677685Y-84503550D01*
X178546410Y-84343590D01*
X178386450Y-84212315D01*
X178386445Y-84212312D01*
X178203959Y-84114770D01*
X178203947Y-84114765D01*
X178005932Y-84054699D01*
X177800000Y-84034417D01*
X177594067Y-84054699D01*
X177396052Y-84114765D01*
X177396040Y-84114770D01*
X177213554Y-84212312D01*
X177213549Y-84212315D01*
X177053590Y-84343590D01*
X176922315Y-84503549D01*
X176922312Y-84503554D01*
X176824770Y-84686040D01*
X176824765Y-84686052D01*
X176764699Y-84884067D01*
X176744417Y-85090000D01*
X176315583Y-85090000D01*
X176295300Y-84884066D01*
X176235232Y-84686046D01*
X176137685Y-84503550D01*
X176006410Y-84343590D01*
X175846450Y-84212315D01*
X175846445Y-84212312D01*
X175663959Y-84114770D01*
X175663947Y-84114765D01*
X175465932Y-84054699D01*
X175260000Y-84034417D01*
X175054067Y-84054699D01*
X174856052Y-84114765D01*
X174856040Y-84114770D01*
X174673554Y-84212312D01*
X174673549Y-84212315D01*
X174513590Y-84343590D01*
X174382315Y-84503549D01*
X174382312Y-84503554D01*
X174284770Y-84686040D01*
X174284765Y-84686052D01*
X174224699Y-84884067D01*
X174204417Y-85090000D01*
X173775583Y-85090000D01*
X173755300Y-84884066D01*
X173695232Y-84686046D01*
X173597685Y-84503550D01*
X173466410Y-84343590D01*
X173306450Y-84212315D01*
X173306445Y-84212312D01*
X173123959Y-84114770D01*
X173123947Y-84114765D01*
X172925932Y-84054699D01*
X172720000Y-84034417D01*
X172514067Y-84054699D01*
X172316052Y-84114765D01*
X172316040Y-84114770D01*
X172133554Y-84212312D01*
X172133549Y-84212315D01*
X171973590Y-84343590D01*
X171842315Y-84503549D01*
X171842312Y-84503554D01*
X171744770Y-84686040D01*
X171744765Y-84686052D01*
X171684699Y-84884067D01*
X171664417Y-85090000D01*
X171235583Y-85090000D01*
X171215300Y-84884066D01*
X171155232Y-84686046D01*
X171057685Y-84503550D01*
X170926410Y-84343590D01*
X170766450Y-84212315D01*
X170766445Y-84212312D01*
X170583959Y-84114770D01*
X170583947Y-84114765D01*
X170385932Y-84054699D01*
X170180000Y-84034417D01*
X169974067Y-84054699D01*
X169776052Y-84114765D01*
X169776040Y-84114770D01*
X169593554Y-84212312D01*
X169593549Y-84212315D01*
X169433590Y-84343590D01*
X169302315Y-84503549D01*
X169302312Y-84503554D01*
X169204770Y-84686040D01*
X169204765Y-84686052D01*
X169144699Y-84884067D01*
X169124417Y-85090000D01*
X168695583Y-85090000D01*
X168675300Y-84884066D01*
X168615232Y-84686046D01*
X168517685Y-84503550D01*
X168386410Y-84343590D01*
X168226450Y-84212315D01*
X168226445Y-84212312D01*
X168043959Y-84114770D01*
X168043947Y-84114765D01*
X167845932Y-84054699D01*
X167640000Y-84034417D01*
X167434067Y-84054699D01*
X167236052Y-84114765D01*
X167236040Y-84114770D01*
X167053554Y-84212312D01*
X167053549Y-84212315D01*
X166893590Y-84343590D01*
X166762315Y-84503549D01*
X166762312Y-84503554D01*
X166664770Y-84686040D01*
X166664765Y-84686052D01*
X166604699Y-84884067D01*
X166584417Y-85090000D01*
X166155583Y-85090000D01*
X166135300Y-84884066D01*
X166075232Y-84686046D01*
X165977685Y-84503550D01*
X165846410Y-84343590D01*
X165686450Y-84212315D01*
X165686445Y-84212312D01*
X165503959Y-84114770D01*
X165503947Y-84114765D01*
X165305932Y-84054699D01*
X165100000Y-84034417D01*
X164894067Y-84054699D01*
X164696052Y-84114765D01*
X164696040Y-84114770D01*
X164513554Y-84212312D01*
X164513549Y-84212315D01*
X164353590Y-84343590D01*
X164222315Y-84503549D01*
X164222312Y-84503554D01*
X164124770Y-84686040D01*
X164124765Y-84686052D01*
X164064699Y-84884067D01*
X164044417Y-85090000D01*
X163615583Y-85090000D01*
X163595300Y-84884066D01*
X163535232Y-84686046D01*
X163437685Y-84503550D01*
X163306410Y-84343590D01*
X163146450Y-84212315D01*
X163146445Y-84212312D01*
X162963959Y-84114770D01*
X162963947Y-84114765D01*
X162765932Y-84054699D01*
X162560000Y-84034417D01*
X162354067Y-84054699D01*
X162156052Y-84114765D01*
X162156040Y-84114770D01*
X161973554Y-84212312D01*
X161973549Y-84212315D01*
X161813590Y-84343590D01*
X161682315Y-84503549D01*
X161682312Y-84503554D01*
X161584770Y-84686040D01*
X161584765Y-84686052D01*
X161524699Y-84884067D01*
X161504417Y-85090000D01*
X161075583Y-85090000D01*
X161055300Y-84884066D01*
X160995232Y-84686046D01*
X160897685Y-84503550D01*
X160766410Y-84343590D01*
X160606450Y-84212315D01*
X160606445Y-84212312D01*
X160423959Y-84114770D01*
X160423947Y-84114765D01*
X160225932Y-84054699D01*
X160020000Y-84034417D01*
X159814067Y-84054699D01*
X159616052Y-84114765D01*
X159616040Y-84114770D01*
X159433554Y-84212312D01*
X159433549Y-84212315D01*
X159273590Y-84343590D01*
X159142315Y-84503549D01*
X159142312Y-84503554D01*
X159044770Y-84686040D01*
X159044765Y-84686052D01*
X158984699Y-84884067D01*
X158964417Y-85090000D01*
X158535583Y-85090000D01*
X158515300Y-84884066D01*
X158455232Y-84686046D01*
X158357685Y-84503550D01*
X158226410Y-84343590D01*
X158066450Y-84212315D01*
X158066445Y-84212312D01*
X157883959Y-84114770D01*
X157883947Y-84114765D01*
X157685932Y-84054699D01*
X157480000Y-84034417D01*
X157274067Y-84054699D01*
X157076052Y-84114765D01*
X157076040Y-84114770D01*
X156893554Y-84212312D01*
X156893549Y-84212315D01*
X156733590Y-84343590D01*
X156602315Y-84503549D01*
X156602312Y-84503554D01*
X156504770Y-84686040D01*
X156504765Y-84686052D01*
X156444699Y-84884067D01*
X156424417Y-85090000D01*
X155995583Y-85090000D01*
X155975300Y-84884066D01*
X155915232Y-84686046D01*
X155817685Y-84503550D01*
X155686410Y-84343590D01*
X155526450Y-84212315D01*
X155526445Y-84212312D01*
X155343959Y-84114770D01*
X155343947Y-84114765D01*
X155145932Y-84054699D01*
X154940000Y-84034417D01*
X154734067Y-84054699D01*
X154536052Y-84114765D01*
X154536040Y-84114770D01*
X154353554Y-84212312D01*
X154353549Y-84212315D01*
X154193590Y-84343590D01*
X154062315Y-84503549D01*
X154062312Y-84503554D01*
X153964770Y-84686040D01*
X153964765Y-84686052D01*
X153904699Y-84884067D01*
X153884417Y-85090000D01*
X153455583Y-85090000D01*
X153435300Y-84884066D01*
X153375232Y-84686046D01*
X153277685Y-84503550D01*
X153146410Y-84343590D01*
X152986450Y-84212315D01*
X152986445Y-84212312D01*
X152803959Y-84114770D01*
X152803947Y-84114765D01*
X152605932Y-84054699D01*
X152400000Y-84034417D01*
X152194067Y-84054699D01*
X151996052Y-84114765D01*
X151996040Y-84114770D01*
X151813554Y-84212312D01*
X151813549Y-84212315D01*
X151653590Y-84343590D01*
X151522315Y-84503549D01*
X151522312Y-84503554D01*
X151424770Y-84686040D01*
X151424765Y-84686052D01*
X151364699Y-84884067D01*
X151344417Y-85090000D01*
X150915583Y-85090000D01*
X150895300Y-84884066D01*
X150835232Y-84686046D01*
X150737685Y-84503550D01*
X150606410Y-84343590D01*
X150446450Y-84212315D01*
X150446445Y-84212312D01*
X150263959Y-84114770D01*
X150263947Y-84114765D01*
X150065932Y-84054699D01*
X149860000Y-84034417D01*
X149654067Y-84054699D01*
X149456052Y-84114765D01*
X149456040Y-84114770D01*
X149273554Y-84212312D01*
X149273549Y-84212315D01*
X149113590Y-84343590D01*
X148982315Y-84503549D01*
X148982312Y-84503554D01*
X148884770Y-84686040D01*
X148884765Y-84686052D01*
X148824699Y-84884067D01*
X148804417Y-85090000D01*
X148375583Y-85090000D01*
X148355300Y-84884066D01*
X148295232Y-84686046D01*
X148197685Y-84503550D01*
X148066410Y-84343590D01*
X147906450Y-84212315D01*
X147906445Y-84212312D01*
X147723959Y-84114770D01*
X147723947Y-84114765D01*
X147525932Y-84054699D01*
X147320000Y-84034417D01*
X147114067Y-84054699D01*
X146916052Y-84114765D01*
X146916040Y-84114770D01*
X146733554Y-84212312D01*
X146733549Y-84212315D01*
X146573590Y-84343590D01*
X146442315Y-84503549D01*
X146442312Y-84503554D01*
X146344770Y-84686040D01*
X146344765Y-84686052D01*
X146284699Y-84884067D01*
X146264417Y-85090000D01*
X146284699Y-85295932D01*
X146344765Y-85493947D01*
X146344770Y-85493959D01*
X146442312Y-85676445D01*
X146442315Y-85676450D01*
X146573590Y-85836410D01*
X146733550Y-85967685D01*
X146733554Y-85967687D01*
X146908143Y-86061008D01*
X146916046Y-86065232D01*
X146916050Y-86065233D01*
X146916052Y-86065234D01*
X146989778Y-86087598D01*
X147114066Y-86125300D01*
X147320000Y-86145583D01*
X147525934Y-86125300D01*
X147723954Y-86065232D01*
X147756931Y-86047604D01*
X147807852Y-86040333D01*
X147845555Y-86060750D01*
X148147474Y-86362669D01*
X148169214Y-86409289D01*
X148169500Y-86415843D01*
X148169500Y-86809196D01*
X148151907Y-86857534D01*
X148107358Y-86883254D01*
X148056700Y-86874321D01*
X148046594Y-86867327D01*
X147906450Y-86752315D01*
X147906445Y-86752312D01*
X147723959Y-86654770D01*
X147723947Y-86654765D01*
X147525932Y-86594699D01*
X147320000Y-86574417D01*
X147114067Y-86594699D01*
X146916052Y-86654765D01*
X146916040Y-86654770D01*
X146733554Y-86752312D01*
X146733549Y-86752315D01*
X146573590Y-86883590D01*
X146442315Y-87043549D01*
X146442312Y-87043554D01*
X146400620Y-87121554D01*
X146362318Y-87155891D01*
X146310906Y-87157573D01*
X146270440Y-87125815D01*
X146259100Y-87086105D01*
X146259100Y-86212858D01*
X146259100Y-86212856D01*
X146237647Y-86132792D01*
X146237646Y-86132791D01*
X146237646Y-86132789D01*
X146214476Y-86092659D01*
X146196203Y-86061008D01*
X146196201Y-86061006D01*
X146196199Y-86061003D01*
X145750750Y-85615555D01*
X145729010Y-85568935D01*
X145737604Y-85526931D01*
X145755232Y-85493954D01*
X145815300Y-85295934D01*
X145835583Y-85090000D01*
X145815300Y-84884066D01*
X145755232Y-84686046D01*
X145657685Y-84503550D01*
X145526410Y-84343590D01*
X145366450Y-84212315D01*
X145366445Y-84212312D01*
X145183959Y-84114770D01*
X145183947Y-84114765D01*
X144985932Y-84054699D01*
X144780000Y-84034417D01*
X144574067Y-84054699D01*
X144376052Y-84114765D01*
X144376040Y-84114770D01*
X144193554Y-84212312D01*
X144193549Y-84212315D01*
X144033590Y-84343590D01*
X143902315Y-84503549D01*
X143902312Y-84503554D01*
X143804770Y-84686040D01*
X143804765Y-84686052D01*
X143744699Y-84884067D01*
X143724417Y-85090000D01*
X143295583Y-85090000D01*
X143275300Y-84884066D01*
X143215232Y-84686046D01*
X143117685Y-84503550D01*
X142986410Y-84343590D01*
X142826450Y-84212315D01*
X142826445Y-84212312D01*
X142643959Y-84114770D01*
X142643947Y-84114765D01*
X142445932Y-84054699D01*
X142240000Y-84034417D01*
X142034067Y-84054699D01*
X141836052Y-84114765D01*
X141836040Y-84114770D01*
X141653554Y-84212312D01*
X141653549Y-84212315D01*
X141493590Y-84343590D01*
X141362315Y-84503549D01*
X141362312Y-84503554D01*
X141264770Y-84686040D01*
X141264765Y-84686052D01*
X141204699Y-84884067D01*
X141184417Y-85090000D01*
X140755583Y-85090000D01*
X140735300Y-84884066D01*
X140675232Y-84686046D01*
X140577685Y-84503550D01*
X140446410Y-84343590D01*
X140286450Y-84212315D01*
X140286445Y-84212312D01*
X140103959Y-84114770D01*
X140103947Y-84114765D01*
X139905932Y-84054699D01*
X139700000Y-84034417D01*
X139494067Y-84054699D01*
X139296052Y-84114765D01*
X139296040Y-84114770D01*
X139113554Y-84212312D01*
X139113549Y-84212315D01*
X138953590Y-84343590D01*
X138822315Y-84503549D01*
X138822312Y-84503554D01*
X138724770Y-84686040D01*
X138724765Y-84686052D01*
X138664699Y-84884067D01*
X138644417Y-85090000D01*
X138215583Y-85090000D01*
X138195300Y-84884066D01*
X138135232Y-84686046D01*
X138037685Y-84503550D01*
X137906410Y-84343590D01*
X137746450Y-84212315D01*
X137746445Y-84212312D01*
X137563959Y-84114770D01*
X137563947Y-84114765D01*
X137365932Y-84054699D01*
X137160000Y-84034417D01*
X136954067Y-84054699D01*
X136756052Y-84114765D01*
X136756040Y-84114770D01*
X136573554Y-84212312D01*
X136573549Y-84212315D01*
X136413590Y-84343590D01*
X136282315Y-84503549D01*
X136282312Y-84503554D01*
X136184770Y-84686040D01*
X136184765Y-84686052D01*
X136124699Y-84884067D01*
X136104417Y-85090000D01*
X135675583Y-85090000D01*
X135655300Y-84884066D01*
X135595232Y-84686046D01*
X135497685Y-84503550D01*
X135366410Y-84343590D01*
X135206450Y-84212315D01*
X135206445Y-84212312D01*
X135023959Y-84114770D01*
X135023947Y-84114765D01*
X134825932Y-84054699D01*
X134620000Y-84034417D01*
X134414067Y-84054699D01*
X134216052Y-84114765D01*
X134216040Y-84114770D01*
X134033554Y-84212312D01*
X134033549Y-84212315D01*
X133873590Y-84343590D01*
X133742315Y-84503549D01*
X133742312Y-84503554D01*
X133644770Y-84686040D01*
X133644765Y-84686052D01*
X133584699Y-84884067D01*
X133564417Y-85090000D01*
X133135583Y-85090000D01*
X133115300Y-84884066D01*
X133055232Y-84686046D01*
X132957685Y-84503550D01*
X132826410Y-84343590D01*
X132666450Y-84212315D01*
X132666445Y-84212312D01*
X132483959Y-84114770D01*
X132483947Y-84114765D01*
X132285932Y-84054699D01*
X132080000Y-84034417D01*
X131874067Y-84054699D01*
X131676052Y-84114765D01*
X131676040Y-84114770D01*
X131493554Y-84212312D01*
X131493549Y-84212315D01*
X131333590Y-84343590D01*
X131202315Y-84503549D01*
X131202312Y-84503554D01*
X131104770Y-84686040D01*
X131104765Y-84686052D01*
X131044699Y-84884067D01*
X131024417Y-85090000D01*
X123267003Y-85090000D01*
X123314265Y-85042738D01*
X123461936Y-84850289D01*
X123583224Y-84640212D01*
X123676054Y-84416100D01*
X123738838Y-84181789D01*
X123770500Y-83941288D01*
X123770500Y-83698712D01*
X188649500Y-83698712D01*
X188649500Y-83941288D01*
X188681162Y-84181789D01*
X188743946Y-84416100D01*
X188743947Y-84416104D01*
X188743948Y-84416105D01*
X188836776Y-84640213D01*
X188958065Y-84850291D01*
X189105730Y-85042732D01*
X189105742Y-85042746D01*
X189277253Y-85214257D01*
X189277267Y-85214269D01*
X189383692Y-85295932D01*
X189469711Y-85361936D01*
X189679788Y-85483224D01*
X189903900Y-85576054D01*
X190138211Y-85638838D01*
X190378712Y-85670500D01*
X190378715Y-85670500D01*
X190621285Y-85670500D01*
X190621288Y-85670500D01*
X190861789Y-85638838D01*
X191096100Y-85576054D01*
X191320212Y-85483224D01*
X191530289Y-85361936D01*
X191722738Y-85214265D01*
X191894265Y-85042738D01*
X192041936Y-84850289D01*
X192163224Y-84640212D01*
X192256054Y-84416100D01*
X192318838Y-84181789D01*
X192350500Y-83941288D01*
X192350500Y-83698712D01*
X192318838Y-83458211D01*
X192256054Y-83223900D01*
X192163224Y-82999788D01*
X192041936Y-82789711D01*
X191894265Y-82597262D01*
X191894263Y-82597260D01*
X191894257Y-82597253D01*
X191722746Y-82425742D01*
X191722732Y-82425730D01*
X191530291Y-82278065D01*
X191320213Y-82156776D01*
X191096105Y-82063948D01*
X191096104Y-82063947D01*
X191096100Y-82063946D01*
X190861789Y-82001162D01*
X190621288Y-81969500D01*
X190378712Y-81969500D01*
X190138211Y-82001162D01*
X189903900Y-82063946D01*
X189903897Y-82063947D01*
X189903894Y-82063948D01*
X189679786Y-82156776D01*
X189469708Y-82278065D01*
X189277267Y-82425730D01*
X189277253Y-82425742D01*
X189105742Y-82597253D01*
X189105730Y-82597267D01*
X188958065Y-82789708D01*
X188836776Y-82999786D01*
X188743948Y-83223894D01*
X188743946Y-83223900D01*
X188681162Y-83458211D01*
X188649500Y-83698712D01*
X123770500Y-83698712D01*
X123738838Y-83458211D01*
X123676054Y-83223900D01*
X123583224Y-82999788D01*
X123461936Y-82789711D01*
X123314265Y-82597262D01*
X123314263Y-82597260D01*
X123314257Y-82597253D01*
X123142746Y-82425742D01*
X123142732Y-82425730D01*
X122950291Y-82278065D01*
X122740213Y-82156776D01*
X122516105Y-82063948D01*
X122516104Y-82063947D01*
X122516100Y-82063946D01*
X122281789Y-82001162D01*
X122041288Y-81969500D01*
X121798712Y-81969500D01*
X121558211Y-82001162D01*
X121323900Y-82063946D01*
X121323897Y-82063947D01*
X121323894Y-82063948D01*
X121099786Y-82156776D01*
X120889708Y-82278065D01*
X120697267Y-82425730D01*
X120697253Y-82425742D01*
X120525742Y-82597253D01*
X120525730Y-82597267D01*
X120378065Y-82789708D01*
X120256776Y-82999786D01*
X120163948Y-83223894D01*
X120163946Y-83223900D01*
X120101162Y-83458211D01*
X120069500Y-83698712D01*
X118610500Y-83698712D01*
X118610500Y-82552461D01*
X118610661Y-82547543D01*
X118618644Y-82425742D01*
X118627626Y-82288700D01*
X118628907Y-82278968D01*
X118679035Y-82026958D01*
X118681574Y-82017482D01*
X118764167Y-81774171D01*
X118767919Y-81765113D01*
X118881567Y-81534657D01*
X118886468Y-81526168D01*
X119029231Y-81312508D01*
X119035195Y-81304737D01*
X119204612Y-81111554D01*
X119211554Y-81104612D01*
X119404737Y-80935195D01*
X119412508Y-80929231D01*
X119626168Y-80786468D01*
X119634657Y-80781567D01*
X119865113Y-80667919D01*
X119874171Y-80664167D01*
X120117482Y-80581574D01*
X120126958Y-80579035D01*
X120378968Y-80528907D01*
X120388700Y-80527626D01*
X120647544Y-80510661D01*
X120652462Y-80510500D01*
X120715892Y-80510500D01*
X191704108Y-80510500D01*
X191767538Y-80510500D01*
X191772456Y-80510661D01*
G37*
G04 #@! TD.AperFunction*
G04 #@! TD*
M02*
