G04 #@! TF.GenerationSoftware,KiCad,Pcbnew,8.0.3+dfsg-1*
G04 #@! TF.CreationDate,2024-06-11T16:22:44+08:00*
G04 #@! TF.ProjectId,sec01,73656330-312e-46b6-9963-61645f706362,a*
G04 #@! TF.SameCoordinates,Original*
G04 #@! TF.FileFunction,Soldermask,Top*
G04 #@! TF.FilePolarity,Negative*
%FSLAX46Y46*%
G04 Gerber Fmt 4.6, Leading zero omitted, Abs format (unit mm)*
G04 Created by KiCad (PCBNEW 8.0.3+dfsg-1) date 2024-06-11 16:22:44*
%MOMM*%
%LPD*%
G01*
G04 APERTURE LIST*
G04 Aperture macros list*
%AMRoundRect*
0 Rectangle with rounded corners*
0 $1 Rounding radius*
0 $2 $3 $4 $5 $6 $7 $8 $9 X,Y pos of 4 corners*
0 Add a 4 corners polygon primitive as box body*
4,1,4,$2,$3,$4,$5,$6,$7,$8,$9,$2,$3,0*
0 Add four circle primitives for the rounded corners*
1,1,$1+$1,$2,$3*
1,1,$1+$1,$4,$5*
1,1,$1+$1,$6,$7*
1,1,$1+$1,$8,$9*
0 Add four rect primitives between the rounded corners*
20,1,$1+$1,$2,$3,$4,$5,0*
20,1,$1+$1,$4,$5,$6,$7,0*
20,1,$1+$1,$6,$7,$8,$9,0*
20,1,$1+$1,$8,$9,$2,$3,0*%
G04 Aperture macros list end*
%ADD10C,3.200000*%
%ADD11RoundRect,0.200000X-0.200000X-0.275000X0.200000X-0.275000X0.200000X0.275000X-0.200000X0.275000X0*%
%ADD12RoundRect,0.225000X0.225000X0.250000X-0.225000X0.250000X-0.225000X-0.250000X0.225000X-0.250000X0*%
%ADD13R,1.700000X1.700000*%
%ADD14O,1.700000X1.700000*%
%ADD15R,0.750000X0.300000*%
%ADD16R,1.300000X1.500000*%
G04 APERTURE END LIST*
D10*
G04 #@! TO.C,J1*
X121920000Y-83820000D03*
X121920000Y-127000000D03*
X190500000Y-83820000D03*
X190500000Y-127000000D03*
G04 #@! TD*
D11*
G04 #@! TO.C,R4*
X166815000Y-113030000D03*
X168465000Y-113030000D03*
G04 #@! TD*
G04 #@! TO.C,R1*
X166815000Y-99060000D03*
X168465000Y-99060000D03*
G04 #@! TD*
D12*
G04 #@! TO.C,C2*
X168415000Y-114935000D03*
X166865000Y-114935000D03*
G04 #@! TD*
D13*
G04 #@! TO.C,J3*
X180340000Y-87630000D03*
D14*
X180340000Y-85090000D03*
X177800000Y-87630000D03*
X177800000Y-85090000D03*
X175260000Y-87630000D03*
X175260000Y-85090000D03*
X172720000Y-87630000D03*
X172720000Y-85090000D03*
X170180000Y-87630000D03*
X170180000Y-85090000D03*
X167640000Y-87630000D03*
X167640000Y-85090000D03*
X165100000Y-87630000D03*
X165100000Y-85090000D03*
X162560000Y-87630000D03*
X162560000Y-85090000D03*
X160020000Y-87630000D03*
X160020000Y-85090000D03*
X157480000Y-87630000D03*
X157480000Y-85090000D03*
X154940000Y-87630000D03*
X154940000Y-85090000D03*
X152400000Y-87630000D03*
X152400000Y-85090000D03*
X149860000Y-87630000D03*
X149860000Y-85090000D03*
X147320000Y-87630000D03*
X147320000Y-85090000D03*
X144780000Y-87630000D03*
X144780000Y-85090000D03*
X142240000Y-87630000D03*
X142240000Y-85090000D03*
X139700000Y-87630000D03*
X139700000Y-85090000D03*
X137160000Y-87630000D03*
X137160000Y-85090000D03*
X134620000Y-87630000D03*
X134620000Y-85090000D03*
X132080000Y-87630000D03*
X132080000Y-85090000D03*
G04 #@! TD*
D12*
G04 #@! TO.C,C1*
X168415000Y-102870000D03*
X166865000Y-102870000D03*
G04 #@! TD*
D15*
G04 #@! TO.C,U1*
X173990000Y-101195000D03*
X173990000Y-100695000D03*
X173990000Y-100195000D03*
X173990000Y-99695000D03*
X171090000Y-99695000D03*
X171090000Y-100195000D03*
X171090000Y-100695000D03*
X171090000Y-101195000D03*
D16*
X172540000Y-100445000D03*
G04 #@! TD*
D11*
G04 #@! TO.C,R3*
X166815000Y-111125000D03*
X168465000Y-111125000D03*
G04 #@! TD*
D13*
G04 #@! TO.C,J2*
X132080000Y-123190000D03*
D14*
X132080000Y-125730000D03*
X134620000Y-123190000D03*
X134620000Y-125730000D03*
X137160000Y-123190000D03*
X137160000Y-125730000D03*
X139700000Y-123190000D03*
X139700000Y-125730000D03*
X142240000Y-123190000D03*
X142240000Y-125730000D03*
X144780000Y-123190000D03*
X144780000Y-125730000D03*
X147320000Y-123190000D03*
X147320000Y-125730000D03*
X149860000Y-123190000D03*
X149860000Y-125730000D03*
X152400000Y-123190000D03*
X152400000Y-125730000D03*
X154940000Y-123190000D03*
X154940000Y-125730000D03*
X157480000Y-123190000D03*
X157480000Y-125730000D03*
X160020000Y-123190000D03*
X160020000Y-125730000D03*
X162560000Y-123190000D03*
X162560000Y-125730000D03*
X165100000Y-123190000D03*
X165100000Y-125730000D03*
X167640000Y-123190000D03*
X167640000Y-125730000D03*
X170180000Y-123190000D03*
X170180000Y-125730000D03*
X172720000Y-123190000D03*
X172720000Y-125730000D03*
X175260000Y-123190000D03*
X175260000Y-125730000D03*
X177800000Y-123190000D03*
X177800000Y-125730000D03*
X180340000Y-123190000D03*
X180340000Y-125730000D03*
G04 #@! TD*
D15*
G04 #@! TO.C,U2*
X173990000Y-113260000D03*
X173990000Y-112760000D03*
X173990000Y-112260000D03*
X173990000Y-111760000D03*
X171090000Y-111760000D03*
X171090000Y-112260000D03*
X171090000Y-112760000D03*
X171090000Y-113260000D03*
D16*
X172540000Y-112510000D03*
G04 #@! TD*
D11*
G04 #@! TO.C,R2*
X166815000Y-100965000D03*
X168465000Y-100965000D03*
G04 #@! TD*
M02*
