M48
; DRILL file {KiCad 8.0.2+dfsg-1} date 2024-06-11T15:30:07+0800
; FORMAT={-:-/ absolute / inch / decimal}
; #@! TF.CreationDate,2024-06-11T15:30:07+08:00
; #@! TF.GenerationSoftware,Kicad,Pcbnew,8.0.2+dfsg-1
; #@! TF.FileFunction,Plated,1,2,PTH
FMAT,2
INCH
; #@! TA.AperFunction,Plated,PTH,ViaDrill
T1C0.0118
; #@! TA.AperFunction,Plated,PTH,ComponentDrill
T2C0.0394
%
G90
G05
T1
X4.875Y-3.4
X4.875Y-4.9
X5.7Y-3.85
X5.775Y-3.85
X5.875Y-3.85
X5.95Y-3.85
X5.95Y-4.35
X6.025Y-3.8
X6.025Y-3.95
X6.025Y-4.1
X6.025Y-4.2
X6.025Y-4.5
X6.125Y-3.8
X6.125Y-4.1
X6.125Y-4.2
X6.125Y-4.5
X6.225Y-3.8
X6.225Y-4.1
X6.225Y-4.2
X6.225Y-4.5
X6.325Y-3.8
X6.325Y-4.1
X6.325Y-4.2
X6.325Y-4.5
X6.4Y-3.9
X6.4Y-3.95
X6.4Y-4.0
X6.4Y-4.3
X6.4Y-4.35
X6.4Y-4.4
X6.675Y-4.0
X6.675Y-4.475
T2
X5.2Y-3.35
X5.2Y-3.45
X5.2Y-4.85
X5.2Y-4.95
X5.3Y-3.35
X5.3Y-3.45
X5.3Y-4.85
X5.3Y-4.95
X5.4Y-3.35
X5.4Y-3.45
X5.4Y-4.85
X5.4Y-4.95
X5.5Y-3.35
X5.5Y-3.45
X5.5Y-4.85
X5.5Y-4.95
X5.6Y-3.35
X5.6Y-3.45
X5.6Y-4.85
X5.6Y-4.95
X5.7Y-3.35
X5.7Y-3.45
X5.7Y-4.85
X5.7Y-4.95
X5.8Y-3.35
X5.8Y-3.45
X5.8Y-4.85
X5.8Y-4.95
X5.9Y-3.35
X5.9Y-3.45
X5.9Y-4.85
X5.9Y-4.95
X6.0Y-3.35
X6.0Y-3.45
X6.0Y-4.85
X6.0Y-4.95
X6.1Y-3.35
X6.1Y-3.45
X6.1Y-4.85
X6.1Y-4.95
X6.2Y-3.35
X6.2Y-3.45
X6.2Y-4.85
X6.2Y-4.95
X6.3Y-3.35
X6.3Y-3.45
X6.3Y-4.85
X6.3Y-4.95
X6.4Y-3.35
X6.4Y-3.45
X6.4Y-4.85
X6.4Y-4.95
X6.5Y-3.35
X6.5Y-3.45
X6.5Y-4.85
X6.5Y-4.95
X6.6Y-3.35
X6.6Y-3.45
X6.6Y-4.85
X6.6Y-4.95
X6.7Y-3.35
X6.7Y-3.45
X6.7Y-4.85
X6.7Y-4.95
X6.8Y-3.35
X6.8Y-3.45
X6.8Y-4.85
X6.8Y-4.95
X6.9Y-3.35
X6.9Y-3.45
X6.9Y-4.85
X6.9Y-4.95
X7.0Y-3.35
X7.0Y-3.45
X7.0Y-4.85
X7.0Y-4.95
X7.1Y-3.35
X7.1Y-3.45
X7.1Y-4.85
X7.1Y-4.95
M30
