M48
; DRILL file {KiCad 5.1.9+dfsg1-1} date Fri Jul 30 10:03:15 2021
; FORMAT={-:-/ absolute / inch / decimal}
; #@! TF.CreationDate,2021-07-30T10:03:15+08:00
; #@! TF.GenerationSoftware,Kicad,Pcbnew,5.1.9+dfsg1-1
; #@! TF.FileFunction,Plated,1,2,PTH
FMAT,2
INCH
T1C0.0138
T2C0.0236
T3C0.0394
%
G90
G05
T1
X4.725Y-3.95
X4.725Y-4.05
X4.725Y-4.25
X4.875Y-4.15
X5.125Y-4.15
X5.275Y-4.0
X5.275Y-4.25
X5.5Y-4.0
X5.65Y-3.925
X5.675Y-3.9
X5.775Y-3.85
X5.775Y-4.125
X5.9Y-3.975
X5.975Y-3.825
X5.975Y-3.925
X5.975Y-4.025
X6.1Y-4.15
X6.1Y-4.2
X6.15Y-4.5
X6.2Y-3.45
X6.2Y-4.0
X6.25Y-3.975
X6.25Y-4.025
X6.275Y-3.925
X6.275Y-4.075
X6.3Y-3.975
X6.3Y-4.025
X6.35Y-4.0
X6.35Y-4.5
X6.375Y-3.95
X6.525Y-4.0
X6.525Y-4.075
X6.625Y-4.125
X6.925Y-4.325
X6.925Y-4.4
X6.925Y-4.475
X6.975Y-4.325
X6.975Y-4.4
X6.975Y-4.475
X7.02Y-4.02
X7.025Y-4.325
X7.025Y-4.4
X7.025Y-4.475
X7.1Y-4.02
X7.15Y-3.2
X7.15Y-3.3
X7.175Y-3.625
X7.275Y-3.625
X7.35Y-3.3
X7.35Y-3.4
T3
X5.05Y-3.2
X5.05Y-3.3
X5.05Y-4.7
X5.05Y-4.8
X5.15Y-3.2
X5.15Y-3.3
X5.15Y-4.7
X5.15Y-4.8
X5.25Y-3.2
X5.25Y-3.3
X5.25Y-4.7
X5.25Y-4.8
X5.35Y-3.2
X5.35Y-3.3
X5.35Y-4.7
X5.35Y-4.8
X5.45Y-3.2
X5.45Y-3.3
X5.45Y-4.7
X5.45Y-4.8
X5.55Y-3.2
X5.55Y-3.3
X5.55Y-4.7
X5.55Y-4.8
X5.65Y-3.2
X5.65Y-3.3
X5.65Y-4.7
X5.65Y-4.8
X5.75Y-3.2
X5.75Y-3.3
X5.75Y-4.7
X5.75Y-4.8
X5.85Y-3.2
X5.85Y-3.3
X5.85Y-4.7
X5.85Y-4.8
X5.95Y-3.2
X5.95Y-3.3
X5.95Y-4.7
X5.95Y-4.8
X6.05Y-3.2
X6.05Y-3.3
X6.05Y-4.7
X6.05Y-4.8
X6.15Y-3.2
X6.15Y-3.3
X6.15Y-4.7
X6.15Y-4.8
X6.25Y-3.2
X6.25Y-3.3
X6.25Y-4.7
X6.25Y-4.8
X6.35Y-3.2
X6.35Y-3.3
X6.35Y-4.7
X6.35Y-4.8
X6.45Y-3.2
X6.45Y-3.3
X6.45Y-4.7
X6.45Y-4.8
X6.55Y-3.2
X6.55Y-3.3
X6.55Y-4.7
X6.55Y-4.8
X6.65Y-3.2
X6.65Y-3.3
X6.65Y-4.7
X6.65Y-4.8
X6.75Y-3.2
X6.75Y-3.3
X6.75Y-4.7
X6.75Y-4.8
X6.85Y-3.2
X6.85Y-3.3
X6.85Y-4.7
X6.85Y-4.8
X6.95Y-3.2
X6.95Y-3.3
X6.95Y-4.7
X6.95Y-4.8
T2
G00X7.2051Y-3.8299
M15
G01X7.2484Y-3.8299
M16
G05
G00X7.2051Y-4.1701
M15
G01X7.2484Y-4.1701
M16
G05
G00X7.3795Y-3.8299
M15
G01X7.4031Y-3.8299
M16
G05
G00X7.3795Y-4.1701
M15
G01X7.4031Y-4.1701
M16
G05
T0
M30
