G04 #@! TF.GenerationSoftware,KiCad,Pcbnew,5.1.9+dfsg1-1*
G04 #@! TF.CreationDate,2021-07-17T11:30:44+08:00*
G04 #@! TF.ProjectId,prgstl,70726773-746c-42e6-9b69-6361645f7063,a*
G04 #@! TF.SameCoordinates,Original*
G04 #@! TF.FileFunction,Legend,Bot*
G04 #@! TF.FilePolarity,Positive*
%FSLAX46Y46*%
G04 Gerber Fmt 4.6, Leading zero omitted, Abs format (unit mm)*
G04 Created by KiCad (PCBNEW 5.1.9+dfsg1-1) date 2021-07-17 11:30:44*
%MOMM*%
%LPD*%
G01*
G04 APERTURE LIST*
%ADD10C,0.150000*%
G04 APERTURE END LIST*
G04 #@! TO.C,J2*
D10*
X176091904Y-124493928D02*
X176091904Y-124112976D01*
X176472857Y-124074880D01*
X176434761Y-124112976D01*
X176396666Y-124189166D01*
X176396666Y-124379642D01*
X176434761Y-124455833D01*
X176472857Y-124493928D01*
X176549047Y-124532023D01*
X176739523Y-124532023D01*
X176815714Y-124493928D01*
X176853809Y-124455833D01*
X176891904Y-124379642D01*
X176891904Y-124189166D01*
X176853809Y-124112976D01*
X176815714Y-124074880D01*
X176091904Y-124760595D02*
X176891904Y-125027261D01*
X176091904Y-125293928D01*
X173551904Y-124036785D02*
X173551904Y-124532023D01*
X173856666Y-124265357D01*
X173856666Y-124379642D01*
X173894761Y-124455833D01*
X173932857Y-124493928D01*
X174009047Y-124532023D01*
X174199523Y-124532023D01*
X174275714Y-124493928D01*
X174313809Y-124455833D01*
X174351904Y-124379642D01*
X174351904Y-124151071D01*
X174313809Y-124074880D01*
X174275714Y-124036785D01*
X174275714Y-124874880D02*
X174313809Y-124912976D01*
X174351904Y-124874880D01*
X174313809Y-124836785D01*
X174275714Y-124874880D01*
X174351904Y-124874880D01*
X173551904Y-125179642D02*
X173551904Y-125674880D01*
X173856666Y-125408214D01*
X173856666Y-125522500D01*
X173894761Y-125598690D01*
X173932857Y-125636785D01*
X174009047Y-125674880D01*
X174199523Y-125674880D01*
X174275714Y-125636785D01*
X174313809Y-125598690D01*
X174351904Y-125522500D01*
X174351904Y-125293928D01*
X174313809Y-125217738D01*
X174275714Y-125179642D01*
X173551904Y-125903452D02*
X174351904Y-126170119D01*
X173551904Y-126436785D01*
X171011904Y-124112976D02*
X171659523Y-124112976D01*
X171735714Y-124151071D01*
X171773809Y-124189166D01*
X171811904Y-124265357D01*
X171811904Y-124417738D01*
X171773809Y-124493928D01*
X171735714Y-124532023D01*
X171659523Y-124570119D01*
X171011904Y-124570119D01*
X171011904Y-124874880D02*
X171011904Y-125370119D01*
X171316666Y-125103452D01*
X171316666Y-125217738D01*
X171354761Y-125293928D01*
X171392857Y-125332023D01*
X171469047Y-125370119D01*
X171659523Y-125370119D01*
X171735714Y-125332023D01*
X171773809Y-125293928D01*
X171811904Y-125217738D01*
X171811904Y-124989166D01*
X171773809Y-124912976D01*
X171735714Y-124874880D01*
X168471904Y-124112976D02*
X169119523Y-124112976D01*
X169195714Y-124151071D01*
X169233809Y-124189166D01*
X169271904Y-124265357D01*
X169271904Y-124417738D01*
X169233809Y-124493928D01*
X169195714Y-124532023D01*
X169119523Y-124570119D01*
X168471904Y-124570119D01*
X169271904Y-125370119D02*
X169271904Y-124912976D01*
X169271904Y-125141547D02*
X168471904Y-125141547D01*
X168586190Y-125065357D01*
X168662380Y-124989166D01*
X168700476Y-124912976D01*
X166731904Y-124112976D02*
X165931904Y-124112976D01*
X165931904Y-124417738D01*
X165970000Y-124493928D01*
X166008095Y-124532023D01*
X166084285Y-124570119D01*
X166198571Y-124570119D01*
X166274761Y-124532023D01*
X166312857Y-124493928D01*
X166350952Y-124417738D01*
X166350952Y-124112976D01*
X166655714Y-125370119D02*
X166693809Y-125332023D01*
X166731904Y-125217738D01*
X166731904Y-125141547D01*
X166693809Y-125027261D01*
X166617619Y-124951071D01*
X166541428Y-124912976D01*
X166389047Y-124874880D01*
X166274761Y-124874880D01*
X166122380Y-124912976D01*
X166046190Y-124951071D01*
X165970000Y-125027261D01*
X165931904Y-125141547D01*
X165931904Y-125217738D01*
X165970000Y-125332023D01*
X166008095Y-125370119D01*
X166274761Y-125827261D02*
X166236666Y-125751071D01*
X166198571Y-125712976D01*
X166122380Y-125674880D01*
X166084285Y-125674880D01*
X166008095Y-125712976D01*
X165970000Y-125751071D01*
X165931904Y-125827261D01*
X165931904Y-125979642D01*
X165970000Y-126055833D01*
X166008095Y-126093928D01*
X166084285Y-126132023D01*
X166122380Y-126132023D01*
X166198571Y-126093928D01*
X166236666Y-126055833D01*
X166274761Y-125979642D01*
X166274761Y-125827261D01*
X166312857Y-125751071D01*
X166350952Y-125712976D01*
X166427142Y-125674880D01*
X166579523Y-125674880D01*
X166655714Y-125712976D01*
X166693809Y-125751071D01*
X166731904Y-125827261D01*
X166731904Y-125979642D01*
X166693809Y-126055833D01*
X166655714Y-126093928D01*
X166579523Y-126132023D01*
X166427142Y-126132023D01*
X166350952Y-126093928D01*
X166312857Y-126055833D01*
X166274761Y-125979642D01*
X164191904Y-124112976D02*
X163391904Y-124112976D01*
X163391904Y-124417738D01*
X163430000Y-124493928D01*
X163468095Y-124532023D01*
X163544285Y-124570119D01*
X163658571Y-124570119D01*
X163734761Y-124532023D01*
X163772857Y-124493928D01*
X163810952Y-124417738D01*
X163810952Y-124112976D01*
X164115714Y-125370119D02*
X164153809Y-125332023D01*
X164191904Y-125217738D01*
X164191904Y-125141547D01*
X164153809Y-125027261D01*
X164077619Y-124951071D01*
X164001428Y-124912976D01*
X163849047Y-124874880D01*
X163734761Y-124874880D01*
X163582380Y-124912976D01*
X163506190Y-124951071D01*
X163430000Y-125027261D01*
X163391904Y-125141547D01*
X163391904Y-125217738D01*
X163430000Y-125332023D01*
X163468095Y-125370119D01*
X163391904Y-126055833D02*
X163391904Y-125903452D01*
X163430000Y-125827261D01*
X163468095Y-125789166D01*
X163582380Y-125712976D01*
X163734761Y-125674880D01*
X164039523Y-125674880D01*
X164115714Y-125712976D01*
X164153809Y-125751071D01*
X164191904Y-125827261D01*
X164191904Y-125979642D01*
X164153809Y-126055833D01*
X164115714Y-126093928D01*
X164039523Y-126132023D01*
X163849047Y-126132023D01*
X163772857Y-126093928D01*
X163734761Y-126055833D01*
X163696666Y-125979642D01*
X163696666Y-125827261D01*
X163734761Y-125751071D01*
X163772857Y-125712976D01*
X163849047Y-125674880D01*
X161651904Y-124112976D02*
X160851904Y-124112976D01*
X160851904Y-124417738D01*
X160890000Y-124493928D01*
X160928095Y-124532023D01*
X161004285Y-124570119D01*
X161118571Y-124570119D01*
X161194761Y-124532023D01*
X161232857Y-124493928D01*
X161270952Y-124417738D01*
X161270952Y-124112976D01*
X161232857Y-125179642D02*
X161270952Y-125293928D01*
X161309047Y-125332023D01*
X161385238Y-125370119D01*
X161499523Y-125370119D01*
X161575714Y-125332023D01*
X161613809Y-125293928D01*
X161651904Y-125217738D01*
X161651904Y-124912976D01*
X160851904Y-124912976D01*
X160851904Y-125179642D01*
X160890000Y-125255833D01*
X160928095Y-125293928D01*
X161004285Y-125332023D01*
X161080476Y-125332023D01*
X161156666Y-125293928D01*
X161194761Y-125255833D01*
X161232857Y-125179642D01*
X161232857Y-124912976D01*
X161651904Y-126132023D02*
X161651904Y-125674880D01*
X161651904Y-125903452D02*
X160851904Y-125903452D01*
X160966190Y-125827261D01*
X161042380Y-125751071D01*
X161080476Y-125674880D01*
X161118571Y-126817738D02*
X161651904Y-126817738D01*
X160813809Y-126627261D02*
X161385238Y-126436785D01*
X161385238Y-126932023D01*
X159111904Y-124112976D02*
X158311904Y-124112976D01*
X158311904Y-124417738D01*
X158350000Y-124493928D01*
X158388095Y-124532023D01*
X158464285Y-124570119D01*
X158578571Y-124570119D01*
X158654761Y-124532023D01*
X158692857Y-124493928D01*
X158730952Y-124417738D01*
X158730952Y-124112976D01*
X158692857Y-125179642D02*
X158730952Y-125293928D01*
X158769047Y-125332023D01*
X158845238Y-125370119D01*
X158959523Y-125370119D01*
X159035714Y-125332023D01*
X159073809Y-125293928D01*
X159111904Y-125217738D01*
X159111904Y-124912976D01*
X158311904Y-124912976D01*
X158311904Y-125179642D01*
X158350000Y-125255833D01*
X158388095Y-125293928D01*
X158464285Y-125332023D01*
X158540476Y-125332023D01*
X158616666Y-125293928D01*
X158654761Y-125255833D01*
X158692857Y-125179642D01*
X158692857Y-124912976D01*
X159111904Y-126132023D02*
X159111904Y-125674880D01*
X159111904Y-125903452D02*
X158311904Y-125903452D01*
X158426190Y-125827261D01*
X158502380Y-125751071D01*
X158540476Y-125674880D01*
X158388095Y-126436785D02*
X158350000Y-126474880D01*
X158311904Y-126551071D01*
X158311904Y-126741547D01*
X158350000Y-126817738D01*
X158388095Y-126855833D01*
X158464285Y-126893928D01*
X158540476Y-126893928D01*
X158654761Y-126855833D01*
X159111904Y-126398690D01*
X159111904Y-126893928D01*
X156571904Y-124112976D02*
X155771904Y-124112976D01*
X155771904Y-124417738D01*
X155810000Y-124493928D01*
X155848095Y-124532023D01*
X155924285Y-124570119D01*
X156038571Y-124570119D01*
X156114761Y-124532023D01*
X156152857Y-124493928D01*
X156190952Y-124417738D01*
X156190952Y-124112976D01*
X156152857Y-125179642D02*
X156190952Y-125293928D01*
X156229047Y-125332023D01*
X156305238Y-125370119D01*
X156419523Y-125370119D01*
X156495714Y-125332023D01*
X156533809Y-125293928D01*
X156571904Y-125217738D01*
X156571904Y-124912976D01*
X155771904Y-124912976D01*
X155771904Y-125179642D01*
X155810000Y-125255833D01*
X155848095Y-125293928D01*
X155924285Y-125332023D01*
X156000476Y-125332023D01*
X156076666Y-125293928D01*
X156114761Y-125255833D01*
X156152857Y-125179642D01*
X156152857Y-124912976D01*
X156571904Y-126132023D02*
X156571904Y-125674880D01*
X156571904Y-125903452D02*
X155771904Y-125903452D01*
X155886190Y-125827261D01*
X155962380Y-125751071D01*
X156000476Y-125674880D01*
X155771904Y-126627261D02*
X155771904Y-126703452D01*
X155810000Y-126779642D01*
X155848095Y-126817738D01*
X155924285Y-126855833D01*
X156076666Y-126893928D01*
X156267142Y-126893928D01*
X156419523Y-126855833D01*
X156495714Y-126817738D01*
X156533809Y-126779642D01*
X156571904Y-126703452D01*
X156571904Y-126627261D01*
X156533809Y-126551071D01*
X156495714Y-126512976D01*
X156419523Y-126474880D01*
X156267142Y-126436785D01*
X156076666Y-126436785D01*
X155924285Y-126474880D01*
X155848095Y-126512976D01*
X155810000Y-126551071D01*
X155771904Y-126627261D01*
X154031904Y-124112976D02*
X153231904Y-124112976D01*
X153231904Y-124417738D01*
X153270000Y-124493928D01*
X153308095Y-124532023D01*
X153384285Y-124570119D01*
X153498571Y-124570119D01*
X153574761Y-124532023D01*
X153612857Y-124493928D01*
X153650952Y-124417738D01*
X153650952Y-124112976D01*
X153612857Y-125179642D02*
X153650952Y-125293928D01*
X153689047Y-125332023D01*
X153765238Y-125370119D01*
X153879523Y-125370119D01*
X153955714Y-125332023D01*
X153993809Y-125293928D01*
X154031904Y-125217738D01*
X154031904Y-124912976D01*
X153231904Y-124912976D01*
X153231904Y-125179642D01*
X153270000Y-125255833D01*
X153308095Y-125293928D01*
X153384285Y-125332023D01*
X153460476Y-125332023D01*
X153536666Y-125293928D01*
X153574761Y-125255833D01*
X153612857Y-125179642D01*
X153612857Y-124912976D01*
X153308095Y-125674880D02*
X153270000Y-125712976D01*
X153231904Y-125789166D01*
X153231904Y-125979642D01*
X153270000Y-126055833D01*
X153308095Y-126093928D01*
X153384285Y-126132023D01*
X153460476Y-126132023D01*
X153574761Y-126093928D01*
X154031904Y-125636785D01*
X154031904Y-126132023D01*
X151491904Y-124112976D02*
X150691904Y-124112976D01*
X150691904Y-124417738D01*
X150730000Y-124493928D01*
X150768095Y-124532023D01*
X150844285Y-124570119D01*
X150958571Y-124570119D01*
X151034761Y-124532023D01*
X151072857Y-124493928D01*
X151110952Y-124417738D01*
X151110952Y-124112976D01*
X151072857Y-125179642D02*
X151110952Y-125293928D01*
X151149047Y-125332023D01*
X151225238Y-125370119D01*
X151339523Y-125370119D01*
X151415714Y-125332023D01*
X151453809Y-125293928D01*
X151491904Y-125217738D01*
X151491904Y-124912976D01*
X150691904Y-124912976D01*
X150691904Y-125179642D01*
X150730000Y-125255833D01*
X150768095Y-125293928D01*
X150844285Y-125332023D01*
X150920476Y-125332023D01*
X150996666Y-125293928D01*
X151034761Y-125255833D01*
X151072857Y-125179642D01*
X151072857Y-124912976D01*
X150691904Y-125865357D02*
X150691904Y-125941547D01*
X150730000Y-126017738D01*
X150768095Y-126055833D01*
X150844285Y-126093928D01*
X150996666Y-126132023D01*
X151187142Y-126132023D01*
X151339523Y-126093928D01*
X151415714Y-126055833D01*
X151453809Y-126017738D01*
X151491904Y-125941547D01*
X151491904Y-125865357D01*
X151453809Y-125789166D01*
X151415714Y-125751071D01*
X151339523Y-125712976D01*
X151187142Y-125674880D01*
X150996666Y-125674880D01*
X150844285Y-125712976D01*
X150768095Y-125751071D01*
X150730000Y-125789166D01*
X150691904Y-125865357D01*
X148951904Y-124112976D02*
X148151904Y-124112976D01*
X148151904Y-124417738D01*
X148190000Y-124493928D01*
X148228095Y-124532023D01*
X148304285Y-124570119D01*
X148418571Y-124570119D01*
X148494761Y-124532023D01*
X148532857Y-124493928D01*
X148570952Y-124417738D01*
X148570952Y-124112976D01*
X148875714Y-125370119D02*
X148913809Y-125332023D01*
X148951904Y-125217738D01*
X148951904Y-125141547D01*
X148913809Y-125027261D01*
X148837619Y-124951071D01*
X148761428Y-124912976D01*
X148609047Y-124874880D01*
X148494761Y-124874880D01*
X148342380Y-124912976D01*
X148266190Y-124951071D01*
X148190000Y-125027261D01*
X148151904Y-125141547D01*
X148151904Y-125217738D01*
X148190000Y-125332023D01*
X148228095Y-125370119D01*
X148418571Y-126055833D02*
X148951904Y-126055833D01*
X148113809Y-125865357D02*
X148685238Y-125674880D01*
X148685238Y-126170119D01*
X146411904Y-124112976D02*
X145611904Y-124112976D01*
X145611904Y-124417738D01*
X145650000Y-124493928D01*
X145688095Y-124532023D01*
X145764285Y-124570119D01*
X145878571Y-124570119D01*
X145954761Y-124532023D01*
X145992857Y-124493928D01*
X146030952Y-124417738D01*
X146030952Y-124112976D01*
X146183333Y-124874880D02*
X146183333Y-125255833D01*
X146411904Y-124798690D02*
X145611904Y-125065357D01*
X146411904Y-125332023D01*
X145611904Y-125941547D02*
X145611904Y-125789166D01*
X145650000Y-125712976D01*
X145688095Y-125674880D01*
X145802380Y-125598690D01*
X145954761Y-125560595D01*
X146259523Y-125560595D01*
X146335714Y-125598690D01*
X146373809Y-125636785D01*
X146411904Y-125712976D01*
X146411904Y-125865357D01*
X146373809Y-125941547D01*
X146335714Y-125979642D01*
X146259523Y-126017738D01*
X146069047Y-126017738D01*
X145992857Y-125979642D01*
X145954761Y-125941547D01*
X145916666Y-125865357D01*
X145916666Y-125712976D01*
X145954761Y-125636785D01*
X145992857Y-125598690D01*
X146069047Y-125560595D01*
X143871904Y-124112976D02*
X143071904Y-124112976D01*
X143071904Y-124417738D01*
X143110000Y-124493928D01*
X143148095Y-124532023D01*
X143224285Y-124570119D01*
X143338571Y-124570119D01*
X143414761Y-124532023D01*
X143452857Y-124493928D01*
X143490952Y-124417738D01*
X143490952Y-124112976D01*
X143643333Y-124874880D02*
X143643333Y-125255833D01*
X143871904Y-124798690D02*
X143071904Y-125065357D01*
X143871904Y-125332023D01*
X143338571Y-125941547D02*
X143871904Y-125941547D01*
X143033809Y-125751071D02*
X143605238Y-125560595D01*
X143605238Y-126055833D01*
X141331904Y-124112976D02*
X140531904Y-124112976D01*
X140531904Y-124417738D01*
X140570000Y-124493928D01*
X140608095Y-124532023D01*
X140684285Y-124570119D01*
X140798571Y-124570119D01*
X140874761Y-124532023D01*
X140912857Y-124493928D01*
X140950952Y-124417738D01*
X140950952Y-124112976D01*
X141103333Y-124874880D02*
X141103333Y-125255833D01*
X141331904Y-124798690D02*
X140531904Y-125065357D01*
X141331904Y-125332023D01*
X140608095Y-125560595D02*
X140570000Y-125598690D01*
X140531904Y-125674880D01*
X140531904Y-125865357D01*
X140570000Y-125941547D01*
X140608095Y-125979642D01*
X140684285Y-126017738D01*
X140760476Y-126017738D01*
X140874761Y-125979642D01*
X141331904Y-125522500D01*
X141331904Y-126017738D01*
X138791904Y-124112976D02*
X137991904Y-124112976D01*
X137991904Y-124417738D01*
X138030000Y-124493928D01*
X138068095Y-124532023D01*
X138144285Y-124570119D01*
X138258571Y-124570119D01*
X138334761Y-124532023D01*
X138372857Y-124493928D01*
X138410952Y-124417738D01*
X138410952Y-124112976D01*
X138563333Y-124874880D02*
X138563333Y-125255833D01*
X138791904Y-124798690D02*
X137991904Y-125065357D01*
X138791904Y-125332023D01*
X137991904Y-125751071D02*
X137991904Y-125827261D01*
X138030000Y-125903452D01*
X138068095Y-125941547D01*
X138144285Y-125979642D01*
X138296666Y-126017738D01*
X138487142Y-126017738D01*
X138639523Y-125979642D01*
X138715714Y-125941547D01*
X138753809Y-125903452D01*
X138791904Y-125827261D01*
X138791904Y-125751071D01*
X138753809Y-125674880D01*
X138715714Y-125636785D01*
X138639523Y-125598690D01*
X138487142Y-125560595D01*
X138296666Y-125560595D01*
X138144285Y-125598690D01*
X138068095Y-125636785D01*
X138030000Y-125674880D01*
X137991904Y-125751071D01*
X136251904Y-124112976D02*
X135451904Y-124112976D01*
X135451904Y-124417738D01*
X135490000Y-124493928D01*
X135528095Y-124532023D01*
X135604285Y-124570119D01*
X135718571Y-124570119D01*
X135794761Y-124532023D01*
X135832857Y-124493928D01*
X135870952Y-124417738D01*
X135870952Y-124112976D01*
X136175714Y-125370119D02*
X136213809Y-125332023D01*
X136251904Y-125217738D01*
X136251904Y-125141547D01*
X136213809Y-125027261D01*
X136137619Y-124951071D01*
X136061428Y-124912976D01*
X135909047Y-124874880D01*
X135794761Y-124874880D01*
X135642380Y-124912976D01*
X135566190Y-124951071D01*
X135490000Y-125027261D01*
X135451904Y-125141547D01*
X135451904Y-125217738D01*
X135490000Y-125332023D01*
X135528095Y-125370119D01*
X135528095Y-125674880D02*
X135490000Y-125712976D01*
X135451904Y-125789166D01*
X135451904Y-125979642D01*
X135490000Y-126055833D01*
X135528095Y-126093928D01*
X135604285Y-126132023D01*
X135680476Y-126132023D01*
X135794761Y-126093928D01*
X136251904Y-125636785D01*
X136251904Y-126132023D01*
X133711904Y-124112976D02*
X132911904Y-124112976D01*
X132911904Y-124417738D01*
X132950000Y-124493928D01*
X132988095Y-124532023D01*
X133064285Y-124570119D01*
X133178571Y-124570119D01*
X133254761Y-124532023D01*
X133292857Y-124493928D01*
X133330952Y-124417738D01*
X133330952Y-124112976D01*
X133635714Y-125370119D02*
X133673809Y-125332023D01*
X133711904Y-125217738D01*
X133711904Y-125141547D01*
X133673809Y-125027261D01*
X133597619Y-124951071D01*
X133521428Y-124912976D01*
X133369047Y-124874880D01*
X133254761Y-124874880D01*
X133102380Y-124912976D01*
X133026190Y-124951071D01*
X132950000Y-125027261D01*
X132911904Y-125141547D01*
X132911904Y-125217738D01*
X132950000Y-125332023D01*
X132988095Y-125370119D01*
X132911904Y-125865357D02*
X132911904Y-125941547D01*
X132950000Y-126017738D01*
X132988095Y-126055833D01*
X133064285Y-126093928D01*
X133216666Y-126132023D01*
X133407142Y-126132023D01*
X133559523Y-126093928D01*
X133635714Y-126055833D01*
X133673809Y-126017738D01*
X133711904Y-125941547D01*
X133711904Y-125865357D01*
X133673809Y-125789166D01*
X133635714Y-125751071D01*
X133559523Y-125712976D01*
X133407142Y-125674880D01*
X133216666Y-125674880D01*
X133064285Y-125712976D01*
X132988095Y-125751071D01*
X132950000Y-125789166D01*
X132911904Y-125865357D01*
X130752857Y-124379642D02*
X130790952Y-124493928D01*
X130829047Y-124532023D01*
X130905238Y-124570119D01*
X131019523Y-124570119D01*
X131095714Y-124532023D01*
X131133809Y-124493928D01*
X131171904Y-124417738D01*
X131171904Y-124112976D01*
X130371904Y-124112976D01*
X130371904Y-124379642D01*
X130410000Y-124455833D01*
X130448095Y-124493928D01*
X130524285Y-124532023D01*
X130600476Y-124532023D01*
X130676666Y-124493928D01*
X130714761Y-124455833D01*
X130752857Y-124379642D01*
X130752857Y-124112976D01*
X130371904Y-125065357D02*
X130371904Y-125217738D01*
X130410000Y-125293928D01*
X130486190Y-125370119D01*
X130638571Y-125408214D01*
X130905238Y-125408214D01*
X131057619Y-125370119D01*
X131133809Y-125293928D01*
X131171904Y-125217738D01*
X131171904Y-125065357D01*
X131133809Y-124989166D01*
X131057619Y-124912976D01*
X130905238Y-124874880D01*
X130638571Y-124874880D01*
X130486190Y-124912976D01*
X130410000Y-124989166D01*
X130371904Y-125065357D01*
X130371904Y-125903452D02*
X130371904Y-125979642D01*
X130410000Y-126055833D01*
X130448095Y-126093928D01*
X130524285Y-126132023D01*
X130676666Y-126170119D01*
X130867142Y-126170119D01*
X131019523Y-126132023D01*
X131095714Y-126093928D01*
X131133809Y-126055833D01*
X131171904Y-125979642D01*
X131171904Y-125903452D01*
X131133809Y-125827261D01*
X131095714Y-125789166D01*
X131019523Y-125751071D01*
X130867142Y-125712976D01*
X130676666Y-125712976D01*
X130524285Y-125751071D01*
X130448095Y-125789166D01*
X130410000Y-125827261D01*
X130371904Y-125903452D01*
X127831904Y-124036785D02*
X127831904Y-124532023D01*
X128136666Y-124265357D01*
X128136666Y-124379642D01*
X128174761Y-124455833D01*
X128212857Y-124493928D01*
X128289047Y-124532023D01*
X128479523Y-124532023D01*
X128555714Y-124493928D01*
X128593809Y-124455833D01*
X128631904Y-124379642D01*
X128631904Y-124151071D01*
X128593809Y-124074880D01*
X128555714Y-124036785D01*
X128555714Y-124874880D02*
X128593809Y-124912976D01*
X128631904Y-124874880D01*
X128593809Y-124836785D01*
X128555714Y-124874880D01*
X128631904Y-124874880D01*
X127831904Y-125179642D02*
X127831904Y-125674880D01*
X128136666Y-125408214D01*
X128136666Y-125522500D01*
X128174761Y-125598690D01*
X128212857Y-125636785D01*
X128289047Y-125674880D01*
X128479523Y-125674880D01*
X128555714Y-125636785D01*
X128593809Y-125598690D01*
X128631904Y-125522500D01*
X128631904Y-125293928D01*
X128593809Y-125217738D01*
X128555714Y-125179642D01*
X127831904Y-125903452D02*
X128631904Y-126170119D01*
X127831904Y-126436785D01*
X176130000Y-116183928D02*
X176091904Y-116107738D01*
X176091904Y-115993452D01*
X176130000Y-115879166D01*
X176206190Y-115802976D01*
X176282380Y-115764880D01*
X176434761Y-115726785D01*
X176549047Y-115726785D01*
X176701428Y-115764880D01*
X176777619Y-115802976D01*
X176853809Y-115879166D01*
X176891904Y-115993452D01*
X176891904Y-116069642D01*
X176853809Y-116183928D01*
X176815714Y-116222023D01*
X176549047Y-116222023D01*
X176549047Y-116069642D01*
X176891904Y-116564880D02*
X176091904Y-116564880D01*
X176891904Y-117022023D01*
X176091904Y-117022023D01*
X176891904Y-117402976D02*
X176091904Y-117402976D01*
X176091904Y-117593452D01*
X176130000Y-117707738D01*
X176206190Y-117783928D01*
X176282380Y-117822023D01*
X176434761Y-117860119D01*
X176549047Y-117860119D01*
X176701428Y-117822023D01*
X176777619Y-117783928D01*
X176853809Y-117707738D01*
X176891904Y-117593452D01*
X176891904Y-117402976D01*
X173590000Y-116183928D02*
X173551904Y-116107738D01*
X173551904Y-115993452D01*
X173590000Y-115879166D01*
X173666190Y-115802976D01*
X173742380Y-115764880D01*
X173894761Y-115726785D01*
X174009047Y-115726785D01*
X174161428Y-115764880D01*
X174237619Y-115802976D01*
X174313809Y-115879166D01*
X174351904Y-115993452D01*
X174351904Y-116069642D01*
X174313809Y-116183928D01*
X174275714Y-116222023D01*
X174009047Y-116222023D01*
X174009047Y-116069642D01*
X174351904Y-116564880D02*
X173551904Y-116564880D01*
X174351904Y-117022023D01*
X173551904Y-117022023D01*
X174351904Y-117402976D02*
X173551904Y-117402976D01*
X173551904Y-117593452D01*
X173590000Y-117707738D01*
X173666190Y-117783928D01*
X173742380Y-117822023D01*
X173894761Y-117860119D01*
X174009047Y-117860119D01*
X174161428Y-117822023D01*
X174237619Y-117783928D01*
X174313809Y-117707738D01*
X174351904Y-117593452D01*
X174351904Y-117402976D01*
X171011904Y-116602976D02*
X171659523Y-116602976D01*
X171735714Y-116641071D01*
X171773809Y-116679166D01*
X171811904Y-116755357D01*
X171811904Y-116907738D01*
X171773809Y-116983928D01*
X171735714Y-117022023D01*
X171659523Y-117060119D01*
X171011904Y-117060119D01*
X171278571Y-117783928D02*
X171811904Y-117783928D01*
X170973809Y-117593452D02*
X171545238Y-117402976D01*
X171545238Y-117898214D01*
X168471904Y-116602976D02*
X169119523Y-116602976D01*
X169195714Y-116641071D01*
X169233809Y-116679166D01*
X169271904Y-116755357D01*
X169271904Y-116907738D01*
X169233809Y-116983928D01*
X169195714Y-117022023D01*
X169119523Y-117060119D01*
X168471904Y-117060119D01*
X168548095Y-117402976D02*
X168510000Y-117441071D01*
X168471904Y-117517261D01*
X168471904Y-117707738D01*
X168510000Y-117783928D01*
X168548095Y-117822023D01*
X168624285Y-117860119D01*
X168700476Y-117860119D01*
X168814761Y-117822023D01*
X169271904Y-117364880D01*
X169271904Y-117860119D01*
X166731904Y-115841071D02*
X165931904Y-115841071D01*
X165931904Y-116145833D01*
X165970000Y-116222023D01*
X166008095Y-116260119D01*
X166084285Y-116298214D01*
X166198571Y-116298214D01*
X166274761Y-116260119D01*
X166312857Y-116222023D01*
X166350952Y-116145833D01*
X166350952Y-115841071D01*
X166655714Y-117098214D02*
X166693809Y-117060119D01*
X166731904Y-116945833D01*
X166731904Y-116869642D01*
X166693809Y-116755357D01*
X166617619Y-116679166D01*
X166541428Y-116641071D01*
X166389047Y-116602976D01*
X166274761Y-116602976D01*
X166122380Y-116641071D01*
X166046190Y-116679166D01*
X165970000Y-116755357D01*
X165931904Y-116869642D01*
X165931904Y-116945833D01*
X165970000Y-117060119D01*
X166008095Y-117098214D01*
X166731904Y-117479166D02*
X166731904Y-117631547D01*
X166693809Y-117707738D01*
X166655714Y-117745833D01*
X166541428Y-117822023D01*
X166389047Y-117860119D01*
X166084285Y-117860119D01*
X166008095Y-117822023D01*
X165970000Y-117783928D01*
X165931904Y-117707738D01*
X165931904Y-117555357D01*
X165970000Y-117479166D01*
X166008095Y-117441071D01*
X166084285Y-117402976D01*
X166274761Y-117402976D01*
X166350952Y-117441071D01*
X166389047Y-117479166D01*
X166427142Y-117555357D01*
X166427142Y-117707738D01*
X166389047Y-117783928D01*
X166350952Y-117822023D01*
X166274761Y-117860119D01*
X164191904Y-115841071D02*
X163391904Y-115841071D01*
X163391904Y-116145833D01*
X163430000Y-116222023D01*
X163468095Y-116260119D01*
X163544285Y-116298214D01*
X163658571Y-116298214D01*
X163734761Y-116260119D01*
X163772857Y-116222023D01*
X163810952Y-116145833D01*
X163810952Y-115841071D01*
X164115714Y-117098214D02*
X164153809Y-117060119D01*
X164191904Y-116945833D01*
X164191904Y-116869642D01*
X164153809Y-116755357D01*
X164077619Y-116679166D01*
X164001428Y-116641071D01*
X163849047Y-116602976D01*
X163734761Y-116602976D01*
X163582380Y-116641071D01*
X163506190Y-116679166D01*
X163430000Y-116755357D01*
X163391904Y-116869642D01*
X163391904Y-116945833D01*
X163430000Y-117060119D01*
X163468095Y-117098214D01*
X163391904Y-117364880D02*
X163391904Y-117898214D01*
X164191904Y-117555357D01*
X161651904Y-115079166D02*
X160851904Y-115079166D01*
X160851904Y-115383928D01*
X160890000Y-115460119D01*
X160928095Y-115498214D01*
X161004285Y-115536309D01*
X161118571Y-115536309D01*
X161194761Y-115498214D01*
X161232857Y-115460119D01*
X161270952Y-115383928D01*
X161270952Y-115079166D01*
X161232857Y-116145833D02*
X161270952Y-116260119D01*
X161309047Y-116298214D01*
X161385238Y-116336309D01*
X161499523Y-116336309D01*
X161575714Y-116298214D01*
X161613809Y-116260119D01*
X161651904Y-116183928D01*
X161651904Y-115879166D01*
X160851904Y-115879166D01*
X160851904Y-116145833D01*
X160890000Y-116222023D01*
X160928095Y-116260119D01*
X161004285Y-116298214D01*
X161080476Y-116298214D01*
X161156666Y-116260119D01*
X161194761Y-116222023D01*
X161232857Y-116145833D01*
X161232857Y-115879166D01*
X161651904Y-117098214D02*
X161651904Y-116641071D01*
X161651904Y-116869642D02*
X160851904Y-116869642D01*
X160966190Y-116793452D01*
X161042380Y-116717261D01*
X161080476Y-116641071D01*
X160851904Y-117822023D02*
X160851904Y-117441071D01*
X161232857Y-117402976D01*
X161194761Y-117441071D01*
X161156666Y-117517261D01*
X161156666Y-117707738D01*
X161194761Y-117783928D01*
X161232857Y-117822023D01*
X161309047Y-117860119D01*
X161499523Y-117860119D01*
X161575714Y-117822023D01*
X161613809Y-117783928D01*
X161651904Y-117707738D01*
X161651904Y-117517261D01*
X161613809Y-117441071D01*
X161575714Y-117402976D01*
X159111904Y-115079166D02*
X158311904Y-115079166D01*
X158311904Y-115383928D01*
X158350000Y-115460119D01*
X158388095Y-115498214D01*
X158464285Y-115536309D01*
X158578571Y-115536309D01*
X158654761Y-115498214D01*
X158692857Y-115460119D01*
X158730952Y-115383928D01*
X158730952Y-115079166D01*
X158692857Y-116145833D02*
X158730952Y-116260119D01*
X158769047Y-116298214D01*
X158845238Y-116336309D01*
X158959523Y-116336309D01*
X159035714Y-116298214D01*
X159073809Y-116260119D01*
X159111904Y-116183928D01*
X159111904Y-115879166D01*
X158311904Y-115879166D01*
X158311904Y-116145833D01*
X158350000Y-116222023D01*
X158388095Y-116260119D01*
X158464285Y-116298214D01*
X158540476Y-116298214D01*
X158616666Y-116260119D01*
X158654761Y-116222023D01*
X158692857Y-116145833D01*
X158692857Y-115879166D01*
X159111904Y-117098214D02*
X159111904Y-116641071D01*
X159111904Y-116869642D02*
X158311904Y-116869642D01*
X158426190Y-116793452D01*
X158502380Y-116717261D01*
X158540476Y-116641071D01*
X158311904Y-117364880D02*
X158311904Y-117860119D01*
X158616666Y-117593452D01*
X158616666Y-117707738D01*
X158654761Y-117783928D01*
X158692857Y-117822023D01*
X158769047Y-117860119D01*
X158959523Y-117860119D01*
X159035714Y-117822023D01*
X159073809Y-117783928D01*
X159111904Y-117707738D01*
X159111904Y-117479166D01*
X159073809Y-117402976D01*
X159035714Y-117364880D01*
X156571904Y-115079166D02*
X155771904Y-115079166D01*
X155771904Y-115383928D01*
X155810000Y-115460119D01*
X155848095Y-115498214D01*
X155924285Y-115536309D01*
X156038571Y-115536309D01*
X156114761Y-115498214D01*
X156152857Y-115460119D01*
X156190952Y-115383928D01*
X156190952Y-115079166D01*
X156152857Y-116145833D02*
X156190952Y-116260119D01*
X156229047Y-116298214D01*
X156305238Y-116336309D01*
X156419523Y-116336309D01*
X156495714Y-116298214D01*
X156533809Y-116260119D01*
X156571904Y-116183928D01*
X156571904Y-115879166D01*
X155771904Y-115879166D01*
X155771904Y-116145833D01*
X155810000Y-116222023D01*
X155848095Y-116260119D01*
X155924285Y-116298214D01*
X156000476Y-116298214D01*
X156076666Y-116260119D01*
X156114761Y-116222023D01*
X156152857Y-116145833D01*
X156152857Y-115879166D01*
X156571904Y-117098214D02*
X156571904Y-116641071D01*
X156571904Y-116869642D02*
X155771904Y-116869642D01*
X155886190Y-116793452D01*
X155962380Y-116717261D01*
X156000476Y-116641071D01*
X156571904Y-117860119D02*
X156571904Y-117402976D01*
X156571904Y-117631547D02*
X155771904Y-117631547D01*
X155886190Y-117555357D01*
X155962380Y-117479166D01*
X156000476Y-117402976D01*
X153231904Y-116602976D02*
X153879523Y-116602976D01*
X153955714Y-116641071D01*
X153993809Y-116679166D01*
X154031904Y-116755357D01*
X154031904Y-116907738D01*
X153993809Y-116983928D01*
X153955714Y-117022023D01*
X153879523Y-117060119D01*
X153231904Y-117060119D01*
X153231904Y-117593452D02*
X153231904Y-117669642D01*
X153270000Y-117745833D01*
X153308095Y-117783928D01*
X153384285Y-117822023D01*
X153536666Y-117860119D01*
X153727142Y-117860119D01*
X153879523Y-117822023D01*
X153955714Y-117783928D01*
X153993809Y-117745833D01*
X154031904Y-117669642D01*
X154031904Y-117593452D01*
X153993809Y-117517261D01*
X153955714Y-117479166D01*
X153879523Y-117441071D01*
X153727142Y-117402976D01*
X153536666Y-117402976D01*
X153384285Y-117441071D01*
X153308095Y-117479166D01*
X153270000Y-117517261D01*
X153231904Y-117593452D01*
X151491904Y-115841071D02*
X150691904Y-115841071D01*
X150691904Y-116145833D01*
X150730000Y-116222023D01*
X150768095Y-116260119D01*
X150844285Y-116298214D01*
X150958571Y-116298214D01*
X151034761Y-116260119D01*
X151072857Y-116222023D01*
X151110952Y-116145833D01*
X151110952Y-115841071D01*
X151072857Y-116907738D02*
X151110952Y-117022023D01*
X151149047Y-117060119D01*
X151225238Y-117098214D01*
X151339523Y-117098214D01*
X151415714Y-117060119D01*
X151453809Y-117022023D01*
X151491904Y-116945833D01*
X151491904Y-116641071D01*
X150691904Y-116641071D01*
X150691904Y-116907738D01*
X150730000Y-116983928D01*
X150768095Y-117022023D01*
X150844285Y-117060119D01*
X150920476Y-117060119D01*
X150996666Y-117022023D01*
X151034761Y-116983928D01*
X151072857Y-116907738D01*
X151072857Y-116641071D01*
X151491904Y-117860119D02*
X151491904Y-117402976D01*
X151491904Y-117631547D02*
X150691904Y-117631547D01*
X150806190Y-117555357D01*
X150882380Y-117479166D01*
X150920476Y-117402976D01*
X148951904Y-115841071D02*
X148151904Y-115841071D01*
X148151904Y-116145833D01*
X148190000Y-116222023D01*
X148228095Y-116260119D01*
X148304285Y-116298214D01*
X148418571Y-116298214D01*
X148494761Y-116260119D01*
X148532857Y-116222023D01*
X148570952Y-116145833D01*
X148570952Y-115841071D01*
X148875714Y-117098214D02*
X148913809Y-117060119D01*
X148951904Y-116945833D01*
X148951904Y-116869642D01*
X148913809Y-116755357D01*
X148837619Y-116679166D01*
X148761428Y-116641071D01*
X148609047Y-116602976D01*
X148494761Y-116602976D01*
X148342380Y-116641071D01*
X148266190Y-116679166D01*
X148190000Y-116755357D01*
X148151904Y-116869642D01*
X148151904Y-116945833D01*
X148190000Y-117060119D01*
X148228095Y-117098214D01*
X148151904Y-117822023D02*
X148151904Y-117441071D01*
X148532857Y-117402976D01*
X148494761Y-117441071D01*
X148456666Y-117517261D01*
X148456666Y-117707738D01*
X148494761Y-117783928D01*
X148532857Y-117822023D01*
X148609047Y-117860119D01*
X148799523Y-117860119D01*
X148875714Y-117822023D01*
X148913809Y-117783928D01*
X148951904Y-117707738D01*
X148951904Y-117517261D01*
X148913809Y-117441071D01*
X148875714Y-117402976D01*
X146411904Y-115955357D02*
X145611904Y-115955357D01*
X145611904Y-116260119D01*
X145650000Y-116336309D01*
X145688095Y-116374404D01*
X145764285Y-116412500D01*
X145878571Y-116412500D01*
X145954761Y-116374404D01*
X145992857Y-116336309D01*
X146030952Y-116260119D01*
X146030952Y-115955357D01*
X146183333Y-116717261D02*
X146183333Y-117098214D01*
X146411904Y-116641071D02*
X145611904Y-116907738D01*
X146411904Y-117174404D01*
X145611904Y-117364880D02*
X145611904Y-117898214D01*
X146411904Y-117555357D01*
X143871904Y-115955357D02*
X143071904Y-115955357D01*
X143071904Y-116260119D01*
X143110000Y-116336309D01*
X143148095Y-116374404D01*
X143224285Y-116412500D01*
X143338571Y-116412500D01*
X143414761Y-116374404D01*
X143452857Y-116336309D01*
X143490952Y-116260119D01*
X143490952Y-115955357D01*
X143643333Y-116717261D02*
X143643333Y-117098214D01*
X143871904Y-116641071D02*
X143071904Y-116907738D01*
X143871904Y-117174404D01*
X143071904Y-117822023D02*
X143071904Y-117441071D01*
X143452857Y-117402976D01*
X143414761Y-117441071D01*
X143376666Y-117517261D01*
X143376666Y-117707738D01*
X143414761Y-117783928D01*
X143452857Y-117822023D01*
X143529047Y-117860119D01*
X143719523Y-117860119D01*
X143795714Y-117822023D01*
X143833809Y-117783928D01*
X143871904Y-117707738D01*
X143871904Y-117517261D01*
X143833809Y-117441071D01*
X143795714Y-117402976D01*
X141331904Y-115955357D02*
X140531904Y-115955357D01*
X140531904Y-116260119D01*
X140570000Y-116336309D01*
X140608095Y-116374404D01*
X140684285Y-116412500D01*
X140798571Y-116412500D01*
X140874761Y-116374404D01*
X140912857Y-116336309D01*
X140950952Y-116260119D01*
X140950952Y-115955357D01*
X141103333Y-116717261D02*
X141103333Y-117098214D01*
X141331904Y-116641071D02*
X140531904Y-116907738D01*
X141331904Y-117174404D01*
X140531904Y-117364880D02*
X140531904Y-117860119D01*
X140836666Y-117593452D01*
X140836666Y-117707738D01*
X140874761Y-117783928D01*
X140912857Y-117822023D01*
X140989047Y-117860119D01*
X141179523Y-117860119D01*
X141255714Y-117822023D01*
X141293809Y-117783928D01*
X141331904Y-117707738D01*
X141331904Y-117479166D01*
X141293809Y-117402976D01*
X141255714Y-117364880D01*
X138791904Y-115955357D02*
X137991904Y-115955357D01*
X137991904Y-116260119D01*
X138030000Y-116336309D01*
X138068095Y-116374404D01*
X138144285Y-116412500D01*
X138258571Y-116412500D01*
X138334761Y-116374404D01*
X138372857Y-116336309D01*
X138410952Y-116260119D01*
X138410952Y-115955357D01*
X138563333Y-116717261D02*
X138563333Y-117098214D01*
X138791904Y-116641071D02*
X137991904Y-116907738D01*
X138791904Y-117174404D01*
X138791904Y-117860119D02*
X138791904Y-117402976D01*
X138791904Y-117631547D02*
X137991904Y-117631547D01*
X138106190Y-117555357D01*
X138182380Y-117479166D01*
X138220476Y-117402976D01*
X136251904Y-115841071D02*
X135451904Y-115841071D01*
X135451904Y-116145833D01*
X135490000Y-116222023D01*
X135528095Y-116260119D01*
X135604285Y-116298214D01*
X135718571Y-116298214D01*
X135794761Y-116260119D01*
X135832857Y-116222023D01*
X135870952Y-116145833D01*
X135870952Y-115841071D01*
X136175714Y-117098214D02*
X136213809Y-117060119D01*
X136251904Y-116945833D01*
X136251904Y-116869642D01*
X136213809Y-116755357D01*
X136137619Y-116679166D01*
X136061428Y-116641071D01*
X135909047Y-116602976D01*
X135794761Y-116602976D01*
X135642380Y-116641071D01*
X135566190Y-116679166D01*
X135490000Y-116755357D01*
X135451904Y-116869642D01*
X135451904Y-116945833D01*
X135490000Y-117060119D01*
X135528095Y-117098214D01*
X135451904Y-117364880D02*
X135451904Y-117860119D01*
X135756666Y-117593452D01*
X135756666Y-117707738D01*
X135794761Y-117783928D01*
X135832857Y-117822023D01*
X135909047Y-117860119D01*
X136099523Y-117860119D01*
X136175714Y-117822023D01*
X136213809Y-117783928D01*
X136251904Y-117707738D01*
X136251904Y-117479166D01*
X136213809Y-117402976D01*
X136175714Y-117364880D01*
X133711904Y-115841071D02*
X132911904Y-115841071D01*
X132911904Y-116145833D01*
X132950000Y-116222023D01*
X132988095Y-116260119D01*
X133064285Y-116298214D01*
X133178571Y-116298214D01*
X133254761Y-116260119D01*
X133292857Y-116222023D01*
X133330952Y-116145833D01*
X133330952Y-115841071D01*
X133635714Y-117098214D02*
X133673809Y-117060119D01*
X133711904Y-116945833D01*
X133711904Y-116869642D01*
X133673809Y-116755357D01*
X133597619Y-116679166D01*
X133521428Y-116641071D01*
X133369047Y-116602976D01*
X133254761Y-116602976D01*
X133102380Y-116641071D01*
X133026190Y-116679166D01*
X132950000Y-116755357D01*
X132911904Y-116869642D01*
X132911904Y-116945833D01*
X132950000Y-117060119D01*
X132988095Y-117098214D01*
X133711904Y-117860119D02*
X133711904Y-117402976D01*
X133711904Y-117631547D02*
X132911904Y-117631547D01*
X133026190Y-117555357D01*
X133102380Y-117479166D01*
X133140476Y-117402976D01*
X131171904Y-115193452D02*
X130371904Y-115193452D01*
X131171904Y-115650595D01*
X130371904Y-115650595D01*
X131171904Y-116488690D02*
X130790952Y-116222023D01*
X131171904Y-116031547D02*
X130371904Y-116031547D01*
X130371904Y-116336309D01*
X130410000Y-116412500D01*
X130448095Y-116450595D01*
X130524285Y-116488690D01*
X130638571Y-116488690D01*
X130714761Y-116450595D01*
X130752857Y-116412500D01*
X130790952Y-116336309D01*
X130790952Y-116031547D01*
X131133809Y-116793452D02*
X131171904Y-116907738D01*
X131171904Y-117098214D01*
X131133809Y-117174404D01*
X131095714Y-117212500D01*
X131019523Y-117250595D01*
X130943333Y-117250595D01*
X130867142Y-117212500D01*
X130829047Y-117174404D01*
X130790952Y-117098214D01*
X130752857Y-116945833D01*
X130714761Y-116869642D01*
X130676666Y-116831547D01*
X130600476Y-116793452D01*
X130524285Y-116793452D01*
X130448095Y-116831547D01*
X130410000Y-116869642D01*
X130371904Y-116945833D01*
X130371904Y-117136309D01*
X130410000Y-117250595D01*
X130371904Y-117479166D02*
X130371904Y-117936309D01*
X131171904Y-117707738D02*
X130371904Y-117707738D01*
X127870000Y-116183928D02*
X127831904Y-116107738D01*
X127831904Y-115993452D01*
X127870000Y-115879166D01*
X127946190Y-115802976D01*
X128022380Y-115764880D01*
X128174761Y-115726785D01*
X128289047Y-115726785D01*
X128441428Y-115764880D01*
X128517619Y-115802976D01*
X128593809Y-115879166D01*
X128631904Y-115993452D01*
X128631904Y-116069642D01*
X128593809Y-116183928D01*
X128555714Y-116222023D01*
X128289047Y-116222023D01*
X128289047Y-116069642D01*
X128631904Y-116564880D02*
X127831904Y-116564880D01*
X128631904Y-117022023D01*
X127831904Y-117022023D01*
X128631904Y-117402976D02*
X127831904Y-117402976D01*
X127831904Y-117593452D01*
X127870000Y-117707738D01*
X127946190Y-117783928D01*
X128022380Y-117822023D01*
X128174761Y-117860119D01*
X128289047Y-117860119D01*
X128441428Y-117822023D01*
X128517619Y-117783928D01*
X128593809Y-117707738D01*
X128631904Y-117593452D01*
X128631904Y-117402976D01*
X127831904Y-76801309D02*
X127831904Y-77296547D01*
X128136666Y-77029880D01*
X128136666Y-77144166D01*
X128174761Y-77220357D01*
X128212857Y-77258452D01*
X128289047Y-77296547D01*
X128479523Y-77296547D01*
X128555714Y-77258452D01*
X128593809Y-77220357D01*
X128631904Y-77144166D01*
X128631904Y-76915595D01*
X128593809Y-76839404D01*
X128555714Y-76801309D01*
X128555714Y-77639404D02*
X128593809Y-77677500D01*
X128631904Y-77639404D01*
X128593809Y-77601309D01*
X128555714Y-77639404D01*
X128631904Y-77639404D01*
X127831904Y-77944166D02*
X127831904Y-78439404D01*
X128136666Y-78172738D01*
X128136666Y-78287023D01*
X128174761Y-78363214D01*
X128212857Y-78401309D01*
X128289047Y-78439404D01*
X128479523Y-78439404D01*
X128555714Y-78401309D01*
X128593809Y-78363214D01*
X128631904Y-78287023D01*
X128631904Y-78058452D01*
X128593809Y-77982261D01*
X128555714Y-77944166D01*
X127831904Y-78667976D02*
X128631904Y-78934642D01*
X127831904Y-79201309D01*
X130371904Y-77867976D02*
X131019523Y-77867976D01*
X131095714Y-77906071D01*
X131133809Y-77944166D01*
X131171904Y-78020357D01*
X131171904Y-78172738D01*
X131133809Y-78248928D01*
X131095714Y-78287023D01*
X131019523Y-78325119D01*
X130371904Y-78325119D01*
X130371904Y-79087023D02*
X130371904Y-78706071D01*
X130752857Y-78667976D01*
X130714761Y-78706071D01*
X130676666Y-78782261D01*
X130676666Y-78972738D01*
X130714761Y-79048928D01*
X130752857Y-79087023D01*
X130829047Y-79125119D01*
X131019523Y-79125119D01*
X131095714Y-79087023D01*
X131133809Y-79048928D01*
X131171904Y-78972738D01*
X131171904Y-78782261D01*
X131133809Y-78706071D01*
X131095714Y-78667976D01*
X132911904Y-77867976D02*
X133559523Y-77867976D01*
X133635714Y-77906071D01*
X133673809Y-77944166D01*
X133711904Y-78020357D01*
X133711904Y-78172738D01*
X133673809Y-78248928D01*
X133635714Y-78287023D01*
X133559523Y-78325119D01*
X132911904Y-78325119D01*
X132911904Y-78629880D02*
X132911904Y-79163214D01*
X133711904Y-78820357D01*
X136251904Y-76344166D02*
X135451904Y-76344166D01*
X135451904Y-76648928D01*
X135490000Y-76725119D01*
X135528095Y-76763214D01*
X135604285Y-76801309D01*
X135718571Y-76801309D01*
X135794761Y-76763214D01*
X135832857Y-76725119D01*
X135870952Y-76648928D01*
X135870952Y-76344166D01*
X136175714Y-77601309D02*
X136213809Y-77563214D01*
X136251904Y-77448928D01*
X136251904Y-77372738D01*
X136213809Y-77258452D01*
X136137619Y-77182261D01*
X136061428Y-77144166D01*
X135909047Y-77106071D01*
X135794761Y-77106071D01*
X135642380Y-77144166D01*
X135566190Y-77182261D01*
X135490000Y-77258452D01*
X135451904Y-77372738D01*
X135451904Y-77448928D01*
X135490000Y-77563214D01*
X135528095Y-77601309D01*
X136251904Y-78363214D02*
X136251904Y-77906071D01*
X136251904Y-78134642D02*
X135451904Y-78134642D01*
X135566190Y-78058452D01*
X135642380Y-77982261D01*
X135680476Y-77906071D01*
X135718571Y-79048928D02*
X136251904Y-79048928D01*
X135413809Y-78858452D02*
X135985238Y-78667976D01*
X135985238Y-79163214D01*
X137991904Y-77867976D02*
X138639523Y-77867976D01*
X138715714Y-77906071D01*
X138753809Y-77944166D01*
X138791904Y-78020357D01*
X138791904Y-78172738D01*
X138753809Y-78248928D01*
X138715714Y-78287023D01*
X138639523Y-78325119D01*
X137991904Y-78325119D01*
X138791904Y-78744166D02*
X138791904Y-78896547D01*
X138753809Y-78972738D01*
X138715714Y-79010833D01*
X138601428Y-79087023D01*
X138449047Y-79125119D01*
X138144285Y-79125119D01*
X138068095Y-79087023D01*
X138030000Y-79048928D01*
X137991904Y-78972738D01*
X137991904Y-78820357D01*
X138030000Y-78744166D01*
X138068095Y-78706071D01*
X138144285Y-78667976D01*
X138334761Y-78667976D01*
X138410952Y-78706071D01*
X138449047Y-78744166D01*
X138487142Y-78820357D01*
X138487142Y-78972738D01*
X138449047Y-79048928D01*
X138410952Y-79087023D01*
X138334761Y-79125119D01*
X141331904Y-77106071D02*
X140531904Y-77106071D01*
X140531904Y-77410833D01*
X140570000Y-77487023D01*
X140608095Y-77525119D01*
X140684285Y-77563214D01*
X140798571Y-77563214D01*
X140874761Y-77525119D01*
X140912857Y-77487023D01*
X140950952Y-77410833D01*
X140950952Y-77106071D01*
X140912857Y-78172738D02*
X140950952Y-78287023D01*
X140989047Y-78325119D01*
X141065238Y-78363214D01*
X141179523Y-78363214D01*
X141255714Y-78325119D01*
X141293809Y-78287023D01*
X141331904Y-78210833D01*
X141331904Y-77906071D01*
X140531904Y-77906071D01*
X140531904Y-78172738D01*
X140570000Y-78248928D01*
X140608095Y-78287023D01*
X140684285Y-78325119D01*
X140760476Y-78325119D01*
X140836666Y-78287023D01*
X140874761Y-78248928D01*
X140912857Y-78172738D01*
X140912857Y-77906071D01*
X140874761Y-78820357D02*
X140836666Y-78744166D01*
X140798571Y-78706071D01*
X140722380Y-78667976D01*
X140684285Y-78667976D01*
X140608095Y-78706071D01*
X140570000Y-78744166D01*
X140531904Y-78820357D01*
X140531904Y-78972738D01*
X140570000Y-79048928D01*
X140608095Y-79087023D01*
X140684285Y-79125119D01*
X140722380Y-79125119D01*
X140798571Y-79087023D01*
X140836666Y-79048928D01*
X140874761Y-78972738D01*
X140874761Y-78820357D01*
X140912857Y-78744166D01*
X140950952Y-78706071D01*
X141027142Y-78667976D01*
X141179523Y-78667976D01*
X141255714Y-78706071D01*
X141293809Y-78744166D01*
X141331904Y-78820357D01*
X141331904Y-78972738D01*
X141293809Y-79048928D01*
X141255714Y-79087023D01*
X141179523Y-79125119D01*
X141027142Y-79125119D01*
X140950952Y-79087023D01*
X140912857Y-79048928D01*
X140874761Y-78972738D01*
X143871904Y-77106071D02*
X143071904Y-77106071D01*
X143071904Y-77410833D01*
X143110000Y-77487023D01*
X143148095Y-77525119D01*
X143224285Y-77563214D01*
X143338571Y-77563214D01*
X143414761Y-77525119D01*
X143452857Y-77487023D01*
X143490952Y-77410833D01*
X143490952Y-77106071D01*
X143452857Y-78172738D02*
X143490952Y-78287023D01*
X143529047Y-78325119D01*
X143605238Y-78363214D01*
X143719523Y-78363214D01*
X143795714Y-78325119D01*
X143833809Y-78287023D01*
X143871904Y-78210833D01*
X143871904Y-77906071D01*
X143071904Y-77906071D01*
X143071904Y-78172738D01*
X143110000Y-78248928D01*
X143148095Y-78287023D01*
X143224285Y-78325119D01*
X143300476Y-78325119D01*
X143376666Y-78287023D01*
X143414761Y-78248928D01*
X143452857Y-78172738D01*
X143452857Y-77906071D01*
X143071904Y-79048928D02*
X143071904Y-78896547D01*
X143110000Y-78820357D01*
X143148095Y-78782261D01*
X143262380Y-78706071D01*
X143414761Y-78667976D01*
X143719523Y-78667976D01*
X143795714Y-78706071D01*
X143833809Y-78744166D01*
X143871904Y-78820357D01*
X143871904Y-78972738D01*
X143833809Y-79048928D01*
X143795714Y-79087023D01*
X143719523Y-79125119D01*
X143529047Y-79125119D01*
X143452857Y-79087023D01*
X143414761Y-79048928D01*
X143376666Y-78972738D01*
X143376666Y-78820357D01*
X143414761Y-78744166D01*
X143452857Y-78706071D01*
X143529047Y-78667976D01*
X146411904Y-77106071D02*
X145611904Y-77106071D01*
X145611904Y-77410833D01*
X145650000Y-77487023D01*
X145688095Y-77525119D01*
X145764285Y-77563214D01*
X145878571Y-77563214D01*
X145954761Y-77525119D01*
X145992857Y-77487023D01*
X146030952Y-77410833D01*
X146030952Y-77106071D01*
X145992857Y-78172738D02*
X146030952Y-78287023D01*
X146069047Y-78325119D01*
X146145238Y-78363214D01*
X146259523Y-78363214D01*
X146335714Y-78325119D01*
X146373809Y-78287023D01*
X146411904Y-78210833D01*
X146411904Y-77906071D01*
X145611904Y-77906071D01*
X145611904Y-78172738D01*
X145650000Y-78248928D01*
X145688095Y-78287023D01*
X145764285Y-78325119D01*
X145840476Y-78325119D01*
X145916666Y-78287023D01*
X145954761Y-78248928D01*
X145992857Y-78172738D01*
X145992857Y-77906071D01*
X145878571Y-79048928D02*
X146411904Y-79048928D01*
X145573809Y-78858452D02*
X146145238Y-78667976D01*
X146145238Y-79163214D01*
X148951904Y-77106071D02*
X148151904Y-77106071D01*
X148151904Y-77410833D01*
X148190000Y-77487023D01*
X148228095Y-77525119D01*
X148304285Y-77563214D01*
X148418571Y-77563214D01*
X148494761Y-77525119D01*
X148532857Y-77487023D01*
X148570952Y-77410833D01*
X148570952Y-77106071D01*
X148951904Y-77906071D02*
X148151904Y-77906071D01*
X148151904Y-78096547D01*
X148190000Y-78210833D01*
X148266190Y-78287023D01*
X148342380Y-78325119D01*
X148494761Y-78363214D01*
X148609047Y-78363214D01*
X148761428Y-78325119D01*
X148837619Y-78287023D01*
X148913809Y-78210833D01*
X148951904Y-78096547D01*
X148951904Y-77906071D01*
X148228095Y-78667976D02*
X148190000Y-78706071D01*
X148151904Y-78782261D01*
X148151904Y-78972738D01*
X148190000Y-79048928D01*
X148228095Y-79087023D01*
X148304285Y-79125119D01*
X148380476Y-79125119D01*
X148494761Y-79087023D01*
X148951904Y-78629880D01*
X148951904Y-79125119D01*
X151491904Y-76344166D02*
X150691904Y-76344166D01*
X150691904Y-76648928D01*
X150730000Y-76725119D01*
X150768095Y-76763214D01*
X150844285Y-76801309D01*
X150958571Y-76801309D01*
X151034761Y-76763214D01*
X151072857Y-76725119D01*
X151110952Y-76648928D01*
X151110952Y-76344166D01*
X151415714Y-77601309D02*
X151453809Y-77563214D01*
X151491904Y-77448928D01*
X151491904Y-77372738D01*
X151453809Y-77258452D01*
X151377619Y-77182261D01*
X151301428Y-77144166D01*
X151149047Y-77106071D01*
X151034761Y-77106071D01*
X150882380Y-77144166D01*
X150806190Y-77182261D01*
X150730000Y-77258452D01*
X150691904Y-77372738D01*
X150691904Y-77448928D01*
X150730000Y-77563214D01*
X150768095Y-77601309D01*
X151491904Y-78363214D02*
X151491904Y-77906071D01*
X151491904Y-78134642D02*
X150691904Y-78134642D01*
X150806190Y-78058452D01*
X150882380Y-77982261D01*
X150920476Y-77906071D01*
X150768095Y-78667976D02*
X150730000Y-78706071D01*
X150691904Y-78782261D01*
X150691904Y-78972738D01*
X150730000Y-79048928D01*
X150768095Y-79087023D01*
X150844285Y-79125119D01*
X150920476Y-79125119D01*
X151034761Y-79087023D01*
X151491904Y-78629880D01*
X151491904Y-79125119D01*
X154031904Y-76344166D02*
X153231904Y-76344166D01*
X153231904Y-76648928D01*
X153270000Y-76725119D01*
X153308095Y-76763214D01*
X153384285Y-76801309D01*
X153498571Y-76801309D01*
X153574761Y-76763214D01*
X153612857Y-76725119D01*
X153650952Y-76648928D01*
X153650952Y-76344166D01*
X153955714Y-77601309D02*
X153993809Y-77563214D01*
X154031904Y-77448928D01*
X154031904Y-77372738D01*
X153993809Y-77258452D01*
X153917619Y-77182261D01*
X153841428Y-77144166D01*
X153689047Y-77106071D01*
X153574761Y-77106071D01*
X153422380Y-77144166D01*
X153346190Y-77182261D01*
X153270000Y-77258452D01*
X153231904Y-77372738D01*
X153231904Y-77448928D01*
X153270000Y-77563214D01*
X153308095Y-77601309D01*
X154031904Y-78363214D02*
X154031904Y-77906071D01*
X154031904Y-78134642D02*
X153231904Y-78134642D01*
X153346190Y-78058452D01*
X153422380Y-77982261D01*
X153460476Y-77906071D01*
X153231904Y-78858452D02*
X153231904Y-78934642D01*
X153270000Y-79010833D01*
X153308095Y-79048928D01*
X153384285Y-79087023D01*
X153536666Y-79125119D01*
X153727142Y-79125119D01*
X153879523Y-79087023D01*
X153955714Y-79048928D01*
X153993809Y-79010833D01*
X154031904Y-78934642D01*
X154031904Y-78858452D01*
X153993809Y-78782261D01*
X153955714Y-78744166D01*
X153879523Y-78706071D01*
X153727142Y-78667976D01*
X153536666Y-78667976D01*
X153384285Y-78706071D01*
X153308095Y-78744166D01*
X153270000Y-78782261D01*
X153231904Y-78858452D01*
X155771904Y-77106071D02*
X156419523Y-77106071D01*
X156495714Y-77144166D01*
X156533809Y-77182261D01*
X156571904Y-77258452D01*
X156571904Y-77410833D01*
X156533809Y-77487023D01*
X156495714Y-77525119D01*
X156419523Y-77563214D01*
X155771904Y-77563214D01*
X156571904Y-78363214D02*
X156571904Y-77906071D01*
X156571904Y-78134642D02*
X155771904Y-78134642D01*
X155886190Y-78058452D01*
X155962380Y-77982261D01*
X156000476Y-77906071D01*
X156571904Y-79125119D02*
X156571904Y-78667976D01*
X156571904Y-78896547D02*
X155771904Y-78896547D01*
X155886190Y-78820357D01*
X155962380Y-78744166D01*
X156000476Y-78667976D01*
X159111904Y-76458452D02*
X158311904Y-76458452D01*
X158311904Y-76763214D01*
X158350000Y-76839404D01*
X158388095Y-76877500D01*
X158464285Y-76915595D01*
X158578571Y-76915595D01*
X158654761Y-76877500D01*
X158692857Y-76839404D01*
X158730952Y-76763214D01*
X158730952Y-76458452D01*
X158883333Y-77220357D02*
X158883333Y-77601309D01*
X159111904Y-77144166D02*
X158311904Y-77410833D01*
X159111904Y-77677500D01*
X159111904Y-78363214D02*
X159111904Y-77906071D01*
X159111904Y-78134642D02*
X158311904Y-78134642D01*
X158426190Y-78058452D01*
X158502380Y-77982261D01*
X158540476Y-77906071D01*
X158578571Y-79048928D02*
X159111904Y-79048928D01*
X158273809Y-78858452D02*
X158845238Y-78667976D01*
X158845238Y-79163214D01*
X161651904Y-76458452D02*
X160851904Y-76458452D01*
X160851904Y-76763214D01*
X160890000Y-76839404D01*
X160928095Y-76877500D01*
X161004285Y-76915595D01*
X161118571Y-76915595D01*
X161194761Y-76877500D01*
X161232857Y-76839404D01*
X161270952Y-76763214D01*
X161270952Y-76458452D01*
X161423333Y-77220357D02*
X161423333Y-77601309D01*
X161651904Y-77144166D02*
X160851904Y-77410833D01*
X161651904Y-77677500D01*
X161651904Y-78363214D02*
X161651904Y-77906071D01*
X161651904Y-78134642D02*
X160851904Y-78134642D01*
X160966190Y-78058452D01*
X161042380Y-77982261D01*
X161080476Y-77906071D01*
X160928095Y-78667976D02*
X160890000Y-78706071D01*
X160851904Y-78782261D01*
X160851904Y-78972738D01*
X160890000Y-79048928D01*
X160928095Y-79087023D01*
X161004285Y-79125119D01*
X161080476Y-79125119D01*
X161194761Y-79087023D01*
X161651904Y-78629880D01*
X161651904Y-79125119D01*
X164191904Y-76458452D02*
X163391904Y-76458452D01*
X163391904Y-76763214D01*
X163430000Y-76839404D01*
X163468095Y-76877500D01*
X163544285Y-76915595D01*
X163658571Y-76915595D01*
X163734761Y-76877500D01*
X163772857Y-76839404D01*
X163810952Y-76763214D01*
X163810952Y-76458452D01*
X163963333Y-77220357D02*
X163963333Y-77601309D01*
X164191904Y-77144166D02*
X163391904Y-77410833D01*
X164191904Y-77677500D01*
X164191904Y-78363214D02*
X164191904Y-77906071D01*
X164191904Y-78134642D02*
X163391904Y-78134642D01*
X163506190Y-78058452D01*
X163582380Y-77982261D01*
X163620476Y-77906071D01*
X163391904Y-78858452D02*
X163391904Y-78934642D01*
X163430000Y-79010833D01*
X163468095Y-79048928D01*
X163544285Y-79087023D01*
X163696666Y-79125119D01*
X163887142Y-79125119D01*
X164039523Y-79087023D01*
X164115714Y-79048928D01*
X164153809Y-79010833D01*
X164191904Y-78934642D01*
X164191904Y-78858452D01*
X164153809Y-78782261D01*
X164115714Y-78744166D01*
X164039523Y-78706071D01*
X163887142Y-78667976D01*
X163696666Y-78667976D01*
X163544285Y-78706071D01*
X163468095Y-78744166D01*
X163430000Y-78782261D01*
X163391904Y-78858452D01*
X166731904Y-77220357D02*
X165931904Y-77220357D01*
X165931904Y-77525119D01*
X165970000Y-77601309D01*
X166008095Y-77639404D01*
X166084285Y-77677500D01*
X166198571Y-77677500D01*
X166274761Y-77639404D01*
X166312857Y-77601309D01*
X166350952Y-77525119D01*
X166350952Y-77220357D01*
X166503333Y-77982261D02*
X166503333Y-78363214D01*
X166731904Y-77906071D02*
X165931904Y-78172738D01*
X166731904Y-78439404D01*
X166274761Y-78820357D02*
X166236666Y-78744166D01*
X166198571Y-78706071D01*
X166122380Y-78667976D01*
X166084285Y-78667976D01*
X166008095Y-78706071D01*
X165970000Y-78744166D01*
X165931904Y-78820357D01*
X165931904Y-78972738D01*
X165970000Y-79048928D01*
X166008095Y-79087023D01*
X166084285Y-79125119D01*
X166122380Y-79125119D01*
X166198571Y-79087023D01*
X166236666Y-79048928D01*
X166274761Y-78972738D01*
X166274761Y-78820357D01*
X166312857Y-78744166D01*
X166350952Y-78706071D01*
X166427142Y-78667976D01*
X166579523Y-78667976D01*
X166655714Y-78706071D01*
X166693809Y-78744166D01*
X166731904Y-78820357D01*
X166731904Y-78972738D01*
X166693809Y-79048928D01*
X166655714Y-79087023D01*
X166579523Y-79125119D01*
X166427142Y-79125119D01*
X166350952Y-79087023D01*
X166312857Y-79048928D01*
X166274761Y-78972738D01*
X168471904Y-77106071D02*
X169119523Y-77106071D01*
X169195714Y-77144166D01*
X169233809Y-77182261D01*
X169271904Y-77258452D01*
X169271904Y-77410833D01*
X169233809Y-77487023D01*
X169195714Y-77525119D01*
X169119523Y-77563214D01*
X168471904Y-77563214D01*
X169271904Y-78363214D02*
X169271904Y-77906071D01*
X169271904Y-78134642D02*
X168471904Y-78134642D01*
X168586190Y-78058452D01*
X168662380Y-77982261D01*
X168700476Y-77906071D01*
X168471904Y-78629880D02*
X168471904Y-79125119D01*
X168776666Y-78858452D01*
X168776666Y-78972738D01*
X168814761Y-79048928D01*
X168852857Y-79087023D01*
X168929047Y-79125119D01*
X169119523Y-79125119D01*
X169195714Y-79087023D01*
X169233809Y-79048928D01*
X169271904Y-78972738D01*
X169271904Y-78744166D01*
X169233809Y-78667976D01*
X169195714Y-78629880D01*
X171011904Y-77106071D02*
X171659523Y-77106071D01*
X171735714Y-77144166D01*
X171773809Y-77182261D01*
X171811904Y-77258452D01*
X171811904Y-77410833D01*
X171773809Y-77487023D01*
X171735714Y-77525119D01*
X171659523Y-77563214D01*
X171011904Y-77563214D01*
X171811904Y-78363214D02*
X171811904Y-77906071D01*
X171811904Y-78134642D02*
X171011904Y-78134642D01*
X171126190Y-78058452D01*
X171202380Y-77982261D01*
X171240476Y-77906071D01*
X171011904Y-79087023D02*
X171011904Y-78706071D01*
X171392857Y-78667976D01*
X171354761Y-78706071D01*
X171316666Y-78782261D01*
X171316666Y-78972738D01*
X171354761Y-79048928D01*
X171392857Y-79087023D01*
X171469047Y-79125119D01*
X171659523Y-79125119D01*
X171735714Y-79087023D01*
X171773809Y-79048928D01*
X171811904Y-78972738D01*
X171811904Y-78782261D01*
X171773809Y-78706071D01*
X171735714Y-78667976D01*
X173551904Y-76801309D02*
X173551904Y-77296547D01*
X173856666Y-77029880D01*
X173856666Y-77144166D01*
X173894761Y-77220357D01*
X173932857Y-77258452D01*
X174009047Y-77296547D01*
X174199523Y-77296547D01*
X174275714Y-77258452D01*
X174313809Y-77220357D01*
X174351904Y-77144166D01*
X174351904Y-76915595D01*
X174313809Y-76839404D01*
X174275714Y-76801309D01*
X174275714Y-77639404D02*
X174313809Y-77677500D01*
X174351904Y-77639404D01*
X174313809Y-77601309D01*
X174275714Y-77639404D01*
X174351904Y-77639404D01*
X173551904Y-77944166D02*
X173551904Y-78439404D01*
X173856666Y-78172738D01*
X173856666Y-78287023D01*
X173894761Y-78363214D01*
X173932857Y-78401309D01*
X174009047Y-78439404D01*
X174199523Y-78439404D01*
X174275714Y-78401309D01*
X174313809Y-78363214D01*
X174351904Y-78287023D01*
X174351904Y-78058452D01*
X174313809Y-77982261D01*
X174275714Y-77944166D01*
X173551904Y-78667976D02*
X174351904Y-78934642D01*
X173551904Y-79201309D01*
X176091904Y-78401309D02*
X176091904Y-78020357D01*
X176472857Y-77982261D01*
X176434761Y-78020357D01*
X176396666Y-78096547D01*
X176396666Y-78287023D01*
X176434761Y-78363214D01*
X176472857Y-78401309D01*
X176549047Y-78439404D01*
X176739523Y-78439404D01*
X176815714Y-78401309D01*
X176853809Y-78363214D01*
X176891904Y-78287023D01*
X176891904Y-78096547D01*
X176853809Y-78020357D01*
X176815714Y-77982261D01*
X176091904Y-78667976D02*
X176891904Y-78934642D01*
X176091904Y-79201309D01*
X176130000Y-86432023D02*
X176091904Y-86355833D01*
X176091904Y-86241547D01*
X176130000Y-86127261D01*
X176206190Y-86051071D01*
X176282380Y-86012976D01*
X176434761Y-85974880D01*
X176549047Y-85974880D01*
X176701428Y-86012976D01*
X176777619Y-86051071D01*
X176853809Y-86127261D01*
X176891904Y-86241547D01*
X176891904Y-86317738D01*
X176853809Y-86432023D01*
X176815714Y-86470119D01*
X176549047Y-86470119D01*
X176549047Y-86317738D01*
X176891904Y-86812976D02*
X176091904Y-86812976D01*
X176891904Y-87270119D01*
X176091904Y-87270119D01*
X176891904Y-87651071D02*
X176091904Y-87651071D01*
X176091904Y-87841547D01*
X176130000Y-87955833D01*
X176206190Y-88032023D01*
X176282380Y-88070119D01*
X176434761Y-88108214D01*
X176549047Y-88108214D01*
X176701428Y-88070119D01*
X176777619Y-88032023D01*
X176853809Y-87955833D01*
X176891904Y-87841547D01*
X176891904Y-87651071D01*
X173590000Y-86432023D02*
X173551904Y-86355833D01*
X173551904Y-86241547D01*
X173590000Y-86127261D01*
X173666190Y-86051071D01*
X173742380Y-86012976D01*
X173894761Y-85974880D01*
X174009047Y-85974880D01*
X174161428Y-86012976D01*
X174237619Y-86051071D01*
X174313809Y-86127261D01*
X174351904Y-86241547D01*
X174351904Y-86317738D01*
X174313809Y-86432023D01*
X174275714Y-86470119D01*
X174009047Y-86470119D01*
X174009047Y-86317738D01*
X174351904Y-86812976D02*
X173551904Y-86812976D01*
X174351904Y-87270119D01*
X173551904Y-87270119D01*
X174351904Y-87651071D02*
X173551904Y-87651071D01*
X173551904Y-87841547D01*
X173590000Y-87955833D01*
X173666190Y-88032023D01*
X173742380Y-88070119D01*
X173894761Y-88108214D01*
X174009047Y-88108214D01*
X174161428Y-88070119D01*
X174237619Y-88032023D01*
X174313809Y-87955833D01*
X174351904Y-87841547D01*
X174351904Y-87651071D01*
X171011904Y-86012976D02*
X171659523Y-86012976D01*
X171735714Y-86051071D01*
X171773809Y-86089166D01*
X171811904Y-86165357D01*
X171811904Y-86317738D01*
X171773809Y-86393928D01*
X171735714Y-86432023D01*
X171659523Y-86470119D01*
X171011904Y-86470119D01*
X171811904Y-87270119D02*
X171811904Y-86812976D01*
X171811904Y-87041547D02*
X171011904Y-87041547D01*
X171126190Y-86965357D01*
X171202380Y-86889166D01*
X171240476Y-86812976D01*
X171011904Y-87955833D02*
X171011904Y-87803452D01*
X171050000Y-87727261D01*
X171088095Y-87689166D01*
X171202380Y-87612976D01*
X171354761Y-87574880D01*
X171659523Y-87574880D01*
X171735714Y-87612976D01*
X171773809Y-87651071D01*
X171811904Y-87727261D01*
X171811904Y-87879642D01*
X171773809Y-87955833D01*
X171735714Y-87993928D01*
X171659523Y-88032023D01*
X171469047Y-88032023D01*
X171392857Y-87993928D01*
X171354761Y-87955833D01*
X171316666Y-87879642D01*
X171316666Y-87727261D01*
X171354761Y-87651071D01*
X171392857Y-87612976D01*
X171469047Y-87574880D01*
X168471904Y-86012976D02*
X169119523Y-86012976D01*
X169195714Y-86051071D01*
X169233809Y-86089166D01*
X169271904Y-86165357D01*
X169271904Y-86317738D01*
X169233809Y-86393928D01*
X169195714Y-86432023D01*
X169119523Y-86470119D01*
X168471904Y-86470119D01*
X169271904Y-87270119D02*
X169271904Y-86812976D01*
X169271904Y-87041547D02*
X168471904Y-87041547D01*
X168586190Y-86965357D01*
X168662380Y-86889166D01*
X168700476Y-86812976D01*
X168738571Y-87955833D02*
X169271904Y-87955833D01*
X168433809Y-87765357D02*
X169005238Y-87574880D01*
X169005238Y-88070119D01*
X166731904Y-86012976D02*
X165931904Y-86012976D01*
X165931904Y-86317738D01*
X165970000Y-86393928D01*
X166008095Y-86432023D01*
X166084285Y-86470119D01*
X166198571Y-86470119D01*
X166274761Y-86432023D01*
X166312857Y-86393928D01*
X166350952Y-86317738D01*
X166350952Y-86012976D01*
X166503333Y-86774880D02*
X166503333Y-87155833D01*
X166731904Y-86698690D02*
X165931904Y-86965357D01*
X166731904Y-87232023D01*
X166731904Y-87536785D02*
X166731904Y-87689166D01*
X166693809Y-87765357D01*
X166655714Y-87803452D01*
X166541428Y-87879642D01*
X166389047Y-87917738D01*
X166084285Y-87917738D01*
X166008095Y-87879642D01*
X165970000Y-87841547D01*
X165931904Y-87765357D01*
X165931904Y-87612976D01*
X165970000Y-87536785D01*
X166008095Y-87498690D01*
X166084285Y-87460595D01*
X166274761Y-87460595D01*
X166350952Y-87498690D01*
X166389047Y-87536785D01*
X166427142Y-87612976D01*
X166427142Y-87765357D01*
X166389047Y-87841547D01*
X166350952Y-87879642D01*
X166274761Y-87917738D01*
X164191904Y-86012976D02*
X163391904Y-86012976D01*
X163391904Y-86317738D01*
X163430000Y-86393928D01*
X163468095Y-86432023D01*
X163544285Y-86470119D01*
X163658571Y-86470119D01*
X163734761Y-86432023D01*
X163772857Y-86393928D01*
X163810952Y-86317738D01*
X163810952Y-86012976D01*
X163963333Y-86774880D02*
X163963333Y-87155833D01*
X164191904Y-86698690D02*
X163391904Y-86965357D01*
X164191904Y-87232023D01*
X164191904Y-87917738D02*
X164191904Y-87460595D01*
X164191904Y-87689166D02*
X163391904Y-87689166D01*
X163506190Y-87612976D01*
X163582380Y-87536785D01*
X163620476Y-87460595D01*
X164191904Y-88679642D02*
X164191904Y-88222500D01*
X164191904Y-88451071D02*
X163391904Y-88451071D01*
X163506190Y-88374880D01*
X163582380Y-88298690D01*
X163620476Y-88222500D01*
X161651904Y-86012976D02*
X160851904Y-86012976D01*
X160851904Y-86317738D01*
X160890000Y-86393928D01*
X160928095Y-86432023D01*
X161004285Y-86470119D01*
X161118571Y-86470119D01*
X161194761Y-86432023D01*
X161232857Y-86393928D01*
X161270952Y-86317738D01*
X161270952Y-86012976D01*
X161423333Y-86774880D02*
X161423333Y-87155833D01*
X161651904Y-86698690D02*
X160851904Y-86965357D01*
X161651904Y-87232023D01*
X161651904Y-87917738D02*
X161651904Y-87460595D01*
X161651904Y-87689166D02*
X160851904Y-87689166D01*
X160966190Y-87612976D01*
X161042380Y-87536785D01*
X161080476Y-87460595D01*
X160851904Y-88184404D02*
X160851904Y-88679642D01*
X161156666Y-88412976D01*
X161156666Y-88527261D01*
X161194761Y-88603452D01*
X161232857Y-88641547D01*
X161309047Y-88679642D01*
X161499523Y-88679642D01*
X161575714Y-88641547D01*
X161613809Y-88603452D01*
X161651904Y-88527261D01*
X161651904Y-88298690D01*
X161613809Y-88222500D01*
X161575714Y-88184404D01*
X159111904Y-86012976D02*
X158311904Y-86012976D01*
X158311904Y-86317738D01*
X158350000Y-86393928D01*
X158388095Y-86432023D01*
X158464285Y-86470119D01*
X158578571Y-86470119D01*
X158654761Y-86432023D01*
X158692857Y-86393928D01*
X158730952Y-86317738D01*
X158730952Y-86012976D01*
X158883333Y-86774880D02*
X158883333Y-87155833D01*
X159111904Y-86698690D02*
X158311904Y-86965357D01*
X159111904Y-87232023D01*
X159111904Y-87917738D02*
X159111904Y-87460595D01*
X159111904Y-87689166D02*
X158311904Y-87689166D01*
X158426190Y-87612976D01*
X158502380Y-87536785D01*
X158540476Y-87460595D01*
X158311904Y-88641547D02*
X158311904Y-88260595D01*
X158692857Y-88222500D01*
X158654761Y-88260595D01*
X158616666Y-88336785D01*
X158616666Y-88527261D01*
X158654761Y-88603452D01*
X158692857Y-88641547D01*
X158769047Y-88679642D01*
X158959523Y-88679642D01*
X159035714Y-88641547D01*
X159073809Y-88603452D01*
X159111904Y-88527261D01*
X159111904Y-88336785D01*
X159073809Y-88260595D01*
X159035714Y-88222500D01*
X155771904Y-86012976D02*
X156419523Y-86012976D01*
X156495714Y-86051071D01*
X156533809Y-86089166D01*
X156571904Y-86165357D01*
X156571904Y-86317738D01*
X156533809Y-86393928D01*
X156495714Y-86432023D01*
X156419523Y-86470119D01*
X155771904Y-86470119D01*
X156571904Y-87270119D02*
X156571904Y-86812976D01*
X156571904Y-87041547D02*
X155771904Y-87041547D01*
X155886190Y-86965357D01*
X155962380Y-86889166D01*
X156000476Y-86812976D01*
X155848095Y-87574880D02*
X155810000Y-87612976D01*
X155771904Y-87689166D01*
X155771904Y-87879642D01*
X155810000Y-87955833D01*
X155848095Y-87993928D01*
X155924285Y-88032023D01*
X156000476Y-88032023D01*
X156114761Y-87993928D01*
X156571904Y-87536785D01*
X156571904Y-88032023D01*
X154031904Y-86012976D02*
X153231904Y-86012976D01*
X153231904Y-86317738D01*
X153270000Y-86393928D01*
X153308095Y-86432023D01*
X153384285Y-86470119D01*
X153498571Y-86470119D01*
X153574761Y-86432023D01*
X153612857Y-86393928D01*
X153650952Y-86317738D01*
X153650952Y-86012976D01*
X153955714Y-87270119D02*
X153993809Y-87232023D01*
X154031904Y-87117738D01*
X154031904Y-87041547D01*
X153993809Y-86927261D01*
X153917619Y-86851071D01*
X153841428Y-86812976D01*
X153689047Y-86774880D01*
X153574761Y-86774880D01*
X153422380Y-86812976D01*
X153346190Y-86851071D01*
X153270000Y-86927261D01*
X153231904Y-87041547D01*
X153231904Y-87117738D01*
X153270000Y-87232023D01*
X153308095Y-87270119D01*
X154031904Y-88032023D02*
X154031904Y-87574880D01*
X154031904Y-87803452D02*
X153231904Y-87803452D01*
X153346190Y-87727261D01*
X153422380Y-87651071D01*
X153460476Y-87574880D01*
X154031904Y-88793928D02*
X154031904Y-88336785D01*
X154031904Y-88565357D02*
X153231904Y-88565357D01*
X153346190Y-88489166D01*
X153422380Y-88412976D01*
X153460476Y-88336785D01*
X150691904Y-86012976D02*
X151339523Y-86012976D01*
X151415714Y-86051071D01*
X151453809Y-86089166D01*
X151491904Y-86165357D01*
X151491904Y-86317738D01*
X151453809Y-86393928D01*
X151415714Y-86432023D01*
X151339523Y-86470119D01*
X150691904Y-86470119D01*
X151034761Y-86965357D02*
X150996666Y-86889166D01*
X150958571Y-86851071D01*
X150882380Y-86812976D01*
X150844285Y-86812976D01*
X150768095Y-86851071D01*
X150730000Y-86889166D01*
X150691904Y-86965357D01*
X150691904Y-87117738D01*
X150730000Y-87193928D01*
X150768095Y-87232023D01*
X150844285Y-87270119D01*
X150882380Y-87270119D01*
X150958571Y-87232023D01*
X150996666Y-87193928D01*
X151034761Y-87117738D01*
X151034761Y-86965357D01*
X151072857Y-86889166D01*
X151110952Y-86851071D01*
X151187142Y-86812976D01*
X151339523Y-86812976D01*
X151415714Y-86851071D01*
X151453809Y-86889166D01*
X151491904Y-86965357D01*
X151491904Y-87117738D01*
X151453809Y-87193928D01*
X151415714Y-87232023D01*
X151339523Y-87270119D01*
X151187142Y-87270119D01*
X151110952Y-87232023D01*
X151072857Y-87193928D01*
X151034761Y-87117738D01*
X148951904Y-86012976D02*
X148151904Y-86012976D01*
X148151904Y-86317738D01*
X148190000Y-86393928D01*
X148228095Y-86432023D01*
X148304285Y-86470119D01*
X148418571Y-86470119D01*
X148494761Y-86432023D01*
X148532857Y-86393928D01*
X148570952Y-86317738D01*
X148570952Y-86012976D01*
X148532857Y-87079642D02*
X148570952Y-87193928D01*
X148609047Y-87232023D01*
X148685238Y-87270119D01*
X148799523Y-87270119D01*
X148875714Y-87232023D01*
X148913809Y-87193928D01*
X148951904Y-87117738D01*
X148951904Y-86812976D01*
X148151904Y-86812976D01*
X148151904Y-87079642D01*
X148190000Y-87155833D01*
X148228095Y-87193928D01*
X148304285Y-87232023D01*
X148380476Y-87232023D01*
X148456666Y-87193928D01*
X148494761Y-87155833D01*
X148532857Y-87079642D01*
X148532857Y-86812976D01*
X148151904Y-87536785D02*
X148151904Y-88032023D01*
X148456666Y-87765357D01*
X148456666Y-87879642D01*
X148494761Y-87955833D01*
X148532857Y-87993928D01*
X148609047Y-88032023D01*
X148799523Y-88032023D01*
X148875714Y-87993928D01*
X148913809Y-87955833D01*
X148951904Y-87879642D01*
X148951904Y-87651071D01*
X148913809Y-87574880D01*
X148875714Y-87536785D01*
X146411904Y-86012976D02*
X145611904Y-86012976D01*
X145611904Y-86317738D01*
X145650000Y-86393928D01*
X145688095Y-86432023D01*
X145764285Y-86470119D01*
X145878571Y-86470119D01*
X145954761Y-86432023D01*
X145992857Y-86393928D01*
X146030952Y-86317738D01*
X146030952Y-86012976D01*
X145992857Y-87079642D02*
X146030952Y-87193928D01*
X146069047Y-87232023D01*
X146145238Y-87270119D01*
X146259523Y-87270119D01*
X146335714Y-87232023D01*
X146373809Y-87193928D01*
X146411904Y-87117738D01*
X146411904Y-86812976D01*
X145611904Y-86812976D01*
X145611904Y-87079642D01*
X145650000Y-87155833D01*
X145688095Y-87193928D01*
X145764285Y-87232023D01*
X145840476Y-87232023D01*
X145916666Y-87193928D01*
X145954761Y-87155833D01*
X145992857Y-87079642D01*
X145992857Y-86812976D01*
X145611904Y-87993928D02*
X145611904Y-87612976D01*
X145992857Y-87574880D01*
X145954761Y-87612976D01*
X145916666Y-87689166D01*
X145916666Y-87879642D01*
X145954761Y-87955833D01*
X145992857Y-87993928D01*
X146069047Y-88032023D01*
X146259523Y-88032023D01*
X146335714Y-87993928D01*
X146373809Y-87955833D01*
X146411904Y-87879642D01*
X146411904Y-87689166D01*
X146373809Y-87612976D01*
X146335714Y-87574880D01*
X143871904Y-86012976D02*
X143071904Y-86012976D01*
X143071904Y-86317738D01*
X143110000Y-86393928D01*
X143148095Y-86432023D01*
X143224285Y-86470119D01*
X143338571Y-86470119D01*
X143414761Y-86432023D01*
X143452857Y-86393928D01*
X143490952Y-86317738D01*
X143490952Y-86012976D01*
X143452857Y-87079642D02*
X143490952Y-87193928D01*
X143529047Y-87232023D01*
X143605238Y-87270119D01*
X143719523Y-87270119D01*
X143795714Y-87232023D01*
X143833809Y-87193928D01*
X143871904Y-87117738D01*
X143871904Y-86812976D01*
X143071904Y-86812976D01*
X143071904Y-87079642D01*
X143110000Y-87155833D01*
X143148095Y-87193928D01*
X143224285Y-87232023D01*
X143300476Y-87232023D01*
X143376666Y-87193928D01*
X143414761Y-87155833D01*
X143452857Y-87079642D01*
X143452857Y-86812976D01*
X143071904Y-87536785D02*
X143071904Y-88070119D01*
X143871904Y-87727261D01*
X141331904Y-86012976D02*
X140531904Y-86012976D01*
X140531904Y-86317738D01*
X140570000Y-86393928D01*
X140608095Y-86432023D01*
X140684285Y-86470119D01*
X140798571Y-86470119D01*
X140874761Y-86432023D01*
X140912857Y-86393928D01*
X140950952Y-86317738D01*
X140950952Y-86012976D01*
X140912857Y-87079642D02*
X140950952Y-87193928D01*
X140989047Y-87232023D01*
X141065238Y-87270119D01*
X141179523Y-87270119D01*
X141255714Y-87232023D01*
X141293809Y-87193928D01*
X141331904Y-87117738D01*
X141331904Y-86812976D01*
X140531904Y-86812976D01*
X140531904Y-87079642D01*
X140570000Y-87155833D01*
X140608095Y-87193928D01*
X140684285Y-87232023D01*
X140760476Y-87232023D01*
X140836666Y-87193928D01*
X140874761Y-87155833D01*
X140912857Y-87079642D01*
X140912857Y-86812976D01*
X141331904Y-87651071D02*
X141331904Y-87803452D01*
X141293809Y-87879642D01*
X141255714Y-87917738D01*
X141141428Y-87993928D01*
X140989047Y-88032023D01*
X140684285Y-88032023D01*
X140608095Y-87993928D01*
X140570000Y-87955833D01*
X140531904Y-87879642D01*
X140531904Y-87727261D01*
X140570000Y-87651071D01*
X140608095Y-87612976D01*
X140684285Y-87574880D01*
X140874761Y-87574880D01*
X140950952Y-87612976D01*
X140989047Y-87651071D01*
X141027142Y-87727261D01*
X141027142Y-87879642D01*
X140989047Y-87955833D01*
X140950952Y-87993928D01*
X140874761Y-88032023D01*
X137991904Y-86012976D02*
X138639523Y-86012976D01*
X138715714Y-86051071D01*
X138753809Y-86089166D01*
X138791904Y-86165357D01*
X138791904Y-86317738D01*
X138753809Y-86393928D01*
X138715714Y-86432023D01*
X138639523Y-86470119D01*
X137991904Y-86470119D01*
X138791904Y-87270119D02*
X138791904Y-86812976D01*
X138791904Y-87041547D02*
X137991904Y-87041547D01*
X138106190Y-86965357D01*
X138182380Y-86889166D01*
X138220476Y-86812976D01*
X137991904Y-87765357D02*
X137991904Y-87841547D01*
X138030000Y-87917738D01*
X138068095Y-87955833D01*
X138144285Y-87993928D01*
X138296666Y-88032023D01*
X138487142Y-88032023D01*
X138639523Y-87993928D01*
X138715714Y-87955833D01*
X138753809Y-87917738D01*
X138791904Y-87841547D01*
X138791904Y-87765357D01*
X138753809Y-87689166D01*
X138715714Y-87651071D01*
X138639523Y-87612976D01*
X138487142Y-87574880D01*
X138296666Y-87574880D01*
X138144285Y-87612976D01*
X138068095Y-87651071D01*
X138030000Y-87689166D01*
X137991904Y-87765357D01*
X136251904Y-86012976D02*
X135451904Y-86012976D01*
X135451904Y-86317738D01*
X135490000Y-86393928D01*
X135528095Y-86432023D01*
X135604285Y-86470119D01*
X135718571Y-86470119D01*
X135794761Y-86432023D01*
X135832857Y-86393928D01*
X135870952Y-86317738D01*
X135870952Y-86012976D01*
X136175714Y-87270119D02*
X136213809Y-87232023D01*
X136251904Y-87117738D01*
X136251904Y-87041547D01*
X136213809Y-86927261D01*
X136137619Y-86851071D01*
X136061428Y-86812976D01*
X135909047Y-86774880D01*
X135794761Y-86774880D01*
X135642380Y-86812976D01*
X135566190Y-86851071D01*
X135490000Y-86927261D01*
X135451904Y-87041547D01*
X135451904Y-87117738D01*
X135490000Y-87232023D01*
X135528095Y-87270119D01*
X136251904Y-88032023D02*
X136251904Y-87574880D01*
X136251904Y-87803452D02*
X135451904Y-87803452D01*
X135566190Y-87727261D01*
X135642380Y-87651071D01*
X135680476Y-87574880D01*
X135451904Y-88298690D02*
X135451904Y-88793928D01*
X135756666Y-88527261D01*
X135756666Y-88641547D01*
X135794761Y-88717738D01*
X135832857Y-88755833D01*
X135909047Y-88793928D01*
X136099523Y-88793928D01*
X136175714Y-88755833D01*
X136213809Y-88717738D01*
X136251904Y-88641547D01*
X136251904Y-88412976D01*
X136213809Y-88336785D01*
X136175714Y-88298690D01*
X133711904Y-86012976D02*
X132911904Y-86012976D01*
X132911904Y-86317738D01*
X132950000Y-86393928D01*
X132988095Y-86432023D01*
X133064285Y-86470119D01*
X133178571Y-86470119D01*
X133254761Y-86432023D01*
X133292857Y-86393928D01*
X133330952Y-86317738D01*
X133330952Y-86012976D01*
X133635714Y-87270119D02*
X133673809Y-87232023D01*
X133711904Y-87117738D01*
X133711904Y-87041547D01*
X133673809Y-86927261D01*
X133597619Y-86851071D01*
X133521428Y-86812976D01*
X133369047Y-86774880D01*
X133254761Y-86774880D01*
X133102380Y-86812976D01*
X133026190Y-86851071D01*
X132950000Y-86927261D01*
X132911904Y-87041547D01*
X132911904Y-87117738D01*
X132950000Y-87232023D01*
X132988095Y-87270119D01*
X133711904Y-88032023D02*
X133711904Y-87574880D01*
X133711904Y-87803452D02*
X132911904Y-87803452D01*
X133026190Y-87727261D01*
X133102380Y-87651071D01*
X133140476Y-87574880D01*
X132911904Y-88755833D02*
X132911904Y-88374880D01*
X133292857Y-88336785D01*
X133254761Y-88374880D01*
X133216666Y-88451071D01*
X133216666Y-88641547D01*
X133254761Y-88717738D01*
X133292857Y-88755833D01*
X133369047Y-88793928D01*
X133559523Y-88793928D01*
X133635714Y-88755833D01*
X133673809Y-88717738D01*
X133711904Y-88641547D01*
X133711904Y-88451071D01*
X133673809Y-88374880D01*
X133635714Y-88336785D01*
X130371904Y-86012976D02*
X131019523Y-86012976D01*
X131095714Y-86051071D01*
X131133809Y-86089166D01*
X131171904Y-86165357D01*
X131171904Y-86317738D01*
X131133809Y-86393928D01*
X131095714Y-86432023D01*
X131019523Y-86470119D01*
X130371904Y-86470119D01*
X130371904Y-87193928D02*
X130371904Y-87041547D01*
X130410000Y-86965357D01*
X130448095Y-86927261D01*
X130562380Y-86851071D01*
X130714761Y-86812976D01*
X131019523Y-86812976D01*
X131095714Y-86851071D01*
X131133809Y-86889166D01*
X131171904Y-86965357D01*
X131171904Y-87117738D01*
X131133809Y-87193928D01*
X131095714Y-87232023D01*
X131019523Y-87270119D01*
X130829047Y-87270119D01*
X130752857Y-87232023D01*
X130714761Y-87193928D01*
X130676666Y-87117738D01*
X130676666Y-86965357D01*
X130714761Y-86889166D01*
X130752857Y-86851071D01*
X130829047Y-86812976D01*
X127870000Y-86432023D02*
X127831904Y-86355833D01*
X127831904Y-86241547D01*
X127870000Y-86127261D01*
X127946190Y-86051071D01*
X128022380Y-86012976D01*
X128174761Y-85974880D01*
X128289047Y-85974880D01*
X128441428Y-86012976D01*
X128517619Y-86051071D01*
X128593809Y-86127261D01*
X128631904Y-86241547D01*
X128631904Y-86317738D01*
X128593809Y-86432023D01*
X128555714Y-86470119D01*
X128289047Y-86470119D01*
X128289047Y-86317738D01*
X128631904Y-86812976D02*
X127831904Y-86812976D01*
X128631904Y-87270119D01*
X127831904Y-87270119D01*
X128631904Y-87651071D02*
X127831904Y-87651071D01*
X127831904Y-87841547D01*
X127870000Y-87955833D01*
X127946190Y-88032023D01*
X128022380Y-88070119D01*
X128174761Y-88108214D01*
X128289047Y-88108214D01*
X128441428Y-88070119D01*
X128517619Y-88032023D01*
X128593809Y-87955833D01*
X128631904Y-87841547D01*
X128631904Y-87651071D01*
X116657380Y-83520595D02*
X115657380Y-83520595D01*
X116657380Y-83949166D02*
X116133571Y-83949166D01*
X116038333Y-83901547D01*
X115990714Y-83806309D01*
X115990714Y-83663452D01*
X116038333Y-83568214D01*
X116085952Y-83520595D01*
X115990714Y-84282500D02*
X115990714Y-84663452D01*
X115657380Y-84425357D02*
X116514523Y-84425357D01*
X116609761Y-84472976D01*
X116657380Y-84568214D01*
X116657380Y-84663452D01*
X115990714Y-84853928D02*
X115990714Y-85234880D01*
X115657380Y-84996785D02*
X116514523Y-84996785D01*
X116609761Y-85044404D01*
X116657380Y-85139642D01*
X116657380Y-85234880D01*
X115990714Y-85568214D02*
X116990714Y-85568214D01*
X116038333Y-85568214D02*
X115990714Y-85663452D01*
X115990714Y-85853928D01*
X116038333Y-85949166D01*
X116085952Y-85996785D01*
X116181190Y-86044404D01*
X116466904Y-86044404D01*
X116562142Y-85996785D01*
X116609761Y-85949166D01*
X116657380Y-85853928D01*
X116657380Y-85663452D01*
X116609761Y-85568214D01*
X116609761Y-86425357D02*
X116657380Y-86520595D01*
X116657380Y-86711071D01*
X116609761Y-86806309D01*
X116514523Y-86853928D01*
X116466904Y-86853928D01*
X116371666Y-86806309D01*
X116324047Y-86711071D01*
X116324047Y-86568214D01*
X116276428Y-86472976D01*
X116181190Y-86425357D01*
X116133571Y-86425357D01*
X116038333Y-86472976D01*
X115990714Y-86568214D01*
X115990714Y-86711071D01*
X116038333Y-86806309D01*
X116562142Y-87282500D02*
X116609761Y-87330119D01*
X116657380Y-87282500D01*
X116609761Y-87234880D01*
X116562142Y-87282500D01*
X116657380Y-87282500D01*
X116038333Y-87282500D02*
X116085952Y-87330119D01*
X116133571Y-87282500D01*
X116085952Y-87234880D01*
X116038333Y-87282500D01*
X116133571Y-87282500D01*
X115609761Y-88472976D02*
X116895476Y-87615833D01*
X115609761Y-89520595D02*
X116895476Y-88663452D01*
X116609761Y-89806309D02*
X116657380Y-89901547D01*
X116657380Y-90092023D01*
X116609761Y-90187261D01*
X116514523Y-90234880D01*
X116466904Y-90234880D01*
X116371666Y-90187261D01*
X116324047Y-90092023D01*
X116324047Y-89949166D01*
X116276428Y-89853928D01*
X116181190Y-89806309D01*
X116133571Y-89806309D01*
X116038333Y-89853928D01*
X115990714Y-89949166D01*
X115990714Y-90092023D01*
X116038333Y-90187261D01*
X115990714Y-90520595D02*
X115990714Y-90901547D01*
X115657380Y-90663452D02*
X116514523Y-90663452D01*
X116609761Y-90711071D01*
X116657380Y-90806309D01*
X116657380Y-90901547D01*
X116657380Y-91234880D02*
X115990714Y-91234880D01*
X116085952Y-91234880D02*
X116038333Y-91282500D01*
X115990714Y-91377738D01*
X115990714Y-91520595D01*
X116038333Y-91615833D01*
X116133571Y-91663452D01*
X116657380Y-91663452D01*
X116133571Y-91663452D02*
X116038333Y-91711071D01*
X115990714Y-91806309D01*
X115990714Y-91949166D01*
X116038333Y-92044404D01*
X116133571Y-92092023D01*
X116657380Y-92092023D01*
X115657380Y-92472976D02*
X115657380Y-93092023D01*
X116038333Y-92758690D01*
X116038333Y-92901547D01*
X116085952Y-92996785D01*
X116133571Y-93044404D01*
X116228809Y-93092023D01*
X116466904Y-93092023D01*
X116562142Y-93044404D01*
X116609761Y-92996785D01*
X116657380Y-92901547D01*
X116657380Y-92615833D01*
X116609761Y-92520595D01*
X116562142Y-92472976D01*
X115752619Y-93472976D02*
X115705000Y-93520595D01*
X115657380Y-93615833D01*
X115657380Y-93853928D01*
X115705000Y-93949166D01*
X115752619Y-93996785D01*
X115847857Y-94044404D01*
X115943095Y-94044404D01*
X116085952Y-93996785D01*
X116657380Y-93425357D01*
X116657380Y-94044404D01*
X115990714Y-94377738D02*
X116657380Y-94568214D01*
X116181190Y-94758690D01*
X116657380Y-94949166D01*
X115990714Y-95139642D01*
X116657380Y-95663452D02*
X116609761Y-95568214D01*
X116562142Y-95520595D01*
X116466904Y-95472976D01*
X116181190Y-95472976D01*
X116085952Y-95520595D01*
X116038333Y-95568214D01*
X115990714Y-95663452D01*
X115990714Y-95806309D01*
X116038333Y-95901547D01*
X116085952Y-95949166D01*
X116181190Y-95996785D01*
X116466904Y-95996785D01*
X116562142Y-95949166D01*
X116609761Y-95901547D01*
X116657380Y-95806309D01*
X116657380Y-95663452D01*
X116657380Y-96425357D02*
X115990714Y-96425357D01*
X116181190Y-96425357D02*
X116085952Y-96472976D01*
X116038333Y-96520595D01*
X115990714Y-96615833D01*
X115990714Y-96711071D01*
X116657380Y-97187261D02*
X116609761Y-97092023D01*
X116514523Y-97044404D01*
X115657380Y-97044404D01*
X116657380Y-97996785D02*
X115657380Y-97996785D01*
X116609761Y-97996785D02*
X116657380Y-97901547D01*
X116657380Y-97711071D01*
X116609761Y-97615833D01*
X116562142Y-97568214D01*
X116466904Y-97520595D01*
X116181190Y-97520595D01*
X116085952Y-97568214D01*
X116038333Y-97615833D01*
X115990714Y-97711071D01*
X115990714Y-97901547D01*
X116038333Y-97996785D01*
X116562142Y-98472976D02*
X116609761Y-98520595D01*
X116657380Y-98472976D01*
X116609761Y-98425357D01*
X116562142Y-98472976D01*
X116657380Y-98472976D01*
X116609761Y-99377738D02*
X116657380Y-99282500D01*
X116657380Y-99092023D01*
X116609761Y-98996785D01*
X116562142Y-98949166D01*
X116466904Y-98901547D01*
X116181190Y-98901547D01*
X116085952Y-98949166D01*
X116038333Y-98996785D01*
X115990714Y-99092023D01*
X115990714Y-99282500D01*
X116038333Y-99377738D01*
X116657380Y-99949166D02*
X116609761Y-99853928D01*
X116562142Y-99806309D01*
X116466904Y-99758690D01*
X116181190Y-99758690D01*
X116085952Y-99806309D01*
X116038333Y-99853928D01*
X115990714Y-99949166D01*
X115990714Y-100092023D01*
X116038333Y-100187261D01*
X116085952Y-100234880D01*
X116181190Y-100282500D01*
X116466904Y-100282500D01*
X116562142Y-100234880D01*
X116609761Y-100187261D01*
X116657380Y-100092023D01*
X116657380Y-99949166D01*
X116657380Y-100711071D02*
X115990714Y-100711071D01*
X116085952Y-100711071D02*
X116038333Y-100758690D01*
X115990714Y-100853928D01*
X115990714Y-100996785D01*
X116038333Y-101092023D01*
X116133571Y-101139642D01*
X116657380Y-101139642D01*
X116133571Y-101139642D02*
X116038333Y-101187261D01*
X115990714Y-101282500D01*
X115990714Y-101425357D01*
X116038333Y-101520595D01*
X116133571Y-101568214D01*
X116657380Y-101568214D01*
X115609761Y-102758690D02*
X116895476Y-101901547D01*
X115990714Y-102996785D02*
X116657380Y-103187261D01*
X116181190Y-103377738D01*
X116657380Y-103568214D01*
X115990714Y-103758690D01*
X116657380Y-104139642D02*
X115990714Y-104139642D01*
X115657380Y-104139642D02*
X115705000Y-104092023D01*
X115752619Y-104139642D01*
X115705000Y-104187261D01*
X115657380Y-104139642D01*
X115752619Y-104139642D01*
X116657380Y-104615833D02*
X115657380Y-104615833D01*
X116276428Y-104711071D02*
X116657380Y-104996785D01*
X115990714Y-104996785D02*
X116371666Y-104615833D01*
X116657380Y-105425357D02*
X115990714Y-105425357D01*
X115657380Y-105425357D02*
X115705000Y-105377738D01*
X115752619Y-105425357D01*
X115705000Y-105472976D01*
X115657380Y-105425357D01*
X115752619Y-105425357D01*
X115609761Y-106615833D02*
X116895476Y-105758690D01*
X116657380Y-106949166D02*
X115657380Y-106949166D01*
X115657380Y-107330119D01*
X115705000Y-107425357D01*
X115752619Y-107472976D01*
X115847857Y-107520595D01*
X115990714Y-107520595D01*
X116085952Y-107472976D01*
X116133571Y-107425357D01*
X116181190Y-107330119D01*
X116181190Y-106949166D01*
X116657380Y-108520595D02*
X116181190Y-108187261D01*
X116657380Y-107949166D02*
X115657380Y-107949166D01*
X115657380Y-108330119D01*
X115705000Y-108425357D01*
X115752619Y-108472976D01*
X115847857Y-108520595D01*
X115990714Y-108520595D01*
X116085952Y-108472976D01*
X116133571Y-108425357D01*
X116181190Y-108330119D01*
X116181190Y-107949166D01*
X115705000Y-109472976D02*
X115657380Y-109377738D01*
X115657380Y-109234880D01*
X115705000Y-109092023D01*
X115800238Y-108996785D01*
X115895476Y-108949166D01*
X116085952Y-108901547D01*
X116228809Y-108901547D01*
X116419285Y-108949166D01*
X116514523Y-108996785D01*
X116609761Y-109092023D01*
X116657380Y-109234880D01*
X116657380Y-109330119D01*
X116609761Y-109472976D01*
X116562142Y-109520595D01*
X116228809Y-109520595D01*
X116228809Y-109330119D01*
X116609761Y-109901547D02*
X116657380Y-110044404D01*
X116657380Y-110282500D01*
X116609761Y-110377738D01*
X116562142Y-110425357D01*
X116466904Y-110472976D01*
X116371666Y-110472976D01*
X116276428Y-110425357D01*
X116228809Y-110377738D01*
X116181190Y-110282500D01*
X116133571Y-110092023D01*
X116085952Y-109996785D01*
X116038333Y-109949166D01*
X115943095Y-109901547D01*
X115847857Y-109901547D01*
X115752619Y-109949166D01*
X115705000Y-109996785D01*
X115657380Y-110092023D01*
X115657380Y-110330119D01*
X115705000Y-110472976D01*
X115657380Y-110758690D02*
X115657380Y-111330119D01*
X116657380Y-111044404D02*
X115657380Y-111044404D01*
X116657380Y-112139642D02*
X116657380Y-111663452D01*
X115657380Y-111663452D01*
G04 #@! TD*
M02*
