G04 #@! TF.GenerationSoftware,KiCad,Pcbnew,5.1.9+dfsg1-1*
G04 #@! TF.CreationDate,2021-07-30T10:03:12+08:00*
G04 #@! TF.ProjectId,prgstl,70726773-746c-42e6-9b69-6361645f7063,a*
G04 #@! TF.SameCoordinates,Original*
G04 #@! TF.FileFunction,Soldermask,Bot*
G04 #@! TF.FilePolarity,Negative*
%FSLAX46Y46*%
G04 Gerber Fmt 4.6, Leading zero omitted, Abs format (unit mm)*
G04 Created by KiCad (PCBNEW 5.1.9+dfsg1-1) date 2021-07-30 10:03:12*
%MOMM*%
%LPD*%
G01*
G04 APERTURE LIST*
%ADD10R,1.700000X1.700000*%
%ADD11C,1.700000*%
%ADD12C,3.200000*%
%ADD13O,2.100000X1.000000*%
%ADD14C,0.650000*%
%ADD15O,1.600000X1.000000*%
G04 APERTURE END LIST*
D10*
G04 #@! TO.C,J2*
X128270000Y-121920000D03*
D11*
X128270000Y-119380000D03*
X130810000Y-121920000D03*
X130810000Y-119380000D03*
X133350000Y-121920000D03*
X133350000Y-119380000D03*
X135890000Y-121920000D03*
X135890000Y-119380000D03*
X138430000Y-121920000D03*
X138430000Y-119380000D03*
X140970000Y-121920000D03*
X140970000Y-119380000D03*
X143510000Y-121920000D03*
X143510000Y-119380000D03*
X146050000Y-121920000D03*
X146050000Y-119380000D03*
X148590000Y-121920000D03*
X148590000Y-119380000D03*
X151130000Y-121920000D03*
X151130000Y-119380000D03*
X153670000Y-121920000D03*
X153670000Y-119380000D03*
X156210000Y-121920000D03*
X156210000Y-119380000D03*
X158750000Y-121920000D03*
X158750000Y-119380000D03*
X161290000Y-121920000D03*
X161290000Y-119380000D03*
X163830000Y-121920000D03*
X163830000Y-119380000D03*
X166370000Y-121920000D03*
X166370000Y-119380000D03*
X168910000Y-121920000D03*
X168910000Y-119380000D03*
X171450000Y-121920000D03*
X171450000Y-119380000D03*
X173990000Y-121920000D03*
X173990000Y-119380000D03*
X176530000Y-121920000D03*
X176530000Y-119380000D03*
D10*
X176530000Y-81280000D03*
D11*
X176530000Y-83820000D03*
X173990000Y-81280000D03*
X173990000Y-83820000D03*
X171450000Y-81280000D03*
X171450000Y-83820000D03*
X168910000Y-81280000D03*
X168910000Y-83820000D03*
X166370000Y-81280000D03*
X166370000Y-83820000D03*
X163830000Y-81280000D03*
X163830000Y-83820000D03*
X161290000Y-81280000D03*
X161290000Y-83820000D03*
X158750000Y-81280000D03*
X158750000Y-83820000D03*
X156210000Y-81280000D03*
X156210000Y-83820000D03*
X153670000Y-81280000D03*
X153670000Y-83820000D03*
X151130000Y-81280000D03*
X151130000Y-83820000D03*
X148590000Y-81280000D03*
X148590000Y-83820000D03*
X146050000Y-81280000D03*
X146050000Y-83820000D03*
X143510000Y-81280000D03*
X143510000Y-83820000D03*
X140970000Y-81280000D03*
X140970000Y-83820000D03*
X138430000Y-81280000D03*
X138430000Y-83820000D03*
X135890000Y-81280000D03*
X135890000Y-83820000D03*
X133350000Y-81280000D03*
X133350000Y-83820000D03*
X130810000Y-81280000D03*
X130810000Y-83820000D03*
X128270000Y-81280000D03*
X128270000Y-83820000D03*
D12*
X118110000Y-123190000D03*
X186690000Y-123190000D03*
X186690000Y-80010000D03*
X118110000Y-80010000D03*
G04 #@! TD*
D13*
G04 #@! TO.C,J1*
X183560000Y-97280000D03*
X183560000Y-105920000D03*
D14*
X184090000Y-104490000D03*
D15*
X187740000Y-105920000D03*
D14*
X184090000Y-98710000D03*
D15*
X187740000Y-97280000D03*
G04 #@! TD*
M02*
