M48
; DRILL file {KiCad 9.0.2+dfsg-1} date 2025-06-14T15:38:49+0800
; FORMAT={-:-/ absolute / metric / decimal}
; #@! TF.CreationDate,2025-06-14T15:38:49+08:00
; #@! TF.GenerationSoftware,Kicad,Pcbnew,9.0.2+dfsg-1
; #@! TF.FileFunction,Plated,1,2,PTH
FMAT,2
METRIC
; #@! TA.AperFunction,Plated,PTH,ViaDrill
T1C0.350
; #@! TA.AperFunction,Plated,PTH,ComponentDrill
T2C1.000
%
G90
G05
T1
X139.7Y-90.17
X139.7Y-95.25
X139.7Y-99.695
X141.605Y-85.09
X143.51Y-85.725
X143.51Y-90.17
X143.51Y-95.25
X143.51Y-99.695
X144.12Y-80.089
X144.78Y-107.95
X144.78Y-111.125
X145.415Y-85.09
X146.05Y-111.125
X146.685Y-107.95
X147.32Y-85.725
X147.32Y-90.17
X147.32Y-95.25
X147.32Y-99.695
X147.32Y-111.125
X149.225Y-85.09
X149.86Y-111.125
X151.13Y-85.725
X151.13Y-90.17
X151.13Y-95.25
X151.13Y-99.695
X153.67Y-93.98
X160.655Y-92.075
X171.45Y-86.36
X171.45Y-89.535
X171.45Y-92.71
X171.45Y-98.425
X171.45Y-101.6
X171.45Y-104.775
X173.355Y-92.71
X173.355Y-99.06
X190.5Y-91.44
X190.5Y-92.71
X190.5Y-93.98
X190.5Y-96.52
X190.5Y-98.425
X190.5Y-99.695
T2
X134.62Y-74.93
X134.62Y-77.47
X134.62Y-113.03
X134.62Y-115.57
X137.16Y-74.93
X137.16Y-77.47
X137.16Y-113.03
X137.16Y-115.57
X139.7Y-74.93
X139.7Y-77.47
X139.7Y-113.03
X139.7Y-115.57
X142.24Y-74.93
X142.24Y-77.47
X142.24Y-113.03
X142.24Y-115.57
X144.78Y-74.93
X144.78Y-77.47
X144.78Y-113.03
X144.78Y-115.57
X147.32Y-74.93
X147.32Y-77.47
X147.32Y-113.03
X147.32Y-115.57
X149.86Y-74.93
X149.86Y-77.47
X149.86Y-113.03
X149.86Y-115.57
X152.4Y-74.93
X152.4Y-77.47
X152.4Y-113.03
X152.4Y-115.57
X154.94Y-74.93
X154.94Y-77.47
X154.94Y-113.03
X154.94Y-115.57
X157.48Y-74.93
X157.48Y-77.47
X157.48Y-113.03
X157.48Y-115.57
X160.02Y-74.93
X160.02Y-77.47
X160.02Y-113.03
X160.02Y-115.57
X162.56Y-74.93
X162.56Y-77.47
X162.56Y-113.03
X162.56Y-115.57
X165.1Y-74.93
X165.1Y-77.47
X165.1Y-113.03
X165.1Y-115.57
X167.64Y-74.93
X167.64Y-77.47
X167.64Y-113.03
X167.64Y-115.57
X170.18Y-74.93
X170.18Y-77.47
X170.18Y-113.03
X170.18Y-115.57
X172.72Y-74.93
X172.72Y-77.47
X172.72Y-113.03
X172.72Y-115.57
X175.26Y-74.93
X175.26Y-77.47
X175.26Y-113.03
X175.26Y-115.57
X177.8Y-74.93
X177.8Y-77.47
X177.8Y-113.03
X177.8Y-115.57
X180.34Y-74.93
X180.34Y-77.47
X180.34Y-113.03
X180.34Y-115.57
X182.88Y-74.93
X182.88Y-77.47
X182.88Y-113.03
X182.88Y-115.57
M30
