M48
; DRILL file {KiCad 6.0.4+dfsg-1+b1} date Wed 04 May 2022 11:52:01 +08
; FORMAT={-:-/ absolute / inch / decimal}
; #@! TF.CreationDate,2022-05-04T11:52:01+08:00
; #@! TF.GenerationSoftware,Kicad,Pcbnew,6.0.4+dfsg-1+b1
; #@! TF.FileFunction,Plated,1,2,PTH
FMAT,2
INCH
; #@! TA.AperFunction,Plated,PTH,ComponentDrill
T1C0.0118
; #@! TA.AperFunction,Plated,PTH,ComponentDrill
T2C0.0394
; #@! TA.AperFunction,Plated,PTH,ComponentDrill
T3C0.1260
%
G90
G05
T1
X5.2067Y-3.4567
X5.2067Y-3.5
X5.2067Y-3.5433
X5.25Y-3.4567
X5.25Y-3.5
X5.25Y-3.5433
X5.2933Y-3.4567
X5.2933Y-3.5
X5.2933Y-3.5433
T2
X4.3Y-2.7
X4.3Y-2.8
X4.3Y-4.2
X4.3Y-4.3
X4.4Y-2.7
X4.4Y-2.8
X4.4Y-4.2
X4.4Y-4.3
X4.5Y-2.7
X4.5Y-2.8
X4.5Y-4.2
X4.5Y-4.3
X4.6Y-2.7
X4.6Y-2.8
X4.6Y-4.2
X4.6Y-4.3
X4.7Y-2.7
X4.7Y-2.8
X4.7Y-4.2
X4.7Y-4.3
X4.8Y-2.7
X4.8Y-2.8
X4.8Y-4.2
X4.8Y-4.3
X4.9Y-2.7
X4.9Y-2.8
X4.9Y-4.2
X4.9Y-4.3
X5.0Y-2.7
X5.0Y-2.8
X5.0Y-4.2
X5.0Y-4.3
X5.1Y-2.7
X5.1Y-2.8
X5.1Y-4.2
X5.1Y-4.3
X5.2Y-2.7
X5.2Y-2.8
X5.2Y-4.2
X5.2Y-4.3
X5.3Y-2.7
X5.3Y-2.8
X5.3Y-4.2
X5.3Y-4.3
X5.4Y-2.7
X5.4Y-2.8
X5.4Y-4.2
X5.4Y-4.3
X5.5Y-2.7
X5.5Y-2.8
X5.5Y-4.2
X5.5Y-4.3
X5.6Y-2.7
X5.6Y-2.8
X5.6Y-4.2
X5.6Y-4.3
X5.7Y-2.7
X5.7Y-2.8
X5.7Y-4.2
X5.7Y-4.3
X5.8Y-2.7
X5.8Y-2.8
X5.8Y-4.2
X5.8Y-4.3
X5.9Y-2.7
X5.9Y-2.8
X5.9Y-4.2
X5.9Y-4.3
X6.0Y-2.7
X6.0Y-2.8
X6.0Y-4.2
X6.0Y-4.3
X6.1Y-2.7
X6.1Y-2.8
X6.1Y-4.2
X6.1Y-4.3
X6.2Y-2.7
X6.2Y-2.8
X6.2Y-4.2
X6.2Y-4.3
T3
X3.9Y-2.65
X3.9Y-4.35
X6.6Y-2.65
X6.6Y-4.35
T0
M30
