G04 #@! TF.GenerationSoftware,KiCad,Pcbnew,6.0.4+dfsg-1+b1*
G04 #@! TF.CreationDate,2022-05-04T11:51:56+08:00*
G04 #@! TF.ProjectId,test,74657374-2e6b-4696-9361-645f70636258,rev?*
G04 #@! TF.SameCoordinates,Original*
G04 #@! TF.FileFunction,Legend,Top*
G04 #@! TF.FilePolarity,Positive*
%FSLAX46Y46*%
G04 Gerber Fmt 4.6, Leading zero omitted, Abs format (unit mm)*
G04 Created by KiCad (PCBNEW 6.0.4+dfsg-1+b1) date 2022-05-04 11:51:56*
%MOMM*%
%LPD*%
G01*
G04 APERTURE LIST*
%ADD10C,0.150000*%
%ADD11C,0.120000*%
G04 APERTURE END LIST*
D10*
G04 #@! TO.C,U1*
X132588095Y-85402380D02*
X132588095Y-86211904D01*
X132635714Y-86307142D01*
X132683333Y-86354761D01*
X132778571Y-86402380D01*
X132969047Y-86402380D01*
X133064285Y-86354761D01*
X133111904Y-86307142D01*
X133159523Y-86211904D01*
X133159523Y-85402380D01*
X134159523Y-86402380D02*
X133588095Y-86402380D01*
X133873809Y-86402380D02*
X133873809Y-85402380D01*
X133778571Y-85545238D01*
X133683333Y-85640476D01*
X133588095Y-85688095D01*
G04 #@! TO.C,J1*
X149421904Y-112632023D02*
X150069523Y-112632023D01*
X150145714Y-112593928D01*
X150183809Y-112555833D01*
X150221904Y-112479642D01*
X150221904Y-112327261D01*
X150183809Y-112251071D01*
X150145714Y-112212976D01*
X150069523Y-112174880D01*
X149421904Y-112174880D01*
X150221904Y-111374880D02*
X150221904Y-111832023D01*
X150221904Y-111603452D02*
X149421904Y-111603452D01*
X149536190Y-111679642D01*
X149612380Y-111755833D01*
X149650476Y-111832023D01*
X149421904Y-105122023D02*
X150069523Y-105122023D01*
X150145714Y-105083928D01*
X150183809Y-105045833D01*
X150221904Y-104969642D01*
X150221904Y-104817261D01*
X150183809Y-104741071D01*
X150145714Y-104702976D01*
X150069523Y-104664880D01*
X149421904Y-104664880D01*
X149498095Y-104322023D02*
X149460000Y-104283928D01*
X149421904Y-104207738D01*
X149421904Y-104017261D01*
X149460000Y-103941071D01*
X149498095Y-103902976D01*
X149574285Y-103864880D01*
X149650476Y-103864880D01*
X149764761Y-103902976D01*
X150221904Y-104360119D01*
X150221904Y-103864880D01*
X129901904Y-113393928D02*
X129101904Y-113393928D01*
X129101904Y-113089166D01*
X129140000Y-113012976D01*
X129178095Y-112974880D01*
X129254285Y-112936785D01*
X129368571Y-112936785D01*
X129444761Y-112974880D01*
X129482857Y-113012976D01*
X129520952Y-113089166D01*
X129520952Y-113393928D01*
X129825714Y-112136785D02*
X129863809Y-112174880D01*
X129901904Y-112289166D01*
X129901904Y-112365357D01*
X129863809Y-112479642D01*
X129787619Y-112555833D01*
X129711428Y-112593928D01*
X129559047Y-112632023D01*
X129444761Y-112632023D01*
X129292380Y-112593928D01*
X129216190Y-112555833D01*
X129140000Y-112479642D01*
X129101904Y-112365357D01*
X129101904Y-112289166D01*
X129140000Y-112174880D01*
X129178095Y-112136785D01*
X129368571Y-111451071D02*
X129901904Y-111451071D01*
X129063809Y-111641547D02*
X129635238Y-111832023D01*
X129635238Y-111336785D01*
X117201904Y-66387023D02*
X116401904Y-66387023D01*
X116401904Y-66082261D01*
X116440000Y-66006071D01*
X116478095Y-65967976D01*
X116554285Y-65929880D01*
X116668571Y-65929880D01*
X116744761Y-65967976D01*
X116782857Y-66006071D01*
X116820952Y-66082261D01*
X116820952Y-66387023D01*
X117125714Y-65129880D02*
X117163809Y-65167976D01*
X117201904Y-65282261D01*
X117201904Y-65358452D01*
X117163809Y-65472738D01*
X117087619Y-65548928D01*
X117011428Y-65587023D01*
X116859047Y-65625119D01*
X116744761Y-65625119D01*
X116592380Y-65587023D01*
X116516190Y-65548928D01*
X116440000Y-65472738D01*
X116401904Y-65358452D01*
X116401904Y-65282261D01*
X116440000Y-65167976D01*
X116478095Y-65129880D01*
X117201904Y-64367976D02*
X117201904Y-64825119D01*
X117201904Y-64596547D02*
X116401904Y-64596547D01*
X116516190Y-64672738D01*
X116592380Y-64748928D01*
X116630476Y-64825119D01*
X116668571Y-63682261D02*
X117201904Y-63682261D01*
X116363809Y-63872738D02*
X116935238Y-64063214D01*
X116935238Y-63567976D01*
X147681904Y-75179642D02*
X146881904Y-75179642D01*
X146881904Y-74874880D01*
X146920000Y-74798690D01*
X146958095Y-74760595D01*
X147034285Y-74722500D01*
X147148571Y-74722500D01*
X147224761Y-74760595D01*
X147262857Y-74798690D01*
X147300952Y-74874880D01*
X147300952Y-75179642D01*
X147453333Y-74417738D02*
X147453333Y-74036785D01*
X147681904Y-74493928D02*
X146881904Y-74227261D01*
X147681904Y-73960595D01*
X147681904Y-73655833D02*
X147681904Y-73503452D01*
X147643809Y-73427261D01*
X147605714Y-73389166D01*
X147491428Y-73312976D01*
X147339047Y-73274880D01*
X147034285Y-73274880D01*
X146958095Y-73312976D01*
X146920000Y-73351071D01*
X146881904Y-73427261D01*
X146881904Y-73579642D01*
X146920000Y-73655833D01*
X146958095Y-73693928D01*
X147034285Y-73732023D01*
X147224761Y-73732023D01*
X147300952Y-73693928D01*
X147339047Y-73655833D01*
X147377142Y-73579642D01*
X147377142Y-73427261D01*
X147339047Y-73351071D01*
X147300952Y-73312976D01*
X147224761Y-73274880D01*
X134181904Y-105122023D02*
X134829523Y-105122023D01*
X134905714Y-105083928D01*
X134943809Y-105045833D01*
X134981904Y-104969642D01*
X134981904Y-104817261D01*
X134943809Y-104741071D01*
X134905714Y-104702976D01*
X134829523Y-104664880D01*
X134181904Y-104664880D01*
X134181904Y-104131547D02*
X134181904Y-104055357D01*
X134220000Y-103979166D01*
X134258095Y-103941071D01*
X134334285Y-103902976D01*
X134486666Y-103864880D01*
X134677142Y-103864880D01*
X134829523Y-103902976D01*
X134905714Y-103941071D01*
X134943809Y-103979166D01*
X134981904Y-104055357D01*
X134981904Y-104131547D01*
X134943809Y-104207738D01*
X134905714Y-104245833D01*
X134829523Y-104283928D01*
X134677142Y-104322023D01*
X134486666Y-104322023D01*
X134334285Y-104283928D01*
X134258095Y-104245833D01*
X134220000Y-104207738D01*
X134181904Y-104131547D01*
X132441904Y-113393928D02*
X131641904Y-113393928D01*
X131641904Y-113089166D01*
X131680000Y-113012976D01*
X131718095Y-112974880D01*
X131794285Y-112936785D01*
X131908571Y-112936785D01*
X131984761Y-112974880D01*
X132022857Y-113012976D01*
X132060952Y-113089166D01*
X132060952Y-113393928D01*
X132022857Y-112327261D02*
X132060952Y-112212976D01*
X132099047Y-112174880D01*
X132175238Y-112136785D01*
X132289523Y-112136785D01*
X132365714Y-112174880D01*
X132403809Y-112212976D01*
X132441904Y-112289166D01*
X132441904Y-112593928D01*
X131641904Y-112593928D01*
X131641904Y-112327261D01*
X131680000Y-112251071D01*
X131718095Y-112212976D01*
X131794285Y-112174880D01*
X131870476Y-112174880D01*
X131946666Y-112212976D01*
X131984761Y-112251071D01*
X132022857Y-112327261D01*
X132022857Y-112593928D01*
X131641904Y-111641547D02*
X131641904Y-111565357D01*
X131680000Y-111489166D01*
X131718095Y-111451071D01*
X131794285Y-111412976D01*
X131946666Y-111374880D01*
X132137142Y-111374880D01*
X132289523Y-111412976D01*
X132365714Y-111451071D01*
X132403809Y-111489166D01*
X132441904Y-111565357D01*
X132441904Y-111641547D01*
X132403809Y-111717738D01*
X132365714Y-111755833D01*
X132289523Y-111793928D01*
X132137142Y-111832023D01*
X131946666Y-111832023D01*
X131794285Y-111793928D01*
X131718095Y-111755833D01*
X131680000Y-111717738D01*
X131641904Y-111641547D01*
X140061904Y-114155833D02*
X139261904Y-114155833D01*
X139261904Y-113851071D01*
X139300000Y-113774880D01*
X139338095Y-113736785D01*
X139414285Y-113698690D01*
X139528571Y-113698690D01*
X139604761Y-113736785D01*
X139642857Y-113774880D01*
X139680952Y-113851071D01*
X139680952Y-114155833D01*
X139642857Y-113089166D02*
X139680952Y-112974880D01*
X139719047Y-112936785D01*
X139795238Y-112898690D01*
X139909523Y-112898690D01*
X139985714Y-112936785D01*
X140023809Y-112974880D01*
X140061904Y-113051071D01*
X140061904Y-113355833D01*
X139261904Y-113355833D01*
X139261904Y-113089166D01*
X139300000Y-113012976D01*
X139338095Y-112974880D01*
X139414285Y-112936785D01*
X139490476Y-112936785D01*
X139566666Y-112974880D01*
X139604761Y-113012976D01*
X139642857Y-113089166D01*
X139642857Y-113355833D01*
X140061904Y-112136785D02*
X140061904Y-112593928D01*
X140061904Y-112365357D02*
X139261904Y-112365357D01*
X139376190Y-112441547D01*
X139452380Y-112517738D01*
X139490476Y-112593928D01*
X139338095Y-111832023D02*
X139300000Y-111793928D01*
X139261904Y-111717738D01*
X139261904Y-111527261D01*
X139300000Y-111451071D01*
X139338095Y-111412976D01*
X139414285Y-111374880D01*
X139490476Y-111374880D01*
X139604761Y-111412976D01*
X140061904Y-111870119D01*
X140061904Y-111374880D01*
X134981904Y-113393928D02*
X134181904Y-113393928D01*
X134181904Y-113089166D01*
X134220000Y-113012976D01*
X134258095Y-112974880D01*
X134334285Y-112936785D01*
X134448571Y-112936785D01*
X134524761Y-112974880D01*
X134562857Y-113012976D01*
X134600952Y-113089166D01*
X134600952Y-113393928D01*
X134562857Y-112327261D02*
X134600952Y-112212976D01*
X134639047Y-112174880D01*
X134715238Y-112136785D01*
X134829523Y-112136785D01*
X134905714Y-112174880D01*
X134943809Y-112212976D01*
X134981904Y-112289166D01*
X134981904Y-112593928D01*
X134181904Y-112593928D01*
X134181904Y-112327261D01*
X134220000Y-112251071D01*
X134258095Y-112212976D01*
X134334285Y-112174880D01*
X134410476Y-112174880D01*
X134486666Y-112212976D01*
X134524761Y-112251071D01*
X134562857Y-112327261D01*
X134562857Y-112593928D01*
X134258095Y-111832023D02*
X134220000Y-111793928D01*
X134181904Y-111717738D01*
X134181904Y-111527261D01*
X134220000Y-111451071D01*
X134258095Y-111412976D01*
X134334285Y-111374880D01*
X134410476Y-111374880D01*
X134524761Y-111412976D01*
X134981904Y-111870119D01*
X134981904Y-111374880D01*
X147681904Y-105122023D02*
X146881904Y-105122023D01*
X146881904Y-104817261D01*
X146920000Y-104741071D01*
X146958095Y-104702976D01*
X147034285Y-104664880D01*
X147148571Y-104664880D01*
X147224761Y-104702976D01*
X147262857Y-104741071D01*
X147300952Y-104817261D01*
X147300952Y-105122023D01*
X147605714Y-103864880D02*
X147643809Y-103902976D01*
X147681904Y-104017261D01*
X147681904Y-104093452D01*
X147643809Y-104207738D01*
X147567619Y-104283928D01*
X147491428Y-104322023D01*
X147339047Y-104360119D01*
X147224761Y-104360119D01*
X147072380Y-104322023D01*
X146996190Y-104283928D01*
X146920000Y-104207738D01*
X146881904Y-104093452D01*
X146881904Y-104017261D01*
X146920000Y-103902976D01*
X146958095Y-103864880D01*
X147681904Y-103483928D02*
X147681904Y-103331547D01*
X147643809Y-103255357D01*
X147605714Y-103217261D01*
X147491428Y-103141071D01*
X147339047Y-103102976D01*
X147034285Y-103102976D01*
X146958095Y-103141071D01*
X146920000Y-103179166D01*
X146881904Y-103255357D01*
X146881904Y-103407738D01*
X146920000Y-103483928D01*
X146958095Y-103522023D01*
X147034285Y-103560119D01*
X147224761Y-103560119D01*
X147300952Y-103522023D01*
X147339047Y-103483928D01*
X147377142Y-103407738D01*
X147377142Y-103255357D01*
X147339047Y-103179166D01*
X147300952Y-103141071D01*
X147224761Y-103102976D01*
X127361904Y-66387023D02*
X126561904Y-66387023D01*
X126561904Y-66082261D01*
X126600000Y-66006071D01*
X126638095Y-65967976D01*
X126714285Y-65929880D01*
X126828571Y-65929880D01*
X126904761Y-65967976D01*
X126942857Y-66006071D01*
X126980952Y-66082261D01*
X126980952Y-66387023D01*
X126942857Y-65320357D02*
X126980952Y-65206071D01*
X127019047Y-65167976D01*
X127095238Y-65129880D01*
X127209523Y-65129880D01*
X127285714Y-65167976D01*
X127323809Y-65206071D01*
X127361904Y-65282261D01*
X127361904Y-65587023D01*
X126561904Y-65587023D01*
X126561904Y-65320357D01*
X126600000Y-65244166D01*
X126638095Y-65206071D01*
X126714285Y-65167976D01*
X126790476Y-65167976D01*
X126866666Y-65206071D01*
X126904761Y-65244166D01*
X126942857Y-65320357D01*
X126942857Y-65587023D01*
X126828571Y-64444166D02*
X127361904Y-64444166D01*
X126523809Y-64634642D02*
X127095238Y-64825119D01*
X127095238Y-64329880D01*
X119741904Y-113279642D02*
X118941904Y-113279642D01*
X118941904Y-112974880D01*
X118980000Y-112898690D01*
X119018095Y-112860595D01*
X119094285Y-112822500D01*
X119208571Y-112822500D01*
X119284761Y-112860595D01*
X119322857Y-112898690D01*
X119360952Y-112974880D01*
X119360952Y-113279642D01*
X119513333Y-112517738D02*
X119513333Y-112136785D01*
X119741904Y-112593928D02*
X118941904Y-112327261D01*
X119741904Y-112060595D01*
X118941904Y-111641547D02*
X118941904Y-111565357D01*
X118980000Y-111489166D01*
X119018095Y-111451071D01*
X119094285Y-111412976D01*
X119246666Y-111374880D01*
X119437142Y-111374880D01*
X119589523Y-111412976D01*
X119665714Y-111451071D01*
X119703809Y-111489166D01*
X119741904Y-111565357D01*
X119741904Y-111641547D01*
X119703809Y-111717738D01*
X119665714Y-111755833D01*
X119589523Y-111793928D01*
X119437142Y-111832023D01*
X119246666Y-111832023D01*
X119094285Y-111793928D01*
X119018095Y-111755833D01*
X118980000Y-111717738D01*
X118941904Y-111641547D01*
X149421904Y-75293928D02*
X150069523Y-75293928D01*
X150145714Y-75255833D01*
X150183809Y-75217738D01*
X150221904Y-75141547D01*
X150221904Y-74989166D01*
X150183809Y-74912976D01*
X150145714Y-74874880D01*
X150069523Y-74836785D01*
X149421904Y-74836785D01*
X150221904Y-74036785D02*
X150221904Y-74493928D01*
X150221904Y-74265357D02*
X149421904Y-74265357D01*
X149536190Y-74341547D01*
X149612380Y-74417738D01*
X149650476Y-74493928D01*
X149688571Y-73351071D02*
X150221904Y-73351071D01*
X149383809Y-73541547D02*
X149955238Y-73732023D01*
X149955238Y-73236785D01*
X140061904Y-75941547D02*
X139261904Y-75941547D01*
X139261904Y-75636785D01*
X139300000Y-75560595D01*
X139338095Y-75522500D01*
X139414285Y-75484404D01*
X139528571Y-75484404D01*
X139604761Y-75522500D01*
X139642857Y-75560595D01*
X139680952Y-75636785D01*
X139680952Y-75941547D01*
X139833333Y-75179642D02*
X139833333Y-74798690D01*
X140061904Y-75255833D02*
X139261904Y-74989166D01*
X140061904Y-74722500D01*
X140061904Y-74036785D02*
X140061904Y-74493928D01*
X140061904Y-74265357D02*
X139261904Y-74265357D01*
X139376190Y-74341547D01*
X139452380Y-74417738D01*
X139490476Y-74493928D01*
X139261904Y-73312976D02*
X139261904Y-73693928D01*
X139642857Y-73732023D01*
X139604761Y-73693928D01*
X139566666Y-73617738D01*
X139566666Y-73427261D01*
X139604761Y-73351071D01*
X139642857Y-73312976D01*
X139719047Y-73274880D01*
X139909523Y-73274880D01*
X139985714Y-73312976D01*
X140023809Y-73351071D01*
X140061904Y-73427261D01*
X140061904Y-73617738D01*
X140023809Y-73693928D01*
X139985714Y-73732023D01*
X154501904Y-113698690D02*
X154501904Y-113203452D01*
X154806666Y-113470119D01*
X154806666Y-113355833D01*
X154844761Y-113279642D01*
X154882857Y-113241547D01*
X154959047Y-113203452D01*
X155149523Y-113203452D01*
X155225714Y-113241547D01*
X155263809Y-113279642D01*
X155301904Y-113355833D01*
X155301904Y-113584404D01*
X155263809Y-113660595D01*
X155225714Y-113698690D01*
X155225714Y-112860595D02*
X155263809Y-112822500D01*
X155301904Y-112860595D01*
X155263809Y-112898690D01*
X155225714Y-112860595D01*
X155301904Y-112860595D01*
X154501904Y-112555833D02*
X154501904Y-112060595D01*
X154806666Y-112327261D01*
X154806666Y-112212976D01*
X154844761Y-112136785D01*
X154882857Y-112098690D01*
X154959047Y-112060595D01*
X155149523Y-112060595D01*
X155225714Y-112098690D01*
X155263809Y-112136785D01*
X155301904Y-112212976D01*
X155301904Y-112441547D01*
X155263809Y-112517738D01*
X155225714Y-112555833D01*
X154501904Y-111832023D02*
X155301904Y-111565357D01*
X154501904Y-111298690D01*
X131641904Y-74532023D02*
X132289523Y-74532023D01*
X132365714Y-74493928D01*
X132403809Y-74455833D01*
X132441904Y-74379642D01*
X132441904Y-74227261D01*
X132403809Y-74151071D01*
X132365714Y-74112976D01*
X132289523Y-74074880D01*
X131641904Y-74074880D01*
X131984761Y-73579642D02*
X131946666Y-73655833D01*
X131908571Y-73693928D01*
X131832380Y-73732023D01*
X131794285Y-73732023D01*
X131718095Y-73693928D01*
X131680000Y-73655833D01*
X131641904Y-73579642D01*
X131641904Y-73427261D01*
X131680000Y-73351071D01*
X131718095Y-73312976D01*
X131794285Y-73274880D01*
X131832380Y-73274880D01*
X131908571Y-73312976D01*
X131946666Y-73351071D01*
X131984761Y-73427261D01*
X131984761Y-73579642D01*
X132022857Y-73655833D01*
X132060952Y-73693928D01*
X132137142Y-73732023D01*
X132289523Y-73732023D01*
X132365714Y-73693928D01*
X132403809Y-73655833D01*
X132441904Y-73579642D01*
X132441904Y-73427261D01*
X132403809Y-73351071D01*
X132365714Y-73312976D01*
X132289523Y-73274880D01*
X132137142Y-73274880D01*
X132060952Y-73312976D01*
X132022857Y-73351071D01*
X131984761Y-73427261D01*
X157041904Y-112098690D02*
X157041904Y-112479642D01*
X157422857Y-112517738D01*
X157384761Y-112479642D01*
X157346666Y-112403452D01*
X157346666Y-112212976D01*
X157384761Y-112136785D01*
X157422857Y-112098690D01*
X157499047Y-112060595D01*
X157689523Y-112060595D01*
X157765714Y-112098690D01*
X157803809Y-112136785D01*
X157841904Y-112212976D01*
X157841904Y-112403452D01*
X157803809Y-112479642D01*
X157765714Y-112517738D01*
X157041904Y-111832023D02*
X157841904Y-111565357D01*
X157041904Y-111298690D01*
X127361904Y-75293928D02*
X126561904Y-75293928D01*
X126561904Y-74989166D01*
X126600000Y-74912976D01*
X126638095Y-74874880D01*
X126714285Y-74836785D01*
X126828571Y-74836785D01*
X126904761Y-74874880D01*
X126942857Y-74912976D01*
X126980952Y-74989166D01*
X126980952Y-75293928D01*
X126942857Y-74227261D02*
X126980952Y-74112976D01*
X127019047Y-74074880D01*
X127095238Y-74036785D01*
X127209523Y-74036785D01*
X127285714Y-74074880D01*
X127323809Y-74112976D01*
X127361904Y-74189166D01*
X127361904Y-74493928D01*
X126561904Y-74493928D01*
X126561904Y-74227261D01*
X126600000Y-74151071D01*
X126638095Y-74112976D01*
X126714285Y-74074880D01*
X126790476Y-74074880D01*
X126866666Y-74112976D01*
X126904761Y-74151071D01*
X126942857Y-74227261D01*
X126942857Y-74493928D01*
X126561904Y-73312976D02*
X126561904Y-73693928D01*
X126942857Y-73732023D01*
X126904761Y-73693928D01*
X126866666Y-73617738D01*
X126866666Y-73427261D01*
X126904761Y-73351071D01*
X126942857Y-73312976D01*
X127019047Y-73274880D01*
X127209523Y-73274880D01*
X127285714Y-73312976D01*
X127323809Y-73351071D01*
X127361904Y-73427261D01*
X127361904Y-73617738D01*
X127323809Y-73693928D01*
X127285714Y-73732023D01*
X114661904Y-113393928D02*
X113861904Y-113393928D01*
X113861904Y-113089166D01*
X113900000Y-113012976D01*
X113938095Y-112974880D01*
X114014285Y-112936785D01*
X114128571Y-112936785D01*
X114204761Y-112974880D01*
X114242857Y-113012976D01*
X114280952Y-113089166D01*
X114280952Y-113393928D01*
X114585714Y-112136785D02*
X114623809Y-112174880D01*
X114661904Y-112289166D01*
X114661904Y-112365357D01*
X114623809Y-112479642D01*
X114547619Y-112555833D01*
X114471428Y-112593928D01*
X114319047Y-112632023D01*
X114204761Y-112632023D01*
X114052380Y-112593928D01*
X113976190Y-112555833D01*
X113900000Y-112479642D01*
X113861904Y-112365357D01*
X113861904Y-112289166D01*
X113900000Y-112174880D01*
X113938095Y-112136785D01*
X113861904Y-111641547D02*
X113861904Y-111565357D01*
X113900000Y-111489166D01*
X113938095Y-111451071D01*
X114014285Y-111412976D01*
X114166666Y-111374880D01*
X114357142Y-111374880D01*
X114509523Y-111412976D01*
X114585714Y-111451071D01*
X114623809Y-111489166D01*
X114661904Y-111565357D01*
X114661904Y-111641547D01*
X114623809Y-111717738D01*
X114585714Y-111755833D01*
X114509523Y-111793928D01*
X114357142Y-111832023D01*
X114166666Y-111832023D01*
X114014285Y-111793928D01*
X113938095Y-111755833D01*
X113900000Y-111717738D01*
X113861904Y-111641547D01*
X118941904Y-75293928D02*
X119589523Y-75293928D01*
X119665714Y-75255833D01*
X119703809Y-75217738D01*
X119741904Y-75141547D01*
X119741904Y-74989166D01*
X119703809Y-74912976D01*
X119665714Y-74874880D01*
X119589523Y-74836785D01*
X118941904Y-74836785D01*
X119741904Y-74036785D02*
X119741904Y-74493928D01*
X119741904Y-74265357D02*
X118941904Y-74265357D01*
X119056190Y-74341547D01*
X119132380Y-74417738D01*
X119170476Y-74493928D01*
X118941904Y-73541547D02*
X118941904Y-73465357D01*
X118980000Y-73389166D01*
X119018095Y-73351071D01*
X119094285Y-73312976D01*
X119246666Y-73274880D01*
X119437142Y-73274880D01*
X119589523Y-73312976D01*
X119665714Y-73351071D01*
X119703809Y-73389166D01*
X119741904Y-73465357D01*
X119741904Y-73541547D01*
X119703809Y-73617738D01*
X119665714Y-73655833D01*
X119589523Y-73693928D01*
X119437142Y-73732023D01*
X119246666Y-73732023D01*
X119094285Y-73693928D01*
X119018095Y-73655833D01*
X118980000Y-73617738D01*
X118941904Y-73541547D01*
X113861904Y-66387023D02*
X114509523Y-66387023D01*
X114585714Y-66348928D01*
X114623809Y-66310833D01*
X114661904Y-66234642D01*
X114661904Y-66082261D01*
X114623809Y-66006071D01*
X114585714Y-65967976D01*
X114509523Y-65929880D01*
X113861904Y-65929880D01*
X113861904Y-65625119D02*
X113861904Y-65091785D01*
X114661904Y-65434642D01*
X151961904Y-112632023D02*
X152609523Y-112632023D01*
X152685714Y-112593928D01*
X152723809Y-112555833D01*
X152761904Y-112479642D01*
X152761904Y-112327261D01*
X152723809Y-112251071D01*
X152685714Y-112212976D01*
X152609523Y-112174880D01*
X151961904Y-112174880D01*
X151961904Y-111870119D02*
X151961904Y-111374880D01*
X152266666Y-111641547D01*
X152266666Y-111527261D01*
X152304761Y-111451071D01*
X152342857Y-111412976D01*
X152419047Y-111374880D01*
X152609523Y-111374880D01*
X152685714Y-111412976D01*
X152723809Y-111451071D01*
X152761904Y-111527261D01*
X152761904Y-111755833D01*
X152723809Y-111832023D01*
X152685714Y-111870119D01*
X124821904Y-105122023D02*
X124021904Y-105122023D01*
X124021904Y-104817261D01*
X124060000Y-104741071D01*
X124098095Y-104702976D01*
X124174285Y-104664880D01*
X124288571Y-104664880D01*
X124364761Y-104702976D01*
X124402857Y-104741071D01*
X124440952Y-104817261D01*
X124440952Y-105122023D01*
X124593333Y-104360119D02*
X124593333Y-103979166D01*
X124821904Y-104436309D02*
X124021904Y-104169642D01*
X124821904Y-103902976D01*
X124021904Y-103255357D02*
X124021904Y-103636309D01*
X124402857Y-103674404D01*
X124364761Y-103636309D01*
X124326666Y-103560119D01*
X124326666Y-103369642D01*
X124364761Y-103293452D01*
X124402857Y-103255357D01*
X124479047Y-103217261D01*
X124669523Y-103217261D01*
X124745714Y-103255357D01*
X124783809Y-103293452D01*
X124821904Y-103369642D01*
X124821904Y-103560119D01*
X124783809Y-103636309D01*
X124745714Y-103674404D01*
X129901904Y-105122023D02*
X129101904Y-105122023D01*
X129101904Y-104817261D01*
X129140000Y-104741071D01*
X129178095Y-104702976D01*
X129254285Y-104664880D01*
X129368571Y-104664880D01*
X129444761Y-104702976D01*
X129482857Y-104741071D01*
X129520952Y-104817261D01*
X129520952Y-105122023D01*
X129825714Y-103864880D02*
X129863809Y-103902976D01*
X129901904Y-104017261D01*
X129901904Y-104093452D01*
X129863809Y-104207738D01*
X129787619Y-104283928D01*
X129711428Y-104322023D01*
X129559047Y-104360119D01*
X129444761Y-104360119D01*
X129292380Y-104322023D01*
X129216190Y-104283928D01*
X129140000Y-104207738D01*
X129101904Y-104093452D01*
X129101904Y-104017261D01*
X129140000Y-103902976D01*
X129178095Y-103864880D01*
X129101904Y-103141071D02*
X129101904Y-103522023D01*
X129482857Y-103560119D01*
X129444761Y-103522023D01*
X129406666Y-103445833D01*
X129406666Y-103255357D01*
X129444761Y-103179166D01*
X129482857Y-103141071D01*
X129559047Y-103102976D01*
X129749523Y-103102976D01*
X129825714Y-103141071D01*
X129863809Y-103179166D01*
X129901904Y-103255357D01*
X129901904Y-103445833D01*
X129863809Y-103522023D01*
X129825714Y-103560119D01*
X145141904Y-75941547D02*
X144341904Y-75941547D01*
X144341904Y-75636785D01*
X144380000Y-75560595D01*
X144418095Y-75522500D01*
X144494285Y-75484404D01*
X144608571Y-75484404D01*
X144684761Y-75522500D01*
X144722857Y-75560595D01*
X144760952Y-75636785D01*
X144760952Y-75941547D01*
X144913333Y-75179642D02*
X144913333Y-74798690D01*
X145141904Y-75255833D02*
X144341904Y-74989166D01*
X145141904Y-74722500D01*
X145141904Y-74036785D02*
X145141904Y-74493928D01*
X145141904Y-74265357D02*
X144341904Y-74265357D01*
X144456190Y-74341547D01*
X144532380Y-74417738D01*
X144570476Y-74493928D01*
X145141904Y-73274880D02*
X145141904Y-73732023D01*
X145141904Y-73503452D02*
X144341904Y-73503452D01*
X144456190Y-73579642D01*
X144532380Y-73655833D01*
X144570476Y-73732023D01*
X124821904Y-66387023D02*
X124021904Y-66387023D01*
X124021904Y-66082261D01*
X124060000Y-66006071D01*
X124098095Y-65967976D01*
X124174285Y-65929880D01*
X124288571Y-65929880D01*
X124364761Y-65967976D01*
X124402857Y-66006071D01*
X124440952Y-66082261D01*
X124440952Y-66387023D01*
X124402857Y-65320357D02*
X124440952Y-65206071D01*
X124479047Y-65167976D01*
X124555238Y-65129880D01*
X124669523Y-65129880D01*
X124745714Y-65167976D01*
X124783809Y-65206071D01*
X124821904Y-65282261D01*
X124821904Y-65587023D01*
X124021904Y-65587023D01*
X124021904Y-65320357D01*
X124060000Y-65244166D01*
X124098095Y-65206071D01*
X124174285Y-65167976D01*
X124250476Y-65167976D01*
X124326666Y-65206071D01*
X124364761Y-65244166D01*
X124402857Y-65320357D01*
X124402857Y-65587023D01*
X124021904Y-64444166D02*
X124021904Y-64596547D01*
X124060000Y-64672738D01*
X124098095Y-64710833D01*
X124212380Y-64787023D01*
X124364761Y-64825119D01*
X124669523Y-64825119D01*
X124745714Y-64787023D01*
X124783809Y-64748928D01*
X124821904Y-64672738D01*
X124821904Y-64520357D01*
X124783809Y-64444166D01*
X124745714Y-64406071D01*
X124669523Y-64367976D01*
X124479047Y-64367976D01*
X124402857Y-64406071D01*
X124364761Y-64444166D01*
X124326666Y-64520357D01*
X124326666Y-64672738D01*
X124364761Y-64748928D01*
X124402857Y-64787023D01*
X124479047Y-64825119D01*
X157080000Y-74951071D02*
X157041904Y-75027261D01*
X157041904Y-75141547D01*
X157080000Y-75255833D01*
X157156190Y-75332023D01*
X157232380Y-75370119D01*
X157384761Y-75408214D01*
X157499047Y-75408214D01*
X157651428Y-75370119D01*
X157727619Y-75332023D01*
X157803809Y-75255833D01*
X157841904Y-75141547D01*
X157841904Y-75065357D01*
X157803809Y-74951071D01*
X157765714Y-74912976D01*
X157499047Y-74912976D01*
X157499047Y-75065357D01*
X157841904Y-74570119D02*
X157041904Y-74570119D01*
X157841904Y-74112976D01*
X157041904Y-74112976D01*
X157841904Y-73732023D02*
X157041904Y-73732023D01*
X157041904Y-73541547D01*
X157080000Y-73427261D01*
X157156190Y-73351071D01*
X157232380Y-73312976D01*
X157384761Y-73274880D01*
X157499047Y-73274880D01*
X157651428Y-73312976D01*
X157727619Y-73351071D01*
X157803809Y-73427261D01*
X157841904Y-73541547D01*
X157841904Y-73732023D01*
X127361904Y-105122023D02*
X126561904Y-105122023D01*
X126561904Y-104817261D01*
X126600000Y-104741071D01*
X126638095Y-104702976D01*
X126714285Y-104664880D01*
X126828571Y-104664880D01*
X126904761Y-104702976D01*
X126942857Y-104741071D01*
X126980952Y-104817261D01*
X126980952Y-105122023D01*
X127133333Y-104360119D02*
X127133333Y-103979166D01*
X127361904Y-104436309D02*
X126561904Y-104169642D01*
X127361904Y-103902976D01*
X126561904Y-103712500D02*
X126561904Y-103179166D01*
X127361904Y-103522023D01*
X124821904Y-75293928D02*
X124021904Y-75293928D01*
X124021904Y-74989166D01*
X124060000Y-74912976D01*
X124098095Y-74874880D01*
X124174285Y-74836785D01*
X124288571Y-74836785D01*
X124364761Y-74874880D01*
X124402857Y-74912976D01*
X124440952Y-74989166D01*
X124440952Y-75293928D01*
X124402857Y-74227261D02*
X124440952Y-74112976D01*
X124479047Y-74074880D01*
X124555238Y-74036785D01*
X124669523Y-74036785D01*
X124745714Y-74074880D01*
X124783809Y-74112976D01*
X124821904Y-74189166D01*
X124821904Y-74493928D01*
X124021904Y-74493928D01*
X124021904Y-74227261D01*
X124060000Y-74151071D01*
X124098095Y-74112976D01*
X124174285Y-74074880D01*
X124250476Y-74074880D01*
X124326666Y-74112976D01*
X124364761Y-74151071D01*
X124402857Y-74227261D01*
X124402857Y-74493928D01*
X124021904Y-73770119D02*
X124021904Y-73236785D01*
X124821904Y-73579642D01*
X151961904Y-105122023D02*
X152609523Y-105122023D01*
X152685714Y-105083928D01*
X152723809Y-105045833D01*
X152761904Y-104969642D01*
X152761904Y-104817261D01*
X152723809Y-104741071D01*
X152685714Y-104702976D01*
X152609523Y-104664880D01*
X151961904Y-104664880D01*
X152228571Y-103941071D02*
X152761904Y-103941071D01*
X151923809Y-104131547D02*
X152495238Y-104322023D01*
X152495238Y-103826785D01*
X136721904Y-75293928D02*
X137369523Y-75293928D01*
X137445714Y-75255833D01*
X137483809Y-75217738D01*
X137521904Y-75141547D01*
X137521904Y-74989166D01*
X137483809Y-74912976D01*
X137445714Y-74874880D01*
X137369523Y-74836785D01*
X136721904Y-74836785D01*
X137521904Y-74036785D02*
X137521904Y-74493928D01*
X137521904Y-74265357D02*
X136721904Y-74265357D01*
X136836190Y-74341547D01*
X136912380Y-74417738D01*
X136950476Y-74493928D01*
X136798095Y-73732023D02*
X136760000Y-73693928D01*
X136721904Y-73617738D01*
X136721904Y-73427261D01*
X136760000Y-73351071D01*
X136798095Y-73312976D01*
X136874285Y-73274880D01*
X136950476Y-73274880D01*
X137064761Y-73312976D01*
X137521904Y-73770119D01*
X137521904Y-73274880D01*
X147681904Y-113393928D02*
X146881904Y-113393928D01*
X146881904Y-113089166D01*
X146920000Y-113012976D01*
X146958095Y-112974880D01*
X147034285Y-112936785D01*
X147148571Y-112936785D01*
X147224761Y-112974880D01*
X147262857Y-113012976D01*
X147300952Y-113089166D01*
X147300952Y-113393928D01*
X147605714Y-112136785D02*
X147643809Y-112174880D01*
X147681904Y-112289166D01*
X147681904Y-112365357D01*
X147643809Y-112479642D01*
X147567619Y-112555833D01*
X147491428Y-112593928D01*
X147339047Y-112632023D01*
X147224761Y-112632023D01*
X147072380Y-112593928D01*
X146996190Y-112555833D01*
X146920000Y-112479642D01*
X146881904Y-112365357D01*
X146881904Y-112289166D01*
X146920000Y-112174880D01*
X146958095Y-112136785D01*
X147224761Y-111679642D02*
X147186666Y-111755833D01*
X147148571Y-111793928D01*
X147072380Y-111832023D01*
X147034285Y-111832023D01*
X146958095Y-111793928D01*
X146920000Y-111755833D01*
X146881904Y-111679642D01*
X146881904Y-111527261D01*
X146920000Y-111451071D01*
X146958095Y-111412976D01*
X147034285Y-111374880D01*
X147072380Y-111374880D01*
X147148571Y-111412976D01*
X147186666Y-111451071D01*
X147224761Y-111527261D01*
X147224761Y-111679642D01*
X147262857Y-111755833D01*
X147300952Y-111793928D01*
X147377142Y-111832023D01*
X147529523Y-111832023D01*
X147605714Y-111793928D01*
X147643809Y-111755833D01*
X147681904Y-111679642D01*
X147681904Y-111527261D01*
X147643809Y-111451071D01*
X147605714Y-111412976D01*
X147529523Y-111374880D01*
X147377142Y-111374880D01*
X147300952Y-111412976D01*
X147262857Y-111451071D01*
X147224761Y-111527261D01*
X111321904Y-74532023D02*
X111969523Y-74532023D01*
X112045714Y-74493928D01*
X112083809Y-74455833D01*
X112121904Y-74379642D01*
X112121904Y-74227261D01*
X112083809Y-74151071D01*
X112045714Y-74112976D01*
X111969523Y-74074880D01*
X111321904Y-74074880D01*
X111321904Y-73351071D02*
X111321904Y-73503452D01*
X111360000Y-73579642D01*
X111398095Y-73617738D01*
X111512380Y-73693928D01*
X111664761Y-73732023D01*
X111969523Y-73732023D01*
X112045714Y-73693928D01*
X112083809Y-73655833D01*
X112121904Y-73579642D01*
X112121904Y-73427261D01*
X112083809Y-73351071D01*
X112045714Y-73312976D01*
X111969523Y-73274880D01*
X111779047Y-73274880D01*
X111702857Y-73312976D01*
X111664761Y-73351071D01*
X111626666Y-73427261D01*
X111626666Y-73579642D01*
X111664761Y-73655833D01*
X111702857Y-73693928D01*
X111779047Y-73732023D01*
X137521904Y-105122023D02*
X136721904Y-105122023D01*
X136721904Y-104817261D01*
X136760000Y-104741071D01*
X136798095Y-104702976D01*
X136874285Y-104664880D01*
X136988571Y-104664880D01*
X137064761Y-104702976D01*
X137102857Y-104741071D01*
X137140952Y-104817261D01*
X137140952Y-105122023D01*
X137102857Y-104055357D02*
X137140952Y-103941071D01*
X137179047Y-103902976D01*
X137255238Y-103864880D01*
X137369523Y-103864880D01*
X137445714Y-103902976D01*
X137483809Y-103941071D01*
X137521904Y-104017261D01*
X137521904Y-104322023D01*
X136721904Y-104322023D01*
X136721904Y-104055357D01*
X136760000Y-103979166D01*
X136798095Y-103941071D01*
X136874285Y-103902976D01*
X136950476Y-103902976D01*
X137026666Y-103941071D01*
X137064761Y-103979166D01*
X137102857Y-104055357D01*
X137102857Y-104322023D01*
X137521904Y-103102976D02*
X137521904Y-103560119D01*
X137521904Y-103331547D02*
X136721904Y-103331547D01*
X136836190Y-103407738D01*
X136912380Y-103483928D01*
X136950476Y-103560119D01*
X137521904Y-102341071D02*
X137521904Y-102798214D01*
X137521904Y-102569642D02*
X136721904Y-102569642D01*
X136836190Y-102645833D01*
X136912380Y-102722023D01*
X136950476Y-102798214D01*
X108781904Y-66463214D02*
X108781904Y-65967976D01*
X109086666Y-66234642D01*
X109086666Y-66120357D01*
X109124761Y-66044166D01*
X109162857Y-66006071D01*
X109239047Y-65967976D01*
X109429523Y-65967976D01*
X109505714Y-66006071D01*
X109543809Y-66044166D01*
X109581904Y-66120357D01*
X109581904Y-66348928D01*
X109543809Y-66425119D01*
X109505714Y-66463214D01*
X109505714Y-65625119D02*
X109543809Y-65587023D01*
X109581904Y-65625119D01*
X109543809Y-65663214D01*
X109505714Y-65625119D01*
X109581904Y-65625119D01*
X108781904Y-65320357D02*
X108781904Y-64825119D01*
X109086666Y-65091785D01*
X109086666Y-64977500D01*
X109124761Y-64901309D01*
X109162857Y-64863214D01*
X109239047Y-64825119D01*
X109429523Y-64825119D01*
X109505714Y-64863214D01*
X109543809Y-64901309D01*
X109581904Y-64977500D01*
X109581904Y-65206071D01*
X109543809Y-65282261D01*
X109505714Y-65320357D01*
X108781904Y-64596547D02*
X109581904Y-64329880D01*
X108781904Y-64063214D01*
X111702857Y-113165357D02*
X111740952Y-113051071D01*
X111779047Y-113012976D01*
X111855238Y-112974880D01*
X111969523Y-112974880D01*
X112045714Y-113012976D01*
X112083809Y-113051071D01*
X112121904Y-113127261D01*
X112121904Y-113432023D01*
X111321904Y-113432023D01*
X111321904Y-113165357D01*
X111360000Y-113089166D01*
X111398095Y-113051071D01*
X111474285Y-113012976D01*
X111550476Y-113012976D01*
X111626666Y-113051071D01*
X111664761Y-113089166D01*
X111702857Y-113165357D01*
X111702857Y-113432023D01*
X111321904Y-112479642D02*
X111321904Y-112327261D01*
X111360000Y-112251071D01*
X111436190Y-112174880D01*
X111588571Y-112136785D01*
X111855238Y-112136785D01*
X112007619Y-112174880D01*
X112083809Y-112251071D01*
X112121904Y-112327261D01*
X112121904Y-112479642D01*
X112083809Y-112555833D01*
X112007619Y-112632023D01*
X111855238Y-112670119D01*
X111588571Y-112670119D01*
X111436190Y-112632023D01*
X111360000Y-112555833D01*
X111321904Y-112479642D01*
X111321904Y-111641547D02*
X111321904Y-111565357D01*
X111360000Y-111489166D01*
X111398095Y-111451071D01*
X111474285Y-111412976D01*
X111626666Y-111374880D01*
X111817142Y-111374880D01*
X111969523Y-111412976D01*
X112045714Y-111451071D01*
X112083809Y-111489166D01*
X112121904Y-111565357D01*
X112121904Y-111641547D01*
X112083809Y-111717738D01*
X112045714Y-111755833D01*
X111969523Y-111793928D01*
X111817142Y-111832023D01*
X111626666Y-111832023D01*
X111474285Y-111793928D01*
X111398095Y-111755833D01*
X111360000Y-111717738D01*
X111321904Y-111641547D01*
X129901904Y-66387023D02*
X129101904Y-66387023D01*
X129101904Y-66082261D01*
X129140000Y-66006071D01*
X129178095Y-65967976D01*
X129254285Y-65929880D01*
X129368571Y-65929880D01*
X129444761Y-65967976D01*
X129482857Y-66006071D01*
X129520952Y-66082261D01*
X129520952Y-66387023D01*
X129901904Y-65587023D02*
X129101904Y-65587023D01*
X129101904Y-65396547D01*
X129140000Y-65282261D01*
X129216190Y-65206071D01*
X129292380Y-65167976D01*
X129444761Y-65129880D01*
X129559047Y-65129880D01*
X129711428Y-65167976D01*
X129787619Y-65206071D01*
X129863809Y-65282261D01*
X129901904Y-65396547D01*
X129901904Y-65587023D01*
X129178095Y-64825119D02*
X129140000Y-64787023D01*
X129101904Y-64710833D01*
X129101904Y-64520357D01*
X129140000Y-64444166D01*
X129178095Y-64406071D01*
X129254285Y-64367976D01*
X129330476Y-64367976D01*
X129444761Y-64406071D01*
X129901904Y-64863214D01*
X129901904Y-64367976D01*
X122281904Y-113279642D02*
X121481904Y-113279642D01*
X121481904Y-112974880D01*
X121520000Y-112898690D01*
X121558095Y-112860595D01*
X121634285Y-112822500D01*
X121748571Y-112822500D01*
X121824761Y-112860595D01*
X121862857Y-112898690D01*
X121900952Y-112974880D01*
X121900952Y-113279642D01*
X122053333Y-112517738D02*
X122053333Y-112136785D01*
X122281904Y-112593928D02*
X121481904Y-112327261D01*
X122281904Y-112060595D01*
X121558095Y-111832023D02*
X121520000Y-111793928D01*
X121481904Y-111717738D01*
X121481904Y-111527261D01*
X121520000Y-111451071D01*
X121558095Y-111412976D01*
X121634285Y-111374880D01*
X121710476Y-111374880D01*
X121824761Y-111412976D01*
X122281904Y-111870119D01*
X122281904Y-111374880D01*
X151961904Y-66387023D02*
X152609523Y-66387023D01*
X152685714Y-66348928D01*
X152723809Y-66310833D01*
X152761904Y-66234642D01*
X152761904Y-66082261D01*
X152723809Y-66006071D01*
X152685714Y-65967976D01*
X152609523Y-65929880D01*
X151961904Y-65929880D01*
X152761904Y-65129880D02*
X152761904Y-65587023D01*
X152761904Y-65358452D02*
X151961904Y-65358452D01*
X152076190Y-65434642D01*
X152152380Y-65510833D01*
X152190476Y-65587023D01*
X151961904Y-64406071D02*
X151961904Y-64787023D01*
X152342857Y-64825119D01*
X152304761Y-64787023D01*
X152266666Y-64710833D01*
X152266666Y-64520357D01*
X152304761Y-64444166D01*
X152342857Y-64406071D01*
X152419047Y-64367976D01*
X152609523Y-64367976D01*
X152685714Y-64406071D01*
X152723809Y-64444166D01*
X152761904Y-64520357D01*
X152761904Y-64710833D01*
X152723809Y-64787023D01*
X152685714Y-64825119D01*
X140061904Y-66387023D02*
X139261904Y-66387023D01*
X139261904Y-66082261D01*
X139300000Y-66006071D01*
X139338095Y-65967976D01*
X139414285Y-65929880D01*
X139528571Y-65929880D01*
X139604761Y-65967976D01*
X139642857Y-66006071D01*
X139680952Y-66082261D01*
X139680952Y-66387023D01*
X139833333Y-65625119D02*
X139833333Y-65244166D01*
X140061904Y-65701309D02*
X139261904Y-65434642D01*
X140061904Y-65167976D01*
X140061904Y-64482261D02*
X140061904Y-64939404D01*
X140061904Y-64710833D02*
X139261904Y-64710833D01*
X139376190Y-64787023D01*
X139452380Y-64863214D01*
X139490476Y-64939404D01*
X139528571Y-63796547D02*
X140061904Y-63796547D01*
X139223809Y-63987023D02*
X139795238Y-64177500D01*
X139795238Y-63682261D01*
X117201904Y-113393928D02*
X116401904Y-113393928D01*
X116401904Y-113089166D01*
X116440000Y-113012976D01*
X116478095Y-112974880D01*
X116554285Y-112936785D01*
X116668571Y-112936785D01*
X116744761Y-112974880D01*
X116782857Y-113012976D01*
X116820952Y-113089166D01*
X116820952Y-113393928D01*
X117125714Y-112136785D02*
X117163809Y-112174880D01*
X117201904Y-112289166D01*
X117201904Y-112365357D01*
X117163809Y-112479642D01*
X117087619Y-112555833D01*
X117011428Y-112593928D01*
X116859047Y-112632023D01*
X116744761Y-112632023D01*
X116592380Y-112593928D01*
X116516190Y-112555833D01*
X116440000Y-112479642D01*
X116401904Y-112365357D01*
X116401904Y-112289166D01*
X116440000Y-112174880D01*
X116478095Y-112136785D01*
X116478095Y-111832023D02*
X116440000Y-111793928D01*
X116401904Y-111717738D01*
X116401904Y-111527261D01*
X116440000Y-111451071D01*
X116478095Y-111412976D01*
X116554285Y-111374880D01*
X116630476Y-111374880D01*
X116744761Y-111412976D01*
X117201904Y-111870119D01*
X117201904Y-111374880D01*
X134981904Y-66387023D02*
X134181904Y-66387023D01*
X134181904Y-66082261D01*
X134220000Y-66006071D01*
X134258095Y-65967976D01*
X134334285Y-65929880D01*
X134448571Y-65929880D01*
X134524761Y-65967976D01*
X134562857Y-66006071D01*
X134600952Y-66082261D01*
X134600952Y-66387023D01*
X134905714Y-65129880D02*
X134943809Y-65167976D01*
X134981904Y-65282261D01*
X134981904Y-65358452D01*
X134943809Y-65472738D01*
X134867619Y-65548928D01*
X134791428Y-65587023D01*
X134639047Y-65625119D01*
X134524761Y-65625119D01*
X134372380Y-65587023D01*
X134296190Y-65548928D01*
X134220000Y-65472738D01*
X134181904Y-65358452D01*
X134181904Y-65282261D01*
X134220000Y-65167976D01*
X134258095Y-65129880D01*
X134981904Y-64367976D02*
X134981904Y-64825119D01*
X134981904Y-64596547D02*
X134181904Y-64596547D01*
X134296190Y-64672738D01*
X134372380Y-64748928D01*
X134410476Y-64825119D01*
X134181904Y-63872738D02*
X134181904Y-63796547D01*
X134220000Y-63720357D01*
X134258095Y-63682261D01*
X134334285Y-63644166D01*
X134486666Y-63606071D01*
X134677142Y-63606071D01*
X134829523Y-63644166D01*
X134905714Y-63682261D01*
X134943809Y-63720357D01*
X134981904Y-63796547D01*
X134981904Y-63872738D01*
X134943809Y-63948928D01*
X134905714Y-63987023D01*
X134829523Y-64025119D01*
X134677142Y-64063214D01*
X134486666Y-64063214D01*
X134334285Y-64025119D01*
X134258095Y-63987023D01*
X134220000Y-63948928D01*
X134181904Y-63872738D01*
X118941904Y-66387023D02*
X119589523Y-66387023D01*
X119665714Y-66348928D01*
X119703809Y-66310833D01*
X119741904Y-66234642D01*
X119741904Y-66082261D01*
X119703809Y-66006071D01*
X119665714Y-65967976D01*
X119589523Y-65929880D01*
X118941904Y-65929880D01*
X119741904Y-65510833D02*
X119741904Y-65358452D01*
X119703809Y-65282261D01*
X119665714Y-65244166D01*
X119551428Y-65167976D01*
X119399047Y-65129880D01*
X119094285Y-65129880D01*
X119018095Y-65167976D01*
X118980000Y-65206071D01*
X118941904Y-65282261D01*
X118941904Y-65434642D01*
X118980000Y-65510833D01*
X119018095Y-65548928D01*
X119094285Y-65587023D01*
X119284761Y-65587023D01*
X119360952Y-65548928D01*
X119399047Y-65510833D01*
X119437142Y-65434642D01*
X119437142Y-65282261D01*
X119399047Y-65206071D01*
X119360952Y-65167976D01*
X119284761Y-65129880D01*
X145141904Y-105122023D02*
X144341904Y-105122023D01*
X144341904Y-104817261D01*
X144380000Y-104741071D01*
X144418095Y-104702976D01*
X144494285Y-104664880D01*
X144608571Y-104664880D01*
X144684761Y-104702976D01*
X144722857Y-104741071D01*
X144760952Y-104817261D01*
X144760952Y-105122023D01*
X145065714Y-103864880D02*
X145103809Y-103902976D01*
X145141904Y-104017261D01*
X145141904Y-104093452D01*
X145103809Y-104207738D01*
X145027619Y-104283928D01*
X144951428Y-104322023D01*
X144799047Y-104360119D01*
X144684761Y-104360119D01*
X144532380Y-104322023D01*
X144456190Y-104283928D01*
X144380000Y-104207738D01*
X144341904Y-104093452D01*
X144341904Y-104017261D01*
X144380000Y-103902976D01*
X144418095Y-103864880D01*
X144341904Y-103598214D02*
X144341904Y-103064880D01*
X145141904Y-103407738D01*
X142601904Y-75941547D02*
X141801904Y-75941547D01*
X141801904Y-75636785D01*
X141840000Y-75560595D01*
X141878095Y-75522500D01*
X141954285Y-75484404D01*
X142068571Y-75484404D01*
X142144761Y-75522500D01*
X142182857Y-75560595D01*
X142220952Y-75636785D01*
X142220952Y-75941547D01*
X142373333Y-75179642D02*
X142373333Y-74798690D01*
X142601904Y-75255833D02*
X141801904Y-74989166D01*
X142601904Y-74722500D01*
X142601904Y-74036785D02*
X142601904Y-74493928D01*
X142601904Y-74265357D02*
X141801904Y-74265357D01*
X141916190Y-74341547D01*
X141992380Y-74417738D01*
X142030476Y-74493928D01*
X141801904Y-73770119D02*
X141801904Y-73274880D01*
X142106666Y-73541547D01*
X142106666Y-73427261D01*
X142144761Y-73351071D01*
X142182857Y-73312976D01*
X142259047Y-73274880D01*
X142449523Y-73274880D01*
X142525714Y-73312976D01*
X142563809Y-73351071D01*
X142601904Y-73427261D01*
X142601904Y-73655833D01*
X142563809Y-73732023D01*
X142525714Y-73770119D01*
X122281904Y-75293928D02*
X121481904Y-75293928D01*
X121481904Y-74989166D01*
X121520000Y-74912976D01*
X121558095Y-74874880D01*
X121634285Y-74836785D01*
X121748571Y-74836785D01*
X121824761Y-74874880D01*
X121862857Y-74912976D01*
X121900952Y-74989166D01*
X121900952Y-75293928D01*
X121862857Y-74227261D02*
X121900952Y-74112976D01*
X121939047Y-74074880D01*
X122015238Y-74036785D01*
X122129523Y-74036785D01*
X122205714Y-74074880D01*
X122243809Y-74112976D01*
X122281904Y-74189166D01*
X122281904Y-74493928D01*
X121481904Y-74493928D01*
X121481904Y-74227261D01*
X121520000Y-74151071D01*
X121558095Y-74112976D01*
X121634285Y-74074880D01*
X121710476Y-74074880D01*
X121786666Y-74112976D01*
X121824761Y-74151071D01*
X121862857Y-74227261D01*
X121862857Y-74493928D01*
X122281904Y-73655833D02*
X122281904Y-73503452D01*
X122243809Y-73427261D01*
X122205714Y-73389166D01*
X122091428Y-73312976D01*
X121939047Y-73274880D01*
X121634285Y-73274880D01*
X121558095Y-73312976D01*
X121520000Y-73351071D01*
X121481904Y-73427261D01*
X121481904Y-73579642D01*
X121520000Y-73655833D01*
X121558095Y-73693928D01*
X121634285Y-73732023D01*
X121824761Y-73732023D01*
X121900952Y-73693928D01*
X121939047Y-73655833D01*
X121977142Y-73579642D01*
X121977142Y-73427261D01*
X121939047Y-73351071D01*
X121900952Y-73312976D01*
X121824761Y-73274880D01*
X127361904Y-113279642D02*
X126561904Y-113279642D01*
X126561904Y-112974880D01*
X126600000Y-112898690D01*
X126638095Y-112860595D01*
X126714285Y-112822500D01*
X126828571Y-112822500D01*
X126904761Y-112860595D01*
X126942857Y-112898690D01*
X126980952Y-112974880D01*
X126980952Y-113279642D01*
X127133333Y-112517738D02*
X127133333Y-112136785D01*
X127361904Y-112593928D02*
X126561904Y-112327261D01*
X127361904Y-112060595D01*
X126561904Y-111451071D02*
X126561904Y-111603452D01*
X126600000Y-111679642D01*
X126638095Y-111717738D01*
X126752380Y-111793928D01*
X126904761Y-111832023D01*
X127209523Y-111832023D01*
X127285714Y-111793928D01*
X127323809Y-111755833D01*
X127361904Y-111679642D01*
X127361904Y-111527261D01*
X127323809Y-111451071D01*
X127285714Y-111412976D01*
X127209523Y-111374880D01*
X127019047Y-111374880D01*
X126942857Y-111412976D01*
X126904761Y-111451071D01*
X126866666Y-111527261D01*
X126866666Y-111679642D01*
X126904761Y-111755833D01*
X126942857Y-111793928D01*
X127019047Y-111832023D01*
X149421904Y-66387023D02*
X150069523Y-66387023D01*
X150145714Y-66348928D01*
X150183809Y-66310833D01*
X150221904Y-66234642D01*
X150221904Y-66082261D01*
X150183809Y-66006071D01*
X150145714Y-65967976D01*
X150069523Y-65929880D01*
X149421904Y-65929880D01*
X150221904Y-65129880D02*
X150221904Y-65587023D01*
X150221904Y-65358452D02*
X149421904Y-65358452D01*
X149536190Y-65434642D01*
X149612380Y-65510833D01*
X149650476Y-65587023D01*
X149421904Y-64863214D02*
X149421904Y-64367976D01*
X149726666Y-64634642D01*
X149726666Y-64520357D01*
X149764761Y-64444166D01*
X149802857Y-64406071D01*
X149879047Y-64367976D01*
X150069523Y-64367976D01*
X150145714Y-64406071D01*
X150183809Y-64444166D01*
X150221904Y-64520357D01*
X150221904Y-64748928D01*
X150183809Y-64825119D01*
X150145714Y-64863214D01*
X129901904Y-75293928D02*
X129101904Y-75293928D01*
X129101904Y-74989166D01*
X129140000Y-74912976D01*
X129178095Y-74874880D01*
X129254285Y-74836785D01*
X129368571Y-74836785D01*
X129444761Y-74874880D01*
X129482857Y-74912976D01*
X129520952Y-74989166D01*
X129520952Y-75293928D01*
X129482857Y-74227261D02*
X129520952Y-74112976D01*
X129559047Y-74074880D01*
X129635238Y-74036785D01*
X129749523Y-74036785D01*
X129825714Y-74074880D01*
X129863809Y-74112976D01*
X129901904Y-74189166D01*
X129901904Y-74493928D01*
X129101904Y-74493928D01*
X129101904Y-74227261D01*
X129140000Y-74151071D01*
X129178095Y-74112976D01*
X129254285Y-74074880D01*
X129330476Y-74074880D01*
X129406666Y-74112976D01*
X129444761Y-74151071D01*
X129482857Y-74227261D01*
X129482857Y-74493928D01*
X129101904Y-73770119D02*
X129101904Y-73274880D01*
X129406666Y-73541547D01*
X129406666Y-73427261D01*
X129444761Y-73351071D01*
X129482857Y-73312976D01*
X129559047Y-73274880D01*
X129749523Y-73274880D01*
X129825714Y-73312976D01*
X129863809Y-73351071D01*
X129901904Y-73427261D01*
X129901904Y-73655833D01*
X129863809Y-73732023D01*
X129825714Y-73770119D01*
X124821904Y-113279642D02*
X124021904Y-113279642D01*
X124021904Y-112974880D01*
X124060000Y-112898690D01*
X124098095Y-112860595D01*
X124174285Y-112822500D01*
X124288571Y-112822500D01*
X124364761Y-112860595D01*
X124402857Y-112898690D01*
X124440952Y-112974880D01*
X124440952Y-113279642D01*
X124593333Y-112517738D02*
X124593333Y-112136785D01*
X124821904Y-112593928D02*
X124021904Y-112327261D01*
X124821904Y-112060595D01*
X124288571Y-111451071D02*
X124821904Y-111451071D01*
X123983809Y-111641547D02*
X124555238Y-111832023D01*
X124555238Y-111336785D01*
X114661904Y-76055833D02*
X113861904Y-76055833D01*
X113861904Y-75751071D01*
X113900000Y-75674880D01*
X113938095Y-75636785D01*
X114014285Y-75598690D01*
X114128571Y-75598690D01*
X114204761Y-75636785D01*
X114242857Y-75674880D01*
X114280952Y-75751071D01*
X114280952Y-76055833D01*
X114585714Y-74798690D02*
X114623809Y-74836785D01*
X114661904Y-74951071D01*
X114661904Y-75027261D01*
X114623809Y-75141547D01*
X114547619Y-75217738D01*
X114471428Y-75255833D01*
X114319047Y-75293928D01*
X114204761Y-75293928D01*
X114052380Y-75255833D01*
X113976190Y-75217738D01*
X113900000Y-75141547D01*
X113861904Y-75027261D01*
X113861904Y-74951071D01*
X113900000Y-74836785D01*
X113938095Y-74798690D01*
X114661904Y-74036785D02*
X114661904Y-74493928D01*
X114661904Y-74265357D02*
X113861904Y-74265357D01*
X113976190Y-74341547D01*
X114052380Y-74417738D01*
X114090476Y-74493928D01*
X113861904Y-73312976D02*
X113861904Y-73693928D01*
X114242857Y-73732023D01*
X114204761Y-73693928D01*
X114166666Y-73617738D01*
X114166666Y-73427261D01*
X114204761Y-73351071D01*
X114242857Y-73312976D01*
X114319047Y-73274880D01*
X114509523Y-73274880D01*
X114585714Y-73312976D01*
X114623809Y-73351071D01*
X114661904Y-73427261D01*
X114661904Y-73617738D01*
X114623809Y-73693928D01*
X114585714Y-73732023D01*
X142601904Y-114155833D02*
X141801904Y-114155833D01*
X141801904Y-113851071D01*
X141840000Y-113774880D01*
X141878095Y-113736785D01*
X141954285Y-113698690D01*
X142068571Y-113698690D01*
X142144761Y-113736785D01*
X142182857Y-113774880D01*
X142220952Y-113851071D01*
X142220952Y-114155833D01*
X142182857Y-113089166D02*
X142220952Y-112974880D01*
X142259047Y-112936785D01*
X142335238Y-112898690D01*
X142449523Y-112898690D01*
X142525714Y-112936785D01*
X142563809Y-112974880D01*
X142601904Y-113051071D01*
X142601904Y-113355833D01*
X141801904Y-113355833D01*
X141801904Y-113089166D01*
X141840000Y-113012976D01*
X141878095Y-112974880D01*
X141954285Y-112936785D01*
X142030476Y-112936785D01*
X142106666Y-112974880D01*
X142144761Y-113012976D01*
X142182857Y-113089166D01*
X142182857Y-113355833D01*
X142601904Y-112136785D02*
X142601904Y-112593928D01*
X142601904Y-112365357D02*
X141801904Y-112365357D01*
X141916190Y-112441547D01*
X141992380Y-112517738D01*
X142030476Y-112593928D01*
X142068571Y-111451071D02*
X142601904Y-111451071D01*
X141763809Y-111641547D02*
X142335238Y-111832023D01*
X142335238Y-111336785D01*
X140061904Y-105122023D02*
X139261904Y-105122023D01*
X139261904Y-104817261D01*
X139300000Y-104741071D01*
X139338095Y-104702976D01*
X139414285Y-104664880D01*
X139528571Y-104664880D01*
X139604761Y-104702976D01*
X139642857Y-104741071D01*
X139680952Y-104817261D01*
X139680952Y-105122023D01*
X139642857Y-104055357D02*
X139680952Y-103941071D01*
X139719047Y-103902976D01*
X139795238Y-103864880D01*
X139909523Y-103864880D01*
X139985714Y-103902976D01*
X140023809Y-103941071D01*
X140061904Y-104017261D01*
X140061904Y-104322023D01*
X139261904Y-104322023D01*
X139261904Y-104055357D01*
X139300000Y-103979166D01*
X139338095Y-103941071D01*
X139414285Y-103902976D01*
X139490476Y-103902976D01*
X139566666Y-103941071D01*
X139604761Y-103979166D01*
X139642857Y-104055357D01*
X139642857Y-104322023D01*
X140061904Y-103102976D02*
X140061904Y-103560119D01*
X140061904Y-103331547D02*
X139261904Y-103331547D01*
X139376190Y-103407738D01*
X139452380Y-103483928D01*
X139490476Y-103560119D01*
X139261904Y-102836309D02*
X139261904Y-102341071D01*
X139566666Y-102607738D01*
X139566666Y-102493452D01*
X139604761Y-102417261D01*
X139642857Y-102379166D01*
X139719047Y-102341071D01*
X139909523Y-102341071D01*
X139985714Y-102379166D01*
X140023809Y-102417261D01*
X140061904Y-102493452D01*
X140061904Y-102722023D01*
X140023809Y-102798214D01*
X139985714Y-102836309D01*
X136721904Y-66387023D02*
X137369523Y-66387023D01*
X137445714Y-66348928D01*
X137483809Y-66310833D01*
X137521904Y-66234642D01*
X137521904Y-66082261D01*
X137483809Y-66006071D01*
X137445714Y-65967976D01*
X137369523Y-65929880D01*
X136721904Y-65929880D01*
X137521904Y-65129880D02*
X137521904Y-65587023D01*
X137521904Y-65358452D02*
X136721904Y-65358452D01*
X136836190Y-65434642D01*
X136912380Y-65510833D01*
X136950476Y-65587023D01*
X137521904Y-64367976D02*
X137521904Y-64825119D01*
X137521904Y-64596547D02*
X136721904Y-64596547D01*
X136836190Y-64672738D01*
X136912380Y-64748928D01*
X136950476Y-64825119D01*
X147681904Y-66387023D02*
X146881904Y-66387023D01*
X146881904Y-66082261D01*
X146920000Y-66006071D01*
X146958095Y-65967976D01*
X147034285Y-65929880D01*
X147148571Y-65929880D01*
X147224761Y-65967976D01*
X147262857Y-66006071D01*
X147300952Y-66082261D01*
X147300952Y-66387023D01*
X147453333Y-65625119D02*
X147453333Y-65244166D01*
X147681904Y-65701309D02*
X146881904Y-65434642D01*
X147681904Y-65167976D01*
X147224761Y-64787023D02*
X147186666Y-64863214D01*
X147148571Y-64901309D01*
X147072380Y-64939404D01*
X147034285Y-64939404D01*
X146958095Y-64901309D01*
X146920000Y-64863214D01*
X146881904Y-64787023D01*
X146881904Y-64634642D01*
X146920000Y-64558452D01*
X146958095Y-64520357D01*
X147034285Y-64482261D01*
X147072380Y-64482261D01*
X147148571Y-64520357D01*
X147186666Y-64558452D01*
X147224761Y-64634642D01*
X147224761Y-64787023D01*
X147262857Y-64863214D01*
X147300952Y-64901309D01*
X147377142Y-64939404D01*
X147529523Y-64939404D01*
X147605714Y-64901309D01*
X147643809Y-64863214D01*
X147681904Y-64787023D01*
X147681904Y-64634642D01*
X147643809Y-64558452D01*
X147605714Y-64520357D01*
X147529523Y-64482261D01*
X147377142Y-64482261D01*
X147300952Y-64520357D01*
X147262857Y-64558452D01*
X147224761Y-64634642D01*
X117201904Y-76055833D02*
X116401904Y-76055833D01*
X116401904Y-75751071D01*
X116440000Y-75674880D01*
X116478095Y-75636785D01*
X116554285Y-75598690D01*
X116668571Y-75598690D01*
X116744761Y-75636785D01*
X116782857Y-75674880D01*
X116820952Y-75751071D01*
X116820952Y-76055833D01*
X117125714Y-74798690D02*
X117163809Y-74836785D01*
X117201904Y-74951071D01*
X117201904Y-75027261D01*
X117163809Y-75141547D01*
X117087619Y-75217738D01*
X117011428Y-75255833D01*
X116859047Y-75293928D01*
X116744761Y-75293928D01*
X116592380Y-75255833D01*
X116516190Y-75217738D01*
X116440000Y-75141547D01*
X116401904Y-75027261D01*
X116401904Y-74951071D01*
X116440000Y-74836785D01*
X116478095Y-74798690D01*
X117201904Y-74036785D02*
X117201904Y-74493928D01*
X117201904Y-74265357D02*
X116401904Y-74265357D01*
X116516190Y-74341547D01*
X116592380Y-74417738D01*
X116630476Y-74493928D01*
X116401904Y-73770119D02*
X116401904Y-73274880D01*
X116706666Y-73541547D01*
X116706666Y-73427261D01*
X116744761Y-73351071D01*
X116782857Y-73312976D01*
X116859047Y-73274880D01*
X117049523Y-73274880D01*
X117125714Y-73312976D01*
X117163809Y-73351071D01*
X117201904Y-73427261D01*
X117201904Y-73655833D01*
X117163809Y-73732023D01*
X117125714Y-73770119D01*
X132441904Y-66387023D02*
X131641904Y-66387023D01*
X131641904Y-66082261D01*
X131680000Y-66006071D01*
X131718095Y-65967976D01*
X131794285Y-65929880D01*
X131908571Y-65929880D01*
X131984761Y-65967976D01*
X132022857Y-66006071D01*
X132060952Y-66082261D01*
X132060952Y-66387023D01*
X132365714Y-65129880D02*
X132403809Y-65167976D01*
X132441904Y-65282261D01*
X132441904Y-65358452D01*
X132403809Y-65472738D01*
X132327619Y-65548928D01*
X132251428Y-65587023D01*
X132099047Y-65625119D01*
X131984761Y-65625119D01*
X131832380Y-65587023D01*
X131756190Y-65548928D01*
X131680000Y-65472738D01*
X131641904Y-65358452D01*
X131641904Y-65282261D01*
X131680000Y-65167976D01*
X131718095Y-65129880D01*
X132441904Y-64367976D02*
X132441904Y-64825119D01*
X132441904Y-64596547D02*
X131641904Y-64596547D01*
X131756190Y-64672738D01*
X131832380Y-64748928D01*
X131870476Y-64825119D01*
X131718095Y-64063214D02*
X131680000Y-64025119D01*
X131641904Y-63948928D01*
X131641904Y-63758452D01*
X131680000Y-63682261D01*
X131718095Y-63644166D01*
X131794285Y-63606071D01*
X131870476Y-63606071D01*
X131984761Y-63644166D01*
X132441904Y-64101309D01*
X132441904Y-63606071D01*
X119741904Y-105122023D02*
X118941904Y-105122023D01*
X118941904Y-104817261D01*
X118980000Y-104741071D01*
X119018095Y-104702976D01*
X119094285Y-104664880D01*
X119208571Y-104664880D01*
X119284761Y-104702976D01*
X119322857Y-104741071D01*
X119360952Y-104817261D01*
X119360952Y-105122023D01*
X119513333Y-104360119D02*
X119513333Y-103979166D01*
X119741904Y-104436309D02*
X118941904Y-104169642D01*
X119741904Y-103902976D01*
X119741904Y-103217261D02*
X119741904Y-103674404D01*
X119741904Y-103445833D02*
X118941904Y-103445833D01*
X119056190Y-103522023D01*
X119132380Y-103598214D01*
X119170476Y-103674404D01*
X108820000Y-104702976D02*
X108781904Y-104779166D01*
X108781904Y-104893452D01*
X108820000Y-105007738D01*
X108896190Y-105083928D01*
X108972380Y-105122023D01*
X109124761Y-105160119D01*
X109239047Y-105160119D01*
X109391428Y-105122023D01*
X109467619Y-105083928D01*
X109543809Y-105007738D01*
X109581904Y-104893452D01*
X109581904Y-104817261D01*
X109543809Y-104702976D01*
X109505714Y-104664880D01*
X109239047Y-104664880D01*
X109239047Y-104817261D01*
X109581904Y-104322023D02*
X108781904Y-104322023D01*
X109581904Y-103864880D01*
X108781904Y-103864880D01*
X109581904Y-103483928D02*
X108781904Y-103483928D01*
X108781904Y-103293452D01*
X108820000Y-103179166D01*
X108896190Y-103102976D01*
X108972380Y-103064880D01*
X109124761Y-103026785D01*
X109239047Y-103026785D01*
X109391428Y-103064880D01*
X109467619Y-103102976D01*
X109543809Y-103179166D01*
X109581904Y-103293452D01*
X109581904Y-103483928D01*
X108820000Y-74951071D02*
X108781904Y-75027261D01*
X108781904Y-75141547D01*
X108820000Y-75255833D01*
X108896190Y-75332023D01*
X108972380Y-75370119D01*
X109124761Y-75408214D01*
X109239047Y-75408214D01*
X109391428Y-75370119D01*
X109467619Y-75332023D01*
X109543809Y-75255833D01*
X109581904Y-75141547D01*
X109581904Y-75065357D01*
X109543809Y-74951071D01*
X109505714Y-74912976D01*
X109239047Y-74912976D01*
X109239047Y-75065357D01*
X109581904Y-74570119D02*
X108781904Y-74570119D01*
X109581904Y-74112976D01*
X108781904Y-74112976D01*
X109581904Y-73732023D02*
X108781904Y-73732023D01*
X108781904Y-73541547D01*
X108820000Y-73427261D01*
X108896190Y-73351071D01*
X108972380Y-73312976D01*
X109124761Y-73274880D01*
X109239047Y-73274880D01*
X109391428Y-73312976D01*
X109467619Y-73351071D01*
X109543809Y-73427261D01*
X109581904Y-73541547D01*
X109581904Y-73732023D01*
X112121904Y-105122023D02*
X111321904Y-105122023D01*
X112121904Y-104664880D01*
X111321904Y-104664880D01*
X112121904Y-103826785D02*
X111740952Y-104093452D01*
X112121904Y-104283928D02*
X111321904Y-104283928D01*
X111321904Y-103979166D01*
X111360000Y-103902976D01*
X111398095Y-103864880D01*
X111474285Y-103826785D01*
X111588571Y-103826785D01*
X111664761Y-103864880D01*
X111702857Y-103902976D01*
X111740952Y-103979166D01*
X111740952Y-104283928D01*
X112083809Y-103522023D02*
X112121904Y-103407738D01*
X112121904Y-103217261D01*
X112083809Y-103141071D01*
X112045714Y-103102976D01*
X111969523Y-103064880D01*
X111893333Y-103064880D01*
X111817142Y-103102976D01*
X111779047Y-103141071D01*
X111740952Y-103217261D01*
X111702857Y-103369642D01*
X111664761Y-103445833D01*
X111626666Y-103483928D01*
X111550476Y-103522023D01*
X111474285Y-103522023D01*
X111398095Y-103483928D01*
X111360000Y-103445833D01*
X111321904Y-103369642D01*
X111321904Y-103179166D01*
X111360000Y-103064880D01*
X111321904Y-102836309D02*
X111321904Y-102379166D01*
X112121904Y-102607738D02*
X111321904Y-102607738D01*
X157041904Y-66006071D02*
X157041904Y-66387023D01*
X157422857Y-66425119D01*
X157384761Y-66387023D01*
X157346666Y-66310833D01*
X157346666Y-66120357D01*
X157384761Y-66044166D01*
X157422857Y-66006071D01*
X157499047Y-65967976D01*
X157689523Y-65967976D01*
X157765714Y-66006071D01*
X157803809Y-66044166D01*
X157841904Y-66120357D01*
X157841904Y-66310833D01*
X157803809Y-66387023D01*
X157765714Y-66425119D01*
X157041904Y-65739404D02*
X157841904Y-65472738D01*
X157041904Y-65206071D01*
X145141904Y-66387023D02*
X144341904Y-66387023D01*
X144341904Y-66082261D01*
X144380000Y-66006071D01*
X144418095Y-65967976D01*
X144494285Y-65929880D01*
X144608571Y-65929880D01*
X144684761Y-65967976D01*
X144722857Y-66006071D01*
X144760952Y-66082261D01*
X144760952Y-66387023D01*
X144913333Y-65625119D02*
X144913333Y-65244166D01*
X145141904Y-65701309D02*
X144341904Y-65434642D01*
X145141904Y-65167976D01*
X145141904Y-64482261D02*
X145141904Y-64939404D01*
X145141904Y-64710833D02*
X144341904Y-64710833D01*
X144456190Y-64787023D01*
X144532380Y-64863214D01*
X144570476Y-64939404D01*
X144341904Y-63987023D02*
X144341904Y-63910833D01*
X144380000Y-63834642D01*
X144418095Y-63796547D01*
X144494285Y-63758452D01*
X144646666Y-63720357D01*
X144837142Y-63720357D01*
X144989523Y-63758452D01*
X145065714Y-63796547D01*
X145103809Y-63834642D01*
X145141904Y-63910833D01*
X145141904Y-63987023D01*
X145103809Y-64063214D01*
X145065714Y-64101309D01*
X144989523Y-64139404D01*
X144837142Y-64177500D01*
X144646666Y-64177500D01*
X144494285Y-64139404D01*
X144418095Y-64101309D01*
X144380000Y-64063214D01*
X144341904Y-63987023D01*
X108781904Y-113698690D02*
X108781904Y-113203452D01*
X109086666Y-113470119D01*
X109086666Y-113355833D01*
X109124761Y-113279642D01*
X109162857Y-113241547D01*
X109239047Y-113203452D01*
X109429523Y-113203452D01*
X109505714Y-113241547D01*
X109543809Y-113279642D01*
X109581904Y-113355833D01*
X109581904Y-113584404D01*
X109543809Y-113660595D01*
X109505714Y-113698690D01*
X109505714Y-112860595D02*
X109543809Y-112822500D01*
X109581904Y-112860595D01*
X109543809Y-112898690D01*
X109505714Y-112860595D01*
X109581904Y-112860595D01*
X108781904Y-112555833D02*
X108781904Y-112060595D01*
X109086666Y-112327261D01*
X109086666Y-112212976D01*
X109124761Y-112136785D01*
X109162857Y-112098690D01*
X109239047Y-112060595D01*
X109429523Y-112060595D01*
X109505714Y-112098690D01*
X109543809Y-112136785D01*
X109581904Y-112212976D01*
X109581904Y-112441547D01*
X109543809Y-112517738D01*
X109505714Y-112555833D01*
X108781904Y-111832023D02*
X109581904Y-111565357D01*
X108781904Y-111298690D01*
X154540000Y-104702976D02*
X154501904Y-104779166D01*
X154501904Y-104893452D01*
X154540000Y-105007738D01*
X154616190Y-105083928D01*
X154692380Y-105122023D01*
X154844761Y-105160119D01*
X154959047Y-105160119D01*
X155111428Y-105122023D01*
X155187619Y-105083928D01*
X155263809Y-105007738D01*
X155301904Y-104893452D01*
X155301904Y-104817261D01*
X155263809Y-104702976D01*
X155225714Y-104664880D01*
X154959047Y-104664880D01*
X154959047Y-104817261D01*
X155301904Y-104322023D02*
X154501904Y-104322023D01*
X155301904Y-103864880D01*
X154501904Y-103864880D01*
X155301904Y-103483928D02*
X154501904Y-103483928D01*
X154501904Y-103293452D01*
X154540000Y-103179166D01*
X154616190Y-103102976D01*
X154692380Y-103064880D01*
X154844761Y-103026785D01*
X154959047Y-103026785D01*
X155111428Y-103064880D01*
X155187619Y-103102976D01*
X155263809Y-103179166D01*
X155301904Y-103293452D01*
X155301904Y-103483928D01*
X145141904Y-113393928D02*
X144341904Y-113393928D01*
X144341904Y-113089166D01*
X144380000Y-113012976D01*
X144418095Y-112974880D01*
X144494285Y-112936785D01*
X144608571Y-112936785D01*
X144684761Y-112974880D01*
X144722857Y-113012976D01*
X144760952Y-113089166D01*
X144760952Y-113393928D01*
X145065714Y-112136785D02*
X145103809Y-112174880D01*
X145141904Y-112289166D01*
X145141904Y-112365357D01*
X145103809Y-112479642D01*
X145027619Y-112555833D01*
X144951428Y-112593928D01*
X144799047Y-112632023D01*
X144684761Y-112632023D01*
X144532380Y-112593928D01*
X144456190Y-112555833D01*
X144380000Y-112479642D01*
X144341904Y-112365357D01*
X144341904Y-112289166D01*
X144380000Y-112174880D01*
X144418095Y-112136785D01*
X144341904Y-111451071D02*
X144341904Y-111603452D01*
X144380000Y-111679642D01*
X144418095Y-111717738D01*
X144532380Y-111793928D01*
X144684761Y-111832023D01*
X144989523Y-111832023D01*
X145065714Y-111793928D01*
X145103809Y-111755833D01*
X145141904Y-111679642D01*
X145141904Y-111527261D01*
X145103809Y-111451071D01*
X145065714Y-111412976D01*
X144989523Y-111374880D01*
X144799047Y-111374880D01*
X144722857Y-111412976D01*
X144684761Y-111451071D01*
X144646666Y-111527261D01*
X144646666Y-111679642D01*
X144684761Y-111755833D01*
X144722857Y-111793928D01*
X144799047Y-111832023D01*
X132441904Y-105122023D02*
X131641904Y-105122023D01*
X131641904Y-104817261D01*
X131680000Y-104741071D01*
X131718095Y-104702976D01*
X131794285Y-104664880D01*
X131908571Y-104664880D01*
X131984761Y-104702976D01*
X132022857Y-104741071D01*
X132060952Y-104817261D01*
X132060952Y-105122023D01*
X132022857Y-104055357D02*
X132060952Y-103941071D01*
X132099047Y-103902976D01*
X132175238Y-103864880D01*
X132289523Y-103864880D01*
X132365714Y-103902976D01*
X132403809Y-103941071D01*
X132441904Y-104017261D01*
X132441904Y-104322023D01*
X131641904Y-104322023D01*
X131641904Y-104055357D01*
X131680000Y-103979166D01*
X131718095Y-103941071D01*
X131794285Y-103902976D01*
X131870476Y-103902976D01*
X131946666Y-103941071D01*
X131984761Y-103979166D01*
X132022857Y-104055357D01*
X132022857Y-104322023D01*
X132441904Y-103102976D02*
X132441904Y-103560119D01*
X132441904Y-103331547D02*
X131641904Y-103331547D01*
X131756190Y-103407738D01*
X131832380Y-103483928D01*
X131870476Y-103560119D01*
X142601904Y-105122023D02*
X141801904Y-105122023D01*
X141801904Y-104817261D01*
X141840000Y-104741071D01*
X141878095Y-104702976D01*
X141954285Y-104664880D01*
X142068571Y-104664880D01*
X142144761Y-104702976D01*
X142182857Y-104741071D01*
X142220952Y-104817261D01*
X142220952Y-105122023D01*
X142182857Y-104055357D02*
X142220952Y-103941071D01*
X142259047Y-103902976D01*
X142335238Y-103864880D01*
X142449523Y-103864880D01*
X142525714Y-103902976D01*
X142563809Y-103941071D01*
X142601904Y-104017261D01*
X142601904Y-104322023D01*
X141801904Y-104322023D01*
X141801904Y-104055357D01*
X141840000Y-103979166D01*
X141878095Y-103941071D01*
X141954285Y-103902976D01*
X142030476Y-103902976D01*
X142106666Y-103941071D01*
X142144761Y-103979166D01*
X142182857Y-104055357D01*
X142182857Y-104322023D01*
X142601904Y-103102976D02*
X142601904Y-103560119D01*
X142601904Y-103331547D02*
X141801904Y-103331547D01*
X141916190Y-103407738D01*
X141992380Y-103483928D01*
X142030476Y-103560119D01*
X141801904Y-102379166D02*
X141801904Y-102760119D01*
X142182857Y-102798214D01*
X142144761Y-102760119D01*
X142106666Y-102683928D01*
X142106666Y-102493452D01*
X142144761Y-102417261D01*
X142182857Y-102379166D01*
X142259047Y-102341071D01*
X142449523Y-102341071D01*
X142525714Y-102379166D01*
X142563809Y-102417261D01*
X142601904Y-102493452D01*
X142601904Y-102683928D01*
X142563809Y-102760119D01*
X142525714Y-102798214D01*
X157080000Y-104702976D02*
X157041904Y-104779166D01*
X157041904Y-104893452D01*
X157080000Y-105007738D01*
X157156190Y-105083928D01*
X157232380Y-105122023D01*
X157384761Y-105160119D01*
X157499047Y-105160119D01*
X157651428Y-105122023D01*
X157727619Y-105083928D01*
X157803809Y-105007738D01*
X157841904Y-104893452D01*
X157841904Y-104817261D01*
X157803809Y-104702976D01*
X157765714Y-104664880D01*
X157499047Y-104664880D01*
X157499047Y-104817261D01*
X157841904Y-104322023D02*
X157041904Y-104322023D01*
X157841904Y-103864880D01*
X157041904Y-103864880D01*
X157841904Y-103483928D02*
X157041904Y-103483928D01*
X157041904Y-103293452D01*
X157080000Y-103179166D01*
X157156190Y-103102976D01*
X157232380Y-103064880D01*
X157384761Y-103026785D01*
X157499047Y-103026785D01*
X157651428Y-103064880D01*
X157727619Y-103102976D01*
X157803809Y-103179166D01*
X157841904Y-103293452D01*
X157841904Y-103483928D01*
X154540000Y-74951071D02*
X154501904Y-75027261D01*
X154501904Y-75141547D01*
X154540000Y-75255833D01*
X154616190Y-75332023D01*
X154692380Y-75370119D01*
X154844761Y-75408214D01*
X154959047Y-75408214D01*
X155111428Y-75370119D01*
X155187619Y-75332023D01*
X155263809Y-75255833D01*
X155301904Y-75141547D01*
X155301904Y-75065357D01*
X155263809Y-74951071D01*
X155225714Y-74912976D01*
X154959047Y-74912976D01*
X154959047Y-75065357D01*
X155301904Y-74570119D02*
X154501904Y-74570119D01*
X155301904Y-74112976D01*
X154501904Y-74112976D01*
X155301904Y-73732023D02*
X154501904Y-73732023D01*
X154501904Y-73541547D01*
X154540000Y-73427261D01*
X154616190Y-73351071D01*
X154692380Y-73312976D01*
X154844761Y-73274880D01*
X154959047Y-73274880D01*
X155111428Y-73312976D01*
X155187619Y-73351071D01*
X155263809Y-73427261D01*
X155301904Y-73541547D01*
X155301904Y-73732023D01*
X151961904Y-75293928D02*
X152609523Y-75293928D01*
X152685714Y-75255833D01*
X152723809Y-75217738D01*
X152761904Y-75141547D01*
X152761904Y-74989166D01*
X152723809Y-74912976D01*
X152685714Y-74874880D01*
X152609523Y-74836785D01*
X151961904Y-74836785D01*
X152761904Y-74036785D02*
X152761904Y-74493928D01*
X152761904Y-74265357D02*
X151961904Y-74265357D01*
X152076190Y-74341547D01*
X152152380Y-74417738D01*
X152190476Y-74493928D01*
X151961904Y-73351071D02*
X151961904Y-73503452D01*
X152000000Y-73579642D01*
X152038095Y-73617738D01*
X152152380Y-73693928D01*
X152304761Y-73732023D01*
X152609523Y-73732023D01*
X152685714Y-73693928D01*
X152723809Y-73655833D01*
X152761904Y-73579642D01*
X152761904Y-73427261D01*
X152723809Y-73351071D01*
X152685714Y-73312976D01*
X152609523Y-73274880D01*
X152419047Y-73274880D01*
X152342857Y-73312976D01*
X152304761Y-73351071D01*
X152266666Y-73427261D01*
X152266666Y-73579642D01*
X152304761Y-73655833D01*
X152342857Y-73693928D01*
X152419047Y-73732023D01*
X122281904Y-105122023D02*
X121481904Y-105122023D01*
X121481904Y-104817261D01*
X121520000Y-104741071D01*
X121558095Y-104702976D01*
X121634285Y-104664880D01*
X121748571Y-104664880D01*
X121824761Y-104702976D01*
X121862857Y-104741071D01*
X121900952Y-104817261D01*
X121900952Y-105122023D01*
X122053333Y-104360119D02*
X122053333Y-103979166D01*
X122281904Y-104436309D02*
X121481904Y-104169642D01*
X122281904Y-103902976D01*
X121481904Y-103712500D02*
X121481904Y-103217261D01*
X121786666Y-103483928D01*
X121786666Y-103369642D01*
X121824761Y-103293452D01*
X121862857Y-103255357D01*
X121939047Y-103217261D01*
X122129523Y-103217261D01*
X122205714Y-103255357D01*
X122243809Y-103293452D01*
X122281904Y-103369642D01*
X122281904Y-103598214D01*
X122243809Y-103674404D01*
X122205714Y-103712500D01*
X114661904Y-105122023D02*
X113861904Y-105122023D01*
X113861904Y-104817261D01*
X113900000Y-104741071D01*
X113938095Y-104702976D01*
X114014285Y-104664880D01*
X114128571Y-104664880D01*
X114204761Y-104702976D01*
X114242857Y-104741071D01*
X114280952Y-104817261D01*
X114280952Y-105122023D01*
X114585714Y-103864880D02*
X114623809Y-103902976D01*
X114661904Y-104017261D01*
X114661904Y-104093452D01*
X114623809Y-104207738D01*
X114547619Y-104283928D01*
X114471428Y-104322023D01*
X114319047Y-104360119D01*
X114204761Y-104360119D01*
X114052380Y-104322023D01*
X113976190Y-104283928D01*
X113900000Y-104207738D01*
X113861904Y-104093452D01*
X113861904Y-104017261D01*
X113900000Y-103902976D01*
X113938095Y-103864880D01*
X114661904Y-103102976D02*
X114661904Y-103560119D01*
X114661904Y-103331547D02*
X113861904Y-103331547D01*
X113976190Y-103407738D01*
X114052380Y-103483928D01*
X114090476Y-103560119D01*
X137521904Y-114155833D02*
X136721904Y-114155833D01*
X136721904Y-113851071D01*
X136760000Y-113774880D01*
X136798095Y-113736785D01*
X136874285Y-113698690D01*
X136988571Y-113698690D01*
X137064761Y-113736785D01*
X137102857Y-113774880D01*
X137140952Y-113851071D01*
X137140952Y-114155833D01*
X137102857Y-113089166D02*
X137140952Y-112974880D01*
X137179047Y-112936785D01*
X137255238Y-112898690D01*
X137369523Y-112898690D01*
X137445714Y-112936785D01*
X137483809Y-112974880D01*
X137521904Y-113051071D01*
X137521904Y-113355833D01*
X136721904Y-113355833D01*
X136721904Y-113089166D01*
X136760000Y-113012976D01*
X136798095Y-112974880D01*
X136874285Y-112936785D01*
X136950476Y-112936785D01*
X137026666Y-112974880D01*
X137064761Y-113012976D01*
X137102857Y-113089166D01*
X137102857Y-113355833D01*
X137521904Y-112136785D02*
X137521904Y-112593928D01*
X137521904Y-112365357D02*
X136721904Y-112365357D01*
X136836190Y-112441547D01*
X136912380Y-112517738D01*
X136950476Y-112593928D01*
X136721904Y-111641547D02*
X136721904Y-111565357D01*
X136760000Y-111489166D01*
X136798095Y-111451071D01*
X136874285Y-111412976D01*
X137026666Y-111374880D01*
X137217142Y-111374880D01*
X137369523Y-111412976D01*
X137445714Y-111451071D01*
X137483809Y-111489166D01*
X137521904Y-111565357D01*
X137521904Y-111641547D01*
X137483809Y-111717738D01*
X137445714Y-111755833D01*
X137369523Y-111793928D01*
X137217142Y-111832023D01*
X137026666Y-111832023D01*
X136874285Y-111793928D01*
X136798095Y-111755833D01*
X136760000Y-111717738D01*
X136721904Y-111641547D01*
X122281904Y-66387023D02*
X121481904Y-66387023D01*
X121481904Y-66082261D01*
X121520000Y-66006071D01*
X121558095Y-65967976D01*
X121634285Y-65929880D01*
X121748571Y-65929880D01*
X121824761Y-65967976D01*
X121862857Y-66006071D01*
X121900952Y-66082261D01*
X121900952Y-66387023D01*
X121862857Y-65320357D02*
X121900952Y-65206071D01*
X121939047Y-65167976D01*
X122015238Y-65129880D01*
X122129523Y-65129880D01*
X122205714Y-65167976D01*
X122243809Y-65206071D01*
X122281904Y-65282261D01*
X122281904Y-65587023D01*
X121481904Y-65587023D01*
X121481904Y-65320357D01*
X121520000Y-65244166D01*
X121558095Y-65206071D01*
X121634285Y-65167976D01*
X121710476Y-65167976D01*
X121786666Y-65206071D01*
X121824761Y-65244166D01*
X121862857Y-65320357D01*
X121862857Y-65587023D01*
X121824761Y-64672738D02*
X121786666Y-64748928D01*
X121748571Y-64787023D01*
X121672380Y-64825119D01*
X121634285Y-64825119D01*
X121558095Y-64787023D01*
X121520000Y-64748928D01*
X121481904Y-64672738D01*
X121481904Y-64520357D01*
X121520000Y-64444166D01*
X121558095Y-64406071D01*
X121634285Y-64367976D01*
X121672380Y-64367976D01*
X121748571Y-64406071D01*
X121786666Y-64444166D01*
X121824761Y-64520357D01*
X121824761Y-64672738D01*
X121862857Y-64748928D01*
X121900952Y-64787023D01*
X121977142Y-64825119D01*
X122129523Y-64825119D01*
X122205714Y-64787023D01*
X122243809Y-64748928D01*
X122281904Y-64672738D01*
X122281904Y-64520357D01*
X122243809Y-64444166D01*
X122205714Y-64406071D01*
X122129523Y-64367976D01*
X121977142Y-64367976D01*
X121900952Y-64406071D01*
X121862857Y-64444166D01*
X121824761Y-64520357D01*
X142601904Y-66387023D02*
X141801904Y-66387023D01*
X141801904Y-66082261D01*
X141840000Y-66006071D01*
X141878095Y-65967976D01*
X141954285Y-65929880D01*
X142068571Y-65929880D01*
X142144761Y-65967976D01*
X142182857Y-66006071D01*
X142220952Y-66082261D01*
X142220952Y-66387023D01*
X142373333Y-65625119D02*
X142373333Y-65244166D01*
X142601904Y-65701309D02*
X141801904Y-65434642D01*
X142601904Y-65167976D01*
X142601904Y-64482261D02*
X142601904Y-64939404D01*
X142601904Y-64710833D02*
X141801904Y-64710833D01*
X141916190Y-64787023D01*
X141992380Y-64863214D01*
X142030476Y-64939404D01*
X141878095Y-64177500D02*
X141840000Y-64139404D01*
X141801904Y-64063214D01*
X141801904Y-63872738D01*
X141840000Y-63796547D01*
X141878095Y-63758452D01*
X141954285Y-63720357D01*
X142030476Y-63720357D01*
X142144761Y-63758452D01*
X142601904Y-64215595D01*
X142601904Y-63720357D01*
X154501904Y-66463214D02*
X154501904Y-65967976D01*
X154806666Y-66234642D01*
X154806666Y-66120357D01*
X154844761Y-66044166D01*
X154882857Y-66006071D01*
X154959047Y-65967976D01*
X155149523Y-65967976D01*
X155225714Y-66006071D01*
X155263809Y-66044166D01*
X155301904Y-66120357D01*
X155301904Y-66348928D01*
X155263809Y-66425119D01*
X155225714Y-66463214D01*
X155225714Y-65625119D02*
X155263809Y-65587023D01*
X155301904Y-65625119D01*
X155263809Y-65663214D01*
X155225714Y-65625119D01*
X155301904Y-65625119D01*
X154501904Y-65320357D02*
X154501904Y-64825119D01*
X154806666Y-65091785D01*
X154806666Y-64977500D01*
X154844761Y-64901309D01*
X154882857Y-64863214D01*
X154959047Y-64825119D01*
X155149523Y-64825119D01*
X155225714Y-64863214D01*
X155263809Y-64901309D01*
X155301904Y-64977500D01*
X155301904Y-65206071D01*
X155263809Y-65282261D01*
X155225714Y-65320357D01*
X154501904Y-64596547D02*
X155301904Y-64329880D01*
X154501904Y-64063214D01*
X134981904Y-76055833D02*
X134181904Y-76055833D01*
X134181904Y-75751071D01*
X134220000Y-75674880D01*
X134258095Y-75636785D01*
X134334285Y-75598690D01*
X134448571Y-75598690D01*
X134524761Y-75636785D01*
X134562857Y-75674880D01*
X134600952Y-75751071D01*
X134600952Y-76055833D01*
X134905714Y-74798690D02*
X134943809Y-74836785D01*
X134981904Y-74951071D01*
X134981904Y-75027261D01*
X134943809Y-75141547D01*
X134867619Y-75217738D01*
X134791428Y-75255833D01*
X134639047Y-75293928D01*
X134524761Y-75293928D01*
X134372380Y-75255833D01*
X134296190Y-75217738D01*
X134220000Y-75141547D01*
X134181904Y-75027261D01*
X134181904Y-74951071D01*
X134220000Y-74836785D01*
X134258095Y-74798690D01*
X134981904Y-74036785D02*
X134981904Y-74493928D01*
X134981904Y-74265357D02*
X134181904Y-74265357D01*
X134296190Y-74341547D01*
X134372380Y-74417738D01*
X134410476Y-74493928D01*
X134981904Y-73274880D02*
X134981904Y-73732023D01*
X134981904Y-73503452D02*
X134181904Y-73503452D01*
X134296190Y-73579642D01*
X134372380Y-73655833D01*
X134410476Y-73732023D01*
X111321904Y-66387023D02*
X111969523Y-66387023D01*
X112045714Y-66348928D01*
X112083809Y-66310833D01*
X112121904Y-66234642D01*
X112121904Y-66082261D01*
X112083809Y-66006071D01*
X112045714Y-65967976D01*
X111969523Y-65929880D01*
X111321904Y-65929880D01*
X111321904Y-65167976D02*
X111321904Y-65548928D01*
X111702857Y-65587023D01*
X111664761Y-65548928D01*
X111626666Y-65472738D01*
X111626666Y-65282261D01*
X111664761Y-65206071D01*
X111702857Y-65167976D01*
X111779047Y-65129880D01*
X111969523Y-65129880D01*
X112045714Y-65167976D01*
X112083809Y-65206071D01*
X112121904Y-65282261D01*
X112121904Y-65472738D01*
X112083809Y-65548928D01*
X112045714Y-65587023D01*
X117201904Y-105122023D02*
X116401904Y-105122023D01*
X116401904Y-104817261D01*
X116440000Y-104741071D01*
X116478095Y-104702976D01*
X116554285Y-104664880D01*
X116668571Y-104664880D01*
X116744761Y-104702976D01*
X116782857Y-104741071D01*
X116820952Y-104817261D01*
X116820952Y-105122023D01*
X117125714Y-103864880D02*
X117163809Y-103902976D01*
X117201904Y-104017261D01*
X117201904Y-104093452D01*
X117163809Y-104207738D01*
X117087619Y-104283928D01*
X117011428Y-104322023D01*
X116859047Y-104360119D01*
X116744761Y-104360119D01*
X116592380Y-104322023D01*
X116516190Y-104283928D01*
X116440000Y-104207738D01*
X116401904Y-104093452D01*
X116401904Y-104017261D01*
X116440000Y-103902976D01*
X116478095Y-103864880D01*
X116401904Y-103598214D02*
X116401904Y-103102976D01*
X116706666Y-103369642D01*
X116706666Y-103255357D01*
X116744761Y-103179166D01*
X116782857Y-103141071D01*
X116859047Y-103102976D01*
X117049523Y-103102976D01*
X117125714Y-103141071D01*
X117163809Y-103179166D01*
X117201904Y-103255357D01*
X117201904Y-103483928D01*
X117163809Y-103560119D01*
X117125714Y-103598214D01*
D11*
G04 #@! TO.C,U1*
X131640000Y-86790000D02*
X131240000Y-86790000D01*
X135060000Y-91010000D02*
X135460000Y-91010000D01*
X131240000Y-91010000D02*
X131240000Y-90610000D01*
X131640000Y-91010000D02*
X131240000Y-91010000D01*
X135060000Y-86790000D02*
X135460000Y-86790000D01*
X135460000Y-91010000D02*
X135460000Y-90610000D01*
X135460000Y-86790000D02*
X135460000Y-87190000D01*
G04 #@! TD*
M02*
